<svg xmlns="http://www.w3.org/2000/svg" viewBox="0 0 2084.12 492.47"><defs><style>.cls-1{fill:#ededed;}.cls-1,.cls-4,.cls-6{stroke:#231f20;}.cls-1,.cls-4,.cls-6,.cls-9{stroke-miterlimit:10;stroke-width:0.75px;}.cls-2{font-size:24.76px;}.cls-2,.cls-5{fill:#231f20;}.cls-17,.cls-2{font-family:MyriadPro-Regular, Myriad Pro;}.cls-3{letter-spacing:-0.01em;}.cls-4,.cls-9{fill:none;}.cls-10,.cls-6{fill:#fbb040;}.cls-7{letter-spacing:0em;}.cls-8{letter-spacing:-0.01em;}.cls-9{stroke:#fbb040;}.cls-11{letter-spacing:0em;}.cls-12{letter-spacing:0em;}.cls-13{letter-spacing:0em;}.cls-14{letter-spacing:-0.01em;}.cls-15{letter-spacing:0.03em;}.cls-16{letter-spacing:0.01em;}.cls-17{font-size:35px;fill:#fff;}.cls-18{letter-spacing:0em;}.cls-19{letter-spacing:-0.01em;}.cls-20{letter-spacing:0em;}.cls-21{letter-spacing:0.01em;}.cls-22{letter-spacing:-0.01em;}.cls-23{letter-spacing:-0.01em;}.cls-24{letter-spacing:0em;}.cls-25{letter-spacing:0.02em;}.cls-26{letter-spacing:0.01em;}.cls-27{letter-spacing:0em;}.cls-28{letter-spacing:0em;}.cls-29{letter-spacing:-0.01em;}.cls-30{letter-spacing:0em;}.cls-31{letter-spacing:-0.06em;}.cls-32{letter-spacing:-0.01em;}.cls-33{letter-spacing:1.24em;}.cls-34{letter-spacing:-0.01em;}</style></defs><title>assumptionPic1</title><g id="Layer_2" data-name="Layer 2"><g id="Layer_1-2" data-name="Layer 1"><rect class="cls-1" x="564.66" y="224.18" width="152.23" height="38.43" rx="6.98"/><text class="cls-2"><tspan x="595.77" y="250.96">inst:ca</tspan><tspan class="cls-3" x="661.47" y="250.96">r</tspan><tspan x="669.44" y="250.96">-1</tspan></text><line class="cls-4" x1="711.24" y1="225.14" x2="796.18" y2="150.82"/><polygon class="cls-5" points="796.49 153.44 801.18 146.45 793.62 150.16 796.49 153.44"/><rect class="cls-1" x="800.1" y="105.96" width="152.23" height="38.43" rx="6.98"/><text class="cls-2"><tspan x="815.4" y="132.75">inst:wheel-1</tspan></text><rect class="cls-1" x="788.84" y="343.28" width="152.23" height="38.43" rx="6.98"/><text class="cls-2"><tspan x="804.14" y="370.06">inst:wheel-2</tspan></text><line class="cls-4" x1="709.93" y1="262.6" x2="782.25" y2="341.05"/><polygon class="cls-5" points="779.64 341.44 786.75 345.94 782.84 338.48 779.64 341.44"/><line class="cls-4" x1="570.39" y1="262.1" x2="485.45" y2="336.42"/><polygon class="cls-5" points="485.14 333.81 480.45 340.8 488.01 337.08 485.14 333.81"/><line class="cls-4" x1="571.7" y1="224.64" x2="497.38" y2="139.71"/><polygon class="cls-5" points="500 139.39 493 134.71 496.72 142.26 500 139.39"/><rect class="cls-1" x="340.67" y="95.77" width="152.23" height="38.43" rx="6.98"/><text class="cls-2"><tspan x="355.97" y="122.56">inst:wheel-4</tspan></text><rect class="cls-1" x="329.42" y="340.35" width="152.23" height="38.43" rx="6.98"/><text class="cls-2"><tspan x="344.72" y="367.13">inst:wheel-3</tspan></text><rect class="cls-6" x="564.66" y="24.35" width="152.23" height="38.43" rx="6.98"/><text class="cls-2"><tspan class="cls-7" x="604.61" y="50.44">e</tspan><tspan x="616.94" y="50.44">x:</tspan><tspan class="cls-8" x="633.54" y="50.44">C</tspan><tspan x="647.72" y="50.44">ar</tspan></text><line class="cls-9" x1="641.42" y1="224.64" x2="640.8" y2="69.42"/><polygon class="cls-10" points="642.99 70.9 640.77 62.77 638.63 70.91 642.99 70.9"/><rect class="cls-6" x="564.66" y="450.85" width="152.23" height="38.43" rx="6.98"/><text class="cls-2"><tspan class="cls-7" x="593.7" y="476.96">e</tspan><tspan class="cls-11" x="606.03" y="476.96">x:</tspan><tspan class="cls-12" x="622.62" y="476.96">W</tspan><tspan x="643.45" y="476.96">heel</tspan></text><path class="cls-9" d="M431.79,143.71c16.65,23.28,33.4,48.46,49.92,75.62a1276.33,1276.33,0,0,1,101.4,207.51"/><polygon class="cls-10" points="580.49 426.26 585.46 433.05 584.55 424.69 580.49 426.26"/><path class="cls-9" d="M697.29,434.52c15.37-21.75,30.82-45.13,46.07-70.21A1277.3,1277.3,0,0,0,847.11,150.59"/><polygon class="cls-10" points="699.84 434.47 693.44 439.94 696.25 432 699.84 434.47"/><line class="cls-9" x1="469.67" y1="382.73" x2="556.41" y2="450.1"/><polygon class="cls-10" points="553.9 450.9 561.65 454.17 556.57 447.46 553.9 450.9"/><line class="cls-9" x1="797.33" y1="387.06" x2="726.37" y2="446.58"/><polygon class="cls-10" points="726.11 443.95 721.28 450.85 728.91 447.29 726.11 443.95"/><line class="cls-4" y1="210.16" x2="125.38" y2="210.16"/><polygon class="cls-5" points="123.9 212.34 132.03 210.16 123.9 207.99 123.9 212.34"/><line class="cls-9" y1="288.38" x2="125.38" y2="288.38"/><polygon class="cls-10" points="123.9 290.56 132.03 288.38 123.9 286.2 123.9 290.56"/><text class="cls-2"><tspan class="cls-7" x="0.01" y="201.2">e</tspan><tspan x="12.34" y="201.2">x:has</tspan><tspan class="cls-3" x="64.41" y="201.2">W</tspan><tspan class="cls-13" x="85.24" y="201.2">heel</tspan></text><text class="cls-2"><tspan class="cls-14" x="24.05" y="282.81">r</tspan><tspan x="31.9" y="282.81">d</tspan><tspan class="cls-15" x="45.87" y="282.81">f</tspan><tspan x="53.89" y="282.81">:</tspan><tspan class="cls-16" x="59.02" y="282.81">t</tspan><tspan class="cls-13" x="67.43" y="282.81">ype</tspan></text><text class="cls-17" transform="translate(1457.03 63.72)"><tspan xml:space="preserve">    </tspan><tspan class="cls-18" x="29.68" y="0">e</tspan><tspan x="47.11" y="0">x:</tspan><tspan class="cls-19" x="70.56" y="0">C</tspan><tspan class="cls-20" x="90.61" y="0">arShape</tspan><tspan x="0" y="42" xml:space="preserve">    a sh:NodeShape;</tspan><tspan x="0" y="84" xml:space="preserve">    sh:node</tspan><tspan class="cls-21" x="146.12" y="84">K</tspan><tspan x="165.44" y="84">ind sh:IRI ;</tspan><tspan x="0" y="126" xml:space="preserve">    sh:ta</tspan><tspan class="cls-22" x="98.66" y="126">r</tspan><tspan x="109.83" y="126">getClass </tspan><tspan class="cls-18" x="239.08" y="126">e</tspan><tspan x="256.51" y="126">x:</tspan><tspan class="cls-19" x="279.96" y="126">C</tspan><tspan class="cls-20" x="300.01" y="126">ar ;</tspan><tspan x="0" y="168" xml:space="preserve">    sh:p</tspan><tspan class="cls-23" x="90.12" y="168">r</tspan><tspan class="cls-24" x="101.22" y="168">ope</tspan><tspan class="cls-25" x="157.88" y="168">r</tspan><tspan class="cls-26" x="170.17" y="168">t</tspan><tspan x="182.07" y="168">y[</tspan><tspan x="0" y="210" xml:space="preserve">        sh:p</tspan><tspan class="cls-27" x="119.8" y="210">a</tspan><tspan x="136.53" y="210">th </tspan><tspan class="cls-18" x="174.96" y="210">e</tspan><tspan x="192.39" y="210">x:has</tspan><tspan class="cls-28" x="265.99" y="210">W</tspan><tspan x="295.43" y="210">heel ;</tspan><tspan x="0" y="252" xml:space="preserve">        sh:min</tspan><tspan class="cls-29" x="156.69" y="252">C</tspan><tspan x="176.61" y="252">ou</tspan><tspan class="cls-30" x="215.11" y="252">n</tspan><tspan x="234.39" y="252">t 4;</tspan><tspan x="0" y="294" xml:space="preserve">        sh:max</tspan><tspan class="cls-29" x="162.15" y="294">C</tspan><tspan x="182.07" y="294">ou</tspan><tspan class="cls-30" x="220.57" y="294">n</tspan><tspan x="239.85" y="294">t 4;</tspan><tspan x="0" y="336" xml:space="preserve">        sh:message </tspan><tspan class="cls-31" x="235.72" y="336">&quot;</tspan><tspan x="245.38" y="336">A car must h</tspan><tspan class="cls-22" x="426.4" y="336">a</tspan><tspan class="cls-32" x="442.99" y="336">v</tspan><tspan class="cls-20" x="459.47" y="336">e minimum</tspan><tspan class="cls-33" x="0" y="378" xml:space="preserve">			</tspan><tspan x="152.59" y="378" xml:space="preserve">        and maximum </tspan><tspan class="cls-34" x="430.94" y="378">f</tspan><tspan x="440.71" y="378">our wheels&quot;</tspan><tspan x="0" y="420" xml:space="preserve">    ]; </tspan></text><text/></g></g></svg>