<svg xmlns="http://www.w3.org/2000/svg" viewBox="0 0 2225.82 566.81"><defs><style>.cls-1,.cls-10,.cls-5{fill:none;}.cls-2{fill:#ededed;}.cls-2,.cls-5,.cls-7{stroke:#231f20;}.cls-10,.cls-2,.cls-5,.cls-7{stroke-miterlimit:10;stroke-width:0.75px;}.cls-3{font-size:24.76px;}.cls-18,.cls-3,.cls-6{fill:#231f20;}.cls-18,.cls-3{font-family:MyriadPro-Regular, Myriad Pro;}.cls-4{letter-spacing:-0.01em;}.cls-11,.cls-7{fill:#fbb040;}.cls-8{letter-spacing:0em;}.cls-9{letter-spacing:-0.01em;}.cls-10{stroke:#fbb040;}.cls-12{letter-spacing:0em;}.cls-13{letter-spacing:0em;}.cls-14{letter-spacing:0em;}.cls-15{letter-spacing:-0.01em;}.cls-16{letter-spacing:0.03em;}.cls-17{letter-spacing:0.01em;}.cls-18{font-size:35px;}.cls-19{letter-spacing:0em;}.cls-20{letter-spacing:-0.01em;}.cls-21{letter-spacing:0em;}.cls-22{letter-spacing:0.01em;}.cls-23{letter-spacing:-0.01em;}.cls-24{letter-spacing:-0.01em;}.cls-25{letter-spacing:0em;}.cls-26{letter-spacing:0.02em;}.cls-27{letter-spacing:0.01em;}.cls-28{letter-spacing:0em;}.cls-29{letter-spacing:0em;}.cls-30{letter-spacing:-0.01em;}.cls-31{letter-spacing:0em;}.cls-32{letter-spacing:-0.06em;}.cls-33{letter-spacing:-0.01em;}.cls-34{letter-spacing:1.24em;}.cls-35{letter-spacing:-0.01em;}</style></defs><title>assumptionPic2</title><g id="Layer_2" data-name="Layer 2"><g id="Layer_1-2" data-name="Layer 1"><rect class="cls-1" x="47.43" width="2178.38" height="566.81" rx="12"/><rect class="cls-2" x="564.66" y="271.24" width="152.23" height="38.43" rx="6.98"/><text class="cls-3"><tspan x="595.77" y="298.02">inst:ca</tspan><tspan class="cls-4" x="661.47" y="298.02">r</tspan><tspan x="669.44" y="298.02">-1</tspan></text><line class="cls-5" x1="711.24" y1="272.2" x2="796.18" y2="197.88"/><polygon class="cls-6" points="796.49 200.5 801.18 193.51 793.62 197.22 796.49 200.5"/><rect class="cls-2" x="800.1" y="153.02" width="152.23" height="38.43" rx="6.98"/><text class="cls-3"><tspan x="815.4" y="179.81">inst:wheel-1</tspan></text><rect class="cls-2" x="788.84" y="390.34" width="152.23" height="38.43" rx="6.98"/><text class="cls-3"><tspan x="804.14" y="417.12">inst:wheel-2</tspan></text><line class="cls-5" x1="709.93" y1="309.66" x2="782.25" y2="388.11"/><polygon class="cls-6" points="779.64 388.5 786.75 393 782.84 385.55 779.64 388.5"/><line class="cls-5" x1="570.39" y1="309.17" x2="485.45" y2="383.49"/><polygon class="cls-6" points="485.14 380.87 480.45 387.86 488.01 384.15 485.14 380.87"/><line class="cls-5" x1="571.7" y1="271.71" x2="497.38" y2="186.77"/><polygon class="cls-6" points="500 186.46 493 181.77 496.72 189.32 500 186.46"/><rect class="cls-2" x="340.67" y="142.84" width="152.23" height="38.43" rx="6.98"/><text class="cls-3"><tspan x="355.97" y="169.62">inst:wheel-4</tspan></text><rect class="cls-2" x="329.42" y="387.41" width="152.23" height="38.43" rx="6.98"/><text class="cls-3"><tspan x="344.72" y="414.19">inst:wheel-3</tspan></text><rect class="cls-7" x="564.66" y="71.41" width="152.23" height="38.43" rx="6.98"/><text class="cls-3"><tspan class="cls-8" x="604.61" y="97.51">e</tspan><tspan x="616.94" y="97.51">x:</tspan><tspan class="cls-9" x="633.54" y="97.51">C</tspan><tspan x="647.72" y="97.51">ar</tspan></text><line class="cls-10" x1="641.42" y1="271.71" x2="640.8" y2="116.48"/><polygon class="cls-11" points="642.99 117.96 640.77 109.84 638.63 117.98 642.99 117.96"/><rect class="cls-7" x="564.66" y="497.91" width="152.23" height="38.43" rx="6.98"/><text class="cls-3"><tspan class="cls-8" x="593.7" y="524.02">e</tspan><tspan class="cls-12" x="606.03" y="524.02">x:</tspan><tspan class="cls-13" x="622.62" y="524.02">W</tspan><tspan x="643.45" y="524.02">heel</tspan></text><path class="cls-10" d="M431.79,190.77c16.65,23.28,33.4,48.46,49.92,75.63a1275.86,1275.86,0,0,1,101.4,207.5"/><polygon class="cls-11" points="580.49 473.32 585.46 480.12 584.55 471.75 580.49 473.32"/><path class="cls-10" d="M697.29,481.58c15.37-21.75,30.82-45.13,46.07-70.2A1277.75,1277.75,0,0,0,847.11,197.65"/><polygon class="cls-11" points="699.84 481.54 693.44 487 696.25 479.07 699.84 481.54"/><line class="cls-10" x1="469.67" y1="429.79" x2="556.41" y2="497.16"/><polygon class="cls-11" points="553.9 497.97 561.65 501.23 556.57 494.53 553.9 497.97"/><line class="cls-10" x1="797.33" y1="434.12" x2="726.37" y2="493.64"/><polygon class="cls-11" points="726.11 491.01 721.28 497.91 728.91 494.35 726.11 491.01"/><line class="cls-5" y1="257.23" x2="125.38" y2="257.23"/><polygon class="cls-6" points="123.9 259.4 132.03 257.23 123.9 255.05 123.9 259.4"/><line class="cls-10" y1="335.44" x2="125.38" y2="335.44"/><polygon class="cls-11" points="123.9 337.62 132.03 335.44 123.9 333.26 123.9 337.62"/><text class="cls-3"><tspan class="cls-8" x="0.01" y="248.26">e</tspan><tspan x="12.34" y="248.26">x:has</tspan><tspan class="cls-4" x="64.41" y="248.26">W</tspan><tspan class="cls-14" x="85.24" y="248.26">heel</tspan></text><text class="cls-3"><tspan class="cls-15" x="24.05" y="329.87">r</tspan><tspan x="31.9" y="329.87">d</tspan><tspan class="cls-16" x="45.87" y="329.87">f</tspan><tspan x="53.89" y="329.87">:</tspan><tspan class="cls-17" x="59.02" y="329.87">t</tspan><tspan class="cls-14" x="67.43" y="329.87">ype</tspan></text><text class="cls-18" transform="translate(1457.03 110.79)"><tspan xml:space="preserve">    </tspan><tspan class="cls-19" x="29.68" y="0">e</tspan><tspan x="47.11" y="0">x:</tspan><tspan class="cls-20" x="70.56" y="0">C</tspan><tspan class="cls-21" x="90.61" y="0">arShape</tspan><tspan x="0" y="42" xml:space="preserve">    a sh:NodeShape;</tspan><tspan x="0" y="84" xml:space="preserve">    sh:node</tspan><tspan class="cls-22" x="146.12" y="84">K</tspan><tspan x="165.44" y="84">ind sh:IRI ;</tspan><tspan x="0" y="126" xml:space="preserve">    sh:ta</tspan><tspan class="cls-23" x="98.66" y="126">r</tspan><tspan x="109.83" y="126">getClass </tspan><tspan class="cls-19" x="239.08" y="126">e</tspan><tspan x="256.51" y="126">x:</tspan><tspan class="cls-20" x="279.96" y="126">C</tspan><tspan class="cls-21" x="300.01" y="126">ar ;</tspan><tspan x="0" y="168" xml:space="preserve">    sh:p</tspan><tspan class="cls-24" x="90.12" y="168">r</tspan><tspan class="cls-25" x="101.22" y="168">ope</tspan><tspan class="cls-26" x="157.88" y="168">r</tspan><tspan class="cls-27" x="170.17" y="168">t</tspan><tspan x="182.07" y="168">y[</tspan><tspan x="0" y="210" xml:space="preserve">        sh:p</tspan><tspan class="cls-28" x="119.8" y="210">a</tspan><tspan x="136.53" y="210">th </tspan><tspan class="cls-19" x="174.96" y="210">e</tspan><tspan x="192.39" y="210">x:has</tspan><tspan class="cls-29" x="265.99" y="210">W</tspan><tspan x="295.43" y="210">heel ;</tspan><tspan x="0" y="252" xml:space="preserve">        sh:min</tspan><tspan class="cls-30" x="156.69" y="252">C</tspan><tspan x="176.61" y="252">ou</tspan><tspan class="cls-31" x="215.11" y="252">n</tspan><tspan x="234.39" y="252">t 4;</tspan><tspan x="0" y="294" xml:space="preserve">        sh:max</tspan><tspan class="cls-30" x="162.15" y="294">C</tspan><tspan x="182.07" y="294">ou</tspan><tspan class="cls-31" x="220.57" y="294">n</tspan><tspan x="239.85" y="294">t 4;</tspan><tspan x="0" y="336" xml:space="preserve">        sh:message </tspan><tspan class="cls-32" x="235.72" y="336">&quot;</tspan><tspan x="245.38" y="336">A car must h</tspan><tspan class="cls-23" x="426.4" y="336">a</tspan><tspan class="cls-33" x="442.99" y="336">v</tspan><tspan class="cls-21" x="459.47" y="336">e minimum</tspan><tspan class="cls-34" x="0" y="378" xml:space="preserve">			</tspan><tspan x="152.59" y="378" xml:space="preserve">        and maximum </tspan><tspan class="cls-35" x="430.94" y="378">f</tspan><tspan x="440.71" y="378">our wheels&quot;</tspan><tspan x="0" y="420" xml:space="preserve">    ]; </tspan></text><text/></g></g></svg>