<?xml version="1.0" encoding="utf-8"?>
<!-- Generator: Adobe Illustrator 16.0.0, SVG Export Plug-In . SVG Version: 6.00 Build 0)  -->
<!DOCTYPE svg PUBLIC "-//W3C//DTD SVG 1.1//EN" "http://www.w3.org/Graphics/SVG/1.1/DTD/svg11.dtd">
<svg version="1.1" id="Layer_1" xmlns="http://www.w3.org/2000/svg" xmlns:xlink="http://www.w3.org/1999/xlink" x="0px" y="0px"
	 width="1920px" height="1080px" viewBox="0 0 1920 1080" enable-background="new 0 0 1920 1080" xml:space="preserve">
<g>
	<g>
		
			<image overflow="visible" opacity="0.75" width="1213" height="1136" xlink:href="EEF8075E.png"  transform="matrix(0.24 0 0 0.24 333.7158 408.897)">
		</image>
		<g>
			<g>
				<path fill="#FFFFFF" stroke="#000000" stroke-width="1.1766" stroke-miterlimit="10" d="M555.308,587.417
					c-57.036,67.021-124.583,59.337-176.41,10.421c-38.773-36.596-54.65-96.922,41.283-154.359
					c71.878-43.036,127.1-4.629,140.965,11.453C575.012,471.015,609.702,523.5,555.308,587.417z"/>
				<path fill="none" stroke="#000000" stroke-width="1.1591" stroke-miterlimit="10" d="M584.726,521.5
					c1.323,20.973-5.217,46.134-29.022,73.368c-56.661,64.82-124.189,57.023-176.212,9.259
					c-18.758-17.223-32.229-39.772-30.453-64.71"/>
			</g>
		</g>
	</g>
	<g>
		<g id="XMLID_95_">
			<g>
				<polygon fill="#08AD4B" points="513.478,483.667 513.478,505.123 498.273,500.474 				"/>
				<polygon fill="#08AD4B" points="489.826,454.786 513.478,483.667 498.273,500.474 466.15,490.676 466.15,480.956 				"/>
				<polygon fill="#08AD4B" points="513.478,505.123 461.757,562.304 461.757,540.856 498.273,500.474 				"/>
				<polygon fill="#08AD4B" points="498.273,500.474 461.757,540.856 442.282,517.086 466.15,490.676 				"/>
				<polygon fill="#08AD4B" points="489.826,454.786 466.15,480.956 466.15,467.415 				"/>
				<polygon fill="#08AD4B" points="466.15,480.956 466.15,490.676 442.282,517.086 438.084,511.971 				"/>
				<polygon fill="#08AD4B" points="466.15,467.415 466.15,480.956 438.084,511.971 414.429,524.6 				"/>
				<polygon fill="#08AD4B" points="461.757,540.856 461.757,562.304 414.429,547.883 442.282,517.086 				"/>
				<polygon fill="#08AD4B" points="442.282,517.086 414.429,547.883 414.429,524.6 438.084,511.971 				"/>
			</g>
			<g>
				
					<line fill="none" stroke="#000000" stroke-width="0.8913" stroke-linecap="round" stroke-miterlimit="10" x1="414.429" y1="524.6" x2="414.429" y2="547.883"/>
				
					<line fill="none" stroke="#000000" stroke-width="0.8913" stroke-linecap="round" stroke-miterlimit="10" x1="414.429" y1="547.883" x2="461.757" y2="562.304"/>
				
					<line fill="none" stroke="#000000" stroke-width="0.8913" stroke-miterlimit="10" x1="461.757" y1="562.304" x2="461.757" y2="540.856"/>
				<polyline fill="none" stroke="#000000" stroke-width="0.8913" stroke-miterlimit="10" points="461.757,540.856 442.282,517.086 
					438.084,511.971 				"/>
				
					<line fill="none" stroke="#000000" stroke-width="0.8913" stroke-miterlimit="10" x1="438.084" y1="511.971" x2="414.429" y2="524.6"/>
				<polyline fill="none" stroke="#000000" stroke-width="0.4457" stroke-miterlimit="10" stroke-dasharray="0.8913" points="
					466.15,467.415 466.15,480.956 466.15,490.676 				"/>
				<polyline fill="none" stroke="#000000" stroke-width="0.4457" stroke-miterlimit="10" stroke-dasharray="0.8913" points="
					466.15,490.676 498.273,500.474 513.478,505.123 				"/>
				
					<line fill="none" stroke="#000000" stroke-width="0.8913" stroke-linecap="round" stroke-miterlimit="10" x1="513.478" y1="505.123" x2="513.478" y2="483.667"/>
				
					<line fill="none" stroke="#000000" stroke-width="0.8913" stroke-linecap="round" stroke-miterlimit="10" x1="513.478" y1="483.667" x2="489.826" y2="454.786"/>
				
					<line fill="none" stroke="#000000" stroke-width="0.8913" stroke-linecap="round" stroke-miterlimit="10" x1="489.826" y1="454.786" x2="466.15" y2="467.415"/>
				<polyline fill="none" stroke="#000000" stroke-width="0.4457" stroke-miterlimit="10" stroke-dasharray="0.8913" points="
					414.429,547.883 442.282,517.086 466.15,490.676 				"/>
				
					<line fill="none" stroke="#000000" stroke-width="0.8913" stroke-linecap="round" stroke-miterlimit="10" x1="414.429" y1="524.6" x2="466.15" y2="467.415"/>
				<polyline fill="none" stroke="#000000" stroke-width="0.8913" stroke-miterlimit="10" points="438.084,511.971 466.15,480.956 
					489.826,454.786 				"/>
				<polyline fill="none" stroke="#000000" stroke-width="0.8913" stroke-miterlimit="10" points="461.757,540.856 498.273,500.474 
					513.478,483.667 				"/>
				
					<line fill="none" stroke="#000000" stroke-width="0.8913" stroke-linecap="round" stroke-miterlimit="10" x1="461.757" y1="562.304" x2="513.478" y2="505.123"/>
			</g>
		</g>
	</g>
	<text transform="matrix(1 0 0 1 347.9873 677.7212)" font-family="GeosansLight" font-size="35.6538">Architect’s island</text>
</g>
<g>
	<g>
		
			<image overflow="visible" opacity="0.75" width="1213" height="1136" xlink:href="EEF80762.png"  transform="matrix(0.24 0 0 0.24 622.5161 135.4766)">
		</image>
		<g>
			<g>
				<path fill="#FFFFFF" stroke="#000000" stroke-width="1.1766" stroke-miterlimit="10" d="M844.108,313.997
					c-57.035,67.021-124.583,59.337-176.41,10.421c-38.773-36.596-54.65-96.921,41.283-154.359
					c71.878-43.035,127.1-4.629,140.965,11.454C863.813,197.594,898.502,250.08,844.108,313.997z"/>
				<path fill="none" stroke="#000000" stroke-width="1.1591" stroke-miterlimit="10" d="M873.526,248.079
					c1.323,20.973-5.217,46.134-29.022,73.369c-56.661,64.819-124.189,57.023-176.212,9.258
					c-18.758-17.223-32.229-39.773-30.453-64.709"/>
			</g>
		</g>
	</g>
	<g>
		<g>
			<g id="XMLID_96_">
				<g>
					<polygon fill="#BE1E2D" points="805.325,215.412 805.325,236.931 790.086,232.274 					"/>
					<polygon fill="#BE1E2D" points="781.615,186.479 805.325,215.412 790.086,232.274 757.886,222.435 757.886,212.712 					"/>
					<polygon fill="#BE1E2D" points="805.325,236.931 753.484,294.229 753.484,272.73 790.086,232.274 					"/>
					<polygon fill="#BE1E2D" points="790.086,232.274 753.484,272.73 733.961,248.922 757.886,222.435 					"/>
					<polygon fill="#BE1E2D" points="781.615,186.479 757.886,212.712 757.886,199.136 					"/>
					<polygon fill="#BE1E2D" points="757.886,212.712 757.886,222.435 733.961,248.922 729.755,243.797 					"/>
					<polygon fill="#BE1E2D" points="757.886,199.136 757.886,212.712 729.755,243.797 706.045,256.435 					"/>
					<polygon fill="#BE1E2D" points="753.484,272.73 753.484,294.229 706.045,279.792 733.961,248.922 					"/>
					<polygon fill="#BE1E2D" points="733.961,248.922 706.045,279.792 706.045,256.435 729.755,243.797 					"/>
				</g>
				<g>
					
						<line fill="none" stroke="#000000" stroke-width="0.8913" stroke-linecap="round" stroke-miterlimit="10" x1="706.045" y1="256.435" x2="706.045" y2="279.792"/>
					
						<line fill="none" stroke="#000000" stroke-width="0.8913" stroke-linecap="round" stroke-miterlimit="10" x1="706.045" y1="279.792" x2="753.484" y2="294.229"/>
					
						<line fill="none" stroke="#000000" stroke-width="0.8913" stroke-miterlimit="10" x1="753.484" y1="294.229" x2="753.484" y2="272.73"/>
					<polyline fill="none" stroke="#000000" stroke-width="0.8913" stroke-miterlimit="10" points="753.484,272.73 733.961,248.922 
						729.755,243.797 					"/>
					
						<line fill="none" stroke="#000000" stroke-width="0.8913" stroke-miterlimit="10" x1="729.755" y1="243.797" x2="706.045" y2="256.435"/>
					<polyline fill="none" stroke="#000000" stroke-width="0.4457" stroke-miterlimit="10" stroke-dasharray="0.8913" points="
						757.886,199.136 757.886,212.712 757.886,222.435 					"/>
					<polyline fill="none" stroke="#000000" stroke-width="0.4457" stroke-miterlimit="10" stroke-dasharray="0.8913" points="
						757.886,222.435 790.086,232.274 805.325,236.931 					"/>
					
						<line fill="none" stroke="#000000" stroke-width="0.8913" stroke-linecap="round" stroke-miterlimit="10" x1="805.325" y1="236.931" x2="805.325" y2="215.412"/>
					
						<line fill="none" stroke="#000000" stroke-width="0.8913" stroke-linecap="round" stroke-miterlimit="10" x1="805.325" y1="215.412" x2="781.615" y2="186.479"/>
					
						<line fill="none" stroke="#000000" stroke-width="0.8913" stroke-linecap="round" stroke-miterlimit="10" x1="781.615" y1="186.479" x2="757.886" y2="199.136"/>
					<polyline fill="none" stroke="#000000" stroke-width="0.4457" stroke-miterlimit="10" stroke-dasharray="0.8913" points="
						706.045,279.792 733.961,248.922 757.886,222.435 					"/>
					
						<line fill="none" stroke="#000000" stroke-width="0.8913" stroke-miterlimit="10" x1="706.045" y1="256.435" x2="757.886" y2="199.136"/>
					<polyline fill="none" stroke="#000000" stroke-width="0.8913" stroke-miterlimit="10" points="729.755,243.797 
						757.886,212.712 781.615,186.479 					"/>
					<polyline fill="none" stroke="#000000" stroke-width="0.8913" stroke-miterlimit="10" points="753.484,272.73 790.086,232.274 
						805.325,215.412 					"/>
					
						<line fill="none" stroke="#000000" stroke-width="0.8913" stroke-linecap="round" stroke-miterlimit="10" x1="753.484" y1="294.229" x2="805.325" y2="236.931"/>
				</g>
			</g>
		</g>
		<path opacity="0.8" fill="#FFFFFF" stroke="#000000" stroke-width="0.4457" stroke-miterlimit="10" d="M732.149,269.208
			c1.171-0.104,3.126,0.15,5.003,1.692c3.191,2.632,6.19,0.738,5.754-2.364c-0.389-2.751-2.023-5.884-4.097-7.521
			c-3.102-2.448-5.451-2.176-7.268-0.689c-1.194,0.975-2.441,2.917-2.535,5.066c-0.044,1.006-1.231,0.637-1.515-0.237
			c-0.423-1.288-0.689-3.312,0.353-4.909c1.772-2.716-0.922-6.435-3.91-6.797c-2.645-0.327-5.338,0.588-6.421,2.371
			c-1.617,2.671-0.719,5.258,1.255,7.608c1.292,1.539,3.576,3.395,5.745,4.074c1.02,0.324,0.966,1.49,0.172,1.563
			c-1.173,0.104-3.128-0.15-5.005-1.699c-3.193-2.629-6.19-0.735-5.753,2.364c0.39,2.757,2.023,5.884,4.096,7.524
			c3.103,2.444,5.453,2.176,7.27,0.693c1.191-0.982,2.439-2.925,2.537-5.069c0.04-1.006,1.227-0.634,1.515,0.233
			c0.417,1.288,0.688,3.314-0.357,4.909c-1.771,2.716,0.923,6.438,3.91,6.804c2.645,0.32,5.336-0.592,6.418-2.375
			c1.621-2.67,0.721-5.264-1.251-7.607c-1.295-1.536-3.578-3.398-5.747-4.07C731.3,270.452,731.354,269.275,732.149,269.208z
			 M728.417,270.608c-0.815-0.22-1.473-1.055-1.473-1.87c0-0.811,0.658-1.292,1.473-1.072c0.818,0.216,1.475,1.052,1.475,1.863
			C729.892,270.344,729.235,270.824,728.417,270.608z"/>
	</g>
	<text transform="matrix(1 0 0 1 661.4624 403.2144)"><tspan x="0" y="0" font-family="'GeosansLight'" font-size="35.6538">Mechanical</tspan><tspan x="-30.982" y="42.785" font-family="'GeosansLight'" font-size="35.6538">engineer’s island</tspan></text>
</g>
<g>
	<g>
		
			<image overflow="visible" opacity="0.75" width="1213" height="1136" xlink:href="EEF80765.png"  transform="matrix(0.24 0 0 0.24 1009.0249 164.1689)">
		</image>
		<g>
			<g>
				<path fill="#FFFFFF" stroke="#000000" stroke-width="1.1766" stroke-miterlimit="10" d="M1230.617,342.689
					c-57.036,67.021-124.583,59.337-176.409,10.421c-38.773-36.596-54.65-96.921,41.283-154.359
					c71.877-43.035,127.1-4.629,140.965,11.454C1250.322,226.287,1285.01,278.771,1230.617,342.689z"/>
				<path fill="none" stroke="#000000" stroke-width="1.1591" stroke-miterlimit="10" d="M1260.035,276.771
					c1.323,20.973-5.218,46.134-29.022,73.369c-56.66,64.819-124.189,57.023-176.213,9.258
					c-18.758-17.223-32.229-39.772-30.452-64.709"/>
			</g>
		</g>
	</g>
	<g>
		<g>
			<g id="XMLID_1_">
				<g>
					<polygon fill="#024C7B" points="1198.267,248.625 1198.267,270.144 1183.028,265.488 					"/>
					<polygon fill="#024C7B" points="1174.557,219.692 1198.267,248.625 1183.028,265.488 1150.828,255.647 1150.828,245.925 					
						"/>
					<polygon fill="#024C7B" points="1198.267,270.144 1146.426,327.442 1146.426,305.943 1183.028,265.488 					"/>
					<polygon fill="#024C7B" points="1183.028,265.488 1146.426,305.943 1126.903,282.135 1150.828,255.647 					"/>
					<polygon fill="#024C7B" points="1174.557,219.692 1150.828,245.925 1150.828,232.349 					"/>
					<polygon fill="#024C7B" points="1150.828,245.925 1150.828,255.647 1126.903,282.135 1122.697,277.01 					"/>
					<polygon fill="#024C7B" points="1150.828,232.349 1150.828,245.925 1122.697,277.01 1098.987,289.647 					"/>
					<polygon fill="#024C7B" points="1146.426,305.943 1146.426,327.442 1098.987,313.005 1126.903,282.135 					"/>
					<polygon fill="#024C7B" points="1126.903,282.135 1098.987,313.005 1098.987,289.647 1122.697,277.01 					"/>
				</g>
				<g>
					
						<line fill="none" stroke="#000000" stroke-width="0.8913" stroke-linecap="round" stroke-miterlimit="10" x1="1098.987" y1="289.647" x2="1098.987" y2="313.005"/>
					
						<line fill="none" stroke="#000000" stroke-width="0.8913" stroke-linecap="round" stroke-miterlimit="10" x1="1098.987" y1="313.005" x2="1146.426" y2="327.442"/>
					
						<line fill="none" stroke="#000000" stroke-width="0.8913" stroke-miterlimit="10" x1="1146.426" y1="327.442" x2="1146.426" y2="305.943"/>
					<polyline fill="none" stroke="#000000" stroke-width="0.8913" stroke-miterlimit="10" points="1146.426,305.943 
						1126.903,282.135 1122.697,277.01 					"/>
					
						<line fill="none" stroke="#000000" stroke-width="0.8913" stroke-miterlimit="10" x1="1122.697" y1="277.01" x2="1098.987" y2="289.647"/>
					<polyline fill="none" stroke="#000000" stroke-width="0.4457" stroke-miterlimit="10" stroke-dasharray="0.8913" points="
						1150.828,232.349 1150.828,245.925 1150.828,255.647 					"/>
					<polyline fill="none" stroke="#000000" stroke-width="0.4457" stroke-miterlimit="10" stroke-dasharray="0.8913" points="
						1150.828,255.647 1183.028,265.488 1198.267,270.144 					"/>
					
						<line fill="none" stroke="#000000" stroke-width="0.8913" stroke-linecap="round" stroke-miterlimit="10" x1="1198.267" y1="270.144" x2="1198.267" y2="248.625"/>
					
						<line fill="none" stroke="#000000" stroke-width="0.8913" stroke-linecap="round" stroke-miterlimit="10" x1="1198.267" y1="248.625" x2="1174.557" y2="219.692"/>
					
						<line fill="none" stroke="#000000" stroke-width="0.8913" stroke-linecap="round" stroke-miterlimit="10" x1="1174.557" y1="219.692" x2="1150.828" y2="232.349"/>
					<polyline fill="none" stroke="#000000" stroke-width="0.4457" stroke-miterlimit="10" stroke-dasharray="0.8913" points="
						1098.987,313.005 1126.903,282.135 1150.828,255.647 					"/>
					
						<line fill="none" stroke="#000000" stroke-width="0.8913" stroke-miterlimit="10" x1="1098.987" y1="289.647" x2="1150.828" y2="232.349"/>
					<polyline fill="none" stroke="#000000" stroke-width="0.8913" stroke-miterlimit="10" points="1122.697,277.01 
						1150.828,245.925 1174.557,219.692 					"/>
					<polyline fill="none" stroke="#000000" stroke-width="0.8913" stroke-miterlimit="10" points="1146.426,305.943 
						1183.028,265.488 1198.267,248.625 					"/>
					
						<line fill="none" stroke="#000000" stroke-width="0.8913" stroke-linecap="round" stroke-miterlimit="10" x1="1146.426" y1="327.442" x2="1198.267" y2="270.144"/>
				</g>
			</g>
		</g>
		<g opacity="0.7">
			
				<line fill="none" stroke="#FFFFFF" stroke-width="0.8913" stroke-miterlimit="10" x1="1129.355" y1="299.664" x2="1111.258" y2="294.811"/>
			<path fill="none" stroke="#FFFFFF" stroke-width="0.8913" stroke-miterlimit="10" d="M1112.176,302.923
				c0-2.141,1.831-3.381,4.089-2.775"/>
			<path fill="none" stroke="#FFFFFF" stroke-width="0.8913" stroke-miterlimit="10" d="M1120.358,305.113
				c0-2.141-1.826-4.359-4.093-4.965"/>
			<path fill="none" stroke="#FFFFFF" stroke-width="0.8913" stroke-miterlimit="10" d="M1128.542,307.307
				c0,2.138-1.83,3.377-4.092,2.775"/>
			<path fill="none" stroke="#FFFFFF" stroke-width="0.8913" stroke-miterlimit="10" d="M1120.358,305.113
				c0,2.138,1.832,4.363,4.092,4.969"/>
			<path fill="none" stroke="#FFFFFF" stroke-width="0.8913" stroke-miterlimit="10" d="M1133.972,305.531
				c0,7.18-5.819,11.438-12.999,9.516c-7.184-1.922-13.004-9.307-13.004-16.483c0-7.183,5.82-11.445,13.004-9.52
				C1128.153,290.97,1133.972,298.348,1133.972,305.531z"/>
		</g>
	</g>
	<text transform="matrix(1 0 0 1 1084.4438 431.1108)"><tspan x="0" y="0" font-family="'GeosansLight'" font-size="35.6538">Electrical</tspan><tspan x="-50.484" y="42.785" font-family="'GeosansLight'" font-size="35.6538">engineer’s island</tspan></text>
</g>
<g>
	<g>
		
			<image overflow="visible" opacity="0.75" width="1213" height="1136" xlink:href="EEF80766.png"  transform="matrix(0.24 0 0 0.24 712.1001 595.9116)">
		</image>
		<g>
			<g>
				<path fill="#FFFFFF" stroke="#000000" stroke-width="1.1766" stroke-miterlimit="10" d="M933.692,774.432
					c-57.036,67.021-124.583,59.338-176.41,10.422c-38.774-36.596-54.651-96.922,41.283-154.359
					c71.878-43.036,127.101-4.63,140.965,11.453C953.396,658.03,988.085,710.515,933.692,774.432z"/>
				<path fill="none" stroke="#000000" stroke-width="1.1591" stroke-miterlimit="10" d="M963.11,708.515
					c1.322,20.973-5.218,46.134-29.023,73.368c-56.66,64.819-124.189,57.023-176.212,9.259
					c-18.758-17.224-32.229-39.773-30.453-64.71"/>
			</g>
		</g>
	</g>
	<g>
		<polygon fill="#F7941E" points="894.612,683.642 894.612,705.09 879.405,700.449 		"/>
		<polygon fill="#F7941E" points="870.957,654.753 847.284,680.93 847.284,667.389 		"/>
		<polygon fill="#F7941E" points="847.284,680.93 847.284,690.651 823.412,717.057 819.217,711.946 		"/>
		<polygon fill="#F7941E" points="823.412,717.057 795.561,747.854 795.561,724.568 819.217,711.946 		"/>
		<polygon fill="#F7941E" points="870.957,654.753 894.612,683.642 879.405,700.449 847.284,690.651 847.284,680.93 		"/>
		<polygon fill="#F7941E" points="894.612,705.09 842.891,762.276 842.891,740.832 879.405,700.449 		"/>
		<polygon fill="#F7941E" points="879.405,700.449 842.891,740.832 823.412,717.057 847.284,690.651 		"/>
		<polygon fill="#F7941E" points="847.284,667.389 847.284,680.93 819.217,711.946 795.561,724.568 		"/>
		<polygon fill="#F7941E" points="842.891,740.832 842.891,762.276 795.561,747.854 823.412,717.057 		"/>
		<g>
			<g>
				
					<line fill="none" stroke="#000000" stroke-width="0.5348" stroke-linecap="round" stroke-linejoin="round" x1="794.88" y1="723.955" x2="794.88" y2="747.209"/>
				
					<line fill="none" stroke="#000000" stroke-width="0.5348" stroke-linecap="round" stroke-linejoin="round" x1="842.153" y1="761.618" x2="842.153" y2="740.194"/>
				
					<line fill="none" stroke="#000000" stroke-width="0.5348" stroke-linecap="round" stroke-linejoin="round" x1="842.153" y1="740.194" x2="818.508" y2="711.344"/>
				
					<line fill="none" stroke="#000000" stroke-width="0.5348" stroke-linecap="round" stroke-linejoin="round" x1="818.508" y1="711.344" x2="794.88" y2="723.955"/>
				
					<line fill="none" stroke="#000000" stroke-width="0.5348" stroke-miterlimit="10" x1="794.88" y1="723.955" x2="842.153" y2="740.194"/>
			</g>
			<g>
				
					<line fill="none" stroke="#000000" stroke-width="0.5348" stroke-linecap="round" stroke-linejoin="round" x1="801.527" y1="717.113" x2="801.527" y2="740.372"/>
				
					<line fill="none" stroke="#000000" stroke-width="0.5348" stroke-linecap="round" stroke-linejoin="round" x1="848.796" y1="754.776" x2="848.796" y2="733.356"/>
				
					<line fill="none" stroke="#000000" stroke-width="0.5348" stroke-linecap="round" stroke-linejoin="round" x1="848.796" y1="733.356" x2="825.151" y2="704.505"/>
				
					<line fill="none" stroke="#000000" stroke-width="0.5348" stroke-linecap="round" stroke-linejoin="round" x1="825.151" y1="704.505" x2="801.527" y2="717.113"/>
				
					<line fill="none" stroke="#000000" stroke-width="0.5348" stroke-miterlimit="10" x1="801.527" y1="717.113" x2="848.796" y2="733.356"/>
			</g>
			<g>
				
					<line fill="none" stroke="#000000" stroke-width="0.5348" stroke-linecap="round" stroke-linejoin="round" x1="808.17" y1="709.826" x2="808.17" y2="733.081"/>
				
					<line fill="none" stroke="#000000" stroke-width="0.5348" stroke-linecap="round" stroke-linejoin="round" x1="855.443" y1="747.489" x2="855.443" y2="726.065"/>
				
					<line fill="none" stroke="#000000" stroke-width="0.5348" stroke-linecap="round" stroke-linejoin="round" x1="855.443" y1="726.065" x2="831.798" y2="697.218"/>
				
					<line fill="none" stroke="#000000" stroke-width="0.5348" stroke-linecap="round" stroke-linejoin="round" x1="831.798" y1="697.218" x2="808.17" y2="709.826"/>
				
					<line fill="none" stroke="#000000" stroke-width="0.5348" stroke-miterlimit="10" x1="808.17" y1="709.826" x2="855.443" y2="726.065"/>
			</g>
			<g>
				
					<line fill="none" stroke="#000000" stroke-width="0.5348" stroke-linecap="round" stroke-linejoin="round" x1="814.817" y1="702.984" x2="814.817" y2="726.243"/>
				
					<line fill="none" stroke="#000000" stroke-width="0.5348" stroke-linecap="round" stroke-linejoin="round" x1="862.088" y1="740.643" x2="862.088" y2="719.227"/>
				
					<line fill="none" stroke="#000000" stroke-width="0.5348" stroke-linecap="round" stroke-linejoin="round" x1="862.088" y1="719.227" x2="838.443" y2="690.376"/>
				
					<line fill="none" stroke="#000000" stroke-width="0.5348" stroke-linecap="round" stroke-linejoin="round" x1="838.443" y1="690.376" x2="814.817" y2="702.984"/>
				
					<line fill="none" stroke="#000000" stroke-width="0.5348" stroke-miterlimit="10" x1="814.817" y1="702.984" x2="862.088" y2="719.227"/>
			</g>
			<g>
				
					<line fill="none" stroke="#000000" stroke-width="0.5348" stroke-linecap="round" stroke-linejoin="round" x1="821.46" y1="695.697" x2="821.46" y2="718.952"/>
				
					<line fill="none" stroke="#000000" stroke-width="0.5348" stroke-linecap="round" stroke-linejoin="round" x1="868.733" y1="733.356" x2="868.733" y2="711.936"/>
				
					<line fill="none" stroke="#000000" stroke-width="0.5348" stroke-linecap="round" stroke-linejoin="round" x1="868.733" y1="711.936" x2="845.086" y2="683.088"/>
				
					<line fill="none" stroke="#000000" stroke-width="0.5348" stroke-linecap="round" stroke-linejoin="round" x1="845.086" y1="683.088" x2="821.46" y2="695.697"/>
				
					<line fill="none" stroke="#000000" stroke-width="0.5348" stroke-miterlimit="10" x1="821.46" y1="695.697" x2="868.733" y2="711.936"/>
			</g>
			<g>
				
					<line fill="none" stroke="#000000" stroke-width="0.5348" stroke-linecap="round" stroke-linejoin="round" x1="828.106" y1="688.855" x2="828.106" y2="712.106"/>
				
					<line fill="none" stroke="#000000" stroke-width="0.5348" stroke-linecap="round" stroke-linejoin="round" x1="875.38" y1="726.514" x2="875.38" y2="705.09"/>
				
					<line fill="none" stroke="#000000" stroke-width="0.5348" stroke-linecap="round" stroke-linejoin="round" x1="875.38" y1="705.09" x2="851.733" y2="676.244"/>
				
					<line fill="none" stroke="#000000" stroke-width="0.5348" stroke-linecap="round" stroke-linejoin="round" x1="851.733" y1="676.244" x2="828.106" y2="688.855"/>
				
					<line fill="none" stroke="#000000" stroke-width="0.5348" stroke-miterlimit="10" x1="828.106" y1="688.855" x2="875.38" y2="705.09"/>
			</g>
			<g>
				
					<line fill="none" stroke="#000000" stroke-width="0.5348" stroke-linecap="round" stroke-linejoin="round" x1="834.752" y1="681.567" x2="834.752" y2="704.823"/>
				
					<line fill="none" stroke="#000000" stroke-width="0.5348" stroke-linecap="round" stroke-linejoin="round" x1="882.023" y1="719.227" x2="882.023" y2="697.803"/>
				
					<line fill="none" stroke="#000000" stroke-width="0.5348" stroke-linecap="round" stroke-linejoin="round" x1="882.023" y1="697.803" x2="858.378" y2="668.953"/>
				
					<line fill="none" stroke="#000000" stroke-width="0.5348" stroke-linecap="round" stroke-linejoin="round" x1="858.378" y1="668.953" x2="834.752" y2="681.567"/>
				
					<line fill="none" stroke="#000000" stroke-width="0.5348" stroke-miterlimit="10" x1="834.752" y1="681.567" x2="882.023" y2="697.803"/>
			</g>
			<g>
				
					<line fill="none" stroke="#000000" stroke-width="0.5348" stroke-linecap="round" stroke-linejoin="round" x1="841.396" y1="674.725" x2="841.396" y2="697.977"/>
				
					<line fill="none" stroke="#000000" stroke-width="0.5348" stroke-linecap="round" stroke-linejoin="round" x1="888.668" y1="712.385" x2="888.668" y2="690.961"/>
				
					<line fill="none" stroke="#000000" stroke-width="0.5348" stroke-linecap="round" stroke-linejoin="round" x1="888.668" y1="690.961" x2="865.023" y2="662.114"/>
				
					<line fill="none" stroke="#000000" stroke-width="0.5348" stroke-linecap="round" stroke-linejoin="round" x1="865.023" y1="662.114" x2="841.396" y2="674.725"/>
				
					<line fill="none" stroke="#000000" stroke-width="0.5348" stroke-miterlimit="10" x1="841.396" y1="674.725" x2="888.668" y2="690.961"/>
			</g>
			<g>
				
					<line fill="none" stroke="#000000" stroke-width="0.5348" stroke-linecap="round" stroke-linejoin="round" x1="848.042" y1="667.438" x2="848.042" y2="690.69"/>
				
					<line fill="none" stroke="#000000" stroke-width="0.5348" stroke-linecap="round" stroke-linejoin="round" x1="895.315" y1="705.097" x2="895.315" y2="683.673"/>
				
					<line fill="none" stroke="#000000" stroke-width="0.5348" stroke-linecap="round" stroke-linejoin="round" x1="895.315" y1="683.673" x2="871.668" y2="654.824"/>
				
					<line fill="none" stroke="#000000" stroke-width="0.5348" stroke-linecap="round" stroke-linejoin="round" x1="871.668" y1="654.824" x2="848.042" y2="667.438"/>
				
					<line fill="none" stroke="#000000" stroke-width="0.5348" stroke-miterlimit="10" x1="848.042" y1="667.438" x2="895.315" y2="683.673"/>
			</g>
			
				<line fill="none" stroke="#000000" stroke-width="0.5348" stroke-miterlimit="10" x1="794.88" y1="723.955" x2="848.042" y2="667.438"/>
			
				<line fill="none" stroke="#000000" stroke-width="0.5348" stroke-miterlimit="10" x1="842.153" y1="740.194" x2="895.315" y2="683.673"/>
			
				<line fill="none" stroke="#000000" stroke-width="0.5348" stroke-miterlimit="10" x1="818.508" y1="711.344" x2="871.668" y2="654.824"/>
		</g>
	</g>
	<text transform="matrix(1 0 0 1 780.6255 860.7144)"><tspan x="0" y="0" font-family="'GeosansLight'" font-size="35.6538">Structural</tspan><tspan x="-48.007" y="42.784" font-family="'GeosansLight'" font-size="35.6538">engineer’s island</tspan></text>
</g>
<g>
	<g>
		
			<image overflow="visible" opacity="0.75" width="1213" height="1136" xlink:href="EEF80764.png"  transform="matrix(0.24 0 0 0.24 1135.8989 534.8989)">
		</image>
		<g>
			<g>
				<path fill="#FFFFFF" stroke="#000000" stroke-width="1.1766" stroke-miterlimit="10" d="M1357.491,713.42
					c-57.035,67.021-124.583,59.337-176.41,10.421c-38.773-36.595-54.65-96.921,41.283-154.359
					c71.878-43.035,127.101-4.629,140.965,11.454C1377.196,597.018,1411.884,649.503,1357.491,713.42z"/>
				<path fill="none" stroke="#000000" stroke-width="1.1591" stroke-miterlimit="10" d="M1386.909,647.502
					c1.323,20.973-5.218,46.135-29.022,73.369c-56.661,64.819-124.189,57.023-176.212,9.258
					c-18.759-17.223-32.229-39.772-30.453-64.709"/>
			</g>
		</g>
	</g>
	<g>
		<g>
			<polygon opacity="0.7" fill="#D7DF23" points="1278.821,598.045 1302.498,585.417 1302.5,628.531 1267.009,667.765 
				1243.125,660.387 1243.125,637.421 			"/>
			<polyline fill="none" stroke="#000000" stroke-width="0.4457" stroke-miterlimit="10" stroke-dasharray="0.8913" points="
				1278.821,598.045 1278.821,611.586 1278.821,621.307 			"/>
			
				<line fill="none" stroke="#000000" stroke-width="0.4457" stroke-miterlimit="10" stroke-dasharray="0.8913" x1="1278.821" y1="621.307" x2="1302.5" y2="628.531"/>
			
				<line fill="none" stroke="#000000" stroke-width="0.8913" stroke-linecap="round" stroke-miterlimit="10" x1="1302.498" y1="585.417" x2="1278.821" y2="598.045"/>
			
				<line fill="none" stroke="#000000" stroke-width="0.4457" stroke-miterlimit="10" stroke-dasharray="0.8913" x1="1302.498" y1="585.417" x2="1302.498" y2="628.531"/>
			
				<line fill="none" stroke="#000000" stroke-width="0.4457" stroke-miterlimit="10" stroke-dasharray="0.8913" x1="1302.5" y1="628.531" x2="1267.009" y2="667.765"/>
			
				<line fill="none" stroke="#000000" stroke-width="0.4457" stroke-miterlimit="10" stroke-dasharray="0.8913" x1="1267.009" y1="667.765" x2="1266.781" y2="624.792"/>
			
				<line fill="none" stroke="#000000" stroke-width="0.8913" stroke-linecap="round" stroke-miterlimit="10" x1="1266.781" y1="624.792" x2="1302.498" y2="585.417"/>
			
				<line fill="none" stroke="#000000" stroke-width="0.4457" stroke-miterlimit="10" stroke-dasharray="0.8913" x1="1278.821" y1="621.307" x2="1243.125" y2="660.387"/>
			
				<line fill="none" stroke="#000000" stroke-width="0.8913" stroke-linecap="round" stroke-miterlimit="10" x1="1243.125" y1="637.421" x2="1278.821" y2="598.045"/>
			
				<line fill="none" stroke="#000000" stroke-width="0.8913" stroke-linecap="round" stroke-miterlimit="10" x1="1243.125" y1="637.421" x2="1243.125" y2="660.387"/>
			
				<line fill="none" stroke="#000000" stroke-width="0.8913" stroke-linecap="round" stroke-miterlimit="10" x1="1243.125" y1="637.421" x2="1266.781" y2="624.792"/>
			
				<line fill="none" stroke="#000000" stroke-width="0.8913" stroke-linecap="round" stroke-miterlimit="10" x1="1243.125" y1="660.387" x2="1267.009" y2="667.765"/>
		</g>
		<g>
			<polygon opacity="0.7" fill="#08AD4B" points="1302.498,585.417 1326.149,614.298 1326.149,635.753 1290.659,675.072 
				1267.009,667.765 1266.781,624.792 			"/>
			<polyline fill="none" stroke="#000000" stroke-width="0.4457" stroke-miterlimit="10" stroke-dasharray="0.8913" points="
				1302.5,628.531 1310.944,631.105 1326.149,635.753 			"/>
			
				<line fill="none" stroke="#000000" stroke-width="0.8913" stroke-linecap="round" stroke-miterlimit="10" x1="1326.149" y1="635.753" x2="1326.149" y2="614.298"/>
			
				<line fill="none" stroke="#000000" stroke-width="0.8913" stroke-linecap="round" stroke-miterlimit="10" x1="1326.149" y1="614.298" x2="1302.498" y2="585.417"/>
			<path fill="none" stroke="#000000" stroke-width="0.8913" stroke-miterlimit="10" d="M1274.428,671.487"/>
			
				<line fill="none" stroke="#000000" stroke-width="0.8913" stroke-linecap="round" stroke-miterlimit="10" x1="1326.149" y1="635.753" x2="1290.659" y2="675.072"/>
			
				<line fill="none" stroke="#000000" stroke-width="0.8913" stroke-linecap="round" stroke-miterlimit="10" x1="1290.659" y1="675.072" x2="1290.659" y2="653.617"/>
			
				<line fill="none" stroke="#000000" stroke-width="0.4457" stroke-miterlimit="10" stroke-dasharray="0.8913" x1="1267.009" y1="667.765" x2="1290.659" y2="675.072"/>
			
				<line fill="none" stroke="#000000" stroke-width="0.4457" stroke-miterlimit="10" stroke-dasharray="0.8913" x1="1302.498" y1="585.417" x2="1302.498" y2="628.531"/>
			
				<line fill="none" stroke="#000000" stroke-width="0.4457" stroke-miterlimit="10" stroke-dasharray="0.8913" x1="1302.5" y1="628.531" x2="1267.009" y2="667.765"/>
			
				<line fill="none" stroke="#000000" stroke-width="0.4457" stroke-miterlimit="10" stroke-dasharray="0.8913" x1="1267.009" y1="667.765" x2="1266.781" y2="624.792"/>
			
				<line fill="none" stroke="#000000" stroke-width="0.8913" stroke-linecap="round" stroke-miterlimit="10" x1="1266.781" y1="624.792" x2="1302.498" y2="585.417"/>
			
				<line fill="none" stroke="#000000" stroke-width="0.8913" stroke-miterlimit="10" x1="1266.781" y1="624.792" x2="1290.659" y2="653.617"/>
			
				<line fill="none" stroke="#000000" stroke-width="0.8913" stroke-miterlimit="10" x1="1326.149" y1="614.298" x2="1290.659" y2="653.617"/>
		</g>
		<g>
			<polygon opacity="0.7" fill="#CB3727" points="1266.781,624.792 1290.659,653.539 1290.659,675.072 1274.428,692.935 
				1227.1,678.514 1227.1,655.231 1243.125,637.421 			"/>
			
				<line fill="none" stroke="#000000" stroke-width="0.8913" stroke-linecap="round" stroke-miterlimit="10" x1="1227.1" y1="655.231" x2="1227.1" y2="678.514"/>
			
				<line fill="none" stroke="#000000" stroke-width="0.8913" stroke-linecap="round" stroke-miterlimit="10" x1="1227.1" y1="678.514" x2="1274.428" y2="692.935"/>
			
				<line fill="none" stroke="#000000" stroke-width="0.8913" stroke-miterlimit="10" x1="1274.428" y1="692.935" x2="1274.428" y2="671.487"/>
			<path fill="none" stroke="#000000" stroke-width="0.4457" stroke-miterlimit="10" stroke-dasharray="0.8913" d="M1227.1,678.514"
				/>
			<path fill="none" stroke="#000000" stroke-width="0.8913" stroke-miterlimit="10" d="M1274.428,671.487"/>
			
				<line fill="none" stroke="#000000" stroke-width="0.8913" stroke-linecap="round" stroke-miterlimit="10" x1="1274.428" y1="692.935" x2="1290.659" y2="675.072"/>
			<polygon fill="none" stroke="#000000" stroke-width="0.8913" stroke-linejoin="round" stroke-miterlimit="10" points="
				1243.125,637.421 1227.1,655.231 1250.755,642.602 1254.953,647.717 1274.428,671.487 1290.659,653.539 1266.781,624.792 			"/>
			
				<line fill="none" stroke="#000000" stroke-width="0.8913" stroke-miterlimit="10" x1="1250.755" y1="642.602" x2="1266.781" y2="624.792"/>
			
				<line fill="none" stroke="#000000" stroke-width="0.8913" stroke-linecap="round" stroke-miterlimit="10" x1="1290.659" y1="675.072" x2="1290.659" y2="653.617"/>
			
				<line fill="none" stroke="#000000" stroke-width="0.4457" stroke-miterlimit="10" stroke-dasharray="0.8913" x1="1243.125" y1="637.421" x2="1243.125" y2="660.387"/>
			
				<line fill="none" stroke="#000000" stroke-width="0.4457" stroke-miterlimit="10" stroke-dasharray="0.8913" x1="1243.125" y1="660.387" x2="1290.659" y2="675.072"/>
			
				<line fill="none" stroke="#000000" stroke-width="0.4457" stroke-miterlimit="10" stroke-dasharray="0.8913" x1="1243.125" y1="660.387" x2="1227.1" y2="678.514"/>
		</g>
	</g>
	<path fill="none" stroke="#000000" stroke-width="0.4457" stroke-miterlimit="10" stroke-dasharray="0.8913" d="M1473.238,607.974"
		/>
	<text transform="matrix(1 0 0 1 1172.0513 799.7036)"><tspan x="0" y="0" font-family="'GeosansLight'" font-size="35.6538">Indoor climate</tspan><tspan x="-15.633" y="42.784" font-family="'GeosansLight'" font-size="35.6538">engineer’s island</tspan></text>
</g>
</svg>
