<?xml version="1.0" encoding="utf-8"?>
<!-- Generator: Adobe Illustrator 16.0.0, SVG Export Plug-In . SVG Version: 6.00 Build 0)  -->
<!DOCTYPE svg PUBLIC "-//W3C//DTD SVG 1.1//EN" "http://www.w3.org/Graphics/SVG/1.1/DTD/svg11.dtd">
<svg version="1.1" id="Layer_1" xmlns="http://www.w3.org/2000/svg" xmlns:xlink="http://www.w3.org/1999/xlink" x="0px" y="0px"
	 width="1920px" height="1080px" viewBox="0 0 1920 1080" enable-background="new 0 0 1920 1080" xml:space="preserve">
<g>
	<path fill="#EDEDED" d="M834.322,415.269L1459,238.595l-1.111,0.313c3.115-1.304,7.302,0.721,9.63,4.776
		c2.469,4.299,1.911,9.251-1.242,11.062c-0.25,0.144-0.51,0.264-0.777,0.36L844.701,434.541c3.492-2.004,3.879-7.883,0.865-13.133
		C842.704,416.42,837.8,413.797,834.322,415.269z"/>
	<g>
		<path fill="#EDEDED" d="M844.702,434.744c3.491-2.004,3.879-7.883,0.864-13.133c-2.861-4.987-7.767-7.61-11.244-6.139
			c-0.183,0.077-0.359,0.166-0.532,0.265c-3.491,2.004-3.878,7.883-0.864,13.133C835.938,434.119,841.211,436.749,844.702,434.744z"
			/>
		<path fill="none" stroke="#000000" stroke-miterlimit="10" d="M844.702,434.541c-3.491,2.004-8.766-0.625-11.776-5.875
			c-3.014-5.25-2.627-11.129,0.864-13.133c0.173-0.1,0.351-0.188,0.532-0.265"/>
		<path fill="none" stroke="#000000" stroke-miterlimit="10" d="M834.322,415.268c3.479-1.471,8.383,1.152,11.244,6.139
			c3.015,5.25,2.627,11.129-0.864,13.133"/>
		<path fill="none" stroke="#000000" stroke-miterlimit="10" d="M1457.891,238.907c3.115-1.304,7.302,0.721,9.627,4.776
			c2.47,4.299,1.912,9.251-1.239,11.062c-0.252,0.144-0.513,0.264-0.777,0.36"/>
	</g>
	<line fill="none" stroke="#000000" stroke-miterlimit="10" x1="834.323" y1="415.269" x2="1459" y2="238.595"/>
	<line fill="none" stroke="#000000" stroke-miterlimit="10" x1="844.702" y1="434.541" x2="1465.5" y2="255.104"/>
</g>
<g>
	<polygon opacity="0.1" fill="#008D36" enable-background="new    " points="1219.076,224.022 1345.573,193.129 1636.465,283.135 
		1609.354,499.671 1487.656,558.018 1222.076,423.136 	"/>
	<polyline fill="none" stroke="#000000" stroke-miterlimit="10" points="804.719,567.502 759.354,336.299 1345.573,193.129 
		1636.465,283.135 1609.354,499.671 1032.517,776.213 804.719,567.502 	"/>
	<line fill="none" stroke="#000000" stroke-miterlimit="10" x1="1341.563" y1="381.806" x2="804.719" y2="567.502"/>
	<line fill="none" stroke="#000000" stroke-miterlimit="10" x1="1609.354" y1="499.671" x2="1341.563" y2="381.806"/>
	<line fill="none" stroke="#000000" stroke-miterlimit="10" x1="1345.573" y1="193.129" x2="1341.563" y2="381.806"/>
	<line fill="none" stroke="#000000" stroke-miterlimit="10" x1="1504.681" y1="329.697" x2="1219.076" y2="224.022"/>
	<line fill="none" stroke="#000000" stroke-miterlimit="10" x1="1002.15" y1="507.253" x2="1636.465" y2="283.135"/>
	<polyline opacity="0.1" fill="#95C11F" enable-background="new    " points="759.354,336.299 1219.076,224.022 1504.681,329.697 
		1487.656,558.018 1032.517,776.213 804.719,567.502 	"/>
	<line fill="none" stroke="#000000" stroke-miterlimit="10" x1="1002.15" y1="507.253" x2="759.354" y2="336.299"/>
	<line fill="none" stroke="#000000" stroke-miterlimit="10" x1="1222.076" y1="423.136" x2="1219.076" y2="224.022"/>
	<line fill="none" stroke="#000000" stroke-miterlimit="10" x1="1002.15" y1="507.253" x2="1032.517" y2="776.213"/>
	<line fill="none" stroke="#000000" stroke-miterlimit="10" x1="1504.681" y1="329.697" x2="1487.656" y2="558.018"/>
	<line fill="none" stroke="#000000" stroke-miterlimit="10" x1="1222.076" y1="423.136" x2="1487.656" y2="558.018"/>
</g>
<line fill="none" x1="1679.29" y1="391.695" x2="1701.798" y2="401.33"/>
<polyline fill="none" points="890.924,591.273 1005.82,536.268 1002.391,653.838 893.196,713.182 "/>
<polygon fill="none" points="1559.887,518.661 1636.465,480.737 1620.709,588.781 1547.046,628.215 "/>
<g>
	<rect x="79.978" y="297.957" fill="none" width="344.979" height="48.684"/>
	<path d="M239.544,330.12c-1.94,1.94-4.319,2.911-7.137,2.911c-3.224,0-5.869-1.299-7.935-3.897v3.568h-1.926v-34.745h1.926v18.969
		c2.034-2.598,4.679-3.896,7.935-3.896c2.817,0,5.181,0.955,7.09,2.863c1.94,1.941,2.911,4.32,2.911,7.138
		C242.408,325.846,241.453,328.21,239.544,330.12z M238.136,317.301c-1.597-1.597-3.507-2.395-5.729-2.395
		c-2.253,0-4.163,0.782-5.728,2.348c-1.598,1.596-2.395,3.521-2.395,5.775c0,2.223,0.797,4.132,2.395,5.728
		c1.596,1.597,3.505,2.395,5.728,2.395c2.254,0,4.163-0.781,5.729-2.348c1.597-1.596,2.395-3.521,2.395-5.773
		C240.53,320.807,239.732,318.898,238.136,317.301z"/>
	<path d="M263.021,330.12c-1.941,1.94-4.319,2.911-7.137,2.911c-2.818,0-5.181-0.955-7.091-2.864c-1.94-1.94-2.91-4.32-2.91-7.137
		c0-2.786,0.97-5.149,2.91-7.09c1.91-1.973,4.273-2.958,7.091-2.958c2.786,0,5.148,0.97,7.09,2.91
		c1.94,1.941,2.911,4.32,2.911,7.138C265.885,325.846,264.93,328.21,263.021,330.12z M261.658,317.254
		c-1.564-1.597-3.49-2.395-5.774-2.395c-2.191,0-4.085,0.814-5.682,2.441c-1.628,1.628-2.441,3.537-2.441,5.729
		c0,2.223,0.798,4.132,2.395,5.728c1.597,1.597,3.505,2.395,5.729,2.395c2.253,0,4.163-0.781,5.728-2.348
		c1.597-1.596,2.395-3.521,2.395-5.774C264.006,320.745,263.224,318.82,261.658,317.254z"/>
	<path d="M273.631,315.235v17.467h-1.925v-17.467h-2.63v-1.925h2.63v-8.498h1.925v8.498h4.508v1.925H273.631z"/>
	<path d="M283.303,319.132c-0.344,0-0.703-0.141-1.079-0.423c-0.282-0.281-0.438-0.657-0.47-1.127c0-0.845,0.517-1.361,1.549-1.549
		c0.783,0,1.299,0.517,1.551,1.549C284.854,318.616,284.336,319.132,283.303,319.132z M283.303,332.983
		c-0.344,0-0.703-0.141-1.079-0.422c-0.282-0.282-0.438-0.657-0.47-1.127c0-0.846,0.517-1.361,1.549-1.55
		c0.783,0,1.299,0.517,1.551,1.55C284.854,332.467,284.336,332.983,283.303,332.983z"/>
	<path d="M290.346,332.702v-33.524h16.105v1.925h-14.18v12.208h14.18v2.066h-14.18v15.4h14.18v1.925H290.346z"/>
	<path d="M310.441,332.702v-34.745h1.879v34.745H310.441z"/>
	<path d="M319.314,322.607c0,2.629,0.704,4.711,2.112,6.244c1.472,1.566,3.49,2.348,6.058,2.348c1.313,0,2.504-0.218,3.567-0.657
		c1.347-0.563,2.551-1.705,3.615-3.427l1.738,0.798c-1.222,2.316-3.101,3.882-5.636,4.695c-0.971,0.313-2.065,0.47-3.286,0.47
		c-2.91,0-5.306-0.955-7.185-2.864c-1.91-1.909-2.864-4.304-2.864-7.184c0-2.911,0.939-5.306,2.817-7.185
		c1.908-1.908,4.32-2.863,7.23-2.863c2.88,0,5.259,0.892,7.137,2.676c1.909,1.784,2.865,4.102,2.865,6.949H319.314L319.314,322.607z
		 M332.556,316.456c-1.472-1.063-3.162-1.596-5.07-1.596c-4.008,0-6.638,1.972-7.889,5.916h15.729
		C335.013,318.992,334.089,317.552,332.556,316.456z"/>
	<path d="M364.014,332.702V319.32c0-1.188-0.393-2.222-1.174-3.099c-0.783-0.876-1.91-1.314-3.381-1.314
		c-3.037,0-4.555,1.472-4.555,4.413v13.382h-1.925V319.32c0-1.314-0.438-2.362-1.314-3.146c-0.909-0.846-1.988-1.268-3.239-1.268
		c-1.285,0-2.364,0.407-3.24,1.221c-0.877,0.782-1.313,1.847-1.313,3.192v13.382h-1.926V313.31h1.926v1.925
		c0.938-1.471,2.457-2.206,4.555-2.206c2.504,0,4.351,1.018,5.539,3.052c1.127-2.034,2.959-3.052,5.494-3.052
		c1.94,0,3.506,0.548,4.695,1.643c1.188,1.127,1.784,2.677,1.784,4.648v13.382H364.014z"/>
	<path d="M372.512,322.607c0,2.629,0.704,4.711,2.113,6.244c1.471,1.566,3.489,2.348,6.057,2.348c1.314,0,2.504-0.218,3.568-0.657
		c1.346-0.563,2.551-1.705,3.615-3.427l1.736,0.798c-1.221,2.316-3.099,3.882-5.634,4.695c-0.971,0.313-2.065,0.47-3.287,0.47
		c-2.911,0-5.306-0.955-7.184-2.864c-1.91-1.909-2.865-4.304-2.865-7.184c0-2.911,0.939-5.306,2.818-7.185
		c1.908-1.908,4.318-2.863,7.229-2.863c2.879,0,5.259,0.892,7.138,2.676c1.907,1.784,2.863,4.102,2.863,6.949H372.512
		L372.512,322.607z M385.752,316.456c-1.471-1.063-3.162-1.596-5.07-1.596c-4.008,0-6.637,1.972-7.889,5.916h15.729
		C388.209,318.992,387.285,317.552,385.752,316.456z"/>
	<path d="M408.195,332.702v-11.598c0-4.1-1.849-6.15-5.541-6.15c-1.815,0-3.192,0.532-4.131,1.597
		c-0.972,1.064-1.456,2.52-1.456,4.366v11.785h-1.926V313.31h1.926v2.348c0.876-1.721,2.738-2.582,5.587-2.582
		c2.41,0,4.257,0.688,5.541,2.065c1.282,1.378,1.925,3.303,1.925,5.775v11.785L408.195,332.702L408.195,332.702z"/>
	<path d="M419.229,315.235v17.467h-1.926v-17.467h-2.63v-1.925h2.63v-8.498h1.926v8.498h4.508v1.925H419.229z"/>
</g>
<line fill="none" stroke="#000000" stroke-miterlimit="10" stroke-dasharray="1,2" x1="434.416" y1="322.299" x2="1193" y2="322.299"/>
<g>
	<rect x="79.978" y="181.569" fill="none" width="344.979" height="48.684"/>
	<path d="M286.309,213.731c-1.941,1.94-4.32,2.911-7.137,2.911c-3.225,0-5.869-1.299-7.936-3.897v3.568h-1.925v-34.745h1.925v18.969
		c2.035-2.598,4.68-3.896,7.936-3.896c2.816,0,5.18,0.955,7.09,2.863c1.939,1.941,2.91,4.32,2.91,7.138
		C289.172,209.458,288.217,211.822,286.309,213.731z M284.9,200.913c-1.598-1.597-3.507-2.395-5.729-2.395
		c-2.254,0-4.164,0.782-5.729,2.348c-1.597,1.596-2.395,3.521-2.395,5.775c0,2.223,0.798,4.132,2.395,5.728
		c1.596,1.597,3.506,2.395,5.729,2.395c2.254,0,4.162-0.781,5.729-2.348c1.596-1.596,2.395-3.521,2.395-5.774
		C287.295,204.419,286.496,202.51,284.9,200.913z"/>
	<path d="M309.785,213.731c-1.941,1.94-4.32,2.911-7.137,2.911c-2.818,0-5.183-0.955-7.091-2.864c-1.94-1.94-2.911-4.32-2.911-7.137
		c0-2.786,0.971-5.149,2.911-7.09c1.909-1.973,4.272-2.958,7.091-2.958c2.784,0,5.147,0.97,7.09,2.91
		c1.938,1.941,2.91,4.32,2.91,7.138C312.648,209.458,311.693,211.822,309.785,213.731z M308.423,200.866
		c-1.564-1.597-3.491-2.395-5.773-2.395c-2.191,0-4.086,0.814-5.683,2.441c-1.629,1.628-2.441,3.537-2.441,5.729
		c0,2.223,0.798,4.132,2.395,5.728c1.596,1.597,3.505,2.395,5.729,2.395c2.253,0,4.161-0.781,5.728-2.348
		c1.597-1.596,2.396-3.521,2.396-5.774C310.771,204.356,309.988,202.432,308.423,200.866z"/>
	<path d="M320.395,198.847v17.467h-1.924v-17.467h-2.63v-1.925h2.63v-8.498h1.924v8.498h4.509v1.925H320.395z"/>
	<path d="M330.067,202.744c-0.346,0-0.704-0.141-1.079-0.423c-0.282-0.281-0.439-0.657-0.472-1.127c0-0.845,0.519-1.361,1.551-1.549
		c0.781,0,1.299,0.517,1.55,1.549C331.617,202.228,331.101,202.744,330.067,202.744z M330.067,216.595
		c-0.346,0-0.704-0.141-1.079-0.422c-0.282-0.282-0.439-0.657-0.472-1.127c0-0.846,0.519-1.361,1.551-1.55
		c0.781,0,1.299,0.517,1.55,1.55C331.617,216.079,331.101,216.595,330.067,216.595z"/>
	<path d="M339.035,214.389h19.156v1.925h-22.584l19.202-31.553h-18.075v-1.972h21.551L339.035,214.389z"/>
	<path d="M376.174,213.731c-1.94,1.94-4.318,2.911-7.137,2.911c-2.816,0-5.181-0.955-7.09-2.864c-1.941-1.94-2.91-4.32-2.91-7.137
		c0-2.786,0.969-5.149,2.91-7.09c1.909-1.973,4.272-2.958,7.09-2.958c2.786,0,5.147,0.97,7.09,2.91
		c1.941,1.941,2.912,4.32,2.912,7.138C379.039,209.458,378.083,211.822,376.174,213.731z M374.813,200.866
		c-1.565-1.597-3.49-2.395-5.775-2.395c-2.191,0-4.084,0.814-5.682,2.441c-1.628,1.628-2.441,3.537-2.441,5.729
		c0,2.223,0.799,4.132,2.395,5.728c1.599,1.597,3.507,2.395,5.729,2.395c2.254,0,4.163-0.781,5.729-2.348
		c1.597-1.596,2.396-3.521,2.396-5.774C377.16,204.356,376.377,202.432,374.813,200.866z"/>
	<path d="M396.927,216.313v-11.598c0-4.1-1.847-6.15-5.54-6.15c-1.815,0-3.192,0.532-4.133,1.597
		c-0.971,1.064-1.455,2.52-1.455,4.366v11.785h-1.925v-19.392h1.925v2.348c0.876-1.721,2.738-2.582,5.588-2.582
		c2.41,0,4.256,0.688,5.54,2.065c1.283,1.378,1.925,3.303,1.925,5.775v11.785L396.927,216.313L396.927,216.313z"/>
	<path d="M405.425,206.219c0,2.629,0.704,4.711,2.112,6.244c1.471,1.566,3.49,2.348,6.058,2.348c1.314,0,2.504-0.218,3.568-0.657
		c1.345-0.563,2.551-1.705,3.615-3.427l1.736,0.798c-1.221,2.316-3.1,3.882-5.635,4.695c-0.971,0.313-2.064,0.47-3.286,0.47
		c-2.911,0-5.306-0.955-7.185-2.864c-1.909-1.909-2.863-4.304-2.863-7.184c0-2.911,0.939-5.306,2.816-7.185
		c1.908-1.908,4.319-2.863,7.23-2.863c2.88,0,5.259,0.892,7.137,2.676c1.909,1.784,2.864,4.102,2.864,6.949H405.425z
		 M418.666,200.067c-1.473-1.063-3.162-1.596-5.071-1.596c-4.007,0-6.637,1.972-7.888,5.916h15.729
		C421.123,202.604,420.199,201.164,418.666,200.067z"/>
</g>
<g>
	<g>
		<path d="M807.791,355.413c1.193-3.567,1.94-5.189,3.618-8.472c0.881,0.613,1.325,0.92,2.222,1.544
			c-1.143,2.349-1.663,3.533-2.564,6.05c5.503,0.81,8.264,1.264,13.804,2.34c0.977,0.808,1.467,1.226,2.46,2.098
			C819.477,357.239,815.57,356.569,807.791,355.413z"/>
		<path d="M838.465,360.482c5.152-1.436,7.769-2.15,13.041-3.575c0.876,0.864,1.316,1.312,2.203,2.239
			c-6.792,1.877-10.146,2.819-16.715,4.718c-3.316-10.297-4.404-13.331-6.024-19.941c-5.242,1.325-7.853,1.987-13.029,3.313
			c-0.77-0.541-1.149-0.808-1.906-1.34c6.752-1.724,10.163-2.586,17.009-4.31C834.486,348.09,835.468,350.975,838.465,360.482z"/>
		<path d="M869.785,351.146c0.178,2.563-1.088,4.395-3.861,5.149s-6.172,0.197-10.188-1.381c-4.082-1.604-7.689-3.734-10.718-6.183
			c-2.993-2.422-4.447-4.5-4.492-6.416c-0.045-1.932,1.356-3.272,4.218-3.988c2.828-0.708,6.176-0.608,10.089,0.363
			c3.913,0.972,7.313,2.548,10.26,4.972C868.038,346.087,869.609,348.625,869.785,351.146z M854.87,340.058
			c-3.196-0.82-5.944-0.924-8.26-0.345c-2.222,0.555-3.314,1.643-3.272,3.277c0.042,1.642,1.206,3.362,3.554,5.266
			c2.382,1.931,5.272,3.571,8.617,4.808c3.347,1.238,6.121,1.658,8.32,1.073c2.229-0.593,3.255-1.991,3.12-3.99
			c-0.138-2.037-1.396-4.067-3.755-6.008C860.801,342.171,858.031,340.869,854.87,340.058z"/>
		<path d="M893.353,348.463c-4.947-5.1-7.398-7.131-12.147-10.932c-4.197-3.359-8.064-4.339-11.813-3.405
			c-1.843,0.459-2.697,1.218-2.604,2.251c0.095,1.039,1.053,2.294,2.951,3.806c4.845,3.859,7.355,5.93,12.468,11.252
			c-0.771,0.206-1.154,0.308-1.923,0.514c-8.438-8.796-12.539-11.408-20.141-17.146c0.781-0.195,1.175-0.292,1.956-0.487
			c0.921,0.695,1.383,1.044,2.316,1.753c-0.823-1.52,0.236-2.621,3.127-3.342c2.445-0.61,4.985-0.571,7.65,0.142
			c2.665,0.714,5.238,2.005,7.768,4.023c4.82,3.846,7.308,5.898,12.322,11.056C894.511,348.153,894.125,348.257,893.353,348.463z"/>
		<path d="M891.339,336.63c2.704,2.208,5.604,3.969,8.62,5.072c3.108,1.136,5.969,1.411,8.543,0.728
			c1.318-0.35,2.287-0.889,2.888-1.605c0.761-0.905,0.775-2.351,0.053-4.186c1.025,0.109,1.539,0.164,2.563,0.275
			c1.188,2.446,0.941,4.547-0.741,6.08c-0.645,0.587-1.573,1.054-2.796,1.385c-2.914,0.79-6.326,0.367-10.216-1.042
			c-3.915-1.418-7.407-3.433-10.375-5.875c-3.001-2.469-4.466-4.541-4.444-6.44c0.021-1.93,1.518-3.243,4.434-3.976
			c2.885-0.726,6.136-0.657,9.793,0.215c3.684,0.878,6.996,2.402,9.931,4.759C902.34,333.869,898.678,334.79,891.339,336.63z
			 M898.398,328.388c-2.537-0.438-4.761-0.416-6.675,0.065c-4.019,1.009-4.739,3.076-1.977,6.595
			c6.353-1.588,9.521-2.383,15.807-3.975C903.414,329.715,901.029,328.843,898.398,328.388z"/>
		<path d="M944.797,334.306c-5.611-3.346-8.479-4.851-14.157-7.695c-5.925,1.567-8.928,2.348-14.979,3.904
			c2.604,3.705,3.932,5.649,6.552,10.162c-0.746,0.205-1.12,0.308-1.868,0.513c-6.796-10.629-14.697-20.514-21.255-31.285
			c15.62,8.448,31.983,15.31,47.564,23.859C945.912,333.982,945.541,334.09,944.797,334.306z M903.542,313.688
			c3.998,6.04,6.291,8.707,10.88,15.076c5.427-1.39,8.12-2.086,13.443-3.482C917.838,320.388,912.815,318.388,903.542,313.688z"/>
		<path d="M944.785,328.188c-0.88-0.715-1.321-1.065-2.204-1.759c1.059-2.541,1.569-3.763,2.546-6.159
			c-5.248-0.695-7.883-1.037-13.13-1.71c-0.874-0.626-1.308-0.938-2.174-1.558c7.401,0.938,11.132,1.414,18.544,2.38
			C947.023,322.763,946.304,324.494,944.785,328.188z"/>
	</g>
</g>
<line fill="none" stroke="#000000" stroke-miterlimit="10" stroke-dasharray="1,2" x1="434.416" y1="205.911" x2="1335.232" y2="205.911"/>
<line fill="none" stroke="#000000" stroke-miterlimit="10" stroke-dasharray="1,2" x1="434.416" y1="453.878" x2="974.521" y2="453.878"/>
<g>
	<rect x="79.978" y="429.983" fill="none" width="344.979" height="48.684"/>
	<path d="M286.309,462.146c-1.941,1.939-4.32,2.91-7.137,2.91c-3.225,0-5.869-1.299-7.936-3.896v3.567h-1.925v-34.744h1.925v18.969
		c2.035-2.599,4.68-3.896,7.936-3.896c2.816,0,5.18,0.955,7.09,2.863c1.939,1.941,2.91,4.32,2.91,7.138
		C289.172,457.872,288.217,460.236,286.309,462.146z M284.9,449.327c-1.598-1.597-3.507-2.396-5.729-2.396
		c-2.254,0-4.164,0.782-5.729,2.349c-1.597,1.596-2.395,3.521-2.395,5.774c0,2.224,0.798,4.132,2.395,5.729
		c1.596,1.597,3.506,2.395,5.729,2.395c2.254,0,4.162-0.781,5.729-2.348c1.596-1.596,2.395-3.521,2.395-5.774
		C287.295,452.833,286.496,450.924,284.9,449.327z"/>
	<path d="M309.785,462.146c-1.941,1.939-4.32,2.91-7.137,2.91c-2.818,0-5.183-0.955-7.091-2.863c-1.94-1.94-2.911-4.32-2.911-7.138
		c0-2.786,0.971-5.148,2.911-7.09c1.909-1.973,4.272-2.958,7.091-2.958c2.784,0,5.147,0.97,7.09,2.91
		c1.938,1.941,2.91,4.32,2.91,7.138C312.648,457.872,311.693,460.236,309.785,462.146z M308.423,449.28
		c-1.564-1.598-3.491-2.396-5.773-2.396c-2.191,0-4.086,0.814-5.683,2.441c-1.629,1.628-2.441,3.537-2.441,5.729
		c0,2.224,0.798,4.133,2.395,5.729c1.596,1.597,3.505,2.395,5.729,2.395c2.253,0,4.161-0.78,5.728-2.348
		c1.597-1.596,2.396-3.521,2.396-5.774C310.771,452.771,309.988,450.846,308.423,449.28z"/>
	<path d="M320.395,447.261v17.467h-1.924v-17.467h-2.63v-1.925h2.63v-8.498h1.924v8.498h4.509v1.925H320.395z"/>
	<path d="M330.067,451.158c-0.346,0-0.704-0.142-1.079-0.423c-0.282-0.281-0.439-0.657-0.472-1.127c0-0.846,0.519-1.361,1.551-1.55
		c0.781,0,1.299,0.518,1.55,1.55C331.617,450.642,331.101,451.158,330.067,451.158z M330.067,465.009
		c-0.346,0-0.704-0.141-1.079-0.422c-0.282-0.282-0.439-0.657-0.472-1.127c0-0.846,0.519-1.361,1.551-1.55
		c0.781,0,1.299,0.517,1.55,1.55C331.617,464.493,331.101,465.009,330.067,465.009z"/>
	<path d="M339.035,462.803h19.156v1.925h-22.584l19.202-31.553h-18.075v-1.972h21.551L339.035,462.803z"/>
	<path d="M376.174,462.146c-1.94,1.939-4.318,2.91-7.137,2.91c-2.816,0-5.181-0.955-7.09-2.863c-1.941-1.94-2.91-4.32-2.91-7.138
		c0-2.786,0.969-5.148,2.91-7.09c1.909-1.973,4.272-2.958,7.09-2.958c2.786,0,5.147,0.97,7.09,2.91
		c1.941,1.941,2.912,4.32,2.912,7.138C379.039,457.872,378.083,460.236,376.174,462.146z M374.813,449.28
		c-1.565-1.598-3.49-2.396-5.775-2.396c-2.191,0-4.084,0.814-5.682,2.441c-1.628,1.628-2.441,3.537-2.441,5.729
		c0,2.224,0.799,4.133,2.395,5.729c1.599,1.597,3.507,2.395,5.729,2.395c2.254,0,4.163-0.78,5.729-2.348
		c1.597-1.596,2.396-3.521,2.396-5.774C377.16,452.771,376.377,450.846,374.813,449.28z"/>
	<path d="M396.927,464.728V453.13c0-4.1-1.847-6.149-5.54-6.149c-1.815,0-3.192,0.531-4.133,1.597
		c-0.971,1.063-1.455,2.52-1.455,4.366v11.784h-1.925v-19.392h1.925v2.348c0.876-1.721,2.738-2.582,5.588-2.582
		c2.41,0,4.256,0.688,5.54,2.065c1.283,1.378,1.925,3.303,1.925,5.775v11.784L396.927,464.728L396.927,464.728z"/>
	<path d="M405.425,454.633c0,2.629,0.704,4.711,2.112,6.244c1.471,1.566,3.49,2.348,6.058,2.348c1.314,0,2.504-0.218,3.568-0.656
		c1.345-0.563,2.551-1.705,3.615-3.428l1.736,0.799c-1.221,2.315-3.1,3.882-5.635,4.694c-0.971,0.313-2.064,0.47-3.286,0.47
		c-2.911,0-5.306-0.954-7.185-2.863c-1.909-1.909-2.863-4.305-2.863-7.185c0-2.911,0.939-5.306,2.816-7.185
		c1.908-1.908,4.319-2.863,7.23-2.863c2.88,0,5.259,0.893,7.137,2.676c1.909,1.784,2.864,4.103,2.864,6.949H405.425L405.425,454.633
		z M418.666,448.481c-1.473-1.063-3.162-1.597-5.071-1.597c-4.007,0-6.637,1.973-7.888,5.916h15.729
		C421.123,451.018,420.199,449.578,418.666,448.481z"/>
</g>
<path fill="none" stroke="#000000" stroke-miterlimit="10" d="M800.146,360.032c-146.61,53.607,146.409,454.563,309.138,454.563"/>
<path fill="none" stroke="#000000" stroke-miterlimit="10" d="M1472.489,323.579c-687.854,222.642-525.935,491.017-363.206,491.017"
	/>
<g>
	
		<rect x="1109.283" y="793.525" fill="#EDEDED" stroke="#000000" stroke-width="0.3" stroke-miterlimit="10" width="289.23" height="42.143"/>
	<g>
		<path d="M1139.088,822.4c-1.24,1.24-2.76,1.86-4.56,1.86c-2.061,0-3.75-0.83-5.07-2.49v2.28h-1.229v-22.2h1.229v12.12
			c1.3-1.66,2.99-2.49,5.07-2.49c1.8,0,3.31,0.61,4.53,1.83c1.239,1.24,1.859,2.76,1.859,4.561
			C1140.918,819.671,1140.308,821.181,1139.088,822.4z M1138.188,814.211c-1.021-1.021-2.24-1.53-3.66-1.53
			c-1.44,0-2.66,0.5-3.66,1.5c-1.021,1.021-1.53,2.25-1.53,3.69c0,1.42,0.51,2.64,1.53,3.66c1.02,1.02,2.239,1.529,3.66,1.529
			c1.439,0,2.659-0.499,3.66-1.5c1.02-1.02,1.529-2.25,1.529-3.689C1139.718,816.451,1139.208,815.23,1138.188,814.211z"/>
		<path d="M1154.088,822.4c-1.24,1.24-2.76,1.86-4.56,1.86c-1.801,0-3.311-0.609-4.53-1.83c-1.24-1.239-1.86-2.76-1.86-4.56
			c0-1.78,0.62-3.29,1.86-4.53c1.22-1.26,2.729-1.89,4.53-1.89c1.779,0,3.289,0.62,4.529,1.859c1.24,1.24,1.86,2.76,1.86,4.561
			C1155.918,819.671,1155.308,821.181,1154.088,822.4z M1153.218,814.181c-1-1.02-2.23-1.53-3.689-1.53
			c-1.4,0-2.61,0.521-3.631,1.561c-1.04,1.04-1.56,2.26-1.56,3.66c0,1.42,0.51,2.64,1.53,3.66c1.02,1.02,2.239,1.529,3.66,1.529
			c1.439,0,2.659-0.499,3.659-1.5c1.021-1.02,1.53-2.25,1.53-3.689C1154.718,816.411,1154.218,815.181,1153.218,814.181z"/>
		<path d="M1160.867,812.891v11.16h-1.229v-11.16h-1.681v-1.229h1.681v-5.431h1.229v5.431h2.88v1.229H1160.867z"/>
		<path d="M1167.047,815.381c-0.22,0-0.449-0.09-0.689-0.271c-0.18-0.18-0.28-0.42-0.3-0.72c0-0.54,0.33-0.87,0.989-0.99
			c0.5,0,0.83,0.33,0.99,0.99C1168.037,815.051,1167.707,815.381,1167.047,815.381z M1167.047,824.23c-0.22,0-0.449-0.09-0.689-0.27
			c-0.18-0.18-0.28-0.42-0.3-0.72c0-0.54,0.33-0.87,0.989-0.99c0.5,0,0.83,0.33,0.99,0.99
			C1168.037,823.9,1167.707,824.23,1167.047,824.23z"/>
		<path d="M1172.237,809.44c-0.221,0-0.45-0.09-0.69-0.27c-0.18-0.18-0.28-0.42-0.3-0.72c0-0.54,0.33-0.87,0.99-0.99
			c0.499,0,0.829,0.33,0.989,0.99C1173.227,809.11,1172.897,809.44,1172.237,809.44z M1171.607,824.051v-12.39h1.229v12.39H1171.607
			z"/>
		<path d="M1183.817,824.051v-7.41c0-2.62-1.181-3.93-3.54-3.93c-1.16,0-2.04,0.34-2.641,1.02c-0.62,0.681-0.93,1.61-0.93,2.79v7.53
			h-1.229v-12.39h1.229v1.5c0.56-1.1,1.75-1.65,3.57-1.65c1.54,0,2.72,0.44,3.54,1.32c0.819,0.88,1.229,2.11,1.229,3.689v7.53
			H1183.817z"/>
		<path d="M1190.867,812.891v11.16h-1.229v-11.16h-1.681v-1.229h1.681v-5.431h1.229v5.431h2.88v1.229H1190.867z"/>
		<path d="M1196.747,817.601c0,1.681,0.45,3.011,1.351,3.99c0.939,1,2.229,1.5,3.87,1.5c0.84,0,1.6-0.14,2.279-0.42
			c0.86-0.36,1.63-1.09,2.311-2.19l1.109,0.511c-0.779,1.479-1.979,2.479-3.6,3c-0.62,0.199-1.32,0.3-2.1,0.3
			c-1.86,0-3.391-0.61-4.591-1.83c-1.22-1.22-1.83-2.75-1.83-4.59c0-1.86,0.601-3.391,1.801-4.59c1.22-1.22,2.76-1.83,4.62-1.83
			c1.84,0,3.359,0.569,4.56,1.71c1.22,1.14,1.83,2.62,1.83,4.439H1196.747z M1205.207,813.671c-0.94-0.68-2.02-1.021-3.239-1.021
			c-2.561,0-4.241,1.261-5.04,3.78h10.05C1206.777,815.291,1206.188,814.371,1205.207,813.671z"/>
		<path d="M1217.057,813.491c-0.32-0.24-0.66-0.431-1.021-0.57c-0.359-0.14-0.739-0.21-1.14-0.21c-0.34,0-0.66,0.104-0.96,0.314
			s-0.561,0.471-0.78,0.78c-0.22,0.311-0.395,0.655-0.524,1.035c-0.131,0.38-0.195,0.73-0.195,1.05v8.16h-1.229v-12.39h1.229v1.68
			c0.26-0.46,0.6-0.88,1.021-1.26c0.42-0.38,0.879-0.57,1.38-0.57c0.619,0,1.129,0.07,1.529,0.21c0.4,0.141,0.851,0.39,1.351,0.75
			L1217.057,813.491z"/>
		<path d="M1225.188,823.271c-0.801,0.681-1.761,1.021-2.88,1.021c-1.921,0-3.36-0.87-4.32-2.61l1.05-0.63
			c0.34,0.62,0.75,1.101,1.23,1.44c0.499,0.38,1.18,0.569,2.04,0.569c1.879,0,2.819-0.8,2.819-2.399c0-0.7-0.33-1.31-0.99-1.83
			c-0.199-0.12-0.484-0.255-0.854-0.405s-0.825-0.325-1.365-0.525c-1-0.359-1.72-0.72-2.16-1.08c-0.64-0.52-0.96-1.27-0.96-2.25
			c0-0.84,0.32-1.56,0.96-2.159c0.62-0.62,1.43-0.931,2.431-0.931c1.38,0,2.55,0.48,3.51,1.44l-0.9,0.78
			c-0.68-0.68-1.55-1.021-2.609-1.021c-1.44,0-2.16,0.63-2.16,1.89c0,0.561,0.22,1.021,0.66,1.381c0.359,0.28,0.93,0.55,1.71,0.81
			c0.68,0.24,1.239,0.465,1.68,0.675c0.439,0.21,0.77,0.396,0.99,0.556c0.859,0.659,1.29,1.55,1.29,2.67
			C1226.357,821.741,1225.967,822.61,1225.188,823.271z"/>
		<path d="M1229.267,817.601c0,1.681,0.45,3.011,1.351,3.99c0.939,1,2.229,1.5,3.87,1.5c0.84,0,1.6-0.14,2.279-0.42
			c0.86-0.36,1.63-1.09,2.311-2.19l1.109,0.511c-0.779,1.479-1.979,2.479-3.6,3c-0.62,0.199-1.32,0.3-2.1,0.3
			c-1.86,0-3.391-0.61-4.591-1.83c-1.22-1.22-1.83-2.75-1.83-4.59c0-1.86,0.601-3.391,1.801-4.59c1.22-1.22,2.76-1.83,4.62-1.83
			c1.84,0,3.359,0.569,4.56,1.71c1.22,1.14,1.83,2.62,1.83,4.439H1229.267z M1237.727,813.671c-0.94-0.68-2.02-1.021-3.239-1.021
			c-2.561,0-4.241,1.261-5.04,3.78h10.05C1239.297,815.291,1238.707,814.371,1237.727,813.671z"/>
		<path d="M1249.576,824.291c-1.841,0-3.37-0.61-4.59-1.83c-1.221-1.22-1.83-2.75-1.83-4.59s0.609-3.37,1.83-4.59
			c1.22-1.22,2.749-1.83,4.59-1.83c1.58,0,2.84,0.359,3.78,1.08v1.47l-0.78-0.51l-0.84-0.45c-0.761-0.26-1.48-0.391-2.16-0.391
			c-1.54,0-2.79,0.48-3.75,1.44c-0.98,0.98-1.47,2.24-1.47,3.78c0,1.52,0.489,2.77,1.47,3.75c0.979,0.979,2.229,1.47,3.75,1.47
			c1.439,0,2.7-0.48,3.78-1.44v1.53C1252.235,823.921,1250.976,824.291,1249.576,824.291z"/>
		<path d="M1258.726,812.891v11.16h-1.229v-11.16h-1.681v-1.229h1.681v-5.431h1.229v5.431h2.88v1.229H1258.726z"/>
		<path d="M1265.206,809.44c-0.221,0-0.45-0.09-0.69-0.27c-0.18-0.18-0.28-0.42-0.3-0.72c0-0.54,0.33-0.87,0.99-0.99
			c0.499,0,0.829,0.33,0.989,0.99C1266.195,809.11,1265.866,809.44,1265.206,809.44z M1264.576,824.051v-12.39h1.229v12.39H1264.576
			z"/>
		<path d="M1276.786,824.051v-7.41c0-2.62-1.181-3.93-3.54-3.93c-1.16,0-2.04,0.34-2.641,1.02c-0.62,0.681-0.93,1.61-0.93,2.79v7.53
			h-1.229v-12.39h1.229v1.5c0.56-1.1,1.75-1.65,3.57-1.65c1.54,0,2.72,0.44,3.54,1.32c0.819,0.88,1.229,2.11,1.229,3.689v7.53
			H1276.786z"/>
		<path d="M1291.937,828.19c-1.121,1.12-2.591,1.681-4.41,1.681c-3.381,0-5.4-1.331-6.061-3.99h1.23
			c0.22,0.979,0.85,1.71,1.89,2.189c0.82,0.38,1.8,0.57,2.94,0.57c1.54,0,2.729-0.43,3.569-1.29c0.86-0.86,1.29-2.06,1.29-3.6v-1.83
			c-1.3,1.56-2.95,2.34-4.949,2.34c-1.801,0-3.311-0.609-4.53-1.83c-1.24-1.239-1.86-2.76-1.86-4.56c0-1.801,0.61-3.311,1.83-4.53
			c1.24-1.24,2.76-1.86,4.561-1.86c1.979,0,3.63,0.78,4.949,2.34v-2.159h1.23v12.12
			C1293.616,825.601,1293.056,827.07,1291.937,828.19z M1291.096,814.211c-1.02-1.021-2.24-1.53-3.659-1.53
			c-1.44,0-2.66,0.5-3.66,1.5c-1.021,1.021-1.53,2.25-1.53,3.69c0,1.42,0.51,2.64,1.53,3.66c1.02,1.02,2.239,1.529,3.66,1.529
			c1.439,0,2.659-0.499,3.659-1.5c1.021-1.02,1.53-2.25,1.53-3.689C1292.626,816.451,1292.116,815.23,1291.096,814.211z"/>
		<path d="M1297.426,824.051v-21.42h10.29v1.229h-9.06v7.801h9.06v1.319h-9.06v9.84h9.06v1.23H1297.426z"/>
		<path d="M1310.265,824.051v-22.2h1.2v22.2H1310.265z"/>
		<path d="M1315.935,817.601c0,1.681,0.45,3.011,1.351,3.99c0.939,1,2.229,1.5,3.87,1.5c0.84,0,1.6-0.14,2.279-0.42
			c0.86-0.36,1.63-1.09,2.311-2.19l1.109,0.511c-0.779,1.479-1.979,2.479-3.6,3c-0.62,0.199-1.32,0.3-2.1,0.3
			c-1.86,0-3.391-0.61-4.591-1.83c-1.22-1.22-1.83-2.75-1.83-4.59c0-1.86,0.601-3.391,1.801-4.59c1.22-1.22,2.76-1.83,4.62-1.83
			c1.84,0,3.359,0.569,4.56,1.71c1.22,1.14,1.83,2.62,1.83,4.439H1315.935z M1324.395,813.671c-0.94-0.68-2.02-1.021-3.239-1.021
			c-2.561,0-4.241,1.261-5.04,3.78h10.05C1325.965,815.291,1325.375,814.371,1324.395,813.671z"/>
		<path d="M1344.495,824.051v-8.55c0-0.76-0.25-1.42-0.75-1.98c-0.5-0.56-1.221-0.84-2.16-0.84c-1.94,0-2.91,0.94-2.91,2.82v8.55
			h-1.229v-8.55c0-0.84-0.28-1.51-0.84-2.01c-0.581-0.54-1.271-0.811-2.07-0.811c-0.82,0-1.511,0.261-2.07,0.78
			c-0.56,0.5-0.84,1.18-0.84,2.04v8.55h-1.229v-12.39h1.229v1.229c0.6-0.939,1.57-1.41,2.91-1.41c1.6,0,2.779,0.65,3.54,1.95
			c0.72-1.3,1.89-1.95,3.51-1.95c1.24,0,2.24,0.351,3,1.051c0.76,0.72,1.14,1.71,1.14,2.97v8.55H1344.495z"/>
		<path d="M1349.924,817.601c0,1.681,0.45,3.011,1.351,3.99c0.939,1,2.229,1.5,3.87,1.5c0.84,0,1.6-0.14,2.279-0.42
			c0.86-0.36,1.63-1.09,2.311-2.19l1.109,0.511c-0.779,1.479-1.979,2.479-3.6,3c-0.62,0.199-1.32,0.3-2.1,0.3
			c-1.86,0-3.391-0.61-4.591-1.83c-1.22-1.22-1.83-2.75-1.83-4.59c0-1.86,0.601-3.391,1.801-4.59c1.22-1.22,2.76-1.83,4.62-1.83
			c1.84,0,3.359,0.569,4.56,1.71c1.22,1.14,1.83,2.62,1.83,4.439H1349.924z M1358.384,813.671c-0.94-0.68-2.02-1.021-3.239-1.021
			c-2.561,0-4.241,1.261-5.04,3.78h10.05C1359.954,815.291,1359.364,814.371,1358.384,813.671z"/>
		<path d="M1372.725,824.051v-7.41c0-2.62-1.181-3.93-3.54-3.93c-1.16,0-2.04,0.34-2.641,1.02c-0.62,0.681-0.93,1.61-0.93,2.79v7.53
			h-1.229v-12.39h1.229v1.5c0.56-1.1,1.75-1.65,3.57-1.65c1.54,0,2.72,0.44,3.54,1.32c0.819,0.88,1.229,2.11,1.229,3.689v7.53
			H1372.725z"/>
		<path d="M1379.773,812.891v11.16h-1.229v-11.16h-1.681v-1.229h1.681v-5.431h1.229v5.431h2.88v1.229H1379.773z"/>
	</g>
</g>
<g>
	<g>
		<path d="M1478.668,313.527c-0.937-3.475-1.461-5.124-2.236-8.384c1.58,0.606,2.373,0.911,3.966,1.526
			c0.588,2.331,0.93,3.514,1.557,5.964c7.02,0.709,10.449,1.083,17.016,1.894c1.445,0.708,2.15,1.068,3.521,1.805
			C1493.495,315.093,1488.657,314.546,1478.668,313.527z"/>
		<path d="M1514.478,317.144c4.899-1.484,7.345-2.225,12.229-3.712c1.085,0.688,1.608,1.039,2.609,1.756
			c-6.31,1.954-9.465,2.927-15.786,4.875c-4.336-8.342-9.007-11.55-16.59-17.965c-4.943,1.326-7.435,1.991-12.457,3.322
			c-1.367-0.53-2.05-0.794-3.408-1.318c6.565-1.719,9.803-2.576,16.225-4.285C1504.728,306.106,1509.43,309.205,1514.478,317.144z"
			/>
		<path d="M1543.152,307.574c1,2.17,0.028,3.74-2.509,4.53c-2.535,0.79-5.811,0.553-10.27-0.591
			c-4.533-1.163-9.146-2.894-13.959-5.073c-4.764-2.155-8.166-4.151-9.85-5.982c-1.73-1.883-1.312-3.151,1.325-3.857
			c2.607-0.699,6.546-0.629,11.786,0.227c5.243,0.857,10.352,2.268,15.046,4.368
			C1539.418,303.295,1542.168,305.439,1543.152,307.574z M1520.878,298.114c-4.267-0.717-7.497-0.788-9.628-0.211
			c-2.044,0.554-2.332,1.595-0.92,3.167c1.404,1.564,4.076,3.188,7.813,4.877c3.789,1.714,7.567,3.065,11.4,3.984
			c3.836,0.919,6.609,1.108,8.613,0.495c2.032-0.623,2.721-1.848,1.819-3.567c-0.916-1.752-3.203-3.484-6.965-5.17
			C1529.196,299.979,1525.087,298.821,1520.878,298.114z"/>
		<path d="M1565.385,303.976c-6.003-3.889-9.782-5.585-17.592-8.84c-6.901-2.877-12.309-3.729-15.703-2.801
			c-1.669,0.457-1.978,1.159-0.991,2.127c0.977,0.958,3.092,2.105,6.233,3.428c8.021,3.376,11.921,5.139,17.998,9.219
			c-0.695,0.216-1.042,0.324-1.736,0.541c-9.858-6.241-20.521-10.28-31.319-14.54c0.712-0.192,1.065-0.29,1.776-0.482
			c1.656,0.633,2.487,0.952,4.143,1.593c-2.226-1.396-2.027-2.435,0.596-3.146c2.219-0.601,5.128-0.605,8.718-0.008
			c3.591,0.597,7.561,1.715,11.727,3.44c7.941,3.288,11.79,4.998,17.896,8.927C1566.43,303.65,1566.082,303.758,1565.385,303.976z"
			/>
		<path d="M1558.022,293.975c4.321,1.841,8.145,3.209,11.651,3.98c3.609,0.793,6.484,0.844,8.817,0.125
			c1.193-0.368,1.988-0.873,2.334-1.501c0.438-0.793-0.075-1.997-1.719-3.512c1.115,0.039,1.674,0.06,2.781,0.099
			c2.346,1.994,2.725,3.729,1.487,5.088c-0.473,0.52-1.271,0.959-2.381,1.307c-2.65,0.829-6.006,0.714-10.39-0.246
			c-4.408-0.965-8.885-2.515-13.596-4.551c-4.762-2.058-8.082-3.898-9.637-5.608c-1.578-1.736-1.053-2.946,1.609-3.668
			c2.634-0.715,6.385-0.73,11.194-0.07c4.837,0.664,9.729,1.886,14.379,3.791C1567.932,291.117,1564.629,292.07,1558.022,293.975z
			 M1559.677,286.449c-3.185-0.31-5.664-0.232-7.409,0.246c-3.663,1.004-2.522,2.907,2.968,5.937
			c5.728-1.63,8.59-2.446,14.328-4.078C1566.298,287.457,1562.973,286.77,1559.677,286.449z"/>
		<path d="M1606.853,287.978c0.715,1.794-0.382,3.188-3.093,4.032c-3.859,1.203-5.782,1.803-9.621,3
			c-17.362-9.509-36.829-14.93-55.268-21.923c2.897-0.748,4.348-1.12,7.249-1.864c2.307-0.591,5.27-0.626,8.97-0.137
			c3.949,0.522,8.228,1.559,12.774,3.098c5.214,1.765,7.835,4.541,8.118,4.765c0.718,0.567,6.607-0.139,10.782,0.497
			c4.146,0.631,8.263,1.674,12.161,3.17C1603.59,284.404,1606.15,286.217,1606.853,287.978z M1556.634,272.393
			c-3.115-0.391-5.481-0.398-7.137,0.027c-2.307,0.593-3.459,0.89-5.763,1.485c8.198,3.139,12.652,4.597,21.202,7.621
			c2.461-0.666,3.689-0.998,6.156-1.664c1.666-0.45,2.063-1.166,1.172-2.135c-0.893-0.969-2.954-1.99-6.166-3.084
			C1562.777,273.511,1559.609,272.767,1556.634,272.393z M1585.324,280.294c-3.826-0.418-6.89-0.343-9.104,0.261
			c-3.177,0.866-4.758,1.299-7.925,2.166c10.806,3.874,16.228,5.801,24.933,10.329c3.163-0.971,4.75-1.456,7.929-2.431
			c2.187-0.67,3.036-1.761,2.452-3.179c-0.58-1.414-2.663-2.88-6.414-4.329C1593.396,281.646,1589.371,280.737,1585.324,280.294z"/>
		<path d="M1609.624,284.447c-1.278-0.542-1.928-0.811-3.25-1.339c-0.097-2.171-0.208-3.219-0.485-5.271
			c-6.478-0.32-9.763-0.486-16.37-0.843c-1.469-0.496-2.207-0.745-3.692-1.238c9.42,0.513,14.117,0.746,23.308,1.177
			C1609.506,279.821,1609.643,281.306,1609.624,284.447z"/>
	</g>
</g>
<g>
	<g>
		<path d="M1139.056,372.373c3.644-7.118,6.009-10.888,11.523-16.216c0.064,1.053,0.105,1.659,0.201,2.97
			c-4.541,5.146-6.539,8.292-9.822,14.255c0.005,0.047,0.008,0.071,0.013,0.118c4.308,3.532,6.675,5.432,11.598,8.115
			c0.111,1.466,0.167,2.163,0.256,3.425c-5.732-2.605-8.489-4.984-13.396-9.405C1139.278,374.325,1139.203,373.666,1139.056,372.373
			z"/>
		<path d="M1155.696,365.189c-0.265-3.624-0.51-6.247-0.704-8.288c1.024-0.298,1.545-0.448,2.597-0.751
			c0.141,1.468,0.221,2.298,0.391,4.058c0.024-0.007,0.037-0.012,0.063-0.02c0.985-3.502,2.835-5.474,5.603-6.258
			c4.095-1.162,7.54,2.374,8.016,11.103c0.563,10.334-3.062,15.356-6.9,16.611c-2.153,0.704-4.024,0.128-5.123-2.089
			c-0.025,0.008-0.038,0.013-0.063,0.021c0.357,5.523,0.504,7.975,0.408,9.115c-1.106,0.37-1.65,0.551-2.721,0.908
			C1157.441,387.326,1156.589,377.447,1155.696,365.189z M1159.063,372.06c0.054,0.775,0.153,1.49,0.273,2.097
			c0.665,3.352,2.619,5.024,4.737,4.343c3.129-1.006,4.832-5.657,4.45-12.277c-0.334-5.785-2.428-9.653-5.646-8.722
			c-2.077,0.601-3.803,3.343-4.113,7.366c-0.052,0.673-0.103,1.479-0.053,2.196C1158.853,369.052,1158.924,370.071,1159.063,372.06z
			"/>
		<path d="M1178.671,345.619c0.02,0.623-0.773,1.659-2.091,2.019c-1.163,0.318-2.008-0.252-2.01-0.909
			c-0.002-0.68,0.879-1.128,2.082-1.451C1177.893,344.944,1178.65,344.965,1178.671,345.619z M1176.375,377.362
			c-0.357-8.625-0.915-17.724-1.259-26.181c1.312-0.367,1.974-0.552,3.302-0.923c0.322,8.412,0.846,17.475,1.182,26.054
			C1178.301,376.736,1177.655,376.945,1176.375,377.362z"/>
		<path d="M1184.307,356.725c-0.148-3.494-0.332-6.019-0.479-7.978c1.214-0.338,1.825-0.508,3.047-0.849
			c0.109,1.404,0.169,2.202,0.296,3.89c0.029-0.008,0.047-0.014,0.076-0.022c1.271-3.425,3.443-5.396,6.528-6.253
			c4.563-1.269,8.124,1.992,8.384,10.33c0.308,9.872-3.674,14.795-8.043,16.22c-2.451,0.799-4.615,0.377-5.809-1.688
			c-0.031,0.01-0.048,0.015-0.078,0.025c0.201,5.305,0.28,7.657,0.215,8.695c-1.319,0.446-1.977,0.667-3.283,1.109
			C1185.309,378.105,1184.812,368.544,1184.307,356.725z M1187.943,363.175c0.029,0.746,0.12,1.431,0.233,2.007
			c0.631,3.176,2.846,4.682,5.26,3.909c3.566-1.141,5.53-5.661,5.318-11.992c-0.186-5.533-2.314-9.164-5.934-8.137
			c-2.335,0.663-4.408,3.388-4.928,7.282c-0.088,0.652-0.18,1.434-0.15,2.123C1187.822,360.28,1187.865,361.261,1187.943,363.175z"
			/>
		<path d="M1208.387,355.266c0.259,6.666,3.229,8.007,6.552,6.944c2.378-0.761,3.779-1.734,4.995-2.817
			c0.245,1.173,0.366,1.733,0.607,2.759c-1.137,0.981-3.088,2.27-5.989,3.214c-5.619,1.829-9.177-1.316-9.417-9.565
			c-0.239-8.249,3.003-14.288,8.425-15.821c6.073-1.717,7.721,4.153,7.803,9.051c0.017,0.99-0.049,1.788-0.077,2.294
			C1216.228,352.876,1213.623,353.671,1208.387,355.266z M1218.149,348.783c-0.022-3.083-0.998-7.096-4.799-6.004
			c-3.418,0.982-4.838,5.473-5.018,8.944C1212.301,350.54,1214.272,349.949,1218.149,348.783z"/>
		<path d="M1229.471,349.57c-0.955,4.938-1.428,7.512-2.385,11.314c-1.289,0.418-1.941,0.629-3.253,1.054
			c2.268-10.542,3.631-21.688,7.905-31.67c1.5-0.436,2.243-0.652,3.707-1.085c3.319,1.363,4.793,16.505,7.61,26.525
			c-1.161,0.376-1.752,0.567-2.953,0.956c-0.928-3.144-1.395-5.383-2.356-9.677C1234.543,347.993,1232.879,348.512,1229.471,349.57z
			 M1237.14,343.486c-0.895-3.911-1.353-5.91-2.291-8.821c-0.535-1.652-0.899-2.868-1.268-3.676
			c-0.028,0.008-0.042,0.013-0.071,0.021c-0.34,1.039-0.714,2.539-1.159,4.354c-0.91,3.477-1.364,5.773-2.271,10.296
			C1232.975,344.773,1234.391,344.338,1237.14,343.486z"/>
		<path d="M1258.653,338.837c-4.64,6.716-7.247,10.312-12.858,15.985c0.01-1.121,0.015-1.741,0.029-3.048
			c4.803-5.252,7.064-8.24,11.178-13.84c0.002-0.042,0.002-0.063,0.004-0.105c-3.791-2.946-6.033-4.376-10.933-6.136
			c0.011-1.165,0.013-1.703,0.019-2.632c5.815,1.371,8.455,3.087,12.693,6.717C1258.733,336.991,1258.706,337.608,1258.653,338.837z
			"/>
	</g>
</g>
<g>
	<g>
		<path fill="none" stroke="#000000" stroke-miterlimit="10" d="M1263.897,360.194c103.183,58.886,467.136,454.401,134.616,454.401"
			/>
		<g>
			<polygon points="1264.576,364.834 1264.963,360.83 1268.114,358.328 1258.634,357.387 			"/>
		</g>
	</g>
</g>
</svg>
