<?xml version="1.0" encoding="utf-8"?>
<!-- Generator: Adobe Illustrator 16.0.0, SVG Export Plug-In . SVG Version: 6.00 Build 0)  -->
<!DOCTYPE svg PUBLIC "-//W3C//DTD SVG 1.1//EN" "http://www.w3.org/Graphics/SVG/1.1/DTD/svg11.dtd">
<svg version="1.1" id="Layer_1" xmlns="http://www.w3.org/2000/svg" xmlns:xlink="http://www.w3.org/1999/xlink" x="0px" y="0px"
	 width="1920px" height="1080px" viewBox="0 0 1920 1080" enable-background="new 0 0 1920 1080" xml:space="preserve">
<rect x="1009.962" y="838.714" fill="#EDEDED" stroke="#000000" stroke-width="0.453" stroke-miterlimit="10" width="424.203" height="107.086"/>
<g>
	<g>
		<path d="M1041.999,879.702c-0.554,0-1.132-0.227-1.736-0.68c-0.453-0.453-0.705-1.057-0.755-1.812c0-1.359,0.83-2.189,2.491-2.492
			c1.258,0,2.089,0.831,2.492,2.492C1044.491,878.871,1043.66,879.702,1041.999,879.702z M1040.414,916.47v-31.182h3.096v31.182
			H1040.414z"/>
		<path d="M1071.143,916.47v-18.648c0-6.594-2.97-9.891-8.908-9.891c-2.92,0-5.135,0.856-6.645,2.567
			c-1.561,1.711-2.341,4.052-2.341,7.021v18.95h-3.095v-31.182h3.095v3.775c1.409-2.768,4.404-4.153,8.985-4.153
			c3.875,0,6.844,1.108,8.908,3.322c2.063,2.216,3.096,5.312,3.096,9.287v18.95H1071.143z"/>
		<path d="M1099.53,914.507c-2.014,1.712-4.43,2.566-7.248,2.566c-4.832,0-8.456-2.189-10.872-6.568l2.643-1.585
			c0.855,1.561,1.888,2.769,3.096,3.624c1.258,0.956,2.969,1.435,5.134,1.435c4.73,0,7.097-2.013,7.097-6.04
			c0-1.762-0.83-3.296-2.491-4.605c-0.504-0.303-1.221-0.643-2.151-1.02c-0.933-0.378-2.076-0.817-3.436-1.321
			c-2.518-0.906-4.329-1.813-5.437-2.718c-1.611-1.309-2.416-3.196-2.416-5.663c0-2.113,0.805-3.926,2.416-5.436
			c1.56-1.56,3.599-2.341,6.116-2.341c3.473,0,6.417,1.208,8.833,3.624l-2.265,1.963c-1.712-1.71-3.901-2.566-6.568-2.566
			c-3.624,0-5.437,1.585-5.437,4.756c0,1.41,0.554,2.567,1.661,3.474c0.906,0.705,2.341,1.385,4.304,2.038
			c1.711,0.604,3.12,1.17,4.228,1.699c1.107,0.528,1.938,0.994,2.492,1.396c2.163,1.661,3.246,3.901,3.246,6.72
			C1102.475,910.657,1101.493,912.846,1099.53,914.507z"/>
		<path d="M1113.874,888.384v28.086h-3.096v-28.086h-4.228v-3.096h4.228v-13.666h3.096v13.666h7.248v3.096H1113.874z"/>
		<path d="M1129.428,894.651c-0.555,0-1.132-0.227-1.736-0.68c-0.453-0.453-0.705-1.057-0.755-1.813c0-1.358,0.83-2.189,2.491-2.491
			c1.258,0,2.088,0.831,2.492,2.491C1131.92,893.82,1131.089,894.651,1129.428,894.651z M1129.428,916.923
			c-0.555,0-1.132-0.227-1.736-0.68c-0.453-0.453-0.705-1.057-0.755-1.812c0-1.359,0.83-2.189,2.491-2.492
			c1.258,0,2.088,0.831,2.492,2.492C1131.92,916.092,1131.089,916.923,1129.428,916.923z"/>
		<path d="M1167.63,912.318c-3.121,3.121-6.945,4.681-11.476,4.681c-5.185,0-9.464-2.114-12.835-6.342v20.461h-3.096v-45.829h3.096
			v5.889c3.221-4.228,7.499-6.342,12.835-6.342c4.53,0,8.33,1.536,11.4,4.605c3.12,3.122,4.681,6.946,4.681,11.477
			C1172.235,905.447,1170.7,909.249,1167.63,912.318z M1165.365,891.707c-2.567-2.567-5.638-3.851-9.211-3.851
			c-3.624,0-6.695,1.259-9.211,3.774c-2.567,2.567-3.851,5.663-3.851,9.287c0,3.574,1.283,6.644,3.851,9.211
			c2.566,2.566,5.637,3.851,9.211,3.851c3.624,0,6.693-1.258,9.211-3.775c2.567-2.567,3.851-5.662,3.851-9.286
			C1169.216,897.344,1167.933,894.273,1165.365,891.707z"/>
		<path d="M1193.828,889.894c-0.807-0.604-1.661-1.082-2.567-1.435c-0.906-0.352-1.863-0.528-2.869-0.528
			c-0.856,0-1.661,0.265-2.416,0.793s-1.41,1.183-1.963,1.963c-0.555,0.781-0.994,1.649-1.321,2.604
			c-0.328,0.957-0.491,1.838-0.491,2.643v20.536h-3.095v-31.182h3.095v4.228c0.654-1.157,1.511-2.214,2.567-3.171
			c1.057-0.955,2.214-1.435,3.473-1.435c1.56,0,2.844,0.178,3.851,0.529c1.007,0.353,2.139,0.981,3.397,1.887L1193.828,889.894z"/>
		<path d="M1222.972,912.318c-3.121,3.121-6.946,4.681-11.477,4.681c-4.529,0-8.33-1.534-11.4-4.605
			c-3.121-3.12-4.681-6.946-4.681-11.476c0-4.479,1.56-8.279,4.681-11.401c3.07-3.171,6.871-4.756,11.4-4.756
			c4.479,0,8.279,1.561,11.401,4.681c3.12,3.122,4.681,6.946,4.681,11.477C1227.577,905.447,1226.041,909.249,1222.972,912.318z
			 M1220.782,891.63c-2.518-2.566-5.613-3.851-9.287-3.851c-3.523,0-6.568,1.31-9.135,3.927c-2.618,2.617-3.927,5.688-3.927,9.211
			c0,3.574,1.284,6.644,3.851,9.211c2.567,2.566,5.637,3.851,9.211,3.851c3.624,0,6.694-1.258,9.212-3.775
			c2.566-2.567,3.851-5.662,3.851-9.286C1224.558,897.244,1223.299,894.148,1220.782,891.63z"/>
		<path d="M1262.381,916.47v-5.587c-3.321,4.077-7.55,6.115-12.684,6.115c-4.53,0-8.331-1.534-11.4-4.605
			c-3.122-3.12-4.682-6.946-4.682-11.476c0-4.53,1.535-8.33,4.605-11.401c3.121-3.12,6.946-4.681,11.477-4.681
			c4.983,0,9.211,2.039,12.684,6.115V860.6h3.096v55.87H1262.381z M1258.908,891.707c-2.567-2.567-5.638-3.851-9.211-3.851
			c-3.624,0-6.694,1.259-9.211,3.774c-2.567,2.567-3.851,5.663-3.851,9.287c0,3.574,1.283,6.644,3.851,9.211
			c2.566,2.566,5.637,3.851,9.211,3.851c3.624,0,6.693-1.258,9.211-3.775c2.567-2.567,3.851-5.662,3.851-9.286
			C1262.759,897.344,1261.476,894.273,1258.908,891.707z"/>
		<path d="M1312.061,916.47l-6.19-16.157h-24.538l-6.267,16.157h-3.02l21.518-55.644l21.593,55.644H1312.061z M1293.563,868.678
			l-11.023,28.539h22.046L1293.563,868.678z"/>
		<path d="M1348.604,912.091c-3.272,2.92-7.274,4.379-12.005,4.379h-16.836v-53.907h13.137c4.178,0,7.499,1.083,9.966,3.246
			c2.617,2.316,3.927,5.538,3.927,9.664c0,4.732-1.938,8.205-5.813,10.419c3.774,0.756,6.819,2.467,9.135,5.135
			c2.266,2.668,3.397,5.939,3.397,9.814C1353.511,905.473,1351.875,909.222,1348.604,912.091z M1340.676,868.376
			c-2.064-1.812-4.58-2.718-7.55-2.718h-10.344v19.63h10.797c2.919,0,5.335-0.906,7.248-2.718c1.912-1.813,2.869-4.178,2.869-7.098
			C1343.696,872.454,1342.688,870.088,1340.676,868.376z M1346.339,891.707c-2.567-2.215-5.789-3.322-9.664-3.322h-13.893v24.99
			h13.893c3.824,0,7.07-1.157,9.739-3.473c2.718-2.314,4.077-5.335,4.077-9.061C1350.491,897.067,1349.106,894.022,1346.339,891.707
			z"/>
		<path d="M1403.039,913.299c-2.819,2.064-6.645,3.322-11.477,3.774c-0.555,0.05-1.158,0.088-1.812,0.113
			c-0.655,0.025-1.335,0.038-2.039,0.038c-8.153,0-14.798-2.566-19.932-7.701c-5.185-5.184-7.776-11.854-7.776-20.008
			c0-8.153,2.566-14.798,7.7-19.932c5.184-5.184,11.854-7.776,20.008-7.776c4.631,0,8.808,0.68,12.533,2.038
			c2.215,0.856,4.354,2.09,6.418,3.7v3.851c-2.114-1.762-4.43-3.172-6.946-4.229c-3.826-1.56-7.827-2.341-12.005-2.341
			c-7.147,0-13.036,2.316-17.667,6.946c-4.631,4.632-6.946,10.545-6.946,17.742c0,7.199,2.29,13.088,6.871,17.668
			c4.63,4.631,10.544,6.945,17.742,6.945c4.479,0,8.381-0.805,11.703-2.416c1.912-0.955,4.328-2.491,7.248-4.605v3.549
			L1403.039,913.299z"/>
	</g>
</g>
<rect x="456.903" y="707.285" fill="#EDEDED" stroke="#000000" stroke-width="0.453" stroke-miterlimit="10" width="424.203" height="107.094"/>
<g>
	<g>
		<path d="M500.416,748.28c-0.554,0-1.132-0.227-1.736-0.68c-0.453-0.453-0.705-1.057-0.755-1.812c0-1.359,0.83-2.189,2.491-2.492
			c1.258,0,2.089,0.831,2.492,2.492C502.908,747.449,502.077,748.28,500.416,748.28z M498.831,785.048v-31.182h3.096v31.182H498.831
			z"/>
		<path d="M529.56,785.048V766.4c0-6.594-2.97-9.891-8.908-9.891c-2.92,0-5.135,0.856-6.645,2.567
			c-1.561,1.711-2.341,4.052-2.341,7.021v18.95h-3.095v-31.182h3.095v3.775c1.409-2.768,4.404-4.153,8.985-4.153
			c3.875,0,6.844,1.108,8.908,3.322c2.063,2.216,3.096,5.312,3.096,9.287v18.95H529.56z"/>
		<path d="M557.947,783.085c-2.014,1.712-4.43,2.566-7.248,2.566c-4.832,0-8.456-2.189-10.872-6.568l2.643-1.585
			c0.855,1.561,1.888,2.769,3.096,3.624c1.258,0.956,2.969,1.435,5.134,1.435c4.73,0,7.097-2.013,7.097-6.04
			c0-1.762-0.83-3.296-2.491-4.605c-0.504-0.303-1.221-0.643-2.151-1.02c-0.933-0.378-2.076-0.817-3.436-1.321
			c-2.518-0.906-4.329-1.813-5.437-2.718c-1.611-1.309-2.416-3.196-2.416-5.663c0-2.113,0.805-3.926,2.416-5.436
			c1.56-1.56,3.599-2.341,6.116-2.341c3.473,0,6.417,1.208,8.833,3.624L556.966,759c-1.712-1.71-3.901-2.566-6.568-2.566
			c-3.624,0-5.437,1.585-5.437,4.756c0,1.41,0.554,2.567,1.661,3.474c0.906,0.705,2.341,1.385,4.304,2.038
			c1.711,0.604,3.12,1.17,4.228,1.699c1.107,0.528,1.938,0.994,2.492,1.396c2.163,1.661,3.246,3.901,3.246,6.72
			C560.892,779.235,559.91,781.424,557.947,783.085z"/>
		<path d="M572.292,756.962v28.086h-3.096v-28.086h-4.228v-3.096h4.228v-13.666h3.096v13.666h7.248v3.096H572.292z"/>
		<path d="M587.845,763.229c-0.555,0-1.132-0.227-1.736-0.68c-0.453-0.453-0.705-1.057-0.755-1.813c0-1.358,0.83-2.189,2.491-2.491
			c1.258,0,2.088,0.831,2.492,2.491C590.337,762.398,589.506,763.229,587.845,763.229z M587.845,785.501
			c-0.555,0-1.132-0.227-1.736-0.68c-0.453-0.453-0.705-1.057-0.755-1.812c0-1.359,0.83-2.189,2.491-2.492
			c1.258,0,2.088,0.831,2.492,2.492C590.337,784.67,589.506,785.501,587.845,785.501z"/>
		<path d="M614.118,783.085c-2.014,1.712-4.43,2.566-7.248,2.566c-4.832,0-8.456-2.189-10.872-6.568l2.643-1.585
			c0.855,1.561,1.888,2.769,3.096,3.624c1.258,0.956,2.969,1.435,5.134,1.435c4.73,0,7.097-2.013,7.097-6.04
			c0-1.762-0.83-3.296-2.491-4.605c-0.504-0.303-1.221-0.643-2.151-1.02c-0.933-0.378-2.076-0.817-3.436-1.321
			c-2.518-0.906-4.329-1.813-5.437-2.718c-1.611-1.309-2.416-3.196-2.416-5.663c0-2.113,0.805-3.926,2.416-5.436
			c1.56-1.56,3.599-2.341,6.116-2.341c3.473,0,6.417,1.208,8.833,3.624L613.137,759c-1.712-1.71-3.901-2.566-6.568-2.566
			c-3.624,0-5.437,1.585-5.437,4.756c0,1.41,0.554,2.567,1.661,3.474c0.906,0.705,2.341,1.385,4.304,2.038
			c1.711,0.604,3.12,1.17,4.228,1.699c1.107,0.528,1.938,0.994,2.492,1.396c2.163,1.661,3.246,3.901,3.246,6.72
			C617.063,779.235,616.081,781.424,614.118,783.085z"/>
		<path d="M651.037,780.896c-3.121,3.121-6.945,4.681-11.476,4.681c-5.185,0-9.464-2.114-12.835-6.342v20.461h-3.096v-45.829h3.096
			v5.889c3.221-4.228,7.499-6.342,12.835-6.342c4.53,0,8.33,1.536,11.4,4.605c3.12,3.122,4.681,6.946,4.681,11.477
			C655.643,774.025,654.107,777.827,651.037,780.896z M648.772,760.285c-2.567-2.567-5.638-3.851-9.211-3.851
			c-3.624,0-6.695,1.259-9.211,3.774c-2.567,2.567-3.851,5.663-3.851,9.287c0,3.574,1.283,6.644,3.851,9.211
			c2.566,2.566,5.637,3.851,9.211,3.851c3.624,0,6.693-1.258,9.211-3.775c2.567-2.567,3.851-5.662,3.851-9.286
			C652.623,765.922,651.34,762.851,648.772,760.285z"/>
		<path d="M688.711,785.048v-5.36c-3.272,3.926-7.425,5.889-12.458,5.889c-4.529,0-8.33-1.534-11.4-4.605
			c-3.121-3.12-4.681-6.946-4.681-11.476c0-4.53,1.535-8.33,4.605-11.401c3.12-3.12,6.946-4.681,11.476-4.681
			c4.983,0,9.136,1.963,12.458,5.889v-5.436h3.096v31.182H688.711z M685.465,760.285c-2.567-2.567-5.638-3.851-9.212-3.851
			c-3.624,0-6.694,1.259-9.211,3.774c-2.566,2.567-3.851,5.663-3.851,9.287c0,3.574,1.284,6.644,3.851,9.211
			c2.567,2.566,5.637,3.851,9.211,3.851c3.624,0,6.694-1.258,9.212-3.775c2.566-2.567,3.851-5.662,3.851-9.286
			C689.315,765.922,688.031,762.851,685.465,760.285z"/>
		<path d="M715.74,785.652c-4.632,0-8.482-1.534-11.552-4.605c-3.071-3.069-4.605-6.92-4.605-11.551s1.534-8.481,4.605-11.552
			c3.069-3.069,6.92-4.605,11.552-4.605c3.976,0,7.146,0.906,9.513,2.718v3.699l-1.963-1.283l-2.114-1.133
			c-1.913-0.653-3.726-0.981-5.436-0.981c-3.877,0-7.022,1.208-9.438,3.624c-2.466,2.467-3.699,5.638-3.699,9.514
			c0,3.825,1.233,6.972,3.699,9.438c2.466,2.467,5.612,3.699,9.438,3.699c3.624,0,6.795-1.208,9.513-3.624v3.851
			C722.434,784.721,719.263,785.652,715.74,785.652z"/>
		<path d="M730.235,768.816c0,4.228,1.133,7.576,3.397,10.041c2.365,2.518,5.612,3.775,9.739,3.775c2.114,0,4.026-0.352,5.738-1.057
			c2.164-0.906,4.102-2.743,5.813-5.512l2.794,1.283c-1.963,3.726-4.983,6.242-9.061,7.55c-1.561,0.503-3.321,0.755-5.285,0.755
			c-4.681,0-8.531-1.534-11.551-4.605c-3.071-3.069-4.605-6.92-4.605-11.551c0-4.682,1.51-8.532,4.529-11.552
			c3.07-3.069,6.946-4.605,11.627-4.605c4.631,0,8.456,1.435,11.477,4.304c3.069,2.868,4.605,6.594,4.605,11.174H730.235z
			 M751.526,758.925c-2.366-1.711-5.084-2.567-8.154-2.567c-6.443,0-10.671,3.171-12.684,9.514h25.293
			C755.478,763.002,753.992,760.688,751.526,758.925z"/>
		<path d="M799.923,785.048l-6.19-16.157h-24.538l-6.267,16.157h-3.02l21.518-55.644l21.593,55.644H799.923z M781.426,737.256
			l-11.023,28.539h22.046L781.426,737.256z"/>
		<path d="M835.938,757.944c-0.453,0.555-1.133,1.372-2.038,2.454c-0.906,1.082-2.064,2.429-3.474,4.039l-15.478,17.516h25.821
			v3.096h-32.616l26.425-30.578c2.114-3.02,3.171-6.165,3.171-9.438c0-3.171-1.258-5.862-3.774-8.078
			c-2.518-2.163-5.437-3.246-8.758-3.246c-4.077,0-7.274,1.309-9.589,3.926c-1.41,1.561-2.392,3.499-2.944,5.813h-3.397
			c0.352-2.616,1.661-5.21,3.926-7.776c3.02-3.322,7.021-4.983,12.005-4.983c4.277,0,7.952,1.334,11.022,4.002
			c3.069,2.617,4.605,6.065,4.605,10.343C840.845,749.413,839.209,753.715,835.938,757.944z"/>
	</g>
</g>
<path fill="#EDEDED" stroke="#000000" stroke-width="0.453" stroke-miterlimit="10" d="M1434.165,239.832
	c0,15.945-12.969,28.906-28.938,28.906h-366.336c-15.977,0-28.93-12.961-28.93-28.906v-49.277c0-15.973,12.953-28.902,28.93-28.902
	h366.336c15.969,0,28.938,12.93,28.938,28.902V239.832z"/>
<g>
	<g>
		<path d="M1088.734,235.253c-3.121,3.121-6.945,4.681-11.476,4.681c-5.185,0-9.438-2.088-12.76-6.267v5.738h-3.096v-55.87h3.096
			v30.502c3.271-4.178,7.524-6.267,12.76-6.267c4.53,0,8.33,1.536,11.4,4.605c3.12,3.122,4.681,6.946,4.681,11.477
			C1093.34,228.382,1091.804,232.184,1088.734,235.253z M1086.47,214.642c-2.567-2.567-5.638-3.851-9.211-3.851
			c-3.624,0-6.695,1.259-9.211,3.774c-2.567,2.567-3.851,5.663-3.851,9.287c0,3.574,1.283,6.644,3.851,9.211
			c2.566,2.566,5.637,3.851,9.211,3.851c3.624,0,6.693-1.258,9.211-3.775c2.567-2.567,3.851-5.662,3.851-9.286
			C1090.32,220.28,1089.037,217.208,1086.47,214.642z"/>
		<path d="M1126.484,235.253c-3.121,3.121-6.946,4.681-11.477,4.681c-4.529,0-8.33-1.534-11.4-4.605
			c-3.121-3.12-4.681-6.946-4.681-11.476c0-4.479,1.56-8.279,4.681-11.401c3.07-3.171,6.871-4.756,11.4-4.756
			c4.479,0,8.279,1.561,11.401,4.681c3.12,3.122,4.681,6.946,4.681,11.477C1131.09,228.382,1129.554,232.184,1126.484,235.253z
			 M1124.295,214.566c-2.518-2.566-5.613-3.851-9.287-3.851c-3.523,0-6.568,1.31-9.135,3.927c-2.618,2.617-3.927,5.688-3.927,9.211
			c0,3.574,1.284,6.644,3.851,9.211c2.567,2.566,5.637,3.851,9.211,3.851c3.624,0,6.694-1.258,9.212-3.775
			c2.566-2.567,3.851-5.662,3.851-9.286C1128.07,220.179,1126.812,217.083,1124.295,214.566z"/>
		<path d="M1143.547,211.32v28.086h-3.096V211.32h-4.228v-3.096h4.228v-13.666h3.096v13.666h7.248v3.096H1143.547z"/>
		<path d="M1159.1,217.586c-0.555,0-1.132-0.227-1.736-0.68c-0.453-0.453-0.705-1.057-0.755-1.813c0-1.358,0.83-2.189,2.491-2.491
			c1.258,0,2.088,0.831,2.492,2.491C1161.592,216.755,1160.761,217.586,1159.1,217.586z M1159.1,239.859
			c-0.555,0-1.132-0.227-1.736-0.68c-0.453-0.453-0.705-1.057-0.755-1.812c0-1.359,0.83-2.189,2.491-2.492
			c1.258,0,2.088,0.831,2.492,2.492C1161.592,239.028,1160.761,239.859,1159.1,239.859z"/>
		<path d="M1170.424,239.406v-53.907h25.896v3.096h-22.801v19.63h22.801v3.322h-22.801v24.764h22.801v3.096H1170.424z"/>
		<path d="M1202.738,239.406v-55.87h3.021v55.87H1202.738z"/>
		<path d="M1217.007,223.173c0,4.228,1.133,7.576,3.397,10.041c2.365,2.518,5.612,3.775,9.739,3.775
			c2.114,0,4.026-0.352,5.738-1.057c2.164-0.906,4.102-2.743,5.813-5.512l2.794,1.283c-1.963,3.726-4.983,6.242-9.061,7.55
			c-1.561,0.503-3.321,0.755-5.285,0.755c-4.681,0-8.531-1.534-11.551-4.605c-3.071-3.069-4.605-6.92-4.605-11.551
			c0-4.682,1.51-8.532,4.529-11.552c3.07-3.069,6.946-4.605,11.627-4.605c4.631,0,8.456,1.435,11.477,4.304
			c3.069,2.868,4.605,6.594,4.605,11.174H1217.007z M1238.298,213.283c-2.366-1.711-5.084-2.567-8.154-2.567
			c-6.443,0-10.671,3.171-12.684,9.514h25.293C1242.249,217.36,1240.764,215.045,1238.298,213.283z"/>
		<path d="M1288.882,239.406v-21.518c0-1.912-0.63-3.573-1.887-4.983c-1.259-1.408-3.071-2.113-5.437-2.113
			c-4.883,0-7.323,2.366-7.323,7.097v21.518h-3.096v-21.518c0-2.114-0.705-3.8-2.114-5.059c-1.46-1.359-3.196-2.038-5.209-2.038
			c-2.064,0-3.801,0.654-5.21,1.963c-1.409,1.259-2.114,2.97-2.114,5.134v21.518h-3.095v-31.182h3.095v3.096
			c1.511-2.365,3.951-3.549,7.324-3.549c4.026,0,6.995,1.637,8.909,4.907c1.812-3.271,4.756-4.907,8.833-4.907
			c3.12,0,5.637,0.881,7.55,2.643c1.913,1.813,2.869,4.304,2.869,7.475v21.518H1288.882z"/>
		<path d="M1302.547,223.173c0,4.228,1.133,7.576,3.397,10.041c2.365,2.518,5.612,3.775,9.739,3.775
			c2.114,0,4.026-0.352,5.738-1.057c2.164-0.906,4.102-2.743,5.813-5.512l2.794,1.283c-1.963,3.726-4.983,6.242-9.061,7.55
			c-1.561,0.503-3.321,0.755-5.285,0.755c-4.681,0-8.531-1.534-11.551-4.605c-3.071-3.069-4.605-6.92-4.605-11.551
			c0-4.682,1.51-8.532,4.529-11.552c3.07-3.069,6.946-4.605,11.627-4.605c4.631,0,8.456,1.435,11.477,4.304
			c3.069,2.868,4.605,6.594,4.605,11.174H1302.547z M1323.838,213.283c-2.366-1.711-5.084-2.567-8.154-2.567
			c-6.443,0-10.671,3.171-12.684,9.514h25.293C1327.789,217.36,1326.304,215.045,1323.838,213.283z"/>
		<path d="M1359.927,239.406v-18.648c0-6.594-2.97-9.891-8.908-9.891c-2.92,0-5.135,0.856-6.645,2.567
			c-1.561,1.711-2.341,4.052-2.341,7.021v18.95h-3.095v-31.182h3.095V212c1.409-2.768,4.404-4.153,8.985-4.153
			c3.875,0,6.844,1.108,8.908,3.322c2.063,2.216,3.096,5.312,3.096,9.287v18.95H1359.927z"/>
		<path d="M1377.669,211.32v28.086h-3.096V211.32h-4.228v-3.096h4.228v-13.666h3.096v13.666h7.248v3.096H1377.669z"/>
	</g>
</g>
<path fill="#EDEDED" stroke="#000000" stroke-width="0.453" stroke-miterlimit="10" d="M803.244,239.832
	c0,15.945-12.969,28.906-28.934,28.906H476.355c-15.977,0-28.93-12.961-28.93-28.906v-49.277c0-15.973,12.953-28.902,28.93-28.902
	h297.955c15.965,0,28.934,12.93,28.934,28.902V239.832z"/>
<g>
	<g>
		<path d="M512.69,235.253c-3.121,3.121-6.945,4.681-11.476,4.681c-5.185,0-9.438-2.088-12.76-6.267v5.738h-3.096v-55.87h3.096
			v30.502c3.271-4.178,7.524-6.267,12.76-6.267c4.53,0,8.33,1.536,11.4,4.605c3.12,3.122,4.681,6.946,4.681,11.477
			C517.296,228.382,515.76,232.184,512.69,235.253z M510.426,214.642c-2.567-2.567-5.638-3.851-9.211-3.851
			c-3.624,0-6.695,1.259-9.211,3.774c-2.567,2.567-3.851,5.663-3.851,9.287c0,3.574,1.283,6.644,3.851,9.211
			c2.566,2.566,5.637,3.851,9.211,3.851c3.624,0,6.693-1.258,9.211-3.775c2.567-2.567,3.851-5.662,3.851-9.286
			C514.276,220.28,512.993,217.208,510.426,214.642z"/>
		<path d="M550.44,235.253c-3.121,3.121-6.946,4.681-11.477,4.681c-4.529,0-8.33-1.534-11.4-4.605
			c-3.121-3.12-4.681-6.946-4.681-11.476c0-4.479,1.56-8.279,4.681-11.401c3.07-3.171,6.871-4.756,11.4-4.756
			c4.479,0,8.279,1.561,11.401,4.681c3.12,3.122,4.681,6.946,4.681,11.477C555.046,228.382,553.51,232.184,550.44,235.253z
			 M548.251,214.566c-2.518-2.566-5.613-3.851-9.287-3.851c-3.523,0-6.568,1.31-9.135,3.927c-2.618,2.617-3.927,5.688-3.927,9.211
			c0,3.574,1.284,6.644,3.851,9.211c2.567,2.566,5.637,3.851,9.211,3.851c3.624,0,6.694-1.258,9.212-3.775
			c2.566-2.567,3.851-5.662,3.851-9.286C552.026,220.179,550.768,217.083,548.251,214.566z"/>
		<path d="M567.503,211.32v28.086h-3.096V211.32h-4.228v-3.096h4.228v-13.666h3.096v13.666h7.248v3.096H567.503z"/>
		<path d="M583.056,217.586c-0.555,0-1.132-0.227-1.736-0.68c-0.453-0.453-0.705-1.057-0.755-1.813c0-1.358,0.83-2.189,2.491-2.491
			c1.258,0,2.088,0.831,2.492,2.491C585.548,216.755,584.717,217.586,583.056,217.586z M583.056,239.859
			c-0.555,0-1.132-0.227-1.736-0.68c-0.453-0.453-0.705-1.057-0.755-1.812c0-1.359,0.83-2.189,2.491-2.492
			c1.258,0,2.088,0.831,2.492,2.492C585.548,239.028,584.717,239.859,583.056,239.859z"/>
		<path d="M614.916,238.953c-1.963,0.704-4.278,1.057-6.946,1.057c-8.255,0-13.564-3.899-15.931-11.702l3.096-1.057
			c1.762,6.443,6.04,9.664,12.835,9.664c3.876,0,6.921-0.956,9.136-2.869c2.266-1.963,3.397-4.832,3.397-8.607
			c0-3.573-1.334-6.542-4.001-8.909c-0.706-0.653-1.787-1.384-3.247-2.189c-1.46-0.805-3.321-1.71-5.587-2.718
			c-4.278-1.912-7.198-3.573-8.758-4.983c-2.618-2.265-3.926-5.259-3.926-8.984c0-3.724,1.333-6.72,4.001-8.984
			c2.617-2.314,5.839-3.473,9.664-3.473c6.342,0,10.821,2.366,13.439,7.097l-2.944,1.283c-1.008-1.66-2.216-2.894-3.624-3.699
			c-1.763-1.106-4.053-1.661-6.871-1.661c-2.971,0-5.436,0.831-7.398,2.492c-2.114,1.762-3.172,4.076-3.172,6.945
			c0,2.567,1.107,4.808,3.322,6.72c1.258,1.008,3.775,2.366,7.55,4.077c2.366,1.057,4.404,2.103,6.116,3.133
			c1.71,1.032,3.096,2.076,4.152,3.134c2.919,2.869,4.379,6.443,4.379,10.721C623.599,232.284,620.704,236.79,614.916,238.953z"/>
		<path d="M658.856,235.253c-3.121,3.121-6.945,4.681-11.476,4.681c-5.185,0-9.464-2.114-12.835-6.342v20.461h-3.096v-45.829h3.096
			v5.889c3.221-4.228,7.499-6.342,12.835-6.342c4.53,0,8.33,1.536,11.4,4.605c3.12,3.122,4.681,6.946,4.681,11.477
			C663.462,228.382,661.927,232.184,658.856,235.253z M656.592,214.642c-2.567-2.567-5.638-3.851-9.211-3.851
			c-3.624,0-6.695,1.259-9.211,3.774c-2.567,2.567-3.851,5.663-3.851,9.287c0,3.574,1.283,6.644,3.851,9.211
			c2.566,2.566,5.637,3.851,9.211,3.851c3.624,0,6.693-1.258,9.211-3.775c2.567-2.567,3.851-5.662,3.851-9.286
			C660.442,220.28,659.159,217.208,656.592,214.642z"/>
		<path d="M696.53,239.406v-5.36c-3.272,3.926-7.425,5.889-12.458,5.889c-4.529,0-8.33-1.534-11.4-4.605
			c-3.121-3.12-4.681-6.946-4.681-11.476c0-4.53,1.535-8.33,4.605-11.401c3.12-3.12,6.946-4.681,11.476-4.681
			c4.983,0,9.136,1.963,12.458,5.889v-5.436h3.096v31.182H696.53z M693.284,214.642c-2.567-2.567-5.638-3.851-9.212-3.851
			c-3.624,0-6.694,1.259-9.211,3.774c-2.566,2.567-3.851,5.663-3.851,9.287c0,3.574,1.284,6.644,3.851,9.211
			c2.567,2.566,5.637,3.851,9.211,3.851c3.624,0,6.694-1.258,9.212-3.775c2.566-2.567,3.851-5.662,3.851-9.286
			C697.135,220.28,695.851,217.208,693.284,214.642z"/>
		<path d="M723.56,240.009c-4.632,0-8.482-1.534-11.552-4.605c-3.071-3.069-4.605-6.92-4.605-11.551s1.534-8.481,4.605-11.552
			c3.069-3.069,6.92-4.605,11.552-4.605c3.976,0,7.146,0.906,9.513,2.718v3.699l-1.963-1.283l-2.114-1.133
			c-1.913-0.653-3.726-0.981-5.436-0.981c-3.877,0-7.022,1.208-9.438,3.624c-2.466,2.467-3.699,5.638-3.699,9.514
			c0,3.825,1.233,6.972,3.699,9.438c2.466,2.467,5.612,3.699,9.438,3.699c3.624,0,6.795-1.208,9.513-3.624v3.851
			C730.253,239.079,727.082,240.009,723.56,240.009z"/>
		<path d="M738.055,223.173c0,4.228,1.133,7.576,3.397,10.041c2.365,2.518,5.612,3.775,9.739,3.775c2.114,0,4.026-0.352,5.738-1.057
			c2.164-0.906,4.102-2.743,5.813-5.512l2.794,1.283c-1.963,3.726-4.983,6.242-9.061,7.55c-1.561,0.503-3.321,0.755-5.285,0.755
			c-4.681,0-8.531-1.534-11.551-4.605c-3.071-3.069-4.605-6.92-4.605-11.551c0-4.682,1.51-8.532,4.529-11.552
			c3.07-3.069,6.946-4.605,11.627-4.605c4.631,0,8.456,1.435,11.477,4.304c3.069,2.868,4.605,6.594,4.605,11.174H738.055z
			 M759.346,213.283c-2.366-1.711-5.084-2.567-8.154-2.567c-6.443,0-10.671,3.171-12.684,9.514h25.293
			C763.297,217.36,761.812,215.045,759.346,213.283z"/>
	</g>
</g>
<path fill="#EDEDED" stroke="#000000" stroke-width="0.453" stroke-miterlimit="10" d="M1434.165,480.675
	c0,15.945-12.969,28.906-28.938,28.906H850.146c-15.977,0-28.93-12.961-28.93-28.906v-49.277c0-15.973,12.953-28.902,28.93-28.902
	h555.082c15.969,0,28.938,12.93,28.938,28.902V480.675z"/>
<g>
	<g>
		<path d="M876.277,476.099c-3.121,3.121-6.945,4.681-11.476,4.681c-5.185,0-9.464-2.114-12.835-6.342v20.461h-3.096V449.07h3.096
			v5.889c3.221-4.228,7.499-6.342,12.835-6.342c4.53,0,8.33,1.536,11.4,4.605c3.12,3.122,4.681,6.946,4.681,11.477
			C880.883,469.228,879.348,473.03,876.277,476.099z M874.013,455.488c-2.567-2.567-5.638-3.851-9.211-3.851
			c-3.624,0-6.695,1.259-9.211,3.774c-2.567,2.567-3.851,5.663-3.851,9.287c0,3.574,1.283,6.644,3.851,9.211
			c2.566,2.566,5.637,3.851,9.211,3.851c3.624,0,6.693-1.258,9.211-3.775c2.567-2.567,3.851-5.662,3.851-9.286
			C877.863,461.125,876.58,458.054,874.013,455.488z"/>
		<path d="M902.476,453.675c-0.807-0.604-1.661-1.082-2.567-1.435c-0.906-0.352-1.863-0.528-2.869-0.528
			c-0.856,0-1.661,0.265-2.416,0.793s-1.41,1.183-1.963,1.963c-0.555,0.781-0.994,1.649-1.321,2.604
			c-0.328,0.957-0.491,1.838-0.491,2.643v20.536h-3.095V449.07h3.095v4.228c0.654-1.157,1.511-2.214,2.567-3.171
			c1.057-0.955,2.214-1.435,3.473-1.435c1.56,0,2.844,0.178,3.851,0.529c1.007,0.353,2.139,0.981,3.397,1.887L902.476,453.675z"/>
		<path d="M931.619,476.099c-3.121,3.121-6.946,4.681-11.477,4.681c-4.529,0-8.33-1.534-11.4-4.605
			c-3.121-3.12-4.681-6.946-4.681-11.476c0-4.479,1.56-8.279,4.681-11.401c3.07-3.171,6.871-4.756,11.4-4.756
			c4.479,0,8.279,1.561,11.401,4.681c3.12,3.122,4.681,6.946,4.681,11.477C936.225,469.228,934.688,473.03,931.619,476.099z
			 M929.43,455.412c-2.518-2.566-5.613-3.851-9.287-3.851c-3.523,0-6.568,1.31-9.135,3.927c-2.618,2.617-3.927,5.688-3.927,9.211
			c0,3.574,1.284,6.644,3.851,9.211c2.567,2.566,5.637,3.851,9.211,3.851c3.624,0,6.694-1.258,9.212-3.775
			c2.566-2.567,3.851-5.662,3.851-9.286C933.205,461.025,931.946,457.929,929.43,455.412z"/>
		<path d="M971.028,480.251v-5.587c-3.321,4.077-7.55,6.115-12.684,6.115c-4.53,0-8.331-1.534-11.4-4.605
			c-3.122-3.12-4.682-6.946-4.682-11.476c0-4.53,1.535-8.33,4.605-11.401c3.121-3.12,6.946-4.681,11.477-4.681
			c4.983,0,9.211,2.039,12.684,6.115v-30.351h3.096v55.87H971.028z M967.556,455.488c-2.567-2.567-5.638-3.851-9.211-3.851
			c-3.624,0-6.694,1.259-9.211,3.774c-2.567,2.567-3.851,5.663-3.851,9.287c0,3.574,1.283,6.644,3.851,9.211
			c2.566,2.566,5.637,3.851,9.211,3.851c3.624,0,6.693-1.258,9.211-3.775c2.567-2.567,3.851-5.662,3.851-9.286
			C971.406,461.125,970.123,458.054,967.556,455.488z"/>
		<path d="M1003.192,477.534c-2.064,2.215-4.958,3.321-8.683,3.321c-3.675,0-6.52-1.081-8.531-3.246
			c-2.015-2.163-3.021-5.184-3.021-9.06V449.07h3.096v19.479c0,2.97,0.653,5.26,1.963,6.87c1.359,1.611,3.522,2.416,6.493,2.416
			c5.787,0,8.683-3.096,8.683-9.286V449.07h3.02v19.479C1006.212,472.375,1005.205,475.37,1003.192,477.534z"/>
		<path d="M1030.447,480.855c-4.632,0-8.482-1.534-11.552-4.605c-3.071-3.069-4.605-6.92-4.605-11.551s1.534-8.481,4.605-11.552
			c3.069-3.069,6.92-4.605,11.552-4.605c3.976,0,7.146,0.906,9.513,2.718v3.699l-1.963-1.283l-2.114-1.133
			c-1.913-0.653-3.726-0.981-5.436-0.981c-3.877,0-7.022,1.208-9.438,3.624c-2.466,2.467-3.699,5.638-3.699,9.514
			c0,3.825,1.233,6.972,3.699,9.438c2.466,2.467,5.612,3.699,9.438,3.699c3.624,0,6.795-1.208,9.513-3.624v3.851
			C1037.141,479.924,1033.97,480.855,1030.447,480.855z"/>
		<path d="M1053.474,452.166v28.086h-3.096v-28.086h-4.228v-3.096h4.228v-13.666h3.096v13.666h7.248v3.096H1053.474z"/>
		<path d="M1069.026,458.432c-0.555,0-1.132-0.227-1.736-0.68c-0.453-0.453-0.705-1.057-0.755-1.813c0-1.358,0.83-2.189,2.491-2.491
			c1.258,0,2.088,0.831,2.492,2.491C1071.519,457.601,1070.688,458.432,1069.026,458.432z M1069.026,480.705
			c-0.555,0-1.132-0.227-1.736-0.68c-0.453-0.453-0.705-1.057-0.755-1.812c0-1.359,0.83-2.189,2.491-2.492
			c1.258,0,2.088,0.831,2.492,2.492C1071.519,479.874,1070.688,480.705,1069.026,480.705z"/>
		<path d="M1106.7,480.251l-17.139-26.954h-5.813v26.954h-3.02v-53.907h12.457c2.013,0,3.927,0.29,5.738,0.868
			c1.813,0.579,3.371,1.435,4.681,2.567c1.309,1.132,2.353,2.529,3.134,4.19c0.779,1.66,1.17,3.574,1.17,5.737
			c0,2.367-0.365,4.405-1.095,6.116c-0.73,1.711-1.763,3.121-3.096,4.228c-1.334,1.107-2.906,1.926-4.719,2.454
			c-1.812,0.528-3.801,0.792-5.964,0.792l17.289,26.954H1106.7z M1103.831,435.14c-0.604-1.283-1.435-2.341-2.491-3.171
			c-1.057-0.831-2.291-1.46-3.699-1.888c-1.41-0.427-2.92-0.642-4.53-0.642h-9.362v20.763h10.192c3.221,0,5.826-0.906,7.814-2.719
			c1.988-1.812,2.982-4.428,2.982-7.852C1104.737,437.921,1104.436,436.423,1103.831,435.14z"/>
		<path d="M1114.478,464.019c0,4.228,1.133,7.576,3.397,10.041c2.365,2.518,5.612,3.775,9.739,3.775
			c2.114,0,4.026-0.352,5.738-1.057c2.164-0.906,4.102-2.743,5.813-5.512l2.794,1.283c-1.963,3.726-4.983,6.242-9.061,7.55
			c-1.561,0.503-3.321,0.755-5.285,0.755c-4.681,0-8.531-1.534-11.551-4.605c-3.071-3.069-4.605-6.92-4.605-11.551
			c0-4.682,1.51-8.532,4.529-11.552c3.07-3.069,6.946-4.605,11.627-4.605c4.631,0,8.456,1.435,11.477,4.304
			c3.069,2.868,4.605,6.594,4.605,11.174H1114.478z M1135.769,454.128c-2.366-1.711-5.084-2.567-8.154-2.567
			c-6.443,0-10.671,3.171-12.684,9.514h25.293C1139.72,458.206,1138.234,455.891,1135.769,454.128z"/>
		<path d="M1158.268,427.477l-2.039-0.227c-2.819,0-4.228,1.661-4.228,4.982v16.837h7.398v3.096h-7.398v28.086h-3.096v-28.086
			h-4.229v-3.096h4.229v-17.742c0-4.781,2.416-7.173,7.248-7.173c1.106,0,1.812,0.051,2.114,0.151c0.604,0,1.283,0.177,2.038,0.528
			v3.096L1158.268,427.477z"/>
		<path d="M1181.598,453.675c-0.807-0.604-1.661-1.082-2.567-1.435c-0.906-0.352-1.863-0.528-2.869-0.528
			c-0.856,0-1.661,0.265-2.416,0.793s-1.41,1.183-1.963,1.963c-0.555,0.781-0.994,1.649-1.321,2.604
			c-0.328,0.957-0.491,1.838-0.491,2.643v20.536h-3.095V449.07h3.095v4.228c0.654-1.157,1.511-2.214,2.567-3.171
			c1.057-0.955,2.214-1.435,3.473-1.435c1.56,0,2.844,0.178,3.851,0.529c1.007,0.353,2.139,0.981,3.397,1.887L1181.598,453.675z"/>
		<path d="M1192.393,443.483c-0.554,0-1.132-0.227-1.736-0.68c-0.453-0.453-0.705-1.057-0.755-1.812c0-1.359,0.83-2.189,2.491-2.492
			c1.258,0,2.089,0.831,2.492,2.492C1194.885,442.652,1194.054,443.483,1192.393,443.483z M1190.808,480.251V449.07h3.096v31.182
			H1190.808z"/>
		<path d="M1229.236,490.67c-2.819,2.818-6.519,4.229-11.099,4.229c-8.507,0-13.59-3.349-15.251-10.042h3.096
			c0.554,2.466,2.139,4.304,4.757,5.512c2.063,0.955,4.53,1.435,7.398,1.435c3.876,0,6.871-1.083,8.985-3.247
			c2.163-2.164,3.246-5.185,3.246-9.06v-4.605c-3.272,3.926-7.425,5.889-12.458,5.889c-4.529,0-8.33-1.534-11.4-4.605
			c-3.121-3.12-4.681-6.946-4.681-11.476c0-4.53,1.535-8.33,4.605-11.401c3.12-3.12,6.946-4.681,11.476-4.681
			c4.983,0,9.136,1.963,12.458,5.889v-5.436h3.096v30.502C1233.465,484.152,1232.055,487.851,1229.236,490.67z M1227.123,455.488
			c-2.567-2.567-5.638-3.851-9.212-3.851c-3.624,0-6.694,1.259-9.211,3.774c-2.566,2.567-3.851,5.663-3.851,9.287
			c0,3.574,1.284,6.644,3.851,9.211c2.567,2.566,5.637,3.851,9.211,3.851c3.624,0,6.694-1.258,9.212-3.775
			c2.566-2.567,3.851-5.662,3.851-9.286C1230.974,461.125,1229.689,458.054,1227.123,455.488z"/>
		<path d="M1243.279,464.019c0,4.228,1.133,7.576,3.397,10.041c2.365,2.518,5.612,3.775,9.739,3.775
			c2.114,0,4.026-0.352,5.738-1.057c2.164-0.906,4.102-2.743,5.813-5.512l2.794,1.283c-1.963,3.726-4.983,6.242-9.061,7.55
			c-1.561,0.503-3.321,0.755-5.285,0.755c-4.681,0-8.531-1.534-11.551-4.605c-3.071-3.069-4.605-6.92-4.605-11.551
			c0-4.682,1.51-8.532,4.529-11.552c3.07-3.069,6.946-4.605,11.627-4.605c4.631,0,8.456,1.435,11.477,4.304
			c3.069,2.868,4.605,6.594,4.605,11.174H1243.279z M1264.57,454.128c-2.366-1.711-5.084-2.567-8.154-2.567
			c-6.443,0-10.671,3.171-12.684,9.514h25.293C1268.521,458.206,1267.036,455.891,1264.57,454.128z"/>
		<path d="M1294.393,453.675c-0.807-0.604-1.661-1.082-2.567-1.435c-0.906-0.352-1.863-0.528-2.869-0.528
			c-0.856,0-1.661,0.265-2.416,0.793s-1.41,1.183-1.963,1.963c-0.555,0.781-0.994,1.649-1.321,2.604
			c-0.328,0.957-0.491,1.838-0.491,2.643v20.536h-3.095V449.07h3.095v4.228c0.654-1.157,1.511-2.214,2.567-3.171
			c1.057-0.955,2.214-1.435,3.473-1.435c1.56,0,2.844,0.178,3.851,0.529c1.007,0.353,2.139,0.981,3.397,1.887L1294.393,453.675z"/>
		<path d="M1327.765,480.251v-5.36c-3.272,3.926-7.425,5.889-12.458,5.889c-4.529,0-8.33-1.534-11.4-4.605
			c-3.121-3.12-4.681-6.946-4.681-11.476c0-4.53,1.535-8.33,4.605-11.401c3.12-3.12,6.946-4.681,11.476-4.681
			c4.983,0,9.136,1.963,12.458,5.889v-5.436h3.096v31.182H1327.765z M1324.519,455.488c-2.567-2.567-5.638-3.851-9.212-3.851
			c-3.624,0-6.694,1.259-9.211,3.774c-2.566,2.567-3.851,5.663-3.851,9.287c0,3.574,1.284,6.644,3.851,9.211
			c2.567,2.566,5.637,3.851,9.211,3.851c3.624,0,6.694-1.258,9.212-3.775c2.566-2.567,3.851-5.662,3.851-9.286
			C1328.369,461.125,1327.085,458.054,1324.519,455.488z"/>
		<path d="M1344.751,452.166v28.086h-3.096v-28.086h-4.228v-3.096h4.228v-13.666h3.096v13.666h7.248v3.096H1344.751z"/>
		<path d="M1380.539,476.099c-3.121,3.121-6.946,4.681-11.477,4.681c-4.529,0-8.33-1.534-11.4-4.605
			c-3.121-3.12-4.681-6.946-4.681-11.476c0-4.479,1.56-8.279,4.681-11.401c3.07-3.171,6.871-4.756,11.4-4.756
			c4.479,0,8.279,1.561,11.401,4.681c3.12,3.122,4.681,6.946,4.681,11.477C1385.145,469.228,1383.608,473.03,1380.539,476.099z
			 M1378.35,455.412c-2.518-2.566-5.613-3.851-9.287-3.851c-3.523,0-6.568,1.31-9.135,3.927c-2.618,2.617-3.927,5.688-3.927,9.211
			c0,3.574,1.284,6.644,3.851,9.211c2.567,2.566,5.637,3.851,9.211,3.851c3.624,0,6.694-1.258,9.212-3.775
			c2.566-2.567,3.851-5.662,3.851-9.286C1382.125,461.025,1380.866,457.929,1378.35,455.412z"/>
		<path d="M1407.644,453.675c-0.807-0.604-1.661-1.082-2.567-1.435c-0.906-0.352-1.863-0.528-2.869-0.528
			c-0.856,0-1.661,0.265-2.416,0.793s-1.41,1.183-1.963,1.963c-0.555,0.781-0.994,1.649-1.321,2.604
			c-0.328,0.957-0.491,1.838-0.491,2.643v20.536h-3.095V449.07h3.095v4.228c0.654-1.157,1.511-2.214,2.567-3.171
			c1.057-0.955,2.214-1.435,3.473-1.435c1.56,0,2.844,0.178,3.851,0.529c1.007,0.353,2.139,0.981,3.397,1.887L1407.644,453.675z"/>
	</g>
</g>
<g>
	<g>
		<path d="M1270.574,787.221c-0.483-0.362-0.996-0.648-1.54-0.86c-0.544-0.211-1.117-0.317-1.722-0.317
			c-0.514,0-0.996,0.159-1.449,0.476c-0.453,0.317-0.846,0.71-1.178,1.179c-0.333,0.468-0.597,0.989-0.793,1.563
			c-0.196,0.574-0.294,1.103-0.294,1.585v12.322h-1.857v-18.709h1.857v2.536c0.392-0.694,0.905-1.328,1.54-1.902
			c0.634-0.573,1.328-0.86,2.084-0.86c0.936,0,1.705,0.106,2.31,0.317s1.283,0.589,2.039,1.132L1270.574,787.221z"/>
		<path d="M1290.732,803.167v-3.353c-1.993,2.446-4.529,3.67-7.61,3.67c-2.718,0-4.998-0.921-6.84-2.764
			c-1.873-1.872-2.809-4.168-2.809-6.886s0.921-4.998,2.763-6.841c1.872-1.872,4.168-2.809,6.886-2.809
			c2.99,0,5.527,1.224,7.61,3.67v-18.211h1.857v33.522H1290.732z M1288.649,788.309c-1.541-1.54-3.383-2.311-5.527-2.311
			c-2.174,0-4.017,0.755-5.526,2.265c-1.54,1.541-2.311,3.397-2.311,5.572c0,2.145,0.771,3.986,2.311,5.526
			c1.54,1.541,3.382,2.311,5.526,2.311c2.175,0,4.017-0.754,5.527-2.265c1.54-1.54,2.31-3.397,2.31-5.572
			C1290.959,791.692,1290.189,789.849,1288.649,788.309z"/>
		<path d="M1305.229,771.502l-1.224-0.136c-1.691,0-2.537,0.996-2.537,2.989v10.103h4.439v1.857h-4.439v16.852h-1.857v-16.852
			h-2.536v-1.857h2.536v-10.646c0-2.869,1.45-4.304,4.35-4.304c0.664,0,1.087,0.03,1.269,0.091c0.362,0,0.77,0.105,1.223,0.316
			v1.857L1305.229,771.502z"/>
		<path d="M1311.209,790.076c-0.333,0-0.68-0.136-1.042-0.408c-0.272-0.271-0.424-0.634-0.453-1.087
			c0-0.815,0.498-1.313,1.495-1.495c0.754,0,1.253,0.499,1.494,1.495C1312.703,789.578,1312.205,790.076,1311.209,790.076z
			 M1311.209,803.439c-0.333,0-0.68-0.136-1.042-0.407c-0.272-0.271-0.424-0.635-0.453-1.087c0-0.815,0.498-1.314,1.495-1.495
			c0.754,0,1.253,0.498,1.494,1.495C1312.703,802.941,1312.205,803.439,1311.209,803.439z"/>
		<path d="M1320.586,786.316v16.852h-1.857v-16.852h-2.537v-1.857h2.537v-8.199h1.857v8.199h4.349v1.857H1320.586z"/>
		<path d="M1332.5,811.956h-2.084l4.847-10.51l-7.882-16.987h1.993l6.977,14.768l6.886-14.768h2.038L1332.5,811.956z"/>
		<path d="M1365.614,800.676c-1.873,1.873-4.168,2.809-6.886,2.809c-3.111,0-5.679-1.269-7.701-3.806v12.276h-1.857v-27.497h1.857
			v3.533c1.932-2.537,4.499-3.806,7.701-3.806c2.718,0,4.998,0.922,6.84,2.764c1.872,1.873,2.809,4.168,2.809,6.886
			S1367.456,798.834,1365.614,800.676z M1364.255,788.309c-1.54-1.54-3.383-2.311-5.526-2.311c-2.175,0-4.018,0.755-5.527,2.265
			c-1.54,1.541-2.31,3.397-2.31,5.572c0,2.145,0.77,3.986,2.31,5.526c1.541,1.541,3.383,2.311,5.527,2.311
			c2.174,0,4.016-0.754,5.526-2.265c1.54-1.54,2.311-3.397,2.311-5.572C1366.565,791.692,1365.795,789.849,1364.255,788.309z"/>
		<path d="M1372.862,793.428c0,2.536,0.68,4.545,2.038,6.024c1.419,1.511,3.367,2.266,5.844,2.266c1.269,0,2.416-0.211,3.443-0.635
			c1.298-0.544,2.461-1.646,3.488-3.307l1.676,0.77c-1.178,2.235-2.99,3.745-5.437,4.53c-0.937,0.302-1.993,0.453-3.171,0.453
			c-2.809,0-5.119-0.921-6.931-2.764c-1.843-1.842-2.764-4.151-2.764-6.931c0-2.809,0.906-5.119,2.718-6.931
			c1.842-1.842,4.168-2.764,6.977-2.764c2.778,0,5.074,0.86,6.886,2.582c1.842,1.722,2.764,3.957,2.764,6.705H1372.862z
			 M1385.637,787.494c-1.42-1.026-3.051-1.54-4.893-1.54c-3.866,0-6.402,1.902-7.61,5.707h15.176
			C1388.008,789.94,1387.116,788.551,1385.637,787.494z"/>
	</g>
</g>
<g>
	<g>
		<path d="M486.821,622.134l-3.715-9.694h-14.723l-3.76,9.694h-1.813l12.911-33.387l12.956,33.387H486.821z M475.723,593.458
			l-6.614,17.124h13.228L475.723,593.458z"/>
		<path d="M508.747,619.506c-1.964,1.752-4.365,2.628-7.203,2.628h-10.103V589.79h7.883c2.507,0,4.5,0.649,5.979,1.948
			c1.57,1.389,2.355,3.322,2.355,5.798c0,2.84-1.162,4.923-3.487,6.252c2.265,0.453,4.092,1.479,5.48,3.08
			c1.359,1.602,2.039,3.564,2.039,5.89C511.691,615.536,510.71,617.786,508.747,619.506z M503.99,593.278
			c-1.238-1.087-2.748-1.631-4.53-1.631h-6.206v11.778h6.478c1.752,0,3.201-0.544,4.35-1.631c1.147-1.088,1.721-2.507,1.721-4.259
			C505.802,595.724,505.197,594.305,503.99,593.278z M507.388,607.276c-1.54-1.329-3.474-1.993-5.799-1.993h-8.335v14.994h8.335
			c2.295,0,4.243-0.694,5.844-2.084c1.631-1.389,2.446-3.2,2.446-5.436C509.879,610.492,509.048,608.666,507.388,607.276z"/>
		<path d="M531.441,619.643c-1.873,1.873-4.168,2.809-6.886,2.809s-4.998-0.921-6.84-2.764c-1.873-1.872-2.809-4.168-2.809-6.886
			c0-2.688,0.936-4.968,2.809-6.841c1.842-1.902,4.122-2.854,6.84-2.854c2.688,0,4.968,0.937,6.841,2.809
			c1.872,1.873,2.809,4.168,2.809,6.886S533.283,617.801,531.441,619.643z M530.128,607.23c-1.511-1.54-3.368-2.31-5.572-2.31
			c-2.114,0-3.941,0.785-5.481,2.355c-1.57,1.57-2.355,3.413-2.355,5.526c0,2.145,0.771,3.986,2.311,5.526
			c1.54,1.541,3.382,2.311,5.526,2.311c2.175,0,4.017-0.754,5.527-2.265c1.54-1.54,2.31-3.397,2.31-5.572
			C532.393,610.598,531.638,608.741,530.128,607.23z"/>
		<path d="M547.07,622.134l-5.3-7.837l-5.301,7.837h-2.22l6.388-9.423l-6.252-9.286h2.175l5.21,7.746l5.164-7.746h2.174
			l-6.206,9.241l6.343,9.468H547.07z"/>
	</g>
</g>
<g>
	<g>
		<path d="M472.461,529.211v30.487h-1.857v-30.487h-7.158v-1.857h16.173v1.857H472.461z"/>
		<path d="M499.596,557.071c-1.964,1.752-4.365,2.628-7.203,2.628H482.29v-32.345h7.883c2.507,0,4.5,0.649,5.979,1.948
			c1.57,1.389,2.355,3.322,2.355,5.798c0,2.84-1.162,4.923-3.487,6.252c2.265,0.453,4.092,1.479,5.48,3.08
			c1.359,1.602,2.039,3.564,2.039,5.89C502.54,553.1,501.559,555.35,499.596,557.071z M494.839,530.842
			c-1.238-1.087-2.748-1.631-4.53-1.631h-6.206v11.778h6.478c1.752,0,3.201-0.544,4.35-1.631c1.147-1.088,1.721-2.507,1.721-4.259
			C496.65,533.289,496.046,531.87,494.839,530.842z M498.236,544.84c-1.54-1.329-3.474-1.993-5.799-1.993h-8.335v14.994h8.335
			c2.295,0,4.243-0.694,5.844-2.084c1.631-1.389,2.446-3.2,2.446-5.436C500.728,548.056,499.896,546.23,498.236,544.84z"/>
		<path d="M522.291,557.208c-1.873,1.873-4.168,2.809-6.886,2.809s-4.998-0.921-6.84-2.764c-1.873-1.872-2.809-4.168-2.809-6.886
			c0-2.688,0.936-4.968,2.809-6.841c1.842-1.902,4.122-2.854,6.84-2.854c2.688,0,4.968,0.937,6.841,2.809
			c1.872,1.873,2.809,4.168,2.809,6.886S524.133,555.366,522.291,557.208z M520.978,544.794c-1.511-1.54-3.368-2.31-5.572-2.31
			c-2.114,0-3.941,0.785-5.481,2.355c-1.57,1.57-2.355,3.413-2.355,5.526c0,2.145,0.771,3.986,2.311,5.526
			c1.54,1.541,3.382,2.311,5.526,2.311c2.175,0,4.017-0.754,5.527-2.265c1.54-1.54,2.31-3.397,2.31-5.572
			C523.242,548.163,522.487,546.305,520.978,544.794z"/>
		<path d="M537.92,559.699l-5.3-7.837l-5.301,7.837h-2.22l6.388-9.423l-6.252-9.286h2.175l5.21,7.746l5.164-7.746h2.174
			l-6.206,9.241l6.343,9.468H537.92z"/>
	</g>
</g>
<g>
	<g>
		<path fill="none" stroke="#000000" stroke-width="1.51" stroke-miterlimit="10" d="M1253.728,838.714
			c0-163.29-119.526-137.271-125.784-299.754"/>
		<g>
			<polygon points="1136.521,545.129 1128.057,541.756 1119.751,545.507 1127.688,525.441 			"/>
		</g>
	</g>
</g>
<g>
	<g>
		<line fill="none" stroke="#000000" stroke-miterlimit="10" x1="451.415" y1="576.722" x2="458.915" y2="576.722"/>
		
			<line fill="none" stroke="#000000" stroke-miterlimit="10" stroke-dasharray="15.0327,15.0327" x1="473.948" y1="576.722" x2="1428.524" y2="576.722"/>
		<line fill="none" stroke="#000000" stroke-miterlimit="10" x1="1436.04" y1="576.722" x2="1443.54" y2="576.722"/>
	</g>
</g>
<line fill="none" stroke="#000000" stroke-width="0.5" stroke-miterlimit="10" x1="451.415" y1="957.972" x2="1443.54" y2="957.972"/>
<g>
	
		<rect x="709.661" y="973.691" fill="#EDEDED" stroke="#000000" stroke-width="0.453" stroke-miterlimit="10" width="129.285" height="45.531"/>
	<g>
		<path d="M723.084,991.042c-0.272,0-0.557-0.111-0.853-0.334c-0.223-0.222-0.347-0.519-0.371-0.89c0-0.667,0.408-1.075,1.224-1.224
			c0.617,0,1.025,0.408,1.224,1.224C724.308,990.634,723.899,991.042,723.084,991.042z M722.306,1009.099v-15.313h1.52v15.313
			H722.306z"/>
		<path d="M737.396,1009.099v-9.158c0-3.237-1.459-4.857-4.375-4.857c-1.435,0-2.521,0.421-3.264,1.261
			c-0.766,0.841-1.149,1.99-1.149,3.448v9.307h-1.52v-15.313h1.52v1.854c0.692-1.359,2.163-2.039,4.413-2.039
			c1.902,0,3.361,0.544,4.375,1.631c1.013,1.088,1.52,2.608,1.52,4.561v9.307H737.396z"/>
		<path d="M751.336,1008.135c-0.989,0.841-2.175,1.261-3.56,1.261c-2.373,0-4.152-1.075-5.339-3.226l1.298-0.779
			c0.42,0.767,0.927,1.36,1.521,1.78c0.617,0.47,1.458,0.704,2.521,0.704c2.323,0,3.485-0.988,3.485-2.966
			c0-0.865-0.407-1.619-1.224-2.262c-0.247-0.148-0.6-0.315-1.057-0.501s-1.02-0.401-1.687-0.648
			c-1.236-0.445-2.126-0.89-2.67-1.335c-0.791-0.643-1.187-1.569-1.187-2.781c0-1.038,0.396-1.928,1.187-2.669
			c0.766-0.766,1.767-1.149,3.003-1.149c1.706,0,3.152,0.593,4.339,1.779l-1.112,0.964c-0.841-0.84-1.916-1.261-3.227-1.261
			c-1.779,0-2.669,0.779-2.669,2.336c0,0.692,0.271,1.261,0.815,1.706c0.445,0.347,1.149,0.68,2.113,1.001
			c0.84,0.297,1.532,0.574,2.076,0.834s0.951,0.488,1.224,0.687c1.063,0.815,1.595,1.915,1.595,3.3
			C752.782,1006.245,752.3,1007.32,751.336,1008.135z"/>
		<path d="M758.381,995.306v13.793h-1.521v-13.793h-2.076v-1.52h2.076v-6.711h1.521v6.711h3.56v1.52H758.381z"/>
		<path d="M776.475,1009.099v-2.633c-1.606,1.929-3.646,2.893-6.117,2.893c-2.225,0-4.092-0.754-5.599-2.262
			c-1.533-1.532-2.299-3.411-2.299-5.636s0.754-4.091,2.262-5.599c1.532-1.532,3.411-2.299,5.636-2.299
			c2.447,0,4.486,0.964,6.117,2.892v-2.669h1.521v15.313H776.475z M774.881,996.938c-1.261-1.261-2.769-1.892-4.523-1.892
			c-1.78,0-3.288,0.618-4.523,1.854c-1.261,1.261-1.891,2.78-1.891,4.561c0,1.755,0.63,3.263,1.891,4.523s2.768,1.891,4.523,1.891
			c1.779,0,3.287-0.617,4.523-1.854c1.261-1.261,1.891-2.781,1.891-4.561C776.771,999.707,776.142,998.199,774.881,996.938z"/>
		<path d="M792.826,1009.099v-9.158c0-3.237-1.459-4.857-4.375-4.857c-1.435,0-2.521,0.421-3.264,1.261
			c-0.766,0.841-1.149,1.99-1.149,3.448v9.307h-1.52v-15.313h1.52v1.854c0.692-1.359,2.163-2.039,4.413-2.039
			c1.902,0,3.361,0.544,4.375,1.631c1.013,1.088,1.52,2.608,1.52,4.561v9.307H792.826z"/>
		<path d="M806.469,1009.396c-2.274,0-4.165-0.754-5.673-2.262s-2.262-3.398-2.262-5.673s0.754-4.165,2.262-5.673
			s3.398-2.262,5.673-2.262c1.953,0,3.51,0.444,4.672,1.335v1.816l-0.964-0.63l-1.038-0.557c-0.939-0.321-1.829-0.481-2.67-0.481
			c-1.903,0-3.448,0.593-4.634,1.779c-1.212,1.211-1.817,2.769-1.817,4.672c0,1.879,0.605,3.424,1.817,4.635
			c1.21,1.211,2.756,1.816,4.634,1.816c1.78,0,3.337-0.593,4.672-1.779v1.891C809.756,1008.939,808.199,1009.396,806.469,1009.396z"
			/>
		<path d="M813.589,1001.127c0,2.076,0.556,3.721,1.668,4.932c1.162,1.236,2.756,1.854,4.783,1.854c1.038,0,1.978-0.173,2.817-0.519
			c1.063-0.445,2.015-1.348,2.855-2.707l1.372,0.63c-0.965,1.83-2.447,3.065-4.449,3.708c-0.767,0.247-1.632,0.371-2.596,0.371
			c-2.299,0-4.189-0.754-5.673-2.262c-1.508-1.508-2.262-3.398-2.262-5.673c0-2.299,0.741-4.189,2.225-5.673
			c1.508-1.508,3.411-2.262,5.71-2.262c2.273,0,4.152,0.704,5.636,2.113c1.507,1.409,2.262,3.238,2.262,5.487H813.589z
			 M824.044,996.27c-1.162-0.84-2.497-1.26-4.004-1.26c-3.164,0-5.241,1.557-6.229,4.671h12.421
			C825.984,998.273,825.255,997.136,824.044,996.27z"/>
	</g>
</g>
<g>
	<g>
		<path d="M962.82,1007.11c0,1.819,0.487,3.261,1.462,4.322c1.019,1.084,2.416,1.625,4.192,1.625c0.91,0,1.733-0.151,2.471-0.455
			c0.931-0.39,1.766-1.181,2.502-2.372l1.203,0.552c-0.846,1.604-2.146,2.688-3.9,3.25c-0.672,0.217-1.43,0.325-2.275,0.325
			c-2.015,0-3.672-0.66-4.972-1.982c-1.322-1.321-1.982-2.979-1.982-4.973c0-2.015,0.649-3.672,1.949-4.973
			c1.321-1.321,2.99-1.982,5.005-1.982c1.993,0,3.641,0.618,4.94,1.853c1.321,1.235,1.982,2.839,1.982,4.811H962.82z
			 M971.985,1002.852c-1.019-0.736-2.189-1.104-3.511-1.104c-2.773,0-4.593,1.364-5.46,4.095h10.888
			C973.686,1004.607,973.046,1003.611,971.985,1002.852z"/>
		<path d="M984.303,1014.097l-3.803-5.622l-3.803,5.622h-1.593l4.583-6.76l-4.485-6.663h1.561l3.737,5.558l3.705-5.558h1.56
			l-4.452,6.63l4.55,6.793H984.303z"/>
		<path d="M1000.195,1012.31c-1.344,1.344-2.99,2.015-4.94,2.015c-2.231,0-4.073-0.91-5.525-2.73v8.808h-1.332v-19.728h1.332v2.535
			c1.387-1.819,3.229-2.729,5.525-2.729c1.95,0,3.586,0.661,4.907,1.982c1.344,1.344,2.016,2.99,2.016,4.939
			C1002.178,1009.352,1001.517,1010.989,1000.195,1012.31z M999.22,1003.437c-1.104-1.104-2.427-1.657-3.965-1.657
			c-1.56,0-2.882,0.542-3.965,1.625c-1.105,1.104-1.657,2.438-1.657,3.997c0,1.539,0.552,2.86,1.657,3.965
			c1.104,1.105,2.426,1.658,3.965,1.658c1.56,0,2.881-0.542,3.965-1.625c1.105-1.105,1.657-2.438,1.657-3.998
			C1000.877,1005.864,1000.325,1004.542,999.22,1003.437z"/>
		<path d="M1005.492,1014.097v-24.05h1.3v24.05H1005.492z"/>
		<path d="M1010.626,998.27c-0.238,0-0.487-0.098-0.747-0.293c-0.195-0.195-0.304-0.455-0.325-0.78c0-0.585,0.357-0.942,1.072-1.072
			c0.542,0,0.899,0.357,1.073,1.072C1011.699,997.913,1011.341,998.27,1010.626,998.27z M1009.943,1014.097v-13.423h1.333v13.423
			H1009.943z"/>
		<path d="M1022.034,1014.357c-1.993,0-3.651-0.66-4.973-1.982c-1.321-1.321-1.982-2.979-1.982-4.973
			c0-1.993,0.661-3.65,1.982-4.973c1.321-1.321,2.979-1.982,4.973-1.982c1.711,0,3.076,0.391,4.095,1.17v1.593l-0.845-0.553
			l-0.91-0.487c-0.823-0.281-1.604-0.422-2.34-0.422c-1.669,0-3.022,0.52-4.063,1.56c-1.062,1.062-1.593,2.427-1.593,4.095
			c0,1.647,0.531,3.002,1.593,4.063c1.062,1.063,2.416,1.593,4.063,1.593c1.561,0,2.925-0.52,4.095-1.56v1.657
			C1024.916,1013.957,1023.551,1014.357,1022.034,1014.357z"/>
		<path d="M1030.062,998.27c-0.238,0-0.487-0.098-0.747-0.293c-0.195-0.195-0.304-0.455-0.325-0.78c0-0.585,0.357-0.942,1.072-1.072
			c0.542,0,0.899,0.357,1.073,1.072C1031.135,997.913,1030.776,998.27,1030.062,998.27z M1029.379,1014.097v-13.423h1.333v13.423
			H1029.379z"/>
		<path d="M1037.146,1002.007v12.09h-1.333v-12.09h-1.819v-1.333h1.819v-5.882h1.333v5.882h3.12v1.333H1037.146z"/>
		<path d="M1043.614,1014.097v-24.05h1.3v24.05H1043.614z"/>
		<path d="M1051.933,1020.402h-1.494l3.478-7.54l-5.655-12.188h1.43l5.005,10.596l4.94-10.596h1.462L1051.933,1020.402z"/>
		<path d="M1078.842,1013.252c-0.866,0.736-1.906,1.104-3.12,1.104c-2.079,0-3.64-0.942-4.68-2.827l1.138-0.683
			c0.368,0.672,0.813,1.191,1.332,1.56c0.542,0.412,1.278,0.618,2.21,0.618c2.037,0,3.056-0.866,3.056-2.601
			c0-0.758-0.357-1.419-1.072-1.982c-0.218-0.13-0.526-0.276-0.927-0.438c-0.401-0.162-0.894-0.352-1.479-0.568
			c-1.084-0.391-1.864-0.78-2.34-1.17c-0.694-0.563-1.04-1.376-1.04-2.438c0-0.91,0.346-1.69,1.04-2.341
			c0.671-0.671,1.549-1.007,2.632-1.007c1.495,0,2.763,0.52,3.803,1.56l-0.975,0.845c-0.737-0.736-1.68-1.104-2.828-1.104
			c-1.56,0-2.34,0.683-2.34,2.048c0,0.606,0.238,1.104,0.715,1.494c0.391,0.304,1.008,0.597,1.853,0.878
			c0.736,0.26,1.344,0.504,1.82,0.731s0.834,0.428,1.072,0.601c0.932,0.716,1.397,1.68,1.397,2.893
			C1080.109,1011.594,1079.688,1012.538,1078.842,1013.252z"/>
		<path d="M1085.018,1002.007v12.09h-1.333v-12.09h-1.819v-1.333h1.819v-5.882h1.333v5.882h3.12v1.333H1085.018z"/>
		<path d="M1100.878,1014.097v-2.308c-1.409,1.69-3.196,2.535-5.363,2.535c-1.949,0-3.586-0.661-4.907-1.982
			c-1.344-1.344-2.015-2.99-2.015-4.94c0-1.949,0.66-3.585,1.982-4.907c1.343-1.343,2.99-2.015,4.939-2.015
			c2.146,0,3.933,0.845,5.363,2.535v-2.341h1.332v13.423H1100.878z M1099.48,1003.437c-1.105-1.104-2.427-1.657-3.966-1.657
			c-1.56,0-2.882,0.542-3.965,1.625c-1.104,1.104-1.657,2.438-1.657,3.997c0,1.539,0.553,2.86,1.657,3.965
			c1.105,1.105,2.427,1.658,3.965,1.658c1.561,0,2.882-0.542,3.966-1.625c1.104-1.105,1.657-2.438,1.657-3.998
			C1101.138,1005.864,1100.585,1004.542,1099.48,1003.437z"/>
		<path d="M1108.189,1002.007v12.09h-1.333v-12.09h-1.819v-1.333h1.819v-5.882h1.333v5.882h3.12v1.333H1108.189z"/>
		<path d="M1114.56,1007.11c0,1.819,0.487,3.261,1.462,4.322c1.019,1.084,2.416,1.625,4.192,1.625c0.91,0,1.733-0.151,2.471-0.455
			c0.931-0.39,1.766-1.181,2.502-2.372l1.203,0.552c-0.846,1.604-2.146,2.688-3.9,3.25c-0.672,0.217-1.43,0.325-2.275,0.325
			c-2.015,0-3.672-0.66-4.972-1.982c-1.322-1.321-1.982-2.979-1.982-4.973c0-2.015,0.649-3.672,1.949-4.973
			c1.321-1.321,2.99-1.982,5.005-1.982c1.993,0,3.641,0.618,4.94,1.853c1.321,1.235,1.982,2.839,1.982,4.811H1114.56z
			 M1123.725,1002.852c-1.019-0.736-2.189-1.104-3.511-1.104c-2.773,0-4.593,1.364-5.46,4.095h10.888
			C1125.425,1004.607,1124.785,1003.611,1123.725,1002.852z"/>
		<path d="M1141.859,1014.097v-2.405c-1.431,1.755-3.25,2.633-5.46,2.633c-1.95,0-3.587-0.661-4.908-1.982
			c-1.344-1.344-2.015-2.99-2.015-4.94c0-1.949,0.661-3.585,1.982-4.907c1.344-1.343,2.99-2.015,4.94-2.015
			c2.145,0,3.965,0.877,5.46,2.632v-13.064h1.332v24.05H1141.859z M1140.364,1003.437c-1.105-1.104-2.427-1.657-3.965-1.657
			c-1.561,0-2.882,0.542-3.965,1.625c-1.105,1.104-1.658,2.438-1.658,3.997c0,1.539,0.553,2.86,1.658,3.965
			c1.104,1.105,2.426,1.658,3.965,1.658c1.56,0,2.881-0.542,3.965-1.625c1.104-1.105,1.657-2.438,1.657-3.998
			C1142.021,1005.864,1141.469,1004.542,1140.364,1003.437z"/>
	</g>
</g>
<g>
	<g>
		<path fill="none" stroke="#000000" stroke-width="1.1123" stroke-miterlimit="10" d="M925.548,1019.21
			c0,0,16.729-43.834,188.164-45.473"/>
		<g>
			<polygon points="1109.131,980.103 1111.657,973.882 1108.934,967.747 1123.677,973.691 			"/>
		</g>
	</g>
</g>
<g>
	<g>
		<path d="M1276.733,998.27c-0.238,0-0.487-0.098-0.747-0.293c-0.195-0.195-0.304-0.455-0.325-0.78c0-0.585,0.357-0.942,1.072-1.072
			c0.542,0,0.899,0.357,1.073,1.072C1277.807,997.913,1277.448,998.27,1276.733,998.27z M1276.051,1014.097v-13.423h1.333v13.423
			H1276.051z"/>
		<path d="M1289.278,1014.097v-8.027c0-2.838-1.278-4.258-3.835-4.258c-1.257,0-2.21,0.369-2.859,1.105
			c-0.672,0.736-1.008,1.744-1.008,3.022v8.157h-1.333v-13.423h1.333v1.625c0.606-1.191,1.896-1.787,3.867-1.787
			c1.668,0,2.946,0.477,3.835,1.43c0.889,0.954,1.333,2.286,1.333,3.998v8.157H1289.278z"/>
		<path d="M1298.216,991.379l-0.877-0.098c-1.214,0-1.82,0.716-1.82,2.146v7.247h3.186v1.333h-3.186v12.09h-1.332v-12.09h-1.82
			v-1.333h1.82v-7.637c0-2.059,1.04-3.088,3.12-3.088c0.476,0,0.779,0.021,0.909,0.065c0.261,0,0.553,0.076,0.878,0.227v1.333
			L1298.216,991.379z"/>
		<path d="M1300.524,1007.11c0,1.819,0.487,3.261,1.462,4.322c1.019,1.084,2.416,1.625,4.192,1.625c0.91,0,1.733-0.151,2.471-0.455
			c0.931-0.39,1.766-1.181,2.502-2.372l1.203,0.552c-0.846,1.604-2.146,2.688-3.9,3.25c-0.672,0.217-1.43,0.325-2.275,0.325
			c-2.015,0-3.672-0.66-4.972-1.982c-1.322-1.321-1.982-2.979-1.982-4.973c0-2.015,0.649-3.672,1.949-4.973
			c1.321-1.321,2.99-1.982,5.005-1.982c1.993,0,3.641,0.618,4.94,1.853c1.321,1.235,1.982,2.839,1.982,4.811H1300.524z
			 M1309.689,1002.852c-1.019-0.736-2.189-1.104-3.511-1.104c-2.773,0-4.593,1.364-5.46,4.095h10.888
			C1311.39,1004.607,1310.75,1003.611,1309.689,1002.852z"/>
		<path d="M1322.525,1002.657c-0.347-0.26-0.715-0.465-1.104-0.617c-0.391-0.151-0.803-0.228-1.235-0.228
			c-0.369,0-0.715,0.114-1.04,0.342s-0.606,0.509-0.845,0.845c-0.239,0.336-0.429,0.71-0.569,1.121
			c-0.141,0.412-0.211,0.791-0.211,1.138v8.84h-1.333v-13.423h1.333v1.82c0.281-0.498,0.65-0.953,1.104-1.365
			c0.455-0.411,0.954-0.617,1.495-0.617c0.672,0,1.225,0.076,1.658,0.228c0.433,0.151,0.92,0.423,1.462,0.813L1322.525,1002.657z"/>
		<path d="M1332.601,1002.657c-0.347-0.26-0.715-0.465-1.104-0.617c-0.391-0.151-0.803-0.228-1.235-0.228
			c-0.369,0-0.715,0.114-1.04,0.342s-0.606,0.509-0.845,0.845c-0.239,0.336-0.429,0.71-0.569,1.121
			c-0.141,0.412-0.211,0.791-0.211,1.138v8.84h-1.333v-13.423h1.333v1.82c0.281-0.498,0.65-0.953,1.104-1.365
			c0.455-0.411,0.954-0.617,1.495-0.617c0.672,0,1.225,0.076,1.658,0.228c0.433,0.151,0.92,0.423,1.462,0.813L1332.601,1002.657z"/>
		<path d="M1334.682,1007.11c0,1.819,0.487,3.261,1.462,4.322c1.019,1.084,2.416,1.625,4.192,1.625c0.91,0,1.733-0.151,2.471-0.455
			c0.931-0.39,1.766-1.181,2.502-2.372l1.203,0.552c-0.846,1.604-2.146,2.688-3.9,3.25c-0.672,0.217-1.43,0.325-2.275,0.325
			c-2.015,0-3.672-0.66-4.972-1.982c-1.322-1.321-1.982-2.979-1.982-4.973c0-2.015,0.649-3.672,1.949-4.973
			c1.321-1.321,2.99-1.982,5.005-1.982c1.993,0,3.641,0.618,4.94,1.853c1.321,1.235,1.982,2.839,1.982,4.811H1334.682z
			 M1343.847,1002.852c-1.019-0.736-2.189-1.104-3.511-1.104c-2.773,0-4.593,1.364-5.46,4.095h10.888
			C1345.547,1004.607,1344.907,1003.611,1343.847,1002.852z"/>
		<path d="M1361.981,1014.097v-2.405c-1.431,1.755-3.25,2.633-5.46,2.633c-1.95,0-3.587-0.661-4.908-1.982
			c-1.344-1.344-2.015-2.99-2.015-4.94c0-1.949,0.661-3.585,1.982-4.907c1.344-1.343,2.99-2.015,4.94-2.015
			c2.145,0,3.965,0.877,5.46,2.632v-13.064h1.332v24.05H1361.981z M1360.486,1003.437c-1.105-1.104-2.427-1.657-3.965-1.657
			c-1.561,0-2.882,0.542-3.965,1.625c-1.105,1.104-1.658,2.438-1.658,3.997c0,1.539,0.553,2.86,1.658,3.965
			c1.104,1.105,2.426,1.658,3.965,1.658c1.56,0,2.881-0.542,3.965-1.625c1.104-1.105,1.657-2.438,1.657-3.998
			C1362.144,1005.864,1361.591,1004.542,1360.486,1003.437z"/>
	</g>
</g>
<g>
	<g>
		<path fill="none" stroke="#000000" stroke-width="1.51" stroke-miterlimit="10" stroke-dasharray="7.5,7.5" d="M1229.966,1019.21
			c0,0,16.496-43.226,184.604-45.432"/>
		<g>
			<polygon points="1408.345,982.395 1411.773,973.952 1408.077,965.622 1428.091,973.691 			"/>
		</g>
	</g>
</g>
<path fill="#EDEDED" stroke="#000000" stroke-width="0.2009" stroke-miterlimit="10" d="M623.056,1008.371
	c0,7.07-5.75,12.82-12.832,12.82h-130.52c-7.086,0-12.836-5.75-12.836-12.82v-21.855c0-7.09,5.75-12.824,12.836-12.824h130.52
	c7.082,0,12.832,5.734,12.832,12.824V1008.371z"/>
<g>
	<path d="M495.219,1007.06c-1.533,1.533-3.411,2.299-5.636,2.299s-4.092-0.754-5.599-2.262c-1.533-1.532-2.299-3.411-2.299-5.636
		c0-2.2,0.766-4.066,2.299-5.599c1.507-1.558,3.374-2.336,5.599-2.336c2.199,0,4.065,0.767,5.599,2.299
		c1.532,1.532,2.299,3.411,2.299,5.636S496.726,1005.552,495.219,1007.06z M494.144,996.901c-1.236-1.261-2.757-1.891-4.561-1.891
		c-1.73,0-3.226,0.643-4.486,1.928c-1.286,1.285-1.928,2.793-1.928,4.523c0,1.755,0.63,3.263,1.891,4.523s2.768,1.891,4.523,1.891
		c1.779,0,3.287-0.617,4.523-1.854c1.261-1.261,1.891-2.781,1.891-4.561C495.997,999.657,495.379,998.137,494.144,996.901z"/>
	<path d="M514.461,1009.766l-4.782-12.235l-4.857,12.235l-6.859-15.979h1.632l5.153,11.864l4.932-12.347l4.894,12.31l5.117-11.827
		h1.705L514.461,1009.766z"/>
	<path d="M525.102,1009.099v-27.438h1.483v27.438H525.102z"/>
	<path d="M532.479,998.384c-0.272,0-0.556-0.111-0.853-0.334c-0.223-0.223-0.347-0.52-0.371-0.89c0-0.668,0.408-1.075,1.224-1.224
		c0.618,0,1.025,0.407,1.224,1.224C533.703,997.976,533.296,998.384,532.479,998.384z M532.479,1009.322
		c-0.272,0-0.556-0.111-0.853-0.334c-0.223-0.223-0.347-0.519-0.371-0.89c0-0.668,0.408-1.075,1.224-1.224
		c0.618,0,1.025,0.408,1.224,1.224C533.703,1008.914,533.296,1009.322,532.479,1009.322z"/>
	<path d="M558.397,1007.542c-1.385,1.015-3.264,1.632-5.636,1.854c-0.272,0.024-0.569,0.043-0.891,0.056
		c-0.321,0.012-0.655,0.019-1.001,0.019c-4.004,0-7.267-1.261-9.788-3.782c-2.546-2.546-3.819-5.821-3.819-9.825
		c0-4.005,1.261-7.268,3.782-9.789c2.546-2.545,5.821-3.818,9.825-3.818c2.274,0,4.325,0.334,6.155,1.001
		c1.087,0.421,2.138,1.026,3.151,1.816v1.892c-1.038-0.865-2.176-1.558-3.411-2.076c-1.879-0.767-3.844-1.149-5.896-1.149
		c-3.51,0-6.402,1.137-8.676,3.411c-2.274,2.274-3.411,5.178-3.411,8.713s1.124,6.427,3.374,8.676
		c2.273,2.274,5.178,3.411,8.713,3.411c2.2,0,4.116-0.396,5.747-1.187c0.939-0.469,2.126-1.224,3.56-2.262v1.743L558.397,1007.542z"
		/>
	<path d="M562.4,1009.099v-27.438h1.483v27.438H562.4z"/>
	<path d="M581.977,1009.099v-2.633c-1.606,1.929-3.646,2.893-6.117,2.893c-2.225,0-4.092-0.754-5.599-2.262
		c-1.533-1.532-2.299-3.411-2.299-5.636s0.754-4.091,2.262-5.599c1.532-1.532,3.411-2.299,5.636-2.299
		c2.447,0,4.486,0.964,6.117,2.892v-2.669h1.521v15.313H581.977z M580.383,996.938c-1.261-1.261-2.769-1.892-4.523-1.892
		c-1.78,0-3.288,0.618-4.523,1.854c-1.261,1.261-1.891,2.78-1.891,4.561c0,1.755,0.63,3.263,1.891,4.523s2.768,1.891,4.523,1.891
		c1.779,0,3.287-0.617,4.523-1.854c1.261-1.261,1.891-2.781,1.891-4.561C582.273,999.707,581.644,998.199,580.383,996.938z"/>
	<path d="M595.547,1008.135c-0.989,0.841-2.175,1.261-3.56,1.261c-2.373,0-4.152-1.075-5.339-3.226l1.298-0.779
		c0.42,0.767,0.927,1.36,1.521,1.78c0.617,0.47,1.458,0.704,2.521,0.704c2.323,0,3.485-0.988,3.485-2.966
		c0-0.865-0.407-1.619-1.224-2.262c-0.247-0.148-0.6-0.315-1.057-0.501s-1.02-0.401-1.687-0.648c-1.236-0.445-2.126-0.89-2.67-1.335
		c-0.791-0.643-1.187-1.569-1.187-2.781c0-1.038,0.396-1.928,1.187-2.669c0.766-0.766,1.767-1.149,3.003-1.149
		c1.706,0,3.152,0.593,4.339,1.779l-1.112,0.964c-0.841-0.84-1.916-1.261-3.227-1.261c-1.779,0-2.669,0.779-2.669,2.336
		c0,0.692,0.271,1.261,0.815,1.706c0.445,0.347,1.149,0.68,2.113,1.001c0.84,0.297,1.532,0.574,2.076,0.834s0.951,0.488,1.224,0.687
		c1.063,0.815,1.595,1.915,1.595,3.3C596.993,1006.245,596.511,1007.32,595.547,1008.135z"/>
	<path d="M607.819,1008.135c-0.989,0.841-2.175,1.261-3.56,1.261c-2.373,0-4.152-1.075-5.339-3.226l1.298-0.779
		c0.42,0.767,0.927,1.36,1.521,1.78c0.617,0.47,1.458,0.704,2.521,0.704c2.323,0,3.485-0.988,3.485-2.966
		c0-0.865-0.407-1.619-1.224-2.262c-0.247-0.148-0.6-0.315-1.057-0.501s-1.02-0.401-1.687-0.648c-1.236-0.445-2.126-0.89-2.67-1.335
		c-0.791-0.643-1.187-1.569-1.187-2.781c0-1.038,0.396-1.928,1.187-2.669c0.766-0.766,1.767-1.149,3.003-1.149
		c1.706,0,3.152,0.593,4.339,1.779l-1.112,0.964c-0.841-0.84-1.916-1.261-3.227-1.261c-1.779,0-2.669,0.779-2.669,2.336
		c0,0.692,0.271,1.261,0.815,1.706c0.445,0.347,1.149,0.68,2.113,1.001c0.84,0.297,1.532,0.574,2.076,0.834s0.951,0.488,1.224,0.687
		c1.063,0.815,1.595,1.915,1.595,3.3C609.266,1006.245,608.783,1007.32,607.819,1008.135z"/>
</g>
<g>
	<g>
		<path d="M483.119,391.891c-0.483-0.362-0.996-0.648-1.54-0.86c-0.544-0.211-1.117-0.317-1.722-0.317
			c-0.514,0-0.996,0.159-1.449,0.476c-0.453,0.317-0.846,0.71-1.178,1.179c-0.333,0.468-0.597,0.989-0.793,1.563
			c-0.196,0.574-0.294,1.103-0.294,1.585v12.322h-1.857v-18.709h1.857v2.536c0.392-0.694,0.905-1.328,1.54-1.902
			c0.634-0.573,1.328-0.86,2.084-0.86c0.936,0,1.705,0.106,2.31,0.317s1.283,0.589,2.039,1.132L483.119,391.891z"/>
		<path d="M503.277,407.837v-3.353c-1.993,2.446-4.529,3.67-7.61,3.67c-2.718,0-4.998-0.921-6.84-2.764
			c-1.873-1.872-2.809-4.168-2.809-6.886s0.921-4.998,2.763-6.841c1.872-1.872,4.168-2.809,6.886-2.809
			c2.99,0,5.527,1.224,7.61,3.67v-18.211h1.857v33.522H503.277z M501.194,392.979c-1.541-1.54-3.383-2.311-5.527-2.311
			c-2.174,0-4.017,0.755-5.526,2.265c-1.54,1.541-2.311,3.397-2.311,5.572c0,2.145,0.771,3.986,2.311,5.526
			c1.54,1.541,3.382,2.311,5.526,2.311c2.175,0,4.017-0.754,5.527-2.265c1.54-1.54,2.31-3.397,2.31-5.572
			C503.504,396.362,502.734,394.519,501.194,392.979z"/>
		<path d="M517.774,376.172l-1.224-0.136c-1.691,0-2.537,0.996-2.537,2.989v10.103h4.439v1.857h-4.439v16.852h-1.857v-16.852h-2.536
			v-1.857h2.536v-10.646c0-2.869,1.45-4.304,4.35-4.304c0.664,0,1.087,0.03,1.269,0.091c0.362,0,0.77,0.105,1.223,0.316v1.857
			L517.774,376.172z"/>
		<path d="M523.754,394.746c-0.333,0-0.68-0.136-1.042-0.408c-0.272-0.271-0.424-0.634-0.453-1.087c0-0.815,0.498-1.313,1.495-1.495
			c0.754,0,1.253,0.499,1.494,1.495C525.248,394.248,524.75,394.746,523.754,394.746z M523.754,408.109
			c-0.333,0-0.68-0.136-1.042-0.407c-0.272-0.271-0.424-0.635-0.453-1.087c0-0.815,0.498-1.314,1.495-1.495
			c0.754,0,1.253,0.498,1.494,1.495C525.248,407.611,524.75,408.109,523.754,408.109z"/>
		<path d="M533.131,390.986v16.852h-1.857v-16.852h-2.537v-1.857h2.537v-8.199h1.857v8.199h4.349v1.857H533.131z"/>
		<path d="M545.045,416.625h-2.084l4.847-10.51l-7.882-16.987h1.993l6.977,14.768l6.886-14.768h2.038L545.045,416.625z"/>
		<path d="M578.159,405.346c-1.873,1.873-4.168,2.809-6.886,2.809c-3.111,0-5.679-1.269-7.701-3.806v12.276h-1.857v-27.497h1.857
			v3.533c1.932-2.537,4.499-3.806,7.701-3.806c2.718,0,4.998,0.922,6.84,2.764c1.872,1.873,2.809,4.168,2.809,6.886
			S580.001,403.504,578.159,405.346z M576.8,392.979c-1.54-1.54-3.383-2.311-5.526-2.311c-2.175,0-4.018,0.755-5.527,2.265
			c-1.54,1.541-2.31,3.397-2.31,5.572c0,2.145,0.77,3.986,2.31,5.526c1.541,1.541,3.383,2.311,5.527,2.311
			c2.174,0,4.016-0.754,5.526-2.265c1.54-1.54,2.311-3.397,2.311-5.572C579.11,396.362,578.34,394.519,576.8,392.979z"/>
		<path d="M585.407,398.098c0,2.536,0.68,4.545,2.038,6.024c1.419,1.511,3.367,2.266,5.844,2.266c1.269,0,2.416-0.211,3.443-0.635
			c1.298-0.544,2.461-1.646,3.488-3.307l1.676,0.77c-1.178,2.235-2.99,3.745-5.437,4.53c-0.937,0.302-1.993,0.453-3.171,0.453
			c-2.809,0-5.119-0.921-6.931-2.764c-1.843-1.842-2.764-4.151-2.764-6.931c0-2.809,0.906-5.119,2.718-6.931
			c1.842-1.842,4.168-2.764,6.977-2.764c2.778,0,5.074,0.86,6.886,2.582c1.842,1.722,2.764,3.957,2.764,6.705H585.407z
			 M598.182,392.164c-1.42-1.026-3.051-1.54-4.893-1.54c-3.866,0-6.402,1.902-7.61,5.707h15.176
			C600.553,394.61,599.661,393.221,598.182,392.164z"/>
	</g>
</g>
<g>
	<g>
		<path fill="none" stroke="#000000" stroke-width="1.51" stroke-miterlimit="10" d="M565.286,707.284
			c0-232.317,54.484-263.592,57.628-411.751"/>
		<g>
			<polygon points="631.188,302 622.847,298.329 614.414,301.785 623.056,282.011 			"/>
		</g>
	</g>
</g>
</svg>
