<?xml version="1.0" encoding="utf-8"?>
<!-- Generator: Adobe Illustrator 16.0.0, SVG Export Plug-In . SVG Version: 6.00 Build 0)  -->
<!DOCTYPE svg PUBLIC "-//W3C//DTD SVG 1.1//EN" "http://www.w3.org/Graphics/SVG/1.1/DTD/svg11.dtd">
<svg version="1.1" id="Layer_1" xmlns="http://www.w3.org/2000/svg" xmlns:xlink="http://www.w3.org/1999/xlink" x="0px" y="0px"
	 width="1920px" height="1080px" viewBox="0 0 1920 1080" enable-background="new 0 0 1920 1080" xml:space="preserve">
<g>
	<g>
		<line fill="none" stroke="#000000" stroke-miterlimit="10" x1="720.594" y1="533.4" x2="1182.856" y2="533.4"/>
		<g>
			<polygon points="1180.048,537.104 1181.622,533.4 1180.048,529.697 1188.827,533.4 			"/>
		</g>
	</g>
</g>
<g>
	<g>
		<line fill="none" stroke="#000000" stroke-miterlimit="10" x1="736.271" y1="550.77" x2="1198.534" y2="550.77"/>
		<g>
			<polygon points="739.08,554.473 737.506,550.77 739.08,547.066 730.301,550.77 			"/>
		</g>
	</g>
</g>
<g>
	<g>
		<line fill="none" stroke="#000000" stroke-miterlimit="10" x1="754.273" y1="399.021" x2="1151.178" y2="399.021"/>
		<g>
			<polygon points="1148.369,402.724 1149.942,399.021 1148.369,395.318 1157.147,399.021 			"/>
		</g>
	</g>
</g>
<g>
	<g>
		<line fill="none" stroke="#000000" stroke-miterlimit="10" x1="768.597" y1="416.39" x2="1165.501" y2="416.39"/>
		<g>
			<polygon points="771.405,420.093 769.832,416.39 771.405,412.687 762.627,416.39 			"/>
		</g>
	</g>
</g>
<g>
	<g>
		<line fill="none" stroke="#000000" stroke-miterlimit="10" x1="754.273" y1="667.778" x2="1151.178" y2="667.778"/>
		<g>
			<polygon points="1148.369,671.481 1149.942,667.778 1148.369,664.075 1157.147,667.778 			"/>
		</g>
	</g>
</g>
<g>
	<g>
		<line fill="none" stroke="#000000" stroke-miterlimit="10" x1="768.597" y1="685.147" x2="1165.501" y2="685.147"/>
		<g>
			<polygon points="771.405,688.851 769.832,685.147 771.405,681.444 762.627,685.147 			"/>
		</g>
	</g>
</g>
<g>
	<g>
		<line fill="none" stroke="#000000" stroke-miterlimit="10" x1="968.563" y1="303.43" x2="968.563" y2="765.694"/>
		<g>
			<polygon points="964.86,762.886 968.563,764.459 972.267,762.886 968.563,771.664 			"/>
		</g>
	</g>
</g>
<g>
	<g>
		<line fill="none" stroke="#000000" stroke-miterlimit="10" x1="951.194" y1="319.108" x2="951.194" y2="781.371"/>
		<g>
			<polygon points="947.491,321.917 951.194,320.343 954.897,321.917 951.194,313.138 			"/>
		</g>
	</g>
</g>
<g>
	<g>
		<line fill="none" stroke="#000000" stroke-miterlimit="10" x1="742.301" y1="437.371" x2="742.301" y2="627.804"/>
		<g>
			<polygon points="738.598,624.995 742.301,626.568 746.004,624.995 742.301,633.773 			"/>
		</g>
	</g>
</g>
<g>
	<g>
		<line fill="none" stroke="#000000" stroke-miterlimit="10" x1="724.932" y1="447.598" x2="724.932" y2="646.933"/>
		<g>
			<polygon points="721.229,450.406 724.932,448.833 728.635,450.406 724.932,441.628 			"/>
		</g>
	</g>
</g>
<g>
	<g>
		<line fill="none" stroke="#000000" stroke-miterlimit="10" x1="1177.968" y1="437.371" x2="1177.968" y2="627.804"/>
		<g>
			<polygon points="1174.265,624.995 1177.968,626.568 1181.671,624.995 1177.968,633.773 			"/>
		</g>
	</g>
</g>
<g>
	<g>
		<line fill="none" stroke="#000000" stroke-miterlimit="10" x1="1195.337" y1="447.598" x2="1195.337" y2="646.933"/>
		<g>
			<polygon points="1191.634,450.406 1195.337,448.833 1199.04,450.406 1195.337,441.628 			"/>
		</g>
	</g>
</g>
<g>
	<g>
		<line fill="none" stroke="#000000" stroke-miterlimit="10" x1="1018.489" y1="303.43" x2="1204.509" y2="502.537"/>
		<g>
			<polygon points="1199.886,503.013 1203.665,501.635 1205.297,497.957 1208.584,506.899 			"/>
		</g>
	</g>
</g>
<g>
	<g>
		<line fill="none" stroke="#000000" stroke-miterlimit="10" x1="1007.729" y1="317.5" x2="1199.641" y2="522.824"/>
		<g>
			<polygon points="1006.942,322.08 1008.573,318.402 1012.353,317.022 1003.653,313.138 			"/>
		</g>
	</g>
</g>
<g>
	<g>
		<line fill="none" stroke="#000000" stroke-miterlimit="10" x1="1173.681" y1="435.706" x2="767.975" y2="657.271"/>
		<g>
			<polygon points="768.665,652.675 769.06,656.68 772.215,659.176 762.736,660.133 			"/>
		</g>
	</g>
</g>
<g>
	<g>
		<line fill="none" stroke="#000000" stroke-miterlimit="10" x1="1151.596" y1="427.976" x2="745.892" y2="649.541"/>
		<g>
			<polygon points="1147.355,426.072 1150.512,428.568 1150.905,432.572 1156.835,425.115 			"/>
		</g>
	</g>
</g>
<g>
	<g>
		<line fill="none" stroke="#000000" stroke-miterlimit="10" x1="745.67" y1="435.482" x2="1151.375" y2="657.048"/>
		<g>
			<polygon points="1147.135,658.952 1150.291,656.456 1150.685,652.451 1156.614,659.909 			"/>
		</g>
	</g>
</g>
<g>
	<g>
		<line fill="none" stroke="#000000" stroke-miterlimit="10" x1="767.754" y1="427.752" x2="1173.459" y2="649.317"/>
		<g>
			<polygon points="768.444,432.349 768.839,428.345 771.994,425.849 762.516,424.891 			"/>
		</g>
	</g>
</g>
<g>
	<g>
		<line fill="none" stroke="#000000" stroke-miterlimit="10" x1="1074.202" y1="303.046" x2="1159.126" y2="382.648"/>
		<g>
			<polygon points="1154.544,383.429 1158.225,381.803 1159.609,378.025 1163.481,386.73 			"/>
		</g>
	</g>
</g>
<g>
	<g>
		<line fill="none" stroke="#000000" stroke-miterlimit="10" x1="1095.502" y1="299.204" x2="1179.813" y2="378.233"/>
		<g>
			<polygon points="1095.019,303.827 1096.403,300.049 1100.084,298.423 1091.146,295.122 			"/>
		</g>
	</g>
</g>
<g>
	<g>
		<line fill="none" stroke="#000000" stroke-miterlimit="10" x1="1291.124" y1="437.809" x2="1306.041" y2="499.082"/>
		<g>
			<polygon points="1301.778,497.229 1305.749,497.881 1308.975,495.477 1307.453,504.882 			"/>
		</g>
	</g>
</g>
<g>
	<g>
		<line fill="none" stroke="#000000" stroke-miterlimit="10" x1="1312.054" y1="450.353" x2="1327.211" y2="512.612"/>
		<g>
			<polygon points="1309.12,453.958 1312.346,451.553 1316.316,452.206 1310.642,444.552 			"/>
		</g>
	</g>
</g>
<g>
	<g>
		<line fill="none" stroke="#000000" stroke-miterlimit="10" x1="900.926" y1="303.43" x2="714.906" y2="502.536"/>
		<g>
			<polygon points="714.117,497.956 715.75,501.634 719.529,503.013 710.83,506.898 			"/>
		</g>
	</g>
</g>
<g>
	<g>
		<line fill="none" stroke="#000000" stroke-miterlimit="10" x1="911.686" y1="317.499" x2="719.773" y2="522.824"/>
		<g>
			<polygon points="907.062,317.022 910.842,318.401 912.473,322.08 915.762,313.138 			"/>
		</g>
	</g>
</g>
<g>
	<g>
		<line fill="none" stroke="#000000" stroke-miterlimit="10" x1="845.212" y1="303.046" x2="760.288" y2="382.647"/>
		<g>
			<polygon points="759.805,378.025 761.189,381.803 764.869,383.429 755.933,386.73 			"/>
		</g>
	</g>
</g>
<g>
	<g>
		<line fill="none" stroke="#000000" stroke-miterlimit="10" x1="823.912" y1="299.204" x2="739.601" y2="378.233"/>
		<g>
			<polygon points="819.331,298.423 823.012,300.048 824.396,303.826 828.268,295.121 			"/>
		</g>
	</g>
</g>
<g>
	<g>
		<line fill="none" stroke="#000000" stroke-miterlimit="10" x1="628.291" y1="437.809" x2="613.373" y2="499.081"/>
		<g>
			<polygon points="610.439,495.476 613.666,497.88 617.636,497.228 611.961,504.881 			"/>
		</g>
	</g>
</g>
<g>
	<g>
		<line fill="none" stroke="#000000" stroke-miterlimit="10" x1="607.361" y1="450.352" x2="592.203" y2="512.611"/>
		<g>
			<polygon points="603.099,452.205 607.068,451.552 610.295,453.957 608.773,444.551 			"/>
		</g>
	</g>
</g>
<g>
	<g>
		<line fill="none" stroke="#000000" stroke-miterlimit="10" x1="1018.489" y1="781.371" x2="1204.509" y2="582.265"/>
		<g>
			<polygon points="1205.297,586.845 1203.665,583.167 1199.886,581.789 1208.584,577.902 			"/>
		</g>
	</g>
</g>
<g>
	<g>
		<line fill="none" stroke="#000000" stroke-miterlimit="10" x1="1007.729" y1="767.303" x2="1199.641" y2="561.978"/>
		<g>
			<polygon points="1012.353,767.779 1008.573,766.4 1006.942,762.723 1003.653,771.664 			"/>
		</g>
	</g>
</g>
<g>
	<g>
		<line fill="none" stroke="#000000" stroke-miterlimit="10" x1="1074.202" y1="781.756" x2="1159.126" y2="702.154"/>
		<g>
			<polygon points="1159.609,706.776 1158.225,702.999 1154.544,701.373 1163.481,698.071 			"/>
		</g>
	</g>
</g>
<g>
	<g>
		<line fill="none" stroke="#000000" stroke-miterlimit="10" x1="1095.502" y1="785.597" x2="1179.813" y2="706.568"/>
		<g>
			<polygon points="1100.084,786.378 1096.403,784.752 1095.019,780.975 1091.146,789.68 			"/>
		</g>
	</g>
</g>
<g>
	<g>
		<line fill="none" stroke="#000000" stroke-miterlimit="10" x1="1291.124" y1="646.992" x2="1306.041" y2="585.721"/>
		<g>
			<polygon points="1308.975,589.325 1305.749,586.921 1301.778,587.573 1307.453,579.92 			"/>
		</g>
	</g>
</g>
<g>
	<g>
		<line fill="none" stroke="#000000" stroke-miterlimit="10" x1="1312.054" y1="634.449" x2="1327.211" y2="572.189"/>
		<g>
			<polygon points="1316.316,632.597 1312.346,633.249 1309.12,630.845 1310.642,640.25 			"/>
		</g>
	</g>
</g>
<g>
	<g>
		<line fill="none" stroke="#000000" stroke-miterlimit="10" x1="900.926" y1="781.372" x2="714.906" y2="582.266"/>
		<g>
			<polygon points="719.529,581.79 715.75,583.168 714.117,586.846 710.83,577.903 			"/>
		</g>
	</g>
</g>
<g>
	<g>
		<line fill="none" stroke="#000000" stroke-miterlimit="10" x1="911.686" y1="767.303" x2="719.773" y2="561.978"/>
		<g>
			<polygon points="912.473,762.723 910.842,766.4 907.062,767.779 915.762,771.664 			"/>
		</g>
	</g>
</g>
<g>
	<g>
		<line fill="none" stroke="#000000" stroke-miterlimit="10" x1="845.212" y1="781.756" x2="760.288" y2="702.155"/>
		<g>
			<polygon points="764.869,701.374 761.189,703 759.805,706.777 755.933,698.072 			"/>
		</g>
	</g>
</g>
<g>
	<g>
		<line fill="none" stroke="#000000" stroke-miterlimit="10" x1="823.912" y1="785.598" x2="739.601" y2="706.568"/>
		<g>
			<polygon points="824.396,780.976 823.012,784.753 819.331,786.379 828.268,789.681 			"/>
		</g>
	</g>
</g>
<g>
	<g>
		<line fill="none" stroke="#000000" stroke-miterlimit="10" x1="628.291" y1="646.992" x2="613.373" y2="585.722"/>
		<g>
			<polygon points="617.636,587.574 613.666,586.922 610.439,589.326 611.961,579.921 			"/>
		</g>
	</g>
</g>
<g>
	<g>
		<line fill="none" stroke="#000000" stroke-miterlimit="10" x1="607.361" y1="634.449" x2="592.203" y2="572.19"/>
		<g>
			<polygon points="610.295,630.845 607.068,633.249 603.099,632.597 608.773,640.25 			"/>
		</g>
	</g>
</g>
<path fill="#EDEDED" stroke="#000000" stroke-width="0.5" stroke-miterlimit="10" d="M720.594,556.104
	c0,8.879-7.207,16.084-16.096,16.084H482.223c-8.889,0-16.09-7.205-16.09-16.084v-27.41c0-8.881,7.201-16.082,16.09-16.082h222.275
	c8.889,0,16.096,7.201,16.096,16.082V556.104z"/>
<g>
	<g>
		<path d="M515.012,555.86v-2.981c-1.82,2.184-4.13,3.275-6.93,3.275c-2.52,0-4.635-0.854-6.342-2.563
			c-1.736-1.735-2.604-3.863-2.604-6.383c0-2.521,0.854-4.635,2.563-6.343c1.735-1.735,3.864-2.604,6.384-2.604
			c2.772,0,5.082,1.093,6.93,3.277v-3.025h1.723v17.347H515.012z M513.206,542.084c-1.428-1.428-3.137-2.142-5.124-2.142
			c-2.016,0-3.725,0.7-5.124,2.101c-1.428,1.428-2.142,3.149-2.142,5.166c0,1.988,0.714,3.695,2.142,5.123s3.136,2.143,5.124,2.143
			c2.016,0,3.724-0.699,5.124-2.1c1.428-1.429,2.142-3.15,2.142-5.166C515.348,545.221,514.634,543.512,513.206,542.084z"/>
		<path d="M536.432,555.86v-2.981c-1.82,2.184-4.13,3.275-6.93,3.275c-2.52,0-4.635-0.854-6.342-2.563
			c-1.736-1.735-2.604-3.863-2.604-6.383c0-2.521,0.854-4.635,2.563-6.343c1.735-1.735,3.864-2.604,6.384-2.604
			c2.772,0,5.082,1.093,6.93,3.277v-3.025h1.723v17.347H536.432z M534.626,542.084c-1.428-1.428-3.137-2.142-5.124-2.142
			c-2.016,0-3.725,0.7-5.124,2.101c-1.428,1.428-2.142,3.149-2.142,5.166c0,1.988,0.714,3.695,2.142,5.123s3.136,2.143,5.124,2.143
			c2.016,0,3.724-0.699,5.124-2.1c1.428-1.429,2.142-3.15,2.142-5.166C536.768,545.221,536.054,543.512,534.626,542.084z"/>
		<path d="M557.852,555.86v-2.981c-1.82,2.184-4.13,3.275-6.93,3.275c-2.52,0-4.635-0.854-6.342-2.563
			c-1.736-1.735-2.604-3.863-2.604-6.383c0-2.521,0.854-4.635,2.563-6.343c1.735-1.735,3.864-2.604,6.384-2.604
			c2.772,0,5.082,1.093,6.93,3.277v-3.025h1.723v17.347H557.852z M556.046,542.084c-1.428-1.428-3.137-2.142-5.124-2.142
			c-2.016,0-3.725,0.7-5.124,2.101c-1.428,1.428-2.142,3.149-2.142,5.166c0,1.988,0.714,3.695,2.142,5.123s3.136,2.143,5.124,2.143
			c2.016,0,3.724-0.699,5.124-2.1c1.428-1.429,2.142-3.15,2.142-5.166C558.188,545.221,557.474,543.512,556.046,542.084z"/>
		<path d="M565.454,543.723c-0.309,0-0.63-0.127-0.967-0.379c-0.252-0.252-0.392-0.588-0.42-1.008c0-0.756,0.462-1.218,1.387-1.386
			c0.699,0,1.161,0.462,1.386,1.386C566.84,543.26,566.378,543.723,565.454,543.723z M565.454,556.112
			c-0.309,0-0.63-0.126-0.967-0.378c-0.252-0.252-0.392-0.588-0.42-1.008c0-0.756,0.462-1.219,1.387-1.387
			c0.699,0,1.161,0.463,1.386,1.387C566.84,555.65,566.378,556.112,565.454,556.112z"/>
		<path d="M588.008,553.424c-1.82,1.625-4.047,2.437-6.679,2.437h-9.365v-29.987h7.308c2.324,0,4.172,0.602,5.544,1.805
			c1.456,1.289,2.184,3.081,2.184,5.377c0,2.632-1.078,4.564-3.233,5.796c2.1,0.42,3.794,1.372,5.082,2.856
			c1.26,1.484,1.89,3.304,1.89,5.459C590.737,549.742,589.827,551.828,588.008,553.424z M583.598,529.106
			c-1.148-1.009-2.549-1.513-4.2-1.513h-5.754v10.92h6.006c1.624,0,2.968-0.504,4.032-1.512c1.063-1.008,1.596-2.323,1.596-3.947
			C585.277,531.375,584.717,530.059,583.598,529.106z M586.747,542.084c-1.428-1.231-3.22-1.848-5.376-1.848h-7.728v13.902h7.728
			c2.128,0,3.934-0.645,5.418-1.932c1.513-1.288,2.269-2.969,2.269-5.041C589.058,545.066,588.287,543.373,586.747,542.084z"/>
		<path d="M606.067,554.348c-1.148,1.232-2.759,1.849-4.83,1.849c-2.045,0-3.627-0.602-4.746-1.806
			c-1.12-1.203-1.681-2.884-1.681-5.04v-10.837h1.723v10.837c0,1.652,0.363,2.926,1.092,3.821c0.756,0.896,1.96,1.344,3.612,1.344
			c3.22,0,4.83-1.721,4.83-5.165v-10.837h1.68v10.837C607.747,551.479,607.187,553.145,606.067,554.348z"/>
		<path d="M612.283,535.406c-0.309,0-0.63-0.126-0.966-0.378c-0.252-0.252-0.393-0.588-0.421-1.008c0-0.757,0.463-1.218,1.387-1.386
			c0.699,0,1.161,0.461,1.386,1.386C613.669,534.944,613.207,535.406,612.283,535.406z M611.401,555.86v-17.347h1.722v17.347
			H611.401z"/>
		<path d="M617.238,555.86v-31.08h1.68v31.08H617.238z"/>
		<path d="M638.909,555.86v-3.108c-1.848,2.269-4.199,3.402-7.056,3.402c-2.52,0-4.635-0.854-6.342-2.563
			c-1.736-1.735-2.604-3.863-2.604-6.383c0-2.521,0.854-4.635,2.563-6.343c1.735-1.735,3.864-2.604,6.384-2.604
			c2.772,0,5.124,1.135,7.056,3.402V524.78h1.723v31.08H638.909z M636.978,542.084c-1.428-1.428-3.136-2.142-5.124-2.142
			c-2.016,0-3.725,0.7-5.124,2.101c-1.428,1.428-2.142,3.149-2.142,5.166c0,1.988,0.714,3.695,2.142,5.123s3.136,2.143,5.124,2.143
			c2.016,0,3.724-0.699,5.124-2.1c1.428-1.429,2.142-3.15,2.142-5.166C639.119,545.221,638.405,543.512,636.978,542.084z"/>
		<path d="M646.932,535.406c-0.309,0-0.63-0.126-0.966-0.378c-0.252-0.252-0.393-0.588-0.421-1.008c0-0.757,0.463-1.218,1.387-1.386
			c0.699,0,1.161,0.461,1.386,1.386C648.317,534.944,647.855,535.406,646.932,535.406z M646.05,555.86v-17.347h1.722v17.347H646.05z
			"/>
		<path d="M663.145,555.86v-10.374c0-3.668-1.652-5.502-4.956-5.502c-1.624,0-2.856,0.477-3.696,1.428
			c-0.868,0.953-1.302,2.254-1.302,3.906v10.542h-1.722v-17.347h1.722v2.101c0.783-1.54,2.449-2.31,4.998-2.31
			c2.155,0,3.808,0.615,4.956,1.848c1.147,1.232,1.722,2.955,1.722,5.166v10.542H663.145z"/>
		<path d="M684.354,561.656c-1.568,1.568-3.626,2.352-6.174,2.352c-4.732,0-7.56-1.861-8.484-5.586h1.723
			c0.308,1.372,1.189,2.395,2.646,3.066c1.148,0.531,2.521,0.798,4.116,0.798c2.156,0,3.822-0.603,4.998-1.806
			c1.203-1.204,1.806-2.885,1.806-5.04v-2.562c-1.82,2.184-4.13,3.275-6.93,3.275c-2.52,0-4.635-0.854-6.342-2.563
			c-1.736-1.735-2.604-3.863-2.604-6.383c0-2.521,0.854-4.635,2.563-6.343c1.735-1.735,3.864-2.604,6.384-2.604
			c2.772,0,5.082,1.093,6.93,3.277v-3.025h1.723v16.969C686.706,558.029,685.922,560.088,684.354,561.656z M683.178,542.084
			c-1.428-1.428-3.137-2.142-5.124-2.142c-2.016,0-3.725,0.7-5.124,2.101c-1.428,1.428-2.142,3.149-2.142,5.166
			c0,1.988,0.714,3.695,2.142,5.123s3.136,2.143,5.124,2.143c2.016,0,3.724-0.699,5.124-2.1c1.428-1.429,2.142-3.15,2.142-5.166
			C685.319,545.221,684.605,543.512,683.178,542.084z"/>
	</g>
</g>
<path fill="#EDEDED" stroke="#000000" stroke-width="0.5" stroke-miterlimit="10" d="M1452.995,556.104
	c0,8.879-7.207,16.084-16.096,16.084h-222.275c-8.889,0-16.09-7.205-16.09-16.084v-27.41c0-8.881,7.201-16.082,16.09-16.082h222.275
	c8.889,0,16.096,7.201,16.096,16.082V556.104z"/>
<g>
	<g>
		<path d="M1247.14,553.551c-1.736,1.736-3.863,2.604-6.383,2.604c-2.885,0-5.25-1.162-7.098-3.486v3.192h-1.723v-31.08h1.723
			v16.968c1.818-2.323,4.186-3.486,7.098-3.486c2.52,0,4.633,0.855,6.342,2.563c1.736,1.736,2.604,3.864,2.604,6.385
			C1249.702,549.729,1248.849,551.843,1247.14,553.551z M1245.88,542.084c-1.428-1.428-3.135-2.142-5.123-2.142
			c-2.016,0-3.725,0.7-5.125,2.101c-1.428,1.428-2.141,3.149-2.141,5.166c0,1.988,0.713,3.695,2.141,5.123s3.137,2.143,5.125,2.143
			c2.016,0,3.723-0.699,5.123-2.1c1.428-1.429,2.143-3.15,2.143-5.166C1248.022,545.221,1247.308,543.512,1245.88,542.084z"/>
		<path d="M1268.854,553.551c-1.736,1.736-3.863,2.604-6.385,2.604c-2.883,0-5.25-1.162-7.098-3.486v3.192h-1.723v-31.08h1.723
			v16.968c1.82-2.323,4.186-3.486,7.098-3.486c2.521,0,4.635,0.855,6.342,2.563c1.736,1.736,2.605,3.864,2.605,6.385
			C1271.417,549.729,1270.562,551.843,1268.854,553.551z M1267.595,542.084c-1.428-1.428-3.137-2.142-5.125-2.142
			c-2.016,0-3.723,0.7-5.123,2.101c-1.428,1.428-2.143,3.149-2.143,5.166c0,1.988,0.715,3.695,2.143,5.123s3.135,2.143,5.123,2.143
			c2.018,0,3.725-0.699,5.125-2.1c1.428-1.429,2.143-3.15,2.143-5.166C1269.737,545.221,1269.022,543.512,1267.595,542.084z"/>
		<path d="M1290.567,553.551c-1.736,1.736-3.863,2.604-6.383,2.604c-2.885,0-5.25-1.162-7.098-3.486v3.192h-1.723v-31.08h1.723
			v16.968c1.818-2.323,4.186-3.486,7.098-3.486c2.52,0,4.633,0.855,6.342,2.563c1.736,1.736,2.604,3.864,2.604,6.385
			C1293.13,549.729,1292.276,551.843,1290.567,553.551z M1289.308,542.084c-1.428-1.428-3.135-2.142-5.123-2.142
			c-2.016,0-3.725,0.7-5.125,2.101c-1.428,1.428-2.141,3.149-2.141,5.166c0,1.988,0.713,3.695,2.141,5.123s3.137,2.143,5.125,2.143
			c2.016,0,3.723-0.699,5.123-2.1c1.428-1.429,2.143-3.15,2.143-5.166C1291.45,545.221,1290.735,543.512,1289.308,542.084z"/>
		<path d="M1298.296,543.723c-0.309,0-0.629-0.127-0.967-0.379c-0.252-0.252-0.391-0.588-0.42-1.008
			c0-0.756,0.463-1.218,1.387-1.386c0.699,0,1.162,0.462,1.387,1.386C1299.683,543.26,1299.22,543.723,1298.296,543.723z
			 M1298.296,556.112c-0.309,0-0.629-0.126-0.967-0.378c-0.252-0.252-0.391-0.588-0.42-1.008c0-0.756,0.463-1.219,1.387-1.387
			c0.699,0,1.162,0.463,1.387,1.387C1299.683,555.65,1299.22,556.112,1298.296,556.112z"/>
		<path d="M1320.851,553.424c-1.82,1.625-4.047,2.437-6.68,2.437h-9.365v-29.987h7.309c2.324,0,4.172,0.602,5.543,1.805
			c1.457,1.289,2.184,3.081,2.184,5.377c0,2.632-1.078,4.564-3.232,5.796c2.1,0.42,3.793,1.372,5.082,2.856
			c1.26,1.484,1.889,3.304,1.889,5.459C1323.579,549.742,1322.669,551.828,1320.851,553.424z M1316.44,529.106
			c-1.148-1.009-2.549-1.513-4.201-1.513h-5.754v10.92h6.006c1.625,0,2.969-0.504,4.033-1.512c1.063-1.008,1.596-2.323,1.596-3.947
			C1318.12,531.375,1317.56,530.059,1316.44,529.106z M1319.589,542.084c-1.428-1.231-3.219-1.848-5.375-1.848h-7.729v13.902h7.729
			c2.127,0,3.934-0.645,5.418-1.932c1.512-1.288,2.268-2.969,2.268-5.041C1321.899,545.066,1321.13,543.373,1319.589,542.084z"/>
		<path d="M1338.909,554.348c-1.148,1.232-2.758,1.849-4.83,1.849c-2.045,0-3.627-0.602-4.746-1.806
			c-1.119-1.203-1.68-2.884-1.68-5.04v-10.837h1.723v10.837c0,1.652,0.363,2.926,1.092,3.821c0.756,0.896,1.959,1.344,3.611,1.344
			c3.221,0,4.83-1.721,4.83-5.165v-10.837h1.68v10.837C1340.589,551.479,1340.028,553.145,1338.909,554.348z"/>
		<path d="M1345.126,535.406c-0.309,0-0.631-0.126-0.967-0.378c-0.252-0.252-0.393-0.588-0.42-1.008
			c0-0.757,0.463-1.218,1.387-1.386c0.699,0,1.16,0.461,1.385,1.386C1346.511,534.944,1346.05,535.406,1345.126,535.406z
			 M1344.243,555.86v-17.347h1.723v17.347H1344.243z"/>
		<path d="M1350.081,555.86v-31.08h1.68v31.08H1350.081z"/>
		<path d="M1371.753,555.86v-3.108c-1.848,2.269-4.199,3.402-7.057,3.402c-2.52,0-4.635-0.854-6.342-2.563
			c-1.736-1.735-2.604-3.863-2.604-6.383c0-2.521,0.854-4.635,2.563-6.343c1.734-1.735,3.863-2.604,6.383-2.604
			c2.773,0,5.125,1.135,7.057,3.402V524.78h1.723v31.08H1371.753z M1369.821,542.084c-1.428-1.428-3.137-2.142-5.125-2.142
			c-2.016,0-3.725,0.7-5.123,2.101c-1.428,1.428-2.143,3.149-2.143,5.166c0,1.988,0.715,3.695,2.143,5.123s3.135,2.143,5.123,2.143
			c2.016,0,3.725-0.699,5.125-2.1c1.428-1.429,2.141-3.15,2.141-5.166C1371.962,545.221,1371.249,543.512,1369.821,542.084z"/>
		<path d="M1379.774,535.406c-0.309,0-0.629-0.126-0.965-0.378c-0.252-0.252-0.393-0.588-0.422-1.008
			c0-0.757,0.463-1.218,1.387-1.386c0.699,0,1.162,0.461,1.387,1.386C1381.161,534.944,1380.698,535.406,1379.774,535.406z
			 M1378.894,555.86v-17.347h1.721v17.347H1378.894z"/>
		<path d="M1395.987,555.86v-10.374c0-3.668-1.652-5.502-4.957-5.502c-1.623,0-2.855,0.477-3.695,1.428
			c-0.869,0.953-1.303,2.254-1.303,3.906v10.542h-1.721v-17.347h1.721v2.101c0.783-1.54,2.449-2.31,4.998-2.31
			c2.156,0,3.809,0.615,4.957,1.848c1.146,1.232,1.721,2.955,1.721,5.166v10.542H1395.987z"/>
		<path d="M1417.196,561.656c-1.568,1.568-3.627,2.352-6.174,2.352c-4.732,0-7.561-1.861-8.484-5.586h1.723
			c0.307,1.372,1.189,2.395,2.645,3.066c1.148,0.531,2.521,0.798,4.117,0.798c2.156,0,3.822-0.603,4.998-1.806
			c1.203-1.204,1.805-2.885,1.805-5.04v-2.562c-1.82,2.184-4.129,3.275-6.93,3.275c-2.52,0-4.635-0.854-6.342-2.563
			c-1.736-1.735-2.604-3.863-2.604-6.383c0-2.521,0.854-4.635,2.563-6.343c1.734-1.735,3.863-2.604,6.383-2.604
			c2.773,0,5.082,1.093,6.93,3.277v-3.025h1.723v16.969C1419.548,558.029,1418.765,560.088,1417.196,561.656z M1416.021,542.084
			c-1.428-1.428-3.137-2.142-5.125-2.142c-2.016,0-3.725,0.7-5.123,2.101c-1.428,1.428-2.143,3.149-2.143,5.166
			c0,1.988,0.715,3.695,2.143,5.123s3.135,2.143,5.123,2.143c2.016,0,3.725-0.699,5.125-2.1c1.428-1.429,2.141-3.15,2.141-5.166
			C1418.161,545.221,1417.448,543.512,1416.021,542.084z"/>
	</g>
</g>
<path fill="#EDEDED" stroke="#000000" stroke-width="0.5" stroke-miterlimit="10" d="M1086.794,287.346
	c0,8.879-7.207,16.084-16.096,16.084H848.424c-8.889,0-16.09-7.205-16.09-16.084v-27.41c0-8.881,7.201-16.082,16.09-16.082h222.274
	c8.889,0,16.096,7.201,16.096,16.082V287.346z"/>
<path fill="#EDEDED" stroke="#000000" stroke-width="0.5" stroke-miterlimit="10" d="M1419.607,421.725
	c0,8.879-7.207,16.084-16.096,16.084h-222.275c-8.889,0-16.09-7.205-16.09-16.084v-27.41c0-8.881,7.201-16.082,16.09-16.082h222.275
	c8.889,0,16.096,7.201,16.096,16.082V421.725z"/>
<g>
	<g>
		<path d="M1215.852,421.481v-3.108c-1.848,2.268-4.199,3.402-7.056,3.402c-2.52,0-4.635-0.854-6.342-2.562
			c-1.736-1.736-2.604-3.864-2.604-6.384s0.854-4.634,2.563-6.342c1.735-1.736,3.864-2.604,6.384-2.604
			c2.772,0,5.124,1.134,7.056,3.402v-16.884h1.723v31.08H1215.852z M1213.92,407.705c-1.428-1.428-3.136-2.142-5.124-2.142
			c-2.016,0-3.725,0.7-5.124,2.1c-1.428,1.428-2.142,3.15-2.142,5.166c0,1.988,0.714,3.696,2.142,5.124
			c1.428,1.428,3.136,2.142,5.124,2.142c2.016,0,3.724-0.699,5.124-2.1c1.428-1.428,2.142-3.15,2.142-5.166
			C1216.062,410.841,1215.348,409.133,1213.92,407.705z"/>
		<path d="M1235.676,421.481v-3.108c-1.848,2.268-4.199,3.402-7.056,3.402c-2.52,0-4.635-0.854-6.342-2.562
			c-1.736-1.736-2.604-3.864-2.604-6.384s0.854-4.634,2.563-6.342c1.735-1.736,3.864-2.604,6.384-2.604
			c2.772,0,5.124,1.134,7.056,3.402v-16.884h1.723v31.08H1235.676z M1233.744,407.705c-1.428-1.428-3.136-2.142-5.124-2.142
			c-2.016,0-3.725,0.7-5.124,2.1c-1.428,1.428-2.142,3.15-2.142,5.166c0,1.988,0.714,3.696,2.142,5.124
			c1.428,1.428,3.136,2.142,5.124,2.142c2.016,0,3.724-0.699,5.124-2.1c1.428-1.428,2.142-3.15,2.142-5.166
			C1235.886,410.841,1235.172,409.133,1233.744,407.705z"/>
		<path d="M1255.5,421.481v-3.108c-1.848,2.268-4.199,3.402-7.056,3.402c-2.52,0-4.635-0.854-6.342-2.562
			c-1.736-1.736-2.604-3.864-2.604-6.384s0.854-4.634,2.563-6.342c1.735-1.736,3.864-2.604,6.384-2.604
			c2.772,0,5.124,1.134,7.056,3.402v-16.884h1.723v31.08H1255.5z M1253.568,407.705c-1.428-1.428-3.136-2.142-5.124-2.142
			c-2.016,0-3.725,0.7-5.124,2.1c-1.428,1.428-2.142,3.15-2.142,5.166c0,1.988,0.714,3.696,2.142,5.124
			c1.428,1.428,3.136,2.142,5.124,2.142c2.016,0,3.724-0.699,5.124-2.1c1.428-1.428,2.142-3.15,2.142-5.166
			C1255.71,410.841,1254.996,409.133,1253.568,407.705z"/>
		<path d="M1263.103,409.343c-0.309,0-0.63-0.126-0.967-0.378c-0.252-0.252-0.392-0.588-0.42-1.008c0-0.756,0.462-1.218,1.387-1.386
			c0.699,0,1.161,0.462,1.386,1.386C1264.488,408.881,1264.026,409.343,1263.103,409.343z M1263.103,421.733
			c-0.309,0-0.63-0.126-0.967-0.378c-0.252-0.252-0.392-0.588-0.42-1.008c0-0.756,0.462-1.218,1.387-1.386
			c0.699,0,1.161,0.462,1.386,1.386C1264.488,421.271,1264.026,421.733,1263.103,421.733z"/>
		<path d="M1285.656,419.045c-1.82,1.624-4.047,2.436-6.679,2.436h-9.365v-29.988h7.308c2.324,0,4.172,0.602,5.544,1.806
			c1.456,1.289,2.184,3.081,2.184,5.376c0,2.632-1.078,4.564-3.233,5.796c2.1,0.42,3.794,1.372,5.082,2.856
			c1.26,1.484,1.89,3.304,1.89,5.46C1288.386,415.363,1287.476,417.449,1285.656,419.045z M1281.246,394.727
			c-1.148-1.008-2.549-1.512-4.2-1.512h-5.754v10.92h6.006c1.624,0,2.968-0.504,4.032-1.512c1.063-1.008,1.596-2.324,1.596-3.948
			C1282.926,396.995,1282.365,395.679,1281.246,394.727z M1284.396,407.705c-1.428-1.232-3.22-1.848-5.376-1.848h-7.728v13.902
			h7.728c2.128,0,3.934-0.644,5.418-1.932c1.513-1.288,2.269-2.968,2.269-5.04C1286.706,410.687,1285.936,408.993,1284.396,407.705z
			"/>
		<path d="M1303.716,419.969c-1.148,1.232-2.759,1.848-4.83,1.848c-2.045,0-3.627-0.602-4.746-1.806
			c-1.12-1.203-1.681-2.883-1.681-5.04v-10.836h1.723v10.836c0,1.652,0.363,2.926,1.092,3.822c0.756,0.896,1.96,1.344,3.612,1.344
			c3.22,0,4.83-1.722,4.83-5.166v-10.836h1.68v10.836C1305.396,417.099,1304.835,418.766,1303.716,419.969z"/>
		<path d="M1309.932,401.027c-0.309,0-0.63-0.126-0.966-0.378c-0.252-0.252-0.393-0.588-0.421-1.008
			c0-0.756,0.463-1.218,1.387-1.386c0.699,0,1.161,0.462,1.386,1.386C1311.317,400.565,1310.855,401.027,1309.932,401.027z
			 M1309.05,421.481v-17.346h1.722v17.346H1309.05z"/>
		<path d="M1314.887,421.481v-31.08h1.68v31.08H1314.887z"/>
		<path d="M1336.558,421.481v-3.108c-1.848,2.268-4.199,3.402-7.056,3.402c-2.52,0-4.635-0.854-6.342-2.562
			c-1.736-1.736-2.604-3.864-2.604-6.384s0.854-4.634,2.563-6.342c1.735-1.736,3.864-2.604,6.384-2.604
			c2.772,0,5.124,1.134,7.056,3.402v-16.884h1.723v31.08H1336.558z M1334.626,407.705c-1.428-1.428-3.136-2.142-5.124-2.142
			c-2.016,0-3.725,0.7-5.124,2.1c-1.428,1.428-2.142,3.15-2.142,5.166c0,1.988,0.714,3.696,2.142,5.124
			c1.428,1.428,3.136,2.142,5.124,2.142c2.016,0,3.724-0.699,5.124-2.1c1.428-1.428,2.142-3.15,2.142-5.166
			C1336.768,410.841,1336.054,409.133,1334.626,407.705z"/>
		<path d="M1344.58,401.027c-0.309,0-0.63-0.126-0.966-0.378c-0.252-0.252-0.393-0.588-0.421-1.008c0-0.756,0.463-1.218,1.387-1.386
			c0.699,0,1.161,0.462,1.386,1.386C1345.966,400.565,1345.504,401.027,1344.58,401.027z M1343.698,421.481v-17.346h1.722v17.346
			H1343.698z"/>
		<path d="M1360.793,421.481v-10.374c0-3.668-1.652-5.502-4.956-5.502c-1.624,0-2.856,0.477-3.696,1.428
			c-0.868,0.953-1.302,2.254-1.302,3.906v10.542h-1.722v-17.346h1.722v2.1c0.783-1.54,2.449-2.31,4.998-2.31
			c2.155,0,3.808,0.616,4.956,1.848c1.147,1.232,1.722,2.955,1.722,5.166v10.542H1360.793z"/>
		<path d="M1382.002,427.277c-1.568,1.568-3.626,2.352-6.174,2.352c-4.732,0-7.56-1.862-8.484-5.586h1.723
			c0.308,1.372,1.189,2.394,2.646,3.066c1.148,0.532,2.521,0.798,4.116,0.798c2.156,0,3.822-0.602,4.998-1.806
			c1.203-1.204,1.806-2.884,1.806-5.04v-2.562c-1.82,2.184-4.13,3.276-6.93,3.276c-2.52,0-4.635-0.854-6.342-2.562
			c-1.736-1.736-2.604-3.864-2.604-6.384s0.854-4.634,2.563-6.342c1.735-1.736,3.864-2.604,6.384-2.604
			c2.772,0,5.082,1.092,6.93,3.276v-3.024h1.723v16.968C1384.354,423.65,1383.57,425.708,1382.002,427.277z M1380.826,407.705
			c-1.428-1.428-3.137-2.142-5.124-2.142c-2.016,0-3.725,0.7-5.124,2.1c-1.428,1.428-2.142,3.15-2.142,5.166
			c0,1.988,0.714,3.696,2.142,5.124c1.428,1.428,3.136,2.142,5.124,2.142c2.016,0,3.724-0.699,5.124-2.1
			c1.428-1.428,2.142-3.15,2.142-5.166C1382.968,410.841,1382.254,409.133,1380.826,407.705z"/>
	</g>
</g>
<path fill="#EDEDED" stroke="#000000" stroke-width="0.5" stroke-miterlimit="10" d="M754.273,421.725
	c0,8.879-7.207,16.084-16.096,16.084H515.902c-8.889,0-16.09-7.205-16.09-16.084v-27.41c0-8.881,7.201-16.082,16.09-16.082h222.275
	c8.889,0,16.096,7.201,16.096,16.082V421.725z"/>
<g>
	<g>
		<path d="M548.062,421.817c-2.576,0-4.719-0.854-6.426-2.562c-1.708-1.708-2.563-3.85-2.563-6.426c0-2.576,0.854-4.718,2.563-6.426
			c1.707-1.708,3.85-2.562,6.426-2.562c2.212,0,3.976,0.504,5.292,1.512v2.058l-1.092-0.714l-1.176-0.63
			c-1.064-0.363-2.073-0.546-3.024-0.546c-2.156,0-3.906,0.672-5.25,2.016c-1.372,1.372-2.058,3.136-2.058,5.292
			c0,2.128,0.686,3.878,2.058,5.25c1.372,1.372,3.122,2.058,5.25,2.058c2.016,0,3.78-0.672,5.292-2.016v2.142
			C551.785,421.299,550.021,421.817,548.062,421.817z"/>
		<path d="M565.239,421.817c-2.576,0-4.719-0.854-6.426-2.562c-1.708-1.708-2.563-3.85-2.563-6.426c0-2.576,0.854-4.718,2.563-6.426
			c1.707-1.708,3.85-2.562,6.426-2.562c2.212,0,3.976,0.504,5.292,1.512v2.058l-1.092-0.714l-1.176-0.63
			c-1.064-0.363-2.073-0.546-3.024-0.546c-2.156,0-3.906,0.672-5.25,2.016c-1.372,1.372-2.058,3.136-2.058,5.292
			c0,2.128,0.686,3.878,2.058,5.25c1.372,1.372,3.122,2.058,5.25,2.058c2.016,0,3.78-0.672,5.292-2.016v2.142
			C568.963,421.299,567.199,421.817,565.239,421.817z"/>
		<path d="M582.417,421.817c-2.576,0-4.719-0.854-6.426-2.562c-1.708-1.708-2.563-3.85-2.563-6.426c0-2.576,0.854-4.718,2.563-6.426
			c1.707-1.708,3.85-2.562,6.426-2.562c2.212,0,3.976,0.504,5.292,1.512v2.058l-1.092-0.714l-1.176-0.63
			c-1.064-0.363-2.073-0.546-3.024-0.546c-2.156,0-3.906,0.672-5.25,2.016c-1.372,1.372-2.058,3.136-2.058,5.292
			c0,2.128,0.686,3.878,2.058,5.25c1.372,1.372,3.122,2.058,5.25,2.058c2.016,0,3.78-0.672,5.292-2.016v2.142
			C586.141,421.299,584.377,421.817,582.417,421.817z"/>
		<path d="M593.379,409.343c-0.309,0-0.63-0.126-0.967-0.378c-0.252-0.252-0.392-0.588-0.42-1.008c0-0.756,0.462-1.218,1.387-1.386
			c0.699,0,1.161,0.462,1.386,1.386C594.765,408.881,594.303,409.343,593.379,409.343z M593.379,421.733
			c-0.309,0-0.63-0.126-0.967-0.378c-0.252-0.252-0.392-0.588-0.42-1.008c0-0.756,0.462-1.218,1.387-1.386
			c0.699,0,1.161,0.462,1.386,1.386C594.765,421.271,594.303,421.733,593.379,421.733z"/>
		<path d="M615.933,419.045c-1.82,1.624-4.047,2.436-6.679,2.436h-9.365v-29.988h7.308c2.324,0,4.172,0.602,5.544,1.806
			c1.456,1.289,2.184,3.081,2.184,5.376c0,2.632-1.078,4.564-3.233,5.796c2.1,0.42,3.794,1.372,5.082,2.856
			c1.26,1.484,1.89,3.304,1.89,5.46C618.662,415.363,617.752,417.449,615.933,419.045z M611.522,394.727
			c-1.148-1.008-2.549-1.512-4.2-1.512h-5.754v10.92h6.006c1.624,0,2.968-0.504,4.032-1.512c1.063-1.008,1.596-2.324,1.596-3.948
			C613.202,396.995,612.642,395.679,611.522,394.727z M614.672,407.705c-1.428-1.232-3.22-1.848-5.376-1.848h-7.728v13.902h7.728
			c2.128,0,3.934-0.644,5.418-1.932c1.513-1.288,2.269-2.968,2.269-5.04C616.982,410.687,616.212,408.993,614.672,407.705z"/>
		<path d="M633.992,419.969c-1.148,1.232-2.759,1.848-4.83,1.848c-2.045,0-3.627-0.602-4.746-1.806
			c-1.12-1.203-1.681-2.883-1.681-5.04v-10.836h1.723v10.836c0,1.652,0.363,2.926,1.092,3.822c0.756,0.896,1.96,1.344,3.612,1.344
			c3.22,0,4.83-1.722,4.83-5.166v-10.836h1.68v10.836C635.672,417.099,635.111,418.766,633.992,419.969z"/>
		<path d="M640.208,401.027c-0.309,0-0.63-0.126-0.966-0.378c-0.252-0.252-0.393-0.588-0.421-1.008c0-0.756,0.463-1.218,1.387-1.386
			c0.699,0,1.161,0.462,1.386,1.386C641.594,400.565,641.132,401.027,640.208,401.027z M639.326,421.481v-17.346h1.722v17.346
			H639.326z"/>
		<path d="M645.164,421.481v-31.08h1.68v31.08H645.164z"/>
		<path d="M666.835,421.481v-3.108c-1.848,2.268-4.199,3.402-7.056,3.402c-2.52,0-4.635-0.854-6.342-2.562
			c-1.736-1.736-2.604-3.864-2.604-6.384s0.854-4.634,2.563-6.342c1.735-1.736,3.864-2.604,6.384-2.604
			c2.772,0,5.124,1.134,7.056,3.402v-16.884h1.723v31.08H666.835z M664.903,407.705c-1.428-1.428-3.136-2.142-5.124-2.142
			c-2.016,0-3.725,0.7-5.124,2.1c-1.428,1.428-2.142,3.15-2.142,5.166c0,1.988,0.714,3.696,2.142,5.124
			c1.428,1.428,3.136,2.142,5.124,2.142c2.016,0,3.724-0.699,5.124-2.1c1.428-1.428,2.142-3.15,2.142-5.166
			C667.045,410.841,666.331,409.133,664.903,407.705z"/>
		<path d="M674.857,401.027c-0.309,0-0.63-0.126-0.966-0.378c-0.252-0.252-0.393-0.588-0.421-1.008c0-0.756,0.463-1.218,1.387-1.386
			c0.699,0,1.161,0.462,1.386,1.386C676.243,400.565,675.781,401.027,674.857,401.027z M673.976,421.481v-17.346h1.722v17.346
			H673.976z"/>
		<path d="M691.069,421.481v-10.374c0-3.668-1.652-5.502-4.956-5.502c-1.624,0-2.856,0.477-3.696,1.428
			c-0.868,0.953-1.302,2.254-1.302,3.906v10.542h-1.722v-17.346h1.722v2.1c0.783-1.54,2.449-2.31,4.998-2.31
			c2.155,0,3.808,0.616,4.956,1.848c1.147,1.232,1.722,2.955,1.722,5.166v10.542H691.069z"/>
		<path d="M712.278,427.277c-1.568,1.568-3.626,2.352-6.174,2.352c-4.732,0-7.56-1.862-8.484-5.586h1.723
			c0.308,1.372,1.189,2.394,2.646,3.066c1.148,0.532,2.521,0.798,4.116,0.798c2.156,0,3.822-0.602,4.998-1.806
			c1.203-1.204,1.806-2.884,1.806-5.04v-2.562c-1.82,2.184-4.13,3.276-6.93,3.276c-2.52,0-4.635-0.854-6.342-2.562
			c-1.736-1.736-2.604-3.864-2.604-6.384s0.854-4.634,2.563-6.342c1.735-1.736,3.864-2.604,6.384-2.604
			c2.772,0,5.082,1.092,6.93,3.276v-3.024h1.723v16.968C714.631,423.65,713.847,425.708,712.278,427.277z M711.103,407.705
			c-1.428-1.428-3.137-2.142-5.124-2.142c-2.016,0-3.725,0.7-5.124,2.1c-1.428,1.428-2.142,3.15-2.142,5.166
			c0,1.988,0.714,3.696,2.142,5.124c1.428,1.428,3.136,2.142,5.124,2.142c2.016,0,3.724-0.699,5.124-2.1
			c1.428-1.428,2.142-3.15,2.142-5.166C713.244,410.841,712.53,409.133,711.103,407.705z"/>
	</g>
</g>
<path fill="#EDEDED" stroke="#000000" stroke-width="0.5" stroke-miterlimit="10" d="M1419.607,690.484
	c0,8.879-7.207,16.084-16.096,16.084h-222.275c-8.889,0-16.09-7.205-16.09-16.084v-27.41c0-8.881,7.201-16.082,16.09-16.082h222.275
	c8.889,0,16.096,7.201,16.096,16.082V690.484z"/>
<g>
	<g>
		<path d="M1222.488,660.882l-1.134-0.126c-1.569,0-2.353,0.924-2.353,2.771v9.366h4.116v1.722h-4.116v15.625h-1.722v-15.625h-2.353
			v-1.722h2.353v-9.87c0-2.66,1.344-3.99,4.032-3.99c0.615,0,1.008,0.029,1.176,0.084c0.336,0,0.714,0.1,1.134,0.295v1.722
			L1222.488,660.882z"/>
		<path d="M1232.484,660.882l-1.134-0.126c-1.569,0-2.353,0.924-2.353,2.771v9.366h4.116v1.722h-4.116v15.625h-1.722v-15.625h-2.353
			v-1.722h2.353v-9.87c0-2.66,1.344-3.99,4.032-3.99c0.615,0,1.008,0.029,1.176,0.084c0.336,0,0.714,0.1,1.134,0.295v1.722
			L1232.484,660.882z"/>
		<path d="M1242.48,660.882l-1.134-0.126c-1.569,0-2.353,0.924-2.353,2.771v9.366h4.116v1.722h-4.116v15.625h-1.722v-15.625h-2.353
			v-1.722h2.353v-9.87c0-2.66,1.344-3.99,4.032-3.99c0.615,0,1.008,0.029,1.176,0.084c0.336,0,0.714,0.1,1.134,0.295v1.722
			L1242.48,660.882z"/>
		<path d="M1248.024,678.102c-0.309,0-0.63-0.126-0.967-0.378c-0.252-0.252-0.392-0.588-0.42-1.008c0-0.756,0.462-1.218,1.387-1.386
			c0.699,0,1.161,0.461,1.386,1.386C1249.41,677.64,1248.948,678.102,1248.024,678.102z M1248.024,690.492
			c-0.309,0-0.63-0.127-0.967-0.379c-0.252-0.252-0.392-0.588-0.42-1.008c0-0.756,0.462-1.218,1.387-1.386
			c0.699,0,1.161,0.462,1.386,1.386C1249.41,690.029,1248.948,690.492,1248.024,690.492z"/>
		<path d="M1270.578,687.804c-1.82,1.624-4.047,2.437-6.679,2.437h-9.365v-29.988h7.308c2.324,0,4.172,0.602,5.544,1.806
			c1.456,1.288,2.184,3.081,2.184,5.376c0,2.633-1.078,4.564-3.233,5.797c2.1,0.42,3.794,1.371,5.082,2.855
			c1.26,1.484,1.89,3.305,1.89,5.46C1273.308,684.122,1272.397,686.207,1270.578,687.804z M1266.168,663.486
			c-1.148-1.009-2.549-1.513-4.2-1.513h-5.754v10.92h6.006c1.624,0,2.968-0.504,4.032-1.512c1.063-1.009,1.596-2.323,1.596-3.948
			C1267.848,665.754,1267.287,664.438,1266.168,663.486z M1269.317,676.464c-1.428-1.231-3.22-1.849-5.376-1.849h-7.728v13.902
			h7.728c2.128,0,3.934-0.644,5.418-1.932c1.513-1.287,2.269-2.968,2.269-5.04C1271.628,679.445,1270.857,677.752,1269.317,676.464z
			"/>
		<path d="M1288.638,688.728c-1.148,1.232-2.759,1.849-4.83,1.849c-2.045,0-3.627-0.602-4.746-1.807
			c-1.12-1.203-1.681-2.883-1.681-5.039v-10.837h1.723v10.837c0,1.652,0.363,2.926,1.092,3.821c0.756,0.896,1.96,1.344,3.612,1.344
			c3.22,0,4.83-1.722,4.83-5.165v-10.837h1.68v10.837C1290.317,685.857,1289.757,687.524,1288.638,688.728z"/>
		<path d="M1294.854,669.785c-0.309,0-0.63-0.125-0.966-0.377c-0.252-0.252-0.393-0.588-0.421-1.008
			c0-0.757,0.463-1.219,1.387-1.387c0.699,0,1.161,0.462,1.386,1.387C1296.239,669.324,1295.777,669.785,1294.854,669.785z
			 M1293.972,690.24v-17.347h1.722v17.347H1293.972z"/>
		<path d="M1299.81,690.24v-31.08h1.68v31.08H1299.81z"/>
		<path d="M1321.48,690.24v-3.108c-1.848,2.269-4.199,3.401-7.056,3.401c-2.52,0-4.635-0.854-6.342-2.562
			c-1.736-1.735-2.604-3.864-2.604-6.384s0.854-4.634,2.563-6.342c1.735-1.736,3.864-2.604,6.384-2.604
			c2.772,0,5.124,1.134,7.056,3.402V659.16h1.723v31.08H1321.48z M1319.549,676.464c-1.428-1.429-3.136-2.142-5.124-2.142
			c-2.016,0-3.725,0.699-5.124,2.1c-1.428,1.428-2.142,3.15-2.142,5.166c0,1.988,0.714,3.695,2.142,5.124
			c1.428,1.428,3.136,2.142,5.124,2.142c2.016,0,3.724-0.699,5.124-2.1c1.428-1.428,2.142-3.15,2.142-5.166
			C1321.69,679.6,1320.977,677.892,1319.549,676.464z"/>
		<path d="M1329.503,669.785c-0.309,0-0.63-0.125-0.966-0.377c-0.252-0.252-0.393-0.588-0.421-1.008
			c0-0.757,0.463-1.219,1.387-1.387c0.699,0,1.161,0.462,1.386,1.387C1330.889,669.324,1330.427,669.785,1329.503,669.785z
			 M1328.621,690.24v-17.347h1.722v17.347H1328.621z"/>
		<path d="M1345.715,690.24v-10.375c0-3.668-1.652-5.502-4.956-5.502c-1.624,0-2.856,0.477-3.696,1.428
			c-0.868,0.953-1.302,2.255-1.302,3.906v10.543h-1.722v-17.347h1.722v2.101c0.783-1.54,2.449-2.311,4.998-2.311
			c2.155,0,3.808,0.616,4.956,1.848c1.147,1.232,1.722,2.955,1.722,5.166v10.543H1345.715z"/>
		<path d="M1366.924,696.035c-1.568,1.568-3.626,2.353-6.174,2.353c-4.732,0-7.56-1.862-8.484-5.586h1.723
			c0.308,1.372,1.189,2.394,2.646,3.065c1.148,0.532,2.521,0.799,4.116,0.799c2.156,0,3.822-0.603,4.998-1.807
			c1.203-1.203,1.806-2.884,1.806-5.039v-2.563c-1.82,2.184-4.13,3.275-6.93,3.275c-2.52,0-4.635-0.854-6.342-2.562
			c-1.736-1.735-2.604-3.864-2.604-6.384s0.854-4.634,2.563-6.342c1.735-1.736,3.864-2.604,6.384-2.604
			c2.772,0,5.082,1.093,6.93,3.276v-3.024h1.723v16.968C1369.276,692.409,1368.492,694.467,1366.924,696.035z M1365.748,676.464
			c-1.428-1.429-3.137-2.142-5.124-2.142c-2.016,0-3.725,0.699-5.124,2.1c-1.428,1.428-2.142,3.15-2.142,5.166
			c0,1.988,0.714,3.695,2.142,5.124c1.428,1.428,3.136,2.142,5.124,2.142c2.016,0,3.724-0.699,5.124-2.1
			c1.428-1.428,2.142-3.15,2.142-5.166C1367.89,679.6,1367.176,677.892,1365.748,676.464z"/>
	</g>
</g>
<path fill="#EDEDED" stroke="#000000" stroke-width="0.5" stroke-miterlimit="10" d="M754.273,690.484
	c0,8.879-7.207,16.084-16.096,16.084H515.902c-8.889,0-16.09-7.205-16.09-16.084v-27.41c0-8.881,7.201-16.082,16.09-16.082h222.275
	c8.889,0,16.096,7.201,16.096,16.082V690.484z"/>
<g>
	<g>
		<path d="M534.077,681.21c0,2.352,0.63,4.214,1.89,5.586c1.315,1.4,3.122,2.1,5.418,2.1c1.176,0,2.24-0.195,3.192-0.588
			c1.203-0.504,2.281-1.526,3.233-3.065l1.555,0.713c-1.093,2.073-2.772,3.473-5.04,4.201c-0.869,0.279-1.849,0.42-2.94,0.42
			c-2.604,0-4.746-0.854-6.426-2.563c-1.708-1.707-2.563-3.85-2.563-6.426c0-2.604,0.84-4.746,2.521-6.426
			c1.707-1.708,3.863-2.563,6.468-2.563c2.576,0,4.704,0.799,6.384,2.395c1.708,1.596,2.563,3.668,2.563,6.216H534.077z
			 M545.921,675.707c-1.316-0.951-2.828-1.428-4.536-1.428c-3.584,0-5.937,1.765-7.056,5.293h14.069
			C548.118,677.976,547.292,676.688,545.921,675.707z"/>
		<path d="M556.294,681.21c0,2.352,0.63,4.214,1.89,5.586c1.315,1.4,3.122,2.1,5.418,2.1c1.176,0,2.24-0.195,3.192-0.588
			c1.203-0.504,2.281-1.526,3.233-3.065l1.555,0.713c-1.093,2.073-2.772,3.473-5.04,4.201c-0.869,0.279-1.849,0.42-2.94,0.42
			c-2.604,0-4.746-0.854-6.426-2.563c-1.708-1.707-2.563-3.85-2.563-6.426c0-2.604,0.84-4.746,2.521-6.426
			c1.707-1.708,3.863-2.563,6.468-2.563c2.576,0,4.704,0.799,6.384,2.395c1.708,1.596,2.563,3.668,2.563,6.216H556.294z
			 M568.138,675.707c-1.316-0.951-2.828-1.428-4.536-1.428c-3.584,0-5.937,1.765-7.056,5.293h14.069
			C570.335,677.976,569.509,676.688,568.138,675.707z"/>
		<path d="M578.511,681.21c0,2.352,0.63,4.214,1.89,5.586c1.315,1.4,3.122,2.1,5.418,2.1c1.176,0,2.24-0.195,3.192-0.588
			c1.203-0.504,2.281-1.526,3.233-3.065l1.555,0.713c-1.093,2.073-2.772,3.473-5.04,4.201c-0.869,0.279-1.849,0.42-2.94,0.42
			c-2.604,0-4.746-0.854-6.426-2.563c-1.708-1.707-2.563-3.85-2.563-6.426c0-2.604,0.84-4.746,2.521-6.426
			c1.707-1.708,3.863-2.563,6.468-2.563c2.576,0,4.704,0.799,6.384,2.395c1.708,1.596,2.563,3.668,2.563,6.216H578.511z
			 M590.354,675.707c-1.316-0.951-2.828-1.428-4.536-1.428c-3.584,0-5.937,1.765-7.056,5.293h14.069
			C592.552,677.976,591.726,676.688,590.354,675.707z"/>
		<path d="M599.511,678.102c-0.309,0-0.63-0.126-0.967-0.378c-0.252-0.252-0.392-0.588-0.42-1.008c0-0.756,0.462-1.218,1.387-1.386
			c0.699,0,1.161,0.461,1.386,1.386C600.896,677.64,600.435,678.102,599.511,678.102z M599.511,690.492
			c-0.309,0-0.63-0.127-0.967-0.379c-0.252-0.252-0.392-0.588-0.42-1.008c0-0.756,0.462-1.218,1.387-1.386
			c0.699,0,1.161,0.462,1.386,1.386C600.896,690.029,600.435,690.492,599.511,690.492z"/>
		<path d="M622.064,687.804c-1.82,1.624-4.047,2.437-6.679,2.437h-9.365v-29.988h7.308c2.324,0,4.172,0.602,5.544,1.806
			c1.456,1.288,2.184,3.081,2.184,5.376c0,2.633-1.078,4.564-3.233,5.797c2.1,0.42,3.794,1.371,5.082,2.855
			c1.26,1.484,1.89,3.305,1.89,5.46C624.794,684.122,623.884,686.207,622.064,687.804z M617.654,663.486
			c-1.148-1.009-2.549-1.513-4.2-1.513H607.7v10.92h6.006c1.624,0,2.968-0.504,4.032-1.512c1.063-1.009,1.596-2.323,1.596-3.948
			C619.334,665.754,618.773,664.438,617.654,663.486z M620.804,676.464c-1.428-1.231-3.22-1.849-5.376-1.849H607.7v13.902h7.728
			c2.128,0,3.934-0.644,5.418-1.932c1.513-1.287,2.269-2.968,2.269-5.04C623.114,679.445,622.344,677.752,620.804,676.464z"/>
		<path d="M640.124,688.728c-1.148,1.232-2.759,1.849-4.83,1.849c-2.045,0-3.627-0.602-4.746-1.807
			c-1.12-1.203-1.681-2.883-1.681-5.039v-10.837h1.723v10.837c0,1.652,0.363,2.926,1.092,3.821c0.756,0.896,1.96,1.344,3.612,1.344
			c3.22,0,4.83-1.722,4.83-5.165v-10.837h1.68v10.837C641.804,685.857,641.243,687.524,640.124,688.728z"/>
		<path d="M646.34,669.785c-0.309,0-0.63-0.125-0.966-0.377c-0.252-0.252-0.393-0.588-0.421-1.008c0-0.757,0.463-1.219,1.387-1.387
			c0.699,0,1.161,0.462,1.386,1.387C647.726,669.324,647.264,669.785,646.34,669.785z M645.458,690.24v-17.347h1.722v17.347H645.458
			z"/>
		<path d="M651.296,690.24v-31.08h1.68v31.08H651.296z"/>
		<path d="M672.967,690.24v-3.108c-1.848,2.269-4.199,3.401-7.056,3.401c-2.52,0-4.635-0.854-6.342-2.562
			c-1.736-1.735-2.604-3.864-2.604-6.384s0.854-4.634,2.563-6.342c1.735-1.736,3.864-2.604,6.384-2.604
			c2.772,0,5.124,1.134,7.056,3.402V659.16h1.723v31.08H672.967z M671.035,676.464c-1.428-1.429-3.136-2.142-5.124-2.142
			c-2.016,0-3.725,0.699-5.124,2.1c-1.428,1.428-2.142,3.15-2.142,5.166c0,1.988,0.714,3.695,2.142,5.124
			c1.428,1.428,3.136,2.142,5.124,2.142c2.016,0,3.724-0.699,5.124-2.1c1.428-1.428,2.142-3.15,2.142-5.166
			C673.177,679.6,672.463,677.892,671.035,676.464z"/>
		<path d="M680.989,669.785c-0.309,0-0.63-0.125-0.966-0.377c-0.252-0.252-0.393-0.588-0.421-1.008c0-0.757,0.463-1.219,1.387-1.387
			c0.699,0,1.161,0.462,1.386,1.387C682.375,669.324,681.913,669.785,680.989,669.785z M680.107,690.24v-17.347h1.722v17.347
			H680.107z"/>
		<path d="M697.201,690.24v-10.375c0-3.668-1.652-5.502-4.956-5.502c-1.624,0-2.856,0.477-3.696,1.428
			c-0.868,0.953-1.302,2.255-1.302,3.906v10.543h-1.722v-17.347h1.722v2.101c0.783-1.54,2.449-2.311,4.998-2.311
			c2.155,0,3.808,0.616,4.956,1.848c1.147,1.232,1.722,2.955,1.722,5.166v10.543H697.201z"/>
		<path d="M718.41,696.035c-1.568,1.568-3.626,2.353-6.174,2.353c-4.732,0-7.56-1.862-8.484-5.586h1.723
			c0.308,1.372,1.189,2.394,2.646,3.065c1.148,0.532,2.521,0.799,4.116,0.799c2.156,0,3.822-0.603,4.998-1.807
			c1.203-1.203,1.806-2.884,1.806-5.039v-2.563c-1.82,2.184-4.13,3.275-6.93,3.275c-2.52,0-4.635-0.854-6.342-2.562
			c-1.736-1.735-2.604-3.864-2.604-6.384s0.854-4.634,2.563-6.342c1.735-1.736,3.864-2.604,6.384-2.604
			c2.772,0,5.082,1.093,6.93,3.276v-3.024h1.723v16.968C720.763,692.409,719.979,694.467,718.41,696.035z M717.234,676.464
			c-1.428-1.429-3.137-2.142-5.124-2.142c-2.016,0-3.725,0.699-5.124,2.1c-1.428,1.428-2.142,3.15-2.142,5.166
			c0,1.988,0.714,3.695,2.142,5.124c1.428,1.428,3.136,2.142,5.124,2.142c2.016,0,3.724-0.699,5.124-2.1
			c1.428-1.428,2.142-3.15,2.142-5.166C719.376,679.6,718.662,677.892,717.234,676.464z"/>
	</g>
</g>
<g>
	<g>
		<path d="M880.583,292.898c-1.568,1.568-3.626,2.352-6.174,2.352c-4.732,0-7.56-1.862-8.484-5.586h1.723
			c0.308,1.372,1.189,2.394,2.646,3.066c1.148,0.532,2.521,0.798,4.116,0.798c2.156,0,3.822-0.602,4.998-1.806
			c1.203-1.204,1.806-2.884,1.806-5.04v-2.562c-1.82,2.184-4.13,3.276-6.93,3.276c-2.52,0-4.635-0.854-6.342-2.562
			c-1.736-1.736-2.604-3.864-2.604-6.384s0.854-4.634,2.563-6.342c1.735-1.736,3.864-2.604,6.384-2.604
			c2.772,0,5.082,1.092,6.93,3.276v-3.024h1.723v16.968C882.936,289.271,882.151,291.33,880.583,292.898z M879.407,273.326
			c-1.428-1.428-3.137-2.142-5.124-2.142c-2.016,0-3.725,0.7-5.124,2.1c-1.428,1.428-2.142,3.15-2.142,5.166
			c0,1.988,0.714,3.696,2.142,5.124c1.428,1.428,3.136,2.142,5.124,2.142c2.016,0,3.724-0.699,5.124-2.1
			c1.428-1.428,2.142-3.15,2.142-5.166C881.549,276.462,880.835,274.754,879.407,273.326z"/>
		<path d="M902.003,292.898c-1.568,1.568-3.626,2.352-6.174,2.352c-4.732,0-7.56-1.862-8.484-5.586h1.723
			c0.308,1.372,1.189,2.394,2.646,3.066c1.148,0.532,2.521,0.798,4.116,0.798c2.156,0,3.822-0.602,4.998-1.806
			c1.203-1.204,1.806-2.884,1.806-5.04v-2.562c-1.82,2.184-4.13,3.276-6.93,3.276c-2.52,0-4.635-0.854-6.342-2.562
			c-1.736-1.736-2.604-3.864-2.604-6.384s0.854-4.634,2.563-6.342c1.735-1.736,3.864-2.604,6.384-2.604
			c2.772,0,5.082,1.092,6.93,3.276v-3.024h1.723v16.968C904.355,289.271,903.571,291.33,902.003,292.898z M900.827,273.326
			c-1.428-1.428-3.137-2.142-5.124-2.142c-2.016,0-3.725,0.7-5.124,2.1c-1.428,1.428-2.142,3.15-2.142,5.166
			c0,1.988,0.714,3.696,2.142,5.124c1.428,1.428,3.136,2.142,5.124,2.142c2.016,0,3.724-0.699,5.124-2.1
			c1.428-1.428,2.142-3.15,2.142-5.166C902.969,276.462,902.255,274.754,900.827,273.326z"/>
		<path d="M923.423,292.898c-1.568,1.568-3.626,2.352-6.174,2.352c-4.732,0-7.56-1.862-8.484-5.586h1.723
			c0.308,1.372,1.189,2.394,2.646,3.066c1.148,0.532,2.521,0.798,4.116,0.798c2.156,0,3.822-0.602,4.998-1.806
			c1.203-1.204,1.806-2.884,1.806-5.04v-2.562c-1.82,2.184-4.13,3.276-6.93,3.276c-2.52,0-4.635-0.854-6.342-2.562
			c-1.736-1.736-2.604-3.864-2.604-6.384s0.854-4.634,2.563-6.342c1.735-1.736,3.864-2.604,6.384-2.604
			c2.772,0,5.082,1.092,6.93,3.276v-3.024h1.723v16.968C925.775,289.271,924.991,291.33,923.423,292.898z M922.247,273.326
			c-1.428-1.428-3.137-2.142-5.124-2.142c-2.016,0-3.725,0.7-5.124,2.1c-1.428,1.428-2.142,3.15-2.142,5.166
			c0,1.988,0.714,3.696,2.142,5.124c1.428,1.428,3.136,2.142,5.124,2.142c2.016,0,3.724-0.699,5.124-2.1
			c1.428-1.428,2.142-3.15,2.142-5.166C924.389,276.462,923.675,274.754,922.247,273.326z"/>
		<path d="M931.655,274.964c-0.309,0-0.63-0.126-0.967-0.378c-0.252-0.252-0.392-0.588-0.42-1.008c0-0.756,0.462-1.218,1.387-1.386
			c0.699,0,1.161,0.462,1.386,1.386C933.041,274.502,932.579,274.964,931.655,274.964z M931.655,287.354
			c-0.309,0-0.63-0.126-0.967-0.378c-0.252-0.252-0.392-0.588-0.42-1.008c0-0.756,0.462-1.218,1.387-1.386
			c0.699,0,1.161,0.462,1.386,1.386C933.041,286.892,932.579,287.354,931.655,287.354z"/>
		<path d="M954.209,284.666c-1.82,1.624-4.047,2.436-6.679,2.436h-9.365v-29.988h7.308c2.324,0,4.172,0.602,5.544,1.806
			c1.456,1.289,2.184,3.081,2.184,5.376c0,2.632-1.078,4.564-3.233,5.796c2.1,0.42,3.794,1.372,5.082,2.856
			c1.26,1.484,1.89,3.304,1.89,5.46C956.938,280.984,956.028,283.07,954.209,284.666z M949.799,260.348
			c-1.148-1.008-2.549-1.512-4.2-1.512h-5.754v10.92h6.006c1.624,0,2.968-0.504,4.032-1.512c1.063-1.008,1.596-2.324,1.596-3.948
			C951.479,262.616,950.918,261.3,949.799,260.348z M952.948,273.326c-1.428-1.232-3.22-1.848-5.376-1.848h-7.728v13.902h7.728
			c2.128,0,3.934-0.644,5.418-1.932c1.513-1.288,2.269-2.968,2.269-5.04C955.259,276.308,954.488,274.614,952.948,273.326z"/>
		<path d="M972.269,285.59c-1.148,1.232-2.759,1.848-4.83,1.848c-2.045,0-3.627-0.602-4.746-1.806
			c-1.12-1.203-1.681-2.883-1.681-5.04v-10.836h1.723v10.836c0,1.652,0.363,2.926,1.092,3.822c0.756,0.896,1.96,1.344,3.612,1.344
			c3.22,0,4.83-1.722,4.83-5.166v-10.836h1.68v10.836C973.948,282.72,973.388,284.387,972.269,285.59z"/>
		<path d="M978.484,266.648c-0.309,0-0.63-0.126-0.966-0.378c-0.252-0.252-0.393-0.588-0.421-1.008c0-0.756,0.463-1.218,1.387-1.386
			c0.699,0,1.161,0.462,1.386,1.386C979.87,266.186,979.408,266.648,978.484,266.648z M977.603,287.102v-17.346h1.722v17.346
			H977.603z"/>
		<path d="M983.439,287.102v-31.08h1.68v31.08H983.439z"/>
		<path d="M1005.11,287.102v-3.108c-1.848,2.268-4.199,3.402-7.056,3.402c-2.52,0-4.635-0.854-6.342-2.562
			c-1.736-1.736-2.604-3.864-2.604-6.384s0.854-4.634,2.563-6.342c1.735-1.736,3.864-2.604,6.384-2.604
			c2.772,0,5.124,1.134,7.056,3.402v-16.884h1.723v31.08H1005.11z M1003.179,273.326c-1.428-1.428-3.136-2.142-5.124-2.142
			c-2.016,0-3.725,0.7-5.124,2.1c-1.428,1.428-2.142,3.15-2.142,5.166c0,1.988,0.714,3.696,2.142,5.124
			c1.428,1.428,3.136,2.142,5.124,2.142c2.016,0,3.724-0.699,5.124-2.1c1.428-1.428,2.142-3.15,2.142-5.166
			C1005.32,276.462,1004.606,274.754,1003.179,273.326z"/>
		<path d="M1013.133,266.648c-0.309,0-0.63-0.126-0.966-0.378c-0.252-0.252-0.393-0.588-0.421-1.008
			c0-0.756,0.463-1.218,1.387-1.386c0.699,0,1.161,0.462,1.386,1.386C1014.519,266.186,1014.057,266.648,1013.133,266.648z
			 M1012.251,287.102v-17.346h1.722v17.346H1012.251z"/>
		<path d="M1029.346,287.102v-10.374c0-3.668-1.652-5.502-4.956-5.502c-1.624,0-2.856,0.477-3.696,1.428
			c-0.868,0.953-1.302,2.254-1.302,3.906v10.542h-1.722v-17.346h1.722v2.1c0.783-1.54,2.449-2.31,4.998-2.31
			c2.155,0,3.808,0.616,4.956,1.848c1.147,1.232,1.722,2.955,1.722,5.166v10.542H1029.346z"/>
		<path d="M1050.555,292.898c-1.568,1.568-3.626,2.352-6.174,2.352c-4.732,0-7.56-1.862-8.484-5.586h1.723
			c0.308,1.372,1.189,2.394,2.646,3.066c1.148,0.532,2.521,0.798,4.116,0.798c2.156,0,3.822-0.602,4.998-1.806
			c1.203-1.204,1.806-2.884,1.806-5.04v-2.562c-1.82,2.184-4.13,3.276-6.93,3.276c-2.52,0-4.635-0.854-6.342-2.562
			c-1.736-1.736-2.604-3.864-2.604-6.384s0.854-4.634,2.563-6.342c1.735-1.736,3.864-2.604,6.384-2.604
			c2.772,0,5.082,1.092,6.93,3.276v-3.024h1.723v16.968C1052.907,289.271,1052.123,291.33,1050.555,292.898z M1049.379,273.326
			c-1.428-1.428-3.137-2.142-5.124-2.142c-2.016,0-3.725,0.7-5.124,2.1c-1.428,1.428-2.142,3.15-2.142,5.166
			c0,1.988,0.714,3.696,2.142,5.124c1.428,1.428,3.136,2.142,5.124,2.142c2.016,0,3.724-0.699,5.124-2.1
			c1.428-1.428,2.142-3.15,2.142-5.166C1051.521,276.462,1050.807,274.754,1049.379,273.326z"/>
	</g>
</g>
<path fill="#EDEDED" stroke="#000000" stroke-width="0.5" stroke-miterlimit="10" d="M1086.794,824.863
	c0,8.879-7.207,16.084-16.096,16.084H848.424c-8.889,0-16.09-7.205-16.09-16.084v-27.41c0-8.881,7.201-16.082,16.09-16.082h222.274
	c8.889,0,16.096,7.201,16.096,16.082V824.863z"/>
<g>
	<g>
		<path d="M883.354,824.661v-10.458c0-3.668-1.708-5.502-5.124-5.502c-1.4,0-2.604,0.42-3.612,1.26
			c-1.036,0.84-1.554,1.961-1.554,3.36v11.298h-1.722v-31.08h1.722v16.044c1.035-1.708,2.758-2.562,5.166-2.562
			c4.563,0,6.846,2.338,6.846,7.014v10.626H883.354z"/>
		<path d="M901.54,824.661v-10.458c0-3.668-1.708-5.502-5.124-5.502c-1.4,0-2.604,0.42-3.612,1.26
			c-1.036,0.84-1.554,1.961-1.554,3.36v11.298h-1.722v-31.08h1.722v16.044c1.035-1.708,2.758-2.562,5.166-2.562
			c4.563,0,6.846,2.338,6.846,7.014v10.626H901.54z"/>
		<path d="M919.727,824.661v-10.458c0-3.668-1.708-5.502-5.124-5.502c-1.4,0-2.604,0.42-3.612,1.26
			c-1.036,0.84-1.554,1.961-1.554,3.36v11.298h-1.722v-31.08h1.722v16.044c1.035-1.708,2.758-2.562,5.166-2.562
			c4.563,0,6.846,2.338,6.846,7.014v10.626H919.727z"/>
		<path d="M927.286,812.48c-0.309,0-0.63-0.125-0.967-0.377c-0.252-0.252-0.392-0.588-0.42-1.008c0-0.756,0.462-1.219,1.387-1.387
			c0.699,0,1.161,0.462,1.386,1.387C928.672,812.02,928.21,812.48,927.286,812.48z M927.286,824.871
			c-0.309,0-0.63-0.126-0.967-0.378c-0.252-0.252-0.392-0.588-0.42-1.008c0-0.757,0.462-1.218,1.387-1.386
			c0.699,0,1.161,0.461,1.386,1.386C928.672,824.409,928.21,824.871,927.286,824.871z"/>
		<path d="M949.84,822.184c-1.82,1.623-4.047,2.436-6.679,2.436h-9.365v-29.988h7.308c2.324,0,4.172,0.603,5.544,1.807
			c1.456,1.288,2.184,3.08,2.184,5.375c0,2.633-1.078,4.564-3.233,5.797c2.1,0.42,3.794,1.372,5.082,2.855
			c1.26,1.484,1.89,3.305,1.89,5.461C952.569,818.502,951.659,820.587,949.84,822.184z M945.43,797.865
			c-1.148-1.008-2.549-1.512-4.2-1.512h-5.754v10.92h6.006c1.624,0,2.968-0.504,4.032-1.512c1.063-1.009,1.596-2.324,1.596-3.949
			C947.109,800.133,946.549,798.817,945.43,797.865z M948.579,810.844c-1.428-1.232-3.22-1.849-5.376-1.849h-7.728v13.901h7.728
			c2.128,0,3.934-0.643,5.418-1.932c1.513-1.287,2.269-2.967,2.269-5.039C950.89,813.825,950.119,812.131,948.579,810.844z"/>
		<path d="M967.899,823.107c-1.148,1.232-2.759,1.848-4.83,1.848c-2.045,0-3.627-0.602-4.746-1.807
			c-1.12-1.203-1.681-2.883-1.681-5.039v-10.836h1.723v10.836c0,1.652,0.363,2.926,1.092,3.822c0.756,0.896,1.96,1.344,3.612,1.344
			c3.22,0,4.83-1.723,4.83-5.166v-10.836h1.68v10.836C969.579,820.237,969.019,821.904,967.899,823.107z"/>
		<path d="M974.115,804.165c-0.309,0-0.63-0.126-0.966-0.378c-0.252-0.252-0.393-0.588-0.421-1.008c0-0.756,0.463-1.219,1.387-1.387
			c0.699,0,1.161,0.463,1.386,1.387C975.501,803.703,975.039,804.165,974.115,804.165z M973.233,824.619v-17.346h1.722v17.346
			H973.233z"/>
		<path d="M979.071,824.619v-31.08h1.68v31.08H979.071z"/>
		<path d="M1000.742,824.619v-3.107c-1.848,2.268-4.199,3.401-7.056,3.401c-2.52,0-4.635-0.854-6.342-2.562
			c-1.736-1.736-2.604-3.864-2.604-6.385c0-2.52,0.854-4.633,2.563-6.342c1.735-1.736,3.864-2.604,6.384-2.604
			c2.772,0,5.124,1.134,7.056,3.402v-16.885h1.723v31.08H1000.742z M998.811,810.844c-1.428-1.429-3.136-2.143-5.124-2.143
			c-2.016,0-3.725,0.7-5.124,2.1c-1.428,1.428-2.142,3.15-2.142,5.166c0,1.988,0.714,3.696,2.142,5.125
			c1.428,1.428,3.136,2.141,5.124,2.141c2.016,0,3.724-0.699,5.124-2.1c1.428-1.428,2.142-3.15,2.142-5.166
			C1000.952,813.979,1000.238,812.271,998.811,810.844z"/>
		<path d="M1008.765,804.165c-0.309,0-0.63-0.126-0.966-0.378c-0.252-0.252-0.393-0.588-0.421-1.008
			c0-0.756,0.463-1.219,1.387-1.387c0.699,0,1.161,0.463,1.386,1.387C1010.15,803.703,1009.688,804.165,1008.765,804.165z
			 M1007.883,824.619v-17.346h1.722v17.346H1007.883z"/>
		<path d="M1024.977,824.619v-10.374c0-3.668-1.652-5.502-4.956-5.502c-1.624,0-2.856,0.477-3.696,1.428
			c-0.868,0.952-1.302,2.255-1.302,3.906v10.542h-1.722v-17.346h1.722v2.1c0.783-1.539,2.449-2.311,4.998-2.311
			c2.155,0,3.808,0.617,4.956,1.849c1.147,1.232,1.722,2.954,1.722,5.166v10.542H1024.977z"/>
		<path d="M1046.186,830.415c-1.568,1.567-3.626,2.353-6.174,2.353c-4.732,0-7.56-1.863-8.484-5.586h1.723
			c0.308,1.371,1.189,2.394,2.646,3.065c1.148,0.532,2.521,0.798,4.116,0.798c2.156,0,3.822-0.602,4.998-1.806
			c1.203-1.204,1.806-2.884,1.806-5.04v-2.563c-1.82,2.185-4.13,3.276-6.93,3.276c-2.52,0-4.635-0.854-6.342-2.562
			c-1.736-1.736-2.604-3.864-2.604-6.385c0-2.52,0.854-4.633,2.563-6.342c1.735-1.736,3.864-2.604,6.384-2.604
			c2.772,0,5.082,1.092,6.93,3.275v-3.023h1.723v16.968C1048.538,826.789,1047.754,828.847,1046.186,830.415z M1045.01,810.844
			c-1.428-1.429-3.137-2.143-5.124-2.143c-2.016,0-3.725,0.7-5.124,2.1c-1.428,1.428-2.142,3.15-2.142,5.166
			c0,1.988,0.714,3.696,2.142,5.125c1.428,1.428,3.136,2.141,5.124,2.141c2.016,0,3.724-0.699,5.124-2.1
			c1.428-1.428,2.142-3.15,2.142-5.166C1047.151,813.979,1046.438,812.271,1045.01,810.844z"/>
	</g>
</g>
<g>
	<g>
		<line fill="none" stroke="#000000" stroke-miterlimit="10" x1="879.281" y1="303.43" x2="776.34" y2="605.627"/>
		<g>
			<polygon points="773.74,601.773 776.738,604.457 780.752,604.162 774.416,611.277 			"/>
		</g>
	</g>
</g>
<g>
	<g>
		<line fill="none" stroke="#000000" stroke-miterlimit="10" x1="857.266" y1="314.196" x2="743.583" y2="647.924"/>
		<g>
			<polygon points="852.854,315.66 856.867,315.365 859.865,318.048 859.19,308.545 			"/>
		</g>
	</g>
</g>
<g>
	<g>
		<line fill="none" stroke="#000000" stroke-miterlimit="10" x1="1039.841" y1="303.43" x2="1142.782" y2="605.627"/>
		<g>
			<polygon points="1138.371,604.162 1142.384,604.457 1145.382,601.773 1144.707,611.277 			"/>
		</g>
	</g>
</g>
<g>
	<g>
		<line fill="none" stroke="#000000" stroke-miterlimit="10" x1="1061.857" y1="314.196" x2="1175.54" y2="647.924"/>
		<g>
			<polygon points="1059.258,318.048 1062.256,315.365 1066.269,315.66 1059.933,308.545 			"/>
		</g>
	</g>
</g>
<g>
	<g>
		<line fill="none" stroke="#000000" stroke-miterlimit="10" x1="879.281" y1="781.372" x2="776.34" y2="479.175"/>
		<g>
			<polygon points="780.752,480.64 776.738,480.345 773.74,483.028 774.416,473.524 			"/>
		</g>
	</g>
</g>
<g>
	<g>
		<line fill="none" stroke="#000000" stroke-miterlimit="10" x1="857.266" y1="770.606" x2="743.583" y2="436.878"/>
		<g>
			<polygon points="859.865,766.753 856.867,769.437 852.854,769.142 859.19,776.257 			"/>
		</g>
	</g>
</g>
<g>
	<g>
		<line fill="none" stroke="#000000" stroke-miterlimit="10" x1="1039.841" y1="781.372" x2="1142.782" y2="479.175"/>
		<g>
			<polygon points="1145.382,483.028 1142.384,480.345 1138.371,480.64 1144.707,473.524 			"/>
		</g>
	</g>
</g>
<g>
	<g>
		<line fill="none" stroke="#000000" stroke-miterlimit="10" x1="1061.857" y1="770.606" x2="1175.54" y2="436.878"/>
		<g>
			<polygon points="1066.269,769.142 1062.256,769.437 1059.258,766.753 1059.933,776.257 			"/>
		</g>
	</g>
</g>
<g>
	<g>
		<line fill="none" stroke="#000000" stroke-miterlimit="10" x1="754.273" y1="413.096" x2="1183.017" y2="514.098"/>
		<g>
			<polygon points="1179.434,517.059 1181.814,513.814 1181.132,509.85 1188.827,515.467 			"/>
		</g>
	</g>
</g>
<g>
	<g>
		<line fill="none" stroke="#000000" stroke-miterlimit="10" x1="761.743" y1="432.7" x2="1198.534" y2="535.599"/>
		<g>
			<polygon points="763.628,436.948 762.945,432.983 765.326,429.739 755.933,431.331 			"/>
		</g>
	</g>
</g>
<g>
	<g>
		<line fill="none" stroke="#000000" stroke-miterlimit="10" x1="1164.848" y1="413.096" x2="736.105" y2="514.098"/>
		<g>
			<polygon points="737.99,509.85 737.309,513.814 739.689,517.059 730.295,515.467 			"/>
		</g>
	</g>
</g>
<g>
	<g>
		<line fill="none" stroke="#000000" stroke-miterlimit="10" x1="1157.379" y1="432.7" x2="720.588" y2="535.599"/>
		<g>
			<polygon points="1153.796,429.739 1156.177,432.983 1155.494,436.948 1163.189,431.331 			"/>
		</g>
	</g>
</g>
<g>
	<g>
		<line fill="none" stroke="#000000" stroke-miterlimit="10" x1="754.277" y1="671.704" x2="1183.021" y2="570.703"/>
		<g>
			<polygon points="1181.136,574.951 1181.818,570.986 1179.438,567.742 1188.831,569.334 			"/>
		</g>
	</g>
</g>
<g>
	<g>
		<line fill="none" stroke="#000000" stroke-miterlimit="10" x1="761.747" y1="652.101" x2="1198.538" y2="549.202"/>
		<g>
			<polygon points="765.33,655.062 762.949,651.817 763.632,647.853 755.937,653.47 			"/>
		</g>
	</g>
</g>
<g>
	<g>
		<line fill="none" stroke="#000000" stroke-miterlimit="10" x1="1164.852" y1="671.704" x2="736.109" y2="570.703"/>
		<g>
			<polygon points="739.693,567.742 737.313,570.986 737.994,574.951 730.299,569.334 			"/>
		</g>
	</g>
</g>
<g>
	<g>
		<line fill="none" stroke="#000000" stroke-miterlimit="10" x1="1157.383" y1="652.101" x2="720.592" y2="549.202"/>
		<g>
			<polygon points="1155.498,647.853 1156.181,651.817 1153.8,655.062 1163.193,653.47 			"/>
		</g>
	</g>
</g>
</svg>
