<?xml version="1.0" encoding="utf-8"?>
<!-- Generator: Adobe Illustrator 16.0.0, SVG Export Plug-In . SVG Version: 6.00 Build 0)  -->
<!DOCTYPE svg PUBLIC "-//W3C//DTD SVG 1.1//EN" "http://www.w3.org/Graphics/SVG/1.1/DTD/svg11.dtd">
<svg version="1.1" id="Layer_1" xmlns="http://www.w3.org/2000/svg" xmlns:xlink="http://www.w3.org/1999/xlink" x="0px" y="0px"
	 width="1920px" height="1080px" viewBox="0 0 1920 1080" enable-background="new 0 0 1920 1080" xml:space="preserve">
<g>
	<g>
		<line fill="none" stroke="#000000" stroke-miterlimit="10" x1="1098.119" y1="542.017" x2="1198.222" y2="542.017"/>
		<g>
			<polygon points="1100.928,545.72 1099.354,542.017 1100.928,538.313 1092.149,542.017 			"/>
		</g>
	</g>
</g>
<g>
	<g>
		<line fill="none" stroke="#000000" stroke-miterlimit="10" x1="720.281" y1="542.017" x2="820.38" y2="542.017"/>
		<g>
			<polygon points="817.571,545.72 819.145,542.017 817.571,538.313 826.35,542.017 			"/>
		</g>
	</g>
</g>
<g>
	<g>
		<line fill="none" stroke="#000000" stroke-miterlimit="10" x1="959.252" y1="583.443" x2="959.248" y2="780.987"/>
		<g>
			<polygon points="955.549,586.252 959.252,584.679 962.954,586.252 959.252,577.474 			"/>
		</g>
	</g>
</g>
<g>
	<g>
		<line fill="none" stroke="#000000" stroke-miterlimit="10" x1="959.252" y1="303.046" x2="959.252" y2="500.59"/>
		<g>
			<polygon points="955.549,497.781 959.252,499.354 962.954,497.781 959.252,506.559 			"/>
		</g>
	</g>
</g>
<g>
	<g>
		<line fill="none" stroke="#000000" stroke-miterlimit="10" x1="1033.43" y1="580.258" x2="1169.12" y2="651.766"/>
		<g>
			<polygon points="1034.188,584.843 1034.522,580.834 1037.641,578.291 1028.148,577.475 			"/>
		</g>
	</g>
</g>
<g>
	<g>
		<line fill="none" stroke="#000000" stroke-miterlimit="10" x1="750.58" y1="431.197" x2="888.303" y2="503.776"/>
		<g>
			<polygon points="884.092,505.743 887.21,503.2 887.545,499.191 893.584,506.56 			"/>
		</g>
	</g>
</g>
<path fill="#EDEDED" stroke="#000000" stroke-width="0.5" stroke-miterlimit="10" d="M720.281,555.721
	c0,8.879-7.207,16.084-16.096,16.084H481.91c-8.889,0-16.09-7.205-16.09-16.084v-27.41c0-8.881,7.201-16.082,16.09-16.082h222.275
	c8.889,0,16.096,7.201,16.096,16.082V555.721z"/>
<g>
	<g>
		<path d="M514.699,555.477v-2.982c-1.82,2.185-4.13,3.276-6.93,3.276c-2.52,0-4.635-0.854-6.342-2.562
			c-1.736-1.736-2.604-3.864-2.604-6.385c0-2.52,0.854-4.633,2.563-6.342c1.735-1.736,3.864-2.604,6.384-2.604
			c2.772,0,5.082,1.092,6.93,3.275v-3.023h1.723v17.346H514.699z M512.894,541.701c-1.428-1.429-3.137-2.143-5.124-2.143
			c-2.016,0-3.725,0.7-5.124,2.1c-1.428,1.428-2.142,3.15-2.142,5.166c0,1.988,0.714,3.696,2.142,5.125
			c1.428,1.428,3.136,2.141,5.124,2.141c2.016,0,3.724-0.699,5.124-2.1c1.428-1.428,2.142-3.15,2.142-5.166
			C515.035,544.837,514.321,543.129,512.894,541.701z"/>
		<path d="M536.119,555.477v-2.982c-1.82,2.185-4.13,3.276-6.93,3.276c-2.52,0-4.635-0.854-6.342-2.562
			c-1.736-1.736-2.604-3.864-2.604-6.385c0-2.52,0.854-4.633,2.563-6.342c1.735-1.736,3.864-2.604,6.384-2.604
			c2.772,0,5.082,1.092,6.93,3.275v-3.023h1.723v17.346H536.119z M534.313,541.701c-1.428-1.429-3.137-2.143-5.124-2.143
			c-2.016,0-3.725,0.7-5.124,2.1c-1.428,1.428-2.142,3.15-2.142,5.166c0,1.988,0.714,3.696,2.142,5.125
			c1.428,1.428,3.136,2.141,5.124,2.141c2.016,0,3.724-0.699,5.124-2.1c1.428-1.428,2.142-3.15,2.142-5.166
			C536.455,544.837,535.741,543.129,534.313,541.701z"/>
		<path d="M557.539,555.477v-2.982c-1.82,2.185-4.13,3.276-6.93,3.276c-2.52,0-4.635-0.854-6.342-2.562
			c-1.736-1.736-2.604-3.864-2.604-6.385c0-2.52,0.854-4.633,2.563-6.342c1.735-1.736,3.864-2.604,6.384-2.604
			c2.772,0,5.082,1.092,6.93,3.275v-3.023h1.723v17.346H557.539z M555.733,541.701c-1.428-1.429-3.137-2.143-5.124-2.143
			c-2.016,0-3.725,0.7-5.124,2.1c-1.428,1.428-2.142,3.15-2.142,5.166c0,1.988,0.714,3.696,2.142,5.125
			c1.428,1.428,3.136,2.141,5.124,2.141c2.016,0,3.724-0.699,5.124-2.1c1.428-1.428,2.142-3.15,2.142-5.166
			C557.875,544.837,557.161,543.129,555.733,541.701z"/>
		<path d="M565.142,543.338c-0.309,0-0.63-0.125-0.967-0.377c-0.252-0.252-0.392-0.588-0.42-1.008c0-0.756,0.462-1.219,1.387-1.387
			c0.699,0,1.161,0.462,1.386,1.387C566.527,542.877,566.065,543.338,565.142,543.338z M565.142,555.729
			c-0.309,0-0.63-0.126-0.967-0.378c-0.252-0.252-0.392-0.588-0.42-1.008c0-0.757,0.462-1.218,1.387-1.386
			c0.699,0,1.161,0.461,1.386,1.386C566.527,555.267,566.065,555.729,565.142,555.729z"/>
		<path d="M587.695,553.041c-1.82,1.623-4.047,2.436-6.679,2.436h-9.365v-29.988h7.308c2.324,0,4.172,0.603,5.544,1.807
			c1.456,1.288,2.184,3.08,2.184,5.375c0,2.633-1.078,4.564-3.233,5.797c2.1,0.42,3.794,1.372,5.082,2.855
			c1.26,1.484,1.89,3.305,1.89,5.461C590.425,549.359,589.515,551.444,587.695,553.041z M583.285,528.723
			c-1.148-1.008-2.549-1.512-4.2-1.512h-5.754v10.92h6.006c1.624,0,2.968-0.504,4.032-1.512c1.063-1.009,1.596-2.324,1.596-3.949
			C584.965,530.99,584.404,529.675,583.285,528.723z M586.435,541.701c-1.428-1.232-3.22-1.849-5.376-1.849h-7.728v13.901h7.728
			c2.128,0,3.934-0.643,5.418-1.932c1.513-1.287,2.269-2.967,2.269-5.039C588.745,544.683,587.975,542.988,586.435,541.701z"/>
		<path d="M605.755,553.965c-1.148,1.232-2.759,1.848-4.83,1.848c-2.045,0-3.627-0.602-4.746-1.807
			c-1.12-1.203-1.681-2.883-1.681-5.039v-10.836h1.723v10.836c0,1.652,0.363,2.926,1.092,3.822c0.756,0.896,1.96,1.344,3.612,1.344
			c3.22,0,4.83-1.723,4.83-5.166v-10.836h1.68v10.836C607.435,551.095,606.874,552.762,605.755,553.965z"/>
		<path d="M611.971,535.022c-0.309,0-0.63-0.126-0.966-0.378c-0.252-0.252-0.393-0.588-0.421-1.008c0-0.756,0.463-1.219,1.387-1.387
			c0.699,0,1.161,0.463,1.386,1.387C613.356,534.561,612.895,535.022,611.971,535.022z M611.089,555.477v-17.346h1.722v17.346
			H611.089z"/>
		<path d="M616.926,555.477v-31.08h1.68v31.08H616.926z"/>
		<path d="M638.597,555.477v-3.107c-1.848,2.268-4.199,3.401-7.056,3.401c-2.52,0-4.635-0.854-6.342-2.562
			c-1.736-1.736-2.604-3.864-2.604-6.385c0-2.52,0.854-4.633,2.563-6.342c1.735-1.736,3.864-2.604,6.384-2.604
			c2.772,0,5.124,1.134,7.056,3.402v-16.885h1.723v31.08H638.597z M636.665,541.701c-1.428-1.429-3.136-2.143-5.124-2.143
			c-2.016,0-3.725,0.7-5.124,2.1c-1.428,1.428-2.142,3.15-2.142,5.166c0,1.988,0.714,3.696,2.142,5.125
			c1.428,1.428,3.136,2.141,5.124,2.141c2.016,0,3.724-0.699,5.124-2.1c1.428-1.428,2.142-3.15,2.142-5.166
			C638.807,544.837,638.093,543.129,636.665,541.701z"/>
		<path d="M646.619,535.022c-0.309,0-0.63-0.126-0.966-0.378c-0.252-0.252-0.393-0.588-0.421-1.008c0-0.756,0.463-1.219,1.387-1.387
			c0.699,0,1.161,0.463,1.386,1.387C648.005,534.561,647.543,535.022,646.619,535.022z M645.737,555.477v-17.346h1.722v17.346
			H645.737z"/>
		<path d="M662.832,555.477v-10.374c0-3.668-1.652-5.502-4.956-5.502c-1.624,0-2.856,0.477-3.696,1.428
			c-0.868,0.952-1.302,2.255-1.302,3.906v10.542h-1.722v-17.346h1.722v2.1c0.783-1.539,2.449-2.311,4.998-2.311
			c2.155,0,3.808,0.617,4.956,1.849c1.147,1.232,1.722,2.954,1.722,5.166v10.542H662.832z"/>
		<path d="M684.041,561.272c-1.568,1.567-3.626,2.353-6.174,2.353c-4.732,0-7.56-1.863-8.484-5.586h1.723
			c0.308,1.371,1.189,2.394,2.646,3.065c1.148,0.532,2.521,0.798,4.116,0.798c2.156,0,3.822-0.602,4.998-1.806
			c1.203-1.204,1.806-2.884,1.806-5.04v-2.563c-1.82,2.185-4.13,3.276-6.93,3.276c-2.52,0-4.635-0.854-6.342-2.562
			c-1.736-1.736-2.604-3.864-2.604-6.385c0-2.52,0.854-4.633,2.563-6.342c1.735-1.736,3.864-2.604,6.384-2.604
			c2.772,0,5.082,1.092,6.93,3.275v-3.023h1.723v16.968C686.394,557.646,685.609,559.704,684.041,561.272z M682.865,541.701
			c-1.428-1.429-3.137-2.143-5.124-2.143c-2.016,0-3.725,0.7-5.124,2.1c-1.428,1.428-2.142,3.15-2.142,5.166
			c0,1.988,0.714,3.696,2.142,5.125c1.428,1.428,3.136,2.141,5.124,2.141c2.016,0,3.724-0.699,5.124-2.1
			c1.428-1.428,2.142-3.15,2.142-5.166C685.007,544.837,684.293,543.129,682.865,541.701z"/>
	</g>
</g>
<path fill="#EDEDED" stroke="#000000" stroke-width="0.5" stroke-miterlimit="10" d="M1452.683,555.721
	c0,8.879-7.207,16.084-16.096,16.084h-222.275c-8.889,0-16.09-7.205-16.09-16.084v-27.41c0-8.881,7.201-16.082,16.09-16.082h222.275
	c8.889,0,16.096,7.201,16.096,16.082V555.721z"/>
<g>
	<g>
		<path d="M1246.827,553.166c-1.736,1.736-3.863,2.604-6.383,2.604c-2.885,0-5.25-1.161-7.098-3.485v3.191h-1.723v-31.08h1.723
			v16.969c1.818-2.324,4.186-3.486,7.098-3.486c2.52,0,4.633,0.854,6.342,2.562c1.736,1.736,2.604,3.864,2.604,6.384
			C1249.39,549.345,1248.536,551.459,1246.827,553.166z M1245.567,541.701c-1.428-1.429-3.135-2.143-5.123-2.143
			c-2.016,0-3.725,0.7-5.125,2.1c-1.428,1.428-2.141,3.15-2.141,5.166c0,1.988,0.713,3.696,2.141,5.125
			c1.428,1.428,3.137,2.141,5.125,2.141c2.016,0,3.723-0.699,5.123-2.1c1.428-1.428,2.143-3.15,2.143-5.166
			C1247.71,544.837,1246.995,543.129,1245.567,541.701z"/>
		<path d="M1268.542,553.166c-1.736,1.736-3.863,2.604-6.385,2.604c-2.883,0-5.25-1.161-7.098-3.485v3.191h-1.723v-31.08h1.723
			v16.969c1.82-2.324,4.186-3.486,7.098-3.486c2.521,0,4.635,0.854,6.342,2.562c1.736,1.736,2.605,3.864,2.605,6.384
			C1271.104,549.345,1270.249,551.459,1268.542,553.166z M1267.282,541.701c-1.428-1.429-3.137-2.143-5.125-2.143
			c-2.016,0-3.723,0.7-5.123,2.1c-1.428,1.428-2.143,3.15-2.143,5.166c0,1.988,0.715,3.696,2.143,5.125
			c1.428,1.428,3.135,2.141,5.123,2.141c2.018,0,3.725-0.699,5.125-2.1c1.428-1.428,2.143-3.15,2.143-5.166
			C1269.425,544.837,1268.71,543.129,1267.282,541.701z"/>
		<path d="M1290.255,553.166c-1.736,1.736-3.863,2.604-6.383,2.604c-2.885,0-5.25-1.161-7.098-3.485v3.191h-1.723v-31.08h1.723
			v16.969c1.818-2.324,4.186-3.486,7.098-3.486c2.52,0,4.633,0.854,6.342,2.562c1.736,1.736,2.604,3.864,2.604,6.384
			C1292.817,549.345,1291.964,551.459,1290.255,553.166z M1288.995,541.701c-1.428-1.429-3.135-2.143-5.123-2.143
			c-2.016,0-3.725,0.7-5.125,2.1c-1.428,1.428-2.141,3.15-2.141,5.166c0,1.988,0.713,3.696,2.141,5.125
			c1.428,1.428,3.137,2.141,5.125,2.141c2.016,0,3.723-0.699,5.123-2.1c1.428-1.428,2.143-3.15,2.143-5.166
			C1291.138,544.837,1290.423,543.129,1288.995,541.701z"/>
		<path d="M1297.983,543.338c-0.309,0-0.629-0.125-0.967-0.377c-0.252-0.252-0.391-0.588-0.42-1.008
			c0-0.756,0.463-1.219,1.387-1.387c0.699,0,1.162,0.462,1.387,1.387C1299.37,542.877,1298.907,543.338,1297.983,543.338z
			 M1297.983,555.729c-0.309,0-0.629-0.126-0.967-0.378c-0.252-0.252-0.391-0.588-0.42-1.008c0-0.757,0.463-1.218,1.387-1.386
			c0.699,0,1.162,0.461,1.387,1.386C1299.37,555.267,1298.907,555.729,1297.983,555.729z"/>
		<path d="M1320.538,553.041c-1.82,1.623-4.047,2.436-6.68,2.436h-9.365v-29.988h7.309c2.324,0,4.172,0.603,5.543,1.807
			c1.457,1.288,2.184,3.08,2.184,5.375c0,2.633-1.078,4.564-3.232,5.797c2.1,0.42,3.793,1.372,5.082,2.855
			c1.26,1.484,1.889,3.305,1.889,5.461C1323.267,549.359,1322.356,551.444,1320.538,553.041z M1316.128,528.723
			c-1.148-1.008-2.549-1.512-4.201-1.512h-5.754v10.92h6.006c1.625,0,2.969-0.504,4.033-1.512c1.063-1.009,1.596-2.324,1.596-3.949
			C1317.808,530.99,1317.247,529.675,1316.128,528.723z M1319.276,541.701c-1.428-1.232-3.219-1.849-5.375-1.849h-7.729v13.901
			h7.729c2.127,0,3.934-0.643,5.418-1.932c1.512-1.287,2.268-2.967,2.268-5.039C1321.587,544.683,1320.817,542.988,1319.276,541.701
			z"/>
		<path d="M1338.597,553.965c-1.148,1.232-2.758,1.848-4.83,1.848c-2.045,0-3.627-0.602-4.746-1.807
			c-1.119-1.203-1.68-2.883-1.68-5.039v-10.836h1.723v10.836c0,1.652,0.363,2.926,1.092,3.822c0.756,0.896,1.959,1.344,3.611,1.344
			c3.221,0,4.83-1.723,4.83-5.166v-10.836h1.68v10.836C1340.276,551.095,1339.716,552.762,1338.597,553.965z"/>
		<path d="M1344.813,535.022c-0.309,0-0.631-0.126-0.967-0.378c-0.252-0.252-0.393-0.588-0.42-1.008
			c0-0.756,0.463-1.219,1.387-1.387c0.699,0,1.16,0.463,1.385,1.387C1346.198,534.561,1345.737,535.022,1344.813,535.022z
			 M1343.931,555.477v-17.346h1.723v17.346H1343.931z"/>
		<path d="M1349.769,555.477v-31.08h1.68v31.08H1349.769z"/>
		<path d="M1371.44,555.477v-3.107c-1.848,2.268-4.199,3.401-7.057,3.401c-2.52,0-4.635-0.854-6.342-2.562
			c-1.736-1.736-2.604-3.864-2.604-6.385c0-2.52,0.854-4.633,2.563-6.342c1.734-1.736,3.863-2.604,6.383-2.604
			c2.773,0,5.125,1.134,7.057,3.402v-16.885h1.723v31.08H1371.44z M1369.509,541.701c-1.428-1.429-3.137-2.143-5.125-2.143
			c-2.016,0-3.725,0.7-5.123,2.1c-1.428,1.428-2.143,3.15-2.143,5.166c0,1.988,0.715,3.696,2.143,5.125
			c1.428,1.428,3.135,2.141,5.123,2.141c2.016,0,3.725-0.699,5.125-2.1c1.428-1.428,2.141-3.15,2.141-5.166
			C1371.649,544.837,1370.937,543.129,1369.509,541.701z"/>
		<path d="M1379.462,535.022c-0.309,0-0.629-0.126-0.965-0.378c-0.252-0.252-0.393-0.588-0.422-1.008
			c0-0.756,0.463-1.219,1.387-1.387c0.699,0,1.162,0.463,1.387,1.387C1380.849,534.561,1380.386,535.022,1379.462,535.022z
			 M1378.581,555.477v-17.346h1.721v17.346H1378.581z"/>
		<path d="M1395.675,555.477v-10.374c0-3.668-1.652-5.502-4.957-5.502c-1.623,0-2.855,0.477-3.695,1.428
			c-0.869,0.952-1.303,2.255-1.303,3.906v10.542h-1.721v-17.346h1.721v2.1c0.783-1.539,2.449-2.311,4.998-2.311
			c2.156,0,3.809,0.617,4.957,1.849c1.146,1.232,1.721,2.954,1.721,5.166v10.542H1395.675z"/>
		<path d="M1416.884,561.272c-1.568,1.567-3.627,2.353-6.174,2.353c-4.732,0-7.561-1.863-8.484-5.586h1.723
			c0.307,1.371,1.189,2.394,2.645,3.065c1.148,0.532,2.521,0.798,4.117,0.798c2.156,0,3.822-0.602,4.998-1.806
			c1.203-1.204,1.805-2.884,1.805-5.04v-2.563c-1.82,2.185-4.129,3.276-6.93,3.276c-2.52,0-4.635-0.854-6.342-2.562
			c-1.736-1.736-2.604-3.864-2.604-6.385c0-2.52,0.854-4.633,2.563-6.342c1.734-1.736,3.863-2.604,6.383-2.604
			c2.773,0,5.082,1.092,6.93,3.275v-3.023h1.723v16.968C1419.235,557.646,1418.452,559.704,1416.884,561.272z M1415.708,541.701
			c-1.428-1.429-3.137-2.143-5.125-2.143c-2.016,0-3.725,0.7-5.123,2.1c-1.428,1.428-2.143,3.15-2.143,5.166
			c0,1.988,0.715,3.696,2.143,5.125c1.428,1.428,3.135,2.141,5.123,2.141c2.016,0,3.725-0.699,5.125-2.1
			c1.428-1.428,2.141-3.15,2.141-5.166C1417.849,544.837,1417.136,543.129,1415.708,541.701z"/>
	</g>
</g>
<path fill="#C8DCE6" stroke="#000000" stroke-width="0.5" stroke-miterlimit="10" d="M1086.48,555.721
	c0,8.879-7.207,16.084-16.096,16.084H848.109c-8.889,0-16.09-7.205-16.09-16.084v-27.41c0-8.881,7.201-16.082,16.09-16.082h222.275
	c8.889,0,16.096,7.201,16.096,16.082V555.721z"/>
<g>
	<g>
		<path d="M965.653,536.156c-0.141,0.196-0.504,0.519-1.092,0.967c-0.588,0.447-1.386,1.035-2.395,1.764l-3.527,2.563
			c-1.4,1.008-2.101,2.24-2.101,3.695c0,0.672,0.238,1.204,0.714,1.596c0.477,0.393,1.064,0.588,1.765,0.588
			c1.035,0,1.917-0.293,2.646-0.881l1.009,1.385c-0.309,0.309-0.799,0.617-1.471,0.924l-0.966,0.253l-1.218,0.084
			c-1.092,0.084-2.086-0.237-2.982-0.966s-1.344-1.723-1.344-2.982c0-1.82,0.979-3.457,2.94-4.914l3.569-2.646
			c0.813-0.615,1.484-1.133,2.017-1.553c0.531-0.421,0.909-0.771,1.134-1.051c0.979-1.147,1.47-2.324,1.47-3.527
			c0-1.568-0.645-2.772-1.932-3.613c-1.148-0.727-2.535-1.092-4.158-1.092c-1.68,0-3.164,0.533-4.452,1.597
			c-0.756,0.616-1.54,1.624-2.352,3.024l-1.597-0.715c1.54-3.723,4.34-5.586,8.4-5.586c2.184,0,3.99,0.504,5.418,1.512
			c1.596,1.148,2.394,2.772,2.394,4.873C967.543,533.16,966.913,534.729,965.653,536.156z M958.808,555.603
			c-0.813,0-1.302-0.489-1.47-1.47c0-0.813,0.489-1.303,1.47-1.471c0.812,0,1.302,0.49,1.47,1.471
			C960.277,555.113,959.787,555.603,958.808,555.603z"/>
	</g>
</g>
<path fill="#EDEDED" stroke="#000000" stroke-width="0.5" stroke-miterlimit="10" d="M1086.481,286.962
	c0,8.879-7.207,16.084-16.096,16.084H848.111c-8.889,0-16.09-7.205-16.09-16.084v-27.41c0-8.881,7.201-16.082,16.09-16.082h222.274
	c8.889,0,16.096,7.201,16.096,16.082V286.962z"/>
<path fill="#EDEDED" stroke="#000000" stroke-width="0.5" stroke-miterlimit="10" d="M1419.295,421.341
	c0,8.879-7.207,16.084-16.096,16.084h-222.275c-8.889,0-16.09-7.205-16.09-16.084v-27.41c0-8.881,7.201-16.082,16.09-16.082h222.275
	c8.889,0,16.096,7.201,16.096,16.082V421.341z"/>
<g>
	<g>
		<path d="M1215.539,421.097v-3.108c-1.848,2.268-4.199,3.402-7.056,3.402c-2.52,0-4.635-0.854-6.342-2.562
			c-1.736-1.736-2.604-3.864-2.604-6.384s0.854-4.634,2.563-6.342c1.735-1.736,3.864-2.604,6.384-2.604
			c2.772,0,5.124,1.134,7.056,3.402v-16.884h1.723v31.08H1215.539z M1213.607,407.321c-1.428-1.428-3.136-2.142-5.124-2.142
			c-2.016,0-3.725,0.7-5.124,2.1c-1.428,1.428-2.142,3.15-2.142,5.166c0,1.988,0.714,3.696,2.142,5.124
			c1.428,1.428,3.136,2.142,5.124,2.142c2.016,0,3.724-0.699,5.124-2.1c1.428-1.428,2.142-3.15,2.142-5.166
			C1215.749,410.458,1215.035,408.749,1213.607,407.321z"/>
		<path d="M1235.363,421.097v-3.108c-1.848,2.268-4.199,3.402-7.056,3.402c-2.52,0-4.635-0.854-6.342-2.562
			c-1.736-1.736-2.604-3.864-2.604-6.384s0.854-4.634,2.563-6.342c1.735-1.736,3.864-2.604,6.384-2.604
			c2.772,0,5.124,1.134,7.056,3.402v-16.884h1.723v31.08H1235.363z M1233.432,407.321c-1.428-1.428-3.136-2.142-5.124-2.142
			c-2.016,0-3.725,0.7-5.124,2.1c-1.428,1.428-2.142,3.15-2.142,5.166c0,1.988,0.714,3.696,2.142,5.124
			c1.428,1.428,3.136,2.142,5.124,2.142c2.016,0,3.724-0.699,5.124-2.1c1.428-1.428,2.142-3.15,2.142-5.166
			C1235.573,410.458,1234.859,408.749,1233.432,407.321z"/>
		<path d="M1255.188,421.097v-3.108c-1.848,2.268-4.199,3.402-7.056,3.402c-2.52,0-4.635-0.854-6.342-2.562
			c-1.736-1.736-2.604-3.864-2.604-6.384s0.854-4.634,2.563-6.342c1.735-1.736,3.864-2.604,6.384-2.604
			c2.772,0,5.124,1.134,7.056,3.402v-16.884h1.723v31.08H1255.188z M1253.256,407.321c-1.428-1.428-3.136-2.142-5.124-2.142
			c-2.016,0-3.725,0.7-5.124,2.1c-1.428,1.428-2.142,3.15-2.142,5.166c0,1.988,0.714,3.696,2.142,5.124
			c1.428,1.428,3.136,2.142,5.124,2.142c2.016,0,3.724-0.699,5.124-2.1c1.428-1.428,2.142-3.15,2.142-5.166
			C1255.397,410.458,1254.684,408.749,1253.256,407.321z"/>
		<path d="M1262.79,408.959c-0.309,0-0.63-0.126-0.967-0.378c-0.252-0.252-0.392-0.588-0.42-1.008c0-0.756,0.462-1.218,1.387-1.386
			c0.699,0,1.161,0.462,1.386,1.386C1264.176,408.497,1263.714,408.959,1262.79,408.959z M1262.79,421.349
			c-0.309,0-0.63-0.126-0.967-0.378c-0.252-0.252-0.392-0.588-0.42-1.008c0-0.756,0.462-1.218,1.387-1.386
			c0.699,0,1.161,0.462,1.386,1.386C1264.176,420.887,1263.714,421.349,1262.79,421.349z"/>
		<path d="M1285.344,418.661c-1.82,1.624-4.047,2.436-6.679,2.436h-9.365v-29.988h7.308c2.324,0,4.172,0.602,5.544,1.806
			c1.456,1.289,2.184,3.081,2.184,5.376c0,2.632-1.078,4.564-3.233,5.796c2.1,0.42,3.794,1.372,5.082,2.856
			c1.26,1.484,1.89,3.304,1.89,5.46C1288.073,414.979,1287.163,417.065,1285.344,418.661z M1280.934,394.343
			c-1.148-1.008-2.549-1.512-4.2-1.512h-5.754v10.92h6.006c1.624,0,2.968-0.504,4.032-1.512c1.063-1.008,1.596-2.324,1.596-3.948
			C1282.613,396.611,1282.053,395.295,1280.934,394.343z M1284.083,407.321c-1.428-1.232-3.22-1.848-5.376-1.848h-7.728v13.902
			h7.728c2.128,0,3.934-0.644,5.418-1.932c1.513-1.288,2.269-2.968,2.269-5.04C1286.394,410.303,1285.623,408.609,1284.083,407.321z
			"/>
		<path d="M1303.403,419.585c-1.148,1.232-2.759,1.848-4.83,1.848c-2.045,0-3.627-0.602-4.746-1.806
			c-1.12-1.203-1.681-2.883-1.681-5.04v-10.836h1.723v10.836c0,1.652,0.363,2.926,1.092,3.822c0.756,0.896,1.96,1.344,3.612,1.344
			c3.22,0,4.83-1.722,4.83-5.166v-10.836h1.68v10.836C1305.083,416.715,1304.522,418.382,1303.403,419.585z"/>
		<path d="M1309.619,400.643c-0.309,0-0.63-0.126-0.966-0.378c-0.252-0.252-0.393-0.588-0.421-1.008
			c0-0.756,0.463-1.218,1.387-1.386c0.699,0,1.161,0.462,1.386,1.386C1311.005,400.181,1310.543,400.643,1309.619,400.643z
			 M1308.737,421.097v-17.346h1.722v17.346H1308.737z"/>
		<path d="M1314.574,421.097v-31.08h1.68v31.08H1314.574z"/>
		<path d="M1336.245,421.097v-3.108c-1.848,2.268-4.199,3.402-7.056,3.402c-2.52,0-4.635-0.854-6.342-2.562
			c-1.736-1.736-2.604-3.864-2.604-6.384s0.854-4.634,2.563-6.342c1.735-1.736,3.864-2.604,6.384-2.604
			c2.772,0,5.124,1.134,7.056,3.402v-16.884h1.723v31.08H1336.245z M1334.313,407.321c-1.428-1.428-3.136-2.142-5.124-2.142
			c-2.016,0-3.725,0.7-5.124,2.1c-1.428,1.428-2.142,3.15-2.142,5.166c0,1.988,0.714,3.696,2.142,5.124
			c1.428,1.428,3.136,2.142,5.124,2.142c2.016,0,3.724-0.699,5.124-2.1c1.428-1.428,2.142-3.15,2.142-5.166
			C1336.455,410.458,1335.741,408.749,1334.313,407.321z"/>
		<path d="M1344.268,400.643c-0.309,0-0.63-0.126-0.966-0.378c-0.252-0.252-0.393-0.588-0.421-1.008
			c0-0.756,0.463-1.218,1.387-1.386c0.699,0,1.161,0.462,1.386,1.386C1345.653,400.181,1345.191,400.643,1344.268,400.643z
			 M1343.386,421.097v-17.346h1.722v17.346H1343.386z"/>
		<path d="M1360.48,421.097v-10.374c0-3.668-1.652-5.502-4.956-5.502c-1.624,0-2.856,0.477-3.696,1.428
			c-0.868,0.953-1.302,2.254-1.302,3.906v10.542h-1.722v-17.346h1.722v2.1c0.783-1.54,2.449-2.31,4.998-2.31
			c2.155,0,3.808,0.616,4.956,1.848c1.147,1.232,1.722,2.955,1.722,5.166v10.542H1360.48z"/>
		<path d="M1381.689,426.893c-1.568,1.568-3.626,2.352-6.174,2.352c-4.732,0-7.56-1.862-8.484-5.586h1.723
			c0.308,1.372,1.189,2.394,2.646,3.066c1.148,0.532,2.521,0.798,4.116,0.798c2.156,0,3.822-0.602,4.998-1.806
			c1.203-1.204,1.806-2.884,1.806-5.04v-2.562c-1.82,2.184-4.13,3.276-6.93,3.276c-2.52,0-4.635-0.854-6.342-2.562
			c-1.736-1.736-2.604-3.864-2.604-6.384s0.854-4.634,2.563-6.342c1.735-1.736,3.864-2.604,6.384-2.604
			c2.772,0,5.082,1.092,6.93,3.276v-3.024h1.723v16.968C1384.042,423.267,1383.258,425.325,1381.689,426.893z M1380.514,407.321
			c-1.428-1.428-3.137-2.142-5.124-2.142c-2.016,0-3.725,0.7-5.124,2.1c-1.428,1.428-2.142,3.15-2.142,5.166
			c0,1.988,0.714,3.696,2.142,5.124c1.428,1.428,3.136,2.142,5.124,2.142c2.016,0,3.724-0.699,5.124-2.1
			c1.428-1.428,2.142-3.15,2.142-5.166C1382.655,410.458,1381.941,408.749,1380.514,407.321z"/>
	</g>
</g>
<path fill="#EDEDED" stroke="#000000" stroke-width="0.5" stroke-miterlimit="10" d="M753.961,421.341
	c0,8.879-7.207,16.084-16.096,16.084H515.59c-8.889,0-16.09-7.205-16.09-16.084v-27.41c0-8.881,7.201-16.082,16.09-16.082h222.275
	c8.889,0,16.096,7.201,16.096,16.082V421.341z"/>
<g>
	<g>
		<path d="M547.749,421.433c-2.576,0-4.719-0.854-6.426-2.562c-1.708-1.708-2.563-3.85-2.563-6.426c0-2.576,0.854-4.718,2.563-6.426
			c1.707-1.708,3.85-2.562,6.426-2.562c2.212,0,3.976,0.504,5.292,1.512v2.058l-1.092-0.714l-1.176-0.63
			c-1.064-0.363-2.073-0.546-3.024-0.546c-2.156,0-3.906,0.672-5.25,2.016c-1.372,1.372-2.058,3.136-2.058,5.292
			c0,2.128,0.686,3.878,2.058,5.25c1.372,1.372,3.122,2.058,5.25,2.058c2.016,0,3.78-0.672,5.292-2.016v2.142
			C551.473,420.916,549.709,421.433,547.749,421.433z"/>
		<path d="M564.927,421.433c-2.576,0-4.719-0.854-6.426-2.562c-1.708-1.708-2.563-3.85-2.563-6.426c0-2.576,0.854-4.718,2.563-6.426
			c1.707-1.708,3.85-2.562,6.426-2.562c2.212,0,3.976,0.504,5.292,1.512v2.058l-1.092-0.714l-1.176-0.63
			c-1.064-0.363-2.073-0.546-3.024-0.546c-2.156,0-3.906,0.672-5.25,2.016c-1.372,1.372-2.058,3.136-2.058,5.292
			c0,2.128,0.686,3.878,2.058,5.25c1.372,1.372,3.122,2.058,5.25,2.058c2.016,0,3.78-0.672,5.292-2.016v2.142
			C568.65,420.916,566.887,421.433,564.927,421.433z"/>
		<path d="M582.104,421.433c-2.576,0-4.719-0.854-6.426-2.562c-1.708-1.708-2.563-3.85-2.563-6.426c0-2.576,0.854-4.718,2.563-6.426
			c1.707-1.708,3.85-2.562,6.426-2.562c2.212,0,3.976,0.504,5.292,1.512v2.058l-1.092-0.714l-1.176-0.63
			c-1.064-0.363-2.073-0.546-3.024-0.546c-2.156,0-3.906,0.672-5.25,2.016c-1.372,1.372-2.058,3.136-2.058,5.292
			c0,2.128,0.686,3.878,2.058,5.25c1.372,1.372,3.122,2.058,5.25,2.058c2.016,0,3.78-0.672,5.292-2.016v2.142
			C585.828,420.916,584.064,421.433,582.104,421.433z"/>
		<path d="M593.066,408.959c-0.309,0-0.63-0.126-0.967-0.378c-0.252-0.252-0.392-0.588-0.42-1.008c0-0.756,0.462-1.218,1.387-1.386
			c0.699,0,1.161,0.462,1.386,1.386C594.452,408.497,593.99,408.959,593.066,408.959z M593.066,421.349
			c-0.309,0-0.63-0.126-0.967-0.378c-0.252-0.252-0.392-0.588-0.42-1.008c0-0.756,0.462-1.218,1.387-1.386
			c0.699,0,1.161,0.462,1.386,1.386C594.452,420.887,593.99,421.349,593.066,421.349z"/>
		<path d="M615.62,418.661c-1.82,1.624-4.047,2.436-6.679,2.436h-9.365v-29.988h7.308c2.324,0,4.172,0.602,5.544,1.806
			c1.456,1.289,2.184,3.081,2.184,5.376c0,2.632-1.078,4.564-3.233,5.796c2.1,0.42,3.794,1.372,5.082,2.856
			c1.26,1.484,1.89,3.304,1.89,5.46C618.35,414.979,617.439,417.065,615.62,418.661z M611.21,394.343
			c-1.148-1.008-2.549-1.512-4.2-1.512h-5.754v10.92h6.006c1.624,0,2.968-0.504,4.032-1.512c1.063-1.008,1.596-2.324,1.596-3.948
			C612.89,396.611,612.329,395.295,611.21,394.343z M614.359,407.321c-1.428-1.232-3.22-1.848-5.376-1.848h-7.728v13.902h7.728
			c2.128,0,3.934-0.644,5.418-1.932c1.513-1.288,2.269-2.968,2.269-5.04C616.67,410.303,615.899,408.609,614.359,407.321z"/>
		<path d="M633.68,419.585c-1.148,1.232-2.759,1.848-4.83,1.848c-2.045,0-3.627-0.602-4.746-1.806
			c-1.12-1.203-1.681-2.883-1.681-5.04v-10.836h1.723v10.836c0,1.652,0.363,2.926,1.092,3.822c0.756,0.896,1.96,1.344,3.612,1.344
			c3.22,0,4.83-1.722,4.83-5.166v-10.836h1.68v10.836C635.359,416.715,634.799,418.382,633.68,419.585z"/>
		<path d="M639.896,400.643c-0.309,0-0.63-0.126-0.966-0.378c-0.252-0.252-0.393-0.588-0.421-1.008c0-0.756,0.463-1.218,1.387-1.386
			c0.699,0,1.161,0.462,1.386,1.386C641.281,400.181,640.819,400.643,639.896,400.643z M639.014,421.097v-17.346h1.722v17.346
			H639.014z"/>
		<path d="M644.852,421.097v-31.08h1.68v31.08H644.852z"/>
		<path d="M666.522,421.097v-3.108c-1.848,2.268-4.199,3.402-7.056,3.402c-2.52,0-4.635-0.854-6.342-2.562
			c-1.736-1.736-2.604-3.864-2.604-6.384s0.854-4.634,2.563-6.342c1.735-1.736,3.864-2.604,6.384-2.604
			c2.772,0,5.124,1.134,7.056,3.402v-16.884h1.723v31.08H666.522z M664.591,407.321c-1.428-1.428-3.136-2.142-5.124-2.142
			c-2.016,0-3.725,0.7-5.124,2.1c-1.428,1.428-2.142,3.15-2.142,5.166c0,1.988,0.714,3.696,2.142,5.124
			c1.428,1.428,3.136,2.142,5.124,2.142c2.016,0,3.724-0.699,5.124-2.1c1.428-1.428,2.142-3.15,2.142-5.166
			C666.732,410.458,666.019,408.749,664.591,407.321z"/>
		<path d="M674.545,400.643c-0.309,0-0.63-0.126-0.966-0.378c-0.252-0.252-0.393-0.588-0.421-1.008c0-0.756,0.463-1.218,1.387-1.386
			c0.699,0,1.161,0.462,1.386,1.386C675.931,400.181,675.469,400.643,674.545,400.643z M673.663,421.097v-17.346h1.722v17.346
			H673.663z"/>
		<path d="M690.757,421.097v-10.374c0-3.668-1.652-5.502-4.956-5.502c-1.624,0-2.856,0.477-3.696,1.428
			c-0.868,0.953-1.302,2.254-1.302,3.906v10.542h-1.722v-17.346h1.722v2.1c0.783-1.54,2.449-2.31,4.998-2.31
			c2.155,0,3.808,0.616,4.956,1.848c1.147,1.232,1.722,2.955,1.722,5.166v10.542H690.757z"/>
		<path d="M711.966,426.893c-1.568,1.568-3.626,2.352-6.174,2.352c-4.732,0-7.56-1.862-8.484-5.586h1.723
			c0.308,1.372,1.189,2.394,2.646,3.066c1.148,0.532,2.521,0.798,4.116,0.798c2.156,0,3.822-0.602,4.998-1.806
			c1.203-1.204,1.806-2.884,1.806-5.04v-2.562c-1.82,2.184-4.13,3.276-6.93,3.276c-2.52,0-4.635-0.854-6.342-2.562
			c-1.736-1.736-2.604-3.864-2.604-6.384s0.854-4.634,2.563-6.342c1.735-1.736,3.864-2.604,6.384-2.604
			c2.772,0,5.082,1.092,6.93,3.276v-3.024h1.723v16.968C714.318,423.267,713.534,425.325,711.966,426.893z M710.79,407.321
			c-1.428-1.428-3.137-2.142-5.124-2.142c-2.016,0-3.725,0.7-5.124,2.1c-1.428,1.428-2.142,3.15-2.142,5.166
			c0,1.988,0.714,3.696,2.142,5.124c1.428,1.428,3.136,2.142,5.124,2.142c2.016,0,3.724-0.699,5.124-2.1
			c1.428-1.428,2.142-3.15,2.142-5.166C712.932,410.458,712.218,408.749,710.79,407.321z"/>
	</g>
</g>
<path fill="#EDEDED" stroke="#000000" stroke-width="0.5" stroke-miterlimit="10" d="M1419.295,690.101
	c0,8.879-7.207,16.084-16.096,16.084h-222.275c-8.889,0-16.09-7.205-16.09-16.084v-27.41c0-8.881,7.201-16.082,16.09-16.082h222.275
	c8.889,0,16.096,7.201,16.096,16.082V690.101z"/>
<g>
	<g>
		<path d="M1222.176,660.498l-1.134-0.126c-1.569,0-2.353,0.924-2.353,2.772v9.365h4.116v1.723h-4.116v15.623h-1.722v-15.623h-2.353
			v-1.723h2.353v-9.869c0-2.66,1.344-3.99,4.032-3.99c0.615,0,1.008,0.027,1.176,0.084c0.336,0,0.714,0.098,1.134,0.293v1.723
			L1222.176,660.498z"/>
		<path d="M1232.172,660.498l-1.134-0.126c-1.569,0-2.353,0.924-2.353,2.772v9.365h4.116v1.723h-4.116v15.623h-1.722v-15.623h-2.353
			v-1.723h2.353v-9.869c0-2.66,1.344-3.99,4.032-3.99c0.615,0,1.008,0.027,1.176,0.084c0.336,0,0.714,0.098,1.134,0.293v1.723
			L1232.172,660.498z"/>
		<path d="M1242.168,660.498l-1.134-0.126c-1.569,0-2.353,0.924-2.353,2.772v9.365h4.116v1.723h-4.116v15.623h-1.722v-15.623h-2.353
			v-1.723h2.353v-9.869c0-2.66,1.344-3.99,4.032-3.99c0.615,0,1.008,0.027,1.176,0.084c0.336,0,0.714,0.098,1.134,0.293v1.723
			L1242.168,660.498z"/>
		<path d="M1247.712,677.718c-0.309,0-0.63-0.126-0.967-0.378c-0.252-0.252-0.392-0.588-0.42-1.008c0-0.756,0.462-1.219,1.387-1.387
			c0.699,0,1.161,0.463,1.386,1.387C1249.098,677.256,1248.636,677.718,1247.712,677.718z M1247.712,690.107
			c-0.309,0-0.63-0.125-0.967-0.377c-0.252-0.252-0.392-0.588-0.42-1.008c0-0.757,0.462-1.219,1.387-1.387
			c0.699,0,1.161,0.462,1.386,1.387C1249.098,689.646,1248.636,690.107,1247.712,690.107z"/>
		<path d="M1270.266,687.42c-1.82,1.624-4.047,2.436-6.679,2.436h-9.365v-29.987h7.308c2.324,0,4.172,0.603,5.544,1.806
			c1.456,1.289,2.184,3.08,2.184,5.376c0,2.632-1.078,4.564-3.233,5.796c2.1,0.42,3.794,1.373,5.082,2.856
			c1.26,1.484,1.89,3.304,1.89,5.46C1272.995,683.738,1272.085,685.824,1270.266,687.42z M1265.855,663.102
			c-1.148-1.008-2.549-1.512-4.2-1.512h-5.754v10.92h6.006c1.624,0,2.968-0.504,4.032-1.512c1.063-1.008,1.596-2.324,1.596-3.948
			C1267.535,665.37,1266.975,664.055,1265.855,663.102z M1269.005,676.08c-1.428-1.232-3.22-1.848-5.376-1.848h-7.728v13.901h7.728
			c2.128,0,3.934-0.644,5.418-1.932c1.513-1.288,2.269-2.968,2.269-5.04C1271.315,679.063,1270.545,677.368,1269.005,676.08z"/>
		<path d="M1288.325,688.344c-1.148,1.232-2.759,1.848-4.83,1.848c-2.045,0-3.627-0.602-4.746-1.806
			c-1.12-1.203-1.681-2.884-1.681-5.04V672.51h1.723v10.836c0,1.652,0.363,2.926,1.092,3.822c0.756,0.896,1.96,1.344,3.612,1.344
			c3.22,0,4.83-1.722,4.83-5.166V672.51h1.68v10.836C1290.005,685.475,1289.444,687.141,1288.325,688.344z"/>
		<path d="M1294.541,669.402c-0.309,0-0.63-0.127-0.966-0.379c-0.252-0.252-0.393-0.588-0.421-1.008
			c0-0.756,0.463-1.218,1.387-1.386c0.699,0,1.161,0.462,1.386,1.386C1295.927,668.939,1295.465,669.402,1294.541,669.402z
			 M1293.659,689.855V672.51h1.722v17.346H1293.659z"/>
		<path d="M1299.497,689.855v-31.08h1.68v31.08H1299.497z"/>
		<path d="M1321.168,689.855v-3.107c-1.848,2.268-4.199,3.402-7.056,3.402c-2.52,0-4.635-0.854-6.342-2.563
			c-1.736-1.736-2.604-3.863-2.604-6.384s0.854-4.634,2.563-6.343c1.735-1.735,3.864-2.604,6.384-2.604
			c2.772,0,5.124,1.135,7.056,3.402v-16.885h1.723v31.08H1321.168z M1319.236,676.08c-1.428-1.428-3.136-2.143-5.124-2.143
			c-2.016,0-3.725,0.701-5.124,2.101c-1.428,1.428-2.142,3.149-2.142,5.166c0,1.988,0.714,3.696,2.142,5.124
			s3.136,2.142,5.124,2.142c2.016,0,3.724-0.699,5.124-2.1c1.428-1.429,2.142-3.15,2.142-5.166
			C1321.378,679.217,1320.664,677.508,1319.236,676.08z"/>
		<path d="M1329.19,669.402c-0.309,0-0.63-0.127-0.966-0.379c-0.252-0.252-0.393-0.588-0.421-1.008c0-0.756,0.463-1.218,1.387-1.386
			c0.699,0,1.161,0.462,1.386,1.386C1330.576,668.939,1330.114,669.402,1329.19,669.402z M1328.309,689.855V672.51h1.722v17.346
			H1328.309z"/>
		<path d="M1345.402,689.855v-10.373c0-3.668-1.652-5.502-4.956-5.502c-1.624,0-2.856,0.477-3.696,1.428
			c-0.868,0.952-1.302,2.254-1.302,3.906v10.541h-1.722V672.51h1.722v2.1c0.783-1.539,2.449-2.31,4.998-2.31
			c2.155,0,3.808,0.616,4.956,1.849c1.147,1.232,1.722,2.954,1.722,5.166v10.541H1345.402z"/>
		<path d="M1366.611,695.652c-1.568,1.567-3.626,2.352-6.174,2.352c-4.732,0-7.56-1.862-8.484-5.586h1.723
			c0.308,1.371,1.189,2.395,2.646,3.066c1.148,0.531,2.521,0.797,4.116,0.797c2.156,0,3.822-0.602,4.998-1.805
			c1.203-1.205,1.806-2.885,1.806-5.041v-2.562c-1.82,2.185-4.13,3.276-6.93,3.276c-2.52,0-4.635-0.854-6.342-2.563
			c-1.736-1.736-2.604-3.863-2.604-6.384s0.854-4.634,2.563-6.343c1.735-1.735,3.864-2.604,6.384-2.604
			c2.772,0,5.082,1.092,6.93,3.276v-3.024h1.723v16.969C1368.964,692.025,1368.18,694.084,1366.611,695.652z M1365.436,676.08
			c-1.428-1.428-3.137-2.143-5.124-2.143c-2.016,0-3.725,0.701-5.124,2.101c-1.428,1.428-2.142,3.149-2.142,5.166
			c0,1.988,0.714,3.696,2.142,5.124s3.136,2.142,5.124,2.142c2.016,0,3.724-0.699,5.124-2.1c1.428-1.429,2.142-3.15,2.142-5.166
			C1367.577,679.217,1366.863,677.508,1365.436,676.08z"/>
	</g>
</g>
<path fill="#EDEDED" stroke="#000000" stroke-width="0.5" stroke-miterlimit="10" d="M753.961,690.101
	c0,8.879-7.207,16.084-16.096,16.084H515.59c-8.889,0-16.09-7.205-16.09-16.084v-27.41c0-8.881,7.201-16.082,16.09-16.082h222.275
	c8.889,0,16.096,7.201,16.096,16.082V690.101z"/>
<g>
	<g>
		<path d="M533.765,680.826c0,2.352,0.63,4.215,1.89,5.586c1.315,1.4,3.122,2.1,5.418,2.1c1.176,0,2.24-0.195,3.192-0.588
			c1.203-0.504,2.281-1.525,3.233-3.066l1.555,0.715c-1.093,2.072-2.772,3.472-5.04,4.199c-0.869,0.28-1.849,0.42-2.94,0.42
			c-2.604,0-4.746-0.854-6.426-2.562c-1.708-1.708-2.563-3.85-2.563-6.426c0-2.604,0.84-4.746,2.521-6.427
			c1.707-1.707,3.863-2.562,6.468-2.562c2.576,0,4.704,0.798,6.384,2.394c1.708,1.597,2.563,3.669,2.563,6.217H533.765z
			 M545.608,675.324c-1.316-0.951-2.828-1.428-4.536-1.428c-3.584,0-5.937,1.764-7.056,5.291h14.069
			C547.806,677.592,546.979,676.305,545.608,675.324z"/>
		<path d="M555.981,680.826c0,2.352,0.63,4.215,1.89,5.586c1.315,1.4,3.122,2.1,5.418,2.1c1.176,0,2.24-0.195,3.192-0.588
			c1.203-0.504,2.281-1.525,3.233-3.066l1.555,0.715c-1.093,2.072-2.772,3.472-5.04,4.199c-0.869,0.28-1.849,0.42-2.94,0.42
			c-2.604,0-4.746-0.854-6.426-2.562c-1.708-1.708-2.563-3.85-2.563-6.426c0-2.604,0.84-4.746,2.521-6.427
			c1.707-1.707,3.863-2.562,6.468-2.562c2.576,0,4.704,0.798,6.384,2.394c1.708,1.597,2.563,3.669,2.563,6.217H555.981z
			 M567.825,675.324c-1.316-0.951-2.828-1.428-4.536-1.428c-3.584,0-5.937,1.764-7.056,5.291h14.069
			C570.022,677.592,569.196,676.305,567.825,675.324z"/>
		<path d="M578.198,680.826c0,2.352,0.63,4.215,1.89,5.586c1.315,1.4,3.122,2.1,5.418,2.1c1.176,0,2.24-0.195,3.192-0.588
			c1.203-0.504,2.281-1.525,3.233-3.066l1.555,0.715c-1.093,2.072-2.772,3.472-5.04,4.199c-0.869,0.28-1.849,0.42-2.94,0.42
			c-2.604,0-4.746-0.854-6.426-2.562c-1.708-1.708-2.563-3.85-2.563-6.426c0-2.604,0.84-4.746,2.521-6.427
			c1.707-1.707,3.863-2.562,6.468-2.562c2.576,0,4.704,0.798,6.384,2.394c1.708,1.597,2.563,3.669,2.563,6.217H578.198z
			 M590.042,675.324c-1.316-0.951-2.828-1.428-4.536-1.428c-3.584,0-5.937,1.764-7.056,5.291h14.069
			C592.239,677.592,591.413,676.305,590.042,675.324z"/>
		<path d="M599.198,677.718c-0.309,0-0.63-0.126-0.967-0.378c-0.252-0.252-0.392-0.588-0.42-1.008c0-0.756,0.462-1.219,1.387-1.387
			c0.699,0,1.161,0.463,1.386,1.387C600.584,677.256,600.122,677.718,599.198,677.718z M599.198,690.107
			c-0.309,0-0.63-0.125-0.967-0.377c-0.252-0.252-0.392-0.588-0.42-1.008c0-0.757,0.462-1.219,1.387-1.387
			c0.699,0,1.161,0.462,1.386,1.387C600.584,689.646,600.122,690.107,599.198,690.107z"/>
		<path d="M621.752,687.42c-1.82,1.624-4.047,2.436-6.679,2.436h-9.365v-29.987h7.308c2.324,0,4.172,0.603,5.544,1.806
			c1.456,1.289,2.184,3.08,2.184,5.376c0,2.632-1.078,4.564-3.233,5.796c2.1,0.42,3.794,1.373,5.082,2.856
			c1.26,1.484,1.89,3.304,1.89,5.46C624.481,683.738,623.571,685.824,621.752,687.42z M617.342,663.102
			c-1.148-1.008-2.549-1.512-4.2-1.512h-5.754v10.92h6.006c1.624,0,2.968-0.504,4.032-1.512c1.063-1.008,1.596-2.324,1.596-3.948
			C619.021,665.37,618.461,664.055,617.342,663.102z M620.491,676.08c-1.428-1.232-3.22-1.848-5.376-1.848h-7.728v13.901h7.728
			c2.128,0,3.934-0.644,5.418-1.932c1.513-1.288,2.269-2.968,2.269-5.04C622.802,679.063,622.031,677.368,620.491,676.08z"/>
		<path d="M639.812,688.344c-1.148,1.232-2.759,1.848-4.83,1.848c-2.045,0-3.627-0.602-4.746-1.806
			c-1.12-1.203-1.681-2.884-1.681-5.04V672.51h1.723v10.836c0,1.652,0.363,2.926,1.092,3.822c0.756,0.896,1.96,1.344,3.612,1.344
			c3.22,0,4.83-1.722,4.83-5.166V672.51h1.68v10.836C641.491,685.475,640.931,687.141,639.812,688.344z"/>
		<path d="M646.027,669.402c-0.309,0-0.63-0.127-0.966-0.379c-0.252-0.252-0.393-0.588-0.421-1.008c0-0.756,0.463-1.218,1.387-1.386
			c0.699,0,1.161,0.462,1.386,1.386C647.413,668.939,646.951,669.402,646.027,669.402z M645.146,689.855V672.51h1.722v17.346
			H645.146z"/>
		<path d="M650.983,689.855v-31.08h1.68v31.08H650.983z"/>
		<path d="M672.654,689.855v-3.107c-1.848,2.268-4.199,3.402-7.056,3.402c-2.52,0-4.635-0.854-6.342-2.563
			c-1.736-1.736-2.604-3.863-2.604-6.384s0.854-4.634,2.563-6.343c1.735-1.735,3.864-2.604,6.384-2.604
			c2.772,0,5.124,1.135,7.056,3.402v-16.885h1.723v31.08H672.654z M670.723,676.08c-1.428-1.428-3.136-2.143-5.124-2.143
			c-2.016,0-3.725,0.701-5.124,2.101c-1.428,1.428-2.142,3.149-2.142,5.166c0,1.988,0.714,3.696,2.142,5.124
			s3.136,2.142,5.124,2.142c2.016,0,3.724-0.699,5.124-2.1c1.428-1.429,2.142-3.15,2.142-5.166
			C672.864,679.217,672.15,677.508,670.723,676.08z"/>
		<path d="M680.677,669.402c-0.309,0-0.63-0.127-0.966-0.379c-0.252-0.252-0.393-0.588-0.421-1.008c0-0.756,0.463-1.218,1.387-1.386
			c0.699,0,1.161,0.462,1.386,1.386C682.063,668.939,681.601,669.402,680.677,669.402z M679.795,689.855V672.51h1.722v17.346
			H679.795z"/>
		<path d="M696.889,689.855v-10.373c0-3.668-1.652-5.502-4.956-5.502c-1.624,0-2.856,0.477-3.696,1.428
			c-0.868,0.952-1.302,2.254-1.302,3.906v10.541h-1.722V672.51h1.722v2.1c0.783-1.539,2.449-2.31,4.998-2.31
			c2.155,0,3.808,0.616,4.956,1.849c1.147,1.232,1.722,2.954,1.722,5.166v10.541H696.889z"/>
		<path d="M718.098,695.652c-1.568,1.567-3.626,2.352-6.174,2.352c-4.732,0-7.56-1.862-8.484-5.586h1.723
			c0.308,1.371,1.189,2.395,2.646,3.066c1.148,0.531,2.521,0.797,4.116,0.797c2.156,0,3.822-0.602,4.998-1.805
			c1.203-1.205,1.806-2.885,1.806-5.041v-2.562c-1.82,2.185-4.13,3.276-6.93,3.276c-2.52,0-4.635-0.854-6.342-2.563
			c-1.736-1.736-2.604-3.863-2.604-6.384s0.854-4.634,2.563-6.343c1.735-1.735,3.864-2.604,6.384-2.604
			c2.772,0,5.082,1.092,6.93,3.276v-3.024h1.723v16.969C720.45,692.025,719.666,694.084,718.098,695.652z M716.922,676.08
			c-1.428-1.428-3.137-2.143-5.124-2.143c-2.016,0-3.725,0.701-5.124,2.101c-1.428,1.428-2.142,3.149-2.142,5.166
			c0,1.988,0.714,3.696,2.142,5.124s3.136,2.142,5.124,2.142c2.016,0,3.724-0.699,5.124-2.1c1.428-1.429,2.142-3.15,2.142-5.166
			C719.063,679.217,718.35,677.508,716.922,676.08z"/>
	</g>
</g>
<g>
	<g>
		<path d="M880.271,292.514c-1.568,1.568-3.626,2.352-6.174,2.352c-4.732,0-7.56-1.862-8.484-5.586h1.723
			c0.308,1.372,1.189,2.394,2.646,3.066c1.148,0.532,2.521,0.798,4.116,0.798c2.156,0,3.822-0.602,4.998-1.806
			c1.203-1.204,1.806-2.884,1.806-5.04v-2.562c-1.82,2.184-4.13,3.276-6.93,3.276c-2.52,0-4.635-0.854-6.342-2.562
			c-1.736-1.736-2.604-3.864-2.604-6.384s0.854-4.634,2.563-6.342c1.735-1.736,3.864-2.604,6.384-2.604
			c2.772,0,5.082,1.092,6.93,3.276v-3.024h1.723v16.968C882.623,288.888,881.839,290.946,880.271,292.514z M879.095,272.942
			c-1.428-1.428-3.137-2.142-5.124-2.142c-2.016,0-3.725,0.7-5.124,2.1c-1.428,1.428-2.142,3.15-2.142,5.166
			c0,1.988,0.714,3.696,2.142,5.124c1.428,1.428,3.136,2.142,5.124,2.142c2.016,0,3.724-0.699,5.124-2.1
			c1.428-1.428,2.142-3.15,2.142-5.166C881.236,276.079,880.522,274.37,879.095,272.942z"/>
		<path d="M901.69,292.514c-1.568,1.568-3.626,2.352-6.174,2.352c-4.732,0-7.56-1.862-8.484-5.586h1.723
			c0.308,1.372,1.189,2.394,2.646,3.066c1.148,0.532,2.521,0.798,4.116,0.798c2.156,0,3.822-0.602,4.998-1.806
			c1.203-1.204,1.806-2.884,1.806-5.04v-2.562c-1.82,2.184-4.13,3.276-6.93,3.276c-2.52,0-4.635-0.854-6.342-2.562
			c-1.736-1.736-2.604-3.864-2.604-6.384s0.854-4.634,2.563-6.342c1.735-1.736,3.864-2.604,6.384-2.604
			c2.772,0,5.082,1.092,6.93,3.276v-3.024h1.723v16.968C904.043,288.888,903.259,290.946,901.69,292.514z M900.515,272.942
			c-1.428-1.428-3.137-2.142-5.124-2.142c-2.016,0-3.725,0.7-5.124,2.1c-1.428,1.428-2.142,3.15-2.142,5.166
			c0,1.988,0.714,3.696,2.142,5.124c1.428,1.428,3.136,2.142,5.124,2.142c2.016,0,3.724-0.699,5.124-2.1
			c1.428-1.428,2.142-3.15,2.142-5.166C902.656,276.079,901.942,274.37,900.515,272.942z"/>
		<path d="M923.11,292.514c-1.568,1.568-3.626,2.352-6.174,2.352c-4.732,0-7.56-1.862-8.484-5.586h1.723
			c0.308,1.372,1.189,2.394,2.646,3.066c1.148,0.532,2.521,0.798,4.116,0.798c2.156,0,3.822-0.602,4.998-1.806
			c1.203-1.204,1.806-2.884,1.806-5.04v-2.562c-1.82,2.184-4.13,3.276-6.93,3.276c-2.52,0-4.635-0.854-6.342-2.562
			c-1.736-1.736-2.604-3.864-2.604-6.384s0.854-4.634,2.563-6.342c1.735-1.736,3.864-2.604,6.384-2.604
			c2.772,0,5.082,1.092,6.93,3.276v-3.024h1.723v16.968C925.463,288.888,924.679,290.946,923.11,292.514z M921.935,272.942
			c-1.428-1.428-3.137-2.142-5.124-2.142c-2.016,0-3.725,0.7-5.124,2.1c-1.428,1.428-2.142,3.15-2.142,5.166
			c0,1.988,0.714,3.696,2.142,5.124c1.428,1.428,3.136,2.142,5.124,2.142c2.016,0,3.724-0.699,5.124-2.1
			c1.428-1.428,2.142-3.15,2.142-5.166C924.076,276.079,923.362,274.37,921.935,272.942z"/>
		<path d="M931.343,274.58c-0.309,0-0.63-0.126-0.967-0.378c-0.252-0.252-0.392-0.588-0.42-1.008c0-0.756,0.462-1.218,1.387-1.386
			c0.699,0,1.161,0.462,1.386,1.386C932.729,274.118,932.267,274.58,931.343,274.58z M931.343,286.97
			c-0.309,0-0.63-0.126-0.967-0.378c-0.252-0.252-0.392-0.588-0.42-1.008c0-0.756,0.462-1.218,1.387-1.386
			c0.699,0,1.161,0.462,1.386,1.386C932.729,286.508,932.267,286.97,931.343,286.97z"/>
		<path d="M953.896,284.282c-1.82,1.624-4.047,2.436-6.679,2.436h-9.365V256.73h7.308c2.324,0,4.172,0.602,5.544,1.806
			c1.456,1.289,2.184,3.081,2.184,5.376c0,2.632-1.078,4.564-3.233,5.796c2.1,0.42,3.794,1.372,5.082,2.856
			c1.26,1.484,1.89,3.304,1.89,5.46C956.626,280.601,955.716,282.686,953.896,284.282z M949.486,259.964
			c-1.148-1.008-2.549-1.512-4.2-1.512h-5.754v10.92h6.006c1.624,0,2.968-0.504,4.032-1.512c1.063-1.008,1.596-2.324,1.596-3.948
			C951.166,262.232,950.605,260.917,949.486,259.964z M952.636,272.942c-1.428-1.232-3.22-1.848-5.376-1.848h-7.728v13.902h7.728
			c2.128,0,3.934-0.644,5.418-1.932c1.513-1.288,2.269-2.968,2.269-5.04C954.946,275.924,954.176,274.23,952.636,272.942z"/>
		<path d="M971.956,285.206c-1.148,1.232-2.759,1.848-4.83,1.848c-2.045,0-3.627-0.602-4.746-1.806
			c-1.12-1.203-1.681-2.883-1.681-5.04v-10.836h1.723v10.836c0,1.652,0.363,2.926,1.092,3.822c0.756,0.896,1.96,1.344,3.612,1.344
			c3.22,0,4.83-1.722,4.83-5.166v-10.836h1.68v10.836C973.636,282.336,973.075,284.003,971.956,285.206z"/>
		<path d="M978.172,266.264c-0.309,0-0.63-0.126-0.966-0.378c-0.252-0.252-0.393-0.588-0.421-1.008c0-0.756,0.463-1.218,1.387-1.386
			c0.699,0,1.161,0.462,1.386,1.386C979.558,265.802,979.096,266.264,978.172,266.264z M977.29,286.718v-17.346h1.722v17.346H977.29
			z"/>
		<path d="M983.127,286.718v-31.08h1.68v31.08H983.127z"/>
		<path d="M1004.798,286.718v-3.108c-1.848,2.268-4.199,3.402-7.056,3.402c-2.52,0-4.635-0.854-6.342-2.562
			c-1.736-1.736-2.604-3.864-2.604-6.384s0.854-4.634,2.563-6.342c1.735-1.736,3.864-2.604,6.384-2.604
			c2.772,0,5.124,1.134,7.056,3.402v-16.884h1.723v31.08H1004.798z M1002.866,272.942c-1.428-1.428-3.136-2.142-5.124-2.142
			c-2.016,0-3.725,0.7-5.124,2.1c-1.428,1.428-2.142,3.15-2.142,5.166c0,1.988,0.714,3.696,2.142,5.124
			c1.428,1.428,3.136,2.142,5.124,2.142c2.016,0,3.724-0.699,5.124-2.1c1.428-1.428,2.142-3.15,2.142-5.166
			C1005.008,276.079,1004.294,274.37,1002.866,272.942z"/>
		<path d="M1012.82,266.264c-0.309,0-0.63-0.126-0.966-0.378c-0.252-0.252-0.393-0.588-0.421-1.008c0-0.756,0.463-1.218,1.387-1.386
			c0.699,0,1.161,0.462,1.386,1.386C1014.206,265.802,1013.744,266.264,1012.82,266.264z M1011.938,286.718v-17.346h1.722v17.346
			H1011.938z"/>
		<path d="M1029.033,286.718v-10.374c0-3.668-1.652-5.502-4.956-5.502c-1.624,0-2.856,0.477-3.696,1.428
			c-0.868,0.953-1.302,2.254-1.302,3.906v10.542h-1.722v-17.346h1.722v2.1c0.783-1.54,2.449-2.31,4.998-2.31
			c2.155,0,3.808,0.616,4.956,1.848c1.147,1.232,1.722,2.955,1.722,5.166v10.542H1029.033z"/>
		<path d="M1050.242,292.514c-1.568,1.568-3.626,2.352-6.174,2.352c-4.732,0-7.56-1.862-8.484-5.586h1.723
			c0.308,1.372,1.189,2.394,2.646,3.066c1.148,0.532,2.521,0.798,4.116,0.798c2.156,0,3.822-0.602,4.998-1.806
			c1.203-1.204,1.806-2.884,1.806-5.04v-2.562c-1.82,2.184-4.13,3.276-6.93,3.276c-2.52,0-4.635-0.854-6.342-2.562
			c-1.736-1.736-2.604-3.864-2.604-6.384s0.854-4.634,2.563-6.342c1.735-1.736,3.864-2.604,6.384-2.604
			c2.772,0,5.082,1.092,6.93,3.276v-3.024h1.723v16.968C1052.595,288.888,1051.811,290.946,1050.242,292.514z M1049.066,272.942
			c-1.428-1.428-3.137-2.142-5.124-2.142c-2.016,0-3.725,0.7-5.124,2.1c-1.428,1.428-2.142,3.15-2.142,5.166
			c0,1.988,0.714,3.696,2.142,5.124c1.428,1.428,3.136,2.142,5.124,2.142c2.016,0,3.724-0.699,5.124-2.1
			c1.428-1.428,2.142-3.15,2.142-5.166C1051.208,276.079,1050.494,274.37,1049.066,272.942z"/>
	</g>
</g>
<path fill="#EDEDED" stroke="#000000" stroke-width="0.5" stroke-miterlimit="10" d="M1086.481,824.479
	c0,8.879-7.207,16.084-16.096,16.084H848.111c-8.889,0-16.09-7.205-16.09-16.084v-27.41c0-8.881,7.201-16.082,16.09-16.082h222.274
	c8.889,0,16.096,7.201,16.096,16.082V824.479z"/>
<g>
	<g>
		<path d="M883.042,824.277v-10.458c0-3.668-1.708-5.502-5.124-5.502c-1.4,0-2.604,0.42-3.612,1.26
			c-1.036,0.841-1.554,1.96-1.554,3.36v11.298h-1.722v-31.08h1.722v16.044c1.035-1.707,2.758-2.563,5.166-2.563
			c4.563,0,6.846,2.339,6.846,7.015v10.626H883.042z"/>
		<path d="M901.228,824.277v-10.458c0-3.668-1.708-5.502-5.124-5.502c-1.4,0-2.604,0.42-3.612,1.26
			c-1.036,0.841-1.554,1.96-1.554,3.36v11.298h-1.722v-31.08h1.722v16.044c1.035-1.707,2.758-2.563,5.166-2.563
			c4.563,0,6.846,2.339,6.846,7.015v10.626H901.228z"/>
		<path d="M919.414,824.277v-10.458c0-3.668-1.708-5.502-5.124-5.502c-1.4,0-2.604,0.42-3.612,1.26
			c-1.036,0.841-1.554,1.96-1.554,3.36v11.298h-1.722v-31.08h1.722v16.044c1.035-1.707,2.758-2.563,5.166-2.563
			c4.563,0,6.846,2.339,6.846,7.015v10.626H919.414z"/>
		<path d="M926.974,812.098c-0.309,0-0.63-0.127-0.967-0.379c-0.252-0.252-0.392-0.588-0.42-1.008c0-0.756,0.462-1.218,1.387-1.386
			c0.699,0,1.161,0.462,1.386,1.386C928.359,811.635,927.897,812.098,926.974,812.098z M926.974,824.487
			c-0.309,0-0.63-0.126-0.967-0.378c-0.252-0.252-0.392-0.588-0.42-1.008c0-0.756,0.462-1.219,1.387-1.387
			c0.699,0,1.161,0.463,1.386,1.387C928.359,824.025,927.897,824.487,926.974,824.487z"/>
		<path d="M949.527,821.799c-1.82,1.625-4.047,2.437-6.679,2.437h-9.365v-29.987h7.308c2.324,0,4.172,0.602,5.544,1.805
			c1.456,1.289,2.184,3.081,2.184,5.377c0,2.632-1.078,4.564-3.233,5.796c2.1,0.42,3.794,1.372,5.082,2.856
			c1.26,1.484,1.89,3.304,1.89,5.459C952.257,818.117,951.347,820.203,949.527,821.799z M945.117,797.481
			c-1.148-1.009-2.549-1.513-4.2-1.513h-5.754v10.92h6.006c1.624,0,2.968-0.504,4.032-1.512c1.063-1.008,1.596-2.323,1.596-3.947
			C946.797,799.75,946.236,798.434,945.117,797.481z M948.267,810.459c-1.428-1.231-3.22-1.848-5.376-1.848h-7.728v13.902h7.728
			c2.128,0,3.934-0.645,5.418-1.932c1.513-1.288,2.269-2.969,2.269-5.041C950.577,813.441,949.807,811.748,948.267,810.459z"/>
		<path d="M967.587,822.723c-1.148,1.232-2.759,1.849-4.83,1.849c-2.045,0-3.627-0.602-4.746-1.806
			c-1.12-1.203-1.681-2.884-1.681-5.04v-10.837h1.723v10.837c0,1.652,0.363,2.926,1.092,3.821c0.756,0.896,1.96,1.344,3.612,1.344
			c3.22,0,4.83-1.721,4.83-5.165v-10.837h1.68v10.837C969.267,819.854,968.706,821.52,967.587,822.723z"/>
		<path d="M973.803,803.781c-0.309,0-0.63-0.126-0.966-0.378c-0.252-0.252-0.393-0.588-0.421-1.008c0-0.757,0.463-1.218,1.387-1.386
			c0.699,0,1.161,0.461,1.386,1.386C975.188,803.319,974.727,803.781,973.803,803.781z M972.921,824.235v-17.347h1.722v17.347
			H972.921z"/>
		<path d="M978.759,824.235v-31.08h1.68v31.08H978.759z"/>
		<path d="M1000.43,824.235v-3.108c-1.848,2.269-4.199,3.402-7.056,3.402c-2.52,0-4.635-0.854-6.342-2.563
			c-1.736-1.735-2.604-3.863-2.604-6.383c0-2.521,0.854-4.635,2.563-6.343c1.735-1.735,3.864-2.604,6.384-2.604
			c2.772,0,5.124,1.135,7.056,3.402v-16.884h1.723v31.08H1000.43z M998.498,810.459c-1.428-1.428-3.136-2.142-5.124-2.142
			c-2.016,0-3.725,0.7-5.124,2.101c-1.428,1.428-2.142,3.149-2.142,5.166c0,1.988,0.714,3.695,2.142,5.123s3.136,2.143,5.124,2.143
			c2.016,0,3.724-0.699,5.124-2.1c1.428-1.429,2.142-3.15,2.142-5.166C1000.64,813.596,999.926,811.887,998.498,810.459z"/>
		<path d="M1008.452,803.781c-0.309,0-0.63-0.126-0.966-0.378c-0.252-0.252-0.393-0.588-0.421-1.008
			c0-0.757,0.463-1.218,1.387-1.386c0.699,0,1.161,0.461,1.386,1.386C1009.838,803.319,1009.376,803.781,1008.452,803.781z
			 M1007.57,824.235v-17.347h1.722v17.347H1007.57z"/>
		<path d="M1024.664,824.235v-10.374c0-3.668-1.652-5.502-4.956-5.502c-1.624,0-2.856,0.477-3.696,1.428
			c-0.868,0.953-1.302,2.254-1.302,3.906v10.542h-1.722v-17.347h1.722v2.101c0.783-1.54,2.449-2.31,4.998-2.31
			c2.155,0,3.808,0.615,4.956,1.848c1.147,1.232,1.722,2.955,1.722,5.166v10.542H1024.664z"/>
		<path d="M1045.873,830.031c-1.568,1.568-3.626,2.352-6.174,2.352c-4.732,0-7.56-1.861-8.484-5.586h1.723
			c0.308,1.372,1.189,2.395,2.646,3.066c1.148,0.531,2.521,0.798,4.116,0.798c2.156,0,3.822-0.603,4.998-1.806
			c1.203-1.204,1.806-2.885,1.806-5.04v-2.562c-1.82,2.184-4.13,3.275-6.93,3.275c-2.52,0-4.635-0.854-6.342-2.563
			c-1.736-1.735-2.604-3.863-2.604-6.383c0-2.521,0.854-4.635,2.563-6.343c1.735-1.735,3.864-2.604,6.384-2.604
			c2.772,0,5.082,1.093,6.93,3.277v-3.025h1.723v16.969C1048.226,826.404,1047.441,828.463,1045.873,830.031z M1044.697,810.459
			c-1.428-1.428-3.137-2.142-5.124-2.142c-2.016,0-3.725,0.7-5.124,2.101c-1.428,1.428-2.142,3.149-2.142,5.166
			c0,1.988,0.714,3.695,2.142,5.123s3.136,2.143,5.124,2.143c2.016,0,3.724-0.699,5.124-2.1c1.428-1.429,2.142-3.15,2.142-5.166
			C1046.839,813.596,1046.125,811.887,1044.697,810.459z"/>
	</g>
</g>
<g>
	<g>
		<line fill="none" stroke="#000000" stroke-miterlimit="10" x1="885.36" y1="580.258" x2="749.67" y2="651.766"/>
		<g>
			<polygon points="881.149,578.291 884.268,580.834 884.602,584.843 890.642,577.475 			"/>
		</g>
	</g>
</g>
<g>
	<g>
		<line fill="none" stroke="#000000" stroke-miterlimit="10" x1="1168.211" y1="431.197" x2="1030.487" y2="503.776"/>
		<g>
			<polygon points="1031.245,499.191 1031.58,503.2 1034.698,505.743 1025.206,506.56 			"/>
		</g>
	</g>
</g>
</svg>
