<?xml version="1.0" encoding="utf-8"?>
<!-- Generator: Adobe Illustrator 16.0.0, SVG Export Plug-In . SVG Version: 6.00 Build 0)  -->
<!DOCTYPE svg PUBLIC "-//W3C//DTD SVG 1.1//EN" "http://www.w3.org/Graphics/SVG/1.1/DTD/svg11.dtd">
<svg version="1.1" id="Layer_1" xmlns="http://www.w3.org/2000/svg" xmlns:xlink="http://www.w3.org/1999/xlink" x="0px" y="0px"
	 width="1920px" height="1080px" viewBox="0 0 1920 1080" enable-background="new 0 0 1920 1080" xml:space="preserve">
<g>
	<g>
		<line fill="none" stroke="#000000" stroke-miterlimit="10" x1="721.03" y1="533.017" x2="1183.294" y2="533.017"/>
		<g>
			<polygon points="1180.485,536.72 1182.06,533.017 1180.485,529.313 1189.265,533.017 			"/>
		</g>
	</g>
</g>
<g>
	<g>
		<line fill="none" stroke="#000000" stroke-miterlimit="10" x1="736.708" y1="550.386" x2="1198.972" y2="550.386"/>
		<g>
			<polygon points="739.517,554.089 737.944,550.386 739.517,546.683 730.739,550.386 			"/>
		</g>
	</g>
</g>
<path fill="#EDEDED" stroke="#000000" stroke-width="0.5" stroke-miterlimit="10" d="M721.03,555.721
	c0,8.879-7.207,16.084-16.096,16.084H482.659c-8.889,0-16.09-7.205-16.09-16.084v-27.41c0-8.881,7.201-16.082,16.09-16.082h222.275
	c8.889,0,16.096,7.201,16.096,16.082V555.721z"/>
<g>
	<g>
		<path d="M515.448,555.477v-2.982c-1.82,2.185-4.13,3.276-6.93,3.276c-2.52,0-4.635-0.854-6.342-2.562
			c-1.736-1.736-2.604-3.864-2.604-6.385c0-2.52,0.854-4.633,2.563-6.342c1.735-1.736,3.864-2.604,6.384-2.604
			c2.772,0,5.082,1.092,6.93,3.275v-3.023h1.723v17.346H515.448z M513.643,541.701c-1.428-1.429-3.137-2.143-5.124-2.143
			c-2.016,0-3.725,0.7-5.124,2.1c-1.428,1.428-2.142,3.15-2.142,5.166c0,1.988,0.714,3.696,2.142,5.125
			c1.428,1.428,3.136,2.141,5.124,2.141c2.016,0,3.724-0.699,5.124-2.1c1.428-1.428,2.142-3.15,2.142-5.166
			C515.784,544.837,515.07,543.129,513.643,541.701z"/>
		<path d="M536.868,555.477v-2.982c-1.82,2.185-4.13,3.276-6.93,3.276c-2.52,0-4.635-0.854-6.342-2.562
			c-1.736-1.736-2.604-3.864-2.604-6.385c0-2.52,0.854-4.633,2.563-6.342c1.735-1.736,3.864-2.604,6.384-2.604
			c2.772,0,5.082,1.092,6.93,3.275v-3.023h1.723v17.346H536.868z M535.063,541.701c-1.428-1.429-3.137-2.143-5.124-2.143
			c-2.016,0-3.725,0.7-5.124,2.1c-1.428,1.428-2.142,3.15-2.142,5.166c0,1.988,0.714,3.696,2.142,5.125
			c1.428,1.428,3.136,2.141,5.124,2.141c2.016,0,3.724-0.699,5.124-2.1c1.428-1.428,2.142-3.15,2.142-5.166
			C537.204,544.837,536.49,543.129,535.063,541.701z"/>
		<path d="M558.288,555.477v-2.982c-1.82,2.185-4.13,3.276-6.93,3.276c-2.52,0-4.635-0.854-6.342-2.562
			c-1.736-1.736-2.604-3.864-2.604-6.385c0-2.52,0.854-4.633,2.563-6.342c1.735-1.736,3.864-2.604,6.384-2.604
			c2.772,0,5.082,1.092,6.93,3.275v-3.023h1.723v17.346H558.288z M556.482,541.701c-1.428-1.429-3.137-2.143-5.124-2.143
			c-2.016,0-3.725,0.7-5.124,2.1c-1.428,1.428-2.142,3.15-2.142,5.166c0,1.988,0.714,3.696,2.142,5.125
			c1.428,1.428,3.136,2.141,5.124,2.141c2.016,0,3.724-0.699,5.124-2.1c1.428-1.428,2.142-3.15,2.142-5.166
			C558.624,544.837,557.91,543.129,556.482,541.701z"/>
		<path d="M565.891,543.338c-0.309,0-0.63-0.125-0.967-0.377c-0.252-0.252-0.392-0.588-0.42-1.008c0-0.756,0.462-1.219,1.387-1.387
			c0.699,0,1.161,0.462,1.386,1.387C567.276,542.877,566.814,543.338,565.891,543.338z M565.891,555.729
			c-0.309,0-0.63-0.126-0.967-0.378c-0.252-0.252-0.392-0.588-0.42-1.008c0-0.757,0.462-1.218,1.387-1.386
			c0.699,0,1.161,0.461,1.386,1.386C567.276,555.267,566.814,555.729,565.891,555.729z"/>
		<path d="M588.444,553.041c-1.82,1.623-4.047,2.436-6.679,2.436H572.4v-29.988h7.308c2.324,0,4.172,0.603,5.544,1.807
			c1.456,1.288,2.184,3.08,2.184,5.375c0,2.633-1.078,4.564-3.233,5.797c2.1,0.42,3.794,1.372,5.082,2.855
			c1.26,1.484,1.89,3.305,1.89,5.461C591.174,549.359,590.264,551.444,588.444,553.041z M584.034,528.723
			c-1.148-1.008-2.549-1.512-4.2-1.512h-5.754v10.92h6.006c1.624,0,2.968-0.504,4.032-1.512c1.063-1.009,1.596-2.324,1.596-3.949
			C585.714,530.99,585.153,529.675,584.034,528.723z M587.184,541.701c-1.428-1.232-3.22-1.849-5.376-1.849h-7.728v13.901h7.728
			c2.128,0,3.934-0.643,5.418-1.932c1.513-1.287,2.269-2.967,2.269-5.039C589.494,544.683,588.724,542.988,587.184,541.701z"/>
		<path d="M606.504,553.965c-1.148,1.232-2.759,1.848-4.83,1.848c-2.045,0-3.627-0.602-4.746-1.807
			c-1.12-1.203-1.681-2.883-1.681-5.039v-10.836h1.723v10.836c0,1.652,0.363,2.926,1.092,3.822c0.756,0.896,1.96,1.344,3.612,1.344
			c3.22,0,4.83-1.723,4.83-5.166v-10.836h1.68v10.836C608.184,551.095,607.623,552.762,606.504,553.965z"/>
		<path d="M612.72,535.022c-0.309,0-0.63-0.126-0.966-0.378c-0.252-0.252-0.393-0.588-0.421-1.008c0-0.756,0.463-1.219,1.387-1.387
			c0.699,0,1.161,0.463,1.386,1.387C614.105,534.561,613.644,535.022,612.72,535.022z M611.838,555.477v-17.346h1.722v17.346
			H611.838z"/>
		<path d="M617.675,555.477v-31.08h1.68v31.08H617.675z"/>
		<path d="M639.346,555.477v-3.107c-1.848,2.268-4.199,3.401-7.056,3.401c-2.52,0-4.635-0.854-6.342-2.562
			c-1.736-1.736-2.604-3.864-2.604-6.385c0-2.52,0.854-4.633,2.563-6.342c1.735-1.736,3.864-2.604,6.384-2.604
			c2.772,0,5.124,1.134,7.056,3.402v-16.885h1.723v31.08H639.346z M637.414,541.701c-1.428-1.429-3.136-2.143-5.124-2.143
			c-2.016,0-3.725,0.7-5.124,2.1c-1.428,1.428-2.142,3.15-2.142,5.166c0,1.988,0.714,3.696,2.142,5.125
			c1.428,1.428,3.136,2.141,5.124,2.141c2.016,0,3.724-0.699,5.124-2.1c1.428-1.428,2.142-3.15,2.142-5.166
			C639.556,544.837,638.842,543.129,637.414,541.701z"/>
		<path d="M647.368,535.022c-0.309,0-0.63-0.126-0.966-0.378c-0.252-0.252-0.393-0.588-0.421-1.008c0-0.756,0.463-1.219,1.387-1.387
			c0.699,0,1.161,0.463,1.386,1.387C648.754,534.561,648.292,535.022,647.368,535.022z M646.486,555.477v-17.346h1.722v17.346
			H646.486z"/>
		<path d="M663.581,555.477v-10.374c0-3.668-1.652-5.502-4.956-5.502c-1.624,0-2.856,0.477-3.696,1.428
			c-0.868,0.952-1.302,2.255-1.302,3.906v10.542h-1.722v-17.346h1.722v2.1c0.783-1.539,2.449-2.311,4.998-2.311
			c2.155,0,3.808,0.617,4.956,1.849c1.147,1.232,1.722,2.954,1.722,5.166v10.542H663.581z"/>
		<path d="M684.79,561.272c-1.568,1.567-3.626,2.353-6.174,2.353c-4.732,0-7.56-1.863-8.484-5.586h1.723
			c0.308,1.371,1.189,2.394,2.646,3.065c1.148,0.532,2.521,0.798,4.116,0.798c2.156,0,3.822-0.602,4.998-1.806
			c1.203-1.204,1.806-2.884,1.806-5.04v-2.563c-1.82,2.185-4.13,3.276-6.93,3.276c-2.52,0-4.635-0.854-6.342-2.562
			c-1.736-1.736-2.604-3.864-2.604-6.385c0-2.52,0.854-4.633,2.563-6.342c1.735-1.736,3.864-2.604,6.384-2.604
			c2.772,0,5.082,1.092,6.93,3.275v-3.023h1.723v16.968C687.143,557.646,686.358,559.704,684.79,561.272z M683.614,541.701
			c-1.428-1.429-3.137-2.143-5.124-2.143c-2.016,0-3.725,0.7-5.124,2.1c-1.428,1.428-2.142,3.15-2.142,5.166
			c0,1.988,0.714,3.696,2.142,5.125c1.428,1.428,3.136,2.141,5.124,2.141c2.016,0,3.724-0.699,5.124-2.1
			c1.428-1.428,2.142-3.15,2.142-5.166C685.756,544.837,685.042,543.129,683.614,541.701z"/>
	</g>
</g>
<g>
	<g>
		<path d="M844.746,582.794c-1.447,1.446-3.22,2.17-5.32,2.17c-2.1,0-3.861-0.712-5.285-2.136c-1.446-1.445-2.17-3.219-2.17-5.319
			c0-2.077,0.724-3.838,2.17-5.285c1.424-1.47,3.186-2.205,5.285-2.205c2.077,0,3.838,0.724,5.285,2.171
			c1.446,1.446,2.17,3.219,2.17,5.319S846.169,581.371,844.746,582.794z M843.731,573.203c-1.167-1.189-2.603-1.784-4.306-1.784
			c-1.633,0-3.045,0.606-4.234,1.819c-1.214,1.214-1.82,2.638-1.82,4.271c0,1.657,0.595,3.08,1.785,4.271
			c1.189,1.189,2.613,1.785,4.27,1.785c1.681,0,3.104-0.584,4.271-1.75c1.189-1.191,1.785-2.625,1.785-4.306
			C845.481,575.806,844.897,574.371,843.731,573.203z"/>
		<path d="M862.911,585.349l-4.515-11.55l-4.585,11.55l-6.476-15.085h1.54l4.865,11.2l4.655-11.655l4.62,11.62l4.83-11.165h1.609
			L862.911,585.349z"/>
		<path d="M872.956,584.719v-25.9h1.399v25.9H872.956z"/>
		<path d="M879.921,574.604c-0.258,0-0.525-0.105-0.806-0.314c-0.21-0.211-0.327-0.49-0.35-0.84c0-0.631,0.385-1.016,1.155-1.155
			c0.583,0,0.968,0.385,1.154,1.155C881.075,574.219,880.69,574.604,879.921,574.604z M879.921,584.929
			c-0.258,0-0.525-0.104-0.806-0.315c-0.21-0.209-0.327-0.49-0.35-0.84c0-0.63,0.385-1.015,1.155-1.154
			c0.583,0,0.968,0.385,1.154,1.154C881.075,584.544,880.69,584.929,879.921,584.929z"/>
		<path d="M885.274,577.193c0,1.961,0.525,3.512,1.575,4.655c1.097,1.167,2.602,1.75,4.515,1.75c0.98,0,1.867-0.163,2.66-0.489
			c1.003-0.42,1.901-1.271,2.695-2.556l1.295,0.595c-0.91,1.728-2.311,2.895-4.2,3.5c-0.724,0.233-1.54,0.35-2.45,0.35
			c-2.17,0-3.955-0.711-5.354-2.135c-1.424-1.422-2.135-3.207-2.135-5.354c0-2.17,0.699-3.955,2.1-5.354
			c1.423-1.424,3.22-2.136,5.39-2.136c2.146,0,3.92,0.665,5.32,1.995c1.423,1.33,2.135,3.057,2.135,5.18H885.274z M895.145,572.609
			c-1.097-0.793-2.357-1.19-3.78-1.19c-2.986,0-4.946,1.47-5.88,4.409h11.726C896.976,574.498,896.287,573.426,895.145,572.609z"/>
		<path d="M914.219,591.509v-9.38c-1.54,1.89-3.5,2.835-5.88,2.835c-2.1,0-3.862-0.712-5.285-2.136
			c-1.446-1.445-2.17-3.219-2.17-5.319s0.712-3.861,2.135-5.285c1.447-1.446,3.221-2.17,5.32-2.17c2.333,0,4.293,0.944,5.88,2.835
			v-2.625h1.436v21.245H914.219z M912.609,573.238c-1.19-1.189-2.614-1.785-4.271-1.785c-1.68,0-3.104,0.584-4.27,1.75
			c-1.19,1.19-1.785,2.625-1.785,4.306c0,1.657,0.595,3.08,1.785,4.271c1.189,1.189,2.612,1.785,4.27,1.785
			c1.68,0,3.104-0.584,4.271-1.75c1.189-1.191,1.784-2.625,1.784-4.306C914.394,575.852,913.799,574.429,912.609,573.238z"/>
		<path d="M928.919,583.459c-0.957,1.027-2.298,1.539-4.024,1.539c-1.704,0-3.022-0.501-3.955-1.504c-0.934-1.004-1.4-2.403-1.4-4.2
			v-9.03h1.436v9.03c0,1.377,0.303,2.438,0.91,3.185c0.63,0.747,1.633,1.12,3.01,1.12c2.683,0,4.024-1.435,4.024-4.305v-9.03h1.4
			v9.03C930.319,581.067,929.853,582.455,928.919,583.459z"/>
		<path d="M934.1,567.674c-0.257,0-0.525-0.105-0.805-0.314c-0.21-0.211-0.327-0.49-0.351-0.841c0-0.63,0.385-1.015,1.155-1.155
			c0.583,0,0.968,0.385,1.155,1.155C935.255,567.289,934.869,567.674,934.1,567.674z M933.364,584.719v-14.455h1.436v14.455H933.364
			z"/>
		<path d="M945.019,585.349l-6.824-15.085h1.54l5.25,11.516l5.284-11.516h1.61L945.019,585.349z"/>
		<path d="M966.929,584.719v-2.484c-1.518,1.819-3.442,2.729-5.775,2.729c-2.1,0-3.861-0.712-5.285-2.136
			c-1.446-1.445-2.17-3.219-2.17-5.319s0.712-3.861,2.136-5.285c1.446-1.446,3.22-2.17,5.319-2.17c2.311,0,4.235,0.91,5.775,2.729
			v-2.52h1.435v14.455H966.929z M965.424,573.238c-1.19-1.189-2.613-1.785-4.271-1.785c-1.68,0-3.104,0.584-4.27,1.75
			c-1.19,1.19-1.785,2.625-1.785,4.306c0,1.657,0.595,3.08,1.785,4.271c1.189,1.189,2.613,1.785,4.27,1.785
			c1.681,0,3.104-0.584,4.271-1.75c1.189-1.191,1.785-2.625,1.785-4.306C967.209,575.852,966.613,574.429,965.424,573.238z"/>
		<path d="M973.019,584.719v-25.9h1.399v25.9H973.019z"/>
		<path d="M979.633,577.193c0,1.961,0.525,3.512,1.575,4.655c1.097,1.167,2.602,1.75,4.515,1.75c0.98,0,1.867-0.163,2.66-0.489
			c1.003-0.42,1.901-1.271,2.695-2.556l1.295,0.595c-0.91,1.728-2.311,2.895-4.2,3.5c-0.724,0.233-1.54,0.35-2.45,0.35
			c-2.17,0-3.955-0.711-5.354-2.135c-1.424-1.422-2.135-3.207-2.135-5.354c0-2.17,0.699-3.955,2.1-5.354
			c1.423-1.424,3.22-2.136,5.39-2.136c2.146,0,3.92,0.665,5.32,1.995c1.423,1.33,2.135,3.057,2.135,5.18H979.633z M989.503,572.609
			c-1.097-0.793-2.357-1.19-3.78-1.19c-2.986,0-4.946,1.47-5.88,4.409h11.726C991.334,574.498,990.646,573.426,989.503,572.609z"/>
		<path d="M1006.232,584.719v-8.645c0-3.057-1.377-4.586-4.13-4.586c-1.354,0-2.38,0.397-3.08,1.19
			c-0.724,0.794-1.085,1.878-1.085,3.255v8.785h-1.436v-14.455h1.436v1.75c0.653-1.283,2.041-1.925,4.165-1.925
			c1.796,0,3.173,0.513,4.13,1.54c0.956,1.027,1.435,2.462,1.435,4.305v8.785H1006.232z"/>
		<path d="M1014.458,571.699v13.02h-1.436v-13.02h-1.96v-1.436h1.96v-6.335h1.436v6.335h3.359v1.436H1014.458z"/>
		<path d="M1040.428,583.248c-1.308,0.957-3.08,1.541-5.32,1.75c-0.257,0.023-0.537,0.041-0.84,0.053
			c-0.304,0.012-0.618,0.018-0.945,0.018c-3.779,0-6.859-1.189-9.239-3.57c-2.404-2.402-3.605-5.494-3.605-9.274
			s1.19-6.86,3.57-9.239c2.402-2.404,5.495-3.605,9.274-3.605c2.146,0,4.083,0.314,5.811,0.945c1.026,0.396,2.018,0.969,2.975,1.715
			v1.785c-0.979-0.816-2.054-1.471-3.22-1.961c-1.773-0.723-3.629-1.084-5.565-1.084c-3.313,0-6.043,1.072-8.189,3.219
			c-2.147,2.148-3.221,4.889-3.221,8.226s1.062,6.067,3.186,8.19c2.146,2.146,4.888,3.22,8.225,3.22c2.077,0,3.886-0.373,5.425-1.12
			c0.887-0.443,2.007-1.154,3.36-2.135v1.645L1040.428,583.248z"/>
		<path d="M1044.208,584.719v-25.9h1.399v25.9H1044.208z"/>
		<path d="M1062.688,584.719v-2.484c-1.518,1.819-3.442,2.729-5.775,2.729c-2.1,0-3.861-0.712-5.285-2.136
			c-1.446-1.445-2.17-3.219-2.17-5.319s0.712-3.861,2.136-5.285c1.446-1.446,3.22-2.17,5.319-2.17c2.311,0,4.235,0.91,5.775,2.729
			v-2.52h1.435v14.455H1062.688z M1061.183,573.238c-1.19-1.189-2.613-1.785-4.271-1.785c-1.68,0-3.104,0.584-4.27,1.75
			c-1.19,1.19-1.785,2.625-1.785,4.306c0,1.657,0.595,3.08,1.785,4.271c1.189,1.189,2.613,1.785,4.27,1.785
			c1.681,0,3.104-0.584,4.271-1.75c1.189-1.191,1.785-2.625,1.785-4.306C1062.968,575.852,1062.372,574.429,1061.183,573.238z"/>
		<path d="M1075.497,583.809c-0.934,0.793-2.054,1.189-3.36,1.189c-2.239,0-3.92-1.014-5.04-3.045l1.226-0.734
			c0.396,0.724,0.875,1.283,1.435,1.68c0.583,0.443,1.377,0.666,2.38,0.666c2.193,0,3.29-0.934,3.29-2.801
			c0-0.816-0.385-1.527-1.154-2.135c-0.234-0.141-0.566-0.298-0.998-0.473s-0.962-0.379-1.593-0.612
			c-1.167-0.421-2.007-0.841-2.52-1.261c-0.747-0.605-1.12-1.48-1.12-2.625c0-0.979,0.373-1.819,1.12-2.52
			c0.723-0.723,1.668-1.085,2.835-1.085c1.61,0,2.975,0.56,4.095,1.681l-1.05,0.909c-0.794-0.793-1.809-1.19-3.045-1.19
			c-1.68,0-2.521,0.736-2.521,2.205c0,0.654,0.257,1.19,0.771,1.61c0.42,0.327,1.085,0.642,1.995,0.945
			c0.793,0.28,1.446,0.542,1.96,0.788c0.513,0.244,0.897,0.461,1.155,0.646c1.003,0.771,1.505,1.809,1.505,3.115
			C1076.862,582.023,1076.407,583.039,1075.497,583.809z"/>
		<path d="M1087.082,583.809c-0.934,0.793-2.054,1.189-3.36,1.189c-2.239,0-3.92-1.014-5.04-3.045l1.226-0.734
			c0.396,0.724,0.875,1.283,1.435,1.68c0.583,0.443,1.377,0.666,2.38,0.666c2.193,0,3.29-0.934,3.29-2.801
			c0-0.816-0.385-1.527-1.154-2.135c-0.234-0.141-0.566-0.298-0.998-0.473s-0.962-0.379-1.593-0.612
			c-1.167-0.421-2.007-0.841-2.52-1.261c-0.747-0.605-1.12-1.48-1.12-2.625c0-0.979,0.373-1.819,1.12-2.52
			c0.723-0.723,1.668-1.085,2.835-1.085c1.61,0,2.975,0.56,4.095,1.681l-1.05,0.909c-0.794-0.793-1.809-1.19-3.045-1.19
			c-1.68,0-2.521,0.736-2.521,2.205c0,0.654,0.257,1.19,0.771,1.61c0.42,0.327,1.085,0.642,1.995,0.945
			c0.793,0.28,1.446,0.542,1.96,0.788c0.513,0.244,0.897,0.461,1.155,0.646c1.003,0.771,1.505,1.809,1.505,3.115
			C1088.447,582.023,1087.992,583.039,1087.082,583.809z"/>
	</g>
</g>
<path fill="#EDEDED" stroke="#000000" stroke-width="0.5" stroke-miterlimit="10" d="M1453.433,555.721
	c0,8.879-7.207,16.084-16.096,16.084h-222.275c-8.889,0-16.09-7.205-16.09-16.084v-27.41c0-8.881,7.201-16.082,16.09-16.082h222.275
	c8.889,0,16.096,7.201,16.096,16.082V555.721z"/>
<g>
	<g>
		<path d="M1247.576,553.166c-1.736,1.736-3.863,2.604-6.383,2.604c-2.885,0-5.25-1.161-7.098-3.485v3.191h-1.723v-31.08h1.723
			v16.969c1.818-2.324,4.186-3.486,7.098-3.486c2.52,0,4.633,0.854,6.342,2.562c1.736,1.736,2.604,3.864,2.604,6.384
			C1250.139,549.345,1249.285,551.459,1247.576,553.166z M1246.316,541.701c-1.428-1.429-3.135-2.143-5.123-2.143
			c-2.016,0-3.725,0.7-5.125,2.1c-1.428,1.428-2.141,3.15-2.141,5.166c0,1.988,0.713,3.696,2.141,5.125
			c1.428,1.428,3.137,2.141,5.125,2.141c2.016,0,3.723-0.699,5.123-2.1c1.428-1.428,2.143-3.15,2.143-5.166
			C1248.459,544.837,1247.744,543.129,1246.316,541.701z"/>
		<path d="M1269.291,553.166c-1.736,1.736-3.863,2.604-6.385,2.604c-2.883,0-5.25-1.161-7.098-3.485v3.191h-1.723v-31.08h1.723
			v16.969c1.82-2.324,4.186-3.486,7.098-3.486c2.521,0,4.635,0.854,6.342,2.562c1.736,1.736,2.605,3.864,2.605,6.384
			C1271.854,549.345,1270.998,551.459,1269.291,553.166z M1268.031,541.701c-1.428-1.429-3.137-2.143-5.125-2.143
			c-2.016,0-3.723,0.7-5.123,2.1c-1.428,1.428-2.143,3.15-2.143,5.166c0,1.988,0.715,3.696,2.143,5.125
			c1.428,1.428,3.135,2.141,5.123,2.141c2.018,0,3.725-0.699,5.125-2.1c1.428-1.428,2.143-3.15,2.143-5.166
			C1270.174,544.837,1269.459,543.129,1268.031,541.701z"/>
		<path d="M1291.004,553.166c-1.736,1.736-3.863,2.604-6.383,2.604c-2.885,0-5.25-1.161-7.098-3.485v3.191h-1.723v-31.08h1.723
			v16.969c1.818-2.324,4.186-3.486,7.098-3.486c2.52,0,4.633,0.854,6.342,2.562c1.736,1.736,2.604,3.864,2.604,6.384
			C1293.566,549.345,1292.713,551.459,1291.004,553.166z M1289.744,541.701c-1.428-1.429-3.135-2.143-5.123-2.143
			c-2.016,0-3.725,0.7-5.125,2.1c-1.428,1.428-2.141,3.15-2.141,5.166c0,1.988,0.713,3.696,2.141,5.125
			c1.428,1.428,3.137,2.141,5.125,2.141c2.016,0,3.723-0.699,5.123-2.1c1.428-1.428,2.143-3.15,2.143-5.166
			C1291.887,544.837,1291.172,543.129,1289.744,541.701z"/>
		<path d="M1298.732,543.338c-0.309,0-0.629-0.125-0.967-0.377c-0.252-0.252-0.391-0.588-0.42-1.008
			c0-0.756,0.463-1.219,1.387-1.387c0.699,0,1.162,0.462,1.387,1.387C1300.119,542.877,1299.656,543.338,1298.732,543.338z
			 M1298.732,555.729c-0.309,0-0.629-0.126-0.967-0.378c-0.252-0.252-0.391-0.588-0.42-1.008c0-0.757,0.463-1.218,1.387-1.386
			c0.699,0,1.162,0.461,1.387,1.386C1300.119,555.267,1299.656,555.729,1298.732,555.729z"/>
		<path d="M1321.287,553.041c-1.82,1.623-4.047,2.436-6.68,2.436h-9.365v-29.988h7.309c2.324,0,4.172,0.603,5.543,1.807
			c1.457,1.288,2.184,3.08,2.184,5.375c0,2.633-1.078,4.564-3.232,5.797c2.1,0.42,3.793,1.372,5.082,2.855
			c1.26,1.484,1.889,3.305,1.889,5.461C1324.016,549.359,1323.105,551.444,1321.287,553.041z M1316.877,528.723
			c-1.148-1.008-2.549-1.512-4.201-1.512h-5.754v10.92h6.006c1.625,0,2.969-0.504,4.033-1.512c1.063-1.009,1.596-2.324,1.596-3.949
			C1318.557,530.99,1317.996,529.675,1316.877,528.723z M1320.025,541.701c-1.428-1.232-3.219-1.849-5.375-1.849h-7.729v13.901
			h7.729c2.127,0,3.934-0.643,5.418-1.932c1.512-1.287,2.268-2.967,2.268-5.039C1322.336,544.683,1321.566,542.988,1320.025,541.701
			z"/>
		<path d="M1339.346,553.965c-1.148,1.232-2.758,1.848-4.83,1.848c-2.045,0-3.627-0.602-4.746-1.807
			c-1.119-1.203-1.68-2.883-1.68-5.039v-10.836h1.723v10.836c0,1.652,0.363,2.926,1.092,3.822c0.756,0.896,1.959,1.344,3.611,1.344
			c3.221,0,4.83-1.723,4.83-5.166v-10.836h1.68v10.836C1341.025,551.095,1340.465,552.762,1339.346,553.965z"/>
		<path d="M1345.563,535.022c-0.309,0-0.631-0.126-0.967-0.378c-0.252-0.252-0.393-0.588-0.42-1.008
			c0-0.756,0.463-1.219,1.387-1.387c0.699,0,1.16,0.463,1.385,1.387C1346.947,534.561,1346.486,535.022,1345.563,535.022z
			 M1344.68,555.477v-17.346h1.723v17.346H1344.68z"/>
		<path d="M1350.518,555.477v-31.08h1.68v31.08H1350.518z"/>
		<path d="M1372.189,555.477v-3.107c-1.848,2.268-4.199,3.401-7.057,3.401c-2.52,0-4.635-0.854-6.342-2.562
			c-1.736-1.736-2.604-3.864-2.604-6.385c0-2.52,0.854-4.633,2.563-6.342c1.734-1.736,3.863-2.604,6.383-2.604
			c2.773,0,5.125,1.134,7.057,3.402v-16.885h1.723v31.08H1372.189z M1370.258,541.701c-1.428-1.429-3.137-2.143-5.125-2.143
			c-2.016,0-3.725,0.7-5.123,2.1c-1.428,1.428-2.143,3.15-2.143,5.166c0,1.988,0.715,3.696,2.143,5.125
			c1.428,1.428,3.135,2.141,5.123,2.141c2.016,0,3.725-0.699,5.125-2.1c1.428-1.428,2.141-3.15,2.141-5.166
			C1372.398,544.837,1371.686,543.129,1370.258,541.701z"/>
		<path d="M1380.211,535.022c-0.309,0-0.629-0.126-0.965-0.378c-0.252-0.252-0.393-0.588-0.422-1.008
			c0-0.756,0.463-1.219,1.387-1.387c0.699,0,1.162,0.463,1.387,1.387C1381.598,534.561,1381.135,535.022,1380.211,535.022z
			 M1379.33,555.477v-17.346h1.721v17.346H1379.33z"/>
		<path d="M1396.424,555.477v-10.374c0-3.668-1.652-5.502-4.957-5.502c-1.623,0-2.855,0.477-3.695,1.428
			c-0.869,0.952-1.303,2.255-1.303,3.906v10.542h-1.721v-17.346h1.721v2.1c0.783-1.539,2.449-2.311,4.998-2.311
			c2.156,0,3.809,0.617,4.957,1.849c1.146,1.232,1.721,2.954,1.721,5.166v10.542H1396.424z"/>
		<path d="M1417.633,561.272c-1.568,1.567-3.627,2.353-6.174,2.353c-4.732,0-7.561-1.863-8.484-5.586h1.723
			c0.307,1.371,1.189,2.394,2.645,3.065c1.148,0.532,2.521,0.798,4.117,0.798c2.156,0,3.822-0.602,4.998-1.806
			c1.203-1.204,1.805-2.884,1.805-5.04v-2.563c-1.82,2.185-4.129,3.276-6.93,3.276c-2.52,0-4.635-0.854-6.342-2.562
			c-1.736-1.736-2.604-3.864-2.604-6.385c0-2.52,0.854-4.633,2.563-6.342c1.734-1.736,3.863-2.604,6.383-2.604
			c2.773,0,5.082,1.092,6.93,3.275v-3.023h1.723v16.968C1419.984,557.646,1419.201,559.704,1417.633,561.272z M1416.457,541.701
			c-1.428-1.429-3.137-2.143-5.125-2.143c-2.016,0-3.725,0.7-5.123,2.1c-1.428,1.428-2.143,3.15-2.143,5.166
			c0,1.988,0.715,3.696,2.143,5.125c1.428,1.428,3.135,2.141,5.123,2.141c2.016,0,3.725-0.699,5.125-2.1
			c1.428-1.428,2.141-3.15,2.141-5.166C1418.598,544.837,1417.885,543.129,1416.457,541.701z"/>
	</g>
</g>
</svg>
