<?xml version="1.0" encoding="utf-8"?>
<!-- Generator: Adobe Illustrator 16.0.0, SVG Export Plug-In . SVG Version: 6.00 Build 0)  -->
<!DOCTYPE svg PUBLIC "-//W3C//DTD SVG 1.1//EN" "http://www.w3.org/Graphics/SVG/1.1/DTD/svg11.dtd">
<svg version="1.1" id="Layer_1" xmlns="http://www.w3.org/2000/svg" xmlns:xlink="http://www.w3.org/1999/xlink" x="0px" y="0px"
	 width="1920px" height="1080px" viewBox="0 0 1920 1080" enable-background="new 0 0 1920 1080" xml:space="preserve">
<g>
	<g>
		<path fill="none" stroke="#000000" stroke-width="1.1074" stroke-miterlimit="10" d="M722.971,662.611
			c240.489,87.771,463.595,19.453,503.225,5.906"/>
		<g>
			<polygon points="1224.578,673.361 1224.881,668.916 1221.895,665.611 1232.422,666.305 			"/>
		</g>
	</g>
</g>
<path fill="#ACCED3" stroke="#000000" stroke-width="1.1074" stroke-miterlimit="10" d="M1518.637,646.652
	c0,11.719-9.518,21.209-21.23,21.209h-245.864c-11.724,0-21.218-9.49-21.218-21.209V610.52c0-11.697,9.494-21.195,21.218-21.195
	h245.864c11.713,0,21.23,9.498,21.23,21.195V646.652z"/>
<g>
	<g>
		<path d="M1286.679,631.787l13.898-8.471v2.492l-9.856,5.979l9.856,5.98v2.492L1286.679,631.787z"/>
		<path d="M1328.648,647.348l-7.143-18.273l-7.254,18.273l-10.243-23.865h2.437l7.696,17.719l7.364-18.438l7.309,18.381
			l7.641-17.662h2.547L1328.648,647.348z"/>
		<path d="M1360.596,646.35v-3.932c-2.399,2.881-5.445,4.32-9.136,4.32c-3.322,0-6.109-1.127-8.36-3.379
			c-2.289-2.287-3.434-5.094-3.434-8.416s1.126-6.107,3.378-8.359c2.288-2.289,5.094-3.434,8.416-3.434
			c3.654,0,6.7,1.439,9.136,4.318v-3.986h2.271v22.867H1360.596z M1358.215,628.189c-1.882-1.883-4.134-2.824-6.755-2.824
			c-2.657,0-4.909,0.924-6.755,2.768c-1.883,1.883-2.824,4.154-2.824,6.811c0,2.621,0.941,4.873,2.824,6.756
			s4.134,2.824,6.755,2.824c2.658,0,4.909-0.922,6.755-2.77c1.883-1.883,2.824-4.152,2.824-6.811
			C1361.039,632.324,1360.098,630.072,1358.215,628.189z"/>
		<path d="M1370.23,646.35v-40.973h2.215v40.973H1370.23z"/>
		<path d="M1377.317,646.35v-40.973h2.215v40.973H1377.317z"/>
		<path d="M1405.224,626.473c-0.333,0.406-0.831,1.006-1.495,1.799c-0.665,0.795-1.515,1.781-2.547,2.963l-11.352,12.846h18.937
			v2.27h-23.919l19.379-22.424c1.55-2.215,2.325-4.521,2.325-6.922c0-2.324-0.923-4.299-2.769-5.924
			c-1.846-1.586-3.986-2.381-6.423-2.381c-2.989,0-5.334,0.961-7.031,2.879c-1.034,1.145-1.754,2.566-2.16,4.264h-2.491
			c0.258-1.92,1.218-3.82,2.879-5.703c2.215-2.436,5.149-3.654,8.804-3.654c3.138,0,5.832,0.979,8.084,2.934
			c2.251,1.92,3.378,4.449,3.378,7.586C1408.822,620.215,1407.622,623.371,1405.224,626.473z"/>
		<path d="M1433.351,626.473c-0.333,0.406-0.831,1.006-1.495,1.799c-0.665,0.795-1.515,1.781-2.547,2.963l-11.352,12.846h18.937
			v2.27h-23.919l19.379-22.424c1.55-2.215,2.325-4.521,2.325-6.922c0-2.324-0.923-4.299-2.769-5.924
			c-1.846-1.586-3.986-2.381-6.423-2.381c-2.989,0-5.334,0.961-7.031,2.879c-1.034,1.145-1.754,2.566-2.16,4.264h-2.491
			c0.258-1.92,1.218-3.82,2.879-5.703c2.215-2.436,5.149-3.654,8.804-3.654c3.138,0,5.832,0.979,8.084,2.934
			c2.251,1.92,3.378,4.449,3.378,7.586C1436.949,620.215,1435.749,623.371,1433.351,626.473z"/>
		<path d="M1442.319,640.26v-2.492l9.801-5.98l-9.801-5.979v-2.492l13.897,8.471L1442.319,640.26z"/>
	</g>
</g>
<path fill="#ACCED3" stroke="#000000" stroke-width="1.1074" stroke-miterlimit="10" d="M1121.843,646.652
	c0,11.719-9.519,21.209-21.228,21.209H854.76c-11.723,0-21.218-9.49-21.218-21.209V610.52c0-11.697,9.495-21.195,21.218-21.195
	h245.855c11.709,0,21.228,9.498,21.228,21.195V646.652z"/>
<g>
	<g>
		<path d="M853.044,631.787l13.898-8.471v2.492l-9.856,5.979l9.856,5.98v2.492L853.044,631.787z"/>
		<path d="M873.974,619.385c-0.407,0-0.831-0.166-1.273-0.498c-0.333-0.332-0.518-0.775-0.554-1.328
			c0-0.998,0.608-1.605,1.827-1.828c0.922,0,1.531,0.609,1.827,1.828C875.801,618.775,875.191,619.385,873.974,619.385z
			 M872.811,646.35v-22.867h2.271v22.867H872.811z"/>
		<path d="M895.346,646.35v-13.676c0-4.836-2.179-7.254-6.533-7.254c-2.142,0-3.766,0.629-4.873,1.883
			c-1.145,1.256-1.716,2.973-1.716,5.15v13.896h-2.271v-22.867h2.271v2.77c1.032-2.031,3.229-3.047,6.589-3.047
			c2.842,0,5.02,0.813,6.533,2.438s2.271,3.895,2.271,6.811v13.896H895.346z"/>
		<path d="M908.356,625.752v20.598h-2.27v-20.598h-3.101v-2.27h3.101v-10.021h2.27v10.021h5.315v2.27H908.356z"/>
		<path d="M919.21,634.445c0,3.102,0.83,5.557,2.491,7.365c1.734,1.846,4.115,2.768,7.143,2.768c1.551,0,2.953-0.258,4.208-0.775
			c1.587-0.664,3.009-2.012,4.264-4.041l2.049,0.941c-1.439,2.73-3.654,4.576-6.645,5.537c-1.145,0.367-2.437,0.553-3.876,0.553
			c-3.433,0-6.257-1.125-8.472-3.377c-2.252-2.252-3.377-5.076-3.377-8.473c0-3.432,1.107-6.256,3.322-8.471
			c2.251-2.252,5.094-3.377,8.526-3.377c3.396,0,6.201,1.051,8.416,3.156c2.251,2.104,3.378,4.836,3.378,8.193H919.21z
			 M934.824,627.191c-1.736-1.254-3.729-1.881-5.98-1.881c-4.726,0-7.826,2.324-9.302,6.977h18.549
			C937.721,630.182,936.632,628.484,934.824,627.191z"/>
		<path d="M956.694,626.859c-0.591-0.441-1.218-0.793-1.883-1.051c-0.664-0.258-1.365-0.389-2.104-0.389
			c-0.628,0-1.218,0.195-1.771,0.582s-1.034,0.867-1.44,1.439s-0.729,1.209-0.969,1.91s-0.359,1.348-0.359,1.938v15.061h-2.271
			v-22.867h2.271v3.102c0.479-0.85,1.107-1.625,1.882-2.326c0.775-0.701,1.624-1.053,2.548-1.053c1.144,0,2.085,0.131,2.823,0.389
			s1.568,0.719,2.492,1.385L956.694,626.859z"/>
		<path d="M971.755,607.646l-1.495-0.166c-2.067,0-3.101,1.219-3.101,3.654v12.348h5.426v2.27h-5.426v20.598h-2.271v-20.598h-3.101
			v-2.27h3.101v-13.012c0-3.506,1.771-5.26,5.315-5.26c0.812,0,1.329,0.037,1.551,0.111c0.442,0,0.941,0.129,1.495,0.387v2.27
			L971.755,607.646z"/>
		<path d="M994.29,646.35v-3.932c-2.399,2.881-5.445,4.32-9.136,4.32c-3.322,0-6.109-1.127-8.36-3.379
			c-2.289-2.287-3.434-5.094-3.434-8.416s1.126-6.107,3.378-8.359c2.288-2.289,5.094-3.434,8.416-3.434
			c3.654,0,6.7,1.439,9.136,4.318v-3.986h2.271v22.867H994.29z M991.909,628.189c-1.882-1.883-4.134-2.824-6.755-2.824
			c-2.657,0-4.909,0.924-6.755,2.768c-1.883,1.883-2.824,4.154-2.824,6.811c0,2.621,0.941,4.873,2.824,6.756
			s4.134,2.824,6.755,2.824c2.658,0,4.909-0.922,6.755-2.77c1.883-1.883,2.824-4.152,2.824-6.811
			C994.733,632.324,993.792,630.072,991.909,628.189z"/>
		<path d="M1014.112,646.793c-3.396,0-6.22-1.125-8.472-3.377s-3.377-5.076-3.377-8.473c0-3.395,1.125-6.219,3.377-8.471
			s5.075-3.377,8.472-3.377c2.916,0,5.241,0.664,6.977,1.992v2.713l-1.439-0.941l-1.551-0.83c-1.402-0.479-2.731-0.719-3.986-0.719
			c-2.843,0-5.149,0.885-6.921,2.656c-1.809,1.811-2.713,4.135-2.713,6.977c0,2.807,0.904,5.113,2.713,6.922
			c1.808,1.809,4.115,2.713,6.921,2.713c2.658,0,4.983-0.887,6.977-2.658v2.824C1019.021,646.111,1016.696,646.793,1014.112,646.793
			z"/>
		<path d="M1024.744,634.445c0,3.102,0.83,5.557,2.491,7.365c1.734,1.846,4.115,2.768,7.143,2.768c1.551,0,2.953-0.258,4.208-0.775
			c1.587-0.664,3.009-2.012,4.264-4.041l2.049,0.941c-1.439,2.73-3.654,4.576-6.645,5.537c-1.145,0.367-2.437,0.553-3.876,0.553
			c-3.433,0-6.257-1.125-8.472-3.377c-2.252-2.252-3.377-5.076-3.377-8.473c0-3.432,1.107-6.256,3.322-8.471
			c2.251-2.252,5.094-3.377,8.526-3.377c3.396,0,6.201,1.051,8.416,3.156c2.251,2.104,3.378,4.836,3.378,8.193H1024.744z
			 M1040.358,627.191c-1.736-1.254-3.729-1.881-5.98-1.881c-4.726,0-7.826,2.324-9.302,6.977h18.549
			C1043.255,630.182,1042.166,628.484,1040.358,627.191z"/>
		<path d="M1075.851,646.35l-4.541-11.848h-17.994l-4.596,11.848h-2.215l15.78-40.807l15.835,40.807H1075.851z M1062.285,611.301
			l-8.084,20.93h16.168L1062.285,611.301z"/>
		<path d="M1082.384,640.26v-2.492l9.801-5.98l-9.801-5.979v-2.492l13.897,8.471L1082.384,640.26z"/>
	</g>
</g>
<g>
	<g>
		<path d="M1069.384,567.81c-1.717,1.718-3.82,2.575-6.312,2.575c-2.852,0-5.191-1.148-7.019-3.447v3.156h-1.702v-30.73h1.702
			v16.777c1.8-2.298,4.139-3.447,7.019-3.447c2.491,0,4.581,0.846,6.271,2.533c1.716,1.717,2.574,3.82,2.574,6.313
			S1071.072,566.121,1069.384,567.81z M1068.139,556.473c-1.412-1.412-3.102-2.117-5.066-2.117c-1.993,0-3.683,0.691-5.066,2.076
			c-1.412,1.412-2.118,3.114-2.118,5.107c0,1.967,0.706,3.654,2.118,5.066s3.101,2.117,5.066,2.117c1.993,0,3.682-0.691,5.066-2.076
			c1.412-1.412,2.117-3.114,2.117-5.107C1070.256,559.574,1069.551,557.885,1068.139,556.473z"/>
		<path d="M1090.148,567.81c-1.718,1.718-3.821,2.575-6.313,2.575s-4.582-0.845-6.271-2.533c-1.717-1.717-2.575-3.82-2.575-6.313
			c0-2.464,0.858-4.554,2.575-6.271c1.688-1.744,3.779-2.616,6.271-2.616c2.464,0,4.554,0.858,6.271,2.574
			c1.716,1.717,2.575,3.82,2.575,6.313S1091.836,566.121,1090.148,567.81z M1088.943,556.432c-1.385-1.412-3.087-2.118-5.107-2.118
			c-1.938,0-3.613,0.72-5.024,2.159c-1.44,1.439-2.16,3.129-2.16,5.066c0,1.967,0.706,3.654,2.118,5.066s3.101,2.117,5.066,2.117
			c1.993,0,3.682-0.691,5.066-2.076c1.412-1.412,2.118-3.114,2.118-5.107C1091.021,559.519,1090.328,557.816,1088.943,556.432z"/>
		<path d="M1099.532,554.646v15.448h-1.702v-15.448h-2.326v-1.702h2.326v-7.517h1.702v7.517h3.986v1.702H1099.532z"/>
		<path d="M1108.087,558.092c-0.305,0-0.623-0.124-0.955-0.373c-0.249-0.25-0.388-0.582-0.415-0.996c0-0.748,0.456-1.205,1.37-1.371
			c0.691,0,1.148,0.457,1.37,1.371C1109.457,557.636,1109.001,558.092,1108.087,558.092z M1108.087,570.343
			c-0.305,0-0.623-0.124-0.955-0.374c-0.249-0.248-0.388-0.581-0.415-0.996c0-0.748,0.456-1.205,1.37-1.371
			c0.691,0,1.148,0.457,1.37,1.371C1109.457,569.887,1109.001,570.343,1108.087,570.343z"/>
		<path d="M1115.271,549.87c-0.305,0-0.623-0.124-0.955-0.374c-0.249-0.249-0.388-0.581-0.415-0.996c0-0.748,0.457-1.205,1.37-1.371
			c0.692,0,1.148,0.457,1.371,1.371C1116.642,549.413,1116.185,549.87,1115.271,549.87z M1114.398,570.094v-17.15h1.703v17.15
			H1114.398z"/>
		<path d="M1131.3,570.094v-10.258c0-3.626-1.634-5.439-4.9-5.439c-1.605,0-2.823,0.471-3.654,1.412
			c-0.858,0.941-1.287,2.229-1.287,3.861v10.424h-1.702v-17.15h1.702v2.076c0.774-1.522,2.422-2.284,4.941-2.284
			c2.132,0,3.765,0.609,4.9,1.827c1.135,1.219,1.703,2.922,1.703,5.107v10.424H1131.3z"/>
		<path d="M1141.059,554.646v15.448h-1.702v-15.448h-2.326v-1.702h2.326v-7.517h1.702v7.517h3.986v1.702H1141.059z"/>
		<path d="M1149.198,561.166c0,2.324,0.623,4.166,1.868,5.522c1.302,1.385,3.087,2.076,5.357,2.076c1.163,0,2.215-0.193,3.156-0.581
			c1.189-0.498,2.256-1.509,3.197-3.031l1.536,0.705c-1.079,2.05-2.74,3.434-4.982,4.153c-0.858,0.276-1.827,0.415-2.907,0.415
			c-2.575,0-4.692-0.844-6.354-2.533c-1.689-1.688-2.533-3.807-2.533-6.354c0-2.574,0.83-4.692,2.491-6.354
			c1.688-1.688,3.82-2.533,6.396-2.533c2.547,0,4.651,0.789,6.313,2.367c1.688,1.578,2.533,3.627,2.533,6.146H1149.198z
			 M1160.909,555.725c-1.302-0.939-2.797-1.411-4.485-1.411c-3.544,0-5.87,1.744-6.977,5.232h13.911
			C1163.082,557.968,1162.265,556.695,1160.909,555.725z"/>
		<path d="M1177.312,555.477c-0.443-0.332-0.914-0.596-1.412-0.789s-1.024-0.291-1.578-0.291c-0.471,0-0.913,0.146-1.329,0.436
			c-0.415,0.291-0.775,0.651-1.079,1.08c-0.306,0.43-0.547,0.907-0.728,1.433c-0.18,0.526-0.27,1.011-0.27,1.454v11.295h-1.702
			v-17.15h1.702v2.325c0.359-0.637,0.831-1.218,1.412-1.744s1.218-0.789,1.91-0.789c0.857,0,1.563,0.097,2.118,0.29
			c0.553,0.195,1.176,0.541,1.868,1.039L1177.312,555.477z"/>
		<path d="M1188.606,541.066l-1.121-0.125c-1.551,0-2.326,0.914-2.326,2.741v9.261h4.07v1.702h-4.07v15.448h-1.702v-15.448h-2.325
			v-1.702h2.325v-9.76c0-2.629,1.329-3.945,3.986-3.945c0.608,0,0.997,0.028,1.163,0.083c0.332,0,0.706,0.098,1.121,0.291v1.703
			L1188.606,541.066z"/>
		<path d="M1205.509,570.094v-2.948c-1.8,2.159-4.084,3.239-6.852,3.239c-2.491,0-4.582-0.845-6.271-2.533
			c-1.717-1.717-2.575-3.82-2.575-6.313s0.845-4.582,2.533-6.271c1.717-1.716,3.821-2.575,6.313-2.575
			c2.741,0,5.024,1.08,6.852,3.24v-2.99h1.703v17.15H1205.509z M1203.724,556.473c-1.412-1.412-3.101-2.117-5.066-2.117
			c-1.993,0-3.683,0.691-5.066,2.076c-1.412,1.412-2.118,3.114-2.118,5.107c0,1.967,0.706,3.654,2.118,5.066
			s3.101,2.117,5.066,2.117c1.993,0,3.682-0.691,5.066-2.076c1.412-1.412,2.118-3.114,2.118-5.107
			C1205.842,559.574,1205.136,557.885,1203.724,556.473z"/>
		<path d="M1220.376,570.426c-2.548,0-4.666-0.844-6.354-2.533c-1.689-1.688-2.533-3.807-2.533-6.354s0.844-4.664,2.533-6.354
			c1.688-1.688,3.806-2.533,6.354-2.533c2.187,0,3.931,0.498,5.232,1.495v2.034l-1.08-0.705l-1.163-0.623
			c-1.052-0.359-2.049-0.54-2.989-0.54c-2.133,0-3.862,0.665-5.191,1.993c-1.356,1.357-2.034,3.102-2.034,5.232
			c0,2.104,0.678,3.835,2.034,5.191s3.087,2.034,5.191,2.034c1.993,0,3.737-0.664,5.232-1.993v2.118
			C1224.058,569.914,1222.313,570.426,1220.376,570.426z"/>
		<path d="M1228.349,561.166c0,2.324,0.623,4.166,1.868,5.522c1.302,1.385,3.087,2.076,5.357,2.076c1.163,0,2.215-0.193,3.156-0.581
			c1.189-0.498,2.256-1.509,3.197-3.031l1.536,0.705c-1.079,2.05-2.74,3.434-4.982,4.153c-0.858,0.276-1.827,0.415-2.907,0.415
			c-2.575,0-4.692-0.844-6.354-2.533c-1.689-1.688-2.533-3.807-2.533-6.354c0-2.574,0.83-4.692,2.491-6.354
			c1.688-1.688,3.82-2.533,6.396-2.533c2.547,0,4.651,0.789,6.313,2.367c1.688,1.578,2.533,3.627,2.533,6.146H1228.349z
			 M1240.06,555.725c-1.302-0.939-2.797-1.411-4.485-1.411c-3.544,0-5.87,1.744-6.977,5.232h13.911
			C1242.232,557.968,1241.415,556.695,1240.06,555.725z"/>
		<path d="M1273.944,566.232c-2.852,2.852-6.52,4.276-11.005,4.276c-4.484,0-8.139-1.411-10.963-4.235
			c-2.852-2.852-4.277-6.52-4.277-11.005s1.412-8.14,4.236-10.964c2.851-2.851,6.52-4.277,11.004-4.277
			c4.458,0,8.126,1.412,11.005,4.236c2.852,2.852,4.277,6.52,4.277,11.005S1276.796,563.408,1273.944,566.232z M1272.74,545.51
			c-2.547-2.547-5.813-3.82-9.801-3.82c-3.931,0-7.17,1.273-9.717,3.82c-2.548,2.547-3.82,5.8-3.82,9.759
			c0,3.96,1.259,7.198,3.778,9.718c2.547,2.547,5.8,3.82,9.759,3.82c3.987,0,7.254-1.246,9.801-3.738
			c2.519-2.518,3.779-5.785,3.779-9.8C1276.52,551.281,1275.259,548.029,1272.74,545.51z"/>
		<path d="M1289.019,541.066l-1.121-0.125c-1.551,0-2.326,0.914-2.326,2.741v9.261h4.07v1.702h-4.07v15.448h-1.702v-15.448h-2.325
			v-1.702h2.325v-9.76c0-2.629,1.329-3.945,3.986-3.945c0.608,0,0.997,0.028,1.163,0.083c0.332,0,0.706,0.098,1.121,0.291v1.703
			L1289.019,541.066z"/>
	</g>
</g>
<g>
	<g>
		<path d="M835.918,746.377c-1.717,1.717-3.82,2.576-6.312,2.576c-2.852,0-5.191-1.148-7.019-3.447v3.156h-1.702v-30.73h1.702
			v16.777c1.8-2.299,4.139-3.447,7.019-3.447c2.491,0,4.581,0.846,6.271,2.533c1.716,1.717,2.574,3.82,2.574,6.313
			S837.606,744.689,835.918,746.377z M834.673,735.041c-1.412-1.412-3.102-2.119-5.066-2.119c-1.993,0-3.683,0.693-5.066,2.078
			c-1.412,1.41-2.118,3.113-2.118,5.107c0,1.965,0.706,3.654,2.118,5.066s3.101,2.117,5.066,2.117c1.993,0,3.682-0.691,5.066-2.076
			c1.412-1.412,2.117-3.115,2.117-5.107C836.79,738.141,836.085,736.453,834.673,735.041z"/>
		<path d="M856.683,746.377c-1.718,1.717-3.821,2.576-6.313,2.576s-4.582-0.846-6.271-2.533c-1.717-1.717-2.575-3.82-2.575-6.313
			c0-2.465,0.858-4.555,2.575-6.271c1.688-1.744,3.779-2.615,6.271-2.615c2.464,0,4.554,0.857,6.271,2.574
			c1.716,1.717,2.575,3.82,2.575,6.313S858.37,744.689,856.683,746.377z M855.478,735c-1.385-1.412-3.087-2.119-5.107-2.119
			c-1.938,0-3.613,0.721-5.024,2.16c-1.44,1.439-2.16,3.129-2.16,5.066c0,1.965,0.706,3.654,2.118,5.066s3.101,2.117,5.066,2.117
			c1.993,0,3.682-0.691,5.066-2.076c1.412-1.412,2.118-3.115,2.118-5.107C857.555,738.086,856.862,736.385,855.478,735z"/>
		<path d="M866.066,733.213v15.449h-1.702v-15.449h-2.326v-1.701h2.326v-7.518h1.702v7.518h3.986v1.701H866.066z"/>
		<path d="M874.621,736.66c-0.305,0-0.623-0.125-0.955-0.373c-0.249-0.25-0.388-0.582-0.415-0.998c0-0.746,0.456-1.203,1.37-1.369
			c0.691,0,1.148,0.457,1.37,1.369C875.991,736.203,875.535,736.66,874.621,736.66z M874.621,748.91
			c-0.305,0-0.623-0.123-0.955-0.373c-0.249-0.25-0.388-0.582-0.415-0.996c0-0.748,0.456-1.205,1.37-1.371
			c0.691,0,1.148,0.457,1.37,1.371C875.991,748.453,875.535,748.91,874.621,748.91z"/>
		<path d="M895.052,748.662v-2.949c-1.8,2.16-4.084,3.24-6.852,3.24c-2.491,0-4.582-0.846-6.271-2.533
			c-1.717-1.717-2.575-3.82-2.575-6.313s0.845-4.582,2.533-6.271c1.717-1.715,3.821-2.574,6.313-2.574
			c2.741,0,5.024,1.08,6.852,3.238v-2.988h1.703v17.15H895.052z M893.267,735.041c-1.412-1.412-3.101-2.119-5.066-2.119
			c-1.993,0-3.683,0.693-5.066,2.078c-1.412,1.41-2.118,3.113-2.118,5.107c0,1.965,0.706,3.654,2.118,5.066s3.101,2.117,5.066,2.117
			c1.993,0,3.682-0.691,5.066-2.076c1.412-1.412,2.118-3.115,2.118-5.107C895.385,738.141,894.679,736.453,893.267,735.041z"/>
		<path d="M916.688,748.662v-3.074c-1.827,2.244-4.152,3.365-6.977,3.365c-2.491,0-4.582-0.846-6.271-2.533
			c-1.717-1.717-2.574-3.82-2.574-6.313s0.844-4.582,2.532-6.271c1.717-1.715,3.821-2.574,6.313-2.574
			c2.741,0,5.066,1.121,6.977,3.363v-16.693h1.703v30.73H916.688z M914.777,735.041c-1.412-1.412-3.101-2.119-5.066-2.119
			c-1.993,0-3.683,0.693-5.066,2.078c-1.412,1.41-2.118,3.113-2.118,5.107c0,1.965,0.706,3.654,2.118,5.066s3.101,2.117,5.066,2.117
			c1.993,0,3.682-0.691,5.066-2.076c1.412-1.412,2.118-3.115,2.118-5.107C916.896,738.141,916.189,736.453,914.777,735.041z"/>
		<path d="M924.619,728.438c-0.305,0-0.623-0.125-0.955-0.373c-0.249-0.25-0.388-0.582-0.415-0.996c0-0.748,0.457-1.205,1.37-1.371
			c0.692,0,1.148,0.457,1.371,1.371C925.99,727.98,925.533,728.438,924.619,728.438z M923.789,756.137v-24.625h1.702v24.625H923.789
			z"/>
		<path d="M945.549,748.662v-2.949c-1.8,2.16-4.084,3.24-6.852,3.24c-2.491,0-4.582-0.846-6.271-2.533
			c-1.717-1.717-2.575-3.82-2.575-6.313s0.845-4.582,2.533-6.271c1.717-1.715,3.821-2.574,6.313-2.574
			c2.741,0,5.024,1.08,6.852,3.238v-2.988h1.703v17.15H945.549z M943.764,735.041c-1.412-1.412-3.101-2.119-5.066-2.119
			c-1.993,0-3.683,0.693-5.066,2.078c-1.412,1.41-2.118,3.113-2.118,5.107c0,1.965,0.706,3.654,2.118,5.066s3.101,2.117,5.066,2.117
			c1.993,0,3.682-0.691,5.066-2.076c1.412-1.412,2.118-3.115,2.118-5.107C945.882,738.141,945.176,736.453,943.764,735.041z"/>
		<path d="M960.416,748.994c-2.548,0-4.666-0.844-6.354-2.533c-1.689-1.689-2.533-3.807-2.533-6.354s0.844-4.666,2.533-6.354
			c1.688-1.689,3.806-2.533,6.354-2.533c2.187,0,3.931,0.498,5.232,1.494v2.035l-1.08-0.705l-1.163-0.623
			c-1.052-0.359-2.049-0.541-2.989-0.541c-2.133,0-3.862,0.664-5.191,1.994c-1.356,1.355-2.034,3.1-2.034,5.232
			c0,2.104,0.678,3.834,2.034,5.191c1.356,1.355,3.087,2.033,5.191,2.033c1.993,0,3.737-0.664,5.232-1.992v2.117
			C964.098,748.482,962.354,748.994,960.416,748.994z"/>
		<path d="M968.389,739.732c0,2.326,0.623,4.168,1.868,5.523c1.302,1.385,3.087,2.076,5.357,2.076c1.163,0,2.215-0.193,3.156-0.58
			c1.189-0.498,2.256-1.51,3.197-3.031l1.536,0.705c-1.079,2.049-2.74,3.434-4.982,4.152c-0.858,0.277-1.827,0.416-2.907,0.416
			c-2.575,0-4.692-0.844-6.354-2.533c-1.689-1.689-2.533-3.807-2.533-6.354c0-2.574,0.83-4.693,2.491-6.354
			c1.688-1.689,3.82-2.533,6.396-2.533c2.547,0,4.651,0.789,6.313,2.367c1.688,1.578,2.533,3.627,2.533,6.145H968.389z
			 M980.1,734.293c-1.302-0.941-2.797-1.412-4.485-1.412c-3.544,0-5.87,1.744-6.977,5.232h13.911
			C982.272,736.535,981.455,735.262,980.1,734.293z"/>
		<path d="M999.948,748.662v-10.258c0-3.627-1.634-5.439-4.9-5.439c-1.605,0-2.823,0.471-3.654,1.412
			c-0.858,0.941-1.287,2.229-1.287,3.861v10.424h-1.702v-17.15h1.702v2.076c0.774-1.523,2.422-2.285,4.941-2.285
			c2.132,0,3.765,0.609,4.9,1.828c1.135,1.219,1.703,2.92,1.703,5.107v10.424H999.948z"/>
		<path d="M1009.707,733.213v15.449h-1.702v-15.449h-2.326v-1.701h2.326v-7.518h1.702v7.518h3.986v1.701H1009.707z"/>
		<path d="M1017.723,748.662v-29.65h14.244v1.701h-12.541v10.799h12.541v1.826h-12.541v13.621h12.541v1.703H1017.723z"/>
		<path d="M1035.495,748.662v-30.73h1.661v30.73H1035.495z"/>
		<path d="M1043.344,739.732c0,2.326,0.623,4.168,1.868,5.523c1.302,1.385,3.087,2.076,5.357,2.076c1.163,0,2.215-0.193,3.156-0.58
			c1.189-0.498,2.256-1.51,3.197-3.031l1.536,0.705c-1.079,2.049-2.74,3.434-4.982,4.152c-0.858,0.277-1.827,0.416-2.907,0.416
			c-2.575,0-4.692-0.844-6.354-2.533c-1.689-1.689-2.533-3.807-2.533-6.354c0-2.574,0.83-4.693,2.491-6.354
			c1.688-1.689,3.82-2.533,6.396-2.533c2.547,0,4.651,0.789,6.313,2.367c1.688,1.578,2.533,3.627,2.533,6.145H1043.344z
			 M1055.055,734.293c-1.302-0.941-2.797-1.412-4.485-1.412c-3.544,0-5.87,1.744-6.977,5.232h13.911
			C1057.228,736.535,1056.41,735.262,1055.055,734.293z"/>
		<path d="M1082.877,748.662v-11.836c0-1.051-0.347-1.965-1.038-2.74c-0.692-0.775-1.689-1.164-2.99-1.164
			c-2.686,0-4.028,1.303-4.028,3.904v11.836h-1.702v-11.836c0-1.162-0.389-2.09-1.163-2.781c-0.804-0.748-1.759-1.123-2.865-1.123
			c-1.136,0-2.091,0.361-2.865,1.08c-0.775,0.693-1.163,1.635-1.163,2.824v11.836h-1.702v-17.15h1.702v1.701
			c0.831-1.301,2.173-1.951,4.028-1.951c2.215,0,3.848,0.9,4.9,2.699c0.996-1.799,2.616-2.699,4.858-2.699
			c1.716,0,3.101,0.484,4.152,1.453c1.052,0.996,1.578,2.367,1.578,4.111v11.836H1082.877z"/>
		<path d="M1090.393,739.732c0,2.326,0.623,4.168,1.868,5.523c1.302,1.385,3.087,2.076,5.357,2.076c1.163,0,2.215-0.193,3.156-0.58
			c1.189-0.498,2.256-1.51,3.197-3.031l1.536,0.705c-1.079,2.049-2.74,3.434-4.982,4.152c-0.858,0.277-1.827,0.416-2.907,0.416
			c-2.575,0-4.692-0.844-6.354-2.533c-1.689-1.689-2.533-3.807-2.533-6.354c0-2.574,0.83-4.693,2.491-6.354
			c1.688-1.689,3.82-2.533,6.396-2.533c2.547,0,4.651,0.789,6.313,2.367c1.688,1.578,2.533,3.627,2.533,6.145H1090.393z
			 M1102.104,734.293c-1.302-0.941-2.797-1.412-4.485-1.412c-3.544,0-5.87,1.744-6.977,5.232h13.911
			C1104.276,736.535,1103.459,735.262,1102.104,734.293z"/>
		<path d="M1121.952,748.662v-10.258c0-3.627-1.634-5.439-4.9-5.439c-1.605,0-2.823,0.471-3.654,1.412
			c-0.858,0.941-1.287,2.229-1.287,3.861v10.424h-1.702v-17.15h1.702v2.076c0.774-1.523,2.422-2.285,4.941-2.285
			c2.132,0,3.765,0.609,4.9,1.828c1.135,1.219,1.703,2.92,1.703,5.107v10.424H1121.952z"/>
		<path d="M1131.711,733.213v15.449h-1.702v-15.449h-2.326v-1.701h2.326v-7.518h1.702v7.518h3.986v1.701H1131.711z"/>
	</g>
</g>
<g>
	<g>
		<path d="M682.509,567.81c-1.717,1.718-3.82,2.575-6.312,2.575c-2.852,0-5.191-1.148-7.019-3.447v3.156h-1.702v-30.73h1.702v16.777
			c1.8-2.298,4.139-3.447,7.019-3.447c2.491,0,4.581,0.846,6.271,2.533c1.716,1.717,2.574,3.82,2.574,6.313
			S684.197,566.121,682.509,567.81z M681.264,556.473c-1.412-1.412-3.102-2.117-5.066-2.117c-1.993,0-3.683,0.691-5.066,2.076
			c-1.412,1.412-2.118,3.114-2.118,5.107c0,1.967,0.706,3.654,2.118,5.066s3.101,2.117,5.066,2.117c1.993,0,3.682-0.691,5.066-2.076
			c1.412-1.412,2.117-3.114,2.117-5.107C683.381,559.574,682.676,557.885,681.264,556.473z"/>
		<path d="M703.273,567.81c-1.718,1.718-3.821,2.575-6.313,2.575s-4.582-0.845-6.271-2.533c-1.717-1.717-2.575-3.82-2.575-6.313
			c0-2.464,0.858-4.554,2.575-6.271c1.688-1.744,3.779-2.616,6.271-2.616c2.464,0,4.554,0.858,6.271,2.574
			c1.716,1.717,2.575,3.82,2.575,6.313S704.961,566.121,703.273,567.81z M702.068,556.432c-1.385-1.412-3.087-2.118-5.107-2.118
			c-1.938,0-3.613,0.72-5.024,2.159c-1.44,1.439-2.16,3.129-2.16,5.066c0,1.967,0.706,3.654,2.118,5.066s3.101,2.117,5.066,2.117
			c1.993,0,3.682-0.691,5.066-2.076c1.412-1.412,2.118-3.114,2.118-5.107C704.146,559.519,703.453,557.816,702.068,556.432z"/>
		<path d="M712.657,554.646v15.448h-1.702v-15.448h-2.326v-1.702h2.326v-7.517h1.702v7.517h3.986v1.702H712.657z"/>
		<path d="M721.212,558.092c-0.305,0-0.623-0.124-0.955-0.373c-0.249-0.25-0.388-0.582-0.415-0.996c0-0.748,0.456-1.205,1.37-1.371
			c0.691,0,1.148,0.457,1.37,1.371C722.582,557.636,722.126,558.092,721.212,558.092z M721.212,570.343
			c-0.305,0-0.623-0.124-0.955-0.374c-0.249-0.248-0.388-0.581-0.415-0.996c0-0.748,0.456-1.205,1.37-1.371
			c0.691,0,1.148,0.457,1.37,1.371C722.582,569.887,722.126,570.343,721.212,570.343z"/>
		<path d="M728.396,549.87c-0.305,0-0.623-0.124-0.955-0.374c-0.249-0.249-0.388-0.581-0.415-0.996c0-0.748,0.457-1.205,1.37-1.371
			c0.692,0,1.148,0.457,1.371,1.371C729.767,549.413,729.31,549.87,728.396,549.87z M727.523,570.094v-17.15h1.703v17.15H727.523z"
			/>
		<path d="M744.425,570.094v-10.258c0-3.626-1.634-5.439-4.9-5.439c-1.605,0-2.823,0.471-3.654,1.412
			c-0.858,0.941-1.287,2.229-1.287,3.861v10.424h-1.702v-17.15h1.702v2.076c0.774-1.522,2.422-2.284,4.941-2.284
			c2.132,0,3.765,0.609,4.9,1.827c1.135,1.219,1.703,2.922,1.703,5.107v10.424H744.425z"/>
		<path d="M754.184,554.646v15.448h-1.702v-15.448h-2.326v-1.702h2.326v-7.517h1.702v7.517h3.986v1.702H754.184z"/>
		<path d="M762.323,561.166c0,2.324,0.623,4.166,1.868,5.522c1.302,1.385,3.087,2.076,5.357,2.076c1.163,0,2.215-0.193,3.156-0.581
			c1.189-0.498,2.256-1.509,3.197-3.031l1.536,0.705c-1.079,2.05-2.74,3.434-4.982,4.153c-0.858,0.276-1.827,0.415-2.907,0.415
			c-2.575,0-4.692-0.844-6.354-2.533c-1.689-1.688-2.533-3.807-2.533-6.354c0-2.574,0.83-4.692,2.491-6.354
			c1.688-1.688,3.82-2.533,6.396-2.533c2.547,0,4.651,0.789,6.313,2.367c1.688,1.578,2.533,3.627,2.533,6.146H762.323z
			 M774.034,555.725c-1.302-0.939-2.797-1.411-4.485-1.411c-3.544,0-5.87,1.744-6.977,5.232h13.911
			C776.207,557.968,775.39,556.695,774.034,555.725z"/>
		<path d="M790.437,555.477c-0.443-0.332-0.914-0.596-1.412-0.789s-1.024-0.291-1.578-0.291c-0.471,0-0.913,0.146-1.329,0.436
			c-0.415,0.291-0.775,0.651-1.079,1.08c-0.306,0.43-0.547,0.907-0.728,1.433c-0.18,0.526-0.27,1.011-0.27,1.454v11.295h-1.702
			v-17.15h1.702v2.325c0.359-0.637,0.831-1.218,1.412-1.744s1.218-0.789,1.91-0.789c0.857,0,1.563,0.097,2.118,0.29
			c0.553,0.195,1.176,0.541,1.868,1.039L790.437,555.477z"/>
		<path d="M801.731,541.066l-1.121-0.125c-1.551,0-2.326,0.914-2.326,2.741v9.261h4.07v1.702h-4.07v15.448h-1.702v-15.448h-2.325
			v-1.702h2.325v-9.76c0-2.629,1.329-3.945,3.986-3.945c0.608,0,0.997,0.028,1.163,0.083c0.332,0,0.706,0.098,1.121,0.291v1.703
			L801.731,541.066z"/>
		<path d="M818.634,570.094v-2.948c-1.8,2.159-4.084,3.239-6.852,3.239c-2.491,0-4.582-0.845-6.271-2.533
			c-1.717-1.717-2.575-3.82-2.575-6.313s0.845-4.582,2.533-6.271c1.717-1.716,3.821-2.575,6.313-2.575
			c2.741,0,5.024,1.08,6.852,3.24v-2.99h1.703v17.15H818.634z M816.849,556.473c-1.412-1.412-3.101-2.117-5.066-2.117
			c-1.993,0-3.683,0.691-5.066,2.076c-1.412,1.412-2.118,3.114-2.118,5.107c0,1.967,0.706,3.654,2.118,5.066
			s3.101,2.117,5.066,2.117c1.993,0,3.682-0.691,5.066-2.076c1.412-1.412,2.118-3.114,2.118-5.107
			C818.967,559.574,818.261,557.885,816.849,556.473z"/>
		<path d="M833.501,570.426c-2.548,0-4.666-0.844-6.354-2.533c-1.689-1.688-2.533-3.807-2.533-6.354s0.844-4.664,2.533-6.354
			c1.688-1.688,3.806-2.533,6.354-2.533c2.187,0,3.931,0.498,5.232,1.495v2.034l-1.08-0.705l-1.163-0.623
			c-1.052-0.359-2.049-0.54-2.989-0.54c-2.133,0-3.862,0.665-5.191,1.993c-1.356,1.357-2.034,3.102-2.034,5.232
			c0,2.104,0.678,3.835,2.034,5.191s3.087,2.034,5.191,2.034c1.993,0,3.737-0.664,5.232-1.993v2.118
			C837.183,569.914,835.438,570.426,833.501,570.426z"/>
		<path d="M841.474,561.166c0,2.324,0.623,4.166,1.868,5.522c1.302,1.385,3.087,2.076,5.357,2.076c1.163,0,2.215-0.193,3.156-0.581
			c1.189-0.498,2.256-1.509,3.197-3.031l1.536,0.705c-1.079,2.05-2.74,3.434-4.982,4.153c-0.858,0.276-1.827,0.415-2.907,0.415
			c-2.575,0-4.692-0.844-6.354-2.533c-1.689-1.688-2.533-3.807-2.533-6.354c0-2.574,0.83-4.692,2.491-6.354
			c1.688-1.688,3.82-2.533,6.396-2.533c2.547,0,4.651,0.789,6.313,2.367c1.688,1.578,2.533,3.627,2.533,6.146H841.474z
			 M853.185,555.725c-1.302-0.939-2.797-1.411-4.485-1.411c-3.544,0-5.87,1.744-6.977,5.232h13.911
			C855.357,557.968,854.54,556.695,853.185,555.725z"/>
		<path d="M887.069,566.232c-2.852,2.852-6.52,4.276-11.005,4.276c-4.484,0-8.139-1.411-10.963-4.235
			c-2.852-2.852-4.277-6.52-4.277-11.005s1.412-8.14,4.236-10.964c2.851-2.851,6.52-4.277,11.004-4.277
			c4.458,0,8.126,1.412,11.005,4.236c2.852,2.852,4.277,6.52,4.277,11.005S889.921,563.408,887.069,566.232z M885.865,545.51
			c-2.547-2.547-5.813-3.82-9.801-3.82c-3.931,0-7.17,1.273-9.717,3.82c-2.548,2.547-3.82,5.8-3.82,9.759
			c0,3.96,1.259,7.198,3.778,9.718c2.547,2.547,5.8,3.82,9.759,3.82c3.987,0,7.254-1.246,9.801-3.738
			c2.519-2.518,3.779-5.785,3.779-9.8C889.645,551.281,888.384,548.029,885.865,545.51z"/>
		<path d="M902.144,541.066l-1.121-0.125c-1.551,0-2.326,0.914-2.326,2.741v9.261h4.07v1.702h-4.07v15.448h-1.702v-15.448h-2.325
			v-1.702h2.325v-9.76c0-2.629,1.329-3.945,3.986-3.945c0.608,0,0.997,0.028,1.163,0.083c0.332,0,0.706,0.098,1.121,0.291v1.703
			L902.144,541.066z"/>
	</g>
</g>
<g>
	<g>
		<path fill="none" stroke="#000000" stroke-width="1.1074" stroke-miterlimit="10" d="M1115.453,594.895
			c47.245-26.539,90.953-10.453,106.339-3.088"/>
		<g>
			<polygon points="1217.11,594.133 1220.526,591.27 1220.836,586.826 1227.633,594.895 			"/>
		</g>
	</g>
</g>
<path fill="#ACCED3" stroke="#000000" stroke-width="1.1074" stroke-miterlimit="10" d="M731.83,646.652
	c0,11.719-9.517,21.209-21.227,21.209H464.738c-11.721,0-21.221-9.49-21.221-21.209V610.52c0-11.697,9.5-21.195,21.221-21.195
	h245.865c11.71,0,21.227,9.498,21.227,21.195V646.652z"/>
<g>
	<g>
		<path d="M471.693,631.787l13.898-8.471v2.492l-9.856,5.979l9.856,5.98v2.492L471.693,631.787z"/>
		<path d="M502.313,644.91c-1.477,1.256-3.249,1.883-5.315,1.883c-3.544,0-6.201-1.605-7.974-4.816l1.938-1.164
			c0.627,1.145,1.384,2.031,2.27,2.658c0.923,0.701,2.178,1.053,3.766,1.053c3.469,0,5.204-1.477,5.204-4.43
			c0-1.293-0.608-2.418-1.827-3.377c-0.369-0.223-0.896-0.471-1.578-0.748s-1.522-0.6-2.519-0.969
			c-1.847-0.666-3.176-1.33-3.987-1.994c-1.182-0.959-1.771-2.344-1.771-4.152c0-1.551,0.59-2.879,1.771-3.986
			c1.145-1.145,2.639-1.717,4.485-1.717c2.547,0,4.706,0.887,6.479,2.658l-1.661,1.439c-1.256-1.254-2.861-1.883-4.817-1.883
			c-2.658,0-3.986,1.162-3.986,3.488c0,1.033,0.405,1.883,1.218,2.547c0.664,0.518,1.717,1.016,3.156,1.494
			c1.254,0.443,2.288,0.859,3.101,1.246c0.812,0.389,1.421,0.73,1.827,1.025c1.587,1.217,2.381,2.861,2.381,4.928
			C504.472,642.086,503.752,643.691,502.313,644.91z"/>
		<path d="M529.388,643.305c-2.289,2.289-5.094,3.434-8.416,3.434c-3.803,0-6.94-1.551-9.413-4.652v15.006h-2.27v-33.609h2.27v4.318
			c2.362-3.1,5.5-4.65,9.413-4.65c3.322,0,6.108,1.127,8.36,3.377c2.289,2.289,3.434,5.094,3.434,8.416
			S531.639,641.053,529.388,643.305z M527.727,628.189c-1.883-1.883-4.135-2.824-6.755-2.824c-2.658,0-4.91,0.924-6.755,2.768
			c-1.883,1.883-2.824,4.154-2.824,6.811c0,2.621,0.941,4.873,2.824,6.756s4.134,2.824,6.755,2.824c2.658,0,4.909-0.922,6.755-2.77
			c1.883-1.883,2.824-4.152,2.824-6.811C530.551,632.324,529.609,630.072,527.727,628.189z"/>
		<path d="M557.016,646.35v-3.932c-2.399,2.881-5.445,4.32-9.136,4.32c-3.322,0-6.109-1.127-8.36-3.379
			c-2.289-2.287-3.434-5.094-3.434-8.416s1.126-6.107,3.378-8.359c2.288-2.289,5.094-3.434,8.416-3.434
			c3.654,0,6.7,1.439,9.136,4.318v-3.986h2.271v22.867H557.016z M554.635,628.189c-1.882-1.883-4.134-2.824-6.755-2.824
			c-2.657,0-4.909,0.924-6.755,2.768c-1.883,1.883-2.824,4.154-2.824,6.811c0,2.621,0.941,4.873,2.824,6.756
			s4.134,2.824,6.755,2.824c2.658,0,4.909-0.922,6.755-2.77c1.883-1.883,2.824-4.152,2.824-6.811
			C557.459,632.324,556.518,630.072,554.635,628.189z"/>
		<path d="M576.838,646.793c-3.396,0-6.22-1.125-8.472-3.377s-3.377-5.076-3.377-8.473c0-3.395,1.125-6.219,3.377-8.471
			s5.075-3.377,8.472-3.377c2.916,0,5.241,0.664,6.977,1.992v2.713l-1.439-0.941l-1.551-0.83c-1.402-0.479-2.731-0.719-3.986-0.719
			c-2.843,0-5.149,0.885-6.921,2.656c-1.809,1.811-2.713,4.135-2.713,6.977c0,2.807,0.904,5.113,2.713,6.922
			c1.808,1.809,4.115,2.713,6.921,2.713c2.658,0,4.983-0.887,6.977-2.658v2.824C581.747,646.111,579.422,646.793,576.838,646.793z"
			/>
		<path d="M587.469,634.445c0,3.102,0.83,5.557,2.491,7.365c1.734,1.846,4.115,2.768,7.143,2.768c1.551,0,2.953-0.258,4.208-0.775
			c1.587-0.664,3.009-2.012,4.264-4.041l2.049,0.941c-1.439,2.73-3.654,4.576-6.645,5.537c-1.145,0.367-2.437,0.553-3.876,0.553
			c-3.433,0-6.257-1.125-8.472-3.377c-2.252-2.252-3.377-5.076-3.377-8.473c0-3.432,1.107-6.256,3.322-8.471
			c2.251-2.252,5.094-3.377,8.526-3.377c3.396,0,6.201,1.051,8.416,3.156c2.251,2.104,3.378,4.836,3.378,8.193H587.469z
			 M603.083,627.191c-1.736-1.254-3.729-1.881-5.98-1.881c-4.726,0-7.826,2.324-9.302,6.977h18.549
			C605.979,630.182,604.891,628.484,603.083,627.191z"/>
		<path d="M638.575,646.35l-4.541-11.848H616.04l-4.596,11.848h-2.215l15.78-40.807l15.835,40.807H638.575z M625.01,611.301
			l-8.084,20.93h16.168L625.01,611.301z"/>
		<path d="M646.771,646.35v-37.264h-6.7l1.495-2.27h7.476v39.533H646.771z"/>
		<path d="M674.732,626.473c-0.333,0.406-0.831,1.006-1.495,1.799c-0.665,0.795-1.515,1.781-2.547,2.963l-11.352,12.846h18.937v2.27
			h-23.919l19.379-22.424c1.55-2.215,2.325-4.521,2.325-6.922c0-2.324-0.923-4.299-2.769-5.924
			c-1.846-1.586-3.986-2.381-6.423-2.381c-2.989,0-5.334,0.961-7.031,2.879c-1.034,1.145-1.754,2.566-2.16,4.264h-2.491
			c0.258-1.92,1.218-3.82,2.879-5.703c2.215-2.436,5.149-3.654,8.804-3.654c3.138,0,5.832,0.979,8.084,2.934
			c2.251,1.92,3.378,4.449,3.378,7.586C678.331,620.215,677.131,623.371,674.732,626.473z"/>
		<path d="M683.701,640.26v-2.492l9.801-5.98l-9.801-5.979v-2.492l13.897,8.471L683.701,640.26z"/>
	</g>
</g>
<g>
	<g>
		<path fill="none" stroke="#000000" stroke-width="1.1074" stroke-miterlimit="10" d="M840.752,594.895
			c-47.243-26.539-90.949-10.453-106.333-3.088"/>
		<g>
			<polygon points="735.374,586.826 735.686,591.27 739.102,594.133 728.577,594.895 			"/>
		</g>
	</g>
</g>
<g>
	<g>
		
			<line fill="none" stroke="#000000" stroke-width="0.2215" stroke-miterlimit="10" stroke-dasharray="22.1224,5.5306" x1="-1.96" y1="507.253" x2="1930.982" y2="507.253"/>
	</g>
</g>
<g>
	<rect x="1371.088" y="181.009" fill="#F6F6F3" width="498.946" height="122.745"/>
	<g>
		<g>
			<path d="M1557.798,267.594c-0.386,0-0.787-0.158-1.207-0.473c-0.315-0.315-0.491-0.735-0.525-1.261
				c0-0.945,0.577-1.522,1.732-1.732c0.875,0,1.452,0.577,1.733,1.732C1559.531,267.016,1558.953,267.594,1557.798,267.594z
				 M1556.695,293.165v-21.687h2.153v21.687H1556.695z"/>
			<path d="M1578.067,293.165v-12.97c0-4.585-2.066-6.879-6.196-6.879c-2.031,0-3.571,0.596-4.621,1.785
				c-1.085,1.191-1.628,2.818-1.628,4.884v13.18h-2.152v-21.687h2.152v2.626c0.979-1.925,3.063-2.888,6.249-2.888
				c2.695,0,4.76,0.77,6.196,2.31c1.435,1.541,2.152,3.694,2.152,6.459v13.18H1578.067z"/>
			<path d="M1592.506,256.462l-1.417-0.158c-1.961,0-2.94,1.155-2.94,3.466v11.709h5.146v2.153h-5.146v19.533h-2.153v-19.533h-2.94
				v-2.153h2.94V259.14c0-3.325,1.681-4.988,5.041-4.988c0.77,0,1.26,0.035,1.47,0.104c0.421,0,0.894,0.123,1.418,0.368v2.152
				L1592.506,256.462z"/>
			<path d="M1596.234,281.876c0,2.94,0.787,5.269,2.363,6.983c1.645,1.751,3.902,2.625,6.773,2.625c1.47,0,2.8-0.244,3.99-0.734
				c1.505-0.631,2.853-1.908,4.043-3.834l1.943,0.894c-1.365,2.591-3.466,4.341-6.301,5.25c-1.086,0.35-2.311,0.525-3.676,0.525
				c-3.256,0-5.934-1.067-8.034-3.203c-2.136-2.135-3.203-4.813-3.203-8.033c0-3.256,1.051-5.934,3.15-8.034
				c2.135-2.135,4.831-3.203,8.087-3.203c3.22,0,5.881,0.998,7.981,2.993c2.135,1.995,3.202,4.586,3.202,7.771H1596.234z
				 M1611.042,274.997c-1.646-1.189-3.536-1.785-5.671-1.785c-4.481,0-7.422,2.205-8.821,6.616h17.59
				C1613.789,277.832,1612.757,276.223,1611.042,274.997z"/>
			<path d="M1631.782,274.682c-0.561-0.42-1.155-0.752-1.785-0.997c-0.631-0.245-1.296-0.368-1.996-0.368
				c-0.596,0-1.155,0.185-1.68,0.552c-0.525,0.367-0.98,0.823-1.365,1.365c-0.386,0.543-0.692,1.146-0.919,1.812
				c-0.229,0.665-0.342,1.278-0.342,1.838v14.282h-2.152v-21.687h2.152v2.94c0.455-0.805,1.051-1.539,1.785-2.205
				c0.735-0.664,1.54-0.997,2.416-0.997c1.084,0,1.978,0.123,2.678,0.367c0.7,0.245,1.487,0.683,2.363,1.313L1631.782,274.682z"/>
			<path d="M1648.06,274.682c-0.561-0.42-1.155-0.752-1.785-0.997c-0.631-0.245-1.296-0.368-1.996-0.368
				c-0.596,0-1.155,0.185-1.68,0.552c-0.525,0.367-0.98,0.823-1.365,1.365c-0.386,0.543-0.692,1.146-0.919,1.812
				c-0.229,0.665-0.342,1.278-0.342,1.838v14.282h-2.152v-21.687h2.152v2.94c0.455-0.805,1.051-1.539,1.785-2.205
				c0.735-0.664,1.54-0.997,2.416-0.997c1.084,0,1.978,0.123,2.678,0.367c0.7,0.245,1.487,0.683,2.363,1.313L1648.06,274.682z"/>
			<path d="M1651.42,281.876c0,2.94,0.787,5.269,2.363,6.983c1.645,1.751,3.902,2.625,6.773,2.625c1.47,0,2.8-0.244,3.99-0.734
				c1.505-0.631,2.853-1.908,4.043-3.834l1.943,0.894c-1.365,2.591-3.466,4.341-6.301,5.25c-1.086,0.35-2.311,0.525-3.676,0.525
				c-3.256,0-5.934-1.067-8.034-3.203c-2.136-2.135-3.203-4.813-3.203-8.033c0-3.256,1.051-5.934,3.15-8.034
				c2.135-2.135,4.831-3.203,8.087-3.203c3.22,0,5.881,0.998,7.981,2.993c2.135,1.995,3.202,4.586,3.202,7.771H1651.42z
				 M1666.228,274.997c-1.646-1.189-3.536-1.785-5.671-1.785c-4.481,0-7.422,2.205-8.821,6.616h17.59
				C1668.975,277.832,1667.942,276.223,1666.228,274.997z"/>
			<path d="M1695.526,293.165v-3.886c-2.311,2.836-5.251,4.253-8.821,4.253c-3.15,0-5.794-1.067-7.929-3.203
				c-2.171-2.17-3.256-4.83-3.256-7.98c0-3.151,1.067-5.794,3.203-7.93c2.17-2.17,4.831-3.255,7.981-3.255
				c3.466,0,6.406,1.418,8.821,4.253v-21.108h2.153v38.856H1695.526z M1693.111,275.942c-1.785-1.785-3.921-2.678-6.406-2.678
				c-2.521,0-4.656,0.875-6.406,2.625c-1.785,1.785-2.678,3.938-2.678,6.459c0,2.485,0.893,4.62,2.678,6.405
				c1.785,1.786,3.92,2.679,6.406,2.679c2.521,0,4.655-0.875,6.406-2.626c1.785-1.785,2.678-3.938,2.678-6.458
				C1695.789,279.863,1694.896,277.728,1693.111,275.942z"/>
			<path d="M1727.714,274.682c-0.561-0.42-1.155-0.752-1.785-0.997c-0.631-0.245-1.296-0.368-1.996-0.368
				c-0.596,0-1.155,0.185-1.68,0.552c-0.525,0.367-0.98,0.823-1.365,1.365c-0.386,0.543-0.692,1.146-0.919,1.812
				c-0.229,0.665-0.342,1.278-0.342,1.838v14.282h-2.152v-21.687h2.152v2.94c0.455-0.805,1.051-1.539,1.785-2.205
				c0.735-0.664,1.54-0.997,2.416-0.997c1.084,0,1.978,0.123,2.678,0.367c0.7,0.245,1.487,0.683,2.363,1.313L1727.714,274.682z"/>
			<path d="M1731.074,281.876c0,2.94,0.787,5.269,2.363,6.983c1.645,1.751,3.902,2.625,6.773,2.625c1.47,0,2.8-0.244,3.99-0.734
				c1.505-0.631,2.853-1.908,4.043-3.834l1.943,0.894c-1.365,2.591-3.466,4.341-6.301,5.25c-1.086,0.35-2.311,0.525-3.676,0.525
				c-3.256,0-5.934-1.067-8.034-3.203c-2.136-2.135-3.203-4.813-3.203-8.033c0-3.256,1.051-5.934,3.15-8.034
				c2.135-2.135,4.831-3.203,8.087-3.203c3.22,0,5.881,0.998,7.981,2.993c2.135,1.995,3.202,4.586,3.202,7.771H1731.074z
				 M1745.882,274.997c-1.646-1.189-3.536-1.785-5.671-1.785c-4.481,0-7.422,2.205-8.821,6.616h17.59
				C1748.629,277.832,1747.597,276.223,1745.882,274.997z"/>
			<path d="M1756.96,293.165v-38.856h2.101v38.856H1756.96z"/>
			<path d="M1784.685,293.165v-3.729c-2.276,2.73-5.164,4.096-8.664,4.096c-3.15,0-5.794-1.067-7.929-3.203
				c-2.171-2.17-3.256-4.83-3.256-7.98c0-3.151,1.067-5.794,3.203-7.93c2.17-2.17,4.831-3.255,7.981-3.255
				c3.465,0,6.354,1.365,8.664,4.096v-3.781h2.152v21.687H1784.685z M1782.426,275.942c-1.785-1.785-3.921-2.678-6.405-2.678
				c-2.521,0-4.656,0.875-6.406,2.625c-1.785,1.785-2.678,3.938-2.678,6.459c0,2.485,0.893,4.62,2.678,6.405
				c1.785,1.786,3.92,2.679,6.406,2.679c2.521,0,4.655-0.875,6.405-2.626c1.786-1.785,2.679-3.938,2.679-6.458
				C1785.104,279.863,1784.212,277.728,1782.426,275.942z"/>
			<path d="M1796.498,273.632v19.533h-2.152v-19.533h-2.94v-2.153h2.94v-9.504h2.152v9.504h5.041v2.153H1796.498z"/>
			<path d="M1807.84,267.594c-0.386,0-0.787-0.158-1.207-0.473c-0.315-0.315-0.491-0.735-0.525-1.261
				c0-0.945,0.577-1.522,1.732-1.732c0.875,0,1.452,0.577,1.733,1.732C1809.573,267.016,1808.995,267.594,1807.84,267.594z
				 M1806.737,293.165v-21.687h2.153v21.687H1806.737z"/>
			<path d="M1833.569,290.277c-2.171,2.171-4.831,3.255-7.981,3.255s-5.794-1.067-7.929-3.203c-2.171-2.17-3.256-4.83-3.256-7.98
				c0-3.115,1.085-5.758,3.256-7.93c2.135-2.205,4.778-3.308,7.929-3.308c3.115,0,5.758,1.086,7.929,3.256
				c2.17,2.171,3.255,4.83,3.255,7.981C1836.771,285.499,1835.704,288.143,1833.569,290.277z M1832.046,275.89
				c-1.751-1.785-3.903-2.678-6.458-2.678c-2.451,0-4.568,0.91-6.354,2.73c-1.821,1.82-2.73,3.956-2.73,6.406
				c0,2.485,0.893,4.62,2.678,6.405c1.785,1.786,3.92,2.679,6.406,2.679c2.521,0,4.655-0.875,6.405-2.626
				c1.786-1.785,2.679-3.938,2.679-6.458C1834.672,279.793,1833.796,277.641,1832.046,275.89z"/>
			<path d="M1856.777,293.165v-12.97c0-4.585-2.066-6.879-6.196-6.879c-2.031,0-3.571,0.596-4.621,1.785
				c-1.085,1.191-1.628,2.818-1.628,4.884v13.18h-2.152v-21.687h2.152v2.626c0.979-1.925,3.063-2.888,6.249-2.888
				c2.695,0,4.76,0.77,6.196,2.31c1.435,1.541,2.152,3.694,2.152,6.459v13.18H1856.777z"/>
		</g>
	</g>
	<g>
		<g>
			<path d="M1559.583,208.045v19.533h-2.152v-19.533h-2.94v-2.153h2.94v-9.504h2.152v9.504h5.041v2.153H1559.583z"/>
			<path d="M1573.393,237.765h-2.415l5.618-12.182l-9.136-19.691h2.31l8.087,17.118l7.981-17.118h2.362L1573.393,237.765z"/>
			<path d="M1611.776,224.69c-2.171,2.171-4.83,3.255-7.981,3.255c-3.605,0-6.581-1.47-8.926-4.41v14.229h-2.153v-31.873h2.153
				v4.096c2.239-2.94,5.216-4.41,8.926-4.41c3.151,0,5.794,1.068,7.93,3.203c2.17,2.171,3.255,4.83,3.255,7.981
				C1614.979,219.912,1613.911,222.556,1611.776,224.69z M1610.201,210.355c-1.785-1.785-3.921-2.678-6.406-2.678
				c-2.52,0-4.655,0.875-6.405,2.625c-1.785,1.785-2.679,3.938-2.679,6.459c0,2.485,0.894,4.62,2.679,6.405
				c1.785,1.786,3.92,2.679,6.405,2.679c2.521,0,4.655-0.875,6.406-2.626c1.785-1.785,2.678-3.938,2.678-6.458
				C1612.879,214.276,1611.986,212.141,1610.201,210.355z"/>
			<path d="M1620.178,216.289c0,2.94,0.787,5.269,2.363,6.983c1.645,1.751,3.902,2.625,6.773,2.625c1.47,0,2.8-0.244,3.99-0.734
				c1.505-0.631,2.853-1.908,4.043-3.834l1.943,0.894c-1.365,2.591-3.466,4.341-6.301,5.25c-1.086,0.35-2.311,0.525-3.676,0.525
				c-3.256,0-5.934-1.067-8.034-3.203c-2.136-2.135-3.203-4.813-3.203-8.033c0-3.256,1.051-5.934,3.15-8.034
				c2.135-2.135,4.831-3.203,8.087-3.203c3.22,0,5.881,0.998,7.981,2.993c2.135,1.995,3.202,4.586,3.202,7.771H1620.178z
				 M1634.985,209.41c-1.646-1.189-3.536-1.785-5.671-1.785c-4.481,0-7.422,2.205-8.821,6.616h17.59
				C1637.732,212.245,1636.7,210.636,1634.985,209.41z"/>
			<path d="M1664.284,227.578v-3.886c-2.311,2.836-5.251,4.253-8.821,4.253c-3.15,0-5.794-1.067-7.929-3.203
				c-2.171-2.17-3.256-4.83-3.256-7.98c0-3.151,1.067-5.794,3.203-7.93c2.17-2.17,4.831-3.255,7.981-3.255
				c3.466,0,6.406,1.418,8.821,4.253v-21.108h2.153v38.856H1664.284z M1661.869,210.355c-1.785-1.785-3.921-2.678-6.406-2.678
				c-2.521,0-4.656,0.875-6.406,2.625c-1.785,1.785-2.678,3.938-2.678,6.459c0,2.485,0.893,4.62,2.678,6.405
				c1.785,1.786,3.92,2.679,6.406,2.679c2.521,0,4.655-0.875,6.406-2.626c1.785-1.785,2.678-3.938,2.678-6.458
				C1664.547,214.276,1663.654,212.141,1661.869,210.355z"/>
			<path d="M1696.472,209.095c-0.561-0.42-1.155-0.752-1.785-0.997c-0.631-0.245-1.296-0.368-1.996-0.368
				c-0.596,0-1.155,0.185-1.68,0.552c-0.525,0.367-0.98,0.823-1.365,1.365c-0.386,0.543-0.692,1.146-0.919,1.812
				c-0.229,0.665-0.342,1.278-0.342,1.838v14.282h-2.152v-21.687h2.152v2.94c0.455-0.805,1.051-1.539,1.785-2.205
				c0.735-0.664,1.54-0.997,2.416-0.997c1.084,0,1.978,0.123,2.678,0.367c0.7,0.245,1.487,0.683,2.363,1.313L1696.472,209.095z"/>
			<path d="M1699.832,216.289c0,2.94,0.787,5.269,2.363,6.983c1.645,1.751,3.902,2.625,6.773,2.625c1.47,0,2.8-0.244,3.99-0.734
				c1.505-0.631,2.853-1.908,4.043-3.834l1.943,0.894c-1.365,2.591-3.466,4.341-6.301,5.25c-1.086,0.35-2.311,0.525-3.676,0.525
				c-3.256,0-5.934-1.067-8.034-3.203c-2.136-2.135-3.203-4.813-3.203-8.033c0-3.256,1.051-5.934,3.15-8.034
				c2.135-2.135,4.831-3.203,8.087-3.203c3.22,0,5.881,0.998,7.981,2.993c2.135,1.995,3.202,4.586,3.202,7.771H1699.832z
				 M1714.64,209.41c-1.646-1.189-3.536-1.785-5.671-1.785c-4.481,0-7.422,2.205-8.821,6.616h17.59
				C1717.387,212.245,1716.354,210.636,1714.64,209.41z"/>
			<path d="M1725.718,227.578v-38.856h2.101v38.856H1725.718z"/>
			<path d="M1753.442,227.578v-3.729c-2.276,2.73-5.164,4.096-8.664,4.096c-3.15,0-5.794-1.067-7.929-3.203
				c-2.171-2.17-3.256-4.83-3.256-7.98c0-3.151,1.067-5.794,3.203-7.93c2.17-2.17,4.831-3.255,7.981-3.255
				c3.465,0,6.354,1.365,8.664,4.096v-3.781h2.152v21.687H1753.442z M1751.184,210.355c-1.785-1.785-3.921-2.678-6.405-2.678
				c-2.521,0-4.656,0.875-6.406,2.625c-1.785,1.785-2.678,3.938-2.678,6.459c0,2.485,0.893,4.62,2.678,6.405
				c1.785,1.786,3.92,2.679,6.406,2.679c2.521,0,4.655-0.875,6.405-2.626c1.786-1.785,2.679-3.938,2.679-6.458
				C1753.862,214.276,1752.97,212.141,1751.184,210.355z"/>
			<path d="M1765.256,208.045v19.533h-2.152v-19.533h-2.94v-2.153h2.94v-9.504h2.152v9.504h5.041v2.153H1765.256z"/>
			<path d="M1776.598,202.007c-0.386,0-0.787-0.158-1.207-0.473c-0.315-0.315-0.491-0.735-0.525-1.261
				c0-0.945,0.577-1.522,1.732-1.732c0.875,0,1.452,0.577,1.733,1.732C1778.331,201.429,1777.753,202.007,1776.598,202.007z
				 M1775.495,227.578v-21.687h2.153v21.687H1775.495z"/>
			<path d="M1802.327,224.69c-2.171,2.171-4.831,3.255-7.981,3.255s-5.794-1.067-7.929-3.203c-2.171-2.17-3.256-4.83-3.256-7.98
				c0-3.115,1.085-5.758,3.256-7.93c2.135-2.205,4.778-3.308,7.929-3.308c3.115,0,5.758,1.086,7.929,3.256
				c2.17,2.171,3.255,4.83,3.255,7.981C1805.529,219.912,1804.462,222.556,1802.327,224.69z M1800.804,210.303
				c-1.751-1.785-3.903-2.678-6.458-2.678c-2.451,0-4.568,0.91-6.354,2.73c-1.821,1.82-2.73,3.956-2.73,6.406
				c0,2.485,0.893,4.62,2.678,6.405c1.785,1.786,3.92,2.679,6.406,2.679c2.521,0,4.655-0.875,6.405-2.626
				c1.786-1.785,2.679-3.938,2.679-6.458C1803.43,214.206,1802.554,212.054,1800.804,210.303z"/>
			<path d="M1825.535,227.578v-12.97c0-4.585-2.066-6.879-6.196-6.879c-2.031,0-3.571,0.596-4.621,1.785
				c-1.085,1.191-1.628,2.818-1.628,4.884v13.18h-2.152v-21.687h2.152v2.626c0.979-1.925,3.063-2.888,6.249-2.888
				c2.695,0,4.76,0.77,6.196,2.31c1.435,1.541,2.152,3.694,2.152,6.459v13.18H1825.535z"/>
		</g>
	</g>
	
		<line fill="none" stroke="#000000" stroke-width="1.4708" stroke-miterlimit="10" x1="1534.747" y1="215.74" x2="1385.682" y2="215.74"/>
	
		<line fill="none" stroke="#000000" stroke-width="1.4708" stroke-miterlimit="10" stroke-dasharray="4.4125" x1="1534.747" y1="281.33" x2="1385.682" y2="281.33"/>
</g>
<g>
	<g>
		<path d="M700.131,379.051c-0.295-0.222-0.607-0.396-0.941-0.526c-0.332-0.129-0.682-0.194-1.051-0.194
			c-0.314,0-0.609,0.097-0.887,0.291s-0.516,0.434-0.719,0.72c-0.203,0.287-0.365,0.605-0.484,0.955
			c-0.121,0.351-0.182,0.674-0.182,0.969v7.53h-1.135v-11.434h1.135v1.551c0.24-0.425,0.555-0.812,0.941-1.163
			c0.389-0.35,0.813-0.526,1.273-0.526c0.572,0,1.043,0.065,1.412,0.194c0.369,0.129,0.785,0.36,1.246,0.692L700.131,379.051z"/>
		<path d="M712.451,388.796v-2.049c-1.219,1.495-2.77,2.243-4.652,2.243c-1.66,0-3.055-0.563-4.18-1.689
			c-1.145-1.144-1.717-2.547-1.717-4.208s0.563-3.054,1.689-4.18c1.145-1.145,2.547-1.717,4.207-1.717
			c1.828,0,3.379,0.748,4.652,2.243v-11.129h1.135v20.487H712.451z M711.178,379.715c-0.941-0.941-2.068-1.412-3.379-1.412
			c-1.328,0-2.453,0.461-3.377,1.384c-0.941,0.941-1.412,2.076-1.412,3.405c0,1.311,0.471,2.437,1.412,3.377
			c0.941,0.941,2.066,1.412,3.377,1.412c1.33,0,2.455-0.461,3.379-1.384c0.941-0.941,1.412-2.076,1.412-3.405
			C712.59,381.783,712.119,380.657,711.178,379.715z"/>
		<path d="M721.311,369.444l-0.748-0.083c-1.033,0-1.551,0.609-1.551,1.828v6.173h2.713v1.135h-2.713v10.299h-1.135v-10.299h-1.551
			v-1.135h1.551v-6.506c0-1.753,0.887-2.63,2.658-2.63c0.406,0,0.664,0.019,0.775,0.055c0.221,0,0.471,0.065,0.746,0.194v1.135
			L721.311,369.444z"/>
		<path d="M730.086,388.076c-0.738,0.627-1.623,0.941-2.658,0.941c-1.771,0-3.1-0.803-3.986-2.409l0.969-0.582
			c0.314,0.572,0.693,1.015,1.137,1.329c0.461,0.351,1.088,0.526,1.881,0.526c1.736,0,2.604-0.738,2.604-2.215
			c0-0.646-0.305-1.208-0.914-1.689c-0.184-0.11-0.447-0.235-0.789-0.374c-0.342-0.139-0.762-0.3-1.26-0.484
			c-0.922-0.333-1.588-0.665-1.992-0.997c-0.592-0.48-0.887-1.172-0.887-2.077c0-0.775,0.295-1.439,0.887-1.993
			c0.57-0.572,1.318-0.858,2.242-0.858c1.273,0,2.354,0.443,3.238,1.329l-0.83,0.72c-0.627-0.627-1.43-0.941-2.408-0.941
			c-1.33,0-1.994,0.582-1.994,1.744c0,0.517,0.203,0.941,0.609,1.273c0.332,0.259,0.857,0.508,1.578,0.748
			c0.627,0.222,1.145,0.429,1.551,0.623s0.709,0.365,0.914,0.512c0.793,0.609,1.189,1.431,1.189,2.464
			C731.166,386.664,730.807,387.467,730.086,388.076z"/>
		<path d="M734.127,380.795c-0.203,0-0.414-0.083-0.637-0.249c-0.166-0.166-0.258-0.388-0.275-0.665
			c0-0.499,0.305-0.803,0.912-0.914c0.463,0,0.766,0.305,0.914,0.914C735.041,380.49,734.736,380.795,734.127,380.795z
			 M734.127,388.962c-0.203,0-0.414-0.083-0.637-0.249c-0.166-0.166-0.258-0.388-0.275-0.665c0-0.498,0.305-0.803,0.912-0.914
			c0.463,0,0.766,0.305,0.914,0.914C735.041,388.658,734.736,388.962,734.127,388.962z"/>
		<path d="M748.053,388.796v-2.049c-1.217,1.495-2.768,2.243-4.65,2.243c-1.662,0-3.055-0.563-4.18-1.689
			c-1.145-1.144-1.717-2.547-1.717-4.208s0.563-3.054,1.688-4.18c1.145-1.145,2.547-1.717,4.209-1.717
			c1.828,0,3.377,0.748,4.65,2.243v-11.129h1.135v20.487H748.053z M746.779,379.715c-0.941-0.941-2.066-1.412-3.377-1.412
			c-1.328,0-2.455,0.461-3.377,1.384c-0.941,0.941-1.412,2.076-1.412,3.405c0,1.311,0.471,2.437,1.412,3.377
			c0.941,0.941,2.066,1.412,3.377,1.412c1.328,0,2.455-0.461,3.377-1.384c0.941-0.941,1.412-2.076,1.412-3.405
			C748.191,381.783,747.721,380.657,746.779,379.715z"/>
		<path d="M761.813,387.273c-1.145,1.145-2.547,1.716-4.207,1.716c-1.662,0-3.057-0.563-4.182-1.689
			c-1.145-1.144-1.717-2.547-1.717-4.208c0-1.643,0.572-3.036,1.717-4.18c1.125-1.163,2.52-1.745,4.182-1.745
			c1.643,0,3.035,0.573,4.18,1.717c1.145,1.145,1.717,2.547,1.717,4.208S762.938,386.147,761.813,387.273z M761.01,379.688
			c-0.924-0.941-2.059-1.412-3.404-1.412c-1.293,0-2.41,0.48-3.352,1.44c-0.959,0.96-1.439,2.086-1.439,3.377
			c0,1.311,0.471,2.437,1.412,3.377c0.941,0.941,2.066,1.412,3.379,1.412c1.328,0,2.453-0.461,3.377-1.384
			c0.941-0.941,1.412-2.076,1.412-3.405C762.395,381.746,761.932,380.611,761.01,379.688z"/>
		<path d="M779.365,388.796v-7.89c0-0.701-0.23-1.311-0.691-1.827c-0.463-0.517-1.127-0.775-1.994-0.775
			c-1.791,0-2.686,0.868-2.686,2.603v7.89h-1.135v-7.89c0-0.775-0.26-1.394-0.775-1.855c-0.535-0.499-1.172-0.748-1.91-0.748
			c-0.758,0-1.395,0.24-1.91,0.72c-0.518,0.462-0.775,1.089-0.775,1.883v7.89h-1.135v-11.434h1.135v1.135
			c0.553-0.867,1.449-1.301,2.686-1.301c1.477,0,2.564,0.6,3.268,1.8c0.664-1.2,1.744-1.8,3.238-1.8
			c1.145,0,2.066,0.323,2.768,0.969c0.701,0.664,1.053,1.578,1.053,2.741v7.89H779.365z"/>
		<path d="M793.76,388.796v-1.966c-1.199,1.44-2.723,2.16-4.566,2.16c-1.662,0-3.057-0.563-4.182-1.689
			c-1.145-1.144-1.717-2.547-1.717-4.208s0.564-3.054,1.689-4.18c1.145-1.145,2.547-1.717,4.209-1.717c1.826,0,3.35,0.72,4.566,2.16
			v-1.994h1.137v11.434H793.76z M792.57,379.715c-0.941-0.941-2.068-1.412-3.377-1.412c-1.33,0-2.455,0.461-3.379,1.384
			c-0.941,0.941-1.412,2.076-1.412,3.405c0,1.311,0.471,2.437,1.412,3.377c0.941,0.941,2.066,1.412,3.379,1.412
			c1.328,0,2.453-0.461,3.377-1.384c0.941-0.941,1.412-2.076,1.412-3.405C793.982,381.783,793.512,380.657,792.57,379.715z"/>
		<path d="M799.049,375.313c-0.203,0-0.416-0.083-0.637-0.25c-0.166-0.166-0.26-0.387-0.277-0.664c0-0.499,0.305-0.803,0.914-0.914
			c0.461,0,0.766,0.304,0.912,0.914C799.961,375.009,799.658,375.313,799.049,375.313z M798.467,388.796v-11.434h1.135v11.434
			H798.467z"/>
		<path d="M809.734,388.796v-6.838c0-2.417-1.088-3.626-3.266-3.626c-1.07,0-1.883,0.314-2.438,0.941
			c-0.572,0.627-0.857,1.486-0.857,2.575v6.949h-1.135v-11.434h1.135v1.384c0.516-1.015,1.615-1.522,3.295-1.522
			c1.42,0,2.51,0.406,3.266,1.218c0.758,0.812,1.137,1.947,1.137,3.405v6.949H809.734z"/>
	</g>
</g>
<path fill="#EDEDED" stroke="#000000" stroke-width="1.1074" stroke-miterlimit="10" d="M1130.021,417.145
	c0,11.706-9.5,21.205-21.231,21.205H846.828c-11.723,0-21.214-9.499-21.214-21.205v-36.133c0-11.71,9.491-21.201,21.214-21.201
	h261.961c11.731,0,21.231,9.491,21.231,21.201V417.145z"/>
<g>
	<g>
		<path d="M871.797,411.515c-2.289,2.289-5.094,3.433-8.416,3.433c-3.803,0-6.92-1.531-9.357-4.596v4.208h-2.27v-40.973h2.27v22.369
			c2.4-3.063,5.518-4.596,9.357-4.596c3.322,0,6.109,1.126,8.361,3.377c2.289,2.289,3.434,5.094,3.434,8.416
			C875.176,406.476,874.049,409.264,871.797,411.515z M870.137,396.399c-1.883-1.882-4.135-2.824-6.756-2.824
			c-2.656,0-4.91,0.923-6.754,2.769c-1.883,1.882-2.824,4.152-2.824,6.81c0,2.622,0.941,4.873,2.824,6.755
			c1.883,1.882,4.133,2.824,6.754,2.824c2.658,0,4.91-0.922,6.756-2.769c1.883-1.882,2.824-4.153,2.824-6.811
			C872.961,400.534,872.02,398.281,870.137,396.399z"/>
		<path d="M899.482,411.515c-2.289,2.289-5.094,3.433-8.416,3.433s-6.109-1.125-8.361-3.377c-2.289-2.289-3.434-5.094-3.434-8.417
			c0-3.285,1.145-6.071,3.434-8.36c2.252-2.326,5.039-3.488,8.361-3.488c3.285,0,6.07,1.145,8.361,3.433
			c2.287,2.289,3.432,5.094,3.432,8.416C902.859,406.476,901.732,409.264,899.482,411.515z M897.877,396.344
			c-1.848-1.883-4.117-2.824-6.811-2.824c-2.584,0-4.818,0.96-6.699,2.879c-1.92,1.92-2.881,4.172-2.881,6.755
			c0,2.622,0.941,4.873,2.824,6.755c1.883,1.882,4.135,2.824,6.756,2.824c2.658,0,4.908-0.922,6.754-2.769
			c1.883-1.882,2.824-4.153,2.824-6.811C900.645,400.46,899.723,398.19,897.877,396.344z"/>
		<path d="M911.994,393.963v20.597h-2.27v-20.597h-3.1v-2.271h3.1v-10.021h2.27v10.021h5.316v2.271H911.994z"/>
		<path d="M923.402,398.558c-0.408,0-0.832-0.166-1.273-0.498c-0.334-0.332-0.518-0.775-0.555-1.329
			c0-0.997,0.609-1.605,1.828-1.827c0.922,0,1.531,0.609,1.826,1.827C925.229,397.949,924.619,398.558,923.402,398.558z
			 M923.402,414.892c-0.408,0-0.832-0.166-1.273-0.498c-0.334-0.333-0.518-0.775-0.555-1.329c0-0.997,0.609-1.605,1.828-1.827
			c0.922,0,1.531,0.609,1.826,1.827C925.229,414.283,924.619,414.892,923.402,414.892z"/>
		<path d="M932.039,414.56v-39.534h2.215v39.534H932.039z"/>
		<path d="M954.518,414.56v-13.676c0-4.835-2.18-7.253-6.533-7.253c-2.143,0-3.766,0.628-4.873,1.883
			c-1.145,1.255-1.717,2.972-1.717,5.149v13.897h-2.27v-22.868h2.27v2.769c1.033-2.03,3.23-3.045,6.59-3.045
			c2.842,0,5.02,0.813,6.533,2.437c1.514,1.625,2.27,3.895,2.27,6.811v13.897H954.518z"/>
		<path d="M967.527,393.963v20.597h-2.27v-20.597h-3.1v-2.271h3.1v-10.021h2.27v10.021h5.316v2.271H967.527z"/>
		<path d="M978.381,402.656c0,3.101,0.83,5.556,2.492,7.364c1.734,1.846,4.115,2.768,7.143,2.768c1.551,0,2.953-0.258,4.207-0.775
			c1.588-0.665,3.01-2.012,4.264-4.042l2.049,0.941c-1.439,2.732-3.654,4.577-6.645,5.537c-1.145,0.369-2.436,0.554-3.875,0.554
			c-3.434,0-6.258-1.125-8.473-3.377c-2.252-2.251-3.377-5.075-3.377-8.472c0-3.433,1.107-6.256,3.322-8.471
			c2.252-2.251,5.094-3.377,8.527-3.377c3.395,0,6.201,1.052,8.416,3.156c2.25,2.104,3.377,4.836,3.377,8.195H978.381z
			 M993.996,395.402c-1.736-1.254-3.73-1.883-5.98-1.883c-4.727,0-7.826,2.326-9.303,6.977h18.549
			C996.893,398.392,995.803,396.695,993.996,395.402z"/>
		<path d="M1015.865,395.07c-0.59-0.443-1.217-0.793-1.883-1.052c-0.664-0.258-1.365-0.388-2.104-0.388
			c-0.627,0-1.217,0.194-1.771,0.582c-0.553,0.388-1.033,0.868-1.439,1.439c-0.406,0.573-0.729,1.209-0.969,1.91
			c-0.24,0.702-0.359,1.348-0.359,1.938v15.061h-2.271v-22.868h2.271v3.101c0.479-0.849,1.107-1.624,1.881-2.326
			c0.775-0.701,1.625-1.052,2.549-1.052c1.143,0,2.084,0.13,2.822,0.388c0.738,0.259,1.568,0.72,2.492,1.384L1015.865,395.07z"/>
		<path d="M1030.926,375.857l-1.494-0.166c-2.068,0-3.102,1.218-3.102,3.654v12.347h5.426v2.271h-5.426v20.597h-2.27v-20.597h-3.102
			v-2.271h3.102v-13.012c0-3.506,1.771-5.26,5.314-5.26c0.813,0,1.33,0.037,1.551,0.11c0.443,0,0.941,0.13,1.496,0.388v2.27
			L1030.926,375.857z"/>
		<path d="M1053.461,414.56v-3.931c-2.398,2.879-5.445,4.319-9.135,4.319c-3.322,0-6.109-1.125-8.361-3.377
			c-2.289-2.289-3.434-5.094-3.434-8.417c0-3.322,1.127-6.108,3.379-8.36c2.287-2.289,5.094-3.433,8.416-3.433
			c3.654,0,6.699,1.439,9.135,4.319v-3.987h2.271v22.868H1053.461z M1051.08,396.399c-1.881-1.882-4.133-2.824-6.754-2.824
			c-2.658,0-4.91,0.923-6.756,2.769c-1.883,1.882-2.824,4.152-2.824,6.81c0,2.622,0.941,4.873,2.824,6.755
			c1.883,1.882,4.135,2.824,6.756,2.824c2.658,0,4.908-0.922,6.754-2.769c1.883-1.882,2.824-4.153,2.824-6.811
			C1053.904,400.534,1052.963,398.281,1051.08,396.399z"/>
		<path d="M1073.283,415.003c-3.396,0-6.219-1.125-8.471-3.377c-2.252-2.251-3.377-5.075-3.377-8.472
			c0-3.396,1.125-6.219,3.377-8.471c2.252-2.251,5.074-3.377,8.471-3.377c2.916,0,5.242,0.664,6.977,1.993v2.713l-1.439-0.941
			l-1.551-0.83c-1.402-0.479-2.73-0.72-3.986-0.72c-2.842,0-5.148,0.886-6.92,2.658c-1.809,1.809-2.713,4.135-2.713,6.977
			c0,2.806,0.904,5.113,2.713,6.921c1.807,1.809,4.115,2.713,6.92,2.713c2.658,0,4.984-0.886,6.977-2.658v2.824
			C1078.193,414.32,1075.867,415.003,1073.283,415.003z"/>
		<path d="M1083.916,402.656c0,3.101,0.83,5.556,2.49,7.364c1.734,1.846,4.115,2.768,7.143,2.768c1.551,0,2.953-0.258,4.209-0.775
			c1.586-0.665,3.008-2.012,4.264-4.042l2.049,0.941c-1.439,2.732-3.654,4.577-6.645,5.537c-1.145,0.369-2.438,0.554-3.877,0.554
			c-3.432,0-6.256-1.125-8.471-3.377c-2.252-2.251-3.377-5.075-3.377-8.472c0-3.433,1.107-6.256,3.322-8.471
			c2.25-2.251,5.094-3.377,8.525-3.377c3.396,0,6.201,1.052,8.416,3.156c2.252,2.104,3.379,4.836,3.379,8.195H1083.916z
			 M1099.529,395.402c-1.736-1.254-3.729-1.883-5.98-1.883c-4.725,0-7.826,2.326-9.301,6.977h18.549
			C1102.426,398.392,1101.338,396.695,1099.529,395.402z"/>
	</g>
</g>
<g>
	<g>
		
			<line fill="none" stroke="#000000" stroke-width="1.1074" stroke-miterlimit="10" x1="810.915" y1="399.872" x2="686.342" y2="399.872"/>
		<g>
			<polygon points="807.805,395.771 809.548,399.872 807.805,403.972 817.526,399.872 			"/>
		</g>
	</g>
</g>
<rect x="399.361" y="380.319" fill="#EDEDED" stroke="#000000" stroke-width="1.1074" stroke-miterlimit="10" width="286.604" height="48.583"/>
<g>
	<g>
		<path d="M440.505,415.049c-1.717,1.717-3.82,2.575-6.312,2.575c-2.852,0-5.191-1.148-7.019-3.447v3.156h-1.702v-30.73h1.702
			v16.777c1.8-2.298,4.139-3.447,7.019-3.447c2.491,0,4.581,0.845,6.271,2.533c1.716,1.717,2.574,3.82,2.574,6.312
			S442.193,413.361,440.505,415.049z M439.26,403.712c-1.412-1.412-3.102-2.118-5.066-2.118c-1.993,0-3.683,0.692-5.066,2.076
			c-1.412,1.412-2.118,3.115-2.118,5.108c0,1.966,0.706,3.654,2.118,5.066s3.101,2.118,5.066,2.118c1.993,0,3.682-0.691,5.066-2.076
			c1.412-1.412,2.117-3.115,2.117-5.108C441.377,406.813,440.672,405.125,439.26,403.712z"/>
		<path d="M461.27,415.049c-1.718,1.717-3.821,2.575-6.313,2.575s-4.582-0.844-6.271-2.533c-1.717-1.716-2.575-3.82-2.575-6.312
			c0-2.464,0.858-4.554,2.575-6.271c1.688-1.744,3.779-2.616,6.271-2.616c2.464,0,4.554,0.858,6.271,2.575
			c1.716,1.717,2.575,3.82,2.575,6.312S462.957,413.361,461.27,415.049z M460.064,403.671c-1.385-1.412-3.087-2.118-5.107-2.118
			c-1.938,0-3.613,0.72-5.024,2.159c-1.44,1.44-2.16,3.129-2.16,5.066c0,1.966,0.706,3.654,2.118,5.066s3.101,2.118,5.066,2.118
			c1.993,0,3.682-0.691,5.066-2.076c1.412-1.412,2.118-3.115,2.118-5.108C462.142,406.758,461.449,405.056,460.064,403.671z"/>
		<path d="M470.653,401.885v15.448h-1.702v-15.448h-2.326v-1.703h2.326v-7.516h1.702v7.516h3.986v1.703H470.653z"/>
		<path d="M479.208,405.332c-0.305,0-0.623-0.125-0.955-0.374c-0.249-0.25-0.388-0.582-0.415-0.997c0-0.748,0.456-1.205,1.37-1.371
			c0.691,0,1.148,0.457,1.37,1.371C480.578,404.875,480.122,405.332,479.208,405.332z M479.208,417.583
			c-0.305,0-0.623-0.125-0.955-0.374c-0.249-0.249-0.388-0.582-0.415-0.997c0-0.748,0.456-1.205,1.37-1.371
			c0.691,0,1.148,0.457,1.37,1.371C480.578,417.126,480.122,417.583,479.208,417.583z"/>
		<path d="M486.392,397.11c-0.305,0-0.623-0.125-0.955-0.374c-0.249-0.249-0.388-0.581-0.415-0.997c0-0.748,0.457-1.204,1.37-1.371
			c0.692,0,1.148,0.457,1.371,1.371C487.763,396.653,487.306,397.11,486.392,397.11z M485.52,417.333v-17.151h1.703v17.151H485.52z"
			/>
		<path d="M502.421,417.333v-10.257c0-3.626-1.634-5.44-4.9-5.44c-1.605,0-2.823,0.471-3.654,1.412
			c-0.858,0.941-1.287,2.229-1.287,3.862v10.423h-1.702v-17.151h1.702v2.077c0.774-1.522,2.422-2.284,4.941-2.284
			c2.132,0,3.765,0.609,4.9,1.827c1.135,1.219,1.703,2.921,1.703,5.108v10.423H502.421z"/>
		<path d="M512.18,401.885v15.448h-1.702v-15.448h-2.326v-1.703h2.326v-7.516h1.702v7.516h3.986v1.703H512.18z"/>
		<path d="M520.319,408.405c0,2.325,0.623,4.167,1.868,5.523c1.302,1.385,3.087,2.076,5.357,2.076c1.163,0,2.215-0.193,3.156-0.581
			c1.189-0.499,2.256-1.509,3.197-3.032l1.536,0.706c-1.079,2.049-2.74,3.433-4.982,4.153c-0.858,0.276-1.827,0.415-2.907,0.415
			c-2.575,0-4.692-0.844-6.354-2.533c-1.689-1.688-2.533-3.806-2.533-6.354c0-2.575,0.83-4.692,2.491-6.354
			c1.688-1.688,3.82-2.533,6.396-2.533c2.547,0,4.651,0.789,6.313,2.367c1.688,1.578,2.533,3.627,2.533,6.146H520.319z
			 M532.03,402.965c-1.302-0.94-2.797-1.412-4.485-1.412c-3.544,0-5.87,1.744-6.977,5.232h13.911
			C534.203,405.208,533.386,403.935,532.03,402.965z"/>
		<path d="M548.433,402.716c-0.443-0.332-0.914-0.595-1.412-0.789c-0.498-0.193-1.024-0.291-1.578-0.291
			c-0.471,0-0.913,0.146-1.329,0.436c-0.415,0.291-0.775,0.651-1.079,1.08c-0.306,0.43-0.547,0.907-0.728,1.433
			c-0.18,0.526-0.27,1.011-0.27,1.454v11.295h-1.702v-17.151h1.702v2.326c0.359-0.637,0.831-1.218,1.412-1.744
			c0.581-0.526,1.218-0.789,1.91-0.789c0.857,0,1.563,0.097,2.118,0.291c0.553,0.194,1.176,0.54,1.868,1.039L548.433,402.716z"/>
		<path d="M559.728,388.306l-1.121-0.125c-1.551,0-2.326,0.914-2.326,2.741v9.26h4.07v1.703h-4.07v15.448h-1.702v-15.448h-2.325
			v-1.703h2.325v-9.759c0-2.63,1.329-3.945,3.986-3.945c0.608,0,0.997,0.028,1.163,0.083c0.332,0,0.706,0.098,1.121,0.291v1.703
			L559.728,388.306z"/>
		<path d="M576.63,417.333v-2.948c-1.8,2.159-4.084,3.239-6.852,3.239c-2.491,0-4.582-0.844-6.271-2.533
			c-1.717-1.716-2.575-3.82-2.575-6.312s0.845-4.582,2.533-6.271c1.717-1.716,3.821-2.575,6.313-2.575
			c2.741,0,5.024,1.08,6.852,3.239v-2.99h1.703v17.151H576.63z M574.845,403.712c-1.412-1.412-3.101-2.118-5.066-2.118
			c-1.993,0-3.683,0.692-5.066,2.076c-1.412,1.412-2.118,3.115-2.118,5.108c0,1.966,0.706,3.654,2.118,5.066
			s3.101,2.118,5.066,2.118c1.993,0,3.682-0.691,5.066-2.076c1.412-1.412,2.118-3.115,2.118-5.108
			C576.963,406.813,576.257,405.125,574.845,403.712z"/>
		<path d="M591.497,417.666c-2.548,0-4.666-0.844-6.354-2.533c-1.689-1.688-2.533-3.806-2.533-6.354
			c0-2.547,0.844-4.665,2.533-6.354c1.688-1.688,3.806-2.533,6.354-2.533c2.187,0,3.931,0.498,5.232,1.495v2.035l-1.08-0.706
			l-1.163-0.623c-1.052-0.359-2.049-0.54-2.989-0.54c-2.133,0-3.862,0.665-5.191,1.993c-1.356,1.357-2.034,3.101-2.034,5.232
			c0,2.104,0.678,3.835,2.034,5.191c1.356,1.357,3.087,2.035,5.191,2.035c1.993,0,3.737-0.664,5.232-1.993v2.118
			C595.179,417.154,593.435,417.666,591.497,417.666z"/>
		<path d="M599.47,408.405c0,2.325,0.623,4.167,1.868,5.523c1.302,1.385,3.087,2.076,5.357,2.076c1.163,0,2.215-0.193,3.156-0.581
			c1.189-0.499,2.256-1.509,3.197-3.032l1.536,0.706c-1.079,2.049-2.74,3.433-4.982,4.153c-0.858,0.276-1.827,0.415-2.907,0.415
			c-2.575,0-4.692-0.844-6.354-2.533c-1.689-1.688-2.533-3.806-2.533-6.354c0-2.575,0.83-4.692,2.491-6.354
			c1.688-1.688,3.82-2.533,6.396-2.533c2.547,0,4.651,0.789,6.313,2.367c1.688,1.578,2.533,3.627,2.533,6.146H599.47z
			 M611.181,402.965c-1.302-0.94-2.797-1.412-4.485-1.412c-3.544,0-5.87,1.744-6.977,5.232h13.911
			C613.354,405.208,612.536,403.935,611.181,402.965z"/>
		<path d="M645.065,413.472c-2.852,2.852-6.52,4.277-11.005,4.277c-4.484,0-8.139-1.412-10.963-4.235
			c-2.852-2.851-4.277-6.52-4.277-11.005s1.412-8.14,4.236-10.963c2.851-2.851,6.52-4.277,11.004-4.277
			c4.458,0,8.126,1.412,11.005,4.236c2.852,2.852,4.277,6.52,4.277,11.005S647.917,410.647,645.065,413.472z M643.861,392.75
			c-2.547-2.547-5.813-3.821-9.801-3.821c-3.931,0-7.17,1.274-9.717,3.821c-2.548,2.547-3.82,5.8-3.82,9.759
			c0,3.959,1.259,7.198,3.778,9.717c2.547,2.547,5.8,3.821,9.759,3.821c3.987,0,7.254-1.246,9.801-3.738
			c2.519-2.519,3.779-5.786,3.779-9.8C647.641,398.521,646.38,395.269,643.861,392.75z"/>
		<path d="M660.14,388.306l-1.121-0.125c-1.551,0-2.326,0.914-2.326,2.741v9.26h4.07v1.703h-4.07v15.448h-1.702v-15.448h-2.325
			v-1.703h2.325v-9.759c0-2.63,1.329-3.945,3.986-3.945c0.608,0,0.997,0.028,1.163,0.083c0.332,0,0.706,0.098,1.121,0.291v1.703
			L660.14,388.306z"/>
	</g>
</g>
<g>
	<g>
		<path d="M466.281,454.083v-7.89c0-0.701-0.23-1.311-0.691-1.827s-1.125-0.775-1.994-0.775c-1.789,0-2.684,0.868-2.684,2.603v7.89
			h-1.137v-7.89c0-0.775-0.258-1.394-0.775-1.855c-0.535-0.499-1.172-0.748-1.91-0.748c-0.756,0-1.393,0.24-1.91,0.72
			c-0.516,0.462-0.775,1.089-0.775,1.883v7.89h-1.135v-11.434h1.135v1.135c0.555-0.867,1.449-1.301,2.686-1.301
			c1.477,0,2.566,0.6,3.268,1.8c0.664-1.2,1.744-1.8,3.238-1.8c1.145,0,2.068,0.323,2.77,0.969c0.701,0.664,1.053,1.578,1.053,2.741
			v7.89H466.281z"/>
		<path d="M470.408,440.6c-0.203,0-0.416-0.083-0.637-0.25c-0.166-0.166-0.26-0.387-0.277-0.664c0-0.499,0.305-0.803,0.914-0.914
			c0.461,0,0.766,0.304,0.912,0.914C471.32,440.295,471.018,440.6,470.408,440.6z M469.826,454.083v-11.434h1.135v11.434H469.826z"
			/>
		<path d="M481.094,454.083v-6.838c0-2.417-1.09-3.626-3.268-3.626c-1.07,0-1.883,0.314-2.436,0.941
			c-0.572,0.627-0.859,1.486-0.859,2.575v6.949h-1.135v-11.434h1.135v1.384c0.518-1.015,1.615-1.522,3.295-1.522
			c1.422,0,2.51,0.406,3.268,1.218c0.756,0.812,1.135,1.947,1.135,3.405v6.949H481.094z"/>
		<path d="M498.34,454.304c-1.697,0-3.109-0.563-4.234-1.689c-1.127-1.125-1.689-2.538-1.689-4.236c0-1.698,0.563-3.11,1.689-4.236
			c1.125-1.125,2.537-1.689,4.234-1.689c1.459,0,2.621,0.333,3.488,0.997v1.356l-0.719-0.471l-0.775-0.415
			c-0.701-0.24-1.367-0.36-1.994-0.36c-1.42,0-2.574,0.443-3.459,1.329c-0.906,0.904-1.357,2.067-1.357,3.488
			c0,1.403,0.451,2.557,1.357,3.46c0.902,0.905,2.057,1.357,3.459,1.357c1.33,0,2.492-0.443,3.488-1.329v1.412
			C500.795,453.963,499.633,454.304,498.34,454.304z"/>
		<path d="M512.957,454.083v-1.966c-1.199,1.44-2.723,2.16-4.566,2.16c-1.662,0-3.057-0.563-4.182-1.689
			c-1.145-1.144-1.717-2.547-1.717-4.208s0.564-3.054,1.689-4.18c1.145-1.145,2.547-1.717,4.209-1.717c1.826,0,3.35,0.72,4.566,2.16
			v-1.994h1.137v11.434H512.957z M511.768,445.002c-0.941-0.941-2.068-1.412-3.377-1.412c-1.33,0-2.455,0.461-3.379,1.384
			c-0.941,0.941-1.412,2.076-1.412,3.405c0,1.311,0.471,2.437,1.412,3.377c0.941,0.941,2.066,1.412,3.379,1.412
			c1.328,0,2.453-0.461,3.377-1.384c0.941-0.941,1.412-2.076,1.412-3.405C513.18,447.069,512.709,445.943,511.768,445.002z"/>
		<path d="M522.869,444.337c-0.295-0.222-0.609-0.396-0.941-0.526c-0.332-0.129-0.684-0.194-1.053-0.194
			c-0.314,0-0.609,0.097-0.885,0.291c-0.277,0.194-0.518,0.434-0.721,0.72c-0.203,0.287-0.365,0.605-0.484,0.955
			c-0.119,0.351-0.18,0.674-0.18,0.969v7.53h-1.135v-11.434h1.135v1.551c0.24-0.425,0.553-0.812,0.941-1.163
			c0.387-0.35,0.813-0.526,1.273-0.526c0.572,0,1.043,0.065,1.412,0.194c0.369,0.129,0.783,0.36,1.246,0.692L522.869,444.337z"/>
		<path d="M535.189,454.083v-2.049c-1.219,1.495-2.77,2.243-4.652,2.243c-1.66,0-3.055-0.563-4.18-1.689
			c-1.145-1.144-1.717-2.547-1.717-4.208s0.563-3.054,1.689-4.18c1.145-1.145,2.547-1.717,4.207-1.717
			c1.828,0,3.379,0.748,4.652,2.243v-11.129h1.135v20.487H535.189z M533.916,445.002c-0.941-0.941-2.068-1.412-3.379-1.412
			c-1.328,0-2.453,0.461-3.377,1.384c-0.941,0.941-1.412,2.076-1.412,3.405c0,1.311,0.471,2.437,1.412,3.377
			c0.941,0.941,2.066,1.412,3.377,1.412c1.33,0,2.455-0.461,3.379-1.384c0.941-0.941,1.412-2.076,1.412-3.405
			C535.328,447.069,534.857,445.943,533.916,445.002z"/>
		<path d="M540.477,440.6c-0.203,0-0.414-0.083-0.637-0.25c-0.166-0.166-0.258-0.387-0.277-0.664c0-0.499,0.305-0.803,0.914-0.914
			c0.461,0,0.766,0.304,0.914,0.914C541.391,440.295,541.086,440.6,540.477,440.6z M539.896,454.083v-11.434h1.135v11.434H539.896z"
			/>
		<path d="M551.162,454.083v-6.838c0-2.417-1.088-3.626-3.266-3.626c-1.07,0-1.883,0.314-2.438,0.941
			c-0.572,0.627-0.857,1.486-0.857,2.575v6.949h-1.135v-11.434h1.135v1.384c0.516-1.015,1.615-1.522,3.295-1.522
			c1.42,0,2.51,0.406,3.266,1.218c0.758,0.812,1.137,1.947,1.137,3.405v6.949H551.162z"/>
		<path d="M565.559,454.083v-1.966c-1.199,1.44-2.723,2.16-4.566,2.16c-1.662,0-3.057-0.563-4.182-1.689
			c-1.145-1.144-1.717-2.547-1.717-4.208s0.564-3.054,1.689-4.18c1.145-1.145,2.547-1.717,4.209-1.717c1.826,0,3.35,0.72,4.566,2.16
			v-1.994h1.137v11.434H565.559z M564.369,445.002c-0.941-0.941-2.068-1.412-3.377-1.412c-1.33,0-2.455,0.461-3.379,1.384
			c-0.941,0.941-1.412,2.076-1.412,3.405c0,1.311,0.471,2.437,1.412,3.377c0.941,0.941,2.066,1.412,3.379,1.412
			c1.328,0,2.453-0.461,3.377-1.384c0.941-0.941,1.412-2.076,1.412-3.405C565.781,447.069,565.311,445.943,564.369,445.002z"/>
		<path d="M570.377,454.083v-20.487h1.107v20.487H570.377z"/>
		<path d="M574.75,440.6c-0.203,0-0.414-0.083-0.637-0.25c-0.166-0.166-0.258-0.387-0.277-0.664c0-0.499,0.305-0.803,0.914-0.914
			c0.461,0,0.766,0.304,0.914,0.914C575.664,440.295,575.359,440.6,574.75,440.6z M574.17,454.083v-11.434h1.135v11.434H574.17z"/>
		<path d="M580.785,443.784v10.299h-1.135v-10.299H578.1v-1.135h1.551v-5.011h1.135v5.011h2.658v1.135H580.785z"/>
		<path d="M588.066,459.454h-1.273l2.963-6.423l-4.818-10.382h1.219l4.264,9.025l4.207-9.025h1.246L588.066,459.454z"/>
		<path d="M604.566,445.639v-1.135h6.256v1.135H604.566z M604.566,449.016v-1.107h6.256v1.107H604.566z"/>
		<path d="M630.672,444.144c-0.166,0.203-0.414,0.503-0.748,0.9c-0.332,0.397-0.756,0.891-1.273,1.481l-5.674,6.423h9.467v1.135
			h-11.959l9.689-11.212c0.775-1.107,1.162-2.261,1.162-3.46c0-1.163-0.461-2.15-1.383-2.962c-0.924-0.793-1.994-1.19-3.213-1.19
			c-1.494,0-2.666,0.48-3.516,1.439c-0.516,0.572-0.877,1.283-1.08,2.132H620.9c0.129-0.959,0.607-1.91,1.439-2.852
			c1.107-1.218,2.574-1.827,4.4-1.827c1.568,0,2.916,0.489,4.043,1.467c1.125,0.96,1.689,2.224,1.689,3.793
			C632.473,441.015,631.871,442.593,630.672,444.144z"/>
	</g>
</g>
<g>
	<g>
		<path fill="none" stroke="#000000" stroke-width="1.1074" stroke-miterlimit="10" stroke-dasharray="3.3222,3.3222" d="
			M977.698,589.324c0-131.088,0.474-48.403,0.497-133.688"/>
		<g>
			<polygon points="982.279,458.754 978.182,457.004 974.078,458.739 978.195,449.025 			"/>
		</g>
	</g>
</g>
<g>
	<path d="M45.436,438.102h-13.49v36.552H28.62v-36.552H15.156v-2.812h30.279V438.102z"/>
	<path d="M51.789,474.654V435.29h11.625c4.218,0,7.417,0.87,9.598,2.611c2.181,1.74,3.271,4.306,3.271,7.696
		c0,2.038-0.554,3.81-1.662,5.316s-2.628,2.583-4.556,3.232c2.288,0.504,4.132,1.631,5.528,3.378s2.096,3.765,2.096,6.053
		c0,3.477-1.122,6.192-3.366,8.146c-2.244,1.955-5.366,2.932-9.368,2.932H51.789z M55.114,452.944h9.084
		c2.775-0.054,4.925-0.708,6.448-1.963c1.522-1.255,2.284-3.083,2.284-5.485c0-2.528-0.788-4.392-2.365-5.593
		s-3.961-1.801-7.151-1.801h-8.3V452.944z M55.114,455.756v16.086h9.977c2.848,0,5.104-0.724,6.772-2.173
		c1.667-1.448,2.501-3.459,2.501-6.032c0-2.429-0.798-4.35-2.393-5.763c-1.596-1.413-3.799-2.119-6.61-2.119H55.114z"/>
	<path d="M83.178,459.595c0-2.812,0.545-5.344,1.636-7.597c1.09-2.253,2.631-4.006,4.623-5.259c1.991-1.252,4.248-1.879,6.772-1.879
		c3.893,0,7.047,1.365,9.462,4.096c2.415,2.731,3.623,6.35,3.623,10.855v0.676c0,2.83-0.545,5.376-1.636,7.638
		c-1.091,2.262-2.627,4.006-4.609,5.231c-1.983,1.226-4.245,1.838-6.786,1.838c-3.875,0-7.025-1.365-9.449-4.096
		s-3.636-6.349-3.636-10.855V459.595z M86.422,460.487c0,3.497,0.905,6.367,2.717,8.611c1.812,2.244,4.186,3.366,7.124,3.366
		c2.92,0,5.285-1.122,7.097-3.366c1.812-2.244,2.718-5.205,2.718-8.881v-0.622c0-2.234-0.415-4.28-1.244-6.137
		c-0.829-1.856-1.992-3.293-3.487-4.312c-1.496-1.018-3.209-1.527-5.137-1.527c-2.885,0-5.236,1.131-7.057,3.393
		s-2.73,5.222-2.73,8.881V460.487z"/>
	<path d="M124.597,457.271l7.895-11.869h3.839l-9.923,14.356l10.355,14.896h-3.813l-8.327-12.382l-8.327,12.382h-3.812
		l10.327-14.896l-9.922-14.356h3.813L124.597,457.271z"/>
</g>
<g>
	<path d="M39.218,571.037h-17.87l-4.056,11.057h-3.487l14.896-39.363h3.163l14.896,39.363H43.3L39.218,571.037z M22.375,568.225
		h15.788l-7.895-21.439L22.375,568.225z"/>
	<path d="M52.547,582.094V542.73h11.625c4.218,0,7.417,0.869,9.598,2.61c2.181,1.74,3.271,4.306,3.271,7.696
		c0,2.037-0.554,3.811-1.662,5.316s-2.628,2.583-4.556,3.232c2.288,0.504,4.132,1.631,5.528,3.377
		c1.396,1.748,2.096,3.766,2.096,6.053c0,3.477-1.122,6.193-3.366,8.146c-2.244,1.955-5.366,2.932-9.368,2.932H52.547z
		 M55.872,560.385h9.084c2.775-0.055,4.925-0.709,6.448-1.964c1.522-1.255,2.284-3.083,2.284-5.485c0-2.527-0.788-4.392-2.365-5.592
		c-1.577-1.201-3.961-1.802-7.151-1.802h-8.3V560.385z M55.872,563.196v16.087h9.977c2.848,0,5.104-0.725,6.772-2.174
		c1.667-1.447,2.501-3.459,2.501-6.031c0-2.43-0.798-4.351-2.393-5.764c-1.596-1.412-3.799-2.118-6.61-2.118H55.872z"/>
	<path d="M83.936,567.035c0-2.812,0.545-5.344,1.636-7.597c1.09-2.253,2.631-4.006,4.623-5.259c1.991-1.252,4.248-1.879,6.772-1.879
		c3.893,0,7.047,1.365,9.462,4.096s3.623,6.35,3.623,10.855v0.676c0,2.83-0.545,5.375-1.636,7.637
		c-1.091,2.263-2.627,4.006-4.609,5.232c-1.983,1.226-4.245,1.838-6.786,1.838c-3.875,0-7.025-1.365-9.449-4.096
		s-3.636-6.349-3.636-10.855V567.035z M87.18,567.928c0,3.496,0.905,6.367,2.717,8.611c1.812,2.243,4.186,3.365,7.124,3.365
		c2.92,0,5.285-1.122,7.097-3.365c1.812-2.244,2.718-5.205,2.718-8.882v-0.622c0-2.234-0.415-4.28-1.244-6.137
		s-1.992-3.294-3.487-4.313c-1.496-1.018-3.209-1.527-5.137-1.527c-2.885,0-5.236,1.131-7.057,3.393s-2.73,5.223-2.73,8.881V567.928
		z"/>
	<path d="M125.354,564.711l7.895-11.869h3.839l-9.923,14.355l10.355,14.896h-3.813l-8.327-12.382l-8.327,12.382h-3.812
		l10.327-14.896l-9.922-14.355h3.813L125.354,564.711z"/>
</g>
</svg>
