<?xml version="1.0" encoding="utf-8"?>
<!-- Generator: Adobe Illustrator 16.0.0, SVG Export Plug-In . SVG Version: 6.00 Build 0)  -->
<!DOCTYPE svg PUBLIC "-//W3C//DTD SVG 1.1//EN" "http://www.w3.org/Graphics/SVG/1.1/DTD/svg11.dtd">
<svg version="1.1" id="Layer_1" xmlns="http://www.w3.org/2000/svg" xmlns:xlink="http://www.w3.org/1999/xlink" x="0px" y="0px"
	 width="1920px" height="1080px" viewBox="0 0 1920 1080" enable-background="new 0 0 1920 1080" xml:space="preserve">
<g>
	<path fill="#EDEDED" d="M834.322,415.269L1459,238.595l-1.111,0.312c3.115-1.304,7.301,0.721,9.629,4.776
		c2.469,4.299,1.912,9.251-1.242,11.062c-0.25,0.144-0.51,0.264-0.777,0.36L844.701,434.541c3.492-2.004,3.879-7.883,0.865-13.133
		C842.703,416.42,837.8,413.797,834.322,415.269z"/>
	<g>
		<path fill="#EDEDED" d="M844.702,434.744c3.491-2.004,3.878-7.883,0.864-13.133c-2.861-4.987-7.766-7.61-11.244-6.139
			c-0.182,0.077-0.359,0.166-0.532,0.265c-3.491,2.004-3.878,7.883-0.864,13.133C835.938,434.119,841.211,436.749,844.702,434.744z"
			/>
		<path fill="none" stroke="#000000" stroke-miterlimit="10" d="M844.702,434.541c-3.491,2.004-8.765-0.625-11.776-5.875
			c-3.014-5.25-2.627-11.129,0.864-13.133c0.173-0.1,0.351-0.188,0.532-0.265"/>
		<path fill="none" stroke="#000000" stroke-miterlimit="10" d="M834.322,415.268c3.479-1.471,8.383,1.152,11.244,6.139
			c3.014,5.25,2.627,11.129-0.864,13.133"/>
		<path fill="none" stroke="#000000" stroke-miterlimit="10" d="M1457.891,238.907c3.115-1.304,7.301,0.721,9.627,4.776
			c2.469,4.299,1.912,9.251-1.24,11.062c-0.252,0.144-0.512,0.264-0.777,0.36"/>
	</g>
	<line fill="none" stroke="#000000" stroke-miterlimit="10" x1="834.322" y1="415.269" x2="1459" y2="238.595"/>
	<line fill="none" stroke="#000000" stroke-miterlimit="10" x1="844.702" y1="434.541" x2="1465.5" y2="255.104"/>
</g>
<g>
	<polygon opacity="0.1" fill="#008D36" points="1219.076,224.022 1345.573,193.129 1636.465,283.135 1609.355,499.671 
		1487.656,558.018 1222.076,423.136 	"/>
	<polyline fill="none" stroke="#000000" stroke-miterlimit="10" points="804.719,567.502 759.354,336.299 1345.573,193.129 
		1636.465,283.135 1609.355,499.671 1032.518,776.213 804.719,567.502 	"/>
	<line fill="none" stroke="#000000" stroke-miterlimit="10" x1="1341.563" y1="381.806" x2="804.719" y2="567.502"/>
	<line fill="none" stroke="#000000" stroke-miterlimit="10" x1="1609.355" y1="499.671" x2="1341.563" y2="381.806"/>
	<line fill="none" stroke="#000000" stroke-miterlimit="10" x1="1345.573" y1="193.129" x2="1341.563" y2="381.806"/>
	<line fill="none" stroke="#000000" stroke-miterlimit="10" x1="1504.681" y1="329.697" x2="1219.076" y2="224.022"/>
	<line fill="none" stroke="#000000" stroke-miterlimit="10" x1="1002.15" y1="507.253" x2="1636.465" y2="283.135"/>
	<polyline opacity="0.1" fill="#95C11F" points="759.354,336.299 1219.076,224.022 1504.681,329.697 1487.656,558.018 
		1032.518,776.213 804.719,567.502 	"/>
	<line fill="none" stroke="#000000" stroke-miterlimit="10" x1="1002.15" y1="507.253" x2="759.354" y2="336.299"/>
	<line fill="none" stroke="#000000" stroke-miterlimit="10" x1="1222.076" y1="423.136" x2="1219.076" y2="224.022"/>
	<line fill="none" stroke="#000000" stroke-miterlimit="10" x1="1002.15" y1="507.253" x2="1032.518" y2="776.213"/>
	<line fill="none" stroke="#000000" stroke-miterlimit="10" x1="1504.681" y1="329.697" x2="1487.656" y2="558.018"/>
	<line fill="none" stroke="#000000" stroke-miterlimit="10" x1="1222.076" y1="423.136" x2="1487.656" y2="558.018"/>
</g>
<line fill="none" x1="1679.29" y1="391.695" x2="1701.797" y2="401.33"/>
<polyline opacity="0.5" fill="none" points="890.924,591.273 1005.82,536.268 1002.391,653.838 893.195,713.182 "/>
<polygon opacity="0.5" fill="none" points="1559.887,518.661 1636.465,480.737 1620.709,588.781 1547.045,628.215 "/>
<g>
	<rect x="79.979" y="297.957" fill="none" width="344.979" height="48.684"/>
	<path d="M239.544,330.12c-1.94,1.94-4.319,2.911-7.137,2.911c-3.224,0-5.869-1.299-7.935-3.897v3.568h-1.926v-34.745h1.926v18.969
		c2.034-2.598,4.679-3.896,7.935-3.896c2.817,0,5.181,0.955,7.09,2.863c1.94,1.941,2.911,4.32,2.911,7.138
		C242.408,325.846,241.453,328.21,239.544,330.12z M238.136,317.301c-1.597-1.597-3.507-2.395-5.729-2.395
		c-2.253,0-4.163,0.782-5.728,2.348c-1.598,1.596-2.395,3.521-2.395,5.775c0,2.223,0.797,4.132,2.395,5.728
		c1.596,1.597,3.505,2.395,5.728,2.395c2.254,0,4.163-0.781,5.729-2.348c1.597-1.596,2.395-3.521,2.395-5.774
		C240.53,320.807,239.732,318.898,238.136,317.301z"/>
	<path d="M263.021,330.12c-1.941,1.94-4.319,2.911-7.137,2.911s-5.181-0.955-7.091-2.864c-1.94-1.94-2.91-4.32-2.91-7.137
		c0-2.786,0.97-5.149,2.91-7.09c1.91-1.973,4.273-2.958,7.091-2.958c2.786,0,5.148,0.97,7.09,2.91
		c1.94,1.941,2.911,4.32,2.911,7.138C265.885,325.846,264.93,328.21,263.021,330.12z M261.658,317.254
		c-1.564-1.597-3.49-2.395-5.774-2.395c-2.191,0-4.085,0.814-5.682,2.441c-1.628,1.628-2.441,3.537-2.441,5.729
		c0,2.223,0.798,4.132,2.395,5.728c1.597,1.597,3.505,2.395,5.729,2.395c2.253,0,4.163-0.781,5.728-2.348
		c1.597-1.596,2.395-3.521,2.395-5.774C264.006,320.745,263.224,318.82,261.658,317.254z"/>
	<path d="M273.631,315.235v17.467h-1.925v-17.467h-2.63v-1.925h2.63v-8.498h1.925v8.498h4.508v1.925H273.631z"/>
	<path d="M283.303,319.132c-0.344,0-0.703-0.141-1.079-0.423c-0.282-0.281-0.438-0.657-0.47-1.127c0-0.845,0.517-1.361,1.549-1.549
		c0.783,0,1.299,0.517,1.551,1.549C284.854,318.616,284.336,319.132,283.303,319.132z M283.303,332.983
		c-0.344,0-0.703-0.141-1.079-0.422c-0.282-0.282-0.438-0.657-0.47-1.127c0-0.846,0.517-1.361,1.549-1.55
		c0.783,0,1.299,0.517,1.551,1.55C284.854,332.467,284.336,332.983,283.303,332.983z"/>
	<path d="M290.346,332.702v-33.524h16.105v1.925h-14.18v12.208h14.18v2.066h-14.18v15.4h14.18v1.925H290.346z"/>
	<path d="M310.441,332.702v-34.745h1.879v34.745H310.441z"/>
	<path d="M319.314,322.607c0,2.629,0.705,4.711,2.113,6.244c1.471,1.566,3.49,2.348,6.057,2.348c1.314,0,2.504-0.218,3.568-0.657
		c1.346-0.563,2.551-1.705,3.615-3.427l1.738,0.798c-1.221,2.316-3.1,3.882-5.635,4.695c-0.971,0.313-2.066,0.47-3.287,0.47
		c-2.91,0-5.305-0.955-7.184-2.864c-1.91-1.909-2.864-4.304-2.864-7.184c0-2.911,0.939-5.306,2.817-7.185
		c1.908-1.908,4.32-2.863,7.23-2.863c2.88,0,5.259,0.892,7.137,2.676c1.909,1.784,2.865,4.102,2.865,6.949H319.314z
		 M332.556,316.456c-1.472-1.063-3.162-1.596-5.071-1.596c-4.007,0-6.637,1.972-7.888,5.916h15.729
		C335.013,318.992,334.089,317.552,332.556,316.456z"/>
	<path d="M364.014,332.702V319.32c0-1.188-0.393-2.222-1.174-3.099c-0.783-0.876-1.91-1.314-3.381-1.314
		c-3.037,0-4.555,1.472-4.555,4.413v13.382h-1.925V319.32c0-1.314-0.438-2.362-1.314-3.146c-0.909-0.846-1.988-1.268-3.239-1.268
		c-1.285,0-2.364,0.407-3.24,1.221c-0.877,0.782-1.314,1.847-1.314,3.192v13.382h-1.926V313.31h1.926v1.925
		c0.938-1.471,2.457-2.206,4.555-2.206c2.504,0,4.35,1.018,5.539,3.052c1.127-2.034,2.959-3.052,5.494-3.052
		c1.94,0,3.506,0.548,4.695,1.643c1.189,1.127,1.784,2.677,1.784,4.648v13.382H364.014z"/>
	<path d="M372.512,322.607c0,2.629,0.704,4.711,2.113,6.244c1.471,1.566,3.489,2.348,6.057,2.348c1.314,0,2.504-0.218,3.568-0.657
		c1.346-0.563,2.551-1.705,3.615-3.427l1.737,0.798c-1.221,2.316-3.099,3.882-5.634,4.695c-0.971,0.313-2.066,0.47-3.287,0.47
		c-2.911,0-5.306-0.955-7.184-2.864c-1.91-1.909-2.865-4.304-2.865-7.184c0-2.911,0.939-5.306,2.818-7.185
		c1.908-1.908,4.319-2.863,7.23-2.863c2.879,0,5.258,0.892,7.137,2.676c1.908,1.784,2.864,4.102,2.864,6.949H372.512z
		 M385.752,316.456c-1.471-1.063-3.162-1.596-5.07-1.596c-4.008,0-6.637,1.972-7.889,5.916h15.729
		C388.209,318.992,387.285,317.552,385.752,316.456z"/>
	<path d="M408.195,332.702v-11.598c0-4.1-1.848-6.15-5.541-6.15c-1.815,0-3.192,0.532-4.131,1.597
		c-0.971,1.064-1.456,2.52-1.456,4.366v11.785h-1.925V313.31h1.925v2.348c0.876-1.721,2.739-2.582,5.587-2.582
		c2.41,0,4.257,0.688,5.541,2.065c1.283,1.378,1.925,3.303,1.925,5.775v11.785H408.195z"/>
	<path d="M419.229,315.235v17.467h-1.925v-17.467h-2.63v-1.925h2.63v-8.498h1.925v8.498h4.508v1.925H419.229z"/>
</g>
<line fill="none" stroke="#000000" stroke-miterlimit="10" stroke-dasharray="1,2" x1="434.416" y1="322.299" x2="1193" y2="322.299"/>
<g>
	<rect x="79.979" y="181.569" fill="none" width="344.979" height="48.684"/>
	<path d="M286.309,213.731c-1.941,1.94-4.32,2.911-7.137,2.911c-3.225,0-5.869-1.299-7.936-3.897v3.568h-1.925v-34.745h1.925v18.969
		c2.035-2.598,4.68-3.896,7.936-3.896c2.816,0,5.18,0.955,7.09,2.863c1.939,1.941,2.91,4.32,2.91,7.138
		C289.172,209.458,288.217,211.822,286.309,213.731z M284.9,200.913c-1.598-1.597-3.507-2.395-5.729-2.395
		c-2.254,0-4.164,0.782-5.729,2.348c-1.597,1.596-2.395,3.521-2.395,5.775c0,2.223,0.798,4.132,2.395,5.728
		c1.596,1.597,3.506,2.395,5.729,2.395c2.254,0,4.162-0.781,5.729-2.348c1.596-1.596,2.395-3.521,2.395-5.774
		C287.295,204.419,286.496,202.51,284.9,200.913z"/>
	<path d="M309.785,213.731c-1.941,1.94-4.32,2.911-7.137,2.911c-2.818,0-5.182-0.955-7.091-2.864c-1.94-1.94-2.911-4.32-2.911-7.137
		c0-2.786,0.971-5.149,2.911-7.09c1.909-1.973,4.272-2.958,7.091-2.958c2.785,0,5.148,0.97,7.09,2.91
		c1.939,1.941,2.91,4.32,2.91,7.138C312.648,209.458,311.693,211.822,309.785,213.731z M308.423,200.866
		c-1.565-1.597-3.491-2.395-5.774-2.395c-2.191,0-4.086,0.814-5.682,2.441c-1.629,1.628-2.441,3.537-2.441,5.729
		c0,2.223,0.798,4.132,2.395,5.728c1.596,1.597,3.505,2.395,5.729,2.395c2.253,0,4.162-0.781,5.728-2.348
		c1.597-1.596,2.395-3.521,2.395-5.774C310.771,204.356,309.988,202.432,308.423,200.866z"/>
	<path d="M320.395,198.847v17.467h-1.924v-17.467h-2.63v-1.925h2.63v-8.498h1.924v8.498h4.508v1.925H320.395z"/>
	<path d="M330.067,202.744c-0.345,0-0.704-0.141-1.079-0.423c-0.282-0.281-0.439-0.657-0.471-1.127c0-0.845,0.518-1.361,1.55-1.549
		c0.782,0,1.299,0.517,1.55,1.549C331.617,202.228,331.101,202.744,330.067,202.744z M330.067,216.595
		c-0.345,0-0.704-0.141-1.079-0.422c-0.282-0.282-0.439-0.657-0.471-1.127c0-0.846,0.518-1.361,1.55-1.55
		c0.782,0,1.299,0.517,1.55,1.55C331.617,216.079,331.101,216.595,330.067,216.595z"/>
	<path d="M339.035,214.389h19.156v1.925h-22.584l19.203-31.553h-18.076v-1.972h21.551L339.035,214.389z"/>
	<path d="M376.174,213.731c-1.941,1.94-4.319,2.911-7.137,2.911c-2.816,0-5.181-0.955-7.09-2.864c-1.941-1.94-2.91-4.32-2.91-7.137
		c0-2.786,0.969-5.149,2.91-7.09c1.909-1.973,4.273-2.958,7.09-2.958c2.786,0,5.148,0.97,7.09,2.91
		c1.941,1.941,2.912,4.32,2.912,7.138C379.039,209.458,378.083,211.822,376.174,213.731z M374.813,200.866
		c-1.565-1.597-3.49-2.395-5.775-2.395c-2.191,0-4.084,0.814-5.682,2.441c-1.627,1.628-2.441,3.537-2.441,5.729
		c0,2.223,0.799,4.132,2.395,5.728c1.598,1.597,3.506,2.395,5.729,2.395c2.254,0,4.163-0.781,5.729-2.348
		c1.596-1.596,2.395-3.521,2.395-5.774C377.16,204.356,376.377,202.432,374.813,200.866z"/>
	<path d="M396.927,216.313v-11.598c0-4.1-1.847-6.15-5.54-6.15c-1.816,0-3.193,0.532-4.133,1.597
		c-0.971,1.064-1.455,2.52-1.455,4.366v11.785h-1.925v-19.392h1.925v2.348c0.876-1.721,2.738-2.582,5.588-2.582
		c2.41,0,4.256,0.688,5.54,2.065c1.283,1.378,1.925,3.303,1.925,5.775v11.785H396.927z"/>
	<path d="M405.425,206.219c0,2.629,0.704,4.711,2.112,6.244c1.471,1.566,3.49,2.348,6.058,2.348c1.314,0,2.504-0.218,3.568-0.657
		c1.345-0.563,2.551-1.705,3.615-3.427l1.737,0.798c-1.221,2.316-3.1,3.882-5.635,4.695c-0.971,0.313-2.065,0.47-3.286,0.47
		c-2.911,0-5.306-0.955-7.185-2.864c-1.909-1.909-2.863-4.304-2.863-7.184c0-2.911,0.939-5.306,2.816-7.185
		c1.909-1.908,4.32-2.863,7.231-2.863c2.88,0,5.259,0.892,7.137,2.676c1.909,1.784,2.864,4.102,2.864,6.949H405.425z
		 M418.666,200.067c-1.473-1.063-3.162-1.596-5.071-1.596c-4.007,0-6.637,1.972-7.888,5.916h15.729
		C421.123,202.604,420.199,201.164,418.666,200.067z"/>
</g>
<g>
	<g>
		<path d="M807.792,355.413c1.193-3.567,1.94-5.189,3.617-8.472c0.881,0.613,1.326,0.92,2.223,1.544
			c-1.143,2.349-1.664,3.533-2.566,6.05c5.503,0.81,8.262,1.264,13.802,2.34c0.977,0.808,1.47,1.226,2.463,2.098
			C819.479,357.239,815.57,356.569,807.792,355.413z"/>
		<path d="M838.465,360.482c5.152-1.436,7.766-2.15,13.04-3.575c0.876,0.864,1.318,1.312,2.205,2.239
			c-6.792,1.877-10.147,2.819-16.716,4.718c-3.316-10.297-4.404-13.331-6.024-19.941c-5.243,1.325-7.853,1.987-13.029,3.313
			c-0.769-0.541-1.151-0.808-1.907-1.34c6.752-1.724,10.164-2.586,17.009-4.31C834.486,348.09,835.468,350.975,838.465,360.482z"/>
		<path d="M869.785,351.146c0.178,2.563-1.088,4.395-3.861,5.149c-2.774,0.754-6.17,0.197-10.187-1.381
			c-4.082-1.604-7.69-3.734-10.718-6.183c-2.994-2.422-4.449-4.5-4.493-6.416c-0.045-1.933,1.36-3.272,4.22-3.988
			c2.828-0.708,6.172-0.608,10.086,0.363c3.914,0.972,7.314,2.548,10.261,4.972C868.037,346.087,869.609,348.625,869.785,351.146z
			 M854.87,340.058c-3.196-0.82-5.944-0.924-8.26-0.345c-2.221,0.555-3.317,1.642-3.274,3.277c0.043,1.642,1.205,3.362,3.553,5.266
			c2.381,1.931,5.277,3.571,8.622,4.808c3.346,1.238,6.117,1.658,8.316,1.073c2.229-0.593,3.257-1.99,3.122-3.99
			c-0.138-2.037-1.395-4.067-3.755-6.008C860.801,342.171,858.031,340.869,854.87,340.058z"/>
		<path d="M893.354,348.463c-4.948-5.1-7.398-7.131-12.148-10.932c-4.197-3.359-8.064-4.339-11.813-3.405
			c-1.843,0.459-2.702,1.217-2.607,2.251c0.096,1.039,1.055,2.294,2.953,3.806c4.846,3.859,7.356,5.93,12.468,11.252
			c-0.77,0.206-1.154,0.308-1.923,0.514c-8.438-8.796-12.541-11.408-20.143-17.146c0.782-0.195,1.176-0.292,1.958-0.487
			c0.92,0.695,1.383,1.044,2.317,1.753c-0.823-1.52,0.237-2.621,3.128-3.342c2.446-0.61,4.984-0.572,7.649,0.142
			c2.664,0.713,5.237,2.005,7.766,4.023c4.82,3.846,7.311,5.898,12.326,11.056C894.513,348.153,894.126,348.257,893.354,348.463z"/>
		<path d="M891.339,336.63c2.704,2.208,5.601,3.969,8.619,5.072c3.108,1.136,5.967,1.411,8.541,0.728
			c1.317-0.35,2.29-0.889,2.892-1.605c0.76-0.905,0.774-2.351,0.051-4.186c1.026,0.109,1.539,0.164,2.564,0.275
			c1.188,2.446,0.943,4.547-0.74,6.08c-0.645,0.587-1.576,1.054-2.798,1.385c-2.914,0.79-6.325,0.367-10.215-1.042
			c-3.915-1.418-7.407-3.433-10.376-5.875c-3-2.469-4.465-4.54-4.443-6.44c0.021-1.93,1.518-3.243,4.434-3.976
			c2.885-0.726,6.132-0.657,9.789,0.215c3.684,0.878,7,2.402,9.934,4.759C902.34,333.869,898.678,334.79,891.339,336.63z
			 M898.399,328.388c-2.538-0.438-4.761-0.416-6.675,0.065c-4.019,1.009-4.74,3.076-1.976,6.595
			c6.353-1.588,9.521-2.383,15.805-3.975C903.414,329.715,901.031,328.843,898.399,328.388z"/>
		<path d="M944.797,334.306c-5.611-3.346-8.48-4.851-14.157-7.695c-5.925,1.567-8.929,2.348-14.979,3.904
			c2.604,3.705,3.93,5.649,6.551,10.162c-0.746,0.205-1.119,0.308-1.866,0.513c-6.796-10.629-14.696-20.515-21.254-31.285
			c15.619,8.449,31.983,15.311,47.565,23.859C945.914,333.982,945.541,334.09,944.797,334.306z M903.542,313.688
			c3.997,6.04,6.292,8.707,10.88,15.076c5.427-1.39,8.12-2.086,13.443-3.482C917.838,320.388,912.814,318.388,903.542,313.688z"/>
		<path d="M944.786,328.188c-0.88-0.715-1.321-1.065-2.204-1.759c1.059-2.541,1.566-3.763,2.544-6.159
			c-5.248-0.695-7.88-1.037-13.128-1.71c-0.873-0.626-1.311-0.938-2.177-1.558c7.401,0.938,11.134,1.414,18.546,2.38
			C947.023,322.763,946.305,324.494,944.786,328.188z"/>
	</g>
</g>
<line fill="none" stroke="#000000" stroke-miterlimit="10" stroke-dasharray="1,2" x1="434.416" y1="205.911" x2="1335.232" y2="205.911"/>
<g>
	<rect x="79.979" y="239.763" fill="none" width="344.979" height="48.684"/>
	<path d="M225.551,271.925c-1.941,1.94-4.319,2.911-7.137,2.911c-3.225,0-5.869-1.299-7.936-3.897v3.568h-1.924v-34.745h1.924
		v18.969c2.035-2.598,4.68-3.896,7.936-3.896c2.817,0,5.18,0.955,7.09,2.863c1.94,1.941,2.911,4.32,2.911,7.138
		C228.415,267.652,227.46,270.016,225.551,271.925z M224.143,259.107c-1.597-1.597-3.506-2.395-5.729-2.395
		c-2.254,0-4.163,0.782-5.729,2.348c-1.596,1.596-2.395,3.521-2.395,5.775c0,2.223,0.799,4.132,2.395,5.728
		c1.597,1.597,3.506,2.395,5.729,2.395c2.254,0,4.162-0.781,5.729-2.348c1.596-1.596,2.395-3.521,2.395-5.774
		C226.537,262.613,225.738,260.704,224.143,259.107z"/>
	<path d="M249.027,271.925c-1.941,1.94-4.32,2.911-7.137,2.911c-2.817,0-5.182-0.955-7.09-2.864c-1.941-1.94-2.911-4.32-2.911-7.137
		c0-2.786,0.97-5.149,2.911-7.09c1.908-1.973,4.272-2.958,7.09-2.958c2.785,0,5.148,0.97,7.09,2.91
		c1.94,1.941,2.911,4.32,2.911,7.138C251.892,267.652,250.936,270.016,249.027,271.925z M247.666,259.06
		c-1.566-1.597-3.491-2.395-5.775-2.395c-2.191,0-4.085,0.814-5.682,2.441c-1.628,1.628-2.441,3.537-2.441,5.729
		c0,2.223,0.799,4.132,2.395,5.728c1.597,1.597,3.506,2.395,5.729,2.395c2.254,0,4.162-0.781,5.729-2.348
		c1.596-1.596,2.395-3.521,2.395-5.774C250.014,262.55,249.23,260.625,247.666,259.06z"/>
	<path d="M259.638,257.041v17.467h-1.925v-17.467h-2.629v-1.925h2.629v-8.498h1.925v8.498h4.508v1.925H259.638z"/>
	<path d="M269.311,260.938c-0.346,0-0.705-0.141-1.08-0.423c-0.281-0.281-0.439-0.657-0.47-1.127c0-0.845,0.517-1.361,1.55-1.549
		c0.781,0,1.299,0.517,1.549,1.549C270.859,260.421,270.344,260.938,269.311,260.938z M269.311,274.789
		c-0.346,0-0.705-0.141-1.08-0.422c-0.281-0.282-0.439-0.657-0.47-1.127c0-0.846,0.517-1.361,1.55-1.55
		c0.781,0,1.299,0.517,1.549,1.55C270.859,274.273,270.344,274.789,269.311,274.789z"/>
	<path d="M276.635,274.507v-33.524h1.878v33.524H276.635z"/>
	<path d="M295.697,274.507V262.91c0-4.1-1.848-6.15-5.541-6.15c-1.816,0-3.193,0.532-4.132,1.597
		c-0.971,1.064-1.456,2.52-1.456,4.366v11.785h-1.924v-19.392h1.924v2.348c0.877-1.721,2.739-2.582,5.588-2.582
		c2.41,0,4.256,0.688,5.541,2.065c1.283,1.378,1.924,3.303,1.924,5.775v11.785H295.697z"/>
	<path d="M306.73,257.041v17.467h-1.926v-17.467h-2.629v-1.925h2.629v-8.498h1.926v8.498h4.508v1.925H306.73z"/>
	<path d="M315.934,264.413c0,2.629,0.703,4.711,2.112,6.244c1.471,1.566,3.489,2.348,6.058,2.348c1.314,0,2.504-0.218,3.568-0.657
		c1.345-0.563,2.551-1.705,3.615-3.427l1.736,0.798c-1.221,2.316-3.099,3.882-5.634,4.695c-0.971,0.313-2.065,0.47-3.286,0.47
		c-2.912,0-5.307-0.955-7.185-2.864c-1.909-1.909-2.864-4.304-2.864-7.184c0-2.911,0.939-5.306,2.817-7.185
		c1.909-1.908,4.319-2.863,7.231-2.863c2.879,0,5.258,0.892,7.137,2.676c1.908,1.784,2.863,4.102,2.863,6.949H315.934z
		 M329.174,258.261c-1.472-1.063-3.162-1.596-5.07-1.596c-4.008,0-6.637,1.972-7.889,5.916h15.729
		C331.631,260.797,330.707,259.358,329.174,258.261z"/>
	<path d="M347.72,257.98c-0.501-0.376-1.033-0.673-1.597-0.893c-0.563-0.218-1.158-0.328-1.784-0.328
		c-0.532,0-1.032,0.164-1.503,0.493c-0.469,0.328-0.876,0.735-1.221,1.221c-0.344,0.485-0.618,1.025-0.821,1.62
		c-0.204,0.595-0.306,1.143-0.306,1.643v12.771h-1.924v-19.392h1.924v2.63c0.406-0.72,0.939-1.378,1.597-1.973
		c0.657-0.594,1.378-0.892,2.16-0.892c0.97,0,1.769,0.109,2.395,0.328c0.626,0.22,1.33,0.61,2.112,1.174L347.72,257.98z"/>
	<path d="M360.49,241.687l-1.268-0.141c-1.754,0-2.629,1.033-2.629,3.099v10.471h4.602v1.925h-4.602v17.467h-1.926v-17.467h-2.629
		v-1.925h2.629v-11.034c0-2.973,1.503-4.46,4.508-4.46c0.688,0,1.127,0.031,1.314,0.094c0.376,0,0.799,0.11,1.268,0.328v1.926
		L360.49,241.687z"/>
	<path d="M379.602,274.507v-3.334c-2.035,2.441-4.618,3.663-7.748,3.663c-2.816,0-5.181-0.955-7.09-2.864
		c-1.941-1.94-2.91-4.32-2.91-7.137c0-2.817,0.953-5.181,2.863-7.09c1.94-1.941,4.32-2.911,7.137-2.911
		c3.1,0,5.682,1.221,7.748,3.662v-3.381h1.924v19.392H379.602z M377.582,259.107c-1.596-1.597-3.506-2.395-5.729-2.395
		c-2.254,0-4.163,0.782-5.729,2.348c-1.596,1.596-2.395,3.521-2.395,5.775c0,2.223,0.799,4.132,2.395,5.728
		c1.598,1.597,3.506,2.395,5.729,2.395c2.254,0,4.163-0.781,5.729-2.348c1.596-1.596,2.395-3.521,2.395-5.774
		C379.977,262.613,379.178,260.704,377.582,259.107z"/>
	<path d="M396.41,274.883c-2.881,0-5.275-0.955-7.184-2.864c-1.91-1.909-2.865-4.304-2.865-7.184s0.955-5.274,2.865-7.185
		c1.908-1.908,4.303-2.863,7.184-2.863c2.473,0,4.444,0.563,5.916,1.689v2.301l-1.221-0.798l-1.314-0.704
		c-1.19-0.406-2.317-0.61-3.381-0.61c-2.411,0-4.367,0.751-5.869,2.254c-1.534,1.533-2.301,3.506-2.301,5.916
		c0,2.379,0.767,4.335,2.301,5.869c1.533,1.533,3.49,2.3,5.869,2.3c2.254,0,4.226-0.751,5.916-2.253v2.395
		C400.572,274.304,398.601,274.883,396.41,274.883z"/>
	<path d="M405.425,264.413c0,2.629,0.704,4.711,2.112,6.244c1.471,1.566,3.49,2.348,6.058,2.348c1.314,0,2.504-0.218,3.568-0.657
		c1.345-0.563,2.551-1.705,3.615-3.427l1.737,0.798c-1.221,2.316-3.1,3.882-5.635,4.695c-0.971,0.313-2.065,0.47-3.286,0.47
		c-2.911,0-5.306-0.955-7.185-2.864c-1.909-1.909-2.863-4.304-2.863-7.184c0-2.911,0.939-5.306,2.816-7.185
		c1.909-1.908,4.32-2.863,7.231-2.863c2.88,0,5.259,0.892,7.137,2.676c1.909,1.784,2.864,4.102,2.864,6.949H405.425z
		 M418.666,258.261c-1.473-1.063-3.162-1.596-5.071-1.596c-4.007,0-6.637,1.972-7.888,5.916h15.729
		C421.123,260.797,420.199,259.358,418.666,258.261z"/>
</g>
<line fill="none" stroke="#000000" stroke-miterlimit="10" stroke-dasharray="1,2" x1="434.416" y1="264.105" x2="1402" y2="264.105"/>
<g>
	<rect x="79.979" y="355.932" fill="none" width="344.979" height="48.684"/>
	<path d="M225.551,388.094c-1.941,1.94-4.319,2.911-7.137,2.911c-3.225,0-5.869-1.299-7.936-3.897v3.568h-1.924v-34.745h1.924V374.9
		c2.035-2.598,4.68-3.896,7.936-3.896c2.817,0,5.18,0.955,7.09,2.863c1.94,1.941,2.911,4.32,2.911,7.138
		C228.415,383.821,227.46,386.185,225.551,388.094z M224.143,375.276c-1.597-1.597-3.506-2.395-5.729-2.395
		c-2.254,0-4.163,0.782-5.729,2.348c-1.596,1.596-2.395,3.521-2.395,5.775c0,2.223,0.799,4.132,2.395,5.728
		c1.597,1.597,3.506,2.395,5.729,2.395c2.254,0,4.162-0.781,5.729-2.348c1.596-1.596,2.395-3.521,2.395-5.774
		C226.537,378.782,225.738,376.873,224.143,375.276z"/>
	<path d="M249.027,388.094c-1.941,1.94-4.32,2.911-7.137,2.911c-2.817,0-5.182-0.955-7.09-2.864c-1.941-1.94-2.911-4.32-2.911-7.137
		c0-2.786,0.97-5.149,2.911-7.09c1.908-1.973,4.272-2.958,7.09-2.958c2.785,0,5.148,0.97,7.09,2.91
		c1.94,1.941,2.911,4.32,2.911,7.138C251.892,383.821,250.936,386.185,249.027,388.094z M247.666,375.229
		c-1.566-1.597-3.491-2.395-5.775-2.395c-2.191,0-4.085,0.814-5.682,2.441c-1.628,1.628-2.441,3.537-2.441,5.729
		c0,2.223,0.799,4.132,2.395,5.728c1.597,1.597,3.506,2.395,5.729,2.395c2.254,0,4.162-0.781,5.729-2.348
		c1.596-1.596,2.395-3.521,2.395-5.774C250.014,378.719,249.23,376.794,247.666,375.229z"/>
	<path d="M259.638,373.209v17.467h-1.925v-17.467h-2.629v-1.925h2.629v-8.498h1.925v8.498h4.508v1.925H259.638z"/>
	<path d="M269.311,377.107c-0.346,0-0.705-0.141-1.08-0.423c-0.281-0.281-0.439-0.657-0.47-1.127c0-0.845,0.517-1.361,1.55-1.549
		c0.781,0,1.299,0.517,1.549,1.549C270.859,376.59,270.344,377.107,269.311,377.107z M269.311,390.958
		c-0.346,0-0.705-0.141-1.08-0.422c-0.281-0.282-0.439-0.657-0.47-1.127c0-0.846,0.517-1.361,1.55-1.55
		c0.781,0,1.299,0.517,1.549,1.55C270.859,390.442,270.344,390.958,269.311,390.958z"/>
	<path d="M276.635,390.676v-33.524h1.878v33.524H276.635z"/>
	<path d="M295.697,390.676v-11.598c0-4.1-1.848-6.15-5.541-6.15c-1.816,0-3.193,0.532-4.132,1.597
		c-0.971,1.064-1.456,2.52-1.456,4.366v11.785h-1.924v-19.392h1.924v2.348c0.877-1.721,2.739-2.582,5.588-2.582
		c2.41,0,4.256,0.688,5.541,2.065c1.283,1.378,1.924,3.303,1.924,5.775v11.785H295.697z"/>
	<path d="M306.73,373.209v17.467h-1.926v-17.467h-2.629v-1.925h2.629v-8.498h1.926v8.498h4.508v1.925H306.73z"/>
	<path d="M315.934,380.582c0,2.629,0.703,4.711,2.112,6.244c1.471,1.566,3.489,2.348,6.058,2.348c1.314,0,2.504-0.218,3.568-0.657
		c1.345-0.563,2.551-1.705,3.615-3.427l1.736,0.798c-1.221,2.316-3.099,3.882-5.634,4.695c-0.971,0.313-2.065,0.47-3.286,0.47
		c-2.912,0-5.307-0.955-7.185-2.864c-1.909-1.909-2.864-4.304-2.864-7.184c0-2.911,0.939-5.306,2.817-7.185
		c1.909-1.908,4.319-2.863,7.231-2.863c2.879,0,5.258,0.892,7.137,2.676c1.908,1.784,2.863,4.102,2.863,6.949H315.934z
		 M329.174,374.43c-1.472-1.063-3.162-1.596-5.07-1.596c-4.008,0-6.637,1.972-7.889,5.916h15.729
		C331.631,376.966,330.707,375.527,329.174,374.43z"/>
	<path d="M347.72,374.149c-0.501-0.376-1.033-0.673-1.597-0.893c-0.563-0.218-1.158-0.328-1.784-0.328
		c-0.532,0-1.032,0.164-1.503,0.493c-0.469,0.328-0.876,0.735-1.221,1.221c-0.344,0.485-0.618,1.025-0.821,1.62
		c-0.204,0.595-0.306,1.143-0.306,1.643v12.771h-1.924v-19.392h1.924v2.63c0.406-0.72,0.939-1.378,1.597-1.973
		c0.657-0.594,1.378-0.892,2.16-0.892c0.97,0,1.769,0.109,2.395,0.328c0.626,0.22,1.33,0.61,2.112,1.174L347.72,374.149z"/>
	<path d="M360.49,357.856l-1.268-0.141c-1.754,0-2.629,1.033-2.629,3.099v10.471h4.602v1.925h-4.602v17.467h-1.926v-17.467h-2.629
		v-1.925h2.629V360.25c0-2.973,1.503-4.46,4.508-4.46c0.688,0,1.127,0.031,1.314,0.094c0.376,0,0.799,0.11,1.268,0.328v1.926
		L360.49,357.856z"/>
	<path d="M379.602,390.676v-3.334c-2.035,2.441-4.618,3.663-7.748,3.663c-2.816,0-5.181-0.955-7.09-2.864
		c-1.941-1.94-2.91-4.32-2.91-7.137c0-2.817,0.953-5.181,2.863-7.09c1.94-1.941,4.32-2.911,7.137-2.911
		c3.1,0,5.682,1.221,7.748,3.662v-3.381h1.924v19.392H379.602z M377.582,375.276c-1.596-1.597-3.506-2.395-5.729-2.395
		c-2.254,0-4.163,0.782-5.729,2.348c-1.596,1.596-2.395,3.521-2.395,5.775c0,2.223,0.799,4.132,2.395,5.728
		c1.598,1.597,3.506,2.395,5.729,2.395c2.254,0,4.163-0.781,5.729-2.348c1.596-1.596,2.395-3.521,2.395-5.774
		C379.977,378.782,379.178,376.873,377.582,375.276z"/>
	<path d="M396.41,391.052c-2.881,0-5.275-0.955-7.184-2.864c-1.91-1.909-2.865-4.304-2.865-7.184s0.955-5.274,2.865-7.185
		c1.908-1.908,4.303-2.863,7.184-2.863c2.473,0,4.444,0.563,5.916,1.689v2.301l-1.221-0.798l-1.314-0.704
		c-1.19-0.406-2.317-0.61-3.381-0.61c-2.411,0-4.367,0.751-5.869,2.254c-1.534,1.533-2.301,3.506-2.301,5.916
		c0,2.379,0.767,4.335,2.301,5.869c1.533,1.533,3.49,2.3,5.869,2.3c2.254,0,4.226-0.751,5.916-2.253v2.395
		C400.572,390.473,398.601,391.052,396.41,391.052z"/>
	<path d="M405.425,380.582c0,2.629,0.704,4.711,2.112,6.244c1.471,1.566,3.49,2.348,6.058,2.348c1.314,0,2.504-0.218,3.568-0.657
		c1.345-0.563,2.551-1.705,3.615-3.427l1.737,0.798c-1.221,2.316-3.1,3.882-5.635,4.695c-0.971,0.313-2.065,0.47-3.286,0.47
		c-2.911,0-5.306-0.955-7.185-2.864c-1.909-1.909-2.863-4.304-2.863-7.184c0-2.911,0.939-5.306,2.816-7.185
		c1.909-1.908,4.32-2.863,7.231-2.863c2.88,0,5.259,0.892,7.137,2.676c1.909,1.784,2.864,4.102,2.864,6.949H405.425z
		 M418.666,374.43c-1.473-1.063-3.162-1.596-5.071-1.596c-4.007,0-6.637,1.972-7.888,5.916h15.729
		C421.123,376.966,420.199,375.527,418.666,374.43z"/>
</g>
<line fill="none" stroke="#000000" stroke-miterlimit="10" stroke-dasharray="1,2" x1="434.416" y1="380.273" x2="996" y2="380.273"/>
<line fill="none" stroke="#000000" stroke-miterlimit="10" stroke-dasharray="1,2" x1="434.416" y1="453.878" x2="974.52" y2="453.878"/>
<g>
	<rect x="79.979" y="429.983" fill="none" width="344.979" height="48.684"/>
	<path d="M286.309,462.146c-1.941,1.94-4.32,2.911-7.137,2.911c-3.225,0-5.869-1.299-7.936-3.897v3.568h-1.925v-34.745h1.925v18.969
		c2.035-2.598,4.68-3.896,7.936-3.896c2.816,0,5.18,0.955,7.09,2.863c1.939,1.941,2.91,4.32,2.91,7.138
		C289.172,457.872,288.217,460.236,286.309,462.146z M284.9,449.327c-1.598-1.597-3.507-2.395-5.729-2.395
		c-2.254,0-4.164,0.782-5.729,2.348c-1.597,1.596-2.395,3.521-2.395,5.775c0,2.223,0.798,4.132,2.395,5.728
		c1.596,1.597,3.506,2.395,5.729,2.395c2.254,0,4.162-0.781,5.729-2.348c1.596-1.596,2.395-3.521,2.395-5.774
		C287.295,452.833,286.496,450.924,284.9,449.327z"/>
	<path d="M309.785,462.146c-1.941,1.94-4.32,2.911-7.137,2.911c-2.818,0-5.182-0.955-7.091-2.864c-1.94-1.94-2.911-4.32-2.911-7.137
		c0-2.786,0.971-5.149,2.911-7.09c1.909-1.973,4.272-2.958,7.091-2.958c2.785,0,5.148,0.97,7.09,2.91
		c1.939,1.941,2.91,4.32,2.91,7.138C312.648,457.872,311.693,460.236,309.785,462.146z M308.423,449.28
		c-1.565-1.597-3.491-2.395-5.774-2.395c-2.191,0-4.086,0.814-5.682,2.441c-1.629,1.628-2.441,3.537-2.441,5.729
		c0,2.223,0.798,4.132,2.395,5.728c1.596,1.597,3.505,2.395,5.729,2.395c2.253,0,4.162-0.781,5.728-2.348
		c1.597-1.596,2.395-3.521,2.395-5.774C310.771,452.771,309.988,450.846,308.423,449.28z"/>
	<path d="M320.395,447.261v17.467h-1.924v-17.467h-2.63v-1.925h2.63v-8.498h1.924v8.498h4.508v1.925H320.395z"/>
	<path d="M330.067,451.158c-0.345,0-0.704-0.141-1.079-0.423c-0.282-0.281-0.439-0.657-0.471-1.127c0-0.845,0.518-1.361,1.55-1.549
		c0.782,0,1.299,0.517,1.55,1.549C331.617,450.642,331.101,451.158,330.067,451.158z M330.067,465.009
		c-0.345,0-0.704-0.141-1.079-0.422c-0.282-0.282-0.439-0.657-0.471-1.127c0-0.846,0.518-1.361,1.55-1.55
		c0.782,0,1.299,0.517,1.55,1.55C331.617,464.493,331.101,465.009,330.067,465.009z"/>
	<path d="M339.035,462.803h19.156v1.925h-22.584l19.203-31.553h-18.076v-1.972h21.551L339.035,462.803z"/>
	<path d="M376.174,462.146c-1.941,1.94-4.319,2.911-7.137,2.911c-2.816,0-5.181-0.955-7.09-2.864c-1.941-1.94-2.91-4.32-2.91-7.137
		c0-2.786,0.969-5.149,2.91-7.09c1.909-1.973,4.273-2.958,7.09-2.958c2.786,0,5.148,0.97,7.09,2.91
		c1.941,1.941,2.912,4.32,2.912,7.138C379.039,457.872,378.083,460.236,376.174,462.146z M374.813,449.28
		c-1.565-1.597-3.49-2.395-5.775-2.395c-2.191,0-4.084,0.814-5.682,2.441c-1.627,1.628-2.441,3.537-2.441,5.729
		c0,2.223,0.799,4.132,2.395,5.728c1.598,1.597,3.506,2.395,5.729,2.395c2.254,0,4.163-0.781,5.729-2.348
		c1.596-1.596,2.395-3.521,2.395-5.774C377.16,452.771,376.377,450.846,374.813,449.28z"/>
	<path d="M396.927,464.728V453.13c0-4.1-1.847-6.15-5.54-6.15c-1.816,0-3.193,0.532-4.133,1.597
		c-0.971,1.064-1.455,2.52-1.455,4.366v11.785h-1.925v-19.392h1.925v2.348c0.876-1.721,2.738-2.582,5.588-2.582
		c2.41,0,4.256,0.688,5.54,2.065c1.283,1.378,1.925,3.303,1.925,5.775v11.785H396.927z"/>
	<path d="M405.425,454.633c0,2.629,0.704,4.711,2.112,6.244c1.471,1.566,3.49,2.348,6.058,2.348c1.314,0,2.504-0.218,3.568-0.657
		c1.345-0.563,2.551-1.705,3.615-3.427l1.737,0.798c-1.221,2.316-3.1,3.882-5.635,4.695c-0.971,0.313-2.065,0.47-3.286,0.47
		c-2.911,0-5.306-0.955-7.185-2.864c-1.909-1.909-2.863-4.304-2.863-7.184c0-2.911,0.939-5.306,2.816-7.185
		c1.909-1.908,4.32-2.863,7.231-2.863c2.88,0,5.259,0.892,7.137,2.676c1.909,1.784,2.864,4.102,2.864,6.949H405.425z
		 M418.666,448.481c-1.473-1.063-3.162-1.596-5.071-1.596c-4.007,0-6.637,1.972-7.888,5.916h15.729
		C421.123,451.018,420.199,449.578,418.666,448.481z"/>
</g>
<g>
	<g>
		<path fill="none" stroke="#000000" stroke-miterlimit="10" d="M1262.527,322.406c48.088-66.19-253.545-164.575-116.354-164.575"/>
		<g>
			<polygon points="1267.079,322.521 1263.221,321.376 1261.369,317.805 1258.633,326.932 			"/>
		</g>
	</g>
</g>
<path fill="none" stroke="#000000" stroke-miterlimit="10" d="M1472.434,266.697c70.468-37.485-3.373-108.866-131.906-108.866"/>
<path fill="none" stroke="#000000" stroke-miterlimit="10" d="M800.146,360.032c-146.611,53.607,146.409,454.564,309.137,454.564"/>
<path fill="none" stroke="#000000" stroke-miterlimit="10" d="M1472.489,323.579c-687.854,222.642-525.934,491.017-363.206,491.017"
	/>
<g>
	
		<rect x="1109.283" y="793.525" fill="#EDEDED" stroke="#000000" stroke-width="0.3" stroke-miterlimit="10" width="254.108" height="42.143"/>
	<g>
		<path d="M1139.019,822.4c-1.24,1.24-2.76,1.861-4.56,1.861c-2.061,0-3.75-0.83-5.07-2.49v2.279h-1.23v-22.199h1.23v12.119
			c1.3-1.66,2.99-2.49,5.07-2.49c1.8,0,3.31,0.611,4.529,1.83c1.24,1.24,1.86,2.76,1.86,4.561S1140.238,821.182,1139.019,822.4z
			 M1138.119,814.211c-1.021-1.02-2.24-1.529-3.66-1.529c-1.44,0-2.66,0.5-3.66,1.5c-1.02,1.02-1.53,2.25-1.53,3.689
			c0,1.42,0.511,2.641,1.53,3.66s2.24,1.529,3.66,1.529c1.439,0,2.66-0.498,3.66-1.5c1.02-1.02,1.529-2.25,1.529-3.689
			C1139.648,816.451,1139.139,815.23,1138.119,814.211z"/>
		<path d="M1154.019,822.4c-1.24,1.24-2.76,1.861-4.56,1.861c-1.801,0-3.311-0.609-4.53-1.83c-1.24-1.24-1.86-2.76-1.86-4.561
			c0-1.779,0.62-3.289,1.86-4.529c1.22-1.26,2.729-1.891,4.53-1.891c1.779,0,3.289,0.621,4.529,1.859
			c1.24,1.24,1.86,2.76,1.86,4.561S1155.238,821.182,1154.019,822.4z M1153.148,814.182c-1-1.02-2.23-1.531-3.689-1.531
			c-1.4,0-2.61,0.521-3.631,1.561c-1.039,1.041-1.56,2.26-1.56,3.66c0,1.42,0.51,2.641,1.53,3.66c1.02,1.02,2.239,1.529,3.66,1.529
			c1.439,0,2.659-0.498,3.66-1.5c1.02-1.02,1.529-2.25,1.529-3.689C1154.648,816.412,1154.148,815.182,1153.148,814.182z"/>
		<path d="M1160.798,812.891v11.16h-1.229v-11.16h-1.68v-1.229h1.68v-5.432h1.229v5.432h2.88v1.229H1160.798z"/>
		<path d="M1166.979,815.381c-0.221,0-0.451-0.09-0.69-0.27c-0.181-0.18-0.28-0.42-0.3-0.721c0-0.539,0.33-0.869,0.99-0.99
			c0.499,0,0.829,0.33,0.989,0.99C1167.968,815.051,1167.639,815.381,1166.979,815.381z M1166.979,824.23
			c-0.221,0-0.451-0.09-0.69-0.27c-0.181-0.18-0.28-0.42-0.3-0.719c0-0.541,0.33-0.871,0.99-0.99c0.499,0,0.829,0.33,0.989,0.99
			C1167.968,823.9,1167.639,824.23,1166.979,824.23z"/>
		<path d="M1177.178,824.291c-1.84,0-3.371-0.609-4.59-1.83c-1.221-1.219-1.83-2.75-1.83-4.59s0.609-3.369,1.83-4.59
			c1.219-1.219,2.75-1.83,4.59-1.83c1.58,0,2.84,0.359,3.779,1.08v1.471l-0.779-0.51l-0.84-0.451c-0.761-0.26-1.48-0.391-2.16-0.391
			c-1.541,0-2.79,0.48-3.75,1.441c-0.98,0.98-1.471,2.24-1.471,3.779c0,1.52,0.49,2.77,1.471,3.75c0.979,0.98,2.23,1.471,3.75,1.471
			c1.439,0,2.699-0.48,3.779-1.441v1.531C1179.838,823.922,1178.577,824.291,1177.178,824.291z"/>
		<path d="M1192.627,822.4c-1.24,1.24-2.76,1.861-4.56,1.861s-3.31-0.609-4.53-1.83c-1.24-1.24-1.859-2.76-1.859-4.561
			c0-1.779,0.619-3.289,1.859-4.529c1.221-1.26,2.73-1.891,4.53-1.891c1.78,0,3.29,0.621,4.53,1.859
			c1.24,1.24,1.859,2.76,1.859,4.561S1193.848,821.182,1192.627,822.4z M1191.758,814.182c-1-1.02-2.23-1.531-3.69-1.531
			c-1.399,0-2.61,0.521-3.63,1.561c-1.04,1.041-1.561,2.26-1.561,3.66c0,1.42,0.51,2.641,1.53,3.66s2.239,1.529,3.66,1.529
			c1.44,0,2.659-0.498,3.66-1.5c1.021-1.02,1.53-2.25,1.53-3.689C1193.258,816.412,1192.758,815.182,1191.758,814.182z"/>
		<path d="M1205.887,824.051v-7.41c0-2.619-1.18-3.93-3.54-3.93c-1.16,0-2.04,0.34-2.64,1.02c-0.62,0.682-0.93,1.611-0.93,2.791
			v7.529h-1.23v-12.389h1.23v1.5c0.559-1.1,1.75-1.65,3.569-1.65c1.54,0,2.72,0.439,3.54,1.32c0.82,0.879,1.23,2.109,1.23,3.689
			v7.529H1205.887z"/>
		<path d="M1212.937,812.891v11.16h-1.229v-11.16h-1.68v-1.229h1.68v-5.432h1.229v5.432h2.88v1.229H1212.937z"/>
		<path d="M1227.576,824.051v-2.129c-1.3,1.559-2.95,2.34-4.949,2.34c-1.801,0-3.311-0.609-4.53-1.83
			c-1.24-1.24-1.86-2.76-1.86-4.561s0.609-3.311,1.83-4.529c1.24-1.24,2.76-1.861,4.561-1.861c1.979,0,3.629,0.781,4.949,2.34
			v-2.158h1.23v12.389H1227.576z M1226.287,814.211c-1.021-1.02-2.24-1.529-3.66-1.529c-1.44,0-2.66,0.5-3.66,1.5
			c-1.021,1.02-1.53,2.25-1.53,3.689c0,1.42,0.51,2.641,1.53,3.66c1.02,1.02,2.239,1.529,3.66,1.529c1.439,0,2.659-0.498,3.66-1.5
			c1.02-1.02,1.529-2.25,1.529-3.689C1227.816,816.451,1227.307,815.23,1226.287,814.211z"/>
		<path d="M1233.307,809.441c-0.221,0-0.45-0.09-0.69-0.27c-0.18-0.18-0.28-0.42-0.3-0.721c0-0.539,0.33-0.869,0.99-0.99
			c0.5,0,0.83,0.33,0.99,0.99C1234.297,809.111,1233.967,809.441,1233.307,809.441z M1232.676,824.051v-12.389h1.23v12.389H1232.676
			z"/>
		<path d="M1244.887,824.051v-7.41c0-2.619-1.181-3.93-3.541-3.93c-1.16,0-2.039,0.34-2.639,1.02
			c-0.621,0.682-0.931,1.611-0.931,2.791v7.529h-1.229v-12.389h1.229v1.5c0.56-1.1,1.75-1.65,3.569-1.65
			c1.541,0,2.721,0.439,3.541,1.32c0.819,0.879,1.229,2.109,1.229,3.689v7.529H1244.887z"/>
		<path d="M1256.166,823.271c-0.8,0.68-1.76,1.02-2.88,1.02c-1.92,0-3.36-0.869-4.319-2.609l1.049-0.631
			c0.34,0.621,0.75,1.102,1.23,1.441c0.5,0.379,1.18,0.568,2.04,0.568c1.88,0,2.819-0.799,2.819-2.398
			c0-0.701-0.329-1.311-0.989-1.83c-0.2-0.121-0.485-0.256-0.854-0.406c-0.371-0.15-0.826-0.324-1.365-0.525
			c-1-0.359-1.721-0.719-2.16-1.08c-0.641-0.52-0.96-1.27-0.96-2.25c0-0.84,0.319-1.559,0.96-2.158
			c0.619-0.621,1.43-0.932,2.43-0.932c1.381,0,2.551,0.48,3.51,1.441l-0.899,0.779c-0.681-0.68-1.55-1.02-2.61-1.02
			c-1.439,0-2.16,0.629-2.16,1.889c0,0.561,0.221,1.021,0.66,1.381c0.36,0.281,0.93,0.551,1.71,0.811
			c0.68,0.24,1.24,0.465,1.681,0.674c0.439,0.211,0.77,0.396,0.99,0.557c0.859,0.658,1.289,1.549,1.289,2.67
			C1257.336,821.742,1256.946,822.611,1256.166,823.271z"/>
		<path d="M1260.156,824.051v-21.42h10.289v1.23h-9.06v7.801h9.06v1.318h-9.06v9.84h9.06v1.23H1260.156z"/>
		<path d="M1272.996,824.051v-22.199h1.199v22.199H1272.996z"/>
		<path d="M1278.666,817.602c0,1.68,0.449,3.01,1.35,3.99c0.939,1,2.23,1.5,3.87,1.5c0.84,0,1.601-0.141,2.28-0.42
			c0.859-0.361,1.629-1.09,2.31-2.191l1.11,0.512c-0.78,1.479-1.98,2.479-3.6,3c-0.621,0.199-1.32,0.299-2.101,0.299
			c-1.86,0-3.39-0.609-4.59-1.83c-1.22-1.219-1.83-2.75-1.83-4.59c0-1.859,0.601-3.391,1.8-4.59c1.22-1.219,2.76-1.83,4.62-1.83
			c1.84,0,3.36,0.57,4.56,1.711c1.221,1.139,1.83,2.619,1.83,4.439H1278.666z M1287.126,813.672c-0.94-0.68-2.021-1.021-3.24-1.021
			c-2.56,0-4.24,1.262-5.04,3.781h10.051C1288.695,815.291,1288.105,814.371,1287.126,813.672z"/>
		<path d="M1307.226,824.051v-8.549c0-0.76-0.251-1.42-0.75-1.98c-0.5-0.561-1.22-0.84-2.16-0.84c-1.94,0-2.91,0.939-2.91,2.82
			v8.549h-1.229v-8.549c0-0.84-0.281-1.51-0.84-2.01c-0.58-0.541-1.271-0.811-2.07-0.811c-0.82,0-1.51,0.26-2.07,0.779
			c-0.561,0.5-0.84,1.18-0.84,2.041v8.549h-1.23v-12.389h1.23v1.229c0.6-0.939,1.57-1.41,2.91-1.41c1.6,0,2.779,0.65,3.54,1.951
			c0.72-1.301,1.89-1.951,3.51-1.951c1.239,0,2.239,0.352,3,1.051c0.76,0.721,1.14,1.711,1.14,2.971v8.549H1307.226z"/>
		<path d="M1312.655,817.602c0,1.68,0.45,3.01,1.35,3.99c0.94,1,2.229,1.5,3.87,1.5c0.84,0,1.6-0.141,2.28-0.42
			c0.859-0.361,1.63-1.09,2.31-2.191l1.11,0.512c-0.78,1.479-1.979,2.479-3.601,3c-0.619,0.199-1.319,0.299-2.1,0.299
			c-1.859,0-3.391-0.609-4.59-1.83c-1.221-1.219-1.83-2.75-1.83-4.59c0-1.859,0.6-3.391,1.8-4.59c1.22-1.219,2.761-1.83,4.62-1.83
			c1.84,0,3.359,0.57,4.561,1.711c1.219,1.139,1.83,2.619,1.83,4.439H1312.655z M1321.115,813.672
			c-0.94-0.68-2.021-1.021-3.24-1.021c-2.561,0-4.24,1.262-5.04,3.781h10.05C1322.686,815.291,1322.095,814.371,1321.115,813.672z"
			/>
		<path d="M1335.455,824.051v-7.41c0-2.619-1.181-3.93-3.541-3.93c-1.16,0-2.039,0.34-2.639,1.02
			c-0.621,0.682-0.931,1.611-0.931,2.791v7.529h-1.229v-12.389h1.229v1.5c0.56-1.1,1.75-1.65,3.569-1.65
			c1.541,0,2.721,0.439,3.541,1.32c0.819,0.879,1.229,2.109,1.229,3.689v7.529H1335.455z"/>
		<path d="M1342.504,812.891v11.16h-1.229v-11.16h-1.68v-1.229h1.68v-5.432h1.229v5.432h2.881v1.229H1342.504z"/>
	</g>
</g>
<g>
	
		<rect x="1146.174" y="136.76" fill="#EDEDED" stroke="#000000" stroke-width="0.3" stroke-miterlimit="10" width="194.354" height="42.143"/>
	<g>
		<path d="M1169.552,165.635c-1.24,1.24-2.76,1.86-4.56,1.86c-2.061,0-3.75-0.83-5.07-2.49v2.28h-1.23v-22.2h1.23v12.12
			c1.3-1.66,2.99-2.49,5.07-2.49c1.8,0,3.31,0.61,4.529,1.83c1.24,1.24,1.86,2.76,1.86,4.561
			C1171.382,162.906,1170.771,164.416,1169.552,165.635z M1168.652,157.446c-1.021-1.021-2.24-1.53-3.66-1.53
			c-1.44,0-2.66,0.5-3.66,1.5c-1.02,1.021-1.53,2.25-1.53,3.69c0,1.42,0.511,2.64,1.53,3.66c1.02,1.02,2.24,1.529,3.66,1.529
			c1.439,0,2.66-0.499,3.66-1.5c1.02-1.02,1.529-2.25,1.529-3.689C1170.182,159.686,1169.672,158.465,1168.652,157.446z"/>
		<path d="M1184.552,165.635c-1.24,1.24-2.76,1.86-4.56,1.86c-1.801,0-3.311-0.609-4.53-1.83c-1.24-1.239-1.86-2.76-1.86-4.56
			c0-1.78,0.62-3.29,1.86-4.53c1.22-1.26,2.729-1.89,4.53-1.89c1.779,0,3.289,0.62,4.529,1.859c1.24,1.24,1.86,2.76,1.86,4.561
			C1186.382,162.906,1185.771,164.416,1184.552,165.635z M1183.682,157.416c-1-1.02-2.23-1.53-3.689-1.53
			c-1.4,0-2.61,0.521-3.631,1.561c-1.039,1.04-1.56,2.26-1.56,3.66c0,1.42,0.51,2.64,1.53,3.66c1.02,1.02,2.239,1.529,3.66,1.529
			c1.439,0,2.659-0.499,3.66-1.5c1.02-1.02,1.529-2.25,1.529-3.689C1185.182,159.646,1184.682,158.416,1183.682,157.416z"/>
		<path d="M1191.331,156.125v11.16h-1.229v-11.16h-1.68v-1.229h1.68v-5.431h1.229v5.431h2.88v1.229H1191.331z"/>
		<path d="M1197.512,158.616c-0.221,0-0.451-0.09-0.69-0.271c-0.181-0.18-0.28-0.42-0.3-0.72c0-0.54,0.33-0.87,0.99-0.99
			c0.499,0,0.829,0.33,0.989,0.99C1198.501,158.286,1198.172,158.616,1197.512,158.616z M1197.512,167.465
			c-0.221,0-0.451-0.09-0.69-0.27c-0.181-0.18-0.28-0.42-0.3-0.72c0-0.54,0.33-0.87,0.99-0.99c0.499,0,0.829,0.33,0.989,0.99
			C1198.501,167.135,1198.172,167.465,1197.512,167.465z"/>
		<path d="M1202.701,152.675c-0.221,0-0.45-0.09-0.69-0.27c-0.18-0.18-0.28-0.42-0.3-0.72c0-0.54,0.33-0.87,0.99-0.99
			c0.5,0,0.83,0.33,0.99,0.99C1203.691,152.345,1203.361,152.675,1202.701,152.675z M1202.07,167.286v-12.39h1.23v12.39H1202.07z"/>
		<path d="M1214.281,167.286v-7.41c0-2.62-1.181-3.93-3.541-3.93c-1.16,0-2.039,0.34-2.639,1.02c-0.621,0.681-0.931,1.61-0.931,2.79
			v7.53h-1.229v-12.39h1.229v1.5c0.56-1.1,1.75-1.65,3.569-1.65c1.541,0,2.721,0.44,3.541,1.32c0.819,0.88,1.229,2.11,1.229,3.689
			v7.53H1214.281z"/>
		<path d="M1221.33,156.125v11.16h-1.229v-11.16h-1.68v-1.229h1.68v-5.431h1.229v5.431h2.881v1.229H1221.33z"/>
		<path d="M1227.211,160.835c0,1.681,0.449,3.011,1.35,3.99c0.939,1,2.23,1.5,3.87,1.5c0.84,0,1.601-0.14,2.28-0.42
			c0.859-0.36,1.629-1.09,2.31-2.19l1.11,0.511c-0.78,1.479-1.98,2.479-3.6,3c-0.621,0.199-1.32,0.3-2.101,0.3
			c-1.86,0-3.39-0.61-4.59-1.83c-1.22-1.22-1.83-2.75-1.83-4.59c0-1.86,0.601-3.391,1.8-4.59c1.22-1.22,2.76-1.83,4.62-1.83
			c1.84,0,3.36,0.569,4.56,1.71c1.221,1.14,1.83,2.62,1.83,4.439H1227.211z M1235.671,156.906c-0.94-0.68-2.021-1.021-3.24-1.021
			c-2.56,0-4.24,1.261-5.04,3.78h10.051C1237.24,158.526,1236.65,157.606,1235.671,156.906z"/>
		<path d="M1247.521,156.726c-0.32-0.24-0.66-0.431-1.021-0.57c-0.359-0.14-0.74-0.21-1.14-0.21c-0.341,0-0.66,0.104-0.96,0.314
			s-0.561,0.471-0.779,0.78c-0.221,0.311-0.396,0.655-0.525,1.035c-0.131,0.38-0.195,0.73-0.195,1.05v8.16h-1.23v-12.39h1.23v1.68
			c0.26-0.46,0.6-0.88,1.02-1.26s0.881-0.57,1.381-0.57c0.619,0,1.129,0.07,1.529,0.21c0.4,0.141,0.85,0.39,1.351,0.75
			L1247.521,156.726z"/>
		<path d="M1255.68,146.316l-0.81-0.09c-1.12,0-1.68,0.659-1.68,1.979v6.69h2.94v1.229h-2.94v11.16h-1.229v-11.16h-1.681v-1.229
			h1.681v-7.051c0-1.899,0.959-2.85,2.879-2.85c0.439,0,0.721,0.021,0.84,0.06c0.24,0,0.511,0.07,0.811,0.211v1.229L1255.68,146.316
			z"/>
		<path d="M1267.891,167.286v-2.13c-1.301,1.56-2.951,2.34-4.95,2.34c-1.8,0-3.31-0.609-4.53-1.83
			c-1.24-1.239-1.859-2.76-1.859-4.56c0-1.801,0.609-3.311,1.83-4.53c1.239-1.24,2.76-1.86,4.56-1.86c1.979,0,3.63,0.78,4.95,2.34
			v-2.159h1.23v12.39H1267.891z M1266.601,157.446c-1.021-1.021-2.24-1.53-3.66-1.53c-1.44,0-2.66,0.5-3.66,1.5
			c-1.021,1.021-1.53,2.25-1.53,3.69c0,1.42,0.51,2.64,1.53,3.66c1.021,1.02,2.239,1.529,3.66,1.529c1.44,0,2.659-0.499,3.66-1.5
			c1.021-1.02,1.53-2.25,1.53-3.689C1268.131,159.686,1267.621,158.465,1266.601,157.446z"/>
		<path d="M1278.631,167.526c-1.841,0-3.371-0.61-4.59-1.83c-1.221-1.22-1.83-2.75-1.83-4.59s0.609-3.37,1.83-4.59
			c1.219-1.22,2.749-1.83,4.59-1.83c1.579,0,2.84,0.359,3.779,1.08v1.47l-0.779-0.51l-0.84-0.45c-0.762-0.26-1.48-0.391-2.16-0.391
			c-1.541,0-2.791,0.48-3.75,1.44c-0.98,0.98-1.471,2.24-1.471,3.78c0,1.52,0.49,2.77,1.471,3.75c0.979,0.979,2.229,1.47,3.75,1.47
			c1.439,0,2.699-0.48,3.779-1.44v1.53C1281.29,167.156,1280.029,167.526,1278.631,167.526z"/>
		<path d="M1284.391,160.835c0,1.681,0.449,3.011,1.35,3.99c0.939,1,2.229,1.5,3.869,1.5c0.84,0,1.601-0.14,2.281-0.42
			c0.859-0.36,1.629-1.09,2.309-2.19l1.111,0.511c-0.781,1.479-1.98,2.479-3.601,3c-0.62,0.199-1.319,0.3-2.101,0.3
			c-1.859,0-3.39-0.61-4.59-1.83c-1.22-1.22-1.83-2.75-1.83-4.59c0-1.86,0.601-3.391,1.801-4.59c1.219-1.22,2.76-1.83,4.619-1.83
			c1.84,0,3.36,0.569,4.561,1.71c1.22,1.14,1.83,2.62,1.83,4.439H1284.391z M1292.85,156.906c-0.939-0.68-2.02-1.021-3.24-1.021
			c-2.56,0-4.24,1.261-5.039,3.78h10.05C1294.42,158.526,1293.83,157.606,1292.85,156.906z"/>
		<path d="M1317.33,164.496c-2.061,2.061-4.711,3.09-7.951,3.09c-3.239,0-5.879-1.02-7.92-3.06c-2.06-2.06-3.09-4.71-3.09-7.95
			s1.021-5.88,3.061-7.92c2.06-2.06,4.71-3.09,7.949-3.09c3.221,0,5.871,1.02,7.951,3.06c2.059,2.061,3.09,4.71,3.09,7.95
			S1319.389,162.456,1317.33,164.496z M1316.459,149.526c-1.84-1.84-4.199-2.76-7.08-2.76c-2.84,0-5.18,0.92-7.02,2.76
			s-2.76,4.189-2.76,7.05s0.91,5.2,2.73,7.02c1.84,1.841,4.189,2.761,7.049,2.761c2.881,0,5.24-0.9,7.08-2.7
			c1.82-1.819,2.73-4.18,2.73-7.08C1319.189,153.696,1318.279,151.346,1316.459,149.526z"/>
		<path d="M1328.219,146.316l-0.81-0.09c-1.12,0-1.68,0.659-1.68,1.979v6.69h2.94v1.229h-2.94v11.16h-1.229v-11.16h-1.681v-1.229
			h1.681v-7.051c0-1.899,0.959-2.85,2.879-2.85c0.439,0,0.721,0.021,0.84,0.06c0.24,0,0.511,0.07,0.811,0.211v1.229
			L1328.219,146.316z"/>
	</g>
</g>
<g>
	<g>
		<path fill="none" stroke="#000000" stroke-miterlimit="10" d="M938.83,299.694c2.146-59.858-292.981-98.713-101.321-98.713"/>
		<g>
			<polygon points="942.795,297.517 938.881,298.446 935.494,296.272 937.67,305.548 			"/>
		</g>
	</g>
</g>
<path fill="none" stroke="#000000" stroke-miterlimit="10" d="M1046.336,401.33c111.998-32.742,114.059-200.348-14.474-200.348"/>
<g>
	
		<rect x="837.509" y="179.91" fill="#EDEDED" stroke="#000000" stroke-width="0.3" stroke-miterlimit="10" width="194.354" height="42.143"/>
	<g>
		<path d="M860.886,208.786c-1.24,1.24-2.76,1.86-4.56,1.86c-2.061,0-3.75-0.83-5.07-2.49v2.28h-1.23v-22.2h1.23v12.12
			c1.3-1.66,2.99-2.49,5.07-2.49c1.8,0,3.31,0.61,4.529,1.83c1.24,1.24,1.86,2.76,1.86,4.561
			C862.716,206.056,862.105,207.566,860.886,208.786z M859.986,200.596c-1.021-1.021-2.24-1.53-3.66-1.53c-1.44,0-2.66,0.5-3.66,1.5
			c-1.02,1.021-1.53,2.25-1.53,3.69c0,1.42,0.511,2.64,1.53,3.66c1.02,1.02,2.24,1.529,3.66,1.529c1.439,0,2.66-0.499,3.66-1.5
			c1.02-1.02,1.529-2.25,1.529-3.689C861.516,202.836,861.006,201.616,859.986,200.596z"/>
		<path d="M875.886,208.786c-1.24,1.24-2.76,1.86-4.56,1.86c-1.801,0-3.311-0.609-4.53-1.83c-1.24-1.239-1.86-2.76-1.86-4.56
			c0-1.78,0.62-3.29,1.86-4.53c1.22-1.26,2.729-1.89,4.53-1.89c1.779,0,3.289,0.62,4.529,1.859c1.24,1.24,1.86,2.76,1.86,4.561
			C877.716,206.056,877.105,207.566,875.886,208.786z M875.016,200.566c-1-1.02-2.23-1.53-3.689-1.53c-1.4,0-2.61,0.521-3.631,1.561
			c-1.039,1.04-1.56,2.26-1.56,3.66c0,1.42,0.51,2.64,1.53,3.66c1.02,1.02,2.239,1.529,3.66,1.529c1.439,0,2.659-0.499,3.66-1.5
			c1.02-1.02,1.529-2.25,1.529-3.689C876.516,202.796,876.016,201.566,875.016,200.566z"/>
		<path d="M882.665,199.276v11.16h-1.229v-11.16h-1.68v-1.229h1.68v-5.431h1.229v5.431h2.88v1.229H882.665z"/>
		<path d="M888.846,201.766c-0.221,0-0.451-0.09-0.69-0.271c-0.181-0.18-0.28-0.42-0.3-0.72c0-0.54,0.33-0.87,0.99-0.99
			c0.499,0,0.829,0.33,0.989,0.99C889.835,201.436,889.506,201.766,888.846,201.766z M888.846,210.616
			c-0.221,0-0.451-0.09-0.69-0.27c-0.181-0.18-0.28-0.42-0.3-0.72c0-0.54,0.33-0.87,0.99-0.99c0.499,0,0.829,0.33,0.989,0.99
			C889.835,210.286,889.506,210.616,888.846,210.616z"/>
		<path d="M894.035,195.826c-0.221,0-0.45-0.09-0.69-0.27c-0.18-0.18-0.28-0.42-0.3-0.72c0-0.54,0.33-0.87,0.99-0.99
			c0.5,0,0.83,0.33,0.99,0.99C895.025,195.496,894.695,195.826,894.035,195.826z M893.404,210.436v-12.39h1.23v12.39H893.404z"/>
		<path d="M905.615,210.436v-7.41c0-2.62-1.181-3.93-3.541-3.93c-1.16,0-2.039,0.34-2.639,1.02c-0.621,0.681-0.931,1.61-0.931,2.79
			v7.53h-1.229v-12.39h1.229v1.5c0.56-1.1,1.75-1.65,3.569-1.65c1.541,0,2.721,0.44,3.541,1.32c0.819,0.88,1.229,2.11,1.229,3.689
			v7.53H905.615z"/>
		<path d="M912.664,199.276v11.16h-1.229v-11.16h-1.68v-1.229h1.68v-5.431h1.229v5.431h2.881v1.229H912.664z"/>
		<path d="M918.545,203.986c0,1.681,0.449,3.011,1.35,3.99c0.939,1,2.23,1.5,3.87,1.5c0.84,0,1.601-0.14,2.28-0.42
			c0.859-0.36,1.629-1.09,2.31-2.19l1.11,0.511c-0.78,1.479-1.98,2.479-3.6,3c-0.621,0.199-1.32,0.3-2.101,0.3
			c-1.86,0-3.39-0.61-4.59-1.83c-1.22-1.22-1.83-2.75-1.83-4.59c0-1.86,0.601-3.391,1.8-4.59c1.22-1.22,2.76-1.83,4.62-1.83
			c1.84,0,3.36,0.569,4.56,1.71c1.221,1.14,1.83,2.62,1.83,4.439H918.545z M927.005,200.056c-0.94-0.68-2.021-1.021-3.24-1.021
			c-2.56,0-4.24,1.261-5.04,3.78h10.051C928.574,201.676,927.984,200.756,927.005,200.056z"/>
		<path d="M938.854,199.876c-0.32-0.24-0.66-0.431-1.021-0.57c-0.359-0.14-0.74-0.21-1.14-0.21c-0.341,0-0.66,0.104-0.96,0.314
			s-0.561,0.471-0.779,0.78c-0.221,0.311-0.396,0.655-0.525,1.035c-0.131,0.38-0.195,0.73-0.195,1.05v8.16h-1.23v-12.39h1.23v1.68
			c0.26-0.46,0.6-0.88,1.02-1.26s0.881-0.57,1.381-0.57c0.619,0,1.129,0.07,1.529,0.21c0.4,0.141,0.85,0.39,1.351,0.75
			L938.854,199.876z"/>
		<path d="M947.014,189.466l-0.81-0.09c-1.12,0-1.68,0.659-1.68,1.979v6.69h2.94v1.229h-2.94v11.16h-1.229v-11.16h-1.681v-1.229
			h1.681v-7.051c0-1.899,0.959-2.85,2.879-2.85c0.439,0,0.721,0.021,0.84,0.06c0.24,0,0.511,0.07,0.811,0.211v1.229L947.014,189.466
			z"/>
		<path d="M959.225,210.436v-2.13c-1.301,1.56-2.951,2.34-4.95,2.34c-1.8,0-3.31-0.609-4.53-1.83c-1.24-1.239-1.859-2.76-1.859-4.56
			c0-1.801,0.609-3.311,1.83-4.53c1.239-1.24,2.76-1.86,4.56-1.86c1.979,0,3.63,0.78,4.95,2.34v-2.159h1.23v12.39H959.225z
			 M957.935,200.596c-1.021-1.021-2.24-1.53-3.66-1.53c-1.44,0-2.66,0.5-3.66,1.5c-1.021,1.021-1.53,2.25-1.53,3.69
			c0,1.42,0.51,2.64,1.53,3.66c1.021,1.02,2.239,1.529,3.66,1.529c1.44,0,2.659-0.499,3.66-1.5c1.021-1.02,1.53-2.25,1.53-3.689
			C959.465,202.836,958.955,201.616,957.935,200.596z"/>
		<path d="M969.965,210.676c-1.841,0-3.371-0.61-4.59-1.83c-1.221-1.22-1.83-2.75-1.83-4.59s0.609-3.37,1.83-4.59
			c1.219-1.22,2.749-1.83,4.59-1.83c1.579,0,2.84,0.359,3.779,1.08v1.47l-0.779-0.51l-0.84-0.45c-0.762-0.26-1.48-0.391-2.16-0.391
			c-1.541,0-2.791,0.48-3.75,1.44c-0.98,0.98-1.471,2.24-1.471,3.78c0,1.52,0.49,2.77,1.471,3.75c0.979,0.979,2.229,1.47,3.75,1.47
			c1.439,0,2.699-0.48,3.779-1.44v1.53C972.624,210.306,971.363,210.676,969.965,210.676z"/>
		<path d="M975.725,203.986c0,1.681,0.449,3.011,1.35,3.99c0.939,1,2.229,1.5,3.869,1.5c0.84,0,1.601-0.14,2.281-0.42
			c0.859-0.36,1.629-1.09,2.309-2.19l1.111,0.511c-0.781,1.479-1.98,2.479-3.601,3c-0.62,0.199-1.319,0.3-2.101,0.3
			c-1.859,0-3.39-0.61-4.59-1.83c-1.22-1.22-1.83-2.75-1.83-4.59c0-1.86,0.601-3.391,1.801-4.59c1.219-1.22,2.76-1.83,4.619-1.83
			c1.84,0,3.36,0.569,4.561,1.71c1.22,1.14,1.83,2.62,1.83,4.439H975.725z M984.184,200.056c-0.939-0.68-2.02-1.021-3.24-1.021
			c-2.56,0-4.24,1.261-5.039,3.78h10.05C985.754,201.676,985.164,200.756,984.184,200.056z"/>
		<path d="M1008.664,207.646c-2.061,2.061-4.711,3.09-7.951,3.09c-3.239,0-5.879-1.02-7.92-3.06c-2.06-2.06-3.09-4.71-3.09-7.95
			s1.021-5.88,3.061-7.92c2.06-2.06,4.71-3.09,7.949-3.09c3.221,0,5.871,1.02,7.951,3.06c2.059,2.061,3.09,4.71,3.09,7.95
			S1010.723,205.606,1008.664,207.646z M1007.793,192.676c-1.84-1.84-4.199-2.76-7.08-2.76c-2.84,0-5.18,0.92-7.02,2.76
			s-2.76,4.189-2.76,7.05s0.91,5.2,2.73,7.02c1.84,1.841,4.189,2.761,7.049,2.761c2.881,0,5.24-0.9,7.08-2.7
			c1.82-1.819,2.73-4.18,2.73-7.08C1010.523,196.846,1009.613,194.497,1007.793,192.676z"/>
		<path d="M1019.553,189.466l-0.81-0.09c-1.12,0-1.68,0.659-1.68,1.979v6.69h2.94v1.229h-2.94v11.16h-1.229v-11.16h-1.681v-1.229
			h1.681v-7.051c0-1.899,0.959-2.85,2.879-2.85c0.439,0,0.721,0.021,0.84,0.06c0.24,0,0.511,0.07,0.811,0.211v1.229
			L1019.553,189.466z"/>
	</g>
</g>
<path fill="none" stroke="#000000" stroke-miterlimit="10" d="M1329.936,275.096c3.21-0.583,6.956,1.413,9.08,5.112
	c2.555,4.453,1.798,9.687-1.695,11.691c-0.205,0.118-0.414,0.222-0.629,0.313"/>
<g>
	<g>
		<path d="M1478.668,313.527c-0.938-3.475-1.461-5.124-2.236-8.384c1.58,0.606,2.373,0.911,3.966,1.526
			c0.588,2.331,0.929,3.514,1.556,5.964c7.02,0.709,10.448,1.083,17.015,1.894c1.444,0.708,2.151,1.068,3.523,1.805
			C1493.496,315.093,1488.656,314.546,1478.668,313.527z"/>
		<path d="M1514.477,317.144c4.9-1.484,7.346-2.225,12.23-3.712c1.085,0.688,1.607,1.039,2.609,1.756
			c-6.309,1.954-9.465,2.927-15.787,4.875c-4.336-8.342-9.007-11.55-16.59-17.965c-4.943,1.326-7.43,1.991-12.454,3.322
			c-1.368-0.53-2.054-0.794-3.413-1.318c6.566-1.719,9.803-2.576,16.226-4.285C1504.726,306.106,1509.43,309.205,1514.477,317.144z"
			/>
		<path d="M1543.152,307.574c1,2.17,0.029,3.74-2.508,4.53c-2.536,0.79-5.809,0.553-10.269-0.591
			c-4.533-1.163-9.144-2.894-13.959-5.073c-4.763-2.155-8.167-4.151-9.851-5.982c-1.73-1.883-1.309-3.151,1.328-3.857
			c2.607-0.699,6.539-0.629,11.781,0.227c5.243,0.857,10.354,2.268,15.049,4.368
			C1539.418,303.295,1542.168,305.439,1543.152,307.574z M1520.877,298.114c-4.266-0.717-7.496-0.788-9.628-0.211
			c-2.044,0.554-2.331,1.595-0.919,3.167c1.404,1.564,4.076,3.188,7.813,4.877c3.789,1.714,7.565,3.065,11.398,3.984
			c3.836,0.919,6.611,1.108,8.615,0.495c2.032-0.623,2.721-1.848,1.82-3.567c-0.916-1.752-3.203-3.484-6.965-5.17
			C1529.196,299.979,1525.086,298.821,1520.877,298.114z"/>
		<path d="M1565.385,303.976c-6.003-3.889-9.781-5.585-17.591-8.84c-6.901-2.877-12.31-3.73-15.703-2.801
			c-1.669,0.457-1.978,1.159-0.99,2.127c0.976,0.958,3.089,2.105,6.23,3.428c8.021,3.376,11.925,5.139,18.003,9.219
			c-0.695,0.216-1.043,0.324-1.738,0.541c-9.862-6.241-20.523-10.28-31.325-14.54c0.712-0.192,1.069-0.29,1.78-0.482
			c1.656,0.633,2.487,0.952,4.142,1.593c-2.225-1.396-2.027-2.435,0.596-3.146c2.219-0.601,5.128-0.605,8.718-0.008
			c3.591,0.597,7.56,1.715,11.726,3.44c7.942,3.288,11.792,4.998,17.897,8.927C1566.432,303.65,1566.082,303.758,1565.385,303.976z"
			/>
		<path d="M1558.023,293.975c4.322,1.841,8.143,3.21,11.65,3.98c3.609,0.793,6.484,0.844,8.817,0.125
			c1.194-0.368,1.989-0.873,2.335-1.501c0.438-0.793-0.075-1.997-1.719-3.512c1.116,0.039,1.674,0.06,2.782,0.099
			c2.347,1.994,2.722,3.729,1.485,5.088c-0.473,0.52-1.269,0.959-2.38,1.307c-2.65,0.829-6.006,0.714-10.39-0.246
			c-4.408-0.965-8.883-2.515-13.594-4.551c-4.762-2.058-8.082-3.898-9.637-5.608c-1.578-1.736-1.055-2.946,1.608-3.668
			c2.634-0.715,6.386-0.73,11.196-0.07c4.838,0.664,9.729,1.886,14.379,3.791C1567.932,291.117,1564.629,292.07,1558.023,293.975z
			 M1559.676,286.449c-3.184-0.31-5.663-0.232-7.408,0.246c-3.663,1.004-2.523,2.907,2.967,5.937
			c5.728-1.63,8.59-2.446,14.328-4.078C1566.298,287.457,1562.973,286.77,1559.676,286.449z"/>
		<path d="M1606.853,287.978c0.716,1.794-0.382,3.188-3.093,4.032c-3.861,1.203-5.781,1.803-9.62,3
			c-17.362-9.51-36.831-14.929-55.269-21.923c2.898-0.748,4.349-1.12,7.25-1.864c2.307-0.591,5.27-0.626,8.971-0.137
			c3.949,0.522,8.223,1.559,12.771,3.098c5.214,1.765,7.839,4.541,8.122,4.765c0.718,0.566,6.604-0.139,10.778,0.497
			c4.147,0.631,8.262,1.674,12.161,3.17C1603.586,284.404,1606.15,286.217,1606.853,287.978z M1556.634,272.393
			c-3.116-0.391-5.481-0.398-7.136,0.027c-2.307,0.593-3.461,0.89-5.764,1.485c8.199,3.139,12.652,4.597,21.201,7.621
			c2.461-0.666,3.691-0.998,6.158-1.664c1.666-0.45,2.063-1.166,1.17-2.135s-2.951-1.99-6.163-3.084
			C1562.779,273.511,1559.609,272.767,1556.634,272.393z M1585.323,280.294c-3.825-0.418-6.884-0.343-9.1,0.261
			c-3.177,0.866-4.761,1.299-7.928,2.166c10.806,3.874,16.228,5.801,24.933,10.329c3.162-0.971,4.75-1.456,7.928-2.431
			c2.187-0.67,3.035-1.761,2.452-3.179c-0.581-1.414-2.663-2.88-6.414-4.329C1593.396,281.646,1589.369,280.737,1585.323,280.294z"
			/>
		<path d="M1609.625,284.447c-1.278-0.542-1.93-0.81-3.251-1.339c-0.097-2.171-0.206-3.219-0.483-5.271
			c-6.477-0.32-9.765-0.486-16.372-0.843c-1.468-0.496-2.208-0.745-3.693-1.238c9.42,0.513,14.118,0.746,23.308,1.177
			C1609.506,279.821,1609.644,281.306,1609.625,284.447z"/>
	</g>
</g>
<g>
	<g>
		<path d="M1139.056,372.373c3.643-7.118,6.007-10.888,11.522-16.216c0.065,1.053,0.108,1.659,0.203,2.97
			c-4.541,5.146-6.54,8.292-9.823,14.255c0.005,0.047,0.006,0.071,0.011,0.118c4.308,3.532,6.679,5.432,11.602,8.115
			c0.113,1.466,0.162,2.163,0.252,3.425c-5.732-2.605-8.488-4.984-13.395-9.405C1139.278,374.325,1139.203,373.666,1139.056,372.373
			z"/>
		<path d="M1155.696,365.189c-0.264-3.624-0.51-6.247-0.704-8.288c1.025-0.298,1.545-0.448,2.597-0.751
			c0.14,1.468,0.22,2.298,0.39,4.058c0.025-0.007,0.037-0.012,0.063-0.02c0.984-3.502,2.835-5.474,5.602-6.258
			c4.095-1.162,7.538,2.374,8.014,11.103c0.563,10.334-3.055,15.356-6.895,16.611c-2.154,0.704-4.026,0.128-5.124-2.089
			c-0.026,0.008-0.04,0.013-0.066,0.021c0.357,5.523,0.503,7.975,0.407,9.115c-1.105,0.37-1.651,0.551-2.72,0.908
			C1157.441,387.326,1156.589,377.447,1155.696,365.189z M1159.063,372.06c0.054,0.775,0.154,1.49,0.275,2.097
			c0.664,3.351,2.618,5.024,4.736,4.343c3.129-1.006,4.832-5.657,4.449-12.277c-0.334-5.785-2.424-9.653-5.643-8.722
			c-2.077,0.601-3.805,3.343-4.116,7.366c-0.052,0.673-0.102,1.479-0.052,2.196C1158.852,369.052,1158.924,370.071,1159.063,372.06z
			"/>
		<path d="M1178.67,345.619c0.02,0.623-0.773,1.659-2.09,2.019c-1.163,0.318-2.008-0.252-2.01-0.909
			c-0.002-0.68,0.879-1.128,2.082-1.451C1177.893,344.944,1178.648,344.965,1178.67,345.619z M1176.376,377.362
			c-0.357-8.625-0.918-17.724-1.262-26.181c1.312-0.367,1.974-0.552,3.302-0.923c0.322,8.412,0.848,17.475,1.184,26.054
			C1178.301,376.736,1177.656,376.945,1176.376,377.362z"/>
		<path d="M1184.307,356.725c-0.148-3.494-0.328-6.019-0.477-7.978c1.214-0.338,1.822-0.508,3.045-0.849
			c0.109,1.404,0.168,2.202,0.295,3.89c0.029-0.008,0.047-0.014,0.076-0.022c1.271-3.425,3.443-5.396,6.528-6.253
			c4.565-1.269,8.123,1.992,8.383,10.33c0.308,9.872-3.673,14.795-8.042,16.22c-2.451,0.799-4.615,0.377-5.809-1.688
			c-0.031,0.01-0.047,0.015-0.078,0.025c0.201,5.305,0.281,7.657,0.215,8.695c-1.318,0.446-1.977,0.667-3.283,1.109
			C1185.309,378.105,1184.811,368.544,1184.307,356.725z M1187.943,363.175c0.03,0.746,0.12,1.431,0.234,2.007
			c0.631,3.177,2.846,4.682,5.26,3.909c3.566-1.141,5.53-5.661,5.318-11.992c-0.186-5.533-2.316-9.164-5.934-8.137
			c-2.335,0.663-4.408,3.388-4.928,7.282c-0.087,0.652-0.179,1.434-0.15,2.123C1187.822,360.28,1187.865,361.261,1187.943,363.175z"
			/>
		<path d="M1208.388,355.266c0.259,6.666,3.228,8.007,6.55,6.944c2.379-0.761,3.779-1.734,4.994-2.817
			c0.245,1.173,0.368,1.733,0.609,2.759c-1.137,0.981-3.09,2.27-5.991,3.214c-5.619,1.829-9.173-1.316-9.413-9.565
			s3.002-14.288,8.424-15.821c6.073-1.717,7.717,4.153,7.799,9.051c0.017,0.99-0.047,1.788-0.074,2.294
			C1216.229,352.876,1213.623,353.671,1208.388,355.266z M1218.15,348.783c-0.023-3.083-0.998-7.096-4.798-6.004
			c-3.419,0.982-4.839,5.473-5.019,8.944C1212.301,350.54,1214.274,349.949,1218.15,348.783z"/>
		<path d="M1229.47,349.57c-0.956,4.938-1.428,7.512-2.385,11.314c-1.289,0.418-1.94,0.629-3.252,1.054
			c2.267-10.542,3.63-21.689,7.905-31.67c1.5-0.436,2.241-0.652,3.705-1.085c3.32,1.363,4.795,16.505,7.613,26.525
			c-1.16,0.375-1.754,0.567-2.955,0.956c-0.928-3.144-1.393-5.383-2.355-9.677C1234.543,347.993,1232.877,348.512,1229.47,349.57z
			 M1237.14,343.486c-0.895-3.911-1.354-5.91-2.292-8.821c-0.536-1.652-0.898-2.868-1.267-3.676
			c-0.028,0.008-0.042,0.013-0.071,0.021c-0.34,1.039-0.715,2.539-1.16,4.354c-0.91,3.477-1.364,5.773-2.27,10.296
			C1232.975,344.774,1234.392,344.337,1237.14,343.486z"/>
		<path d="M1258.653,338.837c-4.638,6.716-7.247,10.312-12.857,15.985c0.011-1.121,0.015-1.741,0.029-3.048
			c4.802-5.252,7.065-8.24,11.177-13.84c0.002-0.042,0.002-0.063,0.004-0.105c-3.791-2.946-6.034-4.376-10.934-6.136
			c0.012-1.165,0.018-1.703,0.022-2.632c5.815,1.371,8.452,3.086,12.689,6.717C1258.732,336.991,1258.706,337.608,1258.653,338.837z
			"/>
	</g>
</g>
<g>
	<g>
		<path d="M924.441,435.931c2.357-5.961,3.736-9.529,6.948-14.865c0.06,1.237,0.095,1.915,0.172,3.324
			c-2.641,4.879-3.817,7.717-5.908,12.548c0.003,0.041,0.005,0.061,0.008,0.102c2.706,3.29,4.103,4.877,6.878,6.301
			c0.016,0.795,0.017,1.112-0.006,1.521c-3.141-0.431-4.752-2.252-7.867-6.145C924.58,437.638,924.534,437.074,924.441,435.931z"/>
		<path d="M935.796,416.248c0.026,0.961-0.359,2.113-1.038,2.318c-0.6,0.182-1.061-0.701-1.082-1.676
			c-0.022-1.01,0.43-1.655,1.056-1.844C935.376,414.851,935.77,415.247,935.796,416.248z M935.014,444.104
			c0.197-2.878-0.449-11.979-0.904-21.566c0.67-0.204,1.006-0.307,1.691-0.513c0.428,9.596,1.06,18.706,0.841,21.586
			C935.982,443.811,935.654,443.909,935.014,444.104z"/>
		<path d="M939.004,428.123c-0.125-2.745-0.246-4.976-0.387-6.941c0.629-0.188,0.945-0.282,1.585-0.472
			c0.103,1.575,0.16,2.426,0.276,4.146c0.016-0.005,0.021-0.007,0.037-0.012c0.383-2.637,1.451-5.203,3.144-5.7
			c1.419-0.416,3.751,1.031,4.089,9.925c0.234,6.192,0.367,9.45,0.201,11.159c-0.76,0.225-1.137,0.337-1.884,0.559
			c0.159-1.653,0.037-4.7-0.19-10.627c-0.159-4.144-0.943-7.6-2.687-7.087c-1.218,0.358-2.019,2.891-2.233,5.637
			c-0.049,0.62-0.061,1.456-0.026,2.259c0.266,6.242,0.415,9.54,0.259,11.272c-0.706,0.211-1.055,0.317-1.744,0.524
			C939.623,440.665,939.357,435.874,939.004,428.123z"/>
		<path d="M952.661,411.225c0.006,1.778,0.043,3.053,0.134,5.812c1.139-0.328,1.713-0.492,2.869-0.824
			c0.044,1.329,0.066,2.039,0.119,3.478c-1.156,0.333-1.73,0.498-2.869,0.827c0.207,5.605,0.367,9.055,0.472,13.468
			c0.06,2.537,0.419,3.214,1.536,2.887c0.523-0.153,0.916-0.35,1.169-0.51c0.032,0.742,0.042,1.04,0.044,1.426
			c-0.398,0.22-1.029,0.462-1.803,0.689c-0.932,0.274-1.65,0.349-2.096,0.02c-0.506-0.375-0.718-1.434-0.772-3.823
			c-0.102-4.426-0.265-7.927-0.476-13.599c-0.669,0.194-1.006,0.29-1.667,0.482c-0.054-1.44-0.075-2.15-0.12-3.481
			c0.662-0.192,0.992-0.288,1.662-0.481c-0.076-2.304-0.105-3.377-0.125-5.038C951.502,412.006,951.886,411.74,952.661,411.225z"/>
		<path d="M959.453,428.965c0.246,5.882,1.965,6.117,4.063,5.507c1.502-0.437,2.42-0.987,3.211-1.651
			c0.153,0.738,0.223,1.042,0.353,1.471c-0.759,0.479-2.058,1.055-3.894,1.591c-3.555,1.039-5.449,0.576-5.697-6.752
			s1.465-14.406,4.789-15.353c3.723-1.061,5.05,6.11,5.233,10.758c0.037,0.94,0.017,1.655,0.009,2.104
			C964.247,427.581,962.627,428.048,959.453,428.965z M965.43,423.959c-0.094-2.996-0.868-7.591-3.201-6.925
			c-2.099,0.6-2.825,5.362-2.867,8.669C961.759,425.012,962.975,424.663,965.43,423.959z"/>
		<path d="M970,420.241c-0.132-3.107-0.271-5.793-0.43-7.993c0.741-0.21,1.109-0.316,1.854-0.527
			c0.104,1.865,0.166,2.891,0.284,4.945c0.038-0.011,0.056-0.016,0.094-0.027c0.38-3.682,1.584-6.017,3.016-6.423
			c0.243-0.069,0.413-0.07,0.61-0.026c0.068,1.61,0.107,2.49,0.188,4.27c-0.225-0.046-0.443-0.038-0.736,0.046
			c-1.506,0.429-2.475,3.342-2.598,6.95c-0.022,0.652-0.038,1.413-0.006,2.186c0.223,5.326,0.332,7.941,0.257,9.391
			c-0.854,0.248-1.28,0.372-2.13,0.619C970.512,431.77,970.309,427.503,970,420.241z"/>
		<path d="M979.426,431.034c0.063-2.304-0.311-9.001-0.729-17.885c-0.664,0.189-0.996,0.283-1.658,0.472
			c-0.065-1.429-0.099-2.131-0.156-3.449c0.661-0.188,0.994-0.282,1.655-0.47c-0.021-0.453-0.03-0.675-0.05-1.109
			c-0.139-3.199,0.174-5.305,1.148-6.41c0.789-0.896,1.86-1.255,2.85-1.534c0.748-0.211,1.396-0.316,1.807-0.332
			c-0.115,0.421-0.17,0.744-0.26,1.546c-0.32-0.079-0.76-0.087-1.364,0.083c-1.813,0.513-2.226,2.45-2.07,5.907
			c0.022,0.485,0.036,0.734,0.06,1.244c1.139-0.324,1.707-0.486,2.846-0.81c0.064,1.314,0.1,2.017,0.172,3.442
			c-1.142,0.326-1.714,0.489-2.855,0.814c0.43,8.877,0.809,15.574,0.764,17.866C980.721,430.659,980.289,430.784,979.426,431.034z"
			/>
		<path d="M993.071,427.089c-0.077-0.307-0.122-0.55-0.22-1.171c-0.029,0.008-0.045,0.013-0.074,0.021
			c-0.619,1.189-1.896,1.916-3.605,2.41c-2.424,0.701-3.658,0.168-3.771-2.474c-0.19-4.414,2.141-9.327,6.69-10.58
			c-0.012-0.213-0.019-0.321-0.03-0.535c-0.12-2.158-0.6-5.957-3.006-5.268c-1.095,0.313-2.201,1.372-2.971,2.794
			c-0.26-1.194-0.388-1.786-0.643-2.921c0.906-1.612,2.275-2.82,3.754-3.243c3.589-1.027,4.746,3.995,5.039,9.154
			c0.219,3.852,0.326,5.782,0.463,8.37c0.079,1.501,0.177,2.478,0.336,2.876C994.25,426.75,993.857,426.862,993.071,427.089z
			 M992.314,418.475c-2.344,0.569-4.935,2.717-4.764,6.393c0.104,2.229,1.051,2.458,2.16,2.139c1.554-0.448,2.498-1.752,2.756-3.432
			c0.057-0.369,0.08-0.789,0.061-1.171C992.452,420.981,992.408,420.171,992.314,418.475z"/>
		<path d="M1006.538,422.923c-0.526,0.362-1.714,0.897-3.266,1.345c-3.483,1.005-5.842,0.726-6.269-6.638
			c-0.43-7.413,1.674-14.184,5.387-15.267c1.221-0.356,2.329-0.042,2.925,0.393c-0.101,1.415-0.149,2.164-0.245,3.676
			c-0.527-0.499-1.332-0.854-2.461-0.525c-2.611,0.76-3.772,5.855-3.473,10.907c0.332,5.605,2.157,6.696,4.438,6.038
			c1.188-0.343,1.943-0.908,2.509-1.411C1006.275,422.2,1006.365,422.509,1006.538,422.923z"/>
		<path d="M1009.453,414.577c0.418,5.805,2.223,5.987,4.198,5.414c1.415-0.41,2.231-0.927,2.927-1.562
			c0.185,0.722,0.271,1.018,0.438,1.425c-0.659,0.445-1.804,0.964-3.537,1.465c-3.356,0.971-5.532,0.658-5.987-6.569
			s1.146-14.263,4.315-15.209c3.55-1.06,4.899,6.091,5.192,10.714c0.06,0.935,0.061,1.647,0.067,2.092
			C1014.104,413.221,1012.574,413.667,1009.453,414.577z M1015.063,409.652c-0.167-2.976-0.982-7.549-3.209-6.888
			c-2.002,0.595-2.623,5.318-2.579,8.591C1011.631,410.666,1012.791,410.323,1015.063,409.652z"/>
		<path d="M1021.896,411.607c-0.33,4.241-0.506,6.145-0.994,7.439c-0.76,0.221-1.146,0.331-1.92,0.556
			c1.609-9.893,1.757-19.897,3.011-29.834c0.875-0.278,1.312-0.417,2.169-0.692c2.297,5.161,4.192,24.044,6.17,27.223
			c-0.691,0.203-1.041,0.304-1.753,0.512c-0.642-0.987-1.028-2.737-1.835-6.656C1024.86,410.723,1023.89,411.014,1021.896,411.607z
			 M1026.187,406.802c-0.763-3.958-1.166-6.279-1.936-10.005c-0.438-2.115-0.749-3.829-1.045-5.15
			c-0.017,0.005-0.025,0.007-0.042,0.013c-0.115,1.486-0.229,3.406-0.372,5.538c-0.308,4.072-0.44,6.568-0.737,10.855
			C1023.744,407.544,1024.574,407.294,1026.187,406.802z"/>
		<path d="M1039.375,404.905c-2.707,5.868-4.143,8.623-7.403,10.915c-0.024-0.38-0.044-0.69-0.088-1.472
			c2.731-3.073,3.978-5.495,6.346-10.511c-0.001-0.042-0.003-0.063-0.005-0.105c-2.664-3.387-4.166-5.4-7.322-8.481
			c-0.072-1.423-0.109-2.107-0.174-3.35c3.715,3.136,5.496,5.705,8.553,9.998C1039.32,403.133,1039.339,403.743,1039.375,404.905z"
			/>
	</g>
</g>
<g>
	<g>
		<path d="M1383.817,293.301c2.892-4.75,4.444-7.5,7.546-11.708c-0.053,0.955-0.08,1.475-0.137,2.545
			c-2.6,3.798-3.893,5.991-6.335,9.839c-0.001,0.031-0.001,0.047-0.002,0.078c2.271,2.321,3.357,3.459,5.561,4.587
			c-0.042,0.656-0.063,0.932-0.097,1.327c-2.615-0.506-3.891-1.813-6.585-4.551C1383.786,294.596,1383.799,294.168,1383.817,293.301
			z"/>
		<path d="M1395.274,277.75c-0.052,0.777-0.44,1.676-0.991,1.842c-0.486,0.147-0.785-0.533-0.73-1.322
			c0.057-0.817,0.463-1.379,0.971-1.532C1395.047,276.58,1395.328,276.939,1395.274,277.75z M1392.419,299.317
			c0.283-2.795,0.595-9.347,1.028-16.654c0.549-0.168,0.822-0.251,1.371-0.417c-0.457,7.307-0.783,13.853-1.09,16.658
			C1393.201,299.069,1392.942,299.152,1392.419,299.317z"/>
		<path d="M1396.755,286.812c0.132-2.062,0.225-3.739,0.278-5.233c0.485-0.146,0.727-0.218,1.211-0.363
			c-0.051,1.196-0.078,1.836-0.132,3.129c0.013-0.003,0.021-0.006,0.032-0.009c0.496-1.984,1.484-3.933,2.727-4.296
			c1.041-0.305,2.539,0.806,2.076,7.459c-0.322,4.632-0.486,7.054-0.705,8.739c-0.545,0.17-0.816,0.255-1.359,0.424
			c0.211-1.628,0.366-3.907,0.675-8.353c0.216-3.108-0.046-5.691-1.334-5.308c-0.898,0.267-1.692,2.174-2.072,4.235
			c-0.086,0.467-0.164,1.092-0.204,1.697c-0.313,4.696-0.473,7.163-0.683,8.86c-0.535,0.168-0.801,0.252-1.333,0.419
			C1396.176,296.156,1396.383,292.635,1396.755,286.812z"/>
		<path d="M1407.634,274.106c-0.124,1.434-0.197,2.403-0.345,4.476c0.779-0.223,1.174-0.334,1.953-0.555
			c-0.069,0.996-0.107,1.522-0.18,2.589c-0.781,0.225-1.17,0.338-1.951,0.564c-0.287,4.169-0.447,6.675-0.706,10.067
			c-0.149,1.95,0.048,2.549,0.817,2.312c0.36-0.111,0.631-0.262,0.811-0.386c-0.03,0.612-0.043,0.87-0.064,1.251
			c-0.279,0.186-0.713,0.384-1.248,0.55c-0.644,0.2-1.137,0.197-1.418-0.121c-0.314-0.354-0.388-1.256-0.245-3.098
			c0.265-3.413,0.426-5.961,0.719-10.188c-0.465,0.135-0.698,0.204-1.163,0.339c0.074-1.075,0.111-1.605,0.184-2.609
			c0.465-0.134,0.697-0.201,1.161-0.334c0.124-1.734,0.187-2.551,0.296-3.865C1406.807,274.689,1407.083,274.491,1407.634,274.106z"
			/>
		<path d="M1410.773,287.535c-0.264,4.392,0.855,4.755,2.253,4.327c1-0.307,1.622-0.729,2.173-1.237
			c0.051,0.595,0.078,0.85,0.137,1.248c-0.516,0.39-1.387,0.862-2.612,1.242c-2.374,0.734-3.616-0.01-3.241-5.482
			s2.017-10.638,4.194-11.244c2.439-0.679,2.772,4.599,2.575,8.01c-0.04,0.69-0.104,1.218-0.138,1.55
			C1413.973,286.582,1412.903,286.898,1410.773,287.535z M1414.968,283.937c0.146-2.198-0.019-5.576-1.553-5.142
			c-1.38,0.391-2.197,3.88-2.464,6.322C1412.556,284.644,1413.357,284.407,1414.968,283.937z"/>
		<path d="M1418.11,281.314c0.122-2.26,0.209-4.211,0.254-5.835c0.476-0.131,0.716-0.196,1.192-0.327
			c-0.055,1.372-0.086,2.117-0.145,3.608c0.025-0.007,0.037-0.011,0.063-0.018c0.476-2.659,1.368-4.335,2.28-4.585
			c0.155-0.042,0.263-0.037,0.382,0.001c-0.057,1.18-0.088,1.816-0.148,3.103c-0.137-0.04-0.274-0.039-0.462,0.014
			c-0.964,0.271-1.751,2.346-2.063,4.966c-0.057,0.473-0.115,1.027-0.146,1.591c-0.204,3.89-0.306,5.806-0.415,7.243
			c-0.559,0.172-0.836,0.258-1.395,0.43C1417.664,289.642,1417.824,286.596,1418.11,281.314z"/>
		<path d="M1423.405,289.694c0.112-2.278,0.304-6.892,0.577-13.293c-0.424,0.118-0.633,0.177-1.057,0.295
			c0.047-1.032,0.069-1.541,0.113-2.503c0.421-0.115,0.63-0.173,1.051-0.288c0.014-0.33,0.02-0.493,0.033-0.811
			c0.102-2.344,0.412-3.971,1.061-4.846c0.527-0.711,1.193-0.988,1.814-1.149c0.471-0.122,0.879-0.145,1.135-0.115
			c-0.082,0.396-0.127,0.663-0.22,1.296c-0.194-0.082-0.466-0.116-0.847-0.016c-1.145,0.301-1.49,1.835-1.592,4.364
			c-0.014,0.355-0.022,0.538-0.037,0.908c0.725-0.198,1.086-0.298,1.811-0.497c-0.033,0.951-0.051,1.454-0.088,2.474
			c-0.729,0.204-1.094,0.304-1.822,0.507c-0.254,6.378-0.436,10.979-0.527,13.243
			C1424.248,289.437,1423.967,289.522,1423.405,289.694z"/>
		<path d="M1432.32,286.969c-0.049-0.307-0.066-0.516-0.106-1.016c-0.02,0.006-0.031,0.01-0.051,0.016
			c-0.444,0.932-1.282,1.576-2.401,1.918c-1.588,0.485-2.377-0.163-2.313-2.151c0.107-3.323,1.848-6.709,4.796-7.521
			c0.003-0.15,0.005-0.225,0.008-0.376c0.037-1.523-0.07-4.211-1.614-3.781c-0.702,0.195-1.449,0.919-2.008,1.912
			c-0.096-0.854-0.143-1.278-0.238-2.098c0.652-1.128,1.566-1.955,2.512-2.213c2.296-0.627,2.78,2.941,2.703,6.577
			c-0.058,2.714-0.088,4.074-0.113,6.014c-0.015,1.126,0.018,1.924,0.121,2.326C1433.098,286.732,1432.838,286.811,1432.32,286.969z
			 M1432.221,280.469c-1.52,0.371-3.277,1.813-3.355,4.554c-0.047,1.663,0.556,1.92,1.281,1.7c1.016-0.308,1.672-1.326,1.918-2.568
			c0.053-0.273,0.09-0.58,0.096-0.859C1432.182,282.256,1432.193,281.676,1432.221,280.469z"/>
		<path d="M1441.337,283.975c-0.362,0.294-1.169,0.733-2.218,1.051c-2.355,0.715-3.938,0.119-3.854-5.097
			c0.086-5.25,1.75-9.911,4.218-10.595c0.812-0.225,1.528,0.014,1.902,0.327c-0.13,0.985-0.196,1.503-0.33,2.547
			c-0.325-0.351-0.843-0.607-1.595-0.395c-1.74,0.49-2.733,4-2.781,7.563c-0.053,3.955,1.122,4.907,2.663,4.442
			c0.803-0.242,1.323-0.671,1.72-1.045C1441.168,283.355,1441.223,283.603,1441.337,283.975z"/>
		<path d="M1443.614,277.856c0.028,4.045,1.287,4.328,2.689,3.906c1.004-0.302,1.599-0.7,2.114-1.175
			c0.11,0.542,0.172,0.776,0.29,1.132c-0.479,0.363-1.308,0.801-2.536,1.172c-2.38,0.719-3.904,0.127-3.888-4.915
			s1.393-9.842,3.61-10.468c2.484-0.702,3.152,4.16,3.155,7.32c0.001,0.639-0.028,1.128-0.043,1.436
			C1446.854,276.902,1445.773,277.219,1443.614,277.856z M1447.705,274.435c0.016-2.034-0.361-5.146-1.92-4.702
			c-1.402,0.4-2.029,3.635-2.148,5.891C1445.264,275.15,1446.078,274.913,1447.705,274.435z"/>
		<path d="M1450.744,261.564c0.596-0.318,1.545-0.689,2.518-0.971c1.389-0.402,2.307-0.431,2.995,0.096
			c0.548,0.419,0.925,1.327,0.926,3.032c0.001,2.092-0.698,4.455-1.826,5.745c0,0.029-0.001,0.043-0.001,0.072
			c1.013,0.289,2.178,2.116,2.179,5.29c0.001,1.84-0.341,3.031-0.854,3.83c-0.688,1.07-1.867,1.583-3.598,2.104
			c-0.943,0.284-1.673,0.455-2.137,0.541C1450.664,277.885,1450.961,266.439,1450.744,261.564z M1452.204,269.442
			c0.501-0.146,0.75-0.22,1.251-0.367c1.459-0.429,2.324-2.522,2.32-4.646c-0.004-2.581-0.989-2.886-2.392-2.48
			c-0.638,0.185-0.999,0.362-1.22,0.501C1452.209,264.599,1452.205,266.26,1452.204,269.442z M1452.264,279.801
			c0.271-0.018,0.664-0.115,1.151-0.261c1.417-0.426,2.68-1.194,2.672-4.308c-0.007-2.925-1.243-4.143-2.747-3.698
			c-0.455,0.135-0.682,0.202-1.138,0.336C1452.2,275.641,1452.191,277.663,1452.264,279.801z"/>
		<path d="M1466.494,270.582c-3,4.182-4.435,6.165-7.225,8.247c-0.021-0.355-0.027-0.6-0.038-1.187
			c2.415-2.405,3.647-4.124,6.196-7.67c0.001-0.028,0-0.042,0.001-0.069c-2.396-2.029-3.632-3.25-6.135-5.206
			c0.007-0.956,0.01-1.418,0.012-2.271c2.979,2.042,4.442,3.599,7.253,6.163C1466.532,269.404,1466.519,269.808,1466.494,270.582z"
			/>
	</g>
</g>
<path fill="none" stroke="#000000" stroke-miterlimit="10" d="M1472.489,266.697c70.466-37.485,5.065-88.525,104.083-88.525"/>
<g>
	<g>
		<path fill="none" stroke="#000000" stroke-miterlimit="10" d="M1629.195,271.225c79.691-27.651,266.869-93.053,141.401-93.053"/>
		<g>
			<polygon points="1633.066,273.734 1630.344,270.771 1630.586,266.755 1623.555,273.183 			"/>
		</g>
	</g>
</g>
<g>
	
		<rect x="1576.243" y="157.831" fill="#EDEDED" stroke="#000000" stroke-width="0.3" stroke-miterlimit="10" width="194.354" height="42.143"/>
	<g>
		<path d="M1599.62,186.707c-1.24,1.24-2.76,1.86-4.56,1.86c-2.061,0-3.75-0.83-5.07-2.49v2.28h-1.23v-22.2h1.23v12.12
			c1.3-1.66,2.99-2.49,5.07-2.49c1.8,0,3.31,0.61,4.529,1.83c1.24,1.24,1.86,2.76,1.86,4.561
			C1601.45,183.977,1600.84,185.487,1599.62,186.707z M1598.721,178.517c-1.021-1.021-2.24-1.53-3.66-1.53
			c-1.44,0-2.66,0.5-3.66,1.5c-1.02,1.021-1.53,2.25-1.53,3.69c0,1.42,0.511,2.64,1.53,3.66c1.02,1.02,2.24,1.529,3.66,1.529
			c1.439,0,2.66-0.499,3.66-1.5c1.02-1.02,1.529-2.25,1.529-3.689C1600.25,180.757,1599.74,179.537,1598.721,178.517z"/>
		<path d="M1614.62,186.707c-1.24,1.24-2.76,1.86-4.56,1.86c-1.801,0-3.311-0.609-4.53-1.83c-1.24-1.239-1.86-2.76-1.86-4.56
			c0-1.78,0.62-3.29,1.86-4.53c1.22-1.26,2.729-1.89,4.53-1.89c1.779,0,3.289,0.62,4.529,1.859c1.24,1.24,1.86,2.76,1.86,4.561
			C1616.45,183.977,1615.84,185.487,1614.62,186.707z M1613.75,178.487c-1-1.02-2.23-1.53-3.689-1.53c-1.4,0-2.61,0.521-3.631,1.561
			c-1.039,1.04-1.56,2.26-1.56,3.66c0,1.42,0.51,2.64,1.53,3.66c1.02,1.02,2.239,1.529,3.66,1.529c1.439,0,2.659-0.499,3.66-1.5
			c1.02-1.02,1.529-2.25,1.529-3.689C1615.25,180.717,1614.75,179.487,1613.75,178.487z"/>
		<path d="M1621.399,177.197v11.16h-1.229v-11.16h-1.68v-1.229h1.68v-5.431h1.229v5.431h2.88v1.229H1621.399z"/>
		<path d="M1627.58,179.687c-0.221,0-0.451-0.09-0.69-0.271c-0.181-0.18-0.28-0.42-0.3-0.72c0-0.54,0.33-0.87,0.99-0.99
			c0.499,0,0.829,0.33,0.989,0.99C1628.569,179.357,1628.24,179.687,1627.58,179.687z M1627.58,188.537
			c-0.221,0-0.451-0.09-0.69-0.27c-0.181-0.18-0.28-0.42-0.3-0.72c0-0.54,0.33-0.87,0.99-0.99c0.499,0,0.829,0.33,0.989,0.99
			C1628.569,188.207,1628.24,188.537,1627.58,188.537z"/>
		<path d="M1632.77,173.747c-0.221,0-0.45-0.09-0.69-0.27c-0.18-0.18-0.28-0.42-0.3-0.72c0-0.54,0.33-0.87,0.99-0.99
			c0.5,0,0.83,0.33,0.99,0.99C1633.76,173.417,1633.43,173.747,1632.77,173.747z M1632.139,188.357v-12.39h1.23v12.39H1632.139z"/>
		<path d="M1644.35,188.357v-7.41c0-2.62-1.181-3.93-3.541-3.93c-1.16,0-2.039,0.34-2.639,1.02c-0.621,0.681-0.931,1.61-0.931,2.79
			v7.53h-1.229v-12.39h1.229v1.5c0.56-1.1,1.75-1.65,3.569-1.65c1.541,0,2.721,0.44,3.541,1.32c0.819,0.88,1.229,2.11,1.229,3.689
			v7.53H1644.35z"/>
		<path d="M1651.398,177.197v11.16h-1.229v-11.16h-1.68v-1.229h1.68v-5.431h1.229v5.431h2.881v1.229H1651.398z"/>
		<path d="M1657.279,181.907c0,1.681,0.449,3.011,1.35,3.99c0.939,1,2.23,1.5,3.87,1.5c0.84,0,1.601-0.14,2.28-0.42
			c0.859-0.36,1.629-1.09,2.31-2.19l1.11,0.511c-0.78,1.479-1.98,2.479-3.6,3c-0.621,0.199-1.32,0.3-2.101,0.3
			c-1.86,0-3.39-0.61-4.59-1.83c-1.22-1.22-1.83-2.75-1.83-4.59c0-1.86,0.601-3.391,1.8-4.59c1.22-1.22,2.76-1.83,4.62-1.83
			c1.84,0,3.36,0.569,4.56,1.71c1.221,1.14,1.83,2.62,1.83,4.439H1657.279z M1665.739,177.977c-0.94-0.68-2.021-1.021-3.24-1.021
			c-2.56,0-4.24,1.261-5.04,3.78h10.051C1667.309,179.597,1666.719,178.677,1665.739,177.977z"/>
		<path d="M1677.589,177.797c-0.32-0.24-0.66-0.431-1.021-0.57c-0.359-0.14-0.74-0.21-1.14-0.21c-0.341,0-0.66,0.104-0.96,0.314
			s-0.561,0.471-0.779,0.78c-0.221,0.311-0.396,0.655-0.525,1.035c-0.131,0.38-0.195,0.73-0.195,1.05v8.16h-1.23v-12.39h1.23v1.68
			c0.26-0.46,0.6-0.88,1.02-1.26s0.881-0.57,1.381-0.57c0.619,0,1.129,0.07,1.529,0.21c0.4,0.141,0.85,0.39,1.351,0.75
			L1677.589,177.797z"/>
		<path d="M1685.748,167.387l-0.81-0.09c-1.12,0-1.68,0.659-1.68,1.979v6.69h2.94v1.229h-2.94v11.16h-1.229v-11.16h-1.681v-1.229
			h1.681v-7.051c0-1.899,0.959-2.85,2.879-2.85c0.439,0,0.721,0.021,0.84,0.06c0.24,0,0.511,0.07,0.811,0.211v1.229
			L1685.748,167.387z"/>
		<path d="M1697.959,188.357v-2.13c-1.301,1.56-2.951,2.34-4.95,2.34c-1.8,0-3.31-0.609-4.53-1.83
			c-1.24-1.239-1.859-2.76-1.859-4.56c0-1.801,0.609-3.311,1.83-4.53c1.239-1.24,2.76-1.86,4.56-1.86c1.979,0,3.63,0.78,4.95,2.34
			v-2.159h1.23v12.39H1697.959z M1696.669,178.517c-1.021-1.021-2.24-1.53-3.66-1.53c-1.44,0-2.66,0.5-3.66,1.5
			c-1.021,1.021-1.53,2.25-1.53,3.69c0,1.42,0.51,2.64,1.53,3.66c1.021,1.02,2.239,1.529,3.66,1.529c1.44,0,2.659-0.499,3.66-1.5
			c1.021-1.02,1.53-2.25,1.53-3.689C1698.199,180.757,1697.689,179.537,1696.669,178.517z"/>
		<path d="M1708.699,188.597c-1.841,0-3.371-0.61-4.59-1.83c-1.221-1.22-1.83-2.75-1.83-4.59s0.609-3.37,1.83-4.59
			c1.219-1.22,2.749-1.83,4.59-1.83c1.579,0,2.84,0.359,3.779,1.08v1.47l-0.779-0.51l-0.84-0.45c-0.762-0.26-1.48-0.391-2.16-0.391
			c-1.541,0-2.791,0.48-3.75,1.44c-0.98,0.98-1.471,2.24-1.471,3.78c0,1.52,0.49,2.77,1.471,3.75c0.979,0.979,2.229,1.47,3.75,1.47
			c1.439,0,2.699-0.48,3.779-1.44v1.53C1711.358,188.227,1710.098,188.597,1708.699,188.597z"/>
		<path d="M1714.459,181.907c0,1.681,0.449,3.011,1.35,3.99c0.939,1,2.229,1.5,3.869,1.5c0.84,0,1.601-0.14,2.281-0.42
			c0.859-0.36,1.629-1.09,2.309-2.19l1.111,0.511c-0.781,1.479-1.98,2.479-3.601,3c-0.62,0.199-1.319,0.3-2.101,0.3
			c-1.859,0-3.39-0.61-4.59-1.83c-1.22-1.22-1.83-2.75-1.83-4.59c0-1.86,0.601-3.391,1.801-4.59c1.219-1.22,2.76-1.83,4.619-1.83
			c1.84,0,3.36,0.569,4.561,1.71c1.22,1.14,1.83,2.62,1.83,4.439H1714.459z M1722.918,177.977c-0.939-0.68-2.02-1.021-3.24-1.021
			c-2.56,0-4.24,1.261-5.039,3.78h10.05C1724.488,179.597,1723.898,178.677,1722.918,177.977z"/>
		<path d="M1747.398,185.567c-2.061,2.061-4.711,3.09-7.951,3.09c-3.239,0-5.879-1.02-7.92-3.06c-2.06-2.06-3.09-4.71-3.09-7.95
			s1.021-5.88,3.061-7.92c2.06-2.06,4.71-3.09,7.949-3.09c3.221,0,5.871,1.02,7.951,3.06c2.059,2.061,3.09,4.71,3.09,7.95
			S1749.457,183.527,1747.398,185.567z M1746.527,170.597c-1.84-1.84-4.199-2.76-7.08-2.76c-2.84,0-5.18,0.92-7.02,2.76
			s-2.76,4.189-2.76,7.05s0.91,5.2,2.73,7.02c1.84,1.841,4.189,2.761,7.049,2.761c2.881,0,5.24-0.9,7.08-2.7
			c1.82-1.819,2.73-4.18,2.73-7.08C1749.258,174.767,1748.348,172.417,1746.527,170.597z"/>
		<path d="M1758.287,167.387l-0.81-0.09c-1.12,0-1.68,0.659-1.68,1.979v6.69h2.94v1.229h-2.94v11.16h-1.229v-11.16h-1.681v-1.229
			h1.681v-7.051c0-1.899,0.959-2.85,2.879-2.85c0.439,0,0.721,0.021,0.84,0.06c0.24,0,0.511,0.07,0.811,0.211v1.229
			L1758.287,167.387z"/>
	</g>
</g>
<path fill="none" stroke="#000000" stroke-miterlimit="10" d="M1046.336,401.33c72.666-18.07-66.75,152.176,32.268,152.176"/>
<g>
	<g>
		<path fill="none" stroke="#000000" stroke-miterlimit="10" d="M1241.648,371.308c93.73,49.86,157.143,182.198,30.979,182.198"/>
		<g>
			<polygon points="1242.383,375.951 1242.713,371.941 1245.83,369.396 1236.336,368.588 			"/>
		</g>
	</g>
</g>
<g>
	<g>
		<path fill="none" stroke="#000000" stroke-miterlimit="10" d="M1263.897,360.194c103.183,58.886,432.013,454.401,99.494,454.401"
			/>
		<g>
			<polygon points="1264.576,364.834 1264.963,360.83 1268.114,358.328 1258.633,357.387 			"/>
		</g>
	</g>
</g>
<g>
	
		<rect x="1078.274" y="533.165" fill="#EDEDED" stroke="#000000" stroke-width="0.3" stroke-miterlimit="10" width="194.354" height="42.142"/>
	<g>
		<path d="M1101.651,562.041c-1.24,1.24-2.76,1.859-4.56,1.859c-2.061,0-3.75-0.83-5.07-2.49v2.281h-1.23V541.49h1.23v12.121
			c1.3-1.66,2.99-2.49,5.07-2.49c1.8,0,3.31,0.609,4.529,1.83c1.24,1.24,1.86,2.76,1.86,4.561
			C1103.481,559.311,1102.871,560.82,1101.651,562.041z M1100.752,553.852c-1.021-1.021-2.24-1.531-3.66-1.531
			c-1.44,0-2.66,0.5-3.66,1.5c-1.02,1.021-1.53,2.25-1.53,3.691c0,1.42,0.511,2.639,1.53,3.66c1.02,1.02,2.24,1.529,3.66,1.529
			c1.439,0,2.66-0.5,3.66-1.5c1.02-1.02,1.529-2.25,1.529-3.689C1102.281,556.092,1101.771,554.871,1100.752,553.852z"/>
		<path d="M1116.651,562.041c-1.24,1.24-2.76,1.859-4.56,1.859c-1.801,0-3.311-0.609-4.53-1.83c-1.24-1.238-1.86-2.76-1.86-4.559
			c0-1.781,0.62-3.291,1.86-4.531c1.22-1.26,2.729-1.889,4.53-1.889c1.779,0,3.289,0.619,4.529,1.859s1.86,2.76,1.86,4.561
			C1118.481,559.311,1117.871,560.82,1116.651,562.041z M1115.781,553.82c-1-1.02-2.23-1.529-3.689-1.529
			c-1.4,0-2.61,0.52-3.631,1.561c-1.039,1.039-1.56,2.26-1.56,3.66c0,1.42,0.51,2.639,1.53,3.66c1.02,1.02,2.239,1.529,3.66,1.529
			c1.439,0,2.659-0.5,3.66-1.5c1.02-1.02,1.529-2.25,1.529-3.689C1117.281,556.051,1116.781,554.82,1115.781,553.82z"/>
		<path d="M1123.431,552.531v11.16h-1.229v-11.16h-1.68v-1.23h1.68v-5.43h1.229v5.43h2.88v1.23H1123.431z"/>
		<path d="M1129.611,555.021c-0.221,0-0.451-0.09-0.69-0.271c-0.181-0.18-0.28-0.42-0.3-0.719c0-0.541,0.33-0.871,0.99-0.99
			c0.499,0,0.829,0.33,0.989,0.99C1130.601,554.691,1130.271,555.021,1129.611,555.021z M1129.611,563.871
			c-0.221,0-0.451-0.09-0.69-0.27c-0.181-0.18-0.28-0.42-0.3-0.721c0-0.539,0.33-0.869,0.99-0.99c0.499,0,0.829,0.33,0.989,0.99
			C1130.601,563.541,1130.271,563.871,1129.611,563.871z"/>
		<path d="M1134.801,549.08c-0.221,0-0.45-0.09-0.69-0.27c-0.18-0.18-0.28-0.42-0.3-0.719c0-0.541,0.33-0.871,0.99-0.99
			c0.5,0,0.83,0.33,0.99,0.99C1135.791,548.75,1135.461,549.08,1134.801,549.08z M1134.17,563.691v-12.391h1.23v12.391H1134.17z"/>
		<path d="M1146.381,563.691v-7.41c0-2.621-1.181-3.93-3.541-3.93c-1.16,0-2.039,0.34-2.639,1.02
			c-0.621,0.68-0.931,1.609-0.931,2.789v7.531h-1.229v-12.391h1.229v1.5c0.56-1.1,1.75-1.65,3.569-1.65
			c1.541,0,2.721,0.441,3.541,1.32c0.819,0.881,1.229,2.111,1.229,3.689v7.531H1146.381z"/>
		<path d="M1153.43,552.531v11.16h-1.229v-11.16h-1.68v-1.23h1.68v-5.43h1.229v5.43h2.881v1.23H1153.43z"/>
		<path d="M1159.311,557.24c0,1.682,0.449,3.012,1.35,3.99c0.939,1,2.23,1.5,3.87,1.5c0.84,0,1.601-0.139,2.28-0.42
			c0.859-0.359,1.629-1.09,2.31-2.189l1.11,0.51c-0.78,1.48-1.98,2.48-3.6,3c-0.621,0.199-1.32,0.301-2.101,0.301
			c-1.86,0-3.39-0.611-4.59-1.83c-1.22-1.221-1.83-2.75-1.83-4.59c0-1.861,0.601-3.391,1.8-4.59c1.22-1.221,2.76-1.83,4.62-1.83
			c1.84,0,3.36,0.568,4.56,1.709c1.221,1.141,1.83,2.621,1.83,4.439H1159.311z M1167.771,553.311c-0.94-0.68-2.021-1.02-3.24-1.02
			c-2.56,0-4.24,1.26-5.04,3.779h10.051C1169.34,554.932,1168.75,554.012,1167.771,553.311z"/>
		<path d="M1179.62,553.131c-0.32-0.24-0.66-0.43-1.021-0.57c-0.359-0.139-0.74-0.209-1.14-0.209c-0.341,0-0.66,0.104-0.96,0.314
			c-0.3,0.209-0.561,0.471-0.779,0.779c-0.221,0.311-0.396,0.656-0.525,1.035c-0.131,0.381-0.195,0.73-0.195,1.051v8.16h-1.23
			v-12.391h1.23v1.68c0.26-0.459,0.6-0.879,1.02-1.26c0.42-0.379,0.881-0.57,1.381-0.57c0.619,0,1.129,0.07,1.529,0.211
			s0.85,0.389,1.351,0.75L1179.62,553.131z"/>
		<path d="M1187.779,542.721l-0.81-0.09c-1.12,0-1.68,0.66-1.68,1.98v6.689h2.94v1.23h-2.94v11.16h-1.229v-11.16h-1.681v-1.23h1.681
			v-7.051c0-1.898,0.959-2.85,2.879-2.85c0.439,0,0.721,0.021,0.84,0.061c0.24,0,0.511,0.07,0.811,0.211v1.229L1187.779,542.721z"/>
		<path d="M1199.99,563.691v-2.131c-1.301,1.561-2.951,2.34-4.95,2.34c-1.8,0-3.31-0.609-4.53-1.83
			c-1.24-1.238-1.859-2.76-1.859-4.559c0-1.801,0.609-3.311,1.83-4.531c1.239-1.24,2.76-1.859,4.56-1.859
			c1.979,0,3.63,0.779,4.95,2.34v-2.16h1.23v12.391H1199.99z M1198.7,553.852c-1.021-1.021-2.24-1.531-3.66-1.531
			c-1.44,0-2.66,0.5-3.66,1.5c-1.021,1.021-1.53,2.25-1.53,3.691c0,1.42,0.51,2.639,1.53,3.66c1.021,1.02,2.239,1.529,3.66,1.529
			c1.44,0,2.659-0.5,3.66-1.5c1.021-1.02,1.53-2.25,1.53-3.689C1200.23,556.092,1199.721,554.871,1198.7,553.852z"/>
		<path d="M1210.73,563.932c-1.841,0-3.371-0.611-4.59-1.83c-1.221-1.221-1.83-2.75-1.83-4.59s0.609-3.371,1.83-4.59
			c1.219-1.221,2.749-1.83,4.59-1.83c1.579,0,2.84,0.359,3.779,1.08v1.469l-0.779-0.51l-0.84-0.449
			c-0.762-0.26-1.48-0.391-2.16-0.391c-1.541,0-2.791,0.48-3.75,1.439c-0.98,0.98-1.471,2.24-1.471,3.781
			c0,1.52,0.49,2.77,1.471,3.75c0.979,0.979,2.229,1.469,3.75,1.469c1.439,0,2.699-0.48,3.779-1.439v1.529
			C1213.39,563.561,1212.129,563.932,1210.73,563.932z"/>
		<path d="M1216.49,557.24c0,1.682,0.449,3.012,1.35,3.99c0.939,1,2.229,1.5,3.869,1.5c0.84,0,1.601-0.139,2.281-0.42
			c0.859-0.359,1.629-1.09,2.309-2.189l1.111,0.51c-0.781,1.48-1.98,2.48-3.601,3c-0.62,0.199-1.319,0.301-2.101,0.301
			c-1.859,0-3.39-0.611-4.59-1.83c-1.22-1.221-1.83-2.75-1.83-4.59c0-1.861,0.601-3.391,1.801-4.59
			c1.219-1.221,2.76-1.83,4.619-1.83c1.84,0,3.36,0.568,4.561,1.709c1.22,1.141,1.83,2.621,1.83,4.439H1216.49z M1224.949,553.311
			c-0.939-0.68-2.02-1.02-3.24-1.02c-2.56,0-4.24,1.26-5.039,3.779h10.05C1226.52,554.932,1225.93,554.012,1224.949,553.311z"/>
		<path d="M1249.43,560.9c-2.061,2.061-4.711,3.09-7.951,3.09c-3.239,0-5.879-1.02-7.92-3.059c-2.06-2.061-3.09-4.711-3.09-7.951
			s1.021-5.879,3.061-7.92c2.06-2.059,4.71-3.09,7.949-3.09c3.221,0,5.871,1.02,7.951,3.061c2.059,2.061,3.09,4.709,3.09,7.949
			S1251.488,558.861,1249.43,560.9z M1248.559,545.932c-1.84-1.84-4.199-2.76-7.08-2.76c-2.84,0-5.18,0.92-7.02,2.76
			s-2.76,4.189-2.76,7.049c0,2.861,0.91,5.201,2.73,7.02c1.84,1.842,4.189,2.762,7.049,2.762c2.881,0,5.24-0.9,7.08-2.701
			c1.82-1.818,2.73-4.18,2.73-7.08C1251.289,550.102,1250.379,547.752,1248.559,545.932z"/>
		<path d="M1260.318,542.721l-0.81-0.09c-1.12,0-1.68,0.66-1.68,1.98v6.689h2.94v1.23h-2.94v11.16h-1.229v-11.16h-1.681v-1.23h1.681
			v-7.051c0-1.898,0.959-2.85,2.879-2.85c0.439,0,0.721,0.021,0.84,0.061c0.24,0,0.511,0.07,0.811,0.211v1.229L1260.318,542.721z"/>
	</g>
</g>
</svg>
