<?xml version="1.0" encoding="utf-8"?>
<!-- Generator: Adobe Illustrator 16.0.0, SVG Export Plug-In . SVG Version: 6.00 Build 0)  -->
<!DOCTYPE svg PUBLIC "-//W3C//DTD SVG 1.1//EN" "http://www.w3.org/Graphics/SVG/1.1/DTD/svg11.dtd">
<svg version="1.1" id="Layer_1" xmlns="http://www.w3.org/2000/svg" xmlns:xlink="http://www.w3.org/1999/xlink" x="0px" y="0px"
	 width="1920px" height="1080px" viewBox="0 0 1920 1080" enable-background="new 0 0 1920 1080" xml:space="preserve">
<g>
	<polygon opacity="0.5" fill="#008D36" points="1219.076,225.485 1345.573,194.592 1636.465,284.598 1609.355,501.134 
		1487.656,559.48 1222.076,424.599 	"/>
	<polyline fill="none" stroke="#000000" stroke-miterlimit="10" points="804.72,568.965 759.354,337.762 1345.573,194.592 
		1636.465,284.598 1609.355,501.134 1032.517,777.676 804.72,568.965 	"/>
	<line fill="none" stroke="#000000" stroke-miterlimit="10" x1="1341.563" y1="383.269" x2="804.72" y2="568.965"/>
	<line fill="none" stroke="#000000" stroke-miterlimit="10" x1="1609.355" y1="501.134" x2="1341.563" y2="383.269"/>
	<line fill="none" stroke="#000000" stroke-miterlimit="10" x1="1345.573" y1="194.592" x2="1341.563" y2="383.269"/>
	<line fill="none" stroke="#000000" stroke-miterlimit="10" x1="1504.681" y1="331.16" x2="1219.076" y2="225.485"/>
	<line fill="none" stroke="#000000" stroke-miterlimit="10" x1="1002.15" y1="508.716" x2="1636.465" y2="284.598"/>
	<polyline opacity="0.5" fill="#95C11F" points="759.354,337.762 1219.076,225.485 1504.681,331.16 1487.656,559.48 
		1032.517,777.676 804.72,568.965 	"/>
	<line fill="none" stroke="#000000" stroke-miterlimit="10" x1="1002.15" y1="508.716" x2="759.354" y2="337.762"/>
	<line fill="none" stroke="#000000" stroke-miterlimit="10" x1="1222.076" y1="424.599" x2="1219.076" y2="225.485"/>
	<line fill="none" stroke="#000000" stroke-miterlimit="10" x1="1002.15" y1="508.716" x2="1032.517" y2="777.676"/>
	<line fill="none" stroke="#000000" stroke-miterlimit="10" x1="1504.681" y1="331.16" x2="1487.656" y2="559.48"/>
	<line fill="none" stroke="#000000" stroke-miterlimit="10" x1="1222.076" y1="424.599" x2="1487.656" y2="559.48"/>
</g>
<g>
	<g id="XMLID_2_" opacity="0.5">
		<path fill="#EA5B0C" d="M1560.195,598.111l27.734-236.622 M1587.93,361.489l129.86-50.293l-7.726,47.422l-44.939,19.194
			l-16.14,106.848l43.951-20.963l-11.496,70.585l-121.245,63.83"/>
		<g>
			<polygon fill="none" points="1709.829,358.625 1692.711,463.705 1692.701,463.705 1648.75,484.666 1664.887,377.818 			"/>
			<polygon fill="none" points="1538.375,429.949 1526.692,544.025 1440.431,585.396 1448.035,467.605 			"/>
			<polygon fill="none" points="1277.315,538.048 1275.331,665.537 1158.841,721.373 1151.688,592.566 			"/>
			<path fill="#F9B233" d="M1559.96,598.117L1100.297,840.1l-23.809-280.619l511.205-197.986 M1587.693,361.495l-27.733,236.623
				 M1526.692,544.025l11.683-114.076l-90.34,37.656l-7.604,117.791L1526.692,544.025z M1275.331,665.537l1.984-127.489
				l-125.628,54.518l7.153,128.807L1275.331,665.537z"/>
		</g>
		<g>
			<polyline fill="none" points="1692.701,463.705 1681.205,534.287 1100.297,840.1 1076.488,559.48 1717.555,311.201 
				1709.829,358.625 1692.711,463.705 			"/>
			<polygon fill="none" points="1151.688,592.566 1277.315,538.048 1275.331,665.537 1158.841,721.373 			"/>
			<polygon fill="none" points="1448.035,467.605 1538.375,429.949 1526.692,544.025 1440.431,585.396 			"/>
			<polyline fill="none" points="1709.829,358.625 1664.887,377.818 1648.75,484.666 1692.701,463.705 1692.711,463.705 			"/>
		</g>
	</g>
	<polygon fill="none" stroke="#000000" stroke-miterlimit="10" points="1100.301,840.1 1076.488,559.48 1717.555,311.204 
		1681.209,534.291 	"/>
	<polygon fill="none" stroke="#000000" stroke-miterlimit="10" points="1151.688,592.57 1277.317,538.052 1275.336,665.535 
		1158.841,721.371 	"/>
	<polygon fill="none" stroke="#000000" stroke-miterlimit="10" points="1448.037,467.605 1538.375,429.949 1526.688,544.031 
		1440.431,585.396 	"/>
	<polyline fill="none" stroke="#000000" stroke-miterlimit="10" points="1709.829,358.628 1664.889,377.822 1648.75,484.668 
		1692.709,463.709 	"/>
	<line fill="none" stroke="#000000" stroke-miterlimit="10" x1="1587.773" y1="361.465" x2="1559.886" y2="598.162"/>
</g>
<line fill="none" x1="1760.338" y1="568.965" x2="1782.04" y2="577.906"/>
<line fill="none" x1="1806.898" y1="337.762" x2="1828.392" y2="345.324"/>
<line fill="none" x1="1679.29" y1="393.158" x2="1701.798" y2="402.792"/>
<g opacity="0.5">
	<path fill="#FFFFFF" d="M1828.392,345.328l-10.132,51.333l-43.287,19.551l-20.328,100.638l30.642-15.716l11.463,3.425
		l-14.538,72.972l-588.327,350.51l-17.193-17.906l-15.761-292.27l645.973-280.105L1828.392,345.328z M1620.709,590.244
		l15.756-108.044l-76.579,37.928l-12.84,109.55L1620.709,590.244z M1371.713,609.314l-114.896,55.006l2.274,121.918l109.192-59.354
		L1371.713,609.314z"/>
</g>
<g>
	<polyline fill="none" stroke="#000000" stroke-miterlimit="10" points="1176.687,910.135 1160.93,617.865 1807.068,337.378 	"/>
	<path fill="none" stroke="#000000" stroke-miterlimit="10" d="M1760.506,568.582"/>
	<polyline fill="none" stroke="#000000" stroke-miterlimit="10" points="1818.253,396.657 1828.561,344.94 1182.422,634.342 
		1193.882,928.041 1782.211,577.523 1796.749,504.559 	"/>
	<line fill="none" stroke="#000000" stroke-miterlimit="10" x1="1160.93" y1="617.865" x2="1182.422" y2="634.342"/>
	<line fill="none" stroke="#000000" stroke-miterlimit="10" x1="1806.898" y1="337.762" x2="1828.392" y2="345.324"/>
	<line fill="none" stroke="#000000" stroke-miterlimit="10" x1="1176.687" y1="910.135" x2="1193.882" y2="928.041"/>
	<polygon fill="none" stroke="#000000" stroke-miterlimit="10" points="1256.813,664.318 1371.708,609.314 1383.744,603.549 
		1378.71,734.076 1259.328,799.162 	"/>
	<path fill="none" stroke="#000000" stroke-miterlimit="10" d="M1368.283,726.885l-109.194,59.344L1368.283,726.885z"/>
	<path fill="none" stroke="#000000" stroke-miterlimit="10" d="M1378.71,734.076"/>
	<line fill="none" stroke="#000000" stroke-miterlimit="10" x1="1368.283" y1="726.885" x2="1378.71" y2="734.076"/>
	<line fill="none" stroke="#000000" stroke-miterlimit="10" x1="1368.283" y1="726.885" x2="1371.708" y2="609.314"/>
	<polygon fill="none" stroke="#000000" stroke-miterlimit="10" points="1559.886,520.123 1648.75,476.118 1631.497,594.197 
		1545.556,642.381 	"/>
	<polyline fill="none" stroke="#000000" stroke-miterlimit="10" points="1818.253,396.657 1774.971,416.205 1752.318,528.395 
		1796.749,504.559 	"/>
	<line fill="none" stroke="#000000" stroke-miterlimit="10" x1="1547.046" y1="629.678" x2="1620.709" y2="590.244"/>
	<line fill="none" stroke="#000000" stroke-miterlimit="10" x1="1620.709" y1="590.244" x2="1631.497" y2="594.197"/>
	<line fill="none" stroke="#000000" stroke-miterlimit="10" x1="1620.709" y1="590.244" x2="1636.465" y2="482.2"/>
	<line fill="none" stroke="#000000" stroke-miterlimit="10" x1="1754.645" y1="516.85" x2="1785.286" y2="501.134"/>
	<line fill="none" stroke="#000000" stroke-miterlimit="10" x1="1785.286" y1="501.134" x2="1796.749" y2="504.559"/>
	<path fill="none" stroke="#000000" stroke-miterlimit="10" d="M1807.068,402.792"/>
	<path fill="none" stroke="#000000" stroke-miterlimit="10" d="M1785.286,501.134"/>
</g>
<polygon fill="none" stroke="#000000" stroke-miterlimit="10" points="1160.93,617.865 1176.687,910.135 1193.882,928.041 
	1782.211,577.523 1796.749,504.559 1752.318,528.395 1774.971,416.205 1818.253,396.657 1828.392,345.324 1806.898,337.762 "/>
<polyline opacity="0.5" fill="none" points="890.924,592.736 1005.82,537.73 1002.391,655.301 893.196,714.645 "/>
<polygon opacity="0.5" fill="none" points="1559.886,520.123 1636.465,482.2 1620.709,590.244 1547.046,629.678 "/>
<g>
	<rect x="79.978" y="320.982" fill="none" width="344.979" height="48.684"/>
	<path d="M286.308,353.145c-1.941,1.94-4.319,2.911-7.137,2.911c-3.224,0-5.869-1.299-7.935-3.897v3.568h-1.925v-34.745h1.925
		v18.969c2.035-2.598,4.679-3.896,7.935-3.896c2.817,0,5.18,0.955,7.09,2.863c1.94,1.941,2.911,4.32,2.911,7.138
		C289.172,348.871,288.217,351.235,286.308,353.145z M284.9,340.326c-1.597-1.597-3.506-2.395-5.729-2.395
		c-2.253,0-4.163,0.782-5.728,2.348c-1.597,1.596-2.395,3.521-2.395,5.775c0,2.223,0.798,4.132,2.395,5.728
		c1.596,1.597,3.505,2.395,5.728,2.395c2.254,0,4.163-0.781,5.729-2.348c1.596-1.596,2.395-3.521,2.395-5.774
		C287.294,343.832,286.496,341.923,284.9,340.326z"/>
	<path d="M309.785,353.145c-1.941,1.94-4.32,2.911-7.137,2.911c-2.817,0-5.181-0.955-7.09-2.864c-1.941-1.94-2.911-4.32-2.911-7.137
		c0-2.786,0.97-5.149,2.911-7.09c1.909-1.973,4.273-2.958,7.09-2.958c2.786,0,5.148,0.97,7.09,2.91
		c1.94,1.941,2.911,4.32,2.911,7.138C312.649,348.871,311.693,351.235,309.785,353.145z M308.423,340.279
		c-1.565-1.597-3.491-2.395-5.775-2.395c-2.191,0-4.085,0.814-5.682,2.441c-1.628,1.628-2.441,3.537-2.441,5.729
		c0,2.223,0.798,4.132,2.395,5.728c1.597,1.597,3.505,2.395,5.729,2.395c2.253,0,4.163-0.781,5.728-2.348
		c1.596-1.596,2.395-3.521,2.395-5.774C310.771,343.77,309.988,341.845,308.423,340.279z"/>
	<path d="M320.395,338.26v17.467h-1.925V338.26h-2.629v-1.925h2.629v-8.498h1.925v8.498h4.508v1.925H320.395z"/>
	<path d="M330.067,342.157c-0.345,0-0.704-0.141-1.08-0.423c-0.282-0.281-0.439-0.657-0.47-1.127c0-0.845,0.517-1.361,1.549-1.549
		c0.782,0,1.299,0.517,1.55,1.549C331.617,341.641,331.101,342.157,330.067,342.157z M330.067,356.008
		c-0.345,0-0.704-0.141-1.08-0.422c-0.282-0.282-0.439-0.657-0.47-1.127c0-0.846,0.517-1.361,1.549-1.55
		c0.782,0,1.299,0.517,1.55,1.55C331.617,355.492,331.101,356.008,330.067,356.008z"/>
	<path d="M339.035,353.802h19.157v1.925h-22.584l19.204-31.553h-18.077v-1.972h21.551L339.035,353.802z"/>
	<path d="M376.174,353.145c-1.941,1.94-4.32,2.911-7.137,2.911c-2.817,0-5.181-0.955-7.09-2.864c-1.941-1.94-2.911-4.32-2.911-7.137
		c0-2.786,0.97-5.149,2.911-7.09c1.909-1.973,4.273-2.958,7.09-2.958c2.786,0,5.148,0.97,7.09,2.91
		c1.94,1.941,2.911,4.32,2.911,7.138C379.039,348.871,378.083,351.235,376.174,353.145z M374.813,340.279
		c-1.565-1.597-3.491-2.395-5.775-2.395c-2.191,0-4.085,0.814-5.682,2.441c-1.628,1.628-2.441,3.537-2.441,5.729
		c0,2.223,0.798,4.132,2.395,5.728c1.597,1.597,3.505,2.395,5.729,2.395c2.253,0,4.163-0.781,5.728-2.348
		c1.596-1.596,2.395-3.521,2.395-5.774C377.16,343.77,376.377,341.845,374.813,340.279z"/>
	<path d="M396.927,355.727v-11.598c0-4.1-1.847-6.15-5.541-6.15c-1.816,0-3.193,0.532-4.132,1.597
		c-0.971,1.064-1.456,2.52-1.456,4.366v11.785h-1.925v-19.392h1.925v2.348c0.876-1.721,2.739-2.582,5.587-2.582
		c2.41,0,4.256,0.688,5.541,2.065c1.283,1.378,1.925,3.303,1.925,5.775v11.785H396.927z"/>
	<path d="M405.425,345.632c0,2.629,0.704,4.711,2.113,6.244c1.471,1.566,3.49,2.348,6.057,2.348c1.314,0,2.504-0.218,3.568-0.657
		c1.345-0.563,2.551-1.705,3.615-3.427l1.737,0.798c-1.221,2.316-3.099,3.882-5.634,4.695c-0.971,0.313-2.066,0.47-3.287,0.47
		c-2.911,0-5.306-0.955-7.184-2.864c-1.91-1.909-2.864-4.304-2.864-7.184c0-2.911,0.939-5.306,2.817-7.185
		c1.909-1.908,4.32-2.863,7.231-2.863c2.879,0,5.258,0.892,7.137,2.676c1.909,1.784,2.864,4.102,2.864,6.949H405.425z
		 M418.666,339.48c-1.472-1.063-3.162-1.596-5.071-1.596c-4.007,0-6.637,1.972-7.888,5.916h15.729
		C421.123,342.017,420.199,340.577,418.666,339.48z"/>
</g>
<line fill="none" stroke="#000000" stroke-miterlimit="10" stroke-dasharray="1,2" x1="434.417" y1="345.324" x2="913.762" y2="345.324"/>
<g>
	<rect x="79.978" y="210.965" fill="none" width="344.979" height="48.684"/>
	<path d="M286.308,243.127c-1.941,1.94-4.319,2.911-7.137,2.911c-3.224,0-5.869-1.299-7.935-3.897v3.568h-1.925v-34.745h1.925
		v18.969c2.035-2.598,4.679-3.896,7.935-3.896c2.817,0,5.18,0.955,7.09,2.863c1.94,1.941,2.911,4.32,2.911,7.138
		C289.172,238.854,288.217,241.218,286.308,243.127z M284.9,230.309c-1.597-1.597-3.506-2.395-5.729-2.395
		c-2.253,0-4.163,0.782-5.728,2.348c-1.597,1.596-2.395,3.521-2.395,5.775c0,2.223,0.798,4.132,2.395,5.728
		c1.596,1.597,3.505,2.395,5.728,2.395c2.254,0,4.163-0.781,5.729-2.348c1.596-1.596,2.395-3.521,2.395-5.774
		C287.294,233.815,286.496,231.906,284.9,230.309z"/>
	<path d="M309.785,243.127c-1.941,1.94-4.32,2.911-7.137,2.911c-2.817,0-5.181-0.955-7.09-2.864c-1.941-1.94-2.911-4.32-2.911-7.137
		c0-2.786,0.97-5.149,2.911-7.09c1.909-1.973,4.273-2.958,7.09-2.958c2.786,0,5.148,0.97,7.09,2.91
		c1.94,1.941,2.911,4.32,2.911,7.138C312.649,238.854,311.693,241.218,309.785,243.127z M308.423,230.262
		c-1.565-1.597-3.491-2.395-5.775-2.395c-2.191,0-4.085,0.814-5.682,2.441c-1.628,1.628-2.441,3.537-2.441,5.729
		c0,2.223,0.798,4.132,2.395,5.728c1.597,1.597,3.505,2.395,5.729,2.395c2.253,0,4.163-0.781,5.728-2.348
		c1.596-1.596,2.395-3.521,2.395-5.774C310.771,233.752,309.988,231.828,308.423,230.262z"/>
	<path d="M320.395,228.243v17.467h-1.925v-17.467h-2.629v-1.925h2.629v-8.498h1.925v8.498h4.508v1.925H320.395z"/>
	<path d="M330.067,232.14c-0.345,0-0.704-0.141-1.08-0.423c-0.282-0.281-0.439-0.657-0.47-1.127c0-0.845,0.517-1.361,1.549-1.549
		c0.782,0,1.299,0.517,1.55,1.549C331.617,231.624,331.101,232.14,330.067,232.14z M330.067,245.991
		c-0.345,0-0.704-0.141-1.08-0.422c-0.282-0.282-0.439-0.657-0.47-1.127c0-0.846,0.517-1.361,1.549-1.55
		c0.782,0,1.299,0.517,1.55,1.55C331.617,245.475,331.101,245.991,330.067,245.991z"/>
	<path d="M339.035,243.785h19.157v1.925h-22.584l19.204-31.553h-18.077v-1.972h21.551L339.035,243.785z"/>
	<path d="M376.174,243.127c-1.941,1.94-4.32,2.911-7.137,2.911c-2.817,0-5.181-0.955-7.09-2.864c-1.941-1.94-2.911-4.32-2.911-7.137
		c0-2.786,0.97-5.149,2.911-7.09c1.909-1.973,4.273-2.958,7.09-2.958c2.786,0,5.148,0.97,7.09,2.91
		c1.94,1.941,2.911,4.32,2.911,7.138C379.039,238.854,378.083,241.218,376.174,243.127z M374.813,230.262
		c-1.565-1.597-3.491-2.395-5.775-2.395c-2.191,0-4.085,0.814-5.682,2.441c-1.628,1.628-2.441,3.537-2.441,5.729
		c0,2.223,0.798,4.132,2.395,5.728c1.597,1.597,3.505,2.395,5.729,2.395c2.253,0,4.163-0.781,5.728-2.348
		c1.596-1.596,2.395-3.521,2.395-5.774C377.16,233.752,376.377,231.828,374.813,230.262z"/>
	<path d="M396.927,245.709v-11.598c0-4.1-1.847-6.15-5.541-6.15c-1.816,0-3.193,0.532-4.132,1.597
		c-0.971,1.064-1.456,2.52-1.456,4.366v11.785h-1.925v-19.392h1.925v2.348c0.876-1.721,2.739-2.582,5.587-2.582
		c2.41,0,4.256,0.688,5.541,2.065c1.283,1.378,1.925,3.303,1.925,5.775v11.785H396.927z"/>
	<path d="M405.425,235.615c0,2.629,0.704,4.711,2.113,6.244c1.471,1.566,3.49,2.348,6.057,2.348c1.314,0,2.504-0.218,3.568-0.657
		c1.345-0.563,2.551-1.705,3.615-3.427l1.737,0.798c-1.221,2.316-3.099,3.882-5.634,4.695c-0.971,0.313-2.066,0.47-3.287,0.47
		c-2.911,0-5.306-0.955-7.184-2.864c-1.91-1.909-2.864-4.304-2.864-7.184c0-2.911,0.939-5.306,2.817-7.185
		c1.909-1.908,4.32-2.863,7.231-2.863c2.879,0,5.258,0.892,7.137,2.676c1.909,1.784,2.864,4.102,2.864,6.949H405.425z
		 M418.666,229.463c-1.472-1.063-3.162-1.596-5.071-1.596c-4.007,0-6.637,1.972-7.888,5.916h15.729
		C421.123,232,420.199,230.56,418.666,229.463z"/>
</g>
<g>
	<g>
		<path d="M807.792,356.876c1.194-3.567,1.94-5.191,3.618-8.473c0.881,0.613,1.326,0.921,2.223,1.546
			c-1.143,2.349-1.666,3.533-2.568,6.05c5.502,0.81,8.262,1.263,13.802,2.339c0.976,0.808,1.468,1.226,2.461,2.098
			C819.476,358.701,815.57,358.032,807.792,356.876z"/>
		<path d="M838.466,361.945c5.152-1.436,7.767-2.15,13.041-3.575c0.876,0.864,1.317,1.312,2.204,2.239
			c-6.792,1.877-10.148,2.819-16.717,4.718c-3.316-10.297-4.405-13.331-6.025-19.941c-5.243,1.325-7.852,1.987-13.029,3.313
			c-0.768-0.541-1.15-0.807-1.906-1.339c6.752-1.724,10.163-2.586,17.008-4.31C834.486,349.554,835.469,352.438,838.466,361.945z"/>
		<path d="M869.785,352.611c0.178,2.562-1.088,4.393-3.861,5.147c-2.774,0.754-6.172,0.197-10.188-1.381
			c-4.082-1.604-7.688-3.734-10.715-6.183c-2.994-2.422-4.448-4.501-4.493-6.416c-0.045-1.932,1.357-3.272,4.217-3.988
			c2.828-0.708,6.173-0.608,10.087,0.363c3.914,0.972,7.314,2.55,10.261,4.975C868.038,347.552,869.61,350.091,869.785,352.611z
			 M854.872,341.521c-3.197-0.82-5.946-0.923-8.261-0.344c-2.221,0.556-3.315,1.642-3.273,3.276
			c0.042,1.642,1.206,3.362,3.554,5.266c2.381,1.931,5.274,3.571,8.618,4.808c3.346,1.238,6.12,1.659,8.319,1.074
			c2.229-0.593,3.255-1.991,3.12-3.99c-0.137-2.037-1.394-4.067-3.754-6.008C860.801,343.634,858.033,342.331,854.872,341.521z"/>
		<path d="M893.353,349.926c-4.948-5.1-7.399-7.131-12.148-10.932c-4.197-3.359-8.064-4.338-11.813-3.404
			c-1.843,0.459-2.699,1.217-2.604,2.251c0.095,1.039,1.054,2.296,2.951,3.808c4.845,3.859,7.356,5.928,12.468,11.25
			c-0.77,0.206-1.154,0.308-1.923,0.514c-8.437-8.796-12.537-11.407-20.139-17.146c0.782-0.195,1.172-0.292,1.954-0.488
			c0.92,0.695,1.383,1.044,2.317,1.753c-0.823-1.52,0.234-2.62,3.125-3.341c2.445-0.61,4.987-0.573,7.652,0.14
			c2.665,0.714,5.239,2.007,7.768,4.024c4.819,3.846,7.309,5.897,12.324,11.056C894.513,349.616,894.125,349.72,893.353,349.926z"/>
		<path d="M891.341,338.093c2.704,2.208,5.6,3.969,8.617,5.072c3.108,1.136,5.969,1.411,8.543,0.727
			c1.318-0.35,2.289-0.889,2.89-1.604c0.76-0.905,0.774-2.351,0.051-4.186c1.026,0.109,1.539,0.165,2.564,0.276
			c1.188,2.446,0.942,4.546-0.74,6.079c-0.645,0.587-1.574,1.054-2.796,1.385c-2.914,0.79-6.329,0.367-10.219-1.042
			c-3.915-1.418-7.405-3.432-10.374-5.874c-3.001-2.469-4.466-4.542-4.444-6.441c0.021-1.93,1.519-3.243,4.435-3.976
			c2.885-0.726,6.135-0.657,9.792,0.215c3.684,0.878,6.998,2.401,9.933,4.758C902.342,335.331,898.68,336.253,891.341,338.093z
			 M898.398,329.851c-2.537-0.438-4.76-0.416-6.674,0.064c-4.019,1.009-4.741,3.077-1.977,6.596
			c6.353-1.588,9.521-2.384,15.807-3.976C903.414,331.178,901.029,330.306,898.398,329.851z"/>
		<path d="M944.797,335.77c-5.611-3.346-8.48-4.851-14.157-7.695c-5.925,1.567-8.928,2.347-14.979,3.904
			c2.604,3.705,3.932,5.649,6.552,10.162c-0.747,0.205-1.12,0.308-1.868,0.513c-6.796-10.63-14.697-20.515-21.255-31.285
			c15.619,8.448,31.983,15.309,47.564,23.859C945.912,335.445,945.541,335.553,944.797,335.77z M903.54,315.151
			c3.998,6.04,6.293,8.706,10.882,15.075c5.427-1.39,8.12-2.085,13.443-3.481C917.838,321.852,912.813,319.852,903.54,315.151z"/>
		<path d="M944.786,329.65c-0.88-0.715-1.322-1.065-2.205-1.759c1.059-2.541,1.569-3.762,2.546-6.158
			c-5.248-0.695-7.881-1.037-13.129-1.711c-0.874-0.626-1.31-0.938-2.176-1.558c7.402,0.938,11.133,1.414,18.545,2.379
			C947.023,324.225,946.305,325.957,944.786,329.65z"/>
	</g>
</g>
<g>
	<g>
		<path d="M1478.667,314.99c-0.937-3.475-1.462-5.124-2.237-8.383c1.58,0.606,2.376,0.911,3.968,1.526
			c0.588,2.331,0.931,3.515,1.557,5.965c7.02,0.709,10.443,1.083,17.01,1.893c1.444,0.708,2.154,1.067,3.525,1.804
			C1493.494,316.555,1488.656,316.008,1478.667,314.99z"/>
		<path d="M1514.474,318.606c4.9-1.484,7.349-2.226,12.233-3.713c1.085,0.688,1.605,1.038,2.607,1.755
			c-6.309,1.954-9.463,2.93-15.785,4.878c-4.337-8.342-9.009-11.551-16.593-17.967c-4.943,1.326-7.434,1.991-12.457,3.322
			c-1.368-0.53-2.05-0.795-3.409-1.319c6.566-1.719,9.806-2.576,16.229-4.285C1504.726,307.569,1509.427,310.668,1514.474,318.606z"
			/>
		<path d="M1543.153,309.037c1,2.169,0.029,3.74-2.508,4.53s-5.812,0.554-10.271-0.59c-4.532-1.163-9.145-2.895-13.96-5.074
			c-4.764-2.155-8.166-4.15-9.851-5.982c-1.731-1.883-1.308-3.151,1.329-3.857c2.607-0.699,6.543-0.629,11.784,0.227
			c5.242,0.857,10.351,2.268,15.045,4.368C1539.415,304.758,1542.169,306.902,1543.153,309.037z M1520.876,299.576
			c-4.265-0.717-7.495-0.788-9.626-0.211c-2.044,0.554-2.331,1.596-0.92,3.168c1.403,1.563,4.075,3.187,7.811,4.877
			c3.789,1.714,7.567,3.065,11.401,3.984c3.835,0.919,6.61,1.109,8.615,0.495c2.031-0.622,2.716-1.848,1.816-3.566
			c-0.916-1.75-3.204-3.486-6.966-5.172C1529.192,301.44,1525.085,300.284,1520.876,299.576z"/>
		<path d="M1565.386,305.438c-6.003-3.889-9.783-5.584-17.593-8.839c-6.901-2.877-12.307-3.731-15.701-2.802
			c-1.669,0.457-1.98,1.16-0.993,2.128c0.976,0.957,3.087,2.104,6.229,3.427c8.021,3.376,11.924,5.139,18.002,9.219
			c-0.694,0.216-1.042,0.324-1.736,0.54c-9.862-6.24-20.521-10.281-31.322-14.54c0.711-0.192,1.065-0.289,1.776-0.481
			c1.656,0.633,2.487,0.952,4.142,1.593c-2.224-1.396-2.022-2.436,0.6-3.146c2.219-0.601,5.127-0.604,8.717-0.008
			s7.557,1.716,11.723,3.44c7.942,3.288,11.792,4.999,17.898,8.928C1566.431,305.114,1566.082,305.222,1565.386,305.438z"/>
		<path d="M1558.021,295.437c4.322,1.841,8.14,3.212,11.648,3.982c3.61,0.793,6.488,0.844,8.822,0.125
			c1.194-0.368,1.986-0.874,2.332-1.502c0.438-0.793-0.072-1.996-1.716-3.512c1.116,0.039,1.67,0.059,2.778,0.098
			c2.346,1.994,2.723,3.73,1.486,5.089c-0.473,0.52-1.267,0.959-2.378,1.307c-2.651,0.83-6.009,0.714-10.392-0.246
			c-4.408-0.965-8.883-2.514-13.594-4.55c-4.762-2.058-8.083-3.899-9.637-5.61c-1.578-1.737-1.052-2.945,1.611-3.667
			c2.633-0.714,6.382-0.732,11.193-0.072c4.837,0.664,9.729,1.886,14.379,3.791C1567.931,292.579,1564.627,293.532,1558.021,295.437
			z M1559.674,287.912c-3.184-0.31-5.661-0.231-7.405,0.247c-3.664,1.004-2.525,2.906,2.965,5.936
			c5.728-1.63,8.588-2.445,14.326-4.077C1566.295,288.92,1562.97,288.233,1559.674,287.912z"/>
		<path d="M1606.85,289.44c0.715,1.794-0.378,3.188-3.09,4.033c-3.861,1.203-5.785,1.804-9.623,3
			c-17.362-9.511-36.83-14.928-55.268-21.923c2.898-0.748,4.348-1.12,7.249-1.863c2.307-0.591,5.274-0.626,8.974-0.137
			c3.95,0.522,8.223,1.559,12.771,3.098c5.214,1.765,7.835,4.54,8.118,4.764c0.718,0.567,6.607-0.14,10.781,0.496
			c4.148,0.632,8.265,1.675,12.164,3.171C1603.589,285.867,1606.148,287.679,1606.85,289.44z M1556.632,273.856
			c-3.114-0.392-5.482-0.399-7.138,0.026c-2.306,0.593-3.457,0.89-5.76,1.485c8.199,3.139,12.651,4.597,21.2,7.621
			c2.46-0.666,3.691-0.999,6.157-1.664c1.667-0.45,2.063-1.165,1.17-2.134s-2.951-1.991-6.162-3.084
			C1562.777,274.974,1559.607,274.23,1556.632,273.856z M1585.32,281.757c-3.824-0.419-6.883-0.343-9.098,0.261
			c-3.177,0.866-4.763,1.299-7.929,2.166c10.806,3.874,16.229,5.8,24.936,10.328c3.162-0.971,4.748-1.456,7.926-2.43
			c2.188-0.671,3.033-1.762,2.451-3.179c-0.581-1.413-2.662-2.88-6.414-4.329C1593.394,283.108,1589.367,282.2,1585.32,281.757z"/>
		<path d="M1609.622,285.91c-1.278-0.542-1.927-0.81-3.249-1.339c-0.098-2.171-0.206-3.219-0.484-5.27
			c-6.477-0.32-9.766-0.488-16.372-0.845c-1.469-0.496-2.21-0.742-3.695-1.236c9.42,0.513,14.12,0.745,23.311,1.176
			C1609.506,281.284,1609.641,282.769,1609.622,285.91z"/>
	</g>
</g>
<line fill="none" stroke="#000000" stroke-miterlimit="10" stroke-dasharray="1,2" x1="434.417" y1="235.307" x2="1305.433" y2="235.307"/>
<line fill="none" stroke="#000000" stroke-miterlimit="10" stroke-dasharray="1,2" x1="434.417" y1="455.341" x2="1604.445" y2="455.341"/>
<g>
	<rect x="79.978" y="541.463" fill="none" width="344.979" height="48.684"/>
	<path d="M225.551,573.625c-1.941,1.941-4.319,2.912-7.137,2.912c-3.224,0-5.869-1.299-7.935-3.898v3.568h-1.925v-34.744h1.925
		v18.969c2.035-2.598,4.679-3.896,7.935-3.896c2.817,0,5.18,0.955,7.09,2.863c1.94,1.941,2.911,4.32,2.911,7.137
		S227.46,571.717,225.551,573.625z M224.143,560.807c-1.597-1.596-3.506-2.395-5.729-2.395c-2.253,0-4.163,0.783-5.728,2.348
		c-1.597,1.596-2.395,3.521-2.395,5.775c0,2.223,0.798,4.133,2.395,5.729c1.596,1.596,3.505,2.395,5.728,2.395
		c2.254,0,4.163-0.781,5.729-2.348c1.596-1.596,2.395-3.521,2.395-5.775C226.537,564.313,225.739,562.404,224.143,560.807z"/>
	<path d="M249.027,573.625c-1.941,1.941-4.32,2.912-7.137,2.912c-2.817,0-5.181-0.955-7.09-2.865
		c-1.941-1.939-2.911-4.32-2.911-7.137c0-2.785,0.97-5.148,2.911-7.09c1.909-1.973,4.273-2.957,7.09-2.957
		c2.786,0,5.148,0.969,7.09,2.91c1.94,1.941,2.911,4.32,2.911,7.137S250.936,571.717,249.027,573.625z M247.666,560.76
		c-1.565-1.596-3.491-2.395-5.775-2.395c-2.191,0-4.085,0.814-5.682,2.441c-1.628,1.629-2.441,3.537-2.441,5.729
		c0,2.223,0.798,4.133,2.395,5.729c1.597,1.596,3.505,2.395,5.729,2.395c2.253,0,4.163-0.781,5.728-2.348
		c1.596-1.596,2.395-3.521,2.395-5.775C250.013,564.25,249.23,562.326,247.666,560.76z"/>
	<path d="M259.638,558.74v17.467h-1.925V558.74h-2.629v-1.924h2.629v-8.498h1.925v8.498h4.508v1.924H259.638z"/>
	<path d="M269.31,562.639c-0.345,0-0.704-0.141-1.08-0.424c-0.282-0.281-0.439-0.656-0.47-1.127c0-0.844,0.517-1.361,1.549-1.549
		c0.782,0,1.299,0.518,1.55,1.549C270.86,562.121,270.343,562.639,269.31,562.639z M269.31,576.488c-0.345,0-0.704-0.141-1.08-0.422
		c-0.282-0.281-0.439-0.656-0.47-1.127c0-0.846,0.517-1.361,1.549-1.549c0.782,0,1.299,0.516,1.55,1.549
		C270.86,575.973,270.343,576.488,269.31,576.488z"/>
	<path d="M276.634,576.207v-33.523h1.878v33.523H276.634z"/>
	<path d="M295.697,576.207v-11.598c0-4.1-1.847-6.15-5.541-6.15c-1.816,0-3.193,0.533-4.132,1.598
		c-0.971,1.064-1.456,2.52-1.456,4.365v11.785h-1.925v-19.391h1.925v2.348c0.876-1.721,2.739-2.582,5.587-2.582
		c2.41,0,4.256,0.688,5.541,2.064c1.283,1.379,1.925,3.303,1.925,5.775v11.785H295.697z"/>
	<path d="M306.73,558.74v17.467h-1.925V558.74h-2.629v-1.924h2.629v-8.498h1.925v8.498h4.508v1.924H306.73z"/>
	<path d="M315.933,566.113c0,2.629,0.704,4.711,2.113,6.244c1.471,1.566,3.49,2.348,6.057,2.348c1.314,0,2.504-0.219,3.568-0.658
		c1.345-0.563,2.551-1.705,3.615-3.426l1.737,0.797c-1.221,2.316-3.099,3.883-5.634,4.695c-0.971,0.313-2.066,0.471-3.287,0.471
		c-2.911,0-5.306-0.955-7.184-2.865c-1.91-1.908-2.864-4.303-2.864-7.184c0-2.91,0.939-5.305,2.817-7.184
		c1.909-1.908,4.32-2.863,7.231-2.863c2.879,0,5.258,0.891,7.137,2.676c1.909,1.783,2.864,4.102,2.864,6.949H315.933z
		 M329.174,559.961c-1.472-1.063-3.162-1.596-5.071-1.596c-4.007,0-6.637,1.973-7.888,5.916h15.729
		C331.631,562.498,330.707,561.059,329.174,559.961z"/>
	<path d="M347.72,559.68c-0.501-0.375-1.033-0.672-1.597-0.893c-0.563-0.217-1.158-0.328-1.784-0.328
		c-0.533,0-1.033,0.164-1.502,0.494c-0.47,0.328-0.876,0.734-1.221,1.221c-0.345,0.484-0.619,1.025-0.822,1.619
		c-0.204,0.596-0.305,1.143-0.305,1.643v12.771h-1.925v-19.391h1.925v2.629c0.406-0.719,0.939-1.377,1.596-1.973
		c0.658-0.594,1.377-0.891,2.16-0.891c0.97,0,1.768,0.109,2.395,0.328c0.626,0.219,1.33,0.609,2.113,1.174L347.72,559.68z"/>
	<path d="M360.491,543.387l-1.268-0.141c-1.753,0-2.629,1.033-2.629,3.1v10.471h4.602v1.924h-4.602v17.467h-1.925V558.74h-2.629
		v-1.924h2.629v-11.035c0-2.973,1.502-4.459,4.507-4.459c0.688,0,1.127,0.031,1.315,0.094c0.375,0,0.798,0.109,1.268,0.328v1.926
		L360.491,543.387z"/>
	<path d="M379.601,576.207v-3.334c-2.035,2.441-4.618,3.664-7.747,3.664c-2.817,0-5.181-0.955-7.09-2.865
		c-1.941-1.939-2.911-4.32-2.911-7.137s0.954-5.18,2.864-7.09c1.94-1.941,4.32-2.91,7.137-2.91c3.099,0,5.681,1.221,7.747,3.662
		v-3.381h1.925v19.391H379.601z M377.582,560.807c-1.596-1.596-3.506-2.395-5.728-2.395c-2.254,0-4.164,0.783-5.729,2.348
		c-1.596,1.596-2.395,3.521-2.395,5.775c0,2.223,0.798,4.133,2.395,5.729c1.597,1.596,3.505,2.395,5.729,2.395
		c2.253,0,4.163-0.781,5.728-2.348c1.596-1.596,2.395-3.521,2.395-5.775C379.977,564.313,379.178,562.404,377.582,560.807z"/>
	<path d="M396.41,576.584c-2.88,0-5.275-0.955-7.184-2.865c-1.91-1.908-2.864-4.303-2.864-7.184c0-2.879,0.955-5.273,2.864-7.184
		c1.909-1.908,4.304-2.863,7.184-2.863c2.472,0,4.444,0.563,5.916,1.689v2.301l-1.221-0.799l-1.315-0.703
		c-1.19-0.406-2.317-0.611-3.38-0.611c-2.411,0-4.367,0.752-5.869,2.254c-1.534,1.533-2.301,3.506-2.301,5.916
		c0,2.379,0.767,4.336,2.301,5.869c1.533,1.533,3.49,2.301,5.869,2.301c2.253,0,4.226-0.752,5.916-2.254v2.395
		C400.573,576.004,398.601,576.584,396.41,576.584z"/>
	<path d="M405.425,566.113c0,2.629,0.704,4.711,2.113,6.244c1.471,1.566,3.49,2.348,6.057,2.348c1.314,0,2.504-0.219,3.568-0.658
		c1.345-0.563,2.551-1.705,3.615-3.426l1.737,0.797c-1.221,2.316-3.099,3.883-5.634,4.695c-0.971,0.313-2.066,0.471-3.287,0.471
		c-2.911,0-5.306-0.955-7.184-2.865c-1.91-1.908-2.864-4.303-2.864-7.184c0-2.91,0.939-5.305,2.817-7.184
		c1.909-1.908,4.32-2.863,7.231-2.863c2.879,0,5.258,0.891,7.137,2.676c1.909,1.783,2.864,4.102,2.864,6.949H405.425z
		 M418.666,559.961c-1.472-1.063-3.162-1.596-5.071-1.596c-4.007,0-6.637,1.973-7.888,5.916h15.729
		C421.123,562.498,420.199,561.059,418.666,559.961z"/>
</g>
<line fill="none" stroke="#000000" stroke-miterlimit="10" stroke-dasharray="1,2" x1="434.417" y1="565.805" x2="1144.579" y2="565.805"/>
<g>
	<rect x="79.978" y="651.846" fill="none" width="344.979" height="48.684"/>
	<path d="M239.544,684.01c-1.941,1.939-4.319,2.91-7.137,2.91c-3.224,0-5.869-1.299-7.935-3.896v3.568h-1.925v-34.746h1.925v18.969
		c2.035-2.598,4.679-3.896,7.935-3.896c2.817,0,5.18,0.955,7.09,2.863c1.94,1.941,2.911,4.32,2.911,7.139
		C242.408,679.736,241.453,682.1,239.544,684.01z M238.136,671.191c-1.597-1.598-3.506-2.395-5.729-2.395
		c-2.253,0-4.163,0.781-5.728,2.348c-1.597,1.596-2.395,3.521-2.395,5.775c0,2.223,0.798,4.131,2.395,5.727
		c1.596,1.598,3.505,2.395,5.728,2.395c2.254,0,4.163-0.781,5.729-2.348c1.596-1.596,2.395-3.521,2.395-5.773
		C240.53,674.697,239.732,672.787,238.136,671.191z"/>
	<path d="M263.021,684.01c-1.941,1.939-4.32,2.91-7.137,2.91c-2.817,0-5.181-0.955-7.09-2.863c-1.941-1.941-2.911-4.32-2.911-7.137
		c0-2.787,0.97-5.15,2.911-7.09c1.909-1.973,4.273-2.959,7.09-2.959c2.786,0,5.148,0.971,7.09,2.91
		c1.94,1.941,2.911,4.32,2.911,7.139C265.885,679.736,264.929,682.1,263.021,684.01z M261.659,671.145
		c-1.565-1.598-3.491-2.395-5.775-2.395c-2.191,0-4.085,0.814-5.682,2.441c-1.628,1.627-2.441,3.537-2.441,5.729
		c0,2.223,0.798,4.131,2.395,5.727c1.597,1.598,3.505,2.395,5.729,2.395c2.253,0,4.163-0.781,5.728-2.348
		c1.596-1.596,2.395-3.521,2.395-5.773C264.006,674.635,263.224,672.709,261.659,671.145z"/>
	<path d="M273.631,669.125v17.467h-1.925v-17.467h-2.629v-1.926h2.629v-8.498h1.925v8.498h4.508v1.926H273.631z"/>
	<path d="M283.303,673.021c-0.345,0-0.704-0.141-1.08-0.422c-0.282-0.281-0.439-0.658-0.47-1.127c0-0.846,0.517-1.361,1.549-1.549
		c0.782,0,1.299,0.516,1.55,1.549C284.853,672.506,284.336,673.021,283.303,673.021z M283.303,686.873
		c-0.345,0-0.704-0.141-1.08-0.422c-0.282-0.283-0.439-0.658-0.47-1.127c0-0.846,0.517-1.361,1.549-1.551
		c0.782,0,1.299,0.518,1.55,1.551C284.853,686.357,284.336,686.873,283.303,686.873z"/>
	<path d="M290.346,686.592v-33.525h16.105v1.926h-14.18v12.207h14.18v2.066h-14.18v15.4h14.18v1.926H290.346z"/>
	<path d="M310.441,686.592v-34.746h1.878v34.746H310.441z"/>
	<path d="M319.315,676.496c0,2.629,0.704,4.711,2.113,6.244c1.471,1.566,3.49,2.348,6.057,2.348c1.314,0,2.504-0.217,3.568-0.656
		c1.345-0.564,2.551-1.705,3.615-3.428l1.737,0.799c-1.221,2.316-3.099,3.881-5.634,4.695c-0.971,0.313-2.066,0.469-3.287,0.469
		c-2.911,0-5.306-0.955-7.184-2.863c-1.91-1.91-2.864-4.305-2.864-7.184c0-2.912,0.939-5.307,2.817-7.186
		c1.909-1.908,4.32-2.863,7.231-2.863c2.879,0,5.258,0.893,7.137,2.676c1.909,1.785,2.864,4.102,2.864,6.949H319.315z
		 M332.556,670.346c-1.472-1.064-3.162-1.596-5.071-1.596c-4.007,0-6.637,1.971-7.888,5.916h15.729
		C335.013,672.881,334.089,671.441,332.556,670.346z"/>
	<path d="M364.013,686.592v-13.383c0-1.188-0.392-2.221-1.174-3.098c-0.783-0.877-1.91-1.314-3.38-1.314
		c-3.037,0-4.554,1.471-4.554,4.412v13.383h-1.925v-13.383c0-1.314-0.438-2.361-1.314-3.145c-0.909-0.846-1.988-1.268-3.24-1.268
		c-1.284,0-2.364,0.406-3.24,1.221c-0.877,0.781-1.315,1.846-1.315,3.191v13.383h-1.925v-19.393h1.925v1.926
		c0.939-1.471,2.457-2.207,4.555-2.207c2.504,0,4.35,1.018,5.54,3.053c1.127-2.035,2.958-3.053,5.494-3.053
		c1.94,0,3.505,0.549,4.695,1.643c1.189,1.127,1.784,2.678,1.784,4.648v13.383H364.013z"/>
	<path d="M372.512,676.496c0,2.629,0.704,4.711,2.113,6.244c1.471,1.566,3.49,2.348,6.057,2.348c1.314,0,2.504-0.217,3.568-0.656
		c1.345-0.564,2.551-1.705,3.615-3.428l1.737,0.799c-1.221,2.316-3.099,3.881-5.634,4.695c-0.971,0.313-2.066,0.469-3.287,0.469
		c-2.911,0-5.306-0.955-7.184-2.863c-1.91-1.91-2.864-4.305-2.864-7.184c0-2.912,0.939-5.307,2.817-7.186
		c1.909-1.908,4.32-2.863,7.231-2.863c2.879,0,5.258,0.893,7.137,2.676c1.909,1.785,2.864,4.102,2.864,6.949H372.512z
		 M385.752,670.346c-1.472-1.064-3.162-1.596-5.071-1.596c-4.007,0-6.637,1.971-7.888,5.916h15.729
		C388.209,672.881,387.286,671.441,385.752,670.346z"/>
	<path d="M408.195,686.592v-11.598c0-4.1-1.847-6.15-5.541-6.15c-1.816,0-3.193,0.531-4.132,1.596
		c-0.971,1.064-1.456,2.52-1.456,4.367v11.785h-1.925v-19.393h1.925v2.348c0.876-1.721,2.739-2.582,5.587-2.582
		c2.41,0,4.256,0.689,5.541,2.066c1.283,1.377,1.925,3.303,1.925,5.775v11.785H408.195z"/>
	<path d="M419.229,669.125v17.467h-1.925v-17.467h-2.629v-1.926h2.629v-8.498h1.925v8.498h4.508v1.926H419.229z"/>
</g>
<line fill="none" stroke="#000000" stroke-miterlimit="10" stroke-dasharray="1,2" x1="434.417" y1="676.188" x2="1217.08" y2="676.188"/>
<g>
	<rect x="79.978" y="431.446" fill="none" width="344.979" height="48.684"/>
	<path d="M225.551,463.608c-1.941,1.94-4.319,2.911-7.137,2.911c-3.224,0-5.869-1.299-7.935-3.897v3.568h-1.925v-34.745h1.925
		v18.969c2.035-2.598,4.679-3.896,7.935-3.896c2.817,0,5.18,0.955,7.09,2.863c1.94,1.941,2.911,4.32,2.911,7.138
		C228.415,459.335,227.46,461.699,225.551,463.608z M224.143,450.79c-1.597-1.597-3.506-2.395-5.729-2.395
		c-2.253,0-4.163,0.782-5.728,2.348c-1.597,1.596-2.395,3.521-2.395,5.775c0,2.223,0.798,4.132,2.395,5.728
		c1.596,1.597,3.505,2.395,5.728,2.395c2.254,0,4.163-0.781,5.729-2.348c1.596-1.596,2.395-3.521,2.395-5.774
		C226.537,454.296,225.739,452.387,224.143,450.79z"/>
	<path d="M249.027,463.608c-1.941,1.94-4.32,2.911-7.137,2.911c-2.817,0-5.181-0.955-7.09-2.864c-1.941-1.94-2.911-4.32-2.911-7.137
		c0-2.786,0.97-5.149,2.911-7.09c1.909-1.973,4.273-2.958,7.09-2.958c2.786,0,5.148,0.97,7.09,2.91
		c1.94,1.941,2.911,4.32,2.911,7.138C251.892,459.335,250.936,461.699,249.027,463.608z M247.666,450.743
		c-1.565-1.597-3.491-2.395-5.775-2.395c-2.191,0-4.085,0.814-5.682,2.441c-1.628,1.628-2.441,3.537-2.441,5.729
		c0,2.223,0.798,4.132,2.395,5.728c1.597,1.597,3.505,2.395,5.729,2.395c2.253,0,4.163-0.781,5.728-2.348
		c1.596-1.596,2.395-3.521,2.395-5.774C250.013,454.233,249.23,452.309,247.666,450.743z"/>
	<path d="M259.638,448.724v17.467h-1.925v-17.467h-2.629v-1.925h2.629v-8.498h1.925v8.498h4.508v1.925H259.638z"/>
	<path d="M269.31,452.621c-0.345,0-0.704-0.141-1.08-0.423c-0.282-0.281-0.439-0.657-0.47-1.127c0-0.845,0.517-1.361,1.549-1.549
		c0.782,0,1.299,0.517,1.55,1.549C270.86,452.104,270.343,452.621,269.31,452.621z M269.31,466.472c-0.345,0-0.704-0.141-1.08-0.422
		c-0.282-0.282-0.439-0.657-0.47-1.127c0-0.846,0.517-1.361,1.549-1.55c0.782,0,1.299,0.517,1.55,1.55
		C270.86,465.956,270.343,466.472,269.31,466.472z"/>
	<path d="M276.634,466.19v-33.524h1.878v33.524H276.634z"/>
	<path d="M295.697,466.19v-11.598c0-4.1-1.847-6.15-5.541-6.15c-1.816,0-3.193,0.532-4.132,1.597
		c-0.971,1.064-1.456,2.52-1.456,4.366v11.785h-1.925v-19.392h1.925v2.348c0.876-1.721,2.739-2.582,5.587-2.582
		c2.41,0,4.256,0.688,5.541,2.065c1.283,1.378,1.925,3.303,1.925,5.775v11.785H295.697z"/>
	<path d="M306.73,448.724v17.467h-1.925v-17.467h-2.629v-1.925h2.629v-8.498h1.925v8.498h4.508v1.925H306.73z"/>
	<path d="M315.933,456.096c0,2.629,0.704,4.711,2.113,6.244c1.471,1.566,3.49,2.348,6.057,2.348c1.314,0,2.504-0.218,3.568-0.657
		c1.345-0.563,2.551-1.705,3.615-3.427l1.737,0.798c-1.221,2.316-3.099,3.882-5.634,4.695c-0.971,0.313-2.066,0.47-3.287,0.47
		c-2.911,0-5.306-0.955-7.184-2.864c-1.91-1.909-2.864-4.304-2.864-7.184c0-2.911,0.939-5.306,2.817-7.185
		c1.909-1.908,4.32-2.863,7.231-2.863c2.879,0,5.258,0.892,7.137,2.676c1.909,1.784,2.864,4.102,2.864,6.949H315.933z
		 M329.174,449.944c-1.472-1.063-3.162-1.596-5.071-1.596c-4.007,0-6.637,1.972-7.888,5.916h15.729
		C331.631,452.48,330.707,451.041,329.174,449.944z"/>
	<path d="M347.72,449.663c-0.501-0.376-1.033-0.673-1.597-0.893c-0.563-0.218-1.158-0.328-1.784-0.328
		c-0.533,0-1.033,0.164-1.502,0.493c-0.47,0.328-0.876,0.735-1.221,1.221c-0.345,0.485-0.619,1.025-0.822,1.62
		c-0.204,0.595-0.305,1.143-0.305,1.643v12.771h-1.925v-19.392h1.925v2.63c0.406-0.72,0.939-1.378,1.596-1.973
		c0.658-0.594,1.377-0.892,2.16-0.892c0.97,0,1.768,0.109,2.395,0.328c0.626,0.22,1.33,0.61,2.113,1.174L347.72,449.663z"/>
	<path d="M360.491,433.37l-1.268-0.141c-1.753,0-2.629,1.033-2.629,3.099v10.471h4.602v1.925h-4.602v17.467h-1.925v-17.467h-2.629
		v-1.925h2.629v-11.034c0-2.973,1.502-4.46,4.507-4.46c0.688,0,1.127,0.031,1.315,0.094c0.375,0,0.798,0.11,1.268,0.328v1.926
		L360.491,433.37z"/>
	<path d="M379.601,466.19v-3.334c-2.035,2.441-4.618,3.663-7.747,3.663c-2.817,0-5.181-0.955-7.09-2.864
		c-1.941-1.94-2.911-4.32-2.911-7.137c0-2.817,0.954-5.181,2.864-7.09c1.94-1.941,4.32-2.911,7.137-2.911
		c3.099,0,5.681,1.221,7.747,3.662v-3.381h1.925v19.392H379.601z M377.582,450.79c-1.596-1.597-3.506-2.395-5.728-2.395
		c-2.254,0-4.164,0.782-5.729,2.348c-1.596,1.596-2.395,3.521-2.395,5.775c0,2.223,0.798,4.132,2.395,5.728
		c1.597,1.597,3.505,2.395,5.729,2.395c2.253,0,4.163-0.781,5.728-2.348c1.596-1.596,2.395-3.521,2.395-5.774
		C379.977,454.296,379.178,452.387,377.582,450.79z"/>
	<path d="M396.41,466.566c-2.88,0-5.275-0.955-7.184-2.864c-1.91-1.909-2.864-4.304-2.864-7.184s0.955-5.274,2.864-7.185
		c1.909-1.908,4.304-2.863,7.184-2.863c2.472,0,4.444,0.563,5.916,1.689v2.301l-1.221-0.798l-1.315-0.704
		c-1.19-0.406-2.317-0.61-3.38-0.61c-2.411,0-4.367,0.751-5.869,2.254c-1.534,1.533-2.301,3.506-2.301,5.916
		c0,2.379,0.767,4.335,2.301,5.869c1.533,1.533,3.49,2.3,5.869,2.3c2.253,0,4.226-0.751,5.916-2.253v2.395
		C400.573,465.987,398.601,466.566,396.41,466.566z"/>
	<path d="M405.425,456.096c0,2.629,0.704,4.711,2.113,6.244c1.471,1.566,3.49,2.348,6.057,2.348c1.314,0,2.504-0.218,3.568-0.657
		c1.345-0.563,2.551-1.705,3.615-3.427l1.737,0.798c-1.221,2.316-3.099,3.882-5.634,4.695c-0.971,0.313-2.066,0.47-3.287,0.47
		c-2.911,0-5.306-0.955-7.184-2.864c-1.91-1.909-2.864-4.304-2.864-7.184c0-2.911,0.939-5.306,2.817-7.185
		c1.909-1.908,4.32-2.863,7.231-2.863c2.879,0,5.258,0.892,7.137,2.676c1.909,1.784,2.864,4.102,2.864,6.949H405.425z
		 M418.666,449.944c-1.472-1.063-3.162-1.596-5.071-1.596c-4.007,0-6.637,1.972-7.888,5.916h15.729
		C421.123,452.48,420.199,451.041,418.666,449.944z"/>
</g>
<g>
	<g>
		<path d="M1087.66,584.517c2.225-7.171,3.521-11.548,6.632-18.003c0.089,1.514,0.14,2.348,0.251,4.087
			c-2.541,5.95-3.652,9.427-5.638,15.242c0.004,0.05,0.009,0.076,0.013,0.126c2.808,4.229,4.25,6.241,7.06,7.936
			c0.031,0.935,0.036,1.298,0.018,1.727c-3.142-0.35-4.802-2.652-8.038-7.667C1087.844,586.633,1087.783,585.934,1087.66,584.517z"
			/>
		<path d="M1098.623,560.717c0.046,1.146-0.319,2.545-0.998,2.791c-0.6,0.218-1.083-0.859-1.125-2.021
			c-0.043-1.202,0.402-1.936,1.027-2.162C1098.172,559.092,1098.575,559.523,1098.623,560.717z M1098.467,594.745
			c0.17-3.016-0.722-14.566-1.404-26.377c0.669-0.242,1.007-0.368,1.691-0.618c0.652,11.822,1.521,23.391,1.33,26.408
			C1099.428,594.398,1099.105,594.514,1098.467,594.745z"/>
		<path d="M1102.119,575.311c-0.189-3.403-0.364-6.169-0.551-8.591c0.628-0.231,0.941-0.35,1.58-0.587
			c0.139,1.941,0.215,2.996,0.37,5.127c0.016-0.006,0.025-0.01,0.041-0.016c0.324-3.27,1.341-6.441,3.031-7.078
			c1.417-0.533,3.792,1.22,4.318,12.246c0.366,7.677,0.567,11.728,0.419,13.518c-0.756,0.29-1.13,0.434-1.872,0.717
			c0.142-1.731-0.044-5.514-0.4-12.855c-0.249-5.132-1.111-9.414-2.852-8.76c-1.215,0.457-1.964,3.594-2.117,7.006
			c-0.034,0.771-0.028,1.806,0.024,2.801c0.408,7.73,0.634,11.83,0.496,13.644c-0.702,0.263-1.048,0.393-1.733,0.647
			C1103.032,590.929,1102.654,584.922,1102.119,575.311z"/>
		<path d="M1115.479,554.265c0.037,2.12,0.099,3.689,0.243,7.098c1.137-0.438,1.708-0.659,2.861-1.106
			c0.069,1.643,0.11,2.521,0.191,4.309c-1.153,0.447-1.727,0.669-2.861,1.106c0.319,6.96,0.551,11.29,0.738,16.683
			c0.107,3.1,0.475,3.856,1.585,3.425c0.52-0.202,0.905-0.45,1.155-0.649c0.045,0.874,0.062,1.215,0.067,1.62
			c-0.395,0.263-1.02,0.56-1.788,0.859c-0.925,0.36-1.641,0.513-2.09,0.167c-0.507-0.391-0.74-1.61-0.841-4.526
			c-0.188-5.401-0.425-9.8-0.751-16.839c-0.667,0.256-1,0.384-1.66,0.637c-0.084-1.786-0.125-2.667-0.196-4.31
			c0.661-0.253,0.995-0.378,1.663-0.635c-0.122-2.845-0.176-4.164-0.227-6.164C1114.328,555.248,1114.71,554.913,1115.479,554.265z"
			/>
		<path d="M1122.625,575.995c0.354,7.277,2.068,7.392,4.15,6.573c1.491-0.586,2.395-1.279,3.174-2.108
			c0.163,0.875,0.24,1.229,0.373,1.696c-0.75,0.586-2.04,1.291-3.862,2.009c-3.528,1.39-5.412,1.165-5.798-7.906
			s1.2-17.952,4.518-19.25c3.716-1.454,5.164,7.438,5.424,13.224c0.053,1.17,0.045,2.06,0.045,2.617
			C1127.395,574.13,1125.782,574.764,1122.625,575.995z M1128.512,569.583c-0.145-3.731-0.998-9.438-3.324-8.527
			c-2.093,0.819-2.736,6.774-2.717,10.891C1124.857,571.016,1126.068,570.543,1128.512,569.583z"/>
		<path d="M1133.023,564.787c-0.182-3.88-0.364-7.237-0.557-9.966c0.739-0.292,1.109-0.438,1.852-0.73
			c0.132,2.315,0.205,3.597,0.355,6.161c0.039-0.016,0.057-0.021,0.096-0.037c0.323-4.619,1.496-7.57,2.925-8.136
			c0.242-0.096,0.412-0.103,0.611-0.057c0.091,2.001,0.144,3.097,0.25,5.32c-0.226-0.05-0.447-0.029-0.739,0.086
			c-1.502,0.594-2.423,4.272-2.492,8.792c-0.013,0.816-0.017,1.768,0.027,2.73c0.303,6.634,0.449,9.889,0.383,11.418
			c-0.848,0.336-1.269,0.504-2.112,0.838C1133.72,579.225,1133.447,573.854,1133.023,564.787z"/>
		<path d="M1142.576,577.66c0.055-2.438-0.422-10.966-0.959-22.074c-0.661,0.262-0.991,0.393-1.651,0.654
			c-0.086-1.785-0.128-2.663-0.203-4.303c0.659-0.262,0.993-0.392,1.653-0.653c-0.026-0.563-0.04-0.841-0.064-1.379
			c-0.182-3.971,0.109-6.53,1.076-7.872c0.785-1.089,1.854-1.542,2.844-1.935c0.748-0.296,1.396-0.478,1.807-0.533
			c-0.114,0.463-0.163,0.843-0.246,1.809c-0.322-0.076-0.764-0.06-1.368,0.181c-1.813,0.72-2.206,3.048-2.007,7.341
			c0.028,0.603,0.042,0.914,0.072,1.55c1.137-0.451,1.706-0.678,2.843-1.129c0.079,1.639,0.123,2.516,0.212,4.301
			c-1.139,0.451-1.707,0.679-2.846,1.13c0.545,11.107,1.019,19.639,0.98,22.065C1143.861,577.152,1143.433,577.321,1142.576,577.66z
			"/>
		<path d="M1156.117,572.31c-0.076-0.321-0.124-0.602-0.225-1.336c-0.029,0.012-0.043,0.015-0.072,0.026
			c-0.607,1.445-1.879,2.305-3.574,2.974c-2.405,0.949-3.631,0.501-3.772-2.736c-0.237-5.41,2.029-11.708,6.56-13.431
			c-0.014-0.268-0.021-0.402-0.036-0.671c-0.143-2.71-0.657-7.474-3.058-6.521c-1.092,0.433-2.185,1.805-2.937,3.618
			c-0.273-1.49-0.413-2.232-0.682-3.645c0.888-2.054,2.246-3.614,3.722-4.2c3.582-1.423,4.787,4.847,5.13,11.325
			c0.256,4.837,0.383,7.263,0.539,10.432c0.091,1.839,0.192,2.989,0.351,3.401C1157.285,571.851,1156.897,572.003,1156.117,572.31z
			 M1155.291,561.789c-2.333,0.789-4.894,3.604-4.686,8.125c0.126,2.742,1.072,2.938,2.174,2.503c1.542-0.608,2.47-2.2,2.71-4.28
			c0.053-0.457,0.075-0.976,0.052-1.449C1155.453,564.926,1155.401,563.912,1155.291,561.789z"/>
		<path d="M1169.486,566.791c-0.523,0.439-1.703,1.092-3.244,1.689c-3.457,1.341-5.792,1.328-6.283-7.894
			c-0.494-9.282,1.548-17.897,5.255-19.362c1.219-0.481,2.33-0.119,2.929,0.413c-0.092,1.781-0.133,2.728-0.219,4.636
			c-0.531-0.617-1.34-1.044-2.466-0.601c-2.604,1.026-3.724,7.5-3.383,13.831c0.378,7.025,2.2,8.217,4.465,7.338
			c1.18-0.457,1.928-1.162,2.487-1.791C1169.223,565.967,1169.315,566.332,1169.486,566.791z"/>
		<path d="M1172.348,556.447c0.449,7.279,2.239,7.361,4.203,6.617c1.406-0.533,2.216-1.173,2.906-1.957
			c0.186,0.873,0.273,1.223,0.439,1.68c-0.655,0.534-1.796,1.153-3.518,1.805c-3.334,1.262-5.487,1.18-5.986-7.889
			s1.057-18.001,4.222-19.24c3.545-1.388,4.925,7.635,5.236,13.455c0.063,1.177,0.064,2.068,0.073,2.628
			C1176.974,554.665,1175.452,555.248,1172.348,556.447z M1177.912,550.174c-0.18-3.75-1.016-9.522-3.236-8.656
			c-1.998,0.779-2.591,6.756-2.528,10.879C1174.494,551.486,1175.649,551.041,1177.912,550.174z"/>
		<path d="M1184.731,552.606c-0.317,5.315-0.486,7.686-0.978,9.103c-0.756,0.277-1.138,0.419-1.907,0.704
			c1.906-12.285,1.496-24.78,2.932-37.123c0.875-0.342,1.309-0.511,2.166-0.845c2.251,11.279,3.571,22.711,6.198,33.909
			c-0.689,0.238-1.039,0.357-1.748,0.606c-0.634-1.034-1.021-3.216-1.833-8.135C1187.685,551.51,1186.716,551.867,1184.731,552.606z
			 M1188.999,546.604c-0.769-4.995-1.177-7.943-1.954-12.63c-0.442-2.661-0.76-4.801-1.057-6.424
			c-0.017,0.006-0.025,0.009-0.042,0.016c-0.113,1.826-0.224,4.222-0.361,6.898c-0.298,5.111-0.418,8.275-0.702,13.675
			C1186.566,547.506,1187.391,547.196,1188.999,546.604z"/>
		<path d="M1202.162,544.793c-2.705,7.105-4.135,10.472-7.389,13.001c-0.023-0.405-0.044-0.764-0.087-1.702
			c2.723-3.645,3.964-6.62,6.33-12.725c-0.001-0.053-0.001-0.075-0.003-0.128c-2.663-4.437-4.166-7.071-7.323-11.05
			c-0.074-1.787-0.11-2.647-0.176-4.196c3.718,4.029,5.499,7.395,8.555,13.031C1202.108,542.575,1202.126,543.339,1202.162,544.793z
			"/>
	</g>
</g>
<g>
	<g>
		<path d="M1587.02,387.56c3.742-8.107,6.029-13.02,10.475-20.11c-0.243,1.66-0.378,2.579-0.663,4.497
			c-3.823,6.589-5.721,10.501-8.936,17.075c-0.008,0.056-0.011,0.083-0.019,0.14c1.702,4.675,2.65,6.836,5.102,8.667
			c-0.148,1.046-0.206,1.455-0.266,1.939c-3.17-0.363-4.277-2.801-6.199-8.342C1586.707,389.934,1586.811,389.15,1587.02,387.56z"/>
		<path d="M1602.971,361.135c-0.174,1.227-0.836,2.749-1.558,3.021c-0.638,0.24-0.885-0.933-0.703-2.182
			c0.188-1.293,0.743-2.064,1.408-2.309C1602.804,359.413,1603.152,359.854,1602.971,361.135z M1595.326,398.744
			c1.454-9.766,2.978-19.521,4.476-29.28c0.712-0.272,1.072-0.411,1.804-0.693c-1.521,9.765-3.056,19.527-4.557,29.294
			C1596.348,398.342,1596.004,398.478,1595.326,398.744z"/>
		<path d="M1603.211,376.997c0.595-3.738,1.053-6.757,1.407-9.392c0.675-0.262,1.016-0.395,1.704-0.664
			c-0.294,2.107-0.458,3.255-0.789,5.582c0.018-0.007,0.026-0.01,0.044-0.017c1.069-3.583,2.785-7.037,4.619-7.757
			c1.537-0.604,3.555,1.131,1.555,13.213c-1.393,8.412-2.142,12.906-2.558,15.257c-0.823,0.331-1.23,0.495-2.037,0.818
			c0.391-2.237,1.088-6.441,2.416-14.505c0.929-5.638,1.036-10.254-0.853-9.501c-1.318,0.525-2.778,3.962-3.716,7.715
			c-0.213,0.85-0.443,1.987-0.62,3.083c-1.371,8.513-2.111,13.069-2.479,15.309c-0.757,0.302-1.129,0.45-1.866,0.743
			C1600.463,394.207,1601.531,387.553,1603.211,376.997z"/>
		<path d="M1621.244,354.011c-0.357,2.211-0.63,3.871-1.23,7.509c1.246-0.499,1.873-0.75,3.141-1.259
			c-0.289,1.748-0.445,2.686-0.764,4.602c-1.269,0.515-1.896,0.77-3.143,1.274c-1.242,7.483-2.025,12.183-3.053,18.248
			c-0.59,3.487-0.37,4.43,0.85,3.93c0.571-0.234,1.016-0.524,1.313-0.758c-0.143,1.042-0.196,1.464-0.262,2.033
			c-0.453,0.327-1.146,0.688-1.989,1.027c-1.014,0.408-1.782,0.516-2.175,0.064c-0.437-0.502-0.426-1.974,0.128-5.253
			c1.026-6.075,1.822-10.854,3.078-18.438c-0.731,0.295-1.095,0.443-1.816,0.734c0.318-1.928,0.474-2.875,0.763-4.636
			c0.723-0.288,1.086-0.433,1.817-0.725c0.501-3.044,0.732-4.447,1.074-6.551C1619.882,355.069,1620.336,354.708,1621.244,354.011z"
			/>
		<path d="M1623.697,377.157c-1.306,8.025,0.425,8.399,2.725,7.457c1.646-0.675,2.725-1.501,3.705-2.483
			c-0.032,1.054-0.036,1.499-0.002,2.159c-0.892,0.737-2.354,1.632-4.36,2.44c-3.887,1.565-5.802,0.76-4.118-9.228
			s5.259-19.407,8.918-20.884c4.099-1.654,3.621,7.68,2.565,13.982c-0.214,1.274-0.427,2.255-0.555,2.87
			C1628.97,374.968,1627.186,375.709,1623.697,377.157z M1631.148,369.958c0.702-4.049,1.106-10.097-1.462-9.051
			c-2.311,0.941-4.3,7.332-5.22,11.816C1627.103,371.634,1628.443,371.079,1631.148,369.958z"/>
		<path d="M1636.827,364.627c0.69-4.161,1.249-7.698,1.639-10.554c0.817-0.332,1.229-0.5,2.049-0.833
			c-0.362,2.42-0.568,3.767-0.986,6.486c0.043-0.018,0.064-0.027,0.107-0.045c1.357-4.917,3.177-8.023,4.757-8.666
			c0.268-0.109,0.445-0.124,0.639-0.083c-0.333,2.082-0.521,3.229-0.902,5.572c-0.22-0.044-0.45-0.016-0.773,0.117
			c-1.663,0.682-3.411,4.582-4.508,9.474c-0.198,0.883-0.416,1.913-0.591,2.963c-1.204,7.235-1.82,10.879-2.233,13.335
			c-0.936,0.377-1.403,0.564-2.334,0.939C1634.224,380.201,1635.213,374.352,1636.827,364.627z"/>
		<path d="M1643.578,379.355c0.66-4.125,2.179-13.157,4.063-24.816c-0.732,0.3-1.098,0.451-1.829,0.75
			c0.305-1.876,0.451-2.794,0.724-4.5c0.729-0.297,1.095-0.445,1.825-0.742c0.093-0.585,0.141-0.872,0.229-1.429
			c0.648-4.11,1.414-6.712,2.616-8.094c0.975-1.121,2.126-1.607,3.218-2.044c0.825-0.33,1.537-0.543,1.982-0.62
			c-0.156,0.455-0.263,0.833-0.514,1.808c-0.32-0.063-0.782-0.026-1.449,0.242c-2.001,0.802-2.798,3.151-3.491,7.583
			c-0.098,0.622-0.147,0.943-0.252,1.602c1.257-0.512,1.888-0.768,3.144-1.279c-0.266,1.693-0.41,2.605-0.708,4.471
			c-1.259,0.516-1.892,0.774-3.151,1.291c-1.871,11.637-3.384,20.654-4.041,24.829
			C1644.997,378.786,1644.523,378.976,1643.578,379.355z"/>
		<path d="M1658.508,373.399c0.019-0.621,0.047-1.04,0.129-2.028c-0.032,0.013-0.051,0.021-0.083,0.034
			c-0.971,1.88-2.477,3.214-4.344,3.955c-2.648,1.05-3.747-0.126-3.131-3.939c1.03-6.372,4.748-13.028,9.734-15.016
			c0.046-0.285,0.068-0.428,0.114-0.714c0.459-2.883,0.966-7.83-1.684-6.746c-1.205,0.493-2.613,1.961-3.777,3.894
			c0.047-1.554,0.066-2.319,0.096-3.776c1.346-2.168,3.057-3.83,4.685-4.492c3.95-1.605,3.861,4.738,2.761,11.669
			c-0.822,5.175-1.25,7.828-1.851,11.659c-0.349,2.223-0.541,3.828-0.509,4.655C1659.795,372.889,1659.366,373.06,1658.508,373.399z
			 M1660.178,360.699c-2.547,0.918-5.774,3.903-6.624,9.187c-0.516,3.205,0.378,3.652,1.594,3.161c1.702-0.688,3.03-2.751,3.766-5.2
			c0.161-0.538,0.306-1.139,0.393-1.684C1659.628,364.141,1659.808,363.017,1660.178,360.699z"/>
		<path d="M1673.236,367.097c-0.641,0.628-1.991,1.562-3.673,2.214c-3.773,1.463-5.979,0.074-4.378-10.035
			c1.611-10.176,5.467-18.876,9.52-20.514c1.332-0.538,2.385-0.214,2.879,0.304c-0.46,1.817-0.704,2.786-1.197,4.761
			c-0.404-0.618-1.132-1.027-2.363-0.527c-2.851,1.158-5.361,7.815-6.453,14.741c-1.212,7.686,0.272,9.673,2.749,8.69
			c1.29-0.512,2.216-1.41,2.931-2.19C1673.213,365.748,1673.206,366.273,1673.236,367.097z"/>
		<path d="M1678.603,354.508c-1.203,8.033,0.469,8.859,2.591,8.037c1.52-0.589,2.484-1.408,3.362-2.395
			c-0.044,1.18-0.056,1.702-0.04,2.55c-0.794,0.774-2.091,1.696-3.947,2.397c-3.596,1.357-5.535-0.322-3.983-10.281
			s4.937-18.858,8.358-20.228c3.832-1.534,3.356,7.497,2.378,13.764c-0.198,1.267-0.396,2.249-0.515,2.867
			C1683.631,352.481,1681.983,353.143,1678.603,354.508z M1685.56,347.596c0.644-3.996,1.019-9.869-1.386-8.903
			c-2.163,0.869-4.016,7.014-4.864,11.42C1681.864,349.08,1683.117,348.575,1685.56,347.596z"/>
		<path d="M1693.289,323.965c0.887-0.555,2.254-1.226,3.603-1.756c1.925-0.756,3.11-0.934,3.864-0.13
			c0.592,0.631,0.861,2.136,0.409,5.212c-0.555,3.775-2.09,8.259-3.886,10.695c-0.009,0.056-0.011,0.083-0.02,0.139
			c1.178,0.612,2.032,4.188,0.971,10.781c-0.615,3.823-1.443,6.392-2.369,8.137c-1.227,2.314-2.858,3.349-5.25,4.216
			c-1.305,0.474-2.318,0.731-2.957,0.844C1689.525,349.392,1691.773,336.728,1693.289,323.965z M1693.228,337.858
			c0.707-0.279,1.057-0.418,1.75-0.691c2.019-0.794,3.7-4.78,4.266-8.632c0.688-4.683-0.506-5.025-2.448-4.264
			c-0.882,0.346-1.416,0.667-1.745,0.914C1694.624,328.723,1694.163,331.781,1693.228,337.858z M1689.961,358.843
			c0.355-0.002,0.898-0.16,1.568-0.411c1.951-0.73,3.804-2.425,4.833-8.873c0.967-6.057-0.188-8.457-2.271-7.637
			c-0.632,0.249-0.952,0.375-1.596,0.629C1691.342,349.925,1690.674,354.052,1689.961,358.843z"/>
		<path d="M1709.04,341.973c-4.103,7.765-6.297,11.751-10.295,16.223c0.139-0.946,0.229-1.541,0.442-2.89
			c3.615-4.916,5.505-8.297,9.064-14.859c0.01-0.056,0.015-0.086,0.024-0.142c-1.61-4.705-2.549-7.265-4.883-11.103
			c0.274-1.772,0.402-2.614,0.624-4.13c2.919,3.811,3.988,7.006,5.728,12.873C1709.461,339.573,1709.318,340.387,1709.04,341.973z"
			/>
	</g>
</g>
<g>
	<g>
		<path d="M1199.293,888.119c2.661-9.528,4.696-14.836,9.372-24.213c0.029,2.032,0.051,3.106,0.1,5.331
			c-3.864,8.249-5.579,12.664-8.097,20.704c0.003,0.069,0.006,0.103,0.009,0.172c3.114,5.844,4.858,8.699,8.692,12.914
			c-0.015,2.189-0.031,3.246-0.088,5.232c-4.379-4.471-6.337-8.019-9.75-15.377C1199.44,890.979,1199.392,890.021,1199.293,888.119z
			"/>
		<path d="M1213.392,865.258c0.849,7.42,1.367,11.888,2.257,20.126c0.487,4.521,0.911,8.611,1.156,12.448
			c0.034-0.019,0.054-0.026,0.088-0.045c0.339-4.075,0.76-8.787,1.146-13.578c0.771-9.118,1.08-13.977,1.872-22.297
			c0.889-0.464,1.339-0.7,2.246-1.178c1.092,7.181,1.733,11.428,2.903,19.233c0.701,4.675,1.235,8.689,1.612,12.288
			c0.039-0.022,0.061-0.034,0.1-0.057c0.246-3.956,0.588-8.46,0.973-13.625c0.664-8.812,0.914-13.494,1.564-21.644
			c1.123-0.603,1.688-0.909,2.826-1.523c-1.198,14.105-2.107,28.262-4.174,42.276c-1.071,0.632-1.604,0.94-2.65,1.553
			c-0.823-5.879-1.371-9.624-2.474-17.09c-0.636-4.366-1.19-8.394-1.686-13.043c-0.024,0.013-0.032,0.019-0.057,0.031
			c-0.236,5.126-0.577,9.801-1.003,14.585c-0.791,8.494-1.202,12.812-2.325,19.872c-0.953,0.541-1.42,0.805-2.336,1.316
			c-1.284-12.831-2.86-25.634-4.492-38.425C1211.9,866.008,1212.392,865.762,1213.392,865.258z"/>
		<path d="M1245.787,887.02c-0.125-1.541-0.195-2.354-0.35-4.043c-0.043,0.025-0.065,0.037-0.108,0.063
			c-0.881,3.302-2.741,6.638-5.206,8.122c-3.496,2.106-5.199-1.526-5.337-7.073c-0.229-9.268,2.957-16.951,9.415-20.478
			c-0.02-0.329-0.028-0.493-0.048-0.822c-0.195-3.321-0.925-8.987-4.266-7.161c-1.52,0.83-3.041,2.82-4.099,5.268
			c-0.354-1.779-0.531-2.661-0.875-4.386c1.238-2.812,3.107-5.17,5.148-6.284c4.955-2.705,6.693,4.638,7.199,12.611
			c0.378,5.953,0.57,8.972,0.826,14.426c0.148,3.165,0.319,6.003,0.579,8.02C1247.516,885.977,1246.938,886.325,1245.787,887.02z
			 M1244.559,868.614c-3.35,1.728-6.983,5.479-6.749,12.915c0.142,4.511,1.489,5.608,3.086,4.659c2.234-1.328,3.59-5.05,3.941-8.509
			c0.077-0.754,0.107-1.578,0.073-2.291C1244.783,872.74,1244.712,871.37,1244.559,868.614z"/>
		<path d="M1250.225,829.458c1.147-0.667,1.72-1.002,2.863-1.667c0.833,17.583,2.728,35.092,3.547,52.676
			c-1.25,0.755-1.881,1.135-3.141,1.896C1252.789,864.703,1250.954,847.116,1250.225,829.458z"/>
		<path d="M1257.882,825.001c1.132-0.658,1.696-0.985,2.817-1.638c1.048,17.406,3.108,34.73,4.186,52.135
			c-1.203,0.722-1.809,1.088-3.033,1.824C1260.857,859.856,1258.86,842.468,1257.882,825.001z"/>
		<path d="M1272.233,855.779c-0.265,6.877-0.423,10.234-1.001,15.931c-1.168,0.693-1.763,1.047-2.963,1.764
			c1.772-17.841,1.788-35.828,2.834-53.719c1.272-0.721,1.9-1.075,3.141-1.775c3.634,15.222,7.326,30.431,10.908,45.665
			c-0.954,0.532-1.447,0.813-2.462,1.39c-1.133-4.585-1.828-7.381-3.272-13.228C1276.684,853.297,1275.232,854.101,1272.233,855.779
			z M1278.386,846.951c-1.363-5.538-2.086-8.479-3.447-14.042c-0.775-3.157-1.346-6.008-1.882-8.655
			c-0.024,0.014-0.038,0.018-0.063,0.031c-0.059,3.046-0.106,6.313-0.195,9.678c-0.223,6.436-0.291,9.816-0.513,16.307
			C1274.813,848.881,1276.04,848.213,1278.386,846.951z"/>
		<path d="M1295.637,841.716c-2.63,8.389-4.162,12.657-8.27,20.708c-0.1-1.63-0.157-2.492-0.293-4.283
			c3.436-7.144,4.821-10.801,7.277-17.996c-0.004-0.06-0.006-0.09-0.009-0.149c-3.136-4.809-5.287-7.094-9.896-11.149
			c-0.19-2.156-0.284-3.231-0.457-5.354c5.44,4.818,8.022,7.733,11.445,13.916C1295.518,839.154,1295.561,840.019,1295.637,841.716z
			"/>
	</g>
</g>
<g>
	<g>
		<path fill="none" stroke="#000000" stroke-miterlimit="10" d="M961.652,879.816c96.21-0.283,129.312,65.76,218.297,22.658"/>
		<g>
			<polygon points="1179.039,906.99 1178.818,902.973 1175.772,900.344 1185.284,899.795 			"/>
		</g>
	</g>
</g>
<g>
	<g>
		<path fill="none" stroke="#000000" stroke-miterlimit="10" d="M1028.951,751.551c96.166-0.283,61.871,172.951,148.097,134.215"/>
		<g>
			<polygon points="1176.081,890.268 1175.914,886.248 1172.904,883.578 1182.422,883.156 			"/>
		</g>
	</g>
</g>
<g>
	<g>
		<path fill="none" stroke="#000000" stroke-miterlimit="10" d="M958.148,317.306c29.355-6.281,66.268,6.023,96.362,6.023"/>
		<g>
			<polygon points="961.791,320.285 959.366,317.074 959.994,313.1 952.377,318.821 			"/>
		</g>
	</g>
</g>
<g>
	<g>
		<path fill="none" stroke="#000000" stroke-miterlimit="10" d="M1617.882,267.305c35.689-25.358-147.353-83.962-35.769-83.962"/>
		<g>
			<polygon points="1622.086,269.026 1618.89,266.582 1618.431,262.585 1612.623,270.138 			"/>
		</g>
	</g>
</g>
<path fill="none" stroke="#000000" stroke-miterlimit="10" d="M1722.044,332.784c55.806-23.489,133.132-149.441,54.423-149.441"/>
<path fill="none" stroke="#000000" stroke-miterlimit="10" d="M1248.864,323.329c133.258,0,64.565,173.671-34.362,214.719"/>
<path fill="none" stroke="#000000" stroke-miterlimit="10" d="M800.146,361.495c-146.611,53.607-254.176,518.322-91.448,518.322"/>
<path fill="none" stroke="#000000" stroke-miterlimit="10" d="M1461.81,318.821C735.593,466.012,545.971,878.912,708.698,878.912"/>
<path fill="none" stroke="#000000" stroke-miterlimit="10" d="M1073.142,590.146c-117.001,24.447-335.72,161.404-238.544,161.404"/>
<path fill="none" stroke="#000000" stroke-miterlimit="10" d="M1573.006,395.414c-139.006,54.586,243.202,421.883,98,421.883"/>
<g>
	
		<rect x="707.544" y="858.744" fill="#EDEDED" stroke="#000000" stroke-width="0.3" stroke-miterlimit="10" width="254.108" height="42.143"/>
	<g>
		<path d="M732.179,887.621c-1.24,1.24-2.76,1.859-4.56,1.859c-2.061,0-3.75-0.83-5.07-2.49v2.281h-1.23V867.07h1.23v12.121
			c1.3-1.66,2.99-2.49,5.07-2.49c1.8,0,3.31,0.609,4.53,1.83c1.24,1.24,1.86,2.76,1.86,4.561
			C734.009,884.891,733.399,886.4,732.179,887.621z M731.279,879.432c-1.02-1.021-2.24-1.531-3.66-1.531c-1.44,0-2.66,0.5-3.66,1.5
			c-1.02,1.021-1.53,2.25-1.53,3.691c0,1.42,0.51,2.639,1.53,3.66c1.02,1.02,2.24,1.529,3.66,1.529c1.44,0,2.66-0.5,3.66-1.5
			c1.02-1.02,1.53-2.25,1.53-3.689C732.81,881.672,732.299,880.451,731.279,879.432z"/>
		<path d="M747.179,887.621c-1.24,1.24-2.76,1.859-4.56,1.859c-1.8,0-3.31-0.609-4.53-1.83c-1.24-1.238-1.86-2.76-1.86-4.559
			c0-1.781,0.62-3.291,1.86-4.531c1.22-1.26,2.73-1.889,4.53-1.889c1.78,0,3.29,0.619,4.53,1.859c1.24,1.24,1.86,2.76,1.86,4.561
			C749.009,884.891,748.399,886.4,747.179,887.621z M746.309,879.4c-1-1.02-2.23-1.529-3.69-1.529c-1.4,0-2.61,0.52-3.63,1.561
			c-1.04,1.039-1.56,2.26-1.56,3.66c0,1.42,0.51,2.639,1.53,3.66c1.02,1.02,2.24,1.529,3.66,1.529c1.44,0,2.66-0.5,3.66-1.5
			c1.02-1.02,1.53-2.25,1.53-3.689C747.809,881.631,747.309,880.4,746.309,879.4z"/>
		<path d="M753.958,878.111v11.16h-1.23v-11.16h-1.68v-1.23h1.68v-5.43h1.23v5.43h2.88v1.23H753.958z"/>
		<path d="M760.139,880.602c-0.22,0-0.45-0.09-0.69-0.271c-0.18-0.18-0.28-0.42-0.3-0.719c0-0.541,0.33-0.871,0.99-0.99
			c0.5,0,0.83,0.33,0.99,0.99C761.128,880.271,760.799,880.602,760.139,880.602z M760.139,889.451c-0.22,0-0.45-0.09-0.69-0.27
			c-0.18-0.18-0.28-0.42-0.3-0.721c0-0.539,0.33-0.869,0.99-0.99c0.5,0,0.83,0.33,0.99,0.99
			C761.128,889.121,760.799,889.451,760.139,889.451z"/>
		<path d="M774.898,889.271v-2.131c-1.3,1.561-2.951,2.34-4.95,2.34c-1.8,0-3.31-0.609-4.53-1.83c-1.24-1.238-1.86-2.76-1.86-4.559
			c0-1.801,0.61-3.311,1.83-4.531c1.24-1.24,2.76-1.859,4.56-1.859c1.98,0,3.63,0.779,4.95,2.34v-2.16h1.23v12.391H774.898z
			 M773.608,879.432c-1.02-1.021-2.24-1.531-3.66-1.531c-1.44,0-2.66,0.5-3.66,1.5c-1.02,1.021-1.53,2.25-1.53,3.691
			c0,1.42,0.51,2.639,1.53,3.66c1.02,1.02,2.24,1.529,3.66,1.529c1.44,0,2.66-0.5,3.66-1.5c1.02-1.02,1.53-2.25,1.53-3.689
			C775.138,881.672,774.628,880.451,773.608,879.432z"/>
		<path d="M790.528,889.271v-2.221c-1.32,1.621-3,2.43-5.04,2.43c-1.8,0-3.311-0.609-4.53-1.83c-1.24-1.238-1.86-2.76-1.86-4.559
			c0-1.801,0.61-3.311,1.83-4.531c1.24-1.24,2.76-1.859,4.56-1.859c1.98,0,3.66,0.811,5.04,2.43V867.07h1.23v22.201H790.528z
			 M789.148,879.432c-1.02-1.021-2.24-1.531-3.66-1.531c-1.44,0-2.66,0.5-3.66,1.5c-1.02,1.021-1.53,2.25-1.53,3.691
			c0,1.42,0.51,2.639,1.53,3.66c1.02,1.02,2.24,1.529,3.66,1.529c1.44,0,2.66-0.5,3.66-1.5c1.02-1.02,1.53-2.25,1.53-3.689
			C790.678,881.672,790.168,880.451,789.148,879.432z"/>
		<path d="M796.258,874.66c-0.22,0-0.45-0.09-0.69-0.27c-0.18-0.18-0.28-0.42-0.3-0.719c0-0.541,0.33-0.871,0.99-0.99
			c0.5,0,0.83,0.33,0.99,0.99C797.248,874.33,796.918,874.66,796.258,874.66z M795.658,894.672v-17.791h1.23v17.791H795.658z"/>
		<path d="M811.378,889.271v-2.131c-1.3,1.561-2.951,2.34-4.95,2.34c-1.8,0-3.31-0.609-4.53-1.83c-1.24-1.238-1.86-2.76-1.86-4.559
			c0-1.801,0.61-3.311,1.83-4.531c1.24-1.24,2.76-1.859,4.56-1.859c1.98,0,3.63,0.779,4.95,2.34v-2.16h1.23v12.391H811.378z
			 M810.088,879.432c-1.02-1.021-2.24-1.531-3.66-1.531c-1.44,0-2.66,0.5-3.66,1.5c-1.02,1.021-1.53,2.25-1.53,3.691
			c0,1.42,0.51,2.639,1.53,3.66c1.02,1.02,2.24,1.529,3.66,1.529c1.44,0,2.66-0.5,3.66-1.5c1.02-1.02,1.53-2.25,1.53-3.689
			C811.618,881.672,811.108,880.451,810.088,879.432z"/>
		<path d="M822.118,889.512c-1.84,0-3.371-0.611-4.59-1.83c-1.22-1.221-1.83-2.75-1.83-4.59s0.61-3.371,1.83-4.59
			c1.219-1.221,2.75-1.83,4.59-1.83c1.58,0,2.84,0.359,3.78,1.08v1.469l-0.78-0.51l-0.84-0.449c-0.761-0.26-1.48-0.391-2.16-0.391
			c-1.541,0-2.79,0.48-3.75,1.439c-0.98,0.98-1.47,2.24-1.47,3.781c0,1.52,0.49,2.77,1.47,3.75c0.979,0.979,2.23,1.469,3.75,1.469
			c1.44,0,2.7-0.48,3.78-1.439v1.529C824.777,889.141,823.517,889.512,822.118,889.512z"/>
		<path d="M827.878,882.82c0,1.682,0.45,3.012,1.35,3.99c0.94,1,2.23,1.5,3.87,1.5c0.84,0,1.6-0.139,2.28-0.42
			c0.859-0.359,1.629-1.09,2.31-2.189l1.11,0.51c-0.78,1.48-1.98,2.48-3.6,3c-0.62,0.199-1.32,0.301-2.1,0.301
			c-1.86,0-3.39-0.611-4.59-1.83c-1.22-1.221-1.83-2.75-1.83-4.59c0-1.861,0.6-3.391,1.8-4.59c1.22-1.221,2.76-1.83,4.62-1.83
			c1.84,0,3.36,0.568,4.56,1.709c1.22,1.141,1.83,2.621,1.83,4.439H827.878z M836.338,878.891c-0.94-0.68-2.021-1.02-3.24-1.02
			c-2.56,0-4.24,1.26-5.04,3.779h10.05C837.908,880.512,837.317,879.592,836.338,878.891z"/>
		<path d="M850.677,889.271v-7.41c0-2.621-1.18-3.93-3.54-3.93c-1.16,0-2.04,0.34-2.64,1.02c-0.62,0.68-0.93,1.609-0.93,2.789v7.531
			h-1.23v-12.391h1.23v1.5c0.56-1.1,1.75-1.65,3.57-1.65c1.54,0,2.72,0.441,3.54,1.32c0.82,0.881,1.23,2.111,1.23,3.689v7.531
			H850.677z"/>
		<path d="M857.727,878.111v11.16h-1.23v-11.16h-1.68v-1.23h1.68v-5.43h1.23v5.43h2.88v1.23H857.727z"/>
		<path d="M863.518,889.271v-21.42h10.289v1.229h-9.06v7.801h9.06v1.32h-9.06v9.84h9.06v1.23H863.518z"/>
		<path d="M876.357,889.271V867.07h1.199v22.201H876.357z"/>
		<path d="M882.027,882.82c0,1.682,0.449,3.012,1.35,3.99c0.939,1,2.23,1.5,3.87,1.5c0.84,0,1.601-0.139,2.28-0.42
			c0.859-0.359,1.629-1.09,2.31-2.189l1.11,0.51c-0.78,1.48-1.98,2.48-3.6,3c-0.621,0.199-1.32,0.301-2.101,0.301
			c-1.86,0-3.39-0.611-4.59-1.83c-1.22-1.221-1.83-2.75-1.83-4.59c0-1.861,0.601-3.391,1.8-4.59c1.22-1.221,2.76-1.83,4.62-1.83
			c1.84,0,3.36,0.568,4.56,1.709c1.221,1.141,1.83,2.621,1.83,4.439H882.027z M890.487,878.891c-0.94-0.68-2.021-1.02-3.24-1.02
			c-2.56,0-4.24,1.26-5.04,3.779h10.051C892.057,880.512,891.467,879.592,890.487,878.891z"/>
		<path d="M910.586,889.271v-8.551c0-0.76-0.25-1.42-0.75-1.98c-0.5-0.559-1.22-0.84-2.16-0.84c-1.939,0-2.91,0.941-2.91,2.82v8.551
			h-1.229v-8.551c0-0.84-0.28-1.51-0.84-2.01c-0.58-0.539-1.271-0.811-2.069-0.811c-0.82,0-1.511,0.262-2.07,0.781
			c-0.561,0.5-0.84,1.18-0.84,2.039v8.551h-1.23v-12.391h1.23v1.23c0.6-0.939,1.569-1.41,2.91-1.41c1.6,0,2.779,0.65,3.539,1.949
			c0.721-1.299,1.891-1.949,3.51-1.949c1.24,0,2.24,0.35,3,1.051c0.76,0.719,1.141,1.709,1.141,2.969v8.551H910.586z"/>
		<path d="M916.017,882.82c0,1.682,0.45,3.012,1.35,3.99c0.94,1,2.229,1.5,3.87,1.5c0.84,0,1.6-0.139,2.28-0.42
			c0.859-0.359,1.63-1.09,2.31-2.189l1.11,0.51c-0.78,1.48-1.979,2.48-3.601,3c-0.619,0.199-1.319,0.301-2.1,0.301
			c-1.859,0-3.391-0.611-4.59-1.83c-1.221-1.221-1.83-2.75-1.83-4.59c0-1.861,0.6-3.391,1.8-4.59c1.22-1.221,2.761-1.83,4.62-1.83
			c1.84,0,3.359,0.568,4.561,1.709c1.219,1.141,1.83,2.621,1.83,4.439H916.017z M924.477,878.891c-0.94-0.68-2.021-1.02-3.24-1.02
			c-2.561,0-4.24,1.26-5.04,3.779h10.05C926.047,880.512,925.456,879.592,924.477,878.891z"/>
		<path d="M938.815,889.271v-7.41c0-2.621-1.181-3.93-3.54-3.93c-1.16,0-2.039,0.34-2.64,1.02c-0.62,0.68-0.931,1.609-0.931,2.789
			v7.531h-1.229v-12.391h1.229v1.5c0.561-1.1,1.75-1.65,3.57-1.65c1.54,0,2.72,0.441,3.54,1.32c0.819,0.881,1.229,2.111,1.229,3.689
			v7.531H938.815z"/>
		<path d="M945.865,878.111v11.16h-1.229v-11.16h-1.68v-1.23h1.68v-5.43h1.229v5.43h2.881v1.23H945.865z"/>
	</g>
</g>
<g>
	<g>
		<path fill="none" stroke="#000000" stroke-miterlimit="10" d="M1310.901,837.705c53.251-21.547,164.558-20.396,164.558-20.396"/>
		<g>
			<polygon points="1314.96,840.047 1312.056,837.264 1312.045,833.24 1305.433,840.1 			"/>
		</g>
	</g>
</g>
<g>
	
		<rect x="834.598" y="730.48" fill="#EDEDED" stroke="#000000" stroke-width="0.3" stroke-miterlimit="10" width="194.354" height="42.143"/>
	<g>
		<path d="M857.975,759.355c-1.24,1.24-2.76,1.861-4.56,1.861c-2.061,0-3.75-0.83-5.07-2.49v2.279h-1.23v-22.199h1.23v12.119
			c1.3-1.66,2.99-2.49,5.07-2.49c1.8,0,3.31,0.611,4.53,1.83c1.24,1.24,1.86,2.76,1.86,4.561S859.194,758.137,857.975,759.355z
			 M857.075,751.166c-1.02-1.02-2.24-1.529-3.66-1.529c-1.44,0-2.66,0.5-3.66,1.5c-1.02,1.02-1.53,2.25-1.53,3.689
			c0,1.42,0.51,2.641,1.53,3.66s2.24,1.529,3.66,1.529c1.44,0,2.66-0.498,3.66-1.5c1.02-1.02,1.53-2.25,1.53-3.689
			C858.605,753.406,858.095,752.186,857.075,751.166z"/>
		<path d="M872.975,759.355c-1.24,1.24-2.76,1.861-4.561,1.861c-1.799,0-3.31-0.609-4.529-1.83c-1.24-1.24-1.86-2.76-1.86-4.561
			c0-1.779,0.62-3.289,1.86-4.529c1.22-1.26,2.73-1.891,4.529-1.891c1.78,0,3.29,0.621,4.531,1.859
			c1.239,1.24,1.859,2.76,1.859,4.561S874.194,758.137,872.975,759.355z M872.104,751.137c-1-1.02-2.229-1.531-3.69-1.531
			c-1.399,0-2.609,0.521-3.629,1.561c-1.041,1.041-1.561,2.26-1.561,3.66c0,1.42,0.51,2.641,1.529,3.66
			c1.021,1.02,2.24,1.529,3.66,1.529c1.44,0,2.66-0.498,3.66-1.5c1.021-1.02,1.53-2.25,1.53-3.689
			C873.604,753.367,873.104,752.137,872.104,751.137z"/>
		<path d="M879.754,749.846v11.16h-1.23v-11.16h-1.68v-1.229h1.68v-5.432h1.23v5.432h2.881v1.229H879.754z"/>
		<path d="M885.934,752.336c-0.22,0-0.449-0.09-0.689-0.27c-0.18-0.18-0.28-0.42-0.301-0.721c0-0.539,0.33-0.869,0.99-0.99
			c0.5,0,0.83,0.33,0.99,0.99C886.924,752.006,886.594,752.336,885.934,752.336z M885.934,761.186c-0.22,0-0.449-0.09-0.689-0.27
			c-0.18-0.18-0.28-0.42-0.301-0.719c0-0.541,0.33-0.871,0.99-0.99c0.5,0,0.83,0.33,0.99,0.99
			C886.924,760.855,886.594,761.186,885.934,761.186z"/>
		<path d="M891.123,746.396c-0.22,0-0.449-0.09-0.689-0.27c-0.18-0.18-0.28-0.42-0.3-0.721c0-0.539,0.33-0.869,0.989-0.99
			c0.5,0,0.83,0.33,0.99,0.99C892.113,746.066,891.783,746.396,891.123,746.396z M890.494,761.006v-12.389h1.229v12.389H890.494z"/>
		<path d="M902.703,761.006v-7.41c0-2.619-1.18-3.93-3.539-3.93c-1.16,0-2.04,0.34-2.641,1.02c-0.619,0.682-0.93,1.611-0.93,2.791
			v7.529h-1.23v-12.389h1.23v1.5c0.56-1.1,1.75-1.65,3.57-1.65c1.539,0,2.719,0.439,3.539,1.32c0.82,0.879,1.23,2.109,1.23,3.689
			v7.529H902.703z"/>
		<path d="M909.754,749.846v11.16h-1.23v-11.16h-1.68v-1.229h1.68v-5.432h1.23v5.432h2.88v1.229H909.754z"/>
		<path d="M915.634,754.557c0,1.68,0.45,3.01,1.35,3.99c0.94,1,2.229,1.5,3.87,1.5c0.84,0,1.6-0.141,2.28-0.42
			c0.859-0.361,1.63-1.09,2.31-2.191l1.11,0.512c-0.78,1.479-1.979,2.479-3.601,3c-0.619,0.199-1.319,0.299-2.1,0.299
			c-1.859,0-3.391-0.609-4.59-1.83c-1.221-1.219-1.83-2.75-1.83-4.59c0-1.859,0.6-3.391,1.8-4.59c1.22-1.219,2.761-1.83,4.62-1.83
			c1.84,0,3.359,0.57,4.561,1.711c1.219,1.139,1.83,2.619,1.83,4.439H915.634z M924.094,750.627c-0.94-0.68-2.021-1.021-3.24-1.021
			c-2.561,0-4.24,1.262-5.04,3.781h10.05C925.664,752.246,925.073,751.326,924.094,750.627z"/>
		<path d="M935.943,750.447c-0.32-0.24-0.66-0.432-1.02-0.57c-0.36-0.141-0.74-0.211-1.141-0.211c-0.34,0-0.66,0.105-0.96,0.314
			c-0.3,0.211-0.56,0.471-0.78,0.781s-0.395,0.654-0.525,1.035c-0.129,0.379-0.194,0.73-0.194,1.049v8.16h-1.229v-12.389h1.229v1.68
			c0.26-0.461,0.601-0.881,1.021-1.26c0.42-0.381,0.879-0.57,1.379-0.57c0.62,0,1.131,0.07,1.531,0.209
			c0.399,0.141,0.85,0.391,1.35,0.75L935.943,750.447z"/>
		<path d="M944.104,740.037l-0.811-0.09c-1.12,0-1.68,0.658-1.68,1.979v6.691h2.939v1.229h-2.939v11.16h-1.23v-11.16h-1.68v-1.229
			h1.68v-7.051c0-1.9,0.961-2.85,2.881-2.85c0.439,0,0.719,0.02,0.84,0.059c0.24,0,0.51,0.07,0.81,0.211v1.23L944.104,740.037z"/>
		<path d="M956.313,761.006v-2.129c-1.3,1.559-2.95,2.34-4.95,2.34c-1.8,0-3.311-0.609-4.529-1.83
			c-1.24-1.24-1.861-2.76-1.861-4.561s0.61-3.311,1.83-4.529c1.24-1.24,2.761-1.861,4.561-1.861c1.98,0,3.63,0.781,4.95,2.34v-2.158
			h1.229v12.389H956.313z M955.023,751.166c-1.02-1.02-2.24-1.529-3.66-1.529c-1.439,0-2.66,0.5-3.66,1.5
			c-1.02,1.02-1.529,2.25-1.529,3.689c0,1.42,0.51,2.641,1.529,3.66s2.24,1.529,3.66,1.529c1.439,0,2.66-0.498,3.66-1.5
			c1.02-1.02,1.529-2.25,1.529-3.689C956.553,753.406,956.043,752.186,955.023,751.166z"/>
		<path d="M967.053,761.246c-1.84,0-3.37-0.609-4.59-1.83c-1.22-1.219-1.83-2.75-1.83-4.59s0.61-3.369,1.83-4.59
			c1.22-1.219,2.75-1.83,4.59-1.83c1.58,0,2.84,0.359,3.78,1.08v1.471l-0.78-0.51l-0.84-0.451c-0.76-0.26-1.48-0.391-2.16-0.391
			c-1.54,0-2.789,0.48-3.75,1.441c-0.98,0.98-1.47,2.24-1.47,3.779c0,1.52,0.489,2.77,1.47,3.75s2.23,1.471,3.75,1.471
			c1.44,0,2.7-0.48,3.78-1.441v1.531C969.713,760.877,968.453,761.246,967.053,761.246z"/>
		<path d="M972.813,754.557c0,1.68,0.45,3.01,1.35,3.99c0.94,1,2.23,1.5,3.871,1.5c0.84,0,1.6-0.141,2.279-0.42
			c0.859-0.361,1.63-1.09,2.311-2.191l1.109,0.512c-0.779,1.479-1.979,2.479-3.6,3c-0.62,0.199-1.32,0.299-2.1,0.299
			c-1.86,0-3.391-0.609-4.59-1.83c-1.221-1.219-1.83-2.75-1.83-4.59c0-1.859,0.6-3.391,1.799-4.59
			c1.221-1.219,2.761-1.83,4.621-1.83c1.84,0,3.359,0.57,4.56,1.711c1.22,1.139,1.83,2.619,1.83,4.439H972.813z M981.273,750.627
			c-0.941-0.68-2.021-1.021-3.24-1.021c-2.561,0-4.24,1.262-5.041,3.781h10.051C982.843,752.246,982.252,751.326,981.273,750.627z"
			/>
		<path d="M1005.752,758.217c-2.06,2.061-4.709,3.09-7.949,3.09s-5.881-1.02-7.92-3.061c-2.061-2.059-3.09-4.709-3.09-7.949
			s1.02-5.881,3.06-7.92c2.06-2.061,4.71-3.09,7.95-3.09c3.22,0,5.869,1.02,7.949,3.059c2.061,2.061,3.09,4.711,3.09,7.951
			S1007.813,756.176,1005.752,758.217z M1004.883,743.246c-1.841-1.84-4.2-2.76-7.08-2.76c-2.84,0-5.18,0.92-7.02,2.76
			c-1.841,1.84-2.761,4.189-2.761,7.051c0,2.859,0.909,5.199,2.729,7.02c1.84,1.84,4.19,2.76,7.051,2.76
			c2.88,0,5.239-0.9,7.08-2.699c1.819-1.82,2.729-4.18,2.729-7.08C1007.612,747.416,1006.702,745.066,1004.883,743.246z"/>
		<path d="M1016.643,740.037l-0.811-0.09c-1.12,0-1.68,0.658-1.68,1.979v6.691h2.939v1.229h-2.939v11.16h-1.23v-11.16h-1.68v-1.229
			h1.68v-7.051c0-1.9,0.961-2.85,2.881-2.85c0.439,0,0.719,0.02,0.84,0.059c0.24,0,0.51,0.07,0.81,0.211v1.23L1016.643,740.037z"/>
	</g>
</g>
<g>
	
		<rect x="1054.511" y="302.258" fill="#EDEDED" stroke="#000000" stroke-width="0.3" stroke-miterlimit="10" width="194.354" height="42.143"/>
	<g>
		<path d="M1077.888,331.133c-1.24,1.24-2.76,1.86-4.56,1.86c-2.061,0-3.75-0.83-5.07-2.49v2.28h-1.23v-22.2h1.23v12.12
			c1.3-1.66,2.99-2.49,5.07-2.49c1.8,0,3.31,0.61,4.529,1.83c1.24,1.24,1.86,2.76,1.86,4.561
			C1079.718,328.404,1079.107,329.914,1077.888,331.133z M1076.988,322.944c-1.021-1.021-2.24-1.53-3.66-1.53
			c-1.44,0-2.66,0.5-3.66,1.5c-1.02,1.021-1.53,2.25-1.53,3.69c0,1.42,0.511,2.64,1.53,3.66c1.02,1.02,2.24,1.529,3.66,1.529
			c1.439,0,2.66-0.499,3.66-1.5c1.02-1.02,1.529-2.25,1.529-3.689C1078.518,325.184,1078.008,323.963,1076.988,322.944z"/>
		<path d="M1092.888,331.133c-1.24,1.24-2.76,1.86-4.56,1.86c-1.801,0-3.311-0.609-4.53-1.83c-1.24-1.239-1.86-2.76-1.86-4.56
			c0-1.78,0.62-3.29,1.86-4.53c1.22-1.26,2.729-1.89,4.53-1.89c1.779,0,3.289,0.62,4.529,1.859c1.24,1.24,1.86,2.76,1.86,4.561
			C1094.718,328.404,1094.107,329.914,1092.888,331.133z M1092.018,322.914c-1-1.02-2.23-1.53-3.689-1.53
			c-1.4,0-2.61,0.521-3.631,1.561c-1.039,1.04-1.56,2.26-1.56,3.66c0,1.42,0.51,2.64,1.53,3.66c1.02,1.02,2.239,1.529,3.66,1.529
			c1.439,0,2.659-0.499,3.66-1.5c1.02-1.02,1.529-2.25,1.529-3.689C1093.518,325.144,1093.018,323.914,1092.018,322.914z"/>
		<path d="M1099.667,321.624v11.16h-1.229v-11.16h-1.68v-1.229h1.68v-5.431h1.229v5.431h2.88v1.229H1099.667z"/>
		<path d="M1105.848,324.114c-0.221,0-0.451-0.09-0.69-0.271c-0.181-0.18-0.28-0.42-0.3-0.72c0-0.54,0.33-0.87,0.99-0.99
			c0.499,0,0.829,0.33,0.989,0.99C1106.837,323.784,1106.508,324.114,1105.848,324.114z M1105.848,332.963
			c-0.221,0-0.451-0.09-0.69-0.27c-0.181-0.18-0.28-0.42-0.3-0.72c0-0.54,0.33-0.87,0.99-0.99c0.499,0,0.829,0.33,0.989,0.99
			C1106.837,332.633,1106.508,332.963,1105.848,332.963z"/>
		<path d="M1111.037,318.173c-0.221,0-0.45-0.09-0.69-0.27c-0.18-0.18-0.28-0.42-0.3-0.72c0-0.54,0.33-0.87,0.99-0.99
			c0.5,0,0.83,0.33,0.99,0.99C1112.027,317.843,1111.697,318.173,1111.037,318.173z M1110.406,332.784v-12.39h1.23v12.39H1110.406z"
			/>
		<path d="M1122.617,332.784v-7.41c0-2.62-1.181-3.93-3.541-3.93c-1.16,0-2.039,0.34-2.639,1.02c-0.621,0.681-0.931,1.61-0.931,2.79
			v7.53h-1.229v-12.39h1.229v1.5c0.56-1.1,1.75-1.65,3.569-1.65c1.541,0,2.721,0.44,3.541,1.32c0.819,0.88,1.229,2.11,1.229,3.689
			v7.53H1122.617z"/>
		<path d="M1129.666,321.624v11.16h-1.229v-11.16h-1.68v-1.229h1.68v-5.431h1.229v5.431h2.881v1.229H1129.666z"/>
		<path d="M1135.547,326.333c0,1.681,0.449,3.011,1.35,3.99c0.939,1,2.23,1.5,3.87,1.5c0.84,0,1.601-0.14,2.28-0.42
			c0.859-0.36,1.629-1.09,2.31-2.19l1.11,0.511c-0.78,1.479-1.98,2.479-3.6,3c-0.621,0.199-1.32,0.3-2.101,0.3
			c-1.86,0-3.39-0.61-4.59-1.83c-1.22-1.22-1.83-2.75-1.83-4.59c0-1.86,0.601-3.391,1.8-4.59c1.22-1.22,2.76-1.83,4.62-1.83
			c1.84,0,3.36,0.569,4.56,1.71c1.221,1.14,1.83,2.62,1.83,4.439H1135.547z M1144.007,322.404c-0.94-0.68-2.021-1.021-3.24-1.021
			c-2.56,0-4.24,1.261-5.04,3.78h10.051C1145.576,324.024,1144.986,323.104,1144.007,322.404z"/>
		<path d="M1155.856,322.224c-0.32-0.24-0.66-0.431-1.021-0.57c-0.359-0.14-0.74-0.21-1.14-0.21c-0.341,0-0.66,0.104-0.96,0.314
			s-0.561,0.471-0.779,0.78c-0.221,0.311-0.396,0.655-0.525,1.035c-0.131,0.38-0.195,0.73-0.195,1.05v8.16h-1.23v-12.39h1.23v1.68
			c0.26-0.46,0.6-0.88,1.02-1.26s0.881-0.57,1.381-0.57c0.619,0,1.129,0.07,1.529,0.21c0.4,0.141,0.85,0.39,1.351,0.75
			L1155.856,322.224z"/>
		<path d="M1164.016,311.814l-0.81-0.09c-1.12,0-1.68,0.659-1.68,1.979v6.69h2.94v1.229h-2.94v11.16h-1.229v-11.16h-1.681v-1.229
			h1.681v-7.051c0-1.899,0.959-2.85,2.879-2.85c0.439,0,0.721,0.021,0.84,0.06c0.24,0,0.511,0.07,0.811,0.211v1.229
			L1164.016,311.814z"/>
		<path d="M1176.227,332.784v-2.13c-1.301,1.56-2.951,2.34-4.95,2.34c-1.8,0-3.31-0.609-4.53-1.83
			c-1.24-1.239-1.859-2.76-1.859-4.56c0-1.801,0.609-3.311,1.83-4.53c1.239-1.24,2.76-1.86,4.56-1.86c1.979,0,3.63,0.78,4.95,2.34
			v-2.159h1.23v12.39H1176.227z M1174.937,322.944c-1.021-1.021-2.24-1.53-3.66-1.53c-1.44,0-2.66,0.5-3.66,1.5
			c-1.021,1.021-1.53,2.25-1.53,3.69c0,1.42,0.51,2.64,1.53,3.66c1.021,1.02,2.239,1.529,3.66,1.529c1.44,0,2.659-0.499,3.66-1.5
			c1.021-1.02,1.53-2.25,1.53-3.689C1176.467,325.184,1175.957,323.963,1174.937,322.944z"/>
		<path d="M1186.967,333.024c-1.841,0-3.371-0.61-4.59-1.83c-1.221-1.22-1.83-2.75-1.83-4.59s0.609-3.37,1.83-4.59
			c1.219-1.22,2.749-1.83,4.59-1.83c1.579,0,2.84,0.359,3.779,1.08v1.47l-0.779-0.51l-0.84-0.45c-0.762-0.26-1.48-0.391-2.16-0.391
			c-1.541,0-2.791,0.48-3.75,1.44c-0.98,0.98-1.471,2.24-1.471,3.78c0,1.52,0.49,2.77,1.471,3.75c0.979,0.979,2.229,1.47,3.75,1.47
			c1.439,0,2.699-0.48,3.779-1.44v1.53C1189.626,332.654,1188.365,333.024,1186.967,333.024z"/>
		<path d="M1192.727,326.333c0,1.681,0.449,3.011,1.35,3.99c0.939,1,2.229,1.5,3.869,1.5c0.84,0,1.601-0.14,2.281-0.42
			c0.859-0.36,1.629-1.09,2.309-2.19l1.111,0.511c-0.781,1.479-1.98,2.479-3.601,3c-0.62,0.199-1.319,0.3-2.101,0.3
			c-1.859,0-3.39-0.61-4.59-1.83c-1.22-1.22-1.83-2.75-1.83-4.59c0-1.86,0.601-3.391,1.801-4.59c1.219-1.22,2.76-1.83,4.619-1.83
			c1.84,0,3.36,0.569,4.561,1.71c1.22,1.14,1.83,2.62,1.83,4.439H1192.727z M1201.186,322.404c-0.939-0.68-2.02-1.021-3.24-1.021
			c-2.56,0-4.24,1.261-5.039,3.78h10.05C1202.756,324.024,1202.166,323.104,1201.186,322.404z"/>
		<path d="M1225.666,329.994c-2.061,2.061-4.711,3.09-7.951,3.09c-3.239,0-5.879-1.02-7.92-3.06c-2.06-2.06-3.09-4.71-3.09-7.95
			s1.021-5.88,3.061-7.92c2.06-2.06,4.71-3.09,7.949-3.09c3.221,0,5.871,1.02,7.951,3.06c2.059,2.061,3.09,4.71,3.09,7.95
			S1227.725,327.954,1225.666,329.994z M1224.795,315.024c-1.84-1.84-4.199-2.76-7.08-2.76c-2.84,0-5.18,0.92-7.02,2.76
			s-2.76,4.189-2.76,7.05s0.91,5.2,2.73,7.02c1.84,1.841,4.189,2.761,7.049,2.761c2.881,0,5.24-0.9,7.08-2.7
			c1.82-1.819,2.73-4.18,2.73-7.08C1227.525,319.194,1226.615,316.844,1224.795,315.024z"/>
		<path d="M1236.555,311.814l-0.81-0.09c-1.12,0-1.68,0.659-1.68,1.979v6.69h2.94v1.229h-2.94v11.16h-1.229v-11.16h-1.681v-1.229
			h1.681v-7.051c0-1.899,0.959-2.85,2.879-2.85c0.439,0,0.721,0.021,0.84,0.06c0.24,0,0.511,0.07,0.811,0.211v1.229
			L1236.555,311.814z"/>
	</g>
</g>
<g>
	
		<rect x="1582.113" y="162.271" fill="#EDEDED" stroke="#000000" stroke-width="0.3" stroke-miterlimit="10" width="194.354" height="42.143"/>
	<g>
		<path d="M1605.49,191.146c-1.24,1.24-2.76,1.86-4.56,1.86c-2.061,0-3.75-0.83-5.07-2.49v2.28h-1.229v-22.2h1.229v12.12
			c1.3-1.66,2.989-2.49,5.07-2.49c1.8,0,3.31,0.61,4.53,1.83c1.239,1.24,1.859,2.76,1.859,4.561
			C1607.32,188.417,1606.71,189.927,1605.49,191.146z M1604.59,182.957c-1.02-1.021-2.24-1.53-3.659-1.53c-1.44,0-2.66,0.5-3.66,1.5
			c-1.021,1.021-1.53,2.25-1.53,3.69c0,1.42,0.51,2.64,1.53,3.66c1.021,1.02,2.239,1.529,3.66,1.529c1.44,0,2.659-0.499,3.659-1.5
			c1.021-1.02,1.531-2.25,1.531-3.689C1606.121,185.197,1605.61,183.977,1604.59,182.957z"/>
		<path d="M1620.49,191.146c-1.24,1.24-2.76,1.86-4.561,1.86c-1.799,0-3.31-0.609-4.529-1.83c-1.24-1.239-1.86-2.76-1.86-4.56
			c0-1.78,0.62-3.29,1.86-4.53c1.22-1.26,2.73-1.89,4.529-1.89c1.78,0,3.29,0.62,4.531,1.859c1.239,1.24,1.859,2.76,1.859,4.561
			C1622.32,188.417,1621.71,189.927,1620.49,191.146z M1619.62,182.927c-1-1.02-2.229-1.53-3.69-1.53
			c-1.399,0-2.609,0.521-3.629,1.561c-1.041,1.04-1.561,2.26-1.561,3.66c0,1.42,0.51,2.64,1.529,3.66
			c1.021,1.02,2.24,1.529,3.66,1.529c1.44,0,2.66-0.499,3.66-1.5c1.021-1.02,1.53-2.25,1.53-3.689
			C1621.12,185.157,1620.62,183.927,1619.62,182.927z"/>
		<path d="M1627.27,181.637v11.16h-1.23v-11.16h-1.68v-1.229h1.68v-5.431h1.23v5.431h2.881v1.229H1627.27z"/>
		<path d="M1633.449,184.127c-0.22,0-0.449-0.09-0.689-0.271c-0.18-0.18-0.28-0.42-0.301-0.72c0-0.54,0.33-0.87,0.99-0.99
			c0.5,0,0.83,0.33,0.99,0.99C1634.439,183.797,1634.109,184.127,1633.449,184.127z M1633.449,192.977
			c-0.22,0-0.449-0.09-0.689-0.27c-0.18-0.18-0.28-0.42-0.301-0.72c0-0.54,0.33-0.87,0.99-0.99c0.5,0,0.83,0.33,0.99,0.99
			C1634.439,192.646,1634.109,192.977,1633.449,192.977z"/>
		<path d="M1638.639,178.187c-0.22,0-0.449-0.09-0.689-0.27c-0.18-0.18-0.28-0.42-0.3-0.72c0-0.54,0.33-0.87,0.989-0.99
			c0.5,0,0.83,0.33,0.99,0.99C1639.629,177.856,1639.299,178.187,1638.639,178.187z M1638.01,192.797v-12.39h1.229v12.39H1638.01z"
			/>
		<path d="M1650.219,192.797v-7.41c0-2.62-1.18-3.93-3.539-3.93c-1.16,0-2.04,0.34-2.641,1.02c-0.619,0.681-0.93,1.61-0.93,2.79
			v7.53h-1.23v-12.39h1.23v1.5c0.56-1.1,1.75-1.65,3.57-1.65c1.539,0,2.719,0.44,3.539,1.32s1.23,2.11,1.23,3.689v7.53H1650.219z"/>
		<path d="M1657.27,181.637v11.16h-1.23v-11.16h-1.68v-1.229h1.68v-5.431h1.23v5.431h2.88v1.229H1657.27z"/>
		<path d="M1663.149,186.347c0,1.681,0.45,3.011,1.35,3.99c0.94,1,2.229,1.5,3.87,1.5c0.84,0,1.6-0.14,2.28-0.42
			c0.859-0.36,1.63-1.09,2.31-2.19l1.11,0.511c-0.78,1.479-1.979,2.479-3.601,3c-0.619,0.199-1.319,0.3-2.1,0.3
			c-1.859,0-3.391-0.61-4.59-1.83c-1.221-1.22-1.83-2.75-1.83-4.59c0-1.86,0.6-3.391,1.8-4.59c1.22-1.22,2.761-1.83,4.62-1.83
			c1.84,0,3.359,0.569,4.561,1.71c1.219,1.14,1.83,2.62,1.83,4.439H1663.149z M1671.609,182.417c-0.94-0.68-2.021-1.021-3.24-1.021
			c-2.561,0-4.24,1.261-5.04,3.78h10.05C1673.18,184.037,1672.589,183.117,1671.609,182.417z"/>
		<path d="M1683.459,182.237c-0.32-0.24-0.66-0.431-1.02-0.57c-0.36-0.14-0.74-0.21-1.141-0.21c-0.34,0-0.66,0.104-0.96,0.314
			s-0.56,0.471-0.78,0.78c-0.221,0.311-0.395,0.655-0.525,1.035c-0.129,0.38-0.194,0.73-0.194,1.05v8.16h-1.229v-12.39h1.229v1.68
			c0.26-0.46,0.601-0.88,1.021-1.26s0.879-0.57,1.379-0.57c0.62,0,1.131,0.07,1.531,0.21c0.399,0.141,0.85,0.39,1.35,0.75
			L1683.459,182.237z"/>
		<path d="M1691.619,171.827l-0.811-0.09c-1.12,0-1.68,0.659-1.68,1.979v6.69h2.939v1.229h-2.939v11.16h-1.23v-11.16h-1.68v-1.229
			h1.68v-7.051c0-1.899,0.961-2.85,2.881-2.85c0.439,0,0.719,0.021,0.84,0.06c0.24,0,0.51,0.07,0.81,0.211v1.229L1691.619,171.827z"
			/>
		<path d="M1703.829,192.797v-2.13c-1.3,1.56-2.95,2.34-4.95,2.34c-1.8,0-3.311-0.609-4.529-1.83c-1.24-1.239-1.861-2.76-1.861-4.56
			c0-1.801,0.61-3.311,1.83-4.53c1.24-1.24,2.761-1.86,4.561-1.86c1.98,0,3.63,0.78,4.95,2.34v-2.159h1.229v12.39H1703.829z
			 M1702.539,182.957c-1.02-1.021-2.24-1.53-3.66-1.53c-1.439,0-2.66,0.5-3.66,1.5c-1.02,1.021-1.529,2.25-1.529,3.69
			c0,1.42,0.51,2.64,1.529,3.66c1.02,1.02,2.24,1.529,3.66,1.529c1.439,0,2.66-0.499,3.66-1.5c1.02-1.02,1.529-2.25,1.529-3.689
			C1704.068,185.197,1703.559,183.977,1702.539,182.957z"/>
		<path d="M1714.568,193.037c-1.84,0-3.37-0.61-4.59-1.83s-1.83-2.75-1.83-4.59s0.61-3.37,1.83-4.59s2.75-1.83,4.59-1.83
			c1.58,0,2.84,0.359,3.78,1.08v1.47l-0.78-0.51l-0.84-0.45c-0.76-0.26-1.48-0.391-2.16-0.391c-1.54,0-2.789,0.48-3.75,1.44
			c-0.98,0.98-1.47,2.24-1.47,3.78c0,1.52,0.489,2.77,1.47,3.75c0.98,0.979,2.23,1.47,3.75,1.47c1.44,0,2.7-0.48,3.78-1.44v1.53
			C1717.229,192.667,1715.969,193.037,1714.568,193.037z"/>
		<path d="M1720.328,186.347c0,1.681,0.45,3.011,1.35,3.99c0.94,1,2.23,1.5,3.871,1.5c0.84,0,1.6-0.14,2.279-0.42
			c0.859-0.36,1.63-1.09,2.311-2.19l1.109,0.511c-0.779,1.479-1.979,2.479-3.6,3c-0.62,0.199-1.32,0.3-2.1,0.3
			c-1.86,0-3.391-0.61-4.59-1.83c-1.221-1.22-1.83-2.75-1.83-4.59c0-1.86,0.6-3.391,1.799-4.59c1.221-1.22,2.761-1.83,4.621-1.83
			c1.84,0,3.359,0.569,4.56,1.71c1.22,1.14,1.83,2.62,1.83,4.439H1720.328z M1728.789,182.417c-0.941-0.68-2.021-1.021-3.24-1.021
			c-2.561,0-4.24,1.261-5.041,3.78h10.051C1730.358,184.037,1729.768,183.117,1728.789,182.417z"/>
		<path d="M1753.268,190.007c-2.06,2.061-4.709,3.09-7.949,3.09s-5.881-1.02-7.92-3.06c-2.061-2.06-3.09-4.71-3.09-7.95
			s1.02-5.88,3.06-7.92c2.06-2.06,4.71-3.09,7.95-3.09c3.22,0,5.869,1.02,7.949,3.06c2.061,2.061,3.09,4.71,3.09,7.95
			S1755.328,187.967,1753.268,190.007z M1752.398,175.037c-1.841-1.84-4.2-2.76-7.08-2.76c-2.84,0-5.18,0.92-7.02,2.76
			c-1.841,1.84-2.761,4.189-2.761,7.05s0.909,5.2,2.729,7.02c1.84,1.841,4.19,2.761,7.051,2.761c2.88,0,5.239-0.9,7.08-2.7
			c1.819-1.819,2.729-4.18,2.729-7.08C1755.128,179.207,1754.218,176.857,1752.398,175.037z"/>
		<path d="M1764.158,171.827l-0.811-0.09c-1.12,0-1.68,0.659-1.68,1.979v6.69h2.939v1.229h-2.939v11.16h-1.23v-11.16h-1.68v-1.229
			h1.68v-7.051c0-1.899,0.961-2.85,2.881-2.85c0.439,0,0.719,0.021,0.84,0.06c0.24,0,0.51,0.07,0.81,0.211v1.229L1764.158,171.827z"
			/>
	</g>
</g>
<g>
	
		<rect x="1476.652" y="796.227" fill="#EDEDED" stroke="#000000" stroke-width="0.3" stroke-miterlimit="10" width="194.354" height="42.143"/>
	<g>
		<path d="M1500.029,825.102c-1.24,1.24-2.76,1.86-4.56,1.86c-2.061,0-3.75-0.83-5.07-2.49v2.28h-1.229v-22.2h1.229v12.12
			c1.3-1.66,2.989-2.49,5.07-2.49c1.8,0,3.31,0.61,4.53,1.83c1.239,1.24,1.859,2.76,1.859,4.561
			C1501.859,822.372,1501.249,823.882,1500.029,825.102z M1499.129,816.912c-1.02-1.021-2.24-1.53-3.659-1.53
			c-1.44,0-2.66,0.5-3.66,1.5c-1.021,1.021-1.53,2.25-1.53,3.69c0,1.42,0.51,2.64,1.53,3.66c1.021,1.02,2.239,1.529,3.66,1.529
			c1.44,0,2.659-0.499,3.659-1.5c1.021-1.02,1.531-2.25,1.531-3.689C1500.66,819.152,1500.149,817.932,1499.129,816.912z"/>
		<path d="M1515.029,825.102c-1.24,1.24-2.76,1.86-4.561,1.86c-1.799,0-3.31-0.609-4.529-1.83c-1.24-1.239-1.86-2.76-1.86-4.56
			c0-1.78,0.62-3.29,1.86-4.53c1.22-1.26,2.73-1.89,4.529-1.89c1.78,0,3.29,0.62,4.531,1.859c1.239,1.24,1.859,2.76,1.859,4.561
			C1516.859,822.372,1516.249,823.882,1515.029,825.102z M1514.159,816.882c-1-1.02-2.229-1.53-3.69-1.53
			c-1.399,0-2.609,0.521-3.629,1.561c-1.041,1.04-1.561,2.26-1.561,3.66c0,1.42,0.51,2.64,1.529,3.66
			c1.021,1.02,2.24,1.529,3.66,1.529c1.44,0,2.66-0.499,3.66-1.5c1.021-1.02,1.53-2.25,1.53-3.689
			C1515.659,819.112,1515.159,817.882,1514.159,816.882z"/>
		<path d="M1521.809,815.592v11.16h-1.23v-11.16h-1.68v-1.229h1.68v-5.431h1.23v5.431h2.881v1.229H1521.809z"/>
		<path d="M1527.988,818.082c-0.22,0-0.449-0.09-0.689-0.271c-0.18-0.18-0.28-0.42-0.301-0.72c0-0.54,0.33-0.87,0.99-0.99
			c0.5,0,0.83,0.33,0.99,0.99C1528.979,817.752,1528.648,818.082,1527.988,818.082z M1527.988,826.932
			c-0.22,0-0.449-0.09-0.689-0.27c-0.18-0.18-0.28-0.42-0.301-0.72c0-0.54,0.33-0.87,0.99-0.99c0.5,0,0.83,0.33,0.99,0.99
			C1528.979,826.602,1528.648,826.932,1527.988,826.932z"/>
		<path d="M1533.178,812.142c-0.22,0-0.449-0.09-0.689-0.27c-0.18-0.18-0.28-0.42-0.3-0.72c0-0.54,0.33-0.87,0.989-0.99
			c0.5,0,0.83,0.33,0.99,0.99C1534.168,811.812,1533.838,812.142,1533.178,812.142z M1532.549,826.752v-12.39h1.229v12.39H1532.549z
			"/>
		<path d="M1544.758,826.752v-7.41c0-2.62-1.18-3.93-3.539-3.93c-1.16,0-2.04,0.34-2.641,1.02c-0.619,0.681-0.93,1.61-0.93,2.79
			v7.53h-1.23v-12.39h1.23v1.5c0.56-1.1,1.75-1.65,3.57-1.65c1.539,0,2.719,0.44,3.539,1.32s1.23,2.11,1.23,3.689v7.53H1544.758z"/>
		<path d="M1551.809,815.592v11.16h-1.23v-11.16h-1.68v-1.229h1.68v-5.431h1.23v5.431h2.88v1.229H1551.809z"/>
		<path d="M1557.688,820.302c0,1.681,0.45,3.011,1.35,3.99c0.94,1,2.229,1.5,3.87,1.5c0.84,0,1.6-0.14,2.28-0.42
			c0.859-0.36,1.63-1.09,2.31-2.19l1.11,0.511c-0.78,1.479-1.979,2.479-3.601,3c-0.619,0.199-1.319,0.3-2.1,0.3
			c-1.859,0-3.391-0.61-4.59-1.83c-1.221-1.22-1.83-2.75-1.83-4.59c0-1.86,0.6-3.391,1.8-4.59c1.22-1.22,2.761-1.83,4.62-1.83
			c1.84,0,3.359,0.569,4.561,1.71c1.219,1.14,1.83,2.62,1.83,4.439H1557.688z M1566.148,816.372c-0.94-0.68-2.021-1.021-3.24-1.021
			c-2.561,0-4.24,1.261-5.04,3.78h10.05C1567.719,817.992,1567.128,817.072,1566.148,816.372z"/>
		<path d="M1577.998,816.192c-0.32-0.24-0.66-0.431-1.02-0.57c-0.36-0.14-0.74-0.21-1.141-0.21c-0.34,0-0.66,0.104-0.96,0.314
			s-0.56,0.471-0.78,0.78c-0.221,0.311-0.395,0.655-0.525,1.035c-0.129,0.38-0.194,0.73-0.194,1.05v8.16h-1.229v-12.39h1.229v1.68
			c0.26-0.46,0.601-0.88,1.021-1.26s0.879-0.57,1.379-0.57c0.62,0,1.131,0.07,1.531,0.21c0.399,0.141,0.85,0.39,1.35,0.75
			L1577.998,816.192z"/>
		<path d="M1586.158,805.782l-0.811-0.09c-1.12,0-1.68,0.659-1.68,1.979v6.69h2.939v1.229h-2.939v11.16h-1.23v-11.16h-1.68v-1.229
			h1.68v-7.051c0-1.899,0.961-2.85,2.881-2.85c0.439,0,0.719,0.021,0.84,0.06c0.24,0,0.51,0.07,0.81,0.211v1.229L1586.158,805.782z"
			/>
		<path d="M1598.368,826.752v-2.13c-1.3,1.56-2.95,2.34-4.95,2.34c-1.8,0-3.311-0.609-4.529-1.83c-1.24-1.239-1.861-2.76-1.861-4.56
			c0-1.801,0.61-3.311,1.83-4.53c1.24-1.24,2.761-1.86,4.561-1.86c1.98,0,3.63,0.78,4.95,2.34v-2.159h1.229v12.39H1598.368z
			 M1597.078,816.912c-1.02-1.021-2.24-1.53-3.66-1.53c-1.439,0-2.66,0.5-3.66,1.5c-1.02,1.021-1.529,2.25-1.529,3.69
			c0,1.42,0.51,2.64,1.529,3.66c1.02,1.02,2.24,1.529,3.66,1.529c1.439,0,2.66-0.499,3.66-1.5c1.02-1.02,1.529-2.25,1.529-3.689
			C1598.607,819.152,1598.098,817.932,1597.078,816.912z"/>
		<path d="M1609.107,826.992c-1.84,0-3.37-0.61-4.59-1.83s-1.83-2.75-1.83-4.59s0.61-3.37,1.83-4.59s2.75-1.83,4.59-1.83
			c1.58,0,2.84,0.359,3.78,1.08v1.47l-0.78-0.51l-0.84-0.45c-0.76-0.26-1.48-0.391-2.16-0.391c-1.54,0-2.789,0.48-3.75,1.44
			c-0.98,0.98-1.47,2.24-1.47,3.78c0,1.52,0.489,2.77,1.47,3.75c0.98,0.979,2.23,1.47,3.75,1.47c1.44,0,2.7-0.48,3.78-1.44v1.53
			C1611.768,826.622,1610.508,826.992,1609.107,826.992z"/>
		<path d="M1614.867,820.302c0,1.681,0.45,3.011,1.35,3.99c0.94,1,2.23,1.5,3.871,1.5c0.84,0,1.6-0.14,2.279-0.42
			c0.859-0.36,1.63-1.09,2.311-2.19l1.109,0.511c-0.779,1.479-1.979,2.479-3.6,3c-0.62,0.199-1.32,0.3-2.1,0.3
			c-1.86,0-3.391-0.61-4.59-1.83c-1.221-1.22-1.83-2.75-1.83-4.59c0-1.86,0.6-3.391,1.799-4.59c1.221-1.22,2.761-1.83,4.621-1.83
			c1.84,0,3.359,0.569,4.56,1.71c1.22,1.14,1.83,2.62,1.83,4.439H1614.867z M1623.328,816.372c-0.941-0.68-2.021-1.021-3.24-1.021
			c-2.561,0-4.24,1.261-5.041,3.78h10.051C1624.897,817.992,1624.307,817.072,1623.328,816.372z"/>
		<path d="M1647.807,823.962c-2.06,2.061-4.709,3.09-7.949,3.09s-5.881-1.02-7.92-3.06c-2.061-2.06-3.09-4.71-3.09-7.95
			s1.02-5.88,3.06-7.92c2.06-2.06,4.71-3.09,7.95-3.09c3.22,0,5.869,1.02,7.949,3.06c2.061,2.061,3.09,4.71,3.09,7.95
			S1649.867,821.922,1647.807,823.962z M1646.938,808.992c-1.841-1.84-4.2-2.76-7.08-2.76c-2.84,0-5.18,0.92-7.02,2.76
			c-1.841,1.84-2.761,4.189-2.761,7.05s0.909,5.2,2.729,7.02c1.84,1.841,4.19,2.761,7.051,2.761c2.88,0,5.239-0.9,7.08-2.7
			c1.819-1.819,2.729-4.18,2.729-7.08C1649.667,813.162,1648.757,810.813,1646.938,808.992z"/>
		<path d="M1658.697,805.782l-0.811-0.09c-1.12,0-1.68,0.659-1.68,1.979v6.69h2.939v1.229h-2.939v11.16h-1.23v-11.16h-1.68v-1.229
			h1.68v-7.051c0-1.899,0.961-2.85,2.881-2.85c0.439,0,0.719,0.021,0.84,0.06c0.24,0,0.51,0.07,0.81,0.211v1.229L1658.697,805.782z"
			/>
	</g>
</g>
</svg>
