<?xml version="1.0" encoding="utf-8"?>
<!-- Generator: Adobe Illustrator 16.0.0, SVG Export Plug-In . SVG Version: 6.00 Build 0)  -->
<!DOCTYPE svg PUBLIC "-//W3C//DTD SVG 1.1//EN" "http://www.w3.org/Graphics/SVG/1.1/DTD/svg11.dtd">
<svg version="1.1" id="Layer_1" xmlns="http://www.w3.org/2000/svg" xmlns:xlink="http://www.w3.org/1999/xlink" x="0px" y="0px"
	 width="1920px" height="1080px" viewBox="0 0 1920 1080" enable-background="new 0 0 1920 1080" xml:space="preserve">
<rect x="747.678" y="747.394" fill="#EDEDED" stroke="#000000" stroke-width="0.453" stroke-miterlimit="10" width="424.199" height="107.086"/>
<g>
	<g>
		<path d="M789.377,788.383c-0.555,0-1.133-0.227-1.737-0.68c-0.453-0.453-0.705-1.057-0.755-1.812c0-1.359,0.831-2.189,2.492-2.492
			c1.257,0,2.088,0.831,2.491,2.492C791.868,787.552,791.038,788.383,789.377,788.383z M787.792,825.152V793.97h3.095v31.182
			H787.792z"/>
		<path d="M818.52,825.152v-18.648c0-6.594-2.971-9.891-8.909-9.891c-2.919,0-5.134,0.856-6.644,2.567
			c-1.561,1.711-2.34,4.052-2.34,7.021v18.95h-3.096V793.97h3.096v3.775c1.409-2.768,4.404-4.153,8.984-4.153
			c3.875,0,6.845,1.108,8.909,3.322c2.063,2.216,3.096,5.312,3.096,9.287v18.95H818.52z"/>
		<path d="M846.907,823.189c-2.014,1.712-4.43,2.566-7.248,2.566c-4.832,0-8.456-2.189-10.872-6.568l2.643-1.585
			c0.855,1.561,1.888,2.769,3.096,3.624c1.257,0.956,2.969,1.435,5.134,1.435c4.73,0,7.097-2.013,7.097-6.04
			c0-1.762-0.831-3.296-2.492-4.605c-0.503-0.303-1.221-0.643-2.152-1.02c-0.932-0.378-2.076-0.817-3.435-1.321
			c-2.518-0.906-4.33-1.813-5.436-2.718c-1.611-1.309-2.416-3.196-2.416-5.663c0-2.113,0.805-3.926,2.416-5.436
			c1.56-1.56,3.598-2.341,6.116-2.341c3.473,0,6.417,1.208,8.833,3.624l-2.265,1.963c-1.712-1.71-3.901-2.566-6.568-2.566
			c-3.624,0-5.436,1.585-5.436,4.756c0,1.41,0.553,2.567,1.661,3.474c0.906,0.705,2.341,1.385,4.304,2.038
			c1.71,0.604,3.12,1.17,4.228,1.699c1.106,0.528,1.937,0.994,2.492,1.396c2.164,1.661,3.246,3.901,3.246,6.72
			C849.852,819.338,848.87,821.528,846.907,823.189z"/>
		<path d="M861.252,797.066v28.086h-3.096v-28.086h-4.228v-3.096h4.228v-13.666h3.096v13.666h7.248v3.096H861.252z"/>
		<path d="M876.805,803.333c-0.554,0-1.132-0.227-1.736-0.68c-0.453-0.453-0.706-1.057-0.755-1.813c0-1.358,0.831-2.189,2.491-2.491
			c1.258,0,2.088,0.831,2.492,2.491C879.296,802.501,878.466,803.333,876.805,803.333z M876.805,825.605
			c-0.554,0-1.132-0.227-1.736-0.68c-0.453-0.453-0.706-1.057-0.755-1.812c0-1.359,0.831-2.189,2.491-2.492
			c1.258,0,2.088,0.831,2.492,2.492C879.296,824.774,878.466,825.605,876.805,825.605z"/>
		<path d="M909.949,825.227v-18.799c0-6.594-3.071-9.891-9.211-9.891c-2.518,0-4.681,0.755-6.493,2.265
			c-1.863,1.51-2.793,3.523-2.793,6.04v20.31h-3.096v-55.87h3.096v28.841c1.861-3.069,4.957-4.605,9.287-4.605
			c8.204,0,12.307,4.203,12.307,12.608v19.102H909.949z"/>
		<path d="M922.784,808.919c0,4.228,1.133,7.576,3.397,10.041c2.365,2.518,5.612,3.775,9.74,3.775c2.114,0,4.026-0.352,5.738-1.057
			c2.164-0.906,4.102-2.743,5.814-5.512l2.793,1.283c-1.963,3.726-4.983,6.242-9.06,7.55c-1.561,0.503-3.322,0.755-5.285,0.755
			c-4.681,0-8.532-1.534-11.552-4.605c-3.071-3.069-4.605-6.92-4.605-11.551c0-4.682,1.51-8.532,4.53-11.552
			c3.069-3.069,6.946-4.605,11.627-4.605c4.63,0,8.456,1.435,11.476,4.304c3.069,2.868,4.605,6.594,4.605,11.174H922.784z
			 M944.075,799.029c-2.366-1.711-5.084-2.567-8.154-2.567c-6.443,0-10.671,3.171-12.684,9.514h25.292
			C948.026,803.106,946.541,800.792,944.075,799.029z"/>
		<path d="M985.373,825.152v-5.36c-3.272,3.926-7.425,5.889-12.458,5.889c-4.53,0-8.331-1.534-11.4-4.605
			c-3.122-3.12-4.681-6.946-4.681-11.476c0-4.53,1.535-8.33,4.605-11.401c3.12-3.12,6.946-4.681,11.476-4.681
			c4.983,0,9.136,1.963,12.458,5.889v-5.436h3.096v31.182H985.373z M982.126,800.388c-2.567-2.567-5.638-3.851-9.211-3.851
			c-3.624,0-6.695,1.259-9.211,3.774c-2.567,2.567-3.851,5.663-3.851,9.287c0,3.574,1.283,6.644,3.851,9.211
			c2.567,2.566,5.636,3.851,9.211,3.851c3.624,0,6.693-1.258,9.211-3.775c2.567-2.567,3.851-5.662,3.851-9.286
			C985.977,806.026,984.693,802.955,982.126,800.388z"/>
		<path d="M1002.36,797.066v28.086h-3.096v-28.086h-4.228v-3.096h4.228v-13.666h3.096v13.666h7.248v3.096H1002.36z"/>
		<path d="M1017.158,808.919c0,4.228,1.133,7.576,3.397,10.041c2.365,2.518,5.612,3.775,9.74,3.775c2.114,0,4.026-0.352,5.738-1.057
			c2.164-0.906,4.102-2.743,5.814-5.512l2.793,1.283c-1.963,3.726-4.983,6.242-9.06,7.55c-1.561,0.503-3.322,0.755-5.285,0.755
			c-4.681,0-8.532-1.534-11.552-4.605c-3.071-3.069-4.605-6.92-4.605-11.551c0-4.682,1.51-8.532,4.53-11.552
			c3.069-3.069,6.946-4.605,11.627-4.605c4.63,0,8.456,1.435,11.476,4.304c3.069,2.868,4.605,6.594,4.605,11.174H1017.158z
			 M1038.449,799.029c-2.366-1.711-5.084-2.567-8.154-2.567c-6.443,0-10.671,3.171-12.684,9.514h25.292
			C1042.4,803.106,1040.915,800.792,1038.449,799.029z"/>
		<path d="M1068.271,798.576c-0.806-0.604-1.661-1.082-2.567-1.435c-0.906-0.352-1.863-0.528-2.869-0.528
			c-0.856,0-1.661,0.265-2.416,0.793s-1.41,1.183-1.963,1.963c-0.555,0.781-0.995,1.649-1.321,2.604
			c-0.328,0.957-0.491,1.838-0.491,2.643v20.536h-3.096V793.97h3.096v4.228c0.653-1.157,1.51-2.214,2.567-3.171
			c1.057-0.955,2.214-1.435,3.473-1.435c1.56,0,2.843,0.178,3.851,0.529c1.006,0.353,2.139,0.981,3.397,1.887L1068.271,798.576z"/>
		<path d="M1090.771,821.376c-2.92,2.77-6.619,4.153-11.099,4.153c-3.726,0-6.921-1.031-9.588-3.096
			c-2.567-2.063-4.279-4.957-5.134-8.683h3.322c0.653,2.467,2.088,4.53,4.303,6.19c2.164,1.661,4.53,2.492,7.097,2.492
			c3.322,0,6.165-1.133,8.532-3.397c2.365-2.365,3.548-5.184,3.548-8.456c0-4.077-1.46-7.273-4.379-9.589
			c-2.215-1.762-4.48-2.643-6.795-2.643h-3.171v-4.454h3.171c3.171,0,5.712-0.88,7.625-2.643c1.861-1.711,2.793-4.202,2.793-7.475
			c0-3.12-1.008-5.663-3.02-7.626c-2.014-2.013-4.605-3.02-7.777-3.02c-6.04,0-9.69,3.171-10.947,9.513h-3.549
			c0.453-3.926,1.988-6.995,4.606-9.211c2.616-2.265,5.914-3.397,9.89-3.397c4.127,0,7.575,1.259,10.344,3.775
			c2.768,2.467,4.152,5.788,4.152,9.966c0,6.694-3.373,10.796-10.117,12.307c7.046,2.113,10.57,6.945,10.57,14.496
			C1095.15,815.061,1093.689,818.659,1090.771,821.376z"/>
		<path d="M1127.54,821.376c-2.92,2.77-6.619,4.153-11.099,4.153c-3.726,0-6.921-1.031-9.588-3.096
			c-2.567-2.063-4.279-4.957-5.134-8.683h3.322c0.653,2.467,2.088,4.53,4.303,6.19c2.164,1.661,4.53,2.492,7.097,2.492
			c3.322,0,6.165-1.133,8.532-3.397c2.365-2.365,3.548-5.184,3.548-8.456c0-4.077-1.46-7.273-4.379-9.589
			c-2.215-1.762-4.48-2.643-6.795-2.643h-3.171v-4.454h3.171c3.171,0,5.712-0.88,7.625-2.643c1.861-1.711,2.793-4.202,2.793-7.475
			c0-3.12-1.008-5.663-3.02-7.626c-2.014-2.013-4.605-3.02-7.777-3.02c-6.04,0-9.69,3.171-10.947,9.513h-3.549
			c0.453-3.926,1.988-6.995,4.606-9.211c2.616-2.265,5.914-3.397,9.89-3.397c4.127,0,7.575,1.259,10.344,3.775
			c2.768,2.467,4.152,5.788,4.152,9.966c0,6.694-3.373,10.796-10.117,12.307c7.046,2.113,10.57,6.945,10.57,14.496
			C1131.918,815.061,1130.458,818.659,1127.54,821.376z"/>
	</g>
</g>
<path fill="#EDEDED" stroke="#000000" stroke-width="0.453" stroke-miterlimit="10" d="M1171.877,148.511
	c0,15.949-12.969,28.906-28.936,28.906H776.604c-15.977,0-28.926-12.957-28.926-28.906V99.234c0-15.969,12.949-28.898,28.926-28.898
	h366.338c15.967,0,28.936,12.93,28.936,28.898V148.511z"/>
<g>
	<g>
		<path d="M826.449,143.937c-3.122,3.121-6.946,4.681-11.476,4.681c-5.185,0-9.438-2.088-12.76-6.266v5.738h-3.096v-55.87h3.096
			v30.502c3.271-4.177,7.524-6.267,12.76-6.267c4.53,0,8.33,1.536,11.4,4.605c3.12,3.122,4.681,6.946,4.681,11.476
			C831.054,137.066,829.518,140.867,826.449,143.937z M824.184,123.325c-2.567-2.567-5.638-3.851-9.211-3.851
			c-3.624,0-6.695,1.259-9.211,3.775c-2.567,2.567-3.851,5.663-3.851,9.287c0,3.575,1.284,6.644,3.851,9.211
			c2.567,2.567,5.637,3.85,9.211,3.85c3.624,0,6.693-1.257,9.211-3.775c2.567-2.567,3.851-5.663,3.851-9.287
			C828.034,128.963,826.75,125.892,824.184,123.325z"/>
		<path d="M864.199,143.937c-3.122,3.121-6.946,4.681-11.476,4.681c-4.53,0-8.331-1.535-11.4-4.605
			c-3.122-3.12-4.681-6.946-4.681-11.476c0-4.479,1.56-8.279,4.681-11.4c3.069-3.171,6.87-4.756,11.4-4.756
			c4.479,0,8.279,1.561,11.4,4.681c3.121,3.122,4.681,6.946,4.681,11.476C868.804,137.066,867.268,140.867,864.199,143.937z
			 M862.009,123.25c-2.518-2.567-5.613-3.85-9.287-3.85c-3.524,0-6.568,1.309-9.136,3.926c-2.618,2.618-3.926,5.688-3.926,9.211
			c0,3.575,1.283,6.644,3.851,9.211c2.567,2.567,5.636,3.85,9.211,3.85c3.624,0,6.693-1.257,9.211-3.775
			c2.567-2.567,3.851-5.663,3.851-9.287C865.784,128.863,864.525,125.767,862.009,123.25z"/>
		<path d="M881.261,120.003v28.086h-3.096v-28.086h-4.228v-3.096h4.228v-13.666h3.096v13.666h7.248v3.096H881.261z"/>
		<path d="M896.813,126.27c-0.554,0-1.132-0.226-1.736-0.679c-0.453-0.453-0.706-1.057-0.755-1.812c0-1.359,0.831-2.189,2.491-2.492
			c1.258,0,2.088,0.831,2.492,2.492C899.305,125.439,898.475,126.27,896.813,126.27z M896.813,148.542
			c-0.554,0-1.132-0.227-1.736-0.68c-0.453-0.453-0.706-1.057-0.755-1.812c0-1.359,0.831-2.189,2.491-2.491
			c1.258,0,2.088,0.83,2.492,2.491C899.305,147.712,898.475,148.542,896.813,148.542z"/>
		<path d="M908.138,148.089V94.182h25.897v3.096h-22.801v19.63h22.801v3.322h-22.801v24.764h22.801v3.096H908.138z"/>
		<path d="M940.452,148.089v-55.87h3.02v55.87H940.452z"/>
		<path d="M954.721,131.857c0,4.228,1.133,7.576,3.397,10.042c2.365,2.518,5.612,3.775,9.74,3.775c2.114,0,4.026-0.352,5.738-1.057
			c2.164-0.906,4.102-2.743,5.814-5.511l2.793,1.283c-1.963,3.726-4.983,6.242-9.06,7.55c-1.561,0.502-3.322,0.755-5.285,0.755
			c-4.681,0-8.532-1.535-11.552-4.605c-3.071-3.07-4.605-6.92-4.605-11.552c0-4.681,1.51-8.531,4.53-11.551
			c3.069-3.07,6.946-4.605,11.627-4.605c4.63,0,8.456,1.434,11.476,4.303c3.069,2.869,4.605,6.595,4.605,11.174H954.721z
			 M976.012,121.966c-2.366-1.71-5.084-2.567-8.154-2.567c-6.443,0-10.671,3.171-12.684,9.513h25.292
			C979.963,126.043,978.478,123.729,976.012,121.966z"/>
		<path d="M1026.597,148.089v-21.518c0-1.912-0.63-3.573-1.888-4.983c-1.259-1.409-3.071-2.114-5.436-2.114
			c-4.883,0-7.323,2.367-7.323,7.097v21.518h-3.096v-21.518c0-2.114-0.706-3.8-2.114-5.059c-1.46-1.359-3.197-2.039-5.21-2.039
			c-2.064,0-3.801,0.655-5.209,1.963c-1.41,1.259-2.114,2.971-2.114,5.134v21.518h-3.096v-31.182h3.096v3.096
			c1.51-2.365,3.951-3.549,7.323-3.549c4.026,0,6.996,1.636,8.909,4.908c1.812-3.271,4.757-4.908,8.833-4.908
			c3.121,0,5.637,0.881,7.55,2.643c1.912,1.812,2.869,4.304,2.869,7.475v21.518H1026.597z"/>
		<path d="M1040.261,131.857c0,4.228,1.133,7.576,3.397,10.042c2.365,2.518,5.612,3.775,9.74,3.775c2.114,0,4.026-0.352,5.738-1.057
			c2.164-0.906,4.102-2.743,5.814-5.511l2.793,1.283c-1.963,3.726-4.983,6.242-9.06,7.55c-1.561,0.502-3.322,0.755-5.285,0.755
			c-4.681,0-8.532-1.535-11.552-4.605c-3.071-3.07-4.605-6.92-4.605-11.552c0-4.681,1.51-8.531,4.53-11.551
			c3.069-3.07,6.946-4.605,11.627-4.605c4.63,0,8.456,1.434,11.476,4.303c3.069,2.869,4.605,6.595,4.605,11.174H1040.261z
			 M1061.552,121.966c-2.366-1.71-5.084-2.567-8.154-2.567c-6.443,0-10.671,3.171-12.684,9.513h25.292
			C1065.503,126.043,1064.018,123.729,1061.552,121.966z"/>
		<path d="M1097.641,148.089v-18.648c0-6.593-2.971-9.891-8.909-9.891c-2.919,0-5.134,0.856-6.644,2.567
			c-1.561,1.712-2.34,4.052-2.34,7.021v18.951h-3.096v-31.182h3.096v3.775c1.409-2.768,4.404-4.152,8.984-4.152
			c3.875,0,6.845,1.108,8.909,3.322c2.063,2.216,3.096,5.311,3.096,9.287v18.951H1097.641z"/>
		<path d="M1115.383,120.003v28.086h-3.096v-28.086h-4.228v-3.096h4.228v-13.666h3.096v13.666h7.248v3.096H1115.383z"/>
	</g>
</g>
<path fill="#EDEDED" stroke="#000000" stroke-width="0.453" stroke-miterlimit="10" d="M1171.877,485.535
	c0,15.949-12.969,28.906-28.936,28.906H776.604c-15.977,0-28.926-12.957-28.926-28.906v-49.273
	c0-15.973,12.949-28.902,28.926-28.902h366.338c15.967,0,28.936,12.93,28.936,28.902V485.535z"/>
<g>
	<g>
		<path d="M828.335,432.338l-2.039-0.227c-2.819,0-4.228,1.661-4.228,4.983v16.836h7.399v3.096h-7.399v28.086h-3.095v-28.086h-4.228
			v-3.096h4.228v-17.743c0-4.781,2.416-7.172,7.248-7.172c1.106,0,1.812,0.051,2.114,0.151c0.604,0,1.284,0.177,2.039,0.528v3.096
			L828.335,432.338z"/>
		<path d="M852.269,483.15c-2.014,1.712-4.43,2.566-7.248,2.566c-4.832,0-8.456-2.189-10.872-6.568l2.643-1.585
			c0.855,1.561,1.888,2.769,3.096,3.624c1.257,0.956,2.969,1.435,5.134,1.435c4.73,0,7.097-2.013,7.097-6.04
			c0-1.762-0.831-3.296-2.492-4.605c-0.503-0.303-1.221-0.642-2.152-1.02c-0.932-0.377-2.076-0.817-3.435-1.321
			c-2.518-0.906-4.33-1.812-5.436-2.718c-1.611-1.308-2.416-3.196-2.416-5.662c0-2.114,0.805-3.926,2.416-5.436
			c1.56-1.56,3.598-2.341,6.116-2.341c3.473,0,6.417,1.208,8.833,3.624l-2.265,1.963c-1.712-1.71-3.901-2.567-6.568-2.567
			c-3.624,0-5.436,1.585-5.436,4.757c0,1.41,0.553,2.567,1.661,3.473c0.906,0.706,2.341,1.385,4.304,2.039
			c1.71,0.604,3.12,1.17,4.228,1.699c1.106,0.529,1.937,0.995,2.492,1.397c2.164,1.661,3.246,3.901,3.246,6.72
			C855.213,479.299,854.232,481.489,852.269,483.15z"/>
		<path d="M887.15,480.96c-3.122,3.121-6.946,4.681-11.476,4.681c-4.53,0-8.331-1.534-11.4-4.605
			c-3.122-3.12-4.681-6.946-4.681-11.476c0-4.479,1.56-8.279,4.681-11.4c3.069-3.171,6.87-4.756,11.4-4.756
			c4.479,0,8.279,1.561,11.4,4.681c3.121,3.122,4.681,6.946,4.681,11.476S890.219,477.891,887.15,480.96z M884.96,460.273
			c-2.518-2.567-5.613-3.85-9.287-3.85c-3.524,0-6.568,1.309-9.136,3.926c-2.618,2.618-3.926,5.688-3.926,9.211
			c0,3.575,1.283,6.644,3.851,9.211c2.567,2.566,5.636,3.851,9.211,3.851c3.624,0,6.693-1.258,9.211-3.775
			c2.567-2.567,3.851-5.662,3.851-9.287C888.735,465.886,887.477,462.791,884.96,460.273z"/>
		<path d="M900.89,463.293c-0.554,0-1.132-0.226-1.736-0.679c-0.453-0.453-0.706-1.057-0.755-1.812c0-1.359,0.831-2.189,2.491-2.492
			c1.258,0,2.088,0.831,2.492,2.492C903.381,462.463,902.551,463.293,900.89,463.293z M900.89,485.566
			c-0.554,0-1.132-0.227-1.736-0.68c-0.453-0.453-0.706-1.057-0.755-1.812c0-1.359,0.831-2.189,2.491-2.492
			c1.258,0,2.088,0.831,2.492,2.492C903.381,484.735,902.551,485.566,900.89,485.566z"/>
		<path d="M945.284,485.113v-28.086h-29.672v28.086h-3.02v-53.907h3.02v22.726h29.672v-22.726h3.096v53.907H945.284z"/>
		<path d="M958.873,468.88c0,4.228,1.133,7.576,3.397,10.041c2.365,2.518,5.612,3.775,9.74,3.775c2.114,0,4.026-0.352,5.738-1.057
			c2.164-0.906,4.102-2.743,5.814-5.512l2.793,1.283c-1.963,3.726-4.983,6.242-9.06,7.55c-1.561,0.503-3.322,0.755-5.285,0.755
			c-4.681,0-8.532-1.534-11.552-4.605c-3.071-3.069-4.605-6.92-4.605-11.551c0-4.681,1.51-8.531,4.53-11.551
			c3.069-3.07,6.946-4.605,11.627-4.605c4.63,0,8.456,1.434,11.476,4.303c3.069,2.869,4.605,6.595,4.605,11.174H958.873z
			 M980.164,458.99c-2.366-1.71-5.084-2.567-8.154-2.567c-6.443,0-10.671,3.171-12.684,9.513h25.292
			C984.115,463.067,982.63,460.752,980.164,458.99z"/>
		<path d="M1021.462,485.113v-5.36c-3.272,3.926-7.425,5.889-12.458,5.889c-4.53,0-8.331-1.534-11.4-4.605
			c-3.122-3.12-4.681-6.946-4.681-11.476s1.535-8.33,4.605-11.4c3.12-3.12,6.946-4.681,11.476-4.681
			c4.983,0,9.136,1.963,12.458,5.889v-5.436h3.096v31.182H1021.462z M1018.216,460.349c-2.567-2.567-5.638-3.851-9.211-3.851
			c-3.624,0-6.695,1.259-9.211,3.775c-2.567,2.567-3.851,5.663-3.851,9.287c0,3.575,1.283,6.644,3.851,9.211
			c2.567,2.566,5.636,3.851,9.211,3.851c3.624,0,6.693-1.258,9.211-3.775c2.567-2.567,3.851-5.662,3.851-9.287
			C1022.066,465.986,1020.783,462.916,1018.216,460.349z"/>
		<path d="M1038.45,457.027v28.086h-3.096v-28.086h-4.228v-3.096h4.228v-13.666h3.096v13.666h7.248v3.096H1038.45z"/>
		<path d="M1053.248,468.88c0,4.228,1.133,7.576,3.397,10.041c2.365,2.518,5.612,3.775,9.74,3.775c2.114,0,4.026-0.352,5.738-1.057
			c2.164-0.906,4.102-2.743,5.814-5.512l2.793,1.283c-1.963,3.726-4.983,6.242-9.06,7.55c-1.561,0.503-3.322,0.755-5.285,0.755
			c-4.681,0-8.532-1.534-11.552-4.605c-3.071-3.069-4.605-6.92-4.605-11.551c0-4.681,1.51-8.531,4.53-11.551
			c3.069-3.07,6.946-4.605,11.627-4.605c4.63,0,8.456,1.434,11.476,4.303c3.069,2.869,4.605,6.595,4.605,11.174H1053.248z
			 M1074.539,458.99c-2.366-1.71-5.084-2.567-8.154-2.567c-6.443,0-10.671,3.171-12.684,9.513h25.292
			C1078.49,463.067,1077.004,460.752,1074.539,458.99z"/>
		<path d="M1104.361,458.537c-0.806-0.604-1.661-1.082-2.567-1.435c-0.906-0.352-1.863-0.528-2.869-0.528
			c-0.856,0-1.661,0.264-2.416,0.792c-0.755,0.529-1.41,1.184-1.963,1.963c-0.555,0.781-0.995,1.649-1.321,2.604
			c-0.328,0.957-0.491,1.838-0.491,2.643v20.536h-3.096v-31.182h3.096v4.228c0.653-1.157,1.51-2.214,2.567-3.171
			c1.057-0.956,2.214-1.435,3.473-1.435c1.56,0,2.843,0.177,3.851,0.528c1.006,0.353,2.139,0.981,3.397,1.888L1104.361,458.537z"/>
	</g>
</g>
<g>
	<g>
		<path d="M985.494,637.727c-0.484-0.362-0.997-0.648-1.541-0.86c-0.543-0.211-1.118-0.317-1.721-0.317
			c-0.514,0-0.997,0.159-1.45,0.476c-0.453,0.317-0.846,0.71-1.178,1.179c-0.333,0.468-0.597,0.989-0.793,1.563
			c-0.197,0.574-0.294,1.103-0.294,1.585v12.322h-1.857v-18.709h1.857v2.536c0.392-0.694,0.906-1.328,1.54-1.902
			c0.634-0.573,1.329-0.86,2.084-0.86c0.936,0,1.706,0.106,2.311,0.317c0.604,0.211,1.283,0.589,2.039,1.132L985.494,637.727z"/>
		<path d="M1005.652,653.673v-3.353c-1.993,2.446-4.53,3.67-7.61,3.67c-2.718,0-4.999-0.921-6.841-2.764
			c-1.873-1.872-2.809-4.168-2.809-6.886s0.921-4.998,2.764-6.841c1.872-1.872,4.167-2.809,6.886-2.809
			c2.99,0,5.526,1.224,7.61,3.67v-18.211h1.857v33.522H1005.652z M1003.568,638.815c-1.54-1.54-3.382-2.311-5.526-2.311
			c-2.175,0-4.017,0.755-5.527,2.265c-1.54,1.541-2.311,3.397-2.311,5.572c0,2.145,0.771,3.986,2.311,5.526
			c1.54,1.541,3.382,2.311,5.527,2.311c2.174,0,4.016-0.754,5.526-2.265c1.541-1.54,2.311-3.397,2.311-5.572
			C1005.878,642.198,1005.108,640.355,1003.568,638.815z"/>
		<path d="M1020.148,622.008l-1.223-0.136c-1.692,0-2.537,0.996-2.537,2.989v10.103h4.439v1.857h-4.439v16.852h-1.857v-16.852
			h-2.537v-1.857h2.537v-10.646c0-2.869,1.45-4.304,4.349-4.304c0.664,0,1.087,0.03,1.269,0.091c0.362,0,0.77,0.105,1.223,0.316
			v1.857L1020.148,622.008z"/>
		<path d="M1026.127,640.582c-0.333,0-0.679-0.136-1.042-0.408c-0.271-0.271-0.423-0.634-0.453-1.087
			c0-0.815,0.498-1.313,1.495-1.495c0.754,0,1.253,0.499,1.495,1.495C1027.623,640.083,1027.124,640.582,1026.127,640.582z
			 M1026.127,653.945c-0.333,0-0.679-0.136-1.042-0.407c-0.271-0.271-0.423-0.635-0.453-1.087c0-0.815,0.498-1.314,1.495-1.495
			c0.754,0,1.253,0.498,1.495,1.495C1027.623,653.447,1027.124,653.945,1026.127,653.945z"/>
		<path d="M1035.504,636.822v16.852h-1.857v-16.852h-2.537v-1.857h2.537v-8.199h1.857v8.199h4.349v1.857H1035.504z"/>
		<path d="M1047.418,662.461h-2.083l4.847-10.51l-7.882-16.987h1.993l6.976,14.768l6.886-14.768h2.039L1047.418,662.461z"/>
		<path d="M1080.533,651.182c-1.873,1.873-4.167,2.809-6.886,2.809c-3.111,0-5.678-1.269-7.701-3.806v12.276h-1.857v-27.497h1.857
			v3.533c1.933-2.537,4.5-3.806,7.701-3.806c2.718,0,4.998,0.922,6.841,2.764c1.872,1.873,2.809,4.168,2.809,6.886
			S1082.375,649.34,1080.533,651.182z M1079.174,638.815c-1.54-1.54-3.383-2.311-5.527-2.311c-2.174,0-4.017,0.755-5.526,2.265
			c-1.541,1.541-2.311,3.397-2.311,5.572c0,2.145,0.77,3.986,2.311,5.526c1.54,1.541,3.382,2.311,5.526,2.311
			c2.175,0,4.017-0.754,5.527-2.265c1.54-1.54,2.311-3.397,2.311-5.572C1081.485,642.198,1080.714,640.355,1079.174,638.815z"/>
		<path d="M1087.781,643.934c0,2.536,0.68,4.545,2.039,6.024c1.419,1.511,3.367,2.266,5.844,2.266c1.269,0,2.416-0.211,3.443-0.635
			c1.298-0.544,2.461-1.646,3.488-3.307l1.676,0.77c-1.178,2.235-2.99,3.745-5.436,4.53c-0.937,0.302-1.993,0.453-3.171,0.453
			c-2.809,0-5.119-0.921-6.931-2.764c-1.843-1.842-2.764-4.151-2.764-6.931c0-2.809,0.906-5.119,2.718-6.931
			c1.842-1.842,4.167-2.764,6.976-2.764c2.778,0,5.074,0.86,6.886,2.582c1.842,1.722,2.764,3.957,2.764,6.705H1087.781z
			 M1100.556,638c-1.42-1.026-3.051-1.54-4.893-1.54c-3.866,0-6.403,1.902-7.61,5.707h15.176
			C1102.926,640.446,1102.035,639.057,1100.556,638z"/>
	</g>
</g>
<g>
	<g>
		<path d="M486.677,622.14l-3.714-9.694H468.24l-3.76,9.694h-1.812l12.911-33.387l12.956,33.387H486.677z M475.579,593.464
			l-6.614,17.124h13.228L475.579,593.464z"/>
		<path d="M508.603,619.512c-1.963,1.752-4.364,2.628-7.203,2.628h-10.102v-32.345h7.882c2.506,0,4.5,0.649,5.979,1.948
			c1.57,1.389,2.356,3.322,2.356,5.798c0,2.84-1.163,4.923-3.488,6.252c2.265,0.453,4.092,1.479,5.481,3.08
			c1.359,1.602,2.039,3.564,2.039,5.89C511.548,615.542,510.566,617.792,508.603,619.512z M503.847,593.284
			c-1.239-1.087-2.749-1.631-4.53-1.631h-6.206v11.778h6.478c1.751,0,3.201-0.544,4.349-1.631c1.147-1.088,1.722-2.507,1.722-4.259
			C505.659,595.73,505.054,594.311,503.847,593.284z M507.244,607.282c-1.54-1.329-3.473-1.993-5.798-1.993h-8.335v14.994h8.335
			c2.294,0,4.243-0.694,5.844-2.084c1.631-1.389,2.446-3.2,2.446-5.436C509.736,610.498,508.905,608.671,507.244,607.282z"/>
		<path d="M531.298,619.649c-1.873,1.873-4.167,2.809-6.886,2.809c-2.718,0-4.999-0.921-6.84-2.764
			c-1.873-1.872-2.809-4.168-2.809-6.886c0-2.688,0.936-4.968,2.809-6.841c1.842-1.902,4.123-2.854,6.84-2.854
			c2.688,0,4.968,0.937,6.841,2.809c1.872,1.873,2.809,4.168,2.809,6.886S533.14,617.807,531.298,619.649z M529.985,607.236
			c-1.511-1.54-3.368-2.31-5.572-2.31c-2.114,0-3.941,0.785-5.481,2.355c-1.571,1.57-2.356,3.413-2.356,5.526
			c0,2.145,0.77,3.986,2.311,5.526c1.54,1.541,3.382,2.311,5.526,2.311c2.175,0,4.017-0.754,5.527-2.265
			c1.54-1.54,2.311-3.397,2.311-5.572C532.25,610.604,531.495,608.747,529.985,607.236z"/>
		<path d="M546.927,622.14l-5.3-7.837l-5.3,7.837h-2.22l6.388-9.423l-6.251-9.286h2.174l5.209,7.746l5.165-7.746h2.174l-6.206,9.241
			l6.342,9.468H546.927z"/>
	</g>
</g>
<g>
	<g>
		<path d="M472.317,529.215v30.487h-1.857v-30.487h-7.158v-1.857h16.172v1.857H472.317z"/>
		<path d="M499.452,557.075c-1.963,1.752-4.364,2.628-7.203,2.628h-10.102v-32.345h7.882c2.506,0,4.5,0.649,5.979,1.948
			c1.57,1.389,2.356,3.322,2.356,5.798c0,2.84-1.163,4.923-3.488,6.252c2.265,0.453,4.092,1.479,5.481,3.08
			c1.359,1.602,2.039,3.564,2.039,5.89C502.397,553.104,501.415,555.354,499.452,557.075z M494.696,530.846
			c-1.239-1.087-2.749-1.631-4.53-1.631h-6.206v11.778h6.478c1.751,0,3.201-0.544,4.349-1.631c1.147-1.088,1.722-2.507,1.722-4.259
			C496.508,533.292,495.903,531.874,494.696,530.846z M498.093,544.844c-1.54-1.329-3.473-1.993-5.798-1.993h-8.335v14.994h8.335
			c2.294,0,4.243-0.694,5.844-2.084c1.631-1.389,2.446-3.2,2.446-5.436C500.585,548.06,499.754,546.234,498.093,544.844z"/>
		<path d="M522.147,557.211c-1.873,1.873-4.167,2.809-6.886,2.809c-2.718,0-4.999-0.921-6.84-2.764
			c-1.873-1.872-2.809-4.168-2.809-6.886c0-2.688,0.936-4.968,2.809-6.841c1.842-1.902,4.123-2.854,6.84-2.854
			c2.688,0,4.968,0.937,6.841,2.809c1.872,1.873,2.809,4.168,2.809,6.886S523.989,555.37,522.147,557.211z M520.834,544.798
			c-1.511-1.54-3.368-2.31-5.572-2.31c-2.114,0-3.941,0.785-5.481,2.355c-1.571,1.57-2.356,3.413-2.356,5.526
			c0,2.145,0.77,3.986,2.311,5.526c1.54,1.541,3.382,2.311,5.526,2.311c2.175,0,4.017-0.754,5.527-2.265
			c1.54-1.54,2.311-3.397,2.311-5.572C523.099,548.167,522.344,546.309,520.834,544.798z"/>
		<path d="M537.776,559.703l-5.3-7.837l-5.3,7.837h-2.22l6.388-9.423l-6.251-9.286h2.174l5.209,7.746l5.165-7.746h2.174
			l-6.206,9.241l6.342,9.468H537.776z"/>
	</g>
</g>
<g>
	<g>
		<path d="M985.494,287.776c-0.484-0.362-0.997-0.649-1.541-0.861c-0.543-0.211-1.118-0.317-1.721-0.317
			c-0.514,0-0.997,0.158-1.45,0.476c-0.453,0.317-0.846,0.71-1.178,1.178c-0.333,0.469-0.597,0.99-0.793,1.563
			c-0.197,0.574-0.294,1.103-0.294,1.585v12.322h-1.857v-18.709h1.857v2.537c0.392-0.694,0.906-1.329,1.54-1.903
			c0.634-0.573,1.329-0.86,2.084-0.86c0.936,0,1.706,0.106,2.311,0.317c0.604,0.212,1.283,0.589,2.039,1.132L985.494,287.776z"/>
		<path d="M1005.652,303.722v-3.352c-1.993,2.446-4.53,3.669-7.61,3.669c-2.718,0-4.999-0.921-6.841-2.763
			c-1.873-1.872-2.809-4.167-2.809-6.886c0-2.718,0.921-4.998,2.764-6.84c1.872-1.872,4.167-2.809,6.886-2.809
			c2.99,0,5.526,1.223,7.61,3.669V270.2h1.857v33.522H1005.652z M1003.568,288.863c-1.54-1.54-3.382-2.31-5.526-2.31
			c-2.175,0-4.017,0.755-5.527,2.265c-1.54,1.54-2.311,3.397-2.311,5.572c0,2.145,0.771,3.986,2.311,5.527
			c1.54,1.54,3.382,2.31,5.527,2.31c2.174,0,4.016-0.754,5.526-2.265c1.541-1.541,2.311-3.398,2.311-5.572
			C1005.878,292.246,1005.108,290.404,1003.568,288.863z"/>
		<path d="M1020.148,272.057l-1.223-0.136c-1.692,0-2.537,0.997-2.537,2.99v10.102h4.439v1.857h-4.439v16.852h-1.857V286.87h-2.537
			v-1.857h2.537v-10.646c0-2.869,1.45-4.304,4.349-4.304c0.664,0,1.087,0.031,1.269,0.091c0.362,0,0.77,0.106,1.223,0.317v1.857
			L1020.148,272.057z"/>
		<path d="M1034.508,302.544c-1.208,1.027-2.658,1.54-4.349,1.54c-2.899,0-5.074-1.313-6.523-3.941l1.585-0.952
			c0.513,0.937,1.132,1.662,1.857,2.175c0.755,0.574,1.782,0.86,3.081,0.86c2.838,0,4.258-1.208,4.258-3.624
			c0-1.057-0.498-1.978-1.495-2.763c-0.302-0.181-0.733-0.385-1.292-0.611c-0.559-0.227-1.246-0.491-2.061-0.793
			c-1.51-0.543-2.598-1.087-3.262-1.631c-0.967-0.785-1.45-1.917-1.45-3.397c0-1.269,0.483-2.356,1.45-3.262
			c0.936-0.936,2.159-1.404,3.669-1.404c2.084,0,3.851,0.725,5.3,2.174l-1.359,1.178c-1.027-1.026-2.341-1.54-3.941-1.54
			c-2.174,0-3.262,0.951-3.262,2.854c0,0.846,0.332,1.54,0.997,2.083c0.544,0.423,1.404,0.831,2.583,1.223
			c1.026,0.363,1.872,0.702,2.537,1.02c0.664,0.317,1.162,0.597,1.495,0.838c1.298,0.997,1.948,2.341,1.948,4.032
			C1036.275,300.234,1035.686,301.548,1034.508,302.544z"/>
		<path d="M1041.122,290.63c-0.333,0-0.679-0.136-1.042-0.408c-0.271-0.272-0.423-0.634-0.453-1.087
			c0-0.815,0.498-1.313,1.495-1.495c0.754,0,1.253,0.498,1.495,1.495C1042.617,290.132,1042.118,290.63,1041.122,290.63z
			 M1041.122,303.994c-0.333,0-0.679-0.136-1.042-0.408c-0.271-0.272-0.423-0.634-0.453-1.087c0-0.815,0.498-1.313,1.495-1.495
			c0.754,0,1.253,0.499,1.495,1.495C1042.617,303.496,1042.118,303.994,1041.122,303.994z"/>
		<path d="M1056.886,302.544c-1.208,1.027-2.658,1.54-4.349,1.54c-2.899,0-5.074-1.313-6.523-3.941l1.585-0.952
			c0.513,0.937,1.132,1.662,1.857,2.175c0.755,0.574,1.782,0.86,3.081,0.86c2.838,0,4.258-1.208,4.258-3.624
			c0-1.057-0.498-1.978-1.495-2.763c-0.302-0.181-0.733-0.385-1.292-0.611c-0.559-0.227-1.246-0.491-2.061-0.793
			c-1.51-0.543-2.598-1.087-3.262-1.631c-0.967-0.785-1.45-1.917-1.45-3.397c0-1.269,0.483-2.356,1.45-3.262
			c0.936-0.936,2.159-1.404,3.669-1.404c2.084,0,3.851,0.725,5.3,2.174l-1.359,1.178c-1.027-1.026-2.341-1.54-3.941-1.54
			c-2.174,0-3.262,0.951-3.262,2.854c0,0.846,0.332,1.54,0.997,2.083c0.544,0.423,1.404,0.831,2.583,1.223
			c1.026,0.363,1.872,0.702,2.537,1.02c0.664,0.317,1.162,0.597,1.495,0.838c1.298,0.997,1.948,2.341,1.948,4.032
			C1058.653,300.234,1058.064,301.548,1056.886,302.544z"/>
		<path d="M1074.598,302.091c-1.239,1.329-2.975,1.993-5.209,1.993c-2.205,0-3.912-0.649-5.119-1.948
			c-1.208-1.298-1.812-3.11-1.812-5.436v-11.688h1.857v11.688c0,1.782,0.392,3.156,1.178,4.122c0.815,0.967,2.114,1.45,3.896,1.45
			c3.473,0,5.209-1.857,5.209-5.572v-11.688h1.812v11.688C1076.41,298.996,1075.806,300.793,1074.598,302.091z"/>
		<path d="M1098.019,301.23c-1.873,1.873-4.168,2.809-6.886,2.809c-3.111,0-5.663-1.252-7.656-3.76v3.443h-1.857V270.2h1.857v18.301
			c1.963-2.506,4.515-3.76,7.656-3.76c2.718,0,4.998,0.921,6.84,2.763c1.872,1.873,2.809,4.168,2.809,6.886
			C1100.782,297.108,1099.86,299.389,1098.019,301.23z M1096.659,288.863c-1.54-1.54-3.382-2.31-5.526-2.31
			c-2.175,0-4.017,0.755-5.527,2.265c-1.54,1.54-2.311,3.397-2.311,5.572c0,2.145,0.771,3.986,2.311,5.527
			c1.54,1.54,3.382,2.31,5.527,2.31c2.174,0,4.016-0.754,5.526-2.265c1.541-1.541,2.311-3.398,2.311-5.572
			C1098.97,292.246,1098.2,290.404,1096.659,288.863z"/>
		<path d="M1127.827,301.819c-1.692,1.239-3.986,1.994-6.886,2.265c-0.333,0.03-0.695,0.052-1.087,0.068
			c-0.393,0.015-0.801,0.023-1.223,0.023c-4.893,0-8.879-1.541-11.959-4.621c-3.111-3.11-4.666-7.112-4.666-12.005
			s1.54-8.879,4.621-11.959c3.11-3.11,7.112-4.666,12.005-4.666c2.778,0,5.284,0.408,7.52,1.223c1.329,0.514,2.612,1.253,3.851,2.22
			v2.311c-1.268-1.057-2.658-1.903-4.167-2.537c-2.295-0.936-4.696-1.404-7.203-1.404c-4.289,0-7.822,1.39-10.601,4.168
			c-2.779,2.779-4.167,6.327-4.167,10.646c0,4.319,1.374,7.853,4.122,10.601c2.778,2.779,6.327,4.167,10.646,4.167
			c2.688,0,5.028-0.483,7.021-1.45c1.147-0.573,2.597-1.495,4.349-2.763v2.129L1127.827,301.819z"/>
		<path d="M1132.719,303.722V270.2h1.812v33.522H1132.719z"/>
		<path d="M1156.637,303.722v-3.216c-1.963,2.355-4.455,3.533-7.475,3.533c-2.718,0-4.999-0.921-6.84-2.763
			c-1.873-1.872-2.809-4.167-2.809-6.886c0-2.718,0.921-4.998,2.763-6.84c1.873-1.872,4.168-2.809,6.886-2.809
			c2.99,0,5.481,1.178,7.475,3.533v-3.261h1.857v18.709H1156.637z M1154.689,288.863c-1.54-1.54-3.383-2.31-5.527-2.31
			c-2.174,0-4.017,0.755-5.526,2.265c-1.541,1.54-2.311,3.397-2.311,5.572c0,2.145,0.77,3.986,2.311,5.527
			c1.54,1.54,3.382,2.31,5.526,2.31c2.175,0,4.017-0.754,5.527-2.265c1.54-1.541,2.311-3.398,2.311-5.572
			C1157,292.246,1156.229,290.404,1154.689,288.863z"/>
		<path d="M1173.217,302.544c-1.208,1.027-2.658,1.54-4.349,1.54c-2.899,0-5.074-1.313-6.523-3.941l1.585-0.952
			c0.513,0.937,1.132,1.662,1.857,2.175c0.755,0.574,1.782,0.86,3.081,0.86c2.838,0,4.258-1.208,4.258-3.624
			c0-1.057-0.498-1.978-1.495-2.763c-0.302-0.181-0.733-0.385-1.292-0.611c-0.559-0.227-1.246-0.491-2.061-0.793
			c-1.51-0.543-2.598-1.087-3.262-1.631c-0.967-0.785-1.45-1.917-1.45-3.397c0-1.269,0.483-2.356,1.45-3.262
			c0.936-0.936,2.159-1.404,3.669-1.404c2.084,0,3.851,0.725,5.3,2.174l-1.359,1.178c-1.027-1.026-2.341-1.54-3.941-1.54
			c-2.174,0-3.262,0.951-3.262,2.854c0,0.846,0.332,1.54,0.997,2.083c0.544,0.423,1.404,0.831,2.583,1.223
			c1.026,0.363,1.872,0.702,2.537,1.02c0.664,0.317,1.162,0.597,1.495,0.838c1.298,0.997,1.948,2.341,1.948,4.032
			C1174.983,300.234,1174.395,301.548,1173.217,302.544z"/>
		<path d="M1188.211,302.544c-1.208,1.027-2.658,1.54-4.349,1.54c-2.899,0-5.074-1.313-6.523-3.941l1.585-0.952
			c0.513,0.937,1.132,1.662,1.857,2.175c0.755,0.574,1.782,0.86,3.081,0.86c2.838,0,4.258-1.208,4.258-3.624
			c0-1.057-0.498-1.978-1.495-2.763c-0.302-0.181-0.733-0.385-1.292-0.611c-0.559-0.227-1.246-0.491-2.061-0.793
			c-1.51-0.543-2.598-1.087-3.262-1.631c-0.967-0.785-1.45-1.917-1.45-3.397c0-1.269,0.483-2.356,1.45-3.262
			c0.936-0.936,2.159-1.404,3.669-1.404c2.084,0,3.851,0.725,5.3,2.174l-1.359,1.178c-1.027-1.026-2.341-1.54-3.941-1.54
			c-2.174,0-3.262,0.951-3.262,2.854c0,0.846,0.332,1.54,0.997,2.083c0.544,0.423,1.404,0.831,2.583,1.223
			c1.026,0.363,1.872,0.702,2.537,1.02c0.664,0.317,1.162,0.597,1.495,0.838c1.298,0.997,1.948,2.341,1.948,4.032
			C1189.978,300.234,1189.389,301.548,1188.211,302.544z"/>
		<path d="M1221.914,299.509c-3.111,3.111-7.112,4.666-12.004,4.666c-4.893,0-8.879-1.541-11.959-4.621
			c-3.111-3.11-4.666-7.112-4.666-12.005s1.54-8.879,4.621-11.959c3.11-3.11,7.112-4.666,12.005-4.666
			c4.862,0,8.863,1.541,12.004,4.621c3.11,3.111,4.666,7.112,4.666,12.005S1225.024,296.429,1221.914,299.509z M1220.601,276.904
			c-2.779-2.778-6.342-4.168-10.691-4.168c-4.289,0-7.822,1.39-10.601,4.168c-2.779,2.779-4.167,6.327-4.167,10.646
			c0,4.319,1.374,7.853,4.122,10.601c2.778,2.779,6.327,4.167,10.646,4.167c4.349,0,7.912-1.359,10.691-4.077
			c2.748-2.748,4.122-6.312,4.122-10.691C1224.723,283.201,1223.348,279.653,1220.601,276.904z"/>
		<path d="M1238.358,272.057l-1.223-0.136c-1.692,0-2.537,0.997-2.537,2.99v10.102h4.439v1.857h-4.439v16.852h-1.857V286.87h-2.537
			v-1.857h2.537v-10.646c0-2.869,1.45-4.304,4.349-4.304c0.664,0,1.087,0.031,1.269,0.091c0.362,0,0.77,0.106,1.223,0.317v1.857
			L1238.358,272.057z"/>
	</g>
</g>
<g>
	<g>
		
			<line fill="none" stroke="#000000" stroke-width="1.51" stroke-miterlimit="10" x1="959.778" y1="747.394" x2="959.778" y2="538.962"/>
		<g>
			<polygon points="968.166,545.324 959.778,541.76 951.39,545.324 959.778,525.441 			"/>
		</g>
	</g>
</g>
<g>
	<g>
		
			<line fill="none" stroke="#000000" stroke-width="1.51" stroke-miterlimit="10" x1="959.778" y1="407.359" x2="959.778" y2="198.927"/>
		<g>
			<polygon points="968.166,205.289 959.778,201.725 951.39,205.289 959.778,185.406 			"/>
		</g>
	</g>
</g>
<g>
	<g>
		<line fill="none" stroke="#000000" stroke-miterlimit="10" x1="451.272" y1="576.722" x2="458.772" y2="576.722"/>
		
			<line fill="none" stroke="#000000" stroke-miterlimit="10" stroke-dasharray="15.0326,15.0326" x1="473.805" y1="576.722" x2="1428.375" y2="576.722"/>
		<line fill="none" stroke="#000000" stroke-miterlimit="10" x1="1435.891" y1="576.722" x2="1443.391" y2="576.722"/>
	</g>
</g>
<line fill="none" stroke="#000000" stroke-width="0.5" stroke-miterlimit="10" x1="451.272" y1="868.621" x2="1443.391" y2="868.621"/>
<g>
	
		<rect x="709.514" y="884.347" fill="#EDEDED" stroke="#000000" stroke-width="0.453" stroke-miterlimit="10" width="129.287" height="45.523"/>
	<g>
		<path d="M722.937,901.699c-0.272,0-0.556-0.111-0.853-0.334c-0.222-0.222-0.346-0.519-0.371-0.89c0-0.667,0.408-1.075,1.224-1.224
			c0.618,0,1.025,0.408,1.224,1.224C724.161,901.291,723.752,901.699,722.937,901.699z M722.158,919.755v-15.313h1.52v15.313
			H722.158z"/>
		<path d="M737.249,919.755v-9.158c0-3.237-1.458-4.857-4.375-4.857c-1.434,0-2.521,0.421-3.263,1.261
			c-0.767,0.841-1.149,1.99-1.149,3.448v9.307h-1.52v-15.313h1.52v1.854c0.692-1.359,2.163-2.039,4.412-2.039
			c1.903,0,3.361,0.544,4.375,1.631c1.013,1.088,1.521,2.608,1.521,4.561v9.307H737.249z"/>
		<path d="M751.189,918.792c-0.989,0.841-2.175,1.261-3.559,1.261c-2.373,0-4.153-1.075-5.339-3.226l1.298-0.779
			c0.42,0.767,0.927,1.36,1.52,1.78c0.618,0.47,1.458,0.704,2.521,0.704c2.323,0,3.485-0.988,3.485-2.966
			c0-0.865-0.408-1.619-1.223-2.262c-0.248-0.148-0.6-0.315-1.057-0.501s-1.02-0.401-1.687-0.648
			c-1.236-0.445-2.126-0.89-2.669-1.335c-0.792-0.643-1.187-1.569-1.187-2.781c0-1.038,0.395-1.928,1.187-2.669
			c0.766-0.766,1.767-1.149,3.003-1.149c1.706,0,3.151,0.593,4.338,1.779l-1.112,0.964c-0.84-0.84-1.916-1.261-3.226-1.261
			c-1.78,0-2.669,0.779-2.669,2.336c0,0.692,0.271,1.261,0.815,1.706c0.445,0.347,1.149,0.68,2.113,1.001
			c0.84,0.297,1.533,0.574,2.077,0.834c0.543,0.26,0.951,0.488,1.224,0.687c1.063,0.815,1.594,1.915,1.594,3.3
			C752.635,916.901,752.153,917.976,751.189,918.792z"/>
		<path d="M758.234,905.962v13.793h-1.521v-13.793h-2.076v-1.52h2.076v-6.711h1.521v6.711h3.559v1.52H758.234z"/>
		<path d="M776.328,919.755v-2.633c-1.607,1.929-3.646,2.893-6.118,2.893c-2.225,0-4.091-0.754-5.599-2.262
			c-1.533-1.532-2.299-3.411-2.299-5.636s0.753-4.091,2.262-5.599c1.532-1.532,3.411-2.299,5.636-2.299
			c2.447,0,4.486,0.964,6.118,2.892v-2.669h1.52v15.313H776.328z M774.733,907.594c-1.261-1.261-2.769-1.892-4.523-1.892
			c-1.78,0-3.288,0.618-4.523,1.854c-1.261,1.261-1.891,2.78-1.891,4.561c0,1.755,0.63,3.263,1.891,4.523
			c1.26,1.261,2.768,1.891,4.523,1.891c1.779,0,3.287-0.617,4.523-1.854c1.26-1.261,1.891-2.781,1.891-4.561
			C776.624,910.363,775.994,908.855,774.733,907.594z"/>
		<path d="M792.678,919.755v-9.158c0-3.237-1.458-4.857-4.375-4.857c-1.434,0-2.521,0.421-3.263,1.261
			c-0.767,0.841-1.149,1.99-1.149,3.448v9.307h-1.52v-15.313h1.52v1.854c0.692-1.359,2.163-2.039,4.412-2.039
			c1.903,0,3.361,0.544,4.375,1.631c1.013,1.088,1.521,2.608,1.521,4.561v9.307H792.678z"/>
		<path d="M806.322,920.052c-2.274,0-4.166-0.754-5.673-2.262c-1.508-1.508-2.262-3.398-2.262-5.673s0.754-4.165,2.262-5.673
			c1.507-1.508,3.398-2.262,5.673-2.262c1.952,0,3.509,0.444,4.672,1.335v1.816l-0.964-0.63l-1.038-0.557
			c-0.939-0.321-1.83-0.481-2.669-0.481c-1.904,0-3.448,0.593-4.635,1.779c-1.211,1.211-1.817,2.769-1.817,4.672
			c0,1.879,0.605,3.424,1.817,4.635c1.211,1.211,2.756,1.816,4.635,1.816c1.78,0,3.337-0.593,4.672-1.779v1.891
			C809.609,919.595,808.052,920.052,806.322,920.052z"/>
		<path d="M813.441,911.784c0,2.076,0.556,3.721,1.668,4.932c1.162,1.236,2.756,1.854,4.783,1.854c1.038,0,1.977-0.173,2.818-0.519
			c1.063-0.445,2.014-1.348,2.855-2.707l1.372,0.63c-0.964,1.83-2.447,3.065-4.449,3.708c-0.767,0.247-1.631,0.371-2.595,0.371
			c-2.299,0-4.19-0.754-5.673-2.262c-1.508-1.508-2.262-3.398-2.262-5.673c0-2.299,0.741-4.189,2.225-5.673
			c1.507-1.508,3.411-2.262,5.71-2.262c2.274,0,4.152,0.704,5.636,2.113c1.507,1.409,2.262,3.238,2.262,5.487H813.441z
			 M823.897,906.926c-1.163-0.84-2.497-1.26-4.004-1.26c-3.165,0-5.241,1.557-6.229,4.671h12.421
			C825.837,908.929,825.107,907.792,823.897,906.926z"/>
	</g>
</g>
<g>
	<g>
		<path d="M962.672,917.766c0,1.819,0.488,3.261,1.463,4.322c1.018,1.084,2.416,1.625,4.192,1.625c0.91,0,1.733-0.151,2.47-0.455
			c0.932-0.39,1.766-1.181,2.503-2.372l1.202,0.552c-0.845,1.604-2.145,2.688-3.9,3.25c-0.672,0.217-1.43,0.325-2.275,0.325
			c-2.015,0-3.672-0.66-4.973-1.982c-1.322-1.321-1.982-2.979-1.982-4.973c0-2.015,0.65-3.672,1.95-4.973
			c1.321-1.321,2.99-1.982,5.005-1.982c1.993,0,3.64,0.618,4.94,1.853c1.321,1.235,1.982,2.839,1.982,4.811H962.672z
			 M971.837,913.508c-1.019-0.736-2.188-1.104-3.51-1.104c-2.774,0-4.594,1.364-5.46,4.095h10.887
			C973.538,915.263,972.899,914.267,971.837,913.508z"/>
		<path d="M984.155,924.753l-3.802-5.622l-3.803,5.622h-1.592l4.583-6.76l-4.485-6.663h1.56l3.737,5.558l3.705-5.558h1.56
			l-4.453,6.63l4.55,6.793H984.155z"/>
		<path d="M1000.048,922.966c-1.344,1.344-2.99,2.015-4.94,2.015c-2.232,0-4.074-0.91-5.525-2.73v8.808h-1.333v-19.728h1.333v2.535
			c1.386-1.819,3.228-2.729,5.525-2.729c1.95,0,3.585,0.661,4.908,1.982c1.343,1.344,2.015,2.99,2.015,4.939
			C1002.03,920.008,1001.369,921.645,1000.048,922.966z M999.073,914.093c-1.105-1.104-2.427-1.657-3.965-1.657
			c-1.56,0-2.882,0.542-3.965,1.625c-1.105,1.104-1.658,2.438-1.658,3.997c0,1.539,0.553,2.86,1.658,3.965
			c1.105,1.105,2.426,1.658,3.965,1.658c1.56,0,2.881-0.542,3.965-1.625c1.105-1.105,1.658-2.438,1.658-3.998
			C1000.73,916.52,1000.178,915.199,999.073,914.093z"/>
		<path d="M1005.345,924.753v-24.05h1.3v24.05H1005.345z"/>
		<path d="M1010.48,908.926c-0.239,0-0.488-0.098-0.748-0.293c-0.195-0.195-0.304-0.455-0.325-0.78c0-0.585,0.357-0.942,1.073-1.072
			c0.541,0,0.898,0.357,1.072,1.072C1011.552,908.569,1011.195,908.926,1010.48,908.926z M1009.797,924.753v-13.423h1.333v13.423
			H1009.797z"/>
		<path d="M1021.887,925.013c-1.994,0-3.651-0.66-4.973-1.982c-1.322-1.321-1.982-2.979-1.982-4.973c0-1.993,0.661-3.65,1.982-4.973
			c1.322-1.321,2.979-1.982,4.973-1.982c1.711,0,3.076,0.391,4.095,1.17v1.593l-0.845-0.553l-0.91-0.487
			c-0.823-0.281-1.604-0.422-2.34-0.422c-1.668,0-3.022,0.52-4.063,1.56c-1.062,1.062-1.592,2.427-1.592,4.095
			c0,1.647,0.531,3.002,1.592,4.063c1.062,1.063,2.416,1.593,4.063,1.593c1.56,0,2.925-0.52,4.095-1.56v1.657
			C1024.768,924.613,1023.403,925.013,1021.887,925.013z"/>
		<path d="M1029.915,908.926c-0.239,0-0.488-0.098-0.748-0.293c-0.195-0.195-0.304-0.455-0.325-0.78
			c0-0.585,0.357-0.942,1.073-1.072c0.541,0,0.898,0.357,1.072,1.072C1030.987,908.569,1030.629,908.926,1029.915,908.926z
			 M1029.232,924.753v-13.423h1.333v13.423H1029.232z"/>
		<path d="M1036.999,912.664v12.09h-1.333v-12.09h-1.82v-1.333h1.82v-5.882h1.333v5.882h3.12v1.333H1036.999z"/>
		<path d="M1043.466,924.753v-24.05h1.3v24.05H1043.466z"/>
		<path d="M1051.786,931.058h-1.495l3.478-7.54l-5.655-12.188h1.43l5.005,10.596l4.94-10.596h1.462L1051.786,931.058z"/>
		<path d="M1078.696,923.909c-0.867,0.736-1.907,1.104-3.12,1.104c-2.08,0-3.64-0.942-4.68-2.827l1.138-0.683
			c0.368,0.672,0.813,1.191,1.333,1.56c0.541,0.412,1.278,0.618,2.21,0.618c2.036,0,3.055-0.866,3.055-2.601
			c0-0.758-0.358-1.419-1.073-1.982c-0.217-0.13-0.525-0.276-0.926-0.438c-0.401-0.162-0.894-0.352-1.479-0.568
			c-1.084-0.391-1.864-0.78-2.34-1.17c-0.693-0.563-1.04-1.376-1.04-2.438c0-0.91,0.347-1.69,1.04-2.341
			c0.671-0.671,1.549-1.007,2.633-1.007c1.495,0,2.762,0.52,3.802,1.56l-0.975,0.845c-0.737-0.736-1.679-1.104-2.827-1.104
			c-1.56,0-2.34,0.683-2.34,2.048c0,0.606,0.238,1.104,0.715,1.494c0.39,0.304,1.007,0.597,1.853,0.878
			c0.736,0.26,1.343,0.504,1.82,0.731c0.476,0.228,0.834,0.428,1.072,0.601c0.932,0.716,1.397,1.68,1.397,2.893
			C1079.963,922.25,1079.541,923.194,1078.696,923.909z"/>
		<path d="M1084.871,912.664v12.09h-1.333v-12.09h-1.82v-1.333h1.82v-5.882h1.333v5.882h3.12v1.333H1084.871z"/>
		<path d="M1100.73,924.753v-2.308c-1.409,1.69-3.196,2.535-5.362,2.535c-1.95,0-3.586-0.661-4.908-1.982
			c-1.344-1.344-2.015-2.99-2.015-4.94c0-1.949,0.661-3.585,1.982-4.907c1.343-1.343,2.99-2.015,4.94-2.015
			c2.145,0,3.933,0.845,5.362,2.535v-2.341h1.333v13.423H1100.73z M1099.333,914.093c-1.105-1.104-2.427-1.657-3.965-1.657
			c-1.56,0-2.882,0.542-3.965,1.625c-1.105,1.104-1.658,2.438-1.658,3.997c0,1.539,0.553,2.86,1.658,3.965
			c1.105,1.105,2.426,1.658,3.965,1.658c1.56,0,2.881-0.542,3.965-1.625c1.105-1.105,1.658-2.438,1.658-3.998
			C1100.991,916.52,1100.438,915.199,1099.333,914.093z"/>
		<path d="M1108.043,912.664v12.09h-1.333v-12.09h-1.82v-1.333h1.82v-5.882h1.333v5.882h3.12v1.333H1108.043z"/>
		<path d="M1114.413,917.766c0,1.819,0.488,3.261,1.463,4.322c1.018,1.084,2.416,1.625,4.192,1.625c0.91,0,1.733-0.151,2.47-0.455
			c0.932-0.39,1.766-1.181,2.503-2.372l1.202,0.552c-0.845,1.604-2.145,2.688-3.9,3.25c-0.672,0.217-1.43,0.325-2.275,0.325
			c-2.015,0-3.672-0.66-4.973-1.982c-1.322-1.321-1.982-2.979-1.982-4.973c0-2.015,0.65-3.672,1.95-4.973
			c1.321-1.321,2.99-1.982,5.005-1.982c1.993,0,3.64,0.618,4.94,1.853c1.321,1.235,1.982,2.839,1.982,4.811H1114.413z
			 M1123.578,913.508c-1.019-0.736-2.188-1.104-3.51-1.104c-2.774,0-4.594,1.364-5.46,4.095h10.887
			C1125.278,915.263,1124.639,914.267,1123.578,913.508z"/>
		<path d="M1141.712,924.753v-2.405c-1.43,1.755-3.25,2.633-5.46,2.633c-1.95,0-3.586-0.661-4.907-1.982
			c-1.344-1.344-2.015-2.99-2.015-4.94c0-1.949,0.661-3.585,1.982-4.907c1.343-1.343,2.99-2.015,4.94-2.015
			c2.145,0,3.965,0.877,5.46,2.632v-13.064h1.333v24.05H1141.712z M1140.218,914.093c-1.105-1.104-2.427-1.657-3.965-1.657
			c-1.56,0-2.882,0.542-3.965,1.625c-1.105,1.104-1.658,2.438-1.658,3.997c0,1.539,0.553,2.86,1.658,3.965
			c1.105,1.105,2.426,1.658,3.965,1.658c1.56,0,2.881-0.542,3.965-1.625c1.105-1.105,1.657-2.438,1.657-3.998
			C1141.875,916.52,1141.323,915.199,1140.218,914.093z"/>
	</g>
</g>
<g>
	<g>
		<path fill="none" stroke="#000000" stroke-width="1.1123" stroke-miterlimit="10" d="M925.403,929.867
			c0,0,16.73-43.834,188.161-45.473"/>
		<g>
			<polygon points="1108.982,890.758 1111.508,884.54 1108.785,878.403 1123.528,884.347 			"/>
		</g>
	</g>
</g>
<g>
	<g>
		<path d="M1276.592,908.926c-0.239,0-0.488-0.098-0.748-0.293c-0.195-0.195-0.304-0.455-0.325-0.78
			c0-0.585,0.357-0.942,1.073-1.072c0.541,0,0.898,0.357,1.072,1.072C1277.665,908.569,1277.307,908.926,1276.592,908.926z
			 M1275.91,924.753v-13.423h1.333v13.423H1275.91z"/>
		<path d="M1289.137,924.753v-8.027c0-2.838-1.279-4.258-3.835-4.258c-1.257,0-2.21,0.369-2.86,1.105
			c-0.672,0.736-1.007,1.744-1.007,3.022v8.157h-1.333v-13.423h1.333v1.625c0.606-1.191,1.896-1.787,3.868-1.787
			c1.668,0,2.946,0.477,3.835,1.43c0.888,0.954,1.333,2.286,1.333,3.998v8.157H1289.137z"/>
		<path d="M1298.075,902.036l-0.877-0.098c-1.214,0-1.82,0.716-1.82,2.146v7.247h3.185v1.333h-3.185v12.09h-1.333v-12.09h-1.82
			v-1.333h1.82v-7.637c0-2.059,1.04-3.088,3.12-3.088c0.477,0,0.78,0.021,0.91,0.065c0.26,0,0.552,0.076,0.877,0.227v1.333
			L1298.075,902.036z"/>
		<path d="M1300.382,917.766c0,1.819,0.488,3.261,1.463,4.322c1.018,1.084,2.416,1.625,4.192,1.625c0.91,0,1.733-0.151,2.47-0.455
			c0.932-0.39,1.766-1.181,2.503-2.372l1.202,0.552c-0.845,1.604-2.145,2.688-3.9,3.25c-0.672,0.217-1.43,0.325-2.275,0.325
			c-2.015,0-3.672-0.66-4.973-1.982c-1.322-1.321-1.982-2.979-1.982-4.973c0-2.015,0.65-3.672,1.95-4.973
			c1.321-1.321,2.99-1.982,5.005-1.982c1.993,0,3.64,0.618,4.94,1.853c1.321,1.235,1.982,2.839,1.982,4.811H1300.382z
			 M1309.547,913.508c-1.019-0.736-2.188-1.104-3.51-1.104c-2.774,0-4.594,1.364-5.46,4.095h10.887
			C1311.248,915.263,1310.608,914.267,1309.547,913.508z"/>
		<path d="M1322.384,913.313c-0.347-0.26-0.715-0.465-1.105-0.617c-0.39-0.151-0.802-0.228-1.235-0.228
			c-0.369,0-0.715,0.114-1.04,0.342s-0.607,0.509-0.845,0.845s-0.428,0.71-0.568,1.121c-0.142,0.412-0.211,0.791-0.211,1.138v8.84
			h-1.333v-13.423h1.333v1.82c0.281-0.498,0.65-0.953,1.105-1.365c0.455-0.411,0.953-0.617,1.495-0.617
			c0.671,0,1.224,0.076,1.657,0.228c0.433,0.151,0.921,0.423,1.462,0.813L1322.384,913.313z"/>
		<path d="M1332.459,913.313c-0.347-0.26-0.715-0.465-1.105-0.617c-0.39-0.151-0.802-0.228-1.235-0.228
			c-0.369,0-0.715,0.114-1.04,0.342s-0.607,0.509-0.845,0.845s-0.428,0.71-0.568,1.121c-0.142,0.412-0.211,0.791-0.211,1.138v8.84
			h-1.333v-13.423h1.333v1.82c0.281-0.498,0.65-0.953,1.105-1.365c0.455-0.411,0.953-0.617,1.495-0.617
			c0.671,0,1.224,0.076,1.657,0.228c0.433,0.151,0.921,0.423,1.462,0.813L1332.459,913.313z"/>
		<path d="M1334.539,917.766c0,1.819,0.488,3.261,1.463,4.322c1.018,1.084,2.416,1.625,4.192,1.625c0.91,0,1.733-0.151,2.47-0.455
			c0.932-0.39,1.766-1.181,2.503-2.372l1.202,0.552c-0.845,1.604-2.145,2.688-3.9,3.25c-0.672,0.217-1.43,0.325-2.275,0.325
			c-2.015,0-3.672-0.66-4.973-1.982c-1.322-1.321-1.982-2.979-1.982-4.973c0-2.015,0.65-3.672,1.95-4.973
			c1.321-1.321,2.99-1.982,5.005-1.982c1.993,0,3.64,0.618,4.94,1.853c1.321,1.235,1.982,2.839,1.982,4.811H1334.539z
			 M1343.704,913.508c-1.019-0.736-2.188-1.104-3.51-1.104c-2.774,0-4.594,1.364-5.46,4.095h10.887
			C1345.405,915.263,1344.766,914.267,1343.704,913.508z"/>
		<path d="M1361.839,924.753v-2.405c-1.43,1.755-3.25,2.633-5.46,2.633c-1.95,0-3.586-0.661-4.907-1.982
			c-1.344-1.344-2.015-2.99-2.015-4.94c0-1.949,0.661-3.585,1.982-4.907c1.343-1.343,2.99-2.015,4.94-2.015
			c2.145,0,3.965,0.877,5.46,2.632v-13.064h1.333v24.05H1361.839z M1360.344,914.093c-1.105-1.104-2.427-1.657-3.965-1.657
			c-1.56,0-2.882,0.542-3.965,1.625c-1.105,1.104-1.658,2.438-1.658,3.997c0,1.539,0.553,2.86,1.658,3.965
			c1.105,1.105,2.426,1.658,3.965,1.658c1.56,0,2.881-0.542,3.965-1.625c1.105-1.105,1.657-2.438,1.657-3.998
			C1362.001,916.52,1361.449,915.199,1360.344,914.093z"/>
	</g>
</g>
<g>
	<g>
		<path fill="none" stroke="#000000" stroke-width="1.51" stroke-miterlimit="10" stroke-dasharray="7.5,7.5" d="M1229.817,929.867
			c0,0,16.498-43.226,184.604-45.433"/>
		<g>
			<polygon points="1408.195,893.051 1411.625,884.608 1407.928,876.278 1427.942,884.347 			"/>
		</g>
	</g>
</g>
<path fill="#EDEDED" stroke="#000000" stroke-width="0.2009" stroke-miterlimit="10" d="M622.913,919.023
	c0,7.074-5.752,12.824-12.832,12.824H479.563c-7.09,0-12.842-5.75-12.842-12.824v-21.855c0-7.086,5.752-12.82,12.842-12.82h130.518
	c7.08,0,12.832,5.734,12.832,12.82V919.023z"/>
<g>
	<path d="M495.073,917.716c-1.533,1.533-3.411,2.299-5.636,2.299s-4.091-0.754-5.599-2.262c-1.533-1.532-2.299-3.411-2.299-5.636
		c0-2.2,0.766-4.066,2.299-5.599c1.507-1.558,3.374-2.336,5.599-2.336c2.2,0,4.065,0.767,5.599,2.299
		c1.532,1.532,2.299,3.411,2.299,5.636S496.581,916.208,495.073,917.716z M493.998,907.557c-1.236-1.261-2.757-1.891-4.561-1.891
		c-1.73,0-3.226,0.643-4.486,1.928c-1.286,1.285-1.928,2.793-1.928,4.523c0,1.755,0.63,3.263,1.891,4.523
		c1.26,1.261,2.768,1.891,4.523,1.891c1.779,0,3.287-0.617,4.523-1.854c1.26-1.261,1.891-2.781,1.891-4.561
		C495.852,910.313,495.233,908.793,493.998,907.557z"/>
	<path d="M514.316,920.422l-4.783-12.235l-4.857,12.235l-6.859-15.979h1.631l5.154,11.864l4.931-12.347l4.895,12.31l5.116-11.827
		h1.706L514.316,920.422z"/>
	<path d="M524.957,919.755v-27.438h1.483v27.438H524.957z"/>
	<path d="M532.334,909.041c-0.272,0-0.556-0.111-0.853-0.334c-0.223-0.223-0.347-0.52-0.371-0.89c0-0.668,0.408-1.075,1.223-1.224
		c0.618,0,1.026,0.407,1.224,1.224C533.558,908.632,533.15,909.041,532.334,909.041z M532.334,919.978
		c-0.272,0-0.556-0.111-0.853-0.334c-0.223-0.223-0.347-0.519-0.371-0.89c0-0.668,0.408-1.075,1.223-1.224
		c0.618,0,1.026,0.408,1.224,1.224C533.558,919.57,533.15,919.978,532.334,919.978z"/>
	<path d="M558.251,918.198c-1.385,1.015-3.263,1.632-5.636,1.854c-0.272,0.024-0.569,0.043-0.89,0.056
		c-0.322,0.012-0.655,0.019-1.001,0.019c-4.004,0-7.268-1.261-9.789-3.782c-2.546-2.546-3.819-5.821-3.819-9.825
		c0-4.005,1.26-7.268,3.782-9.789c2.545-2.545,5.821-3.818,9.826-3.818c2.273,0,4.325,0.334,6.155,1.001
		c1.087,0.421,2.138,1.026,3.151,1.816v1.892c-1.038-0.865-2.175-1.558-3.411-2.076c-1.879-0.767-3.844-1.149-5.895-1.149
		c-3.51,0-6.402,1.137-8.676,3.411c-2.274,2.274-3.411,5.178-3.411,8.713s1.125,6.427,3.374,8.676
		c2.274,2.274,5.178,3.411,8.713,3.411c2.2,0,4.115-0.396,5.747-1.187c0.939-0.469,2.125-1.224,3.56-2.262v1.743L558.251,918.198z"
		/>
	<path d="M562.255,919.755v-27.438h1.483v27.438H562.255z"/>
	<path d="M581.832,919.755v-2.633c-1.607,1.929-3.646,2.893-6.118,2.893c-2.225,0-4.091-0.754-5.599-2.262
		c-1.533-1.532-2.299-3.411-2.299-5.636s0.753-4.091,2.262-5.599c1.532-1.532,3.411-2.299,5.636-2.299
		c2.447,0,4.486,0.964,6.118,2.892v-2.669h1.52v15.313H581.832z M580.237,907.594c-1.261-1.261-2.769-1.892-4.523-1.892
		c-1.78,0-3.288,0.618-4.523,1.854c-1.261,1.261-1.891,2.78-1.891,4.561c0,1.755,0.63,3.263,1.891,4.523
		c1.26,1.261,2.768,1.891,4.523,1.891c1.779,0,3.287-0.617,4.523-1.854c1.26-1.261,1.891-2.781,1.891-4.561
		C582.128,910.363,581.498,908.855,580.237,907.594z"/>
	<path d="M595.401,918.792c-0.989,0.841-2.175,1.261-3.559,1.261c-2.373,0-4.153-1.075-5.339-3.226l1.298-0.779
		c0.42,0.767,0.927,1.36,1.52,1.78c0.618,0.47,1.458,0.704,2.521,0.704c2.323,0,3.485-0.988,3.485-2.966
		c0-0.865-0.408-1.619-1.223-2.262c-0.248-0.148-0.6-0.315-1.057-0.501s-1.02-0.401-1.687-0.648
		c-1.236-0.445-2.126-0.89-2.669-1.335c-0.792-0.643-1.187-1.569-1.187-2.781c0-1.038,0.395-1.928,1.187-2.669
		c0.766-0.766,1.767-1.149,3.003-1.149c1.706,0,3.151,0.593,4.338,1.779l-1.112,0.964c-0.84-0.84-1.916-1.261-3.226-1.261
		c-1.78,0-2.669,0.779-2.669,2.336c0,0.692,0.271,1.261,0.815,1.706c0.445,0.347,1.149,0.68,2.113,1.001
		c0.84,0.297,1.533,0.574,2.077,0.834c0.543,0.26,0.951,0.488,1.224,0.687c1.063,0.815,1.594,1.915,1.594,3.3
		C596.848,916.901,596.366,917.976,595.401,918.792z"/>
	<path d="M607.674,918.792c-0.989,0.841-2.175,1.261-3.559,1.261c-2.373,0-4.153-1.075-5.339-3.226l1.298-0.779
		c0.42,0.767,0.927,1.36,1.52,1.78c0.618,0.47,1.458,0.704,2.521,0.704c2.323,0,3.485-0.988,3.485-2.966
		c0-0.865-0.408-1.619-1.223-2.262c-0.248-0.148-0.6-0.315-1.057-0.501s-1.02-0.401-1.687-0.648
		c-1.236-0.445-2.126-0.89-2.669-1.335c-0.792-0.643-1.187-1.569-1.187-2.781c0-1.038,0.395-1.928,1.187-2.669
		c0.766-0.766,1.767-1.149,3.003-1.149c1.706,0,3.151,0.593,4.338,1.779l-1.112,0.964c-0.84-0.84-1.916-1.261-3.226-1.261
		c-1.78,0-2.669,0.779-2.669,2.336c0,0.692,0.271,1.261,0.815,1.706c0.445,0.347,1.149,0.68,2.113,1.001
		c0.84,0.297,1.533,0.574,2.077,0.834c0.543,0.26,0.951,0.488,1.224,0.687c1.063,0.815,1.594,1.915,1.594,3.3
		C609.12,916.901,608.638,917.976,607.674,918.792z"/>
</g>
</svg>
