<?xml version="1.0" encoding="utf-8"?>
<!-- Generator: Adobe Illustrator 16.0.0, SVG Export Plug-In . SVG Version: 6.00 Build 0)  -->
<!DOCTYPE svg PUBLIC "-//W3C//DTD SVG 1.1//EN" "http://www.w3.org/Graphics/SVG/1.1/DTD/svg11.dtd">
<svg version="1.1" id="Layer_1" xmlns="http://www.w3.org/2000/svg" xmlns:xlink="http://www.w3.org/1999/xlink" x="0px" y="0px"
	 width="1920px" height="1080px" viewBox="0 0 1920 1080" enable-background="new 0 0 1920 1080" xml:space="preserve">
<g>
	<polygon fill="#E3E9BA" points="727.817,561.217 1069.29,977.042 1845.341,519.379 1400.004,351.124 	"/>
	<polygon fill="none" stroke="#000000" stroke-miterlimit="10" points="726.982,561.217 1068.455,977.042 1845.341,519.379 
		1400.004,351.124 	"/>
</g>
<g>
	<line fill="none" stroke="#000000" stroke-miterlimit="10" x1="1434.048" y1="449.981" x2="1068.455" y2="576.441"/>
	<line fill="none" stroke="#000000" stroke-miterlimit="10" x1="1616.413" y1="530.248" x2="1434.048" y2="449.981"/>
	<line fill="none" stroke="#000000" stroke-miterlimit="10" x1="1436.777" y1="321.491" x2="1434.048" y2="449.981"/>
	<polyline opacity="0.7" fill="#94C356" points="1037.562,418.99 1436.777,321.491 1634.878,382.786 1616.413,530.248 
		1223.585,718.574 1068.455,576.441 	"/>
	<polyline fill="none" stroke="#000000" stroke-miterlimit="10" points="1068.455,576.441 1037.562,418.99 1436.777,321.491 
		1634.878,382.786 1616.413,530.248 1223.585,718.574 1068.455,576.441 	"/>
	<path fill="none" stroke="#000000" stroke-miterlimit="10" d="M1350.633,342.529"/>
	<path fill="none" stroke="#000000" stroke-miterlimit="10" d="M1545.13,414.494"/>
	<line fill="none" stroke="#000000" stroke-miterlimit="10" x1="1202.905" y1="535.411" x2="1634.878" y2="382.786"/>
	<line fill="none" stroke="#000000" stroke-miterlimit="10" x1="1202.905" y1="535.411" x2="1037.562" y2="418.99"/>
	<line fill="none" stroke="#000000" stroke-miterlimit="10" x1="1202.905" y1="535.411" x2="1223.585" y2="718.574"/>
</g>
<g>
	<line fill="none" stroke="#000000" stroke-miterlimit="10" x1="1436.096" y1="385.735" x2="1053.008" y2="497.716"/>
	<line fill="none" stroke="#000000" stroke-miterlimit="10" x1="1625.645" y1="456.517" x2="1436.096" y2="385.735"/>
	<line fill="none" stroke="#000000" stroke-miterlimit="10" x1="1436.777" y1="321.491" x2="1436.096" y2="385.735"/>
	<polyline opacity="0.7" fill="#F18700" points="1037.562,418.99 1436.777,321.491 1634.878,382.786 1625.645,456.517 
		1213.245,627.932 1053.008,497.716 	"/>
	<polyline fill="none" stroke="#000000" stroke-miterlimit="10" points="1053.008,497.716 1037.562,418.99 1436.777,321.491 
		1634.878,382.786 1625.645,456.517 1213.245,627.932 1053.008,497.716 	"/>
	<path fill="none" stroke="#000000" stroke-miterlimit="10" d="M1350.633,342.529"/>
	<path fill="none" stroke="#000000" stroke-miterlimit="10" d="M1545.13,414.494"/>
	<line fill="none" stroke="#000000" stroke-miterlimit="10" x1="1202.905" y1="535.411" x2="1634.878" y2="382.786"/>
	<line fill="none" stroke="#000000" stroke-miterlimit="10" x1="1202.905" y1="535.411" x2="1037.562" y2="418.99"/>
	<line fill="none" stroke="#000000" stroke-miterlimit="10" x1="1202.905" y1="535.411" x2="1213.245" y2="627.932"/>
</g>
<g>
	<polyline fill="none" stroke="#000000" stroke-miterlimit="10" points="1333.185,578.705 1161.206,466.717 1152.285,391.6 	"/>
	<line fill="none" stroke="#000000" stroke-miterlimit="10" x1="1161.206" y1="466.717" x2="1053.008" y2="498.345"/>
	<polyline opacity="0.7" fill="#64C2C8" points="1037.562,419.619 1152.285,391.6 1325.716,492.647 1333.185,578.705 
		1213.245,628.561 1053.008,498.345 	"/>
	<polyline fill="none" stroke="#000000" stroke-miterlimit="10" points="1053.008,498.345 1037.562,419.619 1152.285,391.6 
		1325.716,492.647 1333.185,578.705 1213.245,628.561 1053.008,498.345 	"/>
	<line fill="none" stroke="#000000" stroke-miterlimit="10" x1="1202.905" y1="536.04" x2="1325.716" y2="492.647"/>
	<line fill="none" stroke="#000000" stroke-miterlimit="10" x1="1202.905" y1="536.04" x2="1037.562" y2="419.619"/>
	<line fill="none" stroke="#000000" stroke-miterlimit="10" x1="1202.905" y1="536.04" x2="1213.245" y2="628.561"/>
</g>
<g>
	<line fill="none" stroke="#000000" stroke-miterlimit="10" x1="1235.311" y1="439.974" x2="1242.734" y2="519.379"/>
	<line fill="none" stroke="#000000" stroke-miterlimit="10" x1="1130.024" y1="560.93" x2="1242.734" y2="519.379"/>
	<line fill="none" stroke="#000000" stroke-miterlimit="10" x1="1333.185" y1="578.705" x2="1242.734" y2="519.379"/>
	<polyline opacity="0.7" fill="#B70D18" points="1120.232,477.829 1235.311,439.974 1325.716,492.647 1333.185,578.705 
		1213.245,628.561 1130.024,560.93 	"/>
	<polyline fill="none" stroke="#000000" stroke-miterlimit="10" points="1130.024,560.93 1120.232,477.829 1235.311,439.974 
		1325.716,492.647 1333.185,578.705 1213.245,628.561 1130.024,560.93 	"/>
	<line fill="none" stroke="#000000" stroke-miterlimit="10" x1="1202.905" y1="536.04" x2="1325.716" y2="492.647"/>
	<line fill="none" stroke="#000000" stroke-miterlimit="10" x1="1202.905" y1="536.04" x2="1120.232" y2="477.829"/>
	<line fill="none" stroke="#000000" stroke-miterlimit="10" x1="1202.905" y1="536.04" x2="1213.245" y2="628.561"/>
	<line fill="none" stroke="#000000" stroke-miterlimit="10" x1="1130.024" y1="560.93" x2="1120.232" y2="477.829"/>
	<line fill="none" stroke="#000000" stroke-miterlimit="10" x1="1120.232" y1="477.829" x2="1235.311" y2="439.974"/>
</g>
<rect fill="none" stroke="#E3DEDA" stroke-miterlimit="10" width="1920" height="1080"/>
</svg>
