<?xml version="1.0" encoding="utf-8"?>
<!-- Generator: Adobe Illustrator 16.0.0, SVG Export Plug-In . SVG Version: 6.00 Build 0)  -->
<!DOCTYPE svg PUBLIC "-//W3C//DTD SVG 1.1//EN" "http://www.w3.org/Graphics/SVG/1.1/DTD/svg11.dtd">
<svg version="1.1" id="Layer_1" xmlns="http://www.w3.org/2000/svg" xmlns:xlink="http://www.w3.org/1999/xlink" x="0px" y="0px"
	 width="1920px" height="1080px" viewBox="0 0 1920 1080" enable-background="new 0 0 1920 1080" xml:space="preserve">
<g>
	<polygon fill="#E3E9BA" points="727.817,561.217 1069.29,977.041 1845.341,519.379 1400.004,351.124 	"/>
	<polygon fill="none" stroke="#000000" stroke-miterlimit="10" points="726.982,561.217 1068.455,977.041 1845.341,519.379 
		1400.004,351.124 	"/>
</g>
<g>
	<line fill="none" stroke="#000000" stroke-miterlimit="10" x1="1434.048" y1="449.981" x2="1068.455" y2="576.441"/>
	<line fill="none" stroke="#000000" stroke-miterlimit="10" x1="1616.413" y1="530.248" x2="1434.048" y2="449.981"/>
	<line fill="none" stroke="#000000" stroke-miterlimit="10" x1="1436.777" y1="321.491" x2="1434.048" y2="449.981"/>
	<polyline opacity="0.7" fill="#94C356" points="1037.562,418.99 1436.777,321.491 1634.878,382.786 1616.413,530.248 
		1223.585,718.574 1068.455,576.441 	"/>
	<polyline fill="none" stroke="#000000" stroke-miterlimit="10" points="1068.455,576.441 1037.562,418.99 1436.777,321.491 
		1634.878,382.786 1616.413,530.248 1223.585,718.574 1068.455,576.441 	"/>
	<path fill="none" stroke="#000000" stroke-miterlimit="10" d="M1350.633,342.529"/>
	<path fill="none" stroke="#000000" stroke-miterlimit="10" d="M1545.13,414.494"/>
	<line fill="none" stroke="#000000" stroke-miterlimit="10" x1="1202.905" y1="535.411" x2="1634.878" y2="382.786"/>
	<line fill="none" stroke="#000000" stroke-miterlimit="10" x1="1202.905" y1="535.411" x2="1037.562" y2="418.99"/>
	<line fill="none" stroke="#000000" stroke-miterlimit="10" x1="1202.905" y1="535.411" x2="1223.585" y2="718.574"/>
</g>
<g>
	<line fill="none" stroke="#000000" stroke-miterlimit="10" x1="1436.096" y1="385.735" x2="1053.008" y2="497.716"/>
	<line fill="none" stroke="#000000" stroke-miterlimit="10" x1="1625.645" y1="456.517" x2="1436.096" y2="385.735"/>
	<line fill="none" stroke="#000000" stroke-miterlimit="10" x1="1436.777" y1="321.491" x2="1436.096" y2="385.735"/>
	<polyline opacity="0.7" fill="#F18700" points="1037.562,418.99 1436.777,321.491 1634.878,382.786 1625.645,456.517 
		1213.245,627.932 1053.008,497.716 	"/>
	<polyline fill="none" stroke="#000000" stroke-miterlimit="10" points="1053.008,497.716 1037.562,418.99 1436.777,321.491 
		1634.878,382.786 1625.645,456.517 1213.245,627.932 1053.008,497.716 	"/>
	<path fill="none" stroke="#000000" stroke-miterlimit="10" d="M1350.633,342.529"/>
	<path fill="none" stroke="#000000" stroke-miterlimit="10" d="M1545.13,414.494"/>
	<line fill="none" stroke="#000000" stroke-miterlimit="10" x1="1202.905" y1="535.411" x2="1634.878" y2="382.786"/>
	<line fill="none" stroke="#000000" stroke-miterlimit="10" x1="1202.905" y1="535.411" x2="1037.562" y2="418.99"/>
	<line fill="none" stroke="#000000" stroke-miterlimit="10" x1="1202.905" y1="535.411" x2="1213.245" y2="627.932"/>
</g>
<g>
	<polyline fill="none" stroke="#000000" stroke-miterlimit="10" points="1333.185,578.705 1161.206,466.717 1152.285,391.6 	"/>
	<line fill="none" stroke="#000000" stroke-miterlimit="10" x1="1161.206" y1="466.717" x2="1053.008" y2="498.345"/>
	<polyline opacity="0.7" fill="#64C2C8" points="1037.562,419.619 1152.285,391.6 1325.716,492.647 1333.185,578.705 
		1213.245,628.561 1053.008,498.345 	"/>
	<polyline fill="none" stroke="#000000" stroke-miterlimit="10" points="1053.008,498.345 1037.562,419.619 1152.285,391.6 
		1325.716,492.647 1333.185,578.705 1213.245,628.561 1053.008,498.345 	"/>
	<line fill="none" stroke="#000000" stroke-miterlimit="10" x1="1202.905" y1="536.04" x2="1325.716" y2="492.647"/>
	<line fill="none" stroke="#000000" stroke-miterlimit="10" x1="1202.905" y1="536.04" x2="1037.562" y2="419.619"/>
	<line fill="none" stroke="#000000" stroke-miterlimit="10" x1="1202.905" y1="536.04" x2="1213.245" y2="628.561"/>
</g>
<g>
	<line fill="none" stroke="#000000" stroke-miterlimit="10" x1="1235.311" y1="439.974" x2="1242.734" y2="519.379"/>
	<line fill="none" stroke="#000000" stroke-miterlimit="10" x1="1130.024" y1="560.93" x2="1242.734" y2="519.379"/>
	<line fill="none" stroke="#000000" stroke-miterlimit="10" x1="1333.185" y1="578.705" x2="1242.734" y2="519.379"/>
	<polyline opacity="0.7" fill="#B70D18" points="1120.232,477.829 1235.311,439.974 1325.716,492.647 1333.185,578.705 
		1213.245,628.561 1130.024,560.93 	"/>
	<polyline fill="none" stroke="#000000" stroke-miterlimit="10" points="1130.024,560.93 1120.232,477.829 1235.311,439.974 
		1325.716,492.647 1333.185,578.705 1213.245,628.561 1130.024,560.93 	"/>
	<line fill="none" stroke="#000000" stroke-miterlimit="10" x1="1202.905" y1="536.04" x2="1325.716" y2="492.647"/>
	<line fill="none" stroke="#000000" stroke-miterlimit="10" x1="1202.905" y1="536.04" x2="1120.232" y2="477.829"/>
	<line fill="none" stroke="#000000" stroke-miterlimit="10" x1="1202.905" y1="536.04" x2="1213.245" y2="628.561"/>
	<line fill="none" stroke="#000000" stroke-miterlimit="10" x1="1130.024" y1="560.93" x2="1120.232" y2="477.829"/>
	<line fill="none" stroke="#000000" stroke-miterlimit="10" x1="1120.232" y1="477.829" x2="1235.311" y2="439.974"/>
</g>
<rect fill="none" stroke="#E3DEDA" stroke-miterlimit="10" width="1920" height="1080"/>
<path fill="none" stroke="#000000" stroke-miterlimit="10" d="M760.77,101.911"/>
<path fill="none" stroke="#000000" stroke-miterlimit="10" d="M760.77,101.911"/>
<g>
	<line fill="none" stroke="#000000" stroke-miterlimit="10" x1="1616.413" y1="530.228" x2="1556.889" y2="504.029"/>
	<line fill="none" stroke="#000000" stroke-miterlimit="10" x1="1500.12" y1="528.578" x2="1556.894" y2="504.031"/>
	<line fill="none" stroke="#000000" stroke-miterlimit="10" x1="1571.038" y1="363.013" x2="1556.894" y2="504.031"/>
	<polygon opacity="0.7" fill="#262C61" points="1508.666,382.766 1571.038,363.013 1634.878,382.766 1616.413,530.228 
		1559.249,557.633 1500.12,528.578 	"/>
	<path fill="none" stroke="#000000" stroke-miterlimit="10" d="M1545.13,414.474"/>
	<polyline fill="none" stroke="#000000" stroke-miterlimit="10" points="1571.038,363.013 1634.878,382.766 1616.413,530.228 	"/>
	<path fill="none" stroke="#000000" stroke-miterlimit="10" d="M1545.13,414.474"/>
	<line fill="none" stroke="#000000" stroke-miterlimit="10" x1="1573.324" y1="404.514" x2="1634.878" y2="382.766"/>
	<polyline fill="none" stroke="#000000" stroke-miterlimit="10" points="1508.666,382.766 1573.324,404.514 1559.249,557.633 
		1500.12,528.578 	"/>
	<line fill="none" stroke="#000000" stroke-miterlimit="10" x1="1500.12" y1="528.578" x2="1508.666" y2="382.766"/>
	<line fill="none" stroke="#000000" stroke-miterlimit="10" x1="1571.038" y1="363.013" x2="1508.666" y2="382.766"/>
	<line fill="none" stroke="#000000" stroke-miterlimit="10" x1="1616.413" y1="530.228" x2="1559.249" y2="557.633"/>
</g>
<g>
	
		<rect x="1416.956" y="223.468" fill="#EDEDED" stroke="#000000" stroke-width="0.3" stroke-miterlimit="10" width="239.532" height="42.143"/>
	<g>
		<path d="M1447.233,252.343c-1.24,1.24-2.76,1.86-4.56,1.86c-2.061,0-3.75-0.83-5.07-2.49v2.28h-1.23v-22.2h1.23v12.12
			c1.3-1.66,2.99-2.49,5.07-2.49c1.8,0,3.31,0.61,4.529,1.83c1.24,1.24,1.86,2.76,1.86,4.561
			C1449.063,249.614,1448.453,251.124,1447.233,252.343z M1446.334,244.154c-1.021-1.021-2.24-1.53-3.66-1.53
			c-1.44,0-2.66,0.5-3.66,1.5c-1.02,1.021-1.53,2.25-1.53,3.69c0,1.42,0.511,2.64,1.53,3.66c1.02,1.02,2.24,1.529,3.66,1.529
			c1.439,0,2.66-0.499,3.66-1.5c1.02-1.02,1.529-2.25,1.529-3.689C1447.863,246.394,1447.354,245.173,1446.334,244.154z"/>
		<path d="M1462.233,252.343c-1.24,1.24-2.76,1.86-4.56,1.86c-1.801,0-3.311-0.609-4.53-1.83c-1.24-1.239-1.86-2.76-1.86-4.56
			c0-1.78,0.62-3.29,1.86-4.53c1.22-1.26,2.729-1.89,4.53-1.89c1.779,0,3.289,0.62,4.529,1.859c1.24,1.24,1.86,2.76,1.86,4.561
			C1464.063,249.614,1463.453,251.124,1462.233,252.343z M1461.363,244.124c-1-1.02-2.23-1.53-3.689-1.53
			c-1.4,0-2.61,0.521-3.631,1.561c-1.039,1.04-1.56,2.26-1.56,3.66c0,1.42,0.51,2.64,1.53,3.66c1.02,1.02,2.239,1.529,3.66,1.529
			c1.439,0,2.659-0.499,3.66-1.5c1.02-1.02,1.529-2.25,1.529-3.689C1462.863,246.354,1462.363,245.124,1461.363,244.124z"/>
		<path d="M1469.014,242.833v11.16h-1.23v-11.16h-1.68v-1.229h1.68v-5.431h1.23v5.431h2.88v1.229H1469.014z"/>
		<path d="M1475.193,245.324c-0.221,0-0.45-0.09-0.689-0.271c-0.181-0.18-0.281-0.42-0.301-0.72c0-0.54,0.33-0.87,0.99-0.99
			c0.5,0,0.83,0.33,0.99,0.99C1476.184,244.994,1475.854,245.324,1475.193,245.324z M1475.193,254.173
			c-0.221,0-0.45-0.09-0.689-0.27c-0.181-0.18-0.281-0.42-0.301-0.72c0-0.54,0.33-0.87,0.99-0.99c0.5,0,0.83,0.33,0.99,0.99
			C1476.184,253.843,1475.854,254.173,1475.193,254.173z"/>
		<path d="M1480.383,239.383c-0.221,0-0.449-0.09-0.689-0.27c-0.18-0.18-0.281-0.42-0.301-0.72c0-0.54,0.33-0.87,0.99-0.99
			c0.5,0,0.83,0.33,0.99,0.99C1481.373,239.053,1481.043,239.383,1480.383,239.383z M1479.753,253.994v-12.39h1.229v12.39H1479.753z
			"/>
		<path d="M1491.963,253.994v-7.41c0-2.62-1.18-3.93-3.54-3.93c-1.16,0-2.04,0.34-2.64,1.02c-0.62,0.681-0.93,1.61-0.93,2.79v7.53
			h-1.23v-12.39h1.23v1.5c0.559-1.1,1.75-1.65,3.569-1.65c1.54,0,2.72,0.44,3.54,1.32s1.23,2.11,1.23,3.689v7.53H1491.963z"/>
		<path d="M1499.013,242.833v11.16h-1.229v-11.16h-1.68v-1.229h1.68v-5.431h1.229v5.431h2.88v1.229H1499.013z"/>
		<path d="M1504.893,247.543c0,1.681,0.45,3.011,1.35,3.99c0.94,1,2.23,1.5,3.871,1.5c0.84,0,1.6-0.14,2.279-0.42
			c0.859-0.36,1.63-1.09,2.311-2.19l1.109,0.511c-0.779,1.479-1.979,2.479-3.6,3c-0.62,0.199-1.32,0.3-2.1,0.3
			c-1.86,0-3.391-0.61-4.59-1.83c-1.221-1.22-1.83-2.75-1.83-4.59c0-1.86,0.6-3.391,1.799-4.59c1.221-1.22,2.761-1.83,4.621-1.83
			c1.84,0,3.359,0.569,4.56,1.71c1.22,1.14,1.83,2.62,1.83,4.439H1504.893z M1513.354,243.614c-0.941-0.68-2.021-1.021-3.24-1.021
			c-2.561,0-4.24,1.261-5.041,3.78h10.051C1514.923,245.234,1514.332,244.314,1513.354,243.614z"/>
		<path d="M1525.203,243.434c-0.32-0.24-0.66-0.431-1.021-0.57s-0.74-0.21-1.14-0.21c-0.341,0-0.66,0.104-0.961,0.314
			c-0.299,0.21-0.56,0.471-0.779,0.78c-0.221,0.311-0.396,0.655-0.525,1.035s-0.195,0.73-0.195,1.05v8.16h-1.229v-12.39h1.229v1.68
			c0.26-0.46,0.601-0.88,1.021-1.26s0.88-0.57,1.38-0.57c0.619,0,1.13,0.07,1.53,0.21c0.399,0.141,0.85,0.39,1.351,0.75
			L1525.203,243.434z"/>
		<path d="M1533.332,253.213c-0.8,0.681-1.76,1.021-2.88,1.021c-1.92,0-3.36-0.87-4.319-2.61l1.049-0.63
			c0.34,0.62,0.75,1.101,1.23,1.44c0.5,0.38,1.18,0.569,2.04,0.569c1.88,0,2.819-0.8,2.819-2.399c0-0.7-0.329-1.31-0.989-1.83
			c-0.2-0.12-0.485-0.255-0.854-0.405c-0.371-0.15-0.826-0.325-1.365-0.525c-1-0.359-1.721-0.72-2.16-1.08
			c-0.641-0.52-0.96-1.27-0.96-2.25c0-0.84,0.319-1.56,0.96-2.159c0.619-0.62,1.43-0.931,2.43-0.931c1.381,0,2.551,0.48,3.51,1.44
			l-0.899,0.78c-0.681-0.68-1.55-1.021-2.61-1.021c-1.439,0-2.16,0.63-2.16,1.89c0,0.561,0.221,1.021,0.66,1.381
			c0.36,0.28,0.93,0.55,1.71,0.81c0.68,0.24,1.24,0.465,1.681,0.675c0.439,0.21,0.77,0.396,0.99,0.556
			c0.859,0.659,1.289,1.55,1.289,2.67C1534.502,251.684,1534.112,252.553,1533.332,253.213z"/>
		<path d="M1537.412,247.543c0,1.681,0.45,3.011,1.35,3.99c0.94,1,2.23,1.5,3.871,1.5c0.84,0,1.6-0.14,2.279-0.42
			c0.859-0.36,1.63-1.09,2.311-2.19l1.109,0.511c-0.779,1.479-1.979,2.479-3.6,3c-0.62,0.199-1.32,0.3-2.1,0.3
			c-1.86,0-3.391-0.61-4.59-1.83c-1.221-1.22-1.83-2.75-1.83-4.59c0-1.86,0.6-3.391,1.799-4.59c1.221-1.22,2.761-1.83,4.621-1.83
			c1.84,0,3.359,0.569,4.56,1.71c1.22,1.14,1.83,2.62,1.83,4.439H1537.412z M1545.873,243.614c-0.941-0.68-2.021-1.021-3.24-1.021
			c-2.561,0-4.24,1.261-5.041,3.78h10.051C1547.442,245.234,1546.852,244.314,1545.873,243.614z"/>
		<path d="M1557.723,254.234c-1.841,0-3.371-0.61-4.59-1.83c-1.221-1.22-1.83-2.75-1.83-4.59s0.609-3.37,1.83-4.59
			c1.219-1.22,2.749-1.83,4.59-1.83c1.579,0,2.84,0.359,3.779,1.08v1.47l-0.779-0.51l-0.84-0.45c-0.762-0.26-1.48-0.391-2.16-0.391
			c-1.541,0-2.791,0.48-3.75,1.44c-0.98,0.98-1.471,2.24-1.471,3.78c0,1.52,0.49,2.77,1.471,3.75c0.979,0.979,2.229,1.47,3.75,1.47
			c1.439,0,2.699-0.48,3.779-1.44v1.53C1560.382,253.864,1559.121,254.234,1557.723,254.234z"/>
		<path d="M1566.871,242.833v11.16h-1.229v-11.16h-1.68v-1.229h1.68v-5.431h1.229v5.431h2.881v1.229H1566.871z"/>
		<path d="M1578.602,253.213c-0.8,0.681-1.76,1.021-2.88,1.021c-1.92,0-3.36-0.87-4.319-2.61l1.049-0.63
			c0.34,0.62,0.75,1.101,1.23,1.44c0.5,0.38,1.18,0.569,2.04,0.569c1.88,0,2.819-0.8,2.819-2.399c0-0.7-0.329-1.31-0.989-1.83
			c-0.2-0.12-0.485-0.255-0.854-0.405c-0.371-0.15-0.826-0.325-1.365-0.525c-1-0.359-1.721-0.72-2.16-1.08
			c-0.641-0.52-0.96-1.27-0.96-2.25c0-0.84,0.319-1.56,0.96-2.159c0.619-0.62,1.43-0.931,2.43-0.931c1.381,0,2.551,0.48,3.51,1.44
			l-0.899,0.78c-0.681-0.68-1.55-1.021-2.61-1.021c-1.439,0-2.16,0.63-2.16,1.89c0,0.561,0.221,1.021,0.66,1.381
			c0.36,0.28,0.93,0.55,1.71,0.81c0.68,0.24,1.24,0.465,1.681,0.675c0.439,0.21,0.77,0.396,0.99,0.556
			c0.859,0.659,1.289,1.55,1.289,2.67C1579.771,251.684,1579.382,252.553,1578.602,253.213z"/>
		<path d="M1583.821,252.763h12.24v1.23h-14.431l12.271-20.16h-11.55v-1.26h13.77L1583.821,252.763z"/>
		<path d="M1607.551,252.343c-1.24,1.24-2.76,1.86-4.56,1.86s-3.31-0.609-4.53-1.83c-1.24-1.239-1.859-2.76-1.859-4.56
			c0-1.78,0.619-3.29,1.859-4.53c1.221-1.26,2.73-1.89,4.53-1.89c1.78,0,3.29,0.62,4.53,1.859c1.24,1.24,1.859,2.76,1.859,4.561
			C1609.381,249.614,1608.771,251.124,1607.551,252.343z M1606.682,244.124c-1-1.02-2.23-1.53-3.69-1.53
			c-1.399,0-2.61,0.521-3.63,1.561c-1.04,1.04-1.561,2.26-1.561,3.66c0,1.42,0.51,2.64,1.53,3.66c1.021,1.02,2.239,1.529,3.66,1.529
			c1.44,0,2.659-0.499,3.66-1.5c1.021-1.02,1.53-2.25,1.53-3.689C1608.182,246.354,1607.682,245.124,1606.682,244.124z"/>
		<path d="M1620.811,253.994v-7.41c0-2.62-1.18-3.93-3.54-3.93c-1.16,0-2.04,0.34-2.64,1.02c-0.62,0.681-0.93,1.61-0.93,2.79v7.53
			h-1.23v-12.39h1.23v1.5c0.559-1.1,1.75-1.65,3.569-1.65c1.54,0,2.72,0.44,3.54,1.32s1.23,2.11,1.23,3.689v7.53H1620.811z"/>
		<path d="M1626.24,247.543c0,1.681,0.45,3.011,1.35,3.99c0.94,1,2.23,1.5,3.871,1.5c0.84,0,1.6-0.14,2.279-0.42
			c0.859-0.36,1.63-1.09,2.311-2.19l1.109,0.511c-0.779,1.479-1.979,2.479-3.6,3c-0.62,0.199-1.32,0.3-2.1,0.3
			c-1.86,0-3.391-0.61-4.59-1.83c-1.221-1.22-1.83-2.75-1.83-4.59c0-1.86,0.6-3.391,1.799-4.59c1.221-1.22,2.761-1.83,4.621-1.83
			c1.84,0,3.359,0.569,4.56,1.71c1.22,1.14,1.83,2.62,1.83,4.439H1626.24z M1634.701,243.614c-0.941-0.68-2.021-1.021-3.24-1.021
			c-2.561,0-4.24,1.261-5.041,3.78h10.051C1636.271,245.234,1635.68,244.314,1634.701,243.614z"/>
	</g>
</g>
<g>
	<g>
		<path fill="none" stroke="#000000" stroke-miterlimit="10" d="M1409.063,363.388c-3.195-67.06-58.063-118.849,7.893-118.849"/>
		<g>
			<polygon points="1412.655,360.475 1408.999,362.154 1405.252,360.688 1409.207,369.356 			"/>
		</g>
	</g>
</g>
<path fill="none" stroke="#000000" stroke-miterlimit="10" d="M1573.324,382.766c0-71.627,195.679-138.227,83.164-138.227"/>
<g>
	
		<rect x="1635.284" y="317.819" fill="#EDEDED" stroke="#000000" stroke-width="0.3" stroke-miterlimit="10" width="239.532" height="42.143"/>
	<g>
		<path d="M1665.562,346.694c-1.24,1.24-2.76,1.86-4.56,1.86c-2.061,0-3.75-0.83-5.07-2.49v2.28h-1.23v-22.2h1.23v12.12
			c1.3-1.66,2.99-2.49,5.07-2.49c1.8,0,3.31,0.61,4.529,1.83c1.24,1.24,1.86,2.76,1.86,4.561
			C1667.392,343.965,1666.781,345.475,1665.562,346.694z M1664.662,338.505c-1.021-1.021-2.24-1.53-3.66-1.53
			c-1.44,0-2.66,0.5-3.66,1.5c-1.02,1.021-1.53,2.25-1.53,3.69c0,1.42,0.511,2.64,1.53,3.66c1.02,1.02,2.24,1.529,3.66,1.529
			c1.439,0,2.66-0.499,3.66-1.5c1.02-1.02,1.529-2.25,1.529-3.689C1666.191,340.745,1665.682,339.524,1664.662,338.505z"/>
		<path d="M1680.562,346.694c-1.24,1.24-2.76,1.86-4.56,1.86c-1.801,0-3.311-0.609-4.53-1.83c-1.24-1.239-1.86-2.76-1.86-4.56
			c0-1.78,0.62-3.29,1.86-4.53c1.22-1.26,2.729-1.89,4.53-1.89c1.779,0,3.289,0.62,4.529,1.859c1.24,1.24,1.86,2.76,1.86,4.561
			C1682.392,343.965,1681.781,345.475,1680.562,346.694z M1679.691,338.475c-1-1.02-2.23-1.53-3.689-1.53
			c-1.4,0-2.61,0.521-3.631,1.561c-1.039,1.04-1.56,2.26-1.56,3.66c0,1.42,0.51,2.64,1.53,3.66c1.02,1.02,2.239,1.529,3.66,1.529
			c1.439,0,2.659-0.499,3.66-1.5c1.02-1.02,1.529-2.25,1.529-3.689C1681.191,340.705,1680.691,339.475,1679.691,338.475z"/>
		<path d="M1687.342,337.185v11.16h-1.23v-11.16h-1.68v-1.229h1.68v-5.431h1.23v5.431h2.88v1.229H1687.342z"/>
		<path d="M1693.521,339.675c-0.221,0-0.45-0.09-0.689-0.271c-0.181-0.18-0.281-0.42-0.301-0.72c0-0.54,0.33-0.87,0.99-0.99
			c0.5,0,0.83,0.33,0.99,0.99C1694.512,339.345,1694.182,339.675,1693.521,339.675z M1693.521,348.524
			c-0.221,0-0.45-0.09-0.689-0.27c-0.181-0.18-0.281-0.42-0.301-0.72c0-0.54,0.33-0.87,0.99-0.99c0.5,0,0.83,0.33,0.99,0.99
			C1694.512,348.194,1694.182,348.524,1693.521,348.524z"/>
		<path d="M1698.711,333.734c-0.221,0-0.449-0.09-0.689-0.27c-0.18-0.18-0.281-0.42-0.301-0.72c0-0.54,0.33-0.87,0.99-0.99
			c0.5,0,0.83,0.33,0.99,0.99C1699.701,333.404,1699.371,333.734,1698.711,333.734z M1698.081,348.345v-12.39h1.229v12.39H1698.081z
			"/>
		<path d="M1710.291,348.345v-7.41c0-2.62-1.18-3.93-3.54-3.93c-1.16,0-2.04,0.34-2.64,1.02c-0.62,0.681-0.93,1.61-0.93,2.79v7.53
			h-1.23v-12.39h1.23v1.5c0.559-1.1,1.75-1.65,3.569-1.65c1.54,0,2.72,0.44,3.54,1.32s1.23,2.11,1.23,3.689v7.53H1710.291z"/>
		<path d="M1717.341,337.185v11.16h-1.229v-11.16h-1.68v-1.229h1.68v-5.431h1.229v5.431h2.88v1.229H1717.341z"/>
		<path d="M1723.221,341.895c0,1.681,0.45,3.011,1.35,3.99c0.94,1,2.23,1.5,3.871,1.5c0.84,0,1.6-0.14,2.279-0.42
			c0.859-0.36,1.63-1.09,2.311-2.19l1.109,0.511c-0.779,1.479-1.979,2.479-3.6,3c-0.62,0.199-1.32,0.3-2.1,0.3
			c-1.86,0-3.391-0.61-4.59-1.83c-1.221-1.22-1.83-2.75-1.83-4.59c0-1.86,0.6-3.391,1.799-4.59c1.221-1.22,2.761-1.83,4.621-1.83
			c1.84,0,3.359,0.569,4.56,1.71c1.22,1.14,1.83,2.62,1.83,4.439H1723.221z M1731.682,337.965c-0.941-0.68-2.021-1.021-3.24-1.021
			c-2.561,0-4.24,1.261-5.041,3.78h10.051C1733.251,339.585,1732.66,338.665,1731.682,337.965z"/>
		<path d="M1743.531,337.785c-0.32-0.24-0.66-0.431-1.021-0.57s-0.74-0.21-1.14-0.21c-0.341,0-0.66,0.104-0.961,0.314
			c-0.299,0.21-0.56,0.471-0.779,0.78c-0.221,0.311-0.396,0.655-0.525,1.035s-0.195,0.73-0.195,1.05v8.16h-1.229v-12.39h1.229v1.68
			c0.26-0.46,0.601-0.88,1.021-1.26s0.88-0.57,1.38-0.57c0.619,0,1.13,0.07,1.53,0.21c0.399,0.141,0.85,0.39,1.351,0.75
			L1743.531,337.785z"/>
		<path d="M1751.66,347.564c-0.8,0.681-1.76,1.021-2.88,1.021c-1.92,0-3.36-0.87-4.319-2.61l1.049-0.63
			c0.34,0.62,0.75,1.101,1.23,1.44c0.5,0.38,1.18,0.569,2.04,0.569c1.88,0,2.819-0.8,2.819-2.399c0-0.7-0.329-1.31-0.989-1.83
			c-0.2-0.12-0.485-0.255-0.854-0.405c-0.371-0.15-0.826-0.325-1.365-0.525c-1-0.359-1.721-0.72-2.16-1.08
			c-0.641-0.52-0.96-1.27-0.96-2.25c0-0.84,0.319-1.56,0.96-2.159c0.619-0.62,1.43-0.931,2.43-0.931c1.381,0,2.551,0.48,3.51,1.44
			l-0.899,0.78c-0.681-0.68-1.55-1.021-2.61-1.021c-1.439,0-2.16,0.63-2.16,1.89c0,0.561,0.221,1.021,0.66,1.381
			c0.36,0.28,0.93,0.55,1.71,0.81c0.68,0.24,1.24,0.465,1.681,0.675c0.439,0.21,0.77,0.396,0.99,0.556
			c0.859,0.659,1.289,1.55,1.289,2.67C1752.83,346.035,1752.44,346.904,1751.66,347.564z"/>
		<path d="M1755.74,341.895c0,1.681,0.45,3.011,1.35,3.99c0.94,1,2.23,1.5,3.871,1.5c0.84,0,1.6-0.14,2.279-0.42
			c0.859-0.36,1.63-1.09,2.311-2.19l1.109,0.511c-0.779,1.479-1.979,2.479-3.6,3c-0.62,0.199-1.32,0.3-2.1,0.3
			c-1.86,0-3.391-0.61-4.59-1.83c-1.221-1.22-1.83-2.75-1.83-4.59c0-1.86,0.6-3.391,1.799-4.59c1.221-1.22,2.761-1.83,4.621-1.83
			c1.84,0,3.359,0.569,4.56,1.71c1.22,1.14,1.83,2.62,1.83,4.439H1755.74z M1764.201,337.965c-0.941-0.68-2.021-1.021-3.24-1.021
			c-2.561,0-4.24,1.261-5.041,3.78h10.051C1765.771,339.585,1765.18,338.665,1764.201,337.965z"/>
		<path d="M1776.051,348.585c-1.841,0-3.371-0.61-4.59-1.83c-1.221-1.22-1.83-2.75-1.83-4.59s0.609-3.37,1.83-4.59
			c1.219-1.22,2.749-1.83,4.59-1.83c1.579,0,2.84,0.359,3.779,1.08v1.47l-0.779-0.51l-0.84-0.45c-0.762-0.26-1.48-0.391-2.16-0.391
			c-1.541,0-2.791,0.48-3.75,1.44c-0.98,0.98-1.471,2.24-1.471,3.78c0,1.52,0.49,2.77,1.471,3.75c0.979,0.979,2.229,1.47,3.75,1.47
			c1.439,0,2.699-0.48,3.779-1.44v1.53C1778.71,348.215,1777.449,348.585,1776.051,348.585z"/>
		<path d="M1785.199,337.185v11.16h-1.229v-11.16h-1.68v-1.229h1.68v-5.431h1.229v5.431h2.881v1.229H1785.199z"/>
		<path d="M1796.93,347.564c-0.8,0.681-1.76,1.021-2.88,1.021c-1.92,0-3.36-0.87-4.319-2.61l1.049-0.63
			c0.34,0.62,0.75,1.101,1.23,1.44c0.5,0.38,1.18,0.569,2.04,0.569c1.88,0,2.819-0.8,2.819-2.399c0-0.7-0.329-1.31-0.989-1.83
			c-0.2-0.12-0.485-0.255-0.854-0.405c-0.371-0.15-0.826-0.325-1.365-0.525c-1-0.359-1.721-0.72-2.16-1.08
			c-0.641-0.52-0.96-1.27-0.96-2.25c0-0.84,0.319-1.56,0.96-2.159c0.619-0.62,1.43-0.931,2.43-0.931c1.381,0,2.551,0.48,3.51,1.44
			l-0.899,0.78c-0.681-0.68-1.55-1.021-2.61-1.021c-1.439,0-2.16,0.63-2.16,1.89c0,0.561,0.221,1.021,0.66,1.381
			c0.36,0.28,0.93,0.55,1.71,0.81c0.68,0.24,1.24,0.465,1.681,0.675c0.439,0.21,0.77,0.396,0.99,0.556
			c0.859,0.659,1.289,1.55,1.289,2.67C1798.1,346.035,1797.71,346.904,1796.93,347.564z"/>
		<path d="M1802.149,347.114h12.24v1.23h-14.431l12.271-20.16h-11.55v-1.26h13.77L1802.149,347.114z"/>
		<path d="M1825.879,346.694c-1.24,1.24-2.76,1.86-4.56,1.86s-3.31-0.609-4.53-1.83c-1.24-1.239-1.859-2.76-1.859-4.56
			c0-1.78,0.619-3.29,1.859-4.53c1.221-1.26,2.73-1.89,4.53-1.89c1.78,0,3.29,0.62,4.53,1.859c1.24,1.24,1.859,2.76,1.859,4.561
			C1827.709,343.965,1827.1,345.475,1825.879,346.694z M1825.01,338.475c-1-1.02-2.23-1.53-3.69-1.53
			c-1.399,0-2.61,0.521-3.63,1.561c-1.04,1.04-1.561,2.26-1.561,3.66c0,1.42,0.51,2.64,1.53,3.66c1.021,1.02,2.239,1.529,3.66,1.529
			c1.44,0,2.659-0.499,3.66-1.5c1.021-1.02,1.53-2.25,1.53-3.689C1826.51,340.705,1826.01,339.475,1825.01,338.475z"/>
		<path d="M1839.139,348.345v-7.41c0-2.62-1.18-3.93-3.54-3.93c-1.16,0-2.04,0.34-2.64,1.02c-0.62,0.681-0.93,1.61-0.93,2.79v7.53
			h-1.23v-12.39h1.23v1.5c0.559-1.1,1.75-1.65,3.569-1.65c1.54,0,2.72,0.44,3.54,1.32s1.23,2.11,1.23,3.689v7.53H1839.139z"/>
		<path d="M1844.568,341.895c0,1.681,0.45,3.011,1.35,3.99c0.94,1,2.23,1.5,3.871,1.5c0.84,0,1.6-0.14,2.279-0.42
			c0.859-0.36,1.63-1.09,2.311-2.19l1.109,0.511c-0.779,1.479-1.979,2.479-3.6,3c-0.62,0.199-1.32,0.3-2.1,0.3
			c-1.86,0-3.391-0.61-4.59-1.83c-1.221-1.22-1.83-2.75-1.83-4.59c0-1.86,0.6-3.391,1.799-4.59c1.221-1.22,2.761-1.83,4.621-1.83
			c1.84,0,3.359,0.569,4.56,1.71c1.22,1.14,1.83,2.62,1.83,4.439H1844.568z M1853.029,337.965c-0.941-0.68-2.021-1.021-3.24-1.021
			c-2.561,0-4.24,1.261-5.041,3.78h10.051C1854.599,339.585,1854.008,338.665,1853.029,337.965z"/>
	</g>
</g>
<path fill="none" stroke="#000000" stroke-miterlimit="10" d="M1573.324,382.766c0-34.421,37.206-43.875,61.96-43.875"/>
<g>
	<g>
		<path fill="none" stroke="#000000" stroke-miterlimit="10" d="M1429.785,593.625c115.197,83.344,612.608-254.735,445.031-254.735"
			/>
		<g>
			<polygon points="1429.708,598.23 1430.789,594.354 1434.329,592.441 1425.158,589.859 			"/>
		</g>
	</g>
</g>
</svg>
