<?xml version="1.0" encoding="utf-8"?>
<!-- Generator: Adobe Illustrator 16.0.0, SVG Export Plug-In . SVG Version: 6.00 Build 0)  -->
<!DOCTYPE svg PUBLIC "-//W3C//DTD SVG 1.1//EN" "http://www.w3.org/Graphics/SVG/1.1/DTD/svg11.dtd">
<svg version="1.1" id="Layer_1" xmlns="http://www.w3.org/2000/svg" xmlns:xlink="http://www.w3.org/1999/xlink" x="0px" y="0px"
	 width="1920px" height="1080.001px" viewBox="0 0 1920 1080.001" enable-background="new 0 0 1920 1080.001" xml:space="preserve">
<rect x="1009.962" y="838.714" fill="#EDEDED" stroke="#000000" stroke-width="0.453" stroke-miterlimit="10" width="424.203" height="107.086"/>
<g>
	<g>
		<path d="M1041.999,879.702c-0.554,0-1.132-0.227-1.736-0.68c-0.453-0.453-0.705-1.057-0.755-1.813c0-1.359,0.83-2.189,2.491-2.492
			c1.258,0,2.089,0.832,2.492,2.492C1044.491,878.87,1043.66,879.702,1041.999,879.702z M1040.414,916.47v-31.182h3.096v31.182
			H1040.414z"/>
		<path d="M1071.143,916.47v-18.648c0-6.594-2.97-9.891-8.908-9.891c-2.92,0-5.135,0.857-6.645,2.568
			c-1.561,1.711-2.341,4.051-2.341,7.021v18.949h-3.095v-31.182h3.095v3.775c1.409-2.768,4.404-4.152,8.985-4.152
			c3.875,0,6.844,1.107,8.908,3.322c2.063,2.215,3.096,5.311,3.096,9.287v18.949H1071.143z"/>
		<path d="M1099.53,914.507c-2.014,1.713-4.43,2.566-7.248,2.566c-4.832,0-8.456-2.189-10.872-6.568l2.643-1.584
			c0.855,1.561,1.888,2.768,3.096,3.623c1.258,0.957,2.969,1.436,5.134,1.436c4.73,0,7.097-2.014,7.097-6.041
			c0-1.762-0.83-3.295-2.491-4.605c-0.504-0.303-1.221-0.643-2.151-1.02c-0.933-0.377-2.076-0.816-3.436-1.32
			c-2.518-0.906-4.329-1.813-5.437-2.719c-1.611-1.309-2.416-3.195-2.416-5.662c0-2.113,0.805-3.926,2.416-5.436
			c1.56-1.561,3.599-2.342,6.116-2.342c3.473,0,6.417,1.209,8.833,3.625l-2.265,1.963c-1.712-1.711-3.901-2.566-6.568-2.566
			c-3.624,0-5.437,1.584-5.437,4.756c0,1.41,0.554,2.566,1.661,3.473c0.906,0.705,2.341,1.385,4.304,2.039
			c1.711,0.604,3.12,1.17,4.228,1.699c1.107,0.527,1.938,0.994,2.492,1.396c2.163,1.66,3.246,3.9,3.246,6.719
			C1102.475,910.657,1101.493,912.847,1099.53,914.507z"/>
		<path d="M1113.875,888.384v28.086h-3.096v-28.086h-4.228v-3.096h4.228v-13.666h3.096v13.666h7.248v3.096H1113.875z"/>
		<path d="M1129.428,894.651c-0.555,0-1.132-0.227-1.736-0.68c-0.453-0.453-0.705-1.057-0.755-1.813c0-1.359,0.83-2.189,2.491-2.492
			c1.258,0,2.088,0.832,2.492,2.492C1131.92,893.819,1131.089,894.651,1129.428,894.651z M1129.428,916.923
			c-0.555,0-1.132-0.227-1.736-0.68c-0.453-0.453-0.705-1.057-0.755-1.811c0-1.359,0.83-2.189,2.491-2.492
			c1.258,0,2.088,0.83,2.492,2.492C1131.92,916.093,1131.089,916.923,1129.428,916.923z"/>
		<path d="M1167.63,912.317c-3.121,3.121-6.945,4.682-11.476,4.682c-5.185,0-9.464-2.115-12.835-6.342v20.461h-3.096v-45.83h3.096
			v5.889c3.221-4.227,7.499-6.342,12.835-6.342c4.53,0,8.33,1.537,11.4,4.605c3.12,3.123,4.681,6.947,4.681,11.477
			S1170.7,909.249,1167.63,912.317z M1165.365,891.706c-2.567-2.566-5.638-3.85-9.211-3.85c-3.624,0-6.695,1.258-9.211,3.773
			c-2.567,2.568-3.851,5.664-3.851,9.287c0,3.574,1.283,6.645,3.851,9.211c2.566,2.566,5.637,3.852,9.211,3.852
			c3.624,0,6.693-1.258,9.211-3.775c2.567-2.568,3.851-5.662,3.851-9.287C1169.216,897.345,1167.933,894.272,1165.365,891.706z"/>
		<path d="M1193.828,889.894c-0.807-0.604-1.661-1.082-2.567-1.434s-1.863-0.529-2.869-0.529c-0.856,0-1.661,0.266-2.416,0.793
			c-0.755,0.529-1.41,1.184-1.963,1.963c-0.555,0.781-0.994,1.65-1.321,2.605c-0.328,0.957-0.491,1.838-0.491,2.643v20.535h-3.095
			v-31.182h3.095v4.229c0.654-1.158,1.511-2.215,2.567-3.172c1.057-0.955,2.214-1.434,3.473-1.434c1.56,0,2.844,0.178,3.851,0.529
			s2.139,0.98,3.397,1.887L1193.828,889.894z"/>
		<path d="M1222.972,912.317c-3.121,3.121-6.946,4.682-11.477,4.682c-4.529,0-8.33-1.535-11.4-4.605
			c-3.121-3.121-4.681-6.947-4.681-11.477c0-4.479,1.56-8.279,4.681-11.4c3.07-3.172,6.871-4.756,11.4-4.756
			c4.479,0,8.279,1.561,11.401,4.68c3.12,3.123,4.681,6.947,4.681,11.477S1226.041,909.249,1222.972,912.317z M1220.782,891.63
			c-2.518-2.566-5.613-3.85-9.287-3.85c-3.523,0-6.568,1.309-9.135,3.926c-2.618,2.617-3.927,5.689-3.927,9.211
			c0,3.574,1.284,6.645,3.851,9.211c2.567,2.566,5.637,3.852,9.211,3.852c3.624,0,6.694-1.258,9.212-3.775
			c2.566-2.568,3.851-5.662,3.851-9.287C1224.558,897.243,1223.299,894.147,1220.782,891.63z"/>
		<path d="M1262.381,916.47v-5.586c-3.321,4.076-7.55,6.115-12.684,6.115c-4.53,0-8.331-1.535-11.4-4.605
			c-3.122-3.121-4.682-6.947-4.682-11.477s1.535-8.33,4.605-11.4c3.121-3.121,6.946-4.682,11.477-4.682
			c4.983,0,9.211,2.039,12.684,6.115v-30.35h3.096v55.869H1262.381z M1258.908,891.706c-2.567-2.566-5.638-3.85-9.211-3.85
			c-3.624,0-6.694,1.258-9.211,3.773c-2.567,2.568-3.851,5.664-3.851,9.287c0,3.574,1.283,6.645,3.851,9.211
			c2.566,2.566,5.637,3.852,9.211,3.852c3.624,0,6.693-1.258,9.211-3.775c2.567-2.568,3.851-5.662,3.851-9.287
			C1262.759,897.345,1261.476,894.272,1258.908,891.706z"/>
		<path d="M1312.06,916.47l-6.19-16.156h-24.538l-6.267,16.156h-3.02l21.518-55.643l21.593,55.643H1312.06z M1293.563,868.679
			l-11.023,28.539h22.046L1293.563,868.679z"/>
		<path d="M1348.603,912.091c-3.272,2.92-7.274,4.379-12.005,4.379h-16.836v-53.906h13.137c4.178,0,7.499,1.082,9.966,3.246
			c2.617,2.316,3.927,5.537,3.927,9.664c0,4.732-1.938,8.205-5.813,10.418c3.774,0.756,6.819,2.467,9.135,5.135
			c2.266,2.668,3.397,5.939,3.397,9.814C1353.51,905.474,1351.874,909.222,1348.603,912.091z M1340.675,868.376
			c-2.064-1.811-4.58-2.717-7.55-2.717h-10.344v19.629h10.797c2.919,0,5.335-0.906,7.248-2.717c1.912-1.813,2.869-4.178,2.869-7.098
			C1343.695,872.454,1342.688,870.089,1340.675,868.376z M1346.338,891.706c-2.567-2.215-5.789-3.322-9.664-3.322h-13.893v24.99
			h13.893c3.824,0,7.07-1.156,9.739-3.473c2.718-2.314,4.077-5.334,4.077-9.061C1350.49,897.067,1349.105,894.022,1346.338,891.706z
			"/>
		<path d="M1403.038,913.3c-2.819,2.064-6.645,3.322-11.477,3.773c-0.555,0.051-1.158,0.088-1.812,0.113
			c-0.655,0.025-1.335,0.039-2.039,0.039c-8.153,0-14.798-2.566-19.932-7.701c-5.185-5.184-7.776-11.854-7.776-20.008
			s2.566-14.799,7.7-19.932c5.184-5.184,11.854-7.777,20.008-7.777c4.631,0,8.808,0.68,12.533,2.039
			c2.215,0.855,4.354,2.09,6.418,3.699v3.852c-2.114-1.762-4.43-3.172-6.946-4.229c-3.826-1.561-7.827-2.342-12.005-2.342
			c-7.147,0-13.036,2.316-17.667,6.947s-6.946,10.545-6.946,17.742c0,7.199,2.29,13.088,6.871,17.668
			c4.63,4.631,10.544,6.945,17.742,6.945c4.479,0,8.381-0.805,11.703-2.416c1.912-0.955,4.328-2.492,7.248-4.605v3.549
			L1403.038,913.3z"/>
	</g>
</g>
<rect x="456.903" y="707.284" fill="#EDEDED" stroke="#000000" stroke-width="0.453" stroke-miterlimit="10" width="424.203" height="107.094"/>
<g>
	<g>
		<path d="M500.416,748.28c-0.554,0-1.132-0.227-1.736-0.68c-0.453-0.453-0.705-1.057-0.755-1.813c0-1.359,0.83-2.189,2.491-2.492
			c1.258,0,2.089,0.832,2.492,2.492C502.908,747.448,502.077,748.28,500.416,748.28z M498.831,785.048v-31.182h3.096v31.182H498.831
			z"/>
		<path d="M529.56,785.048v-18.648c0-6.594-2.97-9.891-8.908-9.891c-2.92,0-5.135,0.857-6.645,2.568
			c-1.561,1.711-2.341,4.051-2.341,7.021v18.949h-3.095v-31.182h3.095v3.775c1.409-2.768,4.404-4.152,8.985-4.152
			c3.875,0,6.844,1.107,8.908,3.322c2.063,2.215,3.096,5.311,3.096,9.287v18.949H529.56z"/>
		<path d="M557.947,783.085c-2.014,1.713-4.43,2.566-7.248,2.566c-4.832,0-8.456-2.189-10.872-6.568l2.643-1.584
			c0.855,1.561,1.888,2.768,3.096,3.623c1.258,0.957,2.969,1.436,5.134,1.436c4.73,0,7.097-2.014,7.097-6.041
			c0-1.762-0.83-3.295-2.491-4.605c-0.504-0.303-1.221-0.643-2.151-1.02c-0.933-0.377-2.076-0.816-3.436-1.32
			c-2.518-0.906-4.329-1.813-5.437-2.719c-1.611-1.309-2.416-3.195-2.416-5.662c0-2.113,0.805-3.926,2.416-5.436
			c1.56-1.561,3.599-2.342,6.116-2.342c3.473,0,6.417,1.209,8.833,3.625l-2.265,1.963c-1.712-1.711-3.901-2.566-6.568-2.566
			c-3.624,0-5.437,1.584-5.437,4.756c0,1.41,0.554,2.566,1.661,3.473c0.906,0.705,2.341,1.385,4.304,2.039
			c1.711,0.604,3.12,1.17,4.228,1.699c1.107,0.527,1.938,0.994,2.492,1.396c2.163,1.66,3.246,3.9,3.246,6.719
			C560.892,779.235,559.91,781.425,557.947,783.085z"/>
		<path d="M572.292,756.962v28.086h-3.096v-28.086h-4.228v-3.096h4.228V740.2h3.096v13.666h7.248v3.096H572.292z"/>
		<path d="M587.845,763.229c-0.555,0-1.132-0.227-1.736-0.68c-0.453-0.453-0.705-1.057-0.755-1.813c0-1.359,0.83-2.189,2.491-2.492
			c1.258,0,2.088,0.832,2.492,2.492C590.337,762.397,589.506,763.229,587.845,763.229z M587.845,785.501
			c-0.555,0-1.132-0.227-1.736-0.68c-0.453-0.453-0.705-1.057-0.755-1.811c0-1.359,0.83-2.189,2.491-2.492
			c1.258,0,2.088,0.83,2.492,2.492C590.337,784.671,589.506,785.501,587.845,785.501z"/>
		<path d="M614.118,783.085c-2.014,1.713-4.43,2.566-7.248,2.566c-4.832,0-8.456-2.189-10.872-6.568l2.643-1.584
			c0.855,1.561,1.888,2.768,3.096,3.623c1.258,0.957,2.969,1.436,5.134,1.436c4.73,0,7.097-2.014,7.097-6.041
			c0-1.762-0.83-3.295-2.491-4.605c-0.504-0.303-1.221-0.643-2.151-1.02c-0.933-0.377-2.076-0.816-3.436-1.32
			c-2.518-0.906-4.329-1.813-5.437-2.719c-1.611-1.309-2.416-3.195-2.416-5.662c0-2.113,0.805-3.926,2.416-5.436
			c1.56-1.561,3.599-2.342,6.116-2.342c3.473,0,6.417,1.209,8.833,3.625l-2.265,1.963c-1.712-1.711-3.901-2.566-6.568-2.566
			c-3.624,0-5.437,1.584-5.437,4.756c0,1.41,0.554,2.566,1.661,3.473c0.906,0.705,2.341,1.385,4.304,2.039
			c1.711,0.604,3.12,1.17,4.228,1.699c1.107,0.527,1.938,0.994,2.492,1.396c2.163,1.66,3.246,3.9,3.246,6.719
			C617.063,779.235,616.081,781.425,614.118,783.085z"/>
		<path d="M651.037,780.896c-3.121,3.121-6.945,4.682-11.476,4.682c-5.185,0-9.464-2.115-12.835-6.342v20.461h-3.096v-45.83h3.096
			v5.889c3.221-4.227,7.499-6.342,12.835-6.342c4.53,0,8.33,1.537,11.4,4.605c3.12,3.123,4.681,6.947,4.681,11.477
			S654.107,777.827,651.037,780.896z M648.772,760.284c-2.567-2.566-5.638-3.85-9.211-3.85c-3.624,0-6.695,1.258-9.211,3.773
			c-2.567,2.568-3.851,5.664-3.851,9.287c0,3.574,1.283,6.645,3.851,9.211c2.566,2.566,5.637,3.852,9.211,3.852
			c3.624,0,6.693-1.258,9.211-3.775c2.567-2.568,3.851-5.662,3.851-9.287C652.623,765.923,651.34,762.851,648.772,760.284z"/>
		<path d="M688.711,785.048v-5.359c-3.272,3.926-7.425,5.889-12.458,5.889c-4.529,0-8.33-1.535-11.4-4.605
			c-3.121-3.121-4.681-6.947-4.681-11.477s1.535-8.33,4.605-11.4c3.12-3.121,6.946-4.682,11.476-4.682
			c4.983,0,9.136,1.963,12.458,5.889v-5.436h3.096v31.182H688.711z M685.465,760.284c-2.567-2.566-5.638-3.85-9.212-3.85
			c-3.624,0-6.694,1.258-9.211,3.773c-2.566,2.568-3.851,5.664-3.851,9.287c0,3.574,1.284,6.645,3.851,9.211
			c2.567,2.566,5.637,3.852,9.211,3.852c3.624,0,6.694-1.258,9.212-3.775c2.566-2.568,3.851-5.662,3.851-9.287
			C689.315,765.923,688.031,762.851,685.465,760.284z"/>
		<path d="M715.74,785.651c-4.632,0-8.482-1.533-11.552-4.605c-3.071-3.068-4.605-6.92-4.605-11.551s1.534-8.48,4.605-11.551
			c3.069-3.07,6.92-4.605,11.552-4.605c3.976,0,7.146,0.906,9.513,2.717v3.699l-1.963-1.283l-2.114-1.133
			c-1.913-0.652-3.726-0.98-5.436-0.98c-3.877,0-7.022,1.207-9.438,3.623c-2.466,2.467-3.699,5.639-3.699,9.514
			c0,3.826,1.233,6.973,3.699,9.438c2.466,2.467,5.612,3.699,9.438,3.699c3.624,0,6.795-1.207,9.513-3.623v3.85
			C722.434,784.722,719.263,785.651,715.74,785.651z"/>
		<path d="M730.235,768.815c0,4.229,1.133,7.576,3.397,10.041c2.365,2.518,5.612,3.775,9.739,3.775c2.114,0,4.026-0.352,5.738-1.057
			c2.164-0.906,4.102-2.742,5.813-5.512l2.794,1.283c-1.963,3.727-4.983,6.242-9.061,7.551c-1.561,0.502-3.321,0.754-5.285,0.754
			c-4.681,0-8.531-1.533-11.551-4.605c-3.071-3.068-4.605-6.92-4.605-11.551c0-4.682,1.51-8.531,4.529-11.551
			c3.07-3.07,6.946-4.605,11.627-4.605c4.631,0,8.456,1.434,11.477,4.303c3.069,2.869,4.605,6.594,4.605,11.174H730.235z
			 M751.526,758.925c-2.366-1.711-5.084-2.566-8.154-2.566c-6.443,0-10.671,3.17-12.684,9.514h25.293
			C755.478,763.003,753.992,760.688,751.526,758.925z"/>
		<path d="M799.922,785.048l-6.19-16.156h-24.538l-6.267,16.156h-3.02l21.518-55.643l21.593,55.643H799.922z M781.425,737.257
			l-11.023,28.539h22.046L781.425,737.257z"/>
		<path d="M835.937,757.944c-0.453,0.555-1.133,1.371-2.038,2.453c-0.906,1.082-2.064,2.43-3.474,4.039l-15.478,17.516h25.821v3.096
			h-32.616l26.425-30.578c2.114-3.02,3.171-6.164,3.171-9.438c0-3.17-1.258-5.861-3.774-8.078c-2.518-2.162-5.437-3.246-8.758-3.246
			c-4.077,0-7.274,1.309-9.589,3.926c-1.41,1.561-2.392,3.5-2.944,5.814h-3.397c0.352-2.617,1.661-5.211,3.926-7.777
			c3.02-3.322,7.021-4.982,12.005-4.982c4.277,0,7.952,1.334,11.022,4.002c3.069,2.617,4.605,6.064,4.605,10.342
			C840.844,749.413,839.208,753.716,835.937,757.944z"/>
	</g>
</g>
<path fill="#EDEDED" stroke="#000000" stroke-width="0.453" stroke-miterlimit="10" d="M1434.165,239.831
	c0,15.945-12.969,28.906-28.938,28.906h-366.336c-15.975,0-28.929-12.961-28.929-28.906v-49.277
	c0-15.973,12.954-28.902,28.929-28.902h366.336c15.97,0,28.938,12.93,28.938,28.902V239.831z"/>
<g>
	<g>
		<path d="M1088.734,235.253c-3.121,3.121-6.945,4.682-11.476,4.682c-5.185,0-9.438-2.088-12.76-6.268v5.738h-3.096v-55.869h3.096
			v30.502c3.271-4.178,7.524-6.268,12.76-6.268c4.53,0,8.33,1.537,11.4,4.605c3.12,3.123,4.681,6.947,4.681,11.477
			S1091.804,232.185,1088.734,235.253z M1086.47,214.642c-2.567-2.566-5.638-3.85-9.211-3.85c-3.624,0-6.695,1.258-9.211,3.773
			c-2.567,2.568-3.851,5.664-3.851,9.287c0,3.574,1.283,6.645,3.851,9.211c2.566,2.566,5.637,3.852,9.211,3.852
			c3.624,0,6.693-1.258,9.211-3.775c2.567-2.568,3.851-5.662,3.851-9.287C1090.32,220.28,1089.037,217.208,1086.47,214.642z"/>
		<path d="M1126.484,235.253c-3.121,3.121-6.946,4.682-11.477,4.682c-4.529,0-8.33-1.535-11.4-4.605
			c-3.121-3.121-4.681-6.947-4.681-11.477c0-4.479,1.56-8.279,4.681-11.4c3.07-3.172,6.871-4.756,11.4-4.756
			c4.479,0,8.279,1.561,11.401,4.68c3.12,3.123,4.681,6.947,4.681,11.477S1129.554,232.185,1126.484,235.253z M1124.295,214.565
			c-2.518-2.566-5.613-3.85-9.287-3.85c-3.523,0-6.568,1.309-9.135,3.926c-2.618,2.617-3.927,5.689-3.927,9.211
			c0,3.574,1.284,6.645,3.851,9.211c2.567,2.566,5.637,3.852,9.211,3.852c3.624,0,6.694-1.258,9.212-3.775
			c2.566-2.568,3.851-5.662,3.851-9.287C1128.07,220.179,1126.812,217.083,1124.295,214.565z"/>
		<path d="M1143.546,211.319v28.086h-3.096v-28.086h-4.228v-3.096h4.228v-13.666h3.096v13.666h7.248v3.096H1143.546z"/>
		<path d="M1159.099,217.587c-0.555,0-1.132-0.227-1.736-0.68c-0.453-0.453-0.705-1.057-0.755-1.813c0-1.359,0.83-2.189,2.491-2.492
			c1.258,0,2.088,0.832,2.492,2.492C1161.591,216.755,1160.76,217.587,1159.099,217.587z M1159.099,239.858
			c-0.555,0-1.132-0.227-1.736-0.68c-0.453-0.453-0.705-1.057-0.755-1.811c0-1.359,0.83-2.189,2.491-2.492
			c1.258,0,2.088,0.83,2.492,2.492C1161.591,239.028,1160.76,239.858,1159.099,239.858z"/>
		<path d="M1170.423,239.405v-53.906h25.896v3.096h-22.801v19.629h22.801v3.322h-22.801v24.764h22.801v3.096H1170.423z"/>
		<path d="M1202.736,239.405v-55.869h3.021v55.869H1202.736z"/>
		<path d="M1217.005,223.173c0,4.229,1.133,7.576,3.397,10.041c2.365,2.518,5.612,3.775,9.739,3.775
			c2.114,0,4.026-0.352,5.738-1.057c2.164-0.906,4.102-2.742,5.813-5.512l2.794,1.283c-1.963,3.727-4.983,6.242-9.061,7.551
			c-1.561,0.502-3.321,0.754-5.285,0.754c-4.681,0-8.531-1.533-11.551-4.605c-3.071-3.068-4.605-6.92-4.605-11.551
			c0-4.682,1.51-8.531,4.529-11.551c3.07-3.07,6.946-4.605,11.627-4.605c4.631,0,8.456,1.434,11.477,4.303
			c3.069,2.869,4.605,6.594,4.605,11.174H1217.005z M1238.296,213.282c-2.366-1.711-5.084-2.566-8.154-2.566
			c-6.443,0-10.671,3.17-12.684,9.514h25.293C1242.247,217.36,1240.762,215.046,1238.296,213.282z"/>
		<path d="M1288.88,239.405v-21.518c0-1.912-0.63-3.572-1.887-4.982c-1.259-1.408-3.071-2.113-5.437-2.113
			c-4.883,0-7.323,2.365-7.323,7.096v21.518h-3.096v-21.518c0-2.113-0.705-3.799-2.114-5.059c-1.46-1.359-3.196-2.037-5.209-2.037
			c-2.064,0-3.801,0.654-5.21,1.963c-1.409,1.258-2.114,2.969-2.114,5.133v21.518h-3.095v-31.182h3.095v3.096
			c1.511-2.365,3.951-3.549,7.324-3.549c4.026,0,6.995,1.637,8.909,4.908c1.812-3.271,4.756-4.908,8.833-4.908
			c3.12,0,5.637,0.881,7.55,2.643c1.913,1.813,2.869,4.305,2.869,7.475v21.518H1288.88z"/>
		<path d="M1302.545,223.173c0,4.229,1.133,7.576,3.397,10.041c2.365,2.518,5.612,3.775,9.739,3.775
			c2.114,0,4.026-0.352,5.738-1.057c2.164-0.906,4.102-2.742,5.813-5.512l2.794,1.283c-1.963,3.727-4.983,6.242-9.061,7.551
			c-1.561,0.502-3.321,0.754-5.285,0.754c-4.681,0-8.531-1.533-11.551-4.605c-3.071-3.068-4.605-6.92-4.605-11.551
			c0-4.682,1.51-8.531,4.529-11.551c3.07-3.07,6.946-4.605,11.627-4.605c4.631,0,8.456,1.434,11.477,4.303
			c3.069,2.869,4.605,6.594,4.605,11.174H1302.545z M1323.836,213.282c-2.366-1.711-5.084-2.566-8.154-2.566
			c-6.443,0-10.671,3.17-12.684,9.514h25.293C1327.787,217.36,1326.302,215.046,1323.836,213.282z"/>
		<path d="M1359.924,239.405v-18.648c0-6.594-2.97-9.891-8.908-9.891c-2.92,0-5.135,0.857-6.645,2.568
			c-1.561,1.711-2.341,4.051-2.341,7.021v18.949h-3.095v-31.182h3.095v3.775c1.409-2.768,4.404-4.152,8.985-4.152
			c3.875,0,6.844,1.107,8.908,3.322c2.063,2.215,3.096,5.311,3.096,9.287v18.949H1359.924z"/>
		<path d="M1377.666,211.319v28.086h-3.096v-28.086h-4.228v-3.096h4.228v-13.666h3.096v13.666h7.248v3.096H1377.666z"/>
	</g>
</g>
<path fill="#EDEDED" stroke="#000000" stroke-width="0.453" stroke-miterlimit="10" d="M1434.165,480.675
	c0,15.945-12.969,28.906-28.938,28.906H850.146c-15.977,0-28.931-12.961-28.931-28.906v-49.277
	c0-15.973,12.954-28.902,28.931-28.902h555.081c15.97,0,28.938,12.93,28.938,28.902V480.675z"/>
<g>
	<g>
		<path d="M876.277,476.099c-3.121,3.121-6.945,4.682-11.476,4.682c-5.185,0-9.464-2.115-12.835-6.342v20.461h-3.096v-45.83h3.096
			v5.889c3.221-4.227,7.499-6.342,12.835-6.342c4.53,0,8.33,1.537,11.4,4.605c3.12,3.123,4.681,6.947,4.681,11.477
			S879.348,473.03,876.277,476.099z M874.013,455.487c-2.567-2.566-5.638-3.85-9.211-3.85c-3.624,0-6.695,1.258-9.211,3.773
			c-2.567,2.568-3.851,5.664-3.851,9.287c0,3.574,1.283,6.645,3.851,9.211c2.566,2.566,5.637,3.852,9.211,3.852
			c3.624,0,6.693-1.258,9.211-3.775c2.567-2.568,3.851-5.662,3.851-9.287C877.863,461.126,876.58,458.054,874.013,455.487z"/>
		<path d="M902.476,453.675c-0.807-0.604-1.661-1.082-2.567-1.434s-1.863-0.529-2.869-0.529c-0.856,0-1.661,0.266-2.416,0.793
			c-0.755,0.529-1.41,1.184-1.963,1.963c-0.555,0.781-0.994,1.65-1.321,2.605c-0.328,0.957-0.491,1.838-0.491,2.643v20.535h-3.095
			v-31.182h3.095v4.229c0.654-1.158,1.511-2.215,2.567-3.172c1.057-0.955,2.214-1.434,3.473-1.434c1.56,0,2.844,0.178,3.851,0.529
			s2.139,0.98,3.397,1.887L902.476,453.675z"/>
		<path d="M931.619,476.099c-3.121,3.121-6.946,4.682-11.477,4.682c-4.529,0-8.33-1.535-11.4-4.605
			c-3.121-3.121-4.681-6.947-4.681-11.477c0-4.479,1.56-8.279,4.681-11.4c3.07-3.172,6.871-4.756,11.4-4.756
			c4.479,0,8.279,1.561,11.401,4.68c3.12,3.123,4.681,6.947,4.681,11.477S934.688,473.03,931.619,476.099z M929.43,455.411
			c-2.518-2.566-5.613-3.85-9.287-3.85c-3.523,0-6.568,1.309-9.135,3.926c-2.618,2.617-3.927,5.689-3.927,9.211
			c0,3.574,1.284,6.645,3.851,9.211c2.567,2.566,5.637,3.852,9.211,3.852c3.624,0,6.694-1.258,9.212-3.775
			c2.566-2.568,3.851-5.662,3.851-9.287C933.205,461.024,931.946,457.929,929.43,455.411z"/>
		<path d="M971.028,480.251v-5.586c-3.321,4.076-7.55,6.115-12.684,6.115c-4.53,0-8.331-1.535-11.4-4.605
			c-3.122-3.121-4.682-6.947-4.682-11.477s1.535-8.33,4.605-11.4c3.121-3.121,6.946-4.682,11.477-4.682
			c4.983,0,9.211,2.039,12.684,6.115v-30.35h3.096v55.869H971.028z M967.556,455.487c-2.567-2.566-5.638-3.85-9.211-3.85
			c-3.624,0-6.694,1.258-9.211,3.773c-2.567,2.568-3.851,5.664-3.851,9.287c0,3.574,1.283,6.645,3.851,9.211
			c2.566,2.566,5.637,3.852,9.211,3.852c3.624,0,6.693-1.258,9.211-3.775c2.567-2.568,3.851-5.662,3.851-9.287
			C971.406,461.126,970.123,458.054,967.556,455.487z"/>
		<path d="M1003.191,477.534c-2.064,2.215-4.958,3.32-8.683,3.32c-3.675,0-6.52-1.08-8.531-3.246
			c-2.015-2.162-3.021-5.184-3.021-9.059v-19.48h3.096v19.48c0,2.969,0.653,5.26,1.963,6.869c1.359,1.611,3.522,2.416,6.493,2.416
			c5.787,0,8.683-3.096,8.683-9.285v-19.48h3.02v19.48C1006.211,472.374,1005.204,475.37,1003.191,477.534z"/>
		<path d="M1030.446,480.854c-4.632,0-8.482-1.533-11.552-4.605c-3.071-3.068-4.605-6.92-4.605-11.551s1.534-8.48,4.605-11.551
			c3.069-3.07,6.92-4.605,11.552-4.605c3.976,0,7.146,0.906,9.513,2.717v3.699l-1.963-1.283l-2.114-1.133
			c-1.913-0.652-3.726-0.98-5.436-0.98c-3.877,0-7.022,1.207-9.438,3.623c-2.466,2.467-3.699,5.639-3.699,9.514
			c0,3.826,1.233,6.973,3.699,9.438c2.466,2.467,5.612,3.699,9.438,3.699c3.624,0,6.795-1.207,9.513-3.623v3.85
			C1037.14,479.925,1033.969,480.854,1030.446,480.854z"/>
		<path d="M1053.473,452.165v28.086h-3.096v-28.086h-4.228v-3.096h4.228v-13.666h3.096v13.666h7.248v3.096H1053.473z"/>
		<path d="M1069.025,458.433c-0.555,0-1.132-0.227-1.736-0.68c-0.453-0.453-0.705-1.057-0.755-1.813c0-1.359,0.83-2.189,2.491-2.492
			c1.258,0,2.088,0.832,2.492,2.492C1071.518,457.601,1070.687,458.433,1069.025,458.433z M1069.025,480.704
			c-0.555,0-1.132-0.227-1.736-0.68c-0.453-0.453-0.705-1.057-0.755-1.811c0-1.359,0.83-2.189,2.491-2.492
			c1.258,0,2.088,0.83,2.492,2.492C1071.518,479.874,1070.687,480.704,1069.025,480.704z"/>
		<path d="M1106.699,480.251l-17.139-26.953h-5.813v26.953h-3.02v-53.906h12.457c2.013,0,3.927,0.289,5.738,0.867
			c1.813,0.58,3.371,1.436,4.681,2.568c1.309,1.131,2.353,2.529,3.134,4.189c0.779,1.66,1.17,3.574,1.17,5.738
			c0,2.367-0.365,4.404-1.095,6.115c-0.73,1.711-1.763,3.121-3.096,4.229c-1.334,1.107-2.906,1.926-4.719,2.453
			c-1.812,0.529-3.801,0.793-5.964,0.793l17.289,26.953H1106.699z M1103.83,435.14c-0.604-1.283-1.435-2.34-2.491-3.17
			c-1.057-0.832-2.291-1.461-3.699-1.889c-1.41-0.426-2.92-0.641-4.53-0.641h-9.362v20.762h10.192c3.221,0,5.826-0.906,7.814-2.719
			c1.988-1.811,2.982-4.428,2.982-7.852C1104.736,437.921,1104.435,436.423,1103.83,435.14z"/>
		<path d="M1114.477,464.019c0,4.229,1.133,7.576,3.397,10.041c2.365,2.518,5.612,3.775,9.739,3.775
			c2.114,0,4.026-0.352,5.738-1.057c2.164-0.906,4.102-2.742,5.813-5.512l2.794,1.283c-1.963,3.727-4.983,6.242-9.061,7.551
			c-1.561,0.502-3.321,0.754-5.285,0.754c-4.681,0-8.531-1.533-11.551-4.605c-3.071-3.068-4.605-6.92-4.605-11.551
			c0-4.682,1.51-8.531,4.529-11.551c3.07-3.07,6.946-4.605,11.627-4.605c4.631,0,8.456,1.434,11.477,4.303
			c3.069,2.869,4.605,6.594,4.605,11.174H1114.477z M1135.768,454.128c-2.366-1.711-5.084-2.566-8.154-2.566
			c-6.443,0-10.671,3.17-12.684,9.514h25.293C1139.719,458.206,1138.233,455.892,1135.768,454.128z"/>
		<path d="M1158.268,427.478l-2.039-0.227c-2.819,0-4.228,1.66-4.228,4.982v16.836h7.398v3.096h-7.398v28.086h-3.096v-28.086h-4.229
			v-3.096h4.229v-17.742c0-4.781,2.416-7.172,7.248-7.172c1.106,0,1.812,0.051,2.114,0.15c0.604,0,1.283,0.178,2.038,0.529v3.096
			L1158.268,427.478z"/>
		<path d="M1181.597,453.675c-0.807-0.604-1.661-1.082-2.567-1.434s-1.863-0.529-2.869-0.529c-0.856,0-1.661,0.266-2.416,0.793
			c-0.755,0.529-1.41,1.184-1.963,1.963c-0.555,0.781-0.994,1.65-1.321,2.605c-0.328,0.957-0.491,1.838-0.491,2.643v20.535h-3.095
			v-31.182h3.095v4.229c0.654-1.158,1.511-2.215,2.567-3.172c1.057-0.955,2.214-1.434,3.473-1.434c1.56,0,2.844,0.178,3.851,0.529
			s2.139,0.98,3.397,1.887L1181.597,453.675z"/>
		<path d="M1192.393,443.483c-0.554,0-1.132-0.227-1.736-0.68c-0.453-0.453-0.705-1.057-0.755-1.813c0-1.359,0.83-2.189,2.491-2.492
			c1.258,0,2.089,0.832,2.492,2.492C1194.885,442.651,1194.054,443.483,1192.393,443.483z M1190.808,480.251v-31.182h3.096v31.182
			H1190.808z"/>
		<path d="M1229.236,490.671c-2.819,2.818-6.519,4.229-11.099,4.229c-8.507,0-13.59-3.35-15.251-10.043h3.096
			c0.554,2.467,2.139,4.305,4.757,5.512c2.063,0.955,4.53,1.436,7.398,1.436c3.876,0,6.871-1.084,8.985-3.248
			c2.163-2.164,3.246-5.184,3.246-9.059v-4.605c-3.272,3.926-7.425,5.889-12.458,5.889c-4.529,0-8.33-1.535-11.4-4.605
			c-3.121-3.121-4.681-6.947-4.681-11.477s1.535-8.33,4.605-11.4c3.12-3.121,6.946-4.682,11.476-4.682
			c4.983,0,9.136,1.963,12.458,5.889v-5.436h3.096v30.502C1233.465,484.151,1232.055,487.851,1229.236,490.671z M1227.123,455.487
			c-2.567-2.566-5.638-3.85-9.212-3.85c-3.624,0-6.694,1.258-9.211,3.773c-2.566,2.568-3.851,5.664-3.851,9.287
			c0,3.574,1.284,6.645,3.851,9.211c2.567,2.566,5.637,3.852,9.211,3.852c3.624,0,6.694-1.258,9.212-3.775
			c2.566-2.568,3.851-5.662,3.851-9.287C1230.974,461.126,1229.689,458.054,1227.123,455.487z"/>
		<path d="M1243.279,464.019c0,4.229,1.133,7.576,3.397,10.041c2.365,2.518,5.612,3.775,9.739,3.775
			c2.114,0,4.026-0.352,5.738-1.057c2.164-0.906,4.102-2.742,5.813-5.512l2.794,1.283c-1.963,3.727-4.983,6.242-9.061,7.551
			c-1.561,0.502-3.321,0.754-5.285,0.754c-4.681,0-8.531-1.533-11.551-4.605c-3.071-3.068-4.605-6.92-4.605-11.551
			c0-4.682,1.51-8.531,4.529-11.551c3.07-3.07,6.946-4.605,11.627-4.605c4.631,0,8.456,1.434,11.477,4.303
			c3.069,2.869,4.605,6.594,4.605,11.174H1243.279z M1264.57,454.128c-2.366-1.711-5.084-2.566-8.154-2.566
			c-6.443,0-10.671,3.17-12.684,9.514h25.293C1268.521,458.206,1267.036,455.892,1264.57,454.128z"/>
		<path d="M1294.393,453.675c-0.807-0.604-1.661-1.082-2.567-1.434s-1.863-0.529-2.869-0.529c-0.856,0-1.661,0.266-2.416,0.793
			c-0.755,0.529-1.41,1.184-1.963,1.963c-0.555,0.781-0.994,1.65-1.321,2.605c-0.328,0.957-0.491,1.838-0.491,2.643v20.535h-3.095
			v-31.182h3.095v4.229c0.654-1.158,1.511-2.215,2.567-3.172c1.057-0.955,2.214-1.434,3.473-1.434c1.56,0,2.844,0.178,3.851,0.529
			s2.139,0.98,3.397,1.887L1294.393,453.675z"/>
		<path d="M1327.764,480.251v-5.359c-3.272,3.926-7.425,5.889-12.458,5.889c-4.529,0-8.33-1.535-11.4-4.605
			c-3.121-3.121-4.681-6.947-4.681-11.477s1.535-8.33,4.605-11.4c3.12-3.121,6.946-4.682,11.476-4.682
			c4.983,0,9.136,1.963,12.458,5.889v-5.436h3.096v31.182H1327.764z M1324.518,455.487c-2.567-2.566-5.638-3.85-9.212-3.85
			c-3.624,0-6.694,1.258-9.211,3.773c-2.566,2.568-3.851,5.664-3.851,9.287c0,3.574,1.284,6.645,3.851,9.211
			c2.567,2.566,5.637,3.852,9.211,3.852c3.624,0,6.694-1.258,9.212-3.775c2.566-2.568,3.851-5.662,3.851-9.287
			C1328.368,461.126,1327.084,458.054,1324.518,455.487z"/>
		<path d="M1344.751,452.165v28.086h-3.096v-28.086h-4.228v-3.096h4.228v-13.666h3.096v13.666h7.248v3.096H1344.751z"/>
		<path d="M1380.539,476.099c-3.121,3.121-6.946,4.682-11.477,4.682c-4.529,0-8.33-1.535-11.4-4.605
			c-3.121-3.121-4.681-6.947-4.681-11.477c0-4.479,1.56-8.279,4.681-11.4c3.07-3.172,6.871-4.756,11.4-4.756
			c4.479,0,8.279,1.561,11.401,4.68c3.12,3.123,4.681,6.947,4.681,11.477S1383.608,473.03,1380.539,476.099z M1378.35,455.411
			c-2.518-2.566-5.613-3.85-9.287-3.85c-3.523,0-6.568,1.309-9.135,3.926c-2.618,2.617-3.927,5.689-3.927,9.211
			c0,3.574,1.284,6.645,3.851,9.211c2.567,2.566,5.637,3.852,9.211,3.852c3.624,0,6.694-1.258,9.212-3.775
			c2.566-2.568,3.851-5.662,3.851-9.287C1382.125,461.024,1380.866,457.929,1378.35,455.411z"/>
		<path d="M1407.643,453.675c-0.807-0.604-1.661-1.082-2.567-1.434s-1.863-0.529-2.869-0.529c-0.856,0-1.661,0.266-2.416,0.793
			c-0.755,0.529-1.41,1.184-1.963,1.963c-0.555,0.781-0.994,1.65-1.321,2.605c-0.328,0.957-0.491,1.838-0.491,2.643v20.535h-3.095
			v-31.182h3.095v4.229c0.654-1.158,1.511-2.215,2.567-3.172c1.057-0.955,2.214-1.434,3.473-1.434c1.56,0,2.844,0.178,3.851,0.529
			s2.139,0.98,3.397,1.887L1407.643,453.675z"/>
	</g>
</g>
<g>
	<g>
		<path d="M1270.574,787.222c-0.483-0.363-0.996-0.648-1.54-0.861c-0.544-0.211-1.117-0.316-1.722-0.316
			c-0.514,0-0.996,0.158-1.449,0.475c-0.453,0.318-0.846,0.711-1.178,1.18c-0.333,0.467-0.597,0.988-0.793,1.563
			s-0.294,1.102-0.294,1.584v12.322h-1.857v-18.709h1.857v2.537c0.392-0.695,0.905-1.328,1.54-1.902
			c0.634-0.574,1.328-0.861,2.084-0.861c0.936,0,1.705,0.107,2.31,0.318s1.283,0.588,2.039,1.131L1270.574,787.222z"/>
		<path d="M1290.732,803.167v-3.352c-1.993,2.445-4.529,3.67-7.61,3.67c-2.718,0-4.998-0.922-6.84-2.764
			c-1.873-1.873-2.809-4.168-2.809-6.887c0-2.717,0.921-4.998,2.763-6.84c1.872-1.873,4.168-2.809,6.886-2.809
			c2.99,0,5.527,1.223,7.61,3.67v-18.211h1.857v33.521H1290.732z M1288.649,788.31c-1.541-1.541-3.383-2.311-5.527-2.311
			c-2.174,0-4.017,0.754-5.526,2.264c-1.54,1.541-2.311,3.398-2.311,5.572c0,2.145,0.771,3.986,2.311,5.527s3.382,2.311,5.526,2.311
			c2.175,0,4.017-0.754,5.527-2.266c1.54-1.539,2.31-3.396,2.31-5.572C1290.959,791.692,1290.189,789.849,1288.649,788.31z"/>
		<path d="M1305.229,771.503l-1.224-0.137c-1.691,0-2.537,0.996-2.537,2.99v10.102h4.439v1.857h-4.439v16.852h-1.857v-16.852h-2.536
			v-1.857h2.536v-10.645c0-2.869,1.45-4.305,4.35-4.305c0.664,0,1.087,0.031,1.269,0.092c0.362,0,0.77,0.105,1.223,0.316v1.857
			L1305.229,771.503z"/>
		<path d="M1311.209,790.075c-0.333,0-0.68-0.135-1.042-0.408c-0.272-0.271-0.424-0.633-0.453-1.086
			c0-0.816,0.498-1.314,1.495-1.496c0.754,0,1.253,0.5,1.494,1.496C1312.703,789.577,1312.205,790.075,1311.209,790.075z
			 M1311.209,803.438c-0.333,0-0.68-0.135-1.042-0.406c-0.272-0.271-0.424-0.635-0.453-1.088c0-0.814,0.498-1.314,1.495-1.494
			c0.754,0,1.253,0.498,1.494,1.494C1312.703,802.94,1312.205,803.438,1311.209,803.438z"/>
		<path d="M1320.586,786.315v16.852h-1.857v-16.852h-2.537v-1.857h2.537v-8.199h1.857v8.199h4.349v1.857H1320.586z"/>
		<path d="M1332.5,811.956h-2.084l4.847-10.51l-7.882-16.988h1.993l6.977,14.768l6.886-14.768h2.038L1332.5,811.956z"/>
		<path d="M1365.614,800.677c-1.873,1.873-4.168,2.809-6.886,2.809c-3.111,0-5.679-1.27-7.701-3.807v12.277h-1.857v-27.498h1.857
			v3.533c1.932-2.537,4.499-3.805,7.701-3.805c2.718,0,4.998,0.922,6.84,2.764c1.872,1.873,2.809,4.168,2.809,6.885
			C1368.377,796.554,1367.456,798.835,1365.614,800.677z M1364.255,788.31c-1.54-1.541-3.383-2.311-5.526-2.311
			c-2.175,0-4.018,0.754-5.527,2.264c-1.54,1.541-2.31,3.398-2.31,5.572c0,2.145,0.77,3.986,2.31,5.527
			c1.541,1.541,3.383,2.311,5.527,2.311c2.174,0,4.016-0.754,5.526-2.266c1.54-1.539,2.311-3.396,2.311-5.572
			C1366.565,791.692,1365.795,789.849,1364.255,788.31z"/>
		<path d="M1372.861,793.429c0,2.535,0.68,4.545,2.038,6.023c1.419,1.512,3.367,2.266,5.844,2.266c1.269,0,2.416-0.211,3.443-0.635
			c1.298-0.543,2.461-1.645,3.488-3.307l1.676,0.77c-1.178,2.236-2.99,3.746-5.437,4.531c-0.937,0.301-1.993,0.453-3.171,0.453
			c-2.809,0-5.119-0.922-6.931-2.764c-1.843-1.842-2.764-4.152-2.764-6.932c0-2.809,0.906-5.119,2.718-6.93
			c1.842-1.842,4.168-2.764,6.977-2.764c2.778,0,5.074,0.859,6.886,2.582c1.842,1.721,2.764,3.957,2.764,6.705H1372.861z
			 M1385.636,787.493c-1.42-1.025-3.051-1.539-4.893-1.539c-3.866,0-6.402,1.902-7.61,5.707h15.176
			C1388.007,789.94,1387.115,788.552,1385.636,787.493z"/>
	</g>
</g>
<g>
	<g>
		<path d="M611.62,638.724c-1.873,1.873-4.168,2.809-6.886,2.809c-3.111,0-5.663-1.254-7.656-3.76v3.441h-1.857v-33.521h1.857
			v18.301c1.963-2.506,4.515-3.76,7.656-3.76c2.718,0,4.998,0.922,6.84,2.764c1.873,1.873,2.809,4.168,2.809,6.885
			C614.383,634.601,613.462,636.882,611.62,638.724z M610.261,626.356c-1.54-1.541-3.383-2.311-5.526-2.311
			c-2.175,0-4.017,0.754-5.527,2.264c-1.54,1.541-2.31,3.398-2.31,5.572c0,2.145,0.77,3.986,2.31,5.527
			c1.541,1.541,3.383,2.311,5.527,2.311c2.174,0,4.016-0.754,5.526-2.266c1.54-1.539,2.311-3.396,2.311-5.572
			C612.571,629.739,611.801,627.896,610.261,626.356z"/>
		<path d="M634.27,638.724c-1.873,1.873-4.168,2.809-6.886,2.809s-4.998-0.922-6.84-2.764c-1.873-1.873-2.809-4.168-2.809-6.887
			c0-2.688,0.936-4.967,2.809-6.84c1.842-1.902,4.122-2.854,6.84-2.854c2.688,0,4.968,0.936,6.841,2.809
			c1.872,1.873,2.809,4.168,2.809,6.885C637.033,634.601,636.111,636.882,634.27,638.724z M632.956,626.31
			c-1.511-1.539-3.368-2.309-5.572-2.309c-2.114,0-3.941,0.785-5.481,2.355c-1.57,1.57-2.355,3.412-2.355,5.525
			c0,2.145,0.771,3.986,2.311,5.527s3.382,2.311,5.526,2.311c2.175,0,4.017-0.754,5.527-2.266c1.54-1.539,2.31-3.396,2.31-5.572
			C635.221,629.679,634.466,627.821,632.956,626.31z"/>
		<path d="M644.508,624.362v16.852h-1.857v-16.852h-2.537v-1.857h2.537v-8.199h1.857v8.199h4.349v1.857H644.508z"/>
		<path d="M653.84,628.122c-0.333,0-0.68-0.135-1.042-0.408c-0.272-0.271-0.424-0.633-0.453-1.086c0-0.816,0.498-1.314,1.495-1.496
			c0.754,0,1.253,0.5,1.494,1.496C655.334,627.624,654.836,628.122,653.84,628.122z M653.84,641.485
			c-0.333,0-0.68-0.135-1.042-0.406c-0.272-0.271-0.424-0.635-0.453-1.088c0-0.814,0.498-1.314,1.495-1.494
			c0.754,0,1.253,0.498,1.494,1.494C655.334,640.987,654.836,641.485,653.84,641.485z"/>
		<path d="M669.241,641.577c-2.778,0-5.089-0.922-6.931-2.764c-1.843-1.842-2.764-4.152-2.764-6.932c0-2.777,0.921-5.088,2.764-6.93
			c1.842-1.842,4.152-2.764,6.931-2.764c2.386,0,4.288,0.543,5.708,1.631v2.219l-1.178-0.77l-1.269-0.68
			c-1.147-0.393-2.235-0.588-3.262-0.588c-2.325,0-4.213,0.725-5.662,2.174c-1.48,1.48-2.22,3.383-2.22,5.707
			c0,2.297,0.739,4.184,2.22,5.664c1.479,1.479,3.367,2.219,5.662,2.219c2.175,0,4.077-0.725,5.708-2.174v2.311
			C673.258,641.019,671.355,641.577,669.241,641.577z"/>
		<path d="M692.57,638.724c-1.873,1.873-4.168,2.809-6.886,2.809s-4.998-0.922-6.84-2.764c-1.873-1.873-2.809-4.168-2.809-6.887
			c0-2.688,0.936-4.967,2.809-6.84c1.842-1.902,4.122-2.854,6.84-2.854c2.688,0,4.968,0.936,6.841,2.809
			c1.872,1.873,2.809,4.168,2.809,6.885C695.334,634.601,694.412,636.882,692.57,638.724z M691.257,626.31
			c-1.511-1.539-3.368-2.309-5.572-2.309c-2.114,0-3.941,0.785-5.481,2.355c-1.57,1.57-2.355,3.412-2.355,5.525
			c0,2.145,0.771,3.986,2.311,5.527s3.382,2.311,5.526,2.311c2.175,0,4.017-0.754,5.527-2.266c1.54-1.539,2.31-3.396,2.31-5.572
			C693.521,629.679,692.767,627.821,691.257,626.31z"/>
		<path d="M712.593,641.214v-11.189c0-3.955-1.782-5.934-5.345-5.934c-1.752,0-3.081,0.514-3.986,1.541
			c-0.937,1.025-1.404,2.43-1.404,4.213v11.369H700v-18.709h1.857v2.266c0.845-1.66,2.642-2.492,5.391-2.492
			c2.325,0,4.106,0.664,5.345,1.994c1.238,1.328,1.857,3.186,1.857,5.572v11.369H712.593z"/>
		<path d="M723.238,624.362v16.852h-1.857v-16.852h-2.537v-1.857h2.537v-8.199h1.857v8.199h4.349v1.857H723.238z"/>
		<path d="M745.345,641.214v-3.217c-1.963,2.357-4.455,3.535-7.475,3.535c-2.718,0-4.998-0.922-6.84-2.764
			c-1.873-1.873-2.809-4.168-2.809-6.887c0-2.717,0.921-4.998,2.763-6.84c1.872-1.873,4.168-2.809,6.886-2.809
			c2.99,0,5.481,1.178,7.475,3.533v-3.262h1.857v18.709H745.345z M743.397,626.356c-1.541-1.541-3.383-2.311-5.527-2.311
			c-2.174,0-4.017,0.754-5.526,2.264c-1.54,1.541-2.311,3.398-2.311,5.572c0,2.145,0.771,3.986,2.311,5.527s3.382,2.311,5.526,2.311
			c2.175,0,4.017-0.754,5.527-2.266c1.54-1.539,2.31-3.396,2.31-5.572C745.707,629.739,744.938,627.896,743.397,626.356z"/>
		<path d="M753.997,619.153c-0.332,0-0.679-0.137-1.041-0.408c-0.272-0.271-0.424-0.635-0.453-1.088
			c0-0.814,0.498-1.313,1.494-1.494c0.755,0,1.253,0.498,1.495,1.494C755.492,618.655,754.994,619.153,753.997,619.153z
			 M753.046,641.214v-18.709h1.857v18.709H753.046z"/>
		<path d="M771.483,641.214v-11.189c0-3.955-1.782-5.934-5.345-5.934c-1.752,0-3.081,0.514-3.986,1.541
			c-0.937,1.025-1.404,2.43-1.404,4.213v11.369h-1.857v-18.709h1.857v2.266c0.845-1.66,2.642-2.492,5.391-2.492
			c2.325,0,4.106,0.664,5.345,1.994c1.238,1.328,1.857,3.186,1.857,5.572v11.369H771.483z"/>
		<path d="M788.516,640.036c-1.208,1.027-2.657,1.541-4.349,1.541c-2.899,0-5.073-1.314-6.523-3.941l1.586-0.951
			c0.513,0.936,1.133,1.66,1.857,2.174c0.754,0.574,1.781,0.861,3.08,0.861c2.839,0,4.259-1.207,4.259-3.625
			c0-1.057-0.499-1.977-1.495-2.764c-0.303-0.18-0.732-0.385-1.291-0.611c-0.56-0.227-1.246-0.49-2.062-0.793
			c-1.511-0.543-2.598-1.086-3.262-1.631c-0.967-0.783-1.449-1.916-1.449-3.396c0-1.268,0.482-2.355,1.449-3.262
			c0.936-0.936,2.159-1.404,3.67-1.404c2.083,0,3.851,0.725,5.3,2.174l-1.359,1.178c-1.026-1.025-2.341-1.539-3.94-1.539
			c-2.175,0-3.262,0.951-3.262,2.854c0,0.846,0.332,1.541,0.996,2.084c0.544,0.424,1.404,0.83,2.582,1.223
			c1.026,0.363,1.872,0.703,2.537,1.02c0.664,0.316,1.162,0.596,1.495,0.838c1.298,0.996,1.947,2.342,1.947,4.031
			C790.282,637.726,789.693,639.04,788.516,640.036z"/>
		<path d="M794.541,641.214V608.87h15.538v1.857h-13.682v11.777h13.682v1.994h-13.682v14.857h13.682v1.857H794.541z"/>
		<path d="M813.929,641.214v-33.521h1.812v33.521H813.929z"/>
		<path d="M822.49,631.476c0,2.535,0.68,4.545,2.038,6.023c1.419,1.512,3.367,2.266,5.844,2.266c1.269,0,2.416-0.211,3.443-0.635
			c1.298-0.543,2.461-1.645,3.488-3.307l1.676,0.77c-1.178,2.236-2.99,3.746-5.437,4.531c-0.937,0.301-1.993,0.453-3.171,0.453
			c-2.809,0-5.119-0.922-6.931-2.764c-1.843-1.842-2.764-4.152-2.764-6.932c0-2.809,0.906-5.119,2.718-6.93
			c1.842-1.842,4.168-2.764,6.977-2.764c2.778,0,5.074,0.859,6.886,2.582c1.842,1.721,2.764,3.957,2.764,6.705H822.49z
			 M835.265,625.54c-1.42-1.025-3.051-1.539-4.893-1.539c-3.866,0-6.402,1.902-7.61,5.707h15.176
			C837.636,627.987,836.744,626.599,835.265,625.54z"/>
		<path d="M865.616,641.214v-12.91c0-1.146-0.378-2.145-1.133-2.99s-1.842-1.268-3.262-1.268c-2.93,0-4.394,1.42-4.394,4.258v12.91
			h-1.857v-12.91c0-1.268-0.424-2.279-1.269-3.035c-0.876-0.816-1.918-1.223-3.126-1.223c-1.238,0-2.28,0.393-3.126,1.178
			c-0.846,0.754-1.268,1.781-1.268,3.08v12.91h-1.857v-18.709h1.857v1.857c0.905-1.42,2.37-2.129,4.394-2.129
			c2.416,0,4.197,0.982,5.346,2.945c1.087-1.963,2.854-2.945,5.3-2.945c1.872,0,3.382,0.529,4.53,1.586
			c1.147,1.086,1.722,2.582,1.722,4.484v12.91H865.616z"/>
		<path d="M873.815,631.476c0,2.535,0.68,4.545,2.038,6.023c1.419,1.512,3.367,2.266,5.844,2.266c1.269,0,2.416-0.211,3.443-0.635
			c1.298-0.543,2.461-1.645,3.488-3.307l1.676,0.77c-1.178,2.236-2.99,3.746-5.437,4.531c-0.937,0.301-1.993,0.453-3.171,0.453
			c-2.809,0-5.119-0.922-6.931-2.764c-1.843-1.842-2.764-4.152-2.764-6.932c0-2.809,0.906-5.119,2.718-6.93
			c1.842-1.842,4.168-2.764,6.977-2.764c2.778,0,5.074,0.859,6.886,2.582c1.842,1.721,2.764,3.957,2.764,6.705H873.815z
			 M886.59,625.54c-1.42-1.025-3.051-1.539-4.893-1.539c-3.866,0-6.402,1.902-7.61,5.707h15.176
			C888.961,627.987,888.069,626.599,886.59,625.54z"/>
		<path d="M908.243,641.214v-11.189c0-3.955-1.782-5.934-5.345-5.934c-1.752,0-3.081,0.514-3.986,1.541
			c-0.937,1.025-1.404,2.43-1.404,4.213v11.369h-1.857v-18.709h1.857v2.266c0.845-1.66,2.642-2.492,5.391-2.492
			c2.325,0,4.106,0.664,5.345,1.994c1.238,1.328,1.857,3.186,1.857,5.572v11.369H908.243z"/>
		<path d="M918.889,624.362v16.852h-1.857v-16.852h-2.537v-1.857h2.537v-8.199h1.857v8.199h4.349v1.857H918.889z"/>
	</g>
</g>
<g>
	<g>
		<path d="M1081.424,787.222c-0.483-0.363-0.996-0.648-1.54-0.861c-0.544-0.211-1.117-0.316-1.722-0.316
			c-0.514,0-0.996,0.158-1.449,0.475c-0.453,0.318-0.846,0.711-1.178,1.18c-0.333,0.467-0.597,0.988-0.793,1.563
			s-0.294,1.102-0.294,1.584v12.322h-1.857v-18.709h1.857v2.537c0.392-0.695,0.905-1.328,1.54-1.902
			c0.634-0.574,1.328-0.861,2.084-0.861c0.936,0,1.705,0.107,2.31,0.318s1.283,0.588,2.039,1.131L1081.424,787.222z"/>
		<path d="M1101.582,803.167v-3.352c-1.993,2.445-4.529,3.67-7.61,3.67c-2.718,0-4.998-0.922-6.84-2.764
			c-1.873-1.873-2.809-4.168-2.809-6.887c0-2.717,0.921-4.998,2.763-6.84c1.872-1.873,4.168-2.809,6.886-2.809
			c2.99,0,5.527,1.223,7.61,3.67v-18.211h1.857v33.521H1101.582z M1099.499,788.31c-1.541-1.541-3.383-2.311-5.527-2.311
			c-2.174,0-4.017,0.754-5.526,2.264c-1.54,1.541-2.311,3.398-2.311,5.572c0,2.145,0.771,3.986,2.311,5.527s3.382,2.311,5.526,2.311
			c2.175,0,4.017-0.754,5.527-2.266c1.54-1.539,2.31-3.396,2.31-5.572C1101.809,791.692,1101.039,789.849,1099.499,788.31z"/>
		<path d="M1116.079,771.503l-1.224-0.137c-1.691,0-2.537,0.996-2.537,2.99v10.102h4.439v1.857h-4.439v16.852h-1.857v-16.852h-2.536
			v-1.857h2.536v-10.645c0-2.869,1.45-4.305,4.35-4.305c0.664,0,1.087,0.031,1.269,0.092c0.362,0,0.77,0.105,1.223,0.316v1.857
			L1116.079,771.503z"/>
		<path d="M1122.059,790.075c-0.333,0-0.68-0.135-1.042-0.408c-0.272-0.271-0.424-0.633-0.453-1.086
			c0-0.816,0.498-1.314,1.495-1.496c0.754,0,1.253,0.5,1.494,1.496C1123.553,789.577,1123.055,790.075,1122.059,790.075z
			 M1122.059,803.438c-0.333,0-0.68-0.135-1.042-0.406c-0.272-0.271-0.424-0.635-0.453-1.088c0-0.814,0.498-1.314,1.495-1.494
			c0.754,0,1.253,0.498,1.494,1.494C1123.553,802.94,1123.055,803.438,1122.059,803.438z"/>
		<path d="M1131.436,786.315v16.852h-1.857v-16.852h-2.537v-1.857h2.537v-8.199h1.857v8.199h4.349v1.857H1131.436z"/>
		<path d="M1143.35,811.956h-2.084l4.847-10.51l-7.882-16.988h1.993l6.977,14.768l6.886-14.768h2.038L1143.35,811.956z"/>
		<path d="M1176.464,800.677c-1.873,1.873-4.168,2.809-6.886,2.809c-3.111,0-5.679-1.27-7.701-3.807v12.277h-1.857v-27.498h1.857
			v3.533c1.932-2.537,4.499-3.805,7.701-3.805c2.718,0,4.998,0.922,6.84,2.764c1.872,1.873,2.809,4.168,2.809,6.885
			C1179.227,796.554,1178.306,798.835,1176.464,800.677z M1175.104,788.31c-1.54-1.541-3.383-2.311-5.526-2.311
			c-2.175,0-4.018,0.754-5.527,2.264c-1.54,1.541-2.31,3.398-2.31,5.572c0,2.145,0.77,3.986,2.31,5.527
			c1.541,1.541,3.383,2.311,5.527,2.311c2.174,0,4.016-0.754,5.526-2.266c1.54-1.539,2.311-3.396,2.311-5.572
			C1177.415,791.692,1176.645,789.849,1175.104,788.31z"/>
		<path d="M1183.711,793.429c0,2.535,0.68,4.545,2.038,6.023c1.419,1.512,3.367,2.266,5.844,2.266c1.269,0,2.416-0.211,3.443-0.635
			c1.298-0.543,2.461-1.645,3.488-3.307l1.676,0.77c-1.178,2.236-2.99,3.746-5.437,4.531c-0.937,0.301-1.993,0.453-3.171,0.453
			c-2.809,0-5.119-0.922-6.931-2.764c-1.843-1.842-2.764-4.152-2.764-6.932c0-2.809,0.906-5.119,2.718-6.93
			c1.842-1.842,4.168-2.764,6.977-2.764c2.778,0,5.074,0.859,6.886,2.582c1.842,1.721,2.764,3.957,2.764,6.705H1183.711z
			 M1196.485,787.493c-1.42-1.025-3.051-1.539-4.893-1.539c-3.866,0-6.402,1.902-7.61,5.707h15.176
			C1198.856,789.94,1197.965,788.552,1196.485,787.493z"/>
	</g>
</g>
<g>
	<g>
		<path d="M486.821,622.134l-3.715-9.693h-14.723l-3.76,9.693h-1.813l12.911-33.387l12.956,33.387H486.821z M475.723,593.458
			l-6.614,17.125h13.228L475.723,593.458z"/>
		<path d="M508.747,619.507c-1.964,1.752-4.365,2.627-7.203,2.627h-10.103V589.79h7.883c2.507,0,4.5,0.648,5.979,1.947
			c1.57,1.389,2.355,3.322,2.355,5.799c0,2.84-1.162,4.922-3.487,6.252c2.265,0.453,4.092,1.479,5.48,3.08
			c1.359,1.602,2.039,3.564,2.039,5.889C511.691,615.536,510.71,617.786,508.747,619.507z M503.99,593.278
			c-1.238-1.088-2.748-1.631-4.53-1.631h-6.206v11.777h6.478c1.752,0,3.201-0.543,4.35-1.631c1.147-1.088,1.721-2.506,1.721-4.258
			C505.802,595.724,505.197,594.306,503.99,593.278z M507.388,607.276c-1.54-1.33-3.474-1.994-5.799-1.994h-8.335v14.994h8.335
			c2.295,0,4.243-0.693,5.844-2.084c1.631-1.389,2.446-3.199,2.446-5.436C509.879,610.491,509.048,608.665,507.388,607.276z"/>
		<path d="M531.441,619.644c-1.873,1.873-4.168,2.809-6.886,2.809s-4.998-0.922-6.84-2.764c-1.873-1.873-2.809-4.168-2.809-6.887
			c0-2.688,0.936-4.967,2.809-6.84c1.842-1.902,4.122-2.854,6.84-2.854c2.688,0,4.968,0.936,6.841,2.809
			c1.872,1.873,2.809,4.168,2.809,6.885C534.205,615.521,533.283,617.802,531.441,619.644z M530.128,607.229
			c-1.511-1.539-3.368-2.309-5.572-2.309c-2.114,0-3.941,0.785-5.481,2.355c-1.57,1.57-2.355,3.412-2.355,5.525
			c0,2.145,0.771,3.986,2.311,5.527s3.382,2.311,5.526,2.311c2.175,0,4.017-0.754,5.527-2.266c1.54-1.539,2.31-3.396,2.31-5.572
			C532.393,610.599,531.638,608.741,530.128,607.229z"/>
		<path d="M547.07,622.134l-5.3-7.836l-5.301,7.836h-2.22l6.388-9.422l-6.252-9.287h2.175l5.21,7.746l5.164-7.746h2.174
			l-6.206,9.242l6.343,9.467H547.07z"/>
	</g>
</g>
<g>
	<g>
		<path d="M472.461,529.212v30.486h-1.857v-30.486h-7.158v-1.857h16.173v1.857H472.461z"/>
		<path d="M499.596,557.071c-1.964,1.752-4.365,2.627-7.203,2.627H482.29v-32.344h7.883c2.507,0,4.5,0.648,5.979,1.947
			c1.57,1.389,2.355,3.322,2.355,5.799c0,2.84-1.162,4.922-3.487,6.252c2.265,0.453,4.092,1.479,5.48,3.08
			c1.359,1.602,2.039,3.564,2.039,5.889C502.54,553.101,501.559,555.351,499.596,557.071z M494.839,530.843
			c-1.238-1.088-2.748-1.631-4.53-1.631h-6.206v11.777h6.478c1.752,0,3.201-0.543,4.35-1.631c1.147-1.088,1.721-2.506,1.721-4.258
			C496.65,533.288,496.046,531.87,494.839,530.843z M498.236,544.841c-1.54-1.33-3.474-1.994-5.799-1.994h-8.335v14.994h8.335
			c2.295,0,4.243-0.693,5.844-2.084c1.631-1.389,2.446-3.199,2.446-5.436C500.728,548.056,499.896,546.229,498.236,544.841z"/>
		<path d="M522.29,557.208c-1.873,1.873-4.168,2.809-6.886,2.809s-4.998-0.922-6.84-2.764c-1.873-1.873-2.809-4.168-2.809-6.887
			c0-2.688,0.936-4.967,2.809-6.84c1.842-1.902,4.122-2.854,6.84-2.854c2.688,0,4.968,0.936,6.841,2.809
			c1.872,1.873,2.809,4.168,2.809,6.885C525.054,553.085,524.132,555.366,522.29,557.208z M520.977,544.794
			c-1.511-1.539-3.368-2.309-5.572-2.309c-2.114,0-3.941,0.785-5.481,2.355c-1.57,1.57-2.355,3.412-2.355,5.525
			c0,2.145,0.771,3.986,2.311,5.527s3.382,2.311,5.526,2.311c2.175,0,4.017-0.754,5.527-2.266c1.54-1.539,2.31-3.396,2.31-5.572
			C523.241,548.163,522.486,546.306,520.977,544.794z"/>
		<path d="M537.92,559.698l-5.3-7.836l-5.301,7.836h-2.22l6.388-9.422l-6.252-9.287h2.175l5.21,7.746l5.164-7.746h2.174
			l-6.206,9.242l6.343,9.467H537.92z"/>
	</g>
</g>
<g>
	<g>
		<path fill="none" stroke="#000000" stroke-width="1.51" stroke-miterlimit="10" d="M1253.727,838.714
			c0-163.289-119.526-137.27-125.784-299.754"/>
		<g>
			<polygon points="1136.522,545.13 1128.057,541.757 1119.75,545.507 1127.688,525.44 			"/>
		</g>
	</g>
</g>
<g>
	<g>
		<path fill="none" stroke="#000000" stroke-width="1.51" stroke-miterlimit="10" d="M1226.215,838.714
			c0-1.254-0.023-2.504-0.069-3.746"/>
		<path fill="none" stroke="#000000" stroke-width="1.51" stroke-miterlimit="10" stroke-dasharray="7.5051,7.5051" d="
			M1225.575,827.485c-26.013-226.791-833.039-267.855-248.913-541.947"/>
		<path fill="none" stroke="#000000" stroke-width="1.51" stroke-miterlimit="10" d="M980.063,283.946
			c1.128-0.525,2.261-1.053,3.4-1.58"/>
		<g>
			<polygon points="981.268,292.718 980.96,283.61 974.189,277.509 995.754,276.722 			"/>
		</g>
	</g>
</g>
<g>
	<g>
		<line fill="none" stroke="#000000" stroke-miterlimit="10" x1="451.414" y1="576.722" x2="458.916" y2="576.722"/>
		
			<line fill="none" stroke="#000000" stroke-miterlimit="10" stroke-dasharray="15.0327,15.0327" x1="473.948" y1="576.722" x2="1428.523" y2="576.722"/>
		<line fill="none" stroke="#000000" stroke-miterlimit="10" x1="1436.04" y1="576.722" x2="1443.54" y2="576.722"/>
	</g>
</g>
<line fill="none" stroke="#000000" stroke-width="0.5" stroke-miterlimit="10" x1="451.414" y1="957.972" x2="1443.54" y2="957.972"/>
<g>
	
		<rect x="709.661" y="973.69" fill="#EDEDED" stroke="#000000" stroke-width="0.453" stroke-miterlimit="10" width="129.284" height="45.531"/>
	<g>
		<path d="M723.084,991.042c-0.272,0-0.557-0.111-0.853-0.334c-0.223-0.221-0.347-0.518-0.371-0.889
			c0-0.668,0.408-1.076,1.224-1.225c0.617,0,1.025,0.408,1.224,1.225C724.308,990.634,723.899,991.042,723.084,991.042z
			 M722.306,1009.099v-15.313h1.52v15.313H722.306z"/>
		<path d="M737.396,1009.099v-9.158c0-3.236-1.459-4.857-4.375-4.857c-1.435,0-2.521,0.422-3.264,1.262
			c-0.766,0.84-1.149,1.99-1.149,3.447v9.307h-1.52v-15.313h1.52v1.854c0.692-1.359,2.163-2.039,4.413-2.039
			c1.902,0,3.361,0.545,4.375,1.631c1.013,1.088,1.52,2.609,1.52,4.561v9.307H737.396z"/>
		<path d="M751.337,1008.136c-0.989,0.84-2.175,1.26-3.56,1.26c-2.373,0-4.152-1.074-5.339-3.225l1.298-0.779
			c0.42,0.766,0.927,1.359,1.521,1.779c0.617,0.471,1.458,0.705,2.521,0.705c2.323,0,3.485-0.988,3.485-2.967
			c0-0.865-0.407-1.619-1.224-2.262c-0.247-0.148-0.6-0.314-1.057-0.5s-1.02-0.402-1.687-0.648c-1.236-0.445-2.126-0.891-2.67-1.336
			c-0.791-0.643-1.187-1.568-1.187-2.781c0-1.037,0.396-1.928,1.187-2.668c0.766-0.766,1.767-1.15,3.003-1.15
			c1.706,0,3.152,0.594,4.339,1.779l-1.112,0.965c-0.841-0.84-1.916-1.262-3.227-1.262c-1.779,0-2.669,0.779-2.669,2.336
			c0,0.693,0.271,1.262,0.815,1.707c0.445,0.346,1.149,0.68,2.113,1c0.84,0.297,1.532,0.574,2.076,0.834s0.951,0.488,1.224,0.688
			c1.063,0.814,1.595,1.914,1.595,3.299C752.783,1006.245,752.301,1007.319,751.337,1008.136z"/>
		<path d="M758.382,995.306v13.793h-1.521v-13.793h-2.076v-1.52h2.076v-6.711h1.521v6.711h3.56v1.52H758.382z"/>
		<path d="M776.476,1009.099v-2.633c-1.606,1.93-3.646,2.893-6.117,2.893c-2.225,0-4.092-0.754-5.599-2.262
			c-1.533-1.531-2.299-3.41-2.299-5.635s0.754-4.092,2.262-5.6c1.532-1.531,3.411-2.299,5.636-2.299
			c2.447,0,4.486,0.965,6.117,2.893v-2.67h1.521v15.313H776.476z M774.882,996.938c-1.261-1.262-2.769-1.893-4.523-1.893
			c-1.78,0-3.288,0.619-4.523,1.855c-1.261,1.26-1.891,2.779-1.891,4.561c0,1.754,0.63,3.262,1.891,4.523
			c1.261,1.26,2.768,1.891,4.523,1.891c1.779,0,3.287-0.617,4.523-1.854c1.261-1.262,1.891-2.781,1.891-4.561
			C776.772,999.706,776.143,998.198,774.882,996.938z"/>
		<path d="M792.827,1009.099v-9.158c0-3.236-1.459-4.857-4.375-4.857c-1.435,0-2.521,0.422-3.264,1.262
			c-0.766,0.84-1.149,1.99-1.149,3.447v9.307h-1.52v-15.313h1.52v1.854c0.692-1.359,2.163-2.039,4.413-2.039
			c1.902,0,3.361,0.545,4.375,1.631c1.013,1.088,1.52,2.609,1.52,4.561v9.307H792.827z"/>
		<path d="M806.471,1009.396c-2.274,0-4.165-0.754-5.673-2.262s-2.262-3.398-2.262-5.672c0-2.275,0.754-4.166,2.262-5.674
			s3.398-2.262,5.673-2.262c1.953,0,3.51,0.445,4.672,1.336v1.816l-0.964-0.631l-1.038-0.557c-0.939-0.32-1.829-0.48-2.67-0.48
			c-1.903,0-3.448,0.592-4.634,1.779c-1.212,1.211-1.817,2.768-1.817,4.672c0,1.879,0.605,3.424,1.817,4.635
			c1.21,1.211,2.756,1.816,4.634,1.816c1.78,0,3.337-0.594,4.672-1.779v1.891C809.758,1008.938,808.201,1009.396,806.471,1009.396z"
			/>
		<path d="M813.59,1001.128c0,2.076,0.556,3.721,1.668,4.932c1.162,1.236,2.756,1.854,4.783,1.854c1.038,0,1.978-0.174,2.817-0.52
			c1.063-0.445,2.015-1.348,2.855-2.707l1.372,0.631c-0.965,1.83-2.447,3.064-4.449,3.707c-0.767,0.248-1.632,0.371-2.596,0.371
			c-2.299,0-4.189-0.754-5.673-2.262c-1.508-1.508-2.262-3.398-2.262-5.672c0-2.299,0.741-4.189,2.225-5.674
			c1.508-1.508,3.411-2.262,5.71-2.262c2.273,0,4.152,0.705,5.636,2.113c1.507,1.41,2.262,3.238,2.262,5.488H813.59z
			 M824.045,996.271c-1.162-0.84-2.497-1.26-4.004-1.26c-3.164,0-5.241,1.557-6.229,4.67h12.421
			C825.985,998.272,825.256,997.136,824.045,996.271z"/>
	</g>
</g>
<g>
	<g>
		<path d="M962.82,1007.11c0,1.818,0.487,3.26,1.462,4.322c1.019,1.084,2.416,1.625,4.192,1.625c0.91,0,1.733-0.152,2.471-0.455
			c0.931-0.391,1.766-1.182,2.502-2.373l1.203,0.553c-0.846,1.604-2.146,2.688-3.9,3.25c-0.672,0.217-1.43,0.324-2.275,0.324
			c-2.015,0-3.672-0.66-4.972-1.982c-1.322-1.32-1.982-2.979-1.982-4.973c0-2.014,0.649-3.672,1.949-4.973
			c1.321-1.32,2.99-1.982,5.005-1.982c1.993,0,3.641,0.619,4.94,1.854c1.321,1.234,1.982,2.838,1.982,4.811H962.82z
			 M971.985,1002.853c-1.019-0.736-2.189-1.105-3.511-1.105c-2.773,0-4.593,1.365-5.46,4.096h10.888
			C973.686,1004.606,973.046,1003.61,971.985,1002.853z"/>
		<path d="M984.303,1014.097l-3.803-5.621l-3.803,5.621h-1.593l4.583-6.76l-4.485-6.662h1.561l3.737,5.557l3.705-5.557h1.56
			l-4.452,6.629l4.55,6.793H984.303z"/>
		<path d="M1000.195,1012.31c-1.344,1.344-2.99,2.016-4.94,2.016c-2.231,0-4.073-0.91-5.525-2.73v8.807h-1.332v-19.727h1.332v2.535
			c1.387-1.82,3.229-2.73,5.525-2.73c1.95,0,3.586,0.662,4.907,1.982c1.344,1.344,2.016,2.99,2.016,4.939
			C1002.178,1009.353,1001.517,1010.989,1000.195,1012.31z M999.22,1003.437c-1.104-1.104-2.427-1.656-3.965-1.656
			c-1.56,0-2.882,0.541-3.965,1.625c-1.105,1.104-1.657,2.438-1.657,3.996c0,1.539,0.552,2.861,1.657,3.965
			c1.104,1.105,2.426,1.658,3.965,1.658c1.56,0,2.881-0.541,3.965-1.625c1.105-1.105,1.657-2.438,1.657-3.998
			C1000.877,1005.864,1000.325,1004.542,999.22,1003.437z"/>
		<path d="M1005.492,1014.097v-24.049h1.3v24.049H1005.492z"/>
		<path d="M1010.626,998.271c-0.238,0-0.487-0.098-0.747-0.293c-0.195-0.195-0.304-0.455-0.325-0.781
			c0-0.584,0.357-0.941,1.072-1.072c0.542,0,0.899,0.357,1.073,1.072C1011.699,997.913,1011.341,998.271,1010.626,998.271z
			 M1009.943,1014.097v-13.422h1.333v13.422H1009.943z"/>
		<path d="M1022.033,1014.356c-1.993,0-3.651-0.66-4.973-1.982c-1.321-1.32-1.982-2.979-1.982-4.973c0-1.992,0.661-3.65,1.982-4.973
			c1.321-1.32,2.979-1.982,4.973-1.982c1.711,0,3.076,0.391,4.095,1.17v1.594l-0.845-0.553l-0.91-0.488
			c-0.823-0.281-1.604-0.422-2.34-0.422c-1.669,0-3.022,0.52-4.063,1.561c-1.062,1.061-1.593,2.426-1.593,4.094
			c0,1.648,0.531,3.002,1.593,4.063c1.062,1.063,2.416,1.594,4.063,1.594c1.561,0,2.925-0.52,4.095-1.561v1.658
			C1024.915,1013.956,1023.55,1014.356,1022.033,1014.356z"/>
		<path d="M1030.061,998.271c-0.238,0-0.487-0.098-0.747-0.293c-0.195-0.195-0.304-0.455-0.325-0.781
			c0-0.584,0.357-0.941,1.072-1.072c0.542,0,0.899,0.357,1.073,1.072C1031.134,997.913,1030.775,998.271,1030.061,998.271z
			 M1029.378,1014.097v-13.422h1.333v13.422H1029.378z"/>
		<path d="M1037.146,1002.007v12.09h-1.333v-12.09h-1.819v-1.332h1.819v-5.883h1.333v5.883h3.12v1.332H1037.146z"/>
		<path d="M1043.613,1014.097v-24.049h1.3v24.049H1043.613z"/>
		<path d="M1051.932,1020.401h-1.494l3.478-7.539l-5.655-12.188h1.43l5.005,10.596l4.94-10.596h1.462L1051.932,1020.401z"/>
		<path d="M1078.841,1013.253c-0.866,0.736-1.906,1.104-3.12,1.104c-2.079,0-3.64-0.941-4.68-2.826l1.138-0.684
			c0.368,0.672,0.813,1.191,1.332,1.561c0.542,0.412,1.278,0.617,2.21,0.617c2.037,0,3.056-0.865,3.056-2.6
			c0-0.758-0.357-1.42-1.072-1.982c-0.218-0.131-0.526-0.277-0.927-0.439c-0.401-0.162-0.894-0.352-1.479-0.568
			c-1.084-0.391-1.864-0.779-2.34-1.17c-0.694-0.563-1.04-1.375-1.04-2.438c0-0.91,0.346-1.689,1.04-2.34
			c0.671-0.672,1.549-1.008,2.632-1.008c1.495,0,2.763,0.52,3.803,1.561l-0.975,0.844c-0.737-0.736-1.68-1.104-2.828-1.104
			c-1.56,0-2.34,0.682-2.34,2.047c0,0.607,0.238,1.105,0.715,1.494c0.391,0.305,1.008,0.598,1.853,0.879
			c0.736,0.26,1.344,0.504,1.82,0.73c0.477,0.229,0.834,0.428,1.072,0.602c0.932,0.715,1.397,1.68,1.397,2.893
			C1080.108,1011.595,1079.687,1012.538,1078.841,1013.253z"/>
		<path d="M1085.016,1002.007v12.09h-1.333v-12.09h-1.819v-1.332h1.819v-5.883h1.333v5.883h3.12v1.332H1085.016z"/>
		<path d="M1100.876,1014.097v-2.307c-1.409,1.689-3.196,2.535-5.363,2.535c-1.949,0-3.586-0.662-4.907-1.982
			c-1.344-1.344-2.015-2.99-2.015-4.941c0-1.949,0.66-3.584,1.982-4.906c1.343-1.344,2.99-2.016,4.939-2.016
			c2.146,0,3.933,0.846,5.363,2.535v-2.34h1.332v13.422H1100.876z M1099.479,1003.437c-1.105-1.104-2.427-1.656-3.966-1.656
			c-1.56,0-2.882,0.541-3.965,1.625c-1.104,1.104-1.657,2.438-1.657,3.996c0,1.539,0.553,2.861,1.657,3.965
			c1.105,1.105,2.427,1.658,3.965,1.658c1.561,0,2.882-0.541,3.966-1.625c1.104-1.105,1.657-2.438,1.657-3.998
			C1101.136,1005.864,1100.583,1004.542,1099.479,1003.437z"/>
		<path d="M1108.188,1002.007v12.09h-1.333v-12.09h-1.819v-1.332h1.819v-5.883h1.333v5.883h3.12v1.332H1108.188z"/>
		<path d="M1114.559,1007.11c0,1.818,0.487,3.26,1.462,4.322c1.019,1.084,2.416,1.625,4.192,1.625c0.91,0,1.733-0.152,2.471-0.455
			c0.931-0.391,1.766-1.182,2.502-2.373l1.203,0.553c-0.846,1.604-2.146,2.688-3.9,3.25c-0.672,0.217-1.43,0.324-2.275,0.324
			c-2.015,0-3.672-0.66-4.972-1.982c-1.322-1.32-1.982-2.979-1.982-4.973c0-2.014,0.649-3.672,1.949-4.973
			c1.321-1.32,2.99-1.982,5.005-1.982c1.993,0,3.641,0.619,4.94,1.854c1.321,1.234,1.982,2.838,1.982,4.811H1114.559z
			 M1123.724,1002.853c-1.019-0.736-2.189-1.105-3.511-1.105c-2.773,0-4.593,1.365-5.46,4.096h10.888
			C1125.424,1004.606,1124.784,1003.61,1123.724,1002.853z"/>
		<path d="M1141.858,1014.097v-2.404c-1.431,1.754-3.25,2.633-5.46,2.633c-1.95,0-3.587-0.662-4.908-1.982
			c-1.344-1.344-2.015-2.99-2.015-4.941c0-1.949,0.661-3.584,1.982-4.906c1.344-1.344,2.99-2.016,4.94-2.016
			c2.145,0,3.965,0.877,5.46,2.633v-13.064h1.332v24.049H1141.858z M1140.363,1003.437c-1.105-1.104-2.427-1.656-3.965-1.656
			c-1.561,0-2.882,0.541-3.965,1.625c-1.105,1.104-1.658,2.438-1.658,3.996c0,1.539,0.553,2.861,1.658,3.965
			c1.104,1.105,2.426,1.658,3.965,1.658c1.56,0,2.881-0.541,3.965-1.625c1.104-1.105,1.657-2.438,1.657-3.998
			C1142.021,1005.864,1141.468,1004.542,1140.363,1003.437z"/>
	</g>
</g>
<g>
	<g>
		<path fill="none" stroke="#000000" stroke-width="1.1123" stroke-miterlimit="10" d="M925.547,1019.21
			c0,0,16.729-43.834,188.165-45.473"/>
		<g>
			<polygon points="1109.131,980.103 1111.656,973.882 1108.934,967.747 1123.677,973.69 			"/>
		</g>
	</g>
</g>
<g>
	<g>
		<path d="M1276.733,998.271c-0.238,0-0.487-0.098-0.747-0.293c-0.195-0.195-0.304-0.455-0.325-0.781
			c0-0.584,0.357-0.941,1.072-1.072c0.542,0,0.899,0.357,1.073,1.072C1277.807,997.913,1277.448,998.271,1276.733,998.271z
			 M1276.051,1014.097v-13.422h1.333v13.422H1276.051z"/>
		<path d="M1289.278,1014.097v-8.027c0-2.838-1.278-4.258-3.835-4.258c-1.257,0-2.21,0.369-2.859,1.105
			c-0.672,0.736-1.008,1.744-1.008,3.023v8.156h-1.333v-13.422h1.333v1.625c0.606-1.191,1.896-1.787,3.867-1.787
			c1.668,0,2.946,0.477,3.835,1.43s1.333,2.285,1.333,3.998v8.156H1289.278z"/>
		<path d="M1298.216,991.38l-0.877-0.098c-1.214,0-1.82,0.715-1.82,2.145v7.248h3.186v1.332h-3.186v12.09h-1.332v-12.09h-1.82
			v-1.332h1.82v-7.637c0-2.059,1.04-3.088,3.12-3.088c0.476,0,0.779,0.021,0.909,0.064c0.261,0,0.553,0.076,0.878,0.227v1.334
			L1298.216,991.38z"/>
		<path d="M1300.524,1007.11c0,1.818,0.487,3.26,1.462,4.322c1.019,1.084,2.416,1.625,4.192,1.625c0.91,0,1.733-0.152,2.471-0.455
			c0.931-0.391,1.766-1.182,2.502-2.373l1.203,0.553c-0.846,1.604-2.146,2.688-3.9,3.25c-0.672,0.217-1.43,0.324-2.275,0.324
			c-2.015,0-3.672-0.66-4.972-1.982c-1.322-1.32-1.982-2.979-1.982-4.973c0-2.014,0.649-3.672,1.949-4.973
			c1.321-1.32,2.99-1.982,5.005-1.982c1.993,0,3.641,0.619,4.94,1.854c1.321,1.234,1.982,2.838,1.982,4.811H1300.524z
			 M1309.689,1002.853c-1.019-0.736-2.189-1.105-3.511-1.105c-2.773,0-4.593,1.365-5.46,4.096h10.888
			C1311.39,1004.606,1310.75,1003.61,1309.689,1002.853z"/>
		<path d="M1322.526,1002.657c-0.347-0.26-0.715-0.465-1.104-0.617c-0.391-0.152-0.803-0.229-1.235-0.229
			c-0.369,0-0.715,0.115-1.04,0.342c-0.325,0.229-0.606,0.51-0.845,0.846c-0.239,0.336-0.429,0.709-0.569,1.121
			s-0.211,0.791-0.211,1.137v8.84h-1.333v-13.422h1.333v1.82c0.281-0.498,0.65-0.953,1.104-1.365
			c0.455-0.412,0.954-0.617,1.495-0.617c0.672,0,1.225,0.076,1.658,0.227c0.433,0.152,0.92,0.424,1.462,0.813L1322.526,1002.657z"/>
		<path d="M1332.602,1002.657c-0.347-0.26-0.715-0.465-1.104-0.617c-0.391-0.152-0.803-0.229-1.235-0.229
			c-0.369,0-0.715,0.115-1.04,0.342c-0.325,0.229-0.606,0.51-0.845,0.846c-0.239,0.336-0.429,0.709-0.569,1.121
			s-0.211,0.791-0.211,1.137v8.84h-1.333v-13.422h1.333v1.82c0.281-0.498,0.65-0.953,1.104-1.365
			c0.455-0.412,0.954-0.617,1.495-0.617c0.672,0,1.225,0.076,1.658,0.227c0.433,0.152,0.92,0.424,1.462,0.813L1332.602,1002.657z"/>
		<path d="M1334.682,1007.11c0,1.818,0.487,3.26,1.462,4.322c1.019,1.084,2.416,1.625,4.192,1.625c0.91,0,1.733-0.152,2.471-0.455
			c0.931-0.391,1.766-1.182,2.502-2.373l1.203,0.553c-0.846,1.604-2.146,2.688-3.9,3.25c-0.672,0.217-1.43,0.324-2.275,0.324
			c-2.015,0-3.672-0.66-4.972-1.982c-1.322-1.32-1.982-2.979-1.982-4.973c0-2.014,0.649-3.672,1.949-4.973
			c1.321-1.32,2.99-1.982,5.005-1.982c1.993,0,3.641,0.619,4.94,1.854c1.321,1.234,1.982,2.838,1.982,4.811H1334.682z
			 M1343.847,1002.853c-1.019-0.736-2.189-1.105-3.511-1.105c-2.773,0-4.593,1.365-5.46,4.096h10.888
			C1345.547,1004.606,1344.907,1003.61,1343.847,1002.853z"/>
		<path d="M1361.981,1014.097v-2.404c-1.431,1.754-3.25,2.633-5.46,2.633c-1.95,0-3.587-0.662-4.908-1.982
			c-1.344-1.344-2.015-2.99-2.015-4.941c0-1.949,0.661-3.584,1.982-4.906c1.344-1.344,2.99-2.016,4.94-2.016
			c2.145,0,3.965,0.877,5.46,2.633v-13.064h1.332v24.049H1361.981z M1360.486,1003.437c-1.105-1.104-2.427-1.656-3.965-1.656
			c-1.561,0-2.882,0.541-3.965,1.625c-1.105,1.104-1.658,2.438-1.658,3.996c0,1.539,0.553,2.861,1.658,3.965
			c1.104,1.105,2.426,1.658,3.965,1.658c1.56,0,2.881-0.541,3.965-1.625c1.104-1.105,1.657-2.438,1.657-3.998
			C1362.144,1005.864,1361.591,1004.542,1360.486,1003.437z"/>
	</g>
</g>
<g>
	<g>
		<path fill="none" stroke="#000000" stroke-width="1.51" stroke-miterlimit="10" stroke-dasharray="7.5,7.5" d="M1229.966,1019.21
			c0,0,16.496-43.225,184.603-45.432"/>
		<g>
			<polygon points="1408.345,982.396 1411.773,973.952 1408.076,965.622 1428.09,973.69 			"/>
		</g>
	</g>
</g>
<path fill="#EDEDED" stroke="#000000" stroke-width="0.2009" stroke-miterlimit="10" d="M623.057,1008.37
	c0,7.07-5.75,12.82-12.834,12.82H479.704c-7.087,0-12.836-5.75-12.836-12.82v-21.855c0-7.09,5.749-12.824,12.836-12.824h130.519
	c7.084,0,12.834,5.734,12.834,12.824V1008.37z"/>
<g>
	<path d="M495.219,1007.06c-1.533,1.533-3.411,2.299-5.636,2.299s-4.092-0.754-5.599-2.262c-1.533-1.531-2.299-3.41-2.299-5.635
		c0-2.201,0.766-4.066,2.299-5.6c1.507-1.557,3.374-2.336,5.599-2.336c2.199,0,4.065,0.768,5.599,2.299
		c1.532,1.533,2.299,3.412,2.299,5.637S496.726,1005.552,495.219,1007.06z M494.144,996.901c-1.236-1.262-2.757-1.891-4.561-1.891
		c-1.73,0-3.226,0.643-4.486,1.928c-1.286,1.285-1.928,2.793-1.928,4.523c0,1.754,0.63,3.262,1.891,4.523
		c1.261,1.26,2.768,1.891,4.523,1.891c1.779,0,3.287-0.617,4.523-1.854c1.261-1.262,1.891-2.781,1.891-4.561
		C495.997,999.657,495.379,998.138,494.144,996.901z"/>
	<path d="M514.461,1009.767l-4.782-12.236l-4.857,12.236l-6.859-15.98h1.632l5.153,11.865l4.932-12.348l4.894,12.311l5.117-11.828
		h1.705L514.461,1009.767z"/>
	<path d="M525.102,1009.099v-27.438h1.483v27.438H525.102z"/>
	<path d="M532.479,998.384c-0.272,0-0.556-0.111-0.853-0.334c-0.223-0.223-0.347-0.52-0.371-0.889c0-0.668,0.408-1.076,1.224-1.225
		c0.618,0,1.025,0.408,1.224,1.225C533.703,997.976,533.296,998.384,532.479,998.384z M532.479,1009.321
		c-0.272,0-0.556-0.111-0.853-0.334c-0.223-0.223-0.347-0.518-0.371-0.889c0-0.668,0.408-1.076,1.224-1.225
		c0.618,0,1.025,0.408,1.224,1.225C533.703,1008.913,533.296,1009.321,532.479,1009.321z"/>
	<path d="M558.396,1007.542c-1.385,1.014-3.264,1.631-5.636,1.854c-0.272,0.025-0.569,0.043-0.891,0.057
		c-0.321,0.012-0.655,0.018-1.001,0.018c-4.004,0-7.267-1.26-9.788-3.781c-2.546-2.547-3.819-5.822-3.819-9.826
		s1.261-7.268,3.782-9.789c2.546-2.545,5.821-3.818,9.825-3.818c2.274,0,4.325,0.334,6.155,1.002
		c1.087,0.42,2.138,1.025,3.151,1.816v1.891c-1.038-0.865-2.176-1.557-3.411-2.076c-1.879-0.766-3.844-1.148-5.896-1.148
		c-3.51,0-6.402,1.137-8.676,3.41c-2.274,2.275-3.411,5.178-3.411,8.713s1.124,6.428,3.374,8.676
		c2.273,2.275,5.178,3.412,8.713,3.412c2.2,0,4.116-0.396,5.747-1.188c0.939-0.469,2.126-1.223,3.56-2.262v1.744L558.396,1007.542z"
		/>
	<path d="M562.4,1009.099v-27.438h1.483v27.438H562.4z"/>
	<path d="M581.977,1009.099v-2.633c-1.606,1.93-3.646,2.893-6.117,2.893c-2.225,0-4.092-0.754-5.599-2.262
		c-1.533-1.531-2.299-3.41-2.299-5.635s0.754-4.092,2.262-5.6c1.532-1.531,3.411-2.299,5.636-2.299c2.447,0,4.486,0.965,6.117,2.893
		v-2.67h1.521v15.313H581.977z M580.383,996.938c-1.261-1.262-2.769-1.893-4.523-1.893c-1.78,0-3.288,0.619-4.523,1.855
		c-1.261,1.26-1.891,2.779-1.891,4.561c0,1.754,0.63,3.262,1.891,4.523c1.261,1.26,2.768,1.891,4.523,1.891
		c1.779,0,3.287-0.617,4.523-1.854c1.261-1.262,1.891-2.781,1.891-4.561C582.273,999.706,581.644,998.198,580.383,996.938z"/>
	<path d="M595.547,1008.136c-0.989,0.84-2.175,1.26-3.56,1.26c-2.373,0-4.152-1.074-5.339-3.225l1.298-0.779
		c0.42,0.766,0.927,1.359,1.521,1.779c0.617,0.471,1.458,0.705,2.521,0.705c2.323,0,3.485-0.988,3.485-2.967
		c0-0.865-0.407-1.619-1.224-2.262c-0.247-0.148-0.6-0.314-1.057-0.5s-1.02-0.402-1.687-0.648c-1.236-0.445-2.126-0.891-2.67-1.336
		c-0.791-0.643-1.187-1.568-1.187-2.781c0-1.037,0.396-1.928,1.187-2.668c0.766-0.766,1.767-1.15,3.003-1.15
		c1.706,0,3.152,0.594,4.339,1.779l-1.112,0.965c-0.841-0.84-1.916-1.262-3.227-1.262c-1.779,0-2.669,0.779-2.669,2.336
		c0,0.693,0.271,1.262,0.815,1.707c0.445,0.346,1.149,0.68,2.113,1c0.84,0.297,1.532,0.574,2.076,0.834s0.951,0.488,1.224,0.688
		c1.063,0.814,1.595,1.914,1.595,3.299C596.993,1006.245,596.511,1007.319,595.547,1008.136z"/>
	<path d="M607.819,1008.136c-0.989,0.84-2.175,1.26-3.56,1.26c-2.373,0-4.152-1.074-5.339-3.225l1.298-0.779
		c0.42,0.766,0.927,1.359,1.521,1.779c0.617,0.471,1.458,0.705,2.521,0.705c2.323,0,3.485-0.988,3.485-2.967
		c0-0.865-0.407-1.619-1.224-2.262c-0.247-0.148-0.6-0.314-1.057-0.5s-1.02-0.402-1.687-0.648c-1.236-0.445-2.126-0.891-2.67-1.336
		c-0.791-0.643-1.187-1.568-1.187-2.781c0-1.037,0.396-1.928,1.187-2.668c0.766-0.766,1.767-1.15,3.003-1.15
		c1.706,0,3.152,0.594,4.339,1.779l-1.112,0.965c-0.841-0.84-1.916-1.262-3.227-1.262c-1.779,0-2.669,0.779-2.669,2.336
		c0,0.693,0.271,1.262,0.815,1.707c0.445,0.346,1.149,0.68,2.113,1c0.84,0.297,1.532,0.574,2.076,0.834s0.951,0.488,1.224,0.688
		c1.063,0.814,1.595,1.914,1.595,3.299C609.266,1006.245,608.783,1007.319,607.819,1008.136z"/>
</g>
<g>
	<g>
		<path fill="none" stroke="#000000" stroke-width="1.51" stroke-miterlimit="10" d="M669.001,707.284
			c0-74.324,212.105-85.145,261.168,34.086c21.049,51.156,7.288,80.809,56.729,113.201"/>
		<g>
			<polygon points="977.143,858.308 984.566,853.021 985.916,844.009 998.478,861.554 			"/>
		</g>
	</g>
</g>
<path fill="#EDEDED" stroke="#000000" stroke-width="0.453" stroke-miterlimit="10" d="M803.244,239.831
	c0,15.945-12.969,28.906-28.934,28.906H476.355c-15.977,0-28.93-12.961-28.93-28.906v-49.277c0-15.973,12.953-28.902,28.93-28.902
	h297.955c15.965,0,28.934,12.93,28.934,28.902V239.831z"/>
<g>
	<g>
		<path d="M512.69,235.253c-3.121,3.121-6.945,4.682-11.476,4.682c-5.185,0-9.438-2.088-12.76-6.268v5.738h-3.096v-55.869h3.096
			v30.502c3.271-4.178,7.524-6.268,12.76-6.268c4.53,0,8.33,1.537,11.4,4.605c3.12,3.123,4.681,6.947,4.681,11.477
			S515.76,232.185,512.69,235.253z M510.426,214.642c-2.567-2.566-5.638-3.85-9.211-3.85c-3.624,0-6.695,1.258-9.211,3.773
			c-2.567,2.568-3.851,5.664-3.851,9.287c0,3.574,1.283,6.645,3.851,9.211c2.566,2.566,5.637,3.852,9.211,3.852
			c3.624,0,6.693-1.258,9.211-3.775c2.567-2.568,3.851-5.662,3.851-9.287C514.276,220.28,512.993,217.208,510.426,214.642z"/>
		<path d="M550.44,235.253c-3.121,3.121-6.946,4.682-11.477,4.682c-4.529,0-8.33-1.535-11.4-4.605
			c-3.121-3.121-4.681-6.947-4.681-11.477c0-4.479,1.56-8.279,4.681-11.4c3.07-3.172,6.871-4.756,11.4-4.756
			c4.479,0,8.279,1.561,11.401,4.68c3.12,3.123,4.681,6.947,4.681,11.477S553.51,232.185,550.44,235.253z M548.251,214.565
			c-2.518-2.566-5.613-3.85-9.287-3.85c-3.523,0-6.568,1.309-9.135,3.926c-2.618,2.617-3.927,5.689-3.927,9.211
			c0,3.574,1.284,6.645,3.851,9.211c2.567,2.566,5.637,3.852,9.211,3.852c3.624,0,6.694-1.258,9.212-3.775
			c2.566-2.568,3.851-5.662,3.851-9.287C552.026,220.179,550.768,217.083,548.251,214.565z"/>
		<path d="M567.502,211.319v28.086h-3.096v-28.086h-4.228v-3.096h4.228v-13.666h3.096v13.666h7.248v3.096H567.502z"/>
		<path d="M583.055,217.587c-0.555,0-1.132-0.227-1.736-0.68c-0.453-0.453-0.705-1.057-0.755-1.813c0-1.359,0.83-2.189,2.491-2.492
			c1.258,0,2.088,0.832,2.492,2.492C585.547,216.755,584.716,217.587,583.055,217.587z M583.055,239.858
			c-0.555,0-1.132-0.227-1.736-0.68c-0.453-0.453-0.705-1.057-0.755-1.811c0-1.359,0.83-2.189,2.491-2.492
			c1.258,0,2.088,0.83,2.492,2.492C585.547,239.028,584.716,239.858,583.055,239.858z"/>
		<path d="M614.915,238.952c-1.963,0.705-4.278,1.057-6.946,1.057c-8.255,0-13.564-3.898-15.931-11.701l3.096-1.057
			c1.762,6.443,6.04,9.664,12.835,9.664c3.876,0,6.921-0.957,9.136-2.869c2.266-1.963,3.397-4.832,3.397-8.607
			c0-3.574-1.334-6.543-4.001-8.91c-0.706-0.652-1.787-1.383-3.247-2.189c-1.46-0.805-3.321-1.709-5.587-2.717
			c-4.278-1.912-7.198-3.574-8.758-4.984c-2.618-2.264-3.926-5.258-3.926-8.984c0-3.723,1.333-6.719,4.001-8.984
			c2.617-2.314,5.839-3.473,9.664-3.473c6.342,0,10.821,2.367,13.439,7.098l-2.944,1.283c-1.008-1.66-2.216-2.895-3.624-3.699
			c-1.763-1.107-4.053-1.662-6.871-1.662c-2.971,0-5.436,0.832-7.398,2.492c-2.114,1.762-3.172,4.076-3.172,6.945
			c0,2.568,1.107,4.809,3.322,6.721c1.258,1.008,3.775,2.365,7.55,4.076c2.366,1.057,4.404,2.104,6.116,3.133
			c1.71,1.033,3.096,2.076,4.152,3.135c2.919,2.869,4.379,6.443,4.379,10.721C623.598,232.284,620.703,236.79,614.915,238.952z"/>
		<path d="M658.854,235.253c-3.121,3.121-6.945,4.682-11.476,4.682c-5.185,0-9.464-2.115-12.835-6.342v20.461h-3.096v-45.83h3.096
			v5.889c3.221-4.227,7.499-6.342,12.835-6.342c4.53,0,8.33,1.537,11.4,4.605c3.12,3.123,4.681,6.947,4.681,11.477
			S661.925,232.185,658.854,235.253z M656.59,214.642c-2.567-2.566-5.638-3.85-9.211-3.85c-3.624,0-6.695,1.258-9.211,3.773
			c-2.567,2.568-3.851,5.664-3.851,9.287c0,3.574,1.283,6.645,3.851,9.211c2.566,2.566,5.637,3.852,9.211,3.852
			c3.624,0,6.693-1.258,9.211-3.775c2.567-2.568,3.851-5.662,3.851-9.287C660.44,220.28,659.157,217.208,656.59,214.642z"/>
		<path d="M696.528,239.405v-5.359c-3.272,3.926-7.425,5.889-12.458,5.889c-4.529,0-8.33-1.535-11.4-4.605
			c-3.121-3.121-4.681-6.947-4.681-11.477s1.535-8.33,4.605-11.4c3.12-3.121,6.946-4.682,11.476-4.682
			c4.983,0,9.136,1.963,12.458,5.889v-5.436h3.096v31.182H696.528z M693.282,214.642c-2.567-2.566-5.638-3.85-9.212-3.85
			c-3.624,0-6.694,1.258-9.211,3.773c-2.566,2.568-3.851,5.664-3.851,9.287c0,3.574,1.284,6.645,3.851,9.211
			c2.567,2.566,5.637,3.852,9.211,3.852c3.624,0,6.694-1.258,9.212-3.775c2.566-2.568,3.851-5.662,3.851-9.287
			C697.133,220.28,695.849,217.208,693.282,214.642z"/>
		<path d="M723.558,240.009c-4.632,0-8.482-1.533-11.552-4.605c-3.071-3.068-4.605-6.92-4.605-11.551s1.534-8.48,4.605-11.551
			c3.069-3.07,6.92-4.605,11.552-4.605c3.976,0,7.146,0.906,9.513,2.717v3.699l-1.963-1.283l-2.114-1.133
			c-1.913-0.652-3.726-0.98-5.436-0.98c-3.877,0-7.022,1.207-9.438,3.623c-2.466,2.467-3.699,5.639-3.699,9.514
			c0,3.826,1.233,6.973,3.699,9.438c2.466,2.467,5.612,3.699,9.438,3.699c3.624,0,6.795-1.207,9.513-3.623v3.85
			C730.251,239.079,727.08,240.009,723.558,240.009z"/>
		<path d="M738.053,223.173c0,4.229,1.133,7.576,3.397,10.041c2.365,2.518,5.612,3.775,9.739,3.775c2.114,0,4.026-0.352,5.738-1.057
			c2.164-0.906,4.102-2.742,5.813-5.512l2.794,1.283c-1.963,3.727-4.983,6.242-9.061,7.551c-1.561,0.502-3.321,0.754-5.285,0.754
			c-4.681,0-8.531-1.533-11.551-4.605c-3.071-3.068-4.605-6.92-4.605-11.551c0-4.682,1.51-8.531,4.529-11.551
			c3.07-3.07,6.946-4.605,11.627-4.605c4.631,0,8.456,1.434,11.477,4.303c3.069,2.869,4.605,6.594,4.605,11.174H738.053z
			 M759.344,213.282c-2.366-1.711-5.084-2.566-8.154-2.566c-6.443,0-10.671,3.17-12.684,9.514h25.293
			C763.295,217.36,761.81,215.046,759.344,213.282z"/>
	</g>
</g>
<g>
	<g>
		<path d="M483.119,391.892c-0.483-0.363-0.996-0.648-1.54-0.861c-0.544-0.211-1.117-0.316-1.722-0.316
			c-0.514,0-0.996,0.158-1.449,0.475c-0.453,0.318-0.846,0.711-1.178,1.18c-0.333,0.467-0.597,0.988-0.793,1.563
			s-0.294,1.102-0.294,1.584v12.322h-1.857v-18.709h1.857v2.537c0.392-0.695,0.905-1.328,1.54-1.902
			c0.634-0.574,1.328-0.861,2.084-0.861c0.936,0,1.705,0.107,2.31,0.318s1.283,0.588,2.039,1.131L483.119,391.892z"/>
		<path d="M503.277,407.837v-3.352c-1.993,2.445-4.529,3.67-7.61,3.67c-2.718,0-4.998-0.922-6.84-2.764
			c-1.873-1.873-2.809-4.168-2.809-6.887c0-2.717,0.921-4.998,2.763-6.84c1.872-1.873,4.168-2.809,6.886-2.809
			c2.99,0,5.527,1.223,7.61,3.67v-18.211h1.857v33.521H503.277z M501.194,392.979c-1.541-1.541-3.383-2.311-5.527-2.311
			c-2.174,0-4.017,0.754-5.526,2.264c-1.54,1.541-2.311,3.398-2.311,5.572c0,2.145,0.771,3.986,2.311,5.527s3.382,2.311,5.526,2.311
			c2.175,0,4.017-0.754,5.527-2.266c1.54-1.539,2.31-3.396,2.31-5.572C503.504,396.362,502.734,394.519,501.194,392.979z"/>
		<path d="M517.774,376.173l-1.224-0.137c-1.691,0-2.537,0.996-2.537,2.99v10.102h4.439v1.857h-4.439v16.852h-1.857v-16.852h-2.536
			v-1.857h2.536v-10.645c0-2.869,1.45-4.305,4.35-4.305c0.664,0,1.087,0.031,1.269,0.092c0.362,0,0.77,0.105,1.223,0.316v1.857
			L517.774,376.173z"/>
		<path d="M523.754,394.745c-0.333,0-0.68-0.135-1.042-0.408c-0.272-0.271-0.424-0.633-0.453-1.086c0-0.816,0.498-1.314,1.495-1.496
			c0.754,0,1.253,0.5,1.494,1.496C525.248,394.247,524.75,394.745,523.754,394.745z M523.754,408.108
			c-0.333,0-0.68-0.135-1.042-0.406c-0.272-0.271-0.424-0.635-0.453-1.088c0-0.814,0.498-1.314,1.495-1.494
			c0.754,0,1.253,0.498,1.494,1.494C525.248,407.61,524.75,408.108,523.754,408.108z"/>
		<path d="M533.131,390.985v16.852h-1.857v-16.852h-2.537v-1.857h2.537v-8.199h1.857v8.199h4.349v1.857H533.131z"/>
		<path d="M545.045,416.626h-2.084l4.847-10.51l-7.882-16.988h1.993l6.977,14.768l6.886-14.768h2.038L545.045,416.626z"/>
		<path d="M578.159,405.347c-1.873,1.873-4.168,2.809-6.886,2.809c-3.111,0-5.679-1.27-7.701-3.807v12.277h-1.857v-27.498h1.857
			v3.533c1.932-2.537,4.499-3.805,7.701-3.805c2.718,0,4.998,0.922,6.84,2.764c1.872,1.873,2.809,4.168,2.809,6.885
			C580.922,401.224,580.001,403.505,578.159,405.347z M576.8,392.979c-1.54-1.541-3.383-2.311-5.526-2.311
			c-2.175,0-4.018,0.754-5.527,2.264c-1.54,1.541-2.31,3.398-2.31,5.572c0,2.145,0.77,3.986,2.31,5.527
			c1.541,1.541,3.383,2.311,5.527,2.311c2.174,0,4.016-0.754,5.526-2.266c1.54-1.539,2.311-3.396,2.311-5.572
			C579.11,396.362,578.34,394.519,576.8,392.979z"/>
		<path d="M585.406,398.099c0,2.535,0.68,4.545,2.038,6.023c1.419,1.512,3.367,2.266,5.844,2.266c1.269,0,2.416-0.211,3.443-0.635
			c1.298-0.543,2.461-1.645,3.488-3.307l1.676,0.77c-1.178,2.236-2.99,3.746-5.437,4.531c-0.937,0.301-1.993,0.453-3.171,0.453
			c-2.809,0-5.119-0.922-6.931-2.764c-1.843-1.842-2.764-4.152-2.764-6.932c0-2.809,0.906-5.119,2.718-6.93
			c1.842-1.842,4.168-2.764,6.977-2.764c2.778,0,5.074,0.859,6.886,2.582c1.842,1.721,2.764,3.957,2.764,6.705H585.406z
			 M598.181,392.163c-1.42-1.025-3.051-1.539-4.893-1.539c-3.866,0-6.402,1.902-7.61,5.707h15.176
			C600.552,394.61,599.66,393.222,598.181,392.163z"/>
	</g>
</g>
<g>
	<g>
		<path fill="none" stroke="#000000" stroke-width="1.51" stroke-miterlimit="10" d="M565.285,707.284
			c0-232.317,54.485-263.593,57.629-411.752"/>
		<g>
			<polygon points="631.188,301.999 622.848,298.329 614.414,301.784 623.057,282.011 			"/>
		</g>
	</g>
</g>
</svg>
