<?xml version="1.0" encoding="utf-8"?>
<!-- Generator: Adobe Illustrator 16.0.0, SVG Export Plug-In . SVG Version: 6.00 Build 0)  -->
<!DOCTYPE svg PUBLIC "-//W3C//DTD SVG 1.1//EN" "http://www.w3.org/Graphics/SVG/1.1/DTD/svg11.dtd">
<svg version="1.1" id="Layer_1" xmlns="http://www.w3.org/2000/svg" xmlns:xlink="http://www.w3.org/1999/xlink" x="0px" y="0px"
	 width="1920px" height="1080px" viewBox="0 0 1920 1080" enable-background="new 0 0 1920 1080" xml:space="preserve">
<rect x="1009.922" y="838.714" fill="#EDEDED" stroke="#000000" stroke-width="0.453" stroke-miterlimit="10" width="424.203" height="107.09"/>
<g>
	<g>
		<path d="M1051.625,879.706c-0.554,0-1.132-0.227-1.736-0.68c-0.453-0.453-0.705-1.057-0.755-1.812c0-1.359,0.83-2.189,2.491-2.492
			c1.258,0,2.089,0.831,2.492,2.492C1054.117,878.875,1053.286,879.706,1051.625,879.706z M1050.04,916.474v-31.182h3.096v31.182
			H1050.04z"/>
		<path d="M1080.769,916.474v-18.648c0-6.594-2.97-9.891-8.908-9.891c-2.92,0-5.135,0.856-6.645,2.567
			c-1.561,1.711-2.341,4.052-2.341,7.021v18.95h-3.095v-31.182h3.095v3.775c1.409-2.768,4.404-4.153,8.985-4.153
			c3.875,0,6.844,1.108,8.908,3.322c2.063,2.216,3.096,5.312,3.096,9.287v18.95H1080.769z"/>
		<path d="M1109.156,914.511c-2.014,1.712-4.43,2.566-7.248,2.566c-4.832,0-8.456-2.189-10.872-6.568l2.643-1.585
			c0.855,1.561,1.888,2.769,3.096,3.624c1.258,0.956,2.969,1.435,5.134,1.435c4.73,0,7.097-2.013,7.097-6.04
			c0-1.762-0.83-3.296-2.491-4.605c-0.504-0.303-1.221-0.643-2.151-1.02c-0.933-0.378-2.076-0.817-3.436-1.321
			c-2.518-0.906-4.329-1.813-5.437-2.718c-1.611-1.309-2.416-3.196-2.416-5.663c0-2.113,0.805-3.926,2.416-5.436
			c1.56-1.56,3.599-2.341,6.116-2.341c3.473,0,6.417,1.208,8.833,3.624l-2.265,1.963c-1.712-1.71-3.901-2.566-6.568-2.566
			c-3.624,0-5.437,1.585-5.437,4.756c0,1.41,0.554,2.567,1.661,3.474c0.906,0.705,2.341,1.385,4.304,2.038
			c1.711,0.604,3.12,1.17,4.228,1.699c1.107,0.528,1.938,0.994,2.492,1.396c2.163,1.661,3.246,3.901,3.246,6.72
			C1112.101,910.661,1111.119,912.85,1109.156,914.511z"/>
		<path d="M1123.5,888.388v28.086h-3.096v-28.086h-4.228v-3.096h4.228v-13.666h3.096v13.666h7.248v3.096H1123.5z"/>
		<path d="M1139.054,894.655c-0.555,0-1.132-0.227-1.736-0.68c-0.453-0.453-0.705-1.057-0.755-1.813c0-1.358,0.83-2.189,2.491-2.491
			c1.258,0,2.088,0.831,2.492,2.491C1141.546,893.824,1140.715,894.655,1139.054,894.655z M1139.054,916.927
			c-0.555,0-1.132-0.227-1.736-0.68c-0.453-0.453-0.705-1.057-0.755-1.812c0-1.359,0.83-2.189,2.491-2.492
			c1.258,0,2.088,0.831,2.492,2.492C1141.546,916.096,1140.715,916.927,1139.054,916.927z"/>
		<path d="M1172.197,916.549V897.75c0-6.594-3.07-9.891-9.211-9.891c-2.518,0-4.681,0.755-6.493,2.265
			c-1.862,1.51-2.793,3.523-2.793,6.04v20.31h-3.096v-55.87h3.096v28.841c1.861-3.069,4.957-4.605,9.286-4.605
			c8.204,0,12.307,4.203,12.307,12.608v19.102H1172.197z"/>
		<path d="M1185.032,900.242c0,4.228,1.133,7.576,3.397,10.041c2.365,2.518,5.612,3.775,9.739,3.775
			c2.114,0,4.026-0.352,5.738-1.057c2.164-0.906,4.102-2.743,5.813-5.512l2.794,1.283c-1.963,3.726-4.983,6.242-9.061,7.55
			c-1.561,0.503-3.321,0.755-5.285,0.755c-4.681,0-8.531-1.534-11.551-4.605c-3.071-3.069-4.605-6.92-4.605-11.551
			c0-4.682,1.51-8.532,4.529-11.552c3.07-3.069,6.946-4.605,11.627-4.605c4.631,0,8.456,1.435,11.477,4.304
			c3.069,2.868,4.605,6.594,4.605,11.174H1185.032z M1206.323,890.351c-2.366-1.711-5.084-2.567-8.154-2.567
			c-6.443,0-10.671,3.171-12.684,9.514h25.293C1210.274,894.428,1208.789,892.114,1206.323,890.351z"/>
		<path d="M1247.621,916.474v-5.36c-3.272,3.926-7.425,5.889-12.458,5.889c-4.529,0-8.33-1.534-11.4-4.605
			c-3.121-3.12-4.681-6.946-4.681-11.476c0-4.53,1.535-8.33,4.605-11.401c3.12-3.12,6.946-4.681,11.476-4.681
			c4.983,0,9.136,1.963,12.458,5.889v-5.436h3.096v31.182H1247.621z M1244.375,891.71c-2.567-2.567-5.638-3.851-9.212-3.851
			c-3.624,0-6.694,1.259-9.211,3.774c-2.566,2.567-3.851,5.663-3.851,9.287c0,3.574,1.284,6.644,3.851,9.211
			c2.567,2.566,5.637,3.851,9.211,3.851c3.624,0,6.694-1.258,9.212-3.775c2.566-2.567,3.851-5.662,3.851-9.286
			C1248.226,897.348,1246.941,894.277,1244.375,891.71z"/>
		<path d="M1264.608,888.388v28.086h-3.096v-28.086h-4.228v-3.096h4.228v-13.666h3.096v13.666h7.248v3.096H1264.608z"/>
		<path d="M1279.406,900.242c0,4.228,1.133,7.576,3.397,10.041c2.365,2.518,5.612,3.775,9.739,3.775
			c2.114,0,4.026-0.352,5.738-1.057c2.164-0.906,4.102-2.743,5.813-5.512l2.794,1.283c-1.963,3.726-4.983,6.242-9.061,7.55
			c-1.561,0.503-3.321,0.755-5.285,0.755c-4.681,0-8.531-1.534-11.551-4.605c-3.071-3.069-4.605-6.92-4.605-11.551
			c0-4.682,1.51-8.532,4.529-11.552c3.07-3.069,6.946-4.605,11.627-4.605c4.631,0,8.456,1.435,11.477,4.304
			c3.069,2.868,4.605,6.594,4.605,11.174H1279.406z M1300.697,890.351c-2.366-1.711-5.084-2.567-8.154-2.567
			c-6.443,0-10.671,3.171-12.684,9.514h25.293C1304.648,894.428,1303.163,892.114,1300.697,890.351z"/>
		<path d="M1330.521,889.898c-0.807-0.604-1.661-1.082-2.567-1.435c-0.906-0.352-1.863-0.528-2.869-0.528
			c-0.856,0-1.661,0.265-2.416,0.793s-1.41,1.183-1.963,1.963c-0.555,0.781-0.994,1.649-1.321,2.604
			c-0.328,0.957-0.491,1.838-0.491,2.643v20.536h-3.095v-31.182h3.095v4.228c0.654-1.157,1.511-2.214,2.567-3.171
			c1.057-0.955,2.214-1.435,3.473-1.435c1.56,0,2.844,0.178,3.851,0.529c1.007,0.353,2.139,0.981,3.397,1.887L1330.521,889.898z"/>
		<path d="M1353.02,912.699c-2.92,2.77-6.619,4.153-11.099,4.153c-3.726,0-6.921-1.031-9.589-3.096
			c-2.566-2.063-4.278-4.957-5.134-8.683h3.322c0.653,2.467,2.088,4.53,4.304,6.19c2.163,1.661,4.529,2.492,7.097,2.492
			c3.322,0,6.165-1.133,8.531-3.397c2.365-2.365,3.549-5.184,3.549-8.456c0-4.077-1.461-7.273-4.379-9.589
			c-2.216-1.762-4.48-2.643-6.795-2.643h-3.171v-4.454h3.171c3.171,0,5.712-0.88,7.625-2.643c1.862-1.711,2.794-4.202,2.794-7.475
			c0-3.12-1.008-5.663-3.021-7.626c-2.014-2.013-4.605-3.02-7.776-3.02c-6.04,0-9.689,3.171-10.947,9.513h-3.549
			c0.453-3.926,1.988-6.995,4.605-9.211c2.617-2.265,5.914-3.397,9.891-3.397c4.127,0,7.575,1.259,10.344,3.775
			c2.768,2.467,4.152,5.788,4.152,9.966c0,6.694-3.373,10.796-10.117,12.307c7.047,2.113,10.57,6.945,10.57,14.496
			C1357.398,906.383,1355.938,909.981,1353.02,912.699z"/>
		<path d="M1389.788,912.699c-2.92,2.77-6.619,4.153-11.099,4.153c-3.726,0-6.921-1.031-9.589-3.096
			c-2.566-2.063-4.278-4.957-5.134-8.683h3.322c0.653,2.467,2.088,4.53,4.304,6.19c2.163,1.661,4.529,2.492,7.097,2.492
			c3.322,0,6.165-1.133,8.531-3.397c2.365-2.365,3.549-5.184,3.549-8.456c0-4.077-1.461-7.273-4.379-9.589
			c-2.216-1.762-4.48-2.643-6.795-2.643h-3.171v-4.454h3.171c3.171,0,5.712-0.88,7.625-2.643c1.862-1.711,2.794-4.202,2.794-7.475
			c0-3.12-1.008-5.663-3.021-7.626c-2.014-2.013-4.605-3.02-7.776-3.02c-6.04,0-9.689,3.171-10.947,9.513h-3.549
			c0.453-3.926,1.988-6.995,4.605-9.211c2.617-2.265,5.914-3.397,9.891-3.397c4.127,0,7.575,1.259,10.344,3.775
			c2.768,2.467,4.152,5.788,4.152,9.966c0,6.694-3.373,10.796-10.117,12.307c7.047,2.113,10.57,6.945,10.57,14.496
			C1394.167,906.383,1392.707,909.981,1389.788,912.699z"/>
	</g>
</g>
<rect x="456.867" y="707.296" fill="#EDEDED" stroke="#000000" stroke-width="0.453" stroke-miterlimit="10" width="424.203" height="107.086"/>
<g>
	<g>
		<path d="M500.382,748.286c-0.554,0-1.132-0.227-1.736-0.68c-0.453-0.453-0.705-1.057-0.755-1.812c0-1.359,0.83-2.189,2.491-2.492
			c1.258,0,2.089,0.831,2.492,2.492C502.874,747.455,502.043,748.286,500.382,748.286z M498.797,785.054v-31.182h3.096v31.182
			H498.797z"/>
		<path d="M529.525,785.054v-18.648c0-6.594-2.97-9.891-8.908-9.891c-2.92,0-5.135,0.856-6.645,2.567
			c-1.561,1.711-2.341,4.052-2.341,7.021v18.95h-3.095v-31.182h3.095v3.775c1.409-2.768,4.404-4.153,8.985-4.153
			c3.875,0,6.844,1.108,8.908,3.322c2.063,2.216,3.096,5.312,3.096,9.287v18.95H529.525z"/>
		<path d="M557.913,783.091c-2.014,1.712-4.43,2.566-7.248,2.566c-4.832,0-8.456-2.189-10.872-6.568l2.643-1.585
			c0.855,1.561,1.888,2.769,3.096,3.624c1.258,0.956,2.969,1.435,5.134,1.435c4.73,0,7.097-2.013,7.097-6.04
			c0-1.762-0.83-3.296-2.491-4.605c-0.504-0.303-1.221-0.643-2.151-1.02c-0.933-0.378-2.076-0.817-3.436-1.321
			c-2.518-0.906-4.329-1.813-5.437-2.718c-1.611-1.309-2.416-3.196-2.416-5.663c0-2.113,0.805-3.926,2.416-5.436
			c1.56-1.56,3.599-2.341,6.116-2.341c3.473,0,6.417,1.208,8.833,3.624l-2.265,1.963c-1.712-1.71-3.901-2.566-6.568-2.566
			c-3.624,0-5.437,1.585-5.437,4.756c0,1.41,0.554,2.567,1.661,3.474c0.906,0.705,2.341,1.385,4.304,2.038
			c1.711,0.604,3.12,1.17,4.228,1.699c1.107,0.528,1.938,0.994,2.492,1.396c2.163,1.661,3.246,3.901,3.246,6.72
			C560.857,779.241,559.876,781.43,557.913,783.091z"/>
		<path d="M572.258,756.968v28.086h-3.096v-28.086h-4.228v-3.096h4.228v-13.666h3.096v13.666h7.248v3.096H572.258z"/>
		<path d="M587.811,763.235c-0.555,0-1.132-0.227-1.736-0.68c-0.453-0.453-0.705-1.057-0.755-1.813c0-1.358,0.83-2.189,2.491-2.491
			c1.258,0,2.088,0.831,2.492,2.491C590.303,762.404,589.472,763.235,587.811,763.235z M587.811,785.507
			c-0.555,0-1.132-0.227-1.736-0.68c-0.453-0.453-0.705-1.057-0.755-1.812c0-1.359,0.83-2.189,2.491-2.492
			c1.258,0,2.088,0.831,2.492,2.492C590.303,784.676,589.472,785.507,587.811,785.507z"/>
		<path d="M614.084,783.091c-2.014,1.712-4.43,2.566-7.248,2.566c-4.832,0-8.456-2.189-10.872-6.568l2.643-1.585
			c0.855,1.561,1.888,2.769,3.096,3.624c1.258,0.956,2.969,1.435,5.134,1.435c4.73,0,7.097-2.013,7.097-6.04
			c0-1.762-0.83-3.296-2.491-4.605c-0.504-0.303-1.221-0.643-2.151-1.02c-0.933-0.378-2.076-0.817-3.436-1.321
			c-2.518-0.906-4.329-1.813-5.437-2.718c-1.611-1.309-2.416-3.196-2.416-5.663c0-2.113,0.805-3.926,2.416-5.436
			c1.56-1.56,3.599-2.341,6.116-2.341c3.473,0,6.417,1.208,8.833,3.624l-2.265,1.963c-1.712-1.71-3.901-2.566-6.568-2.566
			c-3.624,0-5.437,1.585-5.437,4.756c0,1.41,0.554,2.567,1.661,3.474c0.906,0.705,2.341,1.385,4.304,2.038
			c1.711,0.604,3.12,1.17,4.228,1.699c1.107,0.528,1.938,0.994,2.492,1.396c2.163,1.661,3.246,3.901,3.246,6.72
			C617.028,779.241,616.047,781.43,614.084,783.091z"/>
		<path d="M651.003,780.902c-3.121,3.121-6.945,4.681-11.476,4.681c-5.185,0-9.464-2.114-12.835-6.342v20.461h-3.096v-45.829h3.096
			v5.889c3.221-4.228,7.499-6.342,12.835-6.342c4.53,0,8.33,1.536,11.4,4.605c3.12,3.122,4.681,6.946,4.681,11.477
			C655.608,774.031,654.073,777.833,651.003,780.902z M648.738,760.291c-2.567-2.567-5.638-3.851-9.211-3.851
			c-3.624,0-6.695,1.259-9.211,3.774c-2.567,2.567-3.851,5.663-3.851,9.287c0,3.574,1.283,6.644,3.851,9.211
			c2.566,2.566,5.637,3.851,9.211,3.851c3.624,0,6.693-1.258,9.211-3.775c2.567-2.567,3.851-5.662,3.851-9.286
			C652.589,765.928,651.306,762.857,648.738,760.291z"/>
		<path d="M688.677,785.054v-5.36c-3.272,3.926-7.425,5.889-12.458,5.889c-4.529,0-8.33-1.534-11.4-4.605
			c-3.121-3.12-4.681-6.946-4.681-11.476c0-4.53,1.535-8.33,4.605-11.401c3.12-3.12,6.946-4.681,11.476-4.681
			c4.983,0,9.136,1.963,12.458,5.889v-5.436h3.096v31.182H688.677z M685.431,760.291c-2.567-2.567-5.638-3.851-9.212-3.851
			c-3.624,0-6.694,1.259-9.211,3.774c-2.566,2.567-3.851,5.663-3.851,9.287c0,3.574,1.284,6.644,3.851,9.211
			c2.567,2.566,5.637,3.851,9.211,3.851c3.624,0,6.694-1.258,9.212-3.775c2.566-2.567,3.851-5.662,3.851-9.286
			C689.281,765.928,687.997,762.857,685.431,760.291z"/>
		<path d="M715.706,785.658c-4.632,0-8.482-1.534-11.552-4.605c-3.071-3.069-4.605-6.92-4.605-11.551s1.534-8.481,4.605-11.552
			c3.069-3.069,6.92-4.605,11.552-4.605c3.976,0,7.146,0.906,9.513,2.718v3.699l-1.963-1.283l-2.114-1.133
			c-1.913-0.653-3.726-0.981-5.436-0.981c-3.877,0-7.022,1.208-9.438,3.624c-2.466,2.467-3.699,5.638-3.699,9.514
			c0,3.825,1.233,6.972,3.699,9.438c2.466,2.467,5.612,3.699,9.438,3.699c3.624,0,6.795-1.208,9.513-3.624v3.851
			C722.399,784.727,719.229,785.658,715.706,785.658z"/>
		<path d="M730.201,768.822c0,4.228,1.133,7.576,3.397,10.041c2.365,2.518,5.612,3.775,9.739,3.775c2.114,0,4.026-0.352,5.738-1.057
			c2.164-0.906,4.102-2.743,5.813-5.512l2.794,1.283c-1.963,3.726-4.983,6.242-9.061,7.55c-1.561,0.503-3.321,0.755-5.285,0.755
			c-4.681,0-8.531-1.534-11.551-4.605c-3.071-3.069-4.605-6.92-4.605-11.551c0-4.682,1.51-8.532,4.529-11.552
			c3.07-3.069,6.946-4.605,11.627-4.605c4.631,0,8.456,1.435,11.477,4.304c3.069,2.868,4.605,6.594,4.605,11.174H730.201z
			 M751.492,758.931c-2.366-1.711-5.084-2.567-8.154-2.567c-6.443,0-10.671,3.171-12.684,9.514h25.293
			C755.443,763.008,753.958,760.694,751.492,758.931z"/>
		<path d="M799.889,785.054l-6.19-16.157H769.16l-6.267,16.157h-3.02l21.518-55.644l21.593,55.644H799.889z M781.392,737.262
			l-11.023,28.539h22.046L781.392,737.262z"/>
		<path d="M835.903,757.95c-0.453,0.555-1.133,1.372-2.038,2.454c-0.906,1.082-2.064,2.429-3.474,4.039l-15.478,17.516h25.821v3.096
			h-32.616l26.425-30.578c2.114-3.02,3.171-6.165,3.171-9.438c0-3.171-1.258-5.862-3.774-8.078
			c-2.518-2.163-5.437-3.246-8.758-3.246c-4.077,0-7.274,1.309-9.589,3.926c-1.41,1.561-2.392,3.499-2.944,5.813h-3.397
			c0.352-2.616,1.661-5.21,3.926-7.776c3.02-3.322,7.021-4.983,12.005-4.983c4.277,0,7.952,1.334,11.022,4.002
			c3.069,2.617,4.605,6.065,4.605,10.343C840.811,749.418,839.175,753.721,835.903,757.95z"/>
	</g>
</g>
<path fill="#EDEDED" stroke="#000000" stroke-width="0.453" stroke-miterlimit="10" d="M1434.125,239.835
	c0,15.949-12.969,28.906-28.934,28.906h-366.34c-15.977,0-28.93-12.957-28.93-28.906v-49.277c0-15.973,12.953-28.902,28.93-28.902
	h366.34c15.965,0,28.934,12.93,28.934,28.902V239.835z"/>
<g>
	<g>
		<path d="M1088.696,235.257c-3.121,3.121-6.945,4.681-11.476,4.681c-5.185,0-9.438-2.088-12.76-6.266v5.738h-3.096v-55.87h3.096
			v30.502c3.271-4.177,7.524-6.267,12.76-6.267c4.53,0,8.33,1.536,11.4,4.605c3.12,3.122,4.681,6.946,4.681,11.476
			C1093.302,228.387,1091.766,232.188,1088.696,235.257z M1086.432,214.646c-2.567-2.567-5.638-3.851-9.211-3.851
			c-3.624,0-6.695,1.259-9.211,3.775c-2.567,2.567-3.851,5.663-3.851,9.287c0,3.575,1.283,6.644,3.851,9.211
			c2.566,2.567,5.637,3.85,9.211,3.85c3.624,0,6.693-1.257,9.211-3.775c2.567-2.567,3.851-5.663,3.851-9.287
			C1090.282,220.283,1088.999,217.212,1086.432,214.646z"/>
		<path d="M1126.446,235.257c-3.121,3.121-6.946,4.681-11.477,4.681c-4.529,0-8.33-1.535-11.4-4.605
			c-3.121-3.12-4.681-6.946-4.681-11.476c0-4.479,1.56-8.279,4.681-11.4c3.07-3.171,6.871-4.756,11.4-4.756
			c4.479,0,8.279,1.561,11.401,4.681c3.12,3.122,4.681,6.946,4.681,11.476C1131.052,228.387,1129.516,232.188,1126.446,235.257z
			 M1124.257,214.57c-2.518-2.567-5.613-3.85-9.287-3.85c-3.523,0-6.568,1.309-9.135,3.926c-2.618,2.618-3.927,5.688-3.927,9.211
			c0,3.575,1.284,6.644,3.851,9.211c2.567,2.567,5.637,3.85,9.211,3.85c3.624,0,6.694-1.257,9.212-3.775
			c2.566-2.567,3.851-5.663,3.851-9.287C1128.032,220.183,1126.773,217.087,1124.257,214.57z"/>
		<path d="M1143.509,211.324v28.086h-3.096v-28.086h-4.228v-3.096h4.228v-13.666h3.096v13.666h7.248v3.096H1143.509z"/>
		<path d="M1159.062,217.59c-0.555,0-1.132-0.226-1.736-0.679c-0.453-0.453-0.705-1.057-0.755-1.812c0-1.359,0.83-2.189,2.491-2.492
			c1.258,0,2.088,0.831,2.492,2.492C1161.554,216.76,1160.723,217.59,1159.062,217.59z M1159.062,239.863
			c-0.555,0-1.132-0.227-1.736-0.68c-0.453-0.453-0.705-1.057-0.755-1.812c0-1.359,0.83-2.189,2.491-2.491
			c1.258,0,2.088,0.83,2.492,2.491C1161.554,239.032,1160.723,239.863,1159.062,239.863z"/>
		<path d="M1170.386,239.41v-53.907h25.896v3.096h-22.801v19.63h22.801v3.322h-22.801v24.764h22.801v3.096H1170.386z"/>
		<path d="M1202.7,239.41v-55.87h3.021v55.87H1202.7z"/>
		<path d="M1216.969,223.177c0,4.228,1.133,7.576,3.397,10.042c2.365,2.518,5.612,3.775,9.739,3.775
			c2.114,0,4.026-0.352,5.738-1.057c2.164-0.906,4.102-2.743,5.813-5.511l2.794,1.283c-1.963,3.726-4.983,6.242-9.061,7.55
			c-1.561,0.502-3.321,0.755-5.285,0.755c-4.681,0-8.531-1.535-11.551-4.605c-3.071-3.07-4.605-6.92-4.605-11.552
			c0-4.681,1.51-8.531,4.529-11.551c3.07-3.07,6.946-4.605,11.627-4.605c4.631,0,8.456,1.434,11.477,4.303
			c3.069,2.869,4.605,6.595,4.605,11.174H1216.969z M1238.26,213.287c-2.366-1.71-5.084-2.567-8.154-2.567
			c-6.443,0-10.671,3.171-12.684,9.513h25.293C1242.211,217.364,1240.726,215.049,1238.26,213.287z"/>
		<path d="M1288.844,239.41v-21.518c0-1.912-0.63-3.573-1.887-4.983c-1.259-1.409-3.071-2.114-5.437-2.114
			c-4.883,0-7.323,2.367-7.323,7.097v21.518h-3.096v-21.518c0-2.114-0.705-3.8-2.114-5.059c-1.46-1.359-3.196-2.039-5.209-2.039
			c-2.064,0-3.801,0.655-5.21,1.963c-1.409,1.259-2.114,2.971-2.114,5.134v21.518h-3.095v-31.182h3.095v3.096
			c1.511-2.365,3.951-3.549,7.324-3.549c4.026,0,6.995,1.636,8.909,4.908c1.812-3.271,4.756-4.908,8.833-4.908
			c3.12,0,5.637,0.881,7.55,2.643c1.913,1.812,2.869,4.304,2.869,7.475v21.518H1288.844z"/>
		<path d="M1302.509,223.177c0,4.228,1.133,7.576,3.397,10.042c2.365,2.518,5.612,3.775,9.739,3.775
			c2.114,0,4.026-0.352,5.738-1.057c2.164-0.906,4.102-2.743,5.813-5.511l2.794,1.283c-1.963,3.726-4.983,6.242-9.061,7.55
			c-1.561,0.502-3.321,0.755-5.285,0.755c-4.681,0-8.531-1.535-11.551-4.605c-3.071-3.07-4.605-6.92-4.605-11.552
			c0-4.681,1.51-8.531,4.529-11.551c3.07-3.07,6.946-4.605,11.627-4.605c4.631,0,8.456,1.434,11.477,4.303
			c3.069,2.869,4.605,6.595,4.605,11.174H1302.509z M1323.8,213.287c-2.366-1.71-5.084-2.567-8.154-2.567
			c-6.443,0-10.671,3.171-12.684,9.513h25.293C1327.751,217.364,1326.266,215.049,1323.8,213.287z"/>
		<path d="M1359.889,239.41v-18.648c0-6.593-2.97-9.891-8.908-9.891c-2.92,0-5.135,0.856-6.645,2.567
			c-1.561,1.712-2.341,4.052-2.341,7.021v18.951h-3.095v-31.182h3.095v3.775c1.409-2.768,4.404-4.152,8.985-4.152
			c3.875,0,6.844,1.108,8.908,3.322c2.063,2.216,3.096,5.311,3.096,9.287v18.951H1359.889z"/>
		<path d="M1377.631,211.324v28.086h-3.096v-28.086h-4.228v-3.096h4.228v-13.666h3.096v13.666h7.248v3.096H1377.631z"/>
	</g>
</g>
<path fill="#EDEDED" stroke="#000000" stroke-width="0.453" stroke-miterlimit="10" d="M1434.125,485.539
	c0,15.949-12.969,28.91-28.934,28.91h-366.34c-15.977,0-28.93-12.961-28.93-28.91v-49.281c0-15.965,12.953-28.895,28.93-28.895
	h366.34c15.965,0,28.934,12.93,28.934,28.895V485.539z"/>
<g>
	<g>
		<path d="M1090.584,432.338l-2.039-0.227c-2.819,0-4.228,1.661-4.228,4.983v16.836h7.398v3.096h-7.398v28.086h-3.096v-28.086
			h-4.229v-3.096h4.229v-17.743c0-4.781,2.416-7.172,7.248-7.172c1.106,0,1.812,0.051,2.114,0.151c0.604,0,1.283,0.177,2.038,0.528
			v3.096L1090.584,432.338z"/>
		<path d="M1114.517,483.15c-2.014,1.711-4.43,2.567-7.248,2.567c-4.832,0-8.456-2.189-10.872-6.568l2.643-1.585
			c0.855,1.561,1.888,2.769,3.096,3.624c1.258,0.957,2.969,1.434,5.134,1.434c4.73,0,7.097-2.012,7.097-6.04
			c0-1.761-0.83-3.296-2.491-4.605c-0.504-0.302-1.221-0.642-2.151-1.019c-0.933-0.377-2.076-0.817-3.436-1.321
			c-2.518-0.906-4.329-1.812-5.437-2.718c-1.611-1.308-2.416-3.196-2.416-5.662c0-2.114,0.805-3.926,2.416-5.436
			c1.56-1.56,3.599-2.341,6.116-2.341c3.473,0,6.417,1.208,8.833,3.624l-2.265,1.963c-1.712-1.71-3.901-2.567-6.568-2.567
			c-3.624,0-5.437,1.585-5.437,4.757c0,1.41,0.554,2.567,1.661,3.473c0.906,0.706,2.341,1.385,4.304,2.039
			c1.711,0.604,3.12,1.17,4.228,1.699c1.107,0.529,1.938,0.995,2.492,1.397c2.163,1.661,3.246,3.901,3.246,6.719
			C1117.461,479.299,1116.479,481.489,1114.517,483.15z"/>
		<path d="M1149.397,480.96c-3.121,3.121-6.946,4.681-11.477,4.681c-4.529,0-8.33-1.535-11.4-4.605
			c-3.121-3.12-4.681-6.946-4.681-11.476c0-4.479,1.56-8.279,4.681-11.4c3.07-3.171,6.871-4.756,11.4-4.756
			c4.479,0,8.279,1.561,11.401,4.681c3.12,3.122,4.681,6.946,4.681,11.476C1154.003,474.09,1152.467,477.891,1149.397,480.96z
			 M1147.208,460.273c-2.518-2.567-5.613-3.85-9.287-3.85c-3.523,0-6.568,1.309-9.135,3.926c-2.618,2.618-3.927,5.688-3.927,9.211
			c0,3.575,1.284,6.644,3.851,9.211c2.567,2.567,5.637,3.85,9.211,3.85c3.624,0,6.694-1.257,9.212-3.775
			c2.566-2.567,3.851-5.663,3.851-9.287C1150.983,465.886,1149.725,462.791,1147.208,460.273z"/>
		<path d="M1163.138,463.293c-0.555,0-1.132-0.226-1.736-0.679c-0.453-0.453-0.705-1.057-0.755-1.812
			c0-1.359,0.83-2.189,2.491-2.492c1.258,0,2.088,0.831,2.492,2.492C1165.63,462.463,1164.799,463.293,1163.138,463.293z
			 M1163.138,485.566c-0.555,0-1.132-0.227-1.736-0.68c-0.453-0.453-0.705-1.057-0.755-1.812c0-1.359,0.83-2.189,2.491-2.491
			c1.258,0,2.088,0.83,2.492,2.491C1165.63,484.735,1164.799,485.566,1163.138,485.566z"/>
		<path d="M1207.531,485.113v-28.086h-29.672v28.086h-3.02v-53.907h3.02v22.726h29.672v-22.726h3.096v53.907H1207.531z"/>
		<path d="M1221.12,468.88c0,4.228,1.133,7.576,3.397,10.042c2.365,2.518,5.612,3.775,9.739,3.775c2.114,0,4.026-0.352,5.738-1.057
			c2.164-0.906,4.102-2.743,5.813-5.511l2.794,1.283c-1.963,3.726-4.983,6.242-9.061,7.55c-1.561,0.502-3.321,0.755-5.285,0.755
			c-4.681,0-8.531-1.535-11.551-4.605c-3.071-3.07-4.605-6.92-4.605-11.552c0-4.681,1.51-8.531,4.529-11.551
			c3.07-3.07,6.946-4.605,11.627-4.605c4.631,0,8.456,1.434,11.477,4.303c3.069,2.869,4.605,6.595,4.605,11.174H1221.12z
			 M1242.411,458.99c-2.366-1.71-5.084-2.567-8.154-2.567c-6.443,0-10.671,3.171-12.684,9.513h25.293
			C1246.362,463.067,1244.877,460.752,1242.411,458.99z"/>
		<path d="M1283.71,485.113v-5.36c-3.272,3.926-7.425,5.889-12.458,5.889c-4.529,0-8.33-1.535-11.4-4.605
			c-3.121-3.12-4.681-6.946-4.681-11.476c0-4.53,1.535-8.33,4.605-11.4c3.12-3.12,6.946-4.681,11.476-4.681
			c4.983,0,9.136,1.963,12.458,5.889v-5.436h3.096v31.182H1283.71z M1280.464,460.349c-2.567-2.567-5.638-3.851-9.212-3.851
			c-3.624,0-6.694,1.259-9.211,3.775c-2.566,2.567-3.851,5.663-3.851,9.287c0,3.575,1.284,6.644,3.851,9.211
			c2.567,2.567,5.637,3.85,9.211,3.85c3.624,0,6.694-1.257,9.212-3.775c2.566-2.567,3.851-5.663,3.851-9.287
			C1284.314,465.986,1283.03,462.916,1280.464,460.349z"/>
		<path d="M1300.697,457.027v28.086h-3.096v-28.086h-4.228v-3.096h4.228v-13.666h3.096v13.666h7.248v3.096H1300.697z"/>
		<path d="M1315.495,468.88c0,4.228,1.133,7.576,3.397,10.042c2.365,2.518,5.612,3.775,9.739,3.775c2.114,0,4.026-0.352,5.738-1.057
			c2.164-0.906,4.102-2.743,5.813-5.511l2.794,1.283c-1.963,3.726-4.983,6.242-9.061,7.55c-1.561,0.502-3.321,0.755-5.285,0.755
			c-4.681,0-8.531-1.535-11.551-4.605c-3.071-3.07-4.605-6.92-4.605-11.552c0-4.681,1.51-8.531,4.529-11.551
			c3.07-3.07,6.946-4.605,11.627-4.605c4.631,0,8.456,1.434,11.477,4.303c3.069,2.869,4.605,6.595,4.605,11.174H1315.495z
			 M1336.786,458.99c-2.366-1.71-5.084-2.567-8.154-2.567c-6.443,0-10.671,3.171-12.684,9.513h25.293
			C1340.737,463.067,1339.252,460.752,1336.786,458.99z"/>
		<path d="M1366.608,458.537c-0.807-0.604-1.661-1.082-2.567-1.435c-0.906-0.352-1.863-0.528-2.869-0.528
			c-0.856,0-1.661,0.264-2.416,0.792c-0.755,0.529-1.41,1.184-1.963,1.963c-0.555,0.781-0.994,1.649-1.321,2.604
			c-0.328,0.957-0.491,1.838-0.491,2.643v20.536h-3.095v-31.182h3.095v4.228c0.654-1.157,1.511-2.214,2.567-3.171
			c1.057-0.956,2.214-1.435,3.473-1.435c1.56,0,2.844,0.177,3.851,0.528c1.007,0.353,2.139,0.981,3.397,1.888L1366.608,458.537z"/>
	</g>
</g>
<g>
	<path opacity="0.7" d="M885.823,186.045c-0.32-0.24-0.66-0.43-1.021-0.57c-0.359-0.14-0.739-0.21-1.14-0.21
		c-0.34,0-0.66,0.105-0.96,0.315s-0.561,0.47-0.78,0.78c-0.22,0.311-0.395,0.655-0.524,1.035c-0.131,0.38-0.195,0.73-0.195,1.05
		v8.16h-1.229v-12.39h1.229v1.68c0.26-0.46,0.6-0.88,1.021-1.26c0.42-0.379,0.879-0.57,1.38-0.57c0.619,0,1.129,0.07,1.529,0.21
		c0.4,0.14,0.851,0.39,1.351,0.75L885.823,186.045z"/>
	<path opacity="0.7" d="M899.173,196.605v-2.22c-1.319,1.62-3,2.43-5.04,2.43c-1.8,0-3.31-0.61-4.529-1.83
		c-1.24-1.24-1.86-2.76-1.86-4.56c0-1.8,0.609-3.31,1.83-4.53c1.239-1.24,2.76-1.86,4.56-1.86c1.98,0,3.66,0.81,5.04,2.43v-12.06
		h1.23v22.2H899.173z M897.793,186.765c-1.02-1.02-2.24-1.53-3.66-1.53c-1.439,0-2.66,0.5-3.66,1.5
		c-1.02,1.02-1.529,2.25-1.529,3.69c0,1.42,0.51,2.64,1.529,3.66c1.021,1.02,2.24,1.53,3.66,1.53c1.44,0,2.66-0.5,3.66-1.5
		c1.021-1.02,1.53-2.25,1.53-3.69C899.323,189.005,898.813,187.785,897.793,186.765z"/>
	<path opacity="0.7" d="M908.773,175.635l-0.811-0.09c-1.12,0-1.68,0.66-1.68,1.98v6.69h2.939v1.23h-2.939v11.16h-1.23v-11.16h-1.68
		v-1.23h1.68v-7.05c0-1.9,0.96-2.85,2.88-2.85c0.44,0,0.721,0.02,0.841,0.06c0.239,0,0.51,0.07,0.81,0.21v1.23L908.773,175.635z"/>
	<path opacity="0.7" d="M918.283,195.825c-0.801,0.68-1.761,1.02-2.88,1.02c-1.921,0-3.36-0.87-4.32-2.61l1.05-0.63
		c0.34,0.62,0.75,1.1,1.23,1.44c0.499,0.38,1.18,0.57,2.04,0.57c1.879,0,2.819-0.799,2.819-2.4c0-0.7-0.33-1.31-0.99-1.83
		c-0.199-0.12-0.484-0.255-0.854-0.405s-0.825-0.325-1.365-0.525c-1-0.36-1.72-0.72-2.16-1.08c-0.64-0.52-0.96-1.27-0.96-2.25
		c0-0.84,0.32-1.56,0.96-2.16c0.62-0.62,1.43-0.93,2.431-0.93c1.38,0,2.55,0.48,3.51,1.44l-0.9,0.78
		c-0.68-0.68-1.55-1.02-2.609-1.02c-1.44,0-2.16,0.63-2.16,1.89c0,0.56,0.22,1.02,0.66,1.38c0.359,0.28,0.93,0.55,1.71,0.81
		c0.68,0.24,1.239,0.465,1.68,0.675c0.439,0.21,0.77,0.396,0.99,0.555c0.859,0.66,1.29,1.55,1.29,2.67
		C919.453,194.295,919.063,195.165,918.283,195.825z"/>
	<path opacity="0.7" d="M922.662,187.935c-0.22,0-0.449-0.09-0.689-0.27c-0.18-0.18-0.28-0.42-0.3-0.72c0-0.54,0.33-0.87,0.989-0.99
		c0.5,0,0.83,0.33,0.99,0.99C923.652,187.605,923.322,187.935,922.662,187.935z M922.662,196.785c-0.22,0-0.449-0.09-0.689-0.27
		c-0.18-0.18-0.28-0.42-0.3-0.72c0-0.54,0.33-0.87,0.989-0.99c0.5,0,0.83,0.33,0.99,0.99
		C923.652,196.455,923.322,196.785,922.662,196.785z"/>
	<path opacity="0.7" d="M932.862,186.045c-0.32-0.24-0.66-0.43-1.021-0.57c-0.359-0.14-0.739-0.21-1.14-0.21
		c-0.34,0-0.66,0.105-0.96,0.315s-0.561,0.47-0.78,0.78c-0.22,0.311-0.395,0.655-0.524,1.035c-0.131,0.38-0.195,0.73-0.195,1.05
		v8.16h-1.229v-12.39h1.229v1.68c0.26-0.46,0.6-0.88,1.021-1.26c0.42-0.379,0.879-0.57,1.38-0.57c0.619,0,1.129,0.07,1.529,0.21
		c0.4,0.14,0.851,0.39,1.351,0.75L932.862,186.045z"/>
	<path opacity="0.7" d="M946.122,196.605v-2.13c-1.3,1.56-2.95,2.34-4.949,2.34c-1.801,0-3.311-0.61-4.53-1.83
		c-1.24-1.24-1.86-2.76-1.86-4.56c0-1.8,0.61-3.31,1.83-4.53c1.24-1.24,2.76-1.86,4.561-1.86c1.979,0,3.63,0.78,4.949,2.34v-2.16
		h1.23v12.39H946.122z M944.832,186.765c-1.02-1.02-2.24-1.53-3.659-1.53c-1.44,0-2.66,0.5-3.66,1.5
		c-1.021,1.02-1.53,2.25-1.53,3.69c0,1.42,0.51,2.64,1.53,3.66c1.02,1.02,2.239,1.53,3.66,1.53c1.439,0,2.659-0.5,3.659-1.5
		c1.021-1.02,1.53-2.25,1.53-3.69C946.362,189.005,945.853,187.785,944.832,186.765z"/>
	<path opacity="0.7" d="M959.353,196.605v-7.41c0-2.62-1.181-3.93-3.54-3.93c-1.16,0-2.04,0.34-2.641,1.02
		c-0.62,0.68-0.93,1.61-0.93,2.79v7.53h-1.229v-12.39h1.229v1.5c0.56-1.1,1.75-1.65,3.57-1.65c1.54,0,2.72,0.44,3.54,1.32
		c0.819,0.88,1.229,2.11,1.229,3.69v7.53H959.353z"/>
	<path opacity="0.7" d="M974.503,200.745c-1.121,1.12-2.591,1.68-4.41,1.68c-3.381,0-5.4-1.33-6.061-3.99h1.23
		c0.22,0.979,0.85,1.71,1.89,2.19c0.82,0.38,1.8,0.57,2.94,0.57c1.54,0,2.729-0.43,3.569-1.29c0.86-0.86,1.29-2.06,1.29-3.6v-1.83
		c-1.3,1.56-2.95,2.34-4.949,2.34c-1.801,0-3.311-0.61-4.53-1.83c-1.24-1.24-1.86-2.76-1.86-4.56c0-1.8,0.61-3.31,1.83-4.53
		c1.24-1.24,2.76-1.86,4.561-1.86c1.979,0,3.63,0.78,4.949,2.34v-2.16h1.23v12.12C976.183,198.155,975.622,199.625,974.503,200.745z
		 M973.662,186.765c-1.02-1.02-2.24-1.53-3.659-1.53c-1.44,0-2.66,0.5-3.66,1.5c-1.021,1.02-1.53,2.25-1.53,3.69
		c0,1.42,0.51,2.64,1.53,3.66c1.02,1.02,2.239,1.53,3.66,1.53c1.439,0,2.659-0.5,3.659-1.5c1.021-1.02,1.53-2.25,1.53-3.69
		C975.192,189.005,974.683,187.785,973.662,186.765z"/>
	<path opacity="0.7" d="M980.082,190.155c0,1.68,0.45,3.011,1.351,3.99c0.939,1,2.229,1.5,3.87,1.5c0.84,0,1.6-0.14,2.279-0.42
		c0.86-0.36,1.63-1.09,2.311-2.19l1.109,0.51c-0.779,1.48-1.979,2.48-3.6,3c-0.62,0.2-1.32,0.3-2.1,0.3
		c-1.86,0-3.391-0.61-4.591-1.83c-1.22-1.22-1.83-2.75-1.83-4.59c0-1.86,0.601-3.39,1.801-4.59c1.22-1.22,2.76-1.83,4.62-1.83
		c1.84,0,3.359,0.57,4.56,1.71c1.22,1.14,1.83,2.621,1.83,4.44H980.082z M988.542,186.225c-0.94-0.68-2.02-1.02-3.239-1.02
		c-2.561,0-4.241,1.26-5.04,3.78h10.05C990.112,187.845,989.522,186.925,988.542,186.225z"/>
</g>
<g>
	<path opacity="0.7" d="M753.099,442.992c-0.32-0.24-0.66-0.43-1.021-0.57c-0.359-0.14-0.739-0.21-1.14-0.21
		c-0.34,0-0.66,0.105-0.96,0.315s-0.561,0.47-0.78,0.78c-0.22,0.311-0.395,0.655-0.524,1.035c-0.131,0.38-0.195,0.73-0.195,1.05
		v8.16h-1.229v-12.39h1.229v1.68c0.26-0.46,0.6-0.88,1.021-1.26c0.42-0.379,0.879-0.57,1.38-0.57c0.619,0,1.129,0.07,1.529,0.21
		c0.4,0.14,0.851,0.39,1.351,0.75L753.099,442.992z"/>
	<path opacity="0.7" d="M766.448,453.552v-2.22c-1.319,1.62-3,2.43-5.04,2.43c-1.8,0-3.31-0.61-4.529-1.83
		c-1.24-1.24-1.86-2.76-1.86-4.56c0-1.8,0.609-3.31,1.83-4.53c1.239-1.24,2.76-1.86,4.56-1.86c1.98,0,3.66,0.81,5.04,2.43v-12.06
		h1.23v22.2H766.448z M765.068,443.712c-1.02-1.02-2.24-1.53-3.66-1.53c-1.439,0-2.66,0.5-3.66,1.5
		c-1.02,1.02-1.529,2.25-1.529,3.69c0,1.42,0.51,2.64,1.529,3.66c1.021,1.02,2.24,1.53,3.66,1.53c1.44,0,2.66-0.5,3.66-1.5
		c1.021-1.02,1.53-2.25,1.53-3.69C766.599,445.953,766.089,444.732,765.068,443.712z"/>
	<path opacity="0.7" d="M776.049,432.582l-0.811-0.09c-1.12,0-1.68,0.66-1.68,1.98v6.69h2.939v1.23h-2.939v11.16h-1.23v-11.16h-1.68
		v-1.23h1.68v-7.05c0-1.9,0.96-2.85,2.88-2.85c0.44,0,0.721,0.02,0.841,0.06c0.239,0,0.51,0.07,0.81,0.21v1.23L776.049,432.582z"/>
	<path opacity="0.7" d="M785.559,452.772c-0.801,0.68-1.761,1.02-2.88,1.02c-1.921,0-3.36-0.87-4.32-2.61l1.05-0.63
		c0.34,0.62,0.75,1.1,1.23,1.44c0.499,0.38,1.18,0.57,2.04,0.57c1.879,0,2.819-0.799,2.819-2.4c0-0.7-0.33-1.31-0.99-1.83
		c-0.199-0.12-0.484-0.255-0.854-0.405s-0.825-0.325-1.365-0.525c-1-0.36-1.72-0.72-2.16-1.08c-0.64-0.52-0.96-1.27-0.96-2.25
		c0-0.84,0.32-1.56,0.96-2.16c0.62-0.62,1.43-0.93,2.431-0.93c1.38,0,2.55,0.48,3.51,1.44l-0.9,0.78
		c-0.68-0.68-1.55-1.02-2.609-1.02c-1.44,0-2.16,0.63-2.16,1.89c0,0.56,0.22,1.02,0.66,1.38c0.359,0.28,0.93,0.55,1.71,0.81
		c0.68,0.24,1.239,0.465,1.68,0.675c0.439,0.21,0.77,0.396,0.99,0.555c0.859,0.66,1.29,1.55,1.29,2.67
		C786.729,451.242,786.338,452.112,785.559,452.772z"/>
	<path opacity="0.7" d="M789.938,444.882c-0.22,0-0.449-0.09-0.689-0.27c-0.18-0.18-0.28-0.42-0.3-0.72c0-0.54,0.33-0.87,0.989-0.99
		c0.5,0,0.83,0.33,0.99,0.99C790.928,444.552,790.598,444.882,789.938,444.882z M789.938,453.732c-0.22,0-0.449-0.09-0.689-0.27
		c-0.18-0.18-0.28-0.42-0.3-0.72c0-0.54,0.33-0.87,0.989-0.99c0.5,0,0.83,0.33,0.99,0.99
		C790.928,453.402,790.598,453.732,789.938,453.732z"/>
	<path opacity="0.7" d="M800.138,442.992c-0.32-0.24-0.66-0.43-1.021-0.57c-0.359-0.14-0.739-0.21-1.14-0.21
		c-0.34,0-0.66,0.105-0.96,0.315s-0.561,0.47-0.78,0.78c-0.22,0.311-0.395,0.655-0.524,1.035c-0.131,0.38-0.195,0.73-0.195,1.05
		v8.16h-1.229v-12.39h1.229v1.68c0.26-0.46,0.6-0.88,1.021-1.26c0.42-0.379,0.879-0.57,1.38-0.57c0.619,0,1.129,0.07,1.529,0.21
		c0.4,0.14,0.851,0.39,1.351,0.75L800.138,442.992z"/>
	<path opacity="0.7" d="M813.397,453.552v-2.13c-1.3,1.56-2.95,2.34-4.949,2.34c-1.801,0-3.311-0.61-4.53-1.83
		c-1.24-1.24-1.86-2.76-1.86-4.56c0-1.8,0.61-3.31,1.83-4.53c1.24-1.24,2.76-1.86,4.561-1.86c1.979,0,3.63,0.78,4.949,2.34v-2.16
		h1.23v12.39H813.397z M812.107,443.712c-1.02-1.02-2.24-1.53-3.659-1.53c-1.44,0-2.66,0.5-3.66,1.5
		c-1.021,1.02-1.53,2.25-1.53,3.69c0,1.42,0.51,2.64,1.53,3.66c1.02,1.02,2.239,1.53,3.66,1.53c1.439,0,2.659-0.5,3.659-1.5
		c1.021-1.02,1.53-2.25,1.53-3.69C813.638,445.953,813.128,444.732,812.107,443.712z"/>
	<path opacity="0.7" d="M826.628,453.552v-7.41c0-2.62-1.181-3.93-3.54-3.93c-1.16,0-2.04,0.34-2.641,1.02
		c-0.62,0.68-0.93,1.61-0.93,2.79v7.53h-1.229v-12.39h1.229v1.5c0.56-1.1,1.75-1.65,3.57-1.65c1.54,0,2.72,0.44,3.54,1.32
		c0.819,0.88,1.229,2.11,1.229,3.69v7.53H826.628z"/>
	<path opacity="0.7" d="M841.778,457.692c-1.121,1.12-2.591,1.68-4.41,1.68c-3.381,0-5.4-1.33-6.061-3.99h1.23
		c0.22,0.979,0.85,1.71,1.89,2.19c0.82,0.38,1.8,0.57,2.94,0.57c1.54,0,2.729-0.43,3.569-1.29c0.86-0.86,1.29-2.06,1.29-3.6v-1.83
		c-1.3,1.56-2.95,2.34-4.949,2.34c-1.801,0-3.311-0.61-4.53-1.83c-1.24-1.24-1.86-2.76-1.86-4.56c0-1.8,0.61-3.31,1.83-4.53
		c1.24-1.24,2.76-1.86,4.561-1.86c1.979,0,3.63,0.78,4.949,2.34v-2.16h1.23v12.12C843.458,455.102,842.897,456.572,841.778,457.692z
		 M840.938,443.712c-1.02-1.02-2.24-1.53-3.659-1.53c-1.44,0-2.66,0.5-3.66,1.5c-1.021,1.02-1.53,2.25-1.53,3.69
		c0,1.42,0.51,2.64,1.53,3.66c1.02,1.02,2.239,1.53,3.66,1.53c1.439,0,2.659-0.5,3.659-1.5c1.021-1.02,1.53-2.25,1.53-3.69
		C842.468,445.953,841.958,444.732,840.938,443.712z"/>
	<path opacity="0.7" d="M847.357,447.102c0,1.68,0.45,3.011,1.351,3.99c0.939,1,2.229,1.5,3.87,1.5c0.84,0,1.6-0.14,2.279-0.42
		c0.86-0.36,1.63-1.09,2.311-2.19l1.109,0.51c-0.779,1.48-1.979,2.48-3.6,3c-0.62,0.2-1.32,0.3-2.1,0.3
		c-1.86,0-3.391-0.61-4.591-1.83c-1.22-1.22-1.83-2.75-1.83-4.59c0-1.86,0.601-3.39,1.801-4.59c1.22-1.22,2.76-1.83,4.62-1.83
		c1.84,0,3.359,0.57,4.56,1.71c1.22,1.14,1.83,2.621,1.83,4.44H847.357z M855.817,443.172c-0.94-0.68-2.02-1.02-3.239-1.02
		c-2.561,0-4.241,1.26-5.04,3.78h10.05C857.388,444.792,856.798,443.873,855.817,443.172z"/>
</g>
<g>
	<path opacity="0.7" d="M652.493,293.904c-0.32-0.24-0.66-0.43-1.021-0.57c-0.359-0.14-0.739-0.21-1.14-0.21
		c-0.34,0-0.66,0.105-0.96,0.315s-0.561,0.47-0.78,0.78c-0.22,0.311-0.395,0.655-0.524,1.035c-0.131,0.38-0.195,0.73-0.195,1.05
		v8.16h-1.229v-12.39h1.229v1.68c0.26-0.46,0.6-0.88,1.021-1.26c0.42-0.379,0.879-0.57,1.38-0.57c0.619,0,1.129,0.07,1.529,0.21
		c0.4,0.14,0.851,0.39,1.351,0.75L652.493,293.904z"/>
	<path opacity="0.7" d="M665.843,304.464v-2.22c-1.319,1.62-3,2.43-5.04,2.43c-1.8,0-3.31-0.61-4.529-1.83
		c-1.24-1.24-1.86-2.76-1.86-4.56c0-1.8,0.609-3.31,1.83-4.53c1.239-1.24,2.76-1.86,4.56-1.86c1.98,0,3.66,0.81,5.04,2.43v-12.06
		h1.23v22.2H665.843z M664.463,294.625c-1.02-1.02-2.24-1.53-3.66-1.53c-1.439,0-2.66,0.5-3.66,1.5
		c-1.02,1.02-1.529,2.25-1.529,3.69c0,1.42,0.51,2.64,1.529,3.66c1.021,1.02,2.24,1.53,3.66,1.53c1.44,0,2.66-0.5,3.66-1.5
		c1.021-1.02,1.53-2.25,1.53-3.69C665.993,296.865,665.483,295.645,664.463,294.625z"/>
	<path opacity="0.7" d="M675.443,283.494l-0.811-0.09c-1.12,0-1.68,0.66-1.68,1.98v6.69h2.939v1.23h-2.939v11.16h-1.23v-11.16h-1.68
		v-1.23h1.68v-7.05c0-1.9,0.96-2.85,2.88-2.85c0.44,0,0.721,0.02,0.841,0.06c0.239,0,0.51,0.07,0.81,0.21v1.23L675.443,283.494z"/>
	<path opacity="0.7" d="M684.953,303.685c-0.801,0.68-1.761,1.02-2.88,1.02c-1.921,0-3.36-0.87-4.32-2.61l1.05-0.63
		c0.34,0.62,0.75,1.1,1.23,1.44c0.499,0.38,1.18,0.57,2.04,0.57c1.879,0,2.819-0.799,2.819-2.4c0-0.7-0.33-1.31-0.99-1.83
		c-0.199-0.12-0.484-0.255-0.854-0.405s-0.825-0.325-1.365-0.525c-1-0.36-1.72-0.72-2.16-1.08c-0.64-0.52-0.96-1.27-0.96-2.25
		c0-0.84,0.32-1.56,0.96-2.16c0.62-0.62,1.43-0.93,2.431-0.93c1.38,0,2.55,0.48,3.51,1.44l-0.9,0.78
		c-0.68-0.68-1.55-1.02-2.609-1.02c-1.44,0-2.16,0.63-2.16,1.89c0,0.56,0.22,1.02,0.66,1.38c0.359,0.28,0.93,0.55,1.71,0.81
		c0.68,0.24,1.239,0.465,1.68,0.675c0.439,0.21,0.77,0.396,0.99,0.555c0.859,0.66,1.29,1.55,1.29,2.67
		C686.123,302.154,685.732,303.024,684.953,303.685z"/>
	<path opacity="0.7" d="M689.332,295.794c-0.22,0-0.449-0.09-0.689-0.27c-0.18-0.18-0.28-0.42-0.3-0.72c0-0.54,0.33-0.87,0.989-0.99
		c0.5,0,0.83,0.33,0.99,0.99C690.322,295.464,689.992,295.794,689.332,295.794z M689.332,304.645c-0.22,0-0.449-0.09-0.689-0.27
		c-0.18-0.18-0.28-0.42-0.3-0.72c0-0.54,0.33-0.87,0.989-0.99c0.5,0,0.83,0.33,0.99,0.99
		C690.322,304.314,689.992,304.645,689.332,304.645z"/>
	<path opacity="0.7" d="M699.772,303.685c-0.801,0.68-1.761,1.02-2.88,1.02c-1.921,0-3.36-0.87-4.32-2.61l1.05-0.63
		c0.34,0.62,0.75,1.1,1.23,1.44c0.499,0.38,1.18,0.57,2.04,0.57c1.879,0,2.819-0.799,2.819-2.4c0-0.7-0.33-1.31-0.99-1.83
		c-0.199-0.12-0.484-0.255-0.854-0.405s-0.825-0.325-1.365-0.525c-1-0.36-1.72-0.72-2.16-1.08c-0.64-0.52-0.96-1.27-0.96-2.25
		c0-0.84,0.32-1.56,0.96-2.16c0.62-0.62,1.43-0.93,2.431-0.93c1.38,0,2.55,0.48,3.51,1.44l-0.9,0.78
		c-0.68-0.68-1.55-1.02-2.609-1.02c-1.44,0-2.16,0.63-2.16,1.89c0,0.56,0.22,1.02,0.66,1.38c0.359,0.28,0.93,0.55,1.71,0.81
		c0.68,0.24,1.239,0.465,1.68,0.675c0.439,0.21,0.77,0.396,0.99,0.555c0.859,0.66,1.29,1.55,1.29,2.67
		C700.942,302.154,700.552,303.024,699.772,303.685z"/>
	<path opacity="0.7" d="M711.502,303.384c-0.82,0.88-1.971,1.32-3.45,1.32c-1.46,0-2.59-0.43-3.39-1.29
		c-0.801-0.86-1.2-2.06-1.2-3.6v-7.74h1.229v7.74c0,1.18,0.26,2.09,0.78,2.73c0.54,0.64,1.399,0.96,2.58,0.96
		c2.3,0,3.45-1.23,3.45-3.69v-7.74h1.2v7.74C712.702,301.334,712.302,302.525,711.502,303.384z"/>
	<path opacity="0.7" d="M727.012,302.814c-1.24,1.24-2.76,1.86-4.56,1.86c-2.061,0-3.75-0.83-5.07-2.49v2.28h-1.229v-22.2h1.229
		v12.12c1.3-1.66,2.99-2.49,5.07-2.49c1.8,0,3.31,0.61,4.53,1.83c1.239,1.241,1.859,2.76,1.859,4.56
		C728.842,300.084,728.231,301.595,727.012,302.814z M726.112,294.625c-1.021-1.02-2.24-1.53-3.66-1.53c-1.44,0-2.66,0.5-3.66,1.5
		c-1.021,1.02-1.53,2.25-1.53,3.69c0,1.42,0.51,2.64,1.53,3.66c1.02,1.02,2.239,1.53,3.66,1.53c1.439,0,2.659-0.5,3.66-1.5
		c1.02-1.02,1.529-2.25,1.529-3.69C727.642,296.865,727.132,295.645,726.112,294.625z"/>
	<path opacity="0.7" d="M739.792,292.254c-1.12,1-2.5,1.5-4.14,1.5h-4.02v10.71h-1.2v-21.42h5.22c1.64,0,3.02,0.48,4.14,1.44
		s1.681,2.25,1.681,3.87C741.473,289.995,740.912,291.294,739.792,292.254z M738.862,285.294c-0.82-0.68-1.9-1.02-3.24-1.02h-3.989
		v8.25h3.989c1.32,0,2.42-0.36,3.3-1.08c0.88-0.76,1.32-1.79,1.32-3.09C740.242,287.055,739.782,286.035,738.862,285.294z"/>
	<path opacity="0.7" d="M748.612,293.904c-0.32-0.24-0.66-0.43-1.021-0.57c-0.359-0.14-0.739-0.21-1.14-0.21
		c-0.34,0-0.66,0.105-0.96,0.315s-0.561,0.47-0.78,0.78c-0.22,0.311-0.395,0.655-0.524,1.035c-0.131,0.38-0.195,0.73-0.195,1.05
		v8.16h-1.229v-12.39h1.229v1.68c0.26-0.46,0.6-0.88,1.021-1.26c0.42-0.379,0.879-0.57,1.38-0.57c0.619,0,1.129,0.07,1.529,0.21
		c0.4,0.14,0.851,0.39,1.351,0.75L748.612,293.904z"/>
	<path opacity="0.7" d="M760.192,302.814c-1.24,1.24-2.76,1.86-4.56,1.86c-1.801,0-3.311-0.61-4.53-1.83
		c-1.24-1.24-1.86-2.76-1.86-4.56c0-1.78,0.62-3.29,1.86-4.53c1.22-1.26,2.729-1.89,4.53-1.89c1.779,0,3.289,0.62,4.529,1.86
		c1.24,1.241,1.86,2.76,1.86,4.56C762.022,300.084,761.412,301.595,760.192,302.814z M759.322,294.594c-1-1.02-2.23-1.53-3.689-1.53
		c-1.4,0-2.61,0.52-3.631,1.56c-1.04,1.04-1.56,2.26-1.56,3.66c0,1.42,0.51,2.64,1.53,3.66c1.02,1.02,2.239,1.53,3.66,1.53
		c1.439,0,2.659-0.5,3.659-1.5c1.021-1.02,1.53-2.25,1.53-3.69C760.822,296.825,760.322,295.595,759.322,294.594z"/>
	<path opacity="0.7" d="M775.941,302.814c-1.24,1.24-2.76,1.86-4.56,1.86c-2.061,0-3.761-0.84-5.1-2.52v8.13h-1.23v-18.21h1.23v2.34
		c1.279-1.68,2.979-2.52,5.1-2.52c1.8,0,3.31,0.61,4.53,1.83c1.239,1.241,1.859,2.76,1.859,4.56
		C777.771,300.084,777.161,301.595,775.941,302.814z M775.042,294.625c-1.021-1.02-2.24-1.53-3.66-1.53c-1.44,0-2.66,0.5-3.66,1.5
		c-1.02,1.02-1.53,2.25-1.53,3.69c0,1.42,0.511,2.64,1.53,3.66c1.021,1.02,2.24,1.53,3.66,1.53c1.44,0,2.66-0.5,3.66-1.5
		c1.02-1.02,1.53-2.25,1.53-3.69C776.572,296.865,776.062,295.645,775.042,294.625z"/>
	<path opacity="0.7" d="M780.741,298.014c0,1.68,0.45,3.011,1.351,3.99c0.939,1,2.229,1.5,3.87,1.5c0.84,0,1.6-0.14,2.279-0.42
		c0.86-0.36,1.63-1.09,2.311-2.19l1.109,0.51c-0.779,1.48-1.979,2.48-3.6,3c-0.62,0.2-1.32,0.3-2.1,0.3
		c-1.86,0-3.391-0.61-4.591-1.83c-1.22-1.22-1.83-2.75-1.83-4.59c0-1.86,0.601-3.39,1.801-4.59c1.22-1.22,2.76-1.83,4.62-1.83
		c1.84,0,3.359,0.57,4.56,1.71c1.22,1.14,1.83,2.621,1.83,4.44H780.741z M789.201,294.084c-0.94-0.68-2.02-1.02-3.239-1.02
		c-2.561,0-4.241,1.26-5.04,3.78h10.05C790.771,295.705,790.182,294.785,789.201,294.084z"/>
	<path opacity="0.7" d="M801.051,293.904c-0.32-0.24-0.66-0.43-1.021-0.57c-0.359-0.14-0.739-0.21-1.14-0.21
		c-0.34,0-0.66,0.105-0.96,0.315s-0.561,0.47-0.78,0.78c-0.22,0.311-0.395,0.655-0.524,1.035c-0.131,0.38-0.195,0.73-0.195,1.05
		v8.16h-1.229v-12.39h1.229v1.68c0.26-0.46,0.6-0.88,1.021-1.26c0.42-0.379,0.879-0.57,1.38-0.57c0.619,0,1.129,0.07,1.529,0.21
		c0.4,0.14,0.851,0.39,1.351,0.75L801.051,293.904z"/>
	<path opacity="0.7" d="M806.361,293.304v11.16h-1.229v-11.16h-1.681v-1.23h1.681v-5.43h1.229v5.43h2.88v1.23H806.361z"/>
	<path opacity="0.7" d="M814.252,310.284h-1.381l3.21-6.96l-5.22-11.25h1.32l4.62,9.78l4.56-9.78h1.351L814.252,310.284z"/>
	<path opacity="0.7" d="M843.831,301.674c-2.061,2.06-4.71,3.09-7.95,3.09s-5.88-1.02-7.92-3.06c-2.06-2.06-3.09-4.71-3.09-7.95
		c0-3.24,1.02-5.88,3.06-7.92c2.061-2.06,4.71-3.09,7.95-3.09c3.22,0,5.87,1.02,7.95,3.06c2.06,2.061,3.09,4.71,3.09,7.95
		C846.921,296.994,845.891,299.634,843.831,301.674z M842.961,286.705c-1.84-1.84-4.2-2.76-7.08-2.76c-2.84,0-5.18,0.92-7.02,2.76
		c-1.841,1.84-2.76,4.19-2.76,7.05c0,2.86,0.909,5.2,2.729,7.02c1.84,1.84,4.189,2.76,7.05,2.76c2.88,0,5.24-0.9,7.08-2.7
		c1.82-1.82,2.73-4.18,2.73-7.08C845.691,290.875,844.781,288.524,842.961,286.705z"/>
	<path opacity="0.7" d="M854.721,283.494l-0.811-0.09c-1.12,0-1.68,0.66-1.68,1.98v6.69h2.939v1.23h-2.939v11.16H851v-11.16h-1.68
		v-1.23H851v-7.05c0-1.9,0.96-2.85,2.88-2.85c0.44,0,0.721,0.02,0.841,0.06c0.239,0,0.51,0.07,0.81,0.21v1.23L854.721,283.494z"/>
</g>
<g>
	<g>
		<path d="M679.067,606.821l-1.224-0.136c-1.691,0-2.537,0.996-2.537,2.989v10.103h4.439v1.857h-4.439v16.852h-1.857v-16.852h-2.536
			v-1.857h2.536v-10.646c0-2.869,1.45-4.304,4.35-4.304c0.664,0,1.087,0.03,1.269,0.091c0.362,0,0.77,0.105,1.223,0.316v1.857
			L679.067,606.821z"/>
		<path d="M693.427,637.308c-1.208,1.027-2.657,1.54-4.349,1.54c-2.899,0-5.073-1.313-6.523-3.941l1.586-0.951
			c0.513,0.937,1.133,1.661,1.857,2.175c0.754,0.574,1.781,0.86,3.08,0.86c2.839,0,4.259-1.207,4.259-3.624
			c0-1.057-0.499-1.978-1.495-2.764c-0.303-0.181-0.732-0.385-1.291-0.611c-0.56-0.227-1.246-0.49-2.062-0.793
			c-1.511-0.543-2.598-1.087-3.262-1.631c-0.967-0.784-1.449-1.917-1.449-3.397c0-1.268,0.482-2.355,1.449-3.262
			c0.936-0.936,2.159-1.404,3.67-1.404c2.083,0,3.851,0.726,5.3,2.175l-1.359,1.178c-1.026-1.026-2.341-1.54-3.94-1.54
			c-2.175,0-3.262,0.951-3.262,2.854c0,0.847,0.332,1.541,0.996,2.084c0.544,0.424,1.404,0.831,2.582,1.224
			c1.026,0.362,1.872,0.702,2.537,1.019c0.664,0.317,1.162,0.597,1.495,0.839c1.298,0.996,1.947,2.341,1.947,4.031
			C695.193,634.998,694.604,636.311,693.427,637.308z"/>
		<path d="M714.355,635.995c-1.873,1.873-4.168,2.809-6.886,2.809s-4.998-0.921-6.84-2.764c-1.873-1.872-2.809-4.168-2.809-6.886
			c0-2.688,0.936-4.968,2.809-6.841c1.842-1.902,4.122-2.854,6.84-2.854c2.688,0,4.968,0.937,6.841,2.809
			c1.872,1.873,2.809,4.168,2.809,6.886S716.197,634.153,714.355,635.995z M713.042,623.582c-1.511-1.54-3.368-2.31-5.572-2.31
			c-2.114,0-3.941,0.785-5.481,2.355c-1.57,1.57-2.355,3.413-2.355,5.526c0,2.145,0.771,3.986,2.311,5.526
			c1.54,1.541,3.382,2.311,5.526,2.311c2.175,0,4.017-0.754,5.527-2.265c1.54-1.54,2.31-3.397,2.31-5.572
			C715.307,626.95,714.552,625.092,713.042,623.582z"/>
		<path d="M722.601,625.394c-0.333,0-0.68-0.136-1.042-0.408c-0.272-0.271-0.424-0.634-0.453-1.087c0-0.815,0.498-1.313,1.495-1.495
			c0.754,0,1.253,0.499,1.494,1.495C724.095,624.896,723.597,625.394,722.601,625.394z M722.601,638.757
			c-0.333,0-0.68-0.136-1.042-0.407c-0.272-0.271-0.424-0.635-0.453-1.087c0-0.815,0.498-1.314,1.495-1.495
			c0.754,0,1.253,0.498,1.494,1.495C724.095,638.259,723.597,638.757,722.601,638.757z"/>
		<path d="M742.487,638.531v-11.279c0-3.956-1.843-5.935-5.527-5.935c-1.51,0-2.809,0.453-3.896,1.359
			c-1.118,0.905-1.676,2.114-1.676,3.624v12.186h-1.857v-33.522h1.857v17.305c1.116-1.842,2.974-2.764,5.571-2.764
			c4.923,0,7.385,2.522,7.385,7.565v11.461H742.487z"/>
		<path d="M750.188,628.747c0,2.536,0.68,4.545,2.038,6.024c1.419,1.511,3.367,2.266,5.844,2.266c1.269,0,2.416-0.211,3.443-0.635
			c1.298-0.544,2.461-1.646,3.488-3.307l1.676,0.77c-1.178,2.235-2.99,3.745-5.437,4.53c-0.937,0.302-1.993,0.453-3.171,0.453
			c-2.809,0-5.119-0.921-6.931-2.764c-1.843-1.842-2.764-4.151-2.764-6.931c0-2.809,0.906-5.119,2.718-6.931
			c1.842-1.842,4.168-2.764,6.977-2.764c2.778,0,5.074,0.86,6.886,2.582c1.842,1.722,2.764,3.957,2.764,6.705H750.188z
			 M762.962,622.812c-1.42-1.026-3.051-1.54-4.893-1.54c-3.866,0-6.402,1.902-7.61,5.707h15.176
			C765.333,625.258,764.441,623.87,762.962,622.812z"/>
		<path d="M787.741,638.486v-3.217c-1.963,2.356-4.455,3.534-7.475,3.534c-2.718,0-4.998-0.921-6.84-2.764
			c-1.873-1.872-2.809-4.168-2.809-6.886s0.921-4.998,2.763-6.841c1.872-1.872,4.168-2.809,6.886-2.809
			c2.99,0,5.481,1.179,7.475,3.534v-3.262h1.857v18.709H787.741z M785.794,623.627c-1.541-1.54-3.383-2.311-5.527-2.311
			c-2.174,0-4.017,0.755-5.526,2.265c-1.54,1.541-2.311,3.397-2.311,5.572c0,2.145,0.771,3.986,2.311,5.526
			c1.54,1.541,3.382,2.311,5.526,2.311c2.175,0,4.017-0.754,5.527-2.265c1.54-1.54,2.31-3.397,2.31-5.572
			C788.104,627.01,787.334,625.167,785.794,623.627z"/>
		<path d="M797.934,621.634v16.852h-1.857v-16.852h-2.537v-1.857h2.537v-8.199h1.857v8.199h4.349v1.857H797.934z"/>
		<path d="M806.813,628.747c0,2.536,0.68,4.545,2.038,6.024c1.419,1.511,3.367,2.266,5.844,2.266c1.269,0,2.416-0.211,3.443-0.635
			c1.298-0.544,2.461-1.646,3.488-3.307l1.676,0.77c-1.178,2.235-2.99,3.745-5.437,4.53c-0.937,0.302-1.993,0.453-3.171,0.453
			c-2.809,0-5.119-0.921-6.931-2.764c-1.843-1.842-2.764-4.151-2.764-6.931c0-2.809,0.906-5.119,2.718-6.931
			c1.842-1.842,4.168-2.764,6.977-2.764c2.778,0,5.074,0.86,6.886,2.582c1.842,1.722,2.764,3.957,2.764,6.705H806.813z
			 M819.587,622.812c-1.42-1.026-3.051-1.54-4.893-1.54c-3.866,0-6.402,1.902-7.61,5.707h15.176
			C821.958,625.258,821.066,623.87,819.587,622.812z"/>
		<path d="M844.864,638.486v-3.353c-1.993,2.446-4.529,3.67-7.61,3.67c-2.718,0-4.998-0.921-6.84-2.764
			c-1.873-1.872-2.809-4.168-2.809-6.886s0.921-4.998,2.763-6.841c1.872-1.872,4.168-2.809,6.886-2.809
			c2.99,0,5.527,1.224,7.61,3.67v-18.211h1.857v33.522H844.864z M842.781,623.627c-1.541-1.54-3.383-2.311-5.527-2.311
			c-2.174,0-4.017,0.755-5.526,2.265c-1.54,1.541-2.311,3.397-2.311,5.572c0,2.145,0.771,3.986,2.311,5.526
			c1.54,1.541,3.382,2.311,5.526,2.311c2.175,0,4.017-0.754,5.527-2.265c1.54-1.54,2.31-3.397,2.31-5.572
			C845.091,627.01,844.321,625.167,842.781,623.627z"/>
		<path d="M870.007,635.858c-1.964,1.752-4.365,2.628-7.203,2.628h-10.103v-32.345h7.883c2.507,0,4.5,0.649,5.979,1.948
			c1.57,1.389,2.355,3.322,2.355,5.798c0,2.84-1.162,4.923-3.487,6.252c2.265,0.453,4.092,1.479,5.48,3.08
			c1.359,1.602,2.039,3.564,2.039,5.89C872.951,631.887,871.97,634.137,870.007,635.858z M865.25,609.629
			c-1.238-1.087-2.748-1.631-4.53-1.631h-6.206v11.778h6.478c1.752,0,3.201-0.544,4.35-1.631c1.147-1.088,1.721-2.507,1.721-4.259
			C867.062,612.076,866.457,610.657,865.25,609.629z M868.647,623.627c-1.54-1.329-3.474-1.993-5.799-1.993h-8.335v14.994h8.335
			c2.295,0,4.243-0.694,5.844-2.084c1.631-1.389,2.446-3.2,2.446-5.436C871.139,626.843,870.308,625.017,868.647,623.627z"/>
		<path d="M878.523,647.274h-2.084l4.847-10.51l-7.882-16.987h1.993l6.977,14.768l6.886-14.768h2.038L878.523,647.274z"/>
	</g>
</g>
<g>
	<g>
		<path d="M486.785,622.142l-3.715-9.694h-14.723l-3.76,9.694h-1.813l12.911-33.387l12.956,33.387H486.785z M475.687,593.466
			l-6.614,17.124H482.3L475.687,593.466z"/>
		<path d="M508.711,619.514c-1.964,1.752-4.365,2.628-7.203,2.628h-10.103v-32.345h7.883c2.507,0,4.5,0.649,5.979,1.948
			c1.57,1.389,2.355,3.322,2.355,5.798c0,2.84-1.162,4.923-3.487,6.252c2.265,0.453,4.092,1.479,5.48,3.08
			c1.359,1.602,2.039,3.564,2.039,5.89C511.655,615.543,510.674,617.793,508.711,619.514z M503.954,593.286
			c-1.238-1.087-2.748-1.631-4.53-1.631h-6.206v11.778h6.478c1.752,0,3.201-0.544,4.35-1.631c1.147-1.088,1.721-2.507,1.721-4.259
			C505.766,595.732,505.161,594.313,503.954,593.286z M507.352,607.284c-1.54-1.329-3.474-1.993-5.799-1.993h-8.335v14.994h8.335
			c2.295,0,4.243-0.694,5.844-2.084c1.631-1.389,2.446-3.2,2.446-5.436C509.843,610.5,509.012,608.673,507.352,607.284z"/>
		<path d="M531.405,619.651c-1.873,1.873-4.168,2.809-6.886,2.809s-4.998-0.921-6.84-2.764c-1.873-1.872-2.809-4.168-2.809-6.886
			c0-2.688,0.936-4.968,2.809-6.841c1.842-1.902,4.122-2.854,6.84-2.854c2.688,0,4.968,0.937,6.841,2.809
			c1.872,1.873,2.809,4.168,2.809,6.886S533.247,617.809,531.405,619.651z M530.092,607.238c-1.511-1.54-3.368-2.31-5.572-2.31
			c-2.114,0-3.941,0.785-5.481,2.355c-1.57,1.57-2.355,3.413-2.355,5.526c0,2.145,0.771,3.986,2.311,5.526
			c1.54,1.541,3.382,2.311,5.526,2.311c2.175,0,4.017-0.754,5.527-2.265c1.54-1.54,2.31-3.397,2.31-5.572
			C532.356,610.606,531.602,608.749,530.092,607.238z"/>
		<path d="M547.034,622.142l-5.3-7.837l-5.301,7.837h-2.22l6.388-9.423l-6.252-9.286h2.175l5.21,7.746l5.164-7.746h2.174
			l-6.206,9.241l6.343,9.468H547.034z"/>
	</g>
</g>
<g>
	<g>
		<path d="M472.425,529.217v30.487h-1.857v-30.487h-7.158v-1.857h16.173v1.857H472.425z"/>
		<path d="M499.56,557.077c-1.964,1.752-4.365,2.628-7.203,2.628h-10.103V527.36h7.883c2.507,0,4.5,0.65,5.979,1.948
			c1.57,1.39,2.355,3.323,2.355,5.799c0,2.839-1.162,4.923-3.487,6.251c2.265,0.453,4.092,1.48,5.48,3.08
			c1.359,1.602,2.039,3.564,2.039,5.889C502.504,553.106,501.522,555.356,499.56,557.077z M494.803,530.848
			c-1.238-1.087-2.748-1.631-4.53-1.631h-6.206v11.778h6.478c1.752,0,3.201-0.544,4.35-1.631c1.147-1.087,1.721-2.507,1.721-4.258
			C496.614,533.294,496.01,531.875,494.803,530.848z M498.2,544.846c-1.54-1.328-3.474-1.994-5.799-1.994h-8.335v14.995h8.335
			c2.295,0,4.243-0.694,5.844-2.084c1.631-1.389,2.446-3.2,2.446-5.437C500.691,548.063,499.86,546.235,498.2,544.846z"/>
		<path d="M522.255,557.213c-1.873,1.873-4.168,2.809-6.886,2.809s-4.998-0.922-6.84-2.764c-1.873-1.872-2.809-4.168-2.809-6.886
			c0-2.688,0.936-4.968,2.809-6.841c1.842-1.902,4.122-2.854,6.84-2.854c2.688,0,4.968,0.937,6.841,2.809
			c1.872,1.873,2.809,4.168,2.809,6.886S524.097,555.372,522.255,557.213z M520.941,544.801c-1.511-1.541-3.368-2.311-5.572-2.311
			c-2.114,0-3.941,0.785-5.481,2.355c-1.57,1.57-2.355,3.413-2.355,5.526c0,2.146,0.771,3.986,2.311,5.526
			c1.54,1.541,3.382,2.311,5.526,2.311c2.175,0,4.017-0.754,5.527-2.265c1.54-1.54,2.31-3.397,2.31-5.572
			C523.206,548.168,522.451,546.311,520.941,544.801z"/>
		<path d="M537.884,559.705l-5.3-7.837l-5.301,7.837h-2.22l6.388-9.423l-6.252-9.286h2.175l5.21,7.746l5.164-7.746h2.174
			l-6.206,9.241l6.343,9.468H537.884z"/>
	</g>
</g>
<g>
	<g>
		
			<line fill="none" stroke="#000000" stroke-width="1.51" stroke-miterlimit="10" x1="813.293" y1="215.199" x2="987.686" y2="215.199"/>
		<g>
			<polygon points="981.324,223.586 984.888,215.199 981.324,206.811 1001.207,215.199 			"/>
		</g>
	</g>
</g>
<g>
	<g>
		<path fill="none" stroke="#000000" stroke-width="1.51" stroke-miterlimit="10" d="M756.086,362.851
			c158.284,0,77.992,92.762,231.601,97.835"/>
		<g>
			<polygon points="981.169,468.912 984.891,460.593 981.486,452.14 1001.207,460.902 			"/>
		</g>
	</g>
</g>
<g>
	<g>
		
			<line fill="none" stroke="#000000" stroke-width="1.51" stroke-miterlimit="10" x1="637.031" y1="341.007" x2="637.031" y2="258.068"/>
		<g>
			<polygon points="645.419,264.429 637.031,260.866 628.644,264.429 637.031,244.546 			"/>
		</g>
	</g>
</g>
<g>
	<g>
		<line fill="none" stroke="#000000" stroke-miterlimit="10" x1="451.379" y1="576.722" x2="458.879" y2="576.722"/>
		
			<line fill="none" stroke="#000000" stroke-miterlimit="10" stroke-dasharray="15.0326,15.0326" x1="473.911" y1="576.722" x2="1428.483" y2="576.722"/>
		<line fill="none" stroke="#000000" stroke-miterlimit="10" x1="1436" y1="576.722" x2="1443.5" y2="576.722"/>
	</g>
</g>
<g>
	<path d="M490.077,224.848c-1.873,1.873-4.168,2.809-6.886,2.809c-3.111,0-5.663-1.252-7.656-3.76v3.443h-1.857v-33.522h1.857
		v18.301c1.963-2.506,4.515-3.76,7.656-3.76c2.718,0,4.998,0.921,6.84,2.763c1.873,1.873,2.809,4.168,2.809,6.886
		C492.84,220.726,491.919,223.006,490.077,224.848z M488.718,212.48c-1.54-1.54-3.383-2.31-5.526-2.31
		c-2.175,0-4.017,0.755-5.527,2.265c-1.54,1.54-2.31,3.397-2.31,5.572c0,2.145,0.77,3.986,2.31,5.527
		c1.541,1.54,3.383,2.31,5.527,2.31c2.174,0,4.016-0.754,5.526-2.265c1.54-1.541,2.311-3.398,2.311-5.572
		C491.028,215.863,490.258,214.021,488.718,212.48z"/>
	<path d="M512.728,224.848c-1.873,1.873-4.168,2.809-6.886,2.809s-4.998-0.921-6.84-2.763c-1.873-1.872-2.809-4.167-2.809-6.886
		c0-2.688,0.936-4.967,2.809-6.84c1.842-1.903,4.122-2.854,6.84-2.854c2.688,0,4.968,0.937,6.841,2.809
		c1.872,1.873,2.809,4.168,2.809,6.886C515.491,220.726,514.569,223.006,512.728,224.848z M511.414,212.436
		c-1.511-1.541-3.368-2.311-5.572-2.311c-2.114,0-3.941,0.786-5.481,2.355c-1.57,1.571-2.355,3.414-2.355,5.527
		c0,2.145,0.771,3.986,2.311,5.527c1.54,1.54,3.382,2.31,5.526,2.31c2.175,0,4.017-0.754,5.527-2.265
		c1.54-1.541,2.31-3.398,2.31-5.572C513.679,215.803,512.924,213.946,511.414,212.436z"/>
	<path d="M522.965,210.487v16.852h-1.857v-16.852h-2.537v-1.857h2.537v-8.2h1.857v8.2h4.349v1.857H522.965z"/>
	<path d="M532.297,214.248c-0.333,0-0.68-0.136-1.042-0.408c-0.272-0.272-0.424-0.634-0.453-1.087c0-0.815,0.498-1.313,1.495-1.495
		c0.754,0,1.253,0.498,1.494,1.495C533.791,213.749,533.293,214.248,532.297,214.248z M532.297,227.611
		c-0.333,0-0.68-0.136-1.042-0.408c-0.272-0.272-0.424-0.634-0.453-1.087c0-0.815,0.498-1.313,1.495-1.495
		c0.754,0,1.253,0.499,1.494,1.495C533.791,227.113,533.293,227.611,532.297,227.611z"/>
	<path d="M547.698,227.702c-2.778,0-5.089-0.921-6.931-2.763c-1.843-1.842-2.764-4.152-2.764-6.931c0-2.778,0.921-5.088,2.764-6.931
		c1.842-1.841,4.152-2.763,6.931-2.763c2.386,0,4.288,0.543,5.708,1.631v2.22l-1.178-0.77l-1.269-0.68
		c-1.147-0.392-2.235-0.589-3.262-0.589c-2.325,0-4.213,0.725-5.662,2.174c-1.48,1.48-2.22,3.383-2.22,5.708
		c0,2.295,0.739,4.183,2.22,5.663c1.479,1.48,3.367,2.22,5.662,2.22c2.175,0,4.077-0.725,5.708-2.174v2.31
		C551.715,227.143,549.813,227.702,547.698,227.702z"/>
	<path d="M571.028,224.848c-1.873,1.873-4.168,2.809-6.886,2.809s-4.998-0.921-6.84-2.763c-1.873-1.872-2.809-4.167-2.809-6.886
		c0-2.688,0.936-4.967,2.809-6.84c1.842-1.903,4.122-2.854,6.84-2.854c2.688,0,4.968,0.937,6.841,2.809
		c1.872,1.873,2.809,4.168,2.809,6.886C573.792,220.726,572.87,223.006,571.028,224.848z M569.715,212.436
		c-1.511-1.541-3.368-2.311-5.572-2.311c-2.114,0-3.941,0.786-5.481,2.355c-1.57,1.571-2.355,3.414-2.355,5.527
		c0,2.145,0.771,3.986,2.311,5.527c1.54,1.54,3.382,2.31,5.526,2.31c2.175,0,4.017-0.754,5.527-2.265
		c1.54-1.541,2.31-3.398,2.31-5.572C571.979,215.803,571.225,213.946,569.715,212.436z"/>
	<path d="M591.05,227.339V216.15c0-3.956-1.782-5.934-5.345-5.934c-1.752,0-3.081,0.514-3.986,1.54
		c-0.937,1.027-1.404,2.432-1.404,4.213v11.371h-1.857V208.63h1.857v2.265c0.845-1.66,2.642-2.491,5.391-2.491
		c2.325,0,4.106,0.665,5.345,1.993c1.238,1.329,1.857,3.187,1.857,5.572v11.371H591.05z"/>
	<path d="M601.695,210.487v16.852h-1.857v-16.852h-2.537v-1.857h2.537v-8.2h1.857v8.2h4.349v1.857H601.695z"/>
	<path d="M623.802,227.339v-3.216c-1.963,2.355-4.455,3.533-7.475,3.533c-2.718,0-4.998-0.921-6.84-2.763
		c-1.873-1.872-2.809-4.167-2.809-6.886c0-2.718,0.921-4.998,2.763-6.84c1.872-1.872,4.168-2.809,6.886-2.809
		c2.99,0,5.481,1.178,7.475,3.533v-3.261h1.857v18.709H623.802z M621.854,212.48c-1.541-1.54-3.383-2.31-5.527-2.31
		c-2.174,0-4.017,0.755-5.526,2.265c-1.54,1.54-2.311,3.397-2.311,5.572c0,2.145,0.771,3.986,2.311,5.527
		c1.54,1.54,3.382,2.31,5.526,2.31c2.175,0,4.017-0.754,5.527-2.265c1.54-1.541,2.31-3.398,2.31-5.572
		C624.164,215.863,623.395,214.021,621.854,212.48z"/>
	<path d="M632.454,205.278c-0.332,0-0.679-0.136-1.041-0.408c-0.272-0.272-0.424-0.634-0.453-1.087c0-0.815,0.498-1.314,1.494-1.495
		c0.755,0,1.253,0.498,1.495,1.495C633.949,204.78,633.451,205.278,632.454,205.278z M631.503,227.339V208.63h1.857v18.709H631.503z
		"/>
	<path d="M649.94,227.339V216.15c0-3.956-1.782-5.934-5.345-5.934c-1.752,0-3.081,0.514-3.986,1.54
		c-0.937,1.027-1.404,2.432-1.404,4.213v11.371h-1.857V208.63h1.857v2.265c0.845-1.66,2.642-2.491,5.391-2.491
		c2.325,0,4.106,0.665,5.345,1.993c1.238,1.329,1.857,3.187,1.857,5.572v11.371H649.94z"/>
	<path d="M666.973,226.162c-1.208,1.027-2.657,1.54-4.349,1.54c-2.899,0-5.073-1.313-6.523-3.941l1.586-0.952
		c0.513,0.937,1.133,1.662,1.857,2.175c0.754,0.574,1.781,0.86,3.08,0.86c2.839,0,4.259-1.208,4.259-3.624
		c0-1.057-0.499-1.978-1.495-2.763c-0.303-0.181-0.732-0.385-1.291-0.611c-0.56-0.227-1.246-0.491-2.062-0.793
		c-1.511-0.543-2.598-1.087-3.262-1.631c-0.967-0.785-1.449-1.917-1.449-3.397c0-1.269,0.482-2.356,1.449-3.262
		c0.936-0.936,2.159-1.404,3.67-1.404c2.083,0,3.851,0.725,5.3,2.174l-1.359,1.178c-1.026-1.026-2.341-1.54-3.94-1.54
		c-2.175,0-3.262,0.951-3.262,2.854c0,0.846,0.332,1.54,0.996,2.083c0.544,0.423,1.404,0.831,2.582,1.223
		c1.026,0.363,1.872,0.702,2.537,1.02c0.664,0.317,1.162,0.597,1.495,0.838c1.298,0.997,1.947,2.341,1.947,4.032
		C668.739,223.851,668.15,225.165,666.973,226.162z"/>
	<path d="M672.998,227.339v-32.345h15.538v1.857h-13.682v11.778h13.682v1.993h-13.682v14.858h13.682v1.857H672.998z"/>
	<path d="M692.387,227.339v-33.522h1.812v33.522H692.387z"/>
	<path d="M700.948,217.6c0,2.537,0.68,4.546,2.038,6.025c1.419,1.511,3.367,2.265,5.844,2.265c1.269,0,2.416-0.211,3.443-0.634
		c1.298-0.543,2.461-1.646,3.488-3.307l1.676,0.77c-1.178,2.235-2.99,3.745-5.437,4.53c-0.937,0.302-1.993,0.453-3.171,0.453
		c-2.809,0-5.119-0.921-6.931-2.763c-1.843-1.842-2.764-4.152-2.764-6.931c0-2.809,0.906-5.119,2.718-6.931
		c1.842-1.841,4.168-2.763,6.977-2.763c2.778,0,5.074,0.861,6.886,2.582c1.842,1.722,2.764,3.957,2.764,6.705H700.948z
		 M713.723,211.666c-1.42-1.026-3.051-1.541-4.893-1.541c-3.866,0-6.402,1.903-7.61,5.708h15.176
		C716.094,214.111,715.202,212.723,713.723,211.666z"/>
	<path d="M744.073,227.339v-12.911c0-1.147-0.378-2.144-1.133-2.99c-0.755-0.845-1.842-1.269-3.262-1.269
		c-2.93,0-4.394,1.42-4.394,4.258v12.911h-1.857v-12.911c0-1.269-0.424-2.28-1.269-3.035c-0.876-0.815-1.918-1.223-3.126-1.223
		c-1.238,0-2.28,0.393-3.126,1.178c-0.846,0.755-1.268,1.782-1.268,3.081v12.911h-1.857V208.63h1.857v1.857
		c0.905-1.419,2.37-2.129,4.394-2.129c2.416,0,4.197,0.982,5.346,2.944c1.087-1.962,2.854-2.944,5.3-2.944
		c1.872,0,3.382,0.529,4.53,1.585c1.147,1.087,1.722,2.582,1.722,4.485v12.911H744.073z"/>
	<path d="M752.272,217.6c0,2.537,0.68,4.546,2.038,6.025c1.419,1.511,3.367,2.265,5.844,2.265c1.269,0,2.416-0.211,3.443-0.634
		c1.298-0.543,2.461-1.646,3.488-3.307l1.676,0.77c-1.178,2.235-2.99,3.745-5.437,4.53c-0.937,0.302-1.993,0.453-3.171,0.453
		c-2.809,0-5.119-0.921-6.931-2.763c-1.843-1.842-2.764-4.152-2.764-6.931c0-2.809,0.906-5.119,2.718-6.931
		c1.842-1.841,4.168-2.763,6.977-2.763c2.778,0,5.074,0.861,6.886,2.582c1.842,1.722,2.764,3.957,2.764,6.705H752.272z
		 M765.047,211.666c-1.42-1.026-3.051-1.541-4.893-1.541c-3.866,0-6.402,1.903-7.61,5.708h15.176
		C767.418,214.111,766.526,212.723,765.047,211.666z"/>
	<path d="M786.7,227.339V216.15c0-3.956-1.782-5.934-5.345-5.934c-1.752,0-3.081,0.514-3.986,1.54
		c-0.937,1.027-1.404,2.432-1.404,4.213v11.371h-1.857V208.63h1.857v2.265c0.845-1.66,2.642-2.491,5.391-2.491
		c2.325,0,4.106,0.665,5.345,1.993c1.238,1.329,1.857,3.187,1.857,5.572v11.371H786.7z"/>
	<path d="M797.346,210.487v16.852h-1.857v-16.852h-2.537v-1.857h2.537v-8.2h1.857v8.2h4.349v1.857H797.346z"/>
</g>
<line fill="none" stroke="#12100B" stroke-width="0.755" stroke-miterlimit="10" x1="470.441" y1="232.046" x2="802.555" y2="232.046"/>
<g>
	<path d="M535.467,342.225l-1.224-0.136c-1.691,0-2.537,0.997-2.537,2.99v10.102h4.439v1.857h-4.439v16.852h-1.857v-16.852h-2.536
		v-1.857h2.536v-10.646c0-2.869,1.45-4.304,4.35-4.304c0.664,0,1.087,0.031,1.269,0.091c0.362,0,0.77,0.106,1.223,0.317v1.857
		L535.467,342.225z"/>
	<path d="M549.826,372.712c-1.208,1.027-2.657,1.54-4.349,1.54c-2.899,0-5.073-1.313-6.523-3.941l1.586-0.952
		c0.513,0.937,1.133,1.662,1.857,2.175c0.754,0.574,1.781,0.86,3.08,0.86c2.839,0,4.259-1.208,4.259-3.624
		c0-1.057-0.499-1.978-1.495-2.763c-0.303-0.181-0.732-0.385-1.291-0.611c-0.56-0.227-1.246-0.491-2.062-0.793
		c-1.511-0.543-2.598-1.087-3.262-1.631c-0.967-0.785-1.449-1.917-1.449-3.397c0-1.269,0.482-2.356,1.449-3.262
		c0.936-0.936,2.159-1.404,3.67-1.404c2.083,0,3.851,0.725,5.3,2.174l-1.359,1.178c-1.026-1.026-2.341-1.54-3.94-1.54
		c-2.175,0-3.262,0.951-3.262,2.854c0,0.846,0.332,1.54,0.996,2.083c0.544,0.423,1.404,0.831,2.582,1.223
		c1.026,0.363,1.872,0.702,2.537,1.02c0.664,0.317,1.162,0.597,1.495,0.838c1.298,0.997,1.947,2.341,1.947,4.032
		C551.593,370.402,551.004,371.716,549.826,372.712z"/>
	<path d="M570.755,371.398c-1.873,1.873-4.168,2.809-6.886,2.809s-4.998-0.921-6.84-2.763c-1.873-1.872-2.809-4.167-2.809-6.886
		c0-2.688,0.936-4.967,2.809-6.84c1.842-1.903,4.122-2.854,6.84-2.854c2.688,0,4.968,0.937,6.841,2.809
		c1.872,1.873,2.809,4.168,2.809,6.886C573.519,367.276,572.597,369.557,570.755,371.398z M569.441,358.986
		c-1.511-1.541-3.368-2.311-5.572-2.311c-2.114,0-3.941,0.786-5.481,2.355c-1.57,1.571-2.355,3.414-2.355,5.527
		c0,2.145,0.771,3.986,2.311,5.527c1.54,1.54,3.382,2.31,5.526,2.31c2.175,0,4.017-0.754,5.527-2.265
		c1.54-1.541,2.31-3.398,2.31-5.572C571.706,362.354,570.951,360.497,569.441,358.986z"/>
	<path d="M579,360.798c-0.333,0-0.68-0.136-1.042-0.408c-0.272-0.272-0.424-0.634-0.453-1.087c0-0.815,0.498-1.313,1.495-1.495
		c0.754,0,1.253,0.498,1.494,1.495C580.494,360.3,579.996,360.798,579,360.798z M579,374.162c-0.333,0-0.68-0.136-1.042-0.408
		c-0.272-0.272-0.424-0.634-0.453-1.087c0-0.815,0.498-1.313,1.495-1.495c0.754,0,1.253,0.499,1.494,1.495
		C580.494,373.664,579.996,374.162,579,374.162z"/>
	<path d="M598.887,373.936v-11.28c0-3.956-1.843-5.935-5.527-5.935c-1.51,0-2.809,0.453-3.896,1.359
		c-1.118,0.906-1.676,2.114-1.676,3.624v12.186h-1.857v-33.522h1.857v17.305c1.116-1.842,2.974-2.763,5.571-2.763
		c4.923,0,7.385,2.522,7.385,7.565v11.461H598.887z"/>
	<path d="M606.587,364.15c0,2.537,0.68,4.546,2.038,6.025c1.419,1.511,3.367,2.265,5.844,2.265c1.269,0,2.416-0.211,3.443-0.634
		c1.298-0.543,2.461-1.646,3.488-3.307l1.676,0.77c-1.178,2.235-2.99,3.745-5.437,4.53c-0.937,0.302-1.993,0.453-3.171,0.453
		c-2.809,0-5.119-0.921-6.931-2.763c-1.843-1.842-2.764-4.152-2.764-6.931c0-2.809,0.906-5.119,2.718-6.931
		c1.842-1.841,4.168-2.763,6.977-2.763c2.778,0,5.074,0.861,6.886,2.582c1.842,1.722,2.764,3.957,2.764,6.705H606.587z
		 M619.361,358.216c-1.42-1.026-3.051-1.541-4.893-1.541c-3.866,0-6.402,1.903-7.61,5.708h15.176
		C621.732,360.662,620.841,359.273,619.361,358.216z"/>
	<path d="M644.141,373.89v-3.216c-1.963,2.355-4.455,3.533-7.475,3.533c-2.718,0-4.998-0.921-6.84-2.763
		c-1.873-1.872-2.809-4.167-2.809-6.886c0-2.718,0.921-4.998,2.763-6.84c1.872-1.872,4.168-2.809,6.886-2.809
		c2.99,0,5.481,1.178,7.475,3.533v-3.261h1.857v18.709H644.141z M642.193,359.031c-1.541-1.54-3.383-2.31-5.527-2.31
		c-2.174,0-4.017,0.755-5.526,2.265c-1.54,1.54-2.311,3.397-2.311,5.572c0,2.145,0.771,3.986,2.311,5.527
		c1.54,1.54,3.382,2.31,5.526,2.31c2.175,0,4.017-0.754,5.527-2.265c1.54-1.541,2.31-3.398,2.31-5.572
		C644.503,362.414,643.733,360.572,642.193,359.031z"/>
	<path d="M654.333,357.038v16.852h-1.857v-16.852h-2.537v-1.857h2.537v-8.2h1.857v8.2h4.349v1.857H654.333z"/>
	<path d="M663.212,364.15c0,2.537,0.68,4.546,2.038,6.025c1.419,1.511,3.367,2.265,5.844,2.265c1.269,0,2.416-0.211,3.443-0.634
		c1.298-0.543,2.461-1.646,3.488-3.307l1.676,0.77c-1.178,2.235-2.99,3.745-5.437,4.53c-0.937,0.302-1.993,0.453-3.171,0.453
		c-2.809,0-5.119-0.921-6.931-2.763c-1.843-1.842-2.764-4.152-2.764-6.931c0-2.809,0.906-5.119,2.718-6.931
		c1.842-1.841,4.168-2.763,6.977-2.763c2.778,0,5.074,0.861,6.886,2.582c1.842,1.722,2.764,3.957,2.764,6.705H663.212z
		 M675.986,358.216c-1.42-1.026-3.051-1.541-4.893-1.541c-3.866,0-6.402,1.903-7.61,5.708h15.176
		C678.357,360.662,677.466,359.273,675.986,358.216z"/>
	<path d="M701.264,373.89v-3.352c-1.993,2.446-4.529,3.669-7.61,3.669c-2.718,0-4.998-0.921-6.84-2.763
		c-1.873-1.872-2.809-4.167-2.809-6.886c0-2.718,0.921-4.998,2.763-6.84c1.872-1.872,4.168-2.809,6.886-2.809
		c2.99,0,5.527,1.223,7.61,3.669v-18.211h1.857v33.522H701.264z M699.181,359.031c-1.541-1.54-3.383-2.31-5.527-2.31
		c-2.174,0-4.017,0.755-5.526,2.265c-1.54,1.54-2.311,3.397-2.311,5.572c0,2.145,0.771,3.986,2.311,5.527
		c1.54,1.54,3.382,2.31,5.526,2.31c2.175,0,4.017-0.754,5.527-2.265c1.54-1.541,2.31-3.398,2.31-5.572
		C701.49,362.414,700.721,360.572,699.181,359.031z"/>
	<path d="M726.406,371.263c-1.964,1.752-4.365,2.627-7.203,2.627h-10.103v-32.345h7.883c2.507,0,4.5,0.65,5.979,1.948
		c1.57,1.39,2.355,3.323,2.355,5.799c0,2.839-1.162,4.923-3.487,6.251c2.265,0.453,4.092,1.48,5.48,3.081
		c1.359,1.601,2.039,3.563,2.039,5.889C729.351,367.292,728.369,369.542,726.406,371.263z M721.649,345.034
		c-1.238-1.087-2.748-1.631-4.53-1.631h-6.206v11.778h6.478c1.752,0,3.201-0.544,4.35-1.631c1.147-1.087,1.721-2.507,1.721-4.258
		C723.461,347.48,722.856,346.061,721.649,345.034z M725.047,359.031c-1.54-1.328-3.474-1.993-5.799-1.993h-8.335v14.995h8.335
		c2.295,0,4.243-0.694,5.844-2.084c1.631-1.389,2.446-3.201,2.446-5.436C727.538,362.248,726.707,360.421,725.047,359.031z"/>
	<path d="M734.923,382.679h-2.084l4.847-10.51l-7.882-16.988h1.993l6.977,14.768l6.886-14.768h2.038L734.923,382.679z"/>
</g>
<line fill="none" stroke="#12100B" stroke-width="0.755" stroke-miterlimit="10" x1="522.578" y1="378.593" x2="750.41" y2="378.593"/>
<g>
	<g>
		<path fill="none" stroke="#000000" stroke-width="1.51" stroke-miterlimit="10" d="M668.965,707.296
			c0-74.332,212.105-85.152,261.164,34.078c21.046,51.152,7.292,80.812,56.729,113.202"/>
		<g>
			<polygon points="977.104,858.312 984.526,853.026 985.874,844.012 998.438,861.558 			"/>
		</g>
	</g>
</g>
<line fill="none" stroke="#000000" stroke-width="0.5" stroke-miterlimit="10" x1="451.379" y1="957.972" x2="1443.5" y2="957.972"/>
<g>
	
		<rect x="709.625" y="973.695" fill="#EDEDED" stroke="#000000" stroke-width="0.453" stroke-miterlimit="10" width="129.281" height="45.527"/>
	<g>
		<path d="M723.046,991.05c-0.272,0-0.557-0.111-0.853-0.334c-0.223-0.222-0.347-0.519-0.371-0.89c0-0.667,0.408-1.075,1.224-1.224
			c0.617,0,1.025,0.408,1.224,1.224C724.27,990.642,723.861,991.05,723.046,991.05z M722.268,1009.107v-15.313h1.52v15.313H722.268z
			"/>
		<path d="M737.358,1009.107v-9.158c0-3.237-1.459-4.857-4.375-4.857c-1.435,0-2.521,0.421-3.264,1.261
			c-0.766,0.841-1.149,1.99-1.149,3.448v9.307h-1.52v-15.313h1.52v1.854c0.692-1.359,2.163-2.039,4.413-2.039
			c1.902,0,3.361,0.544,4.375,1.631c1.013,1.088,1.52,2.608,1.52,4.561v9.307H737.358z"/>
		<path d="M751.298,1008.143c-0.989,0.841-2.175,1.261-3.56,1.261c-2.373,0-4.152-1.075-5.339-3.226l1.298-0.779
			c0.42,0.767,0.927,1.36,1.521,1.78c0.617,0.47,1.458,0.704,2.521,0.704c2.323,0,3.485-0.988,3.485-2.966
			c0-0.865-0.407-1.619-1.224-2.262c-0.247-0.148-0.6-0.315-1.057-0.501s-1.02-0.401-1.687-0.648
			c-1.236-0.445-2.126-0.89-2.67-1.335c-0.791-0.643-1.187-1.569-1.187-2.781c0-1.038,0.396-1.928,1.187-2.669
			c0.766-0.766,1.767-1.149,3.003-1.149c1.706,0,3.152,0.593,4.339,1.779l-1.112,0.964c-0.841-0.84-1.916-1.261-3.227-1.261
			c-1.779,0-2.669,0.779-2.669,2.336c0,0.692,0.271,1.261,0.815,1.706c0.445,0.347,1.149,0.68,2.113,1.001
			c0.84,0.297,1.532,0.574,2.076,0.834s0.951,0.488,1.224,0.687c1.063,0.815,1.595,1.915,1.595,3.3
			C752.744,1006.252,752.262,1007.328,751.298,1008.143z"/>
		<path d="M758.343,995.314v13.793h-1.521v-13.793h-2.076v-1.52h2.076v-6.711h1.521v6.711h3.56v1.52H758.343z"/>
		<path d="M776.437,1009.107v-2.633c-1.606,1.929-3.646,2.893-6.117,2.893c-2.225,0-4.092-0.754-5.599-2.262
			c-1.533-1.532-2.299-3.411-2.299-5.636s0.754-4.091,2.262-5.599c1.532-1.532,3.411-2.299,5.636-2.299
			c2.447,0,4.486,0.964,6.117,2.892v-2.669h1.521v15.313H776.437z M774.843,996.946c-1.261-1.261-2.769-1.892-4.523-1.892
			c-1.78,0-3.288,0.618-4.523,1.854c-1.261,1.261-1.891,2.78-1.891,4.561c0,1.755,0.63,3.263,1.891,4.523s2.768,1.891,4.523,1.891
			c1.779,0,3.287-0.617,4.523-1.854c1.261-1.261,1.891-2.781,1.891-4.561C776.733,999.714,776.104,998.207,774.843,996.946z"/>
		<path d="M792.788,1009.107v-9.158c0-3.237-1.459-4.857-4.375-4.857c-1.435,0-2.521,0.421-3.264,1.261
			c-0.766,0.841-1.149,1.99-1.149,3.448v9.307h-1.52v-15.313H784v1.854c0.692-1.359,2.163-2.039,4.413-2.039
			c1.902,0,3.361,0.544,4.375,1.631c1.013,1.088,1.52,2.608,1.52,4.561v9.307H792.788z"/>
		<path d="M806.431,1009.404c-2.274,0-4.165-0.754-5.673-2.262s-2.262-3.398-2.262-5.673s0.754-4.165,2.262-5.673
			s3.398-2.262,5.673-2.262c1.953,0,3.51,0.444,4.672,1.335v1.816l-0.964-0.63l-1.038-0.557c-0.939-0.321-1.829-0.481-2.67-0.481
			c-1.903,0-3.448,0.593-4.634,1.779c-1.212,1.211-1.817,2.769-1.817,4.672c0,1.879,0.605,3.424,1.817,4.635
			c1.21,1.211,2.756,1.816,4.634,1.816c1.78,0,3.337-0.593,4.672-1.779v1.891C809.718,1008.947,808.161,1009.404,806.431,1009.404z"
			/>
		<path d="M813.551,1001.135c0,2.076,0.556,3.721,1.668,4.932c1.162,1.236,2.756,1.854,4.783,1.854c1.038,0,1.978-0.173,2.817-0.519
			c1.063-0.445,2.015-1.348,2.855-2.707l1.372,0.63c-0.965,1.83-2.447,3.065-4.449,3.708c-0.767,0.247-1.632,0.371-2.596,0.371
			c-2.299,0-4.189-0.754-5.673-2.262c-1.508-1.508-2.262-3.398-2.262-5.673c0-2.299,0.741-4.189,2.225-5.673
			c1.508-1.508,3.411-2.262,5.71-2.262c2.273,0,4.152,0.704,5.636,2.113c1.507,1.409,2.262,3.238,2.262,5.487H813.551z
			 M824.006,996.278c-1.162-0.84-2.497-1.26-4.004-1.26c-3.164,0-5.241,1.557-6.229,4.671h12.421
			C825.946,998.281,825.217,997.144,824.006,996.278z"/>
	</g>
</g>
<g>
	<g>
		<path d="M962.784,1007.118c0,1.819,0.487,3.261,1.462,4.322c1.019,1.084,2.416,1.625,4.192,1.625c0.91,0,1.733-0.151,2.471-0.455
			c0.931-0.39,1.766-1.181,2.502-2.372l1.203,0.552c-0.846,1.604-2.146,2.688-3.9,3.25c-0.672,0.217-1.43,0.325-2.275,0.325
			c-2.015,0-3.672-0.66-4.972-1.982c-1.322-1.321-1.982-2.979-1.982-4.973c0-2.015,0.649-3.672,1.949-4.973
			c1.321-1.321,2.99-1.982,5.005-1.982c1.993,0,3.641,0.618,4.94,1.853c1.321,1.235,1.982,2.839,1.982,4.811H962.784z
			 M971.949,1002.86c-1.019-0.736-2.189-1.104-3.511-1.104c-2.773,0-4.593,1.364-5.46,4.095h10.888
			C973.649,1004.615,973.01,1003.619,971.949,1002.86z"/>
		<path d="M984.267,1014.105l-3.803-5.622l-3.803,5.622h-1.593l4.583-6.76l-4.485-6.663h1.561l3.737,5.558l3.705-5.558h1.56
			l-4.452,6.63l4.55,6.793H984.267z"/>
		<path d="M1000.159,1012.318c-1.344,1.344-2.99,2.015-4.94,2.015c-2.231,0-4.073-0.91-5.525-2.73v8.808h-1.332v-19.728h1.332v2.535
			c1.387-1.819,3.229-2.729,5.525-2.729c1.95,0,3.586,0.661,4.907,1.982c1.344,1.344,2.016,2.99,2.016,4.939
			C1002.142,1009.36,1001.48,1010.997,1000.159,1012.318z M999.184,1003.445c-1.104-1.104-2.427-1.657-3.965-1.657
			c-1.56,0-2.882,0.542-3.965,1.625c-1.105,1.104-1.657,2.438-1.657,3.997c0,1.539,0.552,2.86,1.657,3.965
			c1.104,1.105,2.426,1.658,3.965,1.658c1.56,0,2.881-0.542,3.965-1.625c1.105-1.105,1.657-2.438,1.657-3.998
			C1000.841,1005.872,1000.289,1004.55,999.184,1003.445z"/>
		<path d="M1005.456,1014.105v-24.05h1.3v24.05H1005.456z"/>
		<path d="M1010.59,998.278c-0.238,0-0.487-0.098-0.747-0.293c-0.195-0.195-0.304-0.455-0.325-0.78c0-0.585,0.357-0.942,1.072-1.072
			c0.542,0,0.899,0.357,1.073,1.072C1011.663,997.92,1011.305,998.278,1010.59,998.278z M1009.907,1014.105v-13.423h1.333v13.423
			H1009.907z"/>
		<path d="M1021.998,1014.365c-1.993,0-3.651-0.66-4.973-1.982c-1.321-1.321-1.982-2.979-1.982-4.973
			c0-1.993,0.661-3.65,1.982-4.973c1.321-1.321,2.979-1.982,4.973-1.982c1.711,0,3.076,0.391,4.095,1.17v1.593l-0.845-0.553
			l-0.91-0.487c-0.823-0.281-1.604-0.422-2.34-0.422c-1.669,0-3.022,0.52-4.063,1.56c-1.062,1.062-1.593,2.427-1.593,4.095
			c0,1.647,0.531,3.002,1.593,4.063c1.062,1.063,2.416,1.593,4.063,1.593c1.561,0,2.925-0.52,4.095-1.56v1.657
			C1024.88,1013.964,1023.515,1014.365,1021.998,1014.365z"/>
		<path d="M1030.025,998.278c-0.238,0-0.487-0.098-0.747-0.293c-0.195-0.195-0.304-0.455-0.325-0.78
			c0-0.585,0.357-0.942,1.072-1.072c0.542,0,0.899,0.357,1.073,1.072C1031.099,997.92,1030.74,998.278,1030.025,998.278z
			 M1029.343,1014.105v-13.423h1.333v13.423H1029.343z"/>
		<path d="M1037.11,1002.015v12.09h-1.333v-12.09h-1.819v-1.333h1.819V994.8h1.333v5.882h3.12v1.333H1037.11z"/>
		<path d="M1043.578,1014.105v-24.05h1.3v24.05H1043.578z"/>
		<path d="M1051.896,1020.41h-1.494l3.478-7.54l-5.655-12.188h1.43l5.005,10.596l4.94-10.596h1.462L1051.896,1020.41z"/>
		<path d="M1078.806,1013.26c-0.866,0.736-1.906,1.104-3.12,1.104c-2.079,0-3.64-0.942-4.68-2.827l1.138-0.683
			c0.368,0.672,0.813,1.191,1.332,1.56c0.542,0.412,1.278,0.618,2.21,0.618c2.037,0,3.056-0.866,3.056-2.601
			c0-0.758-0.357-1.419-1.072-1.982c-0.218-0.13-0.526-0.276-0.927-0.438c-0.401-0.162-0.894-0.352-1.479-0.568
			c-1.084-0.391-1.864-0.78-2.34-1.17c-0.694-0.563-1.04-1.376-1.04-2.438c0-0.91,0.346-1.69,1.04-2.341
			c0.671-0.671,1.549-1.007,2.632-1.007c1.495,0,2.763,0.52,3.803,1.56l-0.975,0.845c-0.737-0.736-1.68-1.104-2.828-1.104
			c-1.56,0-2.34,0.683-2.34,2.048c0,0.606,0.238,1.104,0.715,1.494c0.391,0.304,1.008,0.597,1.853,0.878
			c0.736,0.26,1.344,0.504,1.82,0.731s0.834,0.428,1.072,0.601c0.932,0.716,1.397,1.68,1.397,2.893
			C1080.073,1011.602,1079.651,1012.545,1078.806,1013.26z"/>
		<path d="M1084.981,1002.015v12.09h-1.333v-12.09h-1.819v-1.333h1.819V994.8h1.333v5.882h3.12v1.333H1084.981z"/>
		<path d="M1100.842,1014.105v-2.308c-1.409,1.69-3.196,2.535-5.363,2.535c-1.949,0-3.586-0.661-4.907-1.982
			c-1.344-1.344-2.015-2.99-2.015-4.94c0-1.949,0.66-3.585,1.982-4.907c1.343-1.343,2.99-2.015,4.939-2.015
			c2.146,0,3.933,0.845,5.363,2.535v-2.341h1.332v13.423H1100.842z M1099.444,1003.445c-1.105-1.104-2.427-1.657-3.966-1.657
			c-1.56,0-2.882,0.542-3.965,1.625c-1.104,1.104-1.657,2.438-1.657,3.997c0,1.539,0.553,2.86,1.657,3.965
			c1.105,1.105,2.427,1.658,3.965,1.658c1.561,0,2.882-0.542,3.966-1.625c1.104-1.105,1.657-2.438,1.657-3.998
			C1101.102,1005.872,1100.549,1004.55,1099.444,1003.445z"/>
		<path d="M1108.153,1002.015v12.09h-1.333v-12.09h-1.819v-1.333h1.819V994.8h1.333v5.882h3.12v1.333H1108.153z"/>
		<path d="M1114.523,1007.118c0,1.819,0.487,3.261,1.462,4.322c1.019,1.084,2.416,1.625,4.192,1.625c0.91,0,1.733-0.151,2.471-0.455
			c0.931-0.39,1.766-1.181,2.502-2.372l1.203,0.552c-0.846,1.604-2.146,2.688-3.9,3.25c-0.672,0.217-1.43,0.325-2.275,0.325
			c-2.015,0-3.672-0.66-4.972-1.982c-1.322-1.321-1.982-2.979-1.982-4.973c0-2.015,0.649-3.672,1.949-4.973
			c1.321-1.321,2.99-1.982,5.005-1.982c1.993,0,3.641,0.618,4.94,1.853c1.321,1.235,1.982,2.839,1.982,4.811H1114.523z
			 M1123.688,1002.86c-1.019-0.736-2.189-1.104-3.511-1.104c-2.773,0-4.593,1.364-5.46,4.095h10.888
			C1125.389,1004.615,1124.749,1003.619,1123.688,1002.86z"/>
		<path d="M1141.823,1014.105v-2.405c-1.431,1.755-3.25,2.633-5.46,2.633c-1.95,0-3.587-0.661-4.908-1.982
			c-1.344-1.344-2.015-2.99-2.015-4.94c0-1.949,0.661-3.585,1.982-4.907c1.344-1.343,2.99-2.015,4.94-2.015
			c2.145,0,3.965,0.877,5.46,2.632v-13.064h1.332v24.05H1141.823z M1140.328,1003.445c-1.105-1.104-2.427-1.657-3.965-1.657
			c-1.561,0-2.882,0.542-3.965,1.625c-1.105,1.104-1.658,2.438-1.658,3.997c0,1.539,0.553,2.86,1.658,3.965
			c1.104,1.105,2.426,1.658,3.965,1.658c1.56,0,2.881-0.542,3.965-1.625c1.104-1.105,1.657-2.438,1.657-3.998
			C1141.985,1005.872,1141.433,1004.55,1140.328,1003.445z"/>
	</g>
</g>
<g>
	<g>
		<path fill="none" stroke="#000000" stroke-width="1.1123" stroke-miterlimit="10" d="M925.508,1019.218
			c0,0,16.731-43.838,188.168-45.477"/>
		<g>
			<polygon points="1109.095,980.106 1111.621,973.887 1108.897,967.75 1123.641,973.695 			"/>
		</g>
	</g>
</g>
<g>
	<g>
		<path d="M1276.697,998.278c-0.238,0-0.487-0.098-0.747-0.293c-0.195-0.195-0.304-0.455-0.325-0.78
			c0-0.585,0.357-0.942,1.072-1.072c0.542,0,0.899,0.357,1.073,1.072C1277.771,997.92,1277.412,998.278,1276.697,998.278z
			 M1276.015,1014.105v-13.423h1.333v13.423H1276.015z"/>
		<path d="M1289.242,1014.105v-8.027c0-2.838-1.278-4.258-3.835-4.258c-1.257,0-2.21,0.369-2.859,1.105
			c-0.672,0.736-1.008,1.744-1.008,3.022v8.157h-1.333v-13.423h1.333v1.625c0.606-1.191,1.896-1.787,3.867-1.787
			c1.668,0,2.946,0.477,3.835,1.43c0.889,0.954,1.333,2.286,1.333,3.998v8.157H1289.242z"/>
		<path d="M1298.18,991.387l-0.877-0.098c-1.214,0-1.82,0.716-1.82,2.146v7.247h3.186v1.333h-3.186v12.09h-1.332v-12.09h-1.82
			v-1.333h1.82v-7.637c0-2.059,1.04-3.088,3.12-3.088c0.476,0,0.779,0.021,0.909,0.065c0.261,0,0.553,0.076,0.878,0.227v1.333
			L1298.18,991.387z"/>
		<path d="M1300.488,1007.118c0,1.819,0.487,3.261,1.462,4.322c1.019,1.084,2.416,1.625,4.192,1.625c0.91,0,1.733-0.151,2.471-0.455
			c0.931-0.39,1.766-1.181,2.502-2.372l1.203,0.552c-0.846,1.604-2.146,2.688-3.9,3.25c-0.672,0.217-1.43,0.325-2.275,0.325
			c-2.015,0-3.672-0.66-4.972-1.982c-1.322-1.321-1.982-2.979-1.982-4.973c0-2.015,0.649-3.672,1.949-4.973
			c1.321-1.321,2.99-1.982,5.005-1.982c1.993,0,3.641,0.618,4.94,1.853c1.321,1.235,1.982,2.839,1.982,4.811H1300.488z
			 M1309.653,1002.86c-1.019-0.736-2.189-1.104-3.511-1.104c-2.773,0-4.593,1.364-5.46,4.095h10.888
			C1311.354,1004.615,1310.714,1003.619,1309.653,1002.86z"/>
		<path d="M1322.489,1002.665c-0.347-0.26-0.715-0.465-1.104-0.617c-0.391-0.151-0.803-0.228-1.235-0.228
			c-0.369,0-0.715,0.114-1.04,0.342s-0.606,0.509-0.845,0.845c-0.239,0.336-0.429,0.71-0.569,1.121
			c-0.141,0.412-0.211,0.791-0.211,1.138v8.84h-1.333v-13.423h1.333v1.82c0.281-0.498,0.65-0.953,1.104-1.365
			c0.455-0.411,0.954-0.617,1.495-0.617c0.672,0,1.225,0.076,1.658,0.228c0.433,0.151,0.92,0.423,1.462,0.813L1322.489,1002.665z"/>
		<path d="M1332.564,1002.665c-0.347-0.26-0.715-0.465-1.104-0.617c-0.391-0.151-0.803-0.228-1.235-0.228
			c-0.369,0-0.715,0.114-1.04,0.342s-0.606,0.509-0.845,0.845c-0.239,0.336-0.429,0.71-0.569,1.121
			c-0.141,0.412-0.211,0.791-0.211,1.138v8.84h-1.333v-13.423h1.333v1.82c0.281-0.498,0.65-0.953,1.104-1.365
			c0.455-0.411,0.954-0.617,1.495-0.617c0.672,0,1.225,0.076,1.658,0.228c0.433,0.151,0.92,0.423,1.462,0.813L1332.564,1002.665z"/>
		<path d="M1334.646,1007.118c0,1.819,0.487,3.261,1.462,4.322c1.019,1.084,2.416,1.625,4.192,1.625c0.91,0,1.733-0.151,2.471-0.455
			c0.931-0.39,1.766-1.181,2.502-2.372l1.203,0.552c-0.846,1.604-2.146,2.688-3.9,3.25c-0.672,0.217-1.43,0.325-2.275,0.325
			c-2.015,0-3.672-0.66-4.972-1.982c-1.322-1.321-1.982-2.979-1.982-4.973c0-2.015,0.649-3.672,1.949-4.973
			c1.321-1.321,2.99-1.982,5.005-1.982c1.993,0,3.641,0.618,4.94,1.853c1.321,1.235,1.982,2.839,1.982,4.811H1334.646z
			 M1343.811,1002.86c-1.019-0.736-2.189-1.104-3.511-1.104c-2.773,0-4.593,1.364-5.46,4.095h10.888
			C1345.511,1004.615,1344.871,1003.619,1343.811,1002.86z"/>
		<path d="M1361.945,1014.105v-2.405c-1.431,1.755-3.25,2.633-5.46,2.633c-1.95,0-3.587-0.661-4.908-1.982
			c-1.344-1.344-2.015-2.99-2.015-4.94c0-1.949,0.661-3.585,1.982-4.907c1.344-1.343,2.99-2.015,4.94-2.015
			c2.145,0,3.965,0.877,5.46,2.632v-13.064h1.332v24.05H1361.945z M1360.45,1003.445c-1.105-1.104-2.427-1.657-3.965-1.657
			c-1.561,0-2.882,0.542-3.965,1.625c-1.105,1.104-1.658,2.438-1.658,3.997c0,1.539,0.553,2.86,1.658,3.965
			c1.104,1.105,2.426,1.658,3.965,1.658c1.56,0,2.881-0.542,3.965-1.625c1.104-1.105,1.657-2.438,1.657-3.998
			C1362.107,1005.872,1361.555,1004.55,1360.45,1003.445z"/>
	</g>
</g>
<g>
	<g>
		<path fill="none" stroke="#000000" stroke-width="1.51" stroke-miterlimit="10" stroke-dasharray="7.5,7.5" d="M1229.93,1019.218
			c0,0,16.496-43.229,184.604-45.437"/>
		<g>
			<polygon points="1408.309,982.399 1411.737,973.956 1408.04,965.625 1428.055,973.695 			"/>
		</g>
	</g>
</g>
<path fill="#EDEDED" stroke="#000000" stroke-width="0.2009" stroke-miterlimit="10" d="M623.02,1008.375
	c0,7.074-5.754,12.82-12.832,12.82h-130.52c-7.09,0-12.836-5.746-12.836-12.82v-21.855c0-7.086,5.746-12.824,12.836-12.824h130.52
	c7.078,0,12.832,5.738,12.832,12.824V1008.375z"/>
<g>
	<path d="M495.183,1007.068c-1.533,1.533-3.411,2.299-5.636,2.299s-4.092-0.754-5.599-2.262c-1.533-1.532-2.299-3.411-2.299-5.636
		c0-2.2,0.766-4.066,2.299-5.599c1.507-1.558,3.374-2.336,5.599-2.336c2.199,0,4.065,0.767,5.599,2.299
		c1.532,1.532,2.299,3.411,2.299,5.636S496.689,1005.56,495.183,1007.068z M494.107,996.909c-1.236-1.261-2.757-1.891-4.561-1.891
		c-1.73,0-3.226,0.643-4.486,1.928c-1.286,1.285-1.928,2.793-1.928,4.523c0,1.755,0.63,3.263,1.891,4.523s2.768,1.891,4.523,1.891
		c1.779,0,3.287-0.617,4.523-1.854c1.261-1.261,1.891-2.781,1.891-4.561C495.961,999.665,495.343,998.145,494.107,996.909z"/>
	<path d="M514.425,1009.774l-4.782-12.235l-4.857,12.235l-6.859-15.979h1.632l5.153,11.864l4.932-12.347l4.894,12.31l5.117-11.827
		h1.705L514.425,1009.774z"/>
	<path d="M525.065,1009.107v-27.438h1.483v27.438H525.065z"/>
	<path d="M532.443,998.392c-0.272,0-0.556-0.111-0.853-0.334c-0.223-0.223-0.347-0.52-0.371-0.89c0-0.668,0.408-1.075,1.224-1.224
		c0.618,0,1.025,0.407,1.224,1.224C533.667,997.984,533.26,998.392,532.443,998.392z M532.443,1009.33
		c-0.272,0-0.556-0.111-0.853-0.334c-0.223-0.223-0.347-0.519-0.371-0.89c0-0.668,0.408-1.075,1.224-1.224
		c0.618,0,1.025,0.408,1.224,1.224C533.667,1008.921,533.26,1009.33,532.443,1009.33z"/>
	<path d="M558.361,1007.549c-1.385,1.015-3.264,1.632-5.636,1.854c-0.272,0.024-0.569,0.043-0.891,0.056
		c-0.321,0.012-0.655,0.019-1.001,0.019c-4.004,0-7.267-1.261-9.788-3.782c-2.546-2.546-3.819-5.821-3.819-9.825
		c0-4.005,1.261-7.268,3.782-9.789c2.546-2.545,5.821-3.818,9.825-3.818c2.274,0,4.325,0.334,6.155,1.001
		c1.087,0.421,2.138,1.026,3.151,1.816v1.892c-1.038-0.865-2.176-1.558-3.411-2.076c-1.879-0.767-3.844-1.149-5.896-1.149
		c-3.51,0-6.402,1.137-8.676,3.411c-2.274,2.274-3.411,5.178-3.411,8.713s1.124,6.427,3.374,8.676
		c2.273,2.274,5.178,3.411,8.713,3.411c2.2,0,4.116-0.396,5.747-1.187c0.939-0.469,2.126-1.224,3.56-2.262v1.743L558.361,1007.549z"
		/>
	<path d="M562.364,1009.107v-27.438h1.483v27.438H562.364z"/>
	<path d="M581.94,1009.107v-2.633c-1.606,1.929-3.646,2.893-6.117,2.893c-2.225,0-4.092-0.754-5.599-2.262
		c-1.533-1.532-2.299-3.411-2.299-5.636s0.754-4.091,2.262-5.599c1.532-1.532,3.411-2.299,5.636-2.299
		c2.447,0,4.486,0.964,6.117,2.892v-2.669h1.521v15.313H581.94z M580.347,996.946c-1.261-1.261-2.769-1.892-4.523-1.892
		c-1.78,0-3.288,0.618-4.523,1.854c-1.261,1.261-1.891,2.78-1.891,4.561c0,1.755,0.63,3.263,1.891,4.523s2.768,1.891,4.523,1.891
		c1.779,0,3.287-0.617,4.523-1.854c1.261-1.261,1.891-2.781,1.891-4.561C582.237,999.714,581.607,998.207,580.347,996.946z"/>
	<path d="M595.511,1008.143c-0.989,0.841-2.175,1.261-3.56,1.261c-2.373,0-4.152-1.075-5.339-3.226l1.298-0.779
		c0.42,0.767,0.927,1.36,1.521,1.78c0.617,0.47,1.458,0.704,2.521,0.704c2.323,0,3.485-0.988,3.485-2.966
		c0-0.865-0.407-1.619-1.224-2.262c-0.247-0.148-0.6-0.315-1.057-0.501s-1.02-0.401-1.687-0.648c-1.236-0.445-2.126-0.89-2.67-1.335
		c-0.791-0.643-1.187-1.569-1.187-2.781c0-1.038,0.396-1.928,1.187-2.669c0.766-0.766,1.767-1.149,3.003-1.149
		c1.706,0,3.152,0.593,4.339,1.779l-1.112,0.964c-0.841-0.84-1.916-1.261-3.227-1.261c-1.779,0-2.669,0.779-2.669,2.336
		c0,0.692,0.271,1.261,0.815,1.706c0.445,0.347,1.149,0.68,2.113,1.001c0.84,0.297,1.532,0.574,2.076,0.834s0.951,0.488,1.224,0.687
		c1.063,0.815,1.595,1.915,1.595,3.3C596.957,1006.252,596.475,1007.328,595.511,1008.143z"/>
	<path d="M607.783,1008.143c-0.989,0.841-2.175,1.261-3.56,1.261c-2.373,0-4.152-1.075-5.339-3.226l1.298-0.779
		c0.42,0.767,0.927,1.36,1.521,1.78c0.617,0.47,1.458,0.704,2.521,0.704c2.323,0,3.485-0.988,3.485-2.966
		c0-0.865-0.407-1.619-1.224-2.262c-0.247-0.148-0.6-0.315-1.057-0.501s-1.02-0.401-1.687-0.648c-1.236-0.445-2.126-0.89-2.67-1.335
		c-0.791-0.643-1.187-1.569-1.187-2.781c0-1.038,0.396-1.928,1.187-2.669c0.766-0.766,1.767-1.149,3.003-1.149
		c1.706,0,3.152,0.593,4.339,1.779l-1.112,0.964c-0.841-0.84-1.916-1.261-3.227-1.261c-1.779,0-2.669,0.779-2.669,2.336
		c0,0.692,0.271,1.261,0.815,1.706c0.445,0.347,1.149,0.68,2.113,1.001c0.84,0.297,1.532,0.574,2.076,0.834s0.951,0.488,1.224,0.687
		c1.063,0.815,1.595,1.915,1.595,3.3C609.229,1006.252,608.747,1007.328,607.783,1008.143z"/>
</g>
</svg>
