<?xml version="1.0" encoding="utf-8"?>
<!-- Generator: Adobe Illustrator 16.0.0, SVG Export Plug-In . SVG Version: 6.00 Build 0)  -->
<!DOCTYPE svg PUBLIC "-//W3C//DTD SVG 1.1//EN" "http://www.w3.org/Graphics/SVG/1.1/DTD/svg11.dtd">
<svg version="1.1" id="Layer_1" xmlns="http://www.w3.org/2000/svg" xmlns:xlink="http://www.w3.org/1999/xlink" x="0px" y="0px"
	 width="1920px" height="1080px" viewBox="0 0 1920 1080" enable-background="new 0 0 1920 1080" xml:space="preserve">
<g>
	<polygon fill="#E3E9BA" points="727.817,561.217 1069.289,977.041 1845.341,519.379 1400.004,351.124 	"/>
	<polygon fill="none" stroke="#000000" stroke-miterlimit="10" points="726.982,561.217 1068.454,977.041 1845.341,519.379 
		1400.004,351.124 	"/>
</g>
<g>
	<line fill="none" stroke="#000000" stroke-miterlimit="10" x1="1434.048" y1="449.981" x2="1068.454" y2="576.441"/>
	<line fill="none" stroke="#000000" stroke-miterlimit="10" x1="1616.412" y1="530.248" x2="1434.048" y2="449.981"/>
	<line fill="none" stroke="#000000" stroke-miterlimit="10" x1="1436.777" y1="321.491" x2="1434.048" y2="449.981"/>
	<polyline opacity="0.7" fill="#94C356" enable-background="new    " points="1037.562,418.99 1436.777,321.491 1634.878,382.786 
		1616.412,530.248 1223.584,718.574 1068.454,576.441 	"/>
	<polyline fill="none" stroke="#000000" stroke-miterlimit="10" points="1068.454,576.441 1037.562,418.99 1436.777,321.491 
		1634.878,382.786 1616.412,530.248 1223.584,718.574 1068.454,576.441 	"/>
	<path fill="none" stroke="#000000" stroke-miterlimit="10" d="M1350.633,342.529"/>
	<path fill="none" stroke="#000000" stroke-miterlimit="10" d="M1545.13,414.494"/>
	<line fill="none" stroke="#000000" stroke-miterlimit="10" x1="1202.905" y1="535.411" x2="1634.878" y2="382.786"/>
	<line fill="none" stroke="#000000" stroke-miterlimit="10" x1="1202.905" y1="535.411" x2="1037.562" y2="418.99"/>
	<line fill="none" stroke="#000000" stroke-miterlimit="10" x1="1202.905" y1="535.411" x2="1223.584" y2="718.574"/>
</g>
<g>
	<line fill="none" stroke="#000000" stroke-miterlimit="10" x1="1436.096" y1="385.735" x2="1053.008" y2="497.716"/>
	<line fill="none" stroke="#000000" stroke-miterlimit="10" x1="1625.645" y1="456.517" x2="1436.096" y2="385.735"/>
	<line fill="none" stroke="#000000" stroke-miterlimit="10" x1="1436.777" y1="321.491" x2="1436.096" y2="385.735"/>
	<polyline opacity="0.7" fill="#F18700" enable-background="new    " points="1037.562,418.99 1436.777,321.491 1634.878,382.786 
		1625.645,456.517 1213.244,627.932 1053.008,497.716 	"/>
	<polyline fill="none" stroke="#000000" stroke-miterlimit="10" points="1053.008,497.716 1037.562,418.99 1436.777,321.491 
		1634.878,382.786 1625.645,456.517 1213.244,627.932 1053.008,497.716 	"/>
	<path fill="none" stroke="#000000" stroke-miterlimit="10" d="M1350.633,342.529"/>
	<path fill="none" stroke="#000000" stroke-miterlimit="10" d="M1545.13,414.494"/>
	<line fill="none" stroke="#000000" stroke-miterlimit="10" x1="1202.905" y1="535.411" x2="1634.878" y2="382.786"/>
	<line fill="none" stroke="#000000" stroke-miterlimit="10" x1="1202.905" y1="535.411" x2="1037.562" y2="418.99"/>
	<line fill="none" stroke="#000000" stroke-miterlimit="10" x1="1202.905" y1="535.411" x2="1213.244" y2="627.932"/>
</g>
<g>
	<polyline fill="none" stroke="#000000" stroke-miterlimit="10" points="1333.185,578.705 1161.205,466.717 1152.284,391.6 	"/>
	<line fill="none" stroke="#000000" stroke-miterlimit="10" x1="1161.205" y1="466.717" x2="1053.008" y2="498.345"/>
	<polyline opacity="0.7" fill="#64C2C8" enable-background="new    " points="1037.562,419.619 1152.284,391.6 1325.716,492.647 
		1333.185,578.705 1213.244,628.561 1053.008,498.345 	"/>
	<polyline fill="none" stroke="#000000" stroke-miterlimit="10" points="1053.008,498.345 1037.562,419.619 1152.284,391.6 
		1325.716,492.647 1333.185,578.705 1213.244,628.561 1053.008,498.345 	"/>
	<line fill="none" stroke="#000000" stroke-miterlimit="10" x1="1202.905" y1="536.04" x2="1325.716" y2="492.647"/>
	<line fill="none" stroke="#000000" stroke-miterlimit="10" x1="1202.905" y1="536.04" x2="1037.562" y2="419.619"/>
	<line fill="none" stroke="#000000" stroke-miterlimit="10" x1="1202.905" y1="536.04" x2="1213.244" y2="628.561"/>
</g>
<g>
	<line fill="none" stroke="#000000" stroke-miterlimit="10" x1="1235.311" y1="439.974" x2="1242.734" y2="519.379"/>
	<line fill="none" stroke="#000000" stroke-miterlimit="10" x1="1130.024" y1="560.93" x2="1242.734" y2="519.379"/>
	<line fill="none" stroke="#000000" stroke-miterlimit="10" x1="1333.185" y1="578.705" x2="1242.734" y2="519.379"/>
	<polyline opacity="0.7" fill="#B70D18" enable-background="new    " points="1120.232,477.829 1235.311,439.974 1325.716,492.647 
		1333.185,578.705 1213.244,628.561 1130.024,560.93 	"/>
	<polyline fill="none" stroke="#000000" stroke-miterlimit="10" points="1130.024,560.93 1120.232,477.829 1235.311,439.974 
		1325.716,492.647 1333.185,578.705 1213.244,628.561 1130.024,560.93 	"/>
	<line fill="none" stroke="#000000" stroke-miterlimit="10" x1="1202.905" y1="536.04" x2="1325.716" y2="492.647"/>
	<line fill="none" stroke="#000000" stroke-miterlimit="10" x1="1202.905" y1="536.04" x2="1120.232" y2="477.829"/>
	<line fill="none" stroke="#000000" stroke-miterlimit="10" x1="1202.905" y1="536.04" x2="1213.244" y2="628.561"/>
	<line fill="none" stroke="#000000" stroke-miterlimit="10" x1="1130.024" y1="560.93" x2="1120.232" y2="477.829"/>
	<line fill="none" stroke="#000000" stroke-miterlimit="10" x1="1120.232" y1="477.829" x2="1235.311" y2="439.974"/>
</g>
<rect x="0" fill="none" stroke="#E3DEDA" stroke-miterlimit="10" width="1920" height="1080"/>
<path fill="none" stroke="#000000" stroke-miterlimit="10" d="M760.77,101.911"/>
<path fill="none" stroke="#000000" stroke-miterlimit="10" d="M760.77,101.911"/>
<g>
	<line fill="none" stroke="#000000" stroke-miterlimit="10" x1="1616.412" y1="530.229" x2="1556.889" y2="504.029"/>
	<line fill="none" stroke="#000000" stroke-miterlimit="10" x1="1500.119" y1="528.578" x2="1556.894" y2="504.031"/>
	<line fill="none" stroke="#000000" stroke-miterlimit="10" x1="1571.037" y1="363.013" x2="1556.894" y2="504.031"/>
	<polygon opacity="0.7" fill="#262C61" enable-background="new    " points="1508.666,382.766 1571.037,363.013 1634.878,382.766 
		1616.412,530.229 1559.248,557.633 1500.119,528.578 	"/>
	<path fill="none" stroke="#000000" stroke-miterlimit="10" d="M1545.13,414.474"/>
	<polyline fill="none" stroke="#000000" stroke-miterlimit="10" points="1571.037,363.013 1634.878,382.766 1616.412,530.229 	"/>
	<path fill="none" stroke="#000000" stroke-miterlimit="10" d="M1545.13,414.474"/>
	<line fill="none" stroke="#000000" stroke-miterlimit="10" x1="1573.323" y1="404.514" x2="1634.878" y2="382.766"/>
	<polyline fill="none" stroke="#000000" stroke-miterlimit="10" points="1508.666,382.766 1573.323,404.514 1559.248,557.633 
		1500.119,528.578 	"/>
	<line fill="none" stroke="#000000" stroke-miterlimit="10" x1="1500.119" y1="528.578" x2="1508.666" y2="382.766"/>
	<line fill="none" stroke="#000000" stroke-miterlimit="10" x1="1571.037" y1="363.013" x2="1508.666" y2="382.766"/>
	<line fill="none" stroke="#000000" stroke-miterlimit="10" x1="1616.412" y1="530.229" x2="1559.248" y2="557.633"/>
</g>
<g>
	
		<rect x="1416.955" y="223.468" fill="#EDEDED" stroke="#000000" stroke-width="0.3" stroke-miterlimit="10" width="239.532" height="42.143"/>
	<g>
		<path d="M1447.233,252.343c-1.24,1.24-2.76,1.86-4.56,1.86c-2.062,0-3.75-0.83-5.07-2.49v2.28h-1.229v-22.2h1.229v12.12
			c1.3-1.66,2.99-2.49,5.07-2.49c1.8,0,3.31,0.61,4.528,1.83c1.24,1.24,1.86,2.76,1.86,4.561
			C1449.063,249.614,1448.452,251.124,1447.233,252.343z M1446.334,244.154c-1.021-1.021-2.24-1.53-3.66-1.53
			c-1.44,0-2.66,0.5-3.66,1.5c-1.021,1.021-1.53,2.25-1.53,3.69c0,1.42,0.511,2.64,1.53,3.66s2.24,1.529,3.66,1.529
			c1.438,0,2.66-0.499,3.66-1.5c1.02-1.02,1.528-2.25,1.528-3.689C1447.863,246.394,1447.354,245.173,1446.334,244.154z"/>
		<path d="M1462.233,252.343c-1.24,1.24-2.76,1.86-4.56,1.86c-1.802,0-3.312-0.609-4.53-1.83c-1.24-1.239-1.86-2.76-1.86-4.56
			c0-1.78,0.62-3.29,1.86-4.53c1.22-1.26,2.729-1.89,4.53-1.89c1.778,0,3.288,0.62,4.528,1.859c1.24,1.24,1.86,2.76,1.86,4.561
			C1464.063,249.614,1463.452,251.124,1462.233,252.343z M1461.363,244.124c-1-1.02-2.229-1.53-3.688-1.53
			c-1.4,0-2.61,0.521-3.631,1.561c-1.039,1.04-1.561,2.26-1.561,3.66c0,1.42,0.51,2.64,1.53,3.66c1.02,1.02,2.239,1.529,3.66,1.529
			c1.438,0,2.659-0.499,3.66-1.5c1.02-1.02,1.528-2.25,1.528-3.689C1462.863,246.354,1462.363,245.124,1461.363,244.124z"/>
		<path d="M1469.014,242.833v11.16h-1.23v-11.16h-1.68v-1.229h1.68v-5.431h1.23v5.431h2.88v1.229H1469.014z"/>
		<path d="M1475.193,245.324c-0.221,0-0.45-0.09-0.688-0.271c-0.182-0.18-0.281-0.42-0.302-0.72c0-0.54,0.33-0.87,0.99-0.99
			c0.5,0,0.83,0.33,0.99,0.99C1476.184,244.994,1475.854,245.324,1475.193,245.324z M1475.193,254.173
			c-0.221,0-0.45-0.09-0.688-0.27c-0.182-0.18-0.281-0.42-0.302-0.72c0-0.54,0.33-0.87,0.99-0.99c0.5,0,0.83,0.33,0.99,0.99
			C1476.184,253.843,1475.854,254.173,1475.193,254.173z"/>
		<path d="M1480.383,239.383c-0.221,0-0.449-0.09-0.689-0.27c-0.18-0.18-0.281-0.42-0.301-0.72c0-0.54,0.33-0.87,0.99-0.99
			c0.5,0,0.83,0.33,0.99,0.99C1481.373,239.053,1481.043,239.383,1480.383,239.383z M1479.753,253.994v-12.39h1.229v12.39H1479.753z
			"/>
		<path d="M1491.963,253.994v-7.41c0-2.62-1.181-3.93-3.54-3.93c-1.16,0-2.04,0.34-2.641,1.02c-0.62,0.681-0.93,1.61-0.93,2.79v7.53
			h-1.23v-12.39h1.23v1.5c0.559-1.1,1.75-1.65,3.569-1.65c1.539,0,2.72,0.44,3.539,1.32c0.82,0.88,1.23,2.11,1.23,3.689v7.53
			L1491.963,253.994L1491.963,253.994z"/>
		<path d="M1499.013,242.833v11.16h-1.229v-11.16h-1.68v-1.229h1.68v-5.431h1.229v5.431h2.88v1.229H1499.013z"/>
		<path d="M1504.893,247.543c0,1.681,0.45,3.011,1.35,3.99c0.94,1,2.23,1.5,3.871,1.5c0.84,0,1.6-0.14,2.279-0.42
			c0.859-0.36,1.63-1.09,2.311-2.19l1.109,0.511c-0.779,1.479-1.979,2.479-3.6,3c-0.62,0.199-1.32,0.3-2.101,0.3
			c-1.859,0-3.391-0.61-4.59-1.83c-1.221-1.22-1.83-2.75-1.83-4.59c0-1.86,0.601-3.391,1.799-4.59c1.222-1.22,2.762-1.83,4.621-1.83
			c1.84,0,3.359,0.569,4.561,1.71c1.22,1.14,1.83,2.62,1.83,4.439H1504.893L1504.893,247.543z M1513.354,243.614
			c-0.941-0.68-2.021-1.021-3.24-1.021c-2.561,0-4.24,1.261-5.041,3.78h10.051C1514.923,245.234,1514.332,244.314,1513.354,243.614z
			"/>
		<path d="M1525.202,243.434c-0.319-0.24-0.659-0.431-1.021-0.57c-0.361-0.139-0.74-0.21-1.141-0.21
			c-0.341,0-0.659,0.104-0.961,0.314c-0.299,0.21-0.56,0.471-0.778,0.78c-0.222,0.311-0.396,0.655-0.525,1.035
			c-0.129,0.38-0.195,0.73-0.195,1.05v8.16h-1.229v-12.39h1.229v1.68c0.261-0.46,0.602-0.88,1.021-1.26s0.88-0.57,1.38-0.57
			c0.619,0,1.13,0.07,1.53,0.21c0.398,0.141,0.85,0.39,1.351,0.75L1525.202,243.434z"/>
		<path d="M1533.332,253.213c-0.801,0.681-1.761,1.021-2.881,1.021c-1.92,0-3.359-0.87-4.318-2.61l1.049-0.63
			c0.34,0.62,0.75,1.101,1.229,1.44c0.5,0.38,1.181,0.569,2.04,0.569c1.881,0,2.819-0.8,2.819-2.399c0-0.7-0.329-1.31-0.989-1.83
			c-0.199-0.12-0.484-0.255-0.854-0.405c-0.371-0.15-0.826-0.325-1.365-0.525c-1-0.359-1.721-0.72-2.16-1.08
			c-0.641-0.52-0.96-1.27-0.96-2.25c0-0.84,0.319-1.56,0.96-2.159c0.619-0.62,1.43-0.931,2.43-0.931c1.382,0,2.552,0.48,3.511,1.44
			l-0.899,0.78c-0.681-0.68-1.55-1.021-2.609-1.021c-1.439,0-2.16,0.63-2.16,1.89c0,0.561,0.221,1.021,0.66,1.381
			c0.359,0.28,0.93,0.55,1.709,0.81c0.681,0.24,1.24,0.465,1.682,0.675c0.438,0.21,0.77,0.396,0.99,0.556
			c0.858,0.659,1.289,1.55,1.289,2.67C1534.502,251.684,1534.112,252.553,1533.332,253.213z"/>
		<path d="M1537.411,247.543c0,1.681,0.45,3.011,1.351,3.99c0.939,1,2.229,1.5,3.871,1.5c0.84,0,1.6-0.14,2.278-0.42
			c0.859-0.36,1.63-1.09,2.312-2.19l1.109,0.511c-0.779,1.479-1.979,2.479-3.601,3c-0.62,0.199-1.319,0.3-2.1,0.3
			c-1.86,0-3.392-0.61-4.59-1.83c-1.222-1.22-1.83-2.75-1.83-4.59c0-1.86,0.6-3.391,1.799-4.59c1.221-1.22,2.761-1.83,4.621-1.83
			c1.84,0,3.358,0.569,4.56,1.71c1.221,1.14,1.83,2.62,1.83,4.439H1537.411L1537.411,247.543z M1545.873,243.614
			c-0.941-0.68-2.021-1.021-3.24-1.021c-2.562,0-4.24,1.261-5.041,3.78h10.051C1547.442,245.234,1546.852,244.314,1545.873,243.614z
			"/>
		<path d="M1557.723,254.234c-1.841,0-3.371-0.61-4.59-1.83c-1.221-1.22-1.83-2.75-1.83-4.59s0.609-3.37,1.83-4.59
			c1.219-1.22,2.749-1.83,4.59-1.83c1.579,0,2.84,0.359,3.779,1.08v1.47l-0.779-0.51l-0.84-0.45c-0.762-0.26-1.48-0.391-2.16-0.391
			c-1.541,0-2.791,0.48-3.75,1.44c-0.98,0.98-1.471,2.24-1.471,3.78c0,1.52,0.489,2.77,1.471,3.75c0.979,0.979,2.229,1.47,3.75,1.47
			c1.438,0,2.699-0.48,3.779-1.44v1.53C1560.382,253.864,1559.12,254.234,1557.723,254.234z"/>
		<path d="M1566.87,242.833v11.16h-1.229v-11.16h-1.681v-1.229h1.681v-5.431h1.229v5.431h2.882v1.229H1566.87z"/>
		<path d="M1578.602,253.213c-0.8,0.681-1.76,1.021-2.88,1.021c-1.92,0-3.36-0.87-4.319-2.61l1.049-0.63
			c0.34,0.62,0.75,1.101,1.23,1.44c0.5,0.38,1.18,0.569,2.04,0.569c1.88,0,2.819-0.8,2.819-2.399c0-0.7-0.329-1.31-0.989-1.83
			c-0.2-0.12-0.485-0.255-0.854-0.405c-0.371-0.15-0.826-0.325-1.365-0.525c-1-0.359-1.721-0.72-2.159-1.08
			c-0.642-0.52-0.96-1.27-0.96-2.25c0-0.84,0.318-1.56,0.96-2.159c0.618-0.62,1.43-0.931,2.43-0.931c1.381,0,2.551,0.48,3.51,1.44
			l-0.898,0.78c-0.682-0.68-1.551-1.021-2.61-1.021c-1.439,0-2.16,0.63-2.16,1.89c0,0.561,0.221,1.021,0.66,1.381
			c0.36,0.28,0.93,0.55,1.71,0.81c0.68,0.24,1.24,0.465,1.681,0.675c0.439,0.21,0.771,0.396,0.99,0.556
			c0.859,0.659,1.289,1.55,1.289,2.67C1579.771,251.684,1579.382,252.553,1578.602,253.213z"/>
		<path d="M1583.821,252.763h12.24v1.23h-14.431l12.271-20.16h-11.55v-1.26h13.77L1583.821,252.763z"/>
		<path d="M1607.551,252.343c-1.24,1.24-2.76,1.86-4.561,1.86c-1.8,0-3.31-0.609-4.529-1.83c-1.24-1.239-1.859-2.76-1.859-4.56
			c0-1.78,0.619-3.29,1.859-4.53c1.221-1.26,2.729-1.89,4.529-1.89c1.78,0,3.29,0.62,4.53,1.859c1.24,1.24,1.859,2.76,1.859,4.561
			C1609.381,249.614,1608.771,251.124,1607.551,252.343z M1606.682,244.124c-1-1.02-2.23-1.53-3.69-1.53
			c-1.398,0-2.609,0.521-3.63,1.561c-1.04,1.04-1.561,2.26-1.561,3.66c0,1.42,0.51,2.64,1.529,3.66
			c1.021,1.02,2.239,1.529,3.66,1.529c1.44,0,2.659-0.499,3.66-1.5c1.021-1.02,1.53-2.25,1.53-3.689
			C1608.182,246.354,1607.682,245.124,1606.682,244.124z"/>
		<path d="M1620.811,253.994v-7.41c0-2.62-1.18-3.93-3.54-3.93c-1.16,0-2.04,0.34-2.64,1.02c-0.62,0.681-0.931,1.61-0.931,2.79v7.53
			h-1.229v-12.39h1.229v1.5c0.56-1.1,1.75-1.65,3.569-1.65c1.54,0,2.72,0.44,3.54,1.32s1.229,2.11,1.229,3.689v7.53
			L1620.811,253.994L1620.811,253.994z"/>
		<path d="M1626.24,247.543c0,1.681,0.45,3.011,1.351,3.99c0.939,1,2.229,1.5,3.871,1.5c0.84,0,1.6-0.14,2.278-0.42
			c0.859-0.36,1.63-1.09,2.312-2.19l1.108,0.511c-0.778,1.479-1.979,2.479-3.6,3c-0.62,0.199-1.32,0.3-2.1,0.3
			c-1.86,0-3.392-0.61-4.591-1.83c-1.221-1.22-1.829-2.75-1.829-4.59c0-1.86,0.6-3.391,1.799-4.59c1.221-1.22,2.761-1.83,4.621-1.83
			c1.84,0,3.358,0.569,4.56,1.71c1.22,1.14,1.83,2.62,1.83,4.439H1626.24L1626.24,247.543z M1634.7,243.614
			c-0.94-0.68-2.021-1.021-3.239-1.021c-2.562,0-4.24,1.261-5.041,3.78h10.051C1636.271,245.234,1635.68,244.314,1634.7,243.614z"/>
	</g>
</g>
<g>
	
		<rect x="1416.955" y="176.801" fill="#EDEDED" stroke="#000000" stroke-width="0.3" stroke-miterlimit="10" width="239.532" height="42.143"/>
	<g>
		<path d="M1447.233,205.676c-1.24,1.24-2.76,1.86-4.56,1.86c-2.062,0-3.75-0.83-5.07-2.49v2.28h-1.229v-22.2h1.229v12.12
			c1.3-1.66,2.99-2.49,5.07-2.49c1.8,0,3.31,0.61,4.528,1.83c1.24,1.24,1.86,2.76,1.86,4.561
			C1449.063,202.947,1448.452,204.457,1447.233,205.676z M1446.334,197.487c-1.021-1.021-2.24-1.53-3.66-1.53
			c-1.44,0-2.66,0.5-3.66,1.5c-1.021,1.021-1.53,2.25-1.53,3.69c0,1.42,0.511,2.64,1.53,3.66s2.24,1.529,3.66,1.529
			c1.438,0,2.66-0.499,3.66-1.5c1.02-1.02,1.528-2.25,1.528-3.689C1447.863,199.727,1447.354,198.506,1446.334,197.487z"/>
		<path d="M1462.233,205.676c-1.24,1.24-2.76,1.86-4.56,1.86c-1.802,0-3.312-0.609-4.53-1.83c-1.24-1.239-1.86-2.76-1.86-4.56
			c0-1.78,0.62-3.29,1.86-4.53c1.22-1.26,2.729-1.89,4.53-1.89c1.778,0,3.288,0.62,4.528,1.859c1.24,1.24,1.86,2.76,1.86,4.561
			C1464.063,202.947,1463.452,204.457,1462.233,205.676z M1461.363,197.457c-1-1.02-2.229-1.53-3.688-1.53
			c-1.4,0-2.61,0.521-3.631,1.561c-1.039,1.04-1.561,2.26-1.561,3.66c0,1.42,0.51,2.64,1.53,3.66c1.02,1.02,2.239,1.529,3.66,1.529
			c1.438,0,2.659-0.499,3.66-1.5c1.02-1.02,1.528-2.25,1.528-3.689C1462.863,199.687,1462.363,198.457,1461.363,197.457z"/>
		<path d="M1469.014,196.166v11.16h-1.23v-11.16h-1.68v-1.229h1.68v-5.431h1.23v5.431h2.88v1.229H1469.014z"/>
		<path d="M1475.193,198.657c-0.221,0-0.45-0.09-0.688-0.271c-0.182-0.18-0.281-0.42-0.302-0.72c0-0.54,0.33-0.87,0.99-0.99
			c0.5,0,0.83,0.33,0.99,0.99C1476.184,198.327,1475.854,198.657,1475.193,198.657z M1475.193,207.506
			c-0.221,0-0.45-0.09-0.688-0.27c-0.182-0.18-0.281-0.42-0.302-0.72c0-0.54,0.33-0.87,0.99-0.99c0.5,0,0.83,0.33,0.99,0.99
			C1476.184,207.176,1475.854,207.506,1475.193,207.506z"/>
		<path d="M1480.383,192.716c-0.221,0-0.449-0.09-0.689-0.27c-0.18-0.18-0.281-0.42-0.301-0.72c0-0.54,0.33-0.87,0.99-0.99
			c0.5,0,0.83,0.33,0.99,0.99C1481.373,192.386,1481.043,192.716,1480.383,192.716z M1479.753,207.327v-12.39h1.229v12.39H1479.753z
			"/>
		<path d="M1491.963,207.327v-7.41c0-2.62-1.181-3.93-3.54-3.93c-1.16,0-2.04,0.34-2.641,1.02c-0.62,0.681-0.93,1.61-0.93,2.79v7.53
			h-1.23v-12.39h1.23v1.5c0.559-1.1,1.75-1.65,3.569-1.65c1.539,0,2.72,0.44,3.539,1.32c0.82,0.88,1.23,2.11,1.23,3.689v7.53
			L1491.963,207.327L1491.963,207.327z"/>
		<path d="M1499.013,196.166v11.16h-1.229v-11.16h-1.68v-1.229h1.68v-5.431h1.229v5.431h2.88v1.229H1499.013z"/>
		<path d="M1504.893,200.876c0,1.681,0.45,3.011,1.35,3.99c0.94,1,2.23,1.5,3.871,1.5c0.84,0,1.6-0.14,2.279-0.42
			c0.859-0.36,1.63-1.09,2.311-2.19l1.109,0.511c-0.779,1.479-1.979,2.479-3.6,3c-0.62,0.199-1.32,0.3-2.101,0.3
			c-1.859,0-3.391-0.61-4.59-1.83c-1.221-1.22-1.83-2.75-1.83-4.59c0-1.86,0.601-3.391,1.799-4.59c1.222-1.22,2.762-1.83,4.621-1.83
			c1.84,0,3.359,0.569,4.561,1.71c1.22,1.14,1.83,2.62,1.83,4.439H1504.893L1504.893,200.876z M1513.354,196.947
			c-0.941-0.68-2.021-1.021-3.24-1.021c-2.561,0-4.24,1.261-5.041,3.78h10.051C1514.923,198.567,1514.332,197.647,1513.354,196.947z
			"/>
		<path d="M1525.202,196.767c-0.319-0.24-0.659-0.431-1.021-0.57c-0.361-0.139-0.74-0.21-1.141-0.21
			c-0.341,0-0.659,0.104-0.961,0.314c-0.299,0.21-0.56,0.471-0.778,0.78c-0.222,0.311-0.396,0.655-0.525,1.035
			c-0.129,0.38-0.195,0.73-0.195,1.05v8.16h-1.229v-12.39h1.229v1.68c0.261-0.46,0.602-0.88,1.021-1.26s0.88-0.57,1.38-0.57
			c0.619,0,1.13,0.07,1.53,0.21c0.398,0.141,0.85,0.39,1.351,0.75L1525.202,196.767z"/>
		<path d="M1533.332,206.546c-0.801,0.681-1.761,1.021-2.881,1.021c-1.92,0-3.359-0.87-4.318-2.61l1.049-0.63
			c0.34,0.62,0.75,1.101,1.229,1.44c0.5,0.38,1.181,0.569,2.04,0.569c1.881,0,2.819-0.8,2.819-2.399c0-0.7-0.329-1.31-0.989-1.83
			c-0.199-0.12-0.484-0.255-0.854-0.405c-0.371-0.15-0.826-0.325-1.365-0.525c-1-0.359-1.721-0.72-2.16-1.08
			c-0.641-0.52-0.96-1.27-0.96-2.25c0-0.84,0.319-1.56,0.96-2.159c0.619-0.62,1.43-0.931,2.43-0.931c1.382,0,2.552,0.48,3.511,1.44
			l-0.899,0.78c-0.681-0.68-1.55-1.021-2.609-1.021c-1.439,0-2.16,0.63-2.16,1.89c0,0.561,0.221,1.021,0.66,1.381
			c0.359,0.28,0.93,0.55,1.709,0.81c0.681,0.24,1.24,0.465,1.682,0.675c0.438,0.21,0.77,0.396,0.99,0.556
			c0.858,0.659,1.289,1.55,1.289,2.67C1534.502,205.017,1534.112,205.886,1533.332,206.546z"/>
		<path d="M1537.411,200.876c0,1.681,0.45,3.011,1.351,3.99c0.939,1,2.229,1.5,3.871,1.5c0.84,0,1.6-0.14,2.278-0.42
			c0.859-0.36,1.63-1.09,2.312-2.19l1.109,0.511c-0.779,1.479-1.979,2.479-3.601,3c-0.62,0.199-1.319,0.3-2.1,0.3
			c-1.86,0-3.392-0.61-4.59-1.83c-1.222-1.22-1.83-2.75-1.83-4.59c0-1.86,0.6-3.391,1.799-4.59c1.221-1.22,2.761-1.83,4.621-1.83
			c1.84,0,3.358,0.569,4.56,1.71c1.221,1.14,1.83,2.62,1.83,4.439H1537.411L1537.411,200.876z M1545.873,196.947
			c-0.941-0.68-2.021-1.021-3.24-1.021c-2.562,0-4.24,1.261-5.041,3.78h10.051C1547.442,198.567,1546.852,197.647,1545.873,196.947z
			"/>
		<path d="M1557.723,207.567c-1.841,0-3.371-0.61-4.59-1.83c-1.221-1.22-1.83-2.75-1.83-4.59s0.609-3.37,1.83-4.59
			c1.219-1.22,2.749-1.83,4.59-1.83c1.579,0,2.84,0.359,3.779,1.08v1.47l-0.779-0.51l-0.84-0.45c-0.762-0.26-1.48-0.391-2.16-0.391
			c-1.541,0-2.791,0.48-3.75,1.44c-0.98,0.98-1.471,2.24-1.471,3.78c0,1.52,0.489,2.77,1.471,3.75c0.979,0.979,2.229,1.47,3.75,1.47
			c1.438,0,2.699-0.48,3.779-1.44v1.53C1560.382,207.197,1559.12,207.567,1557.723,207.567z"/>
		<path d="M1566.87,196.166v11.16h-1.229v-11.16h-1.681v-1.229h1.681v-5.431h1.229v5.431h2.882v1.229H1566.87z"/>
		<path d="M1578.602,206.546c-0.8,0.681-1.76,1.021-2.88,1.021c-1.92,0-3.36-0.87-4.319-2.61l1.049-0.63
			c0.34,0.62,0.75,1.101,1.23,1.44c0.5,0.38,1.18,0.569,2.04,0.569c1.88,0,2.819-0.8,2.819-2.399c0-0.7-0.329-1.31-0.989-1.83
			c-0.2-0.12-0.485-0.255-0.854-0.405c-0.371-0.15-0.826-0.325-1.365-0.525c-1-0.359-1.721-0.72-2.159-1.08
			c-0.642-0.52-0.96-1.27-0.96-2.25c0-0.84,0.318-1.56,0.96-2.159c0.618-0.62,1.43-0.931,2.43-0.931c1.381,0,2.551,0.48,3.51,1.44
			l-0.898,0.78c-0.682-0.68-1.551-1.021-2.61-1.021c-1.439,0-2.16,0.63-2.16,1.89c0,0.561,0.221,1.021,0.66,1.381
			c0.36,0.28,0.93,0.55,1.71,0.81c0.68,0.24,1.24,0.465,1.681,0.675c0.439,0.21,0.771,0.396,0.99,0.556
			c0.859,0.659,1.289,1.55,1.289,2.67C1579.771,205.017,1579.382,205.886,1578.602,206.546z"/>
		<path d="M1583.821,206.096h12.24v1.23h-14.431l12.271-20.16h-11.55v-1.26h13.77L1583.821,206.096z"/>
		<path d="M1607.551,205.676c-1.24,1.24-2.76,1.86-4.561,1.86c-1.8,0-3.31-0.609-4.529-1.83c-1.24-1.239-1.859-2.76-1.859-4.56
			c0-1.78,0.619-3.29,1.859-4.53c1.221-1.26,2.729-1.89,4.529-1.89c1.78,0,3.29,0.62,4.53,1.859c1.24,1.24,1.859,2.76,1.859,4.561
			C1609.381,202.947,1608.771,204.457,1607.551,205.676z M1606.682,197.457c-1-1.02-2.23-1.53-3.69-1.53
			c-1.398,0-2.609,0.521-3.63,1.561c-1.04,1.04-1.561,2.26-1.561,3.66c0,1.42,0.51,2.64,1.529,3.66
			c1.021,1.02,2.239,1.529,3.66,1.529c1.44,0,2.659-0.499,3.66-1.5c1.021-1.02,1.53-2.25,1.53-3.689
			C1608.182,199.687,1607.682,198.457,1606.682,197.457z"/>
		<path d="M1620.811,207.327v-7.41c0-2.62-1.18-3.93-3.54-3.93c-1.16,0-2.04,0.34-2.64,1.02c-0.62,0.681-0.931,1.61-0.931,2.79v7.53
			h-1.229v-12.39h1.229v1.5c0.56-1.1,1.75-1.65,3.569-1.65c1.54,0,2.72,0.44,3.54,1.32s1.229,2.11,1.229,3.689v7.53
			L1620.811,207.327L1620.811,207.327z"/>
		<path d="M1626.24,200.876c0,1.681,0.45,3.011,1.351,3.99c0.939,1,2.229,1.5,3.871,1.5c0.84,0,1.6-0.14,2.278-0.42
			c0.859-0.36,1.63-1.09,2.312-2.19l1.108,0.511c-0.778,1.479-1.979,2.479-3.6,3c-0.62,0.199-1.32,0.3-2.1,0.3
			c-1.86,0-3.392-0.61-4.591-1.83c-1.221-1.22-1.829-2.75-1.829-4.59c0-1.86,0.6-3.391,1.799-4.59c1.221-1.22,2.761-1.83,4.621-1.83
			c1.84,0,3.358,0.569,4.56,1.71c1.22,1.14,1.83,2.62,1.83,4.439H1626.24L1626.24,200.876z M1634.7,196.947
			c-0.94-0.68-2.021-1.021-3.239-1.021c-2.562,0-4.24,1.261-5.041,3.78h10.051C1636.271,198.567,1635.68,197.647,1634.7,196.947z"/>
	</g>
</g>
<g>
	<g>
		<path fill="none" stroke="#000000" stroke-miterlimit="10" stroke-dasharray="3.007,3.007" d="M1409.063,363.388
			c-3.195-67.06-58.063-118.849,7.893-118.849"/>
		<g>
			<polygon points="1412.655,360.475 1408.998,362.154 1405.252,360.688 1409.207,369.356 			"/>
		</g>
	</g>
</g>
<g>
	<g>
		<path fill="none" stroke="#000000" stroke-miterlimit="10" d="M1392.9,363.388c-3.195-67.06-59.715-164.972,24.056-164.972"/>
	</g>
</g>
<path fill="none" stroke="#000000" stroke-miterlimit="10" stroke-dasharray="3.007,3.007" d="M1573.323,382.766
	c0-97.983,223.94-138.227,83.164-138.227"/>
<g>
	
		<rect x="1645.882" y="288.894" fill="#EDEDED" stroke="#000000" stroke-width="0.3" stroke-miterlimit="10" width="239.532" height="42.143"/>
	<g>
		<path d="M1676.16,317.769c-1.24,1.239-2.76,1.859-4.56,1.859c-2.062,0-3.75-0.83-5.07-2.489v2.279h-1.23v-22.2h1.23v12.12
			c1.3-1.66,2.99-2.489,5.07-2.489c1.8,0,3.31,0.609,4.528,1.829c1.24,1.24,1.86,2.761,1.86,4.562
			C1677.99,315.04,1677.379,316.549,1676.16,317.769z M1675.26,309.58c-1.021-1.021-2.239-1.53-3.659-1.53
			c-1.44,0-2.66,0.5-3.66,1.5c-1.021,1.021-1.53,2.25-1.53,3.69c0,1.42,0.511,2.64,1.53,3.66c1.02,1.02,2.239,1.528,3.66,1.528
			c1.438,0,2.659-0.498,3.659-1.5c1.021-1.02,1.529-2.25,1.529-3.688C1676.789,311.82,1676.281,310.599,1675.26,309.58z"/>
		<path d="M1691.16,317.769c-1.24,1.239-2.76,1.859-4.56,1.859c-1.802,0-3.312-0.608-4.53-1.83c-1.24-1.238-1.86-2.76-1.86-4.56
			c0-1.78,0.62-3.29,1.86-4.53c1.22-1.26,2.729-1.89,4.53-1.89c1.778,0,3.288,0.62,4.528,1.858c1.24,1.24,1.86,2.761,1.86,4.562
			C1692.99,315.04,1692.379,316.549,1691.16,317.769z M1690.289,309.549c-1-1.02-2.229-1.529-3.688-1.529
			c-1.4,0-2.61,0.521-3.631,1.561c-1.039,1.04-1.561,2.26-1.561,3.66c0,1.42,0.51,2.64,1.53,3.66c1.02,1.02,2.239,1.529,3.66,1.529
			c1.438,0,2.659-0.499,3.659-1.5c1.021-1.021,1.529-2.25,1.529-3.689C1691.789,311.78,1691.289,310.549,1690.289,309.549z"/>
		<path d="M1697.941,308.259v11.16h-1.23v-11.16h-1.68v-1.229h1.68V301.6h1.23v5.431h2.88v1.229H1697.941z"/>
		<path d="M1704.119,310.75c-0.221,0-0.45-0.09-0.688-0.271c-0.182-0.181-0.281-0.42-0.302-0.721c0-0.54,0.33-0.869,0.99-0.989
			c0.5,0,0.83,0.33,0.99,0.989C1705.111,310.419,1704.781,310.75,1704.119,310.75z M1704.119,319.599
			c-0.221,0-0.45-0.091-0.688-0.271c-0.182-0.18-0.281-0.42-0.302-0.72c0-0.54,0.33-0.87,0.99-0.99c0.5,0,0.83,0.33,0.99,0.99
			C1705.111,319.269,1704.781,319.599,1704.119,319.599z"/>
		<path d="M1709.31,304.809c-0.222,0-0.449-0.091-0.689-0.271c-0.18-0.18-0.281-0.42-0.301-0.72c0-0.54,0.33-0.87,0.99-0.99
			c0.5,0,0.83,0.33,0.989,0.99C1710.299,304.479,1709.969,304.809,1709.31,304.809z M1708.679,319.419v-12.39h1.229v12.39H1708.679z
			"/>
		<path d="M1720.89,319.419v-7.41c0-2.619-1.181-3.93-3.541-3.93c-1.159,0-2.039,0.34-2.64,1.021c-0.62,0.681-0.93,1.609-0.93,2.79
			v7.529h-1.23v-12.39h1.23v1.5c0.559-1.1,1.75-1.65,3.568-1.65c1.54,0,2.721,0.44,3.54,1.32c0.82,0.88,1.23,2.11,1.23,3.689v7.529
			L1720.89,319.419L1720.89,319.419z"/>
		<path d="M1727.94,308.259v11.16h-1.229v-11.16h-1.68v-1.229h1.68V301.6h1.229v5.431h2.88v1.229H1727.94z"/>
		<path d="M1733.82,312.969c0,1.682,0.449,3.012,1.35,3.99c0.94,1,2.23,1.5,3.871,1.5c0.84,0,1.6-0.14,2.279-0.42
			c0.858-0.359,1.63-1.09,2.311-2.189l1.109,0.511c-0.779,1.479-1.979,2.479-3.6,3c-0.62,0.199-1.32,0.3-2.101,0.3
			c-1.86,0-3.391-0.61-4.59-1.83c-1.221-1.22-1.83-2.75-1.83-4.59c0-1.86,0.601-3.391,1.799-4.59c1.222-1.221,2.761-1.83,4.621-1.83
			c1.84,0,3.359,0.569,4.561,1.71c1.22,1.14,1.829,2.62,1.829,4.438H1733.82L1733.82,312.969z M1742.281,309.04
			c-0.941-0.68-2.021-1.021-3.24-1.021c-2.561,0-4.24,1.261-5.041,3.779h10.051C1743.849,310.66,1743.258,309.74,1742.281,309.04z"
			/>
		<path d="M1754.129,308.86c-0.319-0.24-0.66-0.432-1.021-0.57c-0.361-0.139-0.74-0.21-1.141-0.21c-0.341,0-0.66,0.104-0.961,0.314
			c-0.299,0.21-0.56,0.471-0.779,0.779c-0.221,0.312-0.396,0.655-0.524,1.035s-0.195,0.73-0.195,1.05v8.16h-1.229v-12.39h1.229v1.68
			c0.261-0.46,0.602-0.88,1.021-1.26s0.88-0.57,1.38-0.57c0.619,0,1.13,0.07,1.53,0.21c0.398,0.142,0.85,0.391,1.351,0.75
			L1754.129,308.86z"/>
		<path d="M1762.258,318.639c-0.8,0.681-1.76,1.021-2.88,1.021c-1.92,0-3.359-0.87-4.318-2.61l1.049-0.63
			c0.34,0.62,0.75,1.102,1.229,1.44c0.5,0.38,1.181,0.568,2.04,0.568c1.88,0,2.819-0.8,2.819-2.398c0-0.7-0.329-1.311-0.989-1.83
			c-0.2-0.12-0.484-0.255-0.854-0.405c-0.371-0.149-0.826-0.325-1.365-0.524c-1-0.359-1.721-0.721-2.16-1.08
			c-0.641-0.521-0.96-1.271-0.96-2.25c0-0.84,0.319-1.561,0.96-2.159c0.619-0.62,1.43-0.931,2.43-0.931
			c1.381,0,2.552,0.479,3.511,1.439l-0.899,0.78c-0.681-0.68-1.55-1.021-2.61-1.021c-1.438,0-2.159,0.631-2.159,1.891
			c0,0.561,0.221,1.021,0.659,1.381c0.36,0.28,0.931,0.55,1.71,0.81c0.681,0.24,1.24,0.466,1.682,0.676
			c0.438,0.21,0.77,0.396,0.99,0.556c0.858,0.659,1.288,1.55,1.288,2.67C1763.428,317.11,1763.038,317.979,1762.258,318.639z"/>
		<path d="M1766.338,312.969c0,1.682,0.45,3.012,1.351,3.99c0.939,1,2.229,1.5,3.871,1.5c0.84,0,1.6-0.14,2.278-0.42
			c0.859-0.359,1.63-1.09,2.312-2.189l1.108,0.511c-0.778,1.479-1.979,2.479-3.6,3c-0.62,0.199-1.32,0.3-2.1,0.3
			c-1.86,0-3.392-0.61-4.591-1.83c-1.221-1.22-1.829-2.75-1.829-4.59c0-1.86,0.6-3.391,1.799-4.59
			c1.221-1.221,2.761-1.83,4.621-1.83c1.84,0,3.358,0.569,4.56,1.71c1.22,1.14,1.83,2.62,1.83,4.438H1766.338L1766.338,312.969z
			 M1774.799,309.04c-0.94-0.68-2.021-1.021-3.239-1.021c-2.562,0-4.24,1.261-5.041,3.779h10.051
			C1776.369,310.66,1775.779,309.74,1774.799,309.04z"/>
		<path d="M1786.65,319.66c-1.841,0-3.371-0.61-4.59-1.83c-1.222-1.22-1.83-2.75-1.83-4.59s0.608-3.37,1.83-4.59
			c1.219-1.22,2.749-1.83,4.59-1.83c1.579,0,2.84,0.359,3.779,1.08v1.47l-0.779-0.51l-0.84-0.45c-0.763-0.26-1.48-0.391-2.16-0.391
			c-1.541,0-2.791,0.479-3.75,1.439c-0.98,0.98-1.471,2.24-1.471,3.78c0,1.52,0.489,2.77,1.471,3.75
			c0.979,0.979,2.229,1.47,3.75,1.47c1.438,0,2.699-0.479,3.779-1.439v1.529C1789.308,319.29,1788.047,319.66,1786.65,319.66z"/>
		<path d="M1795.797,308.259v11.16h-1.229v-11.16h-1.681v-1.229h1.681V301.6h1.229v5.431h2.881v1.229H1795.797z"/>
		<path d="M1807.529,318.639c-0.8,0.681-1.76,1.021-2.88,1.021c-1.92,0-3.36-0.87-4.319-2.61l1.049-0.63
			c0.34,0.62,0.75,1.102,1.23,1.44c0.5,0.38,1.18,0.568,2.04,0.568c1.88,0,2.818-0.8,2.818-2.398c0-0.7-0.329-1.311-0.988-1.83
			c-0.2-0.12-0.485-0.255-0.854-0.405c-0.371-0.149-0.826-0.325-1.365-0.524c-1-0.359-1.721-0.721-2.16-1.08
			c-0.641-0.521-0.959-1.271-0.959-2.25c0-0.84,0.318-1.561,0.959-2.159c0.619-0.62,1.431-0.931,2.431-0.931
			c1.381,0,2.551,0.479,3.51,1.439l-0.899,0.78c-0.681-0.68-1.55-1.021-2.609-1.021c-1.439,0-2.16,0.631-2.16,1.891
			c0,0.561,0.221,1.021,0.66,1.381c0.359,0.28,0.93,0.55,1.71,0.81c0.68,0.24,1.24,0.466,1.681,0.676
			c0.439,0.21,0.771,0.396,0.99,0.556c0.859,0.659,1.289,1.55,1.289,2.67C1808.698,317.11,1808.308,317.979,1807.529,318.639z"/>
		<path d="M1812.747,318.189h12.24v1.229h-14.432l12.271-20.16h-11.55v-1.26h13.77L1812.747,318.189z"/>
		<path d="M1836.478,317.769c-1.24,1.239-2.761,1.859-4.561,1.859s-3.31-0.608-4.53-1.83c-1.239-1.238-1.858-2.76-1.858-4.56
			c0-1.78,0.619-3.29,1.858-4.53c1.222-1.26,2.73-1.89,4.53-1.89c1.78,0,3.29,0.62,4.53,1.858c1.24,1.24,1.858,2.761,1.858,4.562
			C1838.308,315.04,1837.698,316.549,1836.478,317.769z M1835.609,309.549c-1-1.02-2.23-1.529-3.69-1.529
			c-1.398,0-2.609,0.521-3.63,1.561c-1.04,1.04-1.561,2.26-1.561,3.66c0,1.42,0.51,2.64,1.529,3.66
			c1.021,1.02,2.239,1.529,3.66,1.529c1.44,0,2.659-0.499,3.66-1.5c1.021-1.021,1.53-2.25,1.53-3.689
			C1837.109,311.78,1836.609,310.549,1835.609,309.549z"/>
		<path d="M1849.738,319.419v-7.41c0-2.619-1.18-3.93-3.54-3.93c-1.16,0-2.04,0.34-2.64,1.021c-0.62,0.681-0.931,1.609-0.931,2.79
			v7.529h-1.229v-12.39h1.229v1.5c0.56-1.1,1.75-1.65,3.569-1.65c1.54,0,2.72,0.44,3.54,1.32c0.819,0.88,1.229,2.11,1.229,3.689
			v7.529L1849.738,319.419L1849.738,319.419z"/>
		<path d="M1855.166,312.969c0,1.682,0.45,3.012,1.351,3.99c0.939,1,2.229,1.5,3.87,1.5c0.841,0,1.601-0.14,2.279-0.42
			c0.859-0.359,1.63-1.09,2.312-2.189l1.108,0.511c-0.778,1.479-1.979,2.479-3.6,3c-0.62,0.199-1.32,0.3-2.101,0.3
			c-1.859,0-3.391-0.61-4.59-1.83c-1.221-1.22-1.83-2.75-1.83-4.59c0-1.86,0.601-3.391,1.8-4.59c1.221-1.221,2.761-1.83,4.62-1.83
			c1.841,0,3.359,0.569,4.561,1.71c1.22,1.14,1.83,2.62,1.83,4.438H1855.166L1855.166,312.969z M1863.627,309.04
			c-0.94-0.68-2.021-1.021-3.239-1.021c-2.562,0-4.24,1.261-5.041,3.779h10.051C1865.198,310.66,1864.607,309.74,1863.627,309.04z"
			/>
	</g>
</g>
<g>
	
		<rect x="1645.882" y="335.74" fill="#EDEDED" stroke="#000000" stroke-width="0.3" stroke-miterlimit="10" width="239.532" height="42.143"/>
	<g>
		<path d="M1676.16,364.615c-1.24,1.239-2.76,1.859-4.56,1.859c-2.062,0-3.75-0.83-5.07-2.489v2.279h-1.23v-22.2h1.23v12.12
			c1.3-1.66,2.99-2.489,5.07-2.489c1.8,0,3.31,0.609,4.528,1.829c1.24,1.24,1.86,2.761,1.86,4.562
			C1677.99,361.885,1677.379,363.395,1676.16,364.615z M1675.26,356.425c-1.021-1.021-2.239-1.53-3.659-1.53
			c-1.44,0-2.66,0.5-3.66,1.5c-1.021,1.021-1.53,2.25-1.53,3.69c0,1.42,0.511,2.64,1.53,3.66c1.02,1.02,2.239,1.528,3.66,1.528
			c1.438,0,2.659-0.498,3.659-1.5c1.021-1.02,1.529-2.25,1.529-3.688C1676.789,358.666,1676.281,357.445,1675.26,356.425z"/>
		<path d="M1691.16,364.615c-1.24,1.239-2.76,1.859-4.56,1.859c-1.802,0-3.312-0.608-4.53-1.83c-1.24-1.238-1.86-2.76-1.86-4.56
			c0-1.78,0.62-3.29,1.86-4.53c1.22-1.26,2.729-1.89,4.53-1.89c1.778,0,3.288,0.62,4.528,1.858c1.24,1.24,1.86,2.761,1.86,4.562
			C1692.99,361.885,1692.379,363.395,1691.16,364.615z M1690.289,356.395c-1-1.02-2.229-1.529-3.688-1.529
			c-1.4,0-2.61,0.521-3.631,1.561c-1.039,1.04-1.561,2.26-1.561,3.66c0,1.42,0.51,2.64,1.53,3.66c1.02,1.02,2.239,1.529,3.66,1.529
			c1.438,0,2.659-0.499,3.659-1.5c1.021-1.021,1.529-2.25,1.529-3.689C1691.789,358.625,1691.289,357.395,1690.289,356.395z"/>
		<path d="M1697.941,355.105v11.16h-1.23v-11.16h-1.68v-1.229h1.68v-5.431h1.23v5.431h2.88v1.229H1697.941z"/>
		<path d="M1704.119,357.595c-0.221,0-0.45-0.09-0.688-0.271c-0.182-0.181-0.281-0.42-0.302-0.721c0-0.54,0.33-0.869,0.99-0.989
			c0.5,0,0.83,0.33,0.99,0.989C1705.111,357.265,1704.781,357.595,1704.119,357.595z M1704.119,366.445
			c-0.221,0-0.45-0.091-0.688-0.271c-0.182-0.18-0.281-0.42-0.302-0.72c0-0.54,0.33-0.87,0.99-0.99c0.5,0,0.83,0.33,0.99,0.99
			C1705.111,366.115,1704.781,366.445,1704.119,366.445z"/>
		<path d="M1709.31,351.655c-0.222,0-0.449-0.091-0.689-0.271c-0.18-0.18-0.281-0.42-0.301-0.72c0-0.54,0.33-0.87,0.99-0.99
			c0.5,0,0.83,0.33,0.989,0.99C1710.299,351.325,1709.969,351.655,1709.31,351.655z M1708.679,366.265v-12.39h1.229v12.39H1708.679z
			"/>
		<path d="M1720.89,366.265v-7.41c0-2.619-1.181-3.93-3.541-3.93c-1.159,0-2.039,0.34-2.64,1.021c-0.62,0.681-0.93,1.609-0.93,2.79
			v7.529h-1.23v-12.39h1.23v1.5c0.559-1.1,1.75-1.65,3.568-1.65c1.54,0,2.721,0.44,3.54,1.32c0.82,0.88,1.23,2.11,1.23,3.689v7.529
			L1720.89,366.265L1720.89,366.265z"/>
		<path d="M1727.94,355.105v11.16h-1.229v-11.16h-1.68v-1.229h1.68v-5.431h1.229v5.431h2.88v1.229H1727.94z"/>
		<path d="M1733.82,359.815c0,1.682,0.449,3.012,1.35,3.99c0.94,1,2.23,1.5,3.871,1.5c0.84,0,1.6-0.14,2.279-0.42
			c0.858-0.359,1.63-1.09,2.311-2.189l1.109,0.511c-0.779,1.479-1.979,2.479-3.6,3c-0.62,0.199-1.32,0.3-2.101,0.3
			c-1.86,0-3.391-0.61-4.59-1.83c-1.221-1.22-1.83-2.75-1.83-4.59c0-1.86,0.601-3.391,1.799-4.59c1.222-1.221,2.761-1.83,4.621-1.83
			c1.84,0,3.359,0.569,4.561,1.71c1.22,1.14,1.829,2.62,1.829,4.438H1733.82L1733.82,359.815z M1742.281,355.885
			c-0.941-0.68-2.021-1.021-3.24-1.021c-2.561,0-4.24,1.261-5.041,3.779h10.051C1743.849,357.505,1743.258,356.585,1742.281,355.885
			z"/>
		<path d="M1754.129,355.706c-0.319-0.24-0.66-0.432-1.021-0.57c-0.361-0.139-0.74-0.21-1.141-0.21c-0.341,0-0.66,0.104-0.961,0.314
			c-0.299,0.21-0.56,0.471-0.779,0.779c-0.221,0.312-0.396,0.655-0.524,1.035s-0.195,0.73-0.195,1.05v8.16h-1.229v-12.39h1.229v1.68
			c0.261-0.46,0.602-0.88,1.021-1.26s0.88-0.57,1.38-0.57c0.619,0,1.13,0.07,1.53,0.21c0.398,0.142,0.85,0.391,1.351,0.75
			L1754.129,355.706z"/>
		<path d="M1762.258,365.485c-0.8,0.681-1.76,1.021-2.88,1.021c-1.92,0-3.359-0.87-4.318-2.61l1.049-0.63
			c0.34,0.62,0.75,1.102,1.229,1.44c0.5,0.38,1.181,0.568,2.04,0.568c1.88,0,2.819-0.8,2.819-2.398c0-0.7-0.329-1.311-0.989-1.83
			c-0.2-0.12-0.484-0.255-0.854-0.405c-0.371-0.149-0.826-0.325-1.365-0.524c-1-0.359-1.721-0.721-2.16-1.08
			c-0.641-0.521-0.96-1.271-0.96-2.25c0-0.84,0.319-1.561,0.96-2.159c0.619-0.62,1.43-0.931,2.43-0.931
			c1.381,0,2.552,0.479,3.511,1.439l-0.899,0.78c-0.681-0.68-1.55-1.021-2.61-1.021c-1.438,0-2.159,0.631-2.159,1.891
			c0,0.561,0.221,1.021,0.659,1.381c0.36,0.28,0.931,0.55,1.71,0.81c0.681,0.24,1.24,0.466,1.682,0.676
			c0.438,0.21,0.77,0.396,0.99,0.556c0.858,0.659,1.288,1.55,1.288,2.67C1763.428,363.956,1763.038,364.825,1762.258,365.485z"/>
		<path d="M1766.338,359.815c0,1.682,0.45,3.012,1.351,3.99c0.939,1,2.229,1.5,3.871,1.5c0.84,0,1.6-0.14,2.278-0.42
			c0.859-0.359,1.63-1.09,2.312-2.189l1.108,0.511c-0.778,1.479-1.979,2.479-3.6,3c-0.62,0.199-1.32,0.3-2.1,0.3
			c-1.86,0-3.392-0.61-4.591-1.83c-1.221-1.22-1.829-2.75-1.829-4.59c0-1.86,0.6-3.391,1.799-4.59
			c1.221-1.221,2.761-1.83,4.621-1.83c1.84,0,3.358,0.569,4.56,1.71c1.22,1.14,1.83,2.62,1.83,4.438H1766.338L1766.338,359.815z
			 M1774.799,355.885c-0.94-0.68-2.021-1.021-3.239-1.021c-2.562,0-4.24,1.261-5.041,3.779h10.051
			C1776.369,357.505,1775.779,356.585,1774.799,355.885z"/>
		<path d="M1786.65,366.505c-1.841,0-3.371-0.61-4.59-1.83c-1.222-1.22-1.83-2.75-1.83-4.59s0.608-3.37,1.83-4.59
			c1.219-1.22,2.749-1.83,4.59-1.83c1.579,0,2.84,0.359,3.779,1.08v1.47l-0.779-0.51l-0.84-0.45c-0.763-0.26-1.48-0.391-2.16-0.391
			c-1.541,0-2.791,0.479-3.75,1.439c-0.98,0.98-1.471,2.24-1.471,3.78c0,1.52,0.489,2.77,1.471,3.75
			c0.979,0.979,2.229,1.47,3.75,1.47c1.438,0,2.699-0.479,3.779-1.439v1.529C1789.308,366.135,1788.047,366.505,1786.65,366.505z"/>
		<path d="M1795.797,355.105v11.16h-1.229v-11.16h-1.681v-1.229h1.681v-5.431h1.229v5.431h2.881v1.229H1795.797z"/>
		<path d="M1807.529,365.485c-0.8,0.681-1.76,1.021-2.88,1.021c-1.92,0-3.36-0.87-4.319-2.61l1.049-0.63
			c0.34,0.62,0.75,1.102,1.23,1.44c0.5,0.38,1.18,0.568,2.04,0.568c1.88,0,2.818-0.8,2.818-2.398c0-0.7-0.329-1.311-0.988-1.83
			c-0.2-0.12-0.485-0.255-0.854-0.405c-0.371-0.149-0.826-0.325-1.365-0.524c-1-0.359-1.721-0.721-2.16-1.08
			c-0.641-0.521-0.959-1.271-0.959-2.25c0-0.84,0.318-1.561,0.959-2.159c0.619-0.62,1.431-0.931,2.431-0.931
			c1.381,0,2.551,0.479,3.51,1.439l-0.899,0.78c-0.681-0.68-1.55-1.021-2.609-1.021c-1.439,0-2.16,0.631-2.16,1.891
			c0,0.561,0.221,1.021,0.66,1.381c0.359,0.28,0.93,0.55,1.71,0.81c0.68,0.24,1.24,0.466,1.681,0.676
			c0.439,0.21,0.771,0.396,0.99,0.556c0.859,0.659,1.289,1.55,1.289,2.67C1808.698,363.956,1808.308,364.825,1807.529,365.485z"/>
		<path d="M1812.747,365.035h12.24v1.229h-14.432l12.271-20.16h-11.55v-1.26h13.77L1812.747,365.035z"/>
		<path d="M1836.478,364.615c-1.24,1.239-2.761,1.859-4.561,1.859s-3.31-0.608-4.53-1.83c-1.239-1.238-1.858-2.76-1.858-4.56
			c0-1.78,0.619-3.29,1.858-4.53c1.222-1.26,2.73-1.89,4.53-1.89c1.78,0,3.29,0.62,4.53,1.858c1.24,1.24,1.858,2.761,1.858,4.562
			C1838.308,361.885,1837.698,363.395,1836.478,364.615z M1835.609,356.395c-1-1.02-2.23-1.529-3.69-1.529
			c-1.398,0-2.609,0.521-3.63,1.561c-1.04,1.04-1.561,2.26-1.561,3.66c0,1.42,0.51,2.64,1.529,3.66
			c1.021,1.02,2.239,1.529,3.66,1.529c1.44,0,2.659-0.499,3.66-1.5c1.021-1.021,1.53-2.25,1.53-3.689
			C1837.109,358.625,1836.609,357.395,1835.609,356.395z"/>
		<path d="M1849.738,366.265v-7.41c0-2.619-1.18-3.93-3.54-3.93c-1.16,0-2.04,0.34-2.64,1.021c-0.62,0.681-0.931,1.609-0.931,2.79
			v7.529h-1.229v-12.39h1.229v1.5c0.56-1.1,1.75-1.65,3.569-1.65c1.54,0,2.72,0.44,3.54,1.32c0.819,0.88,1.229,2.11,1.229,3.689
			v7.529L1849.738,366.265L1849.738,366.265z"/>
		<path d="M1855.166,359.815c0,1.682,0.45,3.012,1.351,3.99c0.939,1,2.229,1.5,3.87,1.5c0.841,0,1.601-0.14,2.279-0.42
			c0.859-0.359,1.63-1.09,2.312-2.189l1.108,0.511c-0.778,1.479-1.979,2.479-3.6,3c-0.62,0.199-1.32,0.3-2.101,0.3
			c-1.859,0-3.391-0.61-4.59-1.83c-1.221-1.22-1.83-2.75-1.83-4.59c0-1.86,0.601-3.391,1.8-4.59c1.221-1.221,2.761-1.83,4.62-1.83
			c1.841,0,3.359,0.569,4.561,1.71c1.22,1.14,1.83,2.62,1.83,4.438H1855.166L1855.166,359.815z M1863.627,355.885
			c-0.94-0.68-2.021-1.021-3.239-1.021c-2.562,0-4.24,1.261-5.041,3.779h10.051C1865.198,357.505,1864.607,356.585,1863.627,355.885
			z"/>
	</g>
</g>
<path fill="none" stroke="#000000" stroke-miterlimit="10" d="M1586.278,382.766c0-34.421,34.851-72.8,59.604-72.8"/>
<g>
	<g>
		<path fill="none" stroke="#000000" stroke-miterlimit="10" d="M1429.784,593.625c115.197,83.344,623.207-283.661,455.63-283.661"
			/>
		<g>
			<polygon points="1429.707,598.23 1430.788,594.354 1434.328,592.441 1425.157,589.859 			"/>
		</g>
	</g>
</g>
<g>
	
		<rect x="1045.903" y="275.677" fill="#EDEDED" stroke="#000000" stroke-width="0.3" stroke-miterlimit="10" width="212.764" height="42.143"/>
	<g>
		<path d="M1065.75,304.553c-1.239,1.24-2.76,1.859-4.56,1.859c-2.061,0-3.75-0.829-5.07-2.489v2.279h-1.229v-22.2h1.229v12.121
			c1.301-1.66,2.99-2.49,5.07-2.49c1.8,0,3.31,0.609,4.53,1.83c1.239,1.239,1.859,2.76,1.859,4.561
			C1067.58,301.822,1066.971,303.333,1065.75,304.553z M1064.851,296.362c-1.021-1.021-2.24-1.529-3.66-1.529
			c-1.44,0-2.66,0.5-3.66,1.5c-1.02,1.021-1.53,2.25-1.53,3.689c0,1.42,0.511,2.64,1.53,3.66c1.021,1.02,2.24,1.529,3.66,1.529
			c1.44,0,2.66-0.499,3.66-1.5c1.02-1.021,1.53-2.25,1.53-3.689C1066.381,298.603,1065.87,297.383,1064.851,296.362z"/>
		<path d="M1080.75,304.553c-1.239,1.24-2.76,1.859-4.56,1.859s-3.31-0.608-4.53-1.829c-1.239-1.239-1.859-2.761-1.859-4.561
			c0-1.78,0.62-3.29,1.859-4.53c1.22-1.26,2.73-1.89,4.53-1.89c1.78,0,3.29,0.62,4.53,1.859c1.239,1.239,1.859,2.76,1.859,4.561
			C1082.58,301.822,1081.971,303.333,1080.75,304.553z M1079.881,296.333c-1-1.021-2.23-1.53-3.69-1.53
			c-1.4,0-2.61,0.521-3.63,1.561c-1.04,1.04-1.561,2.261-1.561,3.66c0,1.42,0.511,2.641,1.53,3.66c1.021,1.02,2.24,1.529,3.66,1.529
			c1.44,0,2.66-0.499,3.66-1.5c1.02-1.021,1.53-2.25,1.53-3.689C1081.381,298.563,1080.881,297.333,1079.881,296.333z"/>
		<path d="M1087.531,295.043v11.159h-1.229v-11.159h-1.681v-1.229h1.681v-5.431h1.229v5.431h2.88v1.229H1087.531z"/>
		<path d="M1093.71,297.532c-0.22,0-0.449-0.09-0.689-0.271c-0.18-0.18-0.28-0.42-0.3-0.72c0-0.54,0.33-0.87,0.989-0.99
			c0.5,0,0.83,0.33,0.99,0.99C1094.7,297.202,1094.37,297.532,1093.71,297.532z M1093.71,306.383c-0.22,0-0.449-0.09-0.689-0.271
			c-0.18-0.18-0.28-0.42-0.3-0.72c0-0.54,0.33-0.87,0.989-0.99c0.5,0,0.83,0.33,0.99,0.99
			C1094.7,306.053,1094.37,306.383,1093.71,306.383z"/>
		<path d="M1108.471,306.202v-2.13c-1.3,1.561-2.951,2.34-4.95,2.34c-1.8,0-3.311-0.608-4.53-1.829
			c-1.24-1.239-1.86-2.761-1.86-4.561c0-1.801,0.61-3.311,1.83-4.53c1.24-1.239,2.761-1.859,4.561-1.859
			c1.979,0,3.63,0.78,4.95,2.34v-2.159h1.229v12.391h-1.229V306.202z M1107.181,296.362c-1.021-1.021-2.24-1.529-3.66-1.529
			c-1.44,0-2.66,0.5-3.66,1.5c-1.02,1.021-1.53,2.25-1.53,3.689c0,1.42,0.511,2.64,1.53,3.66c1.021,1.02,2.24,1.529,3.66,1.529
			c1.439,0,2.66-0.499,3.66-1.5c1.02-1.021,1.529-2.25,1.529-3.689C1108.71,298.603,1108.2,297.383,1107.181,296.362z"/>
		<path d="M1124.101,306.202v-2.22c-1.32,1.62-3,2.43-5.04,2.43c-1.8,0-3.312-0.608-4.53-1.829c-1.24-1.239-1.859-2.761-1.859-4.561
			c0-1.801,0.609-3.311,1.829-4.53c1.24-1.239,2.761-1.859,4.561-1.859c1.979,0,3.66,0.811,5.04,2.431v-12.062h1.229v22.201
			L1124.101,306.202L1124.101,306.202z M1122.72,296.362c-1.021-1.021-2.24-1.529-3.66-1.529c-1.44,0-2.66,0.5-3.66,1.5
			c-1.02,1.021-1.53,2.25-1.53,3.689c0,1.42,0.511,2.64,1.53,3.66c1.021,1.02,2.24,1.529,3.66,1.529c1.439,0,2.66-0.499,3.66-1.5
			c1.02-1.021,1.529-2.25,1.529-3.689C1124.25,298.603,1123.74,297.383,1122.72,296.362z"/>
		<path d="M1129.829,291.593c-0.22,0-0.449-0.09-0.689-0.271c-0.181-0.18-0.28-0.42-0.3-0.72c0-0.54,0.329-0.87,0.989-0.99
			c0.5,0,0.83,0.33,0.99,0.99C1130.82,291.263,1130.49,291.593,1129.829,291.593z M1129.231,311.603v-17.79h1.229v17.79H1129.231z"
			/>
		<path d="M1144.949,306.202v-2.13c-1.3,1.561-2.951,2.34-4.95,2.34c-1.8,0-3.31-0.608-4.529-1.829
			c-1.24-1.239-1.86-2.761-1.86-4.561c0-1.801,0.61-3.311,1.83-4.53c1.24-1.239,2.76-1.859,4.56-1.859c1.98,0,3.631,0.78,4.95,2.34
			v-2.159h1.23v12.391h-1.23V306.202z M1143.659,296.362c-1.02-1.021-2.24-1.529-3.66-1.529c-1.439,0-2.659,0.5-3.659,1.5
			c-1.021,1.021-1.53,2.25-1.53,3.689c0,1.42,0.51,2.64,1.53,3.66c1.02,1.02,2.239,1.529,3.659,1.529c1.44,0,2.66-0.499,3.66-1.5
			c1.021-1.021,1.53-2.25,1.53-3.689C1145.19,298.603,1144.68,297.383,1143.659,296.362z"/>
		<path d="M1155.69,306.442c-1.84,0-3.371-0.609-4.59-1.83c-1.22-1.22-1.83-2.75-1.83-4.59s0.61-3.37,1.83-4.59
			c1.219-1.22,2.75-1.83,4.59-1.83c1.58,0,2.84,0.359,3.78,1.08v1.47l-0.78-0.51l-0.84-0.45c-0.761-0.26-1.48-0.391-2.16-0.391
			c-1.541,0-2.79,0.479-3.75,1.439c-0.979,0.98-1.47,2.24-1.47,3.78c0,1.521,0.49,2.771,1.47,3.75s2.229,1.47,3.75,1.47
			c1.44,0,2.7-0.479,3.78-1.439v1.53C1158.35,306.072,1157.089,306.442,1155.69,306.442z"/>
		<path d="M1161.449,299.753c0,1.681,0.45,3.011,1.351,3.989c0.939,1,2.229,1.5,3.869,1.5c0.841,0,1.601-0.14,2.28-0.42
			c0.859-0.359,1.629-1.09,2.311-2.189l1.109,0.511c-0.78,1.479-1.979,2.479-3.6,3c-0.62,0.199-1.32,0.3-2.101,0.3
			c-1.859,0-3.39-0.609-4.59-1.83c-1.22-1.22-1.83-2.75-1.83-4.59c0-1.859,0.601-3.391,1.801-4.59c1.22-1.22,2.76-1.83,4.619-1.83
			c1.841,0,3.36,0.569,4.561,1.71c1.22,1.14,1.83,2.62,1.83,4.439H1161.449L1161.449,299.753z M1169.909,295.822
			c-0.939-0.68-2.021-1.021-3.24-1.021c-2.56,0-4.239,1.261-5.039,3.78h10.05C1171.48,297.442,1170.89,296.522,1169.909,295.822z"/>
		<path d="M1184.249,306.202v-7.409c0-2.62-1.18-3.931-3.539-3.931c-1.16,0-2.04,0.34-2.641,1.021c-0.62,0.681-0.93,1.609-0.93,2.79
			v7.529h-1.23v-12.39h1.23v1.5c0.56-1.1,1.75-1.65,3.57-1.65c1.539,0,2.72,0.44,3.539,1.32c0.82,0.88,1.23,2.11,1.23,3.689v7.529
			L1184.249,306.202L1184.249,306.202z"/>
		<path d="M1191.299,295.043v11.159h-1.23v-11.159h-1.68v-1.229h1.68v-5.431h1.23v5.431h2.88v1.229H1191.299z"/>
		<path d="M1196.43,304.973h12.239v1.229h-14.43l12.271-20.159h-11.55v-1.26h13.77L1196.43,304.973z"/>
		<path d="M1220.158,304.553c-1.239,1.24-2.76,1.859-4.56,1.859s-3.311-0.608-4.53-1.829c-1.24-1.239-1.86-2.761-1.86-4.561
			c0-1.78,0.62-3.29,1.86-4.53c1.22-1.26,2.73-1.89,4.53-1.89c1.78,0,3.29,0.62,4.53,1.859c1.239,1.239,1.859,2.76,1.859,4.561
			C1221.989,301.822,1221.378,303.333,1220.158,304.553z M1219.288,296.333c-1-1.021-2.229-1.53-3.689-1.53
			c-1.4,0-2.61,0.521-3.63,1.561c-1.04,1.04-1.561,2.261-1.561,3.66c0,1.42,0.511,2.641,1.53,3.66s2.24,1.529,3.66,1.529
			c1.439,0,2.66-0.499,3.66-1.5c1.02-1.021,1.529-2.25,1.529-3.689C1220.788,298.563,1220.288,297.333,1219.288,296.333z"/>
		<path d="M1233.418,306.202v-7.409c0-2.62-1.18-3.931-3.54-3.931c-1.159,0-2.039,0.34-2.64,1.021c-0.62,0.681-0.93,1.609-0.93,2.79
			v7.529h-1.23v-12.39h1.23v1.5c0.56-1.1,1.75-1.65,3.569-1.65c1.54,0,2.721,0.44,3.54,1.32c0.82,0.88,1.23,2.11,1.23,3.689v7.529
			L1233.418,306.202L1233.418,306.202z"/>
		<path d="M1238.849,299.753c0,1.681,0.45,3.011,1.35,3.989c0.94,1,2.23,1.5,3.87,1.5c0.84,0,1.6-0.14,2.28-0.42
			c0.858-0.359,1.629-1.09,2.31-2.189l1.11,0.511c-0.78,1.479-1.98,2.479-3.6,3c-0.62,0.199-1.32,0.3-2.101,0.3
			c-1.86,0-3.39-0.609-4.59-1.83c-1.22-1.22-1.83-2.75-1.83-4.59c0-1.859,0.6-3.391,1.8-4.59c1.22-1.22,2.76-1.83,4.62-1.83
			c1.84,0,3.36,0.569,4.56,1.71c1.221,1.14,1.83,2.62,1.83,4.439H1238.849L1238.849,299.753z M1247.309,295.822
			c-0.94-0.68-2.021-1.021-3.24-1.021c-2.56,0-4.24,1.261-5.04,3.78h10.05C1248.878,297.442,1248.288,296.522,1247.309,295.822z"/>
	</g>
</g>
<g>
	<g>
		<path fill="none" stroke="#000000" stroke-miterlimit="10" stroke-dasharray="3.007,3.007" d="M1133.61,434.386
			c0-42.786-164.442-139.179-87.707-139.179"/>
		<g>
			<g>
				<polygon points="1137.233,429.943 1133.578,431.627 1129.83,430.166 1133.795,438.829 				"/>
			</g>
		</g>
	</g>
</g>
<g>
	<g>
		<path fill="none" stroke="#000000" stroke-miterlimit="10" d="M1219.515,486.005c0-108.171,106.201-238.133,39.151-238.133"/>
		<g>
			<g>
				<polygon points="1223.138,481.562 1219.484,483.247 1215.736,481.785 1219.7,490.448 				"/>
			</g>
		</g>
	</g>
</g>
<g>
	
		<rect x="1045.003" y="227.997" fill="#EDEDED" stroke="#000000" stroke-width="0.3" stroke-miterlimit="10" width="212.764" height="42.143"/>
	<g>
		<path d="M1064.851,256.873c-1.239,1.24-2.76,1.859-4.56,1.859c-2.061,0-3.75-0.829-5.07-2.489v2.279h-1.229v-22.2h1.229v12.121
			c1.301-1.66,2.99-2.49,5.07-2.49c1.8,0,3.31,0.609,4.53,1.83c1.239,1.239,1.859,2.76,1.859,4.561
			C1066.681,254.143,1066.072,255.653,1064.851,256.873z M1063.951,248.683c-1.021-1.021-2.24-1.529-3.66-1.529
			c-1.44,0-2.66,0.5-3.66,1.5c-1.02,1.021-1.53,2.25-1.53,3.689c0,1.42,0.511,2.64,1.53,3.66c1.021,1.02,2.24,1.529,3.66,1.529
			c1.44,0,2.66-0.499,3.66-1.5c1.02-1.021,1.53-2.25,1.53-3.689C1065.482,250.923,1064.971,249.703,1063.951,248.683z"/>
		<path d="M1079.851,256.873c-1.239,1.24-2.76,1.859-4.56,1.859s-3.31-0.608-4.53-1.829c-1.239-1.239-1.859-2.761-1.859-4.561
			c0-1.78,0.62-3.29,1.859-4.53c1.22-1.26,2.73-1.89,4.53-1.89c1.78,0,3.29,0.62,4.53,1.859c1.239,1.239,1.859,2.76,1.859,4.561
			C1081.681,254.143,1081.072,255.653,1079.851,256.873z M1078.982,248.653c-1-1.021-2.23-1.53-3.69-1.53
			c-1.4,0-2.61,0.521-3.63,1.561c-1.04,1.04-1.561,2.261-1.561,3.66c0,1.42,0.511,2.641,1.53,3.66c1.021,1.02,2.24,1.529,3.66,1.529
			c1.44,0,2.66-0.499,3.66-1.5c1.02-1.021,1.53-2.25,1.53-3.689C1080.482,250.883,1079.982,249.653,1078.982,248.653z"/>
		<path d="M1086.631,247.363v11.159h-1.229v-11.159h-1.681v-1.229h1.681v-5.431h1.229v5.431h2.88v1.229H1086.631z"/>
		<path d="M1092.811,249.853c-0.22,0-0.449-0.09-0.689-0.271c-0.18-0.18-0.28-0.42-0.3-0.72c0-0.54,0.33-0.87,0.989-0.99
			c0.5,0,0.83,0.33,0.99,0.99C1093.801,249.522,1093.471,249.853,1092.811,249.853z M1092.811,258.703
			c-0.22,0-0.449-0.09-0.689-0.271c-0.18-0.18-0.28-0.42-0.3-0.72c0-0.54,0.33-0.87,0.989-0.99c0.5,0,0.83,0.33,0.99,0.99
			C1093.801,258.373,1093.471,258.703,1092.811,258.703z"/>
		<path d="M1107.572,258.522v-2.13c-1.3,1.561-2.951,2.34-4.95,2.34c-1.8,0-3.311-0.608-4.53-1.829
			c-1.24-1.239-1.86-2.761-1.86-4.561c0-1.801,0.61-3.311,1.83-4.53c1.24-1.239,2.761-1.859,4.561-1.859
			c1.979,0,3.63,0.78,4.95,2.34v-2.159h1.229v12.391h-1.229V258.522z M1106.281,248.683c-1.021-1.021-2.24-1.529-3.66-1.529
			c-1.44,0-2.66,0.5-3.66,1.5c-1.02,1.021-1.53,2.25-1.53,3.689c0,1.42,0.511,2.64,1.53,3.66c1.021,1.02,2.24,1.529,3.66,1.529
			c1.439,0,2.66-0.499,3.66-1.5c1.02-1.021,1.529-2.25,1.529-3.689C1107.811,250.923,1107.301,249.703,1106.281,248.683z"/>
		<path d="M1123.201,258.522v-2.22c-1.32,1.62-3,2.43-5.04,2.43c-1.8,0-3.312-0.608-4.53-1.829c-1.24-1.239-1.859-2.761-1.859-4.561
			c0-1.801,0.609-3.311,1.829-4.53c1.24-1.239,2.761-1.859,4.561-1.859c1.979,0,3.66,0.811,5.04,2.431v-12.062h1.229v22.201
			L1123.201,258.522L1123.201,258.522z M1121.821,248.683c-1.021-1.021-2.24-1.529-3.66-1.529c-1.44,0-2.66,0.5-3.66,1.5
			c-1.02,1.021-1.53,2.25-1.53,3.689c0,1.42,0.511,2.64,1.53,3.66c1.021,1.02,2.24,1.529,3.66,1.529c1.439,0,2.66-0.499,3.66-1.5
			c1.02-1.021,1.529-2.25,1.529-3.689C1123.351,250.923,1122.84,249.703,1121.821,248.683z"/>
		<path d="M1128.93,243.913c-0.22,0-0.449-0.09-0.689-0.271c-0.181-0.18-0.28-0.42-0.3-0.72c0-0.54,0.329-0.87,0.989-0.99
			c0.5,0,0.83,0.33,0.99,0.99C1129.92,243.583,1129.59,243.913,1128.93,243.913z M1128.331,263.923v-17.79h1.229v17.79H1128.331z"/>
		<path d="M1144.05,258.522v-2.13c-1.3,1.561-2.951,2.34-4.95,2.34c-1.8,0-3.31-0.608-4.529-1.829
			c-1.24-1.239-1.86-2.761-1.86-4.561c0-1.801,0.61-3.311,1.83-4.53c1.24-1.239,2.76-1.859,4.56-1.859c1.98,0,3.631,0.78,4.95,2.34
			v-2.159h1.23v12.391h-1.23V258.522z M1142.76,248.683c-1.02-1.021-2.24-1.529-3.66-1.529c-1.439,0-2.659,0.5-3.659,1.5
			c-1.021,1.021-1.53,2.25-1.53,3.689c0,1.42,0.51,2.64,1.53,3.66c1.02,1.02,2.239,1.529,3.659,1.529c1.44,0,2.66-0.499,3.66-1.5
			c1.021-1.021,1.53-2.25,1.53-3.689C1144.29,250.923,1143.781,249.703,1142.76,248.683z"/>
		<path d="M1154.79,258.763c-1.84,0-3.371-0.609-4.59-1.83c-1.22-1.22-1.83-2.75-1.83-4.59s0.61-3.37,1.83-4.59
			c1.219-1.22,2.75-1.83,4.59-1.83c1.58,0,2.84,0.359,3.78,1.08v1.47l-0.78-0.51l-0.84-0.45c-0.761-0.26-1.48-0.391-2.16-0.391
			c-1.541,0-2.79,0.479-3.75,1.439c-0.979,0.98-1.47,2.24-1.47,3.78c0,1.521,0.49,2.771,1.47,3.75s2.229,1.47,3.75,1.47
			c1.44,0,2.7-0.479,3.78-1.439v1.53C1157.45,258.393,1156.19,258.763,1154.79,258.763z"/>
		<path d="M1160.55,252.073c0,1.681,0.45,3.011,1.351,3.989c0.939,1,2.229,1.5,3.869,1.5c0.841,0,1.601-0.14,2.28-0.42
			c0.859-0.359,1.629-1.09,2.311-2.189l1.109,0.511c-0.78,1.479-1.979,2.479-3.6,3c-0.62,0.199-1.32,0.3-2.101,0.3
			c-1.859,0-3.39-0.609-4.59-1.83c-1.22-1.22-1.83-2.75-1.83-4.59c0-1.859,0.601-3.391,1.801-4.59c1.22-1.22,2.76-1.83,4.619-1.83
			c1.841,0,3.36,0.569,4.561,1.71c1.22,1.14,1.83,2.62,1.83,4.439H1160.55L1160.55,252.073z M1169.01,248.143
			c-0.939-0.68-2.021-1.021-3.24-1.021c-2.56,0-4.239,1.261-5.039,3.78h10.05C1170.58,249.763,1169.99,248.843,1169.01,248.143z"/>
		<path d="M1183.35,258.522v-7.409c0-2.62-1.18-3.931-3.539-3.931c-1.16,0-2.04,0.34-2.641,1.021c-0.62,0.681-0.93,1.609-0.93,2.79
			v7.529h-1.23v-12.39h1.23v1.5c0.56-1.1,1.75-1.65,3.57-1.65c1.539,0,2.72,0.44,3.539,1.32c0.82,0.88,1.23,2.11,1.23,3.689v7.529
			L1183.35,258.522L1183.35,258.522z"/>
		<path d="M1190.4,247.363v11.159h-1.23v-11.159h-1.68v-1.229h1.68v-5.431h1.23v5.431h2.88v1.229H1190.4z"/>
		<path d="M1195.531,257.293h12.239v1.229h-14.43l12.271-20.159h-11.55v-1.26h13.77L1195.531,257.293z"/>
		<path d="M1219.259,256.873c-1.239,1.24-2.76,1.859-4.56,1.859s-3.311-0.608-4.53-1.829c-1.24-1.239-1.86-2.761-1.86-4.561
			c0-1.78,0.62-3.29,1.86-4.53c1.22-1.26,2.73-1.89,4.53-1.89c1.78,0,3.29,0.62,4.53,1.859c1.239,1.239,1.859,2.76,1.859,4.561
			C1221.089,254.143,1220.479,255.653,1219.259,256.873z M1218.389,248.653c-1-1.021-2.229-1.53-3.689-1.53
			c-1.4,0-2.61,0.521-3.63,1.561c-1.04,1.04-1.561,2.261-1.561,3.66c0,1.42,0.511,2.641,1.53,3.66s2.24,1.529,3.66,1.529
			c1.439,0,2.66-0.499,3.66-1.5c1.02-1.021,1.529-2.25,1.529-3.689C1219.889,250.883,1219.389,249.653,1218.389,248.653z"/>
		<path d="M1232.519,258.522v-7.409c0-2.62-1.18-3.931-3.54-3.931c-1.159,0-2.039,0.34-2.64,1.021c-0.62,0.681-0.93,1.609-0.93,2.79
			v7.529h-1.23v-12.39h1.23v1.5c0.56-1.1,1.75-1.65,3.569-1.65c1.54,0,2.721,0.44,3.54,1.32c0.82,0.88,1.23,2.11,1.23,3.689v7.529
			L1232.519,258.522L1232.519,258.522z"/>
		<path d="M1237.949,252.073c0,1.681,0.45,3.011,1.35,3.989c0.94,1,2.23,1.5,3.87,1.5c0.84,0,1.6-0.14,2.28-0.42
			c0.858-0.359,1.629-1.09,2.31-2.189l1.11,0.511c-0.78,1.479-1.98,2.479-3.6,3c-0.62,0.199-1.32,0.3-2.101,0.3
			c-1.86,0-3.39-0.609-4.59-1.83c-1.22-1.22-1.83-2.75-1.83-4.59c0-1.859,0.6-3.391,1.8-4.59c1.22-1.22,2.76-1.83,4.62-1.83
			c1.84,0,3.36,0.569,4.56,1.71c1.221,1.14,1.83,2.62,1.83,4.439H1237.949L1237.949,252.073z M1246.409,248.143
			c-0.94-0.68-2.021-1.021-3.24-1.021c-2.56,0-4.24,1.261-5.04,3.78h10.05C1247.979,249.763,1247.389,248.843,1246.409,248.143z"/>
	</g>
</g>
<g>
	<g>
		<path fill="none" stroke="#000000" stroke-miterlimit="10" d="M1111.772,433.522c0-42.786-187.941-184.764-66.769-184.764"/>
	</g>
</g>
<g>
	<g>
		<path fill="none" stroke="#000000" stroke-miterlimit="10" stroke-dasharray="3.007,3.007" d="M1234.649,485.152
			c0-108.171,90.168-191.55,23.118-191.55"/>
	</g>
</g>
<path fill="none" stroke="#000000" stroke-miterlimit="10" d="M1563.965,382.59c0-71.627,234.713-184.174,92.522-184.174"/>
<g>
	<polygon points="1567.667,378.149 1564.011,379.829 1560.265,378.362 1564.22,387.031 	"/>
</g>
<path fill="none" stroke="#000000" stroke-miterlimit="10" stroke-dasharray="3.007,3.007" d="M1593.522,386.281
	c0-34.421,27.606-28.175,52.36-28.175"/>
<g>
	<g>
		<path fill="none" stroke="#000000" stroke-miterlimit="10" stroke-dasharray="3.007,3.007" d="M1405.252,606.842
			c115.197,83.344,648.063-250.032,480.486-250.032"/>
	</g>
</g>
<g>
	<polygon points="1597.223,381.294 1593.567,382.974 1589.821,381.507 1593.776,390.176 	"/>
</g>
</svg>
