<?xml version="1.0" encoding="utf-8"?>
<!-- Generator: Adobe Illustrator 16.0.0, SVG Export Plug-In . SVG Version: 6.00 Build 0)  -->
<!DOCTYPE svg PUBLIC "-//W3C//DTD SVG 1.1//EN" "http://www.w3.org/Graphics/SVG/1.1/DTD/svg11.dtd">
<svg version="1.1" id="Layer_1" xmlns="http://www.w3.org/2000/svg" xmlns:xlink="http://www.w3.org/1999/xlink" x="0px" y="0px"
	 width="1920px" height="1080px" viewBox="0 0 1920 1080" enable-background="new 0 0 1920 1080" xml:space="preserve">
<g>
	<polygon opacity="0.5" fill="#008D36" points="1219.075,224.022 1345.573,193.129 1636.464,283.135 1609.354,499.671 
		1487.655,558.018 1222.076,423.136 	"/>
	<polyline fill="none" stroke="#000000" stroke-miterlimit="10" points="804.719,567.502 759.354,336.299 1345.573,193.129 
		1636.464,283.135 1609.354,499.671 1032.517,776.213 804.719,567.502 	"/>
	<line fill="none" stroke="#000000" stroke-miterlimit="10" x1="1341.562" y1="381.806" x2="804.719" y2="567.502"/>
	<line fill="none" stroke="#000000" stroke-miterlimit="10" x1="1609.354" y1="499.671" x2="1341.562" y2="381.806"/>
	<line fill="none" stroke="#000000" stroke-miterlimit="10" x1="1345.573" y1="193.129" x2="1341.562" y2="381.806"/>
	<line fill="none" stroke="#000000" stroke-miterlimit="10" x1="1504.681" y1="329.697" x2="1219.075" y2="224.022"/>
	<line fill="none" stroke="#000000" stroke-miterlimit="10" x1="1002.149" y1="507.253" x2="1636.464" y2="283.135"/>
	<polyline opacity="0.5" fill="#95C11F" points="759.354,336.299 1219.075,224.022 1504.681,329.697 1487.655,558.018 
		1032.517,776.213 804.719,567.502 	"/>
	<line fill="none" stroke="#000000" stroke-miterlimit="10" x1="1002.149" y1="507.253" x2="759.354" y2="336.299"/>
	<line fill="none" stroke="#000000" stroke-miterlimit="10" x1="1222.076" y1="423.136" x2="1219.075" y2="224.022"/>
	<line fill="none" stroke="#000000" stroke-miterlimit="10" x1="1002.149" y1="507.253" x2="1032.517" y2="776.213"/>
	<line fill="none" stroke="#000000" stroke-miterlimit="10" x1="1504.681" y1="329.697" x2="1487.655" y2="558.018"/>
	<line fill="none" stroke="#000000" stroke-miterlimit="10" x1="1222.076" y1="423.136" x2="1487.655" y2="558.018"/>
</g>
<g>
	<g id="XMLID_1_" opacity="0.5">
		<path fill="#EA5B0C" d="M1560.194,596.65l27.734-236.624 M1587.929,360.026l129.861-50.293l-7.727,47.422l-44.939,19.194
			l-16.139,106.848l43.951-20.963l-11.496,70.584l-121.246,63.833"/>
		<g>
			<polygon fill="none" points="1709.829,357.162 1692.71,462.242 1692.7,462.242 1648.749,483.203 1664.886,376.355 			"/>
			<polygon fill="none" points="1538.374,428.486 1526.692,542.564 1440.431,583.934 1448.034,466.143 			"/>
			<polygon fill="none" points="1277.315,536.586 1275.331,664.074 1158.841,719.91 1151.687,591.104 			"/>
			<path fill="#F9B233" d="M1559.96,596.654l-459.664,241.982l-23.808-280.619l511.204-197.986 M1587.692,360.032l-27.732,236.623
				 M1526.692,542.564l11.682-114.078l-90.34,37.656l-7.604,117.791L1526.692,542.564z M1275.331,664.074l1.984-127.488
				l-125.629,54.517l7.154,128.807L1275.331,664.074z"/>
		</g>
		<g>
			<polyline fill="none" points="1692.7,462.242 1681.204,532.825 1100.296,838.637 1076.488,558.018 1717.554,309.738 
				1709.829,357.162 1692.71,462.242 			"/>
			<polygon fill="none" points="1151.687,591.104 1277.315,536.586 1275.331,664.074 1158.841,719.91 			"/>
			<polygon fill="none" points="1448.034,466.143 1538.374,428.486 1526.692,542.564 1440.431,583.934 			"/>
			<polyline fill="none" points="1709.829,357.162 1664.886,376.355 1648.749,483.203 1692.7,462.242 1692.71,462.242 			"/>
		</g>
	</g>
	<polygon fill="none" stroke="#000000" stroke-miterlimit="10" points="1100.3,838.637 1076.488,558.018 1717.554,309.741 
		1681.208,532.829 	"/>
	<polygon fill="none" stroke="#000000" stroke-miterlimit="10" points="1151.687,591.107 1277.317,536.59 1275.335,664.072 
		1158.841,719.908 	"/>
	<polygon fill="none" stroke="#000000" stroke-miterlimit="10" points="1448.036,466.143 1538.374,428.486 1526.687,542.568 
		1440.431,583.934 	"/>
	<polyline fill="none" stroke="#000000" stroke-miterlimit="10" points="1709.829,357.165 1664.888,376.359 1648.749,483.206 
		1692.708,462.246 	"/>
	<line fill="none" stroke="#000000" stroke-miterlimit="10" x1="1587.772" y1="360.002" x2="1559.886" y2="596.699"/>
</g>
<line fill="none" x1="1548.795" y1="497.381" x2="1570.498" y2="506.323"/>
<line fill="none" x1="1595.355" y1="266.179" x2="1616.85" y2="273.74"/>
<line fill="none" x1="1467.748" y1="321.574" x2="1490.256" y2="331.209"/>
<g opacity="0.5">
	<path fill="#FFFFFF" d="M1828.392,343.865l-10.133,51.333l-43.287,19.551l-20.328,100.639l30.643-15.716l11.463,3.425
		l-14.539,72.972l-588.326,350.51l-17.193-17.906l-15.762-292.27l645.973-280.105L1828.392,343.865z M1620.708,588.781
		l15.756-108.043l-76.578,37.928l-12.84,109.549L1620.708,588.781z M1371.712,607.852l-114.896,55.006l2.275,121.918l109.191-59.354
		L1371.712,607.852z"/>
</g>
<g>
	<polyline fill="none" stroke="#000000" stroke-miterlimit="10" points="1176.687,908.672 1160.929,616.402 1807.067,335.916 	"/>
	<path fill="none" stroke="#000000" stroke-miterlimit="10" d="M1760.505,567.119"/>
	<polyline fill="none" stroke="#000000" stroke-miterlimit="10" points="1818.253,395.194 1828.56,343.477 1182.421,632.879 
		1193.882,926.578 1782.21,576.061 1796.749,503.096 	"/>
	<line fill="none" stroke="#000000" stroke-miterlimit="10" x1="1160.929" y1="616.402" x2="1182.421" y2="632.879"/>
	<line fill="none" stroke="#000000" stroke-miterlimit="10" x1="1806.897" y1="336.299" x2="1828.392" y2="343.861"/>
	<line fill="none" stroke="#000000" stroke-miterlimit="10" x1="1176.687" y1="908.672" x2="1193.882" y2="926.578"/>
	<polygon fill="none" stroke="#000000" stroke-miterlimit="10" points="1256.812,662.855 1371.708,607.852 1383.743,602.086 
		1378.71,732.613 1259.328,797.699 	"/>
	<path fill="none" stroke="#000000" stroke-miterlimit="10" d="M1368.282,725.422l-109.193,59.344L1368.282,725.422z"/>
	<path fill="none" stroke="#000000" stroke-miterlimit="10" d="M1378.71,732.613"/>
	<line fill="none" stroke="#000000" stroke-miterlimit="10" x1="1368.282" y1="725.422" x2="1378.71" y2="732.613"/>
	<line fill="none" stroke="#000000" stroke-miterlimit="10" x1="1368.282" y1="725.422" x2="1371.708" y2="607.852"/>
	<polygon fill="none" stroke="#000000" stroke-miterlimit="10" points="1559.886,518.661 1648.749,474.655 1631.497,592.734 
		1545.556,640.918 	"/>
	<polyline fill="none" stroke="#000000" stroke-miterlimit="10" points="1818.253,395.194 1774.97,414.742 1752.317,526.931 
		1796.749,503.096 	"/>
	<line fill="none" stroke="#000000" stroke-miterlimit="10" x1="1547.046" y1="628.215" x2="1620.708" y2="588.781"/>
	<line fill="none" stroke="#000000" stroke-miterlimit="10" x1="1620.708" y1="588.781" x2="1631.497" y2="592.734"/>
	<line fill="none" stroke="#000000" stroke-miterlimit="10" x1="1620.708" y1="588.781" x2="1636.464" y2="480.738"/>
	<line fill="none" stroke="#000000" stroke-miterlimit="10" x1="1754.644" y1="515.387" x2="1785.286" y2="499.671"/>
	<line fill="none" stroke="#000000" stroke-miterlimit="10" x1="1785.286" y1="499.671" x2="1796.749" y2="503.096"/>
	<path fill="none" stroke="#000000" stroke-miterlimit="10" d="M1807.067,401.33"/>
	<path fill="none" stroke="#000000" stroke-miterlimit="10" d="M1785.286,499.671"/>
</g>
<polygon fill="none" stroke="#000000" stroke-miterlimit="10" points="1160.929,616.402 1176.687,908.672 1193.882,926.578 
	1782.21,576.061 1796.749,503.096 1752.317,526.931 1774.97,414.742 1818.253,395.194 1828.392,343.861 1806.897,336.299 "/>
<polyline opacity="0.5" fill="none" points="1256.815,662.857 1371.712,607.852 1368.282,725.422 1259.089,784.766 "/>
<polygon opacity="0.5" fill="none" points="1559.886,518.661 1636.464,480.738 1620.708,588.781 1547.046,628.215 "/>
<g>
	<rect x="365.893" y="645.867" fill="none" width="363.127" height="159.111"/>
	<path d="M662.869,682.867l-4.1-10.701h-16.25l-4.15,10.701h-2l14.25-36.85l14.3,36.85H662.869z M650.619,651.217l-7.3,18.9h14.6
		L650.619,651.217z"/>
	<path d="M679.519,665.268c-0.533-0.4-1.1-0.717-1.7-0.951c-0.6-0.232-1.234-0.35-1.9-0.35c-0.567,0-1.1,0.176-1.6,0.525
		s-0.934,0.783-1.3,1.299c-0.367,0.518-0.658,1.094-0.875,1.727s-0.325,1.217-0.325,1.75v13.6h-2.05v-20.65h2.05v2.801
		c0.433-0.768,1-1.467,1.7-2.102c0.7-0.633,1.467-0.949,2.3-0.949c1.033,0,1.883,0.117,2.55,0.35c0.667,0.234,1.417,0.65,2.25,1.25
		L679.519,665.268z"/>
	<path d="M682.72,672.117c0,2.799,0.75,5.018,2.25,6.65c1.566,1.666,3.716,2.5,6.45,2.5c1.4,0,2.667-0.234,3.8-0.701
		c1.433-0.6,2.716-1.816,3.85-3.65l1.85,0.852c-1.3,2.467-3.3,4.133-6,5c-1.034,0.332-2.2,0.5-3.5,0.5c-3.1,0-5.65-1.018-7.65-3.051
		c-2.034-2.033-3.05-4.582-3.05-7.65c0-3.1,1-5.65,3-7.65c2.033-2.031,4.6-3.049,7.7-3.049c3.066,0,5.6,0.949,7.6,2.85
		c2.033,1.9,3.05,4.367,3.05,7.4H682.72z M696.819,665.566c-1.567-1.133-3.367-1.699-5.4-1.699c-4.267,0-7.067,2.1-8.4,6.299h16.75
		C699.436,668.268,698.452,666.734,696.819,665.566z"/>
	<path d="M724.169,682.867v-3.551c-2.167,2.6-4.917,3.9-8.25,3.9c-3,0-5.517-1.016-7.55-3.051c-2.067-2.066-3.1-4.6-3.1-7.6
		s1.017-5.516,3.05-7.549c2.066-2.066,4.6-3.102,7.6-3.102c3.3,0,6.05,1.301,8.25,3.9v-3.6h2.05v20.65H724.169z M722.019,666.467
		c-1.7-1.699-3.733-2.551-6.1-2.551c-2.4,0-4.434,0.834-6.1,2.5c-1.7,1.701-2.55,3.75-2.55,6.15c0,2.367,0.85,4.4,2.55,6.1
		c1.7,1.701,3.733,2.551,6.1,2.551c2.4,0,4.433-0.832,6.1-2.5c1.7-1.699,2.55-3.75,2.55-6.15
		C724.569,670.201,723.719,668.166,722.019,666.467z"/>
	<path d="M410.773,742.566c-1.3,0.467-2.833,0.701-4.6,0.701c-5.467,0-8.983-2.584-10.55-7.75l2.05-0.701c1.167,4.268,4,6.4,8.5,6.4
		c2.566,0,4.583-0.633,6.05-1.9c1.5-1.299,2.25-3.199,2.25-5.699c0-2.367-0.884-4.334-2.65-5.9c-0.467-0.434-1.184-0.916-2.15-1.449
		s-2.2-1.133-3.7-1.801c-2.833-1.266-4.767-2.367-5.8-3.301c-1.733-1.5-2.6-3.482-2.6-5.949s0.883-4.449,2.65-5.949
		c1.733-1.533,3.866-2.301,6.4-2.301c4.2,0,7.167,1.566,8.9,4.699l-1.95,0.852c-0.667-1.102-1.467-1.918-2.4-2.451
		c-1.167-0.732-2.684-1.1-4.55-1.1c-1.967,0-3.6,0.551-4.9,1.65c-1.4,1.166-2.1,2.699-2.1,4.6c0,1.699,0.733,3.184,2.2,4.449
		c0.833,0.668,2.5,1.568,5,2.701c1.566,0.699,2.916,1.393,4.05,2.074c1.133,0.684,2.05,1.375,2.75,2.076
		c1.933,1.898,2.9,4.266,2.9,7.1C416.523,738.15,414.606,741.135,410.773,742.566z"/>
	<path d="M434.973,741.066c-1.367,1.467-3.284,2.201-5.75,2.201c-2.434,0-4.317-0.717-5.65-2.15c-1.333-1.434-2-3.434-2-6v-12.9
		h2.05v12.9c0,1.967,0.433,3.482,1.3,4.549c0.9,1.068,2.333,1.602,4.3,1.602c3.833,0,5.75-2.051,5.75-6.15v-12.9h2v12.9
		C436.973,737.65,436.306,739.635,434.973,741.066z"/>
	<path d="M453.022,725.268c-0.533-0.4-1.1-0.717-1.7-0.951c-0.6-0.232-1.234-0.35-1.9-0.35c-0.567,0-1.1,0.176-1.6,0.525
		s-0.934,0.783-1.3,1.299c-0.367,0.518-0.658,1.094-0.875,1.727s-0.325,1.217-0.325,1.75v13.6h-2.05v-20.65h2.05v2.801
		c0.433-0.768,1-1.467,1.7-2.102c0.7-0.633,1.467-0.949,2.3-0.949c1.033,0,1.883,0.117,2.55,0.35c0.667,0.234,1.417,0.65,2.25,1.25
		L453.022,725.268z"/>
	<path d="M466.622,707.916l-1.35-0.148c-1.867,0-2.8,1.1-2.8,3.299v11.15h4.9v2.051h-4.9v18.6h-2.05v-18.6h-2.8v-2.051h2.8v-11.75
		c0-3.166,1.6-4.75,4.8-4.75c0.733,0,1.2,0.033,1.4,0.1c0.4,0,0.85,0.117,1.35,0.35v2.051L466.622,707.916z"/>
	<path d="M486.973,742.867v-3.551c-2.167,2.6-4.917,3.9-8.25,3.9c-3,0-5.517-1.016-7.55-3.051c-2.067-2.066-3.1-4.6-3.1-7.6
		s1.017-5.516,3.05-7.549c2.066-2.066,4.6-3.102,7.6-3.102c3.3,0,6.05,1.301,8.25,3.9v-3.6h2.05v20.65H486.973z M484.823,726.467
		c-1.7-1.699-3.733-2.551-6.1-2.551c-2.4,0-4.434,0.834-6.1,2.5c-1.7,1.701-2.55,3.75-2.55,6.15c0,2.367,0.85,4.4,2.55,6.1
		c1.7,1.701,3.733,2.551,6.1,2.551c2.4,0,4.433-0.832,6.1-2.5c1.7-1.699,2.55-3.75,2.55-6.15
		C487.373,730.201,486.523,728.166,484.823,726.467z"/>
	<path d="M504.872,743.268c-3.067,0-5.617-1.018-7.65-3.051c-2.034-2.033-3.05-4.582-3.05-7.65c0-3.066,1.016-5.615,3.05-7.65
		c2.033-2.031,4.583-3.049,7.65-3.049c2.633,0,4.733,0.6,6.3,1.799v2.451l-1.3-0.85l-1.4-0.75c-1.267-0.434-2.467-0.65-3.6-0.65
		c-2.567,0-4.65,0.799-6.25,2.4c-1.633,1.633-2.45,3.732-2.45,6.299c0,2.533,0.816,4.617,2.45,6.25
		c1.633,1.635,3.717,2.451,6.25,2.451c2.4,0,4.5-0.801,6.3-2.4v2.549C509.305,742.65,507.205,743.268,504.872,743.268z"/>
	<path d="M514.472,732.117c0,2.799,0.75,5.018,2.25,6.65c1.566,1.666,3.716,2.5,6.45,2.5c1.4,0,2.667-0.234,3.8-0.701
		c1.433-0.6,2.716-1.816,3.85-3.65l1.85,0.852c-1.3,2.467-3.3,4.133-6,5c-1.034,0.332-2.2,0.5-3.5,0.5c-3.1,0-5.65-1.018-7.65-3.051
		c-2.034-2.033-3.05-4.582-3.05-7.65c0-3.1,1-5.65,3-7.65c2.033-2.031,4.6-3.049,7.7-3.049c3.066,0,5.6,0.949,7.6,2.85
		c2.033,1.9,3.05,4.367,3.05,7.4H514.472z M528.572,725.566c-1.567-1.133-3.367-1.699-5.4-1.699c-4.267,0-7.067,2.1-8.4,6.299h16.75
		C531.188,728.268,530.205,726.734,528.572,725.566z"/>
	<path d="M561.071,725.268c-0.533-0.4-1.1-0.717-1.7-0.951c-0.6-0.232-1.234-0.35-1.9-0.35c-0.567,0-1.1,0.176-1.6,0.525
		s-0.934,0.783-1.3,1.299c-0.367,0.518-0.658,1.094-0.875,1.727s-0.325,1.217-0.325,1.75v13.6h-2.05v-20.65h2.05v2.801
		c0.433-0.768,1-1.467,1.7-2.102c0.7-0.633,1.467-0.949,2.3-0.949c1.033,0,1.883,0.117,2.55,0.35c0.667,0.234,1.417,0.65,2.25,1.25
		L561.071,725.268z"/>
	<path d="M564.272,732.117c0,2.799,0.75,5.018,2.25,6.65c1.566,1.666,3.716,2.5,6.45,2.5c1.4,0,2.667-0.234,3.8-0.701
		c1.433-0.6,2.716-1.816,3.85-3.65l1.85,0.852c-1.3,2.467-3.3,4.133-6,5c-1.034,0.332-2.2,0.5-3.5,0.5c-3.1,0-5.65-1.018-7.65-3.051
		c-2.034-2.033-3.05-4.582-3.05-7.65c0-3.1,1-5.65,3-7.65c2.033-2.031,4.6-3.049,7.7-3.049c3.066,0,5.6,0.949,7.6,2.85
		c2.033,1.9,3.05,4.367,3.05,7.4H564.272z M578.372,725.566c-1.567-1.133-3.367-1.699-5.4-1.699c-4.267,0-7.067,2.1-8.4,6.299h16.75
		C580.988,728.268,580.004,726.734,578.372,725.566z"/>
	<path d="M598.521,741.566c-1.334,1.135-2.934,1.701-4.8,1.701c-3.2,0-5.6-1.451-7.2-4.352l1.75-1.049
		c0.566,1.033,1.25,1.834,2.05,2.4c0.833,0.633,1.966,0.949,3.4,0.949c3.133,0,4.7-1.332,4.7-4c0-1.166-0.55-2.184-1.65-3.051
		c-0.334-0.199-0.809-0.424-1.425-0.674c-0.617-0.25-1.375-0.541-2.275-0.875c-1.667-0.6-2.867-1.201-3.6-1.801
		c-1.067-0.865-1.6-2.115-1.6-3.75c0-1.4,0.533-2.6,1.6-3.6c1.033-1.033,2.383-1.551,4.05-1.551c2.3,0,4.25,0.801,5.85,2.4
		l-1.5,1.301c-1.133-1.133-2.583-1.701-4.35-1.701c-2.4,0-3.6,1.051-3.6,3.15c0,0.934,0.366,1.701,1.1,2.301
		c0.6,0.467,1.55,0.916,2.85,1.35c1.133,0.4,2.066,0.775,2.8,1.125c0.733,0.35,1.283,0.658,1.65,0.926
		c1.433,1.1,2.15,2.582,2.15,4.449C600.471,739.018,599.821,740.467,598.521,741.566z"/>
	<path d="M606.321,718.518c-0.367,0-0.75-0.15-1.15-0.451c-0.3-0.299-0.467-0.699-0.5-1.199c0-0.9,0.55-1.451,1.65-1.65
		c0.833,0,1.383,0.551,1.65,1.65C607.971,717.967,607.421,718.518,606.321,718.518z M605.271,742.867v-20.65h2.05v20.65H605.271z"/>
	<path d="M624.271,741.566c-1.334,1.135-2.934,1.701-4.8,1.701c-3.2,0-5.6-1.451-7.2-4.352l1.75-1.049
		c0.566,1.033,1.25,1.834,2.05,2.4c0.833,0.633,1.966,0.949,3.4,0.949c3.133,0,4.7-1.332,4.7-4c0-1.166-0.55-2.184-1.65-3.051
		c-0.334-0.199-0.809-0.424-1.425-0.674c-0.617-0.25-1.375-0.541-2.275-0.875c-1.667-0.6-2.867-1.201-3.6-1.801
		c-1.067-0.865-1.6-2.115-1.6-3.75c0-1.4,0.533-2.6,1.6-3.6c1.033-1.033,2.383-1.551,4.05-1.551c2.3,0,4.25,0.801,5.85,2.4
		l-1.5,1.301c-1.133-1.133-2.583-1.701-4.35-1.701c-2.4,0-3.6,1.051-3.6,3.15c0,0.934,0.366,1.701,1.1,2.301
		c0.6,0.467,1.55,0.916,2.85,1.35c1.133,0.4,2.066,0.775,2.8,1.125c0.733,0.35,1.283,0.658,1.65,0.926
		c1.433,1.1,2.15,2.582,2.15,4.449C626.221,739.018,625.571,740.467,624.271,741.566z"/>
	<path d="M633.771,724.268v18.6h-2.05v-18.6h-2.8v-2.051h2.8v-9.051h2.05v9.051h4.8v2.051H633.771z"/>
	<path d="M658.17,742.867v-3.551c-2.167,2.6-4.917,3.9-8.25,3.9c-3,0-5.517-1.016-7.55-3.051c-2.067-2.066-3.1-4.6-3.1-7.6
		s1.017-5.516,3.05-7.549c2.066-2.066,4.6-3.102,7.6-3.102c3.3,0,6.05,1.301,8.25,3.9v-3.6h2.05v20.65H658.17z M656.021,726.467
		c-1.7-1.699-3.733-2.551-6.1-2.551c-2.4,0-4.434,0.834-6.1,2.5c-1.7,1.701-2.55,3.75-2.55,6.15c0,2.367,0.85,4.4,2.55,6.1
		c1.7,1.701,3.733,2.551,6.1,2.551c2.4,0,4.433-0.832,6.1-2.5c1.7-1.699,2.55-3.75,2.55-6.15
		C658.57,730.201,657.721,728.166,656.021,726.467z"/>
	<path d="M680.22,742.867v-12.35c0-4.367-1.967-6.551-5.9-6.551c-1.934,0-3.4,0.566-4.4,1.699c-1.034,1.135-1.55,2.684-1.55,4.65
		v12.551h-2.05v-20.65h2.05v2.5c0.933-1.832,2.917-2.75,5.95-2.75c2.566,0,4.533,0.734,5.9,2.199c1.366,1.469,2.05,3.518,2.05,6.15
		v12.551H680.22z"/>
	<path d="M698.619,743.268c-3.067,0-5.617-1.018-7.65-3.051c-2.034-2.033-3.05-4.582-3.05-7.65c0-3.066,1.016-5.615,3.05-7.65
		c2.033-2.031,4.583-3.049,7.65-3.049c2.633,0,4.733,0.6,6.3,1.799v2.451l-1.3-0.85l-1.4-0.75c-1.267-0.434-2.467-0.65-3.6-0.65
		c-2.567,0-4.65,0.799-6.25,2.4c-1.633,1.633-2.45,3.732-2.45,6.299c0,2.533,0.816,4.617,2.45,6.25
		c1.633,1.635,3.717,2.451,6.25,2.451c2.4,0,4.5-0.801,6.3-2.4v2.549C703.052,742.65,700.952,743.268,698.619,743.268z"/>
	<path d="M708.22,732.117c0,2.799,0.75,5.018,2.25,6.65c1.566,1.666,3.716,2.5,6.45,2.5c1.4,0,2.667-0.234,3.8-0.701
		c1.433-0.6,2.716-1.816,3.85-3.65l1.85,0.852c-1.3,2.467-3.3,4.133-6,5c-1.034,0.332-2.2,0.5-3.5,0.5c-3.1,0-5.65-1.018-7.65-3.051
		c-2.034-2.033-3.05-4.582-3.05-7.65c0-3.1,1-5.65,3-7.65c2.033-2.031,4.6-3.049,7.7-3.049c3.066,0,5.6,0.949,7.6,2.85
		c2.033,1.9,3.05,4.367,3.05,7.4H708.22z M722.319,725.566c-1.567-1.133-3.367-1.699-5.4-1.699c-4.267,0-7.067,2.1-8.4,6.299h16.75
		C724.936,728.268,723.952,726.734,722.319,725.566z"/>
</g>
<line fill="none" stroke="#000000" stroke-miterlimit="10" stroke-dasharray="1,2" x1="736.966" y1="670.211" x2="1107.542" y2="670.211"/>
<g>
	<rect x="306.893" y="277.606" fill="none" width="422.127" height="159.111"/>
	<path d="M358.074,314.606l-4.1-10.7h-16.25l-4.15,10.7h-2l14.25-36.85l14.3,36.85H358.074z M345.824,282.956l-7.3,18.9h14.6
		L345.824,282.956z"/>
	<path d="M388.474,314.606v-14.25c0-1.267-0.417-2.366-1.25-3.3c-0.833-0.933-2.033-1.4-3.6-1.4c-3.234,0-4.85,1.567-4.85,4.7v14.25
		h-2.05v-14.25c0-1.4-0.467-2.517-1.4-3.35c-0.967-0.9-2.117-1.351-3.45-1.351c-1.367,0-2.518,0.434-3.45,1.3
		c-0.934,0.834-1.4,1.968-1.4,3.4v14.25h-2.05v-20.65h2.05v2.051c1-1.566,2.616-2.351,4.85-2.351c2.666,0,4.633,1.084,5.9,3.25
		c1.2-2.166,3.15-3.25,5.85-3.25c2.066,0,3.732,0.584,5,1.75c1.266,1.2,1.9,2.851,1.9,4.95v14.25H388.474z"/>
	<path d="M414.673,311.856c-2.067,2.067-4.6,3.1-7.6,3.1c-3.434,0-6.25-1.383-8.45-4.149v3.8h-2.05v-37h2.05v20.2
		c2.167-2.767,4.983-4.15,8.45-4.15c3,0,5.517,1.018,7.55,3.05c2.066,2.067,3.1,4.601,3.1,7.601S416.706,309.823,414.673,311.856z
		 M413.173,298.206c-1.7-1.699-3.734-2.55-6.1-2.55c-2.4,0-4.434,0.834-6.1,2.5c-1.7,1.7-2.55,3.75-2.55,6.15
		c0,2.367,0.85,4.399,2.55,6.1c1.7,1.7,3.733,2.55,6.1,2.55c2.4,0,4.433-0.832,6.1-2.5c1.7-1.699,2.55-3.75,2.55-6.149
		C415.723,301.94,414.873,299.906,413.173,298.206z"/>
	<path d="M421.924,290.257c-0.367,0-0.75-0.15-1.15-0.45c-0.3-0.3-0.467-0.7-0.5-1.2c0-0.9,0.55-1.45,1.65-1.65
		c0.833,0,1.383,0.551,1.65,1.65C423.574,289.706,423.023,290.257,421.924,290.257z M420.874,314.606v-20.65h2.05v20.65H420.874z"/>
	<path d="M430.124,303.856c0,2.8,0.75,5.018,2.25,6.65c1.566,1.667,3.716,2.5,6.45,2.5c1.4,0,2.667-0.233,3.8-0.7
		c1.433-0.601,2.716-1.816,3.85-3.65l1.85,0.851c-1.3,2.467-3.3,4.133-6,5c-1.034,0.332-2.2,0.5-3.5,0.5
		c-3.1,0-5.65-1.017-7.65-3.051c-2.034-2.032-3.05-4.582-3.05-7.649c0-3.101,1-5.65,3-7.65c2.033-2.032,4.6-3.05,7.7-3.05
		c3.066,0,5.6,0.95,7.6,2.85c2.033,1.9,3.05,4.367,3.05,7.4H430.124z M444.223,297.307c-1.567-1.133-3.367-1.7-5.4-1.7
		c-4.267,0-7.067,2.1-8.4,6.3h16.75C446.84,300.007,445.856,298.474,444.223,297.307z"/>
	<path d="M468.123,314.606v-12.35c0-4.367-1.967-6.551-5.9-6.551c-1.934,0-3.4,0.567-4.4,1.7c-1.034,1.134-1.55,2.684-1.55,4.65
		v12.55h-2.05v-20.65h2.05v2.5c0.933-1.832,2.917-2.75,5.95-2.75c2.566,0,4.533,0.734,5.9,2.2c1.366,1.468,2.05,3.518,2.05,6.15
		v12.55H468.123z"/>
	<path d="M479.872,296.007v18.6h-2.05v-18.6h-2.8v-2.051h2.8v-9.05h2.05v9.05h4.8v2.051H479.872z"/>
	<path d="M505.122,296.007v18.6h-2.05v-18.6h-2.8v-2.051h2.8v-9.05h2.05v9.05h4.8v2.051H505.122z"/>
	<path d="M514.922,303.856c0,2.8,0.75,5.018,2.25,6.65c1.566,1.667,3.716,2.5,6.45,2.5c1.4,0,2.667-0.233,3.8-0.7
		c1.433-0.601,2.716-1.816,3.85-3.65l1.85,0.851c-1.3,2.467-3.3,4.133-6,5c-1.034,0.332-2.2,0.5-3.5,0.5
		c-3.1,0-5.65-1.017-7.65-3.051c-2.034-2.032-3.05-4.582-3.05-7.649c0-3.101,1-5.65,3-7.65c2.033-2.032,4.6-3.05,7.7-3.05
		c3.066,0,5.6,0.95,7.6,2.85c2.033,1.9,3.05,4.367,3.05,7.4H514.922z M529.021,297.307c-1.567-1.133-3.367-1.7-5.4-1.7
		c-4.267,0-7.067,2.1-8.4,6.3h16.75C531.638,300.007,530.654,298.474,529.021,297.307z"/>
	<path d="M562.521,314.606v-14.25c0-1.267-0.417-2.366-1.25-3.3c-0.833-0.933-2.033-1.4-3.6-1.4c-3.234,0-4.85,1.567-4.85,4.7v14.25
		h-2.05v-14.25c0-1.4-0.467-2.517-1.4-3.35c-0.967-0.9-2.117-1.351-3.45-1.351c-1.367,0-2.518,0.434-3.45,1.3
		c-0.934,0.834-1.4,1.968-1.4,3.4v14.25h-2.05v-20.65h2.05v2.051c1-1.566,2.616-2.351,4.85-2.351c2.666,0,4.633,1.084,5.9,3.25
		c1.2-2.166,3.15-3.25,5.85-3.25c2.066,0,3.732,0.584,5,1.75c1.266,1.2,1.9,2.851,1.9,4.95v14.25H562.521z"/>
	<path d="M589.221,311.856c-2.067,2.067-4.6,3.1-7.6,3.1c-3.434,0-6.267-1.399-8.5-4.199v13.55h-2.05v-30.351h2.05v3.9
		c2.133-2.8,4.966-4.2,8.5-4.2c3,0,5.517,1.018,7.55,3.05c2.066,2.067,3.1,4.601,3.1,7.601S591.253,309.823,589.221,311.856z
		 M587.721,298.206c-1.7-1.699-3.734-2.55-6.1-2.55c-2.4,0-4.434,0.834-6.1,2.5c-1.7,1.7-2.55,3.75-2.55,6.15
		c0,2.367,0.85,4.399,2.55,6.1c1.7,1.7,3.733,2.55,6.1,2.55c2.4,0,4.433-0.832,6.1-2.5c1.7-1.699,2.55-3.75,2.55-6.149
		C590.271,301.94,589.42,299.906,587.721,298.206z"/>
	<path d="M597.22,303.856c0,2.8,0.75,5.018,2.25,6.65c1.566,1.667,3.716,2.5,6.45,2.5c1.4,0,2.667-0.233,3.8-0.7
		c1.433-0.601,2.716-1.816,3.85-3.65l1.85,0.851c-1.3,2.467-3.3,4.133-6,5c-1.034,0.332-2.2,0.5-3.5,0.5
		c-3.1,0-5.65-1.017-7.65-3.051c-2.034-2.032-3.05-4.582-3.05-7.649c0-3.101,1-5.65,3-7.65c2.033-2.032,4.6-3.05,7.7-3.05
		c3.066,0,5.6,0.95,7.6,2.85c2.033,1.9,3.05,4.367,3.05,7.4H597.22z M611.32,297.307c-1.567-1.133-3.367-1.7-5.4-1.7
		c-4.267,0-7.067,2.1-8.4,6.3h16.75C613.937,300.007,612.953,298.474,611.32,297.307z"/>
	<path d="M631.069,297.007c-0.533-0.4-1.1-0.717-1.7-0.95s-1.234-0.351-1.9-0.351c-0.567,0-1.1,0.176-1.6,0.525
		s-0.934,0.783-1.3,1.3c-0.367,0.518-0.658,1.093-0.875,1.726s-0.325,1.217-0.325,1.75v13.6h-2.05v-20.65h2.05v2.801
		c0.433-0.767,1-1.467,1.7-2.101c0.7-0.633,1.467-0.95,2.3-0.95c1.033,0,1.883,0.117,2.55,0.351c0.667,0.233,1.417,0.649,2.25,1.25
		L631.069,297.007z"/>
	<path d="M653.17,314.606v-3.55c-2.167,2.6-4.917,3.899-8.25,3.899c-3,0-5.517-1.016-7.55-3.05c-2.067-2.066-3.1-4.6-3.1-7.6
		s1.017-5.517,3.05-7.55c2.066-2.066,4.6-3.101,7.6-3.101c3.3,0,6.05,1.3,8.25,3.9v-3.601h2.05v20.65H653.17z M651.02,298.206
		c-1.7-1.699-3.733-2.55-6.1-2.55c-2.4,0-4.434,0.834-6.1,2.5c-1.7,1.7-2.55,3.75-2.55,6.15c0,2.367,0.85,4.399,2.55,6.1
		c1.7,1.7,3.733,2.55,6.1,2.55c2.4,0,4.433-0.832,6.1-2.5c1.7-1.699,2.55-3.75,2.55-6.149
		C653.57,301.94,652.72,299.906,651.02,298.206z"/>
	<path d="M664.419,296.007v18.6h-2.05v-18.6h-2.8v-2.051h2.8v-9.05h2.05v9.05h4.8v2.051H664.419z"/>
	<path d="M686.97,312.807c-1.367,1.467-3.284,2.2-5.75,2.2c-2.434,0-4.317-0.717-5.65-2.15c-1.333-1.433-2-3.433-2-6v-12.9h2.05
		v12.9c0,1.967,0.433,3.483,1.3,4.55c0.9,1.067,2.333,1.601,4.3,1.601c3.833,0,5.75-2.051,5.75-6.15v-12.9h2v12.9
		C688.97,309.39,688.302,311.374,686.97,312.807z"/>
	<path d="M705.019,297.007c-0.533-0.4-1.1-0.717-1.7-0.95s-1.234-0.351-1.9-0.351c-0.567,0-1.1,0.176-1.6,0.525
		s-0.934,0.783-1.3,1.3c-0.367,0.518-0.658,1.093-0.875,1.726s-0.325,1.217-0.325,1.75v13.6h-2.05v-20.65h2.05v2.801
		c0.433-0.767,1-1.467,1.7-2.101c0.7-0.633,1.467-0.95,2.3-0.95c1.033,0,1.883,0.117,2.55,0.351c0.667,0.233,1.417,0.649,2.25,1.25
		L705.019,297.007z"/>
	<path d="M708.219,303.856c0,2.8,0.75,5.018,2.25,6.65c1.566,1.667,3.716,2.5,6.45,2.5c1.4,0,2.667-0.233,3.8-0.7
		c1.433-0.601,2.716-1.816,3.85-3.65l1.85,0.851c-1.3,2.467-3.3,4.133-6,5c-1.034,0.332-2.2,0.5-3.5,0.5
		c-3.1,0-5.65-1.017-7.65-3.051c-2.034-2.032-3.05-4.582-3.05-7.649c0-3.101,1-5.65,3-7.65c2.033-2.032,4.6-3.05,7.7-3.05
		c3.066,0,5.6,0.95,7.6,2.85c2.033,1.9,3.05,4.367,3.05,7.4H708.219z M722.319,297.307c-1.567-1.133-3.367-1.7-5.4-1.7
		c-4.267,0-7.067,2.1-8.4,6.3h16.75C724.936,300.007,723.952,298.474,722.319,297.307z"/>
</g>
<line fill="none" stroke="#000000" stroke-miterlimit="10" stroke-dasharray="1,2" x1="736.966" y1="301.95" x2="958.542" y2="301.95"/>
<g>
	<rect x="306.893" y="838.068" fill="none" width="422.127" height="159.111"/>
	<path d="M398.074,841.418v33.65h-2.05v-33.65h-7.9v-2.05h17.85v2.05H398.074z"/>
	<path d="M423.224,875.118v-12.45c0-4.366-2.034-6.55-6.1-6.55c-1.667,0-3.1,0.5-4.3,1.5c-1.234,1-1.85,2.334-1.85,4v13.45h-2.05
		v-37h2.05v19.1c1.233-2.032,3.283-3.05,6.15-3.05c5.433,0,8.15,2.784,8.15,8.351v12.649H423.224z"/>
	<path d="M431.724,864.318c0,2.8,0.75,5.018,2.25,6.65c1.566,1.667,3.716,2.5,6.45,2.5c1.4,0,2.667-0.233,3.8-0.7
		c1.433-0.601,2.716-1.816,3.85-3.65l1.85,0.851c-1.3,2.467-3.3,4.133-6,5c-1.034,0.332-2.2,0.5-3.5,0.5
		c-3.1,0-5.65-1.017-7.65-3.051c-2.034-2.032-3.05-4.582-3.05-7.649c0-3.101,1-5.65,3-7.65c2.033-2.032,4.6-3.05,7.7-3.05
		c3.066,0,5.6,0.95,7.6,2.85c2.033,1.9,3.05,4.367,3.05,7.4H431.724z M445.824,857.769c-1.567-1.133-3.367-1.7-5.4-1.7
		c-4.267,0-7.067,2.1-8.4,6.3h16.75C448.44,860.469,447.457,858.936,445.824,857.769z"/>
	<path d="M465.573,857.469c-0.533-0.4-1.1-0.717-1.7-0.95s-1.234-0.351-1.9-0.351c-0.567,0-1.1,0.176-1.6,0.525
		s-0.934,0.783-1.3,1.3c-0.367,0.518-0.658,1.093-0.875,1.726s-0.325,1.217-0.325,1.75v13.6h-2.05v-20.65h2.05v2.801
		c0.433-0.767,1-1.467,1.7-2.101c0.7-0.633,1.467-0.95,2.3-0.95c1.033,0,1.883,0.117,2.55,0.351c0.667,0.233,1.417,0.649,2.25,1.25
		L465.573,857.469z"/>
	<path d="M494.823,875.068v-14.25c0-1.267-0.417-2.366-1.25-3.3c-0.833-0.933-2.033-1.4-3.6-1.4c-3.234,0-4.85,1.567-4.85,4.7v14.25
		h-2.05v-14.25c0-1.4-0.467-2.517-1.4-3.35c-0.967-0.9-2.117-1.351-3.45-1.351c-1.367,0-2.518,0.434-3.45,1.3
		c-0.934,0.834-1.4,1.968-1.4,3.4v14.25h-2.05v-20.65h2.05v2.051c1-1.566,2.616-2.351,4.85-2.351c2.666,0,4.633,1.084,5.9,3.25
		c1.2-2.166,3.15-3.25,5.85-3.25c2.066,0,3.732,0.584,5,1.75c1.266,1.2,1.9,2.851,1.9,4.95v14.25H494.823z"/>
	<path d="M520.823,875.068v-3.55c-2.167,2.6-4.917,3.899-8.25,3.899c-3,0-5.517-1.016-7.55-3.05c-2.067-2.066-3.1-4.6-3.1-7.6
		s1.017-5.517,3.05-7.55c2.066-2.066,4.6-3.101,7.6-3.101c3.3,0,6.05,1.3,8.25,3.9v-3.601h2.05v20.65H520.823z M518.673,858.668
		c-1.7-1.699-3.733-2.55-6.1-2.55c-2.4,0-4.434,0.834-6.1,2.5c-1.7,1.7-2.55,3.75-2.55,6.15c0,2.367,0.85,4.399,2.55,6.1
		c1.7,1.7,3.733,2.55,6.1,2.55c2.4,0,4.433-0.832,6.1-2.5c1.7-1.699,2.55-3.75,2.55-6.149
		C521.223,862.402,520.373,860.368,518.673,858.668z"/>
	<path d="M529.522,875.068v-37h2v37H529.522z"/>
	<path d="M561.071,857.469c-0.533-0.4-1.1-0.717-1.7-0.95s-1.234-0.351-1.9-0.351c-0.567,0-1.1,0.176-1.6,0.525
		s-0.934,0.783-1.3,1.3c-0.367,0.518-0.658,1.093-0.875,1.726s-0.325,1.217-0.325,1.75v13.6h-2.05v-20.65h2.05v2.801
		c0.433-0.767,1-1.467,1.7-2.101c0.7-0.633,1.467-0.95,2.3-0.95c1.033,0,1.883,0.117,2.55,0.351c0.667,0.233,1.417,0.649,2.25,1.25
		L561.071,857.469z"/>
	<path d="M564.271,864.318c0,2.8,0.75,5.018,2.25,6.65c1.566,1.667,3.716,2.5,6.45,2.5c1.4,0,2.667-0.233,3.8-0.7
		c1.433-0.601,2.716-1.816,3.85-3.65l1.85,0.851c-1.3,2.467-3.3,4.133-6,5c-1.034,0.332-2.2,0.5-3.5,0.5
		c-3.1,0-5.65-1.017-7.65-3.051c-2.034-2.032-3.05-4.582-3.05-7.649c0-3.101,1-5.65,3-7.65c2.033-2.032,4.6-3.05,7.7-3.05
		c3.066,0,5.6,0.95,7.6,2.85c2.033,1.9,3.05,4.367,3.05,7.4H564.271z M578.371,857.769c-1.567-1.133-3.367-1.7-5.4-1.7
		c-4.267,0-7.067,2.1-8.4,6.3h16.75C580.988,860.469,580.004,858.936,578.371,857.769z"/>
	<path d="M598.521,873.769c-1.334,1.134-2.934,1.7-4.8,1.7c-3.2,0-5.6-1.45-7.2-4.351l1.75-1.05c0.566,1.033,1.25,1.834,2.05,2.4
		c0.833,0.633,1.966,0.949,3.4,0.949c3.133,0,4.7-1.332,4.7-4c0-1.166-0.55-2.183-1.65-3.05c-0.334-0.2-0.809-0.425-1.425-0.675
		c-0.617-0.25-1.375-0.541-2.275-0.875c-1.667-0.6-2.867-1.2-3.6-1.8c-1.067-0.866-1.6-2.116-1.6-3.75c0-1.4,0.533-2.601,1.6-3.601
		c1.033-1.032,2.383-1.55,4.05-1.55c2.3,0,4.25,0.8,5.85,2.4l-1.5,1.3c-1.133-1.133-2.583-1.7-4.35-1.7c-2.4,0-3.6,1.05-3.6,3.15
		c0,0.934,0.366,1.7,1.1,2.3c0.6,0.467,1.55,0.917,2.85,1.35c1.133,0.4,2.066,0.775,2.8,1.125c0.733,0.351,1.283,0.659,1.65,0.926
		c1.433,1.1,2.15,2.583,2.15,4.449C600.471,871.219,599.821,872.668,598.521,873.769z"/>
	<path d="M606.321,850.719c-0.367,0-0.75-0.15-1.15-0.45c-0.3-0.3-0.467-0.7-0.5-1.2c0-0.9,0.55-1.45,1.65-1.65
		c0.833,0,1.383,0.551,1.65,1.65C607.971,850.168,607.42,850.719,606.321,850.719z M605.271,875.068v-20.65h2.05v20.65H605.271z"/>
	<path d="M624.271,873.769c-1.334,1.134-2.934,1.7-4.8,1.7c-3.2,0-5.6-1.45-7.2-4.351l1.75-1.05c0.566,1.033,1.25,1.834,2.05,2.4
		c0.833,0.633,1.966,0.949,3.4,0.949c3.133,0,4.7-1.332,4.7-4c0-1.166-0.55-2.183-1.65-3.05c-0.334-0.2-0.809-0.425-1.425-0.675
		c-0.617-0.25-1.375-0.541-2.275-0.875c-1.667-0.6-2.867-1.2-3.6-1.8c-1.067-0.866-1.6-2.116-1.6-3.75c0-1.4,0.533-2.601,1.6-3.601
		c1.033-1.032,2.383-1.55,4.05-1.55c2.3,0,4.25,0.8,5.85,2.4l-1.5,1.3c-1.133-1.133-2.583-1.7-4.35-1.7c-2.4,0-3.6,1.05-3.6,3.15
		c0,0.934,0.366,1.7,1.1,2.3c0.6,0.467,1.55,0.917,2.85,1.35c1.133,0.4,2.066,0.775,2.8,1.125c0.733,0.351,1.283,0.659,1.65,0.926
		c1.433,1.1,2.15,2.583,2.15,4.449C626.22,871.219,625.57,872.668,624.271,873.769z"/>
	<path d="M633.77,856.469v18.6h-2.05v-18.6h-2.8v-2.051h2.8v-9.05h2.05v9.05h4.8v2.051H633.77z"/>
	<path d="M658.17,875.068v-3.55c-2.167,2.6-4.917,3.899-8.25,3.899c-3,0-5.517-1.016-7.55-3.05c-2.067-2.066-3.1-4.6-3.1-7.6
		s1.017-5.517,3.05-7.55c2.066-2.066,4.6-3.101,7.6-3.101c3.3,0,6.05,1.3,8.25,3.9v-3.601h2.05v20.65H658.17z M656.021,858.668
		c-1.7-1.699-3.733-2.55-6.1-2.55c-2.4,0-4.434,0.834-6.1,2.5c-1.7,1.7-2.55,3.75-2.55,6.15c0,2.367,0.85,4.399,2.55,6.1
		c1.7,1.7,3.733,2.55,6.1,2.55c2.4,0,4.433-0.832,6.1-2.5c1.7-1.699,2.55-3.75,2.55-6.149
		C658.57,862.402,657.721,860.368,656.021,858.668z"/>
	<path d="M680.22,875.068v-12.35c0-4.367-1.967-6.551-5.9-6.551c-1.934,0-3.4,0.567-4.4,1.7c-1.034,1.134-1.55,2.684-1.55,4.65
		v12.55h-2.05v-20.65h2.05v2.5c0.933-1.832,2.917-2.75,5.95-2.75c2.566,0,4.533,0.734,5.9,2.2c1.366,1.468,2.05,3.518,2.05,6.15
		v12.55H680.22z"/>
	<path d="M698.619,875.469c-3.067,0-5.617-1.017-7.65-3.051c-2.034-2.032-3.05-4.582-3.05-7.649c0-3.066,1.016-5.616,3.05-7.65
		c2.033-2.032,4.583-3.05,7.65-3.05c2.633,0,4.733,0.6,6.3,1.8v2.45l-1.3-0.85l-1.4-0.75c-1.267-0.434-2.467-0.65-3.6-0.65
		c-2.567,0-4.65,0.8-6.25,2.4c-1.633,1.633-2.45,3.733-2.45,6.3c0,2.533,0.816,4.617,2.45,6.25c1.633,1.634,3.717,2.45,6.25,2.45
		c2.4,0,4.5-0.801,6.3-2.4v2.55C703.052,874.852,700.952,875.469,698.619,875.469z"/>
	<path d="M708.219,864.318c0,2.8,0.75,5.018,2.25,6.65c1.566,1.667,3.716,2.5,6.45,2.5c1.4,0,2.667-0.233,3.8-0.7
		c1.433-0.601,2.716-1.816,3.85-3.65l1.85,0.851c-1.3,2.467-3.3,4.133-6,5c-1.034,0.332-2.2,0.5-3.5,0.5
		c-3.1,0-5.65-1.017-7.65-3.051c-2.034-2.032-3.05-4.582-3.05-7.649c0-3.101,1-5.65,3-7.65c2.033-2.032,4.6-3.05,7.7-3.05
		c3.066,0,5.6,0.95,7.6,2.85c2.033,1.9,3.05,4.367,3.05,7.4H708.219z M722.319,857.769c-1.567-1.133-3.367-1.7-5.4-1.7
		c-4.267,0-7.067,2.1-8.4,6.3h16.75C724.936,860.469,723.952,858.936,722.319,857.769z"/>
	<path d="M328.026,934.769c-1.3,0.466-2.833,0.7-4.6,0.7c-5.467,0-8.983-2.583-10.55-7.75l2.05-0.7c1.167,4.267,4,6.399,8.5,6.399
		c2.566,0,4.583-0.633,6.05-1.899c1.5-1.3,2.25-3.2,2.25-5.7c0-2.366-0.884-4.333-2.65-5.9c-0.467-0.433-1.184-0.916-2.15-1.449
		s-2.2-1.133-3.7-1.801c-2.833-1.266-4.767-2.366-5.8-3.3c-1.733-1.5-2.6-3.482-2.6-5.95c0-2.466,0.883-4.449,2.65-5.949
		c1.733-1.533,3.866-2.301,6.4-2.301c4.2,0,7.167,1.567,8.9,4.7l-1.95,0.851c-0.667-1.101-1.467-1.917-2.4-2.45
		c-1.167-0.733-2.684-1.101-4.55-1.101c-1.967,0-3.6,0.551-4.9,1.65c-1.4,1.167-2.1,2.7-2.1,4.6c0,1.7,0.733,3.184,2.2,4.45
		c0.833,0.667,2.5,1.567,5,2.7c1.566,0.7,2.916,1.393,4.05,2.075c1.133,0.684,2.05,1.375,2.75,2.075c1.933,1.899,2.9,4.267,2.9,7.1
		C333.776,930.352,331.859,933.336,328.026,934.769z"/>
	<path d="M357.126,932.318c-2.067,2.067-4.6,3.1-7.6,3.1c-3.434,0-6.267-1.399-8.5-4.199v13.55h-2.05v-30.351h2.05v3.9
		c2.133-2.8,4.966-4.2,8.5-4.2c3,0,5.517,1.018,7.55,3.05c2.066,2.067,3.1,4.601,3.1,7.601S359.159,930.285,357.126,932.318z
		 M355.626,918.668c-1.7-1.699-3.734-2.55-6.1-2.55c-2.4,0-4.434,0.834-6.1,2.5c-1.7,1.7-2.55,3.75-2.55,6.15
		c0,2.367,0.85,4.399,2.55,6.1c1.7,1.7,3.733,2.55,6.1,2.55c2.4,0,4.433-0.832,6.1-2.5c1.7-1.699,2.55-3.75,2.55-6.149
		C358.176,922.402,357.326,920.368,355.626,918.668z"/>
	<path d="M365.125,924.318c0,2.8,0.75,5.018,2.25,6.65c1.566,1.667,3.716,2.5,6.45,2.5c1.4,0,2.667-0.233,3.8-0.7
		c1.433-0.601,2.716-1.816,3.85-3.65l1.85,0.851c-1.3,2.467-3.3,4.133-6,5c-1.034,0.332-2.2,0.5-3.5,0.5
		c-3.1,0-5.65-1.017-7.65-3.051c-2.034-2.032-3.05-4.582-3.05-7.649c0-3.101,1-5.65,3-7.65c2.033-2.032,4.6-3.05,7.7-3.05
		c3.066,0,5.6,0.95,7.6,2.85c2.033,1.9,3.05,4.367,3.05,7.4H365.125z M379.225,917.769c-1.567-1.133-3.367-1.7-5.4-1.7
		c-4.267,0-7.067,2.1-8.4,6.3h16.75C381.842,920.469,380.858,918.936,379.225,917.769z"/>
	<path d="M398.975,935.469c-3.067,0-5.617-1.017-7.65-3.051c-2.034-2.032-3.05-4.582-3.05-7.649c0-3.066,1.016-5.616,3.05-7.65
		c2.033-2.032,4.583-3.05,7.65-3.05c2.633,0,4.733,0.6,6.3,1.8v2.45l-1.3-0.85l-1.4-0.75c-1.267-0.434-2.467-0.65-3.6-0.65
		c-2.567,0-4.65,0.8-6.25,2.4c-1.633,1.633-2.45,3.733-2.45,6.3c0,2.533,0.816,4.617,2.45,6.25c1.633,1.634,3.717,2.45,6.25,2.45
		c2.4,0,4.5-0.801,6.3-2.4v2.55C403.408,934.852,401.308,935.469,398.975,935.469z"/>
	<path d="M411.325,910.719c-0.367,0-0.75-0.15-1.15-0.45c-0.3-0.3-0.467-0.7-0.5-1.2c0-0.9,0.55-1.45,1.65-1.65
		c0.833,0,1.383,0.551,1.65,1.65C412.975,910.168,412.425,910.719,411.325,910.719z M410.275,935.068v-20.65h2.05v20.65H410.275z"/>
	<path d="M426.975,900.118l-1.35-0.149c-1.867,0-2.8,1.1-2.8,3.3v11.149h4.9v2.051h-4.9v18.6h-2.05v-18.6h-2.8v-2.051h2.8v-11.75
		c0-3.166,1.6-4.75,4.8-4.75c0.733,0,1.2,0.034,1.4,0.101c0.4,0,0.85,0.117,1.35,0.35v2.05L426.975,900.118z"/>
	<path d="M431.725,910.719c-0.367,0-0.75-0.15-1.15-0.45c-0.3-0.3-0.467-0.7-0.5-1.2c0-0.9,0.55-1.45,1.65-1.65
		c0.833,0,1.383,0.551,1.65,1.65C433.375,910.168,432.824,910.719,431.725,910.719z M430.674,935.068v-20.65h2.05v20.65H430.674z"/>
	<path d="M449.274,935.469c-3.067,0-5.617-1.017-7.65-3.051c-2.034-2.032-3.05-4.582-3.05-7.649c0-3.066,1.016-5.616,3.05-7.65
		c2.033-2.032,4.583-3.05,7.65-3.05c2.633,0,4.733,0.6,6.3,1.8v2.45l-1.3-0.85l-1.4-0.75c-1.267-0.434-2.467-0.65-3.6-0.65
		c-2.567,0-4.65,0.8-6.25,2.4c-1.633,1.633-2.45,3.733-2.45,6.3c0,2.533,0.816,4.617,2.45,6.25c1.633,1.634,3.717,2.45,6.25,2.45
		c2.4,0,4.5-0.801,6.3-2.4v2.55C453.707,934.852,451.607,935.469,449.274,935.469z"/>
	<path d="M488.873,935.118v-12.45c0-4.366-2.034-6.55-6.1-6.55c-1.667,0-3.1,0.5-4.3,1.5c-1.234,1-1.85,2.334-1.85,4v13.45h-2.05
		v-37h2.05v19.1c1.233-2.032,3.283-3.05,6.15-3.05c5.433,0,8.15,2.784,8.15,8.351v12.649H488.873z"/>
	<path d="M497.373,924.318c0,2.8,0.75,5.018,2.25,6.65c1.566,1.667,3.716,2.5,6.45,2.5c1.4,0,2.667-0.233,3.8-0.7
		c1.433-0.601,2.716-1.816,3.85-3.65l1.85,0.851c-1.3,2.467-3.3,4.133-6,5c-1.034,0.332-2.2,0.5-3.5,0.5
		c-3.1,0-5.65-1.017-7.65-3.051c-2.034-2.032-3.05-4.582-3.05-7.649c0-3.101,1-5.65,3-7.65c2.033-2.032,4.6-3.05,7.7-3.05
		c3.066,0,5.6,0.95,7.6,2.85c2.033,1.9,3.05,4.367,3.05,7.4H497.373z M511.473,917.769c-1.567-1.133-3.367-1.7-5.4-1.7
		c-4.267,0-7.067,2.1-8.4,6.3h16.75C514.089,920.469,513.105,918.936,511.473,917.769z"/>
	<path d="M538.822,935.068v-3.55c-2.167,2.6-4.917,3.899-8.25,3.899c-3,0-5.517-1.016-7.55-3.05c-2.067-2.066-3.1-4.6-3.1-7.6
		s1.017-5.517,3.05-7.55c2.066-2.066,4.6-3.101,7.6-3.101c3.3,0,6.05,1.3,8.25,3.9v-3.601h2.05v20.65H538.822z M536.672,918.668
		c-1.7-1.699-3.733-2.55-6.1-2.55c-2.4,0-4.434,0.834-6.1,2.5c-1.7,1.7-2.55,3.75-2.55,6.15c0,2.367,0.85,4.399,2.55,6.1
		c1.7,1.7,3.733,2.55,6.1,2.55c2.4,0,4.433-0.832,6.1-2.5c1.7-1.699,2.55-3.75,2.55-6.149
		C539.222,922.402,538.373,920.368,536.672,918.668z"/>
	<path d="M550.072,916.469v18.6h-2.05v-18.6h-2.8v-2.051h2.8v-9.05h2.05v9.05h4.8v2.051H550.072z"/>
	<path d="M581.971,935.469c-3.067,0-5.617-1.017-7.65-3.051c-2.034-2.032-3.05-4.582-3.05-7.649c0-3.066,1.016-5.616,3.05-7.65
		c2.033-2.032,4.583-3.05,7.65-3.05c2.633,0,4.733,0.6,6.3,1.8v2.45l-1.3-0.85l-1.4-0.75c-1.267-0.434-2.467-0.65-3.6-0.65
		c-2.567,0-4.65,0.8-6.25,2.4c-1.633,1.633-2.45,3.733-2.45,6.3c0,2.533,0.816,4.617,2.45,6.25c1.633,1.634,3.717,2.45,6.25,2.45
		c2.4,0,4.5-0.801,6.3-2.4v2.55C586.404,934.852,584.304,935.469,581.971,935.469z"/>
	<path d="M608.371,935.068v-3.55c-2.167,2.6-4.917,3.899-8.25,3.899c-3,0-5.517-1.016-7.55-3.05c-2.067-2.066-3.1-4.6-3.1-7.6
		s1.017-5.517,3.05-7.55c2.066-2.066,4.6-3.101,7.6-3.101c3.3,0,6.05,1.3,8.25,3.9v-3.601h2.05v20.65H608.371z M606.221,918.668
		c-1.7-1.699-3.733-2.55-6.1-2.55c-2.4,0-4.434,0.834-6.1,2.5c-1.7,1.7-2.55,3.75-2.55,6.15c0,2.367,0.85,4.399,2.55,6.1
		c1.7,1.7,3.733,2.55,6.1,2.55c2.4,0,4.433-0.832,6.1-2.5c1.7-1.699,2.55-3.75,2.55-6.149
		C608.771,922.402,607.921,920.368,606.221,918.668z"/>
	<path d="M634.571,932.318c-2.067,2.067-4.6,3.1-7.6,3.1c-3.434,0-6.267-1.399-8.5-4.199v13.55h-2.05v-30.351h2.05v3.9
		c2.133-2.8,4.966-4.2,8.5-4.2c3,0,5.517,1.018,7.55,3.05c2.066,2.067,3.1,4.601,3.1,7.601S636.604,930.285,634.571,932.318z
		 M633.071,918.668c-1.7-1.699-3.734-2.55-6.1-2.55c-2.4,0-4.434,0.834-6.1,2.5c-1.7,1.7-2.55,3.75-2.55,6.15
		c0,2.367,0.85,4.399,2.55,6.1c1.7,1.7,3.733,2.55,6.1,2.55c2.4,0,4.433-0.832,6.1-2.5c1.7-1.699,2.55-3.75,2.55-6.149
		C635.621,922.402,634.771,920.368,633.071,918.668z"/>
	<path d="M659.52,935.068v-3.55c-2.167,2.6-4.917,3.899-8.25,3.899c-3,0-5.517-1.016-7.55-3.05c-2.067-2.066-3.1-4.6-3.1-7.6
		s1.017-5.517,3.05-7.55c2.066-2.066,4.6-3.101,7.6-3.101c3.3,0,6.05,1.3,8.25,3.9v-3.601h2.05v20.65H659.52z M657.37,918.668
		c-1.7-1.699-3.733-2.55-6.1-2.55c-2.4,0-4.434,0.834-6.1,2.5c-1.7,1.7-2.55,3.75-2.55,6.15c0,2.367,0.85,4.399,2.55,6.1
		c1.7,1.7,3.733,2.55,6.1,2.55c2.4,0,4.433-0.832,6.1-2.5c1.7-1.699,2.55-3.75,2.55-6.149
		C659.92,922.402,659.07,920.368,657.37,918.668z"/>
	<path d="M677.419,935.469c-3.067,0-5.617-1.017-7.65-3.051c-2.034-2.032-3.05-4.582-3.05-7.649c0-3.066,1.016-5.616,3.05-7.65
		c2.033-2.032,4.583-3.05,7.65-3.05c2.633,0,4.733,0.6,6.3,1.8v2.45l-1.3-0.85l-1.4-0.75c-1.267-0.434-2.467-0.65-3.6-0.65
		c-2.567,0-4.65,0.8-6.25,2.4c-1.633,1.633-2.45,3.733-2.45,6.3c0,2.533,0.816,4.617,2.45,6.25c1.633,1.634,3.717,2.45,6.25,2.45
		c2.4,0,4.5-0.801,6.3-2.4v2.55C681.853,934.852,679.752,935.469,677.419,935.469z"/>
	<path d="M689.77,910.719c-0.367,0-0.75-0.15-1.15-0.45c-0.3-0.3-0.467-0.7-0.5-1.2c0-0.9,0.55-1.45,1.65-1.65
		c0.833,0,1.383,0.551,1.65,1.65C691.42,910.168,690.87,910.719,689.77,910.719z M688.72,935.068v-20.65h2.05v20.65H688.72z"/>
	<path d="M700.669,916.469v18.6h-2.05v-18.6h-2.8v-2.051h2.8v-9.05h2.05v9.05h4.8v2.051H700.669z"/>
	<path d="M713.819,944.769h-2.3l5.35-11.601l-8.7-18.75h2.2l7.7,16.301l7.6-16.301h2.25L713.819,944.769z"/>
	<path d="M614.521,989.668c-3,3.601-6.917,5.4-11.75,5.4h-11.9v-35.7h11.9c4.8,0,8.7,1.8,11.7,5.4c2.833,3.367,4.25,7.5,4.25,12.399
		C618.721,982.102,617.321,986.269,614.521,989.668z M613.021,966.168c-2.6-3.199-6.018-4.8-10.25-4.8h-9.9v31.65h9.9
		c3.666,0,6.85-1.366,9.55-4.101c2.9-2.933,4.35-6.85,4.35-11.75C616.671,972.802,615.454,969.136,613.021,966.168z"/>
	<path d="M625.171,984.318c0,2.8,0.75,5.018,2.25,6.65c1.566,1.667,3.716,2.5,6.45,2.5c1.4,0,2.667-0.233,3.8-0.7
		c1.433-0.601,2.716-1.816,3.85-3.65l1.85,0.851c-1.3,2.467-3.3,4.133-6,5c-1.034,0.332-2.2,0.5-3.5,0.5
		c-3.1,0-5.65-1.017-7.65-3.051c-2.034-2.032-3.05-4.582-3.05-7.649c0-3.101,1-5.65,3-7.65c2.033-2.032,4.6-3.05,7.7-3.05
		c3.066,0,5.6,0.95,7.6,2.85c2.033,1.9,3.05,4.367,3.05,7.4H625.171z M639.271,977.769c-1.567-1.133-3.367-1.7-5.4-1.7
		c-4.267,0-7.067,2.1-8.4,6.3h16.75C641.887,980.469,640.903,978.936,639.271,977.769z"/>
	<path d="M663.17,995.068v-12.35c0-4.367-1.967-6.551-5.9-6.551c-1.934,0-3.4,0.567-4.4,1.7c-1.034,1.134-1.55,2.684-1.55,4.65
		v12.55h-2.05v-20.65h2.05v2.5c0.933-1.832,2.917-2.75,5.95-2.75c2.566,0,4.533,0.734,5.9,2.2c1.366,1.468,2.05,3.518,2.05,6.15
		v12.55H663.17z"/>
	<path d="M681.97,993.769c-1.334,1.134-2.934,1.7-4.8,1.7c-3.2,0-5.6-1.45-7.2-4.351l1.75-1.05c0.566,1.033,1.25,1.834,2.05,2.4
		c0.833,0.633,1.966,0.949,3.4,0.949c3.133,0,4.7-1.332,4.7-4c0-1.166-0.55-2.183-1.65-3.05c-0.334-0.2-0.809-0.425-1.425-0.675
		c-0.617-0.25-1.375-0.541-2.275-0.875c-1.667-0.6-2.867-1.2-3.6-1.8c-1.067-0.866-1.6-2.116-1.6-3.75c0-1.4,0.533-2.601,1.6-3.601
		c1.033-1.032,2.383-1.55,4.05-1.55c2.3,0,4.25,0.8,5.85,2.4l-1.5,1.3c-1.133-1.133-2.583-1.7-4.35-1.7c-2.4,0-3.6,1.05-3.6,3.15
		c0,0.934,0.366,1.7,1.1,2.3c0.6,0.467,1.55,0.917,2.85,1.35c1.133,0.4,2.066,0.775,2.8,1.125c0.733,0.351,1.283,0.659,1.65,0.926
		c1.433,1.1,2.15,2.583,2.15,4.449C683.919,991.219,683.27,992.668,681.97,993.769z"/>
	<path d="M689.77,970.719c-0.367,0-0.75-0.15-1.15-0.45c-0.3-0.3-0.467-0.7-0.5-1.2c0-0.9,0.55-1.45,1.65-1.65
		c0.833,0,1.383,0.551,1.65,1.65C691.419,970.168,690.869,970.719,689.77,970.719z M688.719,995.068v-20.65h2.05v20.65H688.719z"/>
	<path d="M700.669,976.469v18.6h-2.05v-18.6h-2.8v-2.051h2.8v-9.05h2.05v9.05h4.8v2.051H700.669z"/>
	<path d="M713.819,1004.769h-2.3l5.35-11.601l-8.7-18.75h2.2l7.7,16.301l7.6-16.301h2.25L713.819,1004.769z"/>
</g>
<line fill="none" stroke="#000000" stroke-miterlimit="10" stroke-dasharray="1,2" x1="736.966" y1="862.412" x2="1214.501" y2="862.412"/>
</svg>
