<?xml version="1.0" encoding="utf-8"?>
<!-- Generator: Adobe Illustrator 16.0.0, SVG Export Plug-In . SVG Version: 6.00 Build 0)  -->
<!DOCTYPE svg PUBLIC "-//W3C//DTD SVG 1.1//EN" "http://www.w3.org/Graphics/SVG/1.1/DTD/svg11.dtd">
<svg version="1.1" id="Layer_1" xmlns="http://www.w3.org/2000/svg" xmlns:xlink="http://www.w3.org/1999/xlink" x="0px" y="0px"
	 width="1920px" height="1080px" viewBox="0 0 1920 1080" enable-background="new 0 0 1920 1080" xml:space="preserve">
<g>
	<path opacity="0.5" fill="#008D36" d="M1505.444,236.292l4.308,78.976l96.483,68.612l16.353-14.147
		c48.406-43.03,103.544-100.48,137.422-118.303l-27.896-10.823c-53.475-13.127-164.762,9.728-210.508-9.341l-16.166,5.123"/>
	<path opacity="0.5" fill="#95C11F" d="M1505.444,236.292l118.933,74.938l-1.789,58.407c-21.342,18.968-41.376,35.135-57.702,43.869
		v14.374l-25.698,13.688l-0.506-8.857l-2.94-1.426C1493.331,459.669,1455,475.35,1455,475.35l-0.865-0.378
		c-51.654-54.403-51.863-108.829-114.249-186.191L1505.444,236.292z"/>
	<g>
		
			<polyline fill="none" stroke="#000000" stroke-width="0.3" stroke-linecap="round" stroke-linejoin="round" stroke-miterlimit="10" points="
			1683.316,199.032 1782.531,236.9 1763.103,338.649 1766.727,336.579 1786.693,235.688 1631.546,176.573 1310.789,269.521 
			1338.493,378.009 1340.709,380.903 1356.415,375.115 1455,490.114 1749.189,331.863 1763.103,338.649 		"/>
		
			<polyline fill="none" stroke="#000000" stroke-width="0.3" stroke-linecap="round" stroke-linejoin="round" stroke-miterlimit="10" points="
			1340.709,380.903 1313.376,272.113 1565.099,199.228 		"/>
		
			<line fill="none" stroke="#000000" stroke-width="0.3" stroke-linecap="round" stroke-linejoin="round" stroke-miterlimit="10" x1="1336.48" y1="290.066" x2="1356.415" y2="375.115"/>
		
			<line fill="none" stroke="#000000" stroke-width="0.3" stroke-linecap="round" stroke-linejoin="round" stroke-miterlimit="10" x1="1453.27" y1="478.976" x2="1455" y2="490.114"/>
		
			<path fill="none" stroke="#000000" stroke-width="0.3" stroke-linecap="round" stroke-linejoin="round" stroke-miterlimit="10" d="
			M1336.48,290.066c62.386,77.362,65.135,134.507,116.789,188.91"/>
		
			<line fill="none" stroke="#000000" stroke-width="0.3" stroke-linecap="round" stroke-linejoin="round" stroke-miterlimit="10" x1="1336.48" y1="290.066" x2="1339.886" y2="288.781"/>
		
			<line fill="none" stroke="#000000" stroke-width="0.3" stroke-linecap="round" stroke-linejoin="round" stroke-miterlimit="10" x1="1538.682" y1="432.71" x2="1539.401" y2="444.712"/>
		
			<line fill="none" stroke="#000000" stroke-width="0.3" stroke-linecap="round" stroke-linejoin="round" stroke-miterlimit="10" x1="1565.099" y1="427.783" x2="1539.401" y2="441.471"/>
		
			<path fill="none" stroke="#000000" stroke-width="0.3" stroke-linecap="round" stroke-linejoin="round" stroke-miterlimit="10" d="
			M1763.229,252.225c-48.813,25.679-142.439,134.152-195.804,162.691l-0.017,14.731"/>
		
			<path fill="none" stroke="#000000" stroke-width="0.3" stroke-linecap="round" stroke-linejoin="round" stroke-miterlimit="10" d="
			M1760.224,251.239c-48.807,25.681-141.76,133.631-195.125,162.173v14.371"/>
		
			<line fill="none" stroke="#000000" stroke-width="0.3" stroke-linecap="round" stroke-linejoin="round" stroke-miterlimit="10" x1="1565.099" y1="413.412" x2="1567.425" y2="414.916"/>
		
			<path fill="none" stroke="#000000" stroke-width="0.3" stroke-linecap="round" stroke-linejoin="round" stroke-miterlimit="10" d="
			M1453.27,478.976c42.05-17.486,73.769-37.505,85.412-46.266l-2.94-1.426l0,0C1493.331,459.669,1455,475.35,1455,475.35
			l-0.865-0.378c-51.654-54.403-51.863-108.829-114.249-186.191"/>
		
			<polyline fill="none" stroke="#000000" stroke-width="0.3" stroke-linecap="round" stroke-linejoin="round" stroke-miterlimit="10" points="
			1759.922,251.239 1763.229,252.225 1749.189,331.863 		"/>
		
			<polyline fill="none" stroke="#000000" stroke-width="0.3" stroke-linecap="round" stroke-linejoin="round" stroke-miterlimit="10" points="
			1560.969,238.558 1561.266,276.67 1537.186,285.691 1535.741,243 1551.744,237.825 		"/>
		
			<polyline fill="none" stroke="#000000" stroke-width="0.3" stroke-linecap="round" stroke-linejoin="round" stroke-miterlimit="10" points="
			1584.897,239.146 1584.897,267.902 1606.621,259.645 1607.258,238.704 		"/>
		
			<polygon fill="none" stroke="#000000" stroke-width="0.3" stroke-linecap="round" stroke-linejoin="round" stroke-miterlimit="10" points="
			1390.644,340.449 1381.11,293.187 1415.924,282.007 1423.28,327.997 		"/>
		
			<polygon fill="none" stroke="#000000" stroke-width="0.3" stroke-linecap="round" stroke-linejoin="round" stroke-miterlimit="10" points="
			1447.56,271.972 1477.824,262.062 1482.241,306.272 1453.27,317.197 		"/>
		
			<polyline fill="none" stroke="#000000" stroke-width="0.3" stroke-linecap="round" stroke-linejoin="round" stroke-miterlimit="10" points="
			1413.363,282.829 1420.246,325.582 1389.866,336.59 		"/>
		
			<polyline fill="none" stroke="#000000" stroke-width="0.3" stroke-linecap="round" stroke-linejoin="round" stroke-miterlimit="10" points="
			1475.202,262.919 1479.064,303.606 1452.784,313.37 		"/>
		
			<polyline fill="none" stroke="#000000" stroke-width="0.3" stroke-linecap="round" stroke-linejoin="round" stroke-miterlimit="10" points="
			1537.186,282.386 1558.347,274.637 1557.694,238.338 		"/>
		
			<polyline fill="none" stroke="#000000" stroke-width="0.3" stroke-linecap="round" stroke-linejoin="round" stroke-miterlimit="10" points="
			1584.897,264.982 1603.315,258.122 1603.815,238.813 		"/>
		
			<polyline fill="none" stroke="#000000" stroke-width="0.3" stroke-linecap="round" stroke-linejoin="round" stroke-miterlimit="10" points="
			1693.965,303.686 1627.59,269.55 1387.399,362.54 		"/>
		
			<path fill="none" stroke="#000000" stroke-width="0.3" stroke-linecap="round" stroke-linejoin="round" stroke-miterlimit="10" d="
			M1565.099,206.543c53.104,8.314,73.753-7.462,118.218-0.195v-7.316c-44.465-7.267-65.113,8.51-118.218,0.195V206.543z"/>
		
			<line fill="none" stroke="#000000" stroke-width="0.3" stroke-linecap="round" stroke-linejoin="round" stroke-miterlimit="10" x1="1591.4" y1="208.979" x2="1521.589" y2="230.429"/>
		
			<line fill="none" stroke="#000000" stroke-width="0.3" stroke-linecap="round" stroke-linejoin="round" stroke-miterlimit="10" x1="1627.59" y1="269.55" x2="1628.46" y2="237.877"/>
		
			<path fill="none" stroke="#000000" stroke-width="0.3" stroke-linecap="round" stroke-linejoin="round" stroke-miterlimit="10" d="
			M1732.321,238.855l-0.208,1.655c-53.475-13.127-164.757,9.728-210.508-9.341l-0.017-0.74
			C1567.341,249.495,1678.847,225.73,1732.321,238.855l-81.644-34.244"/>
		
			<line fill="none" stroke="#000000" stroke-width="0.3" stroke-linecap="round" stroke-linejoin="round" stroke-miterlimit="10" x1="1310.789" y1="269.521" x2="1313.376" y2="272.113"/>
		
			<line fill="none" stroke="#000000" stroke-width="0.3" stroke-linecap="round" stroke-linejoin="round" stroke-miterlimit="10" x1="1782.531" y1="236.9" x2="1786.693" y2="235.688"/>
	</g>
	<g>
		
			<line fill="none" stroke="#000000" stroke-width="0.3" stroke-linecap="round" stroke-linejoin="round" stroke-miterlimit="10" x1="1339.886" y1="288.781" x2="1521.605" y2="231.169"/>
		
			<line fill="none" stroke="#000000" stroke-width="0.3" stroke-linecap="round" stroke-linejoin="round" stroke-miterlimit="10" x1="1732.118" y1="240.51" x2="1760.224" y2="251.239"/>
		
			<line fill="none" stroke="#000000" stroke-width="0.3" stroke-linecap="round" stroke-linejoin="round" stroke-miterlimit="10" x1="1339.886" y1="288.781" x2="1442.392" y2="391.587"/>
		
			<line fill="none" stroke="#000000" stroke-width="0.3" stroke-linecap="round" stroke-linejoin="round" stroke-miterlimit="10" x1="1760.224" y1="251.239" x2="1442.392" y2="391.587"/>
		
			<line fill="none" stroke="#000000" stroke-width="0.3" stroke-linecap="round" stroke-linejoin="round" stroke-miterlimit="10" x1="1442.392" y1="391.587" x2="1455" y2="475.35"/>
		
			<polyline fill="none" stroke="#000000" stroke-width="0.3" stroke-linecap="round" stroke-linejoin="round" stroke-miterlimit="10" points="
			1622.588,369.733 1624.377,311.229 1505.444,236.292 1509.752,315.171 		"/>
	</g>
	
		<line fill="none" stroke="#000000" stroke-width="0.3" stroke-miterlimit="10" x1="1509.752" y1="315.171" x2="1606.235" y2="383.88"/>
</g>
<g>
	<g>
		
			<polyline fill="none" stroke="#000000" stroke-width="0.3" stroke-linecap="round" stroke-linejoin="round" stroke-miterlimit="10" points="
			505.246,199.032 604.469,236.9 585.038,338.649 588.662,336.579 608.629,235.688 453.482,176.573 132.725,269.521 
			160.424,378.009 162.641,380.903 178.352,375.115 276.937,490.114 571.127,331.863 585.038,338.649 		"/>
		
			<polyline fill="none" stroke="#000000" stroke-width="0.3" stroke-linecap="round" stroke-linejoin="round" stroke-miterlimit="10" points="
			162.641,380.903 135.311,272.113 387.035,199.228 		"/>
		
			<line fill="none" stroke="#000000" stroke-width="0.3" stroke-linecap="round" stroke-linejoin="round" stroke-miterlimit="10" x1="158.411" y1="290.066" x2="178.352" y2="375.115"/>
		
			<line fill="none" stroke="#000000" stroke-width="0.3" stroke-linecap="round" stroke-linejoin="round" stroke-miterlimit="10" x1="275.205" y1="478.976" x2="276.937" y2="490.114"/>
		
			<path fill="none" stroke="#000000" stroke-width="0.3" stroke-linecap="round" stroke-linejoin="round" stroke-miterlimit="10" d="
			M158.411,290.066c62.392,77.362,65.134,134.507,116.794,188.91"/>
		
			<line fill="none" stroke="#000000" stroke-width="0.3" stroke-linecap="round" stroke-linejoin="round" stroke-miterlimit="10" x1="158.411" y1="290.066" x2="161.821" y2="288.781"/>
		
			<line fill="none" stroke="#000000" stroke-width="0.3" stroke-linecap="round" stroke-linejoin="round" stroke-miterlimit="10" x1="360.613" y1="432.71" x2="361.337" y2="444.712"/>
		
			<line fill="none" stroke="#000000" stroke-width="0.3" stroke-linecap="round" stroke-linejoin="round" stroke-miterlimit="10" x1="387.035" y1="427.783" x2="361.337" y2="441.471"/>
		
			<path fill="none" stroke="#000000" stroke-width="0.3" stroke-linecap="round" stroke-linejoin="round" stroke-miterlimit="10" d="
			M585.164,252.225c-48.813,25.679-142.438,134.152-195.805,162.691l-0.02,14.731"/>
		
			<path fill="none" stroke="#000000" stroke-width="0.3" stroke-linecap="round" stroke-linejoin="round" stroke-miterlimit="10" d="
			M582.16,251.239c-48.813,25.681-141.761,133.631-195.125,162.173v14.371"/>
		
			<line fill="none" stroke="#000000" stroke-width="0.3" stroke-linecap="round" stroke-linejoin="round" stroke-miterlimit="10" x1="387.035" y1="413.412" x2="389.359" y2="414.916"/>
		
			<path fill="none" stroke="#000000" stroke-width="0.3" stroke-linecap="round" stroke-linejoin="round" stroke-miterlimit="10" d="
			M275.205,478.976c42.049-17.486,73.769-37.505,85.408-46.266l-2.937-1.426l0,0c-42.409,28.385-80.74,44.065-80.74,44.065
			l-0.865-0.378c-51.661-54.403-51.864-108.829-114.25-186.191"/>
		
			<polyline fill="none" stroke="#000000" stroke-width="0.3" stroke-linecap="round" stroke-linejoin="round" stroke-miterlimit="10" points="
			581.857,251.239 585.164,252.225 571.127,331.863 		"/>
		
			<polyline fill="none" stroke="#000000" stroke-width="0.3" stroke-linecap="round" stroke-linejoin="round" stroke-miterlimit="10" points="
			382.905,238.558 383.201,276.67 359.121,285.691 357.677,243 373.681,237.825 		"/>
		
			<polyline fill="none" stroke="#000000" stroke-width="0.3" stroke-linecap="round" stroke-linejoin="round" stroke-miterlimit="10" points="
			406.829,239.146 406.829,267.902 428.558,259.645 429.188,238.704 		"/>
		
			<polygon fill="none" stroke="#000000" stroke-width="0.3" stroke-linecap="round" stroke-linejoin="round" stroke-miterlimit="10" points="
			212.574,340.449 203.047,293.187 237.859,282.007 245.217,327.997 		"/>
		
			<polygon fill="none" stroke="#000000" stroke-width="0.3" stroke-linecap="round" stroke-linejoin="round" stroke-miterlimit="10" points="
			269.495,271.972 299.754,262.062 304.176,306.272 275.205,317.197 		"/>
		
			<polyline fill="none" stroke="#000000" stroke-width="0.3" stroke-linecap="round" stroke-linejoin="round" stroke-miterlimit="10" points="
			235.299,282.829 242.176,325.582 211.797,336.59 		"/>
		
			<polyline fill="none" stroke="#000000" stroke-width="0.3" stroke-linecap="round" stroke-linejoin="round" stroke-miterlimit="10" points="
			297.137,262.919 301.002,303.606 274.721,313.37 		"/>
		
			<polyline fill="none" stroke="#000000" stroke-width="0.3" stroke-linecap="round" stroke-linejoin="round" stroke-miterlimit="10" points="
			359.121,282.386 380.276,274.637 379.629,238.338 		"/>
		
			<polyline fill="none" stroke="#000000" stroke-width="0.3" stroke-linecap="round" stroke-linejoin="round" stroke-miterlimit="10" points="
			406.829,264.982 425.251,258.122 425.747,238.813 		"/>
		
			<polyline fill="none" stroke="#000000" stroke-width="0.3" stroke-linecap="round" stroke-linejoin="round" stroke-miterlimit="10" points="
			515.9,303.686 449.525,269.55 209.336,362.54 		"/>
		
			<path fill="none" stroke="#000000" stroke-width="0.3" stroke-linecap="round" stroke-linejoin="round" stroke-miterlimit="10" d="
			M387.035,206.543c53.104,8.314,73.753-7.462,118.211-0.195v-7.316c-44.458-7.267-65.107,8.51-118.211,0.195V206.543z"/>
		
			<line fill="none" stroke="#000000" stroke-width="0.3" stroke-linecap="round" stroke-linejoin="round" stroke-miterlimit="10" x1="413.336" y1="208.979" x2="343.525" y2="230.429"/>
		
			<line fill="none" stroke="#000000" stroke-width="0.3" stroke-linecap="round" stroke-linejoin="round" stroke-miterlimit="10" x1="449.525" y1="269.55" x2="450.395" y2="237.877"/>
		
			<path fill="none" stroke="#000000" stroke-width="0.3" stroke-linecap="round" stroke-linejoin="round" stroke-miterlimit="10" d="
			M554.258,238.855l-0.209,1.655c-53.475-13.127-164.762,9.728-210.508-9.341l-0.016-0.74
			C389.276,249.495,500.778,225.73,554.258,238.855l-81.644-34.244"/>
		
			<line fill="none" stroke="#000000" stroke-width="0.3" stroke-linecap="round" stroke-linejoin="round" stroke-miterlimit="10" x1="132.725" y1="269.521" x2="135.311" y2="272.113"/>
		
			<line fill="none" stroke="#000000" stroke-width="0.3" stroke-linecap="round" stroke-linejoin="round" stroke-miterlimit="10" x1="604.469" y1="236.9" x2="608.629" y2="235.688"/>
	</g>
	<g>
		<path opacity="0.5" fill="#D6B809" d="M554.049,240.51l27.897,10.823C533.133,277.014,440.18,384.964,386.82,413.506v14.374
			l-25.696,13.688l-0.511-8.857l-2.937-1.426c-42.409,28.385-80.74,44.065-80.74,44.065l-0.865-0.378
			c-51.655-54.403-51.864-108.829-114.25-186.191l181.72-57.612C389.287,250.238,500.574,227.383,554.049,240.51"/>
		
			<line fill="none" stroke="#000000" stroke-width="0.3" stroke-linecap="round" stroke-linejoin="round" stroke-miterlimit="10" x1="161.821" y1="288.781" x2="343.541" y2="231.169"/>
		
			<line fill="none" stroke="#000000" stroke-width="0.3" stroke-linecap="round" stroke-linejoin="round" stroke-miterlimit="10" x1="554.049" y1="240.51" x2="582.16" y2="251.239"/>
		
			<line fill="none" stroke="#000000" stroke-width="0.3" stroke-linecap="round" stroke-linejoin="round" stroke-miterlimit="10" x1="161.821" y1="288.781" x2="264.327" y2="391.587"/>
		
			<line fill="none" stroke="#000000" stroke-width="0.3" stroke-linecap="round" stroke-linejoin="round" stroke-miterlimit="10" x1="582.16" y1="251.239" x2="264.327" y2="391.587"/>
		
			<line fill="none" stroke="#000000" stroke-width="0.3" stroke-linecap="round" stroke-linejoin="round" stroke-miterlimit="10" x1="264.327" y1="391.587" x2="276.937" y2="475.35"/>
	</g>
</g>
<g>
	<g>
		
			<polyline fill="none" stroke="#000000" stroke-width="0.3" stroke-linecap="round" stroke-linejoin="round" stroke-miterlimit="10" points="
			1094.273,199.032 1193.494,236.9 1174.065,338.649 1177.689,336.579 1197.656,235.688 1042.51,176.573 721.746,269.521 
			749.451,378.009 751.666,380.903 767.379,375.115 865.963,490.114 1160.152,331.863 1174.065,338.649 		"/>
		
			<polyline fill="none" stroke="#000000" stroke-width="0.3" stroke-linecap="round" stroke-linejoin="round" stroke-miterlimit="10" points="
			751.666,380.903 724.338,272.113 976.057,199.228 		"/>
		
			<line fill="none" stroke="#000000" stroke-width="0.3" stroke-linecap="round" stroke-linejoin="round" stroke-miterlimit="10" x1="747.438" y1="290.066" x2="767.379" y2="375.115"/>
		
			<line fill="none" stroke="#000000" stroke-width="0.3" stroke-linecap="round" stroke-linejoin="round" stroke-miterlimit="10" x1="864.232" y1="478.976" x2="865.963" y2="490.114"/>
		
			<path fill="none" stroke="#000000" stroke-width="0.3" stroke-linecap="round" stroke-linejoin="round" stroke-miterlimit="10" d="
			M747.438,290.066c62.393,77.362,65.135,134.507,116.795,188.91"/>
		
			<line fill="none" stroke="#000000" stroke-width="0.3" stroke-linecap="round" stroke-linejoin="round" stroke-miterlimit="10" x1="747.438" y1="290.066" x2="750.844" y2="288.781"/>
		
			<line fill="none" stroke="#000000" stroke-width="0.3" stroke-linecap="round" stroke-linejoin="round" stroke-miterlimit="10" x1="949.64" y1="432.71" x2="950.364" y2="444.712"/>
		
			<line fill="none" stroke="#000000" stroke-width="0.3" stroke-linecap="round" stroke-linejoin="round" stroke-miterlimit="10" x1="976.057" y1="427.783" x2="950.364" y2="441.471"/>
		
			<path fill="none" stroke="#000000" stroke-width="0.3" stroke-linecap="round" stroke-linejoin="round" stroke-miterlimit="10" d="
			M1174.19,252.225c-48.813,25.679-142.438,134.152-195.804,162.691l-0.021,14.731"/>
		
			<path fill="none" stroke="#000000" stroke-width="0.3" stroke-linecap="round" stroke-linejoin="round" stroke-miterlimit="10" d="
			M1171.187,251.239c-48.812,25.681-141.766,133.631-195.13,162.173v14.371"/>
		
			<line fill="none" stroke="#000000" stroke-width="0.3" stroke-linecap="round" stroke-linejoin="round" stroke-miterlimit="10" x1="976.057" y1="413.412" x2="978.387" y2="414.916"/>
		
			<path fill="none" stroke="#000000" stroke-width="0.3" stroke-linecap="round" stroke-linejoin="round" stroke-miterlimit="10" d="
			M864.232,478.976c42.049-17.486,73.769-37.505,85.407-46.266l-2.936-1.426l0,0c-42.409,28.385-80.741,44.065-80.741,44.065
			l-0.865-0.378c-51.66-54.403-51.863-108.829-114.254-186.191"/>
		
			<polyline fill="none" stroke="#000000" stroke-width="0.3" stroke-linecap="round" stroke-linejoin="round" stroke-miterlimit="10" points="
			1170.885,251.239 1174.19,252.225 1160.152,331.863 		"/>
		
			<polyline fill="none" stroke="#000000" stroke-width="0.3" stroke-linecap="round" stroke-linejoin="round" stroke-miterlimit="10" points="
			971.926,238.558 972.224,276.67 948.148,285.691 946.704,243 962.707,237.825 		"/>
		
			<polyline fill="none" stroke="#000000" stroke-width="0.3" stroke-linecap="round" stroke-linejoin="round" stroke-miterlimit="10" points="
			995.855,239.146 995.855,267.902 1017.578,259.645 1018.216,238.704 		"/>
		
			<polygon fill="none" stroke="#000000" stroke-width="0.3" stroke-linecap="round" stroke-linejoin="round" stroke-miterlimit="10" points="
			801.602,340.449 792.074,293.187 826.885,282.007 834.238,327.997 		"/>
		
			<polygon fill="none" stroke="#000000" stroke-width="0.3" stroke-linecap="round" stroke-linejoin="round" stroke-miterlimit="10" points="
			858.518,271.972 888.781,262.062 893.203,306.272 864.232,317.197 		"/>
		
			<polyline fill="none" stroke="#000000" stroke-width="0.3" stroke-linecap="round" stroke-linejoin="round" stroke-miterlimit="10" points="
			824.32,282.829 831.203,325.582 800.823,336.59 		"/>
		
			<polyline fill="none" stroke="#000000" stroke-width="0.3" stroke-linecap="round" stroke-linejoin="round" stroke-miterlimit="10" points="
			886.163,262.919 890.027,303.606 863.748,313.37 		"/>
		
			<polyline fill="none" stroke="#000000" stroke-width="0.3" stroke-linecap="round" stroke-linejoin="round" stroke-miterlimit="10" points="
			948.148,282.386 969.304,274.637 968.656,238.338 		"/>
		
			<polyline fill="none" stroke="#000000" stroke-width="0.3" stroke-linecap="round" stroke-linejoin="round" stroke-miterlimit="10" points="
			995.855,264.982 1014.278,258.122 1014.773,238.813 		"/>
		
			<polyline fill="none" stroke="#000000" stroke-width="0.3" stroke-linecap="round" stroke-linejoin="round" stroke-miterlimit="10" points="
			1104.927,303.686 1038.551,269.55 798.362,362.54 		"/>
		
			<path fill="none" stroke="#000000" stroke-width="0.3" stroke-linecap="round" stroke-linejoin="round" stroke-miterlimit="10" d="
			M976.057,206.543c53.104,8.314,73.758-7.462,118.217-0.195v-7.316c-44.459-7.267-65.113,8.51-118.217,0.195V206.543z"/>
		
			<line fill="none" stroke="#000000" stroke-width="0.3" stroke-linecap="round" stroke-linejoin="round" stroke-miterlimit="10" x1="1002.363" y1="208.979" x2="932.553" y2="230.429"/>
		
			<line fill="none" stroke="#000000" stroke-width="0.3" stroke-linecap="round" stroke-linejoin="round" stroke-miterlimit="10" x1="1038.551" y1="269.55" x2="1039.422" y2="237.877"/>
		
			<path fill="none" stroke="#000000" stroke-width="0.3" stroke-linecap="round" stroke-linejoin="round" stroke-miterlimit="10" d="
			M1143.284,238.855l-0.208,1.655c-53.476-13.127-164.762,9.728-210.514-9.341l-0.01-0.74
			C978.299,249.495,1089.805,225.73,1143.284,238.855l-81.648-34.244"/>
		
			<line fill="none" stroke="#000000" stroke-width="0.3" stroke-linecap="round" stroke-linejoin="round" stroke-miterlimit="10" x1="721.746" y1="269.521" x2="724.338" y2="272.113"/>
		
			<line fill="none" stroke="#000000" stroke-width="0.3" stroke-linecap="round" stroke-linejoin="round" stroke-miterlimit="10" x1="1193.494" y1="236.9" x2="1197.656" y2="235.688"/>
	</g>
</g>
<g>
	<path d="M270.941,544.136l-4.378-11.427h-17.354l-4.432,11.427h-2.136l15.218-39.353l15.271,39.353H270.941z M257.859,510.336
		l-7.796,20.184h15.592L257.859,510.336z"/>
	<path d="M288.722,525.34c-0.57-0.427-1.175-0.765-1.815-1.015c-0.641-0.249-1.317-0.374-2.029-0.374
		c-0.605,0-1.175,0.187-1.708,0.561c-0.534,0.374-0.997,0.837-1.388,1.388c-0.393,0.552-0.704,1.167-0.935,1.842
		c-0.232,0.677-0.347,1.3-0.347,1.869v14.524h-2.189v-22.053h2.189v2.99c0.462-0.818,1.068-1.566,1.815-2.243
		c0.748-0.676,1.566-1.015,2.456-1.015c1.103,0,2.011,0.125,2.724,0.374c0.711,0.25,1.512,0.694,2.403,1.335L288.722,525.34z"/>
	<path d="M303.727,544.563c-3.276,0-5.999-1.085-8.17-3.257c-2.171-2.171-3.257-4.894-3.257-8.169c0-3.275,1.085-5.998,3.257-8.17
		c2.171-2.171,4.894-3.257,8.17-3.257c2.812,0,5.054,0.641,6.728,1.922v2.616l-1.389-0.908l-1.495-0.801
		c-1.353-0.462-2.635-0.694-3.844-0.694c-2.742,0-4.966,0.854-6.675,2.563c-1.745,1.745-2.616,3.987-2.616,6.728
		c0,2.706,0.872,4.931,2.616,6.674c1.744,1.744,3.969,2.617,6.675,2.617c2.563,0,4.806-0.855,6.728-2.563v2.724
		C308.461,543.904,306.218,544.563,303.727,544.563z"/>
	<path d="M331.013,544.189v-13.296c0-4.663-2.172-6.995-6.514-6.995c-1.781,0-3.311,0.534-4.592,1.602
		c-1.317,1.068-1.976,2.492-1.976,4.271v14.364h-2.189v-39.513h2.189v20.397c1.316-2.171,3.506-3.257,6.568-3.257
		c5.802,0,8.704,2.973,8.704,8.917v13.51H331.013z"/>
	<path d="M338.167,518.132c-0.392,0-0.801-0.16-1.228-0.48c-0.32-0.32-0.499-0.748-0.534-1.282c0-0.961,0.587-1.548,1.762-1.762
		c0.89,0,1.477,0.587,1.762,1.762C339.929,517.544,339.342,518.132,338.167,518.132z M337.046,544.136v-22.053h2.189v22.053H337.046
		z"/>
	<path d="M349.807,524.272v19.863h-2.189v-19.863h-2.99v-2.189h2.99v-9.665h2.189v9.665h5.126v2.189H349.807z"/>
	<path d="M360.272,532.656c0,2.99,0.801,5.358,2.403,7.102c1.673,1.78,3.969,2.67,6.888,2.67c1.495,0,2.848-0.25,4.058-0.748
		c1.53-0.641,2.901-1.94,4.112-3.898l1.976,0.908c-1.389,2.635-3.524,4.414-6.408,5.34c-1.104,0.355-2.35,0.533-3.738,0.533
		c-3.311,0-6.034-1.085-8.169-3.257c-2.172-2.171-3.257-4.894-3.257-8.169c0-3.311,1.068-6.034,3.204-8.17
		c2.171-2.171,4.913-3.257,8.223-3.257c3.275,0,5.98,1.014,8.116,3.043c2.171,2.029,3.257,4.664,3.257,7.903H360.272z
		 M375.331,525.661c-1.674-1.21-3.596-1.815-5.767-1.815c-4.557,0-7.547,2.243-8.971,6.728h17.888
		C378.125,528.544,377.074,526.907,375.331,525.661z"/>
	<path d="M396.421,544.563c-3.276,0-5.999-1.085-8.17-3.257c-2.171-2.171-3.257-4.894-3.257-8.169c0-3.275,1.085-5.998,3.257-8.17
		c2.171-2.171,4.894-3.257,8.17-3.257c2.812,0,5.054,0.641,6.728,1.922v2.616l-1.389-0.908l-1.495-0.801
		c-1.353-0.462-2.635-0.694-3.844-0.694c-2.742,0-4.966,0.854-6.675,2.563c-1.745,1.745-2.616,3.987-2.616,6.728
		c0,2.706,0.872,4.931,2.616,6.674c1.744,1.744,3.969,2.617,6.675,2.617c2.563,0,4.806-0.855,6.728-2.563v2.724
		C401.155,543.904,398.913,544.563,396.421,544.563z"/>
	<path d="M412.707,524.272v19.863h-2.189v-19.863h-2.99v-2.189h2.99v-9.665h2.189v9.665h5.126v2.189H412.707z"/>
	<path d="M436.789,542.213c-1.46,1.567-3.507,2.35-6.141,2.35c-2.599,0-4.61-0.765-6.034-2.295
		c-1.424-1.531-2.136-3.667-2.136-6.408v-13.776h2.189v13.776c0,2.101,0.462,3.72,1.388,4.859c0.961,1.139,2.492,1.709,4.592,1.709
		c4.093,0,6.141-2.19,6.141-6.568v-13.776h2.136v13.776C438.924,538.565,438.212,540.683,436.789,542.213z"/>
	<path d="M456.064,525.34c-0.57-0.427-1.175-0.765-1.815-1.015c-0.641-0.249-1.317-0.374-2.029-0.374
		c-0.605,0-1.175,0.187-1.708,0.561c-0.534,0.374-0.997,0.837-1.388,1.388c-0.393,0.552-0.704,1.167-0.935,1.842
		c-0.232,0.677-0.347,1.3-0.347,1.869v14.524h-2.189v-22.053h2.189v2.99c0.462-0.818,1.068-1.566,1.815-2.243
		c0.748-0.676,1.566-1.015,2.456-1.015c1.103,0,2.011,0.125,2.724,0.374c0.711,0.25,1.512,0.694,2.403,1.335L456.064,525.34z"/>
	<path d="M459.481,532.656c0,2.99,0.801,5.358,2.403,7.102c1.673,1.78,3.969,2.67,6.888,2.67c1.495,0,2.848-0.25,4.058-0.748
		c1.53-0.641,2.901-1.94,4.112-3.898l1.976,0.908c-1.389,2.635-3.524,4.414-6.408,5.34c-1.104,0.355-2.35,0.533-3.738,0.533
		c-3.311,0-6.034-1.085-8.169-3.257c-2.172-2.171-3.257-4.894-3.257-8.169c0-3.311,1.068-6.034,3.204-8.17
		c2.171-2.171,4.913-3.257,8.223-3.257c3.275,0,5.98,1.014,8.116,3.043c2.171,2.029,3.257,4.664,3.257,7.903H459.481z
		 M474.54,525.661c-1.674-1.21-3.596-1.815-5.767-1.815c-4.557,0-7.547,2.243-8.971,6.728h17.888
		C477.333,528.544,476.283,526.907,474.54,525.661z"/>
</g>
<g>
	<path d="M923.85,524.272v19.863h-2.136v-38.125h16.554v2.189H923.85v13.883h14.418v2.189H923.85z"/>
	<path d="M943.82,518.132c-0.393,0-0.801-0.16-1.229-0.48c-0.32-0.32-0.499-0.748-0.534-1.282c0-0.961,0.588-1.548,1.763-1.762
		c0.889,0,1.477,0.587,1.762,1.762C945.582,517.544,944.995,518.132,943.82,518.132z M942.698,544.136v-22.053h2.189v22.053H942.698
		z"/>
	<path d="M960,525.34c-0.57-0.427-1.175-0.765-1.815-1.015c-0.641-0.249-1.317-0.374-2.029-0.374c-0.605,0-1.175,0.187-1.709,0.561
		c-0.533,0.374-0.997,0.837-1.388,1.388c-0.393,0.552-0.703,1.167-0.935,1.842c-0.232,0.677-0.347,1.3-0.347,1.869v14.524h-2.189
		v-22.053h2.189v2.99c0.462-0.818,1.067-1.566,1.815-2.243c0.747-0.676,1.565-1.015,2.456-1.015c1.103,0,2.011,0.125,2.723,0.374
		c0.712,0.25,1.513,0.694,2.403,1.335L960,525.34z"/>
	<path d="M963.417,532.656c0,2.99,0.801,5.358,2.403,7.102c1.673,1.78,3.969,2.67,6.888,2.67c1.495,0,2.848-0.25,4.059-0.748
		c1.529-0.641,2.9-1.94,4.111-3.898l1.976,0.908c-1.389,2.635-3.524,4.414-6.407,5.34c-1.104,0.355-2.35,0.533-3.738,0.533
		c-3.311,0-6.034-1.085-8.17-3.257c-2.171-2.171-3.257-4.894-3.257-8.169c0-3.311,1.068-6.034,3.204-8.17
		c2.171-2.171,4.912-3.257,8.223-3.257c3.274,0,5.98,1.014,8.116,3.043c2.171,2.029,3.257,4.664,3.257,7.903H963.417z
		 M978.475,525.661c-1.674-1.21-3.596-1.815-5.767-1.815c-4.557,0-7.547,2.243-8.971,6.728h17.888
		C981.269,528.544,980.219,526.907,978.475,525.661z"/>
</g>
<g>
	<path d="M1468.536,508.2v35.936h-2.188V508.2h-8.438v-2.189h19.063v2.189H1468.536z"/>
	<path d="M1495.396,544.189v-13.296c0-4.663-2.172-6.995-6.515-6.995c-1.78,0-3.311,0.534-4.592,1.602
		c-1.317,1.068-1.976,2.492-1.976,4.271v14.364h-2.189v-39.513h2.189v20.397c1.316-2.171,3.506-3.257,6.567-3.257
		c5.802,0,8.704,2.973,8.704,8.917v13.51H1495.396z"/>
	<path d="M1504.472,532.656c0,2.99,0.801,5.358,2.403,7.102c1.673,1.78,3.969,2.67,6.888,2.67c1.495,0,2.848-0.25,4.059-0.748
		c1.529-0.641,2.9-1.94,4.111-3.898l1.976,0.908c-1.389,2.635-3.524,4.414-6.407,5.34c-1.104,0.355-2.35,0.533-3.738,0.533
		c-3.311,0-6.034-1.085-8.17-3.257c-2.171-2.171-3.257-4.894-3.257-8.169c0-3.311,1.068-6.034,3.204-8.17
		c2.171-2.171,4.912-3.257,8.223-3.257c3.274,0,5.98,1.014,8.116,3.043c2.171,2.029,3.257,4.664,3.257,7.903H1504.472z
		 M1519.529,525.661c-1.674-1.21-3.596-1.815-5.767-1.815c-4.557,0-7.547,2.243-8.971,6.728h17.888
		C1522.323,528.544,1521.273,526.907,1519.529,525.661z"/>
	<path d="M1540.621,525.34c-0.57-0.427-1.175-0.765-1.815-1.015c-0.641-0.249-1.317-0.374-2.029-0.374
		c-0.605,0-1.175,0.187-1.709,0.561c-0.533,0.374-0.997,0.837-1.388,1.388c-0.393,0.552-0.703,1.167-0.935,1.842
		c-0.232,0.677-0.347,1.3-0.347,1.869v14.524h-2.189v-22.053h2.189v2.99c0.462-0.818,1.067-1.566,1.815-2.243
		c0.747-0.676,1.565-1.015,2.456-1.015c1.103,0,2.011,0.125,2.723,0.374c0.712,0.25,1.513,0.694,2.403,1.335L1540.621,525.34z"/>
	<path d="M1571.857,544.136v-15.218c0-1.353-0.445-2.527-1.335-3.524c-0.89-0.996-2.172-1.495-3.844-1.495
		c-3.454,0-5.18,1.674-5.18,5.02v15.218h-2.189v-15.218c0-1.495-0.499-2.688-1.495-3.578c-1.033-0.961-2.261-1.442-3.685-1.442
		c-1.46,0-2.688,0.463-3.685,1.389c-0.996,0.89-1.494,2.101-1.494,3.631v15.218h-2.189v-22.053h2.189v2.189
		c1.067-1.673,2.794-2.51,5.179-2.51c2.848,0,4.947,1.157,6.301,3.471c1.281-2.313,3.364-3.471,6.248-3.471
		c2.206,0,3.986,0.623,5.339,1.869c1.353,1.281,2.029,3.043,2.029,5.286v15.218H1571.857z"/>
	<path d="M1599.623,544.136v-3.791c-2.314,2.776-5.251,4.165-8.811,4.165c-3.204,0-5.892-1.086-8.063-3.258
		c-2.208-2.207-3.311-4.912-3.311-8.116c0-3.204,1.085-5.891,3.257-8.063c2.207-2.207,4.912-3.311,8.116-3.311
		c3.524,0,6.461,1.388,8.811,4.165v-3.845h2.189v22.053H1599.623z M1597.327,526.622c-1.815-1.815-3.987-2.723-6.515-2.723
		c-2.563,0-4.734,0.89-6.515,2.67c-1.815,1.815-2.723,4.005-2.723,6.568c0,2.528,0.907,4.699,2.723,6.514s3.986,2.723,6.515,2.723
		c2.563,0,4.734-0.889,6.515-2.669c1.815-1.816,2.723-4.005,2.723-6.568C1600.05,530.609,1599.143,528.438,1597.327,526.622z"/>
	<path d="M1608.913,544.136v-39.513h2.136v39.513H1608.913z"/>
</g>
<g>
	<g>
		
			<polyline fill="none" stroke="#000000" stroke-width="0.3" stroke-linecap="round" stroke-linejoin="round" stroke-miterlimit="10" points="
			809.354,613.668 908.576,651.536 889.146,753.285 892.771,751.216 912.736,650.324 757.59,591.21 436.827,684.157 
			464.532,792.645 466.748,795.539 482.459,789.751 581.044,904.752 875.234,746.5 889.146,753.285 		"/>
		
			<polyline fill="none" stroke="#000000" stroke-width="0.3" stroke-linecap="round" stroke-linejoin="round" stroke-miterlimit="10" points="
			466.748,795.539 439.419,686.749 691.137,613.864 		"/>
		
			<line fill="none" stroke="#000000" stroke-width="0.3" stroke-linecap="round" stroke-linejoin="round" stroke-miterlimit="10" x1="462.519" y1="704.703" x2="482.459" y2="789.751"/>
		
			<line fill="none" stroke="#000000" stroke-width="0.3" stroke-linecap="round" stroke-linejoin="round" stroke-miterlimit="10" x1="579.313" y1="893.612" x2="581.044" y2="904.752"/>
		
			<path fill="none" stroke="#000000" stroke-width="0.3" stroke-linecap="round" stroke-linejoin="round" stroke-miterlimit="10" d="
			M462.519,704.703c62.392,77.361,65.134,134.507,116.794,188.909"/>
		
			<line fill="none" stroke="#000000" stroke-width="0.3" stroke-linecap="round" stroke-linejoin="round" stroke-miterlimit="10" x1="462.519" y1="704.703" x2="465.924" y2="703.417"/>
		
			<line fill="none" stroke="#000000" stroke-width="0.3" stroke-linecap="round" stroke-linejoin="round" stroke-miterlimit="10" x1="664.721" y1="847.348" x2="665.445" y2="859.349"/>
		
			<line fill="none" stroke="#000000" stroke-width="0.3" stroke-linecap="round" stroke-linejoin="round" stroke-miterlimit="10" x1="691.137" y1="842.42" x2="665.445" y2="856.107"/>
		
			<path fill="none" stroke="#000000" stroke-width="0.3" stroke-linecap="round" stroke-linejoin="round" stroke-miterlimit="10" d="
			M889.272,666.861c-48.813,25.679-142.439,134.152-195.804,162.692l-0.021,14.73"/>
		
			<path fill="none" stroke="#000000" stroke-width="0.3" stroke-linecap="round" stroke-linejoin="round" stroke-miterlimit="10" d="
			M886.268,665.875c-48.813,25.682-141.766,133.632-195.131,162.174v14.371"/>
		
			<line fill="none" stroke="#000000" stroke-width="0.3" stroke-linecap="round" stroke-linejoin="round" stroke-miterlimit="10" x1="691.137" y1="828.049" x2="693.469" y2="829.554"/>
		
			<path fill="none" stroke="#000000" stroke-width="0.3" stroke-linecap="round" stroke-linejoin="round" stroke-miterlimit="10" d="
			M579.313,893.612c42.05-17.486,73.77-37.505,85.408-46.265l-2.936-1.427l0,0c-42.41,28.385-80.741,44.065-80.741,44.065
			l-0.865-0.378c-51.659-54.402-51.863-108.829-114.255-186.191"/>
		
			<polyline fill="none" stroke="#000000" stroke-width="0.3" stroke-linecap="round" stroke-linejoin="round" stroke-miterlimit="10" points="
			885.966,665.875 889.272,666.861 875.234,746.5 		"/>
		
			<polyline fill="none" stroke="#000000" stroke-width="0.3" stroke-linecap="round" stroke-linejoin="round" stroke-miterlimit="10" points="
			687.008,653.194 687.305,691.307 663.23,700.328 661.785,657.637 677.789,652.462 		"/>
		
			<polyline fill="none" stroke="#000000" stroke-width="0.3" stroke-linecap="round" stroke-linejoin="round" stroke-miterlimit="10" points="
			710.938,653.783 710.938,682.538 732.66,674.281 733.296,653.341 		"/>
		
			<polygon fill="none" stroke="#000000" stroke-width="0.3" stroke-linecap="round" stroke-linejoin="round" stroke-miterlimit="10" points="
			516.682,755.085 507.154,707.824 541.967,696.644 549.32,742.633 		"/>
		
			<polygon fill="none" stroke="#000000" stroke-width="0.3" stroke-linecap="round" stroke-linejoin="round" stroke-miterlimit="10" points="
			573.598,686.608 603.863,676.698 608.285,720.909 579.313,731.834 		"/>
		
			<polyline fill="none" stroke="#000000" stroke-width="0.3" stroke-linecap="round" stroke-linejoin="round" stroke-miterlimit="10" points="
			539.402,697.465 546.285,740.219 515.904,751.226 		"/>
		
			<polyline fill="none" stroke="#000000" stroke-width="0.3" stroke-linecap="round" stroke-linejoin="round" stroke-miterlimit="10" points="
			601.245,677.557 605.109,718.242 578.828,728.007 		"/>
		
			<polyline fill="none" stroke="#000000" stroke-width="0.3" stroke-linecap="round" stroke-linejoin="round" stroke-miterlimit="10" points="
			663.23,697.021 684.385,689.272 683.738,652.976 		"/>
		
			<polyline fill="none" stroke="#000000" stroke-width="0.3" stroke-linecap="round" stroke-linejoin="round" stroke-miterlimit="10" points="
			710.938,679.618 729.359,672.758 729.854,653.449 		"/>
		
			<polyline fill="none" stroke="#000000" stroke-width="0.3" stroke-linecap="round" stroke-linejoin="round" stroke-miterlimit="10" points="
			820.008,718.322 753.633,684.187 513.443,777.177 		"/>
		
			<path fill="none" stroke="#000000" stroke-width="0.3" stroke-linecap="round" stroke-linejoin="round" stroke-miterlimit="10" d="
			M691.137,621.18c53.105,8.314,73.76-7.462,118.217-0.195v-7.316c-44.457-7.266-65.111,8.511-118.217,0.196V621.18z"/>
		
			<line fill="none" stroke="#000000" stroke-width="0.3" stroke-linecap="round" stroke-linejoin="round" stroke-miterlimit="10" x1="717.444" y1="623.615" x2="647.633" y2="645.064"/>
		
			<line fill="none" stroke="#000000" stroke-width="0.3" stroke-linecap="round" stroke-linejoin="round" stroke-miterlimit="10" x1="753.633" y1="684.187" x2="754.504" y2="652.514"/>
		
			<path fill="none" stroke="#000000" stroke-width="0.3" stroke-linecap="round" stroke-linejoin="round" stroke-miterlimit="10" d="
			M858.365,653.492l-0.209,1.655c-53.475-13.128-164.762,9.728-210.513-9.342l-0.011-0.741
			C693.381,664.132,804.886,640.367,858.365,653.492l-81.648-34.244"/>
		
			<line fill="none" stroke="#000000" stroke-width="0.3" stroke-linecap="round" stroke-linejoin="round" stroke-miterlimit="10" x1="436.827" y1="684.157" x2="439.419" y2="686.749"/>
		
			<line fill="none" stroke="#000000" stroke-width="0.3" stroke-linecap="round" stroke-linejoin="round" stroke-miterlimit="10" x1="908.576" y1="651.536" x2="912.736" y2="650.324"/>
	</g>
	<g>
		<path opacity="0.5" fill="#F39200" d="M858.156,655.147l27.898,10.823c-48.813,25.681-141.767,133.63-195.131,162.171v14.375
			l-25.691,13.688l-0.512-8.856l-2.94-1.427c-42.405,28.385-80.736,44.065-80.736,44.065l-0.865-0.378
			c-51.659-54.402-51.863-108.829-114.249-186.191l181.719-57.611C693.395,664.875,804.682,642.02,858.156,655.147"/>
		
			<line fill="none" stroke="#000000" stroke-width="0.3" stroke-linecap="round" stroke-linejoin="round" stroke-miterlimit="10" x1="465.93" y1="703.417" x2="647.644" y2="645.806"/>
		
			<line fill="none" stroke="#000000" stroke-width="0.3" stroke-linecap="round" stroke-linejoin="round" stroke-miterlimit="10" x1="465.93" y1="703.417" x2="568.436" y2="806.225"/>
		
			<line fill="none" stroke="#000000" stroke-width="0.3" stroke-linecap="round" stroke-linejoin="round" stroke-miterlimit="10" x1="886.268" y1="665.875" x2="568.436" y2="806.225"/>
		
			<line fill="none" stroke="#000000" stroke-width="0.3" stroke-linecap="round" stroke-linejoin="round" stroke-miterlimit="10" x1="568.436" y1="806.225" x2="581.044" y2="889.986"/>
		<path fill="none" stroke="#000000" stroke-width="0.3" stroke-miterlimit="10" d="M647.648,645.806
			c45.746,19.069,157.033-3.786,210.508,9.342l28.111,10.728"/>
	</g>
	<g>
		<path opacity="0.5" fill="#AD6416" d="M466.169,702.912l102.517,102.197l317.933-140.915l2.121-12.653l-79.14-30.322
			c-44.459-7.266-65.113,8.511-118.217,0.195l-227.831,67.894L466.169,702.912z"/>
		
			<polyline fill="none" stroke="#000000" stroke-width="0.3" stroke-linecap="round" stroke-linejoin="round" stroke-miterlimit="10" points="
			809.354,620.984 888.494,651.307 886.372,663.96 		"/>
		
			<polyline fill="none" stroke="#000000" stroke-width="0.3" stroke-linecap="round" stroke-linejoin="round" stroke-miterlimit="10" points="
			465.924,702.678 463.307,689.072 691.137,621.18 		"/>
		
			<path fill="none" stroke="#000000" stroke-width="0.3" stroke-linecap="round" stroke-linejoin="round" stroke-miterlimit="10" d="
			M647.878,644.989"/>
		
			<path fill="none" stroke="#000000" stroke-width="0.3" stroke-linecap="round" stroke-linejoin="round" stroke-miterlimit="10" d="
			M465.924,702.678"/>
		
			<line fill="none" stroke="#000000" stroke-width="0.3" stroke-linecap="round" stroke-linejoin="round" stroke-miterlimit="10" x1="568.436" y1="804.875" x2="565.698" y2="787.472"/>
		
			<polyline fill="none" stroke="#000000" stroke-width="0.3" stroke-linecap="round" stroke-linejoin="round" stroke-miterlimit="10" points="
			888.494,651.307 565.698,787.472 463.307,689.072 		"/>
		
			<polyline fill="none" stroke="#000000" stroke-width="0.3" stroke-linecap="round" stroke-linejoin="round" stroke-miterlimit="10" points="
			886.372,663.96 568.436,804.875 465.924,702.678 		"/>
	</g>
</g>
<g>
	<path d="M591.144,958.452c-1.388,0.498-3.026,0.747-4.913,0.747c-5.838,0-9.594-2.758-11.267-8.276l2.189-0.747
		c1.246,4.557,4.271,6.835,9.077,6.835c2.741,0,4.894-0.676,6.461-2.029c1.602-1.389,2.403-3.417,2.403-6.087
		c0-2.527-0.943-4.628-2.83-6.301c-0.499-0.463-1.264-0.979-2.296-1.549c-1.033-0.569-2.35-1.21-3.951-1.922
		c-3.026-1.353-5.091-2.527-6.194-3.524c-1.852-1.602-2.777-3.72-2.777-6.354c0-2.634,0.943-4.752,2.83-6.354
		c1.851-1.638,4.129-2.457,6.834-2.457c4.485,0,7.653,1.674,9.505,5.02l-2.083,0.908c-0.712-1.175-1.567-2.047-2.563-2.617
		c-1.247-0.782-2.866-1.174-4.859-1.174c-2.101,0-3.844,0.587-5.232,1.762c-1.495,1.246-2.243,2.883-2.243,4.912
		c0,1.815,0.782,3.4,2.349,4.753c0.89,0.712,2.67,1.673,5.34,2.883c1.673,0.748,3.114,1.487,4.325,2.216
		c1.209,0.73,2.189,1.469,2.937,2.216c2.064,2.029,3.097,4.558,3.097,7.583C597.285,953.735,595.237,956.922,591.144,958.452z"/>
	<path d="M622.22,955.836c-2.208,2.207-4.913,3.311-8.116,3.311c-3.667,0-6.693-1.495-9.078-4.485v14.47h-2.189V936.72h2.189v4.165
		c2.278-2.99,5.304-4.485,9.078-4.485c3.204,0,5.891,1.086,8.063,3.257c2.207,2.208,3.311,4.913,3.311,8.116
		C625.477,950.977,624.391,953.665,622.22,955.836z M620.618,941.259c-1.815-1.815-3.987-2.724-6.514-2.724
		c-2.563,0-4.735,0.891-6.515,2.67c-1.815,1.815-2.723,4.005-2.723,6.567c0,2.528,0.908,4.699,2.723,6.515s3.986,2.724,6.515,2.724
		c2.563,0,4.734-0.89,6.514-2.67c1.815-1.815,2.723-4.005,2.723-6.568C623.341,945.246,622.433,943.074,620.618,941.259z"/>
	<path d="M640.748,939.977c-0.57-0.427-1.175-0.765-1.815-1.014c-0.641-0.249-1.317-0.374-2.029-0.374
		c-0.605,0-1.175,0.187-1.708,0.561c-0.534,0.374-0.997,0.837-1.388,1.389c-0.393,0.552-0.704,1.166-0.935,1.842
		c-0.232,0.677-0.347,1.3-0.347,1.869v14.523h-2.189V936.72h2.189v2.99c0.462-0.818,1.068-1.566,1.815-2.242
		s1.566-1.015,2.456-1.015c1.103,0,2.011,0.125,2.724,0.373c0.711,0.25,1.512,0.694,2.403,1.335L640.748,939.977z"/>
	<path d="M648.383,932.769c-0.392,0-0.801-0.16-1.228-0.48c-0.32-0.32-0.499-0.748-0.534-1.281c0-0.962,0.587-1.549,1.762-1.763
		c0.89,0,1.477,0.588,1.762,1.763C650.145,932.182,649.558,932.769,648.383,932.769z M647.262,958.772V936.72h2.189v22.053H647.262z
		"/>
	<path d="M668.994,958.772v-13.188c0-4.663-2.101-6.995-6.301-6.995c-2.065,0-3.631,0.605-4.699,1.815
		c-1.104,1.211-1.655,2.866-1.655,4.966v13.402h-2.189V936.72h2.189v2.67c0.996-1.957,3.115-2.937,6.354-2.937
		c2.741,0,4.841,0.783,6.301,2.35c1.459,1.566,2.189,3.756,2.189,6.567v13.402H668.994z"/>
	<path d="M690.779,958.772l-11.533-11.48l-1.229,1.229v10.252h-2.189v-39.514h2.189v26.111l9.558-9.505h3.097l-9.985,9.932
		l12.976,12.976H690.779z"/>
	<path d="M698.628,958.772v-39.514h2.136v39.514H698.628z"/>
	<path d="M707.064,932.769c-0.392,0-0.801-0.16-1.228-0.48c-0.32-0.32-0.499-0.748-0.534-1.281c0-0.962,0.587-1.549,1.762-1.763
		c0.89,0,1.477,0.588,1.762,1.763C708.827,932.182,708.239,932.769,707.064,932.769z M705.943,958.772V936.72h2.189v22.053H705.943z
		"/>
	<path d="M727.675,958.772v-13.188c0-4.663-2.101-6.995-6.301-6.995c-2.065,0-3.631,0.605-4.699,1.815
		c-1.104,1.211-1.655,2.866-1.655,4.966v13.402h-2.189V936.72h2.189v2.67c0.996-1.957,3.115-2.937,6.354-2.937
		c2.741,0,4.841,0.783,6.301,2.35c1.459,1.566,2.189,3.756,2.189,6.567v13.402H727.675z"/>
	<path d="M754.64,966.142c-1.994,1.993-4.61,2.989-7.849,2.989c-6.016,0-9.611-2.367-10.786-7.102h2.189
		c0.391,1.744,1.513,3.044,3.364,3.898c1.459,0.676,3.204,1.015,5.233,1.015c2.741,0,4.859-0.767,6.354-2.296
		c1.53-1.531,2.296-3.667,2.296-6.408v-3.257c-2.314,2.776-5.251,4.165-8.811,4.165c-3.204,0-5.892-1.086-8.063-3.258
		c-2.208-2.206-3.311-4.912-3.311-8.116c0-3.203,1.085-5.891,3.257-8.063c2.207-2.207,4.913-3.311,8.116-3.311
		c3.524,0,6.461,1.389,8.811,4.165v-3.845h2.189v21.572C757.63,961.53,756.633,964.147,754.64,966.142z M753.145,941.259
		c-1.816-1.815-3.987-2.724-6.515-2.724c-2.563,0-4.735,0.891-6.514,2.67c-1.815,1.815-2.723,4.005-2.723,6.567
		c0,2.528,0.908,4.699,2.723,6.515s3.986,2.724,6.514,2.724c2.563,0,4.734-0.89,6.515-2.67c1.815-1.815,2.723-4.005,2.723-6.568
		C755.868,945.246,754.96,943.074,753.145,941.259z"/>
</g>
<g>
	
		<polyline fill="none" stroke="#000000" stroke-width="0.3" stroke-linecap="round" stroke-linejoin="round" stroke-miterlimit="10" points="
		1398.396,613.668 1497.617,651.536 1478.189,753.285 1481.813,751.216 1501.779,650.324 1346.633,591.21 1025.87,684.157 
		1053.574,792.645 1055.791,795.539 1071.502,789.751 1170.087,904.752 1464.276,746.5 1478.189,753.285 	"/>
	
		<polyline fill="none" stroke="#000000" stroke-width="0.3" stroke-linecap="round" stroke-linejoin="round" stroke-miterlimit="10" points="
		1055.791,795.539 1028.461,686.749 1280.18,613.864 	"/>
	
		<line fill="none" stroke="#000000" stroke-width="0.3" stroke-linecap="round" stroke-linejoin="round" stroke-miterlimit="10" x1="1051.562" y1="704.703" x2="1071.502" y2="789.751"/>
	
		<line fill="none" stroke="#000000" stroke-width="0.3" stroke-linecap="round" stroke-linejoin="round" stroke-miterlimit="10" x1="1168.355" y1="893.612" x2="1170.087" y2="904.752"/>
	<path fill="none" stroke="#000000" stroke-width="0.3" stroke-linecap="round" stroke-linejoin="round" stroke-miterlimit="10" d="
		M1051.562,704.703c62.392,77.361,65.134,134.507,116.794,188.909"/>
	
		<line fill="none" stroke="#000000" stroke-width="0.3" stroke-linecap="round" stroke-linejoin="round" stroke-miterlimit="10" x1="1051.562" y1="704.703" x2="1054.967" y2="703.417"/>
	
		<line fill="none" stroke="#000000" stroke-width="0.3" stroke-linecap="round" stroke-linejoin="round" stroke-miterlimit="10" x1="1253.764" y1="847.348" x2="1254.488" y2="859.349"/>
	
		<line fill="none" stroke="#000000" stroke-width="0.3" stroke-linecap="round" stroke-linejoin="round" stroke-miterlimit="10" x1="1280.18" y1="842.42" x2="1254.488" y2="856.107"/>
	<path fill="none" stroke="#000000" stroke-width="0.3" stroke-linecap="round" stroke-linejoin="round" stroke-miterlimit="10" d="
		M1478.313,666.861c-48.812,25.679-142.438,134.152-195.802,162.692l-0.022,14.73"/>
	<path fill="none" stroke="#000000" stroke-width="0.3" stroke-linecap="round" stroke-linejoin="round" stroke-miterlimit="10" d="
		M1475.311,665.875c-48.813,25.682-141.766,133.632-195.131,162.174v14.371"/>
	
		<line fill="none" stroke="#000000" stroke-width="0.3" stroke-linecap="round" stroke-linejoin="round" stroke-miterlimit="10" x1="1280.18" y1="828.049" x2="1282.512" y2="829.554"/>
	<path fill="none" stroke="#000000" stroke-width="0.3" stroke-linecap="round" stroke-linejoin="round" stroke-miterlimit="10" d="
		M1168.355,893.612c42.05-17.486,73.769-37.505,85.408-46.265l-2.936-1.427l0,0c-42.41,28.385-80.741,44.065-80.741,44.065
		l-0.866-0.378c-51.659-54.402-51.862-108.829-114.254-186.191"/>
	
		<polyline fill="none" stroke="#000000" stroke-width="0.3" stroke-linecap="round" stroke-linejoin="round" stroke-miterlimit="10" points="
		1475.008,665.875 1478.313,666.861 1464.276,746.5 	"/>
	
		<polyline fill="none" stroke="#000000" stroke-width="0.3" stroke-linecap="round" stroke-linejoin="round" stroke-miterlimit="10" points="
		1276.051,653.194 1276.347,691.307 1252.272,700.328 1250.828,657.637 1266.831,652.462 	"/>
	
		<polyline fill="none" stroke="#000000" stroke-width="0.3" stroke-linecap="round" stroke-linejoin="round" stroke-miterlimit="10" points="
		1299.979,653.783 1299.979,682.538 1321.703,674.281 1322.339,653.341 	"/>
	
		<polygon fill="none" stroke="#000000" stroke-width="0.3" stroke-linecap="round" stroke-linejoin="round" stroke-miterlimit="10" points="
		1105.725,755.085 1096.197,707.824 1131.01,696.644 1138.362,742.633 	"/>
	
		<polygon fill="none" stroke="#000000" stroke-width="0.3" stroke-linecap="round" stroke-linejoin="round" stroke-miterlimit="10" points="
		1162.641,686.608 1192.906,676.698 1197.328,720.909 1168.355,731.834 	"/>
	
		<polyline fill="none" stroke="#000000" stroke-width="0.3" stroke-linecap="round" stroke-linejoin="round" stroke-miterlimit="10" points="
		1128.444,697.465 1135.327,740.219 1104.947,751.226 	"/>
	
		<polyline fill="none" stroke="#000000" stroke-width="0.3" stroke-linecap="round" stroke-linejoin="round" stroke-miterlimit="10" points="
		1190.287,677.557 1194.151,718.242 1167.871,728.007 	"/>
	
		<polyline fill="none" stroke="#000000" stroke-width="0.3" stroke-linecap="round" stroke-linejoin="round" stroke-miterlimit="10" points="
		1252.272,697.021 1273.427,689.272 1272.781,652.976 	"/>
	
		<polyline fill="none" stroke="#000000" stroke-width="0.3" stroke-linecap="round" stroke-linejoin="round" stroke-miterlimit="10" points="
		1299.979,679.618 1318.402,672.758 1318.897,653.449 	"/>
	
		<polyline fill="none" stroke="#000000" stroke-width="0.3" stroke-linecap="round" stroke-linejoin="round" stroke-miterlimit="10" points="
		1409.05,718.322 1342.675,684.187 1102.486,777.177 	"/>
	<path fill="none" stroke="#000000" stroke-width="0.3" stroke-linecap="round" stroke-linejoin="round" stroke-miterlimit="10" d="
		M1280.18,621.18c53.104,8.314,73.759-7.462,118.217-0.195v-7.316c-44.458-7.266-65.112,8.511-118.217,0.196V621.18z"/>
	
		<line fill="none" stroke="#000000" stroke-width="0.3" stroke-linecap="round" stroke-linejoin="round" stroke-miterlimit="10" x1="1306.486" y1="623.615" x2="1236.676" y2="645.064"/>
	
		<line fill="none" stroke="#000000" stroke-width="0.3" stroke-linecap="round" stroke-linejoin="round" stroke-miterlimit="10" x1="1342.675" y1="684.187" x2="1343.547" y2="652.514"/>
	<path fill="none" stroke="#000000" stroke-width="0.3" stroke-linecap="round" stroke-linejoin="round" stroke-miterlimit="10" d="
		M1447.407,653.492l-0.208,1.655c-53.475-13.128-164.762,9.728-210.514-9.342l-0.01-0.741
		C1282.422,664.132,1393.929,640.367,1447.407,653.492l-81.647-34.244"/>
	
		<line fill="none" stroke="#000000" stroke-width="0.3" stroke-linecap="round" stroke-linejoin="round" stroke-miterlimit="10" x1="1025.87" y1="684.157" x2="1028.461" y2="686.749"/>
	
		<line fill="none" stroke="#000000" stroke-width="0.3" stroke-linecap="round" stroke-linejoin="round" stroke-miterlimit="10" x1="1497.617" y1="651.536" x2="1501.779" y2="650.324"/>
</g>
<g>
	<path d="M1186.567,958.772v-38.125h2.136v35.936h10.732v2.189H1186.567z"/>
	<path d="M1203.28,932.769c-0.393,0-0.801-0.16-1.229-0.48c-0.32-0.32-0.499-0.748-0.534-1.281c0-0.962,0.588-1.549,1.763-1.763
		c0.889,0,1.477,0.588,1.762,1.763C1205.042,932.182,1204.455,932.769,1203.28,932.769z M1202.158,958.772V936.72h2.189v22.053
		H1202.158z"/>
	<path d="M1229.337,966.142c-1.994,1.993-4.61,2.989-7.85,2.989c-6.017,0-9.611-2.367-10.786-7.102h2.189
		c0.392,1.744,1.513,3.044,3.364,3.898c1.459,0.676,3.203,1.015,5.232,1.015c2.741,0,4.859-0.767,6.354-2.296
		c1.53-1.531,2.296-3.667,2.296-6.408v-3.257c-2.314,2.776-5.251,4.165-8.811,4.165c-3.204,0-5.892-1.086-8.063-3.258
		c-2.208-2.206-3.311-4.912-3.311-8.116c0-3.203,1.085-5.891,3.257-8.063c2.207-2.207,4.912-3.311,8.116-3.311
		c3.524,0,6.461,1.389,8.811,4.165v-3.845h2.189v21.572C1232.327,961.53,1231.33,964.147,1229.337,966.142z M1227.842,941.259
		c-1.815-1.815-3.987-2.724-6.515-2.724c-2.563,0-4.734,0.891-6.515,2.67c-1.815,1.815-2.723,4.005-2.723,6.567
		c0,2.528,0.907,4.699,2.723,6.515s3.986,2.724,6.515,2.724c2.563,0,4.734-0.89,6.515-2.67c1.815-1.815,2.723-4.005,2.723-6.568
		C1230.564,945.246,1229.657,943.074,1227.842,941.259z"/>
	<path d="M1254.539,958.826V945.53c0-4.663-2.172-6.995-6.515-6.995c-1.78,0-3.311,0.534-4.592,1.602
		c-1.317,1.068-1.976,2.492-1.976,4.272v14.363h-2.189v-39.514h2.189v20.397c1.316-2.171,3.506-3.257,6.567-3.257
		c5.802,0,8.704,2.973,8.704,8.917v13.51H1254.539z"/>
	<path d="M1263.938,938.909v19.863h-2.189v-19.863h-2.99v-2.189h2.99v-9.665h2.189v9.665h5.126v2.189H1263.938z"/>
	<path d="M1275.471,932.769c-0.393,0-0.801-0.16-1.229-0.48c-0.32-0.32-0.499-0.748-0.534-1.281c0-0.962,0.588-1.549,1.763-1.763
		c0.889,0,1.477,0.588,1.762,1.763C1277.232,932.182,1276.646,932.769,1275.471,932.769z M1274.349,958.772V936.72h2.189v22.053
		H1274.349z"/>
	<path d="M1296.082,958.772v-13.188c0-4.663-2.101-6.995-6.301-6.995c-2.064,0-3.631,0.605-4.698,1.815
		c-1.104,1.211-1.655,2.866-1.655,4.966v13.402h-2.189V936.72h2.189v2.67c0.996-1.957,3.114-2.937,6.354-2.937
		c2.741,0,4.841,0.783,6.301,2.35c1.459,1.566,2.189,3.756,2.189,6.567v13.402H1296.082z"/>
	<path d="M1323.047,966.142c-1.994,1.993-4.61,2.989-7.85,2.989c-6.017,0-9.611-2.367-10.786-7.102h2.189
		c0.392,1.744,1.513,3.044,3.364,3.898c1.459,0.676,3.203,1.015,5.232,1.015c2.741,0,4.859-0.767,6.354-2.296
		c1.53-1.531,2.296-3.667,2.296-6.408v-3.257c-2.314,2.776-5.251,4.165-8.811,4.165c-3.204,0-5.892-1.086-8.063-3.258
		c-2.208-2.206-3.311-4.912-3.311-8.116c0-3.203,1.085-5.891,3.257-8.063c2.207-2.207,4.912-3.311,8.116-3.311
		c3.524,0,6.461,1.389,8.811,4.165v-3.845h2.189v21.572C1326.037,961.53,1325.04,964.147,1323.047,966.142z M1321.552,941.259
		c-1.815-1.815-3.987-2.724-6.515-2.724c-2.563,0-4.734,0.891-6.515,2.67c-1.815,1.815-2.723,4.005-2.723,6.567
		c0,2.528,0.907,4.699,2.723,6.515s3.986,2.724,6.515,2.724c2.563,0,4.734-0.89,6.515-2.67c1.815-1.815,2.723-4.005,2.723-6.568
		C1324.274,945.246,1323.367,943.074,1321.552,941.259z"/>
</g>
<g>
	<path opacity="0.5" fill="#BEE4F8" d="M1403.09,715.437l-270.709,122.598c-21.666-39.494-33.895-80.548-77.513-134.638
		l181.719-57.611c36.298,15.13,113.837,3.868,171.04,5.127"/>
	<path opacity="0.5" fill="#1D71B8" d="M1112.868,798.554l-7.243-43.43l279.277-104.104c23.81-0.505,45.741,0.128,62.192,4.167
		l27.898,10.823c-48.813,25.681-141.767,133.63-195.131,162.171v14.375l-25.692,13.688l-0.511-8.856l-2.941-1.427
		c-42.403,28.385-80.736,44.065-80.736,44.065l-0.865-0.378c-27.709-29.184-40.615-58.374-56.253-91.11"/>
	<g>
		
			<line fill="none" stroke="#000000" stroke-width="0.3" stroke-linecap="round" stroke-linejoin="round" stroke-miterlimit="10" x1="1447.101" y1="655.355" x2="1475.206" y2="666.084"/>
		
			<line fill="none" stroke="#000000" stroke-width="0.3" stroke-linecap="round" stroke-linejoin="round" stroke-miterlimit="10" x1="1054.868" y1="703.626" x2="1157.379" y2="806.432"/>
		
			<line fill="none" stroke="#000000" stroke-width="0.3" stroke-linecap="round" stroke-linejoin="round" stroke-miterlimit="10" x1="1475.206" y1="666.084" x2="1157.379" y2="806.432"/>
		
			<line fill="none" stroke="#000000" stroke-width="0.3" stroke-linecap="round" stroke-linejoin="round" stroke-miterlimit="10" x1="1157.379" y1="806.432" x2="1169.988" y2="890.195"/>
		<line opacity="0.5" fill="#F39200" x1="1407.627" y1="650.973" x2="1403.09" y2="715.497"/>
		<line opacity="0.5" fill="#F39200" x1="1132.381" y1="838.095" x2="1134.478" y2="841.043"/>
		
			<line fill="#F39200" stroke="#000000" stroke-width="0.3" stroke-linecap="round" stroke-linejoin="round" stroke-miterlimit="10" x1="1054.868" y1="703.456" x2="1236.587" y2="645.845"/>
		
			<line fill="#F39200" stroke="#000000" stroke-width="0.3" stroke-linecap="round" stroke-linejoin="round" stroke-miterlimit="10" x1="1447.101" y1="655.187" x2="1475.206" y2="665.915"/>
		
			<path fill="#F39200" stroke="#000000" stroke-width="0.3" stroke-linecap="round" stroke-linejoin="round" stroke-miterlimit="10" d="
			M1054.868,703.456"/>
		<polyline fill="none" stroke="#000000" stroke-width="0.3" stroke-miterlimit="10" points="1112.868,798.554 1105.625,755.124 
			1384.902,651.02 		"/>
		<polyline fill="none" stroke="#000000" stroke-width="0.3" stroke-miterlimit="10" points="1132.381,838.095 1403.34,715.479 
			1407.403,650.968 		"/>
		<path fill="none" stroke="#000000" stroke-width="0.3" stroke-miterlimit="10" d="M1407.496,650.965
			c14.95,0.324,28.519,1.499,39.599,4.222"/>
		<path fill="none" stroke="#000000" stroke-width="0.3" stroke-miterlimit="10" d="M1407.496,651.135
			c14.95,0.323,28.519,1.499,39.604,4.221"/>
		<path fill="none" stroke="#000000" stroke-width="0.3" stroke-miterlimit="10" d="M1383.792,651.04
			c8.16-0.185,16.112-0.238,23.704-0.075"/>
		<path fill="none" stroke="#000000" stroke-width="0.3" stroke-miterlimit="10" d="M1236.587,645.845
			c31.453,13.109,93.882,6.403,147.205,5.195"/>
	</g>
</g>
<g>
	<path opacity="0.5" fill="#E30613" d="M1094.08,206.348l79.385,30.557l-2.497,14.428
		c-48.808,25.681-141.761,133.631-195.125,162.173v14.374l-25.691,13.688l-0.512-8.857l-2.941-1.426
		c-42.409,28.385-80.735,44.065-80.735,44.065l-0.871-0.378c-51.654-54.403-51.857-108.829-114.248-186.191l-2.566-14.11
		l227.831-67.892c53.104,8.314,73.759-7.462,118.217-0.196"/>
	<g>
		<g>
			
				<path fill="none" stroke="#000000" stroke-width="0.3" stroke-linecap="round" stroke-linejoin="round" stroke-miterlimit="10" d="
				M853.354,391.587"/>
			
				<path fill="none" stroke="#000000" stroke-width="0.3" stroke-linecap="round" stroke-linejoin="round" stroke-miterlimit="10" d="
				M1171.182,251.239"/>
			
				<line fill="none" stroke="#000000" stroke-width="0.3" stroke-linecap="round" stroke-linejoin="round" stroke-miterlimit="10" x1="850.418" y1="372.836" x2="865.963" y2="475.35"/>
		</g>
		<path fill="none" stroke="#AD6416" stroke-miterlimit="10" d="M853.406,390.474"/>
		
			<polyline fill="none" stroke="#000000" stroke-width="0.3" stroke-linecap="round" stroke-linejoin="round" stroke-miterlimit="10" points="
			1094.08,206.348 1173.221,236.67 1170.968,251.333 		"/>
		
			<polyline fill="none" stroke="#000000" stroke-width="0.3" stroke-linecap="round" stroke-linejoin="round" stroke-miterlimit="10" points="
			750.645,288.041 748.026,274.436 975.863,206.543 		"/>
		
			<path fill="none" stroke="#000000" stroke-width="0.3" stroke-linecap="round" stroke-linejoin="round" stroke-miterlimit="10" d="
			M932.599,230.353"/>
		
			<line fill="none" stroke="#000000" stroke-width="0.3" stroke-linecap="round" stroke-linejoin="round" stroke-miterlimit="10" x1="853.156" y1="390.239" x2="850.418" y2="372.836"/>
		
			<polyline fill="none" stroke="#000000" stroke-width="0.3" stroke-linecap="round" stroke-linejoin="round" stroke-miterlimit="10" points="
			1173.221,236.67 850.418,372.836 748.026,274.436 		"/>
		
			<path fill="none" stroke="#000000" stroke-width="0.3" stroke-linecap="round" stroke-linejoin="round" stroke-miterlimit="10" d="
			M853.156,390.239"/>
		
			<path fill="none" stroke="#000000" stroke-width="0.3" stroke-linecap="round" stroke-linejoin="round" stroke-miterlimit="10" d="
			M1171.093,249.323"/>
	</g>
</g>
</svg>
