<?xml version="1.0" encoding="utf-8"?>
<!-- Generator: Adobe Illustrator 16.0.0, SVG Export Plug-In . SVG Version: 6.00 Build 0)  -->
<!DOCTYPE svg PUBLIC "-//W3C//DTD SVG 1.1//EN" "http://www.w3.org/Graphics/SVG/1.1/DTD/svg11.dtd">
<svg version="1.1" id="Layer_1" xmlns="http://www.w3.org/2000/svg" xmlns:xlink="http://www.w3.org/1999/xlink" x="0px" y="0px"
	 width="1920px" height="1080px" viewBox="0 0 1920 1080" enable-background="new 0 0 1920 1080" xml:space="preserve">
<g>
	
		<line fill="none" stroke="#4B453C" stroke-width="3" stroke-miterlimit="10" x1="2064.42" y1="573.801" x2="2149.377" y2="573.801"/>
	<g>
		<polygon fill="#4B453C" points="2140.948,584.91 2145.672,573.801 2140.948,562.691 2167.287,573.801 		"/>
	</g>
</g>
<g>
	
		<line fill="none" stroke="#BD0D19" stroke-width="3" stroke-miterlimit="10" x1="2207.24" y1="573.801" x2="2292.198" y2="573.801"/>
	<g>
		<polygon fill="#BD0D19" points="2283.777,584.91 2288.496,573.801 2283.777,562.691 2310.112,573.801 		"/>
	</g>
</g>
<g>
	<polygon fill="none" stroke="#4B453C" stroke-miterlimit="10" points="2130.052,603.918 2130.052,691.426 2064.42,691.426 
		2064.42,621.42 2081.923,603.918 	"/>
	<polyline fill="none" stroke="#4B453C" stroke-miterlimit="10" points="2081.923,603.918 2081.923,621.42 2064.42,621.42 	"/>
</g>
<line fill="none" stroke="#4B453C" stroke-miterlimit="10" x1="2073.17" y1="678.334" x2="2119.642" y2="678.334"/>
<line fill="none" stroke="#4B453C" stroke-miterlimit="10" x1="2073.17" y1="670.201" x2="2119.642" y2="670.201"/>
<line fill="none" stroke="#4B453C" stroke-miterlimit="10" x1="2073.17" y1="662.068" x2="2119.642" y2="662.068"/>
<line fill="none" stroke="#4B453C" stroke-miterlimit="10" x1="2073.17" y1="653.934" x2="2119.642" y2="653.934"/>
<line fill="none" stroke="#4B453C" stroke-miterlimit="10" x1="2073.17" y1="645.801" x2="2119.642" y2="645.801"/>
<line fill="none" stroke="#4B453C" stroke-miterlimit="10" x1="2073.17" y1="638.068" x2="2119.642" y2="638.068"/>
<line fill="none" stroke="#4B453C" stroke-miterlimit="10" x1="2073.17" y1="629.936" x2="2119.642" y2="629.936"/>
<line fill="none" stroke="#4B453C" stroke-miterlimit="10" x1="2080.281" y1="621.803" x2="2119.642" y2="621.803"/>
<line fill="none" stroke="#4B453C" stroke-miterlimit="10" x1="2081.923" y1="613.668" x2="2119.642" y2="613.668"/>
<rect x="2064.42" y="331.005" fill="#F6F6F3" stroke="#C6C5C0" stroke-width="2" stroke-miterlimit="10" width="56.718" height="56.718"/>
<rect x="2133.19" y="331.005" fill="#E3DEDA" width="56.718" height="56.718"/>
<rect x="2201.961" y="331.005" fill="#C6C5C0" width="56.718" height="56.718"/>
<rect x="2270.731" y="331.005" fill="#9A9C97" width="56.718" height="56.718"/>
<rect x="2339.502" y="331.005" fill="#6C6964" stroke="#C6C5C0" stroke-width="2" stroke-miterlimit="10" width="56.718" height="56.718"/>
<rect x="2408.272" y="331.005" fill="#4B453C" width="56.718" height="56.718"/>
<rect x="2064.42" y="401.193" fill="#F1F4EB" width="56.718" height="56.718"/>
<rect x="2133.19" y="401.193" fill="#E3E9BA" width="56.718" height="56.718"/>
<rect x="2201.961" y="401.193" fill="#C3D197" width="56.718" height="56.718"/>
<rect x="2270.731" y="401.193" fill="#87A77F" stroke="#E3DEDA" stroke-width="2" stroke-miterlimit="10" width="56.718" height="56.718"/>
<rect x="2339.502" y="401.193" fill="#4F766F" width="56.718" height="56.718"/>
<rect x="2408.272" y="401.193" fill="#2B4642" stroke="#C6C5C0" stroke-width="2" stroke-miterlimit="10" width="56.718" height="56.718"/>
<rect x="2064.42" y="471.38" fill="#EBF6F6" width="56.718" height="56.718"/>
<rect x="2133.19" y="471.38" fill="#D6ECEB" width="56.718" height="56.718"/>
<rect x="2201.961" y="471.38" fill="#ACCED3" stroke="#E3DEDA" stroke-width="2" stroke-miterlimit="10" width="56.718" height="56.718"/>
<rect x="2270.731" y="471.38" fill="#809FAF" width="56.718" height="56.718"/>
<rect x="2339.502" y="471.38" fill="#3D697E" stroke="#E3DEDA" stroke-width="2" stroke-miterlimit="10" width="56.718" height="56.718"/>
<rect x="2408.272" y="471.38" fill="#00495D" width="56.718" height="56.718"/>
<rect x="2504.268" y="331.005" fill="#F18700" width="56.718" height="56.718"/>
<rect x="2504.268" y="401.193" fill="#94C356" width="56.718" height="56.718"/>
<rect x="2504.268" y="260.818" fill="#B70D18" stroke="#E3DEDA" stroke-width="2" stroke-miterlimit="10" width="56.718" height="56.718"/>
<rect x="2504.268" y="471.38" fill="#64C2C8" stroke="#E3DEDA" stroke-width="2" stroke-miterlimit="10" width="56.718" height="56.718"/>
<text transform="matrix(1 0 0 1 2064.4202 289.1768)" font-family="'MyriadPro-Regular'" font-size="40">CMYK</text>
<rect x="1959.191" y="829.439" fill="#C2D196" width="35.078" height="35.068"/>
<rect x="1959.191" y="871.63" fill="#4F7670" width="35.078" height="35.076"/>
<rect x="1959.191" y="913.842" fill="#D4EBEA" width="35.075" height="35.075"/>
<rect x="1959.194" y="955.865" fill="#00495C" width="35.072" height="35.074"/>
<g>
	<rect x="2008.066" y="837.884" fill="none" width="119.674" height="23.897"/>
	<text transform="matrix(1 0 0 1 2008.0676 858.4043)" font-family="'Verdana'" font-size="27">VE-E02</text>
</g>
<g>
	<rect x="2008.066" y="880.075" fill="none" width="132.885" height="26.256"/>
	<text transform="matrix(1 0 0 1 2008.0657 900.5957)" font-family="'Verdana'" font-size="27">VE-C01</text>
</g>
<g>
	<rect x="2008.066" y="793.658" fill="none" width="119.674" height="23.896"/>
	<text transform="matrix(1 0 0 1 2008.0676 817.2197)" font-family="'Verdana'" font-size="31">Anlæg</text>
</g>
<g>
	<rect x="2008.066" y="922.268" fill="none" width="122.757" height="26.275"/>
	<text transform="matrix(1 0 0 1 2008.0657 942.7871)" font-family="'Verdana'" font-size="27">VE-B01</text>
</g>
<g>
	<rect x="2008.066" y="964.462" fill="none" width="124.628" height="26.104"/>
	<text transform="matrix(1 0 0 1 2008.0657 984.9814)" font-family="'Verdana'" font-size="27">VE-D01</text>
</g>
<line fill="none" stroke="#000000" stroke-width="3" stroke-miterlimit="10" x1="-716.594" y1="177.675" x2="-436.108" y2="-320.086"/>
<line fill="none" stroke="#000000" stroke-width="3" stroke-miterlimit="10" x1="-155.621" y1="177.675" x2="-436.108" y2="-320.086"/>
<line fill="none" stroke="#000000" stroke-width="3" stroke-miterlimit="10" x1="-716.594" y1="177.675" x2="-155.621" y2="177.675"/>
<g>
	<rect x="107.864" y="771.692" fill="none" width="205.358" height="17.975"/>
	<text transform="matrix(1 0 0 1 121.1809 782.5264)" fill="#00527F" font-family="'TimesNewRomanPS-BoldMT'" font-size="16.3415">Making  location  count.</text>
	<path fill="none" stroke="#0E638B" stroke-width="1.7125" d="M325.727,789.032c0,3.539-2.874,6.408-6.419,6.408h-214.26
		c-3.545,0-6.42-2.869-6.42-6.408v-94.273c0-3.537,2.874-6.404,6.42-6.404h214.261c3.545,0,6.419,2.867,6.419,6.404L325.727,789.032
		L325.727,789.032z"/>
	<rect x="294.795" y="705.509" fill="none" width="23.241" height="24.33"/>
	<text transform="matrix(1 0 0 1 294.7947 718.5098)" fill="#00527F" font-family="'TimesNewRomanPS-BoldMT'" font-size="19.6098">®</text>
	<g>
		<rect x="113.133" y="706.87" fill="none" width="190.105" height="71.904"/>
		
			<text transform="matrix(0.9542 0 0 1 113.1321 762.5479)" fill="#00527F" font-family="'TimesNewRomanPS-BoldMT'" font-size="83.9778">OGC</text>
	</g>
</g>
<path fill="#00527F" d="M398.18,398.491c0-85.612-54.542-160.522-135.667-185.723l-5.869-1.728l-7.249,16.916
	c-1.381,3.107,0,6.905,3.107,8.63c-14.844-4.486-30.725-6.902-46.949-6.902c-91.825,0-166.391,75.255-166.391,167.771
	c0,62.828,34.521,117.716,85.267,146.369c-2.416,0.346-4.488,2.071-5.178,4.488l-7.249,20.021l5.177,2.764
	c22.784,12.082,47.294,18.985,72.84,21.058l-8.286,32.795h-24.51c-7.595,0-13.808,6.213-13.808,13.809v13.809h136.702v-13.809
	c0-7.598-6.214-13.809-13.809-13.809h-24.511l-8.629-34.176C326.722,576.965,398.18,496.186,398.18,398.491z M54.007,417.132
	c4.488,8.977,10.011,18.642,10.011,18.642c16.57,20.022,14.844,10.356,20.713,11.738c4.143,1.381-1.381,13.809,0.69,17.95
	c3.106,6.902,16.915,15.881,20.021,22.438c10.012,21.748,26.581,40.39,26.581,40.39c-1.726-25.546,13.119-32.795,13.119-32.795
	s4.833-18.297,1.727-23.129c-3.798-6.215-21.748-5.523-25.892-11.391c-7.594-10.012-22.784-20.714-31.759-18.986
	c-9.32,1.725-9.666,0.345-11.737-1.728c-18.642-17.261-11.047-27.271-11.047-27.271s11.394-6.904,13.119-10.702
	c12.427-32.794,21.058-28.652,25.891-39.699c2.763-6.559-6.213-20.712-6.904-27.962c-1.035-7.595,5.869-25.546,0.69-30.724
	c-2.071-2.071-7.25-2.762-12.082-2.071c7.939-10.012,16.915-18.987,26.927-26.582c0,4.487,4.487,4.833,7.938,4.833
	c-6.559,2.071-6.559,9.666-3.797,11.047c7.25-4.487,8.285,1.381,8.285,1.381c2.762,23.475-1.381,20.713-1.381,20.713
	c-8.63,2.07,0,20.021,0,20.021c5.178,5.523,6.903-1.036,6.903-1.036c0.346-11.047,10.357-14.153,14.845-17.951
	c1.381-1.035,3.105-3.797,4.486-4.487c2.764-1.728,7.94-2.763,11.047-7.25c5.524-8.286-2.416-8.629-2.416-11.738
	c0-1.035,4.487-1.726,4.487-1.726c4.144-1.036,4.488-6.904,4.488-6.904c-2.416-11.738,10.701-18.297,9.666-19.678
	c-9.666-12.772-22.783-2.763-22.783-2.763c-4.834,1.036-18.643,6.214-18.643,6.214c-1.382-2.417-4.487-2.417-7.595-1.381
	c22.784-13.809,49.366-21.402,77.672-21.402c48.33,0,91.137,22.783,119.1,57.995c-5.87-2.762-12.083-5.523-14.5-7.25
	c-5.868-4.143-16.226-18.986-20.367-15.88c-6.905,5.523-17.605,20.712-25.201,25.545c-23.129,14.846-46.258-3.451-46.258-3.451
	c-17.26-1.036-22.439,24.164-22.439,24.164c-10.011-0.345-9.319,8.977-6.903,11.736c5.869,6.215,6.903,0,8.976,1.037
	c2.416,1.381,0.345,4.144,5.178,9.32c3.107,3.452,6.904-9.666,6.559-13.462c-1.728-18.987,8.286-14.846,8.286-14.846
	c-11.047,15.188,4.833,15.188,4.833,15.188c-5.868,0-7.596,13.809-7.596,13.809l-13.809,2.763
	c-7.938-1.381-31.067,15.188-31.067,15.188s8.284,4.144,4.833,11.047c-1.381,3.107-11.047,0.346-13.118,3.107
	c-4.488,5.868-3.107,19.677,13.118,13.462c7.595-2.762,11.048-20.368,25.892-18.986c12.082,1.036,20.368,20.023,20.368,20.023
	l4.141-9.666c1.727,16.915,20.368,10.702,20.368,10.702c-0.69,6.558-5.523,17.26-7.594,18.296c-5.869,3.105-16.57-2.071-16.57-2.071
	s-2.762-2.072-4.143-2.072c-1.036,0-3.798,1.728-3.798,1.728s-0.345,4.833-1.381,4.143c-10.701-7.594-15.879-3.452-18.641-7.939
	c-0.69-1.381,3.452-2.416,0.689-5.869c-3.797-5.179-36.937,8.631-36.937,8.631c-24.51,23.13-13.118,51.091,0,54.198
	c8.631,2.07,27.962-3.8,34.866,1.725c5.521,4.488,9.319,21.06,6.904,27.963c-4.487,14.153,8.284,28.652,8.284,28.652
	c16.916,8.285,27.272-17.951,35.212-24.855c1.036-0.689,3.452-1.38,3.797-2.415c1.728-3.799-1.727-12.429-0.346-16.226
	c2.072-4.487,10.701-9.32,14.154-12.772c3.452-3.105,10.701-13.464,8.976-16.568c-0.691-1.037-9.32,4.141-12.082,2.761
	c-7.595-3.452-26.582-26.927-17.951-33.83c0.345-0.345,5.179-5.522,7.25-5.179c7.595,2.072,12.428,25.545,16.226,27.617
	c6.213,3.452,22.438-10.012,22.438-16.916c0-2.416-7.595-5.868-7.595-5.868c-11.392-1.728-7.595-10.702-7.595-10.702
	c4.833,6.56,11.047,5.868,11.047,5.868c5.867,3.453,14.499,1.727,14.499,1.727l6.56,8.976l6.213,18.987
	c3.798-1.382,4.488-10.702,4.488-10.702s7.595-15.188,12.426-14.844c5.18,0.691,8.286,18.297,10.013,17.952
	c4.142-1.036,2.07-16.916,2.07-16.916s7.597-7.595,8.285-11.047c2.763-12.772-2.417-15.88-1.38-21.059
	c1.035-5.178,6.904-14.845,6.214-20.021c-3.105-18.987-5.521-11.737-5.868-15.879c-0.345-2.071,0.69-6.213,1.381-9.667
	c6.905,17.605,11.048,36.938,11.048,57.306c0,84.922-68.354,153.963-152.583,153.963C127.881,551.765,63.673,492.734,54.007,417.132
	z M205.553,579.382c-26.925,0-52.471-5.868-76.636-17.261l3.106-8.631c0.69-1.726,0.346-3.452-0.346-5.177
	c22.093,11.046,47.294,17.261,73.875,17.261c91.826,0,166.393-75.257,166.393-167.771c0-75.259-49.019-138.776-116.336-160.179
	c2.763,0,5.523-1.381,6.56-4.143l2.417-5.178c72.147,25.199,120.132,93.206,120.132,170.534
	C384.373,498.258,304.283,579.382,205.553,579.382z"/>
<path fill="#E31F33" d="M890.809,398.491c0-85.612-54.543-160.522-135.667-185.723l-5.869-1.728l-7.249,16.916
	c-1.381,3.107,0,6.905,3.106,8.63c-14.845-4.486-30.725-6.902-46.948-6.902c-91.826,0-166.393,75.255-166.393,167.771
	c0,62.828,34.521,117.716,85.268,146.369c-2.417,0.346-4.487,2.071-5.179,4.488l-7.249,20.021l5.178,2.764
	c22.784,12.082,47.293,18.985,72.839,21.058l-8.285,32.795h-24.51c-7.596,0-13.81,6.213-13.81,13.809v13.809h136.704v-13.809
	c0-7.598-6.214-13.809-13.809-13.809h-24.51l-8.632-34.176C819.351,576.965,890.809,496.186,890.809,398.491z M546.634,417.132
	c4.487,8.977,10.011,18.642,10.011,18.642c16.571,20.022,14.844,10.356,20.713,11.738c4.143,1.381-1.38,13.809,0.69,17.95
	c3.106,6.902,16.915,15.881,20.021,22.438c10.012,21.748,26.581,40.39,26.581,40.39c-1.726-25.546,13.119-32.795,13.119-32.795
	s4.833-18.297,1.726-23.129c-3.798-6.215-21.748-5.523-25.891-11.391c-7.595-10.012-22.783-20.714-31.76-18.986
	c-9.32,1.725-9.667,0.345-11.737-1.728c-18.642-17.261-11.047-27.271-11.047-27.271s11.393-6.904,13.118-10.702
	c12.428-32.794,21.059-28.652,25.891-39.699c2.762-6.559-6.213-20.712-6.904-27.962c-1.035-7.595,5.869-25.546,0.691-30.724
	c-2.072-2.071-7.25-2.762-12.082-2.071c7.939-10.012,16.915-18.987,26.926-26.582c0,4.487,4.488,4.833,7.939,4.833
	c-6.558,2.071-6.558,9.666-3.797,11.047c7.25-4.487,8.286,1.381,8.286,1.381c2.761,23.475-1.383,20.713-1.383,20.713
	c-8.63,2.07,0,20.021,0,20.021c5.179,5.523,6.903-1.036,6.903-1.036c0.346-11.047,10.358-14.153,14.845-17.951
	c1.381-1.035,3.106-3.797,4.487-4.487c2.763-1.728,7.94-2.763,11.047-7.25c5.524-8.286-2.417-8.629-2.417-11.738
	c0-1.035,4.488-1.726,4.488-1.726c4.143-1.036,4.487-6.904,4.487-6.904c-2.415-11.738,10.701-18.297,9.667-19.678
	c-9.667-12.772-22.784-2.763-22.784-2.763c-4.834,1.036-18.643,6.214-18.643,6.214c-1.382-2.417-4.487-2.417-7.596-1.381
	c22.784-13.809,49.366-21.402,77.672-21.402c48.331,0,91.137,22.783,119.099,57.995c-5.869-2.762-12.082-5.523-14.498-7.25
	c-5.869-4.143-16.227-18.986-20.367-15.88c-6.905,5.523-17.605,20.712-25.201,25.545c-23.129,14.846-46.258-3.451-46.258-3.451
	c-17.26-1.036-22.438,24.164-22.438,24.164c-10.012-0.345-9.321,8.977-6.903,11.736c5.867,6.215,6.903,0,8.975,1.037
	c2.417,1.381,0.346,4.144,5.178,9.32c3.107,3.452,6.905-9.666,6.56-13.462c-1.728-18.987,8.284-14.846,8.284-14.846
	c-11.045,15.188,4.834,15.188,4.834,15.188c-5.867,0-7.595,13.809-7.595,13.809l-13.808,2.763
	c-7.94-1.381-31.069,15.188-31.069,15.188s8.285,4.144,4.834,11.047c-1.381,3.107-11.047,0.346-13.119,3.107
	c-4.487,5.868-3.106,19.677,13.119,13.462c7.594-2.762,11.047-20.368,25.892-18.986c12.081,1.036,20.365,20.023,20.365,20.023
	l4.143-9.666c1.727,16.915,20.368,10.702,20.368,10.702c-0.69,6.558-5.523,17.26-7.597,18.296
	c-5.868,3.105-16.568-2.071-16.568-2.071s-2.763-2.072-4.143-2.072c-1.036,0-3.798,1.728-3.798,1.728s-0.346,4.833-1.382,4.143
	c-10.701-7.594-15.879-3.452-18.641-7.939c-0.69-1.381,3.453-2.416,0.691-5.869c-3.798-5.179-36.938,8.631-36.938,8.631
	c-24.51,23.13-13.118,51.091,0,54.198c8.631,2.07,27.962-3.8,34.866,1.725c5.522,4.488,9.32,21.06,6.904,27.963
	c-4.489,14.153,8.284,28.652,8.284,28.652c16.916,8.285,27.271-17.951,35.212-24.855c1.035-0.689,3.452-1.38,3.798-2.415
	c1.727-3.799-1.727-12.429-0.346-16.226c2.072-4.487,10.701-9.32,14.153-12.772c3.452-3.105,10.702-13.464,8.976-16.568
	c-0.691-1.037-9.321,4.141-12.083,2.761c-7.595-3.452-26.581-26.927-17.951-33.83c0.346-0.345,5.178-5.522,7.25-5.179
	c7.594,2.072,12.427,25.545,16.224,27.617c6.215,3.452,22.438-10.012,22.438-16.916c0-2.416-7.595-5.868-7.595-5.868
	c-11.392-1.728-7.595-10.702-7.595-10.702c4.833,6.56,11.046,5.868,11.046,5.868c5.868,3.453,14.5,1.727,14.5,1.727l6.561,8.976
	l6.213,18.987c3.798-1.382,4.489-10.702,4.489-10.702s7.595-15.188,12.427-14.844c5.178,0.691,8.285,18.297,10.01,17.952
	c4.143-1.036,2.072-16.916,2.072-16.916s7.595-7.595,8.285-11.047c2.762-12.772-2.417-15.88-1.38-21.059
	c1.035-5.178,6.902-14.845,6.213-20.021c-3.107-18.987-5.523-11.737-5.869-15.879c-0.343-2.071,0.692-6.213,1.382-9.667
	c6.904,17.605,11.047,36.938,11.047,57.306c0,84.922-68.353,153.963-152.583,153.963
	C620.51,551.765,556.301,492.734,546.634,417.132z M698.182,579.382c-26.926,0-52.473-5.868-76.637-17.261l3.106-8.631
	c0.69-1.726,0.345-3.452-0.345-5.177c22.093,11.046,47.293,17.261,73.875,17.261c91.825,0,166.393-75.257,166.393-167.771
	c0-75.259-49.02-138.776-116.336-160.179c2.762,0,5.524-1.381,6.56-4.143l2.417-5.178c72.148,25.199,120.132,93.206,120.132,170.534
	C877.002,498.258,796.912,579.382,698.182,579.382z"/>
<path fill="#001F3D" d="M1383.437,398.491c0-85.612-54.543-160.522-135.667-185.723l-5.867-1.728l-7.25,16.916
	c-1.38,3.107,0,6.905,3.107,8.63c-14.844-4.486-30.725-6.902-46.95-6.902c-91.824,0-166.391,75.255-166.391,167.771
	c0,62.828,34.521,117.716,85.267,146.369c-2.416,0.346-4.486,2.071-5.179,4.488l-7.248,20.021l5.178,2.764
	c22.783,12.082,47.293,18.985,72.84,21.058l-8.286,32.795h-24.511c-7.594,0-13.807,6.213-13.807,13.809v13.809h136.703v-13.809
	c0-7.598-6.214-13.809-13.811-13.809h-24.51l-8.63-34.176C1311.98,576.965,1383.437,496.186,1383.437,398.491z M1039.262,417.132
	c4.488,8.977,10.011,18.642,10.011,18.642c16.571,20.022,14.845,10.356,20.714,11.738c4.141,1.381-1.381,13.809,0.69,17.95
	c3.105,6.902,16.913,15.881,20.021,22.438c10.013,21.748,26.582,40.39,26.582,40.39c-1.726-25.546,13.117-32.795,13.117-32.795
	s4.834-18.297,1.727-23.129c-3.797-6.215-21.746-5.523-25.89-11.391c-7.597-10.012-22.784-20.714-31.76-18.986
	c-9.32,1.725-9.666,0.345-11.736-1.728c-18.644-17.261-11.048-27.271-11.048-27.271s11.393-6.904,13.118-10.702
	c12.427-32.794,21.059-28.652,25.89-39.699c2.764-6.559-6.214-20.712-6.904-27.962c-1.035-7.595,5.87-25.546,0.69-30.724
	c-2.07-2.071-7.249-2.762-12.081-2.071c7.939-10.012,16.914-18.987,26.927-26.582c0,4.487,4.487,4.833,7.938,4.833
	c-6.559,2.071-6.559,9.666-3.797,11.047c7.249-4.487,8.285,1.381,8.285,1.381c2.761,23.475-1.383,20.713-1.383,20.713
	c-8.63,2.07,0,20.021,0,20.021c5.181,5.523,6.903-1.036,6.903-1.036c0.347-11.047,10.359-14.153,14.846-17.951
	c1.381-1.035,3.107-3.797,4.487-4.487c2.763-1.728,7.939-2.763,11.047-7.25c5.523-8.286-2.417-8.629-2.417-11.738
	c0-1.035,4.487-1.726,4.487-1.726c4.144-1.036,4.487-6.904,4.487-6.904c-2.415-11.738,10.702-18.297,9.666-19.678
	c-9.666-12.772-22.783-2.763-22.783-2.763c-4.834,1.036-18.642,6.214-18.642,6.214c-1.383-2.417-4.488-2.417-7.596-1.381
	c22.783-13.809,49.366-21.402,77.671-21.402c48.332,0,91.139,22.783,119.1,57.995c-5.869-2.762-12.083-5.523-14.499-7.25
	c-5.868-4.143-16.226-18.986-20.367-15.88c-6.906,5.523-17.604,20.712-25.2,25.545c-23.13,14.846-46.26-3.451-46.26-3.451
	c-17.26-1.036-22.438,24.164-22.438,24.164c-10.012-0.345-9.321,8.977-6.904,11.736c5.869,6.215,6.904,0,8.976,1.037
	c2.417,1.381,0.347,4.144,5.178,9.32c3.109,3.452,6.906-9.666,6.561-13.462c-1.728-18.987,8.286-14.846,8.286-14.846
	c-11.047,15.188,4.833,15.188,4.833,15.188c-5.867,0-7.597,13.809-7.597,13.809l-13.808,2.763
	c-7.938-1.381-31.069,15.188-31.069,15.188s8.286,4.144,4.834,11.047c-1.381,3.107-11.048,0.346-13.117,3.107
	c-4.489,5.868-3.106,19.677,13.117,13.462c7.596-2.762,11.049-20.368,25.893-18.986c12.081,1.036,20.365,20.023,20.365,20.023
	l4.143-9.666c1.727,16.915,20.367,10.702,20.367,10.702c-0.69,6.558-5.521,17.26-7.594,18.296c-5.87,3.105-16.57-2.071-16.57-2.071
	s-2.763-2.072-4.141-2.072c-1.036,0-3.8,1.728-3.8,1.728s-0.347,4.833-1.383,4.143c-10.7-7.594-15.878-3.452-18.639-7.939
	c-0.692-1.381,3.451-2.416,0.689-5.869c-3.799-5.179-36.937,8.631-36.937,8.631c-24.512,23.13-13.12,51.091,0,54.198
	c8.63,2.07,27.96-3.8,34.865,1.725c5.521,4.488,9.32,21.06,6.903,27.963c-4.489,14.153,8.284,28.652,8.284,28.652
	c16.916,8.285,27.271-17.951,35.213-24.855c1.034-0.689,3.45-1.38,3.797-2.415c1.728-3.799-1.727-12.429-0.347-16.226
	c2.073-4.487,10.703-9.32,14.156-12.772c3.449-3.105,10.699-13.464,8.974-16.568c-0.689-1.037-9.32,4.141-12.081,2.761
	c-7.596-3.452-26.582-26.927-17.952-33.83c0.348-0.345,5.18-5.522,7.25-5.179c7.594,2.072,12.429,25.545,16.227,27.617
	c6.214,3.452,22.438-10.012,22.438-16.916c0-2.416-7.594-5.868-7.594-5.868c-11.392-1.728-7.596-10.702-7.596-10.702
	c4.832,6.56,11.047,5.868,11.047,5.868c5.866,3.453,14.499,1.727,14.499,1.727l6.56,8.976l6.214,18.987
	c3.797-1.382,4.489-10.702,4.489-10.702s7.594-15.188,12.427-14.844c5.179,0.691,8.284,18.297,10.011,17.952
	c4.142-1.036,2.07-16.916,2.07-16.916s7.596-7.595,8.286-11.047c2.761-12.772-2.417-15.88-1.38-21.059
	c1.033-5.178,6.902-14.845,6.213-20.021c-3.105-18.987-5.523-11.737-5.869-15.879c-0.344-2.071,0.692-6.213,1.382-9.667
	c6.904,17.605,11.047,36.938,11.047,57.306c0,84.922-68.353,153.963-152.583,153.963
	C1113.139,551.765,1048.929,492.734,1039.262,417.132z M1190.81,579.382c-26.927,0-52.471-5.868-76.637-17.261l3.105-8.631
	c0.69-1.726,0.348-3.452-0.344-5.177c22.092,11.046,47.294,17.261,73.874,17.261c91.827,0,166.393-75.257,166.393-167.771
	c0-75.259-49.018-138.776-116.336-160.179c2.762,0,5.523-1.381,6.561-4.143l2.416-5.178
	c72.15,25.199,120.132,93.206,120.132,170.534C1369.63,498.258,1289.541,579.382,1190.81,579.382z"/>
<path fill="#0066A2" d="M1876.066,398.491c0-85.612-54.544-160.522-135.667-185.723l-5.867-1.728l-7.25,16.916
	c-1.381,3.107,0,6.905,3.106,8.63c-14.844-4.486-30.724-6.902-46.949-6.902c-91.824,0-166.392,75.255-166.392,167.771
	c0,62.828,34.521,117.716,85.268,146.369c-2.417,0.346-4.487,2.071-5.18,4.488l-7.247,20.021l5.177,2.764
	c22.784,12.082,47.294,18.985,72.84,21.058l-8.286,32.795h-24.51c-7.594,0-13.808,6.213-13.808,13.809v13.809h136.704v-13.809
	c0-7.598-6.214-13.809-13.811-13.809h-24.51l-8.631-34.176C1804.608,576.965,1876.066,496.186,1876.066,398.491z M1531.891,417.132
	c4.488,8.977,10.01,18.642,10.01,18.642c16.572,20.022,14.846,10.356,20.715,11.738c4.142,1.381-1.381,13.809,0.689,17.95
	c3.106,6.902,16.914,15.881,20.021,22.438c10.013,21.748,26.582,40.39,26.582,40.39c-1.727-25.546,13.117-32.795,13.117-32.795
	s4.833-18.297,1.728-23.129c-3.798-6.215-21.747-5.523-25.892-11.391c-7.596-10.012-22.783-20.714-31.76-18.986
	c-9.319,1.725-9.665,0.345-11.735-1.728c-18.643-17.261-11.049-27.271-11.049-27.271s11.393-6.904,13.119-10.702
	c12.426-32.794,21.058-28.652,25.89-39.699c2.763-6.559-6.214-20.712-6.903-27.962c-1.036-7.595,5.869-25.546,0.689-30.724
	c-2.07-2.071-7.25-2.762-12.081-2.071c7.94-10.012,16.914-18.987,26.927-26.582c0,4.487,4.487,4.833,7.938,4.833
	c-6.558,2.071-6.558,9.666-3.797,11.047c7.25-4.487,8.286,1.381,8.286,1.381c2.761,23.475-1.384,20.713-1.384,20.713
	c-8.63,2.07,0,20.021,0,20.021c5.181,5.523,6.904-1.036,6.904-1.036c0.346-11.047,10.358-14.153,14.846-17.951
	c1.38-1.035,3.106-3.797,4.487-4.487c2.763-1.728,7.939-2.763,11.046-7.25c5.523-8.286-2.416-8.629-2.416-11.738
	c0-1.035,4.487-1.726,4.487-1.726c4.143-1.036,4.486-6.904,4.486-6.904c-2.414-11.738,10.703-18.297,9.667-19.678
	c-9.667-12.772-22.784-2.763-22.784-2.763c-4.833,1.036-18.641,6.214-18.641,6.214c-1.383-2.417-4.489-2.417-7.597-1.381
	c22.784-13.809,49.366-21.402,77.671-21.402c48.332,0,91.139,22.783,119.1,57.995c-5.868-2.762-12.082-5.523-14.5-7.25
	c-5.866-4.143-16.224-18.986-20.366-15.88c-6.905,5.523-17.604,20.712-25.199,25.545c-23.13,14.846-46.26-3.451-46.26-3.451
	c-17.261-1.036-22.438,24.164-22.438,24.164c-10.013-0.345-9.322,8.977-6.906,11.736c5.87,6.215,6.906,0,8.978,1.037
	c2.417,1.381,0.347,4.144,5.178,9.32c3.108,3.452,6.905-9.666,6.561-13.462c-1.728-18.987,8.286-14.846,8.286-14.846
	c-11.047,15.188,4.833,15.188,4.833,15.188c-5.867,0-7.597,13.809-7.597,13.809l-13.808,2.763
	c-7.94-1.381-31.069,15.188-31.069,15.188s8.286,4.144,4.833,11.047c-1.381,3.107-11.047,0.346-13.116,3.107
	c-4.489,5.868-3.107,19.677,13.116,13.462c7.597-2.762,11.05-20.368,25.894-18.986c12.08,1.036,20.363,20.023,20.363,20.023
	l4.145-9.666c1.727,16.915,20.367,10.702,20.367,10.702c-0.69,6.558-5.521,17.26-7.596,18.296
	c-5.868,3.105-16.568-2.071-16.568-2.071s-2.763-2.072-4.143-2.072c-1.035,0-3.799,1.728-3.799,1.728s-0.346,4.833-1.382,4.143
	c-10.701-7.594-15.878-3.452-18.639-7.939c-0.692-1.381,3.451-2.416,0.689-5.869c-3.8-5.179-36.938,8.631-36.938,8.631
	c-24.51,23.13-13.119,51.091,0,54.198c8.63,2.07,27.961-3.8,34.866,1.725c5.521,4.488,9.319,21.06,6.903,27.963
	c-4.488,14.153,8.283,28.652,8.283,28.652c16.917,8.285,27.273-17.951,35.213-24.855c1.034-0.689,3.451-1.38,3.797-2.415
	c1.728-3.799-1.727-12.429-0.346-16.226c2.072-4.487,10.703-9.32,14.155-12.772c3.451-3.105,10.701-13.464,8.975-16.568
	c-0.689-1.037-9.319,4.141-12.081,2.761c-7.596-3.452-26.583-26.927-17.952-33.83c0.347-0.345,5.18-5.522,7.249-5.179
	c7.595,2.072,12.431,25.545,16.228,27.617c6.213,3.452,22.438-10.012,22.438-16.916c0-2.416-7.594-5.868-7.594-5.868
	c-11.391-1.728-7.596-10.702-7.596-10.702c4.833,6.56,11.046,5.868,11.046,5.868c5.867,3.453,14.5,1.727,14.5,1.727l6.56,8.976
	l6.215,18.987c3.797-1.382,4.488-10.702,4.488-10.702s7.595-15.188,12.428-14.844c5.177,0.691,8.283,18.297,10.01,17.952
	c4.142-1.036,2.071-16.916,2.071-16.916s7.596-7.595,8.284-11.047c2.762-12.772-2.416-15.88-1.38-21.059
	c1.034-5.178,6.903-14.845,6.214-20.021c-3.106-18.987-5.522-11.737-5.869-15.879c-0.345-2.071,0.691-6.213,1.383-9.667
	c6.902,17.605,11.047,36.938,11.047,57.306c0,84.922-68.354,153.963-152.583,153.963
	C1605.768,551.765,1541.557,492.734,1531.891,417.132z M1683.439,579.382c-26.927,0-52.471-5.868-76.637-17.261l3.105-8.631
	c0.69-1.726,0.347-3.452-0.344-5.177c22.091,11.046,47.293,17.261,73.874,17.261c91.826,0,166.393-75.257,166.393-167.771
	c0-75.259-49.018-138.776-116.337-160.179c2.762,0,5.523-1.381,6.562-4.143l2.416-5.178
	c72.148,25.199,120.131,93.206,120.131,170.534C1862.258,498.258,1782.171,579.382,1683.439,579.382z"/>
<g>
	<g>
		<path fill="#E31F33" d="M776.745,742.8c0.126-0.939,0.245-1.826,0.365-2.715c0.275-2.037,0.55-4.074,0.828-6.115
			c0.272-2.01,0.547-4.02,0.822-6.027c0.276-2.039,0.553-4.078,0.831-6.117c0.277-2.037,0.559-4.076,0.834-6.113
			c0.276-2.039,0.538-4.08,0.829-6.117c0.21-1.477,0.41-2.957,0.715-4.412c0.126-0.605,0.437-1.213,0.801-1.719
			c0.809-1.125,2.026-1.223,3.292-1.125c1.347,0.105,2.219,0.855,2.646,2.07c0.678,1.941,1.31,3.898,1.896,5.871
			c2.697,9.086,5.372,18.178,8.056,27.27c0.035,0.121,0.091,0.234,0.188,0.486c0.093-0.264,0.153-0.408,0.196-0.561
			c3.049-10.313,6.091-20.625,9.151-30.936c0.254-0.855,0.597-1.691,0.963-2.512c0.525-1.172,1.509-1.646,2.757-1.715
			c2.516-0.143,3.563,1.23,3.959,3.482c0.365,2.082,0.604,4.188,0.895,6.283c0.314,2.252,0.625,4.504,0.932,6.758
			c0.275,2.025,0.538,4.051,0.814,6.076c0.307,2.252,0.627,4.504,0.933,6.758c0.334,2.455,0.656,4.91,0.987,7.367
			c0.157,1.162,0.319,2.326,0.478,3.488c0.011,0.066,0.011,0.137,0.019,0.236c-0.132,0.014-0.243,0.035-0.355,0.035
			c-1.073,0-2.149-0.008-3.225,0.004c-0.288,0.006-0.406-0.084-0.445-0.383c-0.422-3.174-0.862-6.346-1.291-9.518
			c-0.391-2.902-0.765-5.805-1.158-8.705c-0.479-3.545-0.976-7.092-1.457-10.637c-0.272-2.01-0.533-4.021-0.804-6.031
			c-0.014-0.105-0.057-0.205-0.182-0.314c-0.185,0.617-0.374,1.232-0.554,1.852c-2.687,9.18-5.368,18.359-8.059,27.539
			c-0.407,1.391-0.822,2.779-1.279,4.152c-0.729,2.195-1.97,2.764-4.396,2.359c-0.757-0.127-1.352-0.594-1.659-1.291
			c-0.409-0.926-0.785-1.875-1.071-2.842c-2.393-8.117-4.759-16.242-7.136-24.363c-0.688-2.35-1.38-4.697-2.071-7.049
			c-0.035-0.121-0.086-0.238-0.232-0.361c-0.086,0.59-0.177,1.178-0.258,1.768c-0.314,2.297-0.628,4.594-0.938,6.891
			c-0.304,2.27-0.598,4.539-0.905,6.807c-0.332,2.455-0.677,4.908-1.01,7.363c-0.306,2.254-0.602,4.51-0.904,6.764
			c-0.258,1.91-0.519,3.82-0.791,5.729c-0.016,0.098-0.163,0.256-0.252,0.256C779.266,742.804,778.034,742.8,776.745,742.8z"/>
		<path fill="#E31F33" d="M850.778,728.659c0,4.52,0,9.039,0,13.557c0,0.584-0.001,0.584-0.597,0.584
			c-0.944,0-1.889-0.02-2.833,0.01c-0.416,0.014-0.537-0.104-0.537-0.527c0.015-5.826,0.01-11.652,0.01-17.48
			c0-0.648,0-0.65-0.669-0.65c-5.508,0-11.014,0-16.521,0c-0.601,0-0.603,0-0.603-0.58c0-0.826,0-1.654,0-2.482
			c0-0.557,0.001-0.559,0.58-0.559c5.464,0,10.926,0,16.391,0c0.145,0,0.292-0.012,0.435,0.002c0.313,0.027,0.394-0.117,0.392-0.41
			c-0.013-1.773,0.068-3.551-0.026-5.318c-0.245-4.449-2.884-7.713-7.562-8.52c-2.532-0.438-5.043-0.305-7.415,0.797
			c-2.805,1.303-4.354,3.572-4.842,6.582c-0.135,0.84-0.171,1.705-0.171,2.557c-0.013,8.66-0.009,17.322-0.009,25.98
			c0,0.6,0,0.602-0.58,0.602c-0.973,0-1.947-0.016-2.92,0.008c-0.365,0.01-0.466-0.105-0.464-0.467
			c0.015-2.645,0.008-5.289,0.008-7.934c0-6.16-0.018-12.322,0.009-18.482c0.009-2.104,0.377-4.156,1.227-6.1
			c1.504-3.445,4.086-5.713,7.667-6.781c3.599-1.076,7.228-1.057,10.776,0.213c4.381,1.564,6.934,4.773,7.876,9.268
			c0.261,1.238,0.35,2.531,0.362,3.799C850.804,720.437,850.778,724.548,850.778,728.659z"/>
		<path fill="#E31F33" d="M874.83,722.437c0.763,0.504,1.543,0.934,2.223,1.486c1.751,1.422,2.673,3.334,2.999,5.529
			c0.135,0.914,0.17,1.852,0.173,2.775c0.02,3.355,0.001,6.713,0.017,10.068c0.003,0.4-0.104,0.523-0.507,0.512
			c-1.002-0.027-2.006-0.029-3.007,0.002c-0.439,0.014-0.569-0.107-0.567-0.555c0.017-3.604,0.016-7.209,0.006-10.813
			c-0.004-1.797-0.395-3.461-1.771-4.748c-1.066-0.994-2.366-1.521-3.774-1.75c-0.94-0.152-1.902-0.225-2.855-0.24
			c-2.049-0.035-4.098-0.02-6.146-0.004c-0.399,0.004-0.524-0.117-0.512-0.52c0.029-0.887,0.023-1.771,0-2.658
			c-0.008-0.357,0.094-0.475,0.461-0.471c1.7,0.018,3.401,0.025,5.102,0.002c1.817-0.025,3.582-0.332,5.19-1.242
			c2.157-1.217,3.222-3.125,3.476-5.553c0.17-1.629-0.086-3.154-0.936-4.559c-0.91-1.506-2.262-2.479-3.9-3.051
			c-1.979-0.693-4.016-0.803-6.039-0.271c-3.018,0.791-4.738,2.863-5.39,5.838c-0.224,1.023-0.321,2.098-0.323,3.148
			c-0.025,8.92-0.015,17.842-0.015,26.764c0,0.67,0,0.67-0.649,0.67c-0.959,0-1.92-0.012-2.877,0.006
			c-0.311,0.006-0.427-0.107-0.397-0.404c0.008-0.102,0.001-0.203,0.001-0.307c0-9.08-0.001-18.162,0-27.242
			c0-2.117,0.375-4.158,1.283-6.078c1.558-3.289,4.145-5.336,7.688-6.105c3.419-0.738,6.762-0.422,9.916,1.15
			c3.143,1.564,5.109,4.086,5.632,7.584c0.368,2.451,0.094,4.865-0.973,7.143c-0.688,1.471-1.724,2.645-3.065,3.553
			c-0.145,0.096-0.287,0.195-0.428,0.295C874.839,722.411,874.828,722.44,874.83,722.437z"/>
		<path fill="#E31F33" d="M765.791,702.983c2.515,0,5.027,0.01,7.541-0.008c0.414-0.002,0.556,0.107,0.54,0.535
			c-0.031,0.898-0.029,1.803,0,2.699c0.015,0.412-0.117,0.514-0.513,0.512c-4.46-0.014-8.921-0.021-13.381,0
			c-1.366,0.006-2.718,0.158-4.013,0.652c-1.996,0.756-2.948,2.277-3.091,4.326c-0.057,0.799-0.021,1.633,0.146,2.414
			c0.417,1.949,1.802,3.117,3.483,3.994c1.93,1.008,4.021,1.564,6.097,2.158c2.411,0.691,4.836,1.344,7.107,2.438
			c1.996,0.961,3.753,2.213,4.934,4.143c0.834,1.365,1.224,2.861,1.35,4.451c0.142,1.764-0.038,3.482-0.673,5.131
			c-1.094,2.83-3.243,4.529-6.043,5.488c-1.885,0.646-3.841,0.873-5.823,0.879c-4.736,0.012-9.473,0-14.21,0.012
			c-0.388,0.002-0.534-0.084-0.518-0.502c0.034-0.885,0.011-1.771,0.011-2.658c0-0.619,0-0.619,0.6-0.619
			c4.868-0.002,9.735,0.027,14.602-0.021c2.008-0.02,3.959-0.42,5.657-1.596c1.466-1.018,2.215-2.447,2.336-4.223
			c0.119-1.758-0.233-3.379-1.369-4.77c-1.022-1.248-2.362-2.084-3.855-2.602c-2.216-0.77-4.467-1.432-6.714-2.104
			c-2.213-0.664-4.415-1.344-6.411-2.543c-2.479-1.49-4.13-3.592-4.625-6.482c-0.503-2.938-0.229-5.742,1.699-8.17
			c1.46-1.838,3.45-2.813,5.708-3.232c1.021-0.188,2.073-0.27,3.112-0.291C761.577,702.954,763.685,702.983,765.791,702.983z"/>
		<path fill="#E31F33" d="M891.195,724.716c0-5.826,0-11.652,0-17.479c0-0.617,0-0.619-0.612-0.619c-3.239,0-6.479-0.008-9.72,0.01
			c-0.407,0.002-0.526-0.121-0.516-0.516c0.024-0.887,0.02-1.773,0.001-2.658c-0.007-0.361,0.122-0.477,0.479-0.475
			c2.193,0.012,4.39,0.006,6.582,0.006c5.987,0,11.973-0.002,17.958,0c0.622,0,0.622,0,0.623,0.623c0,0.842-0.018,1.686,0.007,2.527
			c0.012,0.385-0.112,0.49-0.496,0.49c-3.254-0.016-6.509-0.01-9.763-0.01c-0.588,0.002-0.589,0.002-0.589,0.602
			c0,11.65,0,23.305,0,34.955c0,0.629,0,0.629-0.637,0.629c-0.93,0-1.86-0.021-2.788,0.01c-0.418,0.014-0.537-0.107-0.537-0.531
			C891.198,736.425,891.195,730.569,891.195,724.716z"/>
		<path d="M722.009,752.226c0.213-0.641,0.423-1.268,0.646-1.936c0.558,0.18,1.085,0.363,1.62,0.521
			c2.804,0.832,5.644,1.016,8.515,0.416c3.777-0.787,6.058-3.123,7.015-6.814c0.408-1.568,0.558-3.172,0.563-4.787
			c0.011-3.529,0.021-7.061-0.003-10.592c-0.02-3.273-1.117-6.143-3.408-8.504c-3.545-3.656-9.172-3.99-13.107-0.744
			c-3.352,2.76-4.736,6.379-4.273,10.668c0.39,3.609,2.116,6.48,5.162,8.479c3.648,2.395,8.21,2.082,11.618-0.721
			c0.521-0.432,1.011-0.9,1.58-1.408c0,0.818,0.005,1.568-0.005,2.318c-0.001,0.084-0.076,0.188-0.146,0.246
			c-1.723,1.449-3.607,2.602-5.872,2.947c-4.411,0.68-8.19-0.578-11.213-3.881c-2.224-2.432-3.252-5.371-3.403-8.643
			c-0.151-3.307,0.582-6.375,2.539-9.078c2.332-3.223,5.521-4.941,9.492-5.131c5.986-0.279,11.176,3.646,12.64,9.6
			c0.31,1.256,0.465,2.576,0.484,3.869c0.063,3.951,0.038,7.904,0.018,11.855c-0.016,2.756-0.621,5.355-2.235,7.645
			c-1.774,2.516-4.241,4.002-7.211,4.635c-3.688,0.783-7.298,0.344-10.837-0.867C722.129,752.304,722.084,752.267,722.009,752.226z"
			/>
		<path d="M673.592,721.249c-0.703-0.598-1.326-1.184-2.008-1.691c-4.133-3.09-9.666-2.52-13.221,1.232
			c-4.144,4.377-4.348,11.494-0.409,16.021c2.269,2.607,5.105,4.006,8.621,3.648c3.069-0.311,5.457-1.854,7.222-4.354
			c1.463-2.072,2.196-4.395,2.196-6.938c0.002-8.254,0-16.508,0-24.762c0-0.186,0-0.373,0-0.594c0.705,0,1.376,0,2.099,0
			c0,0.166,0,0.322,0,0.479c0,8.398,0.064,16.799-0.025,25.197c-0.052,4.832-2.049,8.77-6.27,11.313
			c-5.67,3.412-13.772,1.826-17.216-4.922c-2.541-4.979-2.366-10.027,0.659-14.783c2.228-3.5,5.571-5.285,9.718-5.518
			c3.065-0.168,5.707,0.906,8.077,2.787c0.417,0.334,0.616,0.666,0.568,1.201C673.554,720.11,673.592,720.661,673.592,721.249z"/>
		<path d="M581.822,703.794c0.726,0,1.376,0,2.092,0c0,0.193,0,0.377,0,0.561c0,8.309-0.047,16.621,0.021,24.93
			c0.031,3.736,1.494,6.9,4.496,9.213c3.832,2.953,9.021,2.648,12.559-0.66c2.321-2.174,3.617-4.85,3.78-8.016
			c0.223-4.326-1.349-7.877-4.879-10.439c-3.908-2.84-9.054-2.352-12.704,1.121c-0.259,0.246-0.517,0.494-0.841,0.805
			c0-0.844-0.004-1.605,0.007-2.367c0.001-0.082,0.085-0.18,0.157-0.24c1.82-1.525,3.819-2.686,6.222-2.998
			c3.803-0.496,7.168,0.5,10.006,3.084c2.586,2.355,3.886,5.363,4.204,8.816c0.288,3.121-0.225,6.098-1.862,8.787
			c-2.577,4.23-6.396,6.268-11.354,6.098c-5.02-0.174-9.449-3.6-11.121-8.561c-0.523-1.551-0.785-3.145-0.784-4.783
			c0.003-8.268,0.001-16.535,0.001-24.803C581.822,704.169,581.822,703.997,581.822,703.794z"/>
		<path d="M610.777,716.13c0.708,0,1.37,0,2.074,0c0,0.199,0,0.371,0,0.541c0.003,5.16-0.024,10.318,0.02,15.477
			c0.032,3.797,2.533,7.111,5.977,8.064c4.588,1.271,9.112-1.398,10.221-6.063c0.192-0.813,0.293-1.662,0.298-2.496
			c0.028-4.971,0.015-9.939,0.015-14.908c0-0.188,0-0.375,0-0.604c0.697,0,1.368,0,2.081,0c0.007,0.158,0.02,0.314,0.02,0.469
			c0.001,5.16,0.059,10.318-0.017,15.475c-0.063,4.203-1.827,7.512-5.705,9.395c-4.609,2.236-11.057,0.977-13.807-4.379
			c-0.817-1.59-1.192-3.293-1.194-5.074c-0.006-5.189-0.002-10.375-0.001-15.564C610.755,716.362,610.768,716.263,610.777,716.13z"
			/>
		<path d="M712.74,741.946c-0.729,0-1.381,0-2.102,0c0-0.195,0-0.377,0-0.559c0-4.898,0-9.797,0-14.691
			c0.001-1.707-0.292-3.35-1.12-4.865c-1.679-3.072-4.819-4.643-8.356-4.193c-3.257,0.41-5.969,2.936-6.766,6.354
			c-0.177,0.758-0.271,1.551-0.274,2.326c-0.022,5.027-0.012,10.055-0.012,15.084c0,0.17,0,0.34,0,0.533c-0.708,0-1.369,0-2.096,0
			c0-0.154,0-0.309,0-0.461c0-5.203-0.006-10.404,0.001-15.605c0.008-5.059,3.262-9.105,8.215-10.086
			c5.668-1.121,11.305,2.102,12.345,8.449c0.115,0.701,0.156,1.418,0.158,2.127c0.013,5.041,0.007,10.084,0.007,15.125
			C712.74,741.628,712.74,741.767,712.74,741.946z"/>
		<path d="M648.482,741.937c-0.686,0-1.349,0-2.032,0c0-12.713,0-25.404,0-38.129c0.67,0,1.332,0,2.032,0
			C648.482,716.499,648.482,729.2,648.482,741.937z"/>
		<path d="M686.108,741.946c-0.683,0-1.333,0-2.023,0c0-8.6,0-17.189,0-25.813c0.662,0,1.323,0,2.023,0
			C686.108,724.722,686.108,733.313,686.108,741.946z"/>
		<path d="M637.578,716.13c0.668,0,1.33,0,2.027,0c0,8.6,0,17.189,0,25.805c-0.667,0-1.331,0-2.027,0
			C637.578,733.345,637.578,724.753,637.578,716.13z"/>
		<path d="M686.723,708.851c-0.009,0.947-0.712,1.635-1.663,1.623c-0.935-0.014-1.646-0.746-1.624-1.678
			c0.021-0.939,0.744-1.641,1.678-1.625C686.056,707.187,686.731,707.89,686.723,708.851z"/>
		<path d="M640.237,708.8c0.005,0.965-0.668,1.662-1.609,1.674c-0.948,0.01-1.698-0.732-1.685-1.666
			c0.014-0.906,0.73-1.621,1.634-1.635C639.516,707.157,640.232,707.86,640.237,708.8z"/>
	</g>
	<g>
		<g>
			<path fill="#1195A6" d="M547.805,761.8c4.902-4.951,9.731-9.826,14.556-14.695c-1.51-1.512-3.082-3.08-4.611-4.609
				c2.019-2.018,3.947-3.947,5.907-5.904c0.055,0.053,0.188,0.172,0.316,0.303c1.792,1.789,3.585,3.58,5.378,5.375
				c2.733,2.734,2.778,6.912,0.052,9.656c-5.578,5.602-11.17,11.193-16.776,16.771c-2.736,2.727-6.928,2.701-9.665-0.025
				c-4.672-4.662-9.338-9.326-13.996-13.998c-2.697-2.705-2.685-6.926,0.007-9.627c0.343-0.346,0.677-0.699,1.021-1.057
				C535.939,749.935,541.856,755.851,547.805,761.8z"/>
			<path fill="#A52388" d="M529.506,730.296c-5.979,5.977-11.896,11.896-17.789,17.787c4.883,4.881,9.733,9.738,14.599,14.6
				c1.533-1.541,3.103-3.119,4.627-4.65c2.003,2.004,3.933,3.934,5.89,5.887c-0.055,0.061-0.16,0.188-0.274,0.301
				c-1.815,1.816-3.63,3.633-5.448,5.447c-2.7,2.699-6.919,2.701-9.617,0.006c-5.603-5.602-11.206-11.207-16.809-16.811
				c-2.619-2.619-2.692-6.824-0.078-9.465c4.732-4.789,9.493-9.551,14.279-14.285c2.645-2.611,6.769-2.496,9.55,0.186
				C528.772,729.626,529.12,729.938,529.506,730.296z"/>
			<path fill="#00599C" d="M543.121,729.659c-5.928-5.928-11.836-11.836-17.705-17.705c-4.926,4.926-9.797,9.799-14.656,14.656
				c1.506,1.506,3.08,3.078,4.609,4.605c-1.99,1.992-3.92,3.922-5.884,5.885c-0.048-0.049-0.171-0.154-0.285-0.27
				c-1.794-1.789-3.586-3.58-5.377-5.375c-2.797-2.803-2.795-6.963,0.003-9.762c5.557-5.557,11.111-11.113,16.667-16.666
				c2.75-2.752,6.931-2.748,9.686,0.01c4.666,4.662,9.33,9.33,13.996,13.994c2.607,2.609,2.684,6.691,0.169,9.396
				C543.948,728.858,543.522,729.259,543.121,729.659z"/>
			<path fill="#E31F33" d="M543.705,743.37c5.954-5.951,11.86-11.859,17.75-17.75c-4.894-4.893-9.762-9.76-14.625-14.621
				c-1.528,1.537-3.098,3.113-4.639,4.66c-1.999-2.006-3.925-3.939-5.879-5.9c0.047-0.049,0.157-0.176,0.274-0.289
				c1.792-1.797,3.583-3.588,5.376-5.381c2.78-2.773,6.947-2.799,9.727-0.025c5.59,5.572,11.17,11.15,16.74,16.736
				c2.704,2.715,2.68,6.91-0.026,9.617c-4.668,4.666-9.331,9.332-14,13.994c-2.722,2.725-6.919,2.721-9.649-0.01
				C544.412,744.062,544.068,743.726,543.705,743.37z"/>
			<path fill="#A52388" d="M530.819,743.315c1.922-1.924,3.855-3.854,5.895-5.893c0.066,0.109,0.132,0.279,0.25,0.395
				c2.652,2.666,5.306,5.332,7.973,7.979c1.615,1.598,2.384,3.496,2.167,5.766c-0.138,1.486-0.752,2.771-1.755,3.863
				c-0.394,0.428-0.819,0.83-1.203,1.217C539.677,752.171,535.24,747.737,530.819,743.315z"/>
			<path fill="#00599C" d="M530.142,731.122c1.891,1.854,3.839,3.768,5.772,5.664c-0.026,0.08-0.028,0.119-0.048,0.137
				c-2.896,2.896-5.764,5.826-8.708,8.676c-2.569,2.484-6.651,2.42-9.249-0.059c-0.388-0.365-0.762-0.756-1.097-1.09
				C521.278,739.985,525.724,735.54,530.142,731.122z"/>
			<path fill="#E31F33" d="M536.513,736.12c-2.896-2.883-5.854-5.813-8.785-8.768c-0.744-0.75-1.229-1.68-1.483-2.707
				c-0.59-2.365-0.116-4.486,1.509-6.322c0.397-0.449,0.844-0.854,1.334-1.35c4.44,4.469,8.863,8.918,13.248,13.328
				C540.39,732.245,538.462,734.175,536.513,736.12z"/>
			<path fill="#1195A6" d="M556.375,729.253c-4.486,4.488-8.924,8.924-13.342,13.338c-1.902-1.906-3.83-3.842-5.888-5.9
				c0.121-0.072,0.312-0.137,0.439-0.268c2.699-2.686,5.392-5.383,8.088-8.072c2.801-2.807,6.957-2.801,9.76,0
				C555.74,728.655,556.062,728.95,556.375,729.253z"/>
		</g>
	</g>
</g>
<g>
	
		<text transform="matrix(0.9542 0 0 1 95.366 822.0557)" fill="#00527F" font-family="'TimesNewRomanPS-BoldMT'" font-size="19.4864">Open Geospatial Consortium</text>
</g>
<g id="logo">
	<path fill="#001F3D" d="M1250.363,688.216v15.965c-4.938-2.471-11.212-3.801-17.292-2.66c-1.521,0.189-3.23,1.52-3.423,3.229
		c0,1.521,0.381,3.232,1.711,3.801c6.841,2.662,15.584,3.613,19.386,10.645c3.8,7.412,3.421,18.434-1.332,25.465
		c-8.36,10.834-25.086,8.172-36.677,4.941v-16.912c6.081,3.229,13.682,5.889,21.093,3.039c1.902-0.76,2.281-3.039,1.902-4.941
		c-3.232-3.99-9.125-3.609-13.494-6.08c-7.222-3.039-10.263-10.641-9.882-18.434c-0.188-6.842,2.279-13.686,8.362-17.295
		C1229.839,684.606,1240.862,685.366,1250.363,688.216 M1194.681,687.647c14.439,5.701,13.491,22.805,13.302,36.297
		c-0.76,10.074-3.611,20.715-13.302,25.277c-10.452,3.039-23.376,1.711-33.828,1.711h-0.381v-64.426h0.569
		C1172.444,686.886,1184.036,685.558,1194.681,687.647z M1178.334,735.347c2.66,0,5.323,0.381,7.225-0.76
		c2.85-1.33,3.609-4.369,4.18-7.221c0.76-7.412,1.142-14.826-1.141-22.047c-1.521-4.18-6.651-3.609-10.263-3.42L1178.334,735.347
		L1178.334,735.347z"/>
	<path fill="#AEB2B1" d="M1097.758,686.696c0,0,11.212,9.691,23.184,0c0,0,11.404,9.691,23.186,0v14.254
		c0,0-9.501,9.502-23.186,0.189c0,0-10.073,9.313-22.994-0.189L1097.758,686.696z M1097.758,710.452c0,0,11.212,9.691,23.184,0
		c0,0,11.404,9.691,23.186,0v14.254c0,0-9.501,9.502-23.186,0.189c0,0-10.073,9.313-22.994-0.189L1097.758,710.452z
		 M1097.758,734.019c0,0,11.212,9.691,23.184,0c0,0,11.404,9.691,23.186,0v14.254c0,0-9.501,9.502-23.186,0.188
		c0,0-10.073,9.314-22.994-0.188L1097.758,734.019z M1268.035,686.507c0,0,11.215,9.693,23.188,0c0,0,11.4,9.693,23.187,0v14.256
		c0,0-9.503,9.502-23.187,0.188c0,0-10.073,9.314-22.994-0.188L1268.035,686.507z M1268.035,710.452c0,0,11.215,9.691,23.188,0
		c0,0,11.4,9.691,23.187,0v14.254c0,0-9.503,9.502-23.187,0.189c0,0-10.073,9.313-23.188-0.189V710.452z M1268.035,734.019
		c0,0,11.215,9.691,23.188,0c0,0,11.4,9.691,23.187,0v14.254c0,0-9.503,9.502-23.187,0.188c0,0-10.073,9.314-23.188-0.188V734.019z"
		/>
	<path fill="#001F3D" d="M1171.873,780.769l-3.229,5.891h-1.711v-5.891h-3.991v15.014h3.991v-6.08h1.711l3.418,6.08h4.372
		l-4.563-7.793l4.372-7.221H1171.873z M1188.407,790.841c0,0,1.9,1.521,3.802,1.521c0.761,0,1.709-0.189,1.709-1.141
		c0-1.711-7.41-1.711-7.41-6.082c0-2.66,2.471-4.371,5.701-4.371c3.421,0,5.32,1.711,5.32,1.711l-1.711,2.852
		c0,0-1.709-1.33-3.609-1.33c-0.76,0-1.712,0.379-1.712,1.141c0,1.898,7.413,1.52,7.413,6.082c0,2.469-2.092,4.561-5.701,4.561
		c-3.802,0-5.892-2.092-5.892-2.092L1188.407,790.841z M1149.257,790.841c0,0,1.9,1.521,3.802,1.521
		c0.762,0,1.711-0.189,1.711-1.141c0-1.711-7.411-1.711-7.411-6.082c0-2.66,2.47-4.371,5.7-4.371c3.42,0,5.323,1.711,5.323,1.711
		l-1.712,2.852c0,0-1.712-1.33-3.611-1.33c-0.758,0-1.707,0.379-1.707,1.141c0,1.898,7.409,1.52,7.409,6.082
		c0,2.469-2.091,4.561-5.702,4.561c-3.802,0-5.889-2.092-5.889-2.092L1149.257,790.841z M1201.332,780.769v3.23h4.75v11.783h3.802
		v-11.783h4.75v-3.23H1201.332z"/>
	<g>
		<g>
			<path fill="#001F3D" d="M1223.916,792.532h-4.368l-0.764,3.041h-3.608l4.751-14.824h3.61l4.751,14.824h-3.608L1223.916,792.532
				L1223.916,792.532z M1221.638,784.362c0,0-0.381,1.518-0.57,2.469l-0.762,2.852h2.852l-0.76-2.852
				C1222.017,785.88,1221.826,784.362,1221.638,784.362z M1233.038,780.749h3.421l3.802,6.842c0.571,0.951,1.141,2.475,1.141,2.475
				s-0.188-1.523-0.188-2.475v-6.842h3.423v14.824h-3.423l-3.99-6.842c-0.57-0.951-1.141-2.469-1.141-2.469s0.188,1.518,0.188,2.469
				v6.842h-3.421v-14.824H1233.038z M1131.934,780.749h3.425l3.802,6.842c0.568,0.951,1.14,2.475,1.14,2.475
				s-0.189-1.523-0.189-2.475v-6.842h3.42v14.824h-3.42l-3.993-6.842c-0.567-0.951-1.139-2.469-1.139-2.469s0.189,1.518,0.189,2.469
				v6.842h-3.421v-14.824H1131.934z M1251.475,780.749h4.939c4.372,0,7.225,2.662,7.225,7.414c0,4.561-2.853,7.41-7.225,7.41h-4.939
				V780.749z M1256.226,792.341c2.279,0,3.802-1.52,3.802-4.369c0-2.852-1.521-4.182-3.802-4.182h-1.33v8.551H1256.226z
				 M1276.367,792.532h-4.369l-0.76,3.041h-3.609l4.751-14.824h3.608l4.753,14.824h-3.611L1276.367,792.532z M1274.281,784.362
				c0,0-0.381,1.518-0.569,2.469l-0.761,2.852h2.851l-0.76-2.852C1274.658,785.88,1274.281,784.362,1274.281,784.362z
				 M1123.196,792.532h-4.372l-0.76,3.041h-3.612l4.754-14.824h3.609l4.75,14.824h-3.609L1123.196,792.532L1123.196,792.532z
				 M1121.106,784.362c0,0-0.382,1.518-0.573,2.469l-0.76,2.852h2.853l-0.763-2.852
				C1121.484,785.88,1121.106,784.362,1121.106,784.362z M1285.682,780.749h4.941c1.521,0,2.091,0.189,2.66,0.379
				c1.521,0.572,2.661,2.094,2.661,4.373c0,1.521-0.76,3.23-2.091,3.99c0,0,0.189,0.189,0.568,0.951l2.663,5.131h-3.803
				l-2.471-4.943h-1.52v4.943h-3.423v-14.824H1285.682z M1290.623,787.401c1.142,0,1.709-0.57,1.709-1.9
				c0-1.139-0.379-1.711-2.088-1.711h-1.141v3.611H1290.623L1290.623,787.401z M1302.217,780.749h4.939
				c4.372,0,7.223,2.662,7.223,7.414c0,4.561-2.851,7.41-7.223,7.41h-4.939V780.749z M1306.968,792.341
				c2.278,0,3.801-1.52,3.801-4.369c0-2.852-1.521-4.182-3.801-4.182h-1.33v8.551H1306.968z"/>
		</g>
	</g>
	<path fill="#001F3D" d="M1099.467,780.769h4.94c4.372,0,7.223,2.662,7.223,7.412c0,4.561-2.851,7.412-7.223,7.412h-4.94V780.769z
		 M1104.217,792.362c2.281,0,3.802-1.521,3.802-4.373c0-2.85-1.521-4.18-3.802-4.18h-1.328v8.553H1104.217L1104.217,792.362z"/>
</g>
<path id="path6894" fill="#0066A2" d="M1570.156,686.507v0.436l0.082,31.1h0.869c-0.028-3.029,1.63-7.025,4.236-10.213
	c2.606-3.186,6.14-5.541,9.833-5.541l19.8-0.025l-0.026,8.664l-18.851,0.055c-2.728,0.078-4.881,1.5-6.327,3.449
	c-1.448,1.949-2.232,4.438-2.229,6.709c0.005,2.387,0.735,4.781,2.198,6.627c1.464,1.844,3.697,3.111,6.574,3.232h18.577
	l0.108,8.475l-21.104,0.135c-0.009,0-0.019,0-0.026,0c-2.729-0.064-5.997-1.49-8.556-3.965c-2.567-2.484-4.434-5.982-4.455-10.16
	h-0.869l0.244,56.277v0.65l0.6-0.27c38.892-17.266,75.9-30.955,107.718-34.932l0.381-0.053v-0.383l-0.082-6.707v-0.436h-0.436
	l-7.495,0.055l0.082-17.846c-0.036-3.633-1.522-6.436-3.612-8.281c-2.09-1.848-4.768-2.783-7.279-2.771
	c-5.654,0.025-10.465,4.061-10.729,11.027v0.025l-0.056,17.791l-29.171,0.082c-5.333-0.146-9.515-2.9-12.412-6.652
	c-2.896-3.752-4.484-8.492-4.535-12.521c-0.043-3.373,1.29-8.039,4.318-11.789c3.023-3.744,7.726-6.611,14.503-6.572
	c0.011,0,0.02,0,0.027,0c6.465,0.111,10.731,2.807,13.391,7.115c2.601,4.219,3.606,10.039,3.423,16.404l-25.912-0.025h-0.435v0.436
	c0.01,1.299,0.747,2.604,1.738,3.639c0.99,1.035,2.223,1.813,3.396,1.955h0.026h0.025l23.276,0.137h0.436v-0.436l0.055-13.961
	v-0.025c-0.163-4.783,3.157-8.92,6.953-11.707c3.271-2.4,7.837-3.326,10.919-3.26c4.104,0.092,8.389,1.209,11.68,3.803
	c3.854,3.039,6.979,7.186,7.008,11.219h0.869l-0.082-30.42v-0.436h-0.434l-107.802-0.107h-0.433V686.507z M1620.567,711.032
	c-2.196-0.043-4.156,0.648-5.568,1.93c-1.41,1.281-2.25,3.145-2.228,5.352v0.434h0.435l14.886-0.025h0.435v-0.408
	c0.025-2.238-0.837-4.076-2.281-5.322C1624.798,711.741,1622.786,711.077,1620.567,711.032z M1687.299,753.757
	c-2.417,0.01-5.805,0.207-9.806,0.598c-8.002,0.781-18.438,2.336-28.301,4.646c-20.848,4.879-41.229,11.541-67.902,22.217
	c-3.765,1.508-10.031,3.744-15.345,5.703c-2.655,0.98-5.074,1.887-6.816,2.607c-0.871,0.361-1.57,0.666-2.064,0.924
	c-0.246,0.129-0.443,0.236-0.598,0.354c-0.077,0.061-0.15,0.127-0.218,0.219c-0.066,0.092-0.146,0.275-0.082,0.488
	c0.053,0.166,0.196,0.258,0.3,0.299c0.102,0.043,0.168,0.051,0.243,0.057c0.152,0.004,0.313-0.021,0.489-0.057
	c0.354-0.064,0.805-0.189,1.358-0.354c1.104-0.328,2.576-0.797,4.128-1.303c1.554-0.506,3.193-1.037,4.618-1.412
	c1.249-0.33,2.209-0.475,2.88-0.49v7.471v0.434h0.435l107.8-0.027h0.435v-0.434l-0.027-38.051c0.081-0.029,0.176-0.053,0.325-0.082
	c0.355-0.074,0.889-0.133,1.495-0.189c1.213-0.119,2.794-0.215,4.372-0.354s3.144-0.33,4.346-0.625
	c0.602-0.148,1.124-0.326,1.521-0.57c0.398-0.244,0.727-0.607,0.707-1.086v-0.027c-0.019-0.178-0.115-0.346-0.218-0.434
	c-0.101-0.09-0.236-0.146-0.353-0.191c-0.233-0.094-0.495-0.143-0.843-0.189C1689.484,753.796,1688.508,753.753,1687.299,753.757z"
	/>
<g id="g11" transform="matrix(1.25,0,0,-1.25,-260.66452,468.06343)">
	<g>
		<g id="XMLID_9_">
			<g>
				<path fill="#0066A2" d="M1667.226-210.508c2.205-6.058,1.964-14.144-1.659-19.525c-1.572-2.053-3.678-3.57-5.872-4.497
					l-0.208-0.097c-0.742-0.394-1.813-0.667-2.15-0.744c-1.802-0.512-3.658-0.819-5.523-0.916
					c-5.457-0.295-10.935,1.233-15.028,4.889c-2.271,2.248-3.526,5.13-4.061,8.217c-0.578,3.297-0.348,6.822,0.338,10.031
					c0.73,3.777,3.089,7.444,6.658,9.3c6.56,3.72,16.252,3.427,22.616-0.689C1664.53-206.055,1666.342-208.15,1667.226-210.508z
					 M1655.679-224.456c0.491,2.848,0.241,6.167,0.295,8.961c-0.155,1.32-0.098,2.795-0.841,3.919
					c-1.167,1.561-3.034,1.855-4.944,1.855c-1.802-0.141-3.809-0.633-4.552-2.544c-0.927-3.077-0.676-6.656-0.534-10.03
					c0.196-1.714,0.391-3.527,1.909-4.606c1.813-1.025,4.453-1.266,6.408-0.392C1654.641-226.847,1655.428-225.623,1655.679-224.456
					z"/>
				<path fill="#0066A2" d="M1631.449-224.205c0.544-4.269-1.42-8.231-5.086-10.281c-1.878-0.994-3.984-1.539-6.134-1.713
					c-3.602-0.328-7.367,0.369-10.554,1.713c-0.841,0.436-1.67,0.927-2.499,1.32l-0.098-2.347l-7.346-0.053
					c-0.065,1.789-0.087,3.7-0.087,5.631c0,2.313,0.034,4.637,0.087,6.798l6.613,0.053c0.394-0.489,0.634-1.078,1.027-1.569
					c3.329-3.514,8.317-4.497,12.923-3.231c0.338,0.197,0.785,0.448,0.785,0.884c0.099,0.545-0.49,0.983-0.938,1.18
					c-4.398,1.517-8.949,2.641-13.315,4.212c-3.177,1.223-6.505,3.809-7.138,7.334c-0.316,1.375-0.372,2.827-0.164,4.223
					c0.349,2.367,1.484,4.584,3.492,6.056c4.891,3.57,12.433,3.33,17.813,1.027l2.248-1.222c0.252,0.589,0.056,1.419,0.153,2.008
					c2.205,0.098,4.89,0.098,7.094,0.042c0.054-4.059,0.195-7.584,0.098-11.6c-2.347-0.089-4.844-0.045-6.995-0.045
					c-2.008,3.188-5.534,4.356-8.961,4.847c-1.615,0.053-3.766,0.534-4.693-1.08c-0.098-0.536,0.142-0.972,0.534-1.322l0.884-0.436
					l11.841-3.481c3.713-0.962,7.389-4.334,8.273-8.175C1631.372-223.681,1631.416-223.944,1631.449-224.205z"/>
				<path fill="#0066A2" d="M1652-239.236c0.491,0.045,1.135,0.045,1.573,0c-8.316-12.823-22.658-19.328-37.688-17.32
					c-4.355,0.58-8.47,1.955-12.334,3.863c0.098,0.045,0,0.142-0.043,0.142c-0.055,0-0.055-0.042-0.055-0.042
					c-5.73,2.881-11.21,7.781-14.734,13.359c0.589,0.055,0.981,0.097,1.571,0c2.052-3.089,4.792-6.014,7.727-8.273
					c1.376,0.633,2.697,1.517,4.017,2.303c-1.573,1.955-3.134,3.864-4.313,6.025c0.546-0.098,1.516,0.381,1.77-0.447
					c1.069-1.661,2.401-3.331,3.766-4.847l0.196-0.098c2.106,0.884,4.256,1.67,6.462,2.303l0.141,0.152l-1.223,2.881
					c0.35,0.153,0.885,0.055,1.375,0.055l1.321-2.598c2.838,0.578,5.773,0.928,8.807,1.07c0.295,0.491,0.045,0.939,0.143,1.516
					h1.276c0.197-0.38,0-1.025,0.152-1.461c2.935-0.197,6.113-0.536,9.005-1.18l1.32,2.641h1.32c-0.197-0.97-0.83-1.9-1.178-2.88
					l0.25-0.197c2.205-0.589,4.159-1.377,6.309-2.248c1.616,1.617,2.894,3.527,4.116,5.327h1.516
					c-1.178-2.095-2.695-4.005-4.258-5.916c1.169-0.786,2.489-1.419,3.711-2.205c0.098-0.141,0.395-0.197,0.491-0.044
					C1647.351-245.106,1649.948-242.213,1652-239.236z M1642.951-248.436c-1.177,0.831-2.443,1.573-3.764,2.106
					c-2.695-2.694-5.534-4.942-8.666-6.798l-0.098-0.153c0.338-0.294,0.688-0.591,1.081-0.784l2.291,0.741
					C1637.026-252.103,1640.212-250.641,1642.951-248.436z M1632.279-250.345c1.866,1.32,3.874,2.894,5.434,4.703
					c-1.855,0.93-3.863,1.616-5.97,2.106l-0.141-0.097c-1.375-2.6-2.948-5.042-4.705-7.444l-0.152-0.35l2.105-0.928
					C1630.03-251.764,1631.155-251.033,1632.279-250.345z M1630.171-243.295l-0.043,0.142c-2.598,0.645-5.381,0.939-8.174,0.983
					c-0.142-2.883-0.098-5.436,0-8.317l0.83-0.098c0.84-0.055,1.613-0.394,2.455-0.295
					C1627.094-248.478,1628.807-245.936,1630.171-243.295z M1629.102-254.7c0.098,0.098,0.491,0,0.339,0.295
					c-4.455,3.23-11.548,3.23-16.1,0.239c-0.152-0.141-0.491-0.184-0.391-0.436C1618.133-255.88,1623.907-255.824,1629.102-254.7z
					 M1620.479-250.444l-0.045,8.273c-2.739,0-5.38-0.394-7.923-0.884l-0.251-0.195c1.419-2.686,3.088-5.283,5.098-7.684
					C1618.329-250.683,1619.454-250.683,1620.479-250.444z M1613.538-252.397c0.688,0.392,1.516,0.634,2.205,1.025
					c-1.768,2.545-3.524,5.087-4.945,7.784l-0.195,0.053c-2.062-0.545-4.06-1.233-5.969-2.162v-0.141
					C1607.219-248.533,1610.308-250.783,1613.538-252.397z M1610.942-254.067c0.338,0.195,0.73,0.491,0.98,0.784
					c-3.134,2.009-6.025,4.117-8.819,6.898c-1.266-0.534-2.445-1.32-3.612-2.052v-0.141
					C1603.005-251.122,1606.826-252.986,1610.942-254.067z"/>
				<path fill="#0066A2" d="M1653.332-197.781c-0.491-0.241-0.982-0.045-1.572-0.045c-2.106,3.089-4.747,5.873-7.738,8.177
					l-0.48-0.198l-3.427-2.008v-0.241c0.829-0.883,1.517-1.725,2.15-2.652c0.787-0.928,1.518-2.009,2.108-3.078
					c-0.394-0.153-0.93-0.097-1.473-0.097c-1.266,1.855-2.686,3.764-4.202,5.38c-2.162-0.884-4.257-1.758-6.516-2.347l-0.098-0.098
					l1.223-2.837c-0.338-0.195-0.927-0.097-1.364-0.097l-1.321,2.542l-0.252,0.055c-2.739-0.688-5.719-0.983-8.555-1.134
					c-0.196-0.438,0-0.972-0.153-1.462h-1.321c-0.141,0.436,0.143,1.18-0.239,1.517c-3.034,0.098-6.026,0.438-8.863,1.08
					c-0.491-0.841-0.83-1.769-1.277-2.597c-0.534-0.056-0.873-0.098-1.418,0l1.221,2.836l-0.184,0.197
					c-2.162,0.589-4.213,1.419-6.319,2.205c-1.561-1.616-2.893-3.427-4.116-5.239c-0.479-0.098-1.123-0.153-1.462,0
					c1.125,2.052,2.685,3.963,4.214,5.872c-1.234,0.784-2.654,1.473-3.92,2.302c-1.375-0.884-2.543-2.063-3.819-3.284
					c-1.463-1.561-2.793-3.177-3.963-4.845c-0.491-0.197-1.08,0-1.57-0.044c6.755,10.423,17.571,16.545,29.315,17.473
					c0.644,0.044,1.277,0.097,1.813,0.044c1.419,0.153,3.034,0.097,4.354-0.044l0.098-0.098l0.056,0.098
					C1635.957-181.377,1646.772-187.797,1653.332-197.781z M1642.516-188.822l0.088,0.197c-3.516,2.542-7.389,4.398-11.494,5.48
					c-0.349-0.241-0.839-0.491-0.939-0.83c3.089-1.811,6.123-4.114,8.721-6.755h0.24L1642.516-188.822z M1637.376-191.516
					l0.098,0.152c-2.597,2.641-5.686,4.945-8.863,6.559c-0.731-0.392-1.56-0.689-2.248-1.081c1.855-2.5,3.525-5.086,5.042-7.684
					C1633.512-193.131,1635.465-192.347,1637.376-191.516z M1629.146-182.753v0.098c-5.129,1.319-11.253,1.222-16.438,0
					c0.045-0.338,0.535-0.436,0.775-0.633C1617.992-186.18,1624.89-185.886,1629.146-182.753z M1629.833-193.961
					c-1.276,2.695-3.133,5.195-5.041,7.639c-0.97-0.152-2.052-0.294-3.034-0.447c-0.044-2.684-0.098-5.578,0-8.175
					C1624.497-194.944,1627.193-194.594,1629.833-193.961z M1620.24-194.889c0,2.697,0.099,5.631-0.044,8.175l-3.132,0.438
					c-2.009-2.402-3.679-4.989-5.098-7.684c1.32-0.438,2.991-0.591,4.311-0.775C1617.642-194.836,1618.876-195.086,1620.24-194.889z
					 M1615.296-186.18l0.153,0.394c-0.743,0.337-1.474,0.589-2.206,0.884c-3.133-1.67-5.969-3.82-8.666-6.417l-0.099-0.295
					c1.866-0.83,3.82-1.462,5.829-2.009l0.196,0.055C1611.965-191.07,1613.44-188.527,1615.296-186.18z M1611.771-183.975
					c-0.241,0.241-0.579,0.438-0.873,0.689c-0.348,0.295-0.645-0.153-1.037-0.055v0.097c-0.197,0-0.295-0.142-0.436-0.294
					c-3.624-1.169-7.052-2.881-10.129-5.184v-0.097c1.168-0.83,2.401-1.572,3.72-2.053
					C1605.757-188.133,1608.737-185.886,1611.771-183.975z"/>
				<path fill="#0066A2" d="M1597.626-201.645c0.152-2.544,0.098-5.534,0.054-8.317l-4.846-0.053l-0.098-0.142l-0.054-17.18
					c1.572-0.197,3.383-0.055,4.999-0.142v-2.455v-5.631h-21.589c-0.099,2.694-0.099,5.336,0,8.086l4.847,0.088l0.054,0.688v16.645
					c-1.615,0.141-3.187,0.098-4.846,0.141c-0.055,2.642-0.055,5.677,0,8.273l3.035,0.055L1597.626-201.645z"/>
			</g>
		</g>
	</g>
</g>
</svg>
