<?xml version="1.0" encoding="utf-8"?>
<!-- Generator: Adobe Illustrator 16.0.0, SVG Export Plug-In . SVG Version: 6.00 Build 0)  -->
<!DOCTYPE svg PUBLIC "-//W3C//DTD SVG 1.1//EN" "http://www.w3.org/Graphics/SVG/1.1/DTD/svg11.dtd">
<svg version="1.1" id="Layer_1" xmlns="http://www.w3.org/2000/svg" xmlns:xlink="http://www.w3.org/1999/xlink" x="0px" y="0px"
	 width="1920px" height="1080px" viewBox="0 0 1920 1080" enable-background="new 0 0 1920 1080" xml:space="preserve">
<rect x="457.313" y="397.908" fill="#DBE4B5" width="347.127" height="300.471"/>
<g>
	<defs>
		<rect id="SVGID_1_" x="434.264" y="251.5" width="1049.475" height="451.823"/>
	</defs>
	<clipPath id="SVGID_2_">
		<use xlink:href="#SVGID_1_"  overflow="visible"/>
	</clipPath>
	
		<rect x="457.313" y="397.908" clip-path="url(#SVGID_2_)" fill="none" stroke="#010202" stroke-width="4.943" stroke-miterlimit="10" width="347.127" height="300.472"/>
</g>
<line fill="none" stroke="#010202" stroke-width="22.244" stroke-miterlimit="10" x1="873.45" y1="539.087" x2="1003.819" y2="539.087"/>
<polygon fill="#010202" points="987.59,594.54 1083.624,539.091 987.59,483.635 "/>
<polygon fill="none" stroke="#FFFFFF" stroke-width="17.301" stroke-miterlimit="10" points="537.409,531.701 630.852,439.506 
	724.344,531.701 724.344,638.206 537.409,638.206 "/>
<g>
	<defs>
		<rect id="SVGID_3_" x="434.264" y="251.5" width="1049.475" height="451.823"/>
	</defs>
	<clipPath id="SVGID_4_">
		<use xlink:href="#SVGID_3_"  overflow="visible"/>
	</clipPath>
	
		<rect x="1134.141" y="397.908" clip-path="url(#SVGID_4_)" fill="none" stroke="#010202" stroke-width="4.943" stroke-miterlimit="10" width="347.125" height="300.472"/>
</g>
<polygon fill="none" stroke="#010202" stroke-width="9.886" stroke-miterlimit="10" points="1214.167,567.364 1307.612,475.169 
	1401.1,567.364 1401.1,673.866 1214.167,673.866 "/>
<g>
	<defs>
		<rect id="SVGID_5_" x="434.264" y="251.5" width="1049.475" height="451.823"/>
	</defs>
	<clipPath id="SVGID_6_">
		<use xlink:href="#SVGID_5_"  overflow="visible"/>
	</clipPath>
	<path clip-path="url(#SVGID_6_)" fill="none" stroke="#BA1824" stroke-width="4.943" stroke-miterlimit="10" d="M1266.633,411.758
		c-14.666,16.492,0,29.404,0,29.404s16.939,14.295,0,31.778"/>
	<path clip-path="url(#SVGID_6_)" fill="none" stroke="#BA1824" stroke-width="4.943" stroke-miterlimit="10" d="M1345.784,411.758
		c-14.666,16.492,0,29.404,0,29.404s16.939,14.295,0,31.778"/>
	<path clip-path="url(#SVGID_6_)" fill="none" stroke="#BA1824" stroke-width="4.943" stroke-miterlimit="10" d="M1307.229,411.758
		c-11.74,13.205,0,23.539,0,23.539s13.561,11.44,0,25.439"/>
	<path clip-path="url(#SVGID_6_)" fill="#FFFFFF" d="M1227.311,651.413c0,2.15-1.742,3.893-3.891,3.893h-20.548
		c-2.15,0-3.893-1.742-3.893-3.893v-20.545c0-2.15,1.742-3.893,3.893-3.893h20.548c2.149,0,3.891,1.742,3.891,3.893V651.413z"/>
	<path clip-path="url(#SVGID_6_)" fill="none" stroke="#010202" stroke-width="2.472" stroke-miterlimit="10" d="M1227.311,651.413
		c0,2.15-1.742,3.893-3.891,3.893h-20.548c-2.15,0-3.893-1.742-3.893-3.893v-20.545c0-2.15,1.742-3.893,3.893-3.893h20.548
		c2.149,0,3.891,1.742,3.891,3.893V651.413z"/>
	<path clip-path="url(#SVGID_6_)" fill="#FFFFFF" d="M1227.311,684.067c0,2.152-1.742,3.895-3.891,3.895h-20.548
		c-2.15,0-3.893-1.742-3.893-3.895V663.52c0-2.146,1.742-3.891,3.893-3.891h20.548c2.149,0,3.891,1.744,3.891,3.891V684.067z"/>
	<path clip-path="url(#SVGID_6_)" fill="none" stroke="#010202" stroke-width="2.472" stroke-miterlimit="10" d="M1227.311,684.067
		c0,2.152-1.742,3.895-3.891,3.895h-20.548c-2.15,0-3.893-1.742-3.893-3.895V663.52c0-2.146,1.742-3.891,3.893-3.891h20.548
		c2.149,0,3.891,1.744,3.891,3.891V684.067z"/>
	<path clip-path="url(#SVGID_6_)" fill="#FFFFFF" d="M1260.116,651.413c0,2.15-1.742,3.893-3.893,3.893h-20.549
		c-2.148,0-3.889-1.742-3.889-3.893v-20.545c0-2.15,1.74-3.893,3.889-3.893h20.549c2.15,0,3.893,1.742,3.893,3.893V651.413z"/>
	<path clip-path="url(#SVGID_6_)" fill="none" stroke="#010202" stroke-width="2.472" stroke-miterlimit="10" d="M1260.116,651.413
		c0,2.15-1.742,3.893-3.893,3.893h-20.549c-2.148,0-3.889-1.742-3.889-3.893v-20.545c0-2.15,1.74-3.893,3.889-3.893h20.549
		c2.15,0,3.893,1.742,3.893,3.893V651.413z"/>
	<path clip-path="url(#SVGID_6_)" fill="#010202" d="M1214.321,673.793c0,0.723-0.582,1.307-1.303,1.307
		c-0.725,0-1.309-0.584-1.309-1.307c0-0.719,0.584-1.301,1.309-1.301C1213.739,672.493,1214.321,673.075,1214.321,673.793"/>
	<path clip-path="url(#SVGID_6_)" fill="none" stroke="#010202" stroke-width="2.472" stroke-miterlimit="10" d="M1214.321,673.793
		c0,0.723-0.582,1.307-1.303,1.307c-0.725,0-1.309-0.584-1.309-1.307c0-0.719,0.584-1.301,1.309-1.301
		C1213.739,672.493,1214.321,673.075,1214.321,673.793z"/>
	<path clip-path="url(#SVGID_6_)" fill="#FFFFFF" d="M1260.116,684.067c0,2.152-1.742,3.895-3.893,3.895h-20.549
		c-2.148,0-3.889-1.742-3.889-3.895V663.52c0-2.146,1.74-3.891,3.889-3.891h20.549c2.15,0,3.893,1.744,3.893,3.891V684.067z"/>
	<path clip-path="url(#SVGID_6_)" fill="none" stroke="#010202" stroke-width="2.472" stroke-miterlimit="10" d="M1260.116,684.067
		c0,2.152-1.742,3.895-3.893,3.895h-20.549c-2.148,0-3.889-1.742-3.889-3.895V663.52c0-2.146,1.74-3.891,3.889-3.891h20.549
		c2.15,0,3.893,1.744,3.893,3.891V684.067z"/>
	
		<line clip-path="url(#SVGID_6_)" fill="none" stroke="#010202" stroke-width="2.472" stroke-miterlimit="10" x1="1240.827" y1="641.139" x2="1251.065" y2="641.139"/>
	
		<line clip-path="url(#SVGID_6_)" fill="none" stroke="#010202" stroke-width="2.472" stroke-miterlimit="10" x1="1240.827" y1="673.793" x2="1251.065" y2="673.793"/>
	
		<line clip-path="url(#SVGID_6_)" fill="none" stroke="#010202" stroke-width="2.472" stroke-miterlimit="10" x1="1207.895" y1="641.139" x2="1218.135" y2="641.139"/>
	
		<line clip-path="url(#SVGID_6_)" fill="none" stroke="#010202" stroke-width="2.472" stroke-miterlimit="10" x1="1213.018" y1="636.022" x2="1213.018" y2="646.26"/>
	<path clip-path="url(#SVGID_6_)" fill="#010202" d="M1247.252,669.676c0,0.719-0.583,1.303-1.302,1.303
		c-0.725,0-1.311-0.584-1.311-1.303c0-0.723,0.586-1.307,1.311-1.307C1246.668,668.37,1247.252,668.954,1247.252,669.676"/>
	<path clip-path="url(#SVGID_6_)" fill="#010202" d="M1247.252,677.786c0,0.719-0.583,1.305-1.302,1.305
		c-0.725,0-1.311-0.586-1.311-1.305c0-0.721,0.586-1.305,1.311-1.305C1246.668,676.481,1247.252,677.065,1247.252,677.786"/>
	<path clip-path="url(#SVGID_6_)" fill="#010202" d="M663.573,372.284c10.189-0.289,18.994-8.764,18.994-19.018
		c0-10.447-8.494-18.952-18.941-18.952c-10.441,0-18.945,8.5-18.945,18.952C644.686,363.57,653.321,372.074,663.573,372.284
		l0.056,10.2c-14.49,0-26.541-10.588-28.845-24.436l-4.448,0.05h-2.9c-2.275,13.568-14.717,24.015-28.834,24.381l-0.092-10.286
		c10.242-0.233,19.033-8.641,19.033-18.947c0-10.442-8.496-18.937-18.947-18.937c-10.438,0-18.941,8.49-18.941,18.932
		c0,10.291,8.633,18.69,18.852,18.952l0.09,10.286c-14.164,0-26.004-10.128-28.67-23.524l-0.096-0.566h-11.622
		c-2.845,0-5.148-2.298-5.148-5.148c0-2.84,2.303-5.143,5.148-5.143h11.622l0.092-0.507c2.637-13.423,14.498-23.568,28.674-23.568
		c14.488,0,26.549,10.588,28.846,24.436h2.889l4.459-0.05c2.32-13.813,14.373-24.386,28.836-24.386
		c14.164,0,26.014,10.131,28.674,23.526l0.098,0.569h11.623c2.846,0,5.146,2.298,5.146,5.148c0,2.837-2.301,5.14-5.146,5.14h-11.623
		l-0.088,0.51c-2.602,13.212-14.783,23.257-28.68,23.568L663.573,372.284z"/>
	<path clip-path="url(#SVGID_6_)" fill="#010202" d="M692.694,315.711c-3.428,0-6.207-2.775-6.207-6.203
		c0-25.146-25.135-45.6-56.037-45.6c-30.9,0-56.041,20.457-56.041,45.6c0,3.428-2.775,6.203-6.207,6.203
		c-3.428,0-6.201-2.775-6.201-6.203c0-31.987,30.701-58.009,68.449-58.009c37.744,0,68.455,26.022,68.455,58.009
		C698.899,312.931,696.12,315.711,692.694,315.711"/>
	<polygon clip-path="url(#SVGID_6_)" fill="none" stroke="#FFFFFF" stroke-width="17.301" stroke-miterlimit="10" points="
		537.647,531.754 631.088,439.56 724.577,531.754 724.577,638.26 537.647,638.26 	"/>
	<path clip-path="url(#SVGID_6_)" fill="#FFFFFF" d="M475.895,548.196c0,18.439-8.215,33.389-18.346,33.389
		c-10.129,0-18.342-14.949-18.342-33.389c0-18.44,8.212-33.385,18.342-33.385C467.68,514.811,475.895,529.756,475.895,548.196"/>
	<path clip-path="url(#SVGID_6_)" fill="none" stroke="#010202" stroke-width="9.886" stroke-miterlimit="10" d="M475.895,548.196
		c0,18.439-8.215,33.389-18.346,33.389c-10.129,0-18.342-14.949-18.342-33.389c0-18.44,8.212-33.385,18.342-33.385
		C467.68,514.811,475.895,529.756,475.895,548.196z"/>
	<path clip-path="url(#SVGID_6_)" fill="#FFFFFF" d="M822.545,548.196c0,18.439-8.211,33.389-18.343,33.389
		c-10.129,0-18.344-14.949-18.344-33.389c0-18.44,8.215-33.385,18.344-33.385C814.334,514.811,822.545,529.756,822.545,548.196"/>
	
		<ellipse clip-path="url(#SVGID_6_)" fill="none" stroke="#010202" stroke-width="9.886" stroke-miterlimit="10" cx="804.202" cy="548.196" rx="18.343" ry="33.389"/>
</g>
<g>
	<path fill="#010202" d="M537.996,756.122l-4.1-10.701h-16.25l-4.15,10.701h-2l14.25-36.85l14.3,36.85H537.996z M525.746,724.471
		l-7.3,18.9h14.6L525.746,724.471z"/>
	<path fill="#010202" d="M554.646,738.522c-0.533-0.4-1.1-0.717-1.7-0.951c-0.6-0.232-1.234-0.35-1.9-0.35
		c-0.567,0-1.1,0.176-1.6,0.525s-0.934,0.783-1.3,1.299c-0.367,0.518-0.658,1.094-0.875,1.727s-0.325,1.217-0.325,1.75v13.6h-2.05
		v-20.65h2.05v2.801c0.433-0.768,1-1.467,1.7-2.102c0.7-0.633,1.467-0.949,2.3-0.949c1.033,0,1.883,0.117,2.55,0.35
		c0.667,0.234,1.417,0.65,2.25,1.25L554.646,738.522z"/>
	<path fill="#010202" d="M568.695,756.522c-3.067,0-5.617-1.018-7.65-3.051c-2.034-2.033-3.05-4.582-3.05-7.65
		c0-3.066,1.016-5.615,3.05-7.65c2.033-2.031,4.583-3.049,7.65-3.049c2.633,0,4.733,0.6,6.3,1.799v2.451l-1.3-0.85l-1.4-0.75
		c-1.267-0.434-2.467-0.65-3.6-0.65c-2.567,0-4.65,0.799-6.25,2.4c-1.633,1.633-2.45,3.732-2.45,6.299
		c0,2.533,0.816,4.617,2.45,6.25c1.633,1.635,3.717,2.451,6.25,2.451c2.4,0,4.5-0.801,6.3-2.4v2.549
		C573.128,755.905,571.028,756.522,568.695,756.522z"/>
	<path fill="#010202" d="M594.295,756.17v-12.449c0-4.367-2.034-6.551-6.1-6.551c-1.667,0-3.1,0.5-4.3,1.5
		c-1.234,1-1.85,2.334-1.85,4v13.451h-2.05v-37h2.05v19.1c1.233-2.033,3.283-3.051,6.15-3.051c5.433,0,8.15,2.785,8.15,8.352v12.648
		H594.295z"/>
	<path fill="#010202" d="M601.045,731.772c-0.367,0-0.75-0.15-1.15-0.451c-0.3-0.299-0.467-0.699-0.5-1.199
		c0-0.9,0.55-1.451,1.65-1.65c0.833,0,1.383,0.551,1.65,1.65C602.695,731.221,602.145,731.772,601.045,731.772z M599.995,756.122
		v-20.65h2.05v20.65H599.995z"/>
	<path fill="#010202" d="M611.944,737.522v18.6h-2.05v-18.6h-2.8v-2.051h2.8v-9.051h2.05v9.051h4.8v2.051H611.944z"/>
	<path fill="#010202" d="M621.745,745.372c0,2.799,0.75,5.018,2.25,6.65c1.566,1.666,3.716,2.5,6.45,2.5
		c1.4,0,2.667-0.234,3.8-0.701c1.433-0.6,2.716-1.816,3.85-3.65l1.85,0.852c-1.3,2.467-3.3,4.133-6,5c-1.034,0.332-2.2,0.5-3.5,0.5
		c-3.1,0-5.65-1.018-7.65-3.051c-2.034-2.033-3.05-4.582-3.05-7.65c0-3.1,1-5.65,3-7.65c2.033-2.031,4.6-3.049,7.7-3.049
		c3.066,0,5.6,0.949,7.6,2.85c2.033,1.9,3.05,4.367,3.05,7.4H621.745z M635.844,738.821c-1.567-1.133-3.367-1.699-5.4-1.699
		c-4.267,0-7.067,2.1-8.4,6.299h16.75C638.461,741.522,637.477,739.989,635.844,738.821z"/>
	<path fill="#010202" d="M655.594,756.522c-3.067,0-5.617-1.018-7.65-3.051c-2.034-2.033-3.05-4.582-3.05-7.65
		c0-3.066,1.016-5.615,3.05-7.65c2.033-2.031,4.583-3.049,7.65-3.049c2.633,0,4.733,0.6,6.3,1.799v2.451l-1.3-0.85l-1.4-0.75
		c-1.267-0.434-2.467-0.65-3.6-0.65c-2.567,0-4.65,0.799-6.25,2.4c-1.633,1.633-2.45,3.732-2.45,6.299
		c0,2.533,0.816,4.617,2.45,6.25c1.633,1.635,3.717,2.451,6.25,2.451c2.4,0,4.5-0.801,6.3-2.4v2.549
		C660.027,755.905,657.927,756.522,655.594,756.522z"/>
	<path fill="#010202" d="M670.843,737.522v18.6h-2.05v-18.6h-2.8v-2.051h2.8v-9.051h2.05v9.051h4.8v2.051H670.843z"/>
	<path fill="#010202" d="M693.394,754.321c-1.367,1.467-3.284,2.201-5.75,2.201c-2.434,0-4.317-0.717-5.65-2.15
		c-1.333-1.434-2-3.434-2-6v-12.9h2.05v12.9c0,1.967,0.433,3.482,1.3,4.549c0.9,1.068,2.333,1.602,4.3,1.602
		c3.833,0,5.75-2.051,5.75-6.15v-12.9h2v12.9C695.394,750.905,694.726,752.889,693.394,754.321z"/>
	<path fill="#010202" d="M711.442,738.522c-0.533-0.4-1.1-0.717-1.7-0.951c-0.6-0.232-1.234-0.35-1.9-0.35
		c-0.567,0-1.1,0.176-1.6,0.525s-0.934,0.783-1.3,1.299c-0.367,0.518-0.658,1.094-0.875,1.727s-0.325,1.217-0.325,1.75v13.6h-2.05
		v-20.65h2.05v2.801c0.433-0.768,1-1.467,1.7-2.102c0.7-0.633,1.467-0.949,2.3-0.949c1.033,0,1.883,0.117,2.55,0.35
		c0.667,0.234,1.417,0.65,2.25,1.25L711.442,738.522z"/>
	<path fill="#010202" d="M733.542,756.122v-3.551c-2.167,2.6-4.917,3.9-8.25,3.9c-3,0-5.517-1.016-7.55-3.051
		c-2.067-2.066-3.1-4.6-3.1-7.6s1.017-5.516,3.05-7.549c2.066-2.066,4.6-3.102,7.6-3.102c3.3,0,6.05,1.301,8.25,3.9v-3.6h2.05v20.65
		H733.542z M731.393,739.721c-1.7-1.699-3.733-2.551-6.1-2.551c-2.4,0-4.434,0.834-6.1,2.5c-1.7,1.701-2.55,3.75-2.55,6.15
		c0,2.367,0.85,4.4,2.55,6.1c1.7,1.701,3.733,2.551,6.1,2.551c2.4,0,4.433-0.832,6.1-2.5c1.7-1.699,2.55-3.75,2.55-6.15
		C733.942,743.456,733.093,741.42,731.393,739.721z"/>
	<path fill="#010202" d="M742.242,756.122v-37h2v37H742.242z"/>
</g>
<g>
	<path fill="#010202" d="M572.546,816.122v-3.701c-2.2,2.701-5,4.051-8.4,4.051c-3,0-5.517-1.016-7.55-3.051
		c-2.067-2.066-3.1-4.6-3.1-7.6s1.017-5.516,3.05-7.549c2.066-2.066,4.6-3.102,7.6-3.102c3.3,0,6.1,1.352,8.4,4.051v-20.1h2.05v37
		H572.546z M570.246,799.721c-1.7-1.699-3.733-2.551-6.1-2.551c-2.4,0-4.434,0.834-6.1,2.5c-1.7,1.701-2.55,3.75-2.55,6.15
		c0,2.367,0.85,4.4,2.55,6.1c1.7,1.701,3.732,2.551,6.1,2.551c2.4,0,4.433-0.832,6.1-2.5c1.7-1.699,2.55-3.75,2.55-6.15
		C572.796,803.456,571.946,801.42,570.246,799.721z"/>
	<path fill="#010202" d="M590.445,798.522c-0.533-0.4-1.1-0.717-1.7-0.951c-0.6-0.232-1.234-0.35-1.9-0.35
		c-0.567,0-1.1,0.176-1.6,0.525s-0.934,0.783-1.3,1.299c-0.367,0.518-0.658,1.094-0.875,1.727s-0.325,1.217-0.325,1.75v13.6h-2.05
		v-20.65h2.05v2.801c0.433-0.768,1-1.467,1.7-2.102c0.7-0.633,1.467-0.949,2.3-0.949c1.033,0,1.883,0.117,2.55,0.35
		c0.667,0.234,1.417,0.65,2.25,1.25L590.445,798.522z"/>
	<path fill="#010202" d="M612.545,816.122v-3.551c-2.167,2.6-4.917,3.9-8.25,3.9c-3,0-5.517-1.016-7.55-3.051
		c-2.067-2.066-3.1-4.6-3.1-7.6s1.017-5.516,3.05-7.549c2.066-2.066,4.6-3.102,7.6-3.102c3.3,0,6.05,1.301,8.25,3.9v-3.6h2.05v20.65
		H612.545z M610.396,799.721c-1.7-1.699-3.733-2.551-6.1-2.551c-2.4,0-4.434,0.834-6.1,2.5c-1.7,1.701-2.55,3.75-2.55,6.15
		c0,2.367,0.85,4.4,2.55,6.1c1.7,1.701,3.733,2.551,6.1,2.551c2.4,0,4.433-0.832,6.1-2.5c1.7-1.699,2.55-3.75,2.55-6.15
		C612.945,803.456,612.096,801.42,610.396,799.721z"/>
	<path fill="#010202" d="M641.095,817.022l-6.45-16.5l-6.55,16.5l-9.25-21.551h2.2l6.95,16l6.65-16.65l6.6,16.6l6.9-15.949h2.3
		L641.095,817.022z"/>
	<path fill="#010202" d="M656.295,791.772c-0.367,0-0.75-0.15-1.15-0.451c-0.3-0.299-0.467-0.699-0.5-1.199
		c0-0.9,0.55-1.451,1.65-1.65c0.833,0,1.383,0.551,1.65,1.65C657.945,791.221,657.395,791.772,656.295,791.772z M655.245,816.122
		v-20.65h2.05v20.65H655.245z"/>
	<path fill="#010202" d="M675.645,816.122v-12.35c0-4.367-1.967-6.551-5.9-6.551c-1.934,0-3.4,0.566-4.4,1.699
		c-1.034,1.135-1.55,2.684-1.55,4.65v12.551h-2.05v-20.65h2.05v2.5c0.933-1.832,2.917-2.75,5.95-2.75c2.566,0,4.533,0.734,5.9,2.199
		c1.366,1.469,2.05,3.518,2.05,6.15v12.551H675.645z"/>
	<path fill="#010202" d="M700.894,823.022c-1.867,1.865-4.317,2.799-7.35,2.799c-5.633,0-9-2.217-10.1-6.65h2.05
		c0.366,1.633,1.417,2.852,3.15,3.65c1.367,0.633,3,0.951,4.9,0.951c2.566,0,4.55-0.719,5.95-2.15c1.433-1.434,2.15-3.434,2.15-6
		v-3.051c-2.167,2.6-4.917,3.9-8.25,3.9c-3,0-5.517-1.016-7.55-3.051c-2.067-2.066-3.1-4.6-3.1-7.6s1.017-5.516,3.05-7.549
		c2.066-2.066,4.6-3.102,7.6-3.102c3.3,0,6.05,1.301,8.25,3.9v-3.6h2.05v20.199C703.694,818.704,702.76,821.155,700.894,823.022z
		 M699.494,799.721c-1.7-1.699-3.733-2.551-6.1-2.551c-2.4,0-4.434,0.834-6.1,2.5c-1.7,1.701-2.55,3.75-2.55,6.15
		c0,2.367,0.85,4.4,2.55,6.1c1.7,1.701,3.733,2.551,6.1,2.551c2.4,0,4.433-0.832,6.1-2.5c1.7-1.699,2.55-3.75,2.55-6.15
		C702.043,803.456,701.194,801.42,699.494,799.721z"/>
</g>
<g>
	<path fill="#010202" d="M1242.746,756.122v-18.6h-19.65v18.6h-2V720.42h2v15.051h19.65V720.42h2.05v35.701H1242.746z"/>
	<path fill="#010202" d="M1251.746,745.372c0,2.799,0.75,5.018,2.25,6.65c1.566,1.666,3.716,2.5,6.45,2.5
		c1.399,0,2.666-0.234,3.8-0.701c1.433-0.6,2.716-1.816,3.85-3.65l1.851,0.852c-1.301,2.467-3.301,4.133-6,5
		c-1.034,0.332-2.2,0.5-3.5,0.5c-3.101,0-5.65-1.018-7.65-3.051c-2.033-2.033-3.05-4.582-3.05-7.65c0-3.1,1-5.65,3-7.65
		c2.032-2.031,4.6-3.049,7.7-3.049c3.066,0,5.6,0.949,7.6,2.85c2.033,1.9,3.05,4.367,3.05,7.4H1251.746z M1265.845,738.821
		c-1.567-1.133-3.367-1.699-5.399-1.699c-4.268,0-7.067,2.1-8.4,6.299h16.75C1268.461,741.522,1267.478,739.989,1265.845,738.821z"
		/>
	<path fill="#010202" d="M1293.196,756.122v-3.551c-2.168,2.6-4.918,3.9-8.25,3.9c-3,0-5.518-1.016-7.551-3.051
		c-2.066-2.066-3.1-4.6-3.1-7.6s1.017-5.516,3.05-7.549c2.066-2.066,4.601-3.102,7.601-3.102c3.3,0,6.05,1.301,8.25,3.9v-3.6h2.05
		v20.65H1293.196z M1291.045,739.721c-1.7-1.699-3.733-2.551-6.1-2.551c-2.4,0-4.434,0.834-6.101,2.5
		c-1.7,1.701-2.55,3.75-2.55,6.15c0,2.367,0.85,4.4,2.55,6.1c1.7,1.701,3.733,2.551,6.101,2.551c2.399,0,4.433-0.832,6.1-2.5
		c1.7-1.699,2.55-3.75,2.55-6.15C1293.595,743.456,1292.746,741.42,1291.045,739.721z"/>
	<path fill="#010202" d="M1304.446,737.522v18.6h-2.051v-18.6h-2.8v-2.051h2.8v-9.051h2.051v9.051h4.8v2.051H1304.446z"/>
	<path fill="#010202" d="M1327.144,756.122v-37h2v37H1327.144z"/>
	<path fill="#010202" d="M1352.894,753.372c-2.067,2.066-4.6,3.1-7.6,3.1s-5.518-1.016-7.551-3.051c-2.066-2.066-3.1-4.6-3.1-7.6
		c0-2.967,1.033-5.482,3.1-7.549c2.033-2.102,4.551-3.15,7.551-3.15c2.966,0,5.482,1.033,7.55,3.1c2.066,2.066,3.1,4.6,3.1,7.6
		S1354.927,751.338,1352.894,753.372z M1351.444,739.67c-1.667-1.699-3.717-2.549-6.149-2.549c-2.334,0-4.351,0.867-6.051,2.6
		c-1.733,1.734-2.6,3.768-2.6,6.1c0,2.367,0.85,4.4,2.55,6.1c1.7,1.701,3.733,2.551,6.101,2.551c2.399,0,4.433-0.832,6.1-2.5
		c1.7-1.699,2.55-3.75,2.55-6.15C1353.944,743.389,1353.111,741.338,1351.444,739.67z"/>
	<path fill="#010202" d="M1371.244,754.821c-1.334,1.135-2.934,1.701-4.8,1.701c-3.2,0-5.601-1.451-7.2-4.352l1.75-1.049
		c0.566,1.033,1.25,1.834,2.05,2.4c0.833,0.633,1.967,0.949,3.4,0.949c3.133,0,4.699-1.332,4.699-4c0-1.166-0.55-2.184-1.649-3.051
		c-0.334-0.199-0.809-0.424-1.425-0.674c-0.617-0.25-1.375-0.541-2.275-0.875c-1.667-0.6-2.867-1.201-3.6-1.801
		c-1.067-0.865-1.601-2.115-1.601-3.75c0-1.4,0.533-2.6,1.601-3.6c1.032-1.033,2.383-1.551,4.05-1.551c2.3,0,4.25,0.801,5.85,2.4
		l-1.5,1.301c-1.134-1.133-2.583-1.701-4.35-1.701c-2.4,0-3.601,1.051-3.601,3.15c0,0.934,0.367,1.701,1.101,2.301
		c0.6,0.467,1.55,0.916,2.85,1.35c1.133,0.4,2.066,0.775,2.8,1.125s1.283,0.658,1.65,0.926c1.433,1.1,2.15,2.582,2.15,4.449
		C1373.194,752.272,1372.543,753.721,1371.244,754.821z"/>
	<path fill="#010202" d="M1387.793,754.821c-1.334,1.135-2.934,1.701-4.8,1.701c-3.2,0-5.601-1.451-7.2-4.352l1.75-1.049
		c0.566,1.033,1.25,1.834,2.05,2.4c0.833,0.633,1.967,0.949,3.4,0.949c3.133,0,4.699-1.332,4.699-4c0-1.166-0.55-2.184-1.649-3.051
		c-0.334-0.199-0.809-0.424-1.425-0.674c-0.617-0.25-1.375-0.541-2.275-0.875c-1.667-0.6-2.867-1.201-3.6-1.801
		c-1.067-0.865-1.601-2.115-1.601-3.75c0-1.4,0.533-2.6,1.601-3.6c1.032-1.033,2.383-1.551,4.05-1.551c2.3,0,4.25,0.801,5.85,2.4
		l-1.5,1.301c-1.134-1.133-2.583-1.701-4.35-1.701c-2.4,0-3.601,1.051-3.601,3.15c0,0.934,0.367,1.701,1.101,2.301
		c0.6,0.467,1.55,0.916,2.85,1.35c1.133,0.4,2.066,0.775,2.8,1.125s1.283,0.658,1.65,0.926c1.433,1.1,2.15,2.582,2.15,4.449
		C1389.744,752.272,1389.093,753.721,1387.793,754.821z"/>
</g>
<g>
	<path fill="#010202" d="M1219.095,816.522c-3.067,0-5.617-1.018-7.649-3.051c-2.034-2.033-3.051-4.582-3.051-7.65
		c0-3.066,1.017-5.615,3.051-7.65c2.032-2.031,4.582-3.049,7.649-3.049c2.633,0,4.733,0.6,6.3,1.799v2.451l-1.3-0.85l-1.399-0.75
		c-1.268-0.434-2.468-0.65-3.601-0.65c-2.567,0-4.649,0.799-6.25,2.4c-1.634,1.633-2.45,3.732-2.45,6.299
		c0,2.533,0.816,4.617,2.45,6.25c1.633,1.635,3.717,2.451,6.25,2.451c2.4,0,4.5-0.801,6.3-2.4v2.549
		C1223.528,815.905,1221.428,816.522,1219.095,816.522z"/>
	<path fill="#010202" d="M1245.545,816.122v-3.551c-2.168,2.6-4.918,3.9-8.25,3.9c-3,0-5.518-1.016-7.551-3.051
		c-2.066-2.066-3.1-4.6-3.1-7.6s1.017-5.516,3.05-7.549c2.066-2.066,4.601-3.102,7.601-3.102c3.3,0,6.05,1.301,8.25,3.9v-3.6h2.05
		v20.65H1245.545z M1243.395,799.721c-1.7-1.699-3.733-2.551-6.1-2.551c-2.4,0-4.434,0.834-6.101,2.5
		c-1.7,1.701-2.55,3.75-2.55,6.15c0,2.367,0.85,4.4,2.55,6.1c1.7,1.701,3.733,2.551,6.101,2.551c2.399,0,4.433-0.832,6.1-2.5
		c1.7-1.699,2.55-3.75,2.55-6.15C1245.945,803.456,1245.095,801.42,1243.395,799.721z"/>
	<path fill="#010202" d="M1254.245,816.122v-37h2v37H1254.245z"/>
	<path fill="#010202" d="M1273.044,816.522c-3.067,0-5.617-1.018-7.649-3.051c-2.034-2.033-3.051-4.582-3.051-7.65
		c0-3.066,1.017-5.615,3.051-7.65c2.032-2.031,4.582-3.049,7.649-3.049c2.633,0,4.733,0.6,6.3,1.799v2.451l-1.3-0.85l-1.399-0.75
		c-1.268-0.434-2.468-0.65-3.601-0.65c-2.567,0-4.649,0.799-6.25,2.4c-1.634,1.633-2.45,3.732-2.45,6.299
		c0,2.533,0.816,4.617,2.45,6.25c1.633,1.635,3.717,2.451,6.25,2.451c2.4,0,4.5-0.801,6.3-2.4v2.549
		C1277.477,815.905,1275.377,816.522,1273.044,816.522z"/>
	<path fill="#010202" d="M1295.544,814.321c-1.367,1.467-3.284,2.201-5.75,2.201c-2.434,0-4.317-0.717-5.65-2.15s-2-3.434-2-6v-12.9
		h2.05v12.9c0,1.967,0.434,3.482,1.301,4.549c0.899,1.068,2.332,1.602,4.3,1.602c3.833,0,5.75-2.051,5.75-6.15v-12.9h2v12.9
		C1297.544,810.905,1296.877,812.889,1295.544,814.321z"/>
	<path fill="#010202" d="M1301.943,816.122v-37h2v37H1301.943z"/>
	<path fill="#010202" d="M1328.343,816.122v-3.551c-2.168,2.6-4.918,3.9-8.25,3.9c-3,0-5.518-1.016-7.551-3.051
		c-2.066-2.066-3.1-4.6-3.1-7.6s1.017-5.516,3.05-7.549c2.066-2.066,4.601-3.102,7.601-3.102c3.3,0,6.05,1.301,8.25,3.9v-3.6h2.05
		v20.65H1328.343z M1326.193,799.721c-1.7-1.699-3.733-2.551-6.1-2.551c-2.4,0-4.434,0.834-6.101,2.5
		c-1.7,1.701-2.55,3.75-2.55,6.15c0,2.367,0.85,4.4,2.55,6.1c1.7,1.701,3.733,2.551,6.101,2.551c2.399,0,4.433-0.832,6.1-2.5
		c1.7-1.699,2.55-3.75,2.55-6.15C1328.743,803.456,1327.893,801.42,1326.193,799.721z"/>
	<path fill="#010202" d="M1339.593,797.522v18.6h-2.051v-18.6h-2.8v-2.051h2.8v-9.051h2.051v9.051h4.8v2.051H1339.593z"/>
	<path fill="#010202" d="M1350.393,791.772c-0.367,0-0.75-0.15-1.15-0.451c-0.3-0.299-0.467-0.699-0.5-1.199
		c0-0.9,0.55-1.451,1.65-1.65c0.833,0,1.383,0.551,1.649,1.65C1352.042,791.221,1351.493,791.772,1350.393,791.772z
		 M1349.343,816.122v-20.65h2.05v20.65H1349.343z"/>
	<path fill="#010202" d="M1374.892,813.372c-2.067,2.066-4.6,3.1-7.6,3.1s-5.518-1.016-7.551-3.051c-2.066-2.066-3.1-4.6-3.1-7.6
		c0-2.967,1.033-5.482,3.1-7.549c2.033-2.102,4.551-3.15,7.551-3.15c2.966,0,5.482,1.033,7.55,3.1c2.066,2.066,3.1,4.6,3.1,7.6
		S1376.925,811.338,1374.892,813.372z M1373.442,799.67c-1.667-1.699-3.717-2.549-6.149-2.549c-2.334,0-4.351,0.867-6.051,2.6
		c-1.733,1.734-2.6,3.768-2.6,6.1c0,2.367,0.85,4.4,2.55,6.1c1.7,1.701,3.733,2.551,6.101,2.551c2.399,0,4.433-0.832,6.1-2.5
		c1.7-1.699,2.55-3.75,2.55-6.15C1375.942,803.389,1375.109,801.338,1373.442,799.67z"/>
	<path fill="#010202" d="M1396.992,816.122v-12.35c0-4.367-1.968-6.551-5.9-6.551c-1.934,0-3.399,0.566-4.399,1.699
		c-1.034,1.135-1.551,2.684-1.551,4.65v12.551h-2.05v-20.65h2.05v2.5c0.934-1.832,2.917-2.75,5.95-2.75
		c2.566,0,4.533,0.734,5.9,2.199c1.366,1.469,2.05,3.518,2.05,6.15v12.551H1396.992z"/>
</g>
</svg>
