<?xml version="1.0" encoding="utf-8"?>
<!-- Generator: Adobe Illustrator 16.0.0, SVG Export Plug-In . SVG Version: 6.00 Build 0)  -->
<!DOCTYPE svg PUBLIC "-//W3C//DTD SVG 1.1//EN" "http://www.w3.org/Graphics/SVG/1.1/DTD/svg11.dtd">
<svg version="1.1" id="Layer_1" xmlns="http://www.w3.org/2000/svg" xmlns:xlink="http://www.w3.org/1999/xlink" x="0px" y="0px"
	 width="1920px" height="1080px" viewBox="0 0 1920 1080" enable-background="new 0 0 1920 1080" xml:space="preserve">
<rect x="457.313" y="397.908" fill="#40736C" width="347.127" height="300.471"/>
<g>
	<defs>
		<rect id="SVGID_37_" x="434.264" y="251.5" width="1049.476" height="451.823"/>
	</defs>
	<clipPath id="SVGID_2_">
		<use xlink:href="#SVGID_37_"  overflow="visible"/>
	</clipPath>
	
		<rect x="457.313" y="397.908" clip-path="url(#SVGID_2_)" fill="none" stroke="#010202" stroke-width="4.943" stroke-miterlimit="10" width="347.127" height="300.472"/>
</g>
<line fill="none" stroke="#010202" stroke-width="22.244" stroke-miterlimit="10" x1="873.449" y1="539.087" x2="1003.819" y2="539.087"/>
<polygon fill="#010202" points="987.59,594.54 1083.624,539.091 987.59,483.635 "/>
<polygon fill="none" stroke="#FFFFFF" stroke-width="17.301" stroke-miterlimit="10" points="537.408,531.701 630.852,439.506 
	724.344,531.701 724.344,638.206 537.408,638.206 "/>
<g>
	<defs>
		<rect id="SVGID_39_" x="434.264" y="251.5" width="1049.476" height="451.823"/>
	</defs>
	<clipPath id="SVGID_4_">
		<use xlink:href="#SVGID_39_"  overflow="visible"/>
	</clipPath>
	
		<rect x="1134.141" y="397.908" clip-path="url(#SVGID_4_)" fill="none" stroke="#010202" stroke-width="4.943" stroke-miterlimit="10" width="347.125" height="300.472"/>
</g>
<polygon fill="none" stroke="#010202" stroke-width="9.886" stroke-miterlimit="10" points="1214.167,567.364 1307.612,475.169 
	1401.101,567.364 1401.101,673.866 1214.167,673.866 "/>
<g>
	<defs>
		<rect id="SVGID_41_" x="434.264" y="251.5" width="1049.476" height="451.823"/>
	</defs>
	<clipPath id="SVGID_6_">
		<use xlink:href="#SVGID_41_"  overflow="visible"/>
	</clipPath>
	<path clip-path="url(#SVGID_6_)" fill="none" stroke="#BA1824" stroke-width="4.943" stroke-miterlimit="10" d="M1266.634,411.758
		c-14.666,16.492,0,29.404,0,29.404s16.939,14.295,0,31.778"/>
	<path clip-path="url(#SVGID_6_)" fill="none" stroke="#BA1824" stroke-width="4.943" stroke-miterlimit="10" d="M1345.784,411.758
		c-14.666,16.492,0,29.404,0,29.404s16.939,14.295,0,31.778"/>
	<path clip-path="url(#SVGID_6_)" fill="none" stroke="#BA1824" stroke-width="4.943" stroke-miterlimit="10" d="M1307.229,411.758
		c-11.74,13.205,0,23.539,0,23.539s13.561,11.44,0,25.439"/>
	<path clip-path="url(#SVGID_6_)" fill="#FFFFFF" d="M1227.312,651.413c0,2.15-1.742,3.893-3.891,3.893h-20.549
		c-2.15,0-3.893-1.742-3.893-3.893v-20.545c0-2.15,1.742-3.893,3.893-3.893h20.549c2.148,0,3.891,1.742,3.891,3.893V651.413z"/>
	<path clip-path="url(#SVGID_6_)" fill="none" stroke="#010202" stroke-width="2.472" stroke-miterlimit="10" d="M1227.312,651.413
		c0,2.15-1.742,3.893-3.891,3.893h-20.549c-2.15,0-3.893-1.742-3.893-3.893v-20.545c0-2.15,1.742-3.893,3.893-3.893h20.549
		c2.148,0,3.891,1.742,3.891,3.893V651.413z"/>
	<path clip-path="url(#SVGID_6_)" fill="#FFFFFF" d="M1227.312,684.067c0,2.152-1.742,3.895-3.891,3.895h-20.549
		c-2.15,0-3.893-1.742-3.893-3.895V663.52c0-2.146,1.742-3.891,3.893-3.891h20.549c2.148,0,3.891,1.744,3.891,3.891V684.067z"/>
	<path clip-path="url(#SVGID_6_)" fill="none" stroke="#010202" stroke-width="2.472" stroke-miterlimit="10" d="M1227.312,684.067
		c0,2.152-1.742,3.895-3.891,3.895h-20.549c-2.15,0-3.893-1.742-3.893-3.895V663.52c0-2.146,1.742-3.891,3.893-3.891h20.549
		c2.148,0,3.891,1.744,3.891,3.891V684.067z"/>
	<path clip-path="url(#SVGID_6_)" fill="#FFFFFF" d="M1260.116,651.413c0,2.15-1.742,3.893-3.893,3.893h-20.549
		c-2.148,0-3.889-1.742-3.889-3.893v-20.545c0-2.15,1.74-3.893,3.889-3.893h20.549c2.15,0,3.893,1.742,3.893,3.893V651.413z"/>
	<path clip-path="url(#SVGID_6_)" fill="none" stroke="#010202" stroke-width="2.472" stroke-miterlimit="10" d="M1260.116,651.413
		c0,2.15-1.742,3.893-3.893,3.893h-20.549c-2.148,0-3.889-1.742-3.889-3.893v-20.545c0-2.15,1.74-3.893,3.889-3.893h20.549
		c2.15,0,3.893,1.742,3.893,3.893V651.413z"/>
	<path clip-path="url(#SVGID_6_)" fill="#010202" d="M1214.321,673.793c0,0.723-0.582,1.307-1.303,1.307
		c-0.725,0-1.309-0.584-1.309-1.307c0-0.719,0.584-1.301,1.309-1.301C1213.739,672.493,1214.321,673.075,1214.321,673.793"/>
	<path clip-path="url(#SVGID_6_)" fill="none" stroke="#010202" stroke-width="2.472" stroke-miterlimit="10" d="M1214.321,673.793
		c0,0.723-0.582,1.307-1.303,1.307c-0.725,0-1.309-0.584-1.309-1.307c0-0.719,0.584-1.301,1.309-1.301
		C1213.739,672.493,1214.321,673.075,1214.321,673.793z"/>
	<path clip-path="url(#SVGID_6_)" fill="#FFFFFF" d="M1260.116,684.067c0,2.152-1.742,3.895-3.893,3.895h-20.549
		c-2.148,0-3.889-1.742-3.889-3.895V663.52c0-2.146,1.74-3.891,3.889-3.891h20.549c2.15,0,3.893,1.744,3.893,3.891V684.067z"/>
	<path clip-path="url(#SVGID_6_)" fill="none" stroke="#010202" stroke-width="2.472" stroke-miterlimit="10" d="M1260.116,684.067
		c0,2.152-1.742,3.895-3.893,3.895h-20.549c-2.148,0-3.889-1.742-3.889-3.895V663.52c0-2.146,1.74-3.891,3.889-3.891h20.549
		c2.15,0,3.893,1.744,3.893,3.891V684.067z"/>
	
		<line clip-path="url(#SVGID_6_)" fill="none" stroke="#010202" stroke-width="2.472" stroke-miterlimit="10" x1="1240.827" y1="641.139" x2="1251.065" y2="641.139"/>
	
		<line clip-path="url(#SVGID_6_)" fill="none" stroke="#010202" stroke-width="2.472" stroke-miterlimit="10" x1="1240.827" y1="673.793" x2="1251.065" y2="673.793"/>
	
		<line clip-path="url(#SVGID_6_)" fill="none" stroke="#010202" stroke-width="2.472" stroke-miterlimit="10" x1="1207.895" y1="641.139" x2="1218.136" y2="641.139"/>
	
		<line clip-path="url(#SVGID_6_)" fill="none" stroke="#010202" stroke-width="2.472" stroke-miterlimit="10" x1="1213.019" y1="636.022" x2="1213.019" y2="646.26"/>
	<path clip-path="url(#SVGID_6_)" fill="#010202" d="M1247.253,669.676c0,0.719-0.584,1.303-1.303,1.303
		c-0.725,0-1.311-0.584-1.311-1.303c0-0.723,0.586-1.307,1.311-1.307C1246.669,668.37,1247.253,668.954,1247.253,669.676"/>
	<path clip-path="url(#SVGID_6_)" fill="#010202" d="M1247.253,677.786c0,0.719-0.584,1.305-1.303,1.305
		c-0.725,0-1.311-0.586-1.311-1.305c0-0.721,0.586-1.305,1.311-1.305C1246.669,676.481,1247.253,677.065,1247.253,677.786"/>
	<path clip-path="url(#SVGID_6_)" fill="#010202" d="M663.572,372.284c10.189-0.289,18.994-8.764,18.994-19.018
		c0-10.447-8.494-18.952-18.941-18.952c-10.441,0-18.945,8.5-18.945,18.952C644.686,363.57,653.32,372.074,663.572,372.284
		l0.057,10.2c-14.49,0-26.541-10.588-28.846-24.436l-4.447,0.05h-2.9c-2.275,13.568-14.717,24.015-28.834,24.381l-0.092-10.286
		c10.242-0.233,19.033-8.641,19.033-18.947c0-10.442-8.496-18.937-18.947-18.937c-10.438,0-18.941,8.49-18.941,18.932
		c0,10.291,8.633,18.69,18.852,18.952l0.09,10.286c-14.164,0-26.004-10.128-28.67-23.524l-0.096-0.566h-11.621
		c-2.846,0-5.148-2.298-5.148-5.148c0-2.84,2.303-5.143,5.148-5.143h11.621l0.092-0.507c2.637-13.423,14.498-23.568,28.674-23.568
		c14.488,0,26.549,10.588,28.846,24.436h2.889l4.459-0.05c2.32-13.813,14.373-24.386,28.836-24.386
		c14.164,0,26.014,10.131,28.674,23.526l0.098,0.569h11.623c2.846,0,5.146,2.298,5.146,5.148c0,2.837-2.301,5.14-5.146,5.14h-11.623
		l-0.088,0.51c-2.602,13.212-14.783,23.257-28.68,23.568L663.572,372.284z"/>
	<path clip-path="url(#SVGID_6_)" fill="#010202" d="M692.693,315.711c-3.428,0-6.207-2.775-6.207-6.203
		c0-25.146-25.135-45.6-56.037-45.6c-30.9,0-56.041,20.457-56.041,45.6c0,3.428-2.775,6.203-6.207,6.203
		c-3.428,0-6.201-2.775-6.201-6.203c0-31.987,30.701-58.009,68.449-58.009c37.744,0,68.455,26.022,68.455,58.009
		C698.898,312.931,696.119,315.711,692.693,315.711"/>
	<polygon clip-path="url(#SVGID_6_)" fill="none" stroke="#FFFFFF" stroke-width="17.301" stroke-miterlimit="10" points="
		537.646,531.754 631.088,439.56 724.576,531.754 724.576,638.26 537.646,638.26 	"/>
	<path clip-path="url(#SVGID_6_)" fill="#FFFFFF" d="M475.895,548.196c0,18.439-8.215,33.389-18.346,33.389
		c-10.129,0-18.342-14.949-18.342-33.389c0-18.44,8.213-33.385,18.342-33.385C467.68,514.811,475.895,529.756,475.895,548.196"/>
	<path clip-path="url(#SVGID_6_)" fill="none" stroke="#010202" stroke-width="9.886" stroke-miterlimit="10" d="M475.895,548.196
		c0,18.439-8.215,33.389-18.346,33.389c-10.129,0-18.342-14.949-18.342-33.389c0-18.44,8.213-33.385,18.342-33.385
		C467.68,514.811,475.895,529.756,475.895,548.196z"/>
	<path clip-path="url(#SVGID_6_)" fill="#FFFFFF" d="M822.545,548.196c0,18.439-8.211,33.389-18.344,33.389
		c-10.129,0-18.344-14.949-18.344-33.389c0-18.44,8.215-33.385,18.344-33.385C814.334,514.811,822.545,529.756,822.545,548.196"/>
	
		<ellipse clip-path="url(#SVGID_6_)" fill="none" stroke="#010202" stroke-width="9.886" stroke-miterlimit="10" cx="804.201" cy="548.196" rx="18.344" ry="33.389"/>
</g>
<line fill="none" stroke="#010202" stroke-width="22.244" stroke-miterlimit="10" x1="873.451" y1="539.085" x2="1003.819" y2="539.085"/>
</svg>
