<?xml version="1.0" encoding="utf-8"?>
<!-- Generator: Adobe Illustrator 16.0.0, SVG Export Plug-In . SVG Version: 6.00 Build 0)  -->
<!DOCTYPE svg PUBLIC "-//W3C//DTD SVG 1.1//EN" "http://www.w3.org/Graphics/SVG/1.1/DTD/svg11.dtd">
<svg version="1.1" id="Layer_1" xmlns="http://www.w3.org/2000/svg" xmlns:xlink="http://www.w3.org/1999/xlink" x="0px" y="0px"
	 width="1920px" height="1080px" viewBox="0 0 1920 1080" enable-background="new 0 0 1920 1080" xml:space="preserve">
<rect x="457.312" y="397.908" fill="#DBE4B5" width="347.127" height="300.471"/>
<g>
	<defs>
		<rect id="SVGID_7_" x="434.264" y="251.5" width="1049.475" height="451.823"/>
	</defs>
	<clipPath id="SVGID_2_">
		<use xlink:href="#SVGID_7_"  overflow="visible"/>
	</clipPath>
	
		<rect x="457.312" y="397.908" clip-path="url(#SVGID_2_)" fill="none" stroke="#010202" stroke-width="4.943" stroke-miterlimit="10" width="347.127" height="300.472"/>
</g>
<line fill="none" stroke="#010202" stroke-width="22.244" stroke-miterlimit="10" x1="873.449" y1="539.087" x2="1003.818" y2="539.087"/>
<polygon fill="#010202" points="987.59,594.54 1083.623,539.091 987.59,483.635 "/>
<polygon fill="none" stroke="#FFFFFF" stroke-width="17.301" stroke-miterlimit="10" points="537.408,531.701 630.852,439.506 
	724.344,531.701 724.344,638.206 537.408,638.206 "/>
<g>
	<defs>
		<rect id="SVGID_9_" x="434.264" y="251.5" width="1049.475" height="451.823"/>
	</defs>
	<clipPath id="SVGID_4_">
		<use xlink:href="#SVGID_9_"  overflow="visible"/>
	</clipPath>
	
		<rect x="1134.141" y="397.908" clip-path="url(#SVGID_4_)" fill="none" stroke="#010202" stroke-width="4.943" stroke-miterlimit="10" width="347.125" height="300.472"/>
</g>
<polygon fill="none" stroke="#010202" stroke-width="9.886" stroke-miterlimit="10" points="1214.166,567.364 1307.611,475.169 
	1401.1,567.364 1401.1,673.866 1214.166,673.866 "/>
<g>
	<defs>
		<rect id="SVGID_11_" x="434.264" y="251.5" width="1049.475" height="451.823"/>
	</defs>
	<clipPath id="SVGID_6_">
		<use xlink:href="#SVGID_11_"  overflow="visible"/>
	</clipPath>
	<path clip-path="url(#SVGID_6_)" fill="none" stroke="#BA1824" stroke-width="4.943" stroke-miterlimit="10" d="M1266.633,411.758
		c-14.666,16.492,0,29.404,0,29.404s16.939,14.295,0,31.778"/>
	<path clip-path="url(#SVGID_6_)" fill="none" stroke="#BA1824" stroke-width="4.943" stroke-miterlimit="10" d="M1345.783,411.758
		c-14.666,16.492,0,29.404,0,29.404s16.939,14.295,0,31.778"/>
	<path clip-path="url(#SVGID_6_)" fill="none" stroke="#BA1824" stroke-width="4.943" stroke-miterlimit="10" d="M1307.228,411.758
		c-11.74,13.205,0,23.539,0,23.539s13.561,11.44,0,25.439"/>
	<path clip-path="url(#SVGID_6_)" fill="#FFFFFF" d="M1227.311,651.413c0,2.15-1.742,3.893-3.891,3.893h-20.549
		c-2.15,0-3.893-1.742-3.893-3.893v-20.545c0-2.15,1.743-3.893,3.893-3.893h20.549c2.148,0,3.891,1.742,3.891,3.893V651.413z"/>
	<path clip-path="url(#SVGID_6_)" fill="none" stroke="#010202" stroke-width="2.472" stroke-miterlimit="10" d="M1227.311,651.413
		c0,2.15-1.742,3.893-3.891,3.893h-20.549c-2.15,0-3.893-1.742-3.893-3.893v-20.545c0-2.15,1.743-3.893,3.893-3.893h20.549
		c2.148,0,3.891,1.742,3.891,3.893V651.413z"/>
	<path clip-path="url(#SVGID_6_)" fill="#FFFFFF" d="M1227.311,684.067c0,2.152-1.742,3.895-3.891,3.895h-20.549
		c-2.15,0-3.893-1.742-3.893-3.895V663.52c0-2.146,1.743-3.891,3.893-3.891h20.549c2.148,0,3.891,1.744,3.891,3.891V684.067z"/>
	<path clip-path="url(#SVGID_6_)" fill="none" stroke="#010202" stroke-width="2.472" stroke-miterlimit="10" d="M1227.311,684.067
		c0,2.152-1.742,3.895-3.891,3.895h-20.549c-2.15,0-3.893-1.742-3.893-3.895V663.52c0-2.146,1.743-3.891,3.893-3.891h20.549
		c2.148,0,3.891,1.744,3.891,3.891V684.067z"/>
	<path clip-path="url(#SVGID_6_)" fill="#FFFFFF" d="M1260.115,651.413c0,2.15-1.742,3.893-3.893,3.893h-20.549
		c-2.148,0-3.889-1.742-3.889-3.893v-20.545c0-2.15,1.74-3.893,3.889-3.893h20.549c2.15,0,3.893,1.742,3.893,3.893V651.413z"/>
	<path clip-path="url(#SVGID_6_)" fill="none" stroke="#010202" stroke-width="2.472" stroke-miterlimit="10" d="M1260.115,651.413
		c0,2.15-1.742,3.893-3.893,3.893h-20.549c-2.148,0-3.889-1.742-3.889-3.893v-20.545c0-2.15,1.74-3.893,3.889-3.893h20.549
		c2.15,0,3.893,1.742,3.893,3.893V651.413z"/>
	<path clip-path="url(#SVGID_6_)" fill="#010202" d="M1214.32,673.793c0,0.723-0.582,1.307-1.303,1.307
		c-0.725,0-1.309-0.584-1.309-1.307c0-0.719,0.584-1.301,1.309-1.301C1213.738,672.493,1214.32,673.075,1214.32,673.793"/>
	<path clip-path="url(#SVGID_6_)" fill="none" stroke="#010202" stroke-width="2.472" stroke-miterlimit="10" d="M1214.32,673.793
		c0,0.723-0.582,1.307-1.303,1.307c-0.725,0-1.309-0.584-1.309-1.307c0-0.719,0.584-1.301,1.309-1.301
		C1213.738,672.493,1214.32,673.075,1214.32,673.793z"/>
	<path clip-path="url(#SVGID_6_)" fill="#FFFFFF" d="M1260.115,684.067c0,2.152-1.742,3.895-3.893,3.895h-20.549
		c-2.148,0-3.889-1.742-3.889-3.895V663.52c0-2.146,1.74-3.891,3.889-3.891h20.549c2.15,0,3.893,1.744,3.893,3.891V684.067z"/>
	<path clip-path="url(#SVGID_6_)" fill="none" stroke="#010202" stroke-width="2.472" stroke-miterlimit="10" d="M1260.115,684.067
		c0,2.152-1.742,3.895-3.893,3.895h-20.549c-2.148,0-3.889-1.742-3.889-3.895V663.52c0-2.146,1.74-3.891,3.889-3.891h20.549
		c2.15,0,3.893,1.744,3.893,3.891V684.067z"/>
	
		<line clip-path="url(#SVGID_6_)" fill="none" stroke="#010202" stroke-width="2.472" stroke-miterlimit="10" x1="1240.826" y1="641.139" x2="1251.064" y2="641.139"/>
	
		<line clip-path="url(#SVGID_6_)" fill="none" stroke="#010202" stroke-width="2.472" stroke-miterlimit="10" x1="1240.826" y1="673.793" x2="1251.064" y2="673.793"/>
	
		<line clip-path="url(#SVGID_6_)" fill="none" stroke="#010202" stroke-width="2.472" stroke-miterlimit="10" x1="1207.895" y1="641.139" x2="1218.135" y2="641.139"/>
	
		<line clip-path="url(#SVGID_6_)" fill="none" stroke="#010202" stroke-width="2.472" stroke-miterlimit="10" x1="1213.018" y1="636.022" x2="1213.018" y2="646.26"/>
	<path clip-path="url(#SVGID_6_)" fill="#010202" d="M1247.252,669.676c0,0.719-0.584,1.303-1.303,1.303
		c-0.725,0-1.311-0.584-1.311-1.303c0-0.723,0.586-1.307,1.311-1.307C1246.668,668.37,1247.252,668.954,1247.252,669.676"/>
	<path clip-path="url(#SVGID_6_)" fill="#010202" d="M1247.252,677.786c0,0.719-0.584,1.305-1.303,1.305
		c-0.725,0-1.311-0.586-1.311-1.305c0-0.721,0.586-1.305,1.311-1.305C1246.668,676.481,1247.252,677.065,1247.252,677.786"/>
	<path clip-path="url(#SVGID_6_)" fill="#010202" d="M663.572,372.284c10.189-0.289,18.994-8.764,18.994-19.018
		c0-10.447-8.494-18.952-18.941-18.952c-10.441,0-18.945,8.5-18.945,18.952C644.686,363.57,653.32,372.074,663.572,372.284
		l0.057,10.2c-14.49,0-26.541-10.588-28.846-24.436l-4.447,0.05h-2.9c-2.275,13.568-14.717,24.015-28.834,24.381l-0.092-10.286
		c10.242-0.233,19.033-8.641,19.033-18.947c0-10.442-8.496-18.937-18.947-18.937c-10.438,0-18.941,8.49-18.941,18.932
		c0,10.291,8.633,18.69,18.852,18.952l0.09,10.286c-14.164,0-26.004-10.128-28.67-23.524l-0.096-0.566h-11.621
		c-2.846,0-5.148-2.298-5.148-5.148c0-2.84,2.303-5.143,5.148-5.143h11.621l0.092-0.507c2.637-13.423,14.498-23.568,28.674-23.568
		c14.488,0,26.549,10.588,28.846,24.436h2.889l4.459-0.05c2.32-13.813,14.373-24.386,28.836-24.386
		c14.164,0,26.014,10.131,28.674,23.526l0.098,0.569h11.623c2.846,0,5.146,2.298,5.146,5.148c0,2.837-2.301,5.14-5.146,5.14h-11.623
		l-0.088,0.51c-2.602,13.212-14.783,23.257-28.68,23.568L663.572,372.284z"/>
	<path clip-path="url(#SVGID_6_)" fill="#010202" d="M692.693,315.711c-3.428,0-6.207-2.775-6.207-6.203
		c0-25.146-25.135-45.6-56.037-45.6c-30.9,0-56.041,20.457-56.041,45.6c0,3.428-2.775,6.203-6.207,6.203
		c-3.428,0-6.201-2.775-6.201-6.203c0-31.987,30.701-58.009,68.449-58.009c37.744,0,68.455,26.022,68.455,58.009
		C698.898,312.931,696.119,315.711,692.693,315.711"/>
	<polygon clip-path="url(#SVGID_6_)" fill="none" stroke="#FFFFFF" stroke-width="17.301" stroke-miterlimit="10" points="
		537.646,531.754 631.088,439.56 724.576,531.754 724.576,638.26 537.646,638.26 	"/>
	<path clip-path="url(#SVGID_6_)" fill="#FFFFFF" d="M475.895,548.196c0,18.439-8.215,33.389-18.346,33.389
		c-10.129,0-18.342-14.949-18.342-33.389c0-18.44,8.213-33.385,18.342-33.385C467.68,514.811,475.895,529.756,475.895,548.196"/>
	<path clip-path="url(#SVGID_6_)" fill="none" stroke="#010202" stroke-width="9.886" stroke-miterlimit="10" d="M475.895,548.196
		c0,18.439-8.215,33.389-18.346,33.389c-10.129,0-18.342-14.949-18.342-33.389c0-18.44,8.213-33.385,18.342-33.385
		C467.68,514.811,475.895,529.756,475.895,548.196z"/>
	<path clip-path="url(#SVGID_6_)" fill="#FFFFFF" d="M822.545,548.196c0,18.439-8.211,33.389-18.344,33.389
		c-10.129,0-18.344-14.949-18.344-33.389c0-18.44,8.215-33.385,18.344-33.385C814.334,514.811,822.545,529.756,822.545,548.196"/>
	
		<ellipse clip-path="url(#SVGID_6_)" fill="none" stroke="#010202" stroke-width="9.886" stroke-miterlimit="10" cx="804.201" cy="548.196" rx="18.344" ry="33.389"/>
</g>
<g>
	<path fill="#010202" d="M537.995,756.122l-4.1-10.701h-16.25l-4.15,10.701h-2l14.25-36.85l14.3,36.85H537.995z M525.745,724.471
		l-7.3,18.9h14.6L525.745,724.471z"/>
	<path fill="#010202" d="M554.645,738.522c-0.533-0.4-1.1-0.717-1.7-0.951c-0.6-0.232-1.234-0.35-1.9-0.35
		c-0.567,0-1.1,0.176-1.6,0.525s-0.934,0.783-1.3,1.299c-0.367,0.518-0.658,1.094-0.875,1.727s-0.325,1.217-0.325,1.75v13.6h-2.05
		v-20.65h2.05v2.801c0.433-0.768,1-1.467,1.7-2.102c0.7-0.633,1.467-0.949,2.3-0.949c1.033,0,1.883,0.117,2.55,0.35
		c0.667,0.234,1.417,0.65,2.25,1.25L554.645,738.522z"/>
	<path fill="#010202" d="M568.695,756.522c-3.067,0-5.617-1.018-7.65-3.051c-2.034-2.033-3.05-4.582-3.05-7.65
		c0-3.066,1.016-5.615,3.05-7.65c2.033-2.031,4.583-3.049,7.65-3.049c2.633,0,4.733,0.6,6.3,1.799v2.451l-1.3-0.85l-1.4-0.75
		c-1.267-0.434-2.467-0.65-3.6-0.65c-2.567,0-4.65,0.799-6.25,2.4c-1.633,1.633-2.45,3.732-2.45,6.299
		c0,2.533,0.816,4.617,2.45,6.25c1.633,1.635,3.717,2.451,6.25,2.451c2.4,0,4.5-0.801,6.3-2.4v2.549
		C573.128,755.905,571.028,756.522,568.695,756.522z"/>
	<path fill="#010202" d="M594.294,756.17v-12.449c0-4.367-2.034-6.551-6.1-6.551c-1.667,0-3.1,0.5-4.3,1.5
		c-1.234,1-1.85,2.334-1.85,4v13.451h-2.05v-37h2.05v19.1c1.233-2.033,3.283-3.051,6.15-3.051c5.433,0,8.15,2.785,8.15,8.352v12.648
		H594.294z"/>
	<path fill="#010202" d="M601.044,731.772c-0.367,0-0.75-0.15-1.15-0.451c-0.3-0.299-0.467-0.699-0.5-1.199
		c0-0.9,0.55-1.451,1.65-1.65c0.833,0,1.383,0.551,1.65,1.65C602.694,731.221,602.144,731.772,601.044,731.772z M599.994,756.122
		v-20.65h2.05v20.65H599.994z"/>
	<path fill="#010202" d="M611.944,737.522v18.6h-2.05v-18.6h-2.8v-2.051h2.8v-9.051h2.05v9.051h4.8v2.051H611.944z"/>
	<path fill="#010202" d="M621.744,745.372c0,2.799,0.75,5.018,2.25,6.65c1.566,1.666,3.716,2.5,6.45,2.5
		c1.4,0,2.667-0.234,3.8-0.701c1.433-0.6,2.716-1.816,3.85-3.65l1.85,0.852c-1.3,2.467-3.3,4.133-6,5c-1.034,0.332-2.2,0.5-3.5,0.5
		c-3.1,0-5.65-1.018-7.65-3.051c-2.034-2.033-3.05-4.582-3.05-7.65c0-3.1,1-5.65,3-7.65c2.033-2.031,4.6-3.049,7.7-3.049
		c3.066,0,5.6,0.949,7.6,2.85c2.033,1.9,3.05,4.367,3.05,7.4H621.744z M635.844,738.821c-1.567-1.133-3.367-1.699-5.4-1.699
		c-4.267,0-7.067,2.1-8.4,6.299h16.75C638.46,741.522,637.477,739.989,635.844,738.821z"/>
	<path fill="#010202" d="M655.593,756.522c-3.067,0-5.617-1.018-7.65-3.051c-2.034-2.033-3.05-4.582-3.05-7.65
		c0-3.066,1.016-5.615,3.05-7.65c2.033-2.031,4.583-3.049,7.65-3.049c2.633,0,4.733,0.6,6.3,1.799v2.451l-1.3-0.85l-1.4-0.75
		c-1.267-0.434-2.467-0.65-3.6-0.65c-2.567,0-4.65,0.799-6.25,2.4c-1.633,1.633-2.45,3.732-2.45,6.299
		c0,2.533,0.816,4.617,2.45,6.25c1.633,1.635,3.717,2.451,6.25,2.451c2.4,0,4.5-0.801,6.3-2.4v2.549
		C660.026,755.905,657.926,756.522,655.593,756.522z"/>
	<path fill="#010202" d="M670.843,737.522v18.6h-2.05v-18.6h-2.8v-2.051h2.8v-9.051h2.05v9.051h4.8v2.051H670.843z"/>
	<path fill="#010202" d="M693.393,754.321c-1.367,1.467-3.284,2.201-5.75,2.201c-2.434,0-4.317-0.717-5.65-2.15
		c-1.333-1.434-2-3.434-2-6v-12.9h2.05v12.9c0,1.967,0.433,3.482,1.3,4.549c0.9,1.068,2.333,1.602,4.3,1.602
		c3.833,0,5.75-2.051,5.75-6.15v-12.9h2v12.9C695.393,750.905,694.726,752.889,693.393,754.321z"/>
	<path fill="#010202" d="M711.442,738.522c-0.533-0.4-1.1-0.717-1.7-0.951c-0.6-0.232-1.234-0.35-1.9-0.35
		c-0.567,0-1.1,0.176-1.6,0.525s-0.934,0.783-1.3,1.299c-0.367,0.518-0.658,1.094-0.875,1.727s-0.325,1.217-0.325,1.75v13.6h-2.05
		v-20.65h2.05v2.801c0.433-0.768,1-1.467,1.7-2.102c0.7-0.633,1.467-0.949,2.3-0.949c1.033,0,1.883,0.117,2.55,0.35
		c0.667,0.234,1.417,0.65,2.25,1.25L711.442,738.522z"/>
	<path fill="#010202" d="M733.542,756.122v-3.551c-2.167,2.6-4.917,3.9-8.25,3.9c-3,0-5.517-1.016-7.55-3.051
		c-2.067-2.066-3.1-4.6-3.1-7.6s1.017-5.516,3.05-7.549c2.066-2.066,4.6-3.102,7.6-3.102c3.3,0,6.05,1.301,8.25,3.9v-3.6h2.05v20.65
		H733.542z M731.392,739.721c-1.7-1.699-3.733-2.551-6.1-2.551c-2.4,0-4.434,0.834-6.1,2.5c-1.7,1.701-2.55,3.75-2.55,6.15
		c0,2.367,0.85,4.4,2.55,6.1c1.7,1.701,3.733,2.551,6.1,2.551c2.4,0,4.433-0.832,6.1-2.5c1.7-1.699,2.55-3.75,2.55-6.15
		C733.942,743.456,733.092,741.42,731.392,739.721z"/>
	<path fill="#010202" d="M742.242,756.122v-37h2v37H742.242z"/>
</g>
<g>
	<path fill="#010202" d="M572.545,816.122v-3.701c-2.2,2.701-5,4.051-8.4,4.051c-3,0-5.517-1.016-7.55-3.051
		c-2.067-2.066-3.1-4.6-3.1-7.6s1.017-5.516,3.05-7.549c2.066-2.066,4.6-3.102,7.6-3.102c3.3,0,6.1,1.352,8.4,4.051v-20.1h2.05v37
		H572.545z M570.245,799.721c-1.7-1.699-3.733-2.551-6.1-2.551c-2.4,0-4.434,0.834-6.1,2.5c-1.7,1.701-2.55,3.75-2.55,6.15
		c0,2.367,0.85,4.4,2.55,6.1c1.7,1.701,3.732,2.551,6.1,2.551c2.4,0,4.433-0.832,6.1-2.5c1.7-1.699,2.55-3.75,2.55-6.15
		C572.795,803.456,571.945,801.42,570.245,799.721z"/>
	<path fill="#010202" d="M590.445,798.522c-0.533-0.4-1.1-0.717-1.7-0.951c-0.6-0.232-1.234-0.35-1.9-0.35
		c-0.567,0-1.1,0.176-1.6,0.525s-0.934,0.783-1.3,1.299c-0.367,0.518-0.658,1.094-0.875,1.727s-0.325,1.217-0.325,1.75v13.6h-2.05
		v-20.65h2.05v2.801c0.433-0.768,1-1.467,1.7-2.102c0.7-0.633,1.467-0.949,2.3-0.949c1.033,0,1.883,0.117,2.55,0.35
		c0.667,0.234,1.417,0.65,2.25,1.25L590.445,798.522z"/>
	<path fill="#010202" d="M612.545,816.122v-3.551c-2.167,2.6-4.917,3.9-8.25,3.9c-3,0-5.517-1.016-7.55-3.051
		c-2.067-2.066-3.1-4.6-3.1-7.6s1.017-5.516,3.05-7.549c2.066-2.066,4.6-3.102,7.6-3.102c3.3,0,6.05,1.301,8.25,3.9v-3.6h2.05v20.65
		H612.545z M610.395,799.721c-1.7-1.699-3.733-2.551-6.1-2.551c-2.4,0-4.434,0.834-6.1,2.5c-1.7,1.701-2.55,3.75-2.55,6.15
		c0,2.367,0.85,4.4,2.55,6.1c1.7,1.701,3.733,2.551,6.1,2.551c2.4,0,4.433-0.832,6.1-2.5c1.7-1.699,2.55-3.75,2.55-6.15
		C612.945,803.456,612.095,801.42,610.395,799.721z"/>
	<path fill="#010202" d="M641.095,817.022l-6.45-16.5l-6.55,16.5l-9.25-21.551h2.2l6.95,16l6.65-16.65l6.6,16.6l6.9-15.949h2.3
		L641.095,817.022z"/>
	<path fill="#010202" d="M656.294,791.772c-0.367,0-0.75-0.15-1.15-0.451c-0.3-0.299-0.467-0.699-0.5-1.199
		c0-0.9,0.55-1.451,1.65-1.65c0.833,0,1.383,0.551,1.65,1.65C657.944,791.221,657.394,791.772,656.294,791.772z M655.244,816.122
		v-20.65h2.05v20.65H655.244z"/>
	<path fill="#010202" d="M675.644,816.122v-12.35c0-4.367-1.967-6.551-5.9-6.551c-1.934,0-3.4,0.566-4.4,1.699
		c-1.034,1.135-1.55,2.684-1.55,4.65v12.551h-2.05v-20.65h2.05v2.5c0.933-1.832,2.917-2.75,5.95-2.75c2.566,0,4.533,0.734,5.9,2.199
		c1.366,1.469,2.05,3.518,2.05,6.15v12.551H675.644z"/>
	<path fill="#010202" d="M700.893,823.022c-1.867,1.865-4.317,2.799-7.35,2.799c-5.633,0-9-2.217-10.1-6.65h2.05
		c0.366,1.633,1.417,2.852,3.15,3.65c1.367,0.633,3,0.951,4.9,0.951c2.566,0,4.55-0.719,5.95-2.15c1.433-1.434,2.15-3.434,2.15-6
		v-3.051c-2.167,2.6-4.917,3.9-8.25,3.9c-3,0-5.517-1.016-7.55-3.051c-2.067-2.066-3.1-4.6-3.1-7.6s1.017-5.516,3.05-7.549
		c2.066-2.066,4.6-3.102,7.6-3.102c3.3,0,6.05,1.301,8.25,3.9v-3.6h2.05v20.199C703.693,818.704,702.76,821.155,700.893,823.022z
		 M699.493,799.721c-1.7-1.699-3.733-2.551-6.1-2.551c-2.4,0-4.434,0.834-6.1,2.5c-1.7,1.701-2.55,3.75-2.55,6.15
		c0,2.367,0.85,4.4,2.55,6.1c1.7,1.701,3.733,2.551,6.1,2.551c2.4,0,4.433-0.832,6.1-2.5c1.7-1.699,2.55-3.75,2.55-6.15
		C702.043,803.456,701.193,801.42,699.493,799.721z"/>
</g>
<g>
	<path fill="#010202" d="M1242.745,756.122v-18.6h-19.65v18.6h-2V720.42h2v15.051h19.65V720.42h2.05v35.701H1242.745z"/>
	<path fill="#010202" d="M1251.745,745.372c0,2.799,0.75,5.018,2.25,6.65c1.566,1.666,3.716,2.5,6.45,2.5
		c1.399,0,2.666-0.234,3.8-0.701c1.433-0.6,2.716-1.816,3.85-3.65l1.851,0.852c-1.301,2.467-3.301,4.133-6,5
		c-1.034,0.332-2.2,0.5-3.5,0.5c-3.101,0-5.65-1.018-7.65-3.051c-2.033-2.033-3.05-4.582-3.05-7.65c0-3.1,1-5.65,3-7.65
		c2.032-2.031,4.6-3.049,7.7-3.049c3.066,0,5.6,0.949,7.6,2.85c2.033,1.9,3.05,4.367,3.05,7.4H1251.745z M1265.845,738.821
		c-1.567-1.133-3.367-1.699-5.399-1.699c-4.268,0-7.067,2.1-8.4,6.299h16.75C1268.461,741.522,1267.478,739.989,1265.845,738.821z"
		/>
	<path fill="#010202" d="M1293.195,756.122v-3.551c-2.168,2.6-4.918,3.9-8.25,3.9c-3,0-5.518-1.016-7.551-3.051
		c-2.066-2.066-3.1-4.6-3.1-7.6s1.017-5.516,3.05-7.549c2.066-2.066,4.601-3.102,7.601-3.102c3.3,0,6.05,1.301,8.25,3.9v-3.6h2.05
		v20.65H1293.195z M1291.045,739.721c-1.7-1.699-3.733-2.551-6.1-2.551c-2.4,0-4.434,0.834-6.101,2.5
		c-1.7,1.701-2.55,3.75-2.55,6.15c0,2.367,0.85,4.4,2.55,6.1c1.7,1.701,3.733,2.551,6.101,2.551c2.399,0,4.433-0.832,6.1-2.5
		c1.7-1.699,2.55-3.75,2.55-6.15C1293.595,743.456,1292.745,741.42,1291.045,739.721z"/>
	<path fill="#010202" d="M1304.445,737.522v18.6h-2.051v-18.6h-2.8v-2.051h2.8v-9.051h2.051v9.051h4.8v2.051H1304.445z"/>
	<path fill="#010202" d="M1327.144,756.122v-37h2v37H1327.144z"/>
	<path fill="#010202" d="M1352.894,753.372c-2.067,2.066-4.6,3.1-7.6,3.1s-5.518-1.016-7.551-3.051c-2.066-2.066-3.1-4.6-3.1-7.6
		c0-2.967,1.033-5.482,3.1-7.549c2.033-2.102,4.551-3.15,7.551-3.15c2.966,0,5.482,1.033,7.55,3.1c2.066,2.066,3.1,4.6,3.1,7.6
		S1354.927,751.338,1352.894,753.372z M1351.443,739.67c-1.667-1.699-3.717-2.549-6.149-2.549c-2.334,0-4.351,0.867-6.051,2.6
		c-1.733,1.734-2.6,3.768-2.6,6.1c0,2.367,0.85,4.4,2.55,6.1c1.7,1.701,3.733,2.551,6.101,2.551c2.399,0,4.433-0.832,6.1-2.5
		c1.7-1.699,2.55-3.75,2.55-6.15C1353.943,743.389,1353.11,741.338,1351.443,739.67z"/>
	<path fill="#010202" d="M1371.243,754.821c-1.334,1.135-2.934,1.701-4.8,1.701c-3.2,0-5.601-1.451-7.2-4.352l1.75-1.049
		c0.566,1.033,1.25,1.834,2.05,2.4c0.833,0.633,1.967,0.949,3.4,0.949c3.133,0,4.699-1.332,4.699-4c0-1.166-0.55-2.184-1.649-3.051
		c-0.334-0.199-0.809-0.424-1.425-0.674c-0.617-0.25-1.375-0.541-2.275-0.875c-1.667-0.6-2.867-1.201-3.6-1.801
		c-1.067-0.865-1.601-2.115-1.601-3.75c0-1.4,0.533-2.6,1.601-3.6c1.032-1.033,2.383-1.551,4.05-1.551c2.3,0,4.25,0.801,5.85,2.4
		l-1.5,1.301c-1.134-1.133-2.583-1.701-4.35-1.701c-2.4,0-3.601,1.051-3.601,3.15c0,0.934,0.367,1.701,1.101,2.301
		c0.6,0.467,1.55,0.916,2.85,1.35c1.133,0.4,2.066,0.775,2.8,1.125s1.283,0.658,1.65,0.926c1.433,1.1,2.15,2.582,2.15,4.449
		C1373.193,752.272,1372.543,753.721,1371.243,754.821z"/>
	<path fill="#010202" d="M1387.793,754.821c-1.334,1.135-2.934,1.701-4.8,1.701c-3.2,0-5.601-1.451-7.2-4.352l1.75-1.049
		c0.566,1.033,1.25,1.834,2.05,2.4c0.833,0.633,1.967,0.949,3.4,0.949c3.133,0,4.699-1.332,4.699-4c0-1.166-0.55-2.184-1.649-3.051
		c-0.334-0.199-0.809-0.424-1.425-0.674c-0.617-0.25-1.375-0.541-2.275-0.875c-1.667-0.6-2.867-1.201-3.6-1.801
		c-1.067-0.865-1.601-2.115-1.601-3.75c0-1.4,0.533-2.6,1.601-3.6c1.032-1.033,2.383-1.551,4.05-1.551c2.3,0,4.25,0.801,5.85,2.4
		l-1.5,1.301c-1.134-1.133-2.583-1.701-4.35-1.701c-2.4,0-3.601,1.051-3.601,3.15c0,0.934,0.367,1.701,1.101,2.301
		c0.6,0.467,1.55,0.916,2.85,1.35c1.133,0.4,2.066,0.775,2.8,1.125s1.283,0.658,1.65,0.926c1.433,1.1,2.15,2.582,2.15,4.449
		C1389.743,752.272,1389.093,753.721,1387.793,754.821z"/>
</g>
<g>
	<path fill="#010202" d="M1219.095,816.522c-3.067,0-5.617-1.018-7.649-3.051c-2.034-2.033-3.051-4.582-3.051-7.65
		c0-3.066,1.017-5.615,3.051-7.65c2.032-2.031,4.582-3.049,7.649-3.049c2.633,0,4.733,0.6,6.3,1.799v2.451l-1.3-0.85l-1.399-0.75
		c-1.268-0.434-2.468-0.65-3.601-0.65c-2.567,0-4.649,0.799-6.25,2.4c-1.634,1.633-2.45,3.732-2.45,6.299
		c0,2.533,0.816,4.617,2.45,6.25c1.633,1.635,3.717,2.451,6.25,2.451c2.4,0,4.5-0.801,6.3-2.4v2.549
		C1223.527,815.905,1221.428,816.522,1219.095,816.522z"/>
	<path fill="#010202" d="M1245.545,816.122v-3.551c-2.168,2.6-4.918,3.9-8.25,3.9c-3,0-5.518-1.016-7.551-3.051
		c-2.066-2.066-3.1-4.6-3.1-7.6s1.017-5.516,3.05-7.549c2.066-2.066,4.601-3.102,7.601-3.102c3.3,0,6.05,1.301,8.25,3.9v-3.6h2.05
		v20.65H1245.545z M1243.395,799.721c-1.7-1.699-3.733-2.551-6.1-2.551c-2.4,0-4.434,0.834-6.101,2.5
		c-1.7,1.701-2.55,3.75-2.55,6.15c0,2.367,0.85,4.4,2.55,6.1c1.7,1.701,3.733,2.551,6.101,2.551c2.399,0,4.433-0.832,6.1-2.5
		c1.7-1.699,2.55-3.75,2.55-6.15C1245.944,803.456,1245.095,801.42,1243.395,799.721z"/>
	<path fill="#010202" d="M1254.244,816.122v-37h2v37H1254.244z"/>
	<path fill="#010202" d="M1273.044,816.522c-3.067,0-5.617-1.018-7.649-3.051c-2.034-2.033-3.051-4.582-3.051-7.65
		c0-3.066,1.017-5.615,3.051-7.65c2.032-2.031,4.582-3.049,7.649-3.049c2.633,0,4.733,0.6,6.3,1.799v2.451l-1.3-0.85l-1.399-0.75
		c-1.268-0.434-2.468-0.65-3.601-0.65c-2.567,0-4.649,0.799-6.25,2.4c-1.634,1.633-2.45,3.732-2.45,6.299
		c0,2.533,0.816,4.617,2.45,6.25c1.633,1.635,3.717,2.451,6.25,2.451c2.4,0,4.5-0.801,6.3-2.4v2.549
		C1277.477,815.905,1275.377,816.522,1273.044,816.522z"/>
	<path fill="#010202" d="M1295.544,814.321c-1.367,1.467-3.284,2.201-5.75,2.201c-2.434,0-4.317-0.717-5.65-2.15s-2-3.434-2-6v-12.9
		h2.05v12.9c0,1.967,0.434,3.482,1.301,4.549c0.899,1.068,2.332,1.602,4.3,1.602c3.833,0,5.75-2.051,5.75-6.15v-12.9h2v12.9
		C1297.544,810.905,1296.877,812.889,1295.544,814.321z"/>
	<path fill="#010202" d="M1301.942,816.122v-37h2v37H1301.942z"/>
	<path fill="#010202" d="M1328.343,816.122v-3.551c-2.168,2.6-4.918,3.9-8.25,3.9c-3,0-5.518-1.016-7.551-3.051
		c-2.066-2.066-3.1-4.6-3.1-7.6s1.017-5.516,3.05-7.549c2.066-2.066,4.601-3.102,7.601-3.102c3.3,0,6.05,1.301,8.25,3.9v-3.6h2.05
		v20.65H1328.343z M1326.192,799.721c-1.7-1.699-3.733-2.551-6.1-2.551c-2.4,0-4.434,0.834-6.101,2.5
		c-1.7,1.701-2.55,3.75-2.55,6.15c0,2.367,0.85,4.4,2.55,6.1c1.7,1.701,3.733,2.551,6.101,2.551c2.399,0,4.433-0.832,6.1-2.5
		c1.7-1.699,2.55-3.75,2.55-6.15C1328.742,803.456,1327.893,801.42,1326.192,799.721z"/>
	<path fill="#010202" d="M1339.593,797.522v18.6h-2.051v-18.6h-2.8v-2.051h2.8v-9.051h2.051v9.051h4.8v2.051H1339.593z"/>
	<path fill="#010202" d="M1350.393,791.772c-0.367,0-0.75-0.15-1.15-0.451c-0.3-0.299-0.467-0.699-0.5-1.199
		c0-0.9,0.55-1.451,1.65-1.65c0.833,0,1.383,0.551,1.649,1.65C1352.042,791.221,1351.492,791.772,1350.393,791.772z
		 M1349.343,816.122v-20.65h2.05v20.65H1349.343z"/>
	<path fill="#010202" d="M1374.892,813.372c-2.067,2.066-4.6,3.1-7.6,3.1s-5.518-1.016-7.551-3.051c-2.066-2.066-3.1-4.6-3.1-7.6
		c0-2.967,1.033-5.482,3.1-7.549c2.033-2.102,4.551-3.15,7.551-3.15c2.966,0,5.482,1.033,7.55,3.1c2.066,2.066,3.1,4.6,3.1,7.6
		S1376.925,811.338,1374.892,813.372z M1373.441,799.67c-1.667-1.699-3.717-2.549-6.149-2.549c-2.334,0-4.351,0.867-6.051,2.6
		c-1.733,1.734-2.6,3.768-2.6,6.1c0,2.367,0.85,4.4,2.55,6.1c1.7,1.701,3.733,2.551,6.101,2.551c2.399,0,4.433-0.832,6.1-2.5
		c1.7-1.699,2.55-3.75,2.55-6.15C1375.941,803.389,1375.108,801.338,1373.441,799.67z"/>
	<path fill="#010202" d="M1396.991,816.122v-12.35c0-4.367-1.968-6.551-5.9-6.551c-1.934,0-3.399,0.566-4.399,1.699
		c-1.034,1.135-1.551,2.684-1.551,4.65v12.551h-2.05v-20.65h2.05v2.5c0.934-1.832,2.917-2.75,5.95-2.75
		c2.566,0,4.533,0.734,5.9,2.199c1.366,1.469,2.05,3.518,2.05,6.15v12.551H1396.991z"/>
</g>
<g>
	<path fill="#010202" d="M948.808,638.391v-2.84c-1.734,2.08-3.934,3.119-6.6,3.119c-2.4,0-4.414-0.813-6.04-2.439
		c-1.654-1.654-2.48-3.68-2.48-6.08s0.813-4.414,2.44-6.041c1.653-1.652,3.68-2.479,6.08-2.479c2.64,0,4.84,1.039,6.6,3.119v-2.879
		h1.64v16.52H948.808z M947.088,625.27c-1.36-1.359-2.987-2.039-4.88-2.039c-1.92,0-3.547,0.666-4.88,2
		c-1.36,1.359-2.04,3-2.04,4.92c0,1.893,0.68,3.52,2.04,4.879c1.36,1.361,2.986,2.041,4.88,2.041c1.92,0,3.546-0.666,4.88-2
		c1.36-1.359,2.04-3,2.04-4.92C949.128,628.258,948.448,626.631,947.088,625.27z"/>
	<path fill="#010202" d="M963.128,624.311c-0.427-0.32-0.88-0.574-1.36-0.76c-0.48-0.188-0.987-0.281-1.52-0.281
		c-0.454,0-0.88,0.141-1.28,0.42c-0.4,0.281-0.747,0.627-1.04,1.041c-0.294,0.414-0.527,0.873-0.7,1.379
		c-0.174,0.508-0.26,0.975-0.26,1.4v10.881h-1.64v-16.52h1.64v2.238c0.347-0.613,0.8-1.172,1.36-1.68
		c0.56-0.506,1.173-0.76,1.84-0.76c0.826,0,1.506,0.094,2.04,0.279c0.533,0.188,1.133,0.521,1.8,1L963.128,624.311z"/>
	<path fill="#010202" d="M965.728,629.792c0,2.238,0.6,4.014,1.799,5.318c1.254,1.334,2.975,2,5.16,2
		c1.121,0,2.133-0.186,3.041-0.559c1.146-0.48,2.172-1.453,3.08-2.92l1.479,0.68c-1.039,1.973-2.639,3.307-4.799,4
		c-0.826,0.266-1.76,0.4-2.801,0.4c-2.479,0-4.52-0.814-6.12-2.441c-1.626-1.625-2.44-3.666-2.44-6.119c0-2.48,0.8-4.52,2.4-6.121
		c1.626-1.625,3.681-2.439,6.16-2.439c2.453,0,4.48,0.76,6.08,2.281c1.627,1.52,2.441,3.492,2.441,5.92H965.728z M977.008,624.551
		c-1.254-0.906-2.693-1.361-4.32-1.361c-3.414,0-5.652,1.682-6.719,5.041h13.399C979.102,626.711,978.314,625.485,977.008,624.551z"
		/>
	<path fill="#010202" d="M998.887,638.391v-2.84c-1.733,2.08-3.934,3.119-6.6,3.119c-2.4,0-4.414-0.813-6.04-2.439
		c-1.653-1.654-2.479-3.68-2.479-6.08s0.813-4.414,2.439-6.041c1.653-1.652,3.68-2.479,6.08-2.479c2.64,0,4.84,1.039,6.6,3.119
		v-2.879h1.641v16.52H998.887z M997.167,625.27c-1.359-1.359-2.986-2.039-4.88-2.039c-1.92,0-3.547,0.666-4.88,2
		c-1.36,1.359-2.04,3-2.04,4.92c0,1.893,0.68,3.52,2.04,4.879c1.36,1.361,2.986,2.041,4.88,2.041c1.92,0,3.546-0.666,4.88-2
		c1.36-1.359,2.04-3,2.04-4.92C999.207,628.258,998.527,626.631,997.167,625.27z"/>
	<path fill="#010202" d="M1013.526,637.35c-1.066,0.908-2.347,1.361-3.84,1.361c-2.56,0-4.479-1.16-5.76-3.48l1.399-0.84
		c0.453,0.826,1,1.467,1.641,1.92c0.666,0.506,1.573,0.76,2.72,0.76c2.506,0,3.76-1.066,3.76-3.199c0-0.934-0.439-1.748-1.319-2.441
		c-0.268-0.16-0.647-0.34-1.141-0.539c-0.493-0.201-1.1-0.434-1.819-0.701c-1.334-0.479-2.294-0.959-2.881-1.439
		c-0.854-0.693-1.279-1.693-1.279-3c0-1.119,0.426-2.08,1.279-2.879c0.827-0.828,1.906-1.24,3.24-1.24c1.84,0,3.4,0.639,4.681,1.92
		l-1.2,1.039c-0.907-0.906-2.067-1.359-3.48-1.359c-1.92,0-2.88,0.84-2.88,2.52c0,0.746,0.293,1.359,0.88,1.84
		c0.48,0.375,1.24,0.734,2.28,1.08c0.906,0.32,1.653,0.621,2.24,0.9c0.586,0.279,1.026,0.527,1.319,0.74
		c1.146,0.879,1.721,2.066,1.721,3.561C1015.087,635.311,1014.566,636.471,1013.526,637.35z"/>
</g>
<g>
	<path fill="#010202" d="M924.568,686.391v-29.6h1.6v29.6H924.568z"/>
	<path fill="#010202" d="M932.128,677.792c0,2.238,0.6,4.014,1.8,5.318c1.253,1.334,2.973,2,5.16,2c1.12,0,2.133-0.186,3.04-0.559
		c1.146-0.48,2.173-1.453,3.08-2.92l1.48,0.68c-1.04,1.973-2.64,3.307-4.8,4c-0.827,0.266-1.76,0.4-2.8,0.4
		c-2.48,0-4.52-0.814-6.12-2.441c-1.626-1.625-2.44-3.666-2.44-6.119c0-2.48,0.8-4.52,2.4-6.121c1.626-1.625,3.68-2.439,6.16-2.439
		c2.453,0,4.48,0.76,6.08,2.281c1.626,1.52,2.44,3.492,2.44,5.92H932.128z M943.408,672.551c-1.254-0.906-2.694-1.361-4.32-1.361
		c-3.414,0-5.654,1.682-6.72,5.041h13.4C945.501,674.711,944.714,673.485,943.408,672.551z"/>
	<path fill="#010202" d="M962.527,686.391v-9.881c0-3.492-1.574-5.24-4.72-5.24c-1.547,0-2.72,0.455-3.52,1.361
		c-0.827,0.906-1.24,2.146-1.24,3.719v10.041h-1.64v-16.52h1.64v2c0.747-1.467,2.333-2.201,4.76-2.201
		c2.053,0,3.626,0.588,4.72,1.76c1.093,1.174,1.64,2.814,1.64,4.92v10.041H962.527z"/>
	<path fill="#010202" d="M982.727,691.911c-1.494,1.492-3.454,2.24-5.88,2.24c-4.507,0-7.2-1.773-8.08-5.32h1.64
		c0.294,1.307,1.134,2.279,2.521,2.92c1.093,0.506,2.399,0.76,3.92,0.76c2.053,0,3.64-0.574,4.76-1.719
		c1.146-1.148,1.72-2.748,1.72-4.801v-2.439c-1.733,2.08-3.934,3.119-6.6,3.119c-2.4,0-4.414-0.813-6.04-2.439
		c-1.653-1.654-2.479-3.68-2.479-6.08s0.813-4.414,2.439-6.041c1.653-1.652,3.68-2.479,6.08-2.479c2.64,0,4.84,1.039,6.6,3.119
		v-2.879h1.641v16.158C984.967,688.458,984.22,690.417,982.727,691.911z M981.606,673.27c-1.359-1.359-2.986-2.039-4.88-2.039
		c-1.92,0-3.547,0.666-4.88,2c-1.36,1.359-2.04,3-2.04,4.92c0,1.893,0.68,3.52,2.04,4.879c1.36,1.361,2.986,2.041,4.88,2.041
		c1.92,0,3.546-0.666,4.88-2c1.36-1.359,2.04-3,2.04-4.92C983.646,676.258,982.967,674.631,981.606,673.27z"/>
	<path fill="#010202" d="M992.327,671.51v14.881h-1.64V671.51h-2.24v-1.639h2.24v-7.24h1.64v7.24h3.84v1.639H992.327z"/>
	<path fill="#010202" d="M1009.728,686.43v-9.959c0-3.494-1.627-5.24-4.881-5.24c-1.333,0-2.479,0.4-3.439,1.199
		c-0.987,0.801-1.48,1.867-1.48,3.201v10.76h-1.64v-29.6h1.64v15.279c0.986-1.627,2.627-2.439,4.92-2.439
		c4.347,0,6.521,2.227,6.521,6.68v10.119H1009.728z"/>
	<path fill="#010202" d="M1022.446,685.35c-1.066,0.908-2.347,1.361-3.84,1.361c-2.56,0-4.479-1.16-5.76-3.48l1.399-0.84
		c0.453,0.826,1,1.467,1.641,1.92c0.666,0.506,1.573,0.76,2.72,0.76c2.506,0,3.76-1.066,3.76-3.199c0-0.934-0.439-1.748-1.319-2.441
		c-0.268-0.16-0.647-0.34-1.141-0.539c-0.493-0.201-1.1-0.434-1.819-0.701c-1.334-0.479-2.294-0.959-2.881-1.439
		c-0.854-0.693-1.279-1.693-1.279-3c0-1.119,0.426-2.08,1.279-2.879c0.827-0.828,1.906-1.24,3.24-1.24c1.84,0,3.4,0.639,4.681,1.92
		l-1.2,1.039c-0.907-0.906-2.067-1.359-3.48-1.359c-1.92,0-2.88,0.84-2.88,2.52c0,0.746,0.293,1.359,0.88,1.84
		c0.48,0.375,1.24,0.734,2.28,1.08c0.906,0.32,1.653,0.621,2.24,0.9c0.586,0.279,1.026,0.527,1.319,0.74
		c1.146,0.879,1.721,2.066,1.721,3.561C1024.007,683.311,1023.486,684.471,1022.446,685.35z"/>
</g>
<g>
	<path fill="#010202" d="M917.928,720.311c-0.427-0.32-0.88-0.574-1.36-0.76c-0.48-0.188-0.987-0.281-1.52-0.281
		c-0.454,0-0.88,0.141-1.28,0.42c-0.4,0.281-0.747,0.627-1.04,1.041c-0.294,0.414-0.527,0.873-0.7,1.379
		c-0.174,0.508-0.26,0.975-0.26,1.4v10.881h-1.64v-16.52h1.64v2.238c0.347-0.613,0.8-1.172,1.36-1.68
		c0.56-0.506,1.173-0.76,1.84-0.76c0.826,0,1.506,0.094,2.04,0.279c0.533,0.188,1.133,0.521,1.8,1L917.928,720.311z"/>
	<path fill="#010202" d="M933.368,732.19c-1.654,1.654-3.68,2.48-6.08,2.48s-4.414-0.813-6.04-2.439
		c-1.654-1.654-2.48-3.68-2.48-6.08c0-2.373,0.826-4.387,2.48-6.041c1.626-1.68,3.64-2.52,6.04-2.52c2.373,0,4.386,0.828,6.04,2.48
		c1.653,1.654,2.48,3.68,2.48,6.08S934.995,730.565,933.368,732.19z M932.208,721.231c-1.333-1.359-2.974-2.041-4.92-2.041
		c-1.867,0-3.48,0.695-4.84,2.08c-1.387,1.387-2.08,3.014-2.08,4.881c0,1.893,0.68,3.52,2.04,4.879
		c1.36,1.361,2.986,2.041,4.88,2.041c1.92,0,3.546-0.666,4.88-2c1.36-1.359,2.04-3,2.04-4.92
		C934.208,724.204,933.542,722.565,932.208,721.231z"/>
	<path fill="#010202" d="M955.008,732.19c-1.654,1.654-3.68,2.48-6.08,2.48s-4.414-0.813-6.04-2.439
		c-1.654-1.654-2.48-3.68-2.48-6.08c0-2.373,0.826-4.387,2.48-6.041c1.626-1.68,3.64-2.52,6.04-2.52c2.373,0,4.386,0.828,6.04,2.48
		c1.653,1.654,2.48,3.68,2.48,6.08S956.634,730.565,955.008,732.19z M953.848,721.231c-1.333-1.359-2.974-2.041-4.92-2.041
		c-1.867,0-3.48,0.695-4.84,2.08c-1.387,1.387-2.08,3.014-2.08,4.881c0,1.893,0.68,3.52,2.04,4.879
		c1.36,1.361,2.986,2.041,4.88,2.041c1.92,0,3.546-0.666,4.88-2c1.36-1.359,2.04-3,2.04-4.92
		C955.848,724.204,955.181,722.565,953.848,721.231z"/>
	<path fill="#010202" d="M980.367,734.391v-11.4c0-1.014-0.334-1.893-1-2.641c-0.666-0.746-1.627-1.119-2.881-1.119
		c-2.586,0-3.879,1.254-3.879,3.76v11.4h-1.641v-11.4c0-1.119-0.373-2.014-1.119-2.68c-0.773-0.721-1.693-1.08-2.76-1.08
		c-1.094,0-2.014,0.346-2.761,1.039c-0.747,0.668-1.12,1.574-1.12,2.721v11.4h-1.64v-16.52h1.64v1.639
		c0.8-1.252,2.093-1.879,3.881-1.879c2.133,0,3.705,0.865,4.719,2.6c0.961-1.734,2.521-2.6,4.68-2.6c1.654,0,2.986,0.467,4,1.398
		c1.014,0.961,1.521,2.281,1.521,3.961v11.4H980.367z"/>
	<path fill="#010202" d="M997.926,734.391v-28.561h1.6v28.561H997.926z"/>
	<path fill="#010202" d="M1022.005,730.071c-2.4,2.879-5.534,4.32-9.4,4.32h-9.52v-28.561h9.52c3.841,0,6.96,1.439,9.36,4.32
		c2.267,2.693,3.4,6,3.4,9.92C1025.365,724.018,1024.245,727.35,1022.005,730.071z M1020.805,711.27
		c-2.08-2.559-4.813-3.84-8.2-3.84h-7.92v25.32h7.92c2.934,0,5.48-1.094,7.641-3.279c2.319-2.348,3.479-5.48,3.479-9.4
		C1023.725,716.577,1022.751,713.645,1020.805,711.27z"/>
	<path fill="#010202" d="M1038.324,733.35c-1.066,0.908-2.347,1.361-3.84,1.361c-2.56,0-4.479-1.16-5.76-3.48l1.399-0.84
		c0.453,0.826,1,1.467,1.641,1.92c0.666,0.506,1.573,0.76,2.72,0.76c2.506,0,3.76-1.066,3.76-3.199c0-0.934-0.439-1.748-1.319-2.441
		c-0.268-0.16-0.647-0.34-1.141-0.539c-0.493-0.201-1.1-0.434-1.819-0.701c-1.334-0.479-2.294-0.959-2.881-1.439
		c-0.854-0.693-1.279-1.693-1.279-3c0-1.119,0.426-2.08,1.279-2.879c0.827-0.828,1.906-1.24,3.24-1.24c1.84,0,3.4,0.639,4.681,1.92
		l-1.2,1.039c-0.907-0.906-2.067-1.359-3.48-1.359c-1.92,0-2.88,0.84-2.88,2.52c0,0.746,0.293,1.359,0.88,1.84
		c0.48,0.375,1.24,0.734,2.28,1.08c0.906,0.32,1.653,0.621,2.24,0.9c0.586,0.279,1.026,0.527,1.319,0.74
		c1.146,0.879,1.721,2.066,1.721,3.561C1039.885,731.311,1039.364,732.471,1038.324,733.35z"/>
</g>
<g>
	<path fill="#010202" d="M922.208,360.751v14.88h-1.64v-14.88h-2.24v-1.64h2.24v-7.24h1.64v7.24h3.84v1.64H922.208z"/>
	<path fill="#010202" d="M941.488,375.671v-9.96c0-3.493-1.627-5.24-4.88-5.24c-1.334,0-2.48,0.4-3.44,1.2
		c-0.987,0.8-1.48,1.867-1.48,3.2v10.76h-1.64v-29.6h1.64v15.28c0.986-1.626,2.626-2.44,4.92-2.44c4.346,0,6.52,2.227,6.52,6.68
		v10.12H941.488z"/>
	<path fill="#010202" d="M948.288,367.031c0,2.24,0.6,4.014,1.8,5.32c1.253,1.333,2.973,2,5.16,2c1.12,0,2.133-0.187,3.04-0.56
		c1.146-0.48,2.173-1.453,3.08-2.92l1.48,0.68c-1.04,1.974-2.64,3.307-4.8,4c-0.827,0.266-1.76,0.4-2.8,0.4
		c-2.48,0-4.52-0.813-6.12-2.44c-1.626-1.626-2.44-3.666-2.44-6.12c0-2.48,0.8-4.52,2.4-6.12c1.626-1.626,3.68-2.44,6.16-2.44
		c2.453,0,4.48,0.76,6.08,2.28c1.626,1.52,2.44,3.494,2.44,5.92H948.288z M959.568,361.791c-1.254-0.906-2.694-1.36-4.32-1.36
		c-3.414,0-5.654,1.68-6.72,5.04h13.4C961.661,363.951,960.875,362.725,959.568,361.791z"/>
	<path fill="#010202" d="M975.368,361.551c-0.428-0.32-0.881-0.573-1.36-0.76c-0.48-0.187-0.987-0.28-1.521-0.28
		c-0.453,0-0.88,0.14-1.279,0.42c-0.4,0.28-0.747,0.627-1.04,1.04c-0.294,0.414-0.527,0.874-0.7,1.38
		c-0.174,0.507-0.26,0.974-0.26,1.4v10.88h-1.641v-16.52h1.641v2.24c0.346-0.613,0.8-1.173,1.359-1.68
		c0.561-0.506,1.174-0.76,1.841-0.76c0.826,0,1.506,0.094,2.039,0.28c0.533,0.187,1.134,0.52,1.801,1L975.368,361.551z"/>
	<path fill="#010202" d="M998.769,375.631v-11.4c0-1.013-0.334-1.893-1-2.64c-0.667-0.746-1.627-1.12-2.881-1.12
		c-2.587,0-3.88,1.254-3.88,3.76v11.4h-1.64v-11.4c0-1.12-0.374-2.013-1.12-2.68c-0.773-0.72-1.693-1.08-2.76-1.08
		c-1.094,0-2.014,0.347-2.76,1.04c-0.747,0.667-1.12,1.574-1.12,2.72v11.4h-1.641v-16.52h1.641v1.64c0.8-1.253,2.093-1.88,3.88-1.88
		c2.133,0,3.706,0.867,4.72,2.6c0.96-1.733,2.521-2.6,4.68-2.6c1.653,0,2.986,0.467,4,1.4c1.014,0.96,1.521,2.28,1.521,3.96v11.4
		H998.769z"/>
	<path fill="#010202" d="M1019.567,375.631v-2.84c-1.733,2.08-3.934,3.12-6.6,3.12c-2.4,0-4.414-0.813-6.04-2.44
		c-1.653-1.653-2.479-3.68-2.479-6.08c0-2.4,0.813-4.413,2.439-6.04c1.653-1.653,3.68-2.48,6.08-2.48c2.64,0,4.84,1.04,6.6,3.12
		v-2.88h1.641v16.52H1019.567z M1017.848,362.511c-1.359-1.36-2.986-2.04-4.88-2.04c-1.92,0-3.547,0.667-4.88,2
		c-1.36,1.36-2.04,3-2.04,4.92c0,1.894,0.68,3.52,2.04,4.88c1.36,1.36,2.986,2.04,4.88,2.04c1.92,0,3.546-0.667,4.88-2
		c1.36-1.36,2.04-3,2.04-4.92C1019.888,365.498,1019.208,363.871,1017.848,362.511z"/>
	<path fill="#010202" d="M1026.527,375.631v-29.6h1.6v29.6H1026.527z"/>
</g>
<g>
	<path fill="#010202" d="M891.208,393.551c-0.427-0.32-0.88-0.573-1.36-0.76s-0.987-0.28-1.52-0.28c-0.454,0-0.88,0.14-1.28,0.42
		c-0.4,0.28-0.747,0.627-1.04,1.04c-0.294,0.414-0.527,0.874-0.7,1.38c-0.174,0.507-0.26,0.974-0.26,1.4v10.88h-1.64v-16.52h1.64
		v2.24c0.347-0.613,0.8-1.173,1.36-1.68c0.56-0.506,1.173-0.76,1.84-0.76c0.826,0,1.506,0.094,2.04,0.28
		c0.533,0.187,1.133,0.52,1.8,1L891.208,393.551z"/>
	<path fill="#010202" d="M893.809,399.031c0,2.24,0.6,4.014,1.8,5.32c1.253,1.333,2.973,2,5.16,2c1.12,0,2.133-0.187,3.04-0.56
		c1.146-0.48,2.173-1.453,3.08-2.92l1.48,0.68c-1.04,1.974-2.64,3.307-4.8,4c-0.827,0.266-1.76,0.4-2.8,0.4
		c-2.48,0-4.52-0.813-6.12-2.44c-1.626-1.626-2.44-3.666-2.44-6.12c0-2.48,0.8-4.52,2.4-6.12c1.626-1.626,3.68-2.44,6.16-2.44
		c2.453,0,4.48,0.76,6.08,2.28c1.626,1.52,2.44,3.494,2.44,5.92H893.809z M905.089,393.791c-1.254-0.906-2.694-1.36-4.32-1.36
		c-3.414,0-5.654,1.68-6.72,5.04h13.4C907.182,395.951,906.395,394.725,905.089,393.791z"/>
	<path fill="#010202" d="M926.888,415.391v-10.72c-1.76,2.16-4,3.24-6.72,3.24c-2.4,0-4.414-0.813-6.04-2.44
		c-1.654-1.653-2.48-3.68-2.48-6.08c0-2.4,0.813-4.413,2.44-6.04c1.653-1.653,3.68-2.48,6.08-2.48c2.666,0,4.906,1.08,6.72,3.24v-3
		h1.64v24.28H926.888z M925.048,394.511c-1.36-1.36-2.987-2.04-4.88-2.04c-1.92,0-3.547,0.667-4.88,2c-1.36,1.36-2.04,3-2.04,4.92
		c0,1.894,0.68,3.52,2.04,4.88c1.36,1.36,2.986,2.04,4.88,2.04c1.92,0,3.546-0.667,4.88-2c1.36-1.36,2.04-3,2.04-4.92
		C927.088,397.498,926.408,395.871,925.048,394.511z"/>
	<path fill="#010202" d="M943.688,406.191c-1.094,1.174-2.627,1.76-4.6,1.76c-1.947,0-3.454-0.573-4.52-1.72
		c-1.067-1.146-1.6-2.747-1.6-4.8v-10.32h1.64v10.32c0,1.574,0.346,2.787,1.04,3.64c0.72,0.854,1.866,1.28,3.44,1.28
		c3.066,0,4.6-1.64,4.6-4.92v-10.32h1.6v10.32C945.288,403.458,944.754,405.044,943.688,406.191z"/>
	<path fill="#010202" d="M949.647,388.151c-0.293,0-0.6-0.12-0.92-0.36c-0.24-0.24-0.374-0.56-0.4-0.96c0-0.72,0.44-1.16,1.32-1.32
		c0.667,0,1.106,0.44,1.32,1.32C950.968,387.711,950.528,388.151,949.647,388.151z M948.808,407.631v-16.52h1.64v16.52H948.808z"/>
	<path fill="#010202" d="M961.807,393.551c-0.427-0.32-0.88-0.573-1.36-0.76s-0.987-0.28-1.52-0.28c-0.454,0-0.88,0.14-1.28,0.42
		c-0.4,0.28-0.747,0.627-1.04,1.04c-0.294,0.414-0.527,0.874-0.7,1.38c-0.174,0.507-0.26,0.974-0.26,1.4v10.88h-1.64v-16.52h1.64
		v2.24c0.347-0.613,0.8-1.173,1.36-1.68c0.56-0.506,1.173-0.76,1.84-0.76c0.826,0,1.506,0.094,2.04,0.28
		c0.533,0.187,1.133,0.52,1.8,1L961.807,393.551z"/>
	<path fill="#010202" d="M964.408,399.031c0,2.24,0.6,4.014,1.8,5.32c1.253,1.333,2.974,2,5.16,2c1.121,0,2.133-0.187,3.041-0.56
		c1.146-0.48,2.172-1.453,3.08-2.92l1.479,0.68c-1.039,1.974-2.639,3.307-4.799,4c-0.826,0.266-1.76,0.4-2.801,0.4
		c-2.479,0-4.52-0.813-6.12-2.44c-1.626-1.626-2.44-3.666-2.44-6.12c0-2.48,0.8-4.52,2.4-6.12c1.626-1.626,3.681-2.44,6.16-2.44
		c2.453,0,4.48,0.76,6.08,2.28c1.627,1.52,2.441,3.494,2.441,5.92H964.408z M975.688,393.791c-1.254-0.906-2.693-1.36-4.32-1.36
		c-3.414,0-5.653,1.68-6.719,5.04h13.399C977.781,395.951,976.994,394.725,975.688,393.791z"/>
	<path fill="#010202" d="M1002.487,407.631v-11.4c0-1.013-0.334-1.893-1-2.64c-0.667-0.746-1.627-1.12-2.881-1.12
		c-2.587,0-3.88,1.254-3.88,3.76v11.4h-1.64v-11.4c0-1.12-0.374-2.013-1.12-2.68c-0.773-0.72-1.693-1.08-2.76-1.08
		c-1.094,0-2.014,0.347-2.76,1.04c-0.747,0.667-1.12,1.574-1.12,2.72v11.4h-1.641v-16.52h1.641v1.64c0.8-1.253,2.093-1.88,3.88-1.88
		c2.133,0,3.706,0.867,4.72,2.6c0.96-1.733,2.521-2.6,4.68-2.6c1.653,0,2.986,0.467,4,1.4c1.014,0.96,1.521,2.28,1.521,3.96v11.4
		H1002.487z"/>
	<path fill="#010202" d="M1009.727,399.031c0,2.24,0.6,4.014,1.8,5.32c1.253,1.333,2.974,2,5.16,2c1.12,0,2.133-0.187,3.04-0.56
		c1.146-0.48,2.173-1.453,3.08-2.92l1.479,0.68c-1.039,1.974-2.64,3.307-4.8,4c-0.826,0.266-1.76,0.4-2.8,0.4
		c-2.479,0-4.52-0.813-6.12-2.44c-1.627-1.626-2.439-3.666-2.439-6.12c0-2.48,0.8-4.52,2.399-6.12c1.627-1.626,3.681-2.44,6.16-2.44
		c2.453,0,4.48,0.76,6.08,2.28c1.626,1.52,2.44,3.494,2.44,5.92H1009.727z M1021.007,393.791c-1.254-0.906-2.694-1.36-4.32-1.36
		c-3.414,0-5.653,1.68-6.72,5.04h13.399C1023.1,395.951,1022.313,394.725,1021.007,393.791z"/>
	<path fill="#010202" d="M1040.126,407.631v-9.88c0-3.493-1.573-5.24-4.72-5.24c-1.547,0-2.72,0.454-3.521,1.36
		c-0.826,0.907-1.239,2.146-1.239,3.72v10.04h-1.641v-16.52h1.641v2c0.746-1.466,2.333-2.2,4.76-2.2c2.053,0,3.626,0.587,4.72,1.76
		c1.094,1.174,1.641,2.813,1.641,4.92v10.04H1040.126z"/>
	<path fill="#010202" d="M1049.526,392.751v14.88h-1.64v-14.88h-2.24v-1.64h2.24v-7.24h1.64v7.24h3.84v1.64H1049.526z"/>
	<path fill="#010202" d="M1065.166,406.591c-1.066,0.907-2.347,1.36-3.84,1.36c-2.56,0-4.479-1.16-5.76-3.48l1.399-0.84
		c0.453,0.827,1,1.467,1.641,1.92c0.666,0.507,1.573,0.76,2.72,0.76c2.506,0,3.76-1.066,3.76-3.2c0-0.933-0.439-1.746-1.319-2.44
		c-0.268-0.16-0.647-0.34-1.141-0.54s-1.1-0.433-1.819-0.7c-1.334-0.48-2.294-0.96-2.881-1.44c-0.854-0.693-1.279-1.693-1.279-3
		c0-1.12,0.426-2.08,1.279-2.88c0.827-0.826,1.906-1.24,3.24-1.24c1.84,0,3.4,0.64,4.681,1.92l-1.2,1.04
		c-0.907-0.906-2.067-1.36-3.48-1.36c-1.92,0-2.88,0.84-2.88,2.52c0,0.747,0.293,1.36,0.88,1.84c0.48,0.374,1.24,0.733,2.28,1.08
		c0.906,0.32,1.653,0.62,2.24,0.9c0.586,0.28,1.026,0.527,1.319,0.74c1.146,0.88,1.721,2.067,1.721,3.56
		C1066.727,404.551,1066.206,405.711,1065.166,406.591z"/>
</g>
<g>
	<path fill="#010202" d="M888.888,441.551c-0.427-0.32-0.88-0.573-1.36-0.76s-0.987-0.28-1.52-0.28c-0.454,0-0.88,0.14-1.28,0.42
		c-0.4,0.28-0.747,0.627-1.04,1.04c-0.294,0.414-0.527,0.874-0.7,1.38c-0.174,0.507-0.26,0.974-0.26,1.4v10.88h-1.64v-16.52h1.64
		v2.24c0.347-0.613,0.8-1.173,1.36-1.68c0.56-0.506,1.173-0.76,1.84-0.76c0.826,0,1.506,0.094,2.04,0.28
		c0.533,0.187,1.133,0.52,1.8,1L888.888,441.551z"/>
	<path fill="#010202" d="M904.328,453.431c-1.654,1.654-3.68,2.48-6.08,2.48s-4.414-0.813-6.04-2.44
		c-1.654-1.653-2.48-3.68-2.48-6.08c0-2.373,0.826-4.386,2.48-6.04c1.626-1.68,3.64-2.52,6.04-2.52c2.373,0,4.386,0.827,6.04,2.48
		c1.653,1.654,2.48,3.68,2.48,6.08C906.768,449.791,905.955,451.805,904.328,453.431z M903.168,442.471
		c-1.333-1.36-2.974-2.04-4.92-2.04c-1.867,0-3.48,0.694-4.84,2.08c-1.387,1.387-2.08,3.014-2.08,4.88c0,1.894,0.68,3.52,2.04,4.88
		c1.36,1.36,2.986,2.04,4.88,2.04c1.92,0,3.546-0.667,4.88-2c1.36-1.36,2.04-3,2.04-4.92
		C905.168,445.445,904.501,443.805,903.168,442.471z"/>
	<path fill="#010202" d="M925.968,453.431c-1.654,1.654-3.68,2.48-6.08,2.48s-4.414-0.813-6.04-2.44
		c-1.654-1.653-2.48-3.68-2.48-6.08c0-2.373,0.826-4.386,2.48-6.04c1.626-1.68,3.64-2.52,6.04-2.52c2.373,0,4.386,0.827,6.04,2.48
		c1.653,1.654,2.48,3.68,2.48,6.08C928.408,449.791,927.594,451.805,925.968,453.431z M924.808,442.471
		c-1.333-1.36-2.974-2.04-4.92-2.04c-1.867,0-3.48,0.694-4.84,2.08c-1.387,1.387-2.08,3.014-2.08,4.88c0,1.894,0.68,3.52,2.04,4.88
		c1.36,1.36,2.986,2.04,4.88,2.04c1.92,0,3.546-0.667,4.88-2c1.36-1.36,2.04-3,2.04-4.92
		C926.808,445.445,926.141,443.805,924.808,442.471z"/>
	<path fill="#010202" d="M951.327,455.631v-11.4c0-1.013-0.333-1.893-1-2.64c-0.667-0.746-1.627-1.12-2.88-1.12
		c-2.587,0-3.88,1.254-3.88,3.76v11.4h-1.64v-11.4c0-1.12-0.374-2.013-1.12-2.68c-0.773-0.72-1.694-1.08-2.76-1.08
		c-1.094,0-2.014,0.347-2.76,1.04c-0.747,0.667-1.12,1.574-1.12,2.72v11.4h-1.64v-16.52h1.64v1.64c0.8-1.253,2.093-1.88,3.88-1.88
		c2.133,0,3.706,0.867,4.72,2.6c0.96-1.733,2.52-2.6,4.68-2.6c1.653,0,2.986,0.467,4,1.4c1.013,0.96,1.52,2.28,1.52,3.96v11.4
		H951.327z"/>
	<path fill="#010202" d="M978.967,454.191c-1.094,1.174-2.627,1.76-4.601,1.76c-1.946,0-3.453-0.573-4.52-1.72
		c-1.067-1.146-1.6-2.747-1.6-4.8v-10.32h1.64v10.32c0,1.574,0.346,2.787,1.04,3.64c0.72,0.854,1.866,1.28,3.439,1.28
		c3.066,0,4.601-1.64,4.601-4.92v-10.32h1.6v10.32C980.566,451.458,980.033,453.044,978.967,454.191z"/>
	<path fill="#010202" d="M993.726,454.591c-1.066,0.907-2.347,1.36-3.84,1.36c-2.56,0-4.479-1.16-5.76-3.48l1.399-0.84
		c0.453,0.827,1,1.467,1.641,1.92c0.666,0.507,1.573,0.76,2.72,0.76c2.506,0,3.76-1.066,3.76-3.2c0-0.933-0.439-1.746-1.319-2.44
		c-0.268-0.16-0.647-0.34-1.141-0.54s-1.1-0.433-1.819-0.7c-1.334-0.48-2.294-0.96-2.881-1.44c-0.854-0.693-1.279-1.693-1.279-3
		c0-1.12,0.426-2.08,1.279-2.88c0.827-0.826,1.906-1.24,3.24-1.24c1.84,0,3.4,0.64,4.681,1.92l-1.2,1.04
		c-0.907-0.906-2.067-1.36-3.48-1.36c-1.92,0-2.88,0.84-2.88,2.52c0,0.747,0.293,1.36,0.88,1.84c0.48,0.374,1.24,0.733,2.28,1.08
		c0.906,0.32,1.653,0.62,2.24,0.9c0.586,0.28,1.026,0.527,1.319,0.74c1.146,0.88,1.721,2.067,1.721,3.56
		C995.286,452.551,994.766,453.711,993.726,454.591z"/>
	<path fill="#010202" d="M1012.726,455.631v-2.84c-1.733,2.08-3.934,3.12-6.6,3.12c-2.4,0-4.414-0.813-6.04-2.44
		c-1.653-1.653-2.479-3.68-2.479-6.08c0-2.4,0.813-4.413,2.439-6.04c1.653-1.653,3.68-2.48,6.08-2.48c2.64,0,4.84,1.04,6.6,3.12
		v-2.88h1.641v16.52H1012.726z M1011.006,442.511c-1.359-1.36-2.986-2.04-4.88-2.04c-1.92,0-3.547,0.667-4.88,2
		c-1.36,1.36-2.04,3-2.04,4.92c0,1.894,0.68,3.52,2.04,4.88c1.36,1.36,2.986,2.04,4.88,2.04c1.92,0,3.546-0.667,4.88-2
		c1.36-1.36,2.04-3,2.04-4.92C1013.046,445.498,1012.366,443.871,1011.006,442.511z"/>
	<path fill="#010202" d="M1032.525,461.151c-1.494,1.493-3.454,2.24-5.88,2.24c-4.507,0-7.2-1.773-8.08-5.32h1.64
		c0.294,1.306,1.134,2.28,2.521,2.92c1.093,0.506,2.399,0.76,3.92,0.76c2.053,0,3.64-0.574,4.76-1.72
		c1.146-1.147,1.72-2.747,1.72-4.8v-2.44c-1.733,2.08-3.934,3.12-6.6,3.12c-2.4,0-4.414-0.813-6.04-2.44
		c-1.653-1.653-2.479-3.68-2.479-6.08c0-2.4,0.813-4.413,2.439-6.04c1.653-1.653,3.68-2.48,6.08-2.48c2.64,0,4.84,1.04,6.6,3.12
		v-2.88h1.641v16.16C1034.766,457.697,1034.019,459.657,1032.525,461.151z M1031.405,442.511c-1.359-1.36-2.986-2.04-4.88-2.04
		c-1.92,0-3.547,0.667-4.88,2c-1.36,1.36-2.04,3-2.04,4.92c0,1.894,0.68,3.52,2.04,4.88c1.36,1.36,2.986,2.04,4.88,2.04
		c1.92,0,3.546-0.667,4.88-2c1.36-1.36,2.04-3,2.04-4.92C1033.445,445.498,1032.766,443.871,1031.405,442.511z"/>
	<path fill="#010202" d="M1039.965,447.031c0,2.24,0.6,4.014,1.8,5.32c1.253,1.333,2.974,2,5.16,2c1.12,0,2.133-0.187,3.04-0.56
		c1.146-0.48,2.173-1.453,3.08-2.92l1.479,0.68c-1.039,1.974-2.64,3.307-4.8,4c-0.826,0.266-1.76,0.4-2.8,0.4
		c-2.479,0-4.52-0.813-6.12-2.44c-1.627-1.626-2.439-3.666-2.439-6.12c0-2.48,0.8-4.52,2.399-6.12c1.627-1.626,3.681-2.44,6.16-2.44
		c2.453,0,4.48,0.76,6.08,2.28c1.626,1.52,2.44,3.494,2.44,5.92H1039.965z M1051.245,441.791c-1.254-0.906-2.694-1.36-4.32-1.36
		c-3.414,0-5.653,1.68-6.72,5.04h13.399C1053.338,443.951,1052.551,442.725,1051.245,441.791z"/>
	<path fill="#010202" d="M1067.364,454.591c-1.066,0.907-2.347,1.36-3.84,1.36c-2.56,0-4.479-1.16-5.76-3.48l1.399-0.84
		c0.453,0.827,1,1.467,1.641,1.92c0.666,0.507,1.573,0.76,2.72,0.76c2.506,0,3.76-1.066,3.76-3.2c0-0.933-0.439-1.746-1.319-2.44
		c-0.268-0.16-0.647-0.34-1.141-0.54s-1.1-0.433-1.819-0.7c-1.334-0.48-2.294-0.96-2.881-1.44c-0.854-0.693-1.279-1.693-1.279-3
		c0-1.12,0.426-2.08,1.279-2.88c0.827-0.826,1.906-1.24,3.24-1.24c1.84,0,3.4,0.64,4.681,1.92l-1.2,1.04
		c-0.907-0.906-2.067-1.36-3.48-1.36c-1.92,0-2.88,0.84-2.88,2.52c0,0.747,0.293,1.36,0.88,1.84c0.48,0.374,1.24,0.733,2.28,1.08
		c0.906,0.32,1.653,0.62,2.24,0.9c0.586,0.28,1.026,0.527,1.319,0.74c1.146,0.88,1.721,2.067,1.721,3.56
		C1068.925,452.551,1068.404,453.711,1067.364,454.591z"/>
</g>
</svg>
