<?xml version="1.0" encoding="utf-8"?>
<!-- Generator: Adobe Illustrator 16.0.0, SVG Export Plug-In . SVG Version: 6.00 Build 0)  -->
<!DOCTYPE svg PUBLIC "-//W3C//DTD SVG 1.1//EN" "http://www.w3.org/Graphics/SVG/1.1/DTD/svg11.dtd">
<svg version="1.1" id="Layer_1" xmlns="http://www.w3.org/2000/svg" xmlns:xlink="http://www.w3.org/1999/xlink" x="0px" y="0px"
	 width="1920px" height="1080px" viewBox="0 0 1920 1080" enable-background="new 0 0 1920 1080" xml:space="preserve">
<path fill="#EDEDED" stroke="#000000" stroke-width="0.3624" stroke-miterlimit="10" d="M1060.972,556
	c0,12.758-10.375,23.125-23.148,23.125H882.121c-12.781,0-23.148-10.367-23.148-23.125v-39.422
	c0-12.781,10.367-23.125,23.148-23.125h155.703c12.773,0,23.148,10.344,23.148,23.125V556z"/>
<g>
	<g>
		<path d="M879.555,540.44l15.161-9.241v2.718l-10.752,6.523l10.752,6.523v2.718L879.555,540.44z"/>
		<path d="M912.957,554.756c-1.611,1.369-3.544,2.053-5.799,2.053c-3.865,0-6.765-1.752-8.697-5.254l2.113-1.27
			c0.685,1.249,1.511,2.215,2.477,2.9c1.006,0.765,2.376,1.146,4.107,1.146c3.784,0,5.678-1.609,5.678-4.832
			c0-1.408-0.664-2.637-1.993-3.684c-0.403-0.242-0.977-0.514-1.722-0.816c-0.745-0.301-1.661-0.653-2.748-1.057
			c-2.014-0.725-3.464-1.449-4.349-2.174c-1.289-1.047-1.933-2.557-1.933-4.53c0-1.691,0.644-3.142,1.933-4.349
			c1.247-1.248,2.878-1.873,4.893-1.873c2.778,0,5.134,0.967,7.066,2.899l-1.812,1.571c-1.37-1.369-3.121-2.055-5.255-2.055
			c-2.899,0-4.35,1.269-4.35,3.806c0,1.128,0.443,2.054,1.329,2.778c0.725,0.564,1.872,1.107,3.443,1.631
			c1.368,0.483,2.496,0.936,3.382,1.359c0.886,0.422,1.55,0.795,1.993,1.117c1.731,1.328,2.598,3.121,2.598,5.375
			C915.312,551.675,914.527,553.426,912.957,554.756z"/>
		<path d="M924.432,533.857v22.469h-2.477v-22.469h-3.383v-2.477h3.383v-10.934h2.477v10.934h5.798v2.477H924.432z"/>
		<path d="M953.908,556.326v-4.289c-2.618,3.141-5.94,4.711-9.966,4.711c-3.624,0-6.665-1.228-9.121-3.684
			c-2.497-2.496-3.744-5.557-3.744-9.182c0-3.623,1.228-6.664,3.685-9.12c2.496-2.496,5.557-3.745,9.181-3.745
			c3.986,0,7.309,1.57,9.966,4.711v-4.348h2.477v24.945H953.908z M951.31,536.514c-2.053-2.053-4.51-3.08-7.368-3.08
			c-2.899,0-5.356,1.008-7.369,3.021c-2.054,2.054-3.08,4.53-3.08,7.429c0,2.859,1.026,5.315,3.08,7.369s4.51,3.08,7.369,3.08
			c2.899,0,5.354-1.006,7.368-3.02c2.054-2.054,3.081-4.53,3.081-7.43C954.391,541.024,953.364,538.568,951.31,536.514z"/>
		<path d="M967.498,533.857v22.469h-2.477v-22.469h-3.383v-2.477h3.383v-10.934h2.477v10.934h5.798v2.477H967.498z"/>
		<path d="M979.335,543.34c0,3.383,0.906,6.061,2.718,8.033c1.893,2.014,4.489,3.02,7.792,3.02c1.691,0,3.221-0.281,4.59-0.846
			c1.731-0.725,3.282-2.193,4.651-4.408l2.234,1.026c-1.57,2.979-3.986,4.993-7.248,6.04c-1.248,0.402-2.657,0.604-4.228,0.604
			c-3.745,0-6.825-1.228-9.241-3.684c-2.457-2.456-3.685-5.537-3.685-9.242c0-3.744,1.208-6.824,3.624-9.24
			c2.455-2.456,5.557-3.686,9.302-3.686c3.704,0,6.765,1.148,9.181,3.443c2.456,2.295,3.685,5.275,3.685,8.939H979.335z
			 M996.369,535.428c-1.894-1.369-4.068-2.055-6.523-2.055c-5.155,0-8.537,2.537-10.147,7.611h20.234
			C999.529,538.689,998.34,536.837,996.369,535.428z"/>
		<path d="M1009.476,556.326v-40.65h-7.309l1.631-2.477h8.154v43.127H1009.476z"/>
		<path d="M1027.354,549.682v-2.718l10.691-6.523l-10.691-6.523v-2.718l15.16,9.241L1027.354,549.682z"/>
	</g>
</g>
<g>
	<g>
		<path d="M880.69,472.571c-0.299-0.224-0.615-0.401-0.951-0.532c-0.337-0.131-0.691-0.195-1.064-0.195
			c-0.317,0-0.616,0.098-0.896,0.293c-0.28,0.196-0.523,0.439-0.729,0.729c-0.206,0.289-0.369,0.611-0.49,0.966
			s-0.182,0.682-0.182,0.979v7.617h-1.148v-11.564h1.148v1.568c0.242-0.43,0.56-0.822,0.952-1.176
			c0.392-0.355,0.821-0.533,1.288-0.533c0.578,0,1.054,0.066,1.428,0.197c0.373,0.131,0.793,0.363,1.26,0.699L880.69,472.571z"/>
		<path d="M893.15,482.428v-2.072c-1.232,1.512-2.8,2.268-4.704,2.268c-1.68,0-3.09-0.568-4.228-1.708
			c-1.158-1.157-1.736-2.575-1.736-4.256s0.569-3.089,1.708-4.228c1.157-1.158,2.576-1.736,4.256-1.736
			c1.848,0,3.416,0.756,4.704,2.268v-11.256h1.147v20.721H893.15z M891.862,473.243c-0.952-0.952-2.091-1.428-3.416-1.428
			c-1.344,0-2.482,0.467-3.416,1.399c-0.952,0.953-1.428,2.101-1.428,3.444c0,1.325,0.476,2.464,1.428,3.416
			s2.091,1.429,3.416,1.429c1.344,0,2.482-0.467,3.416-1.4c0.952-0.952,1.428-2.1,1.428-3.444
			C893.29,475.334,892.814,474.195,891.862,473.243z"/>
		<path d="M902.11,462.855l-0.756-0.084c-1.046,0-1.568,0.615-1.568,1.848v6.244h2.744v1.148h-2.744v10.416h-1.147v-10.416h-1.568
			v-1.148h1.568v-6.58c0-1.773,0.896-2.66,2.688-2.66c0.41,0,0.672,0.02,0.784,0.057c0.224,0,0.476,0.064,0.756,0.195v1.148
			L902.11,462.855z"/>
		<path d="M905.805,474.336c-0.205,0-0.42-0.084-0.644-0.253c-0.168-0.168-0.262-0.392-0.28-0.672c0-0.504,0.309-0.812,0.924-0.924
			c0.467,0,0.774,0.308,0.925,0.924C906.73,474.027,906.421,474.336,905.805,474.336z M905.805,482.596
			c-0.205,0-0.42-0.084-0.644-0.252c-0.168-0.168-0.262-0.393-0.28-0.672c0-0.504,0.309-0.813,0.924-0.925
			c0.467,0,0.774,0.308,0.925,0.925C906.73,482.287,906.421,482.596,905.805,482.596z"/>
		<path d="M911.602,472.012v10.416h-1.148v-10.416h-1.567v-1.148h1.567v-5.068h1.148v5.068h2.688v1.148H911.602z"/>
		<path d="M918.966,487.859h-1.288l2.996-6.496l-4.872-10.5h1.231l4.313,9.128l4.256-9.128h1.26L918.966,487.859z"/>
		<path d="M939.434,480.887c-1.157,1.158-2.576,1.736-4.256,1.736c-1.923,0-3.51-0.783-4.76-2.352v7.588h-1.148v-16.996h1.148v2.184
			c1.194-1.568,2.78-2.352,4.76-2.352c1.68,0,3.089,0.569,4.228,1.708c1.157,1.157,1.736,2.575,1.736,4.256
			S940.573,479.749,939.434,480.887z M938.594,473.243c-0.952-0.952-2.091-1.428-3.416-1.428c-1.344,0-2.483,0.467-3.416,1.399
			c-0.952,0.953-1.428,2.101-1.428,3.444c0,1.325,0.476,2.464,1.428,3.416s2.09,1.429,3.416,1.429c1.344,0,2.482-0.467,3.416-1.4
			c0.952-0.952,1.428-2.1,1.428-3.444C940.022,475.334,939.546,474.195,938.594,473.243z"/>
		<path d="M943.914,476.407c0,1.567,0.42,2.81,1.26,3.724c0.877,0.934,2.081,1.4,3.612,1.4c0.783,0,1.493-0.131,2.128-0.393
			c0.802-0.336,1.521-1.017,2.155-2.043l1.036,0.476c-0.728,1.382-1.848,2.315-3.359,2.8c-0.579,0.187-1.232,0.28-1.96,0.28
			c-1.736,0-3.164-0.569-4.284-1.708c-1.139-1.139-1.708-2.566-1.708-4.284c0-1.735,0.56-3.164,1.68-4.284
			c1.139-1.139,2.576-1.707,4.313-1.707c1.717,0,3.136,0.531,4.256,1.596c1.138,1.063,1.708,2.445,1.708,4.144H943.914z
			 M951.809,472.739c-0.877-0.634-1.886-0.952-3.023-0.952c-2.39,0-3.958,1.176-4.704,3.528h9.38
			C953.275,474.252,952.724,473.393,951.809,472.739z"/>
	</g>
</g>
<g>
	<g>
		<path d="M977.956,627.402c-1.157,1.158-2.576,1.736-4.256,1.736c-1.923,0-3.51-0.783-4.76-2.352v7.588h-1.148v-16.996h1.148v2.184
			c1.194-1.568,2.78-2.352,4.76-2.352c1.68,0,3.089,0.57,4.228,1.707c1.157,1.158,1.736,2.576,1.736,4.258
			C979.664,624.855,979.094,626.264,977.956,627.402z M977.116,619.76c-0.952-0.953-2.091-1.43-3.416-1.43
			c-1.344,0-2.483,0.467-3.416,1.4c-0.952,0.953-1.428,2.1-1.428,3.445c0,1.324,0.476,2.463,1.428,3.416
			c0.952,0.951,2.09,1.428,3.416,1.428c1.344,0,2.482-0.467,3.416-1.4c0.952-0.953,1.428-2.1,1.428-3.443
			C978.543,621.85,978.068,620.711,977.116,619.76z"/>
		<path d="M987.67,619.086c-0.299-0.223-0.615-0.4-0.951-0.531c-0.337-0.131-0.691-0.195-1.064-0.195
			c-0.317,0-0.616,0.098-0.896,0.293c-0.28,0.197-0.523,0.439-0.729,0.729c-0.206,0.289-0.369,0.611-0.49,0.967
			c-0.121,0.354-0.182,0.682-0.182,0.979v7.617h-1.148v-11.564h1.148v1.568c0.242-0.43,0.56-0.822,0.952-1.176
			c0.392-0.355,0.821-0.533,1.288-0.533c0.578,0,1.054,0.066,1.428,0.197c0.373,0.131,0.793,0.363,1.26,0.699L987.67,619.086z"/>
		<path d="M998.48,627.402c-1.158,1.158-2.576,1.736-4.256,1.736c-1.681,0-3.09-0.568-4.229-1.707
			c-1.157-1.158-1.735-2.576-1.735-4.256c0-1.662,0.578-3.07,1.735-4.229c1.139-1.176,2.548-1.764,4.229-1.764
			c1.661,0,3.07,0.578,4.228,1.734c1.157,1.158,1.736,2.576,1.736,4.258C1000.188,624.855,999.618,626.264,998.48,627.402z
			 M997.667,619.73c-0.934-0.951-2.081-1.428-3.443-1.428c-1.308,0-2.437,0.486-3.389,1.457c-0.971,0.971-1.456,2.109-1.456,3.416
			c0,1.324,0.477,2.463,1.429,3.416c0.952,0.951,2.09,1.428,3.416,1.428c1.344,0,2.482-0.467,3.416-1.4
			c0.951-0.953,1.428-2.1,1.428-3.443C999.068,621.813,998.601,620.664,997.667,619.73z"/>
		<path d="M1005.927,629.447l-5.46-12.068h1.232l4.2,9.213l4.228-9.213h1.288L1005.927,629.447z"/>
		<path d="M1014.243,620.852c-0.205,0-0.42-0.084-0.644-0.252c-0.168-0.168-0.262-0.393-0.28-0.672c0-0.504,0.309-0.813,0.924-0.926
			c0.467,0,0.774,0.309,0.925,0.926C1015.167,620.543,1014.859,620.852,1014.243,620.852z M1014.243,629.111
			c-0.205,0-0.42-0.084-0.644-0.252c-0.168-0.168-0.262-0.393-0.28-0.672c0-0.504,0.309-0.813,0.924-0.924
			c0.467,0,0.774,0.307,0.925,0.924C1015.167,628.803,1014.859,629.111,1014.243,629.111z"/>
		<path d="M1027.599,632.807c-1.045,1.045-2.417,1.568-4.115,1.568c-3.155,0-5.04-1.242-5.656-3.725h1.147
			c0.206,0.914,0.794,1.596,1.765,2.045c0.765,0.354,1.68,0.531,2.744,0.531c1.437,0,2.548-0.4,3.332-1.203
			c0.802-0.803,1.204-1.924,1.204-3.361v-1.707c-1.214,1.455-2.754,2.184-4.62,2.184c-1.681,0-3.09-0.568-4.229-1.707
			c-1.157-1.158-1.735-2.576-1.735-4.256c0-1.682,0.568-3.09,1.708-4.229c1.156-1.158,2.575-1.736,4.256-1.736
			c1.848,0,3.388,0.729,4.62,2.184v-2.016h1.147v11.313C1029.167,630.389,1028.645,631.762,1027.599,632.807z M1026.816,619.76
			c-0.952-0.953-2.091-1.43-3.416-1.43c-1.345,0-2.483,0.467-3.416,1.4c-0.952,0.953-1.429,2.1-1.429,3.445
			c0,1.324,0.477,2.463,1.429,3.416c0.952,0.951,2.09,1.428,3.416,1.428c1.344,0,2.482-0.467,3.416-1.4
			c0.951-0.953,1.428-2.1,1.428-3.443C1028.244,621.85,1027.767,620.711,1026.816,619.76z"/>
		<path d="M1032.807,622.924c0,1.566,0.42,2.809,1.26,3.723c0.877,0.934,2.081,1.4,3.612,1.4c0.783,0,1.493-0.131,2.128-0.393
			c0.802-0.336,1.521-1.018,2.155-2.043l1.036,0.475c-0.728,1.383-1.848,2.316-3.359,2.801c-0.579,0.188-1.232,0.279-1.96,0.279
			c-1.736,0-3.164-0.568-4.284-1.707c-1.139-1.139-1.708-2.566-1.708-4.283c0-1.736,0.56-3.164,1.68-4.285
			c1.139-1.139,2.576-1.707,4.313-1.707c1.717,0,3.136,0.531,4.256,1.596c1.138,1.064,1.708,2.445,1.708,4.145H1032.807z
			 M1040.703,619.254c-0.877-0.633-1.886-0.951-3.023-0.951c-2.39,0-3.958,1.176-4.704,3.527h9.38
			C1042.168,620.768,1041.618,619.908,1040.703,619.254z"/>
		<path d="M1054.086,628.943v-6.916c0-2.445-1.102-3.668-3.304-3.668c-1.083,0-1.904,0.316-2.464,0.951
			c-0.579,0.635-0.868,1.504-0.868,2.604v7.029h-1.148v-11.564h1.148v1.4c0.522-1.027,1.633-1.541,3.332-1.541
			c1.438,0,2.538,0.412,3.304,1.232c0.766,0.822,1.148,1.971,1.148,3.443v7.029H1054.086z"/>
		<path d="M1059.155,622.924c0,1.566,0.42,2.809,1.26,3.723c0.877,0.934,2.081,1.4,3.612,1.4c0.783,0,1.493-0.131,2.128-0.393
			c0.802-0.336,1.521-1.018,2.155-2.043l1.036,0.475c-0.728,1.383-1.848,2.316-3.359,2.801c-0.579,0.188-1.232,0.279-1.96,0.279
			c-1.736,0-3.164-0.568-4.284-1.707c-1.139-1.139-1.708-2.566-1.708-4.283c0-1.736,0.56-3.164,1.68-4.285
			c1.139-1.139,2.576-1.707,4.313-1.707c1.717,0,3.136,0.531,4.256,1.596c1.138,1.064,1.708,2.445,1.708,4.145H1059.155z
			 M1067.05,619.254c-0.877-0.633-1.886-0.951-3.023-0.951c-2.39,0-3.958,1.176-4.704,3.527h9.38
			C1068.516,620.768,1067.965,619.908,1067.05,619.254z"/>
		<path d="M1078.11,619.086c-0.299-0.223-0.615-0.4-0.951-0.531c-0.337-0.131-0.691-0.195-1.064-0.195
			c-0.317,0-0.616,0.098-0.896,0.293c-0.28,0.197-0.523,0.439-0.729,0.729c-0.206,0.289-0.369,0.611-0.49,0.967
			c-0.121,0.354-0.182,0.682-0.182,0.979v7.617h-1.148v-11.564h1.148v1.568c0.242-0.43,0.56-0.822,0.952-1.176
			c0.392-0.355,0.821-0.533,1.288-0.533c0.578,0,1.054,0.066,1.428,0.197c0.373,0.131,0.793,0.363,1.26,0.699L1078.11,619.086z"/>
		<path d="M1090.487,628.943v-1.988c-1.214,1.455-2.754,2.184-4.62,2.184c-1.681,0-3.09-0.568-4.229-1.707
			c-1.157-1.158-1.735-2.576-1.735-4.256c0-1.682,0.568-3.09,1.708-4.229c1.156-1.158,2.575-1.736,4.256-1.736
			c1.848,0,3.388,0.729,4.62,2.184v-2.016h1.147v11.564H1090.487z M1089.283,619.76c-0.952-0.953-2.091-1.43-3.416-1.43
			c-1.345,0-2.483,0.467-3.416,1.4c-0.952,0.953-1.429,2.1-1.429,3.445c0,1.324,0.477,2.463,1.429,3.416
			c0.952,0.951,2.09,1.428,3.416,1.428c1.344,0,2.482-0.467,3.416-1.4c0.951-0.953,1.428-2.1,1.428-3.443
			C1090.71,621.85,1090.234,620.711,1089.283,619.76z"/>
		<path d="M1096.787,618.527v10.416h-1.148v-10.416h-1.567v-1.148h1.567v-5.068h1.148v5.068h2.688v1.148H1096.787z"/>
		<path d="M1102.275,622.924c0,1.566,0.42,2.809,1.26,3.723c0.877,0.934,2.081,1.4,3.612,1.4c0.783,0,1.493-0.131,2.128-0.393
			c0.802-0.336,1.521-1.018,2.155-2.043l1.036,0.475c-0.728,1.383-1.848,2.316-3.359,2.801c-0.579,0.188-1.232,0.279-1.96,0.279
			c-1.736,0-3.164-0.568-4.284-1.707c-1.139-1.139-1.708-2.566-1.708-4.283c0-1.736,0.56-3.164,1.68-4.285
			c1.139-1.139,2.576-1.707,4.313-1.707c1.717,0,3.136,0.531,4.256,1.596c1.138,1.064,1.708,2.445,1.708,4.145H1102.275z
			 M1110.17,619.254c-0.877-0.633-1.886-0.951-3.023-0.951c-2.39,0-3.958,1.176-4.704,3.527h9.38
			C1111.636,620.768,1111.085,619.908,1110.17,619.254z"/>
		<path d="M1125.794,628.943v-2.072c-1.232,1.512-2.8,2.268-4.704,2.268c-1.68,0-3.09-0.568-4.228-1.707
			c-1.158-1.158-1.736-2.576-1.736-4.256c0-1.682,0.569-3.09,1.708-4.229c1.157-1.158,2.576-1.736,4.256-1.736
			c1.848,0,3.416,0.756,4.704,2.268v-11.256h1.147v20.721H1125.794z M1124.506,619.76c-0.952-0.953-2.091-1.43-3.416-1.43
			c-1.344,0-2.482,0.467-3.416,1.4c-0.952,0.953-1.428,2.1-1.428,3.445c0,1.324,0.476,2.463,1.428,3.416
			c0.952,0.951,2.091,1.428,3.416,1.428c1.344,0,2.482-0.467,3.416-1.4c0.952-0.953,1.428-2.1,1.428-3.443
			C1125.934,621.85,1125.458,620.711,1124.506,619.76z"/>
		<path d="M1144.218,628.943l-2.296-5.992h-9.101l-2.323,5.992h-1.12l7.979-20.637l8.009,20.637H1144.218z M1137.358,611.219
			l-4.088,10.584h8.176L1137.358,611.219z"/>
		<path d="M1148.39,618.527v10.416h-1.148v-10.416h-1.567v-1.148h1.567v-5.068h1.148v5.068h2.688v1.148H1148.39z"/>
		<path d="M1155.446,610.1v18.844h-1.148V610.1h-4.424v-1.148h9.996v1.148H1155.446z"/>
		<path d="M1159.982,615.307c-0.205,0-0.42-0.084-0.644-0.252c-0.168-0.168-0.262-0.393-0.28-0.672c0-0.504,0.308-0.813,0.924-0.924
			c0.467,0,0.774,0.309,0.924,0.924C1160.906,614.998,1160.598,615.307,1159.982,615.307z M1159.394,628.943v-11.564h1.148v11.564
			H1159.394z"/>
		<path d="M1176.166,628.943v-7.98c0-0.709-0.233-1.326-0.7-1.848c-0.467-0.523-1.139-0.785-2.016-0.785
			c-1.811,0-2.716,0.879-2.716,2.633v7.98h-1.148v-7.98c0-0.783-0.262-1.41-0.784-1.877c-0.541-0.504-1.186-0.756-1.932-0.756
			c-0.766,0-1.409,0.244-1.932,0.729c-0.523,0.467-0.784,1.102-0.784,1.904v7.98h-1.148v-11.564h1.148v1.148
			c0.56-0.877,1.465-1.316,2.716-1.316c1.493,0,2.595,0.607,3.304,1.82c0.673-1.213,1.765-1.82,3.276-1.82
			c1.157,0,2.091,0.326,2.8,0.98c0.709,0.672,1.064,1.596,1.064,2.771v7.98H1176.166z"/>
		<path d="M1181.234,622.924c0,1.566,0.42,2.809,1.26,3.723c0.877,0.934,2.081,1.4,3.612,1.4c0.783,0,1.493-0.131,2.128-0.393
			c0.802-0.336,1.521-1.018,2.155-2.043l1.036,0.475c-0.728,1.383-1.848,2.316-3.359,2.801c-0.579,0.188-1.232,0.279-1.96,0.279
			c-1.736,0-3.164-0.568-4.284-1.707c-1.139-1.139-1.708-2.566-1.708-4.283c0-1.736,0.56-3.164,1.68-4.285
			c1.139-1.139,2.576-1.707,4.313-1.707c1.717,0,3.136,0.531,4.256,1.596c1.138,1.064,1.708,2.445,1.708,4.145H1181.234z
			 M1189.129,619.254c-0.877-0.633-1.886-0.951-3.023-0.951c-2.39,0-3.958,1.176-4.704,3.527h9.38
			C1190.595,620.768,1190.044,619.908,1189.129,619.254z"/>
	</g>
</g>
<g>
	<g>
		<path d="M762.021,603.293c-0.747,0.635-1.643,0.951-2.688,0.951c-1.792,0-3.136-0.811-4.032-2.436l0.98-0.588
			c0.317,0.58,0.7,1.027,1.148,1.344c0.466,0.355,1.101,0.533,1.903,0.533c1.755,0,2.632-0.746,2.632-2.24
			c0-0.654-0.308-1.223-0.924-1.709c-0.187-0.111-0.452-0.238-0.798-0.377c-0.346-0.141-0.77-0.303-1.273-0.49
			c-0.935-0.336-1.606-0.672-2.017-1.008c-0.598-0.486-0.896-1.186-0.896-2.1c0-0.785,0.298-1.457,0.896-2.018
			c0.578-0.578,1.335-0.867,2.269-0.867c1.287,0,2.38,0.447,3.275,1.344l-0.84,0.729c-0.635-0.635-1.447-0.953-2.436-0.953
			c-1.345,0-2.017,0.588-2.017,1.766c0,0.521,0.205,0.951,0.616,1.287c0.336,0.262,0.868,0.514,1.596,0.756
			c0.635,0.225,1.157,0.434,1.568,0.631c0.41,0.195,0.719,0.367,0.924,0.518c0.803,0.615,1.204,1.447,1.204,2.492
			C763.113,601.865,762.749,602.678,762.021,603.293z"/>
		<path d="M771.064,604.244c-1.717,0-3.146-0.568-4.283-1.707c-1.14-1.139-1.708-2.566-1.708-4.283c0-1.719,0.568-3.146,1.708-4.285
			c1.138-1.139,2.566-1.707,4.283-1.707c1.475,0,2.65,0.336,3.528,1.008v1.371l-0.728-0.477l-0.784-0.42
			c-0.71-0.242-1.382-0.363-2.017-0.363c-1.438,0-2.604,0.447-3.5,1.344c-0.914,0.916-1.372,2.092-1.372,3.529
			c0,1.418,0.458,2.584,1.372,3.5c0.915,0.914,2.082,1.371,3.5,1.371c1.345,0,2.521-0.447,3.528-1.344v1.428
			C773.546,603.9,772.371,604.244,771.064,604.244z"/>
		<path d="M785.373,604.049v-6.973c0-2.445-1.139-3.668-3.416-3.668c-0.934,0-1.736,0.281-2.408,0.84
			c-0.69,0.561-1.036,1.309-1.036,2.24v7.533h-1.147v-20.721h1.147v10.695c0.69-1.137,1.839-1.707,3.444-1.707
			c3.042,0,4.563,1.559,4.563,4.676v7.084H785.373z"/>
		<path d="M790.132,598.002c0,1.566,0.42,2.809,1.26,3.723c0.877,0.934,2.081,1.4,3.612,1.4c0.783,0,1.493-0.131,2.128-0.393
			c0.802-0.336,1.521-1.018,2.155-2.043l1.036,0.475c-0.728,1.383-1.848,2.316-3.359,2.801c-0.579,0.188-1.232,0.279-1.96,0.279
			c-1.736,0-3.164-0.568-4.284-1.707c-1.139-1.139-1.708-2.566-1.708-4.283c0-1.736,0.56-3.164,1.68-4.285
			c1.139-1.139,2.576-1.707,4.313-1.707c1.717,0,3.136,0.531,4.256,1.596c1.138,1.064,1.708,2.445,1.708,4.145H790.132z
			 M798.028,594.332c-0.877-0.633-1.886-0.951-3.023-0.951c-2.39,0-3.958,1.176-4.704,3.527h9.38
			C799.494,595.846,798.943,594.986,798.028,594.332z"/>
		<path d="M816.788,604.021v-7.98c0-0.709-0.233-1.326-0.7-1.848c-0.467-0.523-1.139-0.785-2.016-0.785
			c-1.811,0-2.716,0.879-2.716,2.633v7.98h-1.148v-7.98c0-0.783-0.262-1.41-0.784-1.877c-0.541-0.504-1.186-0.756-1.932-0.756
			c-0.766,0-1.409,0.244-1.932,0.729c-0.523,0.467-0.784,1.102-0.784,1.904v7.98h-1.148v-11.564h1.148v1.148
			c0.56-0.877,1.465-1.316,2.716-1.316c1.493,0,2.595,0.607,3.304,1.82c0.673-1.213,1.765-1.82,3.276-1.82
			c1.157,0,2.091,0.326,2.8,0.98c0.709,0.672,1.064,1.596,1.064,2.771v7.98H816.788z"/>
		<path d="M831.348,604.021v-1.988c-1.214,1.455-2.754,2.184-4.62,2.184c-1.681,0-3.09-0.568-4.229-1.707
			c-1.157-1.158-1.735-2.576-1.735-4.256c0-1.682,0.568-3.09,1.708-4.229c1.156-1.158,2.575-1.736,4.256-1.736
			c1.848,0,3.388,0.729,4.62,2.184v-2.016h1.147v11.564H831.348z M830.144,594.838c-0.952-0.953-2.091-1.43-3.416-1.43
			c-1.345,0-2.483,0.467-3.416,1.4c-0.952,0.953-1.429,2.1-1.429,3.445c0,1.324,0.477,2.463,1.429,3.416
			c0.952,0.951,2.09,1.428,3.416,1.428c1.344,0,2.482-0.467,3.416-1.4c0.951-0.953,1.428-2.1,1.428-3.443
			C831.572,596.928,831.095,595.789,830.144,594.838z"/>
		<path d="M836.416,595.93c-0.205,0-0.42-0.084-0.644-0.252c-0.168-0.168-0.262-0.393-0.28-0.672c0-0.504,0.309-0.813,0.924-0.926
			c0.467,0,0.774,0.309,0.925,0.926C837.34,595.621,837.032,595.93,836.416,595.93z M836.416,604.189
			c-0.205,0-0.42-0.084-0.644-0.252c-0.168-0.168-0.262-0.393-0.28-0.672c0-0.504,0.309-0.813,0.924-0.924
			c0.467,0,0.774,0.307,0.925,0.924C837.34,603.881,837.032,604.189,836.416,604.189z"/>
		<path d="M844.843,604.525l-5.46-12.068h1.232l4.2,9.213l4.228-9.213h1.288L844.843,604.525z"/>
		<path d="M862.372,604.021v-1.988c-1.214,1.455-2.754,2.184-4.62,2.184c-1.681,0-3.09-0.568-4.229-1.707
			c-1.157-1.158-1.735-2.576-1.735-4.256c0-1.682,0.568-3.09,1.708-4.229c1.156-1.158,2.575-1.736,4.256-1.736
			c1.848,0,3.388,0.729,4.62,2.184v-2.016h1.147v11.564H862.372z M861.167,594.838c-0.952-0.953-2.091-1.43-3.416-1.43
			c-1.345,0-2.483,0.467-3.416,1.4c-0.952,0.953-1.429,2.1-1.429,3.445c0,1.324,0.477,2.463,1.429,3.416
			c0.952,0.951,2.09,1.428,3.416,1.428c1.344,0,2.482-0.467,3.416-1.4c0.951-0.953,1.428-2.1,1.428-3.443
			C862.595,596.928,862.119,595.789,861.167,594.838z"/>
		<path d="M867.244,604.021v-20.721h1.12v20.721H867.244z"/>
		<path d="M878.303,603.014c-0.766,0.82-1.839,1.23-3.22,1.23c-1.363,0-2.418-0.4-3.164-1.203c-0.747-0.803-1.12-1.922-1.12-3.359
			v-7.225h1.148v7.225c0,1.102,0.242,1.949,0.728,2.547c0.504,0.598,1.307,0.896,2.408,0.896c2.146,0,3.22-1.148,3.22-3.443v-7.225
			h1.12v7.225C879.423,601.1,879.049,602.211,878.303,603.014z"/>
		<path d="M883.175,598.002c0,1.566,0.42,2.809,1.26,3.723c0.877,0.934,2.081,1.4,3.612,1.4c0.783,0,1.493-0.131,2.128-0.393
			c0.802-0.336,1.521-1.018,2.155-2.043l1.036,0.475c-0.728,1.383-1.848,2.316-3.359,2.801c-0.579,0.188-1.232,0.279-1.96,0.279
			c-1.736,0-3.164-0.568-4.284-1.707c-1.139-1.139-1.708-2.566-1.708-4.283c0-1.736,0.56-3.164,1.68-4.285
			c1.139-1.139,2.576-1.707,4.313-1.707c1.717,0,3.136,0.531,4.256,1.596c1.138,1.064,1.708,2.445,1.708,4.145H883.175z
			 M891.071,594.332c-0.877-0.633-1.886-0.951-3.023-0.951c-2.39,0-3.958,1.176-4.704,3.527h9.38
			C892.537,595.846,891.986,594.986,891.071,594.332z"/>
	</g>
</g>
<g>
	<g>
		<path d="M691.875,624.068v-3.979c0-0.748,0.204-1.281,0.611-1.598h0.681c-0.408,0.453-0.612,0.986-0.612,1.598v1.529h1.122v2.449
			H691.875z M695.785,624.068v-3.979c0-0.748,0.204-1.281,0.611-1.598h0.681c-0.408,0.453-0.612,0.986-0.612,1.598v1.529h1.122
			v2.449H695.785z"/>
		<path d="M708.67,642.359c-0.907,0.771-1.995,1.156-3.265,1.156c-2.176,0-3.808-0.986-4.896-2.957l1.189-0.715
			c0.386,0.703,0.851,1.246,1.395,1.633c0.566,0.43,1.337,0.645,2.312,0.645c2.131,0,3.196-0.906,3.196-2.719
			c0-0.793-0.374-1.484-1.122-2.074c-0.227-0.137-0.55-0.289-0.969-0.459c-0.42-0.17-0.936-0.369-1.547-0.596
			c-1.134-0.408-1.95-0.816-2.448-1.225c-0.726-0.588-1.088-1.438-1.088-2.549c0-0.953,0.362-1.768,1.088-2.449
			c0.702-0.701,1.62-1.053,2.754-1.053c1.563,0,2.89,0.543,3.978,1.631l-1.02,0.885c-0.771-0.77-1.757-1.156-2.958-1.156
			c-1.632,0-2.448,0.715-2.448,2.143c0,0.635,0.249,1.156,0.748,1.564c0.408,0.316,1.054,0.623,1.938,0.918
			c0.77,0.271,1.404,0.525,1.903,0.764s0.873,0.449,1.122,0.629c0.975,0.748,1.462,1.758,1.462,3.027
			C709.996,640.625,709.554,641.611,708.67,642.359z"/>
		<path d="M724.377,641.373c-1.405,1.406-3.128,2.109-5.168,2.109s-3.751-0.691-5.134-2.074c-1.405-1.406-2.107-3.129-2.107-5.168
			c0-2.018,0.702-3.729,2.107-5.135c1.383-1.428,3.094-2.143,5.134-2.143c2.018,0,3.729,0.703,5.135,2.109
			c1.404,1.404,2.107,3.127,2.107,5.168C726.452,638.279,725.76,639.992,724.377,641.373z M723.392,632.059
			c-1.134-1.156-2.528-1.734-4.183-1.734c-1.587,0-2.958,0.59-4.113,1.768c-1.18,1.178-1.769,2.563-1.769,4.148
			c0,1.609,0.578,2.992,1.734,4.146c1.156,1.156,2.538,1.734,4.147,1.734c1.633,0,3.015-0.566,4.148-1.699
			c1.156-1.156,1.734-2.551,1.734-4.182C725.092,634.586,724.525,633.191,723.392,632.059z"/>
		<path d="M745.933,643.244v-9.691c0-0.859-0.283-1.607-0.85-2.242s-1.383-0.953-2.448-0.953c-2.198,0-3.298,1.066-3.298,3.195
			v9.691h-1.394v-9.691c0-0.951-0.318-1.711-0.952-2.277c-0.658-0.611-1.439-0.918-2.347-0.918c-0.93,0-1.711,0.295-2.346,0.885
			c-0.635,0.566-0.952,1.338-0.952,2.311v9.691h-1.394v-14.043h1.394v1.395c0.681-1.064,1.779-1.598,3.298-1.598
			c1.813,0,3.15,0.736,4.013,2.209c0.815-1.473,2.142-2.209,3.978-2.209c1.405,0,2.538,0.396,3.4,1.189
			c0.861,0.816,1.292,1.938,1.292,3.365v9.691H745.933z"/>
		<path d="M752.086,635.934c0,1.904,0.511,3.412,1.53,4.521c1.065,1.135,2.527,1.701,4.386,1.701c0.952,0,1.813-0.158,2.584-0.477
			c0.975-0.408,1.848-1.234,2.618-2.482l1.258,0.578c-0.884,1.678-2.243,2.811-4.08,3.4c-0.702,0.227-1.495,0.34-2.38,0.34
			c-2.107,0-3.842-0.691-5.201-2.074c-1.384-1.383-2.074-3.115-2.074-5.201c0-2.109,0.68-3.842,2.04-5.203
			c1.382-1.381,3.128-2.074,5.235-2.074c2.086,0,3.809,0.646,5.168,1.939c1.383,1.291,2.074,2.969,2.074,5.031H752.086z
			 M761.674,631.48c-1.065-0.771-2.289-1.156-3.672-1.156c-2.901,0-4.806,1.428-5.712,4.283h11.391
			C763.454,633.316,762.785,632.273,761.674,631.48z"/>
		<path d="M782.449,643.855l-6.63-14.654h1.496l5.1,11.186l5.135-11.186h1.563L782.449,643.855z"/>
		<path d="M803.732,643.244v-2.414c-1.474,1.768-3.344,2.652-5.61,2.652c-2.04,0-3.751-0.691-5.134-2.074
			c-1.405-1.406-2.107-3.129-2.107-5.168c0-2.041,0.69-3.752,2.073-5.135c1.405-1.404,3.128-2.107,5.168-2.107
			c2.244,0,4.114,0.883,5.61,2.652v-2.449h1.394v14.043H803.732z M802.27,632.092c-1.156-1.156-2.539-1.734-4.148-1.734
			c-1.632,0-3.015,0.566-4.147,1.701c-1.156,1.154-1.734,2.549-1.734,4.182c0,1.609,0.578,2.992,1.734,4.146
			c1.156,1.156,2.538,1.734,4.147,1.734c1.633,0,3.015-0.566,4.148-1.699c1.156-1.156,1.734-2.551,1.734-4.182
			C804.004,634.631,803.426,633.248,802.27,632.092z"/>
		<path d="M809.648,643.244v-25.16h1.359v25.16H809.648z"/>
		<path d="M823.078,642.02c-0.93,0.998-2.232,1.496-3.909,1.496c-1.655,0-2.937-0.486-3.843-1.463
			c-0.906-0.973-1.359-2.334-1.359-4.078v-8.773h1.394v8.773c0,1.336,0.295,2.367,0.884,3.094c0.612,0.725,1.587,1.088,2.925,1.088
			c2.605,0,3.909-1.395,3.909-4.182v-8.773h1.36v8.773C824.438,639.697,823.985,641.045,823.078,642.02z"/>
		<path d="M828.993,635.934c0,1.904,0.511,3.412,1.53,4.521c1.065,1.135,2.527,1.701,4.386,1.701c0.952,0,1.813-0.158,2.584-0.477
			c0.975-0.408,1.848-1.234,2.618-2.482l1.258,0.578c-0.884,1.678-2.243,2.811-4.08,3.4c-0.702,0.227-1.495,0.34-2.38,0.34
			c-2.107,0-3.842-0.691-5.201-2.074c-1.384-1.383-2.074-3.115-2.074-5.201c0-2.109,0.68-3.842,2.04-5.203
			c1.382-1.381,3.128-2.074,5.235-2.074c2.086,0,3.809,0.646,5.168,1.939c1.383,1.291,2.074,2.969,2.074,5.031H828.993z
			 M838.581,631.48c-1.065-0.771-2.289-1.156-3.672-1.156c-2.901,0-4.806,1.428-5.712,4.283h11.391
			C840.36,633.316,839.691,632.273,838.581,631.48z"/>
		<path d="M846.571,623.795h-0.68c0.408-0.43,0.612-0.963,0.612-1.598v-1.529h-1.122v-2.449h1.802v3.979
			C847.183,622.764,846.979,623.297,846.571,623.795z M850.481,623.795h-0.68c0.408-0.43,0.612-0.963,0.612-1.598v-1.529h-1.122
			v-2.449h1.802v3.979C851.093,622.764,850.889,623.297,850.481,623.795z"/>
	</g>
</g>
<g>
	<g>
		<path d="M873.109,382.434c-0.907,0.771-1.995,1.156-3.265,1.156c-2.176,0-3.808-0.986-4.896-2.958l1.189-0.714
			c0.386,0.703,0.851,1.246,1.395,1.632c0.566,0.431,1.337,0.646,2.312,0.646c2.131,0,3.196-0.906,3.196-2.719
			c0-0.794-0.374-1.484-1.122-2.074c-0.227-0.137-0.55-0.289-0.969-0.459c-0.42-0.17-0.936-0.369-1.547-0.596
			c-1.134-0.408-1.95-0.816-2.448-1.224c-0.726-0.589-1.088-1.439-1.088-2.55c0-0.952,0.362-1.769,1.088-2.448
			c0.702-0.702,1.62-1.054,2.754-1.054c1.563,0,2.89,0.543,3.978,1.632l-1.02,0.884c-0.771-0.771-1.757-1.156-2.958-1.156
			c-1.632,0-2.448,0.715-2.448,2.143c0,0.635,0.249,1.156,0.748,1.563c0.408,0.317,1.054,0.624,1.938,0.918
			c0.77,0.272,1.404,0.527,1.903,0.765c0.499,0.238,0.873,0.448,1.122,0.629c0.975,0.748,1.462,1.758,1.462,3.027
			C874.434,380.699,873.993,381.686,873.109,382.434z"/>
		<path d="M877.732,376.008c0,1.904,0.511,3.412,1.53,4.521c1.065,1.135,2.527,1.701,4.386,1.701c0.952,0,1.813-0.158,2.584-0.477
			c0.975-0.408,1.848-1.235,2.618-2.482l1.258,0.578c-0.884,1.678-2.243,2.811-4.08,3.4c-0.702,0.227-1.495,0.34-2.38,0.34
			c-2.107,0-3.842-0.691-5.201-2.074c-1.384-1.382-2.074-3.116-2.074-5.201c0-2.108,0.68-3.843,2.04-5.203
			c1.382-1.382,3.128-2.073,5.235-2.073c2.086,0,3.809,0.646,5.168,1.938c1.383,1.291,2.074,2.969,2.074,5.031H877.732z
			 M887.32,371.554c-1.065-0.771-2.289-1.155-3.672-1.155c-2.901,0-4.806,1.428-5.712,4.283h11.391
			C889.099,373.39,888.43,372.348,887.32,371.554z"/>
		<path d="M905.917,383.318v-2.414c-1.474,1.768-3.344,2.651-5.61,2.651c-2.04,0-3.751-0.69-5.134-2.073
			c-1.405-1.406-2.107-3.129-2.107-5.168c0-2.041,0.69-3.752,2.073-5.135c1.405-1.404,3.128-2.107,5.168-2.107
			c2.244,0,4.114,0.884,5.61,2.651v-2.448h1.394v14.043H905.917z M904.456,372.166c-1.156-1.156-2.539-1.734-4.148-1.734
			c-1.632,0-3.015,0.566-4.147,1.7c-1.156,1.156-1.734,2.55-1.734,4.183c0,1.609,0.578,2.991,1.734,4.147
			c1.156,1.155,2.538,1.733,4.147,1.733c1.633,0,3.015-0.566,4.148-1.699c1.156-1.156,1.734-2.551,1.734-4.182
			C906.19,374.705,905.612,373.322,904.456,372.166z"/>
		<path d="M918.362,382.434c-0.907,0.771-1.995,1.156-3.265,1.156c-2.176,0-3.808-0.986-4.896-2.958l1.189-0.714
			c0.386,0.703,0.851,1.246,1.395,1.632c0.566,0.431,1.337,0.646,2.312,0.646c2.131,0,3.196-0.906,3.196-2.719
			c0-0.794-0.374-1.484-1.122-2.074c-0.227-0.137-0.55-0.289-0.969-0.459c-0.42-0.17-0.936-0.369-1.547-0.596
			c-1.134-0.408-1.95-0.816-2.448-1.224c-0.726-0.589-1.088-1.439-1.088-2.55c0-0.952,0.362-1.769,1.088-2.448
			c0.702-0.702,1.62-1.054,2.754-1.054c1.563,0,2.89,0.543,3.978,1.632l-1.02,0.884c-0.771-0.771-1.757-1.156-2.958-1.156
			c-1.632,0-2.448,0.715-2.448,2.143c0,0.635,0.249,1.156,0.748,1.563c0.408,0.317,1.054,0.624,1.938,0.918
			c0.77,0.272,1.404,0.527,1.903,0.765c0.499,0.238,0.873,0.448,1.122,0.629c0.975,0.748,1.462,1.758,1.462,3.027
			C919.687,380.699,919.246,381.686,918.362,382.434z"/>
		<path d="M923.326,373.492c-0.25,0-0.511-0.103-0.782-0.307c-0.204-0.203-0.318-0.476-0.34-0.816c0-0.611,0.374-0.985,1.122-1.121
			c0.565,0,0.939,0.374,1.121,1.121C924.447,373.117,924.073,373.492,923.326,373.492z M923.326,383.521
			c-0.25,0-0.511-0.102-0.782-0.306c-0.204-0.204-0.318-0.476-0.34-0.815c0-0.612,0.374-0.986,1.122-1.123
			c0.565,0,0.939,0.375,1.121,1.123C924.447,383.148,924.073,383.521,923.326,383.521z"/>
		<path d="M928.425,383.318v-24.276h11.662v1.394h-10.269v8.84h10.269v1.496h-10.269v11.152h10.269v1.395H928.425z"/>
		<path d="M947.601,383.93l-6.63-14.654h1.496l5.1,11.187l5.135-11.187h1.563L947.601,383.93z"/>
		<path d="M968.885,383.318v-2.414c-1.474,1.768-3.344,2.651-5.61,2.651c-2.04,0-3.751-0.69-5.134-2.073
			c-1.405-1.406-2.107-3.129-2.107-5.168c0-2.041,0.69-3.752,2.073-5.135c1.405-1.404,3.128-2.107,5.168-2.107
			c2.244,0,4.114,0.884,5.61,2.651v-2.448h1.394v14.043H968.885z M967.423,372.166c-1.156-1.156-2.539-1.734-4.148-1.734
			c-1.632,0-3.015,0.566-4.147,1.7c-1.156,1.156-1.734,2.55-1.734,4.183c0,1.609,0.578,2.991,1.734,4.147
			c1.156,1.155,2.538,1.733,4.147,1.733c1.633,0,3.015-0.566,4.148-1.699c1.156-1.156,1.734-2.551,1.734-4.182
			C969.158,374.705,968.58,373.322,967.423,372.166z"/>
		<path d="M974.801,383.318v-25.16h1.359v25.16H974.801z"/>
		<path d="M988.23,382.094c-0.93,0.998-2.232,1.496-3.909,1.496c-1.655,0-2.937-0.487-3.843-1.462s-1.359-2.335-1.359-4.08v-8.772
			h1.394v8.772c0,1.338,0.295,2.368,0.884,3.095c0.612,0.725,1.587,1.088,2.925,1.088c2.605,0,3.909-1.395,3.909-4.183v-8.772h1.36
			v8.772C989.59,379.771,989.137,381.119,988.23,382.094z"/>
		<path d="M1005.672,383.318v-2.414c-1.474,1.768-3.344,2.651-5.61,2.651c-2.04,0-3.751-0.69-5.134-2.073
			c-1.405-1.406-2.107-3.129-2.107-5.168c0-2.041,0.69-3.752,2.073-5.135c1.405-1.404,3.128-2.107,5.168-2.107
			c2.244,0,4.114,0.884,5.61,2.651v-2.448h1.394v14.043H1005.672z M1004.21,372.166c-1.156-1.156-2.539-1.734-4.148-1.734
			c-1.632,0-3.015,0.566-4.147,1.7c-1.156,1.156-1.734,2.55-1.734,4.183c0,1.609,0.578,2.991,1.734,4.147
			c1.156,1.155,2.538,1.733,4.147,1.733c1.633,0,3.015-0.566,4.148-1.699c1.156-1.156,1.734-2.551,1.734-4.182
			C1005.945,374.705,1005.367,373.322,1004.21,372.166z"/>
		<path d="M1013.322,370.67v12.648h-1.394V370.67h-1.904v-1.395h1.904v-6.153h1.394v6.153h3.265v1.395H1013.322z"/>
		<path d="M1020.667,366.76c-0.25,0-0.511-0.102-0.782-0.306c-0.204-0.204-0.317-0.476-0.34-0.816c0-0.612,0.374-0.985,1.122-1.122
			c0.566,0,0.94,0.374,1.122,1.122C1021.789,366.386,1021.415,366.76,1020.667,366.76z M1019.953,383.318v-14.043h1.394v14.043
			H1019.953z"/>
		<path d="M1037.325,381.447c-1.405,1.406-3.128,2.108-5.168,2.108s-3.751-0.69-5.134-2.073c-1.405-1.406-2.107-3.129-2.107-5.168
			c0-2.018,0.702-3.729,2.107-5.135c1.383-1.428,3.094-2.142,5.134-2.142c2.018,0,3.729,0.702,5.135,2.108
			c1.404,1.405,2.107,3.127,2.107,5.168C1039.399,378.354,1038.708,380.065,1037.325,381.447z M1036.339,372.132
			c-1.134-1.155-2.528-1.733-4.183-1.733c-1.587,0-2.958,0.59-4.113,1.768c-1.18,1.179-1.769,2.562-1.769,4.148
			c0,1.609,0.578,2.991,1.734,4.147c1.156,1.155,2.538,1.733,4.147,1.733c1.633,0,3.015-0.566,4.148-1.699
			c1.156-1.156,1.734-2.551,1.734-4.182C1038.04,374.66,1037.472,373.266,1036.339,372.132z"/>
		<path d="M1052.353,383.318v-8.398c0-2.969-1.338-4.454-4.013-4.454c-1.314,0-2.312,0.386-2.991,1.156
			c-0.703,0.771-1.055,1.825-1.055,3.161v8.535h-1.394v-14.043h1.394v1.701c0.635-1.247,1.983-1.871,4.046-1.871
			c1.745,0,3.083,0.499,4.013,1.496c0.929,0.998,1.394,2.393,1.394,4.182v8.535H1052.353z"/>
		<path d="M786.425,410.248c-1.405,1.405-3.128,2.107-5.168,2.107c-2.334,0-4.262-0.951-5.779-2.855v9.214h-1.395v-20.638h1.395
			v2.651c1.45-1.903,3.377-2.856,5.779-2.856c2.04,0,3.752,0.692,5.135,2.074c1.404,1.406,2.107,3.129,2.107,5.168
			C788.5,407.154,787.808,408.865,786.425,410.248z M785.406,400.966c-1.156-1.156-2.539-1.734-4.148-1.734
			c-1.632,0-3.015,0.567-4.147,1.7c-1.156,1.156-1.734,2.55-1.734,4.182c0,1.609,0.578,2.992,1.734,4.148s2.538,1.734,4.147,1.734
			c1.633,0,3.015-0.566,4.148-1.7c1.156-1.156,1.734-2.55,1.734-4.183C787.14,403.504,786.562,402.121,785.406,400.966z"/>
		<path d="M798.223,400.15c-0.363-0.273-0.748-0.488-1.156-0.646s-0.839-0.238-1.292-0.238c-0.386,0-0.748,0.119-1.088,0.357
			s-0.635,0.533-0.884,0.884c-0.25,0.352-0.448,0.743-0.595,1.173c-0.148,0.431-0.222,0.828-0.222,1.189v9.248h-1.394v-14.041h1.394
			v1.903c0.295-0.521,0.681-0.997,1.156-1.428s0.997-0.646,1.564-0.646c0.702,0,1.28,0.079,1.733,0.237
			c0.453,0.159,0.963,0.442,1.53,0.851L798.223,400.15z"/>
		<path d="M811.347,410.248c-1.405,1.405-3.128,2.107-5.168,2.107s-3.751-0.691-5.134-2.074c-1.405-1.404-2.107-3.127-2.107-5.168
			c0-2.017,0.702-3.729,2.107-5.134c1.383-1.428,3.094-2.142,5.134-2.142c2.018,0,3.729,0.703,5.135,2.107
			c1.404,1.406,2.107,3.129,2.107,5.168C813.421,407.154,812.73,408.865,811.347,410.248z M810.362,400.932
			c-1.134-1.156-2.528-1.734-4.183-1.734c-1.587,0-2.958,0.59-4.113,1.769c-1.18,1.179-1.769,2.562-1.769,4.147
			c0,1.609,0.578,2.992,1.734,4.148s2.538,1.734,4.147,1.734c1.633,0,3.015-0.566,4.148-1.7c1.156-1.156,1.734-2.55,1.734-4.183
			C812.062,403.459,811.495,402.065,810.362,400.932z"/>
		<path d="M820.391,412.729l-6.63-14.653h1.496l5.1,11.186l5.135-11.186h1.563L820.391,412.729z"/>
		<path d="M830.49,402.291c-0.25,0-0.511-0.102-0.782-0.305c-0.204-0.205-0.318-0.477-0.34-0.816c0-0.612,0.374-0.986,1.122-1.122
			c0.565,0,0.939,0.374,1.121,1.122C831.611,401.918,831.237,402.291,830.49,402.291z M830.49,412.322
			c-0.25,0-0.511-0.103-0.782-0.307c-0.204-0.204-0.318-0.477-0.34-0.816c0-0.611,0.374-0.985,1.122-1.121
			c0.565,0,0.939,0.373,1.121,1.121C831.611,411.947,831.237,412.322,830.49,412.322z"/>
		<path d="M835.589,412.117v-24.275h11.662v1.395h-10.269v8.84h10.269v1.496h-10.269v11.151h10.269v1.394H835.589z"/>
		<path d="M859.696,412.117v-8.397c0-2.97-1.338-4.454-4.013-4.454c-1.314,0-2.312,0.386-2.991,1.156
			c-0.703,0.771-1.055,1.824-1.055,3.162v8.533h-1.394v-14.041h1.394v1.699c0.635-1.246,1.983-1.869,4.046-1.869
			c1.745,0,3.083,0.498,4.013,1.496c0.929,0.997,1.394,2.391,1.394,4.182v8.533H859.696z"/>
		<path d="M867.685,399.47v12.647h-1.394V399.47h-1.904v-1.394h1.904v-6.154h1.394v6.154h3.265v1.394H867.685z"/>
		<path d="M875.03,395.56c-0.25,0-0.511-0.103-0.782-0.306c-0.204-0.204-0.317-0.477-0.34-0.816c0-0.611,0.374-0.986,1.122-1.121
			c0.566,0,0.94,0.373,1.122,1.121C876.152,395.186,875.778,395.56,875.03,395.56z M874.316,412.117v-14.041h1.394v14.041H874.316z"
			/>
		<path d="M882.44,399.47v12.647h-1.394V399.47h-1.904v-1.394h1.904v-6.154h1.394v6.154h3.265v1.394H882.44z"/>
		<path d="M891.382,418.714h-1.563l3.638-7.888l-5.916-12.75h1.496l5.235,11.084l5.168-11.084h1.53L891.382,418.714z"/>
		<path d="M903.724,415.619l-0.441-0.306l2.516-5.542l1.189,0.51L903.724,415.619z"/>
		<path d="M930.073,410.248c-1.405,1.405-3.128,2.107-5.168,2.107s-3.751-0.691-5.134-2.074c-1.405-1.404-2.107-3.127-2.107-5.168
			c0-2.017,0.702-3.729,2.107-5.134c1.383-1.428,3.094-2.142,5.134-2.142c2.018,0,3.729,0.703,5.135,2.107
			c1.404,1.406,2.107,3.129,2.107,5.168C932.147,407.154,931.456,408.865,930.073,410.248z M929.087,400.932
			c-1.134-1.156-2.528-1.734-4.183-1.734c-1.587,0-2.958,0.59-4.113,1.769c-1.18,1.179-1.769,2.562-1.769,4.147
			c0,1.609,0.578,2.992,1.734,4.148s2.538,1.734,4.147,1.734c1.633,0,3.015-0.566,4.148-1.7c1.156-1.156,1.734-2.55,1.734-4.183
			C930.788,403.459,930.22,402.065,929.087,400.932z"/>
		<path d="M947.922,410.248c-1.405,1.405-3.128,2.107-5.168,2.107c-2.334,0-4.262-0.951-5.779-2.855v9.214h-1.395v-20.638h1.395
			v2.651c1.45-1.903,3.377-2.856,5.779-2.856c2.04,0,3.752,0.692,5.135,2.074c1.404,1.406,2.107,3.129,2.107,5.168
			C949.997,407.154,949.305,408.865,947.922,410.248z M946.903,400.966c-1.156-1.156-2.539-1.734-4.148-1.734
			c-1.632,0-3.015,0.567-4.147,1.7c-1.156,1.156-1.734,2.55-1.734,4.182c0,1.609,0.578,2.992,1.734,4.148s2.538,1.734,4.147,1.734
			c1.633,0,3.015-0.566,4.148-1.7c1.156-1.156,1.734-2.55,1.734-4.183C948.637,403.504,948.059,402.121,946.903,400.966z"/>
		<path d="M969.07,412.117v-9.689c0-0.861-0.283-1.609-0.85-2.244s-1.383-0.952-2.448-0.952c-2.198,0-3.298,1.065-3.298,3.196v9.689
			h-1.394v-9.689c0-0.952-0.318-1.711-0.952-2.277c-0.658-0.613-1.439-0.919-2.347-0.919c-0.93,0-1.711,0.295-2.346,0.884
			c-0.635,0.567-0.952,1.338-0.952,2.313v9.689h-1.394v-14.041h1.394v1.394c0.681-1.065,1.779-1.599,3.298-1.599
			c1.813,0,3.15,0.737,4.013,2.211c0.815-1.474,2.142-2.211,3.978-2.211c1.405,0,2.538,0.397,3.4,1.19
			c0.861,0.815,1.292,1.938,1.292,3.366v9.689H969.07z"/>
		<path d="M975.565,402.291c-0.25,0-0.511-0.102-0.782-0.305c-0.204-0.205-0.318-0.477-0.34-0.816c0-0.612,0.374-0.986,1.122-1.122
			c0.565,0,0.939,0.374,1.121,1.122C976.686,401.918,976.312,402.291,975.565,402.291z M975.565,412.322
			c-0.25,0-0.511-0.103-0.782-0.307c-0.204-0.204-0.318-0.477-0.34-0.816c0-0.611,0.374-0.985,1.122-1.121
			c0.565,0,0.939,0.373,1.121,1.121C976.686,411.947,976.312,412.322,975.565,412.322z"/>
		<path d="M991.443,398.279c-1.271,1.135-2.834,1.7-4.692,1.7h-4.556v12.138h-1.36v-24.275h5.916c1.858,0,3.422,0.544,4.692,1.632
			c1.269,1.088,1.903,2.55,1.903,4.386C993.346,395.719,992.711,397.191,991.443,398.279z M990.388,390.392
			c-0.93-0.771-2.153-1.155-3.672-1.155h-4.521v9.35h4.521c1.496,0,2.742-0.408,3.74-1.225c0.997-0.861,1.496-2.027,1.496-3.502
			C991.953,392.387,991.431,391.23,990.388,390.392z"/>
		<path d="M1001.438,400.15c-0.363-0.273-0.748-0.488-1.156-0.646s-0.839-0.238-1.292-0.238c-0.386,0-0.748,0.119-1.088,0.357
			s-0.635,0.533-0.884,0.884c-0.25,0.352-0.448,0.743-0.595,1.173c-0.148,0.431-0.222,0.828-0.222,1.189v9.248h-1.394v-14.041h1.394
			v1.903c0.295-0.521,0.681-0.997,1.156-1.428s0.997-0.646,1.564-0.646c0.702,0,1.28,0.079,1.733,0.237
			c0.453,0.159,0.963,0.442,1.53,0.851L1001.438,400.15z"/>
		<path d="M1014.562,410.248c-1.405,1.405-3.128,2.107-5.168,2.107s-3.751-0.691-5.134-2.074c-1.405-1.404-2.107-3.127-2.107-5.168
			c0-2.017,0.702-3.729,2.107-5.134c1.383-1.428,3.094-2.142,5.134-2.142c2.018,0,3.729,0.703,5.135,2.107
			c1.404,1.406,2.107,3.129,2.107,5.168C1016.636,407.154,1015.945,408.865,1014.562,410.248z M1013.577,400.932
			c-1.134-1.156-2.528-1.734-4.183-1.734c-1.587,0-2.958,0.59-4.113,1.769c-1.18,1.179-1.769,2.562-1.769,4.147
			c0,1.609,0.578,2.992,1.734,4.148s2.538,1.734,4.147,1.734c1.633,0,3.015-0.566,4.148-1.7c1.156-1.156,1.734-2.55,1.734-4.183
			C1015.277,403.459,1014.709,402.065,1013.577,400.932z"/>
		<path d="M1032.412,410.248c-1.405,1.405-3.128,2.107-5.168,2.107c-2.334,0-4.262-0.951-5.779-2.855v9.214h-1.395v-20.638h1.395
			v2.651c1.45-1.903,3.377-2.856,5.779-2.856c2.04,0,3.752,0.692,5.135,2.074c1.404,1.406,2.107,3.129,2.107,5.168
			C1034.486,407.154,1033.794,408.865,1032.412,410.248z M1031.392,400.966c-1.156-1.156-2.539-1.734-4.148-1.734
			c-1.632,0-3.015,0.567-4.147,1.7c-1.156,1.156-1.734,2.55-1.734,4.182c0,1.609,0.578,2.992,1.734,4.148s2.538,1.734,4.147,1.734
			c1.633,0,3.015-0.566,4.148-1.7c1.156-1.156,1.734-2.55,1.734-4.183C1033.126,403.504,1032.548,402.121,1031.392,400.966z"/>
		<path d="M1037.851,404.808c0,1.904,0.511,3.411,1.53,4.522c1.065,1.133,2.527,1.699,4.386,1.699c0.952,0,1.813-0.158,2.584-0.476
			c0.975-0.408,1.848-1.235,2.618-2.481l1.258,0.578c-0.884,1.677-2.243,2.811-4.08,3.399c-0.702,0.226-1.495,0.34-2.38,0.34
			c-2.107,0-3.842-0.69-5.201-2.073c-1.384-1.383-2.074-3.117-2.074-5.203c0-2.107,0.68-3.842,2.04-5.201
			c1.382-1.383,3.128-2.074,5.235-2.074c2.086,0,3.809,0.646,5.168,1.938c1.383,1.293,2.074,2.971,2.074,5.032H1037.851z
			 M1047.439,400.354c-1.065-0.77-2.289-1.156-3.672-1.156c-2.901,0-4.806,1.428-5.712,4.284h11.391
			C1049.218,402.189,1048.549,401.147,1047.439,400.354z"/>
		<path d="M1060.87,400.15c-0.363-0.273-0.748-0.488-1.156-0.646s-0.839-0.238-1.292-0.238c-0.386,0-0.748,0.119-1.088,0.357
			s-0.635,0.533-0.884,0.884c-0.25,0.352-0.448,0.743-0.595,1.173c-0.148,0.431-0.222,0.828-0.222,1.189v9.248h-1.394v-14.041h1.394
			v1.903c0.295-0.521,0.681-0.997,1.156-1.428s0.997-0.646,1.564-0.646c0.702,0,1.28,0.079,1.733,0.237
			c0.453,0.159,0.963,0.442,1.53,0.851L1060.87,400.15z"/>
		<path d="M1066.887,399.47v12.647h-1.394V399.47h-1.904v-1.394h1.904v-6.154h1.394v6.154h3.265v1.394H1066.887z"/>
		<path d="M1075.83,418.714h-1.563l3.638-7.888l-5.916-12.75h1.496l5.235,11.084l5.168-11.084h1.53L1075.83,418.714z"/>
		<path d="M1095.448,411.914c-0.884,0.316-1.927,0.476-3.128,0.476c-3.718,0-6.109-1.757-7.174-5.271l1.394-0.476
			c0.793,2.901,2.72,4.353,5.78,4.353c1.745,0,3.116-0.431,4.114-1.293c1.02-0.883,1.529-2.176,1.529-3.875
			c0-1.609-0.601-2.947-1.802-4.012c-0.317-0.295-0.805-0.624-1.462-0.986c-0.658-0.363-1.496-0.771-2.516-1.225
			c-1.928-0.861-3.242-1.609-3.944-2.244c-1.179-1.02-1.769-2.368-1.769-4.045c0-1.678,0.601-3.027,1.803-4.047
			c1.178-1.042,2.629-1.564,4.352-1.564c2.856,0,4.873,1.066,6.052,3.197l-1.325,0.577c-0.454-0.748-0.998-1.303-1.633-1.666
			c-0.793-0.498-1.824-0.747-3.094-0.747c-1.338,0-2.448,0.373-3.332,1.121c-0.952,0.794-1.428,1.836-1.428,3.129
			c0,1.155,0.498,2.164,1.496,3.025c0.566,0.453,1.7,1.065,3.399,1.836c1.065,0.477,1.983,0.947,2.755,1.411
			c0.77,0.465,1.394,0.935,1.869,1.411c1.314,1.291,1.973,2.901,1.973,4.828C1099.358,408.91,1098.054,410.939,1095.448,411.914z"/>
		<path d="M1102.995,399.47v12.647h-1.394V399.47h-1.904v-1.394h1.904v-6.154h1.394v6.154h3.265v1.394H1102.995z"/>
		<path d="M1119.587,412.117v-2.414c-1.474,1.769-3.344,2.652-5.61,2.652c-2.04,0-3.751-0.691-5.134-2.074
			c-1.405-1.404-2.107-3.127-2.107-5.168c0-2.039,0.69-3.751,2.073-5.134c1.405-1.405,3.128-2.108,5.168-2.108
			c2.244,0,4.114,0.885,5.61,2.652v-2.447h1.394v14.041H1119.587z M1118.125,400.966c-1.156-1.156-2.539-1.734-4.148-1.734
			c-1.632,0-3.015,0.567-4.147,1.7c-1.156,1.156-1.734,2.55-1.734,4.182c0,1.609,0.578,2.992,1.734,4.148s2.538,1.734,4.147,1.734
			c1.633,0,3.015-0.566,4.148-1.7c1.156-1.156,1.734-2.55,1.734-4.183C1119.86,403.504,1119.282,402.121,1118.125,400.966z"/>
		<path d="M1127.237,399.47v12.647h-1.394V399.47h-1.904v-1.394h1.904v-6.154h1.394v6.154h3.265v1.394H1127.237z"/>
		<path d="M1133.901,404.808c0,1.904,0.511,3.411,1.53,4.522c1.065,1.133,2.527,1.699,4.386,1.699c0.952,0,1.813-0.158,2.584-0.476
			c0.975-0.408,1.848-1.235,2.618-2.481l1.258,0.578c-0.884,1.677-2.243,2.811-4.08,3.399c-0.702,0.226-1.495,0.34-2.38,0.34
			c-2.107,0-3.842-0.69-5.201-2.073c-1.384-1.383-2.074-3.117-2.074-5.203c0-2.107,0.68-3.842,2.04-5.201
			c1.382-1.383,3.128-2.074,5.235-2.074c2.086,0,3.809,0.646,5.168,1.938c1.383,1.293,2.074,2.971,2.074,5.032H1133.901z
			 M1143.489,400.354c-1.065-0.77-2.289-1.156-3.672-1.156c-2.901,0-4.806,1.428-5.712,4.284h11.391
			C1145.268,402.189,1144.599,401.147,1143.489,400.354z"/>
	</g>
</g>
<g>
	<g>
		
			<line fill="none" stroke="#000000" stroke-width="0.8" stroke-miterlimit="10" x1="959.98" y1="493.449" x2="959.98" y2="489.449"/>
		
			<line fill="none" stroke="#000000" stroke-width="0.8" stroke-miterlimit="10" stroke-dasharray="7.5094,7.5094" x1="959.98" y1="481.939" x2="959.98" y2="440.639"/>
		
			<line fill="none" stroke="#000000" stroke-width="0.8" stroke-miterlimit="10" x1="959.98" y1="436.884" x2="959.98" y2="432.884"/>
		<g>
			<polygon points="965.905,437.377 959.98,434.86 954.055,437.377 959.98,423.332 			"/>
		</g>
	</g>
</g>
<g>
	<g>
		
			<line fill="none" stroke="#000000" stroke-width="0.8286" stroke-miterlimit="10" x1="959.98" y1="579.125" x2="959.98" y2="657.15"/>
		<g>
			<polygon points="953.843,652.495 959.98,655.103 966.117,652.495 959.98,667.043 			"/>
		</g>
	</g>
</g>
<g>
	<g>
		<path fill="none" stroke="#000000" stroke-width="0.8" stroke-miterlimit="10" d="M906.167,579.125
			c0,0-2.581,48.568-47.257,54.654"/>
		<g>
			<polygon points="862.91,627.382 860.87,633.488 863.85,639.195 849.378,634.402 			"/>
		</g>
	</g>
</g>
<g>
	<g>
		<path d="M796.56,677.506v-3.979c0-0.748,0.204-1.281,0.611-1.598h0.681c-0.408,0.453-0.612,0.986-0.612,1.598v1.529h1.122v2.449
			H796.56z M800.47,677.506v-3.979c0-0.748,0.204-1.281,0.611-1.598h0.681c-0.408,0.453-0.612,0.986-0.612,1.598v1.529h1.122v2.449
			H800.47z"/>
		<path d="M818.795,684.475c-0.204,0.25-0.51,0.619-0.918,1.105c-0.408,0.488-0.93,1.094-1.564,1.818l-6.97,7.889h11.628v1.395
			h-14.688l11.899-13.77c0.952-1.361,1.429-2.777,1.429-4.25c0-1.43-0.567-2.641-1.7-3.639c-1.134-0.975-2.448-1.463-3.944-1.463
			c-1.836,0-3.275,0.59-4.317,1.77c-0.636,0.701-1.077,1.574-1.326,2.617h-1.53c0.158-1.178,0.748-2.346,1.768-3.502
			c1.36-1.496,3.162-2.244,5.406-2.244c1.927,0,3.581,0.602,4.964,1.803c1.383,1.178,2.074,2.73,2.074,4.658
			C821.005,680.633,820.269,682.57,818.795,684.475z"/>
		<path d="M839.196,692.736c-1.632,2.857-3.944,4.285-6.937,4.285c-2.969,0-5.27-1.439-6.901-4.318
			c-1.338-2.357-2.006-5.145-2.006-8.363c0-3.242,0.668-6.041,2.006-8.398c1.632-2.879,3.933-4.318,6.901-4.318
			c2.97,0,5.271,1.439,6.902,4.318c1.337,2.402,2.006,5.201,2.006,8.398C841.167,687.604,840.51,690.402,839.196,692.736z
			 M838.108,676.961c-1.338-2.629-3.287-3.943-5.849-3.943c-2.289,0-4.137,1.178-5.542,3.535c-1.246,2.131-1.869,4.727-1.869,7.787
			c0,2.787,0.532,5.225,1.598,7.309c1.36,2.631,3.298,3.945,5.813,3.945c2.335,0,4.193-1.168,5.576-3.502
			c1.247-2.063,1.87-4.646,1.87-7.752C839.706,681.506,839.173,679.047,838.108,676.961z"/>
		<path d="M845.86,696.682v-22.883h-4.114l0.918-1.395h4.59v24.277H845.86z"/>
		<path d="M863.676,695.186c-1.338,1.291-3.026,1.938-5.066,1.938c-2.063,0-3.763-0.635-5.1-1.904
			c-1.338-1.291-2.006-2.957-2.006-4.998c0-1.473,0.396-2.775,1.189-3.91c0.794-1.109,1.904-1.938,3.332-2.48
			c-1.134-0.342-2.04-1.066-2.72-2.178c-0.657-1.064-0.986-2.197-0.986-3.398c0-1.836,0.578-3.332,1.734-4.488
			c1.156-1.18,2.652-1.768,4.488-1.768c1.858,0,3.366,0.576,4.521,1.732c1.156,1.156,1.734,2.664,1.734,4.523
			c0,1.27-0.34,2.426-1.021,3.467c-0.657,1.02-1.586,1.723-2.787,2.109c1.224,0.453,2.221,1.1,2.991,1.938
			c1.11,1.178,1.666,2.664,1.666,4.453C865.648,692.238,864.991,693.893,863.676,695.186z M862.588,686.277
			c-0.567-0.566-1.185-1.014-1.854-1.344c-0.668-0.328-1.399-0.492-2.192-0.492c-0.771,0-1.485,0.164-2.143,0.492
			c-0.657,0.33-1.27,0.766-1.836,1.309c-1.134,1.135-1.7,2.461-1.7,3.979c0,1.543,0.533,2.846,1.599,3.91
			c1.088,1.088,2.448,1.633,4.08,1.633c1.654,0,3.014-0.521,4.08-1.564c1.11-1.043,1.666-2.369,1.666-3.979
			C864.289,688.68,863.721,687.365,862.588,686.277z M862.044,674.752c-0.93-0.93-2.097-1.395-3.502-1.395
			c-1.383,0-2.539,0.465-3.468,1.395c-0.93,0.93-1.395,2.096-1.395,3.502c0,1.359,0.465,2.504,1.395,3.434
			c0.453,0.453,0.969,0.828,1.547,1.121c0.578,0.295,1.218,0.443,1.921,0.443c0.725,0,1.377-0.137,1.955-0.408
			c0.578-0.273,1.093-0.635,1.547-1.088c0.929-0.93,1.394-2.098,1.394-3.502C863.438,676.848,862.973,675.682,862.044,674.752z"/>
		<path d="M868.403,688.385v-1.395h7.174v1.395H868.403z"/>
		<path d="M893.459,692.736c-1.632,2.857-3.944,4.285-6.937,4.285c-2.969,0-5.27-1.439-6.901-4.318
			c-1.338-2.357-2.006-5.145-2.006-8.363c0-3.242,0.668-6.041,2.006-8.398c1.632-2.879,3.933-4.318,6.901-4.318
			c2.97,0,5.271,1.439,6.902,4.318c1.337,2.402,2.006,5.201,2.006,8.398C895.431,687.604,894.774,690.402,893.459,692.736z
			 M892.372,676.961c-1.338-2.629-3.287-3.943-5.849-3.943c-2.289,0-4.137,1.178-5.542,3.535c-1.246,2.131-1.869,4.727-1.869,7.787
			c0,2.787,0.532,5.225,1.598,7.309c1.36,2.631,3.298,3.945,5.813,3.945c2.335,0,4.193-1.168,5.576-3.502
			c1.247-2.063,1.87-4.646,1.87-7.752C893.969,681.506,893.437,679.047,892.372,676.961z"/>
		<path d="M908.963,694.98c-1.314,1.248-2.98,1.871-4.997,1.871c-1.678,0-3.117-0.465-4.318-1.395
			c-1.156-0.93-1.927-2.232-2.313-3.91h1.496c0.295,1.111,0.94,2.041,1.938,2.789c0.974,0.748,2.04,1.121,3.196,1.121
			c1.495,0,2.775-0.51,3.842-1.529c1.064-1.066,1.598-2.334,1.598-3.809c0-1.836-0.657-3.275-1.972-4.318
			c-0.998-0.793-2.018-1.189-3.061-1.189h-1.428v-2.006h1.428c1.429,0,2.572-0.396,3.435-1.189c0.838-0.771,1.258-1.893,1.258-3.367
			c0-1.404-0.454-2.549-1.36-3.434c-0.906-0.906-2.074-1.359-3.502-1.359c-2.72,0-4.363,1.428-4.93,4.283h-1.598
			c0.203-1.768,0.895-3.15,2.073-4.148c1.179-1.02,2.663-1.529,4.454-1.529c1.858,0,3.411,0.566,4.658,1.699
			c1.246,1.111,1.87,2.607,1.87,4.488c0,3.016-1.519,4.863-4.556,5.543c3.173,0.951,4.76,3.127,4.76,6.527
			C910.936,692.137,910.278,693.758,908.963,694.98z"/>
		<path d="M913.962,688.385v-1.395h7.174v1.395H913.962z"/>
		<path d="M937.15,684.475c-0.204,0.25-0.51,0.619-0.918,1.105c-0.408,0.488-0.93,1.094-1.564,1.818l-6.97,7.889h11.628v1.395
			h-14.688l11.899-13.77c0.952-1.361,1.429-2.777,1.429-4.25c0-1.43-0.567-2.641-1.7-3.639c-1.134-0.975-2.448-1.463-3.944-1.463
			c-1.836,0-3.275,0.59-4.317,1.77c-0.636,0.701-1.077,1.574-1.326,2.617h-1.53c0.158-1.178,0.748-2.346,1.768-3.502
			c1.36-1.496,3.162-2.244,5.406-2.244c1.927,0,3.581,0.602,4.964,1.803c1.383,1.178,2.074,2.73,2.074,4.658
			C939.36,680.633,938.624,682.57,937.15,684.475z"/>
		<path d="M954.422,684.475c-0.204,0.25-0.51,0.619-0.918,1.105c-0.408,0.488-0.93,1.094-1.564,1.818l-6.97,7.889h11.628v1.395
			h-14.688l11.899-13.77c0.952-1.361,1.429-2.777,1.429-4.25c0-1.43-0.567-2.641-1.7-3.639c-1.134-0.975-2.448-1.463-3.944-1.463
			c-1.836,0-3.275,0.59-4.317,1.77c-0.636,0.701-1.077,1.574-1.326,2.617h-1.53c0.158-1.178,0.748-2.346,1.768-3.502
			c1.36-1.496,3.162-2.244,5.406-2.244c1.927,0,3.581,0.602,4.964,1.803c1.383,1.178,2.074,2.73,2.074,4.658
			C956.632,680.633,955.896,682.57,954.422,684.475z"/>
		<path d="M964.418,673.799v22.883h-1.394v-22.883h-5.372v-1.395h12.138v1.395H964.418z"/>
		<path d="M976.625,696.682v-22.883h-4.114l0.918-1.395h4.59v24.277H976.625z"/>
		<path d="M993.794,684.475c-0.204,0.25-0.51,0.619-0.918,1.105c-0.408,0.488-0.93,1.094-1.564,1.818l-6.97,7.889h11.628v1.395
			h-14.688l11.899-13.77c0.952-1.361,1.429-2.777,1.429-4.25c0-1.43-0.567-2.641-1.7-3.639c-1.134-0.975-2.448-1.463-3.944-1.463
			c-1.836,0-3.275,0.59-4.317,1.77c-0.636,0.701-1.077,1.574-1.326,2.617h-1.53c0.158-1.178,0.748-2.346,1.768-3.502
			c1.36-1.496,3.162-2.244,5.406-2.244c1.927,0,3.581,0.602,4.964,1.803c1.383,1.178,2.074,2.73,2.074,4.658
			C996.004,680.633,995.268,682.57,993.794,684.475z"/>
		<path d="M1000.594,686.855c-0.25,0-0.511-0.102-0.782-0.307c-0.204-0.203-0.318-0.477-0.34-0.816c0-0.611,0.374-0.984,1.122-1.121
			c0.565,0,0.939,0.373,1.121,1.121C1001.715,686.48,1001.341,686.855,1000.594,686.855z M1000.594,696.885
			c-0.25,0-0.511-0.102-0.782-0.305c-0.204-0.205-0.318-0.477-0.34-0.816c0-0.613,0.374-0.986,1.122-1.123
			c0.565,0,0.939,0.375,1.121,1.123C1001.715,696.512,1001.341,696.885,1000.594,696.885z"/>
		<path d="M1019.736,692.736c-1.632,2.857-3.944,4.285-6.937,4.285c-2.969,0-5.27-1.439-6.901-4.318
			c-1.338-2.357-2.006-5.145-2.006-8.363c0-3.242,0.668-6.041,2.006-8.398c1.632-2.879,3.933-4.318,6.901-4.318
			c2.97,0,5.271,1.439,6.902,4.318c1.337,2.402,2.006,5.201,2.006,8.398C1021.708,687.604,1021.05,690.402,1019.736,692.736z
			 M1018.648,676.961c-1.338-2.629-3.287-3.943-5.849-3.943c-2.289,0-4.137,1.178-5.542,3.535c-1.246,2.131-1.869,4.727-1.869,7.787
			c0,2.787,0.532,5.225,1.598,7.309c1.36,2.631,3.298,3.945,5.813,3.945c2.335,0,4.193-1.168,5.576-3.502
			c1.247-2.063,1.87-4.646,1.87-7.752C1020.246,681.506,1019.713,679.047,1018.648,676.961z"/>
		<path d="M1038.64,692.736c-1.632,2.857-3.944,4.285-6.937,4.285c-2.969,0-5.27-1.439-6.901-4.318
			c-1.338-2.357-2.006-5.145-2.006-8.363c0-3.242,0.668-6.041,2.006-8.398c1.632-2.879,3.933-4.318,6.901-4.318
			c2.97,0,5.271,1.439,6.902,4.318c1.337,2.402,2.006,5.201,2.006,8.398C1040.612,687.604,1039.955,690.402,1038.64,692.736z
			 M1037.552,676.961c-1.338-2.629-3.287-3.943-5.849-3.943c-2.289,0-4.137,1.178-5.542,3.535c-1.246,2.131-1.869,4.727-1.869,7.787
			c0,2.787,0.532,5.225,1.598,7.309c1.36,2.631,3.298,3.945,5.813,3.945c2.335,0,4.193-1.168,5.576-3.502
			c1.247-2.063,1.87-4.646,1.87-7.752C1039.15,681.506,1038.618,679.047,1037.552,676.961z"/>
		<path d="M1043.945,686.855c-0.25,0-0.511-0.102-0.782-0.307c-0.204-0.203-0.318-0.477-0.34-0.816c0-0.611,0.374-0.984,1.122-1.121
			c0.565,0,0.939,0.373,1.121,1.121C1045.066,686.48,1044.692,686.855,1043.945,686.855z M1043.945,696.885
			c-0.25,0-0.511-0.102-0.782-0.305c-0.204-0.205-0.318-0.477-0.34-0.816c0-0.613,0.374-0.986,1.122-1.123
			c0.565,0,0.939,0.375,1.121,1.123C1045.066,696.512,1044.692,696.885,1043.945,696.885z"/>
		<path d="M1063.085,692.736c-1.632,2.857-3.944,4.285-6.937,4.285c-2.969,0-5.27-1.439-6.901-4.318
			c-1.338-2.357-2.006-5.145-2.006-8.363c0-3.242,0.668-6.041,2.006-8.398c1.632-2.879,3.933-4.318,6.901-4.318
			c2.97,0,5.271,1.439,6.902,4.318c1.337,2.402,2.006,5.201,2.006,8.398C1065.057,687.604,1064.4,690.402,1063.085,692.736z
			 M1061.998,676.961c-1.338-2.629-3.287-3.943-5.849-3.943c-2.289,0-4.137,1.178-5.542,3.535c-1.246,2.131-1.869,4.727-1.869,7.787
			c0,2.787,0.532,5.225,1.598,7.309c1.36,2.631,3.298,3.945,5.813,3.945c2.335,0,4.193-1.168,5.576-3.502
			c1.247-2.063,1.87-4.646,1.87-7.752C1063.595,681.506,1063.063,679.047,1061.998,676.961z"/>
		<path d="M1081.99,692.736c-1.632,2.857-3.944,4.285-6.937,4.285c-2.969,0-5.27-1.439-6.901-4.318
			c-1.338-2.357-2.006-5.145-2.006-8.363c0-3.242,0.668-6.041,2.006-8.398c1.632-2.879,3.933-4.318,6.901-4.318
			c2.97,0,5.271,1.439,6.902,4.318c1.337,2.402,2.006,5.201,2.006,8.398C1083.961,687.604,1083.304,690.402,1081.99,692.736z
			 M1080.902,676.961c-1.338-2.629-3.287-3.943-5.849-3.943c-2.289,0-4.137,1.178-5.542,3.535c-1.246,2.131-1.869,4.727-1.869,7.787
			c0,2.787,0.532,5.225,1.598,7.309c1.36,2.631,3.298,3.945,5.813,3.945c2.335,0,4.193-1.168,5.576-3.502
			c1.247-2.063,1.87-4.646,1.87-7.752C1082.5,681.506,1081.967,679.047,1080.902,676.961z"/>
		<path d="M1086.137,695.287h13.872v1.395h-16.354l13.906-22.848h-13.091v-1.43h15.606L1086.137,695.287z"/>
		<path d="M1104.599,677.232h-0.68c0.408-0.43,0.612-0.963,0.612-1.598v-1.529h-1.122v-2.449h1.802v3.979
			C1105.211,676.201,1105.007,676.734,1104.599,677.232z M1108.509,677.232h-0.68c0.408-0.43,0.612-0.963,0.612-1.598v-1.529h-1.122
			v-2.449h1.802v3.979C1109.122,676.201,1108.917,676.734,1108.509,677.232z"/>
		<path d="M1117.127,677.887l-2.181-4.084l-2.22,4.084h-0.516l2.398-5.57h0.654l2.398,5.57H1117.127z"/>
		<path d="M1124.105,677.887l-2.181-4.084l-2.22,4.084h-0.516l2.398-5.57h0.654l2.398,5.57H1124.105z"/>
		<path d="M1131.281,685.359l-2.319-3.43l-2.319,3.43h-0.971l2.795-4.123l-2.735-4.064h0.951l2.279,3.391l2.26-3.391h0.951
			l-2.715,4.045l2.774,4.143H1131.281z"/>
		<path d="M1137.841,684.844c-0.528,0.449-1.163,0.674-1.902,0.674c-1.27,0-2.221-0.574-2.854-1.725l0.693-0.416
			c0.225,0.41,0.495,0.727,0.813,0.951c0.33,0.252,0.78,0.377,1.349,0.377c1.241,0,1.862-0.529,1.862-1.586
			c0-0.463-0.218-0.865-0.653-1.209c-0.133-0.08-0.321-0.168-0.565-0.268s-0.545-0.215-0.901-0.348
			c-0.661-0.238-1.137-0.475-1.428-0.713c-0.423-0.344-0.634-0.84-0.634-1.486c0-0.555,0.211-1.031,0.634-1.428
			c0.409-0.41,0.945-0.615,1.605-0.615c0.912,0,1.686,0.318,2.319,0.953l-0.595,0.514c-0.449-0.449-1.024-0.674-1.725-0.674
			c-0.951,0-1.427,0.416-1.427,1.25c0,0.369,0.146,0.674,0.436,0.912c0.238,0.184,0.615,0.363,1.13,0.535
			c0.449,0.158,0.819,0.307,1.11,0.445s0.509,0.262,0.654,0.367c0.568,0.436,0.853,1.023,0.853,1.764
			C1138.615,683.832,1138.357,684.408,1137.841,684.844z"/>
		<path d="M1147.474,685.359v-1.467c-0.872,1.07-1.982,1.605-3.33,1.605c-1.189,0-2.188-0.404-2.993-1.209
			c-0.819-0.82-1.229-1.824-1.229-3.014s0.402-2.188,1.209-2.992c0.819-0.82,1.823-1.23,3.013-1.23c1.309,0,2.419,0.535,3.33,1.605
			v-7.967h0.813v14.668H1147.474z M1146.563,678.857c-0.675-0.674-1.48-1.012-2.419-1.012c-0.951,0-1.758,0.332-2.418,0.992
			c-0.674,0.674-1.011,1.486-1.011,2.438c0,0.939,0.337,1.744,1.011,2.418s1.479,1.012,2.418,1.012c0.952,0,1.758-0.33,2.419-0.992
			c0.674-0.674,1.011-1.486,1.011-2.438C1147.574,680.338,1147.237,679.531,1146.563,678.857z"/>
		<path d="M1151.062,679.631c-0.146,0-0.297-0.061-0.456-0.18c-0.119-0.119-0.185-0.277-0.198-0.475
			c0-0.357,0.218-0.576,0.654-0.654c0.33,0,0.548,0.219,0.654,0.654C1151.716,679.412,1151.499,679.631,1151.062,679.631z
			 M1151.062,685.479c-0.146,0-0.297-0.061-0.456-0.18c-0.119-0.119-0.185-0.277-0.198-0.475c0-0.357,0.218-0.576,0.654-0.654
			c0.33,0,0.548,0.217,0.654,0.654C1151.716,685.26,1151.499,685.479,1151.062,685.479z"/>
		<path d="M1161.033,685.359v-1.467c-0.872,1.07-1.982,1.605-3.33,1.605c-1.189,0-2.188-0.404-2.993-1.209
			c-0.819-0.82-1.229-1.824-1.229-3.014s0.402-2.188,1.209-2.992c0.819-0.82,1.823-1.23,3.013-1.23c1.309,0,2.419,0.535,3.33,1.605
			v-7.967h0.813v14.668H1161.033z M1160.122,678.857c-0.675-0.674-1.48-1.012-2.419-1.012c-0.951,0-1.758,0.332-2.418,0.992
			c-0.674,0.674-1.011,1.486-1.011,2.438c0,0.939,0.337,1.744,1.011,2.418s1.479,1.012,2.418,1.012c0.952,0,1.758-0.33,2.419-0.992
			c0.674-0.674,1.011-1.486,1.011-2.438C1161.132,680.338,1160.795,679.531,1160.122,678.857z"/>
		<path d="M1171.142,685.359v-1.408c-0.859,1.031-1.949,1.547-3.271,1.547c-1.189,0-2.188-0.404-2.993-1.209
			c-0.819-0.82-1.229-1.824-1.229-3.014s0.403-2.188,1.21-2.992c0.818-0.82,1.823-1.23,3.013-1.23c1.308,0,2.398,0.516,3.271,1.547
			v-1.428h0.813v8.188H1171.142z M1170.29,678.857c-0.674-0.674-1.48-1.012-2.418-1.012c-0.951,0-1.758,0.332-2.418,0.992
			c-0.675,0.674-1.012,1.486-1.012,2.438c0,0.939,0.337,1.744,1.012,2.418c0.674,0.674,1.479,1.012,2.418,1.012
			c0.951,0,1.757-0.33,2.418-0.992c0.674-0.674,1.011-1.486,1.011-2.438C1171.3,680.338,1170.963,679.531,1170.29,678.857z"/>
		<path d="M1175.601,677.984v7.375h-0.813v-7.375h-1.11v-0.813h1.11v-3.588h0.813v3.588h1.903v0.813H1175.601z"/>
		<path d="M1179.487,681.098c0,1.109,0.297,1.988,0.892,2.637c0.621,0.66,1.474,0.99,2.558,0.99c0.555,0,1.057-0.092,1.506-0.277
			c0.568-0.238,1.077-0.721,1.526-1.447l0.733,0.338c-0.515,0.977-1.308,1.639-2.378,1.98c-0.41,0.133-0.872,0.199-1.388,0.199
			c-1.229,0-2.24-0.402-3.033-1.209c-0.806-0.807-1.209-1.816-1.209-3.033c0-1.229,0.396-2.24,1.189-3.033
			c0.806-0.805,1.823-1.209,3.053-1.209c1.216,0,2.22,0.377,3.013,1.131c0.806,0.752,1.209,1.73,1.209,2.934H1179.487z
			 M1185.077,678.5c-0.621-0.449-1.335-0.674-2.141-0.674c-1.691,0-2.802,0.832-3.33,2.498h6.641
			C1186.114,679.57,1185.724,678.963,1185.077,678.5z"/>
		<path d="M1190.191,672.02v13.34h-0.813v-13.34h-3.132v-0.814h7.077v0.814H1190.191z"/>
		<path d="M1193.402,675.705c-0.146,0-0.297-0.059-0.456-0.178c-0.119-0.119-0.186-0.277-0.198-0.477
			c0-0.355,0.218-0.574,0.654-0.654c0.33,0,0.548,0.219,0.654,0.654C1194.056,675.488,1193.838,675.705,1193.402,675.705z
			 M1192.986,685.359v-8.188h0.813v8.188H1192.986z"/>
		<path d="M1204.859,685.359v-5.65c0-0.502-0.166-0.938-0.496-1.309c-0.33-0.369-0.806-0.555-1.427-0.555
			c-1.282,0-1.923,0.621-1.923,1.863v5.65h-0.813v-5.65c0-0.555-0.186-0.996-0.556-1.328c-0.383-0.355-0.839-0.535-1.367-0.535
			c-0.542,0-0.998,0.172-1.368,0.516c-0.37,0.33-0.555,0.779-0.555,1.348v5.65h-0.813v-8.188h0.813v0.813
			c0.396-0.621,1.037-0.932,1.923-0.932c1.057,0,1.836,0.43,2.339,1.289c0.476-0.859,1.249-1.289,2.319-1.289
			c0.819,0,1.479,0.232,1.981,0.695c0.503,0.475,0.754,1.129,0.754,1.961v5.65H1204.859z"/>
		<path d="M1208.447,681.098c0,1.109,0.297,1.988,0.892,2.637c0.621,0.66,1.474,0.99,2.558,0.99c0.555,0,1.057-0.092,1.506-0.277
			c0.568-0.238,1.077-0.721,1.526-1.447l0.733,0.338c-0.515,0.977-1.308,1.639-2.378,1.98c-0.41,0.133-0.872,0.199-1.388,0.199
			c-1.229,0-2.24-0.402-3.033-1.209c-0.806-0.807-1.209-1.816-1.209-3.033c0-1.229,0.396-2.24,1.189-3.033
			c0.806-0.805,1.823-1.209,3.053-1.209c1.216,0,2.22,0.377,3.013,1.131c0.806,0.752,1.209,1.73,1.209,2.934H1208.447z
			 M1214.037,678.5c-0.621-0.449-1.335-0.674-2.141-0.674c-1.691,0-2.802,0.832-3.33,2.498h6.641
			C1215.074,679.57,1214.684,678.963,1214.037,678.5z"/>
	</g>
</g>
<g>
	<g>
		<path d="M1137.992,504.151c-0.299-0.224-0.615-0.401-0.951-0.532c-0.337-0.131-0.691-0.195-1.064-0.195
			c-0.317,0-0.616,0.098-0.896,0.293c-0.28,0.196-0.523,0.439-0.729,0.729c-0.206,0.289-0.369,0.611-0.49,0.966
			s-0.182,0.682-0.182,0.979v7.617h-1.148v-11.564h1.148v1.568c0.242-0.43,0.56-0.822,0.952-1.176
			c0.392-0.355,0.821-0.533,1.288-0.533c0.578,0,1.054,0.066,1.428,0.197c0.373,0.131,0.793,0.363,1.26,0.699L1137.992,504.151z"/>
		<path d="M1150.452,514.008v-2.072c-1.232,1.512-2.8,2.268-4.704,2.268c-1.68,0-3.09-0.568-4.228-1.708
			c-1.158-1.157-1.736-2.575-1.736-4.256s0.569-3.089,1.708-4.228c1.157-1.158,2.576-1.736,4.256-1.736
			c1.848,0,3.416,0.756,4.704,2.268v-11.256h1.147v20.721H1150.452z M1149.164,504.823c-0.952-0.952-2.091-1.428-3.416-1.428
			c-1.344,0-2.482,0.467-3.416,1.399c-0.952,0.953-1.428,2.101-1.428,3.444c0,1.325,0.476,2.464,1.428,3.416
			s2.091,1.429,3.416,1.429c1.344,0,2.482-0.467,3.416-1.4c0.952-0.952,1.428-2.1,1.428-3.444
			C1150.592,506.914,1150.116,505.775,1149.164,504.823z"/>
		<path d="M1159.412,494.436l-0.756-0.084c-1.046,0-1.568,0.615-1.568,1.848v6.244h2.744v1.148h-2.744v10.416h-1.147v-10.416h-1.568
			v-1.148h1.568v-6.58c0-1.773,0.896-2.66,2.688-2.66c0.41,0,0.672,0.02,0.784,0.057c0.224,0,0.476,0.064,0.756,0.195v1.148
			L1159.412,494.436z"/>
		<path d="M1163.107,505.916c-0.205,0-0.42-0.084-0.644-0.253c-0.168-0.168-0.262-0.392-0.28-0.672c0-0.504,0.309-0.812,0.924-0.924
			c0.467,0,0.774,0.308,0.925,0.924C1164.032,505.607,1163.724,505.916,1163.107,505.916z M1163.107,514.176
			c-0.205,0-0.42-0.084-0.644-0.252c-0.168-0.168-0.262-0.393-0.28-0.672c0-0.504,0.309-0.813,0.924-0.925
			c0.467,0,0.774,0.308,0.925,0.925C1164.032,513.867,1163.724,514.176,1163.107,514.176z"/>
		<path d="M1168.904,503.592v10.416h-1.148v-10.416h-1.567v-1.148h1.567v-5.068h1.148v5.068h2.688v1.148H1168.904z"/>
		<path d="M1176.269,519.439h-1.288l2.996-6.496l-4.872-10.5h1.231l4.313,9.128l4.256-9.128h1.26L1176.269,519.439z"/>
		<path d="M1196.736,512.467c-1.157,1.158-2.576,1.736-4.256,1.736c-1.923,0-3.51-0.783-4.76-2.352v7.588h-1.148v-16.996h1.148
			v2.184c1.194-1.568,2.78-2.352,4.76-2.352c1.68,0,3.089,0.569,4.228,1.708c1.157,1.157,1.736,2.575,1.736,4.256
			S1197.875,511.329,1196.736,512.467z M1195.896,504.823c-0.952-0.952-2.091-1.428-3.416-1.428c-1.344,0-2.483,0.467-3.416,1.399
			c-0.952,0.953-1.428,2.101-1.428,3.444c0,1.325,0.476,2.464,1.428,3.416s2.09,1.429,3.416,1.429c1.344,0,2.482-0.467,3.416-1.4
			c0.952-0.952,1.428-2.1,1.428-3.444C1197.324,506.914,1196.849,505.775,1195.896,504.823z"/>
		<path d="M1201.216,507.987c0,1.567,0.42,2.81,1.26,3.724c0.877,0.934,2.081,1.4,3.612,1.4c0.783,0,1.493-0.131,2.128-0.393
			c0.802-0.336,1.521-1.017,2.155-2.043l1.036,0.476c-0.728,1.382-1.848,2.315-3.359,2.8c-0.579,0.187-1.232,0.28-1.96,0.28
			c-1.736,0-3.164-0.569-4.284-1.708c-1.139-1.139-1.708-2.566-1.708-4.284c0-1.735,0.56-3.164,1.68-4.284
			c1.139-1.139,2.576-1.707,4.313-1.707c1.717,0,3.136,0.531,4.256,1.596c1.138,1.063,1.708,2.445,1.708,4.144H1201.216z
			 M1209.111,504.319c-0.877-0.634-1.886-0.952-3.023-0.952c-2.39,0-3.958,1.176-4.704,3.528h9.38
			C1210.577,505.832,1210.026,504.973,1209.111,504.319z"/>
	</g>
</g>
<g>
	<g>
		<path d="M981.36,454.637c-1.405,1.405-3.128,2.107-5.168,2.107s-3.751-0.691-5.134-2.074c-1.405-1.404-2.107-3.127-2.107-5.168
			c0-2.017,0.702-3.729,2.107-5.134c1.383-1.428,3.094-2.142,5.134-2.142c2.018,0,3.729,0.703,5.135,2.107
			c1.404,1.406,2.107,3.129,2.107,5.168C983.434,451.543,982.743,453.254,981.36,454.637z M980.375,445.32
			c-1.134-1.156-2.528-1.734-4.183-1.734c-1.587,0-2.958,0.59-4.113,1.769c-1.18,1.179-1.769,2.562-1.769,4.147
			c0,1.609,0.578,2.992,1.734,4.148s2.538,1.734,4.147,1.734c1.633,0,3.015-0.566,4.148-1.7c1.156-1.156,1.734-2.55,1.734-4.183
			C982.075,447.848,981.507,446.454,980.375,445.32z"/>
		<path d="M999.209,454.637c-1.405,1.405-3.128,2.107-5.168,2.107c-2.334,0-4.262-0.951-5.779-2.855v9.214h-1.395v-20.638h1.395
			v2.651c1.45-1.903,3.377-2.856,5.779-2.856c2.04,0,3.752,0.692,5.135,2.074c1.404,1.406,2.107,3.129,2.107,5.168
			C1001.284,451.543,1000.592,453.254,999.209,454.637z M998.19,445.354c-1.156-1.156-2.539-1.734-4.148-1.734
			c-1.632,0-3.015,0.567-4.147,1.7c-1.156,1.156-1.734,2.55-1.734,4.182c0,1.609,0.578,2.992,1.734,4.148s2.538,1.734,4.147,1.734
			c1.633,0,3.015-0.566,4.148-1.7c1.156-1.156,1.734-2.55,1.734-4.183C999.924,447.893,999.346,446.51,998.19,445.354z"/>
		<path d="M1020.357,456.506v-9.689c0-0.861-0.283-1.609-0.85-2.244s-1.383-0.952-2.448-0.952c-2.198,0-3.298,1.065-3.298,3.196
			v9.689h-1.394v-9.689c0-0.952-0.318-1.711-0.952-2.277c-0.658-0.613-1.439-0.919-2.347-0.919c-0.93,0-1.711,0.295-2.346,0.884
			c-0.635,0.567-0.952,1.338-0.952,2.313v9.689h-1.394v-14.041h1.394v1.394c0.681-1.065,1.779-1.599,3.298-1.599
			c1.813,0,3.15,0.737,4.013,2.211c0.815-1.474,2.142-2.211,3.978-2.211c1.405,0,2.538,0.397,3.4,1.19
			c0.861,0.815,1.292,1.938,1.292,3.366v9.689H1020.357z"/>
		<path d="M1026.851,446.68c-0.25,0-0.511-0.102-0.782-0.305c-0.204-0.205-0.318-0.477-0.34-0.816c0-0.612,0.374-0.986,1.122-1.122
			c0.565,0,0.939,0.374,1.121,1.122C1027.972,446.307,1027.598,446.68,1026.851,446.68z M1026.851,456.711
			c-0.25,0-0.511-0.103-0.782-0.307c-0.204-0.204-0.318-0.477-0.34-0.816c0-0.611,0.374-0.985,1.122-1.121
			c0.565,0,0.939,0.373,1.121,1.121C1027.972,456.336,1027.598,456.711,1026.851,456.711z"/>
		<path d="M1050.617,455.078c-1.27,0.93-2.992,1.496-5.168,1.7c-0.25,0.022-0.521,0.04-0.816,0.052
			c-0.295,0.01-0.601,0.016-0.918,0.016c-3.672,0-6.664-1.155-8.976-3.467c-2.335-2.335-3.502-5.338-3.502-9.011
			c0-3.672,1.156-6.663,3.468-8.976c2.334-2.334,5.338-3.502,9.01-3.502c2.085,0,3.967,0.306,5.645,0.918
			c0.997,0.385,1.96,0.94,2.89,1.666v1.734c-0.952-0.794-1.995-1.429-3.128-1.904c-1.723-0.703-3.524-1.055-5.406-1.055
			c-3.219,0-5.87,1.043-7.956,3.129c-2.085,2.085-3.128,4.748-3.128,7.989s1.031,5.894,3.095,7.956
			c2.085,2.086,4.748,3.128,7.989,3.128c2.018,0,3.774-0.362,5.271-1.088c0.861-0.431,1.949-1.122,3.264-2.073v1.598
			L1050.617,455.078z"/>
		<path d="M1063.094,455.282c-0.93,0.998-2.232,1.496-3.909,1.496c-1.655,0-2.937-0.487-3.843-1.462s-1.359-2.334-1.359-4.08v-8.771
			h1.394v8.771c0,1.338,0.295,2.369,0.884,3.094c0.612,0.727,1.587,1.088,2.925,1.088c2.605,0,3.909-1.394,3.909-4.182v-8.771h1.36
			v8.771C1064.455,452.959,1064.001,454.309,1063.094,455.282z"/>
		<path d="M1075.369,444.539c-0.363-0.273-0.748-0.488-1.156-0.646s-0.839-0.238-1.292-0.238c-0.386,0-0.748,0.119-1.088,0.357
			s-0.635,0.533-0.884,0.884c-0.25,0.352-0.448,0.743-0.595,1.173c-0.148,0.431-0.222,0.828-0.222,1.189v9.248h-1.394v-14.041h1.394
			v1.903c0.295-0.521,0.681-0.997,1.156-1.428s0.997-0.646,1.564-0.646c0.702,0,1.28,0.079,1.733,0.237
			c0.453,0.159,0.963,0.442,1.53,0.851L1075.369,444.539z"/>
		<path d="M1085.909,444.539c-0.363-0.273-0.748-0.488-1.156-0.646s-0.839-0.238-1.292-0.238c-0.386,0-0.748,0.119-1.088,0.357
			s-0.635,0.533-0.884,0.884c-0.25,0.352-0.448,0.743-0.595,1.173c-0.148,0.431-0.222,0.828-0.222,1.189v9.248h-1.394v-14.041h1.394
			v1.903c0.295-0.521,0.681-0.997,1.156-1.428s0.997-0.646,1.564-0.646c0.702,0,1.28,0.079,1.733,0.237
			c0.453,0.159,0.963,0.442,1.53,0.851L1085.909,444.539z"/>
		<path d="M1088.084,449.196c0,1.904,0.511,3.411,1.53,4.522c1.065,1.133,2.527,1.699,4.386,1.699c0.952,0,1.813-0.158,2.584-0.476
			c0.975-0.408,1.848-1.235,2.618-2.481l1.258,0.578c-0.884,1.677-2.243,2.811-4.08,3.399c-0.702,0.226-1.495,0.34-2.38,0.34
			c-2.107,0-3.842-0.69-5.201-2.073c-1.384-1.383-2.074-3.117-2.074-5.203c0-2.107,0.68-3.842,2.04-5.201
			c1.382-1.383,3.128-2.074,5.235-2.074c2.086,0,3.809,0.646,5.168,1.938c1.383,1.293,2.074,2.971,2.074,5.032H1088.084z
			 M1097.672,444.742c-1.065-0.77-2.289-1.156-3.672-1.156c-2.901,0-4.806,1.428-5.712,4.284h11.391
			C1099.452,446.578,1098.783,445.536,1097.672,444.742z"/>
		<path d="M1113.924,456.506v-8.397c0-2.97-1.338-4.454-4.013-4.454c-1.314,0-2.312,0.386-2.991,1.156
			c-0.703,0.771-1.055,1.824-1.055,3.162v8.533h-1.394v-14.041h1.394v1.699c0.635-1.246,1.983-1.869,4.046-1.869
			c1.745,0,3.083,0.498,4.013,1.496c0.929,0.997,1.394,2.391,1.394,4.182v8.533H1113.924z"/>
		<path d="M1121.914,443.858v12.647h-1.394v-12.647h-1.904v-1.394h1.904v-6.154h1.394v6.154h3.265v1.394H1121.914z"/>
		<path d="M1139.254,442.668c-1.271,1.135-2.834,1.7-4.692,1.7h-4.556v12.138h-1.36V432.23h5.916c1.858,0,3.422,0.544,4.692,1.632
			c1.269,1.088,1.903,2.55,1.903,4.386C1141.158,440.107,1140.523,441.58,1139.254,442.668z M1138.2,434.78
			c-0.93-0.771-2.153-1.155-3.672-1.155h-4.521v9.35h4.521c1.496,0,2.742-0.408,3.74-1.225c0.997-0.861,1.496-2.027,1.496-3.502
			C1139.764,436.775,1139.243,435.619,1138.2,434.78z"/>
		<path d="M1149.25,444.539c-0.363-0.273-0.748-0.488-1.156-0.646s-0.839-0.238-1.292-0.238c-0.386,0-0.748,0.119-1.088,0.357
			s-0.635,0.533-0.884,0.884c-0.25,0.352-0.448,0.743-0.595,1.173c-0.148,0.431-0.222,0.828-0.222,1.189v9.248h-1.394v-14.041h1.394
			v1.903c0.295-0.521,0.681-0.997,1.156-1.428s0.997-0.646,1.564-0.646c0.702,0,1.28,0.079,1.733,0.237
			c0.453,0.159,0.963,0.442,1.53,0.851L1149.25,444.539z"/>
		<path d="M1162.374,454.637c-1.405,1.405-3.128,2.107-5.168,2.107s-3.751-0.691-5.134-2.074c-1.405-1.404-2.107-3.127-2.107-5.168
			c0-2.017,0.702-3.729,2.107-5.134c1.383-1.428,3.094-2.142,5.134-2.142c2.018,0,3.729,0.703,5.135,2.107
			c1.404,1.406,2.107,3.129,2.107,5.168C1164.448,451.543,1163.756,453.254,1162.374,454.637z M1161.388,445.32
			c-1.134-1.156-2.528-1.734-4.183-1.734c-1.587,0-2.958,0.59-4.113,1.769c-1.18,1.179-1.769,2.562-1.769,4.147
			c0,1.609,0.578,2.992,1.734,4.148s2.538,1.734,4.147,1.734c1.633,0,3.015-0.566,4.148-1.7c1.156-1.156,1.734-2.55,1.734-4.183
			C1163.088,447.848,1162.521,446.454,1161.388,445.32z"/>
		<path d="M1180.223,454.637c-1.405,1.405-3.128,2.107-5.168,2.107c-2.334,0-4.262-0.951-5.779-2.855v9.214h-1.395v-20.638h1.395
			v2.651c1.45-1.903,3.377-2.856,5.779-2.856c2.04,0,3.752,0.692,5.135,2.074c1.404,1.406,2.107,3.129,2.107,5.168
			C1182.297,451.543,1181.606,453.254,1180.223,454.637z M1179.204,445.354c-1.156-1.156-2.539-1.734-4.148-1.734
			c-1.632,0-3.015,0.567-4.147,1.7c-1.156,1.156-1.734,2.55-1.734,4.182c0,1.609,0.578,2.992,1.734,4.148s2.538,1.734,4.147,1.734
			c1.633,0,3.015-0.566,4.148-1.7c1.156-1.156,1.734-2.55,1.734-4.183C1180.938,447.893,1180.36,446.51,1179.204,445.354z"/>
		<path d="M1185.663,449.196c0,1.904,0.511,3.411,1.53,4.522c1.065,1.133,2.527,1.699,4.386,1.699c0.952,0,1.813-0.158,2.584-0.476
			c0.975-0.408,1.848-1.235,2.618-2.481l1.258,0.578c-0.884,1.677-2.243,2.811-4.08,3.399c-0.702,0.226-1.495,0.34-2.38,0.34
			c-2.107,0-3.842-0.69-5.201-2.073c-1.384-1.383-2.074-3.117-2.074-5.203c0-2.107,0.68-3.842,2.04-5.201
			c1.382-1.383,3.128-2.074,5.235-2.074c2.086,0,3.809,0.646,5.168,1.938c1.383,1.293,2.074,2.971,2.074,5.032H1185.663z
			 M1195.25,444.742c-1.065-0.77-2.289-1.156-3.672-1.156c-2.901,0-4.806,1.428-5.712,4.284h11.391
			C1197.03,446.578,1196.361,445.536,1195.25,444.742z"/>
		<path d="M1208.681,444.539c-0.363-0.273-0.748-0.488-1.156-0.646s-0.839-0.238-1.292-0.238c-0.386,0-0.748,0.119-1.088,0.357
			s-0.635,0.533-0.884,0.884c-0.25,0.352-0.448,0.743-0.595,1.173c-0.148,0.431-0.222,0.828-0.222,1.189v9.248h-1.394v-14.041h1.394
			v1.903c0.295-0.521,0.681-0.997,1.156-1.428s0.997-0.646,1.564-0.646c0.702,0,1.28,0.079,1.733,0.237
			c0.453,0.159,0.963,0.442,1.53,0.851L1208.681,444.539z"/>
		<path d="M1214.699,443.858v12.647h-1.394v-12.647h-1.904v-1.394h1.904v-6.154h1.394v6.154h3.265v1.394H1214.699z"/>
		<path d="M1223.641,463.103h-1.563l3.638-7.888l-5.916-12.75h1.496l5.235,11.084l5.168-11.084h1.53L1223.641,463.103z"/>
		<path d="M1243.259,456.303c-0.884,0.316-1.927,0.476-3.128,0.476c-3.718,0-6.109-1.757-7.174-5.271l1.394-0.476
			c0.793,2.901,2.72,4.353,5.78,4.353c1.745,0,3.116-0.431,4.114-1.293c1.02-0.883,1.529-2.176,1.529-3.875
			c0-1.609-0.601-2.947-1.802-4.012c-0.317-0.295-0.805-0.624-1.462-0.986c-0.658-0.363-1.496-0.771-2.516-1.225
			c-1.928-0.861-3.242-1.609-3.944-2.244c-1.179-1.02-1.769-2.368-1.769-4.045c0-1.678,0.601-3.027,1.803-4.047
			c1.178-1.042,2.629-1.564,4.352-1.564c2.856,0,4.873,1.066,6.052,3.197l-1.325,0.577c-0.454-0.748-0.998-1.303-1.633-1.666
			c-0.793-0.498-1.824-0.747-3.094-0.747c-1.338,0-2.448,0.373-3.332,1.121c-0.952,0.794-1.428,1.836-1.428,3.129
			c0,1.155,0.498,2.164,1.496,3.025c0.566,0.453,1.7,1.065,3.399,1.836c1.065,0.477,1.983,0.947,2.755,1.411
			c0.77,0.465,1.394,0.935,1.869,1.411c1.314,1.291,1.973,2.901,1.973,4.828C1247.169,453.299,1245.866,455.328,1243.259,456.303z"
			/>
		<path d="M1250.806,443.858v12.647h-1.394v-12.647h-1.904v-1.394h1.904v-6.154h1.394v6.154h3.265v1.394H1250.806z"/>
		<path d="M1267.399,456.506v-2.414c-1.474,1.769-3.344,2.652-5.61,2.652c-2.04,0-3.751-0.691-5.134-2.074
			c-1.405-1.404-2.107-3.127-2.107-5.168c0-2.039,0.69-3.751,2.073-5.134c1.405-1.405,3.128-2.108,5.168-2.108
			c2.244,0,4.114,0.885,5.61,2.652v-2.447h1.394v14.041H1267.399z M1265.937,445.354c-1.156-1.156-2.539-1.734-4.148-1.734
			c-1.632,0-3.015,0.567-4.147,1.7c-1.156,1.156-1.734,2.55-1.734,4.182c0,1.609,0.578,2.992,1.734,4.148s2.538,1.734,4.147,1.734
			c1.633,0,3.015-0.566,4.148-1.7c1.156-1.156,1.734-2.55,1.734-4.183C1267.671,447.893,1267.093,446.51,1265.937,445.354z"/>
		<path d="M1275.048,443.858v12.647h-1.394v-12.647h-1.904v-1.394h1.904v-6.154h1.394v6.154h3.265v1.394H1275.048z"/>
		<path d="M1281.712,449.196c0,1.904,0.511,3.411,1.53,4.522c1.065,1.133,2.527,1.699,4.386,1.699c0.952,0,1.813-0.158,2.584-0.476
			c0.975-0.408,1.848-1.235,2.618-2.481l1.258,0.578c-0.884,1.677-2.243,2.811-4.08,3.399c-0.702,0.226-1.495,0.34-2.38,0.34
			c-2.107,0-3.842-0.69-5.201-2.073c-1.384-1.383-2.074-3.117-2.074-5.203c0-2.107,0.68-3.842,2.04-5.201
			c1.382-1.383,3.128-2.074,5.235-2.074c2.086,0,3.809,0.646,5.168,1.938c1.383,1.293,2.074,2.971,2.074,5.032H1281.712z
			 M1291.3,444.742c-1.065-0.77-2.289-1.156-3.672-1.156c-2.901,0-4.806,1.428-5.712,4.284h11.391
			C1293.08,446.578,1292.411,445.536,1291.3,444.742z"/>
	</g>
</g>
<g>
	<g>
		<path fill="none" stroke="#000000" stroke-width="0.8" stroke-miterlimit="10" d="M1060.98,530.225
			c53.035,0,68.618-20.934,70.601-60.168"/>
		<g>
			<polygon points="1137.277,474.734 1131.437,472.027 1125.434,474.352 1131.808,460.505 			"/>
		</g>
	</g>
</g>
<path fill="#EDEDED" stroke="#000000" stroke-width="0.3624" stroke-miterlimit="10" d="M1489.159,697.128
	c0,12.758-10.375,23.125-23.148,23.125H1310.3c-12.781,0-23.141-10.367-23.141-23.125v-39.422c0-12.781,10.359-23.125,23.141-23.125
	h155.711c12.773,0,23.148,10.344,23.148,23.125V697.128z"/>
<g>
	<g>
		<path d="M1315.259,680.9l15.161-9.241v2.718l-10.752,6.523l10.752,6.523v2.718L1315.259,680.9z"/>
		<path d="M1364.787,696.785v-17.213c0-1.531-0.505-2.859-1.511-3.987c-1.007-1.126-2.456-1.69-4.349-1.69
			c-3.906,0-5.858,1.893-5.858,5.678v17.213h-2.477v-17.213c0-1.691-0.564-3.041-1.691-4.047c-1.168-1.088-2.558-1.631-4.168-1.631
			c-1.651,0-3.04,0.523-4.167,1.57c-1.128,1.006-1.691,2.376-1.691,4.107v17.213h-2.477V671.84h2.477v2.477
			c1.208-1.893,3.16-2.838,5.858-2.838c3.222,0,5.597,1.309,7.128,3.926c1.449-2.617,3.805-3.926,7.066-3.926
			c2.496,0,4.51,0.705,6.04,2.113c1.53,1.449,2.295,3.443,2.295,5.98v17.213H1364.787z"/>
		<path d="M1389.792,696.846v-15.039c0-5.275-2.457-7.912-7.369-7.912c-2.014,0-3.744,0.604-5.194,1.812
			c-1.49,1.208-2.234,2.819-2.234,4.832v16.247h-2.477V652.09h2.477v23.072c1.489-2.455,3.966-3.684,7.429-3.684
			c6.563,0,9.846,3.361,9.846,10.086v15.281H1389.792z"/>
		<path d="M1411.355,675.525c-0.645-0.484-1.329-0.866-2.054-1.148c-0.725-0.281-1.49-0.423-2.295-0.423
			c-0.686,0-1.329,0.212-1.934,0.634c-0.604,0.424-1.127,0.947-1.57,1.571s-0.795,1.319-1.057,2.083
			c-0.263,0.766-0.393,1.471-0.393,2.115v16.428h-2.477V671.84h2.477v3.383c0.522-0.926,1.208-1.771,2.054-2.537
			c0.846-0.764,1.771-1.147,2.778-1.147c1.248,0,2.274,0.142,3.08,0.423c0.806,0.282,1.711,0.785,2.719,1.51L1411.355,675.525z"/>
		<path d="M1438.053,696.785v-4.288c-2.618,3.142-5.94,4.712-9.966,4.712c-3.624,0-6.665-1.229-9.121-3.686
			c-2.497-2.496-3.744-5.557-3.744-9.18c0-3.625,1.228-6.664,3.685-9.121c2.496-2.496,5.557-3.744,9.181-3.744
			c3.986,0,7.309,1.57,9.966,4.711v-4.35h2.477v24.945H1438.053z M1435.455,676.975c-2.053-2.054-4.51-3.08-7.368-3.08
			c-2.899,0-5.356,1.006-7.369,3.02c-2.054,2.054-3.08,4.529-3.08,7.43c0,2.859,1.026,5.314,3.08,7.368s4.51,3.081,7.369,3.081
			c2.899,0,5.354-1.006,7.368-3.021c2.054-2.054,3.081-4.53,3.081-7.429C1438.536,681.484,1437.509,679.027,1435.455,676.975z"/>
		<path d="M1446.689,690.142v-2.718l10.691-6.523l-10.691-6.523v-2.718l15.16,9.241L1446.689,690.142z"/>
	</g>
</g>
<g>
	<g>
		<path d="M1090.35,578.584c-1.157,1.156-2.576,1.736-4.256,1.736c-1.923,0-3.51-0.785-4.76-2.354v7.588h-1.148v-16.996h1.148v2.186
			c1.194-1.568,2.78-2.354,4.76-2.354c1.68,0,3.089,0.57,4.228,1.709c1.157,1.158,1.736,2.576,1.736,4.256
			S1091.489,577.445,1090.35,578.584z M1089.51,570.939c-0.952-0.951-2.091-1.428-3.416-1.428c-1.344,0-2.483,0.467-3.416,1.4
			c-0.952,0.951-1.428,2.1-1.428,3.443c0,1.326,0.476,2.465,1.428,3.416s2.09,1.428,3.416,1.428c1.344,0,2.482-0.467,3.416-1.4
			c0.952-0.951,1.428-2.1,1.428-3.443C1090.938,573.031,1090.462,571.891,1089.51,570.939z"/>
		<path d="M1100.065,570.268c-0.299-0.225-0.615-0.4-0.951-0.531c-0.337-0.131-0.691-0.197-1.064-0.197
			c-0.317,0-0.616,0.098-0.896,0.295c-0.28,0.195-0.523,0.438-0.729,0.729c-0.206,0.289-0.369,0.611-0.49,0.965
			c-0.121,0.355-0.182,0.682-0.182,0.98v7.615h-1.148v-11.564h1.148v1.568c0.242-0.428,0.56-0.82,0.952-1.176
			c0.392-0.354,0.821-0.531,1.288-0.531c0.578,0,1.054,0.064,1.428,0.195c0.373,0.131,0.793,0.365,1.26,0.701L1100.065,570.268z"/>
		<path d="M1110.875,578.584c-1.158,1.156-2.576,1.736-4.256,1.736c-1.681,0-3.09-0.57-4.229-1.709
			c-1.157-1.156-1.735-2.576-1.735-4.256c0-1.66,0.578-3.07,1.735-4.229c1.139-1.176,2.548-1.764,4.229-1.764
			c1.661,0,3.07,0.578,4.228,1.736s1.736,2.576,1.736,4.256S1112.012,577.445,1110.875,578.584z M1110.062,570.912
			c-0.934-0.953-2.081-1.428-3.443-1.428c-1.308,0-2.437,0.484-3.389,1.455c-0.971,0.971-1.456,2.109-1.456,3.416
			c0,1.326,0.477,2.465,1.429,3.416s2.09,1.428,3.416,1.428c1.344,0,2.482-0.467,3.416-1.4c0.951-0.951,1.428-2.1,1.428-3.443
			C1111.462,572.992,1110.996,571.846,1110.062,570.912z"/>
		<path d="M1118.322,580.627l-5.46-12.068h1.232l4.2,9.213l4.228-9.213h1.288L1118.322,580.627z"/>
		<path d="M1126.637,572.031c-0.205,0-0.42-0.084-0.644-0.252c-0.168-0.168-0.262-0.393-0.28-0.672c0-0.504,0.309-0.813,0.924-0.924
			c0.467,0,0.774,0.309,0.925,0.924C1127.562,571.723,1127.253,572.031,1126.637,572.031z M1126.637,580.291
			c-0.205,0-0.42-0.084-0.644-0.252c-0.168-0.168-0.262-0.391-0.28-0.672c0-0.504,0.309-0.813,0.924-0.924
			c0.467,0,0.774,0.309,0.925,0.924C1127.562,579.984,1127.253,580.291,1126.637,580.291z"/>
		<path d="M1142.123,580.627l-3.612-9.24l-3.668,9.24l-5.181-12.068h1.232l3.892,8.961l3.725-9.324l3.696,9.297l3.863-8.934h1.288
			L1142.123,580.627z"/>
		<path d="M1158.278,580.123v-1.988c-1.214,1.457-2.754,2.186-4.62,2.186c-1.681,0-3.09-0.57-4.229-1.709
			c-1.157-1.156-1.735-2.576-1.735-4.256s0.568-3.09,1.708-4.229c1.156-1.156,2.575-1.736,4.256-1.736
			c1.848,0,3.388,0.729,4.62,2.186v-2.018h1.147v11.564H1158.278z M1157.074,570.939c-0.952-0.951-2.091-1.428-3.416-1.428
			c-1.345,0-2.483,0.467-3.416,1.4c-0.952,0.951-1.429,2.1-1.429,3.443c0,1.326,0.477,2.465,1.429,3.416s2.09,1.428,3.416,1.428
			c1.344,0,2.482-0.467,3.416-1.4c0.951-0.951,1.428-2.1,1.428-3.443C1158.501,573.031,1158.025,571.891,1157.074,570.939z"/>
		<path d="M1168.526,579.396c-0.747,0.635-1.643,0.951-2.688,0.951c-1.792,0-3.136-0.813-4.032-2.436l0.98-0.588
			c0.317,0.578,0.7,1.025,1.148,1.344c0.466,0.354,1.101,0.531,1.903,0.531c1.755,0,2.632-0.746,2.632-2.24
			c0-0.652-0.308-1.223-0.924-1.707c-0.187-0.113-0.452-0.238-0.798-0.379c-0.346-0.139-0.77-0.303-1.273-0.49
			c-0.935-0.336-1.606-0.672-2.017-1.008c-0.598-0.484-0.896-1.186-0.896-2.1c0-0.783,0.298-1.455,0.896-2.016
			c0.578-0.578,1.335-0.869,2.269-0.869c1.287,0,2.38,0.449,3.275,1.346l-0.84,0.727c-0.635-0.633-1.447-0.951-2.436-0.951
			c-1.345,0-2.017,0.588-2.017,1.764c0,0.523,0.205,0.951,0.616,1.289c0.336,0.26,0.868,0.514,1.596,0.756
			c0.635,0.223,1.157,0.434,1.568,0.629c0.41,0.197,0.719,0.369,0.924,0.518c0.803,0.617,1.204,1.447,1.204,2.492
			C1169.618,577.967,1169.253,578.779,1168.526,579.396z"/>
		<path d="M1185.969,580.123l-2.296-5.992h-9.101l-2.323,5.992h-1.12l7.979-20.635l8.009,20.635H1185.969z M1179.109,562.4
			l-4.088,10.584h8.176L1179.109,562.4z"/>
		<path d="M1190.141,569.707v10.416h-1.148v-10.416h-1.567v-1.148h1.567v-5.066h1.148v5.066h2.688v1.148H1190.141z"/>
		<path d="M1197.141,569.707v10.416h-1.148v-10.416h-1.567v-1.148h1.567v-5.066h1.148v5.066h2.688v1.148H1197.141z"/>
		<path d="M1207.865,570.268c-0.299-0.225-0.615-0.4-0.951-0.531c-0.337-0.131-0.691-0.197-1.064-0.197
			c-0.317,0-0.616,0.098-0.896,0.295c-0.28,0.195-0.523,0.438-0.729,0.729c-0.206,0.289-0.369,0.611-0.49,0.965
			c-0.121,0.355-0.182,0.682-0.182,0.98v7.615h-1.148v-11.564h1.148v1.568c0.242-0.428,0.56-0.82,0.952-1.176
			c0.392-0.354,0.821-0.531,1.288-0.531c0.578,0,1.054,0.064,1.428,0.195c0.373,0.131,0.793,0.365,1.26,0.701L1207.865,570.268z"/>
		<path d="M1211.87,566.488c-0.205,0-0.42-0.084-0.644-0.252c-0.168-0.168-0.262-0.393-0.28-0.672c0-0.506,0.308-0.813,0.924-0.926
			c0.467,0,0.774,0.309,0.924,0.926C1212.793,566.18,1212.486,566.488,1211.87,566.488z M1211.282,580.123v-11.564h1.148v11.564
			H1211.282z"/>
		<path d="M1226.065,578.584c-1.157,1.156-2.576,1.736-4.256,1.736c-1.923,0-3.5-0.775-4.731-2.324v2.127h-1.148v-20.719h1.148
			v11.311c1.213-1.549,2.79-2.324,4.731-2.324c1.68,0,3.089,0.57,4.229,1.709c1.157,1.158,1.735,2.576,1.735,4.256
			S1227.204,577.445,1226.065,578.584z M1225.225,570.939c-0.952-0.951-2.091-1.428-3.416-1.428c-1.344,0-2.482,0.467-3.416,1.4
			c-0.952,0.951-1.428,2.1-1.428,3.443c0,1.326,0.476,2.465,1.428,3.416s2.091,1.428,3.416,1.428c1.344,0,2.482-0.467,3.416-1.4
			c0.952-0.951,1.428-2.1,1.428-3.443C1226.653,573.031,1226.177,571.891,1225.225,570.939z"/>
		<path d="M1238.077,579.115c-0.766,0.822-1.839,1.232-3.22,1.232c-1.363,0-2.418-0.4-3.164-1.205
			c-0.747-0.801-1.12-1.922-1.12-3.359v-7.225h1.148v7.225c0,1.102,0.242,1.951,0.728,2.549c0.504,0.598,1.307,0.895,2.408,0.895
			c2.146,0,3.22-1.146,3.22-3.443v-7.225h1.12v7.225C1239.197,577.203,1238.823,578.313,1238.077,579.115z"/>
		<path d="M1244.46,569.707v10.416h-1.148v-10.416h-1.567v-1.148h1.567v-5.066h1.148v5.066h2.688v1.148H1244.46z"/>
		<path d="M1249.949,574.104c0,1.568,0.42,2.811,1.26,3.725c0.877,0.934,2.081,1.398,3.612,1.398c0.783,0,1.493-0.129,2.128-0.391
			c0.802-0.336,1.521-1.018,2.155-2.045l1.036,0.477c-0.728,1.381-1.848,2.314-3.359,2.801c-0.579,0.186-1.232,0.279-1.96,0.279
			c-1.736,0-3.164-0.568-4.284-1.709c-1.139-1.137-1.708-2.566-1.708-4.283c0-1.736,0.56-3.164,1.68-4.283
			c1.139-1.139,2.576-1.709,4.313-1.709c1.717,0,3.136,0.533,4.256,1.596c1.138,1.064,1.708,2.445,1.708,4.145H1249.949z
			 M1257.844,570.436c-0.877-0.635-1.886-0.951-3.023-0.951c-2.39,0-3.958,1.176-4.704,3.527h9.38
			C1259.31,571.947,1258.759,571.09,1257.844,570.436z"/>
		<path d="M1273.468,580.123v-2.072c-1.232,1.514-2.8,2.27-4.704,2.27c-1.68,0-3.09-0.57-4.228-1.709
			c-1.158-1.156-1.736-2.576-1.736-4.256s0.569-3.09,1.708-4.229c1.157-1.156,2.576-1.736,4.256-1.736
			c1.848,0,3.416,0.758,4.704,2.27v-11.256h1.147v20.719H1273.468z M1272.18,570.939c-0.952-0.951-2.091-1.428-3.416-1.428
			c-1.344,0-2.482,0.467-3.416,1.4c-0.952,0.951-1.428,2.1-1.428,3.443c0,1.326,0.476,2.465,1.428,3.416s2.091,1.428,3.416,1.428
			c1.344,0,2.482-0.467,3.416-1.4c0.952-0.951,1.428-2.1,1.428-3.443C1273.608,573.031,1273.132,571.891,1272.18,570.939z"/>
		<path d="M1283.016,561.279v18.844h-1.148v-18.844h-4.424v-1.148h9.996v1.148H1283.016z"/>
		<path d="M1296.737,578.584c-1.158,1.156-2.576,1.736-4.256,1.736c-1.681,0-3.09-0.57-4.229-1.709
			c-1.157-1.156-1.735-2.576-1.735-4.256c0-1.66,0.578-3.07,1.735-4.229c1.139-1.176,2.548-1.764,4.229-1.764
			c1.661,0,3.07,0.578,4.228,1.736s1.736,2.576,1.736,4.256S1297.875,577.445,1296.737,578.584z M1295.924,570.912
			c-0.934-0.953-2.081-1.428-3.443-1.428c-1.308,0-2.437,0.484-3.389,1.455c-0.971,0.971-1.456,2.109-1.456,3.416
			c0,1.326,0.477,2.465,1.429,3.416s2.09,1.428,3.416,1.428c1.344,0,2.482-0.467,3.416-1.4c0.951-0.951,1.428-2.1,1.428-3.443
			C1297.325,572.992,1296.858,571.846,1295.924,570.912z"/>
	</g>
</g>
<g>
	<g>
		<path fill="none" stroke="#000000" stroke-width="0.8" stroke-miterlimit="10" d="M1060.98,542.947
			c300.872,0,325.147,31.202,327.026,76.451"/>
		<g>
			<polygon points="1381.926,615.033 1387.905,617.419 1393.773,614.771 1388.159,628.944 			"/>
		</g>
	</g>
</g>
</svg>
