<?xml version="1.0" encoding="utf-8"?>
<!-- Generator: Adobe Illustrator 16.0.0, SVG Export Plug-In . SVG Version: 6.00 Build 0)  -->
<!DOCTYPE svg PUBLIC "-//W3C//DTD SVG 1.1//EN" "http://www.w3.org/Graphics/SVG/1.1/DTD/svg11.dtd">
<svg version="1.1" id="Layer_1" xmlns="http://www.w3.org/2000/svg" xmlns:xlink="http://www.w3.org/1999/xlink" x="0px" y="0px"
	 width="1920px" height="1080px" viewBox="0 0 1920 1080" enable-background="new 0 0 1920 1080" xml:space="preserve">
<g>
	<path d="M321.103,163.058l18.691,8.057v3.384l-22.209-10.178v-2.605l22.209-10.151v3.384L321.103,163.058z"/>
	<path d="M355.801,170.094l1.208,6.069l1.478-5.801l8.486-28.816h2.98l8.379,28.816l1.45,5.854l1.289-6.123l7.063-28.547h3.383
		l-10.017,39.102h-3.169l-8.862-30.588l-0.993-3.867l-0.967,3.867l-9.078,30.588h-3.168l-9.99-39.102h3.383L355.801,170.094z"/>
	<path d="M396.944,143.198c0-0.605,0.196-1.116,0.59-1.534c0.395-0.418,0.932-0.627,1.611-0.627c0.681,0,1.223,0.209,1.625,0.627
		c0.403,0.418,0.604,0.929,0.604,1.534c0,0.605-0.201,1.112-0.604,1.521c-0.402,0.409-0.944,0.614-1.625,0.614
		c-0.68,0-1.217-0.205-1.611-0.614C397.14,144.31,396.944,143.803,396.944,143.198z M400.73,180.648h-3.223V151.59h3.223V180.648z"
		/>
	<path d="M412.519,151.59l0.107,4.968c1.092-1.79,2.453-3.156,4.082-4.095c1.629-0.94,3.429-1.41,5.397-1.41
		c3.115,0,5.435,0.877,6.956,2.632c1.521,1.755,2.292,4.387,2.31,7.896v19.067h-3.195v-19.094c-0.019-2.596-0.569-4.529-1.652-5.801
		c-1.083-1.271-2.815-1.907-5.196-1.907c-1.987,0-3.746,0.622-5.277,1.866c-1.53,1.245-2.663,2.923-3.397,5.036v19.9h-3.195V151.59
		H412.519z"/>
	<path d="M438.381,165.851c0-4.512,1.007-8.106,3.021-10.783c2.014-2.676,4.749-4.015,8.204-4.015c3.921,0,6.911,1.549,8.97,4.646
		v-16.301h3.195v41.25h-3.008l-0.134-3.867c-2.059,2.937-5.085,4.404-9.077,4.404c-3.348,0-6.047-1.347-8.097-4.042
		c-2.051-2.694-3.075-6.333-3.075-10.917V165.851z M441.631,166.415c0,3.706,0.742,6.629,2.229,8.769
		c1.486,2.139,3.581,3.209,6.284,3.209c3.957,0,6.768-1.746,8.433-5.237v-13.643c-1.665-3.777-4.458-5.667-8.379-5.667
		c-2.703,0-4.807,1.061-6.311,3.183C442.383,159.15,441.631,162.279,441.631,166.415z"/>
	<path d="M468.458,165.689c0-2.793,0.541-5.308,1.625-7.546c1.083-2.238,2.613-3.979,4.592-5.224
		c1.979-1.244,4.221-1.866,6.728-1.866c3.867,0,7,1.356,9.399,4.068c2.399,2.713,3.599,6.307,3.599,10.783v0.671
		c0,2.811-0.542,5.34-1.625,7.587c-1.083,2.247-2.609,3.979-4.578,5.196c-1.97,1.218-4.217,1.826-6.741,1.826
		c-3.85,0-6.979-1.356-9.386-4.068c-2.408-2.713-3.612-6.307-3.612-10.783V165.689z M471.681,166.576
		c0,3.474,0.899,6.324,2.699,8.554c1.799,2.229,4.158,3.343,7.076,3.343c2.9,0,5.25-1.115,7.05-3.343
		c1.799-2.229,2.699-5.17,2.699-8.822v-0.618c0-2.22-0.412-4.252-1.236-6.096c-0.823-1.844-1.978-3.272-3.464-4.283
		c-1.486-1.012-3.187-1.518-5.103-1.518c-2.864,0-5.201,1.124-7.01,3.37c-1.808,2.247-2.712,5.188-2.712,8.822V166.576z"/>
	<path d="M507.99,173.961l0.484,2.498l0.645-2.632l6.982-22.236h2.738l6.902,22.048l0.752,3.062l0.617-2.82l5.963-22.29h3.33
		l-8.46,29.058h-2.739l-7.466-23.042l-0.349-1.584l-0.35,1.611l-7.332,23.015h-2.738l-8.434-29.058h3.304L507.99,173.961z"/>
	<path d="M552.49,164.75h-12.863v-2.712h12.863V164.75z"/>
	<path d="M564.87,159.352h3.33c1.845,0,3.456-0.327,4.834-0.98c1.379-0.654,2.431-1.549,3.156-2.686
		c0.725-1.137,1.088-2.448,1.088-3.935c0-2.506-0.708-4.467-2.122-5.881c-1.414-1.414-3.446-2.122-6.097-2.122
		c-2.506,0-4.561,0.738-6.163,2.216c-1.603,1.477-2.403,3.424-2.403,5.841h-3.223c0-2.023,0.51-3.872,1.531-5.546
		c1.02-1.674,2.435-2.967,4.242-3.88c1.809-0.913,3.814-1.37,6.016-1.37c3.545,0,6.338,0.967,8.379,2.9s3.063,4.583,3.063,7.949
		c0,1.88-0.596,3.612-1.786,5.196c-1.191,1.585-2.824,2.771-4.901,3.559c2.435,0.681,4.279,1.849,5.532,3.505
		c1.253,1.656,1.88,3.63,1.88,5.921c0,3.348-1.092,6.042-3.276,8.083s-5.103,3.062-8.755,3.062c-2.327,0-4.463-0.466-6.405-1.396
		s-3.446-2.233-4.512-3.907c-1.065-1.674-1.598-3.621-1.598-5.841h3.223c0,2.489,0.868,4.516,2.604,6.083
		c1.737,1.567,3.966,2.35,6.688,2.35c2.775,0,4.937-0.711,6.485-2.135c1.549-1.423,2.323-3.486,2.323-6.19
		c0-2.614-0.837-4.61-2.511-5.989c-1.675-1.378-4.141-2.068-7.399-2.068h-3.223V159.352z"/>
	<path d="M612.7,180.648h-24.492v-2.471l13.4-15.2c2.22-2.56,3.76-4.673,4.619-6.338s1.289-3.285,1.289-4.861
		c0-2.471-0.725-4.427-2.176-5.868c-1.449-1.441-3.446-2.162-5.988-2.162c-2.632,0-4.758,0.842-6.378,2.524
		c-1.621,1.683-2.431,3.867-2.431,6.553h-3.195c0-2.202,0.496-4.207,1.49-6.016c0.993-1.808,2.407-3.227,4.243-4.257
		c1.835-1.029,3.925-1.544,6.271-1.544c3.581,0,6.378,0.94,8.393,2.82c2.014,1.88,3.021,4.44,3.021,7.681
		c0,1.826-0.569,3.823-1.706,5.989c-1.137,2.167-3.138,4.87-6.002,8.11l-10.903,12.327H612.7V180.648z"/>
	<path d="M620.864,160.614l1.907-19.067h19.551v2.981h-16.785l-1.369,13.213c2.094-1.432,4.547-2.148,7.357-2.148
		c3.527,0,6.338,1.146,8.434,3.438c2.094,2.292,3.142,5.344,3.142,9.158c0,4.118-1.021,7.314-3.062,9.587
		c-2.041,2.274-4.914,3.411-8.621,3.411c-3.401,0-6.158-0.949-8.271-2.847c-2.112-1.897-3.32-4.556-3.625-7.976h3.088
		c0.305,2.668,1.209,4.686,2.713,6.056c1.504,1.369,3.536,2.054,6.096,2.054c2.793,0,4.901-0.886,6.325-2.659
		c1.423-1.772,2.135-4.297,2.135-7.573c0-2.864-0.797-5.201-2.39-7.009c-1.594-1.808-3.77-2.712-6.526-2.712
		c-1.521,0-2.847,0.192-3.975,0.577c-1.128,0.385-2.318,1.133-3.571,2.243L620.864,160.614z"/>
	<path d="M667.915,162.95l-19.094-8.137v-3.303l22.693,10.151v2.605l-22.693,10.178v-3.33L667.915,162.95z"/>
</g>
<g>
	<path d="M1079.98,171.034c0-2.166-0.761-3.881-2.283-5.143c-1.522-1.263-4.306-2.462-8.352-3.599c-4.046-1.137-7-2.377-8.862-3.72
		c-2.65-1.897-3.975-4.386-3.975-7.466c0-2.99,1.231-5.42,3.692-7.291c2.462-1.871,5.608-2.807,9.44-2.807
		c2.596,0,4.919,0.501,6.969,1.504c2.05,1.003,3.639,2.399,4.767,4.189c1.128,1.791,1.692,3.787,1.692,5.989h-3.33
		c0-2.675-0.913-4.826-2.739-6.451s-4.279-2.438-7.358-2.438c-2.99,0-5.371,0.668-7.144,2.004c-1.772,1.336-2.659,3.08-2.659,5.231
		c0,1.991,0.796,3.614,2.39,4.869c1.593,1.255,4.145,2.363,7.654,3.322c3.509,0.959,6.167,1.954,7.976,2.983
		c1.808,1.03,3.169,2.261,4.082,3.693c0.913,1.433,1.37,3.125,1.37,5.076c0,3.08-1.231,5.55-3.692,7.412
		c-2.462,1.862-5.707,2.793-9.735,2.793c-2.757,0-5.286-0.493-7.587-1.477c-2.3-0.984-4.046-2.363-5.236-4.136
		c-1.191-1.772-1.786-3.804-1.786-6.096h3.303c0,2.757,1.029,4.933,3.088,6.526c2.059,1.594,4.798,2.39,8.218,2.39
		c3.043,0,5.487-0.671,7.332-2.014C1079.058,175.035,1079.98,173.254,1079.98,171.034z"/>
	<path d="M1094.67,144.151v7.439h6.016v2.632h-6.016v19.384c0,1.613,0.291,2.814,0.873,3.603c0.58,0.789,1.553,1.183,2.912,1.183
		c0.537,0,1.406-0.089,2.605-0.269l0.135,2.609c-0.842,0.301-1.988,0.452-3.438,0.452c-2.203,0-3.805-0.64-4.807-1.92
		c-1.004-1.28-1.504-3.165-1.504-5.653v-19.39h-5.345v-2.632h5.345v-7.439H1094.67z"/>
	<path d="M1107.159,143.198c0-0.605,0.196-1.116,0.59-1.534c0.395-0.418,0.932-0.627,1.611-0.627c0.681,0,1.223,0.209,1.625,0.627
		c0.403,0.418,0.604,0.929,0.604,1.534c0,0.605-0.201,1.112-0.604,1.521c-0.402,0.409-0.944,0.614-1.625,0.614
		c-0.68,0-1.217-0.205-1.611-0.614C1107.355,144.31,1107.159,143.803,1107.159,143.198z M1110.945,180.648h-3.223V151.59h3.223
		V180.648z"/>
	<path d="M1123.271,180.648h-3.223v-41.25h3.223V180.648z"/>
	<path d="M1135.597,180.648h-3.223v-41.25h3.223V180.648z"/>
	<path d="M1159.096,163.058l18.691,8.057v3.384l-22.209-10.178v-2.605l22.209-10.151v3.384L1159.096,163.058z"/>
	<path d="M1193.793,170.094l1.208,6.069l1.478-5.801l8.486-28.816h2.98l8.379,28.816l1.45,5.854l1.289-6.123l7.063-28.547h3.383
		l-10.017,39.102h-3.169l-8.862-30.588l-0.993-3.867l-0.967,3.867l-9.078,30.588h-3.168l-9.99-39.102h3.383L1193.793,170.094z"/>
	<path d="M1234.936,143.198c0-0.605,0.196-1.116,0.59-1.534c0.395-0.418,0.932-0.627,1.611-0.627c0.681,0,1.223,0.209,1.625,0.627
		c0.403,0.418,0.604,0.929,0.604,1.534c0,0.605-0.201,1.112-0.604,1.521c-0.402,0.409-0.944,0.614-1.625,0.614
		c-0.68,0-1.217-0.205-1.611-0.614C1235.132,144.31,1234.936,143.803,1234.936,143.198z M1238.722,180.648h-3.223V151.59h3.223
		V180.648z"/>
	<path d="M1250.512,151.59l0.107,4.968c1.092-1.79,2.453-3.156,4.082-4.095c1.629-0.94,3.429-1.41,5.397-1.41
		c3.115,0,5.435,0.877,6.956,2.632c1.521,1.755,2.292,4.387,2.31,7.896v19.067h-3.195v-19.094c-0.019-2.596-0.569-4.529-1.652-5.801
		c-1.083-1.271-2.815-1.907-5.196-1.907c-1.987,0-3.746,0.622-5.277,1.866c-1.53,1.245-2.663,2.923-3.397,5.036v19.9h-3.195V151.59
		H1250.512z"/>
	<path d="M1276.374,165.851c0-4.512,1.007-8.106,3.021-10.783c2.014-2.676,4.749-4.015,8.204-4.015c3.921,0,6.911,1.549,8.97,4.646
		v-16.301h3.195v41.25h-3.008l-0.134-3.867c-2.059,2.937-5.085,4.404-9.077,4.404c-3.348,0-6.047-1.347-8.097-4.042
		c-2.051-2.694-3.075-6.333-3.075-10.917V165.851z M1279.624,166.415c0,3.706,0.742,6.629,2.229,8.769
		c1.486,2.139,3.581,3.209,6.284,3.209c3.957,0,6.768-1.746,8.433-5.237v-13.643c-1.665-3.777-4.458-5.667-8.379-5.667
		c-2.703,0-4.807,1.061-6.311,3.183C1280.375,159.15,1279.624,162.279,1279.624,166.415z"/>
	<path d="M1306.453,165.689c0-2.793,0.541-5.308,1.625-7.546c1.083-2.238,2.613-3.979,4.592-5.224
		c1.979-1.244,4.221-1.866,6.728-1.866c3.867,0,7,1.356,9.399,4.068c2.399,2.713,3.599,6.307,3.599,10.783v0.671
		c0,2.811-0.542,5.34-1.625,7.587c-1.083,2.247-2.609,3.979-4.578,5.196c-1.97,1.218-4.217,1.826-6.741,1.826
		c-3.85,0-6.979-1.356-9.386-4.068c-2.408-2.713-3.612-6.307-3.612-10.783V165.689z M1309.675,166.576
		c0,3.474,0.899,6.324,2.699,8.554c1.799,2.229,4.158,3.343,7.076,3.343c2.9,0,5.25-1.115,7.05-3.343
		c1.799-2.229,2.699-5.17,2.699-8.822v-0.618c0-2.22-0.412-4.252-1.236-6.096c-0.823-1.844-1.978-3.272-3.464-4.283
		c-1.486-1.012-3.187-1.518-5.103-1.518c-2.864,0-5.201,1.124-7.01,3.37c-1.808,2.247-2.712,5.188-2.712,8.822V166.576z"/>
	<path d="M1345.983,173.961l0.484,2.498l0.645-2.632l6.982-22.236h2.738l6.902,22.048l0.752,3.062l0.617-2.82l5.963-22.29h3.33
		l-8.46,29.058h-2.739l-7.466-23.042l-0.349-1.584l-0.35,1.611l-7.332,23.015h-2.738l-8.434-29.058h3.304L1345.983,173.961z"/>
	<path d="M1390.483,164.75h-12.863v-2.712h12.863V164.75z"/>
	<path d="M1402.863,159.352h3.33c1.845,0,3.456-0.327,4.834-0.98c1.379-0.654,2.431-1.549,3.156-2.686
		c0.725-1.137,1.088-2.448,1.088-3.935c0-2.506-0.708-4.467-2.122-5.881c-1.414-1.414-3.446-2.122-6.097-2.122
		c-2.506,0-4.561,0.738-6.163,2.216c-1.603,1.477-2.403,3.424-2.403,5.841h-3.223c0-2.023,0.51-3.872,1.531-5.546
		c1.02-1.674,2.435-2.967,4.242-3.88c1.809-0.913,3.814-1.37,6.016-1.37c3.545,0,6.338,0.967,8.379,2.9s3.063,4.583,3.063,7.949
		c0,1.88-0.596,3.612-1.786,5.196c-1.191,1.585-2.824,2.771-4.901,3.559c2.435,0.681,4.279,1.849,5.532,3.505
		c1.253,1.656,1.88,3.63,1.88,5.921c0,3.348-1.092,6.042-3.276,8.083s-5.103,3.062-8.755,3.062c-2.327,0-4.463-0.466-6.405-1.396
		s-3.446-2.233-4.512-3.907c-1.065-1.674-1.598-3.621-1.598-5.841h3.223c0,2.489,0.868,4.516,2.604,6.083
		c1.737,1.567,3.966,2.35,6.688,2.35c2.775,0,4.937-0.711,6.485-2.135c1.549-1.423,2.323-3.486,2.323-6.19
		c0-2.614-0.837-4.61-2.511-5.989c-1.675-1.378-4.141-2.068-7.399-2.068h-3.223V159.352z"/>
	<path d="M1450.694,180.648h-24.492v-2.471l13.4-15.2c2.22-2.56,3.76-4.673,4.619-6.338s1.289-3.285,1.289-4.861
		c0-2.471-0.725-4.427-2.176-5.868c-1.449-1.441-3.446-2.162-5.988-2.162c-2.632,0-4.758,0.842-6.378,2.524
		c-1.621,1.683-2.431,3.867-2.431,6.553h-3.195c0-2.202,0.496-4.207,1.49-6.016c0.993-1.808,2.407-3.227,4.243-4.257
		c1.835-1.029,3.925-1.544,6.271-1.544c3.581,0,6.378,0.94,8.393,2.82c2.014,1.88,3.021,4.44,3.021,7.681
		c0,1.826-0.569,3.823-1.706,5.989c-1.137,2.167-3.138,4.87-6.002,8.11l-10.903,12.327h20.545V180.648z"/>
	<path d="M1458.857,160.614l1.907-19.067h19.551v2.981h-16.785l-1.369,13.213c2.094-1.432,4.547-2.148,7.357-2.148
		c3.527,0,6.338,1.146,8.434,3.438c2.094,2.292,3.142,5.344,3.142,9.158c0,4.118-1.021,7.314-3.062,9.587
		c-2.041,2.274-4.914,3.411-8.621,3.411c-3.401,0-6.158-0.949-8.271-2.847c-2.112-1.897-3.32-4.556-3.625-7.976h3.088
		c0.305,2.668,1.209,4.686,2.713,6.056c1.504,1.369,3.536,2.054,6.096,2.054c2.793,0,4.901-0.886,6.325-2.659
		c1.423-1.772,2.135-4.297,2.135-7.573c0-2.864-0.797-5.201-2.39-7.009c-1.594-1.808-3.77-2.712-6.526-2.712
		c-1.521,0-2.847,0.192-3.975,0.577c-1.128,0.385-2.318,1.133-3.571,2.243L1458.857,160.614z"/>
	<path d="M1505.907,162.95l-19.094-8.137v-3.303l22.693,10.151v2.605l-22.693,10.178v-3.33L1505.907,162.95z"/>
	<path d="M1522.075,169.771c0.036-2.11,0.322-3.809,0.859-5.097c0.537-1.288,1.691-2.803,3.465-4.547
		c1.771-1.744,2.913-2.978,3.424-3.702c0.51-0.724,0.903-1.52,1.182-2.388c0.277-0.867,0.416-1.855,0.416-2.964
		c0-2.235-0.596-3.993-1.786-5.271s-2.851-1.918-4.981-1.918c-2.148,0-3.881,0.613-5.196,1.839
		c-1.316,1.227-1.992,2.887-2.028,4.982h-3.195c0.036-2.936,1.029-5.286,2.98-7.049c1.952-1.764,4.432-2.646,7.439-2.646
		c3.079,0,5.51,0.899,7.291,2.696c1.781,1.798,2.672,4.235,2.672,7.312c0,1.932-0.438,3.743-1.315,5.433
		c-0.877,1.69-2.542,3.663-4.995,5.916c-2.023,1.699-3.035,4.168-3.035,7.405H1522.075z M1521.645,178.755
		c0-0.612,0.192-1.13,0.577-1.554s0.927-0.635,1.625-0.635c0.681,0,1.222,0.212,1.625,0.635c0.402,0.423,0.604,0.941,0.604,1.554
		c0,0.595-0.202,1.095-0.604,1.5c-0.403,0.405-0.944,0.608-1.625,0.608c-0.698,0-1.24-0.203-1.625-0.608
		S1521.645,179.35,1521.645,178.755z"/>
	<path d="M1547.05,169.771c0.036-2.11,0.322-3.809,0.859-5.097c0.537-1.288,1.691-2.803,3.465-4.547
		c1.771-1.744,2.913-2.978,3.424-3.702c0.51-0.724,0.903-1.52,1.182-2.388c0.277-0.867,0.416-1.855,0.416-2.964
		c0-2.235-0.596-3.993-1.786-5.271s-2.851-1.918-4.981-1.918c-2.148,0-3.881,0.613-5.196,1.839
		c-1.316,1.227-1.992,2.887-2.028,4.982h-3.195c0.036-2.936,1.029-5.286,2.98-7.049c1.952-1.764,4.432-2.646,7.439-2.646
		c3.079,0,5.51,0.899,7.291,2.696c1.781,1.798,2.672,4.235,2.672,7.312c0,1.932-0.438,3.743-1.315,5.433
		c-0.877,1.69-2.542,3.663-4.995,5.916c-2.023,1.699-3.035,4.168-3.035,7.405H1547.05z M1546.621,178.755
		c0-0.612,0.192-1.13,0.577-1.554s0.927-0.635,1.625-0.635c0.681,0,1.222,0.212,1.625,0.635c0.402,0.423,0.604,0.941,0.604,1.554
		c0,0.595-0.202,1.095-0.604,1.5c-0.403,0.405-0.944,0.608-1.625,0.608c-0.698,0-1.24-0.203-1.625-0.608
		S1546.621,179.35,1546.621,178.755z"/>
	<path d="M1572.026,169.771c0.036-2.11,0.322-3.809,0.859-5.097c0.537-1.288,1.691-2.803,3.465-4.547
		c1.771-1.744,2.913-2.978,3.424-3.702c0.51-0.724,0.903-1.52,1.182-2.388c0.277-0.867,0.416-1.855,0.416-2.964
		c0-2.235-0.596-3.993-1.786-5.271s-2.851-1.918-4.981-1.918c-2.148,0-3.881,0.613-5.196,1.839
		c-1.316,1.227-1.992,2.887-2.028,4.982h-3.195c0.036-2.936,1.029-5.286,2.98-7.049c1.952-1.764,4.432-2.646,7.439-2.646
		c3.079,0,5.51,0.899,7.291,2.696c1.781,1.798,2.672,4.235,2.672,7.312c0,1.932-0.438,3.743-1.315,5.433
		c-0.877,1.69-2.542,3.663-4.995,5.916c-2.023,1.699-3.035,4.168-3.035,7.405H1572.026z M1571.596,178.755
		c0-0.612,0.192-1.13,0.577-1.554s0.927-0.635,1.625-0.635c0.681,0,1.222,0.212,1.625,0.635c0.402,0.423,0.604,0.941,0.604,1.554
		c0,0.595-0.202,1.095-0.604,1.5c-0.403,0.405-0.944,0.608-1.625,0.608c-0.698,0-1.24-0.203-1.625-0.608
		S1571.596,179.35,1571.596,178.755z"/>
</g>
<g>
	<path d="M512.09,943.173h-13.4v36.309h-3.304v-36.309h-13.374v-2.793h30.078V943.173z"/>
	<path d="M517.461,942.032c0-0.605,0.196-1.116,0.59-1.534c0.395-0.418,0.932-0.628,1.611-0.628c0.681,0,1.223,0.21,1.625,0.628
		c0.403,0.418,0.604,0.929,0.604,1.534s-0.201,1.112-0.604,1.521c-0.402,0.409-0.944,0.613-1.625,0.613
		c-0.68,0-1.217-0.204-1.611-0.613C517.658,943.144,517.461,942.637,517.461,942.032z M521.248,979.482h-3.223v-29.058h3.223
		V979.482z"/>
	<path d="M532.904,950.424l0.107,4.727c1.074-1.754,2.416-3.07,4.027-3.947s3.402-1.316,5.371-1.316c4.584,0,7.493,1.88,8.729,5.64
		c1.038-1.808,2.426-3.2,4.162-4.176c1.737-0.976,3.652-1.464,5.748-1.464c6.23,0,9.408,3.402,9.533,10.205v19.39h-3.223v-19.147
		c-0.018-2.596-0.577-4.521-1.679-5.774c-1.101-1.253-2.896-1.88-5.384-1.88c-2.311,0.036-4.262,0.783-5.855,2.242
		c-1.593,1.459-2.479,3.236-2.658,5.331v19.229h-3.223v-19.39c-0.018-2.488-0.604-4.346-1.759-5.572
		c-1.155-1.227-2.932-1.84-5.331-1.84c-2.023,0-3.76,0.577-5.21,1.732c-1.45,1.154-2.524,2.869-3.223,5.143v19.927h-3.223v-29.058
		H532.904z"/>
	<path d="M589.971,980.019c-2.471,0-4.704-0.608-6.7-1.826s-3.549-2.914-4.659-5.089c-1.11-2.176-1.665-4.615-1.665-7.318v-1.154
		c0-2.793,0.541-5.309,1.625-7.547c1.083-2.238,2.591-3.997,4.524-5.277c1.934-1.279,4.029-1.92,6.285-1.92
		c3.526,0,6.324,1.204,8.392,3.612c2.068,2.407,3.103,5.698,3.103,9.869v1.8h-20.732v0.617c0,3.295,0.943,6.038,2.833,8.231
		c1.889,2.192,4.266,3.29,7.13,3.29c1.719,0,3.236-0.313,4.552-0.94c1.316-0.626,2.511-1.629,3.585-3.008l2.015,1.53
		C597.894,978.309,594.465,980.019,589.971,980.019z M589.381,952.626c-2.418,0-4.454,0.886-6.11,2.659
		c-1.656,1.771-2.663,4.153-3.021,7.143h17.429v-0.349c-0.09-2.793-0.886-5.066-2.39-6.821
		C593.786,953.504,591.816,952.626,589.381,952.626z"/>
	<path d="M618.833,980.293c0,3.215-0.59,5.654-1.77,7.319s-2.917,2.497-5.214,2.497c-2.254,0-3.981-0.816-5.182-2.45
		c-1.201-1.634-1.816-4.011-1.848-7.132v-4.086c0-3.205,0.595-5.631,1.785-7.281c1.189-1.648,2.928-2.473,5.213-2.473
		c2.255,0,3.978,0.795,5.167,2.387c1.19,1.592,1.806,3.938,1.848,7.038V980.293z M616.955,976.208c0-2.609-0.426-4.582-1.276-5.919
		c-0.851-1.336-2.137-2.004-3.859-2.004c-1.69,0-2.964,0.652-3.82,1.957c-0.855,1.305-1.294,3.23-1.314,5.777v4.478
		c0,2.6,0.44,4.588,1.323,5.965c0.882,1.379,2.163,2.067,3.843,2.067c1.67,0,2.937-0.673,3.797-2.021
		c0.861-1.346,1.297-3.318,1.308-5.918V976.208z"/>
</g>
<g>
	<path d="M1337.164,943.173h-13.4v36.309h-3.304v-36.309h-13.374v-2.793h30.078V943.173z"/>
	<path d="M1342.535,942.032c0-0.605,0.196-1.116,0.59-1.534c0.395-0.418,0.932-0.628,1.611-0.628c0.681,0,1.223,0.21,1.625,0.628
		c0.403,0.418,0.604,0.929,0.604,1.534s-0.201,1.112-0.604,1.521c-0.402,0.409-0.944,0.613-1.625,0.613
		c-0.68,0-1.217-0.204-1.611-0.613C1342.731,943.144,1342.535,942.637,1342.535,942.032z M1346.321,979.482h-3.223v-29.058h3.223
		V979.482z"/>
	<path d="M1357.977,950.424l0.107,4.727c1.074-1.754,2.416-3.07,4.027-3.947s3.402-1.316,5.371-1.316c4.584,0,7.493,1.88,8.729,5.64
		c1.038-1.808,2.426-3.2,4.162-4.176c1.737-0.976,3.652-1.464,5.748-1.464c6.23,0,9.408,3.402,9.533,10.205v19.39h-3.223v-19.147
		c-0.018-2.596-0.577-4.521-1.679-5.774c-1.101-1.253-2.896-1.88-5.384-1.88c-2.311,0.036-4.262,0.783-5.855,2.242
		c-1.593,1.459-2.479,3.236-2.658,5.331v19.229h-3.223v-19.39c-0.018-2.488-0.604-4.346-1.759-5.572
		c-1.155-1.227-2.932-1.84-5.331-1.84c-2.023,0-3.76,0.577-5.21,1.732c-1.45,1.154-2.524,2.869-3.223,5.143v19.927h-3.223v-29.058
		H1357.977z"/>
	<path d="M1415.044,980.019c-2.471,0-4.704-0.608-6.7-1.826s-3.549-2.914-4.659-5.089c-1.11-2.176-1.665-4.615-1.665-7.318v-1.154
		c0-2.793,0.541-5.309,1.625-7.547c1.083-2.238,2.591-3.997,4.524-5.277c1.934-1.279,4.029-1.92,6.285-1.92
		c3.526,0,6.324,1.204,8.392,3.612c2.068,2.407,3.103,5.698,3.103,9.869v1.8h-20.732v0.617c0,3.295,0.943,6.038,2.833,8.231
		c1.889,2.192,4.266,3.29,7.13,3.29c1.719,0,3.236-0.313,4.552-0.94c1.316-0.626,2.511-1.629,3.585-3.008l2.015,1.53
		C1422.967,978.309,1419.539,980.019,1415.044,980.019z M1414.455,952.626c-2.418,0-4.454,0.886-6.11,2.659
		c-1.656,1.771-2.663,4.153-3.021,7.143h17.429v-0.349c-0.09-2.793-0.886-5.066-2.39-6.821
		C1418.859,953.504,1416.889,952.626,1414.455,952.626z"/>
	<path d="M1438.881,989.797h-1.879v-20.542l-6.2,2.302v-1.754l7.766-2.881h0.313V989.797z"/>
</g>
<g>
	<g id="XMLID_3_">
		<g>
			<path fill="#4B453C" d="M1711.056,688.15v79.95h-782.3v-79.95h49.49V214.34h683.32v473.81H1711.056z M1699.266,756.31v-56.36
				h-37.71h-683.31h-37.7v56.36H1699.266z M1649.776,688.15V226.13h-659.75v462.02H1649.776z"/>
			<path fill="#4B453C" d="M1621.806,255.71v402.85h-182.42V255.71H1621.806z M1610.016,646.79V267.51h-158.84v379.28H1610.016z"/>
			<rect x="1451.176" y="267.51" fill="#ACCED3" width="158.84" height="379.28"/>
			<path fill="#4B453C" d="M1411.116,255.71v402.85h-182.42V255.71H1411.116z M1399.326,646.79V267.51h-158.85v379.28H1399.326z"/>
			<rect x="1240.476" y="267.51" fill="#ACCED3" width="158.85" height="379.28"/>
			<path fill="#4B453C" d="M1200.426,255.71v402.85h-182.42V255.71H1200.426z M1188.636,646.79V267.51h-158.85v379.28H1188.636z"/>
			<rect x="1029.786" y="267.51" fill="#ACCED3" width="158.85" height="379.28"/>
			<path fill="#4B453C" d="M780.556,688.15v79.95h-571.61v-79.95h49.49V214.34h472.63v473.81H780.556z M768.766,756.31v-56.36
				h-37.71h-472.62h-37.7v56.36H768.766z M719.276,688.15V226.13h-449.05v462.02H719.276z"/>
			<path fill="#4B453C" d="M691.306,255.71v402.85h-182.42V255.71H691.306z M679.516,646.79V267.51h-158.84v379.28H679.516z"/>
			<rect x="520.676" y="267.51" fill="#ACCED3" width="158.84" height="379.28"/>
			<path fill="#4B453C" d="M480.616,255.71v402.85h-182.42V255.71H480.616z M468.826,646.79V267.51h-158.85v379.28H468.826z"/>
			<rect x="309.976" y="267.51" fill="#ACCED3" width="158.85" height="379.28"/>
		</g>
	</g>
</g>
<g>
	<g>
		
			<line fill="none" stroke="#4B453C" stroke-width="8.2382" stroke-miterlimit="10" x1="65" y1="885.946" x2="1805.82" y2="885.946"/>
		<g>
			<polygon fill="#4B453C" points="1782.684,916.452 1795.645,885.946 1782.684,855.438 1855,885.946 			"/>
		</g>
	</g>
</g>
<line fill="none" stroke="#4B453C" stroke-width="6.2469" stroke-miterlimit="10" x1="494.75" y1="862.946" x2="494.75" y2="908.946"/>
<line fill="none" stroke="#4B453C" stroke-width="6.2469" stroke-miterlimit="10" x1="1319.904" y1="862.946" x2="1319.904" y2="908.946"/>
</svg>
