<?xml version="1.0" encoding="utf-8"?>
<!-- Generator: Adobe Illustrator 16.0.0, SVG Export Plug-In . SVG Version: 6.00 Build 0)  -->
<!DOCTYPE svg PUBLIC "-//W3C//DTD SVG 1.1//EN" "http://www.w3.org/Graphics/SVG/1.1/DTD/svg11.dtd">
<svg version="1.1" id="Layer_1" xmlns="http://www.w3.org/2000/svg" xmlns:xlink="http://www.w3.org/1999/xlink" x="0px" y="0px"
	 width="1920px" height="1080px" viewBox="0 0 1920 1080" enable-background="new 0 0 1920 1080" xml:space="preserve">
<g>
	<g>
		<path d="M609.98,453.621c0,1.793,0.48,3.211,1.44,4.256c1.002,1.067,2.378,1.601,4.128,1.601c0.896,0,1.707-0.149,2.432-0.448
			c0.917-0.384,1.738-1.162,2.464-2.336l1.184,0.544c-0.832,1.579-2.112,2.646-3.84,3.2c-0.661,0.213-1.408,0.32-2.24,0.32
			c-1.984,0-3.616-0.65-4.896-1.952c-1.302-1.302-1.952-2.933-1.952-4.896c0-1.984,0.64-3.617,1.92-4.896
			c1.301-1.301,2.944-1.952,4.928-1.952c1.962,0,3.584,0.608,4.864,1.823c1.301,1.217,1.952,2.796,1.952,4.736H609.98z
			 M619.004,449.43c-1.003-0.725-2.155-1.088-3.456-1.088c-2.731,0-4.523,1.344-5.376,4.031h10.72
			C620.678,451.157,620.049,450.176,619.004,449.43z"/>
		<path d="M631.132,460.502l-3.744-5.537l-3.744,5.537h-1.568l4.512-6.656l-4.416-6.561h1.536l3.68,5.473l3.648-5.473h1.536
			l-4.384,6.528l4.48,6.688H631.132z"/>
		<path d="M635.804,451.254c-0.235,0-0.48-0.097-0.736-0.289c-0.192-0.191-0.299-0.447-0.32-0.768c0-0.576,0.352-0.928,1.056-1.056
			c0.533,0,0.885,0.353,1.056,1.056C636.86,450.901,636.508,451.254,635.804,451.254z M635.804,460.693
			c-0.235,0-0.48-0.096-0.736-0.288c-0.192-0.192-0.299-0.448-0.32-0.768c0-0.576,0.352-0.929,1.056-1.056
			c0.533,0,0.885,0.352,1.056,1.056C636.86,460.342,636.508,460.693,635.804,460.693z"/>
		<path d="M653.5,461.078l-4.128-10.561l-4.192,10.561l-5.92-13.793h1.408l4.448,10.24l4.256-10.656l4.224,10.625l4.416-10.209
			h1.472L653.5,461.078z"/>
		<path d="M663.227,444.918c-0.235,0-0.48-0.097-0.736-0.289c-0.192-0.191-0.299-0.447-0.32-0.768c0-0.576,0.352-0.928,1.056-1.056
			c0.533,0,0.885,0.352,1.056,1.056C664.283,444.565,663.931,444.918,663.227,444.918z M662.555,460.502v-13.217h1.312v13.217
			H662.555z"/>
		<path d="M678.075,460.502v-2.369c-1.408,1.729-3.2,2.593-5.376,2.593c-1.92,0-3.531-0.65-4.832-1.952
			c-1.323-1.322-1.984-2.943-1.984-4.863c0-1.921,0.65-3.531,1.952-4.832c1.322-1.323,2.944-1.984,4.864-1.984
			c2.112,0,3.904,0.863,5.376,2.592v-12.864h1.312v23.681H678.075z M676.604,450.006c-1.088-1.088-2.39-1.633-3.904-1.633
			c-1.536,0-2.837,0.533-3.904,1.601c-1.088,1.088-1.632,2.399-1.632,3.937c0,1.514,0.544,2.815,1.632,3.903
			s2.389,1.632,3.904,1.632c1.536,0,2.837-0.533,3.904-1.6c1.088-1.088,1.632-2.4,1.632-3.936
			C678.235,452.395,677.691,451.094,676.604,450.006z"/>
		<path d="M685.275,448.598v11.904h-1.312v-11.904h-1.792v-1.313h1.792v-5.791h1.312v5.791h3.072v1.313H685.275z"/>
		<path d="M700.699,460.533v-7.968c0-2.794-1.302-4.192-3.904-4.192c-1.067,0-1.984,0.32-2.752,0.961
			c-0.789,0.64-1.184,1.493-1.184,2.56v8.608h-1.312v-23.681h1.312v12.224c0.789-1.301,2.101-1.951,3.936-1.951
			c3.477,0,5.216,1.781,5.216,5.344v8.096H700.699z"/>
	</g>
</g>
<g>
	<g>
		<path fill="none" stroke="#000000" stroke-width="0.8" stroke-miterlimit="10" d="M531.545,501.668
			c104.825-58.367,209.645-18.17,239.735-4.242"/>
		<g>
			<polygon points="764.613,500.836 769.473,496.613 769.808,490.186 779.834,501.668 			"/>
		</g>
	</g>
</g>
<g>
	<g>
		<path d="M717.764,517.113v-3.979c0-0.748,0.204-1.281,0.611-1.598h0.681c-0.408,0.453-0.612,0.986-0.612,1.598v1.529h1.122v2.449
			H717.764z M721.674,517.113v-3.979c0-0.748,0.204-1.281,0.611-1.598h0.681c-0.408,0.453-0.612,0.986-0.612,1.598v1.529h1.122
			v2.449H721.674z"/>
		<path d="M735.443,536.289v-22.883h-4.114l0.918-1.395h4.59v24.277H735.443z"/>
		<path d="M753.26,534.793c-1.338,1.291-3.026,1.938-5.066,1.938c-2.063,0-3.763-0.635-5.1-1.904
			c-1.338-1.291-2.006-2.957-2.006-4.998c0-1.473,0.396-2.775,1.189-3.91c0.794-1.109,1.904-1.938,3.332-2.48
			c-1.134-0.342-2.04-1.066-2.72-2.178c-0.657-1.064-0.986-2.197-0.986-3.398c0-1.836,0.578-3.332,1.734-4.488
			c1.156-1.18,2.652-1.768,4.488-1.768c1.858,0,3.366,0.576,4.521,1.732c1.156,1.156,1.734,2.664,1.734,4.523
			c0,1.27-0.34,2.426-1.021,3.467c-0.657,1.02-1.586,1.723-2.787,2.109c1.224,0.453,2.221,1.1,2.991,1.938
			c1.11,1.178,1.666,2.664,1.666,4.453C755.231,531.846,754.574,533.5,753.26,534.793z M752.172,525.885
			c-0.567-0.566-1.185-1.014-1.854-1.344c-0.668-0.328-1.399-0.492-2.192-0.492c-0.771,0-1.485,0.164-2.143,0.492
			c-0.657,0.33-1.27,0.766-1.836,1.309c-1.134,1.135-1.7,2.461-1.7,3.979c0,1.543,0.533,2.846,1.599,3.91
			c1.088,1.088,2.448,1.633,4.08,1.633c1.654,0,3.014-0.521,4.08-1.564c1.11-1.043,1.666-2.369,1.666-3.979
			C753.872,528.287,753.305,526.973,752.172,525.885z M751.628,514.359c-0.93-0.93-2.097-1.395-3.502-1.395
			c-1.383,0-2.539,0.465-3.468,1.395c-0.93,0.93-1.395,2.096-1.395,3.502c0,1.359,0.465,2.504,1.395,3.434
			c0.453,0.453,0.969,0.828,1.547,1.121c0.578,0.295,1.218,0.443,1.921,0.443c0.725,0,1.377-0.137,1.955-0.408
			c0.578-0.273,1.093-0.635,1.547-1.088c0.929-0.93,1.394-2.098,1.394-3.502C753.021,516.455,752.557,515.289,751.628,514.359z"/>
		<path d="M773.829,532.344c-1.632,2.857-3.944,4.285-6.937,4.285c-2.969,0-5.27-1.439-6.901-4.318
			c-1.338-2.357-2.006-5.145-2.006-8.363c0-3.242,0.668-6.041,2.006-8.398c1.632-2.879,3.933-4.318,6.901-4.318
			c2.97,0,5.271,1.439,6.902,4.318c1.337,2.402,2.006,5.201,2.006,8.398C775.801,527.211,775.144,530.01,773.829,532.344z
			 M772.741,516.568c-1.338-2.629-3.287-3.943-5.849-3.943c-2.289,0-4.137,1.178-5.542,3.535c-1.246,2.131-1.869,4.727-1.869,7.787
			c0,2.787,0.532,5.225,1.598,7.309c1.36,2.631,3.298,3.945,5.813,3.945c2.335,0,4.193-1.168,5.576-3.502
			c1.247-2.063,1.87-4.646,1.87-7.752C774.339,521.113,773.807,518.654,772.741,516.568z"/>
		<path d="M792.733,532.344c-1.632,2.857-3.944,4.285-6.937,4.285c-2.969,0-5.27-1.439-6.901-4.318
			c-1.338-2.357-2.006-5.145-2.006-8.363c0-3.242,0.668-6.041,2.006-8.398c1.632-2.879,3.933-4.318,6.901-4.318
			c2.97,0,5.271,1.439,6.902,4.318c1.337,2.402,2.006,5.201,2.006,8.398C794.705,527.211,794.048,530.01,792.733,532.344z
			 M791.646,516.568c-1.338-2.629-3.287-3.943-5.849-3.943c-2.289,0-4.137,1.178-5.542,3.535c-1.246,2.131-1.869,4.727-1.869,7.787
			c0,2.787,0.532,5.225,1.598,7.309c1.36,2.631,3.298,3.945,5.813,3.945c2.335,0,4.193-1.168,5.576-3.502
			c1.247-2.063,1.87-4.646,1.87-7.752C793.243,521.113,792.711,518.654,791.646,516.568z"/>
		<path d="M822.074,536.289v-9.691c0-0.859-0.283-1.607-0.85-2.242s-1.383-0.953-2.448-0.953c-2.198,0-3.298,1.066-3.298,3.195
			v9.691h-1.394v-9.691c0-0.951-0.318-1.711-0.952-2.277c-0.658-0.611-1.439-0.918-2.347-0.918c-0.93,0-1.711,0.295-2.346,0.885
			c-0.635,0.566-0.952,1.338-0.952,2.311v9.691h-1.394v-14.043h1.394v1.395c0.681-1.064,1.779-1.598,3.298-1.598
			c1.813,0,3.15,0.736,4.013,2.209c0.815-1.473,2.142-2.209,3.978-2.209c1.405,0,2.538,0.396,3.4,1.189
			c0.861,0.816,1.292,1.938,1.292,3.365v9.691H822.074z"/>
		<path d="M842.406,536.289v-9.691c0-0.859-0.283-1.607-0.85-2.242s-1.383-0.953-2.448-0.953c-2.198,0-3.298,1.066-3.298,3.195
			v9.691h-1.394v-9.691c0-0.951-0.318-1.711-0.952-2.277c-0.658-0.611-1.439-0.918-2.347-0.918c-0.93,0-1.711,0.295-2.346,0.885
			c-0.635,0.566-0.952,1.338-0.952,2.311v9.691h-1.394v-14.043h1.394v1.395c0.681-1.064,1.779-1.598,3.298-1.598
			c1.813,0,3.15,0.736,4.013,2.209c0.815-1.473,2.142-2.209,3.978-2.209c1.405,0,2.538,0.396,3.4,1.189
			c0.861,0.816,1.292,1.938,1.292,3.365v9.691H842.406z"/>
		<path d="M849.478,516.84h-0.68c0.408-0.43,0.612-0.963,0.612-1.598v-1.529h-1.122v-2.449h1.802v3.979
			C850.09,515.809,849.886,516.342,849.478,516.84z M853.388,516.84h-0.68c0.408-0.43,0.612-0.963,0.612-1.598v-1.529h-1.122v-2.449
			H854v3.979C854,515.809,853.796,516.342,853.388,516.84z"/>
		<path d="M862.007,517.494l-2.181-4.084l-2.22,4.084h-0.516l2.398-5.57h0.654l2.398,5.57H862.007z"/>
		<path d="M868.984,517.494l-2.181-4.084l-2.22,4.084h-0.516l2.398-5.57h0.654l2.398,5.57H868.984z"/>
		<path d="M874.692,525.125c-1.216,0-2.228-0.402-3.033-1.209s-1.209-1.816-1.209-3.033c0-1.215,0.403-2.227,1.209-3.033
			c0.806-0.805,1.817-1.209,3.033-1.209c1.044,0,1.876,0.238,2.497,0.715v0.971l-0.516-0.338l-0.555-0.297
			c-0.502-0.172-0.978-0.258-1.427-0.258c-1.018,0-1.844,0.318-2.479,0.951c-0.647,0.648-0.971,1.48-0.971,2.498
			c0,1.004,0.323,1.83,0.971,2.479c0.647,0.646,1.474,0.971,2.479,0.971c0.951,0,1.784-0.316,2.497-0.951v1.01
			C876.449,524.881,875.617,525.125,874.692,525.125z"/>
		<path d="M886.09,524.967V523.5c-0.872,1.07-1.982,1.605-3.33,1.605c-1.189,0-2.188-0.404-2.993-1.209
			c-0.819-0.82-1.229-1.824-1.229-3.014s0.402-2.188,1.209-2.992c0.819-0.82,1.823-1.23,3.013-1.23c1.309,0,2.419,0.535,3.33,1.605
			v-7.967h0.813v14.668H886.09z M885.179,518.465c-0.675-0.674-1.48-1.012-2.419-1.012c-0.951,0-1.758,0.332-2.418,0.992
			c-0.674,0.674-1.011,1.486-1.011,2.438c0,0.939,0.337,1.744,1.011,2.418s1.479,1.012,2.418,1.012c0.952,0,1.758-0.33,2.419-0.992
			c0.674-0.674,1.011-1.486,1.011-2.438C886.189,519.945,885.853,519.139,885.179,518.465z"/>
		<path d="M890.55,517.592v7.375h-0.813v-7.375h-1.11v-0.813h1.11v-3.588h0.813v3.588h1.903v0.813H890.55z"/>
		<path d="M894.634,519.238c-0.146,0-0.297-0.061-0.456-0.18c-0.119-0.119-0.185-0.277-0.198-0.475c0-0.357,0.218-0.576,0.654-0.654
			c0.33,0,0.548,0.219,0.654,0.654C895.288,519.02,895.07,519.238,894.634,519.238z M894.634,525.086
			c-0.146,0-0.297-0.061-0.456-0.18c-0.119-0.119-0.185-0.277-0.198-0.475c0-0.357,0.218-0.576,0.654-0.654
			c0.33,0,0.548,0.217,0.654,0.654C895.288,524.867,895.07,525.086,894.634,525.086z"/>
		<path d="M897.726,524.967v-14.668h0.793v14.668H897.726z"/>
		<path d="M901.472,520.705c0,1.109,0.297,1.988,0.892,2.637c0.621,0.66,1.474,0.99,2.558,0.99c0.555,0,1.057-0.092,1.506-0.277
			c0.568-0.238,1.077-0.721,1.526-1.447l0.733,0.338c-0.515,0.977-1.308,1.639-2.378,1.98c-0.41,0.133-0.872,0.199-1.388,0.199
			c-1.229,0-2.24-0.402-3.033-1.209c-0.806-0.807-1.209-1.816-1.209-3.033c0-1.229,0.396-2.24,1.189-3.033
			c0.806-0.805,1.823-1.209,3.053-1.209c1.216,0,2.22,0.377,3.013,1.131c0.806,0.752,1.209,1.73,1.209,2.934H901.472z
			 M907.062,518.107c-0.621-0.449-1.335-0.674-2.141-0.674c-1.691,0-2.802,0.832-3.33,2.498h6.641
			C908.099,519.178,907.709,518.57,907.062,518.107z"/>
		<path d="M916.536,524.967v-4.896c0-1.73-0.779-2.598-2.339-2.598c-0.767,0-1.348,0.227-1.744,0.676
			c-0.41,0.449-0.614,1.063-0.614,1.842v4.977h-0.813v-8.188h0.813v0.992c0.37-0.727,1.156-1.09,2.358-1.09
			c1.018,0,1.797,0.289,2.339,0.871s0.813,1.395,0.813,2.438v4.977H916.536z"/>
		<path d="M926.546,527.701c-0.739,0.74-1.711,1.111-2.913,1.111c-2.233,0-3.568-0.879-4.004-2.637h0.813
			c0.146,0.646,0.562,1.129,1.249,1.447c0.541,0.25,1.188,0.377,1.942,0.377c1.018,0,1.804-0.285,2.358-0.854
			c0.568-0.568,0.853-1.361,0.853-2.379v-1.209c-0.859,1.031-1.949,1.547-3.271,1.547c-1.189,0-2.188-0.404-2.993-1.209
			c-0.819-0.82-1.229-1.824-1.229-3.014s0.403-2.188,1.21-2.992c0.818-0.82,1.823-1.23,3.013-1.23c1.308,0,2.398,0.516,3.271,1.547
			v-1.428h0.813v8.008C927.656,525.99,927.286,526.961,926.546,527.701z M925.991,518.465c-0.674-0.674-1.48-1.012-2.418-1.012
			c-0.951,0-1.758,0.332-2.418,0.992c-0.675,0.674-1.012,1.486-1.012,2.438c0,0.939,0.337,1.744,1.012,2.418
			c0.674,0.674,1.479,1.012,2.418,1.012c0.951,0,1.757-0.33,2.418-0.992c0.674-0.674,1.011-1.486,1.011-2.438
			C927.002,519.945,926.665,519.139,925.991,518.465z"/>
		<path d="M931.303,517.592v7.375h-0.813v-7.375h-1.11v-0.813h1.11v-3.588h0.813v3.588h1.903v0.813H931.303z"/>
		<path d="M940.857,524.986v-4.936c0-1.73-0.806-2.598-2.418-2.598c-0.661,0-1.229,0.199-1.705,0.596
			c-0.489,0.396-0.733,0.924-0.733,1.586v5.332h-0.813v-14.668h0.813v7.57c0.489-0.805,1.302-1.209,2.438-1.209
			c2.153,0,3.23,1.104,3.23,3.311v5.016H940.857z"/>
	</g>
</g>
<path fill="#EDEDED" stroke="#000000" stroke-width="0.3624" stroke-miterlimit="10" d="M635.232,556
	c0,12.758-10.375,23.125-23.148,23.125H308.096c-12.781,0-23.141-10.367-23.141-23.125v-39.422
	c0-12.781,10.359-23.125,23.141-23.125h303.987c12.773,0,23.148,10.344,23.148,23.125V556z"/>
<g>
	<g>
		<path d="M295.836,539.772l15.161-9.241v2.718l-10.751,6.523l10.751,6.523v2.718L295.836,539.772z"/>
		<path d="M350.438,556.262l-10.751-36.18l-10.812,36.18l-13.832-43.73h2.416l11.295,35.274l10.932-36.06l10.872,36.06
			l11.295-35.274h2.537L350.438,556.262z"/>
		<path d="M369.887,526.242c-0.444,0-0.906-0.181-1.389-0.543c-0.363-0.362-0.564-0.846-0.604-1.449
			c0-1.088,0.664-1.752,1.993-1.994c1.006,0,1.67,0.665,1.993,1.994C371.88,525.578,371.215,526.242,369.887,526.242z
			 M368.618,555.658v-24.945h2.477v24.945H368.618z"/>
		<path d="M393.201,555.658v-14.92c0-5.273-2.376-7.912-7.127-7.912c-2.336,0-4.107,0.686-5.315,2.054
			c-1.249,1.37-1.873,3.241-1.873,5.617v15.161h-2.477v-24.945h2.477v3.02c1.127-2.214,3.523-3.322,7.188-3.322
			c3.1,0,5.476,0.887,7.127,2.658c1.65,1.771,2.476,4.248,2.476,7.429v15.161H393.201z"/>
		<path d="M425.273,555.658v-4.471c-2.658,3.262-6.04,4.893-10.147,4.893c-3.624,0-6.665-1.228-9.121-3.684
			c-2.497-2.496-3.745-5.557-3.745-9.182c0-3.623,1.228-6.664,3.685-9.12c2.496-2.496,5.557-3.745,9.181-3.745
			c3.986,0,7.369,1.631,10.147,4.893v-24.281h2.476v44.697H425.273z M422.495,535.846c-2.054-2.053-4.51-3.08-7.369-3.08
			c-2.899,0-5.356,1.008-7.369,3.021c-2.054,2.054-3.081,4.53-3.081,7.429c0,2.859,1.027,5.315,3.081,7.369s4.509,3.08,7.369,3.08
			c2.899,0,5.355-1.006,7.369-3.02c2.053-2.054,3.08-4.53,3.08-7.43C425.575,540.356,424.548,537.9,422.495,535.846z"/>
		<path d="M455.292,552.336c-2.497,2.497-5.557,3.744-9.181,3.744s-6.665-1.228-9.121-3.684c-2.497-2.496-3.745-5.557-3.745-9.182
			c0-3.583,1.248-6.623,3.745-9.12c2.456-2.536,5.497-3.806,9.121-3.806c3.583,0,6.623,1.249,9.12,3.745
			c2.496,2.497,3.745,5.558,3.745,9.181C458.977,546.84,457.748,549.88,455.292,552.336z M453.541,535.786
			c-2.014-2.054-4.491-3.081-7.429-3.081c-2.819,0-5.255,1.049-7.309,3.141c-2.094,2.095-3.141,4.551-3.141,7.369
			c0,2.859,1.027,5.315,3.081,7.369s4.509,3.08,7.369,3.08c2.899,0,5.354-1.006,7.369-3.02c2.054-2.054,3.081-4.53,3.081-7.43
			C456.561,540.276,455.553,537.8,453.541,535.786z"/>
		<path d="M486.639,556.745l-7.792-19.933l-7.912,19.933l-11.174-26.032h2.658l8.396,19.328l8.033-20.113l7.973,20.053l8.335-19.268
			h2.779L486.639,556.745z"/>
		<path d="M500.41,540.92v-2.477h12.744v2.477H500.41z"/>
		<path d="M540.817,552.638c-2.336,2.215-5.295,3.321-8.879,3.321c-2.98,0-5.537-0.824-7.671-2.476
			c-2.053-1.651-3.423-3.966-4.107-6.946h2.658c0.522,1.974,1.67,3.624,3.442,4.953c1.731,1.328,3.624,1.993,5.678,1.993
			c2.658,0,4.932-0.906,6.825-2.718c1.893-1.893,2.839-4.146,2.839-6.766c0-3.262-1.168-5.818-3.503-7.67
			c-1.772-1.41-3.584-2.114-5.436-2.114h-2.537v-3.563h2.537c2.537,0,4.569-0.705,6.1-2.114c1.489-1.368,2.235-3.362,2.235-5.979
			c0-2.496-0.806-4.53-2.416-6.101c-1.611-1.61-3.684-2.416-6.221-2.416c-4.832,0-7.752,2.536-8.758,7.61h-2.839
			c0.362-3.141,1.59-5.597,3.684-7.369c2.093-1.812,4.731-2.718,7.913-2.718c3.301,0,6.06,1.007,8.275,3.021
			c2.214,1.973,3.322,4.631,3.322,7.973c0,5.355-2.698,8.637-8.093,9.846c5.637,1.69,8.456,5.557,8.456,11.596
			C544.321,547.585,543.152,550.463,540.817,552.638z"/>
		<path d="M570.958,533.975c-0.362,0.443-0.906,1.098-1.631,1.963c-0.725,0.865-1.651,1.943-2.778,3.23l-12.382,14.014h20.657v2.477
			H548.73l21.14-24.463c1.691-2.416,2.537-4.932,2.537-7.55c0-2.536-1.007-4.69-3.02-6.463c-2.014-1.731-4.349-2.597-7.006-2.597
			c-3.262,0-5.819,1.047-7.671,3.141c-1.128,1.248-1.913,2.799-2.355,4.65h-2.718c0.281-2.094,1.329-4.168,3.141-6.221
			c2.416-2.658,5.617-3.986,9.604-3.986c3.422,0,6.362,1.066,8.818,3.201c2.456,2.094,3.685,4.853,3.685,8.274
			C574.884,527.148,573.575,530.592,570.958,533.975z"/>
		<path d="M601.098,551.732c-2.86,3.02-6.564,4.529-11.114,4.529c-6.846,0-11.537-3.02-14.073-9.061l2.295-0.905
			c1.167,2.376,2.537,4.147,4.107,5.315c1.973,1.449,4.53,2.174,7.671,2.174c3.745,0,6.825-1.309,9.241-3.926
			c2.416-2.576,3.624-5.777,3.624-9.604c0-3.745-1.35-6.766-4.047-9.061c-2.537-2.174-5.477-3.201-8.818-3.08l-1.933,0.061h-0.906
			c-0.362,0-0.846,0.081-1.45,0.241c-1.369,0-2.799,0.282-4.288,0.846l4.288-16.731h16.55v2.477h-14.617l-2.597,11.114l2.416-0.302
			l2.537-0.182c3.866-0.242,7.369,0.967,10.51,3.624c3.221,2.739,4.832,6.402,4.832,10.993
			C605.326,544.928,603.916,548.752,601.098,551.732z"/>
		<path d="M609.977,549.014v-2.718l10.691-6.523l-10.691-6.523v-2.718l15.161,9.241L609.977,549.014z"/>
	</g>
</g>
</svg>
