<?xml version="1.0" encoding="utf-8"?>
<!-- Generator: Adobe Illustrator 16.0.0, SVG Export Plug-In . SVG Version: 6.00 Build 0)  -->
<!DOCTYPE svg PUBLIC "-//W3C//DTD SVG 1.1//EN" "http://www.w3.org/Graphics/SVG/1.1/DTD/svg11.dtd">
<svg version="1.1" id="Layer_1" xmlns="http://www.w3.org/2000/svg" xmlns:xlink="http://www.w3.org/1999/xlink" x="0px" y="0px"
	 width="1920px" height="1080px" viewBox="0 0 1920 1080" enable-background="new 0 0 1920 1080" xml:space="preserve">
<path fill="#EDEDED" stroke="#000000" stroke-width="0.3624" stroke-miterlimit="10" d="M1061.833,556
	c0,12.758-10.375,23.125-23.148,23.125H882.974c-12.781,0-23.141-10.367-23.141-23.125v-39.422
	c0-12.781,10.359-23.125,23.141-23.125h155.711c12.773,0,23.148,10.344,23.148,23.125V556z"/>
<g>
	<g>
		<path d="M890.199,539.772l15.161-9.241v2.718l-10.752,6.523l10.752,6.523v2.718L890.199,539.772z"/>
		<path d="M933.143,552.336c-2.497,2.497-5.557,3.744-9.181,3.744c-4.148,0-7.571-1.691-10.269-5.073v16.368h-2.477v-36.662h2.477
			v4.711c2.577-3.383,6-5.074,10.269-5.074c3.624,0,6.664,1.229,9.12,3.685c2.496,2.497,3.745,5.558,3.745,9.181
			C936.828,546.84,935.598,549.88,933.143,552.336z M931.331,535.846c-2.053-2.053-4.51-3.08-7.368-3.08
			c-2.899,0-5.356,1.008-7.369,3.021c-2.054,2.054-3.08,4.53-3.08,7.429c0,2.859,1.026,5.315,3.08,7.369s4.51,3.08,7.369,3.08
			c2.899,0,5.354-1.006,7.368-3.02c2.054-2.054,3.081-4.53,3.081-7.43C934.412,540.356,933.384,537.9,931.331,535.846z"/>
		<path d="M954.101,534.396c-0.645-0.482-1.329-0.865-2.054-1.147c-0.725-0.281-1.49-0.423-2.295-0.423
			c-0.686,0-1.329,0.211-1.934,0.635c-0.604,0.422-1.127,0.946-1.57,1.57c-0.443,0.625-0.795,1.319-1.057,2.084
			c-0.263,0.766-0.393,1.47-0.393,2.113v16.43h-2.477v-24.945h2.477v3.382c0.522-0.926,1.208-1.771,2.054-2.536
			c0.846-0.766,1.771-1.148,2.778-1.148c1.248,0,2.274,0.142,3.08,0.423c0.806,0.282,1.711,0.785,2.719,1.511L954.101,534.396z"/>
		<path d="M977.417,552.336c-2.497,2.497-5.557,3.744-9.181,3.744s-6.665-1.228-9.121-3.684c-2.497-2.496-3.744-5.557-3.744-9.182
			c0-3.583,1.247-6.623,3.744-9.12c2.456-2.536,5.497-3.806,9.121-3.806c3.583,0,6.623,1.249,9.12,3.745
			c2.496,2.497,3.745,5.558,3.745,9.181C981.101,546.84,979.873,549.88,977.417,552.336z M975.665,535.786
			c-2.014-2.054-4.49-3.081-7.429-3.081c-2.819,0-5.255,1.049-7.309,3.141c-2.095,2.095-3.141,4.551-3.141,7.369
			c0,2.859,1.026,5.315,3.08,7.369s4.51,3.08,7.369,3.08c2.899,0,5.354-1.006,7.368-3.02c2.054-2.054,3.081-4.53,3.081-7.43
			C978.685,540.276,977.678,537.8,975.665,535.786z"/>
		<path d="M1009.125,552.336c-2.497,2.497-5.557,3.744-9.181,3.744c-4.148,0-7.571-1.691-10.269-5.073v16.368H987.2v-36.662h2.477
			v4.711c2.577-3.383,6-5.074,10.269-5.074c3.624,0,6.664,1.229,9.12,3.685c2.496,2.497,3.745,5.558,3.745,9.181
			C1012.81,546.84,1011.581,549.88,1009.125,552.336z M1007.313,535.846c-2.053-2.053-4.51-3.08-7.368-3.08
			c-2.899,0-5.356,1.008-7.369,3.021c-2.054,2.054-3.08,4.53-3.08,7.429c0,2.859,1.026,5.315,3.08,7.369s4.51,3.08,7.369,3.08
			c2.899,0,5.354-1.006,7.368-3.02c2.054-2.054,3.081-4.53,3.081-7.43C1010.394,540.356,1009.367,537.9,1007.313,535.846z"/>
		<path d="M1017.097,549.014v-2.718l10.691-6.523l-10.691-6.523v-2.718l15.16,9.241L1017.097,549.014z"/>
	</g>
</g>
<path fill="#EDEDED" stroke="#000000" stroke-width="0.3624" stroke-miterlimit="10" d="M1506.333,556
	c0,12.758-10.375,23.125-23.148,23.125h-155.703c-12.781,0-23.148-10.367-23.148-23.125v-39.422
	c0-12.781,10.367-23.125,23.148-23.125h155.703c12.773,0,23.148,10.344,23.148,23.125V556z"/>
<g>
	<g>
		<path d="M1324.917,540.44l15.161-9.241v2.718l-10.752,6.523l10.752,6.523v2.718L1324.917,540.44z"/>
		<path d="M1358.318,554.756c-1.611,1.369-3.544,2.053-5.799,2.053c-3.865,0-6.765-1.752-8.697-5.254l2.113-1.27
			c0.685,1.249,1.511,2.215,2.477,2.9c1.006,0.765,2.376,1.146,4.107,1.146c3.784,0,5.678-1.609,5.678-4.832
			c0-1.408-0.664-2.637-1.993-3.684c-0.403-0.242-0.977-0.514-1.722-0.816c-0.745-0.301-1.661-0.653-2.748-1.057
			c-2.014-0.725-3.464-1.449-4.349-2.174c-1.289-1.047-1.933-2.557-1.933-4.53c0-1.691,0.644-3.142,1.933-4.349
			c1.247-1.248,2.878-1.873,4.893-1.873c2.778,0,5.134,0.967,7.066,2.899l-1.812,1.571c-1.37-1.369-3.121-2.055-5.255-2.055
			c-2.899,0-4.35,1.269-4.35,3.806c0,1.128,0.443,2.054,1.329,2.778c0.725,0.564,1.872,1.107,3.443,1.631
			c1.368,0.483,2.496,0.936,3.382,1.359c0.886,0.422,1.55,0.795,1.993,1.117c1.731,1.328,2.598,3.121,2.598,5.375
			C1360.673,551.675,1359.888,553.426,1358.318,554.756z"/>
		<path d="M1369.793,533.857v22.469h-2.477v-22.469h-3.383v-2.477h3.383v-10.934h2.477v10.934h5.798v2.477H1369.793z"/>
		<path d="M1399.269,556.326v-4.289c-2.618,3.141-5.94,4.711-9.966,4.711c-3.624,0-6.665-1.228-9.121-3.684
			c-2.497-2.496-3.744-5.557-3.744-9.182c0-3.623,1.228-6.664,3.685-9.12c2.496-2.496,5.557-3.745,9.181-3.745
			c3.986,0,7.309,1.57,9.966,4.711v-4.348h2.477v24.945H1399.269z M1396.671,536.514c-2.053-2.053-4.51-3.08-7.368-3.08
			c-2.899,0-5.356,1.008-7.369,3.021c-2.054,2.054-3.08,4.53-3.08,7.429c0,2.859,1.026,5.315,3.08,7.369s4.51,3.08,7.369,3.08
			c2.899,0,5.354-1.006,7.368-3.02c2.054-2.054,3.081-4.53,3.081-7.43C1399.752,541.024,1398.725,538.568,1396.671,536.514z"/>
		<path d="M1412.859,533.857v22.469h-2.477v-22.469H1407v-2.477h3.383v-10.934h2.477v10.934h5.798v2.477H1412.859z"/>
		<path d="M1424.697,543.34c0,3.383,0.906,6.061,2.718,8.033c1.893,2.014,4.489,3.02,7.792,3.02c1.691,0,3.221-0.281,4.59-0.846
			c1.731-0.725,3.282-2.193,4.651-4.408l2.234,1.026c-1.57,2.979-3.986,4.993-7.248,6.04c-1.248,0.402-2.657,0.604-4.228,0.604
			c-3.745,0-6.825-1.228-9.241-3.684c-2.457-2.456-3.685-5.537-3.685-9.242c0-3.744,1.208-6.824,3.624-9.24
			c2.455-2.456,5.557-3.686,9.302-3.686c3.704,0,6.765,1.148,9.181,3.443c2.456,2.295,3.685,5.275,3.685,8.939H1424.697z
			 M1441.73,535.428c-1.894-1.369-4.068-2.055-6.523-2.055c-5.155,0-8.537,2.537-10.147,7.611h20.234
			C1444.89,538.689,1443.702,536.837,1441.73,535.428z"/>
		<path d="M1454.837,556.326v-40.65h-7.309l1.631-2.477h8.154v43.127H1454.837z"/>
		<path d="M1472.715,549.682v-2.718l10.691-6.523l-10.691-6.523v-2.718l15.16,9.241L1472.715,549.682z"/>
	</g>
</g>
<g>
	<g>
		<path d="M1326.051,472.571c-0.299-0.224-0.615-0.401-0.951-0.532c-0.337-0.131-0.691-0.195-1.064-0.195
			c-0.317,0-0.616,0.098-0.896,0.293c-0.28,0.196-0.523,0.439-0.729,0.729c-0.206,0.289-0.369,0.611-0.49,0.966
			s-0.182,0.682-0.182,0.979v7.617h-1.148v-11.564h1.148v1.568c0.242-0.43,0.56-0.822,0.952-1.176
			c0.392-0.355,0.821-0.533,1.288-0.533c0.578,0,1.054,0.066,1.428,0.197c0.373,0.131,0.793,0.363,1.26,0.699L1326.051,472.571z"/>
		<path d="M1338.511,482.428v-2.072c-1.232,1.512-2.8,2.268-4.704,2.268c-1.68,0-3.09-0.568-4.228-1.708
			c-1.158-1.157-1.736-2.575-1.736-4.256s0.569-3.089,1.708-4.228c1.157-1.158,2.576-1.736,4.256-1.736
			c1.848,0,3.416,0.756,4.704,2.268v-11.256h1.147v20.721H1338.511z M1337.223,473.243c-0.952-0.952-2.091-1.428-3.416-1.428
			c-1.344,0-2.482,0.467-3.416,1.399c-0.952,0.953-1.428,2.101-1.428,3.444c0,1.325,0.476,2.464,1.428,3.416
			s2.091,1.429,3.416,1.429c1.344,0,2.482-0.467,3.416-1.4c0.952-0.952,1.428-2.1,1.428-3.444
			C1338.651,475.334,1338.175,474.195,1337.223,473.243z"/>
		<path d="M1347.471,462.855l-0.756-0.084c-1.046,0-1.568,0.615-1.568,1.848v6.244h2.744v1.148h-2.744v10.416H1344v-10.416h-1.568
			v-1.148H1344v-6.58c0-1.773,0.896-2.66,2.688-2.66c0.41,0,0.672,0.02,0.784,0.057c0.224,0,0.476,0.064,0.756,0.195v1.148
			L1347.471,462.855z"/>
		<path d="M1351.167,474.336c-0.205,0-0.42-0.084-0.644-0.253c-0.168-0.168-0.262-0.392-0.28-0.672c0-0.504,0.309-0.812,0.924-0.924
			c0.467,0,0.774,0.308,0.925,0.924C1352.091,474.027,1351.783,474.336,1351.167,474.336z M1351.167,482.596
			c-0.205,0-0.42-0.084-0.644-0.252c-0.168-0.168-0.262-0.393-0.28-0.672c0-0.504,0.309-0.813,0.924-0.925
			c0.467,0,0.774,0.308,0.925,0.925C1352.091,482.287,1351.783,482.596,1351.167,482.596z"/>
		<path d="M1356.963,472.012v10.416h-1.148v-10.416h-1.567v-1.148h1.567v-5.068h1.148v5.068h2.688v1.148H1356.963z"/>
		<path d="M1364.328,487.859h-1.288l2.996-6.496l-4.872-10.5h1.231l4.313,9.128l4.256-9.128h1.26L1364.328,487.859z"/>
		<path d="M1384.795,480.887c-1.157,1.158-2.576,1.736-4.256,1.736c-1.923,0-3.51-0.783-4.76-2.352v7.588h-1.148v-16.996h1.148
			v2.184c1.194-1.568,2.78-2.352,4.76-2.352c1.68,0,3.089,0.569,4.228,1.708c1.157,1.157,1.736,2.575,1.736,4.256
			S1385.934,479.749,1384.795,480.887z M1383.956,473.243c-0.952-0.952-2.091-1.428-3.416-1.428c-1.344,0-2.483,0.467-3.416,1.399
			c-0.952,0.953-1.428,2.101-1.428,3.444c0,1.325,0.476,2.464,1.428,3.416s2.09,1.429,3.416,1.429c1.344,0,2.482-0.467,3.416-1.4
			c0.952-0.952,1.428-2.1,1.428-3.444C1385.383,475.334,1384.908,474.195,1383.956,473.243z"/>
		<path d="M1389.275,476.407c0,1.567,0.42,2.81,1.26,3.724c0.877,0.934,2.081,1.4,3.612,1.4c0.783,0,1.493-0.131,2.128-0.393
			c0.802-0.336,1.521-1.017,2.155-2.043l1.036,0.476c-0.728,1.382-1.848,2.315-3.359,2.8c-0.579,0.187-1.232,0.28-1.96,0.28
			c-1.736,0-3.164-0.569-4.284-1.708c-1.139-1.139-1.708-2.566-1.708-4.284c0-1.735,0.56-3.164,1.68-4.284
			c1.139-1.139,2.576-1.707,4.313-1.707c1.717,0,3.136,0.531,4.256,1.596c1.138,1.063,1.708,2.445,1.708,4.144H1389.275z
			 M1397.17,472.739c-0.877-0.634-1.886-0.952-3.023-0.952c-2.39,0-3.958,1.176-4.704,3.528h9.38
			C1398.636,474.252,1398.085,473.393,1397.17,472.739z"/>
	</g>
</g>
<g>
	<g>
		<path d="M879.934,472.571c-0.299-0.224-0.615-0.401-0.951-0.532c-0.337-0.131-0.691-0.195-1.064-0.195
			c-0.317,0-0.616,0.098-0.896,0.293c-0.28,0.196-0.523,0.439-0.729,0.729c-0.206,0.289-0.369,0.611-0.49,0.966
			s-0.182,0.682-0.182,0.979v7.617h-1.148v-11.564h1.148v1.568c0.242-0.43,0.56-0.822,0.952-1.176
			c0.392-0.355,0.821-0.533,1.288-0.533c0.578,0,1.054,0.066,1.428,0.197c0.373,0.131,0.793,0.363,1.26,0.699L879.934,472.571z"/>
		<path d="M892.394,482.428v-2.072c-1.232,1.512-2.8,2.268-4.704,2.268c-1.68,0-3.09-0.568-4.228-1.708
			c-1.158-1.157-1.736-2.575-1.736-4.256s0.569-3.089,1.708-4.228c1.157-1.158,2.576-1.736,4.256-1.736
			c1.848,0,3.416,0.756,4.704,2.268v-11.256h1.147v20.721H892.394z M891.106,473.243c-0.952-0.952-2.091-1.428-3.416-1.428
			c-1.344,0-2.482,0.467-3.416,1.399c-0.952,0.953-1.428,2.101-1.428,3.444c0,1.325,0.476,2.464,1.428,3.416
			s2.091,1.429,3.416,1.429c1.344,0,2.482-0.467,3.416-1.4c0.952-0.952,1.428-2.1,1.428-3.444
			C892.534,475.334,892.058,474.195,891.106,473.243z"/>
		<path d="M901.354,462.855l-0.756-0.084c-1.046,0-1.568,0.615-1.568,1.848v6.244h2.744v1.148h-2.744v10.416h-1.147v-10.416h-1.568
			v-1.148h1.568v-6.58c0-1.773,0.896-2.66,2.688-2.66c0.41,0,0.672,0.02,0.784,0.057c0.224,0,0.476,0.064,0.756,0.195v1.148
			L901.354,462.855z"/>
		<path d="M905.049,474.336c-0.205,0-0.42-0.084-0.644-0.253c-0.168-0.168-0.262-0.392-0.28-0.672c0-0.504,0.309-0.812,0.924-0.924
			c0.467,0,0.774,0.308,0.925,0.924C905.974,474.027,905.666,474.336,905.049,474.336z M905.049,482.596
			c-0.205,0-0.42-0.084-0.644-0.252c-0.168-0.168-0.262-0.393-0.28-0.672c0-0.504,0.309-0.813,0.924-0.925
			c0.467,0,0.774,0.308,0.925,0.925C905.974,482.287,905.666,482.596,905.049,482.596z"/>
		<path d="M910.846,472.012v10.416h-1.148v-10.416h-1.567v-1.148h1.567v-5.068h1.148v5.068h2.688v1.148H910.846z"/>
		<path d="M918.21,487.859h-1.288l2.996-6.496l-4.872-10.5h1.231l4.313,9.128l4.256-9.128h1.26L918.21,487.859z"/>
		<path d="M938.678,480.887c-1.157,1.158-2.576,1.736-4.256,1.736c-1.923,0-3.51-0.783-4.76-2.352v7.588h-1.148v-16.996h1.148v2.184
			c1.194-1.568,2.78-2.352,4.76-2.352c1.68,0,3.089,0.569,4.228,1.708c1.157,1.157,1.736,2.575,1.736,4.256
			S939.817,479.749,938.678,480.887z M937.838,473.243c-0.952-0.952-2.091-1.428-3.416-1.428c-1.344,0-2.483,0.467-3.416,1.399
			c-0.952,0.953-1.428,2.101-1.428,3.444c0,1.325,0.476,2.464,1.428,3.416s2.09,1.429,3.416,1.429c1.344,0,2.482-0.467,3.416-1.4
			c0.952-0.952,1.428-2.1,1.428-3.444C939.266,475.334,938.791,474.195,937.838,473.243z"/>
		<path d="M943.158,476.407c0,1.567,0.42,2.81,1.26,3.724c0.877,0.934,2.081,1.4,3.612,1.4c0.783,0,1.493-0.131,2.128-0.393
			c0.802-0.336,1.521-1.017,2.155-2.043l1.036,0.476c-0.728,1.382-1.848,2.315-3.359,2.8c-0.579,0.187-1.232,0.28-1.96,0.28
			c-1.736,0-3.164-0.569-4.284-1.708c-1.139-1.139-1.708-2.566-1.708-4.284c0-1.735,0.56-3.164,1.68-4.284
			c1.139-1.139,2.576-1.707,4.313-1.707c1.717,0,3.136,0.531,4.256,1.596c1.138,1.063,1.708,2.445,1.708,4.144H943.158z
			 M951.053,472.739c-0.877-0.634-1.886-0.952-3.023-0.952c-2.39,0-3.958,1.176-4.704,3.528h9.38
			C952.519,474.252,951.968,473.393,951.053,472.739z"/>
	</g>
</g>
<g>
	<g>
		<path d="M1423.317,627.402c-1.157,1.158-2.576,1.736-4.256,1.736c-1.923,0-3.51-0.783-4.76-2.352v7.588h-1.148v-16.996h1.148
			v2.184c1.194-1.568,2.78-2.352,4.76-2.352c1.68,0,3.089,0.57,4.228,1.707c1.157,1.158,1.736,2.576,1.736,4.258
			C1425.025,624.855,1424.456,626.264,1423.317,627.402z M1422.477,619.76c-0.952-0.953-2.091-1.43-3.416-1.43
			c-1.344,0-2.483,0.467-3.416,1.4c-0.952,0.953-1.428,2.1-1.428,3.445c0,1.324,0.476,2.463,1.428,3.416
			c0.952,0.951,2.09,1.428,3.416,1.428c1.344,0,2.482-0.467,3.416-1.4c0.952-0.953,1.428-2.1,1.428-3.443
			C1423.905,621.85,1423.429,620.711,1422.477,619.76z"/>
		<path d="M1433.032,619.086c-0.299-0.223-0.615-0.4-0.951-0.531c-0.337-0.131-0.691-0.195-1.064-0.195
			c-0.317,0-0.616,0.098-0.896,0.293c-0.28,0.197-0.523,0.439-0.729,0.729c-0.206,0.289-0.369,0.611-0.49,0.967
			c-0.121,0.354-0.182,0.682-0.182,0.979v7.617h-1.148v-11.564h1.148v1.568c0.242-0.43,0.56-0.822,0.952-1.176
			c0.392-0.355,0.821-0.533,1.288-0.533c0.578,0,1.054,0.066,1.428,0.197c0.373,0.131,0.793,0.363,1.26,0.699L1433.032,619.086z"/>
		<path d="M1443.841,627.402c-1.158,1.158-2.576,1.736-4.256,1.736c-1.681,0-3.09-0.568-4.229-1.707
			c-1.157-1.158-1.735-2.576-1.735-4.256c0-1.662,0.578-3.07,1.735-4.229c1.139-1.176,2.548-1.764,4.229-1.764
			c1.661,0,3.07,0.578,4.228,1.734c1.157,1.158,1.736,2.576,1.736,4.258C1445.549,624.855,1444.979,626.264,1443.841,627.402z
			 M1443.029,619.73c-0.934-0.951-2.081-1.428-3.443-1.428c-1.308,0-2.437,0.486-3.389,1.457c-0.971,0.971-1.456,2.109-1.456,3.416
			c0,1.324,0.477,2.463,1.429,3.416c0.952,0.951,2.09,1.428,3.416,1.428c1.344,0,2.482-0.467,3.416-1.4
			c0.951-0.953,1.428-2.1,1.428-3.443C1444.429,621.813,1443.962,620.664,1443.029,619.73z"/>
		<path d="M1451.289,629.447l-5.46-12.068h1.232l4.2,9.213l4.228-9.213h1.288L1451.289,629.447z"/>
		<path d="M1459.604,620.852c-0.205,0-0.42-0.084-0.644-0.252c-0.168-0.168-0.262-0.393-0.28-0.672c0-0.504,0.309-0.813,0.924-0.926
			c0.467,0,0.774,0.309,0.925,0.926C1460.529,620.543,1460.22,620.852,1459.604,620.852z M1459.604,629.111
			c-0.205,0-0.42-0.084-0.644-0.252c-0.168-0.168-0.262-0.393-0.28-0.672c0-0.504,0.309-0.813,0.924-0.924
			c0.467,0,0.774,0.307,0.925,0.924C1460.529,628.803,1460.22,629.111,1459.604,629.111z"/>
		<path d="M1472.96,632.807c-1.045,1.045-2.417,1.568-4.115,1.568c-3.155,0-5.04-1.242-5.656-3.725h1.147
			c0.206,0.914,0.794,1.596,1.765,2.045c0.765,0.354,1.68,0.531,2.744,0.531c1.437,0,2.548-0.4,3.332-1.203
			c0.802-0.803,1.204-1.924,1.204-3.361v-1.707c-1.214,1.455-2.754,2.184-4.62,2.184c-1.681,0-3.09-0.568-4.229-1.707
			c-1.157-1.158-1.735-2.576-1.735-4.256c0-1.682,0.568-3.09,1.708-4.229c1.156-1.158,2.575-1.736,4.256-1.736
			c1.848,0,3.388,0.729,4.62,2.184v-2.016h1.147v11.313C1474.529,630.389,1474.006,631.762,1472.96,632.807z M1472.177,619.76
			c-0.952-0.953-2.091-1.43-3.416-1.43c-1.345,0-2.483,0.467-3.416,1.4c-0.952,0.953-1.429,2.1-1.429,3.445
			c0,1.324,0.477,2.463,1.429,3.416c0.952,0.951,2.09,1.428,3.416,1.428c1.344,0,2.482-0.467,3.416-1.4
			c0.951-0.953,1.428-2.1,1.428-3.443C1473.605,621.85,1473.128,620.711,1472.177,619.76z"/>
		<path d="M1478.168,622.924c0,1.566,0.42,2.809,1.26,3.723c0.877,0.934,2.081,1.4,3.612,1.4c0.783,0,1.493-0.131,2.128-0.393
			c0.802-0.336,1.521-1.018,2.155-2.043l1.036,0.475c-0.728,1.383-1.848,2.316-3.359,2.801c-0.579,0.188-1.232,0.279-1.96,0.279
			c-1.736,0-3.164-0.568-4.284-1.707c-1.139-1.139-1.708-2.566-1.708-4.283c0-1.736,0.56-3.164,1.68-4.285
			c1.139-1.139,2.576-1.707,4.313-1.707c1.717,0,3.136,0.531,4.256,1.596c1.138,1.064,1.708,2.445,1.708,4.145H1478.168z
			 M1486.064,619.254c-0.877-0.633-1.886-0.951-3.023-0.951c-2.39,0-3.958,1.176-4.704,3.527h9.38
			C1487.53,620.768,1486.979,619.908,1486.064,619.254z"/>
		<path d="M1499.448,628.943v-6.916c0-2.445-1.102-3.668-3.304-3.668c-1.083,0-1.904,0.316-2.464,0.951
			c-0.579,0.635-0.868,1.504-0.868,2.604v7.029h-1.148v-11.564h1.148v1.4c0.522-1.027,1.633-1.541,3.332-1.541
			c1.438,0,2.538,0.412,3.304,1.232c0.766,0.822,1.148,1.971,1.148,3.443v7.029H1499.448z"/>
		<path d="M1504.516,622.924c0,1.566,0.42,2.809,1.26,3.723c0.877,0.934,2.081,1.4,3.612,1.4c0.783,0,1.493-0.131,2.128-0.393
			c0.802-0.336,1.521-1.018,2.155-2.043l1.036,0.475c-0.728,1.383-1.848,2.316-3.359,2.801c-0.579,0.188-1.232,0.279-1.96,0.279
			c-1.736,0-3.164-0.568-4.284-1.707c-1.139-1.139-1.708-2.566-1.708-4.283c0-1.736,0.56-3.164,1.68-4.285
			c1.139-1.139,2.576-1.707,4.313-1.707c1.717,0,3.136,0.531,4.256,1.596c1.138,1.064,1.708,2.445,1.708,4.145H1504.516z
			 M1512.412,619.254c-0.877-0.633-1.886-0.951-3.023-0.951c-2.39,0-3.958,1.176-4.704,3.527h9.38
			C1513.877,620.768,1513.327,619.908,1512.412,619.254z"/>
		<path d="M1523.471,619.086c-0.299-0.223-0.615-0.4-0.951-0.531c-0.337-0.131-0.691-0.195-1.064-0.195
			c-0.317,0-0.616,0.098-0.896,0.293c-0.28,0.197-0.523,0.439-0.729,0.729c-0.206,0.289-0.369,0.611-0.49,0.967
			c-0.121,0.354-0.182,0.682-0.182,0.979v7.617h-1.148v-11.564h1.148v1.568c0.242-0.43,0.56-0.822,0.952-1.176
			c0.392-0.355,0.821-0.533,1.288-0.533c0.578,0,1.054,0.066,1.428,0.197c0.373,0.131,0.793,0.363,1.26,0.699L1523.471,619.086z"/>
		<path d="M1535.848,628.943v-1.988c-1.214,1.455-2.754,2.184-4.62,2.184c-1.681,0-3.09-0.568-4.229-1.707
			c-1.157-1.158-1.735-2.576-1.735-4.256c0-1.682,0.568-3.09,1.708-4.229c1.156-1.158,2.575-1.736,4.256-1.736
			c1.848,0,3.388,0.729,4.62,2.184v-2.016h1.147v11.564H1535.848z M1534.644,619.76c-0.952-0.953-2.091-1.43-3.416-1.43
			c-1.345,0-2.483,0.467-3.416,1.4c-0.952,0.953-1.429,2.1-1.429,3.445c0,1.324,0.477,2.463,1.429,3.416
			c0.952,0.951,2.09,1.428,3.416,1.428c1.344,0,2.482-0.467,3.416-1.4c0.951-0.953,1.428-2.1,1.428-3.443
			C1536.072,621.85,1535.595,620.711,1534.644,619.76z"/>
		<path d="M1542.148,618.527v10.416H1541v-10.416h-1.567v-1.148H1541v-5.068h1.148v5.068h2.688v1.148H1542.148z"/>
		<path d="M1547.636,622.924c0,1.566,0.42,2.809,1.26,3.723c0.877,0.934,2.081,1.4,3.612,1.4c0.783,0,1.493-0.131,2.128-0.393
			c0.802-0.336,1.521-1.018,2.155-2.043l1.036,0.475c-0.728,1.383-1.848,2.316-3.359,2.801c-0.579,0.188-1.232,0.279-1.96,0.279
			c-1.736,0-3.164-0.568-4.284-1.707c-1.139-1.139-1.708-2.566-1.708-4.283c0-1.736,0.56-3.164,1.68-4.285
			c1.139-1.139,2.576-1.707,4.313-1.707c1.717,0,3.136,0.531,4.256,1.596c1.138,1.064,1.708,2.445,1.708,4.145H1547.636z
			 M1555.532,619.254c-0.877-0.633-1.886-0.951-3.023-0.951c-2.39,0-3.958,1.176-4.704,3.527h9.38
			C1556.998,620.768,1556.447,619.908,1555.532,619.254z"/>
		<path d="M1571.156,628.943v-2.072c-1.232,1.512-2.8,2.268-4.704,2.268c-1.68,0-3.09-0.568-4.228-1.707
			c-1.158-1.158-1.736-2.576-1.736-4.256c0-1.682,0.569-3.09,1.708-4.229c1.157-1.158,2.576-1.736,4.256-1.736
			c1.848,0,3.416,0.756,4.704,2.268v-11.256h1.147v20.721H1571.156z M1569.868,619.76c-0.952-0.953-2.091-1.43-3.416-1.43
			c-1.344,0-2.482,0.467-3.416,1.4c-0.952,0.953-1.428,2.1-1.428,3.445c0,1.324,0.476,2.463,1.428,3.416
			c0.952,0.951,2.091,1.428,3.416,1.428c1.344,0,2.482-0.467,3.416-1.4c0.952-0.953,1.428-2.1,1.428-3.443
			C1571.295,621.85,1570.82,620.711,1569.868,619.76z"/>
		<path d="M1589.58,628.943l-2.296-5.992h-9.101l-2.323,5.992h-1.12l7.979-20.637l8.009,20.637H1589.58z M1582.719,611.219
			l-4.088,10.584h8.176L1582.719,611.219z"/>
		<path d="M1593.751,618.527v10.416h-1.148v-10.416h-1.567v-1.148h1.567v-5.068h1.148v5.068h2.688v1.148H1593.751z"/>
		<path d="M1600.807,610.1v18.844h-1.148V610.1h-4.424v-1.148h9.996v1.148H1600.807z"/>
		<path d="M1605.343,615.307c-0.205,0-0.42-0.084-0.644-0.252c-0.168-0.168-0.262-0.393-0.28-0.672c0-0.504,0.308-0.813,0.924-0.924
			c0.467,0,0.774,0.309,0.924,0.924C1606.267,614.998,1605.959,615.307,1605.343,615.307z M1604.755,628.943v-11.564h1.148v11.564
			H1604.755z"/>
		<path d="M1621.527,628.943v-7.98c0-0.709-0.233-1.326-0.7-1.848c-0.467-0.523-1.139-0.785-2.016-0.785
			c-1.811,0-2.716,0.879-2.716,2.633v7.98h-1.148v-7.98c0-0.783-0.262-1.41-0.784-1.877c-0.541-0.504-1.186-0.756-1.932-0.756
			c-0.766,0-1.409,0.244-1.932,0.729c-0.523,0.467-0.784,1.102-0.784,1.904v7.98h-1.148v-11.564h1.148v1.148
			c0.56-0.877,1.465-1.316,2.716-1.316c1.493,0,2.595,0.607,3.304,1.82c0.673-1.213,1.765-1.82,3.276-1.82
			c1.157,0,2.091,0.326,2.8,0.98c0.709,0.672,1.064,1.596,1.064,2.771v7.98H1621.527z"/>
		<path d="M1626.595,622.924c0,1.566,0.42,2.809,1.26,3.723c0.877,0.934,2.081,1.4,3.612,1.4c0.783,0,1.493-0.131,2.128-0.393
			c0.802-0.336,1.521-1.018,2.155-2.043l1.036,0.475c-0.728,1.383-1.848,2.316-3.359,2.801c-0.579,0.188-1.232,0.279-1.96,0.279
			c-1.736,0-3.164-0.568-4.284-1.707c-1.139-1.139-1.708-2.566-1.708-4.283c0-1.736,0.56-3.164,1.68-4.285
			c1.139-1.139,2.576-1.707,4.313-1.707c1.717,0,3.136,0.531,4.256,1.596c1.138,1.064,1.708,2.445,1.708,4.145H1626.595z
			 M1634.491,619.254c-0.877-0.633-1.886-0.951-3.023-0.951c-2.39,0-3.958,1.176-4.704,3.527h9.38
			C1635.957,620.768,1635.406,619.908,1634.491,619.254z"/>
	</g>
</g>
<g>
	<g>
		<path d="M1583.353,524.989c-0.299-0.224-0.615-0.401-0.951-0.532c-0.337-0.131-0.691-0.195-1.064-0.195
			c-0.317,0-0.616,0.098-0.896,0.293c-0.28,0.196-0.523,0.439-0.729,0.729c-0.206,0.289-0.369,0.611-0.49,0.966
			s-0.182,0.682-0.182,0.979v7.617h-1.148v-11.564h1.148v1.568c0.242-0.43,0.56-0.822,0.952-1.176
			c0.392-0.355,0.821-0.533,1.288-0.533c0.578,0,1.054,0.066,1.428,0.197c0.373,0.131,0.793,0.363,1.26,0.699L1583.353,524.989z"/>
		<path d="M1595.813,534.846v-2.072c-1.232,1.512-2.8,2.268-4.704,2.268c-1.68,0-3.09-0.568-4.228-1.708
			c-1.158-1.157-1.736-2.575-1.736-4.256s0.569-3.089,1.708-4.228c1.157-1.158,2.576-1.736,4.256-1.736
			c1.848,0,3.416,0.756,4.704,2.268v-11.256h1.147v20.721H1595.813z M1594.525,525.661c-0.952-0.952-2.091-1.428-3.416-1.428
			c-1.344,0-2.482,0.467-3.416,1.399c-0.952,0.953-1.428,2.101-1.428,3.444c0,1.325,0.476,2.464,1.428,3.416
			s2.091,1.429,3.416,1.429c1.344,0,2.482-0.467,3.416-1.4c0.952-0.952,1.428-2.1,1.428-3.444
			C1595.953,527.752,1595.477,526.613,1594.525,525.661z"/>
		<path d="M1604.773,515.273l-0.756-0.084c-1.046,0-1.568,0.615-1.568,1.848v6.244h2.744v1.148h-2.744v10.416h-1.147V524.43h-1.568
			v-1.148h1.568v-6.58c0-1.773,0.896-2.66,2.688-2.66c0.41,0,0.672,0.02,0.784,0.057c0.224,0,0.476,0.064,0.756,0.195v1.148
			L1604.773,515.273z"/>
		<path d="M1608.468,526.754c-0.205,0-0.42-0.084-0.644-0.253c-0.168-0.168-0.262-0.392-0.28-0.672c0-0.504,0.309-0.812,0.924-0.924
			c0.467,0,0.774,0.308,0.925,0.924C1609.393,526.445,1609.084,526.754,1608.468,526.754z M1608.468,535.014
			c-0.205,0-0.42-0.084-0.644-0.252c-0.168-0.168-0.262-0.393-0.28-0.672c0-0.504,0.309-0.813,0.924-0.925
			c0.467,0,0.774,0.308,0.925,0.925C1609.393,534.705,1609.084,535.014,1608.468,535.014z"/>
		<path d="M1614.265,524.43v10.416h-1.148V524.43h-1.567v-1.148h1.567v-5.068h1.148v5.068h2.688v1.148H1614.265z"/>
		<path d="M1621.629,540.277h-1.288l2.996-6.496l-4.872-10.5h1.231l4.313,9.128l4.256-9.128h1.26L1621.629,540.277z"/>
		<path d="M1642.097,533.305c-1.157,1.158-2.576,1.736-4.256,1.736c-1.923,0-3.51-0.783-4.76-2.352v7.588h-1.148v-16.996h1.148
			v2.184c1.194-1.568,2.78-2.352,4.76-2.352c1.68,0,3.089,0.569,4.228,1.708c1.157,1.157,1.736,2.575,1.736,4.256
			S1643.236,532.167,1642.097,533.305z M1641.257,525.661c-0.952-0.952-2.091-1.428-3.416-1.428c-1.344,0-2.483,0.467-3.416,1.399
			c-0.952,0.953-1.428,2.101-1.428,3.444c0,1.325,0.476,2.464,1.428,3.416s2.09,1.429,3.416,1.429c1.344,0,2.482-0.467,3.416-1.4
			c0.952-0.952,1.428-2.1,1.428-3.444C1642.685,527.752,1642.209,526.613,1641.257,525.661z"/>
		<path d="M1646.577,528.825c0,1.567,0.42,2.81,1.26,3.724c0.877,0.934,2.081,1.4,3.612,1.4c0.783,0,1.493-0.131,2.128-0.393
			c0.802-0.336,1.521-1.017,2.155-2.043l1.036,0.476c-0.728,1.382-1.848,2.315-3.359,2.8c-0.579,0.187-1.232,0.28-1.96,0.28
			c-1.736,0-3.164-0.569-4.284-1.708c-1.139-1.139-1.708-2.566-1.708-4.284c0-1.735,0.56-3.164,1.68-4.284
			c1.139-1.139,2.576-1.707,4.313-1.707c1.717,0,3.136,0.531,4.256,1.596c1.138,1.063,1.708,2.445,1.708,4.144H1646.577z
			 M1654.472,525.157c-0.877-0.634-1.886-0.952-3.023-0.952c-2.39,0-3.958,1.176-4.704,3.528h9.38
			C1655.938,526.67,1655.387,525.811,1654.472,525.157z"/>
	</g>
</g>
<g>
	<g>
		<path d="M1207.382,603.293c-0.747,0.635-1.643,0.951-2.688,0.951c-1.792,0-3.136-0.811-4.032-2.436l0.98-0.588
			c0.317,0.58,0.7,1.027,1.148,1.344c0.466,0.355,1.101,0.533,1.903,0.533c1.755,0,2.632-0.746,2.632-2.24
			c0-0.654-0.308-1.223-0.924-1.709c-0.187-0.111-0.452-0.238-0.798-0.377c-0.346-0.141-0.77-0.303-1.273-0.49
			c-0.935-0.336-1.606-0.672-2.017-1.008c-0.598-0.486-0.896-1.186-0.896-2.1c0-0.785,0.298-1.457,0.896-2.018
			c0.578-0.578,1.335-0.867,2.269-0.867c1.287,0,2.38,0.447,3.275,1.344l-0.84,0.729c-0.635-0.635-1.447-0.953-2.436-0.953
			c-1.345,0-2.017,0.588-2.017,1.766c0,0.521,0.205,0.951,0.616,1.287c0.336,0.262,0.868,0.514,1.596,0.756
			c0.635,0.225,1.157,0.434,1.568,0.631c0.41,0.195,0.719,0.367,0.924,0.518c0.803,0.615,1.204,1.447,1.204,2.492
			C1208.474,601.865,1208.11,602.678,1207.382,603.293z"/>
		<path d="M1216.425,604.244c-1.717,0-3.146-0.568-4.283-1.707c-1.14-1.139-1.708-2.566-1.708-4.283
			c0-1.719,0.568-3.146,1.708-4.285c1.138-1.139,2.566-1.707,4.283-1.707c1.475,0,2.65,0.336,3.528,1.008v1.371l-0.728-0.477
			l-0.784-0.42c-0.71-0.242-1.382-0.363-2.017-0.363c-1.438,0-2.604,0.447-3.5,1.344c-0.914,0.916-1.372,2.092-1.372,3.529
			c0,1.418,0.458,2.584,1.372,3.5c0.915,0.914,2.082,1.371,3.5,1.371c1.345,0,2.521-0.447,3.528-1.344v1.428
			C1218.908,603.9,1217.732,604.244,1216.425,604.244z"/>
		<path d="M1230.734,604.049v-6.973c0-2.445-1.139-3.668-3.416-3.668c-0.934,0-1.736,0.281-2.408,0.84
			c-0.69,0.561-1.036,1.309-1.036,2.24v7.533h-1.147v-20.721h1.147v10.695c0.69-1.137,1.839-1.707,3.444-1.707
			c3.042,0,4.563,1.559,4.563,4.676v7.084H1230.734z"/>
		<path d="M1235.494,598.002c0,1.566,0.42,2.809,1.26,3.723c0.877,0.934,2.081,1.4,3.612,1.4c0.783,0,1.493-0.131,2.128-0.393
			c0.802-0.336,1.521-1.018,2.155-2.043l1.036,0.475c-0.728,1.383-1.848,2.316-3.359,2.801c-0.579,0.188-1.232,0.279-1.96,0.279
			c-1.736,0-3.164-0.568-4.284-1.707c-1.139-1.139-1.708-2.566-1.708-4.283c0-1.736,0.56-3.164,1.68-4.285
			c1.139-1.139,2.576-1.707,4.313-1.707c1.717,0,3.136,0.531,4.256,1.596c1.138,1.064,1.708,2.445,1.708,4.145H1235.494z
			 M1243.389,594.332c-0.877-0.633-1.886-0.951-3.023-0.951c-2.39,0-3.958,1.176-4.704,3.527h9.38
			C1244.855,595.846,1244.304,594.986,1243.389,594.332z"/>
		<path d="M1262.149,604.021v-7.98c0-0.709-0.233-1.326-0.7-1.848c-0.467-0.523-1.139-0.785-2.016-0.785
			c-1.811,0-2.716,0.879-2.716,2.633v7.98h-1.148v-7.98c0-0.783-0.262-1.41-0.784-1.877c-0.541-0.504-1.186-0.756-1.932-0.756
			c-0.766,0-1.409,0.244-1.932,0.729c-0.523,0.467-0.784,1.102-0.784,1.904v7.98h-1.148v-11.564h1.148v1.148
			c0.56-0.877,1.465-1.316,2.716-1.316c1.493,0,2.595,0.607,3.304,1.82c0.673-1.213,1.765-1.82,3.276-1.82
			c1.157,0,2.091,0.326,2.8,0.98c0.709,0.672,1.064,1.596,1.064,2.771v7.98H1262.149z"/>
		<path d="M1276.709,604.021v-1.988c-1.214,1.455-2.754,2.184-4.62,2.184c-1.681,0-3.09-0.568-4.229-1.707
			c-1.157-1.158-1.735-2.576-1.735-4.256c0-1.682,0.568-3.09,1.708-4.229c1.156-1.158,2.575-1.736,4.256-1.736
			c1.848,0,3.388,0.729,4.62,2.184v-2.016h1.147v11.564H1276.709z M1275.505,594.838c-0.952-0.953-2.091-1.43-3.416-1.43
			c-1.345,0-2.483,0.467-3.416,1.4c-0.952,0.953-1.429,2.1-1.429,3.445c0,1.324,0.477,2.463,1.429,3.416
			c0.952,0.951,2.09,1.428,3.416,1.428c1.344,0,2.482-0.467,3.416-1.4c0.951-0.953,1.428-2.1,1.428-3.443
			C1276.933,596.928,1276.457,595.789,1275.505,594.838z"/>
		<path d="M1281.777,595.93c-0.205,0-0.42-0.084-0.644-0.252c-0.168-0.168-0.262-0.393-0.28-0.672c0-0.504,0.309-0.813,0.924-0.926
			c0.467,0,0.774,0.309,0.925,0.926C1282.702,595.621,1282.393,595.93,1281.777,595.93z M1281.777,604.189
			c-0.205,0-0.42-0.084-0.644-0.252c-0.168-0.168-0.262-0.393-0.28-0.672c0-0.504,0.309-0.813,0.924-0.924
			c0.467,0,0.774,0.307,0.925,0.924C1282.702,603.881,1282.393,604.189,1281.777,604.189z"/>
		<path d="M1290.205,604.525l-5.46-12.068h1.232l4.2,9.213l4.228-9.213h1.288L1290.205,604.525z"/>
		<path d="M1307.733,604.021v-1.988c-1.214,1.455-2.754,2.184-4.62,2.184c-1.681,0-3.09-0.568-4.229-1.707
			c-1.157-1.158-1.735-2.576-1.735-4.256c0-1.682,0.568-3.09,1.708-4.229c1.156-1.158,2.575-1.736,4.256-1.736
			c1.848,0,3.388,0.729,4.62,2.184v-2.016h1.147v11.564H1307.733z M1306.529,594.838c-0.952-0.953-2.091-1.43-3.416-1.43
			c-1.345,0-2.483,0.467-3.416,1.4c-0.952,0.953-1.429,2.1-1.429,3.445c0,1.324,0.477,2.463,1.429,3.416
			c0.952,0.951,2.09,1.428,3.416,1.428c1.344,0,2.482-0.467,3.416-1.4c0.951-0.953,1.428-2.1,1.428-3.443
			C1307.957,596.928,1307.48,595.789,1306.529,594.838z"/>
		<path d="M1312.605,604.021v-20.721h1.12v20.721H1312.605z"/>
		<path d="M1323.665,603.014c-0.766,0.82-1.839,1.23-3.22,1.23c-1.363,0-2.418-0.4-3.164-1.203c-0.747-0.803-1.12-1.922-1.12-3.359
			v-7.225h1.148v7.225c0,1.102,0.242,1.949,0.728,2.547c0.504,0.598,1.307,0.896,2.408,0.896c2.146,0,3.22-1.148,3.22-3.443v-7.225
			h1.12v7.225C1324.785,601.1,1324.411,602.211,1323.665,603.014z"/>
		<path d="M1328.537,598.002c0,1.566,0.42,2.809,1.26,3.723c0.877,0.934,2.081,1.4,3.612,1.4c0.783,0,1.493-0.131,2.128-0.393
			c0.802-0.336,1.521-1.018,2.155-2.043l1.036,0.475c-0.728,1.383-1.848,2.316-3.359,2.801c-0.579,0.188-1.232,0.279-1.96,0.279
			c-1.736,0-3.164-0.568-4.284-1.707c-1.139-1.139-1.708-2.566-1.708-4.283c0-1.736,0.56-3.164,1.68-4.285
			c1.139-1.139,2.576-1.707,4.313-1.707c1.717,0,3.136,0.531,4.256,1.596c1.138,1.064,1.708,2.445,1.708,4.145H1328.537z
			 M1336.432,594.332c-0.877-0.633-1.886-0.951-3.023-0.951c-2.39,0-3.958,1.176-4.704,3.527h9.38
			C1337.898,595.846,1337.347,594.986,1336.432,594.332z"/>
	</g>
</g>
<g>
	<g>
		<path fill="none" stroke="#000000" stroke-width="0.8" stroke-miterlimit="10" d="M1056.044,501.668
			c104.825-58.367,209.645-18.17,239.735-4.242"/>
		<g>
			<polygon points="1289.113,500.836 1293.972,496.613 1294.307,490.186 1304.333,501.668 			"/>
		</g>
	</g>
</g>
<g>
	<g>
		<path d="M1063.258,458.742c-1.323,1.322-2.943,1.983-4.864,1.983c-1.92,0-3.53-0.65-4.832-1.952
			c-1.322-1.322-1.983-2.943-1.983-4.863c0-1.899,0.661-3.51,1.983-4.832c1.302-1.345,2.912-2.017,4.832-2.017
			c1.899,0,3.51,0.661,4.832,1.983c1.323,1.324,1.984,2.944,1.984,4.865C1065.21,455.83,1064.559,457.44,1063.258,458.742z
			 M1062.331,449.974c-1.067-1.089-2.379-1.632-3.937-1.632c-1.493,0-2.783,0.555-3.871,1.664c-1.11,1.109-1.664,2.41-1.664,3.904
			c0,1.514,0.544,2.815,1.632,3.903s2.389,1.632,3.903,1.632c1.536,0,2.838-0.533,3.904-1.6c1.088-1.088,1.632-2.4,1.632-3.936
			C1063.93,452.353,1063.397,451.041,1062.331,449.974z"/>
		<path d="M1080.058,458.742c-1.323,1.322-2.944,1.983-4.864,1.983c-2.197,0-4.011-0.896-5.439-2.688v8.672h-1.313v-19.424h1.313
			v2.496c1.364-1.792,3.178-2.688,5.439-2.688c1.92,0,3.53,0.65,4.832,1.951c1.322,1.324,1.984,2.944,1.984,4.865
			C1082.01,455.83,1081.359,457.44,1080.058,458.742z M1079.098,450.006c-1.088-1.088-2.39-1.633-3.904-1.633
			c-1.536,0-2.837,0.533-3.903,1.601c-1.089,1.088-1.633,2.399-1.633,3.937c0,1.514,0.544,2.815,1.633,3.903
			c1.088,1.088,2.389,1.632,3.903,1.632c1.536,0,2.837-0.533,3.904-1.6c1.088-1.088,1.632-2.4,1.632-3.936
			C1080.73,452.395,1080.186,451.094,1079.098,450.006z"/>
		<path d="M1099.962,460.502v-9.121c0-0.811-0.268-1.514-0.801-2.111s-1.301-0.896-2.304-0.896c-2.069,0-3.104,1.004-3.104,3.008
			v9.121h-1.313v-9.121c0-0.896-0.299-1.609-0.896-2.144c-0.619-0.575-1.355-0.864-2.208-0.864c-0.875,0-1.611,0.277-2.208,0.832
			c-0.598,0.533-0.896,1.26-0.896,2.176v9.121h-1.312v-13.217h1.312v1.313c0.641-1.003,1.675-1.504,3.104-1.504
			c1.706,0,2.965,0.693,3.775,2.08c0.769-1.387,2.017-2.08,3.744-2.08c1.322,0,2.389,0.373,3.2,1.119
			c0.811,0.769,1.216,1.824,1.216,3.168v9.121H1099.962z"/>
		<path d="M1106.074,451.254c-0.235,0-0.48-0.097-0.736-0.289c-0.192-0.191-0.299-0.447-0.32-0.768c0-0.576,0.353-0.928,1.057-1.056
			c0.532,0,0.885,0.353,1.056,1.056C1107.129,450.901,1106.777,451.254,1106.074,451.254z M1106.074,460.693
			c-0.235,0-0.48-0.096-0.736-0.288c-0.192-0.192-0.299-0.448-0.32-0.768c0-0.576,0.353-0.929,1.057-1.056
			c0.532,0,0.885,0.352,1.056,1.056C1107.129,460.342,1106.777,460.693,1106.074,460.693z"/>
		<path d="M1120.121,460.533v-7.968c0-2.794-1.301-4.192-3.903-4.192c-1.067,0-1.984,0.32-2.752,0.961
			c-0.79,0.64-1.185,1.493-1.185,2.56v8.608h-1.312v-23.681h1.312v12.224c0.789-1.301,2.102-1.951,3.937-1.951
			c3.477,0,5.216,1.781,5.216,5.344v8.096H1120.121z"/>
		<path d="M1136.409,460.502v-2.272c-1.387,1.664-3.146,2.496-5.28,2.496c-1.92,0-3.53-0.65-4.832-1.952
			c-1.322-1.322-1.983-2.943-1.983-4.863c0-1.921,0.65-3.531,1.952-4.832c1.322-1.323,2.943-1.984,4.863-1.984
			c2.112,0,3.872,0.832,5.28,2.496v-2.305h1.313v13.217H1136.409z M1135.033,450.006c-1.088-1.088-2.39-1.633-3.904-1.633
			c-1.535,0-2.837,0.533-3.903,1.601c-1.088,1.088-1.632,2.399-1.632,3.937c0,1.514,0.544,2.815,1.632,3.903
			s2.389,1.632,3.903,1.632c1.536,0,2.838-0.533,3.904-1.6c1.088-1.088,1.632-2.4,1.632-3.936
			C1136.665,452.395,1136.121,451.094,1135.033,450.006z"/>
		<path d="M1148.122,459.67c-0.854,0.725-1.878,1.088-3.072,1.088c-2.048,0-3.584-0.928-4.608-2.784l1.12-0.673
			c0.362,0.662,0.8,1.174,1.313,1.537c0.532,0.405,1.258,0.607,2.176,0.607c2.005,0,3.008-0.854,3.008-2.561
			c0-0.746-0.352-1.396-1.056-1.951c-0.214-0.128-0.518-0.271-0.912-0.432c-0.396-0.16-0.88-0.348-1.456-0.561
			c-1.067-0.384-1.835-0.768-2.304-1.152c-0.684-0.555-1.024-1.354-1.024-2.399c0-0.896,0.341-1.664,1.024-2.304
			c0.66-0.662,1.524-0.992,2.592-0.992c1.472,0,2.72,0.512,3.744,1.535l-0.96,0.832c-0.726-0.725-1.654-1.088-2.784-1.088
			c-1.536,0-2.305,0.672-2.305,2.017c0,0.597,0.235,1.088,0.704,1.472c0.385,0.299,0.992,0.587,1.824,0.864
			c0.726,0.256,1.322,0.496,1.792,0.72c0.469,0.225,0.821,0.422,1.057,0.592c0.917,0.705,1.376,1.654,1.376,2.848
			C1149.37,458.037,1148.954,458.965,1148.122,459.67z"/>
		<path d="M1162.521,447.478c-1.195,1.067-2.667,1.601-4.416,1.601h-4.288v11.424h-1.28v-22.849h5.568
			c1.749,0,3.221,0.513,4.416,1.536c1.194,1.023,1.792,2.4,1.792,4.128C1164.313,445.066,1163.715,446.453,1162.521,447.478z
			 M1161.529,440.053c-0.875-0.725-2.026-1.088-3.456-1.088h-4.256v8.801h4.256c1.408,0,2.581-0.385,3.521-1.152
			c0.938-0.811,1.408-1.908,1.408-3.296C1163.001,441.932,1162.51,440.843,1161.529,440.053z"/>
		<path d="M1171.928,449.237c-0.341-0.256-0.703-0.458-1.088-0.608c-0.384-0.148-0.789-0.224-1.216-0.224
			c-0.363,0-0.704,0.112-1.023,0.337c-0.32,0.223-0.598,0.501-0.832,0.831c-0.235,0.331-0.422,0.699-0.561,1.104
			s-0.208,0.779-0.208,1.119v8.705h-1.312v-13.217H1167v1.793c0.277-0.491,0.641-0.939,1.088-1.345
			c0.448-0.405,0.938-0.608,1.473-0.608c0.66,0,1.205,0.076,1.632,0.225c0.427,0.149,0.906,0.416,1.439,0.8L1171.928,449.237z"/>
		<path d="M1184.281,458.742c-1.323,1.322-2.943,1.983-4.864,1.983c-1.92,0-3.53-0.65-4.832-1.952
			c-1.322-1.322-1.983-2.943-1.983-4.863c0-1.899,0.661-3.51,1.983-4.832c1.302-1.345,2.912-2.017,4.832-2.017
			c1.899,0,3.51,0.661,4.832,1.983c1.323,1.324,1.984,2.944,1.984,4.865C1186.233,455.83,1185.582,457.44,1184.281,458.742z
			 M1183.353,449.974c-1.067-1.089-2.379-1.632-3.937-1.632c-1.493,0-2.783,0.555-3.871,1.664c-1.11,1.109-1.664,2.41-1.664,3.904
			c0,1.514,0.544,2.815,1.632,3.903s2.389,1.632,3.903,1.632c1.536,0,2.838-0.533,3.904-1.6c1.088-1.088,1.632-2.4,1.632-3.936
			C1184.953,452.353,1184.419,451.041,1183.353,449.974z"/>
		<path d="M1201.081,458.742c-1.323,1.322-2.944,1.983-4.864,1.983c-2.197,0-4.011-0.896-5.439-2.688v8.672h-1.313v-19.424h1.313
			v2.496c1.364-1.792,3.178-2.688,5.439-2.688c1.92,0,3.53,0.65,4.832,1.951c1.322,1.324,1.984,2.944,1.984,4.865
			C1203.033,455.83,1202.381,457.44,1201.081,458.742z M1200.121,450.006c-1.088-1.088-2.39-1.633-3.904-1.633
			c-1.536,0-2.837,0.533-3.903,1.601c-1.089,1.088-1.633,2.399-1.633,3.937c0,1.514,0.544,2.815,1.633,3.903
			c1.088,1.088,2.389,1.632,3.903,1.632c1.536,0,2.837-0.533,3.904-1.6c1.088-1.088,1.632-2.4,1.632-3.936
			C1201.752,452.395,1201.208,451.094,1200.121,450.006z"/>
		<path d="M1206.2,453.621c0,1.793,0.479,3.211,1.439,4.256c1.003,1.067,2.379,1.601,4.128,1.601c0.896,0,1.707-0.149,2.433-0.448
			c0.917-0.384,1.738-1.162,2.464-2.336l1.184,0.544c-0.832,1.579-2.111,2.646-3.84,3.2c-0.661,0.213-1.408,0.32-2.24,0.32
			c-1.983,0-3.615-0.65-4.896-1.952c-1.302-1.302-1.952-2.933-1.952-4.896c0-1.984,0.64-3.617,1.92-4.896
			c1.301-1.301,2.944-1.952,4.928-1.952c1.963,0,3.584,0.608,4.864,1.823c1.301,1.217,1.952,2.796,1.952,4.736H1206.2z
			 M1215.223,449.43c-1.003-0.725-2.154-1.088-3.456-1.088c-2.73,0-4.522,1.344-5.376,4.031h10.721
			C1216.898,451.157,1216.268,450.176,1215.223,449.43z"/>
		<path d="M1227.863,449.237c-0.341-0.256-0.703-0.458-1.088-0.608c-0.384-0.148-0.789-0.224-1.216-0.224
			c-0.363,0-0.704,0.112-1.023,0.337c-0.32,0.223-0.598,0.501-0.832,0.831c-0.235,0.331-0.422,0.699-0.561,1.104
			s-0.208,0.779-0.208,1.119v8.705h-1.312v-13.217h1.312v1.793c0.277-0.491,0.641-0.939,1.088-1.345
			c0.448-0.405,0.938-0.608,1.473-0.608c0.66,0,1.205,0.076,1.632,0.225c0.427,0.149,0.906,0.416,1.439,0.8L1227.863,449.237z"/>
		<path d="M1233.527,448.598v11.904h-1.312v-11.904h-1.792v-1.313h1.792v-5.791h1.312v5.791h3.072v1.313H1233.527z"/>
		<path d="M1241.943,466.709h-1.472l3.424-7.424l-5.567-12h1.407l4.929,10.432l4.863-10.432h1.44L1241.943,466.709z"/>
		<path d="M1260.407,460.31c-0.832,0.298-1.813,0.448-2.943,0.448c-3.499,0-5.75-1.653-6.752-4.961l1.312-0.447
			c0.747,2.73,2.561,4.096,5.44,4.096c1.643,0,2.933-0.404,3.872-1.216c0.96-0.832,1.439-2.048,1.439-3.647
			c0-1.516-0.565-2.773-1.695-3.776c-0.3-0.277-0.758-0.587-1.376-0.929c-0.619-0.34-1.408-0.725-2.368-1.151
			c-1.813-0.811-3.052-1.515-3.712-2.112c-1.11-0.96-1.664-2.229-1.664-3.808s0.564-2.849,1.695-3.808
			c1.109-0.981,2.475-1.473,4.097-1.473c2.688,0,4.586,1.003,5.695,3.008l-1.248,0.545c-0.427-0.705-0.938-1.227-1.535-1.568
			c-0.747-0.469-1.718-0.704-2.912-0.704c-1.26,0-2.305,0.352-3.137,1.056c-0.896,0.747-1.344,1.729-1.344,2.944
			c0,1.088,0.469,2.037,1.408,2.848c0.533,0.427,1.6,1.003,3.2,1.728c1.002,0.449,1.866,0.892,2.592,1.328
			c0.725,0.438,1.312,0.881,1.76,1.328c1.237,1.217,1.856,2.731,1.856,4.545C1264.087,457.482,1262.86,459.393,1260.407,460.31z"/>
		<path d="M1267.511,448.598v11.904h-1.312v-11.904h-1.792v-1.313h1.792v-5.791h1.312v5.791h3.072v1.313H1267.511z"/>
		<path d="M1283.127,460.502v-2.272c-1.387,1.664-3.146,2.496-5.28,2.496c-1.92,0-3.53-0.65-4.832-1.952
			c-1.322-1.322-1.983-2.943-1.983-4.863c0-1.921,0.65-3.531,1.952-4.832c1.322-1.323,2.943-1.984,4.863-1.984
			c2.112,0,3.872,0.832,5.28,2.496v-2.305h1.313v13.217H1283.127z M1281.751,450.006c-1.088-1.088-2.39-1.633-3.904-1.633
			c-1.535,0-2.837,0.533-3.903,1.601c-1.088,1.088-1.632,2.399-1.632,3.937c0,1.514,0.544,2.815,1.632,3.903
			s2.389,1.632,3.903,1.632c1.536,0,2.838-0.533,3.904-1.6c1.088-1.088,1.632-2.4,1.632-3.936
			C1283.383,452.395,1282.839,451.094,1281.751,450.006z"/>
		<path d="M1290.328,448.598v11.904h-1.312v-11.904h-1.792v-1.313h1.792v-5.791h1.312v5.791h3.072v1.313H1290.328z"/>
		<path d="M1296.6,453.621c0,1.793,0.479,3.211,1.439,4.256c1.003,1.067,2.379,1.601,4.128,1.601c0.896,0,1.707-0.149,2.433-0.448
			c0.917-0.384,1.738-1.162,2.464-2.336l1.184,0.544c-0.832,1.579-2.111,2.646-3.84,3.2c-0.661,0.213-1.408,0.32-2.24,0.32
			c-1.983,0-3.615-0.65-4.896-1.952c-1.302-1.302-1.952-2.933-1.952-4.896c0-1.984,0.64-3.617,1.92-4.896
			c1.301-1.301,2.944-1.952,4.928-1.952c1.963,0,3.584,0.608,4.864,1.823c1.301,1.217,1.952,2.796,1.952,4.736H1296.6z
			 M1305.624,449.43c-1.003-0.725-2.154-1.088-3.456-1.088c-2.73,0-4.522,1.344-5.376,4.031h10.721
			C1307.298,451.157,1306.668,450.176,1305.624,449.43z"/>
	</g>
</g>
<g>
	<g>
		<path d="M1137.236,624.068v-3.979c0-0.748,0.204-1.281,0.611-1.598h0.681c-0.408,0.453-0.612,0.986-0.612,1.598v1.529h1.122v2.449
			H1137.236z M1141.146,624.068v-3.979c0-0.748,0.204-1.281,0.611-1.598h0.681c-0.408,0.453-0.612,0.986-0.612,1.598v1.529h1.122
			v2.449H1141.146z"/>
		<path d="M1154.032,642.359c-0.907,0.771-1.995,1.156-3.265,1.156c-2.176,0-3.808-0.986-4.896-2.957l1.189-0.715
			c0.386,0.703,0.851,1.246,1.395,1.633c0.566,0.43,1.337,0.645,2.312,0.645c2.131,0,3.196-0.906,3.196-2.719
			c0-0.793-0.374-1.484-1.122-2.074c-0.227-0.137-0.55-0.289-0.969-0.459c-0.42-0.17-0.936-0.369-1.547-0.596
			c-1.134-0.408-1.95-0.816-2.448-1.225c-0.726-0.588-1.088-1.438-1.088-2.549c0-0.953,0.362-1.768,1.088-2.449
			c0.702-0.701,1.62-1.053,2.754-1.053c1.563,0,2.89,0.543,3.978,1.631l-1.02,0.885c-0.771-0.77-1.757-1.156-2.958-1.156
			c-1.632,0-2.448,0.715-2.448,2.143c0,0.635,0.249,1.156,0.748,1.564c0.408,0.316,1.054,0.623,1.938,0.918
			c0.77,0.271,1.404,0.525,1.903,0.764s0.873,0.449,1.122,0.629c0.975,0.748,1.462,1.758,1.462,3.027
			C1155.357,640.625,1154.916,641.611,1154.032,642.359z"/>
		<path d="M1169.739,641.373c-1.405,1.406-3.128,2.109-5.168,2.109s-3.751-0.691-5.134-2.074c-1.405-1.406-2.107-3.129-2.107-5.168
			c0-2.018,0.702-3.729,2.107-5.135c1.383-1.428,3.094-2.143,5.134-2.143c2.018,0,3.729,0.703,5.135,2.109
			c1.404,1.404,2.107,3.127,2.107,5.168C1171.813,638.279,1171.122,639.992,1169.739,641.373z M1168.753,632.059
			c-1.134-1.156-2.528-1.734-4.183-1.734c-1.587,0-2.958,0.59-4.113,1.768c-1.18,1.178-1.769,2.563-1.769,4.148
			c0,1.609,0.578,2.992,1.734,4.146c1.156,1.156,2.538,1.734,4.147,1.734c1.633,0,3.015-0.566,4.148-1.699
			c1.156-1.156,1.734-2.551,1.734-4.182C1170.454,634.586,1169.886,633.191,1168.753,632.059z"/>
		<path d="M1191.294,643.244v-9.691c0-0.859-0.283-1.607-0.85-2.242s-1.383-0.953-2.448-0.953c-2.198,0-3.298,1.066-3.298,3.195
			v9.691h-1.394v-9.691c0-0.951-0.318-1.711-0.952-2.277c-0.658-0.611-1.439-0.918-2.347-0.918c-0.93,0-1.711,0.295-2.346,0.885
			c-0.635,0.566-0.952,1.338-0.952,2.311v9.691h-1.394v-14.043h1.394v1.395c0.681-1.064,1.779-1.598,3.298-1.598
			c1.813,0,3.15,0.736,4.013,2.209c0.815-1.473,2.142-2.209,3.978-2.209c1.405,0,2.538,0.396,3.4,1.189
			c0.861,0.816,1.292,1.938,1.292,3.365v9.691H1191.294z"/>
		<path d="M1197.448,635.934c0,1.904,0.511,3.412,1.53,4.521c1.065,1.135,2.527,1.701,4.386,1.701c0.952,0,1.813-0.158,2.584-0.477
			c0.975-0.408,1.848-1.234,2.618-2.482l1.258,0.578c-0.884,1.678-2.243,2.811-4.08,3.4c-0.702,0.227-1.495,0.34-2.38,0.34
			c-2.107,0-3.842-0.691-5.201-2.074c-1.384-1.383-2.074-3.115-2.074-5.201c0-2.109,0.68-3.842,2.04-5.203
			c1.382-1.381,3.128-2.074,5.235-2.074c2.086,0,3.809,0.646,5.168,1.939c1.383,1.291,2.074,2.969,2.074,5.031H1197.448z
			 M1207.036,631.48c-1.065-0.771-2.289-1.156-3.672-1.156c-2.901,0-4.806,1.428-5.712,4.283h11.391
			C1208.815,633.316,1208.146,632.273,1207.036,631.48z"/>
		<path d="M1227.81,643.855l-6.63-14.654h1.496l5.1,11.186l5.135-11.186h1.563L1227.81,643.855z"/>
		<path d="M1249.093,643.244v-2.414c-1.474,1.768-3.344,2.652-5.61,2.652c-2.04,0-3.751-0.691-5.134-2.074
			c-1.405-1.406-2.107-3.129-2.107-5.168c0-2.041,0.69-3.752,2.073-5.135c1.405-1.404,3.128-2.107,5.168-2.107
			c2.244,0,4.114,0.883,5.61,2.652v-2.449h1.394v14.043H1249.093z M1247.631,632.092c-1.156-1.156-2.539-1.734-4.148-1.734
			c-1.632,0-3.015,0.566-4.147,1.701c-1.156,1.154-1.734,2.549-1.734,4.182c0,1.609,0.578,2.992,1.734,4.146
			c1.156,1.156,2.538,1.734,4.147,1.734c1.633,0,3.015-0.566,4.148-1.699c1.156-1.156,1.734-2.551,1.734-4.182
			C1249.366,634.631,1248.788,633.248,1247.631,632.092z"/>
		<path d="M1255.009,643.244v-25.16h1.359v25.16H1255.009z"/>
		<path d="M1268.439,642.02c-0.93,0.998-2.232,1.496-3.909,1.496c-1.655,0-2.937-0.486-3.843-1.463
			c-0.906-0.973-1.359-2.334-1.359-4.078v-8.773h1.394v8.773c0,1.336,0.295,2.367,0.884,3.094c0.612,0.725,1.587,1.088,2.925,1.088
			c2.605,0,3.909-1.395,3.909-4.182v-8.773h1.36v8.773C1269.799,639.697,1269.346,641.045,1268.439,642.02z"/>
		<path d="M1274.354,635.934c0,1.904,0.511,3.412,1.53,4.521c1.065,1.135,2.527,1.701,4.386,1.701c0.952,0,1.813-0.158,2.584-0.477
			c0.975-0.408,1.848-1.234,2.618-2.482l1.258,0.578c-0.884,1.678-2.243,2.811-4.08,3.4c-0.702,0.227-1.495,0.34-2.38,0.34
			c-2.107,0-3.842-0.691-5.201-2.074c-1.384-1.383-2.074-3.115-2.074-5.201c0-2.109,0.68-3.842,2.04-5.203
			c1.382-1.381,3.128-2.074,5.235-2.074c2.086,0,3.809,0.646,5.168,1.939c1.383,1.291,2.074,2.969,2.074,5.031H1274.354z
			 M1283.942,631.48c-1.065-0.771-2.289-1.156-3.672-1.156c-2.901,0-4.806,1.428-5.712,4.283h11.391
			C1285.721,633.316,1285.052,632.273,1283.942,631.48z"/>
		<path d="M1291.932,623.795h-0.68c0.408-0.43,0.612-0.963,0.612-1.598v-1.529h-1.122v-2.449h1.802v3.979
			C1292.544,622.764,1292.34,623.297,1291.932,623.795z M1295.842,623.795h-0.68c0.408-0.43,0.612-0.963,0.612-1.598v-1.529h-1.122
			v-2.449h1.802v3.979C1296.455,622.764,1296.25,623.297,1295.842,623.795z"/>
	</g>
</g>
<g>
	<g>
		<path d="M1318.47,382.434c-0.907,0.771-1.995,1.156-3.265,1.156c-2.176,0-3.808-0.986-4.896-2.958l1.189-0.714
			c0.386,0.703,0.851,1.246,1.395,1.632c0.566,0.431,1.337,0.646,2.312,0.646c2.131,0,3.196-0.906,3.196-2.719
			c0-0.794-0.374-1.484-1.122-2.074c-0.227-0.137-0.55-0.289-0.969-0.459c-0.42-0.17-0.936-0.369-1.547-0.596
			c-1.134-0.408-1.95-0.816-2.448-1.224c-0.726-0.589-1.088-1.439-1.088-2.55c0-0.952,0.362-1.769,1.088-2.448
			c0.702-0.702,1.62-1.054,2.754-1.054c1.563,0,2.89,0.543,3.978,1.632l-1.02,0.884c-0.771-0.771-1.757-1.156-2.958-1.156
			c-1.632,0-2.448,0.715-2.448,2.143c0,0.635,0.249,1.156,0.748,1.563c0.408,0.317,1.054,0.624,1.938,0.918
			c0.77,0.272,1.404,0.527,1.903,0.765c0.499,0.238,0.873,0.448,1.122,0.629c0.975,0.748,1.462,1.758,1.462,3.027
			C1319.795,380.699,1319.354,381.686,1318.47,382.434z"/>
		<path d="M1323.093,376.008c0,1.904,0.511,3.412,1.53,4.521c1.065,1.135,2.527,1.701,4.386,1.701c0.952,0,1.813-0.158,2.584-0.477
			c0.975-0.408,1.848-1.235,2.618-2.482l1.258,0.578c-0.884,1.678-2.243,2.811-4.08,3.4c-0.702,0.227-1.495,0.34-2.38,0.34
			c-2.107,0-3.842-0.691-5.201-2.074c-1.384-1.382-2.074-3.116-2.074-5.201c0-2.108,0.68-3.843,2.04-5.203
			c1.382-1.382,3.128-2.073,5.235-2.073c2.086,0,3.809,0.646,5.168,1.938c1.383,1.291,2.074,2.969,2.074,5.031H1323.093z
			 M1332.681,371.554c-1.065-0.771-2.289-1.155-3.672-1.155c-2.901,0-4.806,1.428-5.712,4.283h11.391
			C1334.46,373.39,1333.792,372.348,1332.681,371.554z"/>
		<path d="M1351.279,383.318v-2.414c-1.474,1.768-3.344,2.651-5.61,2.651c-2.04,0-3.751-0.69-5.134-2.073
			c-1.405-1.406-2.107-3.129-2.107-5.168c0-2.041,0.69-3.752,2.073-5.135c1.405-1.404,3.128-2.107,5.168-2.107
			c2.244,0,4.114,0.884,5.61,2.651v-2.448h1.394v14.043H1351.279z M1349.817,372.166c-1.156-1.156-2.539-1.734-4.148-1.734
			c-1.632,0-3.015,0.566-4.147,1.7c-1.156,1.156-1.734,2.55-1.734,4.183c0,1.609,0.578,2.991,1.734,4.147
			c1.156,1.155,2.538,1.733,4.147,1.733c1.633,0,3.015-0.566,4.148-1.699c1.156-1.156,1.734-2.551,1.734-4.182
			C1351.551,374.705,1350.973,373.322,1349.817,372.166z"/>
		<path d="M1363.723,382.434c-0.907,0.771-1.995,1.156-3.265,1.156c-2.176,0-3.808-0.986-4.896-2.958l1.189-0.714
			c0.386,0.703,0.851,1.246,1.395,1.632c0.566,0.431,1.337,0.646,2.312,0.646c2.131,0,3.196-0.906,3.196-2.719
			c0-0.794-0.374-1.484-1.122-2.074c-0.227-0.137-0.55-0.289-0.969-0.459c-0.42-0.17-0.936-0.369-1.547-0.596
			c-1.134-0.408-1.95-0.816-2.448-1.224c-0.726-0.589-1.088-1.439-1.088-2.55c0-0.952,0.362-1.769,1.088-2.448
			c0.702-0.702,1.62-1.054,2.754-1.054c1.563,0,2.89,0.543,3.978,1.632l-1.02,0.884c-0.771-0.771-1.757-1.156-2.958-1.156
			c-1.632,0-2.448,0.715-2.448,2.143c0,0.635,0.249,1.156,0.748,1.563c0.408,0.317,1.054,0.624,1.938,0.918
			c0.77,0.272,1.404,0.527,1.903,0.765c0.499,0.238,0.873,0.448,1.122,0.629c0.975,0.748,1.462,1.758,1.462,3.027
			C1365.048,380.699,1364.607,381.686,1363.723,382.434z"/>
		<path d="M1368.687,373.492c-0.25,0-0.511-0.103-0.782-0.307c-0.204-0.203-0.318-0.476-0.34-0.816c0-0.611,0.374-0.985,1.122-1.121
			c0.565,0,0.939,0.374,1.121,1.121C1369.808,373.117,1369.434,373.492,1368.687,373.492z M1368.687,383.521
			c-0.25,0-0.511-0.102-0.782-0.306c-0.204-0.204-0.318-0.476-0.34-0.815c0-0.612,0.374-0.986,1.122-1.123
			c0.565,0,0.939,0.375,1.121,1.123C1369.808,383.148,1369.434,383.521,1368.687,383.521z"/>
		<path d="M1373.787,383.318v-24.276h11.662v1.394h-10.269v8.84h10.269v1.496h-10.269v11.152h10.269v1.395H1373.787z"/>
		<path d="M1392.962,383.93l-6.63-14.654h1.496l5.1,11.187l5.135-11.187h1.563L1392.962,383.93z"/>
		<path d="M1414.247,383.318v-2.414c-1.474,1.768-3.344,2.651-5.61,2.651c-2.04,0-3.751-0.69-5.134-2.073
			c-1.405-1.406-2.107-3.129-2.107-5.168c0-2.041,0.69-3.752,2.073-5.135c1.405-1.404,3.128-2.107,5.168-2.107
			c2.244,0,4.114,0.884,5.61,2.651v-2.448h1.394v14.043H1414.247z M1412.785,372.166c-1.156-1.156-2.539-1.734-4.148-1.734
			c-1.632,0-3.015,0.566-4.147,1.7c-1.156,1.156-1.734,2.55-1.734,4.183c0,1.609,0.578,2.991,1.734,4.147
			c1.156,1.155,2.538,1.733,4.147,1.733c1.633,0,3.015-0.566,4.148-1.699c1.156-1.156,1.734-2.551,1.734-4.182
			C1414.519,374.705,1413.941,373.322,1412.785,372.166z"/>
		<path d="M1420.163,383.318v-25.16h1.359v25.16H1420.163z"/>
		<path d="M1433.591,382.094c-0.93,0.998-2.232,1.496-3.909,1.496c-1.655,0-2.937-0.487-3.843-1.462s-1.359-2.335-1.359-4.08v-8.772
			h1.394v8.772c0,1.338,0.295,2.368,0.884,3.095c0.612,0.725,1.587,1.088,2.925,1.088c2.605,0,3.909-1.395,3.909-4.183v-8.772h1.36
			v8.772C1434.952,379.771,1434.499,381.119,1433.591,382.094z"/>
		<path d="M1451.034,383.318v-2.414c-1.474,1.768-3.344,2.651-5.61,2.651c-2.04,0-3.751-0.69-5.134-2.073
			c-1.405-1.406-2.107-3.129-2.107-5.168c0-2.041,0.69-3.752,2.073-5.135c1.405-1.404,3.128-2.107,5.168-2.107
			c2.244,0,4.114,0.884,5.61,2.651v-2.448h1.394v14.043H1451.034z M1449.572,372.166c-1.156-1.156-2.539-1.734-4.148-1.734
			c-1.632,0-3.015,0.566-4.147,1.7c-1.156,1.156-1.734,2.55-1.734,4.183c0,1.609,0.578,2.991,1.734,4.147
			c1.156,1.155,2.538,1.733,4.147,1.733c1.633,0,3.015-0.566,4.148-1.699c1.156-1.156,1.734-2.551,1.734-4.182
			C1451.306,374.705,1450.728,373.322,1449.572,372.166z"/>
		<path d="M1458.683,370.67v12.648h-1.394V370.67h-1.904v-1.395h1.904v-6.153h1.394v6.153h3.265v1.395H1458.683z"/>
		<path d="M1466.028,366.76c-0.25,0-0.511-0.102-0.782-0.306c-0.204-0.204-0.317-0.476-0.34-0.816c0-0.612,0.374-0.985,1.122-1.122
			c0.566,0,0.94,0.374,1.122,1.122C1467.15,366.386,1466.776,366.76,1466.028,366.76z M1465.314,383.318v-14.043h1.394v14.043
			H1465.314z"/>
		<path d="M1482.686,381.447c-1.405,1.406-3.128,2.108-5.168,2.108s-3.751-0.69-5.134-2.073c-1.405-1.406-2.107-3.129-2.107-5.168
			c0-2.018,0.702-3.729,2.107-5.135c1.383-1.428,3.094-2.142,5.134-2.142c2.018,0,3.729,0.702,5.135,2.108
			c1.404,1.405,2.107,3.127,2.107,5.168C1484.76,378.354,1484.069,380.065,1482.686,381.447z M1481.701,372.132
			c-1.134-1.155-2.528-1.733-4.183-1.733c-1.587,0-2.958,0.59-4.113,1.768c-1.18,1.179-1.769,2.562-1.769,4.148
			c0,1.609,0.578,2.991,1.734,4.147c1.156,1.155,2.538,1.733,4.147,1.733c1.633,0,3.015-0.566,4.148-1.699
			c1.156-1.156,1.734-2.551,1.734-4.182C1483.401,374.66,1482.833,373.266,1481.701,372.132z"/>
		<path d="M1497.714,383.318v-8.398c0-2.969-1.338-4.454-4.013-4.454c-1.314,0-2.312,0.386-2.991,1.156
			c-0.703,0.771-1.055,1.825-1.055,3.161v8.535h-1.394v-14.043h1.394v1.701c0.635-1.247,1.983-1.871,4.046-1.871
			c1.745,0,3.083,0.499,4.013,1.496c0.929,0.998,1.394,2.393,1.394,4.182v8.535H1497.714z"/>
		<path d="M1231.787,410.248c-1.405,1.405-3.128,2.107-5.168,2.107c-2.334,0-4.262-0.951-5.779-2.855v9.214h-1.395v-20.638h1.395
			v2.651c1.45-1.903,3.377-2.856,5.779-2.856c2.04,0,3.752,0.692,5.135,2.074c1.404,1.406,2.107,3.129,2.107,5.168
			C1233.861,407.154,1233.169,408.865,1231.787,410.248z M1230.767,400.966c-1.156-1.156-2.539-1.734-4.148-1.734
			c-1.632,0-3.015,0.567-4.147,1.7c-1.156,1.156-1.734,2.55-1.734,4.182c0,1.609,0.578,2.992,1.734,4.148s2.538,1.734,4.147,1.734
			c1.633,0,3.015-0.566,4.148-1.7c1.156-1.156,1.734-2.55,1.734-4.183C1232.501,403.504,1231.923,402.121,1230.767,400.966z"/>
		<path d="M1243.584,400.15c-0.363-0.273-0.748-0.488-1.156-0.646s-0.839-0.238-1.292-0.238c-0.386,0-0.748,0.119-1.088,0.357
			s-0.635,0.533-0.884,0.884c-0.25,0.352-0.448,0.743-0.595,1.173c-0.148,0.431-0.222,0.828-0.222,1.189v9.248h-1.394v-14.041h1.394
			v1.903c0.295-0.521,0.681-0.997,1.156-1.428s0.997-0.646,1.564-0.646c0.702,0,1.28,0.079,1.733,0.237
			c0.453,0.159,0.963,0.442,1.53,0.851L1243.584,400.15z"/>
		<path d="M1256.708,410.248c-1.405,1.405-3.128,2.107-5.168,2.107s-3.751-0.691-5.134-2.074c-1.405-1.404-2.107-3.127-2.107-5.168
			c0-2.017,0.702-3.729,2.107-5.134c1.383-1.428,3.094-2.142,5.134-2.142c2.018,0,3.729,0.703,5.135,2.107
			c1.404,1.406,2.107,3.129,2.107,5.168C1258.783,407.154,1258.091,408.865,1256.708,410.248z M1255.723,400.932
			c-1.134-1.156-2.528-1.734-4.183-1.734c-1.587,0-2.958,0.59-4.113,1.769c-1.18,1.179-1.769,2.562-1.769,4.147
			c0,1.609,0.578,2.992,1.734,4.148s2.538,1.734,4.147,1.734c1.633,0,3.015-0.566,4.148-1.7c1.156-1.156,1.734-2.55,1.734-4.183
			C1257.423,403.459,1256.856,402.065,1255.723,400.932z"/>
		<path d="M1265.752,412.729l-6.63-14.653h1.496l5.1,11.186l5.135-11.186h1.563L1265.752,412.729z"/>
		<path d="M1275.851,402.291c-0.25,0-0.511-0.102-0.782-0.305c-0.204-0.205-0.318-0.477-0.34-0.816c0-0.612,0.374-0.986,1.122-1.122
			c0.565,0,0.939,0.374,1.121,1.122C1276.972,401.918,1276.598,402.291,1275.851,402.291z M1275.851,412.322
			c-0.25,0-0.511-0.103-0.782-0.307c-0.204-0.204-0.318-0.477-0.34-0.816c0-0.611,0.374-0.985,1.122-1.121
			c0.565,0,0.939,0.373,1.121,1.121C1276.972,411.947,1276.598,412.322,1275.851,412.322z"/>
		<path d="M1280.951,412.117v-24.275h11.662v1.395h-10.269v8.84h10.269v1.496h-10.269v11.151h10.269v1.394H1280.951z"/>
		<path d="M1305.057,412.117v-8.397c0-2.97-1.338-4.454-4.013-4.454c-1.314,0-2.312,0.386-2.991,1.156
			c-0.703,0.771-1.055,1.824-1.055,3.162v8.533h-1.394v-14.041h1.394v1.699c0.635-1.246,1.983-1.869,4.046-1.869
			c1.745,0,3.083,0.498,4.013,1.496c0.929,0.997,1.394,2.391,1.394,4.182v8.533H1305.057z"/>
		<path d="M1313.046,399.47v12.647h-1.394V399.47h-1.904v-1.394h1.904v-6.154h1.394v6.154h3.265v1.394H1313.046z"/>
		<path d="M1320.391,395.56c-0.25,0-0.511-0.103-0.782-0.306c-0.204-0.204-0.317-0.477-0.34-0.816c0-0.611,0.374-0.986,1.122-1.121
			c0.566,0,0.94,0.373,1.122,1.121C1321.513,395.186,1321.139,395.56,1320.391,395.56z M1319.677,412.117v-14.041h1.394v14.041
			H1319.677z"/>
		<path d="M1327.801,399.47v12.647h-1.394V399.47h-1.904v-1.394h1.904v-6.154h1.394v6.154h3.265v1.394H1327.801z"/>
		<path d="M1336.744,418.714h-1.563l3.638-7.888l-5.916-12.75h1.496l5.235,11.084l5.168-11.084h1.53L1336.744,418.714z"/>
		<path d="M1349.085,415.619l-0.441-0.306l2.516-5.542l1.189,0.51L1349.085,415.619z"/>
		<path d="M1375.434,410.248c-1.405,1.405-3.128,2.107-5.168,2.107s-3.751-0.691-5.134-2.074c-1.405-1.404-2.107-3.127-2.107-5.168
			c0-2.017,0.702-3.729,2.107-5.134c1.383-1.428,3.094-2.142,5.134-2.142c2.018,0,3.729,0.703,5.135,2.107
			c1.404,1.406,2.107,3.129,2.107,5.168C1377.508,407.154,1376.817,408.865,1375.434,410.248z M1374.449,400.932
			c-1.134-1.156-2.528-1.734-4.183-1.734c-1.587,0-2.958,0.59-4.113,1.769c-1.18,1.179-1.769,2.562-1.769,4.147
			c0,1.609,0.578,2.992,1.734,4.148s2.538,1.734,4.147,1.734c1.633,0,3.015-0.566,4.148-1.7c1.156-1.156,1.734-2.55,1.734-4.183
			C1376.149,403.459,1375.582,402.065,1374.449,400.932z"/>
		<path d="M1393.284,410.248c-1.405,1.405-3.128,2.107-5.168,2.107c-2.334,0-4.262-0.951-5.779-2.855v9.214h-1.395v-20.638h1.395
			v2.651c1.45-1.903,3.377-2.856,5.779-2.856c2.04,0,3.752,0.692,5.135,2.074c1.404,1.406,2.107,3.129,2.107,5.168
			C1395.358,407.154,1394.667,408.865,1393.284,410.248z M1392.264,400.966c-1.156-1.156-2.539-1.734-4.148-1.734
			c-1.632,0-3.015,0.567-4.147,1.7c-1.156,1.156-1.734,2.55-1.734,4.182c0,1.609,0.578,2.992,1.734,4.148s2.538,1.734,4.147,1.734
			c1.633,0,3.015-0.566,4.148-1.7c1.156-1.156,1.734-2.55,1.734-4.183C1393.999,403.504,1393.42,402.121,1392.264,400.966z"/>
		<path d="M1414.431,412.117v-9.689c0-0.861-0.283-1.609-0.85-2.244s-1.383-0.952-2.448-0.952c-2.198,0-3.298,1.065-3.298,3.196
			v9.689h-1.394v-9.689c0-0.952-0.318-1.711-0.952-2.277c-0.658-0.613-1.439-0.919-2.347-0.919c-0.93,0-1.711,0.295-2.346,0.884
			c-0.635,0.567-0.952,1.338-0.952,2.313v9.689h-1.394v-14.041h1.394v1.394c0.681-1.065,1.779-1.599,3.298-1.599
			c1.813,0,3.15,0.737,4.013,2.211c0.815-1.474,2.142-2.211,3.978-2.211c1.405,0,2.538,0.397,3.4,1.19
			c0.861,0.815,1.292,1.938,1.292,3.366v9.689H1414.431z"/>
		<path d="M1420.926,402.291c-0.25,0-0.511-0.102-0.782-0.305c-0.204-0.205-0.318-0.477-0.34-0.816c0-0.612,0.374-0.986,1.122-1.122
			c0.565,0,0.939,0.374,1.121,1.122C1422.047,401.918,1421.673,402.291,1420.926,402.291z M1420.926,412.322
			c-0.25,0-0.511-0.103-0.782-0.307c-0.204-0.204-0.318-0.477-0.34-0.816c0-0.611,0.374-0.985,1.122-1.121
			c0.565,0,0.939,0.373,1.121,1.121C1422.047,411.947,1421.673,412.322,1420.926,412.322z"/>
		<path d="M1436.804,398.279c-1.271,1.135-2.834,1.7-4.692,1.7h-4.556v12.138h-1.36v-24.275h5.916c1.858,0,3.422,0.544,4.692,1.632
			c1.269,1.088,1.903,2.55,1.903,4.386C1438.708,395.719,1438.073,397.191,1436.804,398.279z M1435.75,390.392
			c-0.93-0.771-2.153-1.155-3.672-1.155h-4.521v9.35h4.521c1.496,0,2.742-0.408,3.74-1.225c0.997-0.861,1.496-2.027,1.496-3.502
			C1437.314,392.387,1436.792,391.23,1435.75,390.392z"/>
		<path d="M1446.799,400.15c-0.363-0.273-0.748-0.488-1.156-0.646s-0.839-0.238-1.292-0.238c-0.386,0-0.748,0.119-1.088,0.357
			s-0.635,0.533-0.884,0.884c-0.25,0.352-0.448,0.743-0.595,1.173c-0.148,0.431-0.222,0.828-0.222,1.189v9.248h-1.394v-14.041h1.394
			v1.903c0.295-0.521,0.681-0.997,1.156-1.428s0.997-0.646,1.564-0.646c0.702,0,1.28,0.079,1.733,0.237
			c0.453,0.159,0.963,0.442,1.53,0.851L1446.799,400.15z"/>
		<path d="M1459.923,410.248c-1.405,1.405-3.128,2.107-5.168,2.107s-3.751-0.691-5.134-2.074c-1.405-1.404-2.107-3.127-2.107-5.168
			c0-2.017,0.702-3.729,2.107-5.134c1.383-1.428,3.094-2.142,5.134-2.142c2.018,0,3.729,0.703,5.135,2.107
			c1.404,1.406,2.107,3.129,2.107,5.168C1461.998,407.154,1461.306,408.865,1459.923,410.248z M1458.938,400.932
			c-1.134-1.156-2.528-1.734-4.183-1.734c-1.587,0-2.958,0.59-4.113,1.769c-1.18,1.179-1.769,2.562-1.769,4.147
			c0,1.609,0.578,2.992,1.734,4.148s2.538,1.734,4.147,1.734c1.633,0,3.015-0.566,4.148-1.7c1.156-1.156,1.734-2.55,1.734-4.183
			C1460.638,403.459,1460.071,402.065,1458.938,400.932z"/>
		<path d="M1477.773,410.248c-1.405,1.405-3.128,2.107-5.168,2.107c-2.334,0-4.262-0.951-5.779-2.855v9.214h-1.395v-20.638h1.395
			v2.651c1.45-1.903,3.377-2.856,5.779-2.856c2.04,0,3.752,0.692,5.135,2.074c1.404,1.406,2.107,3.129,2.107,5.168
			C1479.847,407.154,1479.156,408.865,1477.773,410.248z M1476.753,400.966c-1.156-1.156-2.539-1.734-4.148-1.734
			c-1.632,0-3.015,0.567-4.147,1.7c-1.156,1.156-1.734,2.55-1.734,4.182c0,1.609,0.578,2.992,1.734,4.148s2.538,1.734,4.147,1.734
			c1.633,0,3.015-0.566,4.148-1.7c1.156-1.156,1.734-2.55,1.734-4.183C1478.488,403.504,1477.91,402.121,1476.753,400.966z"/>
		<path d="M1483.212,404.808c0,1.904,0.511,3.411,1.53,4.522c1.065,1.133,2.527,1.699,4.386,1.699c0.952,0,1.813-0.158,2.584-0.476
			c0.975-0.408,1.848-1.235,2.618-2.481l1.258,0.578c-0.884,1.677-2.243,2.811-4.08,3.399c-0.702,0.226-1.495,0.34-2.38,0.34
			c-2.107,0-3.842-0.69-5.201-2.073c-1.384-1.383-2.074-3.117-2.074-5.203c0-2.107,0.68-3.842,2.04-5.201
			c1.382-1.383,3.128-2.074,5.235-2.074c2.086,0,3.809,0.646,5.168,1.938c1.383,1.293,2.074,2.971,2.074,5.032H1483.212z
			 M1492.8,400.354c-1.065-0.77-2.289-1.156-3.672-1.156c-2.901,0-4.806,1.428-5.712,4.284h11.391
			C1494.58,402.189,1493.911,401.147,1492.8,400.354z"/>
		<path d="M1506.231,400.15c-0.363-0.273-0.748-0.488-1.156-0.646s-0.839-0.238-1.292-0.238c-0.386,0-0.748,0.119-1.088,0.357
			s-0.635,0.533-0.884,0.884c-0.25,0.352-0.448,0.743-0.595,1.173c-0.148,0.431-0.222,0.828-0.222,1.189v9.248h-1.394v-14.041h1.394
			v1.903c0.295-0.521,0.681-0.997,1.156-1.428s0.997-0.646,1.564-0.646c0.702,0,1.28,0.079,1.733,0.237
			c0.453,0.159,0.963,0.442,1.53,0.851L1506.231,400.15z"/>
		<path d="M1512.249,399.47v12.647h-1.394V399.47h-1.904v-1.394h1.904v-6.154h1.394v6.154h3.265v1.394H1512.249z"/>
		<path d="M1521.191,418.714h-1.563l3.638-7.888l-5.916-12.75h1.496l5.235,11.084l5.168-11.084h1.53L1521.191,418.714z"/>
		<path d="M1540.809,411.914c-0.884,0.316-1.927,0.476-3.128,0.476c-3.718,0-6.109-1.757-7.174-5.271l1.394-0.476
			c0.793,2.901,2.72,4.353,5.78,4.353c1.745,0,3.116-0.431,4.114-1.293c1.02-0.883,1.529-2.176,1.529-3.875
			c0-1.609-0.601-2.947-1.802-4.012c-0.317-0.295-0.805-0.624-1.462-0.986c-0.658-0.363-1.496-0.771-2.516-1.225
			c-1.928-0.861-3.242-1.609-3.944-2.244c-1.179-1.02-1.769-2.368-1.769-4.045c0-1.678,0.601-3.027,1.803-4.047
			c1.178-1.042,2.629-1.564,4.352-1.564c2.856,0,4.873,1.066,6.052,3.197l-1.325,0.577c-0.454-0.748-0.998-1.303-1.633-1.666
			c-0.793-0.498-1.824-0.747-3.094-0.747c-1.338,0-2.448,0.373-3.332,1.121c-0.952,0.794-1.428,1.836-1.428,3.129
			c0,1.155,0.498,2.164,1.496,3.025c0.566,0.453,1.7,1.065,3.399,1.836c1.065,0.477,1.983,0.947,2.755,1.411
			c0.77,0.465,1.394,0.935,1.869,1.411c1.314,1.291,1.973,2.901,1.973,4.828C1544.719,408.91,1543.416,410.939,1540.809,411.914z"/>
		<path d="M1548.356,399.47v12.647h-1.394V399.47h-1.904v-1.394h1.904v-6.154h1.394v6.154h3.265v1.394H1548.356z"/>
		<path d="M1564.949,412.117v-2.414c-1.474,1.769-3.344,2.652-5.61,2.652c-2.04,0-3.751-0.691-5.134-2.074
			c-1.405-1.404-2.107-3.127-2.107-5.168c0-2.039,0.69-3.751,2.073-5.134c1.405-1.405,3.128-2.108,5.168-2.108
			c2.244,0,4.114,0.885,5.61,2.652v-2.447h1.394v14.041H1564.949z M1563.487,400.966c-1.156-1.156-2.539-1.734-4.148-1.734
			c-1.632,0-3.015,0.567-4.147,1.7c-1.156,1.156-1.734,2.55-1.734,4.182c0,1.609,0.578,2.992,1.734,4.148s2.538,1.734,4.147,1.734
			c1.633,0,3.015-0.566,4.148-1.7c1.156-1.156,1.734-2.55,1.734-4.183C1565.221,403.504,1564.643,402.121,1563.487,400.966z"/>
		<path d="M1572.598,399.47v12.647h-1.394V399.47h-1.904v-1.394h1.904v-6.154h1.394v6.154h3.265v1.394H1572.598z"/>
		<path d="M1579.262,404.808c0,1.904,0.511,3.411,1.53,4.522c1.065,1.133,2.527,1.699,4.386,1.699c0.952,0,1.813-0.158,2.584-0.476
			c0.975-0.408,1.848-1.235,2.618-2.481l1.258,0.578c-0.884,1.677-2.243,2.811-4.08,3.399c-0.702,0.226-1.495,0.34-2.38,0.34
			c-2.107,0-3.842-0.69-5.201-2.073c-1.384-1.383-2.074-3.117-2.074-5.203c0-2.107,0.68-3.842,2.04-5.201
			c1.382-1.383,3.128-2.074,5.235-2.074c2.086,0,3.809,0.646,5.168,1.938c1.383,1.293,2.074,2.971,2.074,5.032H1579.262z
			 M1588.85,400.354c-1.065-0.77-2.289-1.156-3.672-1.156c-2.901,0-4.806,1.428-5.712,4.284h11.391
			C1590.629,402.189,1589.96,401.147,1588.85,400.354z"/>
	</g>
</g>
<g>
	<g>
		<path d="M1426.721,454.635c-1.405,1.406-3.128,2.108-5.168,2.108s-3.751-0.69-5.134-2.073c-1.405-1.406-2.107-3.129-2.107-5.168
			c0-2.018,0.702-3.729,2.107-5.135c1.383-1.428,3.094-2.142,5.134-2.142c2.018,0,3.729,0.702,5.135,2.108
			c1.404,1.405,2.107,3.127,2.107,5.168C1428.795,451.541,1428.104,453.253,1426.721,454.635z M1425.736,445.319
			c-1.134-1.155-2.528-1.733-4.183-1.733c-1.587,0-2.958,0.59-4.113,1.768c-1.18,1.179-1.769,2.562-1.769,4.148
			c0,1.609,0.578,2.991,1.734,4.147c1.156,1.155,2.538,1.733,4.147,1.733c1.633,0,3.015-0.566,4.148-1.699
			c1.156-1.156,1.734-2.551,1.734-4.182C1427.436,447.848,1426.869,446.453,1425.736,445.319z"/>
		<path d="M1444.571,454.635c-1.405,1.406-3.128,2.108-5.168,2.108c-2.334,0-4.262-0.952-5.779-2.856v9.215h-1.395v-20.639h1.395
			v2.652c1.45-1.904,3.377-2.855,5.779-2.855c2.04,0,3.752,0.691,5.135,2.074c1.404,1.405,2.107,3.127,2.107,5.168
			C1446.645,451.541,1445.954,453.253,1444.571,454.635z M1443.551,445.354c-1.156-1.156-2.539-1.734-4.148-1.734
			c-1.632,0-3.015,0.566-4.147,1.7c-1.156,1.156-1.734,2.55-1.734,4.183c0,1.609,0.578,2.991,1.734,4.147
			c1.156,1.155,2.538,1.733,4.147,1.733c1.633,0,3.015-0.566,4.148-1.699c1.156-1.156,1.734-2.551,1.734-4.182
			C1445.286,447.893,1444.708,446.51,1443.551,445.354z"/>
		<path d="M1465.718,456.506v-9.69c0-0.861-0.283-1.609-0.85-2.244c-0.566-0.634-1.383-0.952-2.448-0.952
			c-2.198,0-3.298,1.066-3.298,3.196v9.69h-1.394v-9.69c0-0.952-0.318-1.712-0.952-2.278c-0.658-0.611-1.439-0.918-2.347-0.918
			c-0.93,0-1.711,0.295-2.346,0.885c-0.635,0.566-0.952,1.337-0.952,2.312v9.69h-1.394v-14.043h1.394v1.395
			c0.681-1.065,1.779-1.598,3.298-1.598c1.813,0,3.15,0.736,4.013,2.209c0.815-1.473,2.142-2.209,3.978-2.209
			c1.405,0,2.538,0.396,3.4,1.189c0.861,0.816,1.292,1.938,1.292,3.366v9.69H1465.718z"/>
		<path d="M1472.212,446.68c-0.25,0-0.511-0.103-0.782-0.307c-0.204-0.203-0.318-0.476-0.34-0.816c0-0.611,0.374-0.985,1.122-1.121
			c0.565,0,0.939,0.374,1.121,1.121C1473.333,446.305,1472.959,446.68,1472.212,446.68z M1472.212,456.709
			c-0.25,0-0.511-0.102-0.782-0.306c-0.204-0.204-0.318-0.476-0.34-0.815c0-0.612,0.374-0.986,1.122-1.123
			c0.565,0,0.939,0.375,1.121,1.123C1473.333,456.336,1472.959,456.709,1472.212,456.709z"/>
		<path d="M1495.978,455.077c-1.27,0.93-2.992,1.496-5.168,1.7c-0.25,0.022-0.521,0.039-0.816,0.051s-0.601,0.018-0.918,0.018
			c-3.672,0-6.664-1.156-8.976-3.469c-2.335-2.334-3.502-5.338-3.502-9.01s1.156-6.664,3.468-8.976
			c2.334-2.335,5.338-3.503,9.01-3.503c2.085,0,3.967,0.307,5.645,0.918c0.997,0.387,1.96,0.941,2.89,1.666v1.734
			c-0.952-0.793-1.995-1.428-3.128-1.904c-1.723-0.701-3.524-1.053-5.406-1.053c-3.219,0-5.87,1.042-7.956,3.127
			c-2.085,2.086-3.128,4.749-3.128,7.99c0,3.242,1.031,5.895,3.095,7.956c2.085,2.086,4.748,3.128,7.989,3.128
			c2.018,0,3.774-0.362,5.271-1.088c0.861-0.43,1.949-1.122,3.264-2.074v1.598L1495.978,455.077z"/>
		<path d="M1508.456,455.281c-0.93,0.998-2.232,1.496-3.909,1.496c-1.655,0-2.937-0.487-3.843-1.462s-1.359-2.335-1.359-4.08v-8.772
			h1.394v8.772c0,1.338,0.295,2.368,0.884,3.095c0.612,0.725,1.587,1.088,2.925,1.088c2.605,0,3.909-1.395,3.909-4.183v-8.772h1.36
			v8.772C1509.816,452.958,1509.363,454.307,1508.456,455.281z"/>
		<path d="M1520.73,444.537c-0.363-0.271-0.748-0.486-1.156-0.646s-0.839-0.238-1.292-0.238c-0.386,0-0.748,0.119-1.088,0.356
			c-0.34,0.238-0.635,0.533-0.884,0.885c-0.25,0.352-0.448,0.742-0.595,1.173c-0.148,0.431-0.222,0.827-0.222,1.19v9.248h-1.394
			v-14.043h1.394v1.904c0.295-0.521,0.681-0.997,1.156-1.428c0.476-0.43,0.997-0.646,1.564-0.646c0.702,0,1.28,0.08,1.733,0.238
			c0.453,0.159,0.963,0.441,1.53,0.85L1520.73,444.537z"/>
		<path d="M1531.27,444.537c-0.363-0.271-0.748-0.486-1.156-0.646s-0.839-0.238-1.292-0.238c-0.386,0-0.748,0.119-1.088,0.356
			c-0.34,0.238-0.635,0.533-0.884,0.885c-0.25,0.352-0.448,0.742-0.595,1.173c-0.148,0.431-0.222,0.827-0.222,1.19v9.248h-1.394
			v-14.043h1.394v1.904c0.295-0.521,0.681-0.997,1.156-1.428c0.476-0.43,0.997-0.646,1.564-0.646c0.702,0,1.28,0.08,1.733,0.238
			c0.453,0.159,0.963,0.441,1.53,0.85L1531.27,444.537z"/>
		<path d="M1533.446,449.195c0,1.904,0.511,3.412,1.53,4.521c1.065,1.135,2.527,1.701,4.386,1.701c0.952,0,1.813-0.158,2.584-0.477
			c0.975-0.408,1.848-1.235,2.618-2.482l1.258,0.578c-0.884,1.678-2.243,2.811-4.08,3.4c-0.702,0.227-1.495,0.34-2.38,0.34
			c-2.107,0-3.842-0.691-5.201-2.074c-1.384-1.382-2.074-3.116-2.074-5.201c0-2.108,0.68-3.843,2.04-5.203
			c1.382-1.382,3.128-2.073,5.235-2.073c2.086,0,3.809,0.646,5.168,1.938c1.383,1.291,2.074,2.969,2.074,5.031H1533.446z
			 M1543.034,444.741c-1.065-0.771-2.289-1.155-3.672-1.155c-2.901,0-4.806,1.428-5.712,4.283h11.391
			C1544.813,446.577,1544.144,445.535,1543.034,444.741z"/>
		<path d="M1559.286,456.506v-8.398c0-2.969-1.338-4.454-4.013-4.454c-1.314,0-2.312,0.386-2.991,1.156
			c-0.703,0.771-1.055,1.825-1.055,3.161v8.535h-1.394v-14.043h1.394v1.701c0.635-1.247,1.983-1.871,4.046-1.871
			c1.745,0,3.083,0.499,4.013,1.496c0.929,0.998,1.394,2.393,1.394,4.182v8.535H1559.286z"/>
		<path d="M1567.275,443.857v12.648h-1.394v-12.648h-1.904v-1.395h1.904v-6.153h1.394v6.153h3.265v1.395H1567.275z"/>
		<path d="M1584.616,442.668c-1.271,1.133-2.834,1.699-4.692,1.699h-4.556v12.139h-1.36v-24.276h5.916
			c1.858,0,3.422,0.544,4.692,1.632c1.269,1.088,1.903,2.55,1.903,4.387C1586.519,440.106,1585.884,441.58,1584.616,442.668z
			 M1583.561,434.779c-0.93-0.77-2.153-1.156-3.672-1.156h-4.521v9.35h4.521c1.496,0,2.742-0.407,3.74-1.223
			c0.997-0.861,1.496-2.029,1.496-3.502C1585.125,436.774,1584.604,435.618,1583.561,434.779z"/>
		<path d="M1594.612,444.537c-0.363-0.271-0.748-0.486-1.156-0.646s-0.839-0.238-1.292-0.238c-0.386,0-0.748,0.119-1.088,0.356
			c-0.34,0.238-0.635,0.533-0.884,0.885c-0.25,0.352-0.448,0.742-0.595,1.173c-0.148,0.431-0.222,0.827-0.222,1.19v9.248h-1.394
			v-14.043h1.394v1.904c0.295-0.521,0.681-0.997,1.156-1.428c0.476-0.43,0.997-0.646,1.564-0.646c0.702,0,1.28,0.08,1.733,0.238
			c0.453,0.159,0.963,0.441,1.53,0.85L1594.612,444.537z"/>
		<path d="M1607.735,454.635c-1.405,1.406-3.128,2.108-5.168,2.108s-3.751-0.69-5.134-2.073c-1.405-1.406-2.107-3.129-2.107-5.168
			c0-2.018,0.702-3.729,2.107-5.135c1.383-1.428,3.094-2.142,5.134-2.142c2.018,0,3.729,0.702,5.135,2.108
			c1.404,1.405,2.107,3.127,2.107,5.168C1609.809,451.541,1609.118,453.253,1607.735,454.635z M1606.75,445.319
			c-1.134-1.155-2.528-1.733-4.183-1.733c-1.587,0-2.958,0.59-4.113,1.768c-1.18,1.179-1.769,2.562-1.769,4.148
			c0,1.609,0.578,2.991,1.734,4.147c1.156,1.155,2.538,1.733,4.147,1.733c1.633,0,3.015-0.566,4.148-1.699
			c1.156-1.156,1.734-2.551,1.734-4.182C1608.45,447.848,1607.882,446.453,1606.75,445.319z"/>
		<path d="M1625.584,454.635c-1.405,1.406-3.128,2.108-5.168,2.108c-2.334,0-4.262-0.952-5.779-2.856v9.215h-1.395v-20.639h1.395
			v2.652c1.45-1.904,3.377-2.855,5.779-2.855c2.04,0,3.752,0.691,5.135,2.074c1.404,1.405,2.107,3.127,2.107,5.168
			C1627.659,451.541,1626.967,453.253,1625.584,454.635z M1624.565,445.354c-1.156-1.156-2.539-1.734-4.148-1.734
			c-1.632,0-3.015,0.566-4.147,1.7c-1.156,1.156-1.734,2.55-1.734,4.183c0,1.609,0.578,2.991,1.734,4.147
			c1.156,1.155,2.538,1.733,4.147,1.733c1.633,0,3.015-0.566,4.148-1.699c1.156-1.156,1.734-2.551,1.734-4.182
			C1626.299,447.893,1625.721,446.51,1624.565,445.354z"/>
		<path d="M1631.024,449.195c0,1.904,0.511,3.412,1.53,4.521c1.065,1.135,2.527,1.701,4.386,1.701c0.952,0,1.813-0.158,2.584-0.477
			c0.975-0.408,1.848-1.235,2.618-2.482l1.258,0.578c-0.884,1.678-2.243,2.811-4.08,3.4c-0.702,0.227-1.495,0.34-2.38,0.34
			c-2.107,0-3.842-0.691-5.201-2.074c-1.384-1.382-2.074-3.116-2.074-5.201c0-2.108,0.68-3.843,2.04-5.203
			c1.382-1.382,3.128-2.073,5.235-2.073c2.086,0,3.809,0.646,5.168,1.938c1.383,1.291,2.074,2.969,2.074,5.031H1631.024z
			 M1640.612,444.741c-1.065-0.771-2.289-1.155-3.672-1.155c-2.901,0-4.806,1.428-5.712,4.283h11.391
			C1642.391,446.577,1641.722,445.535,1640.612,444.741z"/>
		<path d="M1654.042,444.537c-0.363-0.271-0.748-0.486-1.156-0.646s-0.839-0.238-1.292-0.238c-0.386,0-0.748,0.119-1.088,0.356
			c-0.34,0.238-0.635,0.533-0.884,0.885c-0.25,0.352-0.448,0.742-0.595,1.173c-0.148,0.431-0.222,0.827-0.222,1.19v9.248h-1.394
			v-14.043h1.394v1.904c0.295-0.521,0.681-0.997,1.156-1.428c0.476-0.43,0.997-0.646,1.564-0.646c0.702,0,1.28,0.08,1.733,0.238
			c0.453,0.159,0.963,0.441,1.53,0.85L1654.042,444.537z"/>
		<path d="M1660.06,443.857v12.648h-1.394v-12.648h-1.904v-1.395h1.904v-6.153h1.394v6.153h3.265v1.395H1660.06z"/>
		<path d="M1669.002,463.102h-1.563l3.638-7.889l-5.916-12.75h1.496l5.235,11.084l5.168-11.084h1.53L1669.002,463.102z"/>
		<path d="M1688.621,456.301c-0.884,0.318-1.927,0.477-3.128,0.477c-3.718,0-6.109-1.756-7.174-5.27l1.394-0.477
			c0.793,2.902,2.72,4.352,5.78,4.352c1.745,0,3.116-0.43,4.114-1.291c1.02-0.885,1.529-2.176,1.529-3.877
			c0-1.608-0.601-2.945-1.802-4.012c-0.317-0.294-0.805-0.623-1.462-0.986c-0.658-0.361-1.496-0.77-2.516-1.224
			c-1.928-0.86-3.242-1.608-3.944-2.243c-1.179-1.021-1.769-2.369-1.769-4.047c0-1.677,0.601-3.025,1.803-4.046
			c1.178-1.042,2.629-1.563,4.352-1.563c2.856,0,4.873,1.065,6.052,3.195l-1.325,0.578c-0.454-0.748-0.998-1.303-1.633-1.666
			c-0.793-0.498-1.824-0.748-3.094-0.748c-1.338,0-2.448,0.374-3.332,1.122c-0.952,0.794-1.428,1.836-1.428,3.128
			c0,1.156,0.498,2.165,1.496,3.026c0.566,0.454,1.7,1.065,3.399,1.836c1.065,0.476,1.983,0.946,2.755,1.411
			c0.77,0.465,1.394,0.935,1.869,1.41c1.314,1.293,1.973,2.902,1.973,4.828C1692.531,453.299,1691.227,455.327,1688.621,456.301z"/>
		<path d="M1696.167,443.857v12.648h-1.394v-12.648h-1.904v-1.395h1.904v-6.153h1.394v6.153h3.265v1.395H1696.167z"/>
		<path d="M1712.76,456.506v-2.414c-1.474,1.768-3.344,2.651-5.61,2.651c-2.04,0-3.751-0.69-5.134-2.073
			c-1.405-1.406-2.107-3.129-2.107-5.168c0-2.041,0.69-3.752,2.073-5.135c1.405-1.404,3.128-2.107,5.168-2.107
			c2.244,0,4.114,0.884,5.61,2.651v-2.448h1.394v14.043H1712.76z M1711.298,445.354c-1.156-1.156-2.539-1.734-4.148-1.734
			c-1.632,0-3.015,0.566-4.147,1.7c-1.156,1.156-1.734,2.55-1.734,4.183c0,1.609,0.578,2.991,1.734,4.147
			c1.156,1.155,2.538,1.733,4.147,1.733c1.633,0,3.015-0.566,4.148-1.699c1.156-1.156,1.734-2.551,1.734-4.182
			C1713.033,447.893,1712.455,446.51,1711.298,445.354z"/>
		<path d="M1720.41,443.857v12.648h-1.394v-12.648h-1.904v-1.395h1.904v-6.153h1.394v6.153h3.265v1.395H1720.41z"/>
		<path d="M1727.074,449.195c0,1.904,0.511,3.412,1.53,4.521c1.065,1.135,2.527,1.701,4.386,1.701c0.952,0,1.813-0.158,2.584-0.477
			c0.975-0.408,1.848-1.235,2.618-2.482l1.258,0.578c-0.884,1.678-2.243,2.811-4.08,3.4c-0.702,0.227-1.495,0.34-2.38,0.34
			c-2.107,0-3.842-0.691-5.201-2.074c-1.384-1.382-2.074-3.116-2.074-5.201c0-2.108,0.68-3.843,2.04-5.203
			c1.382-1.382,3.128-2.073,5.235-2.073c2.086,0,3.809,0.646,5.168,1.938c1.383,1.291,2.074,2.969,2.074,5.031H1727.074z
			 M1736.662,444.741c-1.065-0.771-2.289-1.155-3.672-1.155c-2.901,0-4.806,1.428-5.712,4.283h11.391
			C1738.441,446.577,1737.772,445.535,1736.662,444.741z"/>
	</g>
</g>
<g>
	<g>
		
			<line fill="none" stroke="#000000" stroke-width="0.8" stroke-miterlimit="10" x1="1405.341" y1="493.449" x2="1405.341" y2="489.449"/>
		
			<line fill="none" stroke="#000000" stroke-width="0.8" stroke-miterlimit="10" stroke-dasharray="7.5094,7.5094" x1="1405.341" y1="481.939" x2="1405.341" y2="440.639"/>
		
			<line fill="none" stroke="#000000" stroke-width="0.8" stroke-miterlimit="10" x1="1405.341" y1="436.883" x2="1405.341" y2="432.883"/>
		<g>
			<polygon points="1411.266,437.377 1405.341,434.859 1399.417,437.377 1405.341,423.332 			"/>
		</g>
	</g>
</g>
<g>
	<g>
		<path d="M889.587,413c-1.405,1.406-3.128,2.108-5.168,2.108s-3.751-0.69-5.134-2.073c-1.405-1.406-2.107-3.129-2.107-5.168
			c0-2.018,0.702-3.729,2.107-5.135c1.383-1.428,3.094-2.142,5.134-2.142c2.018,0,3.729,0.702,5.135,2.108
			c1.404,1.405,2.107,3.127,2.107,5.168C891.662,409.906,890.97,411.618,889.587,413z M888.602,403.685
			c-1.134-1.155-2.528-1.733-4.183-1.733c-1.587,0-2.958,0.59-4.113,1.768c-1.18,1.179-1.769,2.562-1.769,4.148
			c0,1.609,0.578,2.991,1.734,4.147c1.156,1.155,2.538,1.733,4.147,1.733c1.633,0,3.015-0.566,4.148-1.699
			c1.156-1.156,1.734-2.551,1.734-4.182C890.302,406.213,889.735,404.818,888.602,403.685z"/>
		<path d="M907.437,413c-1.405,1.406-3.128,2.108-5.168,2.108c-2.334,0-4.262-0.952-5.779-2.856v9.215h-1.395v-20.639h1.395v2.652
			c1.45-1.904,3.377-2.855,5.779-2.855c2.04,0,3.752,0.691,5.135,2.074c1.404,1.405,2.107,3.127,2.107,5.168
			C909.511,409.906,908.82,411.618,907.437,413z M906.417,403.719c-1.156-1.156-2.539-1.734-4.148-1.734
			c-1.632,0-3.015,0.566-4.147,1.7c-1.156,1.156-1.734,2.55-1.734,4.183c0,1.609,0.578,2.991,1.734,4.147
			c1.156,1.155,2.538,1.733,4.147,1.733c1.633,0,3.015-0.566,4.148-1.699c1.156-1.156,1.734-2.551,1.734-4.182
			C908.152,406.258,907.574,404.875,906.417,403.719z"/>
		<path d="M928.584,414.871v-9.69c0-0.861-0.283-1.609-0.85-2.244c-0.566-0.634-1.383-0.952-2.448-0.952
			c-2.198,0-3.298,1.066-3.298,3.196v9.69h-1.394v-9.69c0-0.952-0.318-1.712-0.952-2.278c-0.658-0.611-1.439-0.918-2.347-0.918
			c-0.93,0-1.711,0.295-2.346,0.885c-0.635,0.566-0.952,1.337-0.952,2.312v9.69h-1.394v-14.043h1.394v1.395
			c0.681-1.065,1.779-1.598,3.298-1.598c1.813,0,3.15,0.736,4.013,2.209c0.815-1.473,2.142-2.209,3.978-2.209
			c1.405,0,2.538,0.396,3.4,1.189c0.861,0.816,1.292,1.938,1.292,3.366v9.69H928.584z"/>
		<path d="M935.079,405.045c-0.25,0-0.511-0.103-0.782-0.307c-0.204-0.203-0.318-0.476-0.34-0.816c0-0.611,0.374-0.985,1.122-1.121
			c0.565,0,0.939,0.374,1.121,1.121C936.2,404.67,935.826,405.045,935.079,405.045z M935.079,415.074
			c-0.25,0-0.511-0.102-0.782-0.306c-0.204-0.204-0.318-0.476-0.34-0.815c0-0.612,0.374-0.986,1.122-1.123
			c0.565,0,0.939,0.375,1.121,1.123C936.2,414.701,935.826,415.074,935.079,415.074z"/>
		<path d="M950.957,401.033c-1.271,1.133-2.834,1.699-4.692,1.699h-4.556v12.139h-1.36v-24.276h5.916
			c1.858,0,3.422,0.544,4.692,1.632c1.269,1.088,1.903,2.55,1.903,4.387C952.86,398.472,952.225,399.945,950.957,401.033z
			 M949.902,393.145c-0.93-0.77-2.153-1.156-3.672-1.156h-4.521v9.35h4.521c1.496,0,2.742-0.407,3.74-1.223
			c0.997-0.861,1.496-2.029,1.496-3.502C951.466,395.14,950.945,393.983,949.902,393.145z"/>
		<path d="M960.953,402.902c-0.363-0.271-0.748-0.486-1.156-0.646s-0.839-0.238-1.292-0.238c-0.386,0-0.748,0.119-1.088,0.356
			c-0.34,0.238-0.635,0.533-0.884,0.885c-0.25,0.352-0.448,0.742-0.595,1.173c-0.148,0.431-0.222,0.827-0.222,1.19v9.248h-1.394
			v-14.043h1.394v1.904c0.295-0.521,0.681-0.997,1.156-1.428c0.476-0.43,0.997-0.646,1.564-0.646c0.702,0,1.28,0.08,1.733,0.238
			c0.453,0.159,0.963,0.441,1.53,0.85L960.953,402.902z"/>
		<path d="M974.077,413c-1.405,1.406-3.128,2.108-5.168,2.108s-3.751-0.69-5.134-2.073c-1.405-1.406-2.107-3.129-2.107-5.168
			c0-2.018,0.702-3.729,2.107-5.135c1.383-1.428,3.094-2.142,5.134-2.142c2.018,0,3.729,0.702,5.135,2.108
			c1.404,1.405,2.107,3.127,2.107,5.168C976.151,409.906,975.459,411.618,974.077,413z M973.091,403.685
			c-1.134-1.155-2.528-1.733-4.183-1.733c-1.587,0-2.958,0.59-4.113,1.768c-1.18,1.179-1.769,2.562-1.769,4.148
			c0,1.609,0.578,2.991,1.734,4.147c1.156,1.155,2.538,1.733,4.147,1.733c1.633,0,3.015-0.566,4.148-1.699
			c1.156-1.156,1.734-2.551,1.734-4.182C974.792,406.213,974.224,404.818,973.091,403.685z"/>
		<path d="M991.926,413c-1.405,1.406-3.128,2.108-5.168,2.108c-2.334,0-4.262-0.952-5.779-2.856v9.215h-1.395v-20.639h1.395v2.652
			c1.45-1.904,3.377-2.855,5.779-2.855c2.04,0,3.752,0.691,5.135,2.074c1.404,1.405,2.107,3.127,2.107,5.168
			C994,409.906,993.309,411.618,991.926,413z M990.907,403.719c-1.156-1.156-2.539-1.734-4.148-1.734
			c-1.632,0-3.015,0.566-4.147,1.7c-1.156,1.156-1.734,2.55-1.734,4.183c0,1.609,0.578,2.991,1.734,4.147
			c1.156,1.155,2.538,1.733,4.147,1.733c1.633,0,3.015-0.566,4.148-1.699c1.156-1.156,1.734-2.551,1.734-4.182
			C992.641,406.258,992.063,404.875,990.907,403.719z"/>
		<path d="M997.366,407.561c0,1.904,0.511,3.412,1.53,4.521c1.065,1.135,2.527,1.701,4.386,1.701c0.952,0,1.813-0.158,2.584-0.477
			c0.975-0.408,1.848-1.235,2.618-2.482l1.258,0.578c-0.884,1.678-2.243,2.811-4.08,3.4c-0.702,0.227-1.495,0.34-2.38,0.34
			c-2.107,0-3.842-0.691-5.201-2.074c-1.384-1.382-2.074-3.116-2.074-5.201c0-2.108,0.68-3.843,2.04-5.203
			c1.382-1.382,3.128-2.073,5.235-2.073c2.086,0,3.809,0.646,5.168,1.938c1.383,1.291,2.074,2.969,2.074,5.031H997.366z
			 M1006.954,403.106c-1.065-0.771-2.289-1.155-3.672-1.155c-2.901,0-4.806,1.428-5.712,4.283h11.391
			C1008.733,404.942,1008.064,403.9,1006.954,403.106z"/>
		<path d="M1020.383,402.902c-0.363-0.271-0.748-0.486-1.156-0.646s-0.839-0.238-1.292-0.238c-0.386,0-0.748,0.119-1.088,0.356
			c-0.34,0.238-0.635,0.533-0.884,0.885c-0.25,0.352-0.448,0.742-0.595,1.173c-0.148,0.431-0.222,0.827-0.222,1.19v9.248h-1.394
			v-14.043h1.394v1.904c0.295-0.521,0.681-0.997,1.156-1.428c0.476-0.43,0.997-0.646,1.564-0.646c0.702,0,1.28,0.08,1.733,0.238
			c0.453,0.159,0.963,0.441,1.53,0.85L1020.383,402.902z"/>
		<path d="M1026.401,402.223v12.648h-1.394v-12.648h-1.904v-1.395h1.904v-6.153h1.394v6.153h3.265v1.395H1026.401z"/>
		<path d="M1035.343,421.467h-1.563l3.638-7.889l-5.916-12.75h1.496l5.235,11.084l5.168-11.084h1.53L1035.343,421.467z"/>
	</g>
</g>
<g>
	<g>
		
			<line fill="none" stroke="#000000" stroke-width="0.8" stroke-miterlimit="10" x1="960.833" y1="493.449" x2="960.833" y2="489.449"/>
		
			<line fill="none" stroke="#000000" stroke-width="0.8" stroke-miterlimit="10" stroke-dasharray="7.5094,7.5094" x1="960.833" y1="481.939" x2="960.833" y2="440.639"/>
		
			<line fill="none" stroke="#000000" stroke-width="0.8" stroke-miterlimit="10" x1="960.833" y1="436.883" x2="960.833" y2="432.883"/>
		<g>
			<polygon points="966.758,437.377 960.833,434.859 954.909,437.377 960.833,423.332 			"/>
		</g>
	</g>
</g>
<g>
	<g>
		
			<line fill="none" stroke="#000000" stroke-width="0.8286" stroke-miterlimit="10" x1="1405.341" y1="579.125" x2="1405.341" y2="657.148"/>
		<g>
			<polygon points="1399.205,652.494 1405.341,655.102 1411.478,652.494 1405.341,667.043 			"/>
		</g>
	</g>
</g>
<g>
	<g>
		<path fill="none" stroke="#000000" stroke-width="0.8" stroke-miterlimit="10" d="M1506.341,536.73
			c53.452,0,68.86-22.609,70.646-66.674"/>
		<g>
			<polygon points="1582.733,474.695 1576.875,472.027 1570.886,474.393 1577.169,460.504 			"/>
		</g>
	</g>
</g>
<g>
	<g>
		<path fill="none" stroke="#000000" stroke-width="0.8" stroke-miterlimit="10" d="M1351.529,579.125
			c0,0-2.581,48.568-47.257,54.654"/>
		<g>
			<polygon points="1308.271,627.381 1306.232,633.488 1309.21,639.193 1294.74,634.402 			"/>
		</g>
	</g>
</g>
<g>
	<g>
		<path d="M1241.921,677.506v-3.979c0-0.748,0.204-1.281,0.611-1.598h0.681c-0.408,0.453-0.612,0.986-0.612,1.598v1.529h1.122v2.449
			H1241.921z M1245.832,677.506v-3.979c0-0.748,0.204-1.281,0.611-1.598h0.681c-0.408,0.453-0.612,0.986-0.612,1.598v1.529h1.122
			v2.449H1245.832z"/>
		<path d="M1264.157,684.475c-0.204,0.25-0.51,0.619-0.918,1.105c-0.408,0.488-0.93,1.094-1.564,1.818l-6.97,7.889h11.628v1.395
			h-14.688l11.899-13.77c0.952-1.361,1.429-2.777,1.429-4.25c0-1.43-0.567-2.641-1.7-3.639c-1.134-0.975-2.448-1.463-3.944-1.463
			c-1.836,0-3.275,0.59-4.317,1.77c-0.636,0.701-1.077,1.574-1.326,2.617h-1.53c0.158-1.178,0.748-2.346,1.768-3.502
			c1.36-1.496,3.162-2.244,5.406-2.244c1.927,0,3.581,0.602,4.964,1.803c1.383,1.178,2.074,2.73,2.074,4.658
			C1266.367,680.633,1265.63,682.57,1264.157,684.475z"/>
		<path d="M1284.557,692.736c-1.632,2.857-3.944,4.285-6.937,4.285c-2.969,0-5.27-1.439-6.901-4.318
			c-1.338-2.357-2.006-5.145-2.006-8.363c0-3.242,0.668-6.041,2.006-8.398c1.632-2.879,3.933-4.318,6.901-4.318
			c2.97,0,5.271,1.439,6.902,4.318c1.337,2.402,2.006,5.201,2.006,8.398C1286.529,687.604,1285.872,690.402,1284.557,692.736z
			 M1283.469,676.961c-1.338-2.629-3.287-3.943-5.849-3.943c-2.289,0-4.137,1.178-5.542,3.535c-1.246,2.131-1.869,4.727-1.869,7.787
			c0,2.787,0.532,5.225,1.598,7.309c1.36,2.631,3.298,3.945,5.813,3.945c2.335,0,4.193-1.168,5.576-3.502
			c1.247-2.063,1.87-4.646,1.87-7.752C1285.067,681.506,1284.535,679.047,1283.469,676.961z"/>
		<path d="M1291.221,696.682v-22.883h-4.114l0.918-1.395h4.59v24.277H1291.221z"/>
		<path d="M1309.038,695.186c-1.338,1.291-3.026,1.938-5.066,1.938c-2.063,0-3.763-0.635-5.1-1.904
			c-1.338-1.291-2.006-2.957-2.006-4.998c0-1.473,0.396-2.775,1.189-3.91c0.794-1.109,1.904-1.938,3.332-2.48
			c-1.134-0.342-2.04-1.066-2.72-2.178c-0.657-1.064-0.986-2.197-0.986-3.398c0-1.836,0.578-3.332,1.734-4.488
			c1.156-1.18,2.652-1.768,4.488-1.768c1.858,0,3.366,0.576,4.521,1.732c1.156,1.156,1.734,2.664,1.734,4.523
			c0,1.27-0.34,2.426-1.021,3.467c-0.657,1.02-1.586,1.723-2.787,2.109c1.224,0.453,2.221,1.1,2.991,1.938
			c1.11,1.178,1.666,2.664,1.666,4.453C1311.009,692.238,1310.352,693.893,1309.038,695.186z M1307.95,686.277
			c-0.567-0.566-1.185-1.014-1.854-1.344c-0.668-0.328-1.399-0.492-2.192-0.492c-0.771,0-1.485,0.164-2.143,0.492
			c-0.657,0.33-1.27,0.766-1.836,1.309c-1.134,1.135-1.7,2.461-1.7,3.979c0,1.543,0.533,2.846,1.599,3.91
			c1.088,1.088,2.448,1.633,4.08,1.633c1.654,0,3.014-0.521,4.08-1.564c1.11-1.043,1.666-2.369,1.666-3.979
			C1309.65,688.68,1309.083,687.365,1307.95,686.277z M1307.406,674.752c-0.93-0.93-2.097-1.395-3.502-1.395
			c-1.383,0-2.539,0.465-3.468,1.395c-0.93,0.93-1.395,2.096-1.395,3.502c0,1.359,0.465,2.504,1.395,3.434
			c0.453,0.453,0.969,0.828,1.547,1.121c0.578,0.295,1.218,0.443,1.921,0.443c0.725,0,1.377-0.137,1.955-0.408
			c0.578-0.273,1.093-0.635,1.547-1.088c0.929-0.93,1.394-2.098,1.394-3.502C1308.799,676.848,1308.334,675.682,1307.406,674.752z"
			/>
		<path d="M1313.764,688.385v-1.395h7.174v1.395H1313.764z"/>
		<path d="M1338.821,692.736c-1.632,2.857-3.944,4.285-6.937,4.285c-2.969,0-5.27-1.439-6.901-4.318
			c-1.338-2.357-2.006-5.145-2.006-8.363c0-3.242,0.668-6.041,2.006-8.398c1.632-2.879,3.933-4.318,6.901-4.318
			c2.97,0,5.271,1.439,6.902,4.318c1.337,2.402,2.006,5.201,2.006,8.398C1340.792,687.604,1340.135,690.402,1338.821,692.736z
			 M1337.733,676.961c-1.338-2.629-3.287-3.943-5.849-3.943c-2.289,0-4.137,1.178-5.542,3.535c-1.246,2.131-1.869,4.727-1.869,7.787
			c0,2.787,0.532,5.225,1.598,7.309c1.36,2.631,3.298,3.945,5.813,3.945c2.335,0,4.193-1.168,5.576-3.502
			c1.247-2.063,1.87-4.646,1.87-7.752C1339.331,681.506,1338.798,679.047,1337.733,676.961z"/>
		<path d="M1354.325,694.98c-1.314,1.248-2.98,1.871-4.997,1.871c-1.678,0-3.117-0.465-4.318-1.395
			c-1.156-0.93-1.927-2.232-2.313-3.91h1.496c0.295,1.111,0.94,2.041,1.938,2.789c0.974,0.748,2.04,1.121,3.196,1.121
			c1.495,0,2.775-0.51,3.842-1.529c1.064-1.066,1.598-2.334,1.598-3.809c0-1.836-0.657-3.275-1.972-4.318
			c-0.998-0.793-2.018-1.189-3.061-1.189h-1.428v-2.006h1.428c1.429,0,2.572-0.396,3.435-1.189c0.838-0.771,1.258-1.893,1.258-3.367
			c0-1.404-0.454-2.549-1.36-3.434c-0.906-0.906-2.074-1.359-3.502-1.359c-2.72,0-4.363,1.428-4.93,4.283h-1.598
			c0.203-1.768,0.895-3.15,2.073-4.148c1.179-1.02,2.663-1.529,4.454-1.529c1.858,0,3.411,0.566,4.658,1.699
			c1.246,1.111,1.87,2.607,1.87,4.488c0,3.016-1.519,4.863-4.556,5.543c3.173,0.951,4.76,3.127,4.76,6.527
			C1356.297,692.137,1355.639,693.758,1354.325,694.98z"/>
		<path d="M1359.324,688.385v-1.395h7.174v1.395H1359.324z"/>
		<path d="M1382.511,684.475c-0.204,0.25-0.51,0.619-0.918,1.105c-0.408,0.488-0.93,1.094-1.564,1.818l-6.97,7.889h11.628v1.395
			H1370l11.899-13.77c0.952-1.361,1.429-2.777,1.429-4.25c0-1.43-0.567-2.641-1.7-3.639c-1.134-0.975-2.448-1.463-3.944-1.463
			c-1.836,0-3.275,0.59-4.317,1.77c-0.636,0.701-1.077,1.574-1.326,2.617h-1.53c0.158-1.178,0.748-2.346,1.768-3.502
			c1.36-1.496,3.162-2.244,5.406-2.244c1.927,0,3.581,0.602,4.964,1.803c1.383,1.178,2.074,2.73,2.074,4.658
			C1384.721,680.633,1383.985,682.57,1382.511,684.475z"/>
		<path d="M1399.784,684.475c-0.204,0.25-0.51,0.619-0.918,1.105c-0.408,0.488-0.93,1.094-1.564,1.818l-6.97,7.889h11.628v1.395
			h-14.688l11.899-13.77c0.952-1.361,1.429-2.777,1.429-4.25c0-1.43-0.567-2.641-1.7-3.639c-1.134-0.975-2.448-1.463-3.944-1.463
			c-1.836,0-3.275,0.59-4.317,1.77c-0.636,0.701-1.077,1.574-1.326,2.617h-1.53c0.158-1.178,0.748-2.346,1.768-3.502
			c1.36-1.496,3.162-2.244,5.406-2.244c1.927,0,3.581,0.602,4.964,1.803c1.383,1.178,2.074,2.73,2.074,4.658
			C1401.994,680.633,1401.257,682.57,1399.784,684.475z"/>
		<path d="M1409.78,673.799v22.883h-1.394v-22.883h-5.372v-1.395h12.138v1.395H1409.78z"/>
		<path d="M1421.986,696.682v-22.883h-4.114l0.918-1.395h4.59v24.277H1421.986z"/>
		<path d="M1439.156,684.475c-0.204,0.25-0.51,0.619-0.918,1.105c-0.408,0.488-0.93,1.094-1.564,1.818l-6.97,7.889h11.628v1.395
			h-14.688l11.899-13.77c0.952-1.361,1.429-2.777,1.429-4.25c0-1.43-0.567-2.641-1.7-3.639c-1.134-0.975-2.448-1.463-3.944-1.463
			c-1.836,0-3.275,0.59-4.317,1.77c-0.636,0.701-1.077,1.574-1.326,2.617h-1.53c0.158-1.178,0.748-2.346,1.768-3.502
			c1.36-1.496,3.162-2.244,5.406-2.244c1.927,0,3.581,0.602,4.964,1.803c1.383,1.178,2.074,2.73,2.074,4.658
			C1441.366,680.633,1440.629,682.57,1439.156,684.475z"/>
		<path d="M1445.956,686.855c-0.25,0-0.511-0.102-0.782-0.307c-0.204-0.203-0.318-0.477-0.34-0.816c0-0.611,0.374-0.984,1.122-1.121
			c0.565,0,0.939,0.373,1.121,1.121C1447.077,686.48,1446.703,686.855,1445.956,686.855z M1445.956,696.885
			c-0.25,0-0.511-0.102-0.782-0.305c-0.204-0.205-0.318-0.477-0.34-0.816c0-0.613,0.374-0.986,1.122-1.123
			c0.565,0,0.939,0.375,1.121,1.123C1447.077,696.512,1446.703,696.885,1445.956,696.885z"/>
		<path d="M1465.097,692.736c-1.632,2.857-3.944,4.285-6.937,4.285c-2.969,0-5.27-1.439-6.901-4.318
			c-1.338-2.357-2.006-5.145-2.006-8.363c0-3.242,0.668-6.041,2.006-8.398c1.632-2.879,3.933-4.318,6.901-4.318
			c2.97,0,5.271,1.439,6.902,4.318c1.337,2.402,2.006,5.201,2.006,8.398C1467.069,687.604,1466.412,690.402,1465.097,692.736z
			 M1464.009,676.961c-1.338-2.629-3.287-3.943-5.849-3.943c-2.289,0-4.137,1.178-5.542,3.535c-1.246,2.131-1.869,4.727-1.869,7.787
			c0,2.787,0.532,5.225,1.598,7.309c1.36,2.631,3.298,3.945,5.813,3.945c2.335,0,4.193-1.168,5.576-3.502
			c1.247-2.063,1.87-4.646,1.87-7.752C1465.607,681.506,1465.075,679.047,1464.009,676.961z"/>
		<path d="M1484.001,692.736c-1.632,2.857-3.944,4.285-6.937,4.285c-2.969,0-5.27-1.439-6.901-4.318
			c-1.338-2.357-2.006-5.145-2.006-8.363c0-3.242,0.668-6.041,2.006-8.398c1.632-2.879,3.933-4.318,6.901-4.318
			c2.97,0,5.271,1.439,6.902,4.318c1.337,2.402,2.006,5.201,2.006,8.398C1485.973,687.604,1485.316,690.402,1484.001,692.736z
			 M1482.914,676.961c-1.338-2.629-3.287-3.943-5.849-3.943c-2.289,0-4.137,1.178-5.542,3.535c-1.246,2.131-1.869,4.727-1.869,7.787
			c0,2.787,0.532,5.225,1.598,7.309c1.36,2.631,3.298,3.945,5.813,3.945c2.335,0,4.193-1.168,5.576-3.502
			c1.247-2.063,1.87-4.646,1.87-7.752C1484.511,681.506,1483.979,679.047,1482.914,676.961z"/>
		<path d="M1489.306,686.855c-0.25,0-0.511-0.102-0.782-0.307c-0.204-0.203-0.318-0.477-0.34-0.816c0-0.611,0.374-0.984,1.122-1.121
			c0.565,0,0.939,0.373,1.121,1.121C1490.427,686.48,1490.053,686.855,1489.306,686.855z M1489.306,696.885
			c-0.25,0-0.511-0.102-0.782-0.305c-0.204-0.205-0.318-0.477-0.34-0.816c0-0.613,0.374-0.986,1.122-1.123
			c0.565,0,0.939,0.375,1.121,1.123C1490.427,696.512,1490.053,696.885,1489.306,696.885z"/>
		<path d="M1508.447,692.736c-1.632,2.857-3.944,4.285-6.937,4.285c-2.969,0-5.27-1.439-6.901-4.318
			c-1.338-2.357-2.006-5.145-2.006-8.363c0-3.242,0.668-6.041,2.006-8.398c1.632-2.879,3.933-4.318,6.901-4.318
			c2.97,0,5.271,1.439,6.902,4.318c1.337,2.402,2.006,5.201,2.006,8.398C1510.418,687.604,1509.761,690.402,1508.447,692.736z
			 M1507.359,676.961c-1.338-2.629-3.287-3.943-5.849-3.943c-2.289,0-4.137,1.178-5.542,3.535c-1.246,2.131-1.869,4.727-1.869,7.787
			c0,2.787,0.532,5.225,1.598,7.309c1.36,2.631,3.298,3.945,5.813,3.945c2.335,0,4.193-1.168,5.576-3.502
			c1.247-2.063,1.87-4.646,1.87-7.752C1508.957,681.506,1508.424,679.047,1507.359,676.961z"/>
		<path d="M1527.351,692.736c-1.632,2.857-3.944,4.285-6.937,4.285c-2.969,0-5.27-1.439-6.901-4.318
			c-1.338-2.357-2.006-5.145-2.006-8.363c0-3.242,0.668-6.041,2.006-8.398c1.632-2.879,3.933-4.318,6.901-4.318
			c2.97,0,5.271,1.439,6.902,4.318c1.337,2.402,2.006,5.201,2.006,8.398C1529.323,687.604,1528.666,690.402,1527.351,692.736z
			 M1526.263,676.961c-1.338-2.629-3.287-3.943-5.849-3.943c-2.289,0-4.137,1.178-5.542,3.535c-1.246,2.131-1.869,4.727-1.869,7.787
			c0,2.787,0.532,5.225,1.598,7.309c1.36,2.631,3.298,3.945,5.813,3.945c2.335,0,4.193-1.168,5.576-3.502
			c1.247-2.063,1.87-4.646,1.87-7.752C1527.861,681.506,1527.329,679.047,1526.263,676.961z"/>
		<path d="M1531.499,695.287h13.872v1.395h-16.354l13.906-22.848h-13.091v-1.43h15.606L1531.499,695.287z"/>
		<path d="M1549.96,677.232h-0.68c0.408-0.43,0.612-0.963,0.612-1.598v-1.529h-1.122v-2.449h1.802v3.979
			C1550.573,676.201,1550.369,676.734,1549.96,677.232z M1553.871,677.232h-0.68c0.408-0.43,0.612-0.963,0.612-1.598v-1.529h-1.122
			v-2.449h1.802v3.979C1554.483,676.201,1554.279,676.734,1553.871,677.232z"/>
		<path d="M1562.489,677.887l-2.181-4.084l-2.22,4.084h-0.516l2.398-5.57h0.654l2.398,5.57H1562.489z"/>
		<path d="M1569.466,677.887l-2.181-4.084l-2.22,4.084h-0.516l2.398-5.57h0.654l2.398,5.57H1569.466z"/>
		<path d="M1576.642,685.359l-2.319-3.43l-2.319,3.43h-0.971l2.795-4.123l-2.735-4.064h0.951l2.279,3.391l2.26-3.391h0.951
			l-2.715,4.045l2.774,4.143H1576.642z"/>
		<path d="M1583.203,684.844c-0.528,0.449-1.163,0.674-1.902,0.674c-1.27,0-2.221-0.574-2.854-1.725l0.693-0.416
			c0.225,0.41,0.495,0.727,0.813,0.951c0.33,0.252,0.78,0.377,1.349,0.377c1.241,0,1.862-0.529,1.862-1.586
			c0-0.463-0.218-0.865-0.653-1.209c-0.133-0.08-0.321-0.168-0.565-0.268s-0.545-0.215-0.901-0.348
			c-0.661-0.238-1.137-0.475-1.428-0.713c-0.423-0.344-0.634-0.84-0.634-1.486c0-0.555,0.211-1.031,0.634-1.428
			c0.409-0.41,0.945-0.615,1.605-0.615c0.912,0,1.686,0.318,2.319,0.953l-0.595,0.514c-0.449-0.449-1.024-0.674-1.725-0.674
			c-0.951,0-1.427,0.416-1.427,1.25c0,0.369,0.146,0.674,0.436,0.912c0.238,0.184,0.615,0.363,1.13,0.535
			c0.449,0.158,0.819,0.307,1.11,0.445s0.509,0.262,0.654,0.367c0.568,0.436,0.853,1.023,0.853,1.764
			C1583.976,683.832,1583.718,684.408,1583.203,684.844z"/>
		<path d="M1592.835,685.359v-1.467c-0.872,1.07-1.982,1.605-3.33,1.605c-1.189,0-2.188-0.404-2.993-1.209
			c-0.819-0.82-1.229-1.824-1.229-3.014s0.402-2.188,1.209-2.992c0.819-0.82,1.823-1.23,3.013-1.23c1.309,0,2.419,0.535,3.33,1.605
			v-7.967h0.813v14.668H1592.835z M1591.924,678.857c-0.675-0.674-1.48-1.012-2.419-1.012c-0.951,0-1.758,0.332-2.418,0.992
			c-0.674,0.674-1.011,1.486-1.011,2.438c0,0.939,0.337,1.744,1.011,2.418s1.479,1.012,2.418,1.012c0.952,0,1.758-0.33,2.419-0.992
			c0.674-0.674,1.011-1.486,1.011-2.438C1592.935,680.338,1592.598,679.531,1591.924,678.857z"/>
		<path d="M1596.423,679.631c-0.146,0-0.297-0.061-0.456-0.18c-0.119-0.119-0.185-0.277-0.198-0.475
			c0-0.357,0.218-0.576,0.654-0.654c0.33,0,0.548,0.219,0.654,0.654C1597.078,679.412,1596.86,679.631,1596.423,679.631z
			 M1596.423,685.479c-0.146,0-0.297-0.061-0.456-0.18c-0.119-0.119-0.185-0.277-0.198-0.475c0-0.357,0.218-0.576,0.654-0.654
			c0.33,0,0.548,0.217,0.654,0.654C1597.078,685.26,1596.86,685.479,1596.423,685.479z"/>
		<path d="M1606.394,685.359v-1.467c-0.872,1.07-1.982,1.605-3.33,1.605c-1.189,0-2.188-0.404-2.993-1.209
			c-0.819-0.82-1.229-1.824-1.229-3.014s0.402-2.188,1.209-2.992c0.819-0.82,1.823-1.23,3.013-1.23c1.309,0,2.419,0.535,3.33,1.605
			v-7.967h0.813v14.668H1606.394z M1605.483,678.857c-0.675-0.674-1.48-1.012-2.419-1.012c-0.951,0-1.758,0.332-2.418,0.992
			c-0.674,0.674-1.011,1.486-1.011,2.438c0,0.939,0.337,1.744,1.011,2.418s1.479,1.012,2.418,1.012c0.952,0,1.758-0.33,2.419-0.992
			c0.674-0.674,1.011-1.486,1.011-2.438C1606.494,680.338,1606.157,679.531,1605.483,678.857z"/>
		<path d="M1616.503,685.359v-1.408c-0.859,1.031-1.949,1.547-3.271,1.547c-1.189,0-2.188-0.404-2.993-1.209
			c-0.819-0.82-1.229-1.824-1.229-3.014s0.403-2.188,1.21-2.992c0.818-0.82,1.823-1.23,3.013-1.23c1.308,0,2.398,0.516,3.271,1.547
			v-1.428h0.813v8.188H1616.503z M1615.651,678.857c-0.674-0.674-1.48-1.012-2.418-1.012c-0.951,0-1.758,0.332-2.418,0.992
			c-0.675,0.674-1.012,1.486-1.012,2.438c0,0.939,0.337,1.744,1.012,2.418c0.674,0.674,1.479,1.012,2.418,1.012
			c0.951,0,1.757-0.33,2.418-0.992c0.674-0.674,1.011-1.486,1.011-2.438C1616.662,680.338,1616.325,679.531,1615.651,678.857z"/>
		<path d="M1620.962,677.984v7.375h-0.813v-7.375h-1.11v-0.813h1.11v-3.588h0.813v3.588h1.903v0.813H1620.962z"/>
		<path d="M1624.848,681.098c0,1.109,0.297,1.988,0.892,2.637c0.621,0.66,1.474,0.99,2.558,0.99c0.555,0,1.057-0.092,1.506-0.277
			c0.568-0.238,1.077-0.721,1.526-1.447l0.733,0.338c-0.515,0.977-1.308,1.639-2.378,1.98c-0.41,0.133-0.872,0.199-1.388,0.199
			c-1.229,0-2.24-0.402-3.033-1.209c-0.806-0.807-1.209-1.816-1.209-3.033c0-1.229,0.396-2.24,1.189-3.033
			c0.806-0.805,1.823-1.209,3.053-1.209c1.216,0,2.22,0.377,3.013,1.131c0.806,0.752,1.209,1.73,1.209,2.934H1624.848z
			 M1630.438,678.5c-0.621-0.449-1.335-0.674-2.141-0.674c-1.691,0-2.802,0.832-3.33,2.498h6.641
			C1631.475,679.57,1631.085,678.963,1630.438,678.5z"/>
		<path d="M1635.552,672.02v13.34h-0.813v-13.34h-3.132v-0.814h7.077v0.814H1635.552z"/>
		<path d="M1638.763,675.705c-0.146,0-0.297-0.059-0.456-0.178c-0.119-0.119-0.186-0.277-0.198-0.477
			c0-0.355,0.218-0.574,0.654-0.654c0.33,0,0.548,0.219,0.654,0.654C1639.417,675.488,1639.2,675.705,1638.763,675.705z
			 M1638.347,685.359v-8.188h0.813v8.188H1638.347z"/>
		<path d="M1650.22,685.359v-5.65c0-0.502-0.166-0.938-0.496-1.309c-0.33-0.369-0.806-0.555-1.427-0.555
			c-1.282,0-1.923,0.621-1.923,1.863v5.65h-0.813v-5.65c0-0.555-0.186-0.996-0.556-1.328c-0.383-0.355-0.839-0.535-1.367-0.535
			c-0.542,0-0.998,0.172-1.368,0.516c-0.37,0.33-0.555,0.779-0.555,1.348v5.65h-0.813v-8.188h0.813v0.813
			c0.396-0.621,1.037-0.932,1.923-0.932c1.057,0,1.836,0.43,2.339,1.289c0.476-0.859,1.249-1.289,2.319-1.289
			c0.819,0,1.479,0.232,1.981,0.695c0.503,0.475,0.754,1.129,0.754,1.961v5.65H1650.22z"/>
		<path d="M1653.808,681.098c0,1.109,0.297,1.988,0.892,2.637c0.621,0.66,1.474,0.99,2.558,0.99c0.555,0,1.057-0.092,1.506-0.277
			c0.568-0.238,1.077-0.721,1.526-1.447l0.733,0.338c-0.515,0.977-1.308,1.639-2.378,1.98c-0.41,0.133-0.872,0.199-1.388,0.199
			c-1.229,0-2.24-0.402-3.033-1.209c-0.806-0.807-1.209-1.816-1.209-3.033c0-1.229,0.396-2.24,1.189-3.033
			c0.806-0.805,1.823-1.209,3.053-1.209c1.216,0,2.22,0.377,3.013,1.131c0.806,0.752,1.209,1.73,1.209,2.934H1653.808z
			 M1659.398,678.5c-0.621-0.449-1.335-0.674-2.141-0.674c-1.691,0-2.802,0.832-3.33,2.498h6.641
			C1660.435,679.57,1660.045,678.963,1659.398,678.5z"/>
	</g>
</g>
</svg>
