<?xml version="1.0" encoding="utf-8"?>
<!-- Generator: Adobe Illustrator 16.0.0, SVG Export Plug-In . SVG Version: 6.00 Build 0)  -->
<!DOCTYPE svg PUBLIC "-//W3C//DTD SVG 1.1//EN" "http://www.w3.org/Graphics/SVG/1.1/DTD/svg11.dtd">
<svg version="1.1" id="Layer_1" xmlns="http://www.w3.org/2000/svg" xmlns:xlink="http://www.w3.org/1999/xlink" x="0px" y="0px"
	 width="1920px" height="1080px" viewBox="0 0 1920 1080" enable-background="new 0 0 1920 1080" xml:space="preserve">
<g>
	<g>
		
			<line fill="none" stroke="#4B453C" stroke-width="12.13" stroke-miterlimit="10" x1="176.07" y1="805.981" x2="1675.286" y2="302.385"/>
		<g>
			<polygon fill="#4B453C" points="1657.293,355.814 1661.081,307.156 1628.688,270.652 1743.93,279.327 			"/>
		</g>
	</g>
</g>
<g>
	<path d="M172.31,963.557v15.925h-3.303V940.38h13.32c4.064,0,7.273,1.038,9.628,3.115c2.354,2.077,3.531,4.933,3.531,8.567
		c0,3.67-1.133,6.503-3.397,8.499c-2.265,1.997-5.545,2.995-9.842,2.995H172.31z M172.31,960.764h10.018
		c3.205,0,5.648-0.763,7.332-2.287c1.683-1.523,2.523-3.648,2.523-6.374c0-2.708-0.837-4.864-2.511-6.469s-4.051-2.425-7.13-2.461
		H172.31V960.764z"/>
	<path d="M205.718,979.482h-3.223v-41.25h3.223V979.482z"/>
	<path d="M232.789,979.482c-0.322-0.913-0.527-2.265-0.617-4.056c-1.128,1.469-2.564,2.602-4.311,3.397
		c-1.745,0.797-3.594,1.195-5.545,1.195c-2.793,0-5.054-0.778-6.781-2.337c-1.729-1.557-2.592-3.526-2.592-5.908
		c0-2.828,1.177-5.066,3.531-6.713c2.354-1.647,5.636-2.471,9.843-2.471h5.827v-3.304c0-2.077-0.64-3.71-1.92-4.901
		c-1.28-1.19-3.146-1.785-5.6-1.785c-2.237,0-4.091,0.572-5.559,1.719c-1.468,1.146-2.202,2.523-2.202,4.135l-3.223-0.026
		c0-2.31,1.074-4.311,3.223-6.002c2.148-1.692,4.789-2.538,7.923-2.538c3.24,0,5.796,0.811,7.667,2.431
		c1.87,1.62,2.833,3.88,2.887,6.78v13.75c0,2.812,0.296,4.915,0.886,6.312v0.322H232.789z M222.691,977.172
		c2.148,0,4.069-0.52,5.761-1.558c1.692-1.038,2.923-2.426,3.692-4.163v-6.391h-5.746c-3.205,0.035-5.712,0.621-7.52,1.759
		c-1.809,1.137-2.713,2.698-2.713,4.687c0,1.629,0.604,2.98,1.813,4.055C219.187,976.635,220.757,977.172,222.691,977.172z"/>
	<path d="M246.968,950.424l0.107,4.969c1.092-1.791,2.453-3.156,4.082-4.096c1.629-0.94,3.429-1.41,5.397-1.41
		c3.115,0,5.435,0.877,6.956,2.632s2.292,4.387,2.31,7.896v19.067h-3.195v-19.095c-0.019-2.596-0.569-4.529-1.652-5.801
		c-1.083-1.271-2.815-1.906-5.196-1.906c-1.987,0-3.746,0.622-5.277,1.866c-1.53,1.245-2.663,2.923-3.397,5.036v19.899h-3.195
		v-29.058H246.968z"/>
	<path d="M277.181,950.424l0.107,4.969c1.092-1.791,2.453-3.156,4.082-4.096c1.629-0.94,3.429-1.41,5.397-1.41
		c3.115,0,5.435,0.877,6.956,2.632s2.292,4.387,2.31,7.896v19.067h-3.195v-19.095c-0.019-2.596-0.569-4.529-1.652-5.801
		c-1.083-1.271-2.815-1.906-5.196-1.906c-1.987,0-3.746,0.622-5.277,1.866c-1.53,1.245-2.663,2.923-3.397,5.036v19.899h-3.195
		v-29.058H277.181z"/>
	<path d="M304.145,942.032c0-0.605,0.196-1.116,0.59-1.534c0.395-0.418,0.932-0.628,1.611-0.628c0.681,0,1.223,0.21,1.625,0.628
		c0.403,0.418,0.604,0.929,0.604,1.534s-0.201,1.112-0.604,1.521c-0.402,0.409-0.944,0.613-1.625,0.613
		c-0.68,0-1.217-0.204-1.611-0.613C304.341,943.144,304.145,942.637,304.145,942.032z M307.931,979.482h-3.223v-29.058h3.223
		V979.482z"/>
	<path d="M319.72,950.424l0.107,4.969c1.092-1.791,2.453-3.156,4.082-4.096c1.629-0.94,3.429-1.41,5.397-1.41
		c3.115,0,5.435,0.877,6.956,2.632s2.292,4.387,2.31,7.896v19.067h-3.195v-19.095c-0.019-2.596-0.569-4.529-1.652-5.801
		c-1.083-1.271-2.815-1.906-5.196-1.906c-1.987,0-3.746,0.622-5.277,1.866c-1.53,1.245-2.663,2.923-3.397,5.036v19.899h-3.195
		v-29.058H319.72z"/>
	<path d="M345.583,964.684c0-4.547,1.007-8.15,3.021-10.809c2.014-2.659,4.749-3.988,8.204-3.988c3.957,0,6.965,1.576,9.023,4.727
		l0.161-4.189H369v28.467c0,3.742-1.047,6.705-3.143,8.889c-2.094,2.185-4.932,3.277-8.513,3.277c-2.023,0-3.952-0.453-5.787-1.356
		c-1.836-0.904-3.281-2.108-4.337-3.612l1.799-1.934c2.273,2.793,4.978,4.189,8.11,4.189c2.686,0,4.78-0.792,6.284-2.377
		c1.504-1.584,2.283-3.782,2.336-6.593v-3.652c-2.059,2.864-5.058,4.297-8.996,4.297c-3.366,0-6.069-1.343-8.11-4.028
		s-3.062-6.311-3.062-10.877V964.684z M348.833,965.249c0,3.706,0.742,6.629,2.229,8.769s3.581,3.209,6.284,3.209
		c3.957,0,6.759-1.772,8.405-5.317v-13.508c-0.752-1.862-1.835-3.281-3.249-4.257s-3.115-1.464-5.103-1.464
		c-2.703,0-4.807,1.061-6.311,3.183C349.584,957.984,348.833,961.113,348.833,965.249z"/>
</g>
<g>
	<path d="M1609.387,967.29c-0.447,4.118-1.92,7.27-4.417,9.453c-2.498,2.185-5.823,3.276-9.978,3.276
		c-2.9,0-5.465-0.726-7.693-2.175c-2.229-1.451-3.952-3.505-5.17-6.164c-1.218-2.658-1.835-5.697-1.854-9.117v-5.076
		c0-3.473,0.609-6.553,1.826-9.238c1.218-2.686,2.968-4.758,5.251-6.217c2.282-1.459,4.91-2.188,7.882-2.188
		c4.189,0,7.497,1.128,9.923,3.384s3.836,5.381,4.229,9.373h-3.33c-0.823-6.643-4.431-9.964-10.822-9.964
		c-3.545,0-6.369,1.326-8.473,3.978c-2.104,2.652-3.156,6.316-3.156,10.992v4.785c0,4.515,1.025,8.116,3.075,10.804
		s4.821,4.031,8.312,4.031c3.456,0,6.061-0.828,7.815-2.484c1.755-1.655,2.838-4.14,3.249-7.452H1609.387z"/>
	<path d="M1614.893,964.524c0-2.793,0.541-5.309,1.625-7.547c1.083-2.238,2.613-3.979,4.592-5.224
		c1.979-1.244,4.221-1.866,6.728-1.866c3.867,0,7,1.356,9.399,4.068c2.399,2.713,3.599,6.307,3.599,10.783v0.671
		c0,2.812-0.542,5.34-1.625,7.587c-1.083,2.246-2.609,3.979-4.578,5.196c-1.97,1.218-4.217,1.826-6.741,1.826
		c-3.85,0-6.979-1.356-9.386-4.068c-2.408-2.713-3.612-6.307-3.612-10.782V964.524z M1618.115,965.41
		c0,3.474,0.899,6.324,2.699,8.554c1.799,2.229,4.158,3.344,7.076,3.344c2.9,0,5.25-1.115,7.05-3.344
		c1.799-2.229,2.699-5.17,2.699-8.822v-0.617c0-2.221-0.412-4.252-1.236-6.097c-0.823-1.844-1.978-3.272-3.464-4.283
		c-1.486-1.012-3.187-1.518-5.103-1.518c-2.864,0-5.201,1.124-7.01,3.37c-1.808,2.247-2.712,5.188-2.712,8.822V965.41z"/>
	<path d="M1650.53,950.424l0.107,4.969c1.092-1.791,2.453-3.156,4.082-4.096c1.629-0.94,3.429-1.41,5.397-1.41
		c3.115,0,5.435,0.877,6.956,2.632s2.292,4.387,2.31,7.896v19.067h-3.195v-19.095c-0.019-2.596-0.569-4.529-1.652-5.801
		c-1.083-1.271-2.815-1.906-5.196-1.906c-1.987,0-3.746,0.622-5.277,1.866c-1.53,1.245-2.663,2.923-3.397,5.036v19.899h-3.195
		v-29.058H1650.53z"/>
	<path d="M1695.083,972.096c0-1.593-0.641-2.873-1.92-3.84c-1.28-0.967-3.209-1.723-5.787-2.27c-2.578-0.546-4.579-1.172-6.003-1.88
		c-1.423-0.707-2.479-1.571-3.169-2.591c-0.689-1.021-1.033-2.256-1.033-3.707c0-2.291,0.957-4.185,2.873-5.68
		c1.916-1.494,4.368-2.242,7.358-2.242c3.24,0,5.841,0.801,7.802,2.403c1.96,1.603,2.94,3.692,2.94,6.271h-3.223
		c0-1.7-0.712-3.115-2.135-4.242c-1.424-1.129-3.219-1.692-5.385-1.692c-2.112,0-3.81,0.47-5.089,1.41
		c-1.28,0.939-1.92,2.161-1.92,3.665c0,1.451,0.532,2.574,1.598,3.371c1.064,0.797,3.008,1.526,5.827,2.188
		c2.82,0.663,4.933,1.37,6.338,2.122s2.448,1.656,3.129,2.712c0.681,1.057,1.021,2.337,1.021,3.841c0,2.453-0.989,4.413-2.968,5.881
		c-1.979,1.469-4.561,2.202-7.747,2.202c-3.385,0-6.128-0.819-8.231-2.457c-2.104-1.639-3.155-3.71-3.155-6.218h3.223
		c0.125,1.881,0.917,3.344,2.376,4.392c1.459,1.047,3.389,1.571,5.788,1.571c2.237,0,4.046-0.492,5.424-1.478
		C1694.394,974.845,1695.083,973.6,1695.083,972.096z"/>
	<path d="M1710.524,942.985v7.439h6.016v2.632h-6.016v19.384c0,1.613,0.291,2.814,0.873,3.604c0.581,0.789,1.553,1.183,2.913,1.183
		c0.537,0,1.406-0.089,2.605-0.269l0.135,2.609c-0.842,0.301-1.988,0.452-3.438,0.452c-2.203,0-3.805-0.64-4.808-1.92
		s-1.504-3.165-1.504-5.653v-19.39h-5.345v-2.632h5.345v-7.439H1710.524z"/>
	<path d="M1736.629,953.164c-0.681-0.125-1.405-0.188-2.176-0.188c-2.005,0-3.701,0.561-5.089,1.679
		c-1.388,1.119-2.376,2.744-2.968,4.874v19.954h-3.195v-29.058h3.143l0.053,4.619c1.701-3.438,4.432-5.156,8.191-5.156
		c0.896,0,1.603,0.117,2.121,0.35L1736.629,953.164z"/>
	<path d="M1760.396,975.803c-1.934,2.811-5.021,4.216-9.266,4.216c-3.097,0-5.451-0.899-7.063-2.699
		c-1.611-1.799-2.435-4.462-2.471-7.989v-18.906h3.195v18.504c0,5.531,2.238,8.298,6.715,8.298c4.654,0,7.6-1.925,8.835-5.774
		v-21.027h3.223v29.058h-3.115L1760.396,975.803z"/>
	<path d="M1782.658,977.307c2.238,0,4.113-0.632,5.626-1.894c1.513-1.263,2.332-2.896,2.458-4.901h3.088
		c-0.09,1.772-0.645,3.389-1.665,4.848s-2.377,2.601-4.068,3.424c-1.692,0.823-3.505,1.235-5.438,1.235
		c-3.813,0-6.835-1.325-9.063-3.975c-2.229-2.649-3.344-6.212-3.344-10.688v-0.967c0-2.864,0.501-5.398,1.504-7.6
		c1.003-2.203,2.439-3.903,4.311-5.104c1.87-1.199,4.06-1.799,6.565-1.799c3.188,0,5.814,0.949,7.883,2.847
		c2.067,1.897,3.173,4.396,3.316,7.493h-3.088c-0.144-2.273-0.963-4.109-2.458-5.506s-3.379-2.095-5.653-2.095
		c-2.9,0-5.151,1.048-6.754,3.142c-1.603,2.096-2.403,5.031-2.403,8.809v0.94c0,3.706,0.801,6.598,2.403,8.675
		C1777.479,976.268,1779.74,977.307,1782.658,977.307z"/>
	<path d="M1805.244,942.985v7.439h6.016v2.632h-6.016v19.384c0,1.613,0.291,2.814,0.873,3.604c0.581,0.789,1.553,1.183,2.913,1.183
		c0.537,0,1.406-0.089,2.605-0.269l0.135,2.609c-0.842,0.301-1.988,0.452-3.438,0.452c-2.203,0-3.805-0.64-4.808-1.92
		s-1.504-3.165-1.504-5.653v-19.39h-5.345v-2.632h5.345v-7.439H1805.244z"/>
	<path d="M1817.732,942.032c0-0.605,0.196-1.116,0.59-1.534c0.395-0.418,0.932-0.628,1.611-0.628c0.681,0,1.223,0.21,1.625,0.628
		c0.403,0.418,0.604,0.929,0.604,1.534s-0.201,1.112-0.604,1.521c-0.402,0.409-0.944,0.613-1.625,0.613
		c-0.68,0-1.217-0.204-1.611-0.613C1817.929,943.144,1817.732,942.637,1817.732,942.032z M1821.519,979.482h-3.223v-29.058h3.223
		V979.482z"/>
	<path d="M1828.474,964.524c0-2.793,0.541-5.309,1.625-7.547c1.083-2.238,2.613-3.979,4.592-5.224
		c1.979-1.244,4.221-1.866,6.728-1.866c3.867,0,7,1.356,9.399,4.068c2.399,2.713,3.599,6.307,3.599,10.783v0.671
		c0,2.812-0.542,5.34-1.625,7.587c-1.083,2.246-2.609,3.979-4.578,5.196c-1.97,1.218-4.217,1.826-6.741,1.826
		c-3.85,0-6.979-1.356-9.386-4.068c-2.408-2.713-3.612-6.307-3.612-10.782V964.524z M1831.696,965.41
		c0,3.474,0.899,6.324,2.699,8.554c1.799,2.229,4.158,3.344,7.076,3.344c2.9,0,5.25-1.115,7.05-3.344
		c1.799-2.229,2.699-5.17,2.699-8.822v-0.617c0-2.221-0.412-4.252-1.236-6.097c-0.823-1.844-1.978-3.272-3.464-4.283
		c-1.486-1.012-3.187-1.518-5.103-1.518c-2.864,0-5.201,1.124-7.01,3.37c-1.808,2.247-2.712,5.188-2.712,8.822V965.41z"/>
	<path d="M1864.111,950.424l0.107,4.969c1.092-1.791,2.453-3.156,4.082-4.096c1.629-0.94,3.429-1.41,5.397-1.41
		c3.115,0,5.435,0.877,6.956,2.632s2.292,4.387,2.31,7.896v19.067h-3.195v-19.095c-0.019-2.596-0.569-4.529-1.652-5.801
		c-1.083-1.271-2.815-1.906-5.196-1.906c-1.987,0-3.746,0.622-5.277,1.866c-1.53,1.245-2.663,2.923-3.397,5.036v19.899h-3.195
		v-29.058H1864.111z"/>
</g>
<g>
	<path d="M875.628,979.482V940.38h10.93c3.205,0,6.079,0.729,8.621,2.188s4.525,3.55,5.948,6.271
		c1.424,2.721,2.136,5.818,2.136,9.291v3.6c0,3.49-0.708,6.588-2.122,9.291c-1.414,2.704-3.406,4.79-5.976,6.258
		c-2.569,1.469-5.519,2.202-8.849,2.202H875.628z M878.931,943.173v33.516h7.412c4.118,0,7.422-1.366,9.91-4.099
		s3.732-6.428,3.732-11.087v-3.44c0-4.497-1.226-8.099-3.679-10.805c-2.453-2.705-5.685-4.066-9.694-4.085H878.931z"/>
	<path d="M922.142,980.019c-2.471,0-4.704-0.608-6.7-1.826s-3.549-2.914-4.659-5.089c-1.11-2.176-1.665-4.615-1.665-7.318v-1.154
		c0-2.793,0.541-5.309,1.625-7.547c1.083-2.238,2.591-3.997,4.524-5.277c1.934-1.279,4.029-1.92,6.285-1.92
		c3.526,0,6.324,1.204,8.392,3.612c2.068,2.407,3.103,5.698,3.103,9.869v1.8h-20.732v0.617c0,3.295,0.943,6.038,2.833,8.231
		c1.889,2.192,4.266,3.29,7.13,3.29c1.719,0,3.236-0.313,4.552-0.94c1.316-0.626,2.511-1.629,3.585-3.008l2.015,1.53
		C930.065,978.309,926.636,980.019,922.142,980.019z M921.552,952.626c-2.418,0-4.454,0.886-6.11,2.659
		c-1.656,1.771-2.663,4.153-3.021,7.143h17.429v-0.349c-0.09-2.793-0.886-5.066-2.39-6.821
		C925.957,953.504,923.987,952.626,921.552,952.626z"/>
	<path d="M956.705,972.096c0-1.593-0.641-2.873-1.92-3.84c-1.28-0.967-3.209-1.723-5.787-2.27c-2.578-0.546-4.579-1.172-6.003-1.88
		c-1.423-0.707-2.479-1.571-3.169-2.591c-0.689-1.021-1.033-2.256-1.033-3.707c0-2.291,0.957-4.185,2.873-5.68
		c1.916-1.494,4.368-2.242,7.358-2.242c3.24,0,5.841,0.801,7.802,2.403c1.96,1.603,2.94,3.692,2.94,6.271h-3.223
		c0-1.7-0.712-3.115-2.135-4.242c-1.424-1.129-3.219-1.692-5.385-1.692c-2.112,0-3.81,0.47-5.089,1.41
		c-1.28,0.939-1.92,2.161-1.92,3.665c0,1.451,0.532,2.574,1.598,3.371c1.064,0.797,3.008,1.526,5.827,2.188
		c2.82,0.663,4.933,1.37,6.338,2.122s2.448,1.656,3.129,2.712c0.681,1.057,1.021,2.337,1.021,3.841c0,2.453-0.989,4.413-2.968,5.881
		c-1.979,1.469-4.561,2.202-7.747,2.202c-3.385,0-6.128-0.819-8.231-2.457c-2.104-1.639-3.155-3.71-3.155-6.218h3.223
		c0.125,1.881,0.917,3.344,2.376,4.392c1.459,1.047,3.389,1.571,5.788,1.571c2.237,0,4.046-0.492,5.424-1.478
		C956.015,974.845,956.705,973.6,956.705,972.096z"/>
	<path d="M966.964,942.032c0-0.605,0.196-1.116,0.59-1.534c0.395-0.418,0.932-0.628,1.611-0.628c0.681,0,1.223,0.21,1.625,0.628
		c0.403,0.418,0.604,0.929,0.604,1.534s-0.201,1.112-0.604,1.521c-0.402,0.409-0.944,0.613-1.625,0.613
		c-0.68,0-1.217-0.204-1.611-0.613C967.161,943.144,966.964,942.637,966.964,942.032z M970.75,979.482h-3.223v-29.058h3.223V979.482
		z"/>
	<path d="M978.189,964.684c0-4.547,1.007-8.15,3.021-10.809c2.014-2.659,4.749-3.988,8.204-3.988c3.957,0,6.965,1.576,9.023,4.727
		l0.161-4.189h3.008v28.467c0,3.742-1.047,6.705-3.143,8.889c-2.094,2.185-4.932,3.277-8.513,3.277
		c-2.023,0-3.952-0.453-5.787-1.356c-1.836-0.904-3.281-2.108-4.337-3.612l1.799-1.934c2.273,2.793,4.978,4.189,8.11,4.189
		c2.686,0,4.78-0.792,6.284-2.377c1.504-1.584,2.283-3.782,2.336-6.593v-3.652c-2.059,2.864-5.058,4.297-8.996,4.297
		c-3.366,0-6.069-1.343-8.11-4.028s-3.062-6.311-3.062-10.877V964.684z M981.439,965.249c0,3.706,0.742,6.629,2.229,8.769
		s3.581,3.209,6.284,3.209c3.957,0,6.759-1.772,8.405-5.317v-13.508c-0.752-1.862-1.835-3.281-3.249-4.257s-3.115-1.464-5.103-1.464
		c-2.703,0-4.807,1.061-6.311,3.183C982.191,957.984,981.439,961.113,981.439,965.249z"/>
	<path d="M1013.047,950.424l0.107,4.969c1.092-1.791,2.453-3.156,4.082-4.096c1.629-0.94,3.429-1.41,5.397-1.41
		c3.115,0,5.435,0.877,6.956,2.632s2.292,4.387,2.31,7.896v19.067h-3.195v-19.095c-0.019-2.596-0.569-4.529-1.652-5.801
		c-1.083-1.271-2.815-1.906-5.196-1.906c-1.987,0-3.746,0.622-5.277,1.866c-1.53,1.245-2.663,2.923-3.397,5.036v19.899h-3.195
		v-29.058H1013.047z"/>
</g>
<line fill="none" stroke="#4B453C" stroke-width="0.5" stroke-miterlimit="10" x1="176.07" y1="129.138" x2="176.07" y2="906.482"/>
<line fill="none" stroke="#4B453C" stroke-width="0.5" stroke-miterlimit="10" x1="886.004" y1="129.138" x2="886.004" y2="906.482"/>
<line fill="none" stroke="#4B453C" stroke-width="0.5" stroke-miterlimit="10" x1="1595.938" y1="129.138" x2="1595.938" y2="906.482"/>
</svg>
