<?xml version="1.0" encoding="utf-8"?>
<!-- Generator: Adobe Illustrator 16.0.0, SVG Export Plug-In . SVG Version: 6.00 Build 0)  -->
<!DOCTYPE svg PUBLIC "-//W3C//DTD SVG 1.1//EN" "http://www.w3.org/Graphics/SVG/1.1/DTD/svg11.dtd">
<svg version="1.1" id="Layer_1" xmlns="http://www.w3.org/2000/svg" xmlns:xlink="http://www.w3.org/1999/xlink" x="0px" y="0px"
	 width="1920px" height="1080px" viewBox="0 0 1920 1080" enable-background="new 0 0 1920 1080" xml:space="preserve">
<path fill="#EDEDED" stroke="#000000" stroke-width="0.3624" stroke-miterlimit="10" d="M1252.151,698.398
	c0,12.758-10.375,23.125-23.148,23.125h-155.711c-12.781,0-23.141-10.367-23.141-23.125v-39.422
	c0-12.781,10.359-23.125,23.141-23.125h155.711c12.773,0,23.148,10.344,23.148,23.125V698.398z"/>
<g>
	<g>
		<path d="M1078.251,682.171l15.161-9.241v2.718l-10.752,6.523l10.752,6.523v2.718L1078.251,682.171z"/>
		<path d="M1127.779,698.057v-17.215c0-1.529-0.505-2.858-1.511-3.986c-1.007-1.127-2.456-1.691-4.349-1.691
			c-3.906,0-5.858,1.894-5.858,5.678v17.215h-2.477v-17.215c0-1.691-0.564-3.039-1.691-4.047c-1.168-1.087-2.558-1.631-4.168-1.631
			c-1.651,0-3.04,0.523-4.167,1.57c-1.128,1.008-1.691,2.377-1.691,4.107v17.215h-2.477v-24.945h2.477v2.477
			c1.208-1.893,3.16-2.84,5.858-2.84c3.222,0,5.597,1.31,7.128,3.926c1.449-2.616,3.805-3.926,7.066-3.926
			c2.496,0,4.51,0.705,6.04,2.114c1.53,1.45,2.295,3.442,2.295,5.979v17.215H1127.779z"/>
		<path d="M1152.784,698.117v-15.041c0-5.273-2.457-7.912-7.369-7.912c-2.014,0-3.744,0.604-5.194,1.813
			c-1.49,1.208-2.234,2.818-2.234,4.832v16.248h-2.477v-44.697h2.477v23.073c1.489-2.456,3.966-3.685,7.429-3.685
			c6.563,0,9.846,3.363,9.846,10.088v15.281H1152.784z"/>
		<path d="M1174.348,676.795c-0.645-0.482-1.329-0.865-2.054-1.147c-0.725-0.281-1.49-0.423-2.295-0.423
			c-0.686,0-1.329,0.211-1.934,0.635c-0.604,0.422-1.127,0.946-1.57,1.57c-0.443,0.625-0.795,1.319-1.057,2.084
			c-0.263,0.766-0.393,1.47-0.393,2.113v16.43h-2.477v-24.945h2.477v3.382c0.522-0.926,1.208-1.771,2.054-2.536
			c0.846-0.766,1.771-1.148,2.778-1.148c1.248,0,2.274,0.142,3.08,0.423c0.806,0.282,1.711,0.785,2.719,1.511L1174.348,676.795z"/>
		<path d="M1201.045,698.057v-4.289c-2.618,3.141-5.94,4.711-9.966,4.711c-3.624,0-6.665-1.228-9.121-3.684
			c-2.497-2.496-3.744-5.557-3.744-9.182c0-3.623,1.228-6.664,3.685-9.12c2.496-2.496,5.557-3.745,9.181-3.745
			c3.986,0,7.309,1.57,9.966,4.711v-4.348h2.477v24.945H1201.045z M1198.447,678.244c-2.053-2.053-4.51-3.08-7.368-3.08
			c-2.899,0-5.356,1.008-7.369,3.021c-2.054,2.054-3.08,4.53-3.08,7.429c0,2.859,1.026,5.315,3.08,7.369s4.51,3.08,7.369,3.08
			c2.899,0,5.354-1.006,7.368-3.02c2.054-2.054,3.081-4.53,3.081-7.43C1201.528,682.755,1200.501,680.299,1198.447,678.244z"/>
		<path d="M1209.682,691.412v-2.718l10.691-6.523l-10.691-6.523v-2.718l15.16,9.241L1209.682,691.412z"/>
	</g>
</g>
<g>
	<g>
		<path d="M609.98,453.621c0,1.793,0.48,3.211,1.44,4.256c1.002,1.067,2.378,1.601,4.128,1.601c0.896,0,1.707-0.149,2.432-0.448
			c0.917-0.384,1.738-1.162,2.464-2.336l1.184,0.544c-0.832,1.579-2.112,2.646-3.84,3.2c-0.661,0.213-1.408,0.32-2.24,0.32
			c-1.984,0-3.616-0.65-4.896-1.952c-1.302-1.302-1.952-2.933-1.952-4.896c0-1.984,0.64-3.617,1.92-4.896
			c1.301-1.301,2.944-1.952,4.928-1.952c1.962,0,3.584,0.608,4.864,1.823c1.301,1.217,1.952,2.796,1.952,4.736H609.98z
			 M619.004,449.43c-1.003-0.725-2.155-1.088-3.456-1.088c-2.731,0-4.523,1.344-5.376,4.031h10.72
			C620.678,451.157,620.049,450.176,619.004,449.43z"/>
		<path d="M631.132,460.502l-3.744-5.537l-3.744,5.537h-1.568l4.512-6.656l-4.416-6.561h1.536l3.68,5.473l3.648-5.473h1.536
			l-4.384,6.528l4.48,6.688H631.132z"/>
		<path d="M635.804,451.254c-0.235,0-0.48-0.097-0.736-0.289c-0.192-0.191-0.299-0.447-0.32-0.768c0-0.576,0.352-0.928,1.056-1.056
			c0.533,0,0.885,0.353,1.056,1.056C636.86,450.901,636.508,451.254,635.804,451.254z M635.804,460.693
			c-0.235,0-0.48-0.096-0.736-0.288c-0.192-0.192-0.299-0.448-0.32-0.768c0-0.576,0.352-0.929,1.056-1.056
			c0.533,0,0.885,0.352,1.056,1.056C636.86,460.342,636.508,460.693,635.804,460.693z"/>
		<path d="M653.5,461.078l-4.128-10.561l-4.192,10.561l-5.92-13.793h1.408l4.448,10.24l4.256-10.656l4.224,10.625l4.416-10.209
			h1.472L653.5,461.078z"/>
		<path d="M663.227,444.918c-0.235,0-0.48-0.097-0.736-0.289c-0.192-0.191-0.299-0.447-0.32-0.768c0-0.576,0.352-0.928,1.056-1.056
			c0.533,0,0.885,0.352,1.056,1.056C664.283,444.565,663.931,444.918,663.227,444.918z M662.555,460.502v-13.217h1.312v13.217
			H662.555z"/>
		<path d="M678.075,460.502v-2.369c-1.408,1.729-3.2,2.593-5.376,2.593c-1.92,0-3.531-0.65-4.832-1.952
			c-1.323-1.322-1.984-2.943-1.984-4.863c0-1.921,0.65-3.531,1.952-4.832c1.322-1.323,2.944-1.984,4.864-1.984
			c2.112,0,3.904,0.863,5.376,2.592v-12.864h1.312v23.681H678.075z M676.604,450.006c-1.088-1.088-2.39-1.633-3.904-1.633
			c-1.536,0-2.837,0.533-3.904,1.601c-1.088,1.088-1.632,2.399-1.632,3.937c0,1.514,0.544,2.815,1.632,3.903
			s2.389,1.632,3.904,1.632c1.536,0,2.837-0.533,3.904-1.6c1.088-1.088,1.632-2.4,1.632-3.936
			C678.235,452.395,677.691,451.094,676.604,450.006z"/>
		<path d="M685.275,448.598v11.904h-1.312v-11.904h-1.792v-1.313h1.792v-5.791h1.312v5.791h3.072v1.313H685.275z"/>
		<path d="M700.699,460.533v-7.968c0-2.794-1.302-4.192-3.904-4.192c-1.067,0-1.984,0.32-2.752,0.961
			c-0.789,0.64-1.184,1.493-1.184,2.56v8.608h-1.312v-23.681h1.312v12.224c0.789-1.301,2.101-1.951,3.936-1.951
			c3.477,0,5.216,1.781,5.216,5.344v8.096H700.699z"/>
	</g>
</g>
<g>
	<g>
		<path d="M799.935,472.571c-0.299-0.224-0.615-0.401-0.951-0.532c-0.337-0.131-0.691-0.195-1.064-0.195
			c-0.317,0-0.616,0.098-0.896,0.293c-0.28,0.196-0.523,0.439-0.729,0.729c-0.206,0.289-0.369,0.611-0.49,0.966
			s-0.182,0.682-0.182,0.979v7.617h-1.148v-11.564h1.148v1.568c0.242-0.43,0.56-0.822,0.952-1.176
			c0.392-0.355,0.821-0.533,1.288-0.533c0.578,0,1.054,0.066,1.428,0.197c0.373,0.131,0.793,0.363,1.26,0.699L799.935,472.571z"/>
		<path d="M812.395,482.428v-2.072c-1.232,1.512-2.8,2.268-4.704,2.268c-1.68,0-3.09-0.568-4.228-1.708
			c-1.158-1.157-1.736-2.575-1.736-4.256s0.569-3.089,1.708-4.228c1.157-1.158,2.576-1.736,4.256-1.736
			c1.848,0,3.416,0.756,4.704,2.268v-11.256h1.147v20.721H812.395z M811.106,473.243c-0.952-0.952-2.091-1.428-3.416-1.428
			c-1.344,0-2.482,0.467-3.416,1.399c-0.952,0.953-1.428,2.101-1.428,3.444c0,1.325,0.476,2.464,1.428,3.416
			s2.091,1.429,3.416,1.429c1.344,0,2.482-0.467,3.416-1.4c0.952-0.952,1.428-2.1,1.428-3.444
			C812.534,475.334,812.059,474.195,811.106,473.243z"/>
		<path d="M821.354,462.855l-0.756-0.084c-1.046,0-1.568,0.615-1.568,1.848v6.244h2.744v1.148h-2.744v10.416h-1.147v-10.416h-1.568
			v-1.148h1.568v-6.58c0-1.773,0.896-2.66,2.688-2.66c0.41,0,0.672,0.02,0.784,0.057c0.224,0,0.476,0.064,0.756,0.195v1.148
			L821.354,462.855z"/>
		<path d="M825.05,474.336c-0.205,0-0.42-0.084-0.644-0.253c-0.168-0.168-0.262-0.392-0.28-0.672c0-0.504,0.309-0.812,0.924-0.924
			c0.467,0,0.774,0.308,0.925,0.924C825.975,474.027,825.666,474.336,825.05,474.336z M825.05,482.596
			c-0.205,0-0.42-0.084-0.644-0.252c-0.168-0.168-0.262-0.393-0.28-0.672c0-0.504,0.309-0.813,0.924-0.925
			c0.467,0,0.774,0.308,0.925,0.925C825.975,482.287,825.666,482.596,825.05,482.596z"/>
		<path d="M830.847,472.012v10.416h-1.148v-10.416h-1.567v-1.148h1.567v-5.068h1.148v5.068h2.688v1.148H830.847z"/>
		<path d="M838.211,487.859h-1.288l2.996-6.496l-4.872-10.5h1.231l4.313,9.128l4.256-9.128h1.26L838.211,487.859z"/>
		<path d="M858.679,480.887c-1.157,1.158-2.576,1.736-4.256,1.736c-1.923,0-3.51-0.783-4.76-2.352v7.588h-1.148v-16.996h1.148v2.184
			c1.194-1.568,2.78-2.352,4.76-2.352c1.68,0,3.089,0.569,4.228,1.708c1.157,1.157,1.736,2.575,1.736,4.256
			S859.817,479.749,858.679,480.887z M857.839,473.243c-0.952-0.952-2.091-1.428-3.416-1.428c-1.344,0-2.483,0.467-3.416,1.399
			c-0.952,0.953-1.428,2.101-1.428,3.444c0,1.325,0.476,2.464,1.428,3.416s2.09,1.429,3.416,1.429c1.344,0,2.482-0.467,3.416-1.4
			c0.952-0.952,1.428-2.1,1.428-3.444C859.267,475.334,858.791,474.195,857.839,473.243z"/>
		<path d="M863.158,476.407c0,1.567,0.42,2.81,1.26,3.724c0.877,0.934,2.081,1.4,3.612,1.4c0.783,0,1.493-0.131,2.128-0.393
			c0.802-0.336,1.521-1.017,2.155-2.043l1.036,0.476c-0.728,1.382-1.848,2.315-3.359,2.8c-0.579,0.187-1.232,0.28-1.96,0.28
			c-1.736,0-3.164-0.569-4.284-1.708c-1.139-1.139-1.708-2.566-1.708-4.284c0-1.735,0.56-3.164,1.68-4.284
			c1.139-1.139,2.576-1.707,4.313-1.707c1.717,0,3.136,0.531,4.256,1.596c1.138,1.063,1.708,2.445,1.708,4.144H863.158z
			 M871.054,472.739c-0.877-0.634-1.886-0.952-3.023-0.952c-2.39,0-3.958,1.176-4.704,3.528h9.38
			C872.52,474.252,871.969,473.393,871.054,472.739z"/>
	</g>
</g>
<g>
	<g>
		<path fill="none" stroke="#000000" stroke-width="0.8" stroke-miterlimit="10" d="M531.545,501.668
			c104.825-58.367,209.645-18.17,239.735-4.242"/>
		<g>
			<polygon points="764.613,500.836 769.473,496.613 769.808,490.186 779.834,501.668 			"/>
		</g>
	</g>
</g>
<g>
	<g>
		<path fill="none" stroke="#000000" stroke-width="0.8" stroke-miterlimit="10" d="M976.045,501.668
			c104.825-58.367,209.645-18.17,239.735-4.242"/>
		<g>
			<polygon points="1209.113,500.836 1213.973,496.613 1214.308,490.186 1224.334,501.668 			"/>
		</g>
	</g>
</g>
<g>
	<g>
		<path d="M1028.604,459.67c-0.854,0.725-1.878,1.088-3.072,1.088c-2.048,0-3.584-0.928-4.608-2.784l1.12-0.673
			c0.362,0.662,0.8,1.174,1.313,1.537c0.532,0.405,1.258,0.607,2.176,0.607c2.005,0,3.008-0.854,3.008-2.561
			c0-0.746-0.352-1.396-1.056-1.951c-0.214-0.128-0.518-0.271-0.912-0.432c-0.396-0.16-0.88-0.348-1.456-0.561
			c-1.067-0.384-1.835-0.768-2.304-1.152c-0.684-0.555-1.024-1.354-1.024-2.399c0-0.896,0.341-1.664,1.024-2.304
			c0.66-0.662,1.524-0.992,2.592-0.992c1.472,0,2.72,0.512,3.744,1.535l-0.96,0.832c-0.726-0.725-1.654-1.088-2.784-1.088
			c-1.536,0-2.305,0.672-2.305,2.017c0,0.597,0.235,1.088,0.704,1.472c0.385,0.299,0.992,0.587,1.824,0.864
			c0.726,0.256,1.322,0.496,1.792,0.72c0.469,0.225,0.821,0.422,1.057,0.592c0.917,0.705,1.376,1.654,1.376,2.848
			C1029.852,458.037,1029.436,458.965,1028.604,459.67z"/>
		<path d="M1038.938,460.758c-1.963,0-3.595-0.65-4.896-1.952c-1.302-1.302-1.952-2.933-1.952-4.896s0.65-3.596,1.952-4.896
			c1.301-1.301,2.933-1.952,4.896-1.952c1.686,0,3.029,0.384,4.032,1.151v1.568l-0.832-0.544l-0.896-0.479
			c-0.812-0.277-1.579-0.416-2.305-0.416c-1.643,0-2.976,0.512-4,1.535c-1.045,1.046-1.567,2.391-1.567,4.033
			c0,1.621,0.522,2.954,1.567,4c1.046,1.045,2.379,1.567,4,1.567c1.536,0,2.881-0.513,4.032-1.536v1.632
			C1041.776,460.363,1040.432,460.758,1038.938,460.758z"/>
		<path d="M1055.291,460.533v-7.968c0-2.794-1.301-4.192-3.903-4.192c-1.067,0-1.984,0.32-2.752,0.961
			c-0.79,0.64-1.185,1.493-1.185,2.56v8.608h-1.312v-23.681h1.312v12.224c0.789-1.301,2.102-1.951,3.937-1.951
			c3.477,0,5.216,1.781,5.216,5.344v8.096H1055.291z"/>
		<path d="M1060.731,453.621c0,1.793,0.479,3.211,1.439,4.256c1.003,1.067,2.379,1.601,4.128,1.601c0.896,0,1.707-0.149,2.433-0.448
			c0.917-0.384,1.738-1.162,2.464-2.336l1.184,0.544c-0.832,1.579-2.111,2.646-3.84,3.2c-0.661,0.213-1.408,0.32-2.24,0.32
			c-1.983,0-3.615-0.65-4.896-1.952c-1.302-1.302-1.952-2.933-1.952-4.896c0-1.984,0.64-3.617,1.92-4.896
			c1.301-1.301,2.944-1.952,4.928-1.952c1.963,0,3.584,0.608,4.864,1.823c1.301,1.217,1.952,2.796,1.952,4.736H1060.731z
			 M1069.755,449.43c-1.003-0.725-2.154-1.088-3.456-1.088c-2.73,0-4.522,1.344-5.376,4.031h10.721
			C1071.43,451.157,1070.8,450.176,1069.755,449.43z"/>
		<path d="M1091.195,460.502v-9.121c0-0.811-0.268-1.514-0.801-2.111s-1.301-0.896-2.304-0.896c-2.069,0-3.104,1.004-3.104,3.008
			v9.121h-1.313v-9.121c0-0.896-0.299-1.609-0.896-2.144c-0.619-0.575-1.355-0.864-2.208-0.864c-0.875,0-1.611,0.277-2.208,0.832
			c-0.598,0.533-0.896,1.26-0.896,2.176v9.121h-1.312v-13.217h1.312v1.313c0.641-1.003,1.675-1.504,3.104-1.504
			c1.706,0,2.965,0.693,3.775,2.08c0.769-1.387,2.017-2.08,3.744-2.08c1.322,0,2.389,0.373,3.2,1.119
			c0.811,0.769,1.216,1.824,1.216,3.168v9.121H1091.195z"/>
		<path d="M1107.834,460.502v-2.272c-1.387,1.664-3.146,2.496-5.28,2.496c-1.92,0-3.53-0.65-4.832-1.952
			c-1.322-1.322-1.983-2.943-1.983-4.863c0-1.921,0.65-3.531,1.952-4.832c1.322-1.323,2.943-1.984,4.863-1.984
			c2.112,0,3.872,0.832,5.28,2.496v-2.305h1.313v13.217H1107.834z M1106.458,450.006c-1.088-1.088-2.39-1.633-3.904-1.633
			c-1.535,0-2.837,0.533-3.903,1.601c-1.088,1.088-1.632,2.399-1.632,3.937c0,1.514,0.544,2.815,1.632,3.903
			s2.389,1.632,3.903,1.632c1.536,0,2.838-0.533,3.904-1.6c1.088-1.088,1.632-2.4,1.632-3.936
			C1108.09,452.395,1107.546,451.094,1106.458,450.006z"/>
		<path d="M1113.626,451.254c-0.235,0-0.48-0.097-0.736-0.289c-0.192-0.191-0.299-0.447-0.32-0.768c0-0.576,0.353-0.928,1.057-1.056
			c0.532,0,0.885,0.353,1.056,1.056C1114.682,450.901,1114.329,451.254,1113.626,451.254z M1113.626,460.693
			c-0.235,0-0.48-0.096-0.736-0.288c-0.192-0.192-0.299-0.448-0.32-0.768c0-0.576,0.353-0.929,1.057-1.056
			c0.532,0,0.885,0.352,1.056,1.056C1114.682,460.342,1114.329,460.693,1113.626,460.693z"/>
		<path d="M1123.258,461.078l-6.239-13.793h1.408l4.8,10.528l4.832-10.528h1.472L1123.258,461.078z"/>
		<path d="M1143.29,460.502v-2.272c-1.387,1.664-3.146,2.496-5.28,2.496c-1.92,0-3.53-0.65-4.832-1.952
			c-1.322-1.322-1.983-2.943-1.983-4.863c0-1.921,0.65-3.531,1.952-4.832c1.322-1.323,2.943-1.984,4.863-1.984
			c2.112,0,3.872,0.832,5.28,2.496v-2.305h1.313v13.217H1143.29z M1141.914,450.006c-1.088-1.088-2.39-1.633-3.904-1.633
			c-1.535,0-2.837,0.533-3.903,1.601c-1.088,1.088-1.632,2.399-1.632,3.937c0,1.514,0.544,2.815,1.632,3.903
			s2.389,1.632,3.903,1.632c1.536,0,2.838-0.533,3.904-1.6c1.088-1.088,1.632-2.4,1.632-3.936
			C1143.546,452.395,1143.002,451.094,1141.914,450.006z"/>
		<path d="M1148.857,460.502v-23.681h1.28v23.681H1148.857z"/>
		<path d="M1161.497,459.35c-0.875,0.939-2.102,1.408-3.681,1.408c-1.558,0-2.763-0.459-3.615-1.377
			c-0.854-0.916-1.28-2.196-1.28-3.84v-8.256h1.312v8.256c0,1.26,0.277,2.23,0.832,2.912c0.576,0.684,1.493,1.024,2.752,1.024
			c2.453,0,3.681-1.312,3.681-3.937v-8.256h1.279v8.256C1162.776,457.163,1162.35,458.433,1161.497,459.35z"/>
		<path d="M1167.065,453.621c0,1.793,0.479,3.211,1.439,4.256c1.003,1.067,2.379,1.601,4.128,1.601c0.896,0,1.707-0.149,2.433-0.448
			c0.917-0.384,1.738-1.162,2.464-2.336l1.184,0.544c-0.832,1.579-2.111,2.646-3.84,3.2c-0.661,0.213-1.408,0.32-2.24,0.32
			c-1.983,0-3.615-0.65-4.896-1.952c-1.302-1.302-1.952-2.933-1.952-4.896c0-1.984,0.64-3.617,1.92-4.896
			c1.301-1.301,2.944-1.952,4.928-1.952c1.963,0,3.584,0.608,4.864,1.823c1.301,1.217,1.952,2.796,1.952,4.736H1167.065z
			 M1176.089,449.43c-1.003-0.725-2.154-1.088-3.456-1.088c-2.73,0-4.522,1.344-5.376,4.031h10.721
			C1177.764,451.157,1177.134,450.176,1176.089,449.43z"/>
	</g>
</g>
<g>
	<g>
		<path d="M1175.698,517.107v-3.979c0-0.748,0.204-1.281,0.611-1.598h0.681c-0.408,0.453-0.612,0.986-0.612,1.598v1.529h1.122v2.449
			H1175.698z M1179.608,517.107v-3.979c0-0.748,0.204-1.281,0.611-1.598h0.681c-0.408,0.453-0.612,0.986-0.612,1.598v1.529h1.122
			v2.449H1179.608z"/>
		<path d="M1193.378,536.283V513.4h-4.114l0.918-1.395h4.59v24.277H1193.378z"/>
		<path d="M1211.194,534.787c-1.338,1.291-3.026,1.938-5.066,1.938c-2.063,0-3.763-0.635-5.1-1.904
			c-1.338-1.291-2.006-2.957-2.006-4.998c0-1.473,0.396-2.775,1.189-3.91c0.794-1.109,1.904-1.938,3.332-2.48
			c-1.134-0.342-2.04-1.066-2.72-2.178c-0.657-1.064-0.986-2.197-0.986-3.398c0-1.836,0.578-3.332,1.734-4.488
			c1.156-1.18,2.652-1.768,4.488-1.768c1.858,0,3.366,0.576,4.521,1.732c1.156,1.156,1.734,2.664,1.734,4.523
			c0,1.27-0.34,2.426-1.021,3.467c-0.657,1.02-1.586,1.723-2.787,2.109c1.224,0.453,2.221,1.1,2.991,1.938
			c1.11,1.178,1.666,2.664,1.666,4.453C1213.166,531.84,1212.509,533.494,1211.194,534.787z M1210.106,525.879
			c-0.567-0.566-1.185-1.014-1.854-1.344c-0.668-0.328-1.399-0.492-2.192-0.492c-0.771,0-1.485,0.164-2.143,0.492
			c-0.657,0.33-1.27,0.766-1.836,1.309c-1.134,1.135-1.7,2.461-1.7,3.979c0,1.543,0.533,2.846,1.599,3.91
			c1.088,1.088,2.448,1.633,4.08,1.633c1.654,0,3.014-0.521,4.08-1.564c1.11-1.043,1.666-2.369,1.666-3.979
			C1211.807,528.281,1211.239,526.967,1210.106,525.879z M1209.563,514.354c-0.93-0.93-2.097-1.395-3.502-1.395
			c-1.383,0-2.539,0.465-3.468,1.395c-0.93,0.93-1.395,2.096-1.395,3.502c0,1.359,0.465,2.504,1.395,3.434
			c0.453,0.453,0.969,0.828,1.547,1.121c0.578,0.295,1.218,0.443,1.921,0.443c0.725,0,1.377-0.137,1.955-0.408
			c0.578-0.273,1.093-0.635,1.547-1.088c0.929-0.93,1.394-2.098,1.394-3.502C1210.956,516.449,1210.491,515.283,1209.563,514.354z"
			/>
		<path d="M1231.764,532.338c-1.632,2.857-3.944,4.285-6.937,4.285c-2.969,0-5.27-1.439-6.901-4.318
			c-1.338-2.357-2.006-5.145-2.006-8.363c0-3.242,0.668-6.041,2.006-8.398c1.632-2.879,3.933-4.318,6.901-4.318
			c2.97,0,5.271,1.439,6.902,4.318c1.337,2.402,2.006,5.201,2.006,8.398C1233.735,527.205,1233.078,530.004,1231.764,532.338z
			 M1230.676,516.563c-1.338-2.629-3.287-3.943-5.849-3.943c-2.289,0-4.137,1.178-5.542,3.535c-1.246,2.131-1.869,4.727-1.869,7.787
			c0,2.787,0.532,5.225,1.598,7.309c1.36,2.631,3.298,3.945,5.813,3.945c2.335,0,4.193-1.168,5.576-3.502
			c1.247-2.063,1.87-4.646,1.87-7.752C1232.273,521.107,1231.741,518.648,1230.676,516.563z"/>
		<path d="M1250.668,532.338c-1.632,2.857-3.944,4.285-6.937,4.285c-2.969,0-5.27-1.439-6.901-4.318
			c-1.338-2.357-2.006-5.145-2.006-8.363c0-3.242,0.668-6.041,2.006-8.398c1.632-2.879,3.933-4.318,6.901-4.318
			c2.97,0,5.271,1.439,6.902,4.318c1.337,2.402,2.006,5.201,2.006,8.398C1252.64,527.205,1251.982,530.004,1250.668,532.338z
			 M1249.58,516.563c-1.338-2.629-3.287-3.943-5.849-3.943c-2.289,0-4.137,1.178-5.542,3.535c-1.246,2.131-1.869,4.727-1.869,7.787
			c0,2.787,0.532,5.225,1.598,7.309c1.36,2.631,3.298,3.945,5.813,3.945c2.335,0,4.193-1.168,5.576-3.502
			c1.247-2.063,1.87-4.646,1.87-7.752C1251.178,521.107,1250.646,518.648,1249.58,516.563z"/>
		<path d="M1280.009,536.283v-9.691c0-0.859-0.283-1.607-0.85-2.242s-1.383-0.953-2.448-0.953c-2.198,0-3.298,1.066-3.298,3.195
			v9.691h-1.394v-9.691c0-0.951-0.318-1.711-0.952-2.277c-0.658-0.611-1.439-0.918-2.347-0.918c-0.93,0-1.711,0.295-2.346,0.885
			c-0.635,0.566-0.952,1.338-0.952,2.311v9.691h-1.394V522.24h1.394v1.395c0.681-1.064,1.779-1.598,3.298-1.598
			c1.813,0,3.15,0.736,4.013,2.209c0.815-1.473,2.142-2.209,3.978-2.209c1.405,0,2.538,0.396,3.4,1.189
			c0.861,0.816,1.292,1.938,1.292,3.365v9.691H1280.009z"/>
		<path d="M1300.341,536.283v-9.691c0-0.859-0.283-1.607-0.85-2.242s-1.383-0.953-2.448-0.953c-2.198,0-3.298,1.066-3.298,3.195
			v9.691h-1.394v-9.691c0-0.951-0.318-1.711-0.952-2.277c-0.658-0.611-1.439-0.918-2.347-0.918c-0.93,0-1.711,0.295-2.346,0.885
			c-0.635,0.566-0.952,1.338-0.952,2.311v9.691h-1.394V522.24h1.394v1.395c0.681-1.064,1.779-1.598,3.298-1.598
			c1.813,0,3.15,0.736,4.013,2.209c0.815-1.473,2.142-2.209,3.978-2.209c1.405,0,2.538,0.396,3.4,1.189
			c0.861,0.816,1.292,1.938,1.292,3.365v9.691H1300.341z"/>
		<path d="M1307.412,516.834h-0.68c0.408-0.43,0.612-0.963,0.612-1.598v-1.529h-1.122v-2.449h1.802v3.979
			C1308.024,515.803,1307.82,516.336,1307.412,516.834z M1311.322,516.834h-0.68c0.408-0.43,0.612-0.963,0.612-1.598v-1.529h-1.122
			v-2.449h1.802v3.979C1311.935,515.803,1311.73,516.336,1311.322,516.834z"/>
		<path d="M1319.941,517.488l-2.181-4.084l-2.22,4.084h-0.516l2.398-5.57h0.654l2.398,5.57H1319.941z"/>
		<path d="M1326.919,517.488l-2.181-4.084l-2.22,4.084h-0.516l2.398-5.57h0.654l2.398,5.57H1326.919z"/>
		<path d="M1332.627,525.119c-1.216,0-2.228-0.402-3.033-1.209s-1.209-1.816-1.209-3.033c0-1.215,0.403-2.227,1.209-3.033
			c0.806-0.805,1.817-1.209,3.033-1.209c1.044,0,1.876,0.238,2.497,0.715v0.971l-0.516-0.338l-0.555-0.297
			c-0.502-0.172-0.978-0.258-1.427-0.258c-1.018,0-1.844,0.318-2.479,0.951c-0.647,0.648-0.971,1.48-0.971,2.498
			c0,1.004,0.323,1.83,0.971,2.479c0.647,0.646,1.474,0.971,2.479,0.971c0.951,0,1.784-0.316,2.497-0.951v1.01
			C1334.384,524.875,1333.552,525.119,1332.627,525.119z"/>
		<path d="M1344.024,524.961v-1.467c-0.872,1.07-1.982,1.605-3.33,1.605c-1.189,0-2.188-0.404-2.993-1.209
			c-0.819-0.82-1.229-1.824-1.229-3.014s0.402-2.188,1.209-2.992c0.819-0.82,1.823-1.23,3.013-1.23c1.309,0,2.419,0.535,3.33,1.605
			v-7.967h0.813v14.668H1344.024z M1343.113,518.459c-0.675-0.674-1.48-1.012-2.419-1.012c-0.951,0-1.758,0.332-2.418,0.992
			c-0.674,0.674-1.011,1.486-1.011,2.438c0,0.939,0.337,1.744,1.011,2.418s1.479,1.012,2.418,1.012c0.952,0,1.758-0.33,2.419-0.992
			c0.674-0.674,1.011-1.486,1.011-2.438C1344.124,519.939,1343.787,519.133,1343.113,518.459z"/>
		<path d="M1348.484,517.586v7.375h-0.813v-7.375h-1.11v-0.813h1.11v-3.588h0.813v3.588h1.903v0.813H1348.484z"/>
		<path d="M1352.568,519.232c-0.146,0-0.297-0.061-0.456-0.18c-0.119-0.119-0.185-0.277-0.198-0.475
			c0-0.357,0.218-0.576,0.654-0.654c0.33,0,0.548,0.219,0.654,0.654C1353.223,519.014,1353.005,519.232,1352.568,519.232z
			 M1352.568,525.08c-0.146,0-0.297-0.061-0.456-0.18c-0.119-0.119-0.185-0.277-0.198-0.475c0-0.357,0.218-0.576,0.654-0.654
			c0.33,0,0.548,0.217,0.654,0.654C1353.223,524.861,1353.005,525.08,1352.568,525.08z"/>
		<path d="M1355.66,524.961v-14.668h0.793v14.668H1355.66z"/>
		<path d="M1359.406,520.699c0,1.109,0.297,1.988,0.892,2.637c0.621,0.66,1.474,0.99,2.558,0.99c0.555,0,1.057-0.092,1.506-0.277
			c0.568-0.238,1.077-0.721,1.526-1.447l0.733,0.338c-0.515,0.977-1.308,1.639-2.378,1.98c-0.41,0.133-0.872,0.199-1.388,0.199
			c-1.229,0-2.24-0.402-3.033-1.209c-0.806-0.807-1.209-1.816-1.209-3.033c0-1.229,0.396-2.24,1.189-3.033
			c0.806-0.805,1.823-1.209,3.053-1.209c1.216,0,2.22,0.377,3.013,1.131c0.806,0.752,1.209,1.73,1.209,2.934H1359.406z
			 M1364.996,518.102c-0.621-0.449-1.335-0.674-2.141-0.674c-1.691,0-2.802,0.832-3.33,2.498h6.641
			C1366.033,519.172,1365.644,518.564,1364.996,518.102z"/>
		<path d="M1374.471,524.961v-4.896c0-1.73-0.779-2.598-2.339-2.598c-0.767,0-1.348,0.227-1.744,0.676
			c-0.41,0.449-0.614,1.063-0.614,1.842v4.977h-0.813v-8.188h0.813v0.992c0.37-0.727,1.156-1.09,2.358-1.09
			c1.018,0,1.797,0.289,2.339,0.871s0.813,1.395,0.813,2.438v4.977H1374.471z"/>
		<path d="M1384.48,527.695c-0.739,0.74-1.711,1.111-2.913,1.111c-2.233,0-3.568-0.879-4.004-2.637h0.813
			c0.146,0.646,0.562,1.129,1.249,1.447c0.541,0.25,1.188,0.377,1.942,0.377c1.018,0,1.804-0.285,2.358-0.854
			c0.568-0.568,0.853-1.361,0.853-2.379v-1.209c-0.859,1.031-1.949,1.547-3.271,1.547c-1.189,0-2.188-0.404-2.993-1.209
			c-0.819-0.82-1.229-1.824-1.229-3.014s0.403-2.188,1.21-2.992c0.818-0.82,1.823-1.23,3.013-1.23c1.308,0,2.398,0.516,3.271,1.547
			v-1.428h0.813v8.008C1385.591,525.984,1385.221,526.955,1384.48,527.695z M1383.926,518.459c-0.674-0.674-1.48-1.012-2.418-1.012
			c-0.951,0-1.758,0.332-2.418,0.992c-0.675,0.674-1.012,1.486-1.012,2.438c0,0.939,0.337,1.744,1.012,2.418
			c0.674,0.674,1.479,1.012,2.418,1.012c0.951,0,1.757-0.33,2.418-0.992c0.674-0.674,1.011-1.486,1.011-2.438
			C1384.937,519.939,1384.6,519.133,1383.926,518.459z"/>
		<path d="M1389.237,517.586v7.375h-0.813v-7.375h-1.11v-0.813h1.11v-3.588h0.813v3.588h1.903v0.813H1389.237z"/>
		<path d="M1398.792,524.98v-4.936c0-1.73-0.806-2.598-2.418-2.598c-0.661,0-1.229,0.199-1.705,0.596
			c-0.489,0.396-0.733,0.924-0.733,1.586v5.332h-0.813v-14.668h0.813v7.57c0.489-0.805,1.302-1.209,2.438-1.209
			c2.153,0,3.23,1.104,3.23,3.311v5.016H1398.792z"/>
	</g>
</g>
<g>
	<g>
		<path d="M740.79,407.561c0,1.904,0.51,3.412,1.53,4.521c1.065,1.135,2.527,1.701,4.386,1.701c0.952,0,1.813-0.158,2.584-0.477
			c0.974-0.408,1.847-1.235,2.618-2.482l1.258,0.578c-0.884,1.678-2.244,2.811-4.08,3.4c-0.703,0.227-1.496,0.34-2.38,0.34
			c-2.108,0-3.842-0.691-5.202-2.074c-1.383-1.382-2.074-3.116-2.074-5.201c0-2.108,0.68-3.843,2.04-5.203
			c1.382-1.382,3.128-2.073,5.236-2.073c2.085,0,3.808,0.646,5.168,1.938c1.382,1.291,2.074,2.969,2.074,5.031H740.79z
			 M750.378,403.106c-1.066-0.771-2.29-1.155-3.672-1.155c-2.902,0-4.806,1.428-5.712,4.283h11.39
			C752.157,404.942,751.488,403.9,750.378,403.106z"/>
		<path d="M763.264,414.871l-3.978-5.883l-3.978,5.883h-1.666l4.794-7.072l-4.692-6.971h1.632l3.91,5.814l3.876-5.814h1.632
			l-4.658,6.937l4.76,7.106H763.264z"/>
		<path d="M768.229,405.045c-0.25,0-0.511-0.103-0.782-0.307c-0.204-0.203-0.318-0.476-0.34-0.816c0-0.611,0.374-0.985,1.122-1.121
			c0.565,0,0.939,0.374,1.121,1.121C769.35,404.67,768.976,405.045,768.229,405.045z M768.229,415.074
			c-0.25,0-0.511-0.102-0.782-0.306c-0.204-0.204-0.318-0.476-0.34-0.815c0-0.612,0.374-0.986,1.122-1.123
			c0.565,0,0.939,0.375,1.121,1.123C769.35,414.701,768.976,415.074,768.229,415.074z"/>
		<path d="M784.106,401.033c-1.271,1.133-2.834,1.699-4.692,1.699h-4.556v12.139h-1.36v-24.276h5.916
			c1.858,0,3.422,0.544,4.692,1.632c1.269,1.088,1.903,2.55,1.903,4.387C786.01,398.472,785.375,399.945,784.106,401.033z
			 M783.052,393.145c-0.93-0.77-2.153-1.156-3.672-1.156h-4.521v9.35h4.521c1.496,0,2.742-0.407,3.74-1.223
			c0.997-0.861,1.496-2.029,1.496-3.502C784.616,395.14,784.095,393.983,783.052,393.145z"/>
		<path d="M794.102,402.902c-0.363-0.271-0.748-0.486-1.156-0.646s-0.839-0.238-1.292-0.238c-0.386,0-0.748,0.119-1.088,0.356
			c-0.34,0.238-0.635,0.533-0.884,0.885c-0.25,0.352-0.448,0.742-0.595,1.173c-0.148,0.431-0.222,0.827-0.222,1.19v9.248h-1.394
			v-14.043h1.394v1.904c0.295-0.521,0.681-0.997,1.156-1.428c0.476-0.43,0.997-0.646,1.564-0.646c0.702,0,1.28,0.08,1.733,0.238
			c0.453,0.159,0.963,0.441,1.53,0.85L794.102,402.902z"/>
		<path d="M807.226,413c-1.405,1.406-3.128,2.108-5.168,2.108s-3.751-0.69-5.134-2.073c-1.405-1.406-2.107-3.129-2.107-5.168
			c0-2.018,0.702-3.729,2.107-5.135c1.383-1.428,3.094-2.142,5.134-2.142c2.018,0,3.729,0.702,5.135,2.108
			c1.404,1.405,2.107,3.127,2.107,5.168C809.3,409.906,808.608,411.618,807.226,413z M806.24,403.685
			c-1.134-1.155-2.528-1.733-4.183-1.733c-1.587,0-2.958,0.59-4.113,1.768c-1.18,1.179-1.769,2.562-1.769,4.148
			c0,1.609,0.578,2.991,1.734,4.147c1.156,1.155,2.538,1.733,4.147,1.733c1.633,0,3.015-0.566,4.148-1.699
			c1.156-1.156,1.734-2.551,1.734-4.182C807.94,406.213,807.373,404.818,806.24,403.685z"/>
		<path d="M825.075,413c-1.405,1.406-3.128,2.108-5.168,2.108c-2.334,0-4.262-0.952-5.779-2.856v9.215h-1.395v-20.639h1.395v2.652
			c1.45-1.904,3.377-2.855,5.779-2.855c2.04,0,3.752,0.691,5.135,2.074c1.404,1.405,2.107,3.127,2.107,5.168
			C827.149,409.906,826.458,411.618,825.075,413z M824.056,403.719c-1.156-1.156-2.539-1.734-4.148-1.734
			c-1.632,0-3.015,0.566-4.147,1.7c-1.156,1.156-1.734,2.55-1.734,4.183c0,1.609,0.578,2.991,1.734,4.147
			c1.156,1.155,2.538,1.733,4.147,1.733c1.633,0,3.015-0.566,4.148-1.699c1.156-1.156,1.734-2.551,1.734-4.182
			C825.79,406.258,825.212,404.875,824.056,403.719z"/>
		<path d="M830.515,407.561c0,1.904,0.511,3.412,1.53,4.521c1.065,1.135,2.527,1.701,4.386,1.701c0.952,0,1.813-0.158,2.584-0.477
			c0.975-0.408,1.848-1.235,2.618-2.482l1.258,0.578c-0.884,1.678-2.243,2.811-4.08,3.4c-0.702,0.227-1.495,0.34-2.38,0.34
			c-2.107,0-3.842-0.691-5.201-2.074c-1.384-1.382-2.074-3.116-2.074-5.201c0-2.108,0.68-3.843,2.04-5.203
			c1.382-1.382,3.128-2.073,5.235-2.073c2.086,0,3.809,0.646,5.168,1.938c1.383,1.291,2.074,2.969,2.074,5.031H830.515z
			 M840.103,403.106c-1.065-0.771-2.289-1.155-3.672-1.155c-2.901,0-4.806,1.428-5.712,4.283h11.391
			C841.882,404.942,841.213,403.9,840.103,403.106z"/>
		<path d="M853.533,402.902c-0.363-0.271-0.748-0.486-1.156-0.646s-0.839-0.238-1.292-0.238c-0.386,0-0.748,0.119-1.088,0.356
			c-0.34,0.238-0.635,0.533-0.884,0.885c-0.25,0.352-0.448,0.742-0.595,1.173c-0.148,0.431-0.222,0.827-0.222,1.19v9.248h-1.394
			v-14.043h1.394v1.904c0.295-0.521,0.681-0.997,1.156-1.428c0.476-0.43,0.997-0.646,1.564-0.646c0.702,0,1.28,0.08,1.733,0.238
			c0.453,0.159,0.963,0.441,1.53,0.85L853.533,402.902z"/>
		<path d="M859.551,402.223v12.648h-1.394v-12.648h-1.904v-1.395h1.904v-6.153h1.394v6.153h3.265v1.395H859.551z"/>
		<path d="M868.493,421.467h-1.563l3.638-7.889l-5.916-12.75h1.496l5.235,11.084l5.168-11.084h1.53L868.493,421.467z"/>
		<path d="M880.834,418.373l-0.441-0.307l2.516-5.542l1.189,0.511L880.834,418.373z"/>
		<path d="M908.102,413c-1.405,1.406-3.128,2.108-5.168,2.108c-2.334,0-4.262-0.952-5.779-2.856v9.215h-1.395v-20.639h1.395v2.652
			c1.45-1.904,3.377-2.855,5.779-2.855c2.04,0,3.752,0.691,5.135,2.074c1.404,1.405,2.107,3.127,2.107,5.168
			C910.176,409.906,909.484,411.618,908.102,413z M907.082,403.719c-1.156-1.156-2.539-1.734-4.148-1.734
			c-1.632,0-3.015,0.566-4.147,1.7c-1.156,1.156-1.734,2.55-1.734,4.183c0,1.609,0.578,2.991,1.734,4.147
			c1.156,1.155,2.538,1.733,4.147,1.733c1.633,0,3.015-0.566,4.148-1.699c1.156-1.156,1.734-2.551,1.734-4.182
			C908.816,406.258,908.238,404.875,907.082,403.719z"/>
		<path d="M919.899,402.902c-0.363-0.271-0.748-0.486-1.156-0.646s-0.839-0.238-1.292-0.238c-0.386,0-0.748,0.119-1.088,0.356
			c-0.34,0.238-0.635,0.533-0.884,0.885c-0.25,0.352-0.448,0.742-0.595,1.173c-0.148,0.431-0.222,0.827-0.222,1.19v9.248h-1.394
			v-14.043h1.394v1.904c0.295-0.521,0.681-0.997,1.156-1.428c0.476-0.43,0.997-0.646,1.564-0.646c0.702,0,1.28,0.08,1.733,0.238
			c0.453,0.159,0.963,0.441,1.53,0.85L919.899,402.902z"/>
		<path d="M933.023,413c-1.405,1.406-3.128,2.108-5.168,2.108s-3.751-0.69-5.134-2.073c-1.405-1.406-2.107-3.129-2.107-5.168
			c0-2.018,0.702-3.729,2.107-5.135c1.383-1.428,3.094-2.142,5.134-2.142c2.018,0,3.729,0.702,5.135,2.108
			c1.404,1.405,2.107,3.127,2.107,5.168C935.098,409.906,934.406,411.618,933.023,413z M932.038,403.685
			c-1.134-1.155-2.528-1.733-4.183-1.733c-1.587,0-2.958,0.59-4.113,1.768c-1.18,1.179-1.769,2.562-1.769,4.148
			c0,1.609,0.578,2.991,1.734,4.147c1.156,1.155,2.538,1.733,4.147,1.733c1.633,0,3.015-0.566,4.148-1.699
			c1.156-1.156,1.734-2.551,1.734-4.182C933.738,406.213,933.171,404.818,932.038,403.685z"/>
		<path d="M942.067,415.482l-6.63-14.654h1.496l5.1,11.187l5.135-11.187h1.563L942.067,415.482z"/>
		<path d="M952.166,405.045c-0.25,0-0.511-0.103-0.782-0.307c-0.204-0.203-0.318-0.476-0.34-0.816c0-0.611,0.374-0.985,1.122-1.121
			c0.565,0,0.939,0.374,1.121,1.121C953.287,404.67,952.913,405.045,952.166,405.045z M952.166,415.074
			c-0.25,0-0.511-0.102-0.782-0.306c-0.204-0.204-0.318-0.476-0.34-0.815c0-0.612,0.374-0.986,1.122-1.123
			c0.565,0,0.939,0.375,1.121,1.123C953.287,414.701,952.913,415.074,952.166,415.074z"/>
		<path d="M957.266,414.871v-24.276h11.662v1.394h-10.269v8.84h10.269v1.496h-10.269v11.152h10.269v1.395H957.266z"/>
		<path d="M981.372,414.871v-8.398c0-2.969-1.338-4.454-4.013-4.454c-1.314,0-2.312,0.386-2.991,1.156
			c-0.703,0.771-1.055,1.825-1.055,3.161v8.535h-1.394v-14.043h1.394v1.701c0.635-1.247,1.983-1.871,4.046-1.871
			c1.745,0,3.083,0.499,4.013,1.496c0.929,0.998,1.394,2.393,1.394,4.182v8.535H981.372z"/>
		<path d="M989.36,402.223v12.648h-1.394v-12.648h-1.904v-1.395h1.904v-6.153h1.394v6.153h3.265v1.395H989.36z"/>
		<path d="M996.705,398.313c-0.25,0-0.511-0.102-0.782-0.306c-0.204-0.204-0.317-0.476-0.34-0.816c0-0.612,0.374-0.985,1.122-1.122
			c0.566,0,0.94,0.374,1.122,1.122C997.827,397.938,997.453,398.313,996.705,398.313z M995.991,414.871v-14.043h1.394v14.043
			H995.991z"/>
		<path d="M1004.116,402.223v12.648h-1.394v-12.648h-1.904v-1.395h1.904v-6.153h1.394v6.153h3.265v1.395H1004.116z"/>
		<path d="M1013.059,421.467h-1.563l3.638-7.889l-5.916-12.75h1.496l5.235,11.084l5.168-11.084h1.53L1013.059,421.467z"/>
	</g>
</g>
<g>
	<g>
		
			<line fill="none" stroke="#000000" stroke-width="0.8" stroke-miterlimit="10" x1="880.834" y1="493.449" x2="880.834" y2="489.449"/>
		
			<line fill="none" stroke="#000000" stroke-width="0.8" stroke-miterlimit="10" stroke-dasharray="7.5094,7.5094" x1="880.834" y1="481.939" x2="880.834" y2="440.639"/>
		
			<line fill="none" stroke="#000000" stroke-width="0.8" stroke-miterlimit="10" x1="880.834" y1="436.883" x2="880.834" y2="432.883"/>
		<g>
			<polygon points="886.759,437.377 880.834,434.859 874.909,437.377 880.834,423.332 			"/>
		</g>
	</g>
</g>
<g>
	<g>
		<path d="M533.651,626.402c-1.157,1.158-2.576,1.736-4.256,1.736c-1.923,0-3.51-0.783-4.76-2.352v7.588h-1.148v-16.996h1.148v2.184
			c1.194-1.568,2.78-2.352,4.76-2.352c1.68,0,3.089,0.57,4.228,1.707c1.157,1.158,1.736,2.576,1.736,4.258
			C535.359,623.855,534.79,625.264,533.651,626.402z M532.812,618.76c-0.952-0.953-2.091-1.43-3.416-1.43
			c-1.344,0-2.483,0.467-3.416,1.4c-0.952,0.953-1.428,2.1-1.428,3.445c0,1.324,0.476,2.463,1.428,3.416
			c0.952,0.951,2.09,1.428,3.416,1.428c1.344,0,2.482-0.467,3.416-1.4c0.952-0.953,1.428-2.1,1.428-3.443
			C534.239,620.85,533.764,619.711,532.812,618.76z"/>
		<path d="M543.366,618.086c-0.299-0.223-0.615-0.4-0.951-0.531c-0.337-0.131-0.691-0.195-1.064-0.195
			c-0.317,0-0.616,0.098-0.896,0.293c-0.28,0.197-0.523,0.439-0.729,0.729c-0.206,0.289-0.369,0.611-0.49,0.967
			c-0.121,0.354-0.182,0.682-0.182,0.979v7.617h-1.148v-11.564h1.148v1.568c0.242-0.43,0.56-0.822,0.952-1.176
			c0.392-0.355,0.821-0.533,1.288-0.533c0.578,0,1.054,0.066,1.428,0.197c0.373,0.131,0.793,0.363,1.26,0.699L543.366,618.086z"/>
		<path d="M554.176,626.402c-1.158,1.158-2.576,1.736-4.256,1.736c-1.681,0-3.09-0.568-4.229-1.707
			c-1.157-1.158-1.735-2.576-1.735-4.256c0-1.662,0.578-3.07,1.735-4.229c1.139-1.176,2.548-1.764,4.229-1.764
			c1.661,0,3.07,0.578,4.228,1.734c1.157,1.158,1.736,2.576,1.736,4.258C555.884,623.855,555.313,625.264,554.176,626.402z
			 M553.363,618.73c-0.934-0.951-2.081-1.428-3.443-1.428c-1.308,0-2.437,0.486-3.389,1.457c-0.971,0.971-1.456,2.109-1.456,3.416
			c0,1.324,0.477,2.463,1.429,3.416c0.952,0.951,2.09,1.428,3.416,1.428c1.344,0,2.482-0.467,3.416-1.4
			c0.951-0.953,1.428-2.1,1.428-3.443C554.764,620.813,554.297,619.664,553.363,618.73z"/>
		<path d="M561.623,628.447l-5.46-12.068h1.232l4.2,9.213l4.228-9.213h1.288L561.623,628.447z"/>
		<path d="M569.938,619.852c-0.205,0-0.42-0.084-0.644-0.252c-0.168-0.168-0.262-0.393-0.28-0.672c0-0.504,0.309-0.813,0.924-0.926
			c0.467,0,0.774,0.309,0.925,0.926C570.863,619.543,570.555,619.852,569.938,619.852z M569.938,628.111
			c-0.205,0-0.42-0.084-0.644-0.252c-0.168-0.168-0.262-0.393-0.28-0.672c0-0.504,0.309-0.813,0.924-0.924
			c0.467,0,0.774,0.307,0.925,0.924C570.863,627.803,570.555,628.111,569.938,628.111z"/>
		<path d="M583.295,631.807c-1.045,1.045-2.417,1.568-4.115,1.568c-3.155,0-5.04-1.242-5.656-3.725h1.147
			c0.206,0.914,0.794,1.596,1.765,2.045c0.765,0.354,1.68,0.531,2.744,0.531c1.437,0,2.548-0.4,3.332-1.203
			c0.802-0.803,1.204-1.924,1.204-3.361v-1.707c-1.214,1.455-2.754,2.184-4.62,2.184c-1.681,0-3.09-0.568-4.229-1.707
			c-1.157-1.158-1.735-2.576-1.735-4.256c0-1.682,0.568-3.09,1.708-4.229c1.156-1.158,2.575-1.736,4.256-1.736
			c1.848,0,3.388,0.729,4.62,2.184v-2.016h1.147v11.313C584.863,629.389,584.341,630.762,583.295,631.807z M582.512,618.76
			c-0.952-0.953-2.091-1.43-3.416-1.43c-1.345,0-2.483,0.467-3.416,1.4c-0.952,0.953-1.429,2.1-1.429,3.445
			c0,1.324,0.477,2.463,1.429,3.416c0.952,0.951,2.09,1.428,3.416,1.428c1.344,0,2.482-0.467,3.416-1.4
			c0.951-0.953,1.428-2.1,1.428-3.443C583.939,620.85,583.463,619.711,582.512,618.76z"/>
		<path d="M588.503,621.924c0,1.566,0.42,2.809,1.26,3.723c0.877,0.934,2.081,1.4,3.612,1.4c0.783,0,1.493-0.131,2.128-0.393
			c0.802-0.336,1.521-1.018,2.155-2.043l1.036,0.475c-0.728,1.383-1.848,2.316-3.359,2.801c-0.579,0.188-1.232,0.279-1.96,0.279
			c-1.736,0-3.164-0.568-4.284-1.707c-1.139-1.139-1.708-2.566-1.708-4.283c0-1.736,0.56-3.164,1.68-4.285
			c1.139-1.139,2.576-1.707,4.313-1.707c1.717,0,3.136,0.531,4.256,1.596c1.138,1.064,1.708,2.445,1.708,4.145H588.503z
			 M596.398,618.254c-0.877-0.633-1.886-0.951-3.023-0.951c-2.39,0-3.958,1.176-4.704,3.527h9.38
			C597.864,619.768,597.313,618.908,596.398,618.254z"/>
		<path d="M609.782,627.943v-6.916c0-2.445-1.102-3.668-3.304-3.668c-1.083,0-1.904,0.316-2.464,0.951
			c-0.579,0.635-0.868,1.504-0.868,2.604v7.029h-1.148v-11.564h1.148v1.4c0.522-1.027,1.633-1.541,3.332-1.541
			c1.438,0,2.538,0.412,3.304,1.232c0.766,0.822,1.148,1.971,1.148,3.443v7.029H609.782z"/>
		<path d="M614.851,621.924c0,1.566,0.42,2.809,1.26,3.723c0.877,0.934,2.081,1.4,3.612,1.4c0.783,0,1.493-0.131,2.128-0.393
			c0.802-0.336,1.521-1.018,2.155-2.043l1.036,0.475c-0.728,1.383-1.848,2.316-3.359,2.801c-0.579,0.188-1.232,0.279-1.96,0.279
			c-1.736,0-3.164-0.568-4.284-1.707c-1.139-1.139-1.708-2.566-1.708-4.283c0-1.736,0.56-3.164,1.68-4.285
			c1.139-1.139,2.576-1.707,4.313-1.707c1.717,0,3.136,0.531,4.256,1.596c1.138,1.064,1.708,2.445,1.708,4.145H614.851z
			 M622.746,618.254c-0.877-0.633-1.886-0.951-3.023-0.951c-2.39,0-3.958,1.176-4.704,3.527h9.38
			C624.212,619.768,623.661,618.908,622.746,618.254z"/>
		<path d="M633.806,618.086c-0.299-0.223-0.615-0.4-0.951-0.531c-0.337-0.131-0.691-0.195-1.064-0.195
			c-0.317,0-0.616,0.098-0.896,0.293c-0.28,0.197-0.523,0.439-0.729,0.729c-0.206,0.289-0.369,0.611-0.49,0.967
			c-0.121,0.354-0.182,0.682-0.182,0.979v7.617h-1.148v-11.564h1.148v1.568c0.242-0.43,0.56-0.822,0.952-1.176
			c0.392-0.355,0.821-0.533,1.288-0.533c0.578,0,1.054,0.066,1.428,0.197c0.373,0.131,0.793,0.363,1.26,0.699L633.806,618.086z"/>
		<path d="M646.183,627.943v-1.988c-1.214,1.455-2.754,2.184-4.62,2.184c-1.681,0-3.09-0.568-4.229-1.707
			c-1.157-1.158-1.735-2.576-1.735-4.256c0-1.682,0.568-3.09,1.708-4.229c1.156-1.158,2.575-1.736,4.256-1.736
			c1.848,0,3.388,0.729,4.62,2.184v-2.016h1.147v11.564H646.183z M644.979,618.76c-0.952-0.953-2.091-1.43-3.416-1.43
			c-1.345,0-2.483,0.467-3.416,1.4c-0.952,0.953-1.429,2.1-1.429,3.445c0,1.324,0.477,2.463,1.429,3.416
			c0.952,0.951,2.09,1.428,3.416,1.428c1.344,0,2.482-0.467,3.416-1.4c0.951-0.953,1.428-2.1,1.428-3.443
			C646.406,620.85,645.93,619.711,644.979,618.76z"/>
		<path d="M652.482,617.527v10.416h-1.148v-10.416h-1.567v-1.148h1.567v-5.068h1.148v5.068h2.688v1.148H652.482z"/>
		<path d="M657.971,621.924c0,1.566,0.42,2.809,1.26,3.723c0.877,0.934,2.081,1.4,3.612,1.4c0.783,0,1.493-0.131,2.128-0.393
			c0.802-0.336,1.521-1.018,2.155-2.043l1.036,0.475c-0.728,1.383-1.848,2.316-3.359,2.801c-0.579,0.188-1.232,0.279-1.96,0.279
			c-1.736,0-3.164-0.568-4.284-1.707c-1.139-1.139-1.708-2.566-1.708-4.283c0-1.736,0.56-3.164,1.68-4.285
			c1.139-1.139,2.576-1.707,4.313-1.707c1.717,0,3.136,0.531,4.256,1.596c1.138,1.064,1.708,2.445,1.708,4.145H657.971z
			 M665.866,618.254c-0.877-0.633-1.886-0.951-3.023-0.951c-2.39,0-3.958,1.176-4.704,3.527h9.38
			C667.332,619.768,666.781,618.908,665.866,618.254z"/>
		<path d="M681.49,627.943v-2.072c-1.232,1.512-2.8,2.268-4.704,2.268c-1.68,0-3.09-0.568-4.228-1.707
			c-1.158-1.158-1.736-2.576-1.736-4.256c0-1.682,0.569-3.09,1.708-4.229c1.157-1.158,2.576-1.736,4.256-1.736
			c1.848,0,3.416,0.756,4.704,2.268v-11.256h1.147v20.721H681.49z M680.202,618.76c-0.952-0.953-2.091-1.43-3.416-1.43
			c-1.344,0-2.482,0.467-3.416,1.4c-0.952,0.953-1.428,2.1-1.428,3.445c0,1.324,0.476,2.463,1.428,3.416
			c0.952,0.951,2.091,1.428,3.416,1.428c1.344,0,2.482-0.467,3.416-1.4c0.952-0.953,1.428-2.1,1.428-3.443
			C681.63,620.85,681.154,619.711,680.202,618.76z"/>
		<path d="M699.914,627.943l-2.296-5.992h-9.101l-2.323,5.992h-1.12l7.979-20.637l8.009,20.637H699.914z M693.054,610.219
			l-4.088,10.584h8.176L693.054,610.219z"/>
		<path d="M704.086,617.527v10.416h-1.148v-10.416h-1.567v-1.148h1.567v-5.068h1.148v5.068h2.688v1.148H704.086z"/>
		<path d="M711.142,609.1v18.844h-1.148V609.1h-4.424v-1.148h9.996v1.148H711.142z"/>
		<path d="M715.678,614.307c-0.205,0-0.42-0.084-0.644-0.252c-0.168-0.168-0.262-0.393-0.28-0.672c0-0.504,0.308-0.813,0.924-0.924
			c0.467,0,0.774,0.309,0.924,0.924C716.602,613.998,716.294,614.307,715.678,614.307z M715.09,627.943v-11.564h1.148v11.564H715.09
			z"/>
		<path d="M731.861,627.943v-7.98c0-0.709-0.233-1.326-0.7-1.848c-0.467-0.523-1.139-0.785-2.016-0.785
			c-1.811,0-2.716,0.879-2.716,2.633v7.98h-1.148v-7.98c0-0.783-0.262-1.41-0.784-1.877c-0.541-0.504-1.186-0.756-1.932-0.756
			c-0.766,0-1.409,0.244-1.932,0.729c-0.523,0.467-0.784,1.102-0.784,1.904v7.98h-1.148v-11.564h1.148v1.148
			c0.56-0.877,1.465-1.316,2.716-1.316c1.493,0,2.595,0.607,3.304,1.82c0.673-1.213,1.765-1.82,3.276-1.82
			c1.157,0,2.091,0.326,2.8,0.98c0.709,0.672,1.064,1.596,1.064,2.771v7.98H731.861z"/>
		<path d="M736.93,621.924c0,1.566,0.42,2.809,1.26,3.723c0.877,0.934,2.081,1.4,3.612,1.4c0.783,0,1.493-0.131,2.128-0.393
			c0.802-0.336,1.521-1.018,2.155-2.043l1.036,0.475c-0.728,1.383-1.848,2.316-3.359,2.801c-0.579,0.188-1.232,0.279-1.96,0.279
			c-1.736,0-3.164-0.568-4.284-1.707c-1.139-1.139-1.708-2.566-1.708-4.283c0-1.736,0.56-3.164,1.68-4.285
			c1.139-1.139,2.576-1.707,4.313-1.707c1.717,0,3.136,0.531,4.256,1.596c1.138,1.064,1.708,2.445,1.708,4.145H736.93z
			 M744.825,618.254c-0.877-0.633-1.886-0.951-3.023-0.951c-2.39,0-3.958,1.176-4.704,3.527h9.38
			C746.291,619.768,745.74,618.908,744.825,618.254z"/>
	</g>
</g>
<g>
	<g>
		<path d="M1028.651,603.402c-1.157,1.158-2.576,1.736-4.256,1.736c-1.923,0-3.51-0.783-4.76-2.352v7.588h-1.148v-16.996h1.148
			v2.184c1.194-1.568,2.78-2.352,4.76-2.352c1.68,0,3.089,0.57,4.228,1.707c1.157,1.158,1.736,2.576,1.736,4.258
			C1030.359,600.855,1029.79,602.264,1028.651,603.402z M1027.812,595.76c-0.952-0.953-2.091-1.43-3.416-1.43
			c-1.344,0-2.483,0.467-3.416,1.4c-0.952,0.953-1.428,2.1-1.428,3.445c0,1.324,0.476,2.463,1.428,3.416
			c0.952,0.951,2.09,1.428,3.416,1.428c1.344,0,2.482-0.467,3.416-1.4c0.952-0.953,1.428-2.1,1.428-3.443
			C1029.239,597.85,1028.764,596.711,1027.812,595.76z"/>
		<path d="M1038.366,595.086c-0.299-0.223-0.615-0.4-0.951-0.531c-0.337-0.131-0.691-0.195-1.064-0.195
			c-0.317,0-0.616,0.098-0.896,0.293c-0.28,0.197-0.523,0.439-0.729,0.729c-0.206,0.289-0.369,0.611-0.49,0.967
			c-0.121,0.354-0.182,0.682-0.182,0.979v7.617h-1.148v-11.564h1.148v1.568c0.242-0.43,0.56-0.822,0.952-1.176
			c0.392-0.355,0.821-0.533,1.288-0.533c0.578,0,1.054,0.066,1.428,0.197c0.373,0.131,0.793,0.363,1.26,0.699L1038.366,595.086z"/>
		<path d="M1049.176,603.402c-1.158,1.158-2.576,1.736-4.256,1.736c-1.681,0-3.09-0.568-4.229-1.707
			c-1.157-1.158-1.735-2.576-1.735-4.256c0-1.662,0.578-3.07,1.735-4.229c1.139-1.176,2.548-1.764,4.229-1.764
			c1.661,0,3.07,0.578,4.228,1.734c1.157,1.158,1.736,2.576,1.736,4.258C1050.884,600.855,1050.313,602.264,1049.176,603.402z
			 M1048.363,595.73c-0.934-0.951-2.081-1.428-3.443-1.428c-1.308,0-2.437,0.486-3.389,1.457c-0.971,0.971-1.456,2.109-1.456,3.416
			c0,1.324,0.477,2.463,1.429,3.416c0.952,0.951,2.09,1.428,3.416,1.428c1.344,0,2.482-0.467,3.416-1.4
			c0.951-0.953,1.428-2.1,1.428-3.443C1049.764,597.813,1049.297,596.664,1048.363,595.73z"/>
		<path d="M1056.623,605.447l-5.46-12.068h1.232l4.2,9.213l4.228-9.213h1.288L1056.623,605.447z"/>
		<path d="M1064.938,596.852c-0.205,0-0.42-0.084-0.644-0.252c-0.168-0.168-0.262-0.393-0.28-0.672c0-0.504,0.309-0.813,0.924-0.926
			c0.467,0,0.774,0.309,0.925,0.926C1065.863,596.543,1065.555,596.852,1064.938,596.852z M1064.938,605.111
			c-0.205,0-0.42-0.084-0.644-0.252c-0.168-0.168-0.262-0.393-0.28-0.672c0-0.504,0.309-0.813,0.924-0.924
			c0.467,0,0.774,0.307,0.925,0.924C1065.863,604.803,1065.555,605.111,1064.938,605.111z"/>
		<path d="M1080.424,605.447l-3.612-9.24l-3.668,9.24l-5.181-12.068h1.232l3.892,8.961l3.725-9.324l3.696,9.295l3.863-8.932h1.288
			L1080.424,605.447z"/>
		<path d="M1096.579,604.943v-1.988c-1.214,1.455-2.754,2.184-4.62,2.184c-1.681,0-3.09-0.568-4.229-1.707
			c-1.157-1.158-1.735-2.576-1.735-4.256c0-1.682,0.568-3.09,1.708-4.229c1.156-1.158,2.575-1.736,4.256-1.736
			c1.848,0,3.388,0.729,4.62,2.184v-2.016h1.147v11.564H1096.579z M1095.375,595.76c-0.952-0.953-2.091-1.43-3.416-1.43
			c-1.345,0-2.483,0.467-3.416,1.4c-0.952,0.953-1.429,2.1-1.429,3.445c0,1.324,0.477,2.463,1.429,3.416
			c0.952,0.951,2.09,1.428,3.416,1.428c1.344,0,2.482-0.467,3.416-1.4c0.951-0.953,1.428-2.1,1.428-3.443
			C1096.803,597.85,1096.326,596.711,1095.375,595.76z"/>
		<path d="M1106.827,604.215c-0.747,0.635-1.643,0.951-2.688,0.951c-1.792,0-3.136-0.811-4.032-2.436l0.98-0.588
			c0.317,0.58,0.7,1.027,1.148,1.344c0.466,0.355,1.101,0.533,1.903,0.533c1.755,0,2.632-0.746,2.632-2.24
			c0-0.654-0.308-1.223-0.924-1.709c-0.187-0.111-0.452-0.238-0.798-0.377c-0.346-0.141-0.77-0.303-1.273-0.49
			c-0.935-0.336-1.606-0.672-2.017-1.008c-0.598-0.486-0.896-1.186-0.896-2.1c0-0.785,0.298-1.457,0.896-2.018
			c0.578-0.578,1.335-0.867,2.269-0.867c1.287,0,2.38,0.447,3.275,1.344l-0.84,0.729c-0.635-0.635-1.447-0.953-2.436-0.953
			c-1.345,0-2.017,0.588-2.017,1.766c0,0.521,0.205,0.951,0.616,1.287c0.336,0.262,0.868,0.514,1.596,0.756
			c0.635,0.225,1.157,0.434,1.568,0.631c0.41,0.195,0.719,0.367,0.924,0.518c0.803,0.615,1.204,1.447,1.204,2.492
			C1107.919,602.787,1107.555,603.6,1106.827,604.215z"/>
		<path d="M1124.271,604.943l-2.296-5.992h-9.101l-2.323,5.992h-1.12l7.979-20.637l8.009,20.637H1124.271z M1117.41,587.219
			l-4.088,10.584h8.176L1117.41,587.219z"/>
		<path d="M1128.442,594.527v10.416h-1.148v-10.416h-1.567v-1.148h1.567v-5.068h1.148v5.068h2.688v1.148H1128.442z"/>
		<path d="M1135.442,594.527v10.416h-1.148v-10.416h-1.567v-1.148h1.567v-5.068h1.148v5.068h2.688v1.148H1135.442z"/>
		<path d="M1146.166,595.086c-0.299-0.223-0.615-0.4-0.951-0.531c-0.337-0.131-0.691-0.195-1.064-0.195
			c-0.317,0-0.616,0.098-0.896,0.293c-0.28,0.197-0.523,0.439-0.729,0.729c-0.206,0.289-0.369,0.611-0.49,0.967
			c-0.121,0.354-0.182,0.682-0.182,0.979v7.617h-1.148v-11.564h1.148v1.568c0.242-0.43,0.56-0.822,0.952-1.176
			c0.392-0.355,0.821-0.533,1.288-0.533c0.578,0,1.054,0.066,1.428,0.197c0.373,0.131,0.793,0.363,1.26,0.699L1146.166,595.086z"/>
		<path d="M1150.171,591.307c-0.205,0-0.42-0.084-0.644-0.252c-0.168-0.168-0.262-0.393-0.28-0.672c0-0.504,0.308-0.813,0.924-0.924
			c0.467,0,0.774,0.309,0.924,0.924C1151.095,590.998,1150.787,591.307,1150.171,591.307z M1149.583,604.943v-11.564h1.148v11.564
			H1149.583z"/>
		<path d="M1164.366,603.402c-1.157,1.158-2.576,1.736-4.256,1.736c-1.923,0-3.5-0.773-4.731-2.324v2.129h-1.148v-20.721h1.148
			v11.313c1.213-1.549,2.79-2.324,4.731-2.324c1.68,0,3.089,0.57,4.229,1.707c1.157,1.158,1.735,2.576,1.735,4.258
			C1166.074,600.855,1165.505,602.264,1164.366,603.402z M1163.526,595.76c-0.952-0.953-2.091-1.43-3.416-1.43
			c-1.344,0-2.482,0.467-3.416,1.4c-0.952,0.953-1.428,2.1-1.428,3.445c0,1.324,0.476,2.463,1.428,3.416
			c0.952,0.951,2.091,1.428,3.416,1.428c1.344,0,2.482-0.467,3.416-1.4c0.952-0.953,1.428-2.1,1.428-3.443
			C1164.954,597.85,1164.479,596.711,1163.526,595.76z"/>
		<path d="M1176.378,603.936c-0.766,0.82-1.839,1.23-3.22,1.23c-1.363,0-2.418-0.4-3.164-1.203c-0.747-0.803-1.12-1.922-1.12-3.359
			v-7.225h1.148v7.225c0,1.102,0.242,1.949,0.728,2.547c0.504,0.598,1.307,0.896,2.408,0.896c2.146,0,3.22-1.148,3.22-3.443v-7.225
			h1.12v7.225C1177.498,602.021,1177.124,603.133,1176.378,603.936z"/>
		<path d="M1182.762,594.527v10.416h-1.148v-10.416h-1.567v-1.148h1.567v-5.068h1.148v5.068h2.688v1.148H1182.762z"/>
		<path d="M1188.25,598.924c0,1.566,0.42,2.809,1.26,3.723c0.877,0.934,2.081,1.4,3.612,1.4c0.783,0,1.493-0.131,2.128-0.393
			c0.802-0.336,1.521-1.018,2.155-2.043l1.036,0.475c-0.728,1.383-1.848,2.316-3.359,2.801c-0.579,0.188-1.232,0.279-1.96,0.279
			c-1.736,0-3.164-0.568-4.284-1.707c-1.139-1.139-1.708-2.566-1.708-4.283c0-1.736,0.56-3.164,1.68-4.285
			c1.139-1.139,2.576-1.707,4.313-1.707c1.717,0,3.136,0.531,4.256,1.596c1.138,1.064,1.708,2.445,1.708,4.145H1188.25z
			 M1196.146,595.254c-0.877-0.633-1.886-0.951-3.023-0.951c-2.39,0-3.958,1.176-4.704,3.527h9.38
			C1197.611,596.768,1197.061,595.908,1196.146,595.254z"/>
		<path d="M1211.77,604.943v-2.072c-1.232,1.512-2.8,2.268-4.704,2.268c-1.68,0-3.09-0.568-4.228-1.707
			c-1.158-1.158-1.736-2.576-1.736-4.256c0-1.682,0.569-3.09,1.708-4.229c1.157-1.158,2.576-1.736,4.256-1.736
			c1.848,0,3.416,0.756,4.704,2.268v-11.256h1.147v20.721H1211.77z M1210.481,595.76c-0.952-0.953-2.091-1.43-3.416-1.43
			c-1.344,0-2.482,0.467-3.416,1.4c-0.952,0.953-1.428,2.1-1.428,3.445c0,1.324,0.476,2.463,1.428,3.416
			c0.952,0.951,2.091,1.428,3.416,1.428c1.344,0,2.482-0.467,3.416-1.4c0.952-0.953,1.428-2.1,1.428-3.443
			C1211.909,597.85,1211.434,596.711,1210.481,595.76z"/>
		<path d="M1221.317,586.1v18.844h-1.148V586.1h-4.424v-1.148h9.996v1.148H1221.317z"/>
		<path d="M1235.038,603.402c-1.158,1.158-2.576,1.736-4.256,1.736c-1.681,0-3.09-0.568-4.229-1.707
			c-1.157-1.158-1.735-2.576-1.735-4.256c0-1.662,0.578-3.07,1.735-4.229c1.139-1.176,2.548-1.764,4.229-1.764
			c1.661,0,3.07,0.578,4.228,1.734c1.157,1.158,1.736,2.576,1.736,4.258C1236.746,600.855,1236.176,602.264,1235.038,603.402z
			 M1234.226,595.73c-0.934-0.951-2.081-1.428-3.443-1.428c-1.308,0-2.437,0.486-3.389,1.457c-0.971,0.971-1.456,2.109-1.456,3.416
			c0,1.324,0.477,2.463,1.429,3.416c0.952,0.951,2.09,1.428,3.416,1.428c1.344,0,2.482-0.467,3.416-1.4
			c0.951-0.953,1.428-2.1,1.428-3.443C1235.626,597.813,1235.159,596.664,1234.226,595.73z"/>
	</g>
</g>
<g>
	<g>
		<path fill="none" stroke="#000000" stroke-width="0.8286" stroke-miterlimit="10" d="M811.225,579.125
			c0,31.689-70.405,47.125-83.063,78.215"/>
		<g>
			<polygon points="723.567,651.479 728.948,655.416 735.518,654.277 726.225,667.043 			"/>
		</g>
	</g>
</g>
<g>
	<g>
		<path fill="none" stroke="#000000" stroke-width="0.8286" stroke-miterlimit="10" d="M954.519,579.125
			c0,20.863,37.18,9.014,88.486,55.979"/>
		<g>
			<polygon points="1035.348,636.453 1041.451,633.768 1043.754,627.51 1050.151,641.945 			"/>
		</g>
	</g>
</g>
<g>
	<g>
		<path d="M548.675,677.506v-3.979c0-0.748,0.204-1.281,0.611-1.598h0.681c-0.408,0.453-0.612,0.986-0.612,1.598v1.529h1.122v2.449
			H548.675z M552.585,677.506v-3.979c0-0.748,0.204-1.281,0.611-1.598h0.681c-0.408,0.453-0.612,0.986-0.612,1.598v1.529h1.122
			v2.449H552.585z"/>
		<path d="M570.91,684.475c-0.204,0.25-0.51,0.619-0.918,1.105c-0.408,0.488-0.93,1.094-1.564,1.818l-6.97,7.889h11.628v1.395
			h-14.688l11.899-13.77c0.952-1.361,1.429-2.777,1.429-4.25c0-1.43-0.567-2.641-1.7-3.639c-1.134-0.975-2.448-1.463-3.944-1.463
			c-1.836,0-3.275,0.59-4.317,1.77c-0.636,0.701-1.077,1.574-1.326,2.617h-1.53c0.158-1.178,0.748-2.346,1.768-3.502
			c1.36-1.496,3.162-2.244,5.406-2.244c1.927,0,3.581,0.602,4.964,1.803c1.383,1.178,2.074,2.73,2.074,4.658
			C573.12,680.633,572.384,682.57,570.91,684.475z"/>
		<path d="M591.311,692.736c-1.632,2.857-3.944,4.285-6.937,4.285c-2.969,0-5.27-1.439-6.901-4.318
			c-1.338-2.357-2.006-5.145-2.006-8.363c0-3.242,0.668-6.041,2.006-8.398c1.632-2.879,3.933-4.318,6.901-4.318
			c2.97,0,5.271,1.439,6.902,4.318c1.337,2.402,2.006,5.201,2.006,8.398C593.282,687.604,592.625,690.402,591.311,692.736z
			 M590.223,676.961c-1.338-2.629-3.287-3.943-5.849-3.943c-2.289,0-4.137,1.178-5.542,3.535c-1.246,2.131-1.869,4.727-1.869,7.787
			c0,2.787,0.532,5.225,1.598,7.309c1.36,2.631,3.298,3.945,5.813,3.945c2.335,0,4.193-1.168,5.576-3.502
			c1.247-2.063,1.87-4.646,1.87-7.752C591.82,681.506,591.288,679.047,590.223,676.961z"/>
		<path d="M597.975,696.682v-22.883h-4.114l0.918-1.395h4.59v24.277H597.975z"/>
		<path d="M615.791,695.186c-1.338,1.291-3.026,1.938-5.066,1.938c-2.063,0-3.763-0.635-5.1-1.904
			c-1.338-1.291-2.006-2.957-2.006-4.998c0-1.473,0.396-2.775,1.189-3.91c0.794-1.109,1.904-1.938,3.332-2.48
			c-1.134-0.342-2.04-1.066-2.72-2.178c-0.657-1.064-0.986-2.197-0.986-3.398c0-1.836,0.578-3.332,1.734-4.488
			c1.156-1.18,2.652-1.768,4.488-1.768c1.858,0,3.366,0.576,4.521,1.732c1.156,1.156,1.734,2.664,1.734,4.523
			c0,1.27-0.34,2.426-1.021,3.467c-0.657,1.02-1.586,1.723-2.787,2.109c1.224,0.453,2.221,1.1,2.991,1.938
			c1.11,1.178,1.666,2.664,1.666,4.453C617.763,692.238,617.105,693.893,615.791,695.186z M614.703,686.277
			c-0.567-0.566-1.185-1.014-1.854-1.344c-0.668-0.328-1.399-0.492-2.192-0.492c-0.771,0-1.485,0.164-2.143,0.492
			c-0.657,0.33-1.27,0.766-1.836,1.309c-1.134,1.135-1.7,2.461-1.7,3.979c0,1.543,0.533,2.846,1.599,3.91
			c1.088,1.088,2.448,1.633,4.08,1.633c1.654,0,3.014-0.521,4.08-1.564c1.11-1.043,1.666-2.369,1.666-3.979
			C616.403,688.68,615.836,687.365,614.703,686.277z M614.159,674.752c-0.93-0.93-2.097-1.395-3.502-1.395
			c-1.383,0-2.539,0.465-3.468,1.395c-0.93,0.93-1.395,2.096-1.395,3.502c0,1.359,0.465,2.504,1.395,3.434
			c0.453,0.453,0.969,0.828,1.547,1.121c0.578,0.295,1.218,0.443,1.921,0.443c0.725,0,1.377-0.137,1.955-0.408
			c0.578-0.273,1.093-0.635,1.547-1.088c0.929-0.93,1.394-2.098,1.394-3.502C615.553,676.848,615.088,675.682,614.159,674.752z"/>
		<path d="M620.517,688.385v-1.395h7.174v1.395H620.517z"/>
		<path d="M645.575,692.736c-1.632,2.857-3.944,4.285-6.937,4.285c-2.969,0-5.27-1.439-6.901-4.318
			c-1.338-2.357-2.006-5.145-2.006-8.363c0-3.242,0.668-6.041,2.006-8.398c1.632-2.879,3.933-4.318,6.901-4.318
			c2.97,0,5.271,1.439,6.902,4.318c1.337,2.402,2.006,5.201,2.006,8.398C647.547,687.604,646.89,690.402,645.575,692.736z
			 M644.487,676.961c-1.338-2.629-3.287-3.943-5.849-3.943c-2.289,0-4.137,1.178-5.542,3.535c-1.246,2.131-1.869,4.727-1.869,7.787
			c0,2.787,0.532,5.225,1.598,7.309c1.36,2.631,3.298,3.945,5.813,3.945c2.335,0,4.193-1.168,5.576-3.502
			c1.247-2.063,1.87-4.646,1.87-7.752C646.085,681.506,645.553,679.047,644.487,676.961z"/>
		<path d="M663.322,694.879c-1.587,1.588-3.581,2.381-5.983,2.381c-2.472,0-4.478-0.771-6.019-2.313
			c-1.542-1.586-2.312-3.604-2.312-6.053v-0.748c0-0.113,0-0.227,0-0.34c0-0.135,0.011-0.271,0.033-0.408
			c0.022-0.135,0.057-0.328,0.103-0.578c0.045-0.248,0.124-0.566,0.238-0.951c0.113-0.477,0.26-0.924,0.441-1.344
			c0.182-0.418,0.374-0.82,0.578-1.207l6.086-10.914h1.599l-5.168,9.418l1.428-0.713l1.462-0.408l1.53-0.137
			c2.38,0,4.362,0.795,5.949,2.381c1.609,1.609,2.414,3.592,2.414,5.949C665.702,691.299,664.909,693.293,663.322,694.879z
			 M662.303,684c-1.36-1.383-3.015-2.074-4.964-2.074c-1.928,0-3.57,0.68-4.931,2.039c-1.359,1.359-2.04,3.004-2.04,4.93
			c0,2.018,0.657,3.684,1.973,4.998c1.337,1.338,3.003,2.006,4.998,2.006c1.994,0,3.66-0.668,4.998-2.006
			c1.337-1.336,2.006-3.002,2.006-4.998C664.343,687.037,663.662,685.404,662.303,684z"/>
		<path d="M667.165,688.385v-1.395h7.174v1.395H667.165z"/>
		<path d="M685.797,696.682v-22.883h-4.114l0.918-1.395h4.59v24.277H685.797z"/>
		<path d="M707.506,682.078c-0.057,0.51-0.153,1.025-0.289,1.547c-0.113,0.453-0.255,0.891-0.425,1.309
			c-0.17,0.42-0.369,0.834-0.595,1.242l-6.053,10.846l-1.292-0.613l4.828-8.736l-1.428,0.713l-1.462,0.408l-1.53,0.137
			c-2.402,0-4.397-0.783-5.983-2.346c-1.587-1.588-2.381-3.582-2.381-5.984s0.794-4.398,2.381-5.984
			c1.586-1.586,3.581-2.381,5.983-2.381s4.386,0.795,5.95,2.381c1.586,1.586,2.38,3.582,2.38,5.984
			C707.591,681.074,707.563,681.568,707.506,682.078z M704.259,675.602c-1.338-1.338-3.004-2.006-4.998-2.006
			c-1.995,0-3.66,0.668-4.998,2.006s-2.006,3.004-2.006,4.998c0,1.904,0.668,3.547,2.006,4.93c1.314,1.359,2.98,2.039,4.998,2.039
			c1.973,0,3.627-0.668,4.964-2.006c1.338-1.336,2.006-2.992,2.006-4.963C706.23,678.582,705.573,676.916,704.259,675.602z"/>
		<path d="M714.765,673.799v22.883h-1.394v-22.883h-5.372v-1.395h12.138v1.395H714.765z"/>
		<path d="M736.355,692.736c-1.632,2.857-3.944,4.285-6.937,4.285c-2.969,0-5.27-1.439-6.901-4.318
			c-1.338-2.357-2.006-5.145-2.006-8.363c0-3.242,0.668-6.041,2.006-8.398c1.632-2.879,3.933-4.318,6.901-4.318
			c2.97,0,5.271,1.439,6.902,4.318c1.337,2.402,2.006,5.201,2.006,8.398C738.327,687.604,737.67,690.402,736.355,692.736z
			 M735.268,676.961c-1.338-2.629-3.287-3.943-5.849-3.943c-2.289,0-4.137,1.178-5.542,3.535c-1.246,2.131-1.869,4.727-1.869,7.787
			c0,2.787,0.532,5.225,1.598,7.309c1.36,2.631,3.298,3.945,5.813,3.945c2.335,0,4.193-1.168,5.576-3.502
			c1.247-2.063,1.87-4.646,1.87-7.752C736.865,681.506,736.333,679.047,735.268,676.961z"/>
		<path d="M753.219,695.186c-1.338,1.291-3.026,1.938-5.066,1.938c-2.063,0-3.763-0.635-5.1-1.904
			c-1.338-1.291-2.006-2.957-2.006-4.998c0-1.473,0.396-2.775,1.189-3.91c0.794-1.109,1.904-1.938,3.332-2.48
			c-1.134-0.342-2.04-1.066-2.72-2.178c-0.657-1.064-0.986-2.197-0.986-3.398c0-1.836,0.578-3.332,1.734-4.488
			c1.156-1.18,2.652-1.768,4.488-1.768c1.858,0,3.366,0.576,4.521,1.732c1.156,1.156,1.734,2.664,1.734,4.523
			c0,1.27-0.34,2.426-1.021,3.467c-0.657,1.02-1.586,1.723-2.787,2.109c1.224,0.453,2.221,1.1,2.991,1.938
			c1.11,1.178,1.666,2.664,1.666,4.453C755.19,692.238,754.533,693.893,753.219,695.186z M752.131,686.277
			c-0.567-0.566-1.185-1.014-1.854-1.344c-0.668-0.328-1.399-0.492-2.192-0.492c-0.771,0-1.485,0.164-2.143,0.492
			c-0.657,0.33-1.27,0.766-1.836,1.309c-1.134,1.135-1.7,2.461-1.7,3.979c0,1.543,0.533,2.846,1.599,3.91
			c1.088,1.088,2.448,1.633,4.08,1.633c1.654,0,3.014-0.521,4.08-1.564c1.11-1.043,1.666-2.369,1.666-3.979
			C753.831,688.68,753.264,687.365,752.131,686.277z M751.587,674.752c-0.93-0.93-2.097-1.395-3.502-1.395
			c-1.383,0-2.539,0.465-3.468,1.395c-0.93,0.93-1.395,2.096-1.395,3.502c0,1.359,0.465,2.504,1.395,3.434
			c0.453,0.453,0.969,0.828,1.547,1.121c0.578,0.295,1.218,0.443,1.921,0.443c0.725,0,1.377-0.137,1.955-0.408
			c0.578-0.273,1.093-0.635,1.547-1.088c0.929-0.93,1.394-2.098,1.394-3.502C752.98,676.848,752.516,675.682,751.587,674.752z"/>
		<path d="M760.189,686.855c-0.25,0-0.511-0.102-0.782-0.307c-0.204-0.203-0.318-0.477-0.34-0.816c0-0.611,0.374-0.984,1.122-1.121
			c0.565,0,0.939,0.373,1.121,1.121C761.311,686.48,760.937,686.855,760.189,686.855z M760.189,696.885
			c-0.25,0-0.511-0.102-0.782-0.305c-0.204-0.205-0.318-0.477-0.34-0.816c0-0.613,0.374-0.986,1.122-1.123
			c0.565,0,0.939,0.375,1.121,1.123C761.311,696.512,760.937,696.885,760.189,696.885z"/>
		<path d="M779.331,692.736c-1.632,2.857-3.944,4.285-6.937,4.285c-2.969,0-5.27-1.439-6.901-4.318
			c-1.338-2.357-2.006-5.145-2.006-8.363c0-3.242,0.668-6.041,2.006-8.398c1.632-2.879,3.933-4.318,6.901-4.318
			c2.97,0,5.271,1.439,6.902,4.318c1.337,2.402,2.006,5.201,2.006,8.398C781.303,687.604,780.646,690.402,779.331,692.736z
			 M778.243,676.961c-1.338-2.629-3.287-3.943-5.849-3.943c-2.289,0-4.137,1.178-5.542,3.535c-1.246,2.131-1.869,4.727-1.869,7.787
			c0,2.787,0.532,5.225,1.598,7.309c1.36,2.631,3.298,3.945,5.813,3.945c2.335,0,4.193-1.168,5.576-3.502
			c1.247-2.063,1.87-4.646,1.87-7.752C779.841,681.506,779.309,679.047,778.243,676.961z"/>
		<path d="M798.235,692.736c-1.632,2.857-3.944,4.285-6.937,4.285c-2.969,0-5.27-1.439-6.901-4.318
			c-1.338-2.357-2.006-5.145-2.006-8.363c0-3.242,0.668-6.041,2.006-8.398c1.632-2.879,3.933-4.318,6.901-4.318
			c2.97,0,5.271,1.439,6.902,4.318c1.337,2.402,2.006,5.201,2.006,8.398C800.207,687.604,799.55,690.402,798.235,692.736z
			 M797.147,676.961c-1.338-2.629-3.287-3.943-5.849-3.943c-2.289,0-4.137,1.178-5.542,3.535c-1.246,2.131-1.869,4.727-1.869,7.787
			c0,2.787,0.532,5.225,1.598,7.309c1.36,2.631,3.298,3.945,5.813,3.945c2.335,0,4.193-1.168,5.576-3.502
			c1.247-2.063,1.87-4.646,1.87-7.752C798.745,681.506,798.213,679.047,797.147,676.961z"/>
		<path d="M803.539,686.855c-0.25,0-0.511-0.102-0.782-0.307c-0.204-0.203-0.318-0.477-0.34-0.816c0-0.611,0.374-0.984,1.122-1.121
			c0.565,0,0.939,0.373,1.121,1.121C804.66,686.48,804.286,686.855,803.539,686.855z M803.539,696.885
			c-0.25,0-0.511-0.102-0.782-0.305c-0.204-0.205-0.318-0.477-0.34-0.816c0-0.613,0.374-0.986,1.122-1.123
			c0.565,0,0.939,0.375,1.121,1.123C804.66,696.512,804.286,696.885,803.539,696.885z"/>
		<path d="M822.681,692.736c-1.632,2.857-3.944,4.285-6.937,4.285c-2.969,0-5.27-1.439-6.901-4.318
			c-1.338-2.357-2.006-5.145-2.006-8.363c0-3.242,0.668-6.041,2.006-8.398c1.632-2.879,3.933-4.318,6.901-4.318
			c2.97,0,5.271,1.439,6.902,4.318c1.337,2.402,2.006,5.201,2.006,8.398C824.652,687.604,823.995,690.402,822.681,692.736z
			 M821.593,676.961c-1.338-2.629-3.287-3.943-5.849-3.943c-2.289,0-4.137,1.178-5.542,3.535c-1.246,2.131-1.869,4.727-1.869,7.787
			c0,2.787,0.532,5.225,1.598,7.309c1.36,2.631,3.298,3.945,5.813,3.945c2.335,0,4.193-1.168,5.576-3.502
			c1.247-2.063,1.87-4.646,1.87-7.752C823.19,681.506,822.658,679.047,821.593,676.961z"/>
		<path d="M841.585,692.736c-1.632,2.857-3.944,4.285-6.937,4.285c-2.969,0-5.27-1.439-6.901-4.318
			c-1.338-2.357-2.006-5.145-2.006-8.363c0-3.242,0.668-6.041,2.006-8.398c1.632-2.879,3.933-4.318,6.901-4.318
			c2.97,0,5.271,1.439,6.902,4.318c1.337,2.402,2.006,5.201,2.006,8.398C843.557,687.604,842.899,690.402,841.585,692.736z
			 M840.497,676.961c-1.338-2.629-3.287-3.943-5.849-3.943c-2.289,0-4.137,1.178-5.542,3.535c-1.246,2.131-1.869,4.727-1.869,7.787
			c0,2.787,0.532,5.225,1.598,7.309c1.36,2.631,3.298,3.945,5.813,3.945c2.335,0,4.193-1.168,5.576-3.502
			c1.247-2.063,1.87-4.646,1.87-7.752C842.095,681.506,841.563,679.047,840.497,676.961z"/>
		<path d="M845.732,695.287h13.872v1.395h-16.354l13.906-22.848h-13.091v-1.43h15.606L845.732,695.287z"/>
		<path d="M864.193,677.232h-0.68c0.408-0.43,0.612-0.963,0.612-1.598v-1.529h-1.122v-2.449h1.802v3.979
			C864.806,676.201,864.602,676.734,864.193,677.232z M868.104,677.232h-0.68c0.408-0.43,0.612-0.963,0.612-1.598v-1.529h-1.122
			v-2.449h1.802v3.979C868.716,676.201,868.512,676.734,868.104,677.232z"/>
		<path d="M876.723,677.887l-2.181-4.084l-2.22,4.084h-0.516l2.398-5.57h0.654l2.398,5.57H876.723z"/>
		<path d="M883.7,677.887l-2.181-4.084l-2.22,4.084h-0.516l2.398-5.57h0.654l2.398,5.57H883.7z"/>
		<path d="M890.875,685.359l-2.319-3.43l-2.319,3.43h-0.971l2.795-4.123l-2.735-4.064h0.951l2.279,3.391l2.26-3.391h0.951
			l-2.715,4.045l2.774,4.143H890.875z"/>
		<path d="M897.436,684.844c-0.528,0.449-1.163,0.674-1.902,0.674c-1.27,0-2.221-0.574-2.854-1.725l0.693-0.416
			c0.225,0.41,0.495,0.727,0.813,0.951c0.33,0.252,0.78,0.377,1.349,0.377c1.241,0,1.862-0.529,1.862-1.586
			c0-0.463-0.218-0.865-0.653-1.209c-0.133-0.08-0.321-0.168-0.565-0.268s-0.545-0.215-0.901-0.348
			c-0.661-0.238-1.137-0.475-1.428-0.713c-0.423-0.344-0.634-0.84-0.634-1.486c0-0.555,0.211-1.031,0.634-1.428
			c0.409-0.41,0.945-0.615,1.605-0.615c0.912,0,1.686,0.318,2.319,0.953l-0.595,0.514c-0.449-0.449-1.024-0.674-1.725-0.674
			c-0.951,0-1.427,0.416-1.427,1.25c0,0.369,0.146,0.674,0.436,0.912c0.238,0.184,0.615,0.363,1.13,0.535
			c0.449,0.158,0.819,0.307,1.11,0.445s0.509,0.262,0.654,0.367c0.568,0.436,0.853,1.023,0.853,1.764
			C898.209,683.832,897.951,684.408,897.436,684.844z"/>
		<path d="M907.069,685.359v-1.467c-0.872,1.07-1.982,1.605-3.33,1.605c-1.189,0-2.188-0.404-2.993-1.209
			c-0.819-0.82-1.229-1.824-1.229-3.014s0.402-2.188,1.209-2.992c0.819-0.82,1.823-1.23,3.013-1.23c1.309,0,2.419,0.535,3.33,1.605
			v-7.967h0.813v14.668H907.069z M906.158,678.857c-0.675-0.674-1.48-1.012-2.419-1.012c-0.951,0-1.758,0.332-2.418,0.992
			c-0.674,0.674-1.011,1.486-1.011,2.438c0,0.939,0.337,1.744,1.011,2.418s1.479,1.012,2.418,1.012c0.952,0,1.758-0.33,2.419-0.992
			c0.674-0.674,1.011-1.486,1.011-2.438C907.169,680.338,906.832,679.531,906.158,678.857z"/>
		<path d="M910.657,679.631c-0.146,0-0.297-0.061-0.456-0.18c-0.119-0.119-0.185-0.277-0.198-0.475c0-0.357,0.218-0.576,0.654-0.654
			c0.33,0,0.548,0.219,0.654,0.654C911.312,679.412,911.094,679.631,910.657,679.631z M910.657,685.479
			c-0.146,0-0.297-0.061-0.456-0.18c-0.119-0.119-0.185-0.277-0.198-0.475c0-0.357,0.218-0.576,0.654-0.654
			c0.33,0,0.548,0.217,0.654,0.654C911.312,685.26,911.094,685.479,910.657,685.479z"/>
		<path d="M920.627,685.359v-1.467c-0.872,1.07-1.982,1.605-3.33,1.605c-1.189,0-2.188-0.404-2.993-1.209
			c-0.819-0.82-1.229-1.824-1.229-3.014s0.402-2.188,1.209-2.992c0.819-0.82,1.823-1.23,3.013-1.23c1.309,0,2.419,0.535,3.33,1.605
			v-7.967h0.813v14.668H920.627z M919.716,678.857c-0.675-0.674-1.48-1.012-2.419-1.012c-0.951,0-1.758,0.332-2.418,0.992
			c-0.674,0.674-1.011,1.486-1.011,2.438c0,0.939,0.337,1.744,1.011,2.418s1.479,1.012,2.418,1.012c0.952,0,1.758-0.33,2.419-0.992
			c0.674-0.674,1.011-1.486,1.011-2.438C920.727,680.338,920.39,679.531,919.716,678.857z"/>
		<path d="M930.736,685.359v-1.408c-0.859,1.031-1.949,1.547-3.271,1.547c-1.189,0-2.188-0.404-2.993-1.209
			c-0.819-0.82-1.229-1.824-1.229-3.014s0.403-2.188,1.21-2.992c0.818-0.82,1.823-1.23,3.013-1.23c1.308,0,2.398,0.516,3.271,1.547
			v-1.428h0.813v8.188H930.736z M929.884,678.857c-0.674-0.674-1.48-1.012-2.418-1.012c-0.951,0-1.758,0.332-2.418,0.992
			c-0.675,0.674-1.012,1.486-1.012,2.438c0,0.939,0.337,1.744,1.012,2.418c0.674,0.674,1.479,1.012,2.418,1.012
			c0.951,0,1.757-0.33,2.418-0.992c0.674-0.674,1.011-1.486,1.011-2.438C930.895,680.338,930.558,679.531,929.884,678.857z"/>
		<path d="M935.196,677.984v7.375h-0.813v-7.375h-1.11v-0.813h1.11v-3.588h0.813v3.588h1.903v0.813H935.196z"/>
		<path d="M939.081,681.098c0,1.109,0.297,1.988,0.892,2.637c0.621,0.66,1.474,0.99,2.558,0.99c0.555,0,1.057-0.092,1.506-0.277
			c0.568-0.238,1.077-0.721,1.526-1.447l0.733,0.338c-0.515,0.977-1.308,1.639-2.378,1.98c-0.41,0.133-0.872,0.199-1.388,0.199
			c-1.229,0-2.24-0.402-3.033-1.209c-0.806-0.807-1.209-1.816-1.209-3.033c0-1.229,0.396-2.24,1.189-3.033
			c0.806-0.805,1.823-1.209,3.053-1.209c1.216,0,2.22,0.377,3.013,1.131c0.806,0.752,1.209,1.73,1.209,2.934H939.081z
			 M944.671,678.5c-0.621-0.449-1.335-0.674-2.141-0.674c-1.691,0-2.802,0.832-3.33,2.498h6.641
			C945.708,679.57,945.318,678.963,944.671,678.5z"/>
		<path d="M949.786,672.02v13.34h-0.813v-13.34h-3.132v-0.814h7.077v0.814H949.786z"/>
		<path d="M952.996,675.705c-0.146,0-0.297-0.059-0.456-0.178c-0.119-0.119-0.186-0.277-0.198-0.477
			c0-0.355,0.218-0.574,0.654-0.654c0.33,0,0.548,0.219,0.654,0.654C953.65,675.488,953.433,675.705,952.996,675.705z
			 M952.58,685.359v-8.188h0.813v8.188H952.58z"/>
		<path d="M964.454,685.359v-5.65c0-0.502-0.166-0.938-0.496-1.309c-0.33-0.369-0.806-0.555-1.427-0.555
			c-1.282,0-1.923,0.621-1.923,1.863v5.65h-0.813v-5.65c0-0.555-0.186-0.996-0.556-1.328c-0.383-0.355-0.839-0.535-1.367-0.535
			c-0.542,0-0.998,0.172-1.368,0.516c-0.37,0.33-0.555,0.779-0.555,1.348v5.65h-0.813v-8.188h0.813v0.813
			c0.396-0.621,1.037-0.932,1.923-0.932c1.057,0,1.836,0.43,2.339,1.289c0.476-0.859,1.249-1.289,2.319-1.289
			c0.819,0,1.479,0.232,1.981,0.695c0.503,0.475,0.754,1.129,0.754,1.961v5.65H964.454z"/>
		<path d="M968.041,681.098c0,1.109,0.297,1.988,0.892,2.637c0.621,0.66,1.474,0.99,2.558,0.99c0.555,0,1.057-0.092,1.506-0.277
			c0.568-0.238,1.077-0.721,1.526-1.447l0.733,0.338c-0.515,0.977-1.308,1.639-2.378,1.98c-0.41,0.133-0.872,0.199-1.388,0.199
			c-1.229,0-2.24-0.402-3.033-1.209c-0.806-0.807-1.209-1.816-1.209-3.033c0-1.229,0.396-2.24,1.189-3.033
			c0.806-0.805,1.823-1.209,3.053-1.209c1.216,0,2.22,0.377,3.013,1.131c0.806,0.752,1.209,1.73,1.209,2.934H968.041z
			 M973.631,678.5c-0.621-0.449-1.335-0.674-2.141-0.674c-1.691,0-2.802,0.832-3.33,2.498h6.641
			C974.668,679.57,974.278,678.963,973.631,678.5z"/>
	</g>
</g>
<g>
	<g>
		<path fill="none" stroke="#000000" stroke-width="0.8" stroke-miterlimit="10" d="M530.695,501.668
			c104.825-58.367,209.645-18.17,239.735-4.242"/>
		<g>
			<polygon points="763.764,500.836 768.623,496.613 768.958,490.186 778.984,501.668 			"/>
		</g>
	</g>
</g>
<path fill="#EDEDED" stroke="#000000" stroke-width="0.3624" stroke-miterlimit="10" d="M634.383,556
	c0,12.758-10.375,23.125-23.148,23.125H307.247c-12.781,0-23.141-10.367-23.141-23.125v-39.422
	c0-12.781,10.359-23.125,23.141-23.125h303.988c12.773,0,23.148,10.344,23.148,23.125V556z"/>
<g>
	<g>
		<path d="M294.987,539.772l15.161-9.241v2.718l-10.751,6.523l10.751,6.523v2.718L294.987,539.772z"/>
		<path d="M349.588,556.262l-10.751-36.18l-10.812,36.18l-13.832-43.73h2.416l11.295,35.274l10.932-36.06l10.872,36.06
			l11.295-35.274h2.537L349.588,556.262z"/>
		<path d="M369.037,526.242c-0.444,0-0.906-0.181-1.389-0.543c-0.363-0.362-0.564-0.846-0.604-1.449
			c0-1.088,0.664-1.752,1.993-1.994c1.006,0,1.67,0.665,1.993,1.994C371.03,525.578,370.366,526.242,369.037,526.242z
			 M367.769,555.658v-24.945h2.477v24.945H367.769z"/>
		<path d="M392.352,555.658v-14.92c0-5.273-2.376-7.912-7.127-7.912c-2.336,0-4.107,0.686-5.315,2.054
			c-1.249,1.37-1.873,3.241-1.873,5.617v15.161h-2.477v-24.945h2.477v3.02c1.127-2.214,3.523-3.322,7.188-3.322
			c3.1,0,5.476,0.887,7.127,2.658c1.65,1.771,2.476,4.248,2.476,7.429v15.161H392.352z"/>
		<path d="M424.423,555.658v-4.471c-2.658,3.262-6.04,4.893-10.147,4.893c-3.624,0-6.665-1.228-9.121-3.684
			c-2.497-2.496-3.745-5.557-3.745-9.182c0-3.623,1.228-6.664,3.685-9.12c2.496-2.496,5.557-3.745,9.181-3.745
			c3.986,0,7.369,1.631,10.147,4.893v-24.281h2.476v44.697H424.423z M421.645,535.846c-2.054-2.053-4.51-3.08-7.369-3.08
			c-2.899,0-5.356,1.008-7.369,3.021c-2.054,2.054-3.081,4.53-3.081,7.429c0,2.859,1.027,5.315,3.081,7.369s4.509,3.08,7.369,3.08
			c2.899,0,5.355-1.006,7.369-3.02c2.053-2.054,3.08-4.53,3.08-7.43C424.725,540.356,423.698,537.9,421.645,535.846z"/>
		<path d="M454.442,552.336c-2.497,2.497-5.557,3.744-9.181,3.744s-6.665-1.228-9.121-3.684c-2.497-2.496-3.745-5.557-3.745-9.182
			c0-3.583,1.248-6.623,3.745-9.12c2.456-2.536,5.497-3.806,9.121-3.806c3.583,0,6.623,1.249,9.12,3.745
			c2.496,2.497,3.745,5.558,3.745,9.181C458.127,546.84,456.898,549.88,454.442,552.336z M452.691,535.786
			c-2.014-2.054-4.491-3.081-7.429-3.081c-2.819,0-5.255,1.049-7.309,3.141c-2.094,2.095-3.141,4.551-3.141,7.369
			c0,2.859,1.027,5.315,3.081,7.369s4.509,3.08,7.369,3.08c2.899,0,5.354-1.006,7.369-3.02c2.054-2.054,3.081-4.53,3.081-7.43
			C455.711,540.276,454.704,537.8,452.691,535.786z"/>
		<path d="M485.79,556.745l-7.792-19.933l-7.912,19.933l-11.174-26.032h2.658l8.396,19.328l8.033-20.113l7.973,20.053l8.335-19.268
			h2.779L485.79,556.745z"/>
		<path d="M499.56,540.92v-2.477h12.744v2.477H499.56z"/>
		<path d="M539.968,552.638c-2.336,2.215-5.295,3.321-8.879,3.321c-2.98,0-5.537-0.824-7.671-2.476
			c-2.053-1.651-3.423-3.966-4.107-6.946h2.658c0.522,1.974,1.67,3.624,3.442,4.953c1.731,1.328,3.624,1.993,5.678,1.993
			c2.658,0,4.932-0.906,6.825-2.718c1.893-1.893,2.839-4.146,2.839-6.766c0-3.262-1.168-5.818-3.503-7.67
			c-1.772-1.41-3.584-2.114-5.436-2.114h-2.537v-3.563h2.537c2.537,0,4.569-0.705,6.1-2.114c1.489-1.368,2.235-3.362,2.235-5.979
			c0-2.496-0.806-4.53-2.416-6.101c-1.611-1.61-3.684-2.416-6.221-2.416c-4.832,0-7.752,2.536-8.758,7.61h-2.839
			c0.362-3.141,1.59-5.597,3.684-7.369c2.093-1.812,4.731-2.718,7.913-2.718c3.301,0,6.06,1.007,8.275,3.021
			c2.214,1.973,3.322,4.631,3.322,7.973c0,5.355-2.698,8.637-8.093,9.846c5.637,1.69,8.456,5.557,8.456,11.596
			C543.471,547.585,542.303,550.463,539.968,552.638z"/>
		<path d="M570.108,533.975c-0.362,0.443-0.906,1.098-1.631,1.963c-0.725,0.865-1.651,1.943-2.778,3.23l-12.382,14.014h20.657v2.477
			h-26.093l21.14-24.463c1.691-2.416,2.537-4.932,2.537-7.55c0-2.536-1.007-4.69-3.02-6.463c-2.014-1.731-4.349-2.597-7.006-2.597
			c-3.262,0-5.819,1.047-7.671,3.141c-1.128,1.248-1.913,2.799-2.355,4.65h-2.718c0.281-2.094,1.329-4.168,3.141-6.221
			c2.416-2.658,5.617-3.986,9.604-3.986c3.422,0,6.362,1.066,8.818,3.201c2.456,2.094,3.685,4.853,3.685,8.274
			C574.034,527.148,572.725,530.592,570.108,533.975z"/>
		<path d="M600.248,551.732c-2.86,3.02-6.564,4.529-11.114,4.529c-6.846,0-11.537-3.02-14.073-9.061l2.295-0.905
			c1.167,2.376,2.537,4.147,4.107,5.315c1.973,1.449,4.53,2.174,7.671,2.174c3.745,0,6.825-1.309,9.241-3.926
			c2.416-2.576,3.624-5.777,3.624-9.604c0-3.745-1.35-6.766-4.047-9.061c-2.537-2.174-5.477-3.201-8.818-3.08l-1.933,0.061h-0.906
			c-0.362,0-0.846,0.081-1.45,0.241c-1.369,0-2.799,0.282-4.288,0.846l4.288-16.731h16.55v2.477h-14.617l-2.597,11.114l2.416-0.302
			l2.537-0.182c3.866-0.242,7.369,0.967,10.51,3.624c3.221,2.739,4.832,6.402,4.832,10.993
			C604.476,544.928,603.066,548.752,600.248,551.732z"/>
		<path d="M609.127,549.014v-2.718l10.691-6.523l-10.691-6.523v-2.718l15.161,9.241L609.127,549.014z"/>
	</g>
</g>
<path fill="#EDEDED" stroke="#000000" stroke-width="0.3624" stroke-miterlimit="10" d="M981.834,556
	c0,12.758-10.375,23.125-23.148,23.125H802.975c-12.781,0-23.141-10.367-23.141-23.125v-39.422
	c0-12.781,10.359-23.125,23.141-23.125h155.711c12.773,0,23.148,10.344,23.148,23.125V556z"/>
<g>
	<g>
		<path d="M810.199,539.772l15.161-9.241v2.718l-10.752,6.523l10.752,6.523v2.718L810.199,539.772z"/>
		<path d="M853.144,552.336c-2.497,2.497-5.557,3.744-9.181,3.744c-4.148,0-7.571-1.691-10.269-5.073v16.368h-2.477v-36.662h2.477
			v4.711c2.577-3.383,6-5.074,10.269-5.074c3.624,0,6.664,1.229,9.12,3.685c2.496,2.497,3.745,5.558,3.745,9.181
			C856.828,546.84,855.599,549.88,853.144,552.336z M851.331,535.846c-2.053-2.053-4.51-3.08-7.368-3.08
			c-2.899,0-5.356,1.008-7.369,3.021c-2.054,2.054-3.08,4.53-3.08,7.429c0,2.859,1.026,5.315,3.08,7.369s4.51,3.08,7.369,3.08
			c2.899,0,5.354-1.006,7.368-3.02c2.054-2.054,3.081-4.53,3.081-7.43C854.412,540.356,853.385,537.9,851.331,535.846z"/>
		<path d="M874.102,534.396c-0.645-0.482-1.329-0.865-2.054-1.147c-0.725-0.281-1.49-0.423-2.295-0.423
			c-0.686,0-1.329,0.211-1.934,0.635c-0.604,0.422-1.127,0.946-1.57,1.57c-0.443,0.625-0.795,1.319-1.057,2.084
			c-0.263,0.766-0.393,1.47-0.393,2.113v16.43h-2.477v-24.945h2.477v3.382c0.522-0.926,1.208-1.771,2.054-2.536
			c0.846-0.766,1.771-1.148,2.778-1.148c1.248,0,2.274,0.142,3.08,0.423c0.806,0.282,1.711,0.785,2.719,1.511L874.102,534.396z"/>
		<path d="M897.417,552.336c-2.497,2.497-5.557,3.744-9.181,3.744s-6.665-1.228-9.121-3.684c-2.497-2.496-3.744-5.557-3.744-9.182
			c0-3.583,1.247-6.623,3.744-9.12c2.456-2.536,5.497-3.806,9.121-3.806c3.583,0,6.623,1.249,9.12,3.745
			c2.496,2.497,3.745,5.558,3.745,9.181C901.102,546.84,899.873,549.88,897.417,552.336z M895.665,535.786
			c-2.014-2.054-4.49-3.081-7.429-3.081c-2.819,0-5.255,1.049-7.309,3.141c-2.095,2.095-3.141,4.551-3.141,7.369
			c0,2.859,1.026,5.315,3.08,7.369s4.51,3.08,7.369,3.08c2.899,0,5.354-1.006,7.368-3.02c2.054-2.054,3.081-4.53,3.081-7.43
			C898.686,540.276,897.679,537.8,895.665,535.786z"/>
		<path d="M929.126,552.336c-2.497,2.497-5.557,3.744-9.181,3.744c-4.148,0-7.571-1.691-10.269-5.073v16.368H907.2v-36.662h2.477
			v4.711c2.577-3.383,6-5.074,10.269-5.074c3.624,0,6.664,1.229,9.12,3.685c2.496,2.497,3.745,5.558,3.745,9.181
			C932.811,546.84,931.581,549.88,929.126,552.336z M927.313,535.846c-2.053-2.053-4.51-3.08-7.368-3.08
			c-2.899,0-5.356,1.008-7.369,3.021c-2.054,2.054-3.08,4.53-3.08,7.429c0,2.859,1.026,5.315,3.08,7.369s4.51,3.08,7.369,3.08
			c2.899,0,5.354-1.006,7.368-3.02c2.054-2.054,3.081-4.53,3.081-7.43C930.395,540.356,929.367,537.9,927.313,535.846z"/>
		<path d="M937.098,549.014v-2.718l10.691-6.523l-10.691-6.523v-2.718l15.16,9.241L937.098,549.014z"/>
	</g>
</g>
</svg>
