<?xml version="1.0" encoding="utf-8"?>
<!-- Generator: Adobe Illustrator 16.0.0, SVG Export Plug-In . SVG Version: 6.00 Build 0)  -->
<!DOCTYPE svg PUBLIC "-//W3C//DTD SVG 1.1//EN" "http://www.w3.org/Graphics/SVG/1.1/DTD/svg11.dtd">
<svg version="1.1" id="Layer_1" xmlns="http://www.w3.org/2000/svg" xmlns:xlink="http://www.w3.org/1999/xlink" x="0px" y="0px"
	 width="1920px" height="1080px" viewBox="0 0 1920 1080" enable-background="new 0 0 1920 1080" xml:space="preserve">
<g>
	<path d="M321.103,163.058l18.691,8.057v3.384l-22.209-10.178v-2.605l22.209-10.151v3.384L321.103,163.058z"/>
	<path d="M355.801,170.094l1.208,6.069l1.478-5.801l8.486-28.816h2.98l8.379,28.816l1.45,5.854l1.289-6.123l7.063-28.547h3.383
		l-10.017,39.102h-3.169l-8.862-30.588l-0.993-3.867l-0.967,3.867l-9.078,30.588h-3.168l-9.99-39.102h3.383L355.801,170.094z"/>
	<path d="M396.943,143.198c0-0.605,0.196-1.116,0.59-1.534c0.395-0.418,0.932-0.627,1.611-0.627c0.681,0,1.223,0.209,1.625,0.627
		c0.403,0.418,0.604,0.929,0.604,1.534c0,0.605-0.201,1.112-0.604,1.521c-0.402,0.409-0.944,0.614-1.625,0.614
		c-0.68,0-1.217-0.205-1.611-0.614C397.14,144.31,396.943,143.803,396.943,143.198z M400.729,180.648h-3.223V151.59h3.223V180.648z"
		/>
	<path d="M412.519,151.59l0.107,4.968c1.092-1.79,2.453-3.156,4.082-4.095c1.629-0.94,3.429-1.41,5.397-1.41
		c3.115,0,5.435,0.877,6.956,2.632c1.521,1.755,2.292,4.387,2.31,7.896v19.067h-3.195v-19.094c-0.019-2.596-0.569-4.529-1.652-5.801
		c-1.083-1.271-2.815-1.907-5.196-1.907c-1.987,0-3.746,0.622-5.277,1.866c-1.53,1.245-2.663,2.923-3.397,5.036v19.9h-3.195V151.59
		H412.519z"/>
	<path d="M438.381,165.851c0-4.512,1.007-8.106,3.021-10.783c2.014-2.676,4.749-4.015,8.204-4.015c3.921,0,6.911,1.549,8.97,4.646
		v-16.301h3.195v41.25h-3.008l-0.134-3.867c-2.059,2.937-5.085,4.404-9.077,4.404c-3.348,0-6.047-1.347-8.097-4.042
		c-2.051-2.694-3.075-6.333-3.075-10.917V165.851z M441.631,166.415c0,3.706,0.742,6.629,2.229,8.769
		c1.486,2.139,3.581,3.209,6.284,3.209c3.957,0,6.768-1.746,8.433-5.237v-13.643c-1.665-3.777-4.458-5.667-8.379-5.667
		c-2.703,0-4.807,1.061-6.311,3.183C442.383,159.15,441.631,162.279,441.631,166.415z"/>
	<path d="M468.458,165.689c0-2.793,0.541-5.308,1.625-7.546c1.083-2.238,2.613-3.979,4.592-5.224
		c1.979-1.244,4.221-1.866,6.728-1.866c3.867,0,7,1.356,9.399,4.068c2.399,2.713,3.599,6.307,3.599,10.783v0.671
		c0,2.811-0.542,5.34-1.625,7.587c-1.083,2.247-2.609,3.979-4.578,5.196c-1.97,1.218-4.217,1.826-6.741,1.826
		c-3.85,0-6.979-1.356-9.386-4.068c-2.408-2.713-3.612-6.307-3.612-10.783V165.689z M471.681,166.576
		c0,3.474,0.899,6.324,2.699,8.554c1.799,2.229,4.158,3.343,7.076,3.343c2.9,0,5.25-1.115,7.05-3.343
		c1.799-2.229,2.699-5.17,2.699-8.822v-0.618c0-2.22-0.412-4.252-1.236-6.096c-0.823-1.844-1.978-3.272-3.464-4.283
		c-1.486-1.012-3.187-1.518-5.103-1.518c-2.864,0-5.201,1.124-7.01,3.37c-1.808,2.247-2.712,5.188-2.712,8.822V166.576z"/>
	<path d="M507.989,173.961l0.484,2.498l0.645-2.632l6.982-22.236h2.738l6.902,22.048l0.752,3.062l0.617-2.82l5.963-22.29h3.33
		l-8.46,29.058h-2.739l-7.466-23.042l-0.349-1.584l-0.35,1.611l-7.332,23.015h-2.738l-8.434-29.058h3.304L507.989,173.961z"/>
	<path d="M552.489,164.75h-12.863v-2.712h12.863V164.75z"/>
	<path d="M564.869,159.352h3.33c1.845,0,3.456-0.327,4.834-0.98c1.379-0.654,2.431-1.549,3.156-2.686
		c0.725-1.137,1.088-2.448,1.088-3.935c0-2.506-0.708-4.467-2.122-5.881c-1.414-1.414-3.446-2.122-6.097-2.122
		c-2.506,0-4.561,0.738-6.163,2.216c-1.603,1.477-2.403,3.424-2.403,5.841h-3.223c0-2.023,0.51-3.872,1.531-5.546
		c1.02-1.674,2.435-2.967,4.242-3.88c1.809-0.913,3.814-1.37,6.016-1.37c3.545,0,6.338,0.967,8.379,2.9s3.063,4.583,3.063,7.949
		c0,1.88-0.596,3.612-1.786,5.196c-1.191,1.585-2.824,2.771-4.901,3.559c2.435,0.681,4.279,1.849,5.532,3.505
		c1.253,1.656,1.88,3.63,1.88,5.921c0,3.348-1.092,6.042-3.276,8.083s-5.103,3.062-8.755,3.062c-2.327,0-4.463-0.466-6.405-1.396
		s-3.446-2.233-4.512-3.907c-1.065-1.674-1.598-3.621-1.598-5.841h3.223c0,2.489,0.868,4.516,2.604,6.083
		c1.737,1.567,3.966,2.35,6.688,2.35c2.775,0,4.937-0.711,6.485-2.135c1.549-1.423,2.323-3.486,2.323-6.19
		c0-2.614-0.837-4.61-2.511-5.989c-1.675-1.378-4.141-2.068-7.399-2.068h-3.223V159.352z"/>
	<path d="M612.699,180.648h-24.492v-2.471l13.4-15.2c2.22-2.56,3.76-4.673,4.619-6.338s1.289-3.285,1.289-4.861
		c0-2.471-0.725-4.427-2.176-5.868c-1.449-1.441-3.446-2.162-5.988-2.162c-2.632,0-4.758,0.842-6.378,2.524
		c-1.621,1.683-2.431,3.867-2.431,6.553h-3.195c0-2.202,0.496-4.207,1.49-6.016c0.993-1.808,2.407-3.227,4.243-4.257
		c1.835-1.029,3.925-1.544,6.271-1.544c3.581,0,6.378,0.94,8.393,2.82c2.014,1.88,3.021,4.44,3.021,7.681
		c0,1.826-0.569,3.823-1.706,5.989c-1.137,2.167-3.138,4.87-6.002,8.11l-10.903,12.327h20.545V180.648z"/>
	<path d="M620.863,160.614l1.907-19.067h19.551v2.981h-16.785l-1.369,13.213c2.094-1.432,4.547-2.148,7.357-2.148
		c3.527,0,6.338,1.146,8.434,3.438c2.094,2.292,3.142,5.344,3.142,9.158c0,4.118-1.021,7.314-3.062,9.587
		c-2.041,2.274-4.914,3.411-8.621,3.411c-3.401,0-6.158-0.949-8.271-2.847c-2.112-1.897-3.32-4.556-3.625-7.976h3.088
		c0.305,2.668,1.209,4.686,2.713,6.056c1.504,1.369,3.536,2.054,6.096,2.054c2.793,0,4.901-0.886,6.325-2.659
		c1.423-1.772,2.135-4.297,2.135-7.573c0-2.864-0.797-5.201-2.39-7.009c-1.594-1.808-3.77-2.712-6.526-2.712
		c-1.521,0-2.847,0.192-3.975,0.577c-1.128,0.385-2.318,1.133-3.571,2.243L620.863,160.614z"/>
	<path d="M667.914,162.95l-19.094-8.137v-3.303l22.693,10.151v2.605l-22.693,10.178v-3.33L667.914,162.95z"/>
</g>
<g>
	<path d="M1146.259,163.058l18.691,8.057v3.384l-22.209-10.178v-2.605l22.209-10.151v3.384L1146.259,163.058z"/>
	<path d="M1180.957,170.094l1.208,6.069l1.478-5.801l8.486-28.816h2.98l8.379,28.816l1.45,5.854l1.289-6.123l7.063-28.547h3.383
		l-10.017,39.102h-3.169l-8.862-30.588l-0.993-3.867l-0.967,3.867l-9.078,30.588h-3.168l-9.99-39.102h3.383L1180.957,170.094z"/>
	<path d="M1222.1,143.198c0-0.605,0.196-1.116,0.59-1.534c0.395-0.418,0.932-0.627,1.611-0.627c0.681,0,1.223,0.209,1.625,0.627
		c0.403,0.418,0.604,0.929,0.604,1.534c0,0.605-0.201,1.112-0.604,1.521c-0.402,0.409-0.944,0.614-1.625,0.614
		c-0.68,0-1.217-0.205-1.611-0.614C1222.296,144.31,1222.1,143.803,1222.1,143.198z M1225.886,180.648h-3.223V151.59h3.223V180.648z
		"/>
	<path d="M1237.675,151.59l0.107,4.968c1.092-1.79,2.453-3.156,4.082-4.095c1.629-0.94,3.429-1.41,5.397-1.41
		c3.115,0,5.435,0.877,6.956,2.632c1.521,1.755,2.292,4.387,2.31,7.896v19.067h-3.195v-19.094c-0.019-2.596-0.569-4.529-1.652-5.801
		c-1.083-1.271-2.815-1.907-5.196-1.907c-1.987,0-3.746,0.622-5.277,1.866c-1.53,1.245-2.663,2.923-3.397,5.036v19.9h-3.195V151.59
		H1237.675z"/>
	<path d="M1263.537,165.851c0-4.512,1.007-8.106,3.021-10.783c2.014-2.676,4.749-4.015,8.204-4.015c3.921,0,6.911,1.549,8.97,4.646
		v-16.301h3.195v41.25h-3.008l-0.134-3.867c-2.059,2.937-5.085,4.404-9.077,4.404c-3.348,0-6.047-1.347-8.097-4.042
		c-2.051-2.694-3.075-6.333-3.075-10.917V165.851z M1266.787,166.415c0,3.706,0.742,6.629,2.229,8.769
		c1.486,2.139,3.581,3.209,6.284,3.209c3.957,0,6.768-1.746,8.433-5.237v-13.643c-1.665-3.777-4.458-5.667-8.379-5.667
		c-2.703,0-4.807,1.061-6.311,3.183C1267.539,159.15,1266.787,162.279,1266.787,166.415z"/>
	<path d="M1293.614,165.689c0-2.793,0.541-5.308,1.625-7.546c1.083-2.238,2.613-3.979,4.592-5.224
		c1.979-1.244,4.221-1.866,6.728-1.866c3.867,0,7,1.356,9.399,4.068c2.399,2.713,3.599,6.307,3.599,10.783v0.671
		c0,2.811-0.542,5.34-1.625,7.587c-1.083,2.247-2.609,3.979-4.578,5.196c-1.97,1.218-4.217,1.826-6.741,1.826
		c-3.85,0-6.979-1.356-9.386-4.068c-2.408-2.713-3.612-6.307-3.612-10.783V165.689z M1296.837,166.576
		c0,3.474,0.899,6.324,2.699,8.554c1.799,2.229,4.158,3.343,7.076,3.343c2.9,0,5.25-1.115,7.05-3.343
		c1.799-2.229,2.699-5.17,2.699-8.822v-0.618c0-2.22-0.412-4.252-1.236-6.096c-0.823-1.844-1.978-3.272-3.464-4.283
		c-1.486-1.012-3.187-1.518-5.103-1.518c-2.864,0-5.201,1.124-7.01,3.37c-1.808,2.247-2.712,5.188-2.712,8.822V166.576z"/>
	<path d="M1333.146,173.961l0.484,2.498l0.645-2.632l6.982-22.236h2.738l6.902,22.048l0.752,3.062l0.617-2.82l5.963-22.29h3.33
		l-8.46,29.058h-2.739l-7.466-23.042l-0.349-1.584l-0.35,1.611l-7.332,23.015h-2.738l-8.434-29.058h3.304L1333.146,173.961z"/>
	<path d="M1377.646,164.75h-12.863v-2.712h12.863V164.75z"/>
	<path d="M1390.025,159.352h3.33c1.845,0,3.456-0.327,4.834-0.98c1.379-0.654,2.431-1.549,3.156-2.686
		c0.725-1.137,1.088-2.448,1.088-3.935c0-2.506-0.708-4.467-2.122-5.881c-1.414-1.414-3.446-2.122-6.097-2.122
		c-2.506,0-4.561,0.738-6.163,2.216c-1.603,1.477-2.403,3.424-2.403,5.841h-3.223c0-2.023,0.51-3.872,1.531-5.546
		c1.02-1.674,2.435-2.967,4.242-3.88c1.809-0.913,3.814-1.37,6.016-1.37c3.545,0,6.338,0.967,8.379,2.9s3.063,4.583,3.063,7.949
		c0,1.88-0.596,3.612-1.786,5.196c-1.191,1.585-2.824,2.771-4.901,3.559c2.435,0.681,4.279,1.849,5.532,3.505
		c1.253,1.656,1.88,3.63,1.88,5.921c0,3.348-1.092,6.042-3.276,8.083s-5.103,3.062-8.755,3.062c-2.327,0-4.463-0.466-6.405-1.396
		s-3.446-2.233-4.512-3.907c-1.065-1.674-1.598-3.621-1.598-5.841h3.223c0,2.489,0.868,4.516,2.604,6.083
		c1.737,1.567,3.966,2.35,6.688,2.35c2.775,0,4.937-0.711,6.485-2.135c1.549-1.423,2.323-3.486,2.323-6.19
		c0-2.614-0.837-4.61-2.511-5.989c-1.675-1.378-4.141-2.068-7.399-2.068h-3.223V159.352z"/>
	<path d="M1437.855,180.648h-24.492v-2.471l13.4-15.2c2.22-2.56,3.76-4.673,4.619-6.338s1.289-3.285,1.289-4.861
		c0-2.471-0.725-4.427-2.176-5.868c-1.449-1.441-3.446-2.162-5.988-2.162c-2.632,0-4.758,0.842-6.378,2.524
		c-1.621,1.683-2.431,3.867-2.431,6.553h-3.195c0-2.202,0.496-4.207,1.49-6.016c0.993-1.808,2.407-3.227,4.243-4.257
		c1.835-1.029,3.925-1.544,6.271-1.544c3.581,0,6.378,0.94,8.393,2.82c2.014,1.88,3.021,4.44,3.021,7.681
		c0,1.826-0.569,3.823-1.706,5.989c-1.137,2.167-3.138,4.87-6.002,8.11l-10.903,12.327h20.545V180.648z"/>
	<path d="M1446.02,160.614l1.907-19.067h19.551v2.981h-16.785l-1.369,13.213c2.094-1.432,4.547-2.148,7.357-2.148
		c3.527,0,6.338,1.146,8.434,3.438c2.094,2.292,3.142,5.344,3.142,9.158c0,4.118-1.021,7.314-3.062,9.587
		c-2.041,2.274-4.914,3.411-8.621,3.411c-3.401,0-6.158-0.949-8.271-2.847c-2.112-1.897-3.32-4.556-3.625-7.976h3.088
		c0.305,2.668,1.209,4.686,2.713,6.056c1.504,1.369,3.536,2.054,6.096,2.054c2.793,0,4.901-0.886,6.325-2.659
		c1.423-1.772,2.135-4.297,2.135-7.573c0-2.864-0.797-5.201-2.39-7.009c-1.594-1.808-3.77-2.712-6.526-2.712
		c-1.521,0-2.847,0.192-3.975,0.577c-1.128,0.385-2.318,1.133-3.571,2.243L1446.02,160.614z"/>
	<path d="M1493.07,162.95l-19.094-8.137v-3.303l22.693,10.151v2.605l-22.693,10.178v-3.33L1493.07,162.95z"/>
</g>
<g>
	<path d="M512.09,943.173h-13.4v36.309h-3.304v-36.309h-13.374v-2.793h30.078V943.173z"/>
	<path d="M517.461,942.032c0-0.605,0.196-1.116,0.59-1.534c0.395-0.418,0.932-0.628,1.611-0.628c0.681,0,1.223,0.21,1.625,0.628
		c0.403,0.418,0.604,0.929,0.604,1.534s-0.201,1.112-0.604,1.521c-0.402,0.409-0.944,0.613-1.625,0.613
		c-0.68,0-1.217-0.204-1.611-0.613C517.657,943.144,517.461,942.637,517.461,942.032z M521.247,979.482h-3.223v-29.058h3.223
		V979.482z"/>
	<path d="M532.903,950.424l0.107,4.727c1.074-1.754,2.416-3.07,4.027-3.947s3.402-1.316,5.371-1.316c4.584,0,7.493,1.88,8.729,5.64
		c1.038-1.808,2.426-3.2,4.162-4.176c1.737-0.976,3.652-1.464,5.748-1.464c6.23,0,9.408,3.402,9.533,10.205v19.39h-3.223v-19.147
		c-0.018-2.596-0.577-4.521-1.679-5.774c-1.101-1.253-2.896-1.88-5.384-1.88c-2.311,0.036-4.262,0.783-5.855,2.242
		c-1.593,1.459-2.479,3.236-2.658,5.331v19.229h-3.223v-19.39c-0.018-2.488-0.604-4.346-1.759-5.572
		c-1.155-1.227-2.932-1.84-5.331-1.84c-2.023,0-3.76,0.577-5.21,1.732c-1.45,1.154-2.524,2.869-3.223,5.143v19.927h-3.223v-29.058
		H532.903z"/>
	<path d="M589.971,980.019c-2.471,0-4.704-0.608-6.7-1.826s-3.549-2.914-4.659-5.089c-1.11-2.176-1.665-4.615-1.665-7.318v-1.154
		c0-2.793,0.541-5.309,1.625-7.547c1.083-2.238,2.591-3.997,4.524-5.277c1.934-1.279,4.029-1.92,6.285-1.92
		c3.526,0,6.324,1.204,8.392,3.612c2.068,2.407,3.103,5.698,3.103,9.869v1.8h-20.732v0.617c0,3.295,0.943,6.038,2.833,8.231
		c1.889,2.192,4.266,3.29,7.13,3.29c1.719,0,3.236-0.313,4.552-0.94c1.316-0.626,2.511-1.629,3.585-3.008l2.015,1.53
		C597.894,978.309,594.465,980.019,589.971,980.019z M589.381,952.626c-2.418,0-4.454,0.886-6.11,2.659
		c-1.656,1.771-2.663,4.153-3.021,7.143h17.429v-0.349c-0.09-2.793-0.886-5.066-2.39-6.821
		C593.785,953.504,591.815,952.626,589.381,952.626z"/>
	<path d="M618.833,980.293c0,3.215-0.59,5.654-1.77,7.319s-2.917,2.497-5.214,2.497c-2.254,0-3.981-0.816-5.182-2.45
		c-1.201-1.634-1.816-4.011-1.848-7.132v-4.086c0-3.205,0.595-5.631,1.785-7.281c1.189-1.648,2.928-2.473,5.213-2.473
		c2.255,0,3.978,0.795,5.167,2.387c1.19,1.592,1.806,3.938,1.848,7.038V980.293z M616.954,976.208c0-2.609-0.426-4.582-1.276-5.919
		c-0.851-1.336-2.137-2.004-3.859-2.004c-1.69,0-2.964,0.652-3.82,1.957c-0.855,1.305-1.294,3.23-1.314,5.777v4.478
		c0,2.6,0.44,4.588,1.323,5.965c0.882,1.379,2.163,2.067,3.843,2.067c1.67,0,2.937-0.673,3.797-2.021
		c0.861-1.346,1.297-3.318,1.308-5.918V976.208z"/>
</g>
<g>
	<path d="M1337.163,943.173h-13.4v36.309h-3.304v-36.309h-13.374v-2.793h30.078V943.173z"/>
	<path d="M1342.534,942.032c0-0.605,0.196-1.116,0.59-1.534c0.395-0.418,0.932-0.628,1.611-0.628c0.681,0,1.223,0.21,1.625,0.628
		c0.403,0.418,0.604,0.929,0.604,1.534s-0.201,1.112-0.604,1.521c-0.402,0.409-0.944,0.613-1.625,0.613
		c-0.68,0-1.217-0.204-1.611-0.613C1342.73,943.144,1342.534,942.637,1342.534,942.032z M1346.32,979.482h-3.223v-29.058h3.223
		V979.482z"/>
	<path d="M1357.977,950.424l0.107,4.727c1.074-1.754,2.416-3.07,4.027-3.947s3.402-1.316,5.371-1.316c4.584,0,7.493,1.88,8.729,5.64
		c1.038-1.808,2.426-3.2,4.162-4.176c1.737-0.976,3.652-1.464,5.748-1.464c6.23,0,9.408,3.402,9.533,10.205v19.39h-3.223v-19.147
		c-0.018-2.596-0.577-4.521-1.679-5.774c-1.101-1.253-2.896-1.88-5.384-1.88c-2.311,0.036-4.262,0.783-5.855,2.242
		c-1.593,1.459-2.479,3.236-2.658,5.331v19.229h-3.223v-19.39c-0.018-2.488-0.604-4.346-1.759-5.572
		c-1.155-1.227-2.932-1.84-5.331-1.84c-2.023,0-3.76,0.577-5.21,1.732c-1.45,1.154-2.524,2.869-3.223,5.143v19.927h-3.223v-29.058
		H1357.977z"/>
	<path d="M1415.044,980.019c-2.471,0-4.704-0.608-6.7-1.826s-3.549-2.914-4.659-5.089c-1.11-2.176-1.665-4.615-1.665-7.318v-1.154
		c0-2.793,0.541-5.309,1.625-7.547c1.083-2.238,2.591-3.997,4.524-5.277c1.934-1.279,4.029-1.92,6.285-1.92
		c3.526,0,6.324,1.204,8.392,3.612c2.068,2.407,3.103,5.698,3.103,9.869v1.8h-20.732v0.617c0,3.295,0.943,6.038,2.833,8.231
		c1.889,2.192,4.266,3.29,7.13,3.29c1.719,0,3.236-0.313,4.552-0.94c1.316-0.626,2.511-1.629,3.585-3.008l2.015,1.53
		C1422.967,978.309,1419.538,980.019,1415.044,980.019z M1414.454,952.626c-2.418,0-4.454,0.886-6.11,2.659
		c-1.656,1.771-2.663,4.153-3.021,7.143h17.429v-0.349c-0.09-2.793-0.886-5.066-2.39-6.821
		C1418.858,953.504,1416.889,952.626,1414.454,952.626z"/>
	<path d="M1438.881,989.797h-1.879v-20.542l-6.2,2.302v-1.754l7.766-2.881h0.313V989.797z"/>
</g>
<g>
	<g id="XMLID_2_">
		<g>
			<path fill="#4B453C" d="M1711.054,688.15v79.95h-782.3v-79.95h49.49V214.34h683.32v473.81H1711.054z M1699.264,756.31v-56.36
				h-37.71h-683.31h-37.7v56.36H1699.264z M1649.774,688.15V226.13h-659.75v462.02H1649.774z"/>
			<path fill="#4B453C" d="M1621.804,255.71v402.85h-182.42V255.71H1621.804z M1610.014,646.79V267.51h-158.84v379.28H1610.014z"/>
			<rect x="1451.174" y="267.51" fill="#ACCED3" width="158.84" height="379.28"/>
			<path fill="#4B453C" d="M1411.114,255.71v402.85h-182.42V255.71H1411.114z M1399.324,646.79V267.51h-158.851v379.28H1399.324z"/>
			<rect x="1240.474" y="267.51" fill="#ACCED3" width="158.851" height="379.28"/>
			<path fill="#4B453C" d="M1200.424,255.71v402.85h-182.42V255.71H1200.424z M1188.634,646.79V267.51h-158.85v379.28H1188.634z"/>
			<rect x="1029.784" y="267.51" fill="#ACCED3" width="158.85" height="379.28"/>
			<path fill="#4B453C" d="M780.554,688.15v79.95H208.944v-79.95h49.489V214.34h472.631v473.81H780.554z M768.764,756.31v-56.36
				h-37.71h-472.62h-37.699v56.36H768.764z M719.274,688.15V226.13H270.224v462.02H719.274z"/>
			<path fill="#4B453C" d="M691.304,255.71v402.85h-182.42V255.71H691.304z M679.514,646.79V267.51h-158.84v379.28H679.514z"/>
			<rect x="520.674" y="267.51" fill="#ACCED3" width="158.84" height="379.28"/>
			<path fill="#4B453C" d="M480.614,255.71v402.85h-182.42V255.71H480.614z M468.824,646.79V267.51H309.974v379.28H468.824z"/>
			<rect x="309.974" y="267.51" fill="#ACCED3" width="158.851" height="379.28"/>
		</g>
	</g>
</g>
<g>
	<g>
		
			<line fill="none" stroke="#4B453C" stroke-width="8.2382" stroke-miterlimit="10" x1="65" y1="885.946" x2="1805.82" y2="885.946"/>
		<g>
			<polygon fill="#4B453C" points="1782.683,916.454 1795.644,885.946 1782.683,855.44 1855,885.946 			"/>
		</g>
	</g>
</g>
<line fill="none" stroke="#4B453C" stroke-width="6.2469" stroke-miterlimit="10" x1="494.75" y1="862.946" x2="494.75" y2="908.946"/>
<line fill="none" stroke="#4B453C" stroke-width="6.2469" stroke-miterlimit="10" x1="1319.902" y1="862.946" x2="1319.902" y2="908.946"/>
<rect x="181.814" y="638.792" opacity="0.7" fill="#E3DEDA" stroke="#000000" stroke-width="1.0943" stroke-linecap="round" stroke-linejoin="round" stroke-miterlimit="10" width="625.87" height="178.678"/>
<g>
	<path d="M214.408,701.614l1.208,6.07l1.478-5.801l8.486-28.816h2.98l8.379,28.816l1.45,5.854l1.289-6.123l7.063-28.547h3.383
		l-10.017,39.102h-3.169l-8.862-30.588l-0.993-3.867l-0.967,3.867l-9.078,30.588h-3.168l-9.99-39.102h3.383L214.408,701.614z"/>
	<path d="M255.551,674.718c0-0.604,0.196-1.116,0.59-1.534c0.395-0.418,0.932-0.627,1.611-0.627c0.681,0,1.223,0.209,1.625,0.627
		c0.403,0.418,0.604,0.93,0.604,1.534c0,0.605-0.201,1.112-0.604,1.521c-0.402,0.409-0.944,0.614-1.625,0.614
		c-0.68,0-1.217-0.205-1.611-0.614C255.747,675.831,255.551,675.324,255.551,674.718z M259.337,712.168h-3.223v-29.058h3.223
		V712.168z"/>
	<path d="M266.775,697.372c0-4.512,1.007-8.106,3.021-10.783c2.014-2.676,4.749-4.015,8.204-4.015c3.921,0,6.911,1.549,8.97,4.646
		v-16.301h3.195v41.25h-3.008l-0.134-3.867c-2.059,2.937-5.085,4.404-9.077,4.404c-3.348,0-6.047-1.348-8.097-4.042
		c-2.051-2.694-3.075-6.333-3.075-10.917V697.372z M270.025,697.935c0,3.706,0.742,6.629,2.229,8.769
		c1.486,2.139,3.581,3.209,6.284,3.209c3.957,0,6.768-1.746,8.433-5.236v-13.643c-1.665-3.777-4.458-5.667-8.379-5.667
		c-2.703,0-4.807,1.061-6.311,3.183C270.777,690.67,270.025,693.799,270.025,697.935z"/>
	<path d="M303.622,675.672v7.438h6.016v2.632h-6.016v19.385c0,1.613,0.291,2.814,0.873,3.602c0.581,0.789,1.553,1.184,2.913,1.184
		c0.537,0,1.406-0.09,2.605-0.269l0.135,2.609c-0.842,0.302-1.988,0.452-3.438,0.452c-2.203,0-3.805-0.641-4.808-1.92
		c-1.003-1.28-1.504-3.164-1.504-5.653v-19.39h-5.345v-2.632h5.345v-7.438H303.622z"/>
	<path d="M319.492,688.026c1.057-1.736,2.408-3.08,4.056-4.029c1.647-0.948,3.446-1.423,5.397-1.423
		c3.115,0,5.435,0.878,6.956,2.632c1.521,1.755,2.292,4.387,2.31,7.896v19.067h-3.195v-19.094c-0.019-2.596-0.569-4.529-1.652-5.801
		s-2.815-1.907-5.196-1.907c-1.987,0-3.746,0.622-5.277,1.866c-1.53,1.244-2.663,2.924-3.397,5.035v19.9h-3.195v-41.25h3.195
		V688.026z"/>
	<path d="M210.486,782.243v15.926h-3.303v-39.102h13.32c4.064,0,7.273,1.039,9.628,3.115c2.354,2.077,3.531,4.933,3.531,8.566
		c0,3.671-1.133,6.504-3.397,8.5s-5.545,2.994-9.842,2.994H210.486z M210.486,779.45h10.018c3.205,0,5.648-0.762,7.332-2.285
		c1.683-1.524,2.523-3.649,2.523-6.375c0-2.707-0.837-4.863-2.511-6.469c-1.674-1.604-4.051-2.425-7.13-2.461h-10.232V779.45z"/>
	<path d="M258.343,798.168c-0.322-0.913-0.527-2.265-0.617-4.055c-1.128,1.468-2.564,2.6-4.311,3.396
		c-1.745,0.797-3.594,1.195-5.545,1.195c-2.793,0-5.054-0.779-6.781-2.336c-1.729-1.559-2.592-3.527-2.592-5.908
		c0-2.829,1.177-5.066,3.531-6.715c2.354-1.646,5.636-2.471,9.843-2.471h5.827v-3.303c0-2.076-0.64-3.711-1.92-4.901
		s-3.146-1.786-5.6-1.786c-2.237,0-4.091,0.574-5.559,1.719c-1.468,1.146-2.202,2.525-2.202,4.137l-3.223-0.027
		c0-2.31,1.074-4.311,3.223-6.002c2.148-1.692,4.789-2.538,7.923-2.538c3.24,0,5.796,0.81,7.667,2.431
		c1.87,1.62,2.833,3.881,2.887,6.781v13.75c0,2.811,0.296,4.914,0.886,6.311v0.322H258.343z M248.245,795.859
		c2.148,0,4.069-0.519,5.761-1.558c1.692-1.038,2.923-2.426,3.692-4.162v-6.393h-5.746c-3.205,0.037-5.712,0.623-7.52,1.76
		c-1.809,1.137-2.713,2.699-2.713,4.686c0,1.63,0.604,2.981,1.813,4.056C244.741,795.322,246.312,795.859,248.245,795.859z"/>
	<path d="M272.522,769.111l0.107,4.968c1.092-1.789,2.453-3.155,4.082-4.095c1.629-0.94,3.429-1.41,5.397-1.41
		c3.115,0,5.435,0.878,6.956,2.632c1.521,1.755,2.292,4.387,2.31,7.896v19.067h-3.195v-19.094c-0.019-2.596-0.569-4.529-1.652-5.801
		s-2.815-1.907-5.196-1.907c-1.987,0-3.746,0.622-5.277,1.866c-1.53,1.244-2.663,2.924-3.397,5.035v19.9h-3.195v-29.058H272.522z"/>
	<path d="M310.926,798.706c-2.471,0-4.704-0.608-6.7-1.826c-1.996-1.217-3.549-2.914-4.659-5.089
		c-1.11-2.176-1.665-4.614-1.665-7.318v-1.155c0-2.793,0.541-5.308,1.625-7.546c1.083-2.237,2.591-3.997,4.524-5.277
		s4.029-1.92,6.285-1.92c3.526,0,6.324,1.204,8.392,3.612c2.068,2.408,3.103,5.697,3.103,9.869v1.799h-20.732v0.618
		c0,3.294,0.943,6.038,2.833,8.231c1.889,2.193,4.266,3.289,7.13,3.289c1.719,0,3.236-0.313,4.552-0.939
		c1.316-0.627,2.511-1.629,3.585-3.008l2.015,1.531C318.849,796.997,315.42,798.706,310.926,798.706z M310.336,771.313
		c-2.418,0-4.454,0.887-6.11,2.658c-1.656,1.773-2.663,4.154-3.021,7.145h17.429v-0.35c-0.09-2.793-0.886-5.066-2.39-6.821
		S312.771,771.313,310.336,771.313z"/>
	<path d="M345.489,790.784c0-1.594-0.641-2.874-1.92-3.841c-1.28-0.967-3.209-1.724-5.787-2.27s-4.579-1.173-6.003-1.88
		c-1.423-0.707-2.479-1.57-3.169-2.592c-0.689-1.02-1.033-2.256-1.033-3.705c0-2.292,0.957-4.186,2.873-5.681
		s4.368-2.242,7.358-2.242c3.24,0,5.841,0.802,7.802,2.403c1.96,1.603,2.94,3.693,2.94,6.271h-3.223
		c0-1.701-0.712-3.115-2.135-4.244c-1.424-1.127-3.219-1.691-5.385-1.691c-2.112,0-3.81,0.47-5.089,1.41
		c-1.28,0.939-1.92,2.162-1.92,3.666c0,1.449,0.532,2.573,1.598,3.37c1.064,0.796,3.008,1.526,5.827,2.188
		c2.82,0.662,4.933,1.369,6.338,2.121s2.448,1.656,3.129,2.713s1.021,2.336,1.021,3.84c0,2.453-0.989,4.414-2.968,5.882
		s-4.561,2.202-7.747,2.202c-3.385,0-6.128-0.819-8.231-2.457c-2.104-1.639-3.155-3.711-3.155-6.217h3.223
		c0.125,1.879,0.917,3.343,2.376,4.391c1.459,1.047,3.389,1.57,5.788,1.57c2.237,0,4.046-0.492,5.424-1.477
		C344.8,793.532,345.489,792.288,345.489,790.784z"/>
</g>
<g>
	<path d="M561.097,701.118h-3.223v-35.234l-10.635,3.947v-3.008l13.32-4.941h0.537V701.118z"/>
	<path d="M601.112,701.118H576.62v-2.471l13.4-15.2c2.22-2.561,3.76-4.673,4.619-6.338s1.289-3.285,1.289-4.86
		c0-2.471-0.725-4.427-2.176-5.868c-1.449-1.441-3.446-2.162-5.988-2.162c-2.632,0-4.758,0.842-6.378,2.524
		c-1.621,1.683-2.431,3.867-2.431,6.553h-3.195c0-2.202,0.496-4.207,1.49-6.016c0.993-1.809,2.407-3.227,4.243-4.257
		c1.835-1.029,3.925-1.544,6.271-1.544c3.581,0,6.378,0.939,8.393,2.82c2.014,1.879,3.021,4.439,3.021,7.68
		c0,1.826-0.569,3.823-1.706,5.989s-3.138,4.87-6.002,8.11l-10.903,12.326h20.545V701.118z"/>
	<path d="M630.679,684.817c0,5.514-1.011,9.699-3.034,12.555s-5.004,4.283-8.942,4.283c-3.867,0-6.831-1.4-8.89-4.203
		c-2.059-2.802-3.115-6.879-3.169-12.232v-7.01c0-5.496,1.021-9.658,3.062-12.487s5.022-4.243,8.942-4.243
		c3.867,0,6.822,1.365,8.863,4.096s3.097,6.754,3.168,12.071V684.817z M627.456,677.807c0-4.476-0.729-7.859-2.188-10.151
		s-3.665-3.438-6.62-3.438c-2.9,0-5.084,1.119-6.553,3.356c-1.468,2.238-2.22,5.542-2.256,9.91v7.681
		c0,4.458,0.757,7.868,2.27,10.231s3.711,3.545,6.594,3.545c2.864,0,5.035-1.154,6.512-3.464c1.478-2.31,2.225-5.693,2.242-10.151
		V677.807z"/>
	<path d="M661.159,684.817c0,5.514-1.011,9.699-3.034,12.555s-5.004,4.283-8.942,4.283c-3.867,0-6.831-1.4-8.89-4.203
		c-2.059-2.802-3.115-6.879-3.169-12.232v-7.01c0-5.496,1.021-9.658,3.062-12.487s5.022-4.243,8.942-4.243
		c3.867,0,6.822,1.365,8.863,4.096s3.097,6.754,3.168,12.071V684.817z M657.937,677.807c0-4.476-0.729-7.859-2.188-10.151
		s-3.665-3.438-6.62-3.438c-2.9,0-5.084,1.119-6.553,3.356c-1.468,2.238-2.22,5.542-2.256,9.91v7.681
		c0,4.458,0.757,7.868,2.27,10.231s3.711,3.545,6.594,3.545c2.864,0,5.035-1.154,6.512-3.464c1.478-2.31,2.225-5.693,2.242-10.151
		V677.807z"/>
	<path d="M684.873,672.06l0.107,4.727c1.074-1.755,2.416-3.07,4.027-3.948c1.611-0.877,3.402-1.315,5.371-1.315
		c4.584,0,7.493,1.88,8.729,5.64c1.038-1.809,2.426-3.2,4.162-4.176c1.737-0.976,3.652-1.464,5.748-1.464
		c6.23,0,9.408,3.401,9.533,10.205v19.39h-3.223v-19.148c-0.018-2.596-0.577-4.521-1.679-5.773c-1.101-1.253-2.896-1.88-5.384-1.88
		c-2.311,0.036-4.262,0.783-5.855,2.242c-1.593,1.46-2.479,3.236-2.658,5.331v19.229h-3.223v-19.39
		c-0.018-2.488-0.604-4.346-1.759-5.572c-1.155-1.227-2.932-1.84-5.331-1.84c-2.023,0-3.76,0.577-5.21,1.732
		c-1.45,1.154-2.524,2.869-3.223,5.143v19.927h-3.223V672.06H684.873z"/>
	<path d="M733.616,672.06l0.107,4.727c1.074-1.755,2.416-3.07,4.027-3.948c1.611-0.877,3.402-1.315,5.371-1.315
		c4.584,0,7.493,1.88,8.729,5.64c1.038-1.809,2.426-3.2,4.162-4.176c1.737-0.976,3.652-1.464,5.748-1.464
		c6.23,0,9.408,3.401,9.533,10.205v19.39h-3.223v-19.148c-0.018-2.596-0.577-4.521-1.679-5.773c-1.101-1.253-2.896-1.88-5.384-1.88
		c-2.311,0.036-4.262,0.783-5.855,2.242c-1.593,1.46-2.479,3.236-2.658,5.331v19.229h-3.223v-19.39
		c-0.018-2.488-0.604-4.346-1.759-5.572c-1.155-1.227-2.932-1.84-5.331-1.84c-2.023,0-3.76,0.577-5.21,1.732
		c-1.45,1.154-2.524,2.869-3.223,5.143v19.927h-3.223V672.06H733.616z"/>
	<path d="M772.934,787.118h-24.492v-2.471l13.4-15.2c2.22-2.561,3.76-4.673,4.619-6.338s1.289-3.285,1.289-4.86
		c0-2.471-0.725-4.427-2.176-5.868c-1.449-1.441-3.446-2.162-5.988-2.162c-2.632,0-4.758,0.842-6.378,2.524
		c-1.621,1.683-2.431,3.867-2.431,6.553h-3.195c0-2.202,0.496-4.207,1.49-6.016c0.993-1.809,2.407-3.227,4.243-4.257
		c1.835-1.029,3.925-1.544,6.271-1.544c3.581,0,6.378,0.939,8.393,2.82c2.014,1.879,3.021,4.439,3.021,7.68
		c0,1.826-0.569,3.823-1.706,5.989s-3.138,4.87-6.002,8.11l-10.903,12.326h20.545V787.118z"/>
</g>
<rect x="1006.965" y="638.792" opacity="0.7" fill="#E3DEDA" stroke="#000000" stroke-width="1.0943" stroke-linecap="round" stroke-linejoin="round" stroke-miterlimit="10" width="625.87" height="178.678"/>
<g>
	<path d="M1039.559,701.614l1.208,6.07l1.478-5.801l8.486-28.816h2.98l8.379,28.816l1.45,5.854l1.289-6.123l7.063-28.547h3.383
		l-10.017,39.102h-3.169l-8.862-30.588l-0.993-3.867l-0.967,3.867l-9.078,30.588h-3.168l-9.99-39.102h3.383L1039.559,701.614z"/>
	<path d="M1080.701,674.718c0-0.604,0.196-1.116,0.59-1.534c0.395-0.418,0.932-0.627,1.611-0.627c0.681,0,1.223,0.209,1.625,0.627
		c0.403,0.418,0.604,0.93,0.604,1.534c0,0.605-0.201,1.112-0.604,1.521c-0.402,0.409-0.944,0.614-1.625,0.614
		c-0.68,0-1.217-0.205-1.611-0.614C1080.897,675.831,1080.701,675.324,1080.701,674.718z M1084.487,712.168h-3.223v-29.058h3.223
		V712.168z"/>
	<path d="M1091.926,697.372c0-4.512,1.007-8.106,3.021-10.783c2.014-2.676,4.749-4.015,8.204-4.015c3.921,0,6.911,1.549,8.97,4.646
		v-16.301h3.195v41.25h-3.008l-0.134-3.867c-2.059,2.937-5.085,4.404-9.077,4.404c-3.348,0-6.047-1.348-8.097-4.042
		c-2.051-2.694-3.075-6.333-3.075-10.917V697.372z M1095.176,697.935c0,3.706,0.742,6.629,2.229,8.769
		c1.486,2.139,3.581,3.209,6.284,3.209c3.957,0,6.768-1.746,8.433-5.236v-13.643c-1.665-3.777-4.458-5.667-8.379-5.667
		c-2.703,0-4.807,1.061-6.311,3.183C1095.928,690.67,1095.176,693.799,1095.176,697.935z"/>
	<path d="M1128.772,675.672v7.438h6.016v2.632h-6.016v19.385c0,1.613,0.291,2.814,0.873,3.602c0.581,0.789,1.553,1.184,2.913,1.184
		c0.537,0,1.406-0.09,2.605-0.269l0.135,2.609c-0.842,0.302-1.988,0.452-3.438,0.452c-2.203,0-3.805-0.641-4.808-1.92
		c-1.003-1.28-1.504-3.164-1.504-5.653v-19.39h-5.345v-2.632h5.345v-7.438H1128.772z"/>
	<path d="M1144.643,688.026c1.057-1.736,2.408-3.08,4.056-4.029c1.647-0.948,3.446-1.423,5.397-1.423
		c3.115,0,5.435,0.878,6.956,2.632c1.521,1.755,2.292,4.387,2.31,7.896v19.067h-3.195v-19.094c-0.019-2.596-0.569-4.529-1.652-5.801
		s-2.815-1.907-5.196-1.907c-1.987,0-3.746,0.622-5.277,1.866c-1.53,1.244-2.663,2.924-3.397,5.035v19.9h-3.195v-41.25h3.195
		V688.026z"/>
	<path d="M1035.637,782.243v15.926h-3.303v-39.102h13.32c4.064,0,7.273,1.039,9.628,3.115c2.354,2.077,3.531,4.933,3.531,8.566
		c0,3.671-1.133,6.504-3.397,8.5s-5.545,2.994-9.842,2.994H1035.637z M1035.637,779.45h10.018c3.205,0,5.648-0.762,7.332-2.285
		c1.683-1.524,2.523-3.649,2.523-6.375c0-2.707-0.837-4.863-2.511-6.469c-1.674-1.604-4.051-2.425-7.13-2.461h-10.232V779.45z"/>
	<path d="M1083.493,798.168c-0.322-0.913-0.527-2.265-0.617-4.055c-1.128,1.468-2.564,2.6-4.311,3.396
		c-1.745,0.797-3.594,1.195-5.545,1.195c-2.793,0-5.054-0.779-6.781-2.336c-1.729-1.559-2.592-3.527-2.592-5.908
		c0-2.829,1.177-5.066,3.531-6.715c2.354-1.646,5.636-2.471,9.843-2.471h5.827v-3.303c0-2.076-0.64-3.711-1.92-4.901
		s-3.146-1.786-5.6-1.786c-2.237,0-4.091,0.574-5.559,1.719c-1.468,1.146-2.202,2.525-2.202,4.137l-3.223-0.027
		c0-2.31,1.074-4.311,3.223-6.002c2.148-1.692,4.789-2.538,7.923-2.538c3.24,0,5.796,0.81,7.667,2.431
		c1.87,1.62,2.833,3.881,2.887,6.781v13.75c0,2.811,0.296,4.914,0.886,6.311v0.322H1083.493z M1073.396,795.859
		c2.148,0,4.069-0.519,5.761-1.558c1.692-1.038,2.923-2.426,3.692-4.162v-6.393h-5.746c-3.205,0.037-5.712,0.623-7.52,1.76
		c-1.809,1.137-2.713,2.699-2.713,4.686c0,1.63,0.604,2.981,1.813,4.056C1069.892,795.322,1071.462,795.859,1073.396,795.859z"/>
	<path d="M1097.673,769.111l0.107,4.968c1.092-1.789,2.453-3.155,4.082-4.095c1.629-0.94,3.429-1.41,5.397-1.41
		c3.115,0,5.435,0.878,6.956,2.632c1.521,1.755,2.292,4.387,2.31,7.896v19.067h-3.195v-19.094c-0.019-2.596-0.569-4.529-1.652-5.801
		s-2.815-1.907-5.196-1.907c-1.987,0-3.746,0.622-5.277,1.866c-1.53,1.244-2.663,2.924-3.397,5.035v19.9h-3.195v-29.058H1097.673z"
		/>
	<path d="M1136.076,798.706c-2.471,0-4.704-0.608-6.7-1.826c-1.996-1.217-3.549-2.914-4.659-5.089
		c-1.11-2.176-1.665-4.614-1.665-7.318v-1.155c0-2.793,0.541-5.308,1.625-7.546c1.083-2.237,2.591-3.997,4.524-5.277
		s4.029-1.92,6.285-1.92c3.526,0,6.324,1.204,8.392,3.612c2.068,2.408,3.103,5.697,3.103,9.869v1.799h-20.732v0.618
		c0,3.294,0.943,6.038,2.833,8.231c1.889,2.193,4.266,3.289,7.13,3.289c1.719,0,3.236-0.313,4.552-0.939
		c1.316-0.627,2.511-1.629,3.585-3.008l2.015,1.531C1143.999,796.997,1140.57,798.706,1136.076,798.706z M1135.486,771.313
		c-2.418,0-4.454,0.887-6.11,2.658c-1.656,1.773-2.663,4.154-3.021,7.145h17.429v-0.35c-0.09-2.793-0.886-5.066-2.39-6.821
		S1137.921,771.313,1135.486,771.313z"/>
	<path d="M1170.64,790.784c0-1.594-0.641-2.874-1.92-3.841c-1.28-0.967-3.209-1.724-5.787-2.27s-4.579-1.173-6.003-1.88
		c-1.423-0.707-2.479-1.57-3.169-2.592c-0.689-1.02-1.033-2.256-1.033-3.705c0-2.292,0.957-4.186,2.873-5.681
		s4.368-2.242,7.358-2.242c3.24,0,5.841,0.802,7.802,2.403c1.96,1.603,2.94,3.693,2.94,6.271h-3.223
		c0-1.701-0.712-3.115-2.135-4.244c-1.424-1.127-3.219-1.691-5.385-1.691c-2.112,0-3.81,0.47-5.089,1.41
		c-1.28,0.939-1.92,2.162-1.92,3.666c0,1.449,0.532,2.573,1.598,3.37c1.064,0.796,3.008,1.526,5.827,2.188
		c2.82,0.662,4.933,1.369,6.338,2.121s2.448,1.656,3.129,2.713s1.021,2.336,1.021,3.84c0,2.453-0.989,4.414-2.968,5.882
		s-4.561,2.202-7.747,2.202c-3.385,0-6.128-0.819-8.231-2.457c-2.104-1.639-3.155-3.711-3.155-6.217h3.223
		c0.125,1.879,0.917,3.343,2.376,4.391c1.459,1.047,3.389,1.57,5.788,1.57c2.237,0,4.046-0.492,5.424-1.477
		C1169.95,793.532,1170.64,792.288,1170.64,790.784z"/>
</g>
<g>
	<path d="M1386.247,701.118h-3.223v-35.234l-10.635,3.947v-3.008l13.32-4.941h0.537V701.118z"/>
	<path d="M1424.812,672.086c0,2.023-0.59,3.837-1.771,5.438c-1.182,1.603-2.74,2.78-4.674,3.532c2.256,0.77,4.064,2.014,5.426,3.732
		c1.36,1.719,2.041,3.706,2.041,5.962c0,3.348-1.138,6.002-3.411,7.963c-2.273,1.96-5.281,2.94-9.023,2.94
		c-3.777,0-6.799-0.976-9.063-2.928c-2.266-1.951-3.397-4.609-3.397-7.976c0-2.22,0.653-4.198,1.96-5.935
		c1.308-1.737,3.098-2.99,5.371-3.76c-1.934-0.752-3.473-1.93-4.619-3.532c-1.146-1.602-1.719-3.415-1.719-5.438
		c0-3.24,1.043-5.818,3.129-7.734c2.086-1.915,4.848-2.873,8.285-2.873s6.208,0.967,8.312,2.9S1424.812,668.882,1424.812,672.086z
		 M1422.61,690.778c0-2.435-0.869-4.435-2.605-6.002c-1.736-1.566-3.957-2.35-6.66-2.35s-4.914,0.77-6.633,2.31
		s-2.578,3.554-2.578,6.042c0,2.489,0.832,4.472,2.497,5.949c1.665,1.477,3.921,2.215,6.768,2.215c2.775,0,5.004-0.733,6.687-2.201
		C1421.769,695.272,1422.61,693.285,1422.61,690.778z M1421.589,672.06c0-2.238-0.774-4.104-2.322-5.6
		c-1.549-1.494-3.522-2.242-5.922-2.242c-2.435,0-4.409,0.721-5.922,2.162s-2.27,3.334-2.27,5.68c0,2.292,0.757,4.136,2.27,5.532
		s3.496,2.095,5.949,2.095c2.416,0,4.391-0.702,5.921-2.108C1420.824,676.173,1421.589,674.333,1421.589,672.06z"/>
	<path d="M1455.829,684.817c0,5.514-1.011,9.699-3.034,12.555s-5.004,4.283-8.942,4.283c-3.867,0-6.831-1.4-8.89-4.203
		c-2.059-2.802-3.115-6.879-3.169-12.232v-7.01c0-5.496,1.021-9.658,3.062-12.487s5.022-4.243,8.942-4.243
		c3.867,0,6.822,1.365,8.863,4.096s3.097,6.754,3.168,12.071V684.817z M1452.606,677.807c0-4.476-0.729-7.859-2.188-10.151
		s-3.665-3.438-6.62-3.438c-2.9,0-5.084,1.119-6.553,3.356c-1.468,2.238-2.22,5.542-2.256,9.91v7.681
		c0,4.458,0.757,7.868,2.27,10.231s3.711,3.545,6.594,3.545c2.864,0,5.035-1.154,6.512-3.464c1.478-2.31,2.225-5.693,2.242-10.151
		V677.807z"/>
	<path d="M1486.31,684.817c0,5.514-1.011,9.699-3.034,12.555s-5.004,4.283-8.942,4.283c-3.867,0-6.831-1.4-8.89-4.203
		c-2.059-2.802-3.115-6.879-3.169-12.232v-7.01c0-5.496,1.021-9.658,3.062-12.487s5.022-4.243,8.942-4.243
		c3.867,0,6.822,1.365,8.863,4.096s3.097,6.754,3.168,12.071V684.817z M1483.087,677.807c0-4.476-0.729-7.859-2.188-10.151
		s-3.665-3.438-6.62-3.438c-2.9,0-5.084,1.119-6.553,3.356c-1.468,2.238-2.22,5.542-2.256,9.91v7.681
		c0,4.458,0.757,7.868,2.27,10.231s3.711,3.545,6.594,3.545c2.864,0,5.035-1.154,6.512-3.464c1.478-2.31,2.225-5.693,2.242-10.151
		V677.807z"/>
	<path d="M1510.023,672.06l0.107,4.727c1.074-1.755,2.416-3.07,4.027-3.948c1.611-0.877,3.402-1.315,5.371-1.315
		c4.584,0,7.493,1.88,8.729,5.64c1.038-1.809,2.426-3.2,4.162-4.176c1.737-0.976,3.652-1.464,5.748-1.464
		c6.23,0,9.408,3.401,9.533,10.205v19.39h-3.223v-19.148c-0.018-2.596-0.577-4.521-1.679-5.773c-1.101-1.253-2.896-1.88-5.384-1.88
		c-2.311,0.036-4.262,0.783-5.855,2.242c-1.593,1.46-2.479,3.236-2.658,5.331v19.229h-3.223v-19.39
		c-0.018-2.488-0.604-4.346-1.759-5.572c-1.155-1.227-2.932-1.84-5.331-1.84c-2.023,0-3.76,0.577-5.21,1.732
		c-1.45,1.154-2.524,2.869-3.223,5.143v19.927h-3.223V672.06H1510.023z"/>
	<path d="M1558.767,672.06l0.107,4.727c1.074-1.755,2.416-3.07,4.027-3.948c1.611-0.877,3.402-1.315,5.371-1.315
		c4.584,0,7.493,1.88,8.729,5.64c1.038-1.809,2.426-3.2,4.162-4.176c1.737-0.976,3.652-1.464,5.748-1.464
		c6.23,0,9.408,3.401,9.533,10.205v19.39h-3.223v-19.148c-0.018-2.596-0.577-4.521-1.679-5.773c-1.101-1.253-2.896-1.88-5.384-1.88
		c-2.311,0.036-4.262,0.783-5.855,2.242c-1.593,1.46-2.479,3.236-2.658,5.331v19.229h-3.223v-19.39
		c-0.018-2.488-0.604-4.346-1.759-5.572c-1.155-1.227-2.932-1.84-5.331-1.84c-2.023,0-3.76,0.577-5.21,1.732
		c-1.45,1.154-2.524,2.869-3.223,5.143v19.927h-3.223V672.06H1558.767z"/>
	<path d="M1580.734,765.821h3.33c1.845,0,3.456-0.326,4.834-0.979c1.379-0.653,2.431-1.549,3.156-2.686
		c0.725-1.137,1.088-2.448,1.088-3.935c0-2.507-0.708-4.467-2.122-5.881c-1.414-1.415-3.446-2.122-6.097-2.122
		c-2.506,0-4.561,0.738-6.163,2.216c-1.603,1.477-2.403,3.424-2.403,5.841h-3.223c0-2.023,0.51-3.871,1.531-5.546
		c1.02-1.674,2.435-2.967,4.242-3.881c1.809-0.912,3.814-1.369,6.016-1.369c3.545,0,6.338,0.967,8.379,2.9s3.063,4.583,3.063,7.949
		c0,1.88-0.596,3.612-1.786,5.196c-1.191,1.585-2.824,2.771-4.901,3.559c2.435,0.681,4.279,1.849,5.532,3.505s1.88,3.63,1.88,5.922
		c0,3.348-1.092,6.042-3.276,8.083s-5.103,3.062-8.755,3.062c-2.327,0-4.463-0.466-6.405-1.396s-3.446-2.233-4.512-3.907
		s-1.598-3.621-1.598-5.841h3.223c0,2.488,0.868,4.516,2.604,6.082c1.737,1.567,3.966,2.35,6.688,2.35
		c2.775,0,4.937-0.711,6.485-2.135c1.549-1.423,2.323-3.486,2.323-6.189c0-2.614-0.837-4.61-2.511-5.989
		c-1.675-1.379-4.141-2.067-7.399-2.067h-3.223V765.821z"/>
</g>
</svg>
