<?xml version="1.0" encoding="utf-8"?>
<!-- Generator: Adobe Illustrator 16.0.0, SVG Export Plug-In . SVG Version: 6.00 Build 0)  -->
<!DOCTYPE svg PUBLIC "-//W3C//DTD SVG 1.1//EN" "http://www.w3.org/Graphics/SVG/1.1/DTD/svg11.dtd">
<svg version="1.1" id="Layer_1" xmlns="http://www.w3.org/2000/svg" xmlns:xlink="http://www.w3.org/1999/xlink" x="0px" y="0px"
	 width="1280px" height="800px" viewBox="0 0 1280 800" enable-background="new 0 0 1280 800" xml:space="preserve">
<g>
	<g>
		
			<line fill="none" stroke="#ED2F47" stroke-width="5" stroke-miterlimit="10" x1="147.29" y1="742.521" x2="153.016" y2="740.728"/>
		
			<line fill="none" stroke="#ED2F47" stroke-width="5" stroke-miterlimit="10" stroke-dasharray="12.0324,12.0324" x1="164.498" y1="737.131" x2="1077.331" y2="451.183"/>
		
			<line fill="none" stroke="#ED2F47" stroke-width="5" stroke-miterlimit="10" x1="1083.072" y1="449.385" x2="1088.798" y2="447.591"/>
	</g>
</g>
<g>
	<g>
		<polygon opacity="0.1" fill="#346B9A" points="832.302,521.569 692.702,565.936 599.735,503.999 599.735,101.925 739.335,56.799 
			832.302,116.229 		"/>
		<polyline fill="none" stroke="#000000" stroke-linecap="round" stroke-linejoin="round" stroke-miterlimit="10" points="
			739.335,56.799 739.335,459.633 599.735,503.999 		"/>
		<g>
			<path fill="none" stroke="#000000" stroke-linecap="round" stroke-linejoin="round" stroke-miterlimit="10" d="M832.302,521.569"
				/>
			<polyline fill="none" stroke="#000000" stroke-linecap="round" stroke-linejoin="round" stroke-miterlimit="10" points="
				692.702,565.936 692.702,160.563 832.302,116.229 			"/>
		</g>
		
			<line fill="none" stroke="#000000" stroke-linecap="round" stroke-linejoin="round" stroke-miterlimit="10" x1="599.735" y1="101.925" x2="692.702" y2="160.563"/>
		<polygon fill="none" stroke="#000000" stroke-linecap="round" stroke-linejoin="round" stroke-miterlimit="10" points="
			832.302,521.569 692.702,565.936 599.735,503.999 599.735,101.925 739.335,56.799 832.302,116.229 		"/>
		
			<line fill="none" stroke="#000000" stroke-linecap="round" stroke-linejoin="round" stroke-miterlimit="10" x1="739.335" y1="459.633" x2="832.302" y2="521.569"/>
	</g>
	<g>
		<polyline fill="#C1C2C2" points="682.849,568.701 692.702,565.936 692.701,160.563 599.735,101.925 589.882,104.69 
			589.882,506.765 682.849,568.701 		"/>
		<polyline fill="none" stroke="#231F20" stroke-linecap="round" stroke-linejoin="round" stroke-miterlimit="10" points="
			599.735,101.925 692.701,160.563 692.702,565.936 		"/>
		<g>
			<polygon fill="none" stroke="#231F20" stroke-linecap="round" stroke-linejoin="round" stroke-miterlimit="10" points="
				682.849,568.701 589.882,506.765 589.882,104.69 682.848,163.329 			"/>
		</g>
		
			<line fill="none" stroke="#231F20" stroke-linecap="round" stroke-linejoin="round" stroke-miterlimit="10" x1="682.849" y1="568.701" x2="692.702" y2="565.936"/>
		
			<line fill="none" stroke="#231F20" stroke-linecap="round" stroke-linejoin="round" stroke-miterlimit="10" x1="589.882" y1="104.69" x2="599.735" y2="101.925"/>
		
			<line fill="none" stroke="#231F20" stroke-linecap="round" stroke-linejoin="round" stroke-miterlimit="10" x1="682.848" y1="163.329" x2="692.702" y2="160.563"/>
	</g>
	<g>
		<polygon opacity="0.1" fill="#649B43" points="682.849,568.701 543.251,613.067 450.285,551.131 450.285,388.715 589.882,344.052 
			682.849,404.985 		"/>
		<polyline fill="none" stroke="#000000" stroke-linecap="round" stroke-linejoin="round" stroke-miterlimit="10" points="
			589.882,344.052 589.882,506.765 450.285,551.131 		"/>
		<g>
			<path fill="none" stroke="#000000" stroke-linecap="round" stroke-linejoin="round" stroke-miterlimit="10" d="M682.849,568.701"
				/>
			<polyline fill="none" stroke="#000000" stroke-linecap="round" stroke-linejoin="round" stroke-miterlimit="10" points="
				543.251,613.067 543.251,449.309 682.849,404.985 			"/>
		</g>
		
			<line fill="none" stroke="#000000" stroke-linecap="round" stroke-linejoin="round" stroke-miterlimit="10" x1="450.285" y1="388.715" x2="543.251" y2="449.309"/>
		<polygon fill="none" stroke="#000000" stroke-linecap="round" stroke-linejoin="round" stroke-miterlimit="10" points="
			682.849,568.701 543.251,613.067 450.285,551.131 450.285,388.715 589.882,344.052 682.849,404.985 		"/>
		
			<line fill="none" stroke="#000000" stroke-linecap="round" stroke-linejoin="round" stroke-miterlimit="10" x1="589.882" y1="506.765" x2="682.849" y2="568.701"/>
	</g>
	<g>
		<g>
			<polygon fill="#C1C2C2" points="442.164,392.15 442.164,554.863 535.13,616.8 543.251,613.067 543.251,449.309 450.285,388.715 
							"/>
		</g>
		<g>
			<polygon fill="none" stroke="#000000" stroke-linecap="round" stroke-linejoin="round" stroke-miterlimit="10" points="
				442.164,392.15 442.164,554.863 535.13,616.8 543.251,613.067 543.251,449.309 450.285,388.715 			"/>
		</g>
		
			<line fill="none" stroke="#000000" stroke-linecap="round" stroke-linejoin="round" stroke-miterlimit="10" x1="535.13" y1="453.084" x2="543.251" y2="449.309"/>
		
			<line fill="none" stroke="#000000" stroke-linecap="round" stroke-linejoin="round" stroke-miterlimit="10" x1="442.164" y1="392.15" x2="535.13" y2="453.084"/>
		
			<line fill="none" stroke="#000000" stroke-linecap="round" stroke-linejoin="round" stroke-miterlimit="10" x1="535.13" y1="453.084" x2="535.13" y2="616.8"/>
	</g>
	<g>
		<polygon opacity="0.1" fill="#F7972C" points="535.13,616.8 395.533,661.166 302.566,599.229 302.566,436.813 442.164,392.15 
			535.13,453.084 		"/>
		<polyline fill="none" stroke="#000000" stroke-linecap="round" stroke-linejoin="round" stroke-miterlimit="10" points="
			442.164,392.15 442.164,554.863 302.566,599.229 		"/>
		<g>
			<path fill="none" stroke="#000000" stroke-linecap="round" stroke-linejoin="round" stroke-miterlimit="10" d="M535.13,616.8"/>
			<polyline fill="none" stroke="#000000" stroke-linecap="round" stroke-linejoin="round" stroke-miterlimit="10" points="
				395.533,661.166 395.533,497.407 535.13,453.084 			"/>
		</g>
		
			<line fill="none" stroke="#000000" stroke-linecap="round" stroke-linejoin="round" stroke-miterlimit="10" x1="302.566" y1="436.813" x2="395.533" y2="497.407"/>
		<polygon fill="none" stroke="#000000" stroke-linecap="round" stroke-linejoin="round" stroke-miterlimit="10" points="
			535.13,616.8 395.533,661.166 302.566,599.229 302.566,436.813 442.164,392.15 535.13,453.084 		"/>
		
			<line fill="none" stroke="#000000" stroke-linecap="round" stroke-linejoin="round" stroke-miterlimit="10" x1="442.164" y1="554.863" x2="535.13" y2="616.8"/>
	</g>
	<g>
		<polyline fill="#5D6162" points="512.146,525.062 535.13,513.803 535.13,465.074 442.164,405.714 419.18,414.307 419.18,467.697 
			512.146,525.062 		"/>
		<line fill="none" stroke="#231F20" stroke-miterlimit="10" x1="419.18" y1="414.307" x2="512.146" y2="474.142"/>
		<path fill="none" stroke="#231F20" stroke-miterlimit="10" d="M512.146,476.333"/>
		<polyline fill="none" stroke="#231F20" stroke-miterlimit="10" points="512.146,525.062 535.13,513.803 535.13,465.074 
			442.164,405.714 419.18,414.307 419.18,467.697 512.146,525.062 		"/>
		<line fill="none" stroke="#231F20" stroke-miterlimit="10" x1="512.146" y1="474.142" x2="535.13" y2="465.074"/>
		<line fill="none" stroke="#231F20" stroke-miterlimit="10" x1="512.146" y1="474.142" x2="512.146" y2="525.062"/>
	</g>
	<g>
		<polygon fill="#C1C2C2" points="395.533,660.772 395.533,497.437 615.974,426.694 615.974,185.146 832.863,116.229 
			845.331,125.939 845.331,528.773 405.077,667.801 		"/>
		<path fill="none" stroke="#000000" stroke-width="2" stroke-miterlimit="10" d="M839.332,521.847"/>
		<polygon fill="none" stroke="#000000" stroke-width="2" stroke-miterlimit="10" points="395.533,660.772 395.533,497.437 
			615.974,426.694 615.974,185.146 832.302,116.229 845.331,125.939 845.331,528.773 405.077,667.801 		"/>
		<polyline fill="none" stroke="#000000" stroke-width="2" stroke-miterlimit="10" points="405.077,667.801 405.403,503.796 
			630.124,432.21 631.909,194.844 845.331,125.939 		"/>
		
			<line fill="none" stroke="#000000" stroke-width="2" stroke-miterlimit="10" x1="395.533" y1="497.437" x2="405.403" y2="503.796"/>
		
			<line fill="none" stroke="#000000" stroke-width="2" stroke-miterlimit="10" x1="615.974" y1="426.694" x2="630.124" y2="432.21"/>
		
			<line fill="none" stroke="#000000" stroke-width="2" stroke-miterlimit="10" x1="615.974" y1="185.146" x2="631.909" y2="194.844"/>
	</g>
	<g>
		<polygon fill="#C1C2C2" points="778.886,437.465 785.104,435.748 785.104,547.91 729.648,564.891 729.993,560.649 
			778.886,545.074 		"/>
		
			<polyline fill="none" stroke="#000000" stroke-width="2" stroke-linecap="round" stroke-linejoin="round" stroke-miterlimit="10" points="
			778.886,545.338 785.104,547.91 785.104,435.748 729.993,453.304 729.993,564.782 		"/>
		<polyline fill="#006A36" points="729.993,560.649 729.993,453.04 778.886,437.465 778.886,545.074 729.993,560.649 
			778.886,545.074 		"/>
		<polyline fill="none" stroke="#000000" stroke-width="2" stroke-miterlimit="10" points="729.993,560.649 778.886,545.074 
			778.886,437.465 		"/>
	</g>
	<g>
		<polygon opacity="0.1" fill="#CC3F27" points="938.298,590.71 725.118,659.175 631.908,596.917 631.908,194.843 845.331,125.939 
			938.298,185.37 		"/>
		<polyline fill="none" stroke="#000000" stroke-linecap="round" stroke-linejoin="round" stroke-miterlimit="10" points="
			845.331,125.939 845.331,528.773 631.908,596.917 		"/>
		<g>
			<path fill="none" stroke="#000000" stroke-linecap="round" stroke-linejoin="round" stroke-miterlimit="10" d="M864.718,614.809"
				/>
			<polyline fill="none" stroke="#000000" stroke-linecap="round" stroke-linejoin="round" stroke-miterlimit="10" points="
				725.118,659.175 725.118,253.802 938.298,185.37 			"/>
		</g>
		
			<line fill="none" stroke="#000000" stroke-linecap="round" stroke-linejoin="round" stroke-miterlimit="10" x1="631.908" y1="194.843" x2="725.118" y2="253.802"/>
		<polygon fill="none" stroke="#000000" stroke-linecap="round" stroke-linejoin="round" stroke-miterlimit="10" points="
			938.298,590.71 725.118,659.175 631.908,596.917 631.908,194.843 845.331,125.939 938.298,185.37 		"/>
		
			<line fill="none" stroke="#000000" stroke-linecap="round" stroke-linejoin="round" stroke-miterlimit="10" x1="845.331" y1="528.773" x2="938.298" y2="590.71"/>
	</g>
	<g>
		<polygon fill="#C1C2C2" points="621.707,434.321 621.707,599.229 716.432,663.099 725.118,659.175 725.118,495.69 630.124,432.21 
					"/>
		<polyline fill="none" stroke="#000000" stroke-linecap="round" stroke-linejoin="round" stroke-miterlimit="10" points="
			621.707,434.321 716.432,498.186 716.432,663.099 		"/>
		<polygon fill="none" stroke="#000000" stroke-linecap="round" stroke-linejoin="round" stroke-miterlimit="10" points="
			621.707,434.321 621.707,599.229 716.432,663.099 725.118,659.175 725.118,495.69 630.124,432.21 		"/>
		
			<line fill="none" stroke="#000000" stroke-linecap="round" stroke-linejoin="round" stroke-miterlimit="10" x1="716.432" y1="498.186" x2="725.118" y2="495.69"/>
	</g>
	<g>
		<polygon opacity="0.1" fill="#914C9C" points="716.432,663.099 503.759,732.966 405.077,667.801 405.077,503.44 621.707,434.321 
			716.432,498.186 		"/>
		<polyline fill="none" stroke="#000000" stroke-linecap="round" stroke-linejoin="round" stroke-miterlimit="10" points="
			621.707,434.321 621.707,599.229 405.077,667.801 		"/>
		<g>
			<path fill="none" stroke="#000000" stroke-linecap="round" stroke-linejoin="round" stroke-miterlimit="10" d="M713.231,661.166"
				/>
			<polyline fill="none" stroke="#000000" stroke-linecap="round" stroke-linejoin="round" stroke-miterlimit="10" points="
				503.759,732.966 503.759,567.614 716.432,498.186 			"/>
		</g>
		
			<line fill="none" stroke="#000000" stroke-linecap="round" stroke-linejoin="round" stroke-miterlimit="10" x1="405.077" y1="503.44" x2="503.759" y2="567.614"/>
		<polygon fill="none" stroke="#000000" stroke-linecap="round" stroke-linejoin="round" stroke-miterlimit="10" points="
			716.432,663.099 503.759,732.966 405.077,667.801 405.077,503.44 621.707,434.321 716.432,498.186 		"/>
		
			<line fill="none" stroke="#000000" stroke-linecap="round" stroke-linejoin="round" stroke-miterlimit="10" x1="621.707" y1="599.229" x2="716.432" y2="663.099"/>
	</g>
</g>
<g>
	<rect x="514.947" y="641.726" opacity="0.8" fill="#C1C2C2" width="144.908" height="33.078"/>
	<g>
		<path fill="#231F20" d="M529.708,655.687c-0.896,0.8-2,1.2-3.312,1.2h-3.216v8.568h-0.96v-17.137h4.176
			c1.312,0,2.416,0.385,3.312,1.152c0.896,0.768,1.345,1.8,1.345,3.096C531.053,653.879,530.604,654.918,529.708,655.687z
			 M528.965,650.119c-0.656-0.545-1.521-0.816-2.593-0.816h-3.191v6.6h3.191c1.057,0,1.937-0.287,2.641-0.863
			c0.704-0.608,1.056-1.432,1.056-2.473C530.068,651.527,529.7,650.711,528.965,650.119z"/>
		<path fill="#231F20" d="M536.021,664.83c-0.641,0.545-1.408,0.816-2.304,0.816c-1.536,0-2.688-0.695-3.456-2.088l0.84-0.504
			c0.271,0.496,0.6,0.88,0.983,1.152c0.4,0.304,0.944,0.455,1.633,0.455c1.503,0,2.256-0.639,2.256-1.92
			c0-0.56-0.265-1.047-0.792-1.463c-0.16-0.097-0.389-0.205-0.685-0.324c-0.296-0.121-0.659-0.26-1.092-0.42
			c-0.8-0.289-1.376-0.576-1.728-0.865c-0.513-0.415-0.769-1.016-0.769-1.799c0-0.672,0.256-1.248,0.769-1.729
			c0.495-0.496,1.144-0.744,1.943-0.744c1.104,0,2.04,0.385,2.809,1.152l-0.721,0.624c-0.544-0.544-1.239-0.816-2.088-0.816
			c-1.151,0-1.728,0.505-1.728,1.513c0,0.447,0.176,0.815,0.528,1.104c0.287,0.225,0.743,0.44,1.367,0.648
			c0.544,0.191,0.992,0.371,1.345,0.539c0.352,0.168,0.615,0.316,0.792,0.444c0.688,0.528,1.031,1.24,1.031,2.136
			C536.956,663.606,536.645,664.303,536.021,664.83z"/>
		<path fill="#231F20" d="M540.893,670.11h-1.104l2.567-5.567l-4.176-9h1.056l3.696,7.824l3.648-7.824h1.08L540.893,670.11z"/>
		<path fill="#231F20" d="M556.517,665.455l-5.185-5.16l-0.552,0.552v4.608h-0.983v-17.76h0.983v11.735l4.296-4.272h1.393
			l-4.488,4.465l5.832,5.832H556.517z"/>
		<path fill="#231F20" d="M560.452,653.767c-0.176,0-0.359-0.071-0.552-0.216c-0.145-0.145-0.225-0.336-0.24-0.576
			c0-0.432,0.264-0.695,0.792-0.792c0.399,0,0.664,0.265,0.792,0.792C561.244,653.502,560.98,653.767,560.452,653.767z
			 M559.948,665.455v-9.912h0.984v9.912H559.948z"/>
		<path fill="#231F20" d="M572.524,665.455v-1.705c-1.04,1.248-2.36,1.873-3.96,1.873c-1.44,0-2.648-0.488-3.624-1.465
			c-0.992-0.992-1.488-2.207-1.488-3.647s0.488-2.647,1.464-3.624c0.992-0.992,2.208-1.488,3.648-1.488
			c1.584,0,2.904,0.624,3.96,1.872v-1.728h0.984v9.912H572.524z M571.492,657.582c-0.815-0.815-1.792-1.224-2.928-1.224
			c-1.152,0-2.128,0.4-2.928,1.2c-0.816,0.816-1.225,1.8-1.225,2.952c0,1.136,0.408,2.112,1.225,2.928
			c0.815,0.815,1.791,1.224,2.928,1.224c1.151,0,2.128-0.399,2.928-1.199c0.816-0.816,1.224-1.801,1.224-2.952
			C572.716,659.375,572.309,658.398,571.492,657.582z"/>
		<path fill="#231F20" d="M577.924,656.526v8.929h-0.984v-8.929h-1.344v-0.983h1.344v-4.344h0.984v4.344h2.304v0.983H577.924z"/>
		<path fill="#231F20" d="M587.115,657.006c-0.256-0.191-0.527-0.344-0.815-0.455s-0.593-0.168-0.912-0.168
			c-0.272,0-0.528,0.084-0.769,0.252c-0.239,0.168-0.447,0.376-0.624,0.624c-0.176,0.248-0.315,0.524-0.42,0.827
			c-0.104,0.305-0.155,0.585-0.155,0.841v6.528h-0.984v-9.912h0.984v1.344c0.207-0.368,0.479-0.704,0.815-1.008
			c0.336-0.305,0.704-0.457,1.104-0.457c0.495,0,0.903,0.057,1.224,0.169s0.68,0.312,1.08,0.6L587.115,657.006z"/>
		<path fill="#231F20" d="M590.548,653.767c-0.176,0-0.359-0.071-0.552-0.216c-0.145-0.145-0.225-0.336-0.24-0.576
			c0-0.432,0.264-0.695,0.792-0.792c0.399,0,0.664,0.265,0.792,0.792C591.34,653.502,591.076,653.767,590.548,653.767z
			 M590.044,665.455v-9.912h0.984v9.912H590.044z"/>
		<path fill="#231F20" d="M601.852,664.135c-0.992,0.992-2.208,1.488-3.648,1.488c-1.647,0-3.008-0.672-4.08-2.017v6.504h-0.983
			v-14.567h0.983v1.871c1.024-1.344,2.385-2.016,4.08-2.016c1.44,0,2.648,0.488,3.624,1.465c0.992,0.992,1.488,2.207,1.488,3.647
			S602.827,663.158,601.852,664.135z M601.132,657.582c-0.816-0.815-1.792-1.224-2.929-1.224c-1.151,0-2.128,0.4-2.928,1.2
			c-0.815,0.816-1.224,1.8-1.224,2.952c0,1.136,0.408,2.112,1.224,2.928c0.816,0.815,1.792,1.224,2.928,1.224
			c1.152,0,2.128-0.399,2.929-1.199c0.815-0.816,1.224-1.801,1.224-2.952C602.355,659.375,601.947,658.398,601.132,657.582z"/>
		<path fill="#231F20" d="M610.179,657.006c-0.256-0.191-0.527-0.344-0.815-0.455s-0.593-0.168-0.912-0.168
			c-0.272,0-0.528,0.084-0.769,0.252c-0.239,0.168-0.447,0.376-0.624,0.624c-0.176,0.248-0.315,0.524-0.42,0.827
			c-0.104,0.305-0.155,0.585-0.155,0.841v6.528h-0.984v-9.912h0.984v1.344c0.207-0.368,0.479-0.704,0.815-1.008
			c0.336-0.305,0.704-0.457,1.104-0.457c0.495,0,0.903,0.057,1.224,0.169s0.68,0.312,1.08,0.6L610.179,657.006z"/>
		<path fill="#231F20" d="M620.788,665.455v-1.705c-1.04,1.248-2.36,1.873-3.96,1.873c-1.44,0-2.648-0.488-3.624-1.465
			c-0.992-0.992-1.488-2.207-1.488-3.647s0.488-2.647,1.464-3.624c0.992-0.992,2.208-1.488,3.648-1.488
			c1.584,0,2.904,0.624,3.96,1.872v-1.728h0.984v9.912H620.788z M619.756,657.582c-0.815-0.815-1.792-1.224-2.928-1.224
			c-1.152,0-2.128,0.4-2.928,1.2c-0.816,0.816-1.225,1.8-1.225,2.952c0,1.136,0.408,2.112,1.225,2.928
			c0.815,0.815,1.791,1.224,2.928,1.224c1.151,0,2.128-0.399,2.928-1.199c0.816-0.816,1.224-1.801,1.224-2.952
			C620.979,659.375,620.572,658.398,619.756,657.582z"/>
		<path fill="#231F20" d="M631.443,665.455l-5.185-5.16l-0.552,0.552v4.608h-0.983v-17.76h0.983v11.735l4.296-4.272h1.393
			l-4.488,4.465l5.832,5.832H631.443z"/>
		<path fill="#231F20" d="M639.579,664.83c-0.641,0.545-1.408,0.816-2.304,0.816c-1.536,0-2.688-0.695-3.456-2.088l0.84-0.504
			c0.271,0.496,0.6,0.88,0.983,1.152c0.4,0.304,0.944,0.455,1.633,0.455c1.503,0,2.256-0.639,2.256-1.92
			c0-0.56-0.265-1.047-0.792-1.463c-0.16-0.097-0.389-0.205-0.685-0.324c-0.296-0.121-0.659-0.26-1.092-0.42
			c-0.8-0.289-1.376-0.576-1.728-0.865c-0.513-0.415-0.769-1.016-0.769-1.799c0-0.672,0.256-1.248,0.769-1.729
			c0.495-0.496,1.144-0.744,1.943-0.744c1.104,0,2.04,0.385,2.809,1.152l-0.721,0.624c-0.544-0.544-1.239-0.816-2.088-0.816
			c-1.151,0-1.728,0.505-1.728,1.513c0,0.447,0.176,0.815,0.528,1.104c0.287,0.225,0.743,0.44,1.367,0.648
			c0.544,0.191,0.992,0.371,1.345,0.539c0.352,0.168,0.615,0.316,0.792,0.444c0.688,0.528,1.031,1.24,1.031,2.136
			C640.515,663.606,640.203,664.303,639.579,664.83z"/>
		<path fill="#231F20" d="M643.323,653.767c-0.176,0-0.359-0.071-0.552-0.216c-0.145-0.145-0.225-0.336-0.24-0.576
			c0-0.432,0.264-0.695,0.792-0.792c0.399,0,0.664,0.265,0.792,0.792C644.115,653.502,643.852,653.767,643.323,653.767z
			 M642.819,665.455v-9.912h0.984v9.912H642.819z"/>
		<path fill="#231F20" d="M651.938,664.83c-0.641,0.545-1.408,0.816-2.304,0.816c-1.536,0-2.688-0.695-3.456-2.088l0.84-0.504
			c0.271,0.496,0.6,0.88,0.983,1.152c0.4,0.304,0.944,0.455,1.633,0.455c1.503,0,2.256-0.639,2.256-1.92
			c0-0.56-0.265-1.047-0.792-1.463c-0.16-0.097-0.389-0.205-0.685-0.324c-0.296-0.121-0.659-0.26-1.092-0.42
			c-0.8-0.289-1.376-0.576-1.728-0.865c-0.513-0.415-0.769-1.016-0.769-1.799c0-0.672,0.256-1.248,0.769-1.729
			c0.495-0.496,1.144-0.744,1.943-0.744c1.104,0,2.04,0.385,2.809,1.152l-0.721,0.624c-0.544-0.544-1.239-0.816-2.088-0.816
			c-1.151,0-1.728,0.505-1.728,1.513c0,0.447,0.176,0.815,0.528,1.104c0.287,0.225,0.743,0.44,1.367,0.648
			c0.544,0.191,0.992,0.371,1.345,0.539c0.352,0.168,0.615,0.316,0.792,0.444c0.688,0.528,1.031,1.24,1.031,2.136
			C652.874,663.606,652.563,664.303,651.938,664.83z"/>
	</g>
	<rect x="514.947" y="641.726" fill="none" stroke="#000000" stroke-miterlimit="10" width="144.908" height="33.078"/>
</g>
<g>
	<rect x="752.68" y="569.293" opacity="0.8" fill="#C1C2C2" width="121.521" height="33.078"/>
	<g>
		<path fill="#231F20" d="M778.265,593.021l-3.647-14.399l-5.641,14.832l-5.64-14.856l-3.672,14.424h-0.984l4.464-17.64
			l5.832,15.288l5.832-15.313l4.464,17.664H778.265z"/>
		<path fill="#231F20" d="M787.673,592.158c-0.656,0.704-1.576,1.056-2.761,1.056c-1.168,0-2.072-0.344-2.712-1.032
			c-0.64-0.688-0.96-1.647-0.96-2.88v-6.192h0.984v6.192c0,0.944,0.207,1.673,0.624,2.185c0.432,0.512,1.119,0.768,2.063,0.768
			c1.84,0,2.761-0.984,2.761-2.952v-6.192h0.96v6.192C788.633,590.518,788.313,591.471,787.673,592.158z"/>
		<path fill="#231F20" d="M796.528,592.398c-0.641,0.543-1.408,0.815-2.304,0.815c-1.536,0-2.688-0.696-3.456-2.088l0.84-0.504
			c0.271,0.496,0.6,0.88,0.983,1.151c0.4,0.305,0.944,0.457,1.633,0.457c1.503,0,2.256-0.641,2.256-1.92
			c0-0.561-0.265-1.049-0.792-1.465c-0.16-0.096-0.389-0.203-0.685-0.324c-0.296-0.119-0.659-0.26-1.092-0.42
			c-0.8-0.287-1.376-0.576-1.728-0.863c-0.513-0.416-0.769-1.016-0.769-1.801c0-0.672,0.256-1.248,0.769-1.728
			c0.495-0.495,1.144-0.744,1.943-0.744c1.104,0,2.04,0.384,2.809,1.152l-0.721,0.624c-0.544-0.544-1.239-0.816-2.088-0.816
			c-1.151,0-1.728,0.504-1.728,1.512c0,0.449,0.176,0.816,0.528,1.104c0.287,0.224,0.743,0.44,1.367,0.647
			c0.544,0.192,0.992,0.373,1.345,0.541c0.352,0.168,0.615,0.315,0.792,0.443c0.688,0.528,1.031,1.24,1.031,2.137
			C797.464,591.174,797.152,591.87,796.528,592.398z"/>
		<path fill="#231F20" d="M800.272,581.334c-0.176,0-0.359-0.072-0.552-0.216c-0.145-0.144-0.225-0.337-0.24-0.576
			c0-0.433,0.264-0.696,0.792-0.792c0.399,0,0.664,0.264,0.792,0.792C801.064,581.07,800.801,581.334,800.272,581.334z
			 M799.769,593.021v-9.912h0.984v9.912H799.769z"/>
		<path fill="#231F20" d="M810.76,593.021l-5.185-5.16l-0.552,0.553v4.607h-0.983v-17.76h0.983v11.736l4.296-4.271h1.393
			l-4.488,4.463l5.832,5.832H810.76z"/>
		<path fill="#231F20" d="M814.287,593.021v-17.76h0.96v17.76H814.287z"/>
		<path fill="#231F20" d="M826.647,591.702c-0.992,0.992-2.208,1.487-3.647,1.487c-1.44,0-2.648-0.487-3.624-1.463
			c-0.992-0.992-1.488-2.209-1.488-3.648c0-1.424,0.496-2.632,1.488-3.624c0.976-1.009,2.184-1.513,3.624-1.513
			c1.424,0,2.632,0.496,3.624,1.488s1.488,2.209,1.488,3.648S827.624,590.727,826.647,591.702z M825.952,585.126
			c-0.801-0.815-1.784-1.224-2.952-1.224c-1.12,0-2.088,0.416-2.904,1.248c-0.832,0.832-1.248,1.808-1.248,2.928
			c0,1.137,0.408,2.111,1.225,2.928c0.815,0.816,1.791,1.225,2.928,1.225c1.151,0,2.128-0.4,2.928-1.201
			c0.816-0.815,1.224-1.799,1.224-2.951C827.151,586.91,826.752,585.926,825.952,585.126z"/>
		<path fill="#231F20" d="M837.327,593.021l-5.185-5.16l-0.552,0.553v4.607h-0.983v-17.76h0.983v11.736l4.296-4.271h1.393
			l-4.488,4.463l5.832,5.832H837.327z"/>
		<path fill="#231F20" d="M848.151,593.021v-1.703c-1.04,1.248-2.36,1.871-3.96,1.871c-1.44,0-2.648-0.487-3.624-1.463
			c-0.992-0.992-1.488-2.209-1.488-3.648s0.488-2.648,1.464-3.624c0.992-0.992,2.208-1.488,3.648-1.488
			c1.584,0,2.904,0.624,3.96,1.872v-1.729h0.984v9.912H848.151z M847.119,585.15c-0.815-0.816-1.792-1.225-2.928-1.225
			c-1.152,0-2.128,0.4-2.928,1.2c-0.816,0.815-1.225,1.8-1.225,2.952c0,1.137,0.408,2.111,1.225,2.928
			c0.815,0.816,1.791,1.225,2.928,1.225c1.151,0,2.128-0.4,2.928-1.201c0.816-0.815,1.224-1.799,1.224-2.951
			C848.343,586.941,847.936,585.966,847.119,585.15z"/>
		<path fill="#231F20" d="M852.326,593.021v-17.76h0.96v17.76H852.326z"/>
		<path fill="#231F20" d="M856.863,587.861c0,1.345,0.359,2.408,1.08,3.193c0.751,0.799,1.783,1.199,3.096,1.199
			c0.672,0,1.279-0.111,1.824-0.336c0.688-0.288,1.304-0.872,1.848-1.752l0.888,0.408c-0.624,1.184-1.584,1.984-2.88,2.4
			c-0.496,0.159-1.056,0.239-1.68,0.239c-1.488,0-2.712-0.487-3.672-1.464c-0.977-0.976-1.464-2.199-1.464-3.672
			c0-1.488,0.479-2.712,1.439-3.672c0.976-0.977,2.208-1.465,3.696-1.465c1.472,0,2.688,0.457,3.647,1.369
			c0.977,0.912,1.465,2.096,1.465,3.551H856.863z M863.631,584.718c-0.752-0.544-1.616-0.815-2.592-0.815
			c-2.049,0-3.393,1.008-4.032,3.023h8.04C864.887,586.014,864.415,585.278,863.631,584.718z"/>
	</g>
	<rect x="752.68" y="569.293" fill="none" stroke="#000000" stroke-miterlimit="10" width="121.521" height="33.078"/>
</g>
<g>
	<g>
		<line fill="none" stroke="#000000" stroke-miterlimit="10" x1="813.44" y1="144.197" x2="813.44" y2="534.826"/>
		<g>
			<path d="M813.44,138.162c-1.054,2.84-2.852,6.363-4.756,8.547l4.756-1.72l4.755,1.72
				C816.291,144.525,814.493,141.002,813.44,138.162z"/>
		</g>
		<g>
			<path d="M813.44,540.861c-1.054-2.84-2.852-6.363-4.756-8.548l4.756,1.721l4.755-1.721
				C816.291,534.498,814.493,538.021,813.44,540.861z"/>
		</g>
	</g>
</g>
<g>
	<rect x="761.114" y="338.853" opacity="0.8" fill="#C1C2C2" width="48.608" height="26.462"/>
	<g>
		<path fill="#231F20" d="M774.112,356.818c-0.896,0.896-2.022,1.344-3.379,1.344c-1.396,0-2.528-0.435-3.398-1.305
			c-0.87-0.896-1.306-2.035-1.306-3.418v-0.422c0-0.064,0-0.127,0-0.192c0-0.077,0.007-0.154,0.02-0.23s0.031-0.185,0.058-0.326
			c0.025-0.141,0.07-0.32,0.134-0.538c0.064-0.269,0.147-0.521,0.25-0.758s0.211-0.464,0.326-0.682l3.438-6.164h0.902l-2.919,5.318
			l0.807-0.403l0.825-0.23l0.864-0.077c1.344,0,2.464,0.448,3.36,1.344c0.908,0.909,1.363,2.029,1.363,3.36
			C775.457,354.795,775.009,355.922,774.112,356.818z M773.537,350.674c-0.769-0.781-1.703-1.171-2.804-1.171
			c-1.088,0-2.016,0.384-2.784,1.152c-0.768,0.768-1.151,1.696-1.151,2.784c0,1.14,0.371,2.081,1.113,2.823
			c0.755,0.755,1.696,1.133,2.822,1.133s2.067-0.377,2.822-1.133s1.133-1.696,1.133-2.823
			C774.688,352.389,774.305,351.468,773.537,350.674z"/>
		<path fill="#231F20" d="M777.069,359.813l-0.25-0.173l1.421-3.129l0.672,0.288L777.069,359.813z"/>
		<path fill="#231F20" d="M787.609,350.943c-0.114,0.141-0.287,0.349-0.518,0.624c-0.23,0.276-0.525,0.618-0.884,1.027l-3.936,4.455
			h6.566v0.787h-8.295l6.721-7.776c0.537-0.768,0.806-1.568,0.806-2.4c0-0.807-0.319-1.491-0.96-2.055
			c-0.64-0.55-1.382-0.826-2.227-0.826c-1.037,0-1.851,0.333-2.438,0.999c-0.358,0.397-0.608,0.89-0.749,1.479h-0.864
			c0.09-0.666,0.423-1.325,0.999-1.978c0.768-0.845,1.785-1.268,3.053-1.268c1.088,0,2.021,0.339,2.803,1.018
			c0.78,0.666,1.171,1.543,1.171,2.631C788.857,348.773,788.441,349.868,787.609,350.943z"/>
		<path fill="#231F20" d="M805.023,357.835v-5.472c0-0.486-0.16-0.909-0.479-1.267c-0.32-0.358-0.781-0.538-1.383-0.538
			c-1.241,0-1.862,0.602-1.862,1.805v5.472h-0.787v-5.472c0-0.538-0.18-0.966-0.538-1.286c-0.371-0.346-0.813-0.519-1.324-0.519
			c-0.525,0-0.967,0.167-1.325,0.499c-0.358,0.32-0.537,0.756-0.537,1.306v5.472H796v-7.93h0.787v0.787
			c0.384-0.602,1.005-0.902,1.862-0.902c1.023,0,1.778,0.416,2.266,1.248c0.461-0.832,1.209-1.248,2.246-1.248
			c0.794,0,1.434,0.224,1.92,0.672c0.486,0.46,0.729,1.094,0.729,1.9v5.472H805.023z"/>
	</g>
	
		<rect x="761.114" y="338.853" fill="none" stroke="#000000" stroke-width="0.8" stroke-miterlimit="10" width="48.608" height="26.462"/>
</g>
<g>
	<rect x="536.099" y="396.87" opacity="0.8" fill="#C1C2C2" width="47.73" height="33.078"/>
	<g>
		<path fill="#231F20" d="M556.428,420.84l-4.271-14.377l-4.297,14.377l-5.495-17.377h0.96l4.487,14.016l4.345-14.328l4.319,14.328
			l4.488-14.016h1.008L556.428,420.84z"/>
		<path fill="#231F20" d="M576.252,419.592c-0.896,0.656-2.112,1.055-3.647,1.199c-0.177,0.016-0.369,0.027-0.576,0.036
			c-0.208,0.008-0.425,0.013-0.648,0.013c-2.592,0-4.704-0.816-6.336-2.449c-1.648-1.647-2.472-3.768-2.472-6.359
			s0.815-4.704,2.448-6.336c1.647-1.648,3.768-2.473,6.359-2.473c1.472,0,2.8,0.217,3.984,0.648c0.704,0.272,1.384,0.664,2.04,1.176
			v1.225c-0.672-0.561-1.408-1.008-2.208-1.344c-1.217-0.496-2.488-0.744-3.816-0.744c-2.271,0-4.144,0.736-5.616,2.207
			c-1.472,1.473-2.208,3.353-2.208,5.641s0.729,4.16,2.185,5.615c1.472,1.473,3.352,2.209,5.64,2.209
			c1.424,0,2.664-0.256,3.72-0.769c0.608-0.304,1.376-0.792,2.305-1.464v1.128L576.252,419.592z"/>
	</g>
	<rect x="536.099" y="396.87" fill="none" stroke="#000000" stroke-miterlimit="10" width="47.73" height="33.078"/>
</g>
<g>
	<rect x="306.291" y="464.13" opacity="0.8" fill="#C1C2C2" width="77.491" height="33.078"/>
	<g>
		<path fill="#231F20" d="M322.708,487.859l-8.256-8.28l-0.144,0.144v8.137h-0.984v-17.137h0.984v7.608l7.655-7.608h1.393
			l-8.208,8.184l8.928,8.953H322.708z"/>
		<path fill="#231F20" d="M333.915,486.539c-0.992,0.992-2.208,1.488-3.647,1.488c-0.88,0-1.688-0.2-2.424-0.601l-0.889,1.272
			l-0.815-0.6l0.864-1.248c-1.232-1.009-1.849-2.32-1.849-3.937c0-1.44,0.488-2.647,1.464-3.624
			c0.992-0.992,2.208-1.488,3.648-1.488c0.928,0,1.792,0.232,2.592,0.696l0.96-1.368l0.864,0.576l-0.984,1.416
			c1.12,1.023,1.681,2.288,1.681,3.792C335.38,484.355,334.892,485.563,333.915,486.539z M330.268,478.763
			c-1.152,0-2.128,0.4-2.928,1.2c-0.816,0.816-1.225,1.8-1.225,2.952c0,1.265,0.48,2.312,1.44,3.144l4.752-6.768
			C331.651,478.939,330.972,478.763,330.268,478.763z M333.147,479.915l-4.729,6.72l0.433,0.191l0.456,0.145l0.96,0.096
			c1.151,0,2.128-0.399,2.928-1.199c0.816-0.816,1.224-1.801,1.224-2.952C334.419,481.715,333.995,480.715,333.147,479.915z"/>
		<path fill="#231F20" d="M344.596,487.859l-5.185-5.16l-0.552,0.552v4.608h-0.983V470.1h0.983v11.735l4.296-4.272h1.393
			l-4.488,4.465l5.832,5.832H344.596z"/>
		<path fill="#231F20" d="M354.604,487.859l-5.185-5.16l-0.552,0.552v4.608h-0.983V470.1h0.983v11.735l4.296-4.272h1.393
			l-4.488,4.465l5.832,5.832H354.604z"/>
		<path fill="#231F20" d="M357.363,482.699c0,1.344,0.359,2.408,1.08,3.191c0.751,0.801,1.783,1.2,3.096,1.2
			c0.672,0,1.279-0.112,1.824-0.336c0.688-0.288,1.304-0.872,1.848-1.752l0.888,0.407c-0.624,1.186-1.584,1.984-2.88,2.4
			c-0.496,0.16-1.056,0.24-1.68,0.24c-1.488,0-2.712-0.488-3.672-1.464c-0.977-0.976-1.464-2.2-1.464-3.672
			c0-1.488,0.479-2.712,1.439-3.673c0.976-0.975,2.208-1.463,3.696-1.463c1.472,0,2.688,0.455,3.647,1.367
			c0.977,0.912,1.465,2.097,1.465,3.553H357.363z M364.131,479.555c-0.752-0.543-1.616-0.816-2.592-0.816
			c-2.049,0-3.393,1.009-4.032,3.024h8.04C365.387,480.852,364.915,480.115,364.131,479.555z"/>
		<path fill="#231F20" d="M375.603,487.859v-5.929c0-2.096-0.944-3.144-2.832-3.144c-0.928,0-1.632,0.271-2.112,0.816
			c-0.496,0.543-0.743,1.287-0.743,2.231v6.024h-0.984v-9.912h0.984v1.199c0.447-0.879,1.399-1.32,2.855-1.32
			c1.232,0,2.176,0.354,2.832,1.057c0.656,0.704,0.984,1.688,0.984,2.952v6.024H375.603z"/>
	</g>
	<rect x="306.291" y="464.13" fill="none" stroke="#000000" stroke-miterlimit="10" width="77.491" height="33.078"/>
</g>
<g>
	<rect x="188.145" y="641.726" opacity="0.8" fill="#C1C2C2" width="150.758" height="33.078"/>
	<g>
		<path fill="#231F20" d="M204.586,664.063c-1.04,0.928-2.313,1.393-3.816,1.393h-5.352v-17.137h4.176
			c1.328,0,2.384,0.344,3.168,1.032c0.832,0.736,1.248,1.761,1.248,3.071c0,1.505-0.616,2.609-1.848,3.313
			c1.199,0.24,2.168,0.784,2.903,1.633c0.721,0.848,1.08,1.888,1.08,3.119C206.146,661.959,205.626,663.15,204.586,664.063z
			 M202.065,650.166c-0.656-0.575-1.456-0.863-2.399-0.863h-3.288v6.24h3.432c0.928,0,1.696-0.289,2.304-0.864
			c0.608-0.576,0.912-1.328,0.912-2.257C203.025,651.463,202.705,650.711,202.065,650.166z M203.866,657.582
			c-0.816-0.703-1.841-1.056-3.072-1.056h-4.416v7.944h4.416c1.216,0,2.247-0.368,3.096-1.104c0.864-0.736,1.296-1.696,1.296-2.881
			C205.186,659.287,204.745,658.318,203.866,657.582z"/>
		<path fill="#231F20" d="M213.273,657.006c-0.256-0.191-0.527-0.344-0.815-0.455s-0.593-0.168-0.912-0.168
			c-0.272,0-0.528,0.084-0.769,0.252c-0.239,0.168-0.447,0.376-0.624,0.624c-0.176,0.248-0.315,0.524-0.42,0.827
			c-0.104,0.305-0.155,0.585-0.155,0.841v6.528h-0.984v-9.912h0.984v1.344c0.207-0.368,0.479-0.704,0.815-1.008
			c0.336-0.305,0.704-0.457,1.104-0.457c0.495,0,0.903,0.057,1.224,0.169s0.68,0.312,1.08,0.6L213.273,657.006z"/>
		<path fill="#231F20" d="M223.882,665.455v-1.705c-1.04,1.248-2.36,1.873-3.96,1.873c-1.44,0-2.648-0.488-3.624-1.465
			c-0.992-0.992-1.488-2.207-1.488-3.647s0.488-2.647,1.464-3.624c0.992-0.992,2.208-1.488,3.648-1.488
			c1.584,0,2.904,0.624,3.96,1.872v-1.728h0.984v9.912H223.882z M222.85,657.582c-0.815-0.815-1.792-1.224-2.928-1.224
			c-1.152,0-2.128,0.4-2.928,1.2c-0.816,0.816-1.225,1.8-1.225,2.952c0,1.136,0.408,2.112,1.225,2.928
			c0.815,0.815,1.791,1.224,2.928,1.224c1.151,0,2.128-0.399,2.928-1.199c0.816-0.816,1.224-1.801,1.224-2.952
			C224.073,659.375,223.666,658.398,222.85,657.582z"/>
		<path fill="#231F20" d="M234.466,665.455v-5.929c0-2.096-0.944-3.144-2.832-3.144c-0.928,0-1.632,0.271-2.112,0.816
			c-0.496,0.543-0.743,1.287-0.743,2.231v6.024h-0.984v-9.912h0.984v1.199c0.447-0.879,1.399-1.32,2.855-1.32
			c1.232,0,2.176,0.354,2.832,1.057c0.656,0.704,0.984,1.688,0.984,2.952v6.024H234.466z"/>
		<path fill="#231F20" d="M247.209,665.455v-1.776c-1.056,1.296-2.399,1.944-4.032,1.944c-1.439,0-2.647-0.488-3.624-1.465
			c-0.992-0.992-1.487-2.207-1.487-3.647s0.487-2.647,1.464-3.624c0.992-0.992,2.208-1.488,3.647-1.488
			c1.584,0,2.929,0.648,4.032,1.944v-9.647h0.984v17.76H247.209z M246.105,657.582c-0.816-0.815-1.792-1.224-2.929-1.224
			c-1.151,0-2.128,0.4-2.928,1.2c-0.815,0.816-1.224,1.8-1.224,2.952c0,1.136,0.408,2.112,1.224,2.928
			c0.816,0.815,1.792,1.224,2.928,1.224c1.152,0,2.128-0.399,2.929-1.199c0.815-0.816,1.224-1.801,1.224-2.952
			C247.329,659.375,246.921,658.398,246.105,657.582z"/>
		<path fill="#231F20" d="M255.993,664.83c-0.641,0.545-1.408,0.816-2.304,0.816c-1.536,0-2.688-0.695-3.456-2.088l0.84-0.504
			c0.271,0.496,0.6,0.88,0.983,1.152c0.4,0.304,0.944,0.455,1.633,0.455c1.503,0,2.256-0.639,2.256-1.92
			c0-0.56-0.265-1.047-0.792-1.463c-0.16-0.097-0.389-0.205-0.685-0.324c-0.296-0.121-0.659-0.26-1.092-0.42
			c-0.8-0.289-1.376-0.576-1.728-0.865c-0.513-0.415-0.769-1.016-0.769-1.799c0-0.672,0.256-1.248,0.769-1.729
			c0.495-0.496,1.144-0.744,1.943-0.744c1.104,0,2.04,0.385,2.809,1.152l-0.721,0.624c-0.544-0.544-1.239-0.816-2.088-0.816
			c-1.151,0-1.728,0.505-1.728,1.513c0,0.447,0.176,0.815,0.528,1.104c0.287,0.225,0.743,0.44,1.367,0.648
			c0.544,0.191,0.992,0.371,1.345,0.539c0.352,0.168,0.615,0.316,0.792,0.444c0.688,0.528,1.031,1.24,1.031,2.136
			C256.929,663.606,256.617,664.303,255.993,664.83z"/>
		<path fill="#231F20" d="M259.258,660.295c0,1.344,0.359,2.408,1.08,3.191c0.751,0.801,1.783,1.2,3.096,1.2
			c0.672,0,1.279-0.112,1.824-0.336c0.688-0.288,1.304-0.872,1.848-1.752l0.888,0.407c-0.624,1.186-1.584,1.984-2.88,2.4
			c-0.496,0.16-1.056,0.24-1.68,0.24c-1.488,0-2.712-0.488-3.672-1.464c-0.977-0.976-1.464-2.2-1.464-3.672
			c0-1.488,0.479-2.712,1.439-3.673c0.976-0.975,2.208-1.463,3.696-1.463c1.472,0,2.688,0.455,3.647,1.367
			c0.977,0.912,1.465,2.097,1.465,3.553H259.258z M266.025,657.15c-0.752-0.543-1.616-0.816-2.592-0.816
			c-2.049,0-3.393,1.009-4.032,3.024h8.04C267.281,658.447,266.81,657.711,266.025,657.15z"/>
		<path fill="#231F20" d="M277.569,665.455l-5.185-5.16l-0.552,0.552v4.608h-0.983v-17.76h0.983v11.735l4.296-4.272h1.393
			l-4.488,4.465l5.832,5.832H277.569z"/>
		<path fill="#231F20" d="M281.169,656.526v8.929h-0.984v-8.929h-1.344v-0.983h1.344v-4.344h0.984v4.344h2.304v0.983H281.169z"/>
		<path fill="#231F20" d="M286.353,653.767c-0.176,0-0.359-0.071-0.552-0.216c-0.145-0.145-0.225-0.336-0.24-0.576
			c0-0.432,0.264-0.695,0.792-0.792c0.399,0,0.664,0.265,0.792,0.792C287.145,653.502,286.881,653.767,286.353,653.767z
			 M285.849,665.455v-9.912h0.984v9.912H285.849z"/>
		<path fill="#231F20" d="M298.112,664.135c-0.992,0.992-2.208,1.488-3.647,1.488c-1.44,0-2.648-0.488-3.624-1.465
			c-0.992-0.992-1.488-2.207-1.488-3.647c0-1.424,0.496-2.632,1.488-3.624c0.976-1.008,2.184-1.512,3.624-1.512
			c1.424,0,2.632,0.496,3.624,1.488s1.488,2.207,1.488,3.647S299.089,663.158,298.112,664.135z M297.417,657.559
			c-0.801-0.816-1.784-1.225-2.952-1.225c-1.12,0-2.088,0.417-2.904,1.248c-0.832,0.832-1.248,1.809-1.248,2.929
			c0,1.136,0.408,2.112,1.225,2.928c0.815,0.815,1.791,1.224,2.928,1.224c1.151,0,2.128-0.399,2.928-1.199
			c0.816-0.816,1.224-1.801,1.224-2.952C298.616,659.343,298.217,658.359,297.417,657.559z"/>
		<path fill="#231F20" d="M308.72,665.455v-5.929c0-2.096-0.944-3.144-2.832-3.144c-0.928,0-1.632,0.271-2.112,0.816
			c-0.496,0.543-0.743,1.287-0.743,2.231v6.024h-0.984v-9.912h0.984v1.199c0.447-0.879,1.399-1.32,2.855-1.32
			c1.232,0,2.176,0.354,2.832,1.057c0.656,0.704,0.984,1.688,0.984,2.952v6.024H308.72z"/>
		<path fill="#231F20" d="M330.872,665.455l-1.968-5.137h-7.8l-1.992,5.137h-0.96l6.84-17.688l6.864,17.688H330.872z
			 M324.992,650.263l-3.504,9.071h7.008L324.992,650.263z"/>
	</g>
	<rect x="188.145" y="641.726" fill="none" stroke="#000000" stroke-miterlimit="10" width="150.758" height="33.078"/>
</g>
<g>
	<rect x="314.573" y="695.335" opacity="0.8" fill="#C1C2C2" width="150.758" height="33.078"/>
	<g>
		<path fill="#231F20" d="M331.015,717.672c-1.04,0.928-2.313,1.393-3.816,1.393h-5.352v-17.137h4.176
			c1.328,0,2.384,0.344,3.168,1.032c0.832,0.736,1.248,1.761,1.248,3.071c0,1.505-0.616,2.609-1.848,3.313
			c1.199,0.24,2.168,0.784,2.903,1.633c0.721,0.848,1.08,1.888,1.08,3.119C332.574,715.568,332.055,716.76,331.015,717.672z
			 M328.494,703.775c-0.656-0.575-1.456-0.863-2.399-0.863h-3.288v6.24h3.432c0.928,0,1.696-0.289,2.304-0.864
			c0.608-0.576,0.912-1.328,0.912-2.257C329.454,705.072,329.134,704.32,328.494,703.775z M330.295,711.191
			c-0.816-0.703-1.841-1.056-3.072-1.056h-4.416v7.944h4.416c1.216,0,2.247-0.368,3.096-1.104c0.864-0.736,1.296-1.696,1.296-2.881
			C331.614,712.896,331.174,711.928,330.295,711.191z"/>
		<path fill="#231F20" d="M339.702,710.615c-0.256-0.191-0.527-0.344-0.815-0.455s-0.593-0.168-0.912-0.168
			c-0.272,0-0.528,0.084-0.769,0.252c-0.239,0.168-0.447,0.376-0.624,0.624c-0.176,0.248-0.315,0.524-0.42,0.827
			c-0.104,0.305-0.155,0.585-0.155,0.841v6.528h-0.984v-9.912h0.984v1.344c0.207-0.368,0.479-0.704,0.815-1.008
			c0.336-0.305,0.704-0.457,1.104-0.457c0.495,0,0.903,0.057,1.224,0.169s0.68,0.312,1.08,0.6L339.702,710.615z"/>
		<path fill="#231F20" d="M350.311,719.064v-1.705c-1.04,1.248-2.36,1.873-3.96,1.873c-1.44,0-2.648-0.488-3.624-1.465
			c-0.992-0.992-1.488-2.207-1.488-3.647s0.488-2.647,1.464-3.624c0.992-0.992,2.208-1.488,3.648-1.488
			c1.584,0,2.904,0.624,3.96,1.872v-1.728h0.984v9.912H350.311z M349.278,711.191c-0.815-0.815-1.792-1.224-2.928-1.224
			c-1.152,0-2.128,0.4-2.928,1.2c-0.816,0.816-1.225,1.8-1.225,2.952c0,1.136,0.408,2.112,1.225,2.928
			c0.815,0.815,1.791,1.224,2.928,1.224c1.151,0,2.128-0.399,2.928-1.199c0.816-0.816,1.224-1.801,1.224-2.952
			C350.502,712.984,350.095,712.008,349.278,711.191z"/>
		<path fill="#231F20" d="M360.895,719.064v-5.929c0-2.096-0.944-3.144-2.832-3.144c-0.928,0-1.632,0.271-2.112,0.816
			c-0.496,0.543-0.743,1.287-0.743,2.231v6.024h-0.984v-9.912h0.984v1.199c0.447-0.879,1.399-1.32,2.855-1.32
			c1.232,0,2.176,0.354,2.832,1.057c0.656,0.704,0.984,1.688,0.984,2.952v6.024H360.895z"/>
		<path fill="#231F20" d="M373.638,719.064v-1.776c-1.056,1.296-2.399,1.944-4.032,1.944c-1.439,0-2.647-0.488-3.624-1.465
			c-0.992-0.992-1.487-2.207-1.487-3.647s0.487-2.647,1.464-3.624c0.992-0.992,2.208-1.488,3.647-1.488
			c1.584,0,2.929,0.648,4.032,1.944v-9.647h0.984v17.76H373.638z M372.534,711.191c-0.816-0.815-1.792-1.224-2.929-1.224
			c-1.151,0-2.128,0.4-2.928,1.2c-0.815,0.816-1.224,1.8-1.224,2.952c0,1.136,0.408,2.112,1.224,2.928
			c0.816,0.815,1.792,1.224,2.928,1.224c1.152,0,2.128-0.399,2.929-1.199c0.815-0.816,1.224-1.801,1.224-2.952
			C373.758,712.984,373.35,712.008,372.534,711.191z"/>
		<path fill="#231F20" d="M382.422,718.439c-0.641,0.545-1.408,0.816-2.304,0.816c-1.536,0-2.688-0.695-3.456-2.088l0.84-0.504
			c0.271,0.496,0.6,0.88,0.983,1.152c0.4,0.304,0.944,0.455,1.633,0.455c1.503,0,2.256-0.639,2.256-1.92
			c0-0.56-0.265-1.047-0.792-1.463c-0.16-0.097-0.389-0.205-0.685-0.324c-0.296-0.121-0.659-0.26-1.092-0.42
			c-0.8-0.289-1.376-0.576-1.728-0.865c-0.513-0.415-0.769-1.016-0.769-1.799c0-0.672,0.256-1.248,0.769-1.729
			c0.495-0.496,1.144-0.744,1.943-0.744c1.104,0,2.04,0.385,2.809,1.152l-0.721,0.624c-0.544-0.544-1.239-0.816-2.088-0.816
			c-1.151,0-1.728,0.505-1.728,1.513c0,0.447,0.176,0.815,0.528,1.104c0.287,0.225,0.743,0.44,1.367,0.648
			c0.544,0.191,0.992,0.371,1.345,0.539c0.352,0.168,0.615,0.316,0.792,0.444c0.688,0.528,1.031,1.24,1.031,2.136
			C383.357,717.216,383.046,717.912,382.422,718.439z"/>
		<path fill="#231F20" d="M385.687,713.904c0,1.344,0.359,2.408,1.08,3.191c0.751,0.801,1.783,1.2,3.096,1.2
			c0.672,0,1.279-0.112,1.824-0.336c0.688-0.288,1.304-0.872,1.848-1.752l0.888,0.407c-0.624,1.186-1.584,1.984-2.88,2.4
			c-0.496,0.16-1.056,0.24-1.68,0.24c-1.488,0-2.712-0.488-3.672-1.464c-0.977-0.976-1.464-2.2-1.464-3.672
			c0-1.488,0.479-2.712,1.439-3.673c0.976-0.975,2.208-1.463,3.696-1.463c1.472,0,2.688,0.455,3.647,1.367
			c0.977,0.912,1.465,2.097,1.465,3.553H385.687z M392.454,710.76c-0.752-0.543-1.616-0.816-2.592-0.816
			c-2.049,0-3.393,1.009-4.032,3.024h8.04C393.71,712.057,393.238,711.32,392.454,710.76z"/>
		<path fill="#231F20" d="M403.998,719.064l-5.185-5.16l-0.552,0.552v4.608h-0.983v-17.76h0.983v11.735l4.296-4.272h1.393
			l-4.488,4.465l5.832,5.832H403.998z"/>
		<path fill="#231F20" d="M407.598,710.136v8.929h-0.984v-8.929h-1.344v-0.983h1.344v-4.344h0.984v4.344h2.304v0.983H407.598z"/>
		<path fill="#231F20" d="M412.781,707.376c-0.176,0-0.359-0.071-0.552-0.216c-0.145-0.145-0.225-0.336-0.24-0.576
			c0-0.432,0.264-0.695,0.792-0.792c0.399,0,0.664,0.265,0.792,0.792C413.573,707.111,413.31,707.376,412.781,707.376z
			 M412.277,719.064v-9.912h0.984v9.912H412.277z"/>
		<path fill="#231F20" d="M424.541,717.744c-0.992,0.992-2.208,1.488-3.647,1.488c-1.44,0-2.648-0.488-3.624-1.465
			c-0.992-0.992-1.488-2.207-1.488-3.647c0-1.424,0.496-2.632,1.488-3.624c0.976-1.008,2.184-1.512,3.624-1.512
			c1.424,0,2.632,0.496,3.624,1.488s1.488,2.207,1.488,3.647S425.518,716.768,424.541,717.744z M423.846,711.168
			c-0.801-0.816-1.784-1.225-2.952-1.225c-1.12,0-2.088,0.417-2.904,1.248c-0.832,0.832-1.248,1.809-1.248,2.929
			c0,1.136,0.408,2.112,1.225,2.928c0.815,0.815,1.791,1.224,2.928,1.224c1.151,0,2.128-0.399,2.928-1.199
			c0.816-0.816,1.224-1.801,1.224-2.952C425.045,712.952,424.646,711.969,423.846,711.168z"/>
		<path fill="#231F20" d="M435.148,719.064v-5.929c0-2.096-0.944-3.144-2.832-3.144c-0.928,0-1.632,0.271-2.112,0.816
			c-0.496,0.543-0.743,1.287-0.743,2.231v6.024h-0.984v-9.912h0.984v1.199c0.447-0.879,1.399-1.32,2.855-1.32
			c1.232,0,2.176,0.354,2.832,1.057c0.656,0.704,0.984,1.688,0.984,2.952v6.024H435.148z"/>
		<path fill="#231F20" d="M454.829,717.672c-1.04,0.928-2.313,1.393-3.816,1.393h-5.352v-17.137h4.176
			c1.328,0,2.384,0.344,3.168,1.032c0.832,0.736,1.248,1.761,1.248,3.071c0,1.505-0.616,2.609-1.848,3.313
			c1.199,0.24,2.168,0.784,2.903,1.633c0.721,0.848,1.08,1.888,1.08,3.119C456.389,715.568,455.869,716.76,454.829,717.672z
			 M452.309,703.775c-0.656-0.575-1.456-0.863-2.399-0.863h-3.288v6.24h3.432c0.928,0,1.696-0.289,2.304-0.864
			c0.608-0.576,0.912-1.328,0.912-2.257C453.269,705.072,452.948,704.32,452.309,703.775z M454.109,711.191
			c-0.816-0.703-1.841-1.056-3.072-1.056h-4.416v7.944h4.416c1.216,0,2.247-0.368,3.096-1.104c0.864-0.736,1.296-1.696,1.296-2.881
			C455.429,712.896,454.988,711.928,454.109,711.191z"/>
	</g>
	<rect x="314.573" y="695.335" fill="none" stroke="#000000" stroke-miterlimit="10" width="150.758" height="33.078"/>
</g>
<g>
	<rect x="648.98" y="92.576" opacity="0.8" fill="#C1C2C2" width="98.342" height="33.078"/>
	<g>
		<path fill="#231F20" d="M662.662,116.161c-0.624,0.224-1.36,0.336-2.208,0.336c-2.625,0-4.313-1.24-5.064-3.72l0.984-0.336
			c0.56,2.048,1.92,3.072,4.08,3.072c1.231,0,2.199-0.304,2.903-0.912c0.721-0.624,1.08-1.536,1.08-2.736
			c0-1.136-0.424-2.08-1.271-2.832c-0.225-0.208-0.568-0.44-1.032-0.696s-1.056-0.544-1.776-0.864
			c-1.359-0.608-2.288-1.136-2.784-1.584c-0.832-0.72-1.247-1.672-1.247-2.856s0.423-2.136,1.271-2.856
			c0.832-0.736,1.855-1.104,3.072-1.104c2.016,0,3.439,0.752,4.271,2.256l-0.936,0.408c-0.32-0.528-0.704-0.92-1.152-1.176
			c-0.561-0.352-1.288-0.528-2.184-0.528c-0.944,0-1.729,0.264-2.353,0.792c-0.672,0.56-1.008,1.296-1.008,2.208
			c0,0.816,0.352,1.528,1.056,2.136c0.4,0.32,1.2,0.752,2.4,1.296c0.752,0.336,1.4,0.668,1.944,0.996
			c0.544,0.328,0.983,0.66,1.319,0.996c0.928,0.912,1.393,2.048,1.393,3.408C665.422,114.041,664.501,115.473,662.662,116.161z"/>
		<path fill="#231F20" d="M676.63,114.985c-0.992,0.992-2.208,1.488-3.648,1.488c-1.647,0-3.008-0.672-4.08-2.016v6.504h-0.983
			v-14.568h0.983v1.872c1.024-1.344,2.385-2.016,4.08-2.016c1.44,0,2.648,0.488,3.624,1.464c0.992,0.992,1.488,2.208,1.488,3.648
			S677.605,114.009,676.63,114.985z M675.91,108.433c-0.816-0.816-1.792-1.224-2.929-1.224c-1.151,0-2.128,0.4-2.928,1.2
			c-0.815,0.816-1.224,1.8-1.224,2.952c0,1.136,0.408,2.112,1.224,2.928c0.816,0.816,1.792,1.224,2.928,1.224
			c1.152,0,2.128-0.4,2.929-1.2c0.815-0.816,1.224-1.8,1.224-2.952C677.134,110.225,676.726,109.249,675.91,108.433z"/>
		<path fill="#231F20" d="M688.293,114.985c-0.992,0.992-2.208,1.488-3.647,1.488c-1.44,0-2.648-0.488-3.624-1.464
			c-0.992-0.992-1.488-2.208-1.488-3.648c0-1.424,0.496-2.632,1.488-3.624c0.976-1.008,2.184-1.512,3.624-1.512
			c1.424,0,2.632,0.496,3.624,1.488s1.488,2.208,1.488,3.648S689.27,114.009,688.293,114.985z M687.598,108.409
			c-0.801-0.816-1.784-1.224-2.952-1.224c-1.12,0-2.088,0.417-2.904,1.248c-0.832,0.832-1.248,1.808-1.248,2.928
			c0,1.136,0.408,2.112,1.225,2.928c0.815,0.816,1.791,1.224,2.928,1.224c1.151,0,2.128-0.4,2.928-1.2
			c0.816-0.816,1.224-1.8,1.224-2.952C688.797,110.193,688.397,109.209,687.598,108.409z"/>
		<path fill="#231F20" d="M696.908,107.856c-0.256-0.192-0.527-0.344-0.815-0.456s-0.593-0.168-0.912-0.168
			c-0.272,0-0.528,0.084-0.769,0.252c-0.239,0.168-0.447,0.376-0.624,0.624c-0.176,0.248-0.315,0.524-0.42,0.828
			c-0.104,0.304-0.155,0.584-0.155,0.84v6.528h-0.984v-9.912h0.984v1.344c0.207-0.368,0.479-0.704,0.815-1.008
			c0.336-0.304,0.704-0.456,1.104-0.456c0.495,0,0.903,0.057,1.224,0.168s0.68,0.312,1.08,0.6L696.908,107.856z"/>
		<path fill="#231F20" d="M701.157,107.376v8.928h-0.984v-8.928h-1.344v-0.984h1.344v-4.344h0.984v4.344h2.304v0.984H701.157z"/>
		<path fill="#231F20" d="M710.541,115.681c-0.641,0.544-1.408,0.816-2.304,0.816c-1.536,0-2.688-0.696-3.456-2.088l0.84-0.504
			c0.271,0.496,0.6,0.88,0.983,1.152c0.4,0.304,0.944,0.456,1.633,0.456c1.503,0,2.256-0.64,2.256-1.92
			c0-0.56-0.265-1.048-0.792-1.464c-0.16-0.096-0.389-0.204-0.685-0.324s-0.659-0.26-1.092-0.42c-0.8-0.288-1.376-0.576-1.728-0.864
			c-0.513-0.416-0.769-1.016-0.769-1.8c0-0.672,0.256-1.248,0.769-1.728c0.495-0.496,1.144-0.744,1.943-0.744
			c1.104,0,2.04,0.384,2.809,1.152l-0.721,0.624c-0.544-0.544-1.239-0.816-2.088-0.816c-1.151,0-1.728,0.504-1.728,1.512
			c0,0.448,0.176,0.816,0.528,1.104c0.287,0.224,0.743,0.44,1.367,0.648c0.544,0.192,0.992,0.372,1.345,0.54
			c0.352,0.168,0.615,0.316,0.792,0.444c0.688,0.528,1.031,1.24,1.031,2.136C711.477,114.457,711.165,115.153,710.541,115.681z"/>
		<path fill="#231F20" d="M720.668,116.329v-5.976c0-2.096-0.976-3.144-2.928-3.144c-0.8,0-1.488,0.24-2.063,0.72
			c-0.593,0.48-0.889,1.12-0.889,1.92v6.456h-0.983v-17.76h0.983v9.168c0.592-0.976,1.576-1.464,2.952-1.464
			c2.607,0,3.912,1.336,3.912,4.008v6.072H720.668z"/>
		<path fill="#231F20" d="M732.885,116.305v-1.704c-1.04,1.248-2.36,1.872-3.96,1.872c-1.44,0-2.648-0.488-3.624-1.464
			c-0.992-0.992-1.488-2.208-1.488-3.648s0.488-2.648,1.464-3.624c0.992-0.992,2.208-1.488,3.648-1.488
			c1.584,0,2.904,0.624,3.96,1.872v-1.728h0.984v9.912H732.885z M731.853,108.433c-0.815-0.816-1.792-1.224-2.928-1.224
			c-1.152,0-2.128,0.4-2.928,1.2c-0.816,0.816-1.225,1.8-1.225,2.952c0,1.136,0.408,2.112,1.225,2.928
			c0.815,0.816,1.791,1.224,2.928,1.224c1.151,0,2.128-0.4,2.928-1.2c0.816-0.816,1.224-1.8,1.224-2.952
			C733.076,110.225,732.669,109.249,731.853,108.433z"/>
		<path fill="#231F20" d="M737.06,116.305v-17.76h0.96v17.76H737.06z"/>
	</g>
	<rect x="648.98" y="92.576" fill="none" stroke="#000000" stroke-miterlimit="10" width="98.342" height="33.078"/>
</g>
<g>
	<rect x="681.838" y="413.463" opacity="0.8" fill="#C1C2C2" width="77.873" height="26.463"/>
	<g>
		<path fill="#231F20" d="M694.99,431.332c-0.833,0.742-1.851,1.113-3.053,1.113h-4.282v-13.709h3.341
			c1.063,0,1.907,0.275,2.534,0.826c0.666,0.589,0.999,1.408,0.999,2.457c0,1.204-0.493,2.088-1.479,2.65
			c0.96,0.191,1.734,0.627,2.323,1.306c0.576,0.679,0.864,1.511,0.864,2.495C696.238,429.649,695.822,430.603,694.99,431.332z
			 M692.974,420.215c-0.524-0.461-1.165-0.69-1.92-0.69h-2.63v4.991h2.745c0.742,0,1.356-0.23,1.844-0.69
			c0.486-0.461,0.729-1.063,0.729-1.806C693.742,421.252,693.485,420.65,692.974,420.215z M694.414,426.148
			c-0.653-0.563-1.473-0.846-2.458-0.846h-3.532v6.355h3.532c0.973,0,1.799-0.294,2.477-0.883c0.691-0.588,1.037-1.356,1.037-2.305
			C695.47,427.512,695.118,426.737,694.414,426.148z"/>
		<path fill="#231F20" d="M701.939,425.688c-0.204-0.154-0.422-0.275-0.652-0.365c-0.23-0.089-0.474-0.135-0.729-0.135
			c-0.218,0-0.423,0.068-0.614,0.202c-0.192,0.135-0.358,0.302-0.499,0.499c-0.142,0.199-0.253,0.42-0.336,0.662
			c-0.084,0.244-0.125,0.469-0.125,0.673v5.222h-0.787v-7.93h0.787v1.076c0.166-0.295,0.384-0.563,0.652-0.807
			s0.563-0.365,0.884-0.365c0.396,0,0.723,0.045,0.979,0.135s0.544,0.25,0.864,0.48L701.939,425.688z"/>
		<path fill="#231F20" d="M710.427,432.445v-1.363c-0.832,0.999-1.889,1.498-3.168,1.498c-1.152,0-2.119-0.391-2.899-1.171
			c-0.794-0.794-1.19-1.767-1.19-2.919s0.391-2.118,1.171-2.898c0.794-0.794,1.767-1.191,2.919-1.191c1.267,0,2.323,0.5,3.168,1.498
			v-1.383h0.787v7.93H710.427z M709.601,426.148c-0.652-0.652-1.434-0.979-2.342-0.979c-0.922,0-1.702,0.32-2.343,0.96
			c-0.652,0.652-0.979,1.439-0.979,2.361c0,0.909,0.326,1.689,0.979,2.343c0.653,0.653,1.434,0.979,2.343,0.979
			c0.922,0,1.702-0.32,2.342-0.961c0.653-0.652,0.979-1.439,0.979-2.361C710.58,427.582,710.254,426.801,709.601,426.148z"/>
		<path fill="#231F20" d="M718.894,432.445v-4.742c0-1.676-0.755-2.516-2.266-2.516c-0.742,0-1.306,0.219-1.689,0.653
			c-0.396,0.436-0.595,1.03-0.595,1.786v4.818h-0.787v-7.93h0.787v0.961c0.358-0.704,1.119-1.057,2.284-1.057
			c0.985,0,1.741,0.281,2.266,0.846c0.525,0.563,0.787,1.35,0.787,2.361v4.818H718.894z"/>
		<path fill="#231F20" d="M729.089,432.445v-1.42c-0.845,1.037-1.92,1.555-3.226,1.555c-1.151,0-2.118-0.391-2.899-1.171
			c-0.793-0.794-1.19-1.767-1.19-2.919s0.391-2.118,1.172-2.898c0.793-0.794,1.767-1.191,2.918-1.191
			c1.268,0,2.343,0.52,3.226,1.556v-7.718h0.787v14.207H729.089z M728.206,426.148c-0.653-0.652-1.434-0.979-2.343-0.979
			c-0.922,0-1.702,0.32-2.342,0.96c-0.653,0.652-0.979,1.439-0.979,2.361c0,0.909,0.326,1.689,0.979,2.343
			c0.652,0.653,1.433,0.979,2.342,0.979c0.922,0,1.702-0.32,2.343-0.961c0.652-0.652,0.979-1.439,0.979-2.361
			C729.185,427.582,728.858,426.801,728.206,426.148z"/>
		<path fill="#231F20" d="M738.151,432.445v-1.42c-0.845,1.037-1.92,1.555-3.226,1.555c-1.151,0-2.118-0.391-2.899-1.171
			c-0.793-0.794-1.19-1.767-1.19-2.919s0.391-2.118,1.172-2.898c0.793-0.794,1.767-1.191,2.918-1.191
			c1.268,0,2.343,0.52,3.226,1.556v-7.718h0.787v14.207H738.151z M737.269,426.148c-0.653-0.652-1.434-0.979-2.343-0.979
			c-0.922,0-1.702,0.32-2.342,0.96c-0.653,0.652-0.979,1.439-0.979,2.361c0,0.909,0.326,1.689,0.979,2.343
			c0.652,0.653,1.433,0.979,2.342,0.979c0.922,0,1.702-0.32,2.343-0.961c0.652-0.652,0.979-1.439,0.979-2.361
			C738.247,427.582,737.921,426.801,737.269,426.148z"/>
		<path fill="#231F20" d="M747.693,431.39c-0.794,0.794-1.766,1.19-2.918,1.19c-0.704,0-1.351-0.16-1.939-0.48l-0.71,1.018
			l-0.653-0.479l0.691-0.999c-0.985-0.806-1.479-1.855-1.479-3.148c0-1.152,0.391-2.118,1.171-2.898
			c0.794-0.794,1.767-1.191,2.919-1.191c0.742,0,1.434,0.187,2.073,0.558l0.769-1.095l0.69,0.461l-0.787,1.133
			c0.896,0.819,1.345,1.83,1.345,3.033C748.865,429.643,748.475,430.609,747.693,431.39z M744.775,425.169
			c-0.922,0-1.702,0.32-2.343,0.96c-0.652,0.652-0.979,1.439-0.979,2.361c0,1.012,0.384,1.85,1.151,2.516l3.802-5.414
			C745.882,425.311,745.338,425.169,744.775,425.169z M747.079,426.091l-3.782,5.376l0.346,0.153l0.364,0.115l0.769,0.077
			c0.922,0,1.702-0.32,2.342-0.961c0.653-0.652,0.979-1.439,0.979-2.361C748.097,427.531,747.758,426.73,747.079,426.091z"/>
		<path fill="#231F20" d="M754.586,425.688c-0.204-0.154-0.422-0.275-0.652-0.365c-0.23-0.089-0.474-0.135-0.729-0.135
			c-0.218,0-0.423,0.068-0.614,0.202c-0.192,0.135-0.358,0.302-0.499,0.499c-0.142,0.199-0.253,0.42-0.336,0.662
			c-0.084,0.244-0.125,0.469-0.125,0.673v5.222h-0.787v-7.93h0.787v1.076c0.166-0.295,0.384-0.563,0.652-0.807
			s0.563-0.365,0.884-0.365c0.396,0,0.723,0.045,0.979,0.135s0.544,0.25,0.864,0.48L754.586,425.688z"/>
	</g>
	
		<rect x="681.838" y="413.463" fill="none" stroke="#000000" stroke-width="0.8" stroke-miterlimit="10" width="77.873" height="26.463"/>
</g>
<g>
	<rect x="320.697" y="383.639" opacity="0.8" fill="#C1C2C2" width="103.335" height="26.463"/>
	<g>
		<path fill="#231F20" d="M333.83,402.621l-6.604-6.624l-0.115,0.115v6.508h-0.787v-13.708h0.787v6.086l6.125-6.086h1.113
			l-6.566,6.547l7.143,7.161H333.83z"/>
		<path fill="#231F20" d="M342.796,401.565c-0.794,0.794-1.766,1.19-2.918,1.19c-0.704,0-1.351-0.16-1.939-0.48l-0.71,1.018
			l-0.653-0.479l0.691-0.999c-0.985-0.806-1.479-1.855-1.479-3.148c0-1.152,0.391-2.119,1.171-2.899
			c0.794-0.793,1.767-1.19,2.919-1.19c0.742,0,1.434,0.186,2.073,0.557l0.769-1.095l0.69,0.461l-0.787,1.133
			c0.896,0.819,1.345,1.831,1.345,3.034C343.968,399.818,343.577,400.785,342.796,401.565z M339.878,395.345
			c-0.922,0-1.702,0.32-2.343,0.96c-0.652,0.653-0.979,1.44-0.979,2.362c0,1.011,0.384,1.85,1.151,2.515l3.802-5.415
			C340.984,395.486,340.44,395.345,339.878,395.345z M342.182,396.267l-3.782,5.376l0.346,0.153l0.364,0.115l0.769,0.077
			c0.922,0,1.702-0.32,2.342-0.961c0.653-0.652,0.979-1.439,0.979-2.361C343.199,397.707,342.86,396.907,342.182,396.267z"/>
		<path fill="#231F20" d="M351.34,402.621l-4.146-4.127l-0.442,0.441v3.686h-0.787v-14.208h0.787v9.389l3.438-3.417h1.113
			l-3.591,3.571l4.666,4.665H351.34z"/>
		<path fill="#231F20" d="M359.346,402.621l-4.146-4.127l-0.442,0.441v3.686h-0.787v-14.208h0.787v9.389l3.438-3.417h1.113
			l-3.591,3.571l4.666,4.665H359.346z"/>
		<path fill="#231F20" d="M361.555,398.494c0,1.075,0.288,1.927,0.864,2.553c0.602,0.641,1.427,0.961,2.477,0.961
			c0.537,0,1.023-0.09,1.459-0.27c0.551-0.23,1.043-0.697,1.479-1.401l0.71,0.326c-0.499,0.947-1.267,1.587-2.304,1.92
			c-0.396,0.128-0.845,0.192-1.344,0.192c-1.19,0-2.17-0.391-2.938-1.172c-0.781-0.78-1.172-1.759-1.172-2.937
			c0-1.19,0.385-2.17,1.152-2.938c0.78-0.781,1.767-1.171,2.957-1.171c1.178,0,2.15,0.365,2.918,1.094
			c0.781,0.729,1.172,1.677,1.172,2.842H361.555z M366.969,395.979c-0.602-0.435-1.293-0.653-2.073-0.653
			c-1.639,0-2.714,0.806-3.226,2.419h6.432C367.974,397.015,367.596,396.427,366.969,395.979z"/>
		<path fill="#231F20" d="M376.146,402.621v-4.742c0-1.677-0.755-2.516-2.266-2.516c-0.742,0-1.306,0.218-1.689,0.653
			c-0.396,0.436-0.595,1.031-0.595,1.786v4.819h-0.787v-7.929h0.787v0.96c0.358-0.704,1.119-1.056,2.284-1.056
			c0.985,0,1.741,0.281,2.266,0.845c0.525,0.563,0.787,1.351,0.787,2.361v4.819H376.146z"/>
		<path fill="#231F20" d="M383.365,402.123c-0.513,0.435-1.127,0.652-1.844,0.652c-1.229,0-2.15-0.557-2.765-1.67l0.672-0.404
			c0.218,0.397,0.48,0.705,0.787,0.921c0.32,0.244,0.756,0.365,1.306,0.365c1.203,0,1.805-0.512,1.805-1.536
			c0-0.448-0.211-0.838-0.633-1.171c-0.129-0.077-0.311-0.163-0.548-0.259c-0.236-0.096-0.527-0.208-0.873-0.336
			c-0.641-0.23-1.102-0.461-1.383-0.691c-0.409-0.333-0.614-0.813-0.614-1.44c0-0.538,0.205-0.998,0.614-1.382
			c0.396-0.396,0.915-0.595,1.556-0.595c0.883,0,1.632,0.307,2.246,0.922l-0.576,0.499c-0.436-0.435-0.992-0.653-1.67-0.653
			c-0.922,0-1.383,0.403-1.383,1.209c0,0.359,0.141,0.653,0.423,0.883c0.23,0.18,0.595,0.352,1.094,0.519
			c0.436,0.153,0.794,0.297,1.075,0.432c0.281,0.134,0.493,0.253,0.634,0.355c0.551,0.422,0.826,0.992,0.826,1.709
			C384.114,401.143,383.864,401.7,383.365,402.123z"/>
		<path fill="#231F20" d="M391.218,402.621l-4.146-4.127l-0.442,0.441v3.686h-0.787v-14.208h0.787v9.389l3.438-3.417h1.113
			l-3.591,3.571l4.666,4.665H391.218z"/>
		<path fill="#231F20" d="M399.877,402.621v-1.363c-0.832,0.999-1.889,1.498-3.168,1.498c-1.152,0-2.119-0.391-2.899-1.171
			c-0.794-0.793-1.19-1.767-1.19-2.918c0-1.152,0.391-2.119,1.171-2.899c0.794-0.793,1.767-1.19,2.919-1.19
			c1.267,0,2.323,0.5,3.168,1.498v-1.382h0.787v7.929H399.877z M399.051,396.324c-0.652-0.653-1.434-0.979-2.342-0.979
			c-0.922,0-1.702,0.32-2.343,0.96c-0.652,0.653-0.979,1.44-0.979,2.362c0,0.909,0.326,1.689,0.979,2.342
			c0.653,0.653,1.434,0.979,2.343,0.979c0.922,0,1.702-0.32,2.342-0.961c0.653-0.652,0.979-1.439,0.979-2.361
			C400.03,397.758,399.704,396.977,399.051,396.324z"/>
		<path fill="#231F20" d="M409.746,401.565c-0.794,0.794-1.767,1.19-2.919,1.19c-1.318,0-2.399-0.531-3.245-1.594v1.459h-0.787
			v-14.208h0.787v7.757c0.832-1.063,1.914-1.594,3.245-1.594c1.152,0,2.118,0.391,2.899,1.171c0.793,0.794,1.19,1.766,1.19,2.918
			C410.917,399.818,410.526,400.785,409.746,401.565z M409.17,396.324c-0.653-0.653-1.434-0.979-2.343-0.979
			c-0.922,0-1.702,0.32-2.343,0.96c-0.652,0.653-0.979,1.44-0.979,2.362c0,0.909,0.326,1.689,0.979,2.342
			c0.653,0.653,1.434,0.979,2.343,0.979c0.922,0,1.702-0.32,2.343-0.961c0.652-0.652,0.979-1.439,0.979-2.361
			C410.148,397.758,409.822,396.977,409.17,396.324z"/>
		<path fill="#231F20" d="M413.086,398.494c0,1.075,0.288,1.927,0.864,2.553c0.602,0.641,1.427,0.961,2.477,0.961
			c0.537,0,1.023-0.09,1.459-0.27c0.551-0.23,1.043-0.697,1.479-1.401l0.71,0.326c-0.499,0.947-1.267,1.587-2.304,1.92
			c-0.396,0.128-0.845,0.192-1.344,0.192c-1.19,0-2.17-0.391-2.938-1.172c-0.781-0.78-1.172-1.759-1.172-2.937
			c0-1.19,0.385-2.17,1.152-2.938c0.78-0.781,1.767-1.171,2.957-1.171c1.178,0,2.15,0.365,2.918,1.094
			c0.781,0.729,1.172,1.677,1.172,2.842H413.086z M418.5,395.979c-0.602-0.435-1.293-0.653-2.073-0.653
			c-1.639,0-2.714,0.806-3.226,2.419h6.432C419.505,397.015,419.127,396.427,418.5,395.979z"/>
	</g>
	
		<rect x="320.697" y="383.639" fill="none" stroke="#000000" stroke-width="0.8" stroke-miterlimit="10" width="103.335" height="26.463"/>
</g>
</svg>
