<?xml version="1.0" encoding="utf-8"?>
<!-- Generator: Adobe Illustrator 16.0.0, SVG Export Plug-In . SVG Version: 6.00 Build 0)  -->
<!DOCTYPE svg PUBLIC "-//W3C//DTD SVG 1.1//EN" "http://www.w3.org/Graphics/SVG/1.1/DTD/svg11.dtd">
<svg version="1.1" id="Layer_1" xmlns="http://www.w3.org/2000/svg" xmlns:xlink="http://www.w3.org/1999/xlink" x="0px" y="0px"
	 width="1280px" height="800px" viewBox="0 0 1280 800" enable-background="new 0 0 1280 800" xml:space="preserve">
<line fill="none" stroke="#ED2F47" stroke-width="5" stroke-miterlimit="10" stroke-dasharray="12" x1="543.846" y1="624.232" x2="147.29" y2="358.005"/>
<g>
	<g>
		
			<line fill="none" stroke="#ED2F47" stroke-width="5" stroke-miterlimit="10" x1="543.846" y1="624.232" x2="549.554" y2="622.383"/>
		
			<line fill="none" stroke="#ED2F47" stroke-width="5" stroke-miterlimit="10" stroke-dasharray="11.9333,11.9333" x1="560.905" y1="618.703" x2="1077.414" y2="451.281"/>
		
			<line fill="none" stroke="#ED2F47" stroke-width="5" stroke-miterlimit="10" x1="1083.09" y1="449.441" x2="1088.798" y2="447.591"/>
	</g>
</g>
<g>
	<g>
		<line fill="none" stroke="#000000" stroke-miterlimit="10" x1="813.44" y1="144.197" x2="813.44" y2="534.826"/>
		<g>
			<path d="M813.44,138.162c-1.054,2.84-2.852,6.363-4.756,8.547l4.756-1.72l4.755,1.72
				C816.291,144.525,814.493,141.002,813.44,138.162z"/>
		</g>
		<g>
			<path d="M813.44,540.861c-1.054-2.84-2.852-6.363-4.756-8.548l4.756,1.721l4.755-1.721
				C816.291,534.498,814.493,538.021,813.44,540.861z"/>
		</g>
	</g>
</g>
<g>
	<rect x="202.604" y="341.466" opacity="0.8" fill="#C1C2C2" width="150.758" height="33.078"/>
	<g>
		<path fill="#231F20" d="M219.045,363.803c-1.04,0.928-2.313,1.392-3.816,1.392h-5.352v-17.136h4.176
			c1.328,0,2.384,0.344,3.168,1.032c0.832,0.736,1.248,1.76,1.248,3.072c0,1.504-0.616,2.608-1.848,3.312
			c1.199,0.24,2.168,0.784,2.903,1.632c0.721,0.848,1.08,1.888,1.08,3.12C220.604,361.699,220.085,362.891,219.045,363.803z
			 M216.524,349.907c-0.656-0.576-1.456-0.864-2.399-0.864h-3.288v6.24h3.432c0.928,0,1.696-0.288,2.304-0.864
			c0.608-0.576,0.912-1.328,0.912-2.256C217.484,351.203,217.164,350.451,216.524,349.907z M218.325,357.323
			c-0.816-0.704-1.841-1.056-3.072-1.056h-4.416v7.944h4.416c1.216,0,2.247-0.368,3.096-1.104c0.864-0.736,1.296-1.696,1.296-2.88
			C219.645,359.027,219.204,358.059,218.325,357.323z"/>
		<path fill="#231F20" d="M227.732,356.747c-0.256-0.192-0.527-0.344-0.815-0.456s-0.593-0.168-0.912-0.168
			c-0.272,0-0.528,0.084-0.769,0.252c-0.239,0.168-0.447,0.376-0.624,0.624c-0.176,0.248-0.315,0.524-0.42,0.828
			c-0.104,0.304-0.155,0.584-0.155,0.84v6.528h-0.984v-9.912h0.984v1.344c0.207-0.368,0.479-0.704,0.815-1.008
			c0.336-0.304,0.704-0.456,1.104-0.456c0.495,0,0.903,0.057,1.224,0.168s0.68,0.312,1.08,0.6L227.732,356.747z"/>
		<path fill="#231F20" d="M238.341,365.195v-1.704c-1.04,1.248-2.36,1.872-3.96,1.872c-1.44,0-2.648-0.488-3.624-1.464
			c-0.992-0.992-1.488-2.208-1.488-3.648s0.488-2.648,1.464-3.624c0.992-0.992,2.208-1.488,3.648-1.488
			c1.584,0,2.904,0.624,3.96,1.872v-1.728h0.984v9.912H238.341z M237.309,357.323c-0.815-0.816-1.792-1.224-2.928-1.224
			c-1.152,0-2.128,0.4-2.928,1.2c-0.816,0.816-1.225,1.8-1.225,2.952c0,1.136,0.408,2.112,1.225,2.928
			c0.815,0.816,1.791,1.224,2.928,1.224c1.151,0,2.128-0.4,2.928-1.2c0.816-0.816,1.224-1.8,1.224-2.952
			C238.532,359.115,238.125,358.139,237.309,357.323z"/>
		<path fill="#231F20" d="M248.925,365.195v-5.928c0-2.096-0.944-3.144-2.832-3.144c-0.928,0-1.632,0.272-2.112,0.816
			c-0.496,0.544-0.743,1.288-0.743,2.232v6.024h-0.984v-9.912h0.984v1.2c0.447-0.88,1.399-1.32,2.855-1.32
			c1.232,0,2.176,0.353,2.832,1.056c0.656,0.704,0.984,1.688,0.984,2.952v6.024H248.925z"/>
		<path fill="#231F20" d="M261.668,365.195v-1.776c-1.056,1.296-2.399,1.944-4.032,1.944c-1.439,0-2.647-0.488-3.624-1.464
			c-0.992-0.992-1.487-2.208-1.487-3.648s0.487-2.648,1.464-3.624c0.992-0.992,2.208-1.488,3.647-1.488
			c1.584,0,2.929,0.648,4.032,1.944v-9.648h0.984v17.76H261.668z M260.564,357.323c-0.816-0.816-1.792-1.224-2.929-1.224
			c-1.151,0-2.128,0.4-2.928,1.2c-0.815,0.816-1.224,1.8-1.224,2.952c0,1.136,0.408,2.112,1.224,2.928
			c0.816,0.816,1.792,1.224,2.928,1.224c1.152,0,2.128-0.4,2.929-1.2c0.815-0.816,1.224-1.8,1.224-2.952
			C261.788,359.115,261.38,358.139,260.564,357.323z"/>
		<path fill="#231F20" d="M270.452,364.571c-0.641,0.544-1.408,0.816-2.304,0.816c-1.536,0-2.688-0.696-3.456-2.088l0.84-0.504
			c0.271,0.496,0.6,0.88,0.983,1.152c0.4,0.304,0.944,0.456,1.633,0.456c1.503,0,2.256-0.64,2.256-1.92
			c0-0.56-0.265-1.048-0.792-1.464c-0.16-0.096-0.389-0.204-0.685-0.324s-0.659-0.26-1.092-0.42c-0.8-0.288-1.376-0.576-1.728-0.864
			c-0.513-0.416-0.769-1.016-0.769-1.8c0-0.672,0.256-1.248,0.769-1.728c0.495-0.496,1.144-0.744,1.943-0.744
			c1.104,0,2.04,0.384,2.809,1.152l-0.721,0.624c-0.544-0.544-1.239-0.816-2.088-0.816c-1.151,0-1.728,0.504-1.728,1.512
			c0,0.448,0.176,0.816,0.528,1.104c0.287,0.224,0.743,0.44,1.367,0.648c0.544,0.192,0.992,0.372,1.345,0.54
			c0.352,0.168,0.615,0.316,0.792,0.444c0.688,0.528,1.031,1.24,1.031,2.136C271.388,363.347,271.076,364.043,270.452,364.571z"/>
		<path fill="#231F20" d="M273.717,360.035c0,1.344,0.359,2.408,1.08,3.192c0.751,0.8,1.783,1.2,3.096,1.2
			c0.672,0,1.279-0.112,1.824-0.336c0.688-0.288,1.304-0.872,1.848-1.752l0.888,0.408c-0.624,1.185-1.584,1.984-2.88,2.4
			c-0.496,0.16-1.056,0.24-1.68,0.24c-1.488,0-2.712-0.488-3.672-1.464c-0.977-0.976-1.464-2.2-1.464-3.672
			c0-1.488,0.479-2.712,1.439-3.672c0.976-0.976,2.208-1.464,3.696-1.464c1.472,0,2.688,0.456,3.647,1.368
			c0.977,0.912,1.465,2.096,1.465,3.552H273.717z M280.484,356.891c-0.752-0.543-1.616-0.816-2.592-0.816
			c-2.049,0-3.393,1.008-4.032,3.024h8.04C281.74,358.187,281.269,357.451,280.484,356.891z"/>
		<path fill="#231F20" d="M292.028,365.195l-5.185-5.16l-0.552,0.552v4.608h-0.983v-17.76h0.983v11.736l4.296-4.272h1.393
			l-4.488,4.464l5.832,5.832H292.028z"/>
		<path fill="#231F20" d="M295.628,356.267v8.928h-0.984v-8.928H293.3v-0.984h1.344v-4.344h0.984v4.344h2.304v0.984H295.628z"/>
		<path fill="#231F20" d="M300.812,353.507c-0.176,0-0.359-0.072-0.552-0.216c-0.145-0.144-0.225-0.336-0.24-0.576
			c0-0.432,0.264-0.696,0.792-0.792c0.399,0,0.664,0.264,0.792,0.792C301.604,353.243,301.34,353.507,300.812,353.507z
			 M300.308,365.195v-9.912h0.984v9.912H300.308z"/>
		<path fill="#231F20" d="M312.571,363.875c-0.992,0.992-2.208,1.488-3.647,1.488c-1.44,0-2.648-0.488-3.624-1.464
			c-0.992-0.992-1.488-2.208-1.488-3.648c0-1.424,0.496-2.632,1.488-3.624c0.976-1.008,2.184-1.512,3.624-1.512
			c1.424,0,2.632,0.496,3.624,1.488s1.488,2.208,1.488,3.648S313.548,362.899,312.571,363.875z M311.876,357.299
			c-0.801-0.816-1.784-1.224-2.952-1.224c-1.12,0-2.088,0.417-2.904,1.248c-0.832,0.832-1.248,1.808-1.248,2.928
			c0,1.136,0.408,2.112,1.225,2.928c0.815,0.816,1.791,1.224,2.928,1.224c1.151,0,2.128-0.4,2.928-1.2
			c0.816-0.816,1.224-1.8,1.224-2.952C313.075,359.083,312.676,358.099,311.876,357.299z"/>
		<path fill="#231F20" d="M323.179,365.195v-5.928c0-2.096-0.944-3.144-2.832-3.144c-0.928,0-1.632,0.272-2.112,0.816
			c-0.496,0.544-0.743,1.288-0.743,2.232v6.024h-0.984v-9.912h0.984v1.2c0.447-0.88,1.399-1.32,2.855-1.32
			c1.232,0,2.176,0.353,2.832,1.056c0.656,0.704,0.984,1.688,0.984,2.952v6.024H323.179z"/>
		<path fill="#231F20" d="M345.331,365.195l-1.968-5.136h-7.8l-1.992,5.136h-0.96l6.84-17.688l6.864,17.688H345.331z
			 M339.451,350.003l-3.504,9.072h7.008L339.451,350.003z"/>
	</g>
	<rect x="202.604" y="341.466" fill="none" stroke="#000000" stroke-miterlimit="10" width="150.758" height="33.078"/>
</g>
<g>
	<rect x="987.273" y="510.119" opacity="0.8" fill="#C1C2C2" width="150.758" height="33.078"/>
	<g>
		<path fill="#231F20" d="M1003.715,532.456c-1.04,0.929-2.313,1.392-3.816,1.392h-5.352v-17.136h4.176
			c1.328,0,2.384,0.345,3.168,1.032c0.832,0.736,1.248,1.76,1.248,3.072c0,1.504-0.616,2.607-1.848,3.312
			c1.199,0.24,2.168,0.784,2.903,1.632c0.721,0.849,1.08,1.889,1.08,3.121C1005.274,530.353,1004.755,531.544,1003.715,532.456z
			 M1001.194,518.561c-0.656-0.576-1.456-0.864-2.399-0.864h-3.288v6.239h3.432c0.928,0,1.696-0.287,2.304-0.863
			c0.608-0.576,0.912-1.328,0.912-2.256C1002.154,519.855,1001.834,519.104,1001.194,518.561z M1002.995,525.977
			c-0.816-0.704-1.841-1.057-3.072-1.057h-4.416v7.944h4.416c1.216,0,2.247-0.368,3.096-1.104c0.864-0.735,1.296-1.695,1.296-2.879
			C1004.314,527.68,1003.874,526.713,1002.995,525.977z"/>
		<path fill="#231F20" d="M1012.402,525.4c-0.256-0.192-0.527-0.344-0.815-0.456s-0.593-0.168-0.912-0.168
			c-0.272,0-0.528,0.084-0.769,0.252c-0.239,0.168-0.447,0.376-0.624,0.624c-0.176,0.248-0.315,0.523-0.42,0.828
			c-0.104,0.304-0.155,0.584-0.155,0.84v6.527h-0.984v-9.912h0.984v1.345c0.207-0.368,0.479-0.704,0.815-1.009
			c0.336-0.303,0.704-0.455,1.104-0.455c0.495,0,0.903,0.057,1.224,0.168s0.68,0.313,1.08,0.6L1012.402,525.4z"/>
		<path fill="#231F20" d="M1023.011,533.848v-1.703c-1.04,1.248-2.36,1.871-3.96,1.871c-1.44,0-2.648-0.487-3.624-1.463
			c-0.992-0.992-1.488-2.209-1.488-3.648s0.488-2.648,1.464-3.624c0.992-0.992,2.208-1.488,3.648-1.488
			c1.584,0,2.904,0.624,3.96,1.872v-1.729h0.984v9.912H1023.011z M1021.979,525.977c-0.815-0.816-1.792-1.225-2.928-1.225
			c-1.152,0-2.128,0.4-2.928,1.2c-0.816,0.815-1.225,1.8-1.225,2.952c0,1.137,0.408,2.111,1.225,2.928
			c0.815,0.816,1.791,1.225,2.928,1.225c1.151,0,2.128-0.4,2.928-1.201c0.816-0.815,1.224-1.799,1.224-2.951
			C1023.202,527.768,1022.795,526.792,1021.979,525.977z"/>
		<path fill="#231F20" d="M1033.595,533.848v-5.928c0-2.096-0.944-3.144-2.832-3.144c-0.928,0-1.632,0.272-2.112,0.815
			c-0.496,0.545-0.743,1.289-0.743,2.232v6.023h-0.984v-9.912h0.984v1.201c0.447-0.881,1.399-1.32,2.855-1.32
			c1.232,0,2.176,0.352,2.832,1.056s0.984,1.688,0.984,2.952v6.023H1033.595z"/>
		<path fill="#231F20" d="M1046.338,533.848v-1.775c-1.056,1.296-2.399,1.943-4.032,1.943c-1.439,0-2.647-0.487-3.624-1.463
			c-0.992-0.992-1.487-2.209-1.487-3.648s0.487-2.648,1.464-3.624c0.992-0.992,2.208-1.488,3.647-1.488
			c1.584,0,2.929,0.647,4.032,1.944v-9.648h0.984v17.76H1046.338z M1045.234,525.977c-0.816-0.816-1.792-1.225-2.929-1.225
			c-1.151,0-2.128,0.4-2.928,1.2c-0.815,0.815-1.224,1.8-1.224,2.952c0,1.137,0.408,2.111,1.224,2.928
			c0.816,0.816,1.792,1.225,2.928,1.225c1.152,0,2.128-0.4,2.929-1.201c0.815-0.815,1.224-1.799,1.224-2.951
			C1046.458,527.768,1046.05,526.792,1045.234,525.977z"/>
		<path fill="#231F20" d="M1055.122,533.225c-0.641,0.543-1.408,0.815-2.304,0.815c-1.536,0-2.688-0.696-3.456-2.088l0.84-0.504
			c0.271,0.496,0.6,0.88,0.983,1.151c0.4,0.305,0.944,0.457,1.633,0.457c1.503,0,2.256-0.641,2.256-1.92
			c0-0.561-0.265-1.049-0.792-1.465c-0.16-0.096-0.389-0.203-0.685-0.324c-0.296-0.119-0.659-0.26-1.092-0.42
			c-0.8-0.287-1.376-0.576-1.728-0.863c-0.513-0.416-0.769-1.016-0.769-1.801c0-0.672,0.256-1.248,0.769-1.728
			c0.495-0.495,1.144-0.744,1.943-0.744c1.104,0,2.04,0.384,2.809,1.152l-0.721,0.624c-0.544-0.544-1.239-0.816-2.088-0.816
			c-1.151,0-1.728,0.504-1.728,1.512c0,0.449,0.176,0.816,0.528,1.104c0.287,0.224,0.743,0.44,1.367,0.647
			c0.544,0.192,0.992,0.373,1.345,0.541c0.352,0.168,0.615,0.315,0.792,0.443c0.688,0.528,1.031,1.24,1.031,2.137
			C1056.058,532,1055.746,532.696,1055.122,533.225z"/>
		<path fill="#231F20" d="M1058.387,528.688c0,1.345,0.359,2.408,1.08,3.193c0.751,0.799,1.783,1.199,3.096,1.199
			c0.672,0,1.279-0.111,1.824-0.336c0.688-0.288,1.304-0.872,1.848-1.752l0.888,0.408c-0.624,1.184-1.584,1.984-2.88,2.4
			c-0.496,0.159-1.056,0.239-1.68,0.239c-1.488,0-2.712-0.487-3.672-1.464c-0.977-0.976-1.464-2.199-1.464-3.672
			c0-1.488,0.479-2.712,1.439-3.672c0.976-0.977,2.208-1.465,3.696-1.465c1.472,0,2.688,0.457,3.647,1.369
			c0.977,0.912,1.465,2.096,1.465,3.551H1058.387z M1065.154,525.544c-0.752-0.544-1.616-0.815-2.592-0.815
			c-2.049,0-3.393,1.008-4.032,3.023h8.04C1066.41,526.84,1065.938,526.104,1065.154,525.544z"/>
		<path fill="#231F20" d="M1076.698,533.848l-5.185-5.16l-0.552,0.553v4.607h-0.983v-17.76h0.983v11.736l4.296-4.271h1.393
			l-4.488,4.463l5.832,5.832H1076.698z"/>
		<path fill="#231F20" d="M1080.298,524.92v8.928h-0.984v-8.928h-1.344v-0.984h1.344v-4.344h0.984v4.344h2.304v0.984H1080.298z"/>
		<path fill="#231F20" d="M1085.481,522.16c-0.176,0-0.359-0.072-0.552-0.216c-0.145-0.144-0.225-0.337-0.24-0.576
			c0-0.433,0.264-0.696,0.792-0.792c0.399,0,0.664,0.264,0.792,0.792C1086.273,521.896,1086.01,522.16,1085.481,522.16z
			 M1084.978,533.848v-9.912h0.984v9.912H1084.978z"/>
		<path fill="#231F20" d="M1097.241,532.528c-0.992,0.992-2.208,1.487-3.647,1.487c-1.44,0-2.648-0.487-3.624-1.463
			c-0.992-0.992-1.488-2.209-1.488-3.648c0-1.424,0.496-2.632,1.488-3.624c0.976-1.009,2.184-1.513,3.624-1.513
			c1.424,0,2.632,0.496,3.624,1.488s1.488,2.209,1.488,3.648S1098.218,531.553,1097.241,532.528z M1096.546,525.952
			c-0.801-0.815-1.784-1.224-2.952-1.224c-1.12,0-2.088,0.416-2.904,1.248c-0.832,0.832-1.248,1.808-1.248,2.928
			c0,1.137,0.408,2.111,1.225,2.928c0.815,0.816,1.791,1.225,2.928,1.225c1.151,0,2.128-0.4,2.928-1.201
			c0.816-0.815,1.224-1.799,1.224-2.951C1097.745,527.736,1097.346,526.752,1096.546,525.952z"/>
		<path fill="#231F20" d="M1107.849,533.848v-5.928c0-2.096-0.944-3.144-2.832-3.144c-0.928,0-1.632,0.272-2.112,0.815
			c-0.496,0.545-0.743,1.289-0.743,2.232v6.023h-0.984v-9.912h0.984v1.201c0.447-0.881,1.399-1.32,2.855-1.32
			c1.232,0,2.176,0.352,2.832,1.056s0.984,1.688,0.984,2.952v6.023H1107.849z"/>
		<path fill="#231F20" d="M1127.529,532.456c-1.04,0.929-2.313,1.392-3.816,1.392h-5.352v-17.136h4.176
			c1.328,0,2.384,0.345,3.168,1.032c0.832,0.736,1.248,1.76,1.248,3.072c0,1.504-0.616,2.607-1.848,3.312
			c1.199,0.24,2.168,0.784,2.903,1.632c0.721,0.849,1.08,1.889,1.08,3.121C1129.089,530.353,1128.569,531.544,1127.529,532.456z
			 M1125.009,518.561c-0.656-0.576-1.456-0.864-2.399-0.864h-3.288v6.239h3.432c0.928,0,1.696-0.287,2.304-0.863
			c0.608-0.576,0.912-1.328,0.912-2.256C1125.969,519.855,1125.648,519.104,1125.009,518.561z M1126.81,525.977
			c-0.816-0.704-1.841-1.057-3.072-1.057h-4.416v7.944h4.416c1.216,0,2.247-0.368,3.096-1.104c0.864-0.735,1.296-1.695,1.296-2.879
			C1128.129,527.68,1127.688,526.713,1126.81,525.977z"/>
	</g>
	<rect x="987.273" y="510.119" fill="none" stroke="#000000" stroke-miterlimit="10" width="150.758" height="33.078"/>
</g>
<g>
	<g>
		<polygon opacity="0.1" fill="#F7972C" points="832.302,521.569 692.702,565.936 599.735,503.999 599.735,101.925 739.335,56.799 
			832.302,116.229 		"/>
		<polyline fill="none" stroke="#000000" stroke-linecap="round" stroke-linejoin="round" stroke-miterlimit="10" points="
			739.335,56.799 739.335,459.633 599.735,503.999 		"/>
		<g>
			<path fill="none" stroke="#000000" stroke-linecap="round" stroke-linejoin="round" stroke-miterlimit="10" d="M832.302,521.569"
				/>
			<polyline fill="none" stroke="#000000" stroke-linecap="round" stroke-linejoin="round" stroke-miterlimit="10" points="
				692.702,565.936 692.702,160.563 832.302,116.229 			"/>
		</g>
		
			<line fill="none" stroke="#000000" stroke-linecap="round" stroke-linejoin="round" stroke-miterlimit="10" x1="599.735" y1="101.925" x2="692.702" y2="160.563"/>
		<polygon fill="none" stroke="#000000" stroke-linecap="round" stroke-linejoin="round" stroke-miterlimit="10" points="
			832.302,521.569 692.702,565.936 599.735,503.999 599.735,101.925 739.335,56.799 832.302,116.229 		"/>
		
			<line fill="none" stroke="#000000" stroke-linecap="round" stroke-linejoin="round" stroke-miterlimit="10" x1="739.335" y1="459.633" x2="832.302" y2="521.569"/>
	</g>
	<g>
		<polyline fill="#C1C2C2" points="682.849,568.701 692.702,565.936 692.701,160.563 599.735,101.925 589.882,104.69 
			589.882,506.765 682.849,568.701 		"/>
		<polyline fill="none" stroke="#231F20" stroke-linecap="round" stroke-linejoin="round" stroke-miterlimit="10" points="
			599.735,101.925 692.701,160.563 692.702,565.936 		"/>
		<g>
			<polygon fill="none" stroke="#231F20" stroke-linecap="round" stroke-linejoin="round" stroke-miterlimit="10" points="
				682.849,568.701 589.882,506.765 589.882,104.69 682.848,163.329 			"/>
		</g>
		
			<line fill="none" stroke="#231F20" stroke-linecap="round" stroke-linejoin="round" stroke-miterlimit="10" x1="682.849" y1="568.701" x2="692.702" y2="565.936"/>
		
			<line fill="none" stroke="#231F20" stroke-linecap="round" stroke-linejoin="round" stroke-miterlimit="10" x1="589.882" y1="104.69" x2="599.735" y2="101.925"/>
		
			<line fill="none" stroke="#231F20" stroke-linecap="round" stroke-linejoin="round" stroke-miterlimit="10" x1="682.848" y1="163.329" x2="692.702" y2="160.563"/>
	</g>
	<g>
		<polygon opacity="0.1" fill="#F7972C" points="682.849,568.701 543.251,613.067 450.285,551.131 450.285,388.715 589.882,344.052 
			682.849,404.985 		"/>
		<polyline fill="none" stroke="#000000" stroke-linecap="round" stroke-linejoin="round" stroke-miterlimit="10" points="
			589.882,344.052 589.882,506.765 450.285,551.131 		"/>
		<g>
			<path fill="none" stroke="#000000" stroke-linecap="round" stroke-linejoin="round" stroke-miterlimit="10" d="M682.849,568.701"
				/>
			<polyline fill="none" stroke="#000000" stroke-linecap="round" stroke-linejoin="round" stroke-miterlimit="10" points="
				543.251,613.067 543.251,449.309 682.849,404.985 			"/>
		</g>
		
			<line fill="none" stroke="#000000" stroke-linecap="round" stroke-linejoin="round" stroke-miterlimit="10" x1="450.285" y1="388.715" x2="543.251" y2="449.309"/>
		<polygon fill="none" stroke="#000000" stroke-linecap="round" stroke-linejoin="round" stroke-miterlimit="10" points="
			682.849,568.701 543.251,613.067 450.285,551.131 450.285,388.715 589.882,344.052 682.849,404.985 		"/>
		
			<line fill="none" stroke="#000000" stroke-linecap="round" stroke-linejoin="round" stroke-miterlimit="10" x1="589.882" y1="506.765" x2="682.849" y2="568.701"/>
	</g>
	<g>
		<g>
			<polygon fill="#FF1D25" points="442.164,392.15 442.164,554.863 535.13,616.8 543.251,613.067 543.251,449.309 450.285,388.715 
							"/>
		</g>
		<g>
			<polygon fill="none" stroke="#000000" stroke-linecap="round" stroke-linejoin="round" stroke-miterlimit="10" points="
				442.164,392.15 442.164,554.863 535.13,616.8 543.251,613.067 543.251,449.309 450.285,388.715 			"/>
		</g>
		
			<line fill="none" stroke="#000000" stroke-linecap="round" stroke-linejoin="round" stroke-miterlimit="10" x1="535.13" y1="453.084" x2="543.251" y2="449.309"/>
		
			<line fill="none" stroke="#000000" stroke-linecap="round" stroke-linejoin="round" stroke-miterlimit="10" x1="442.164" y1="392.15" x2="535.13" y2="453.084"/>
		
			<line fill="none" stroke="#000000" stroke-linecap="round" stroke-linejoin="round" stroke-miterlimit="10" x1="535.13" y1="453.084" x2="535.13" y2="616.8"/>
	</g>
	<g>
		<polygon opacity="0.1" fill="#CC3F27" points="535.13,616.8 395.533,661.166 302.566,599.229 302.566,436.813 442.164,392.15 
			535.13,453.084 		"/>
		<polyline fill="none" stroke="#000000" stroke-linecap="round" stroke-linejoin="round" stroke-miterlimit="10" points="
			442.164,392.15 442.164,554.863 302.566,599.229 		"/>
		<g>
			<path fill="none" stroke="#000000" stroke-linecap="round" stroke-linejoin="round" stroke-miterlimit="10" d="M535.13,616.8"/>
			<polyline fill="none" stroke="#000000" stroke-linecap="round" stroke-linejoin="round" stroke-miterlimit="10" points="
				395.533,661.166 395.533,497.407 535.13,453.084 			"/>
		</g>
		
			<line fill="none" stroke="#000000" stroke-linecap="round" stroke-linejoin="round" stroke-miterlimit="10" x1="302.566" y1="436.813" x2="395.533" y2="497.407"/>
		<polygon fill="none" stroke="#000000" stroke-linecap="round" stroke-linejoin="round" stroke-miterlimit="10" points="
			535.13,616.8 395.533,661.166 302.566,599.229 302.566,436.813 442.164,392.15 535.13,453.084 		"/>
		
			<line fill="none" stroke="#000000" stroke-linecap="round" stroke-linejoin="round" stroke-miterlimit="10" x1="442.164" y1="554.863" x2="535.13" y2="616.8"/>
	</g>
	<g>
		<polyline fill="#5D6162" points="512.146,525.062 535.13,513.803 535.13,465.074 442.164,405.714 419.18,414.307 419.18,467.697 
			512.146,525.062 		"/>
		<line fill="none" stroke="#231F20" stroke-miterlimit="10" x1="419.18" y1="414.307" x2="512.146" y2="474.142"/>
		<path fill="none" stroke="#231F20" stroke-miterlimit="10" d="M512.146,476.333"/>
		<polyline fill="none" stroke="#231F20" stroke-miterlimit="10" points="512.146,525.062 535.13,513.803 535.13,465.074 
			442.164,405.714 419.18,414.307 419.18,467.697 512.146,525.062 		"/>
		<line fill="none" stroke="#231F20" stroke-miterlimit="10" x1="512.146" y1="474.142" x2="535.13" y2="465.074"/>
		<line fill="none" stroke="#231F20" stroke-miterlimit="10" x1="512.146" y1="474.142" x2="512.146" y2="525.062"/>
	</g>
	<g>
		<polygon fill="#FF1D25" points="395.533,660.772 395.533,497.437 615.974,426.694 615.974,185.146 832.863,116.229 
			845.331,125.939 845.331,528.773 405.077,667.801 		"/>
		<path fill="none" stroke="#000000" stroke-width="2" stroke-miterlimit="10" d="M839.332,521.847"/>
		<polygon fill="none" stroke="#000000" stroke-width="2" stroke-miterlimit="10" points="395.533,660.772 395.533,497.437 
			615.974,426.694 615.974,185.146 832.302,116.229 845.331,125.939 845.331,528.773 405.077,667.801 		"/>
		<polyline fill="none" stroke="#000000" stroke-width="2" stroke-miterlimit="10" points="405.077,667.801 405.403,503.796 
			630.124,432.21 631.909,194.844 845.331,125.939 		"/>
		
			<line fill="none" stroke="#000000" stroke-width="2" stroke-miterlimit="10" x1="395.533" y1="497.437" x2="405.403" y2="503.796"/>
		
			<line fill="none" stroke="#000000" stroke-width="2" stroke-miterlimit="10" x1="615.974" y1="426.694" x2="630.124" y2="432.21"/>
		
			<line fill="none" stroke="#000000" stroke-width="2" stroke-miterlimit="10" x1="615.974" y1="185.146" x2="631.909" y2="194.844"/>
	</g>
	<g>
		<polygon fill="#C1C2C2" points="778.886,437.465 785.104,435.748 785.104,547.91 729.648,564.891 729.993,560.649 
			778.886,545.074 		"/>
		
			<polyline fill="none" stroke="#000000" stroke-width="2" stroke-linecap="round" stroke-linejoin="round" stroke-miterlimit="10" points="
			778.886,545.338 785.104,547.91 785.104,435.748 729.993,453.304 729.993,564.782 		"/>
		<polyline fill="#006A36" points="729.993,560.649 729.993,453.04 778.886,437.465 778.886,545.074 729.993,560.649 
			778.886,545.074 		"/>
		<polyline fill="none" stroke="#000000" stroke-width="2" stroke-miterlimit="10" points="729.993,560.649 778.886,545.074 
			778.886,437.465 		"/>
	</g>
	<g>
		<polygon opacity="0.1" fill="#CC3F27" points="938.298,590.71 725.118,659.175 631.908,596.917 631.908,194.844 845.331,125.939 
			938.298,185.37 		"/>
		<polyline fill="none" stroke="#000000" stroke-linecap="round" stroke-linejoin="round" stroke-miterlimit="10" points="
			845.331,125.939 845.331,528.773 631.908,596.917 		"/>
		<g>
			<path fill="none" stroke="#000000" stroke-linecap="round" stroke-linejoin="round" stroke-miterlimit="10" d="M864.718,614.809"
				/>
			<polyline fill="none" stroke="#000000" stroke-linecap="round" stroke-linejoin="round" stroke-miterlimit="10" points="
				725.118,659.175 725.118,253.803 938.298,185.37 			"/>
		</g>
		
			<line fill="none" stroke="#000000" stroke-linecap="round" stroke-linejoin="round" stroke-miterlimit="10" x1="631.908" y1="194.844" x2="725.118" y2="253.803"/>
		<polygon fill="none" stroke="#000000" stroke-linecap="round" stroke-linejoin="round" stroke-miterlimit="10" points="
			938.298,590.71 725.118,659.175 631.908,596.917 631.908,194.844 845.331,125.939 938.298,185.37 		"/>
		
			<line fill="none" stroke="#000000" stroke-linecap="round" stroke-linejoin="round" stroke-miterlimit="10" x1="845.331" y1="528.773" x2="938.298" y2="590.71"/>
	</g>
	<g>
		<polygon fill="#C1C2C2" points="621.707,434.321 621.707,599.229 716.432,663.099 725.118,659.175 725.118,495.69 630.124,432.21 
					"/>
		<polyline fill="none" stroke="#000000" stroke-linecap="round" stroke-linejoin="round" stroke-miterlimit="10" points="
			621.707,434.321 716.432,498.186 716.432,663.099 		"/>
		<polygon fill="none" stroke="#000000" stroke-linecap="round" stroke-linejoin="round" stroke-miterlimit="10" points="
			621.707,434.321 621.707,599.229 716.432,663.099 725.118,659.175 725.118,495.69 630.124,432.21 		"/>
		
			<line fill="none" stroke="#000000" stroke-linecap="round" stroke-linejoin="round" stroke-miterlimit="10" x1="716.432" y1="498.186" x2="725.118" y2="495.69"/>
	</g>
	<g>
		<polygon opacity="0.1" fill="#CC3F27" points="716.432,663.099 503.759,732.966 405.077,667.801 405.077,503.44 621.707,434.321 
			716.432,498.186 		"/>
		<polyline fill="none" stroke="#000000" stroke-linecap="round" stroke-linejoin="round" stroke-miterlimit="10" points="
			621.707,434.321 621.707,599.229 405.077,667.801 		"/>
		<g>
			<path fill="none" stroke="#000000" stroke-linecap="round" stroke-linejoin="round" stroke-miterlimit="10" d="M713.231,661.166"
				/>
			<polyline fill="none" stroke="#000000" stroke-linecap="round" stroke-linejoin="round" stroke-miterlimit="10" points="
				503.759,732.966 503.759,567.614 716.432,498.186 			"/>
		</g>
		
			<line fill="none" stroke="#000000" stroke-linecap="round" stroke-linejoin="round" stroke-miterlimit="10" x1="405.077" y1="503.44" x2="503.759" y2="567.614"/>
		<polygon fill="none" stroke="#000000" stroke-linecap="round" stroke-linejoin="round" stroke-miterlimit="10" points="
			716.432,663.099 503.759,732.966 405.077,667.801 405.077,503.44 621.707,434.321 716.432,498.186 		"/>
		
			<line fill="none" stroke="#000000" stroke-linecap="round" stroke-linejoin="round" stroke-miterlimit="10" x1="621.707" y1="599.229" x2="716.432" y2="663.099"/>
	</g>
</g>
<g>
	<line fill="none" stroke="#000000" stroke-miterlimit="10" x1="395.656" y1="511.064" x2="415.426" y2="491.296"/>
	<line fill="none" stroke="#000000" stroke-miterlimit="10" x1="396.291" y1="524.57" x2="436.248" y2="484.613"/>
	<line fill="none" stroke="#000000" stroke-miterlimit="10" x1="395.656" y1="538.713" x2="456.366" y2="478.157"/>
	<line fill="none" stroke="#000000" stroke-miterlimit="10" x1="395.656" y1="553.491" x2="477.901" y2="471.246"/>
	<line fill="none" stroke="#000000" stroke-miterlimit="10" x1="395.656" y1="567.634" x2="498.727" y2="464.563"/>
	<line fill="none" stroke="#000000" stroke-miterlimit="10" x1="395.656" y1="581.775" x2="519.551" y2="457.881"/>
	<line fill="none" stroke="#000000" stroke-miterlimit="10" x1="395.656" y1="595.917" x2="538.279" y2="453.294"/>
	<line fill="none" stroke="#000000" stroke-miterlimit="10" x1="395.656" y1="610.06" x2="538.294" y2="467.422"/>
	<line fill="none" stroke="#000000" stroke-miterlimit="10" x1="395.656" y1="624.202" x2="538.244" y2="481.615"/>
	<line fill="none" stroke="#000000" stroke-miterlimit="10" x1="395.656" y1="638.344" x2="538.193" y2="495.807"/>
	<line fill="none" stroke="#000000" stroke-miterlimit="10" x1="395.656" y1="652.485" x2="538.143" y2="510"/>
	<line fill="none" stroke="#000000" stroke-miterlimit="10" x1="398.911" y1="663.373" x2="538.092" y2="524.191"/>
	<line fill="none" stroke="#000000" stroke-miterlimit="10" x1="409.91" y1="666.517" x2="538.042" y2="538.385"/>
	<line fill="none" stroke="#000000" stroke-miterlimit="10" x1="430.58" y1="659.989" x2="537.991" y2="552.578"/>
	<line fill="none" stroke="#000000" stroke-miterlimit="10" x1="451.247" y1="653.463" x2="537.94" y2="566.771"/>
	<line fill="none" stroke="#000000" stroke-miterlimit="10" x1="471.917" y1="646.936" x2="537.89" y2="580.962"/>
	<line fill="none" stroke="#000000" stroke-miterlimit="10" x1="492.586" y1="640.409" x2="537.84" y2="595.155"/>
	<line fill="none" stroke="#000000" stroke-miterlimit="10" x1="513.256" y1="633.882" x2="537.789" y2="609.349"/>
	<line fill="none" stroke="#000000" stroke-miterlimit="10" x1="533.924" y1="627.355" x2="537.738" y2="623.542"/>
</g>
</svg>
