<?xml version="1.0" encoding="utf-8"?>
<!-- Generator: Adobe Illustrator 16.0.0, SVG Export Plug-In . SVG Version: 6.00 Build 0)  -->
<!DOCTYPE svg PUBLIC "-//W3C//DTD SVG 1.1//EN" "http://www.w3.org/Graphics/SVG/1.1/DTD/svg11.dtd">
<svg version="1.1" id="Layer_1" xmlns="http://www.w3.org/2000/svg" xmlns:xlink="http://www.w3.org/1999/xlink" x="0px" y="0px"
	 width="1280px" height="800px" viewBox="0 0 1280 800" enable-background="new 0 0 1280 800" xml:space="preserve">
<g>
	<g>
		
			<line fill="none" stroke="#ED2F47" stroke-width="5" stroke-miterlimit="10" x1="147.29" y1="742.521" x2="153.016" y2="740.728"/>
		
			<line fill="none" stroke="#ED2F47" stroke-width="5" stroke-miterlimit="10" stroke-dasharray="12.0324,12.0324" x1="164.498" y1="737.131" x2="1077.331" y2="451.183"/>
		
			<line fill="none" stroke="#ED2F47" stroke-width="5" stroke-miterlimit="10" x1="1083.072" y1="449.385" x2="1088.798" y2="447.591"/>
	</g>
</g>
<g>
	<g>
		<polygon opacity="0.1" fill="#F7972C" points="832.302,521.569 692.702,565.936 599.735,503.999 599.735,101.925 739.335,56.799 
			832.302,116.229 		"/>
		<polyline fill="none" stroke="#000000" stroke-linecap="round" stroke-linejoin="round" stroke-miterlimit="10" points="
			739.335,56.799 739.335,459.633 599.735,503.999 		"/>
		<g>
			<path fill="none" stroke="#000000" stroke-linecap="round" stroke-linejoin="round" stroke-miterlimit="10" d="M832.302,521.569"
				/>
			<polyline fill="none" stroke="#000000" stroke-linecap="round" stroke-linejoin="round" stroke-miterlimit="10" points="
				692.702,565.936 692.702,160.563 832.302,116.229 			"/>
		</g>
		
			<line fill="none" stroke="#000000" stroke-linecap="round" stroke-linejoin="round" stroke-miterlimit="10" x1="599.735" y1="101.925" x2="692.702" y2="160.563"/>
		<polygon fill="none" stroke="#000000" stroke-linecap="round" stroke-linejoin="round" stroke-miterlimit="10" points="
			832.302,521.569 692.702,565.936 599.735,503.999 599.735,101.925 739.335,56.799 832.302,116.229 		"/>
		
			<line fill="none" stroke="#000000" stroke-linecap="round" stroke-linejoin="round" stroke-miterlimit="10" x1="739.335" y1="459.633" x2="832.302" y2="521.569"/>
	</g>
	<g>
		<polyline fill="#C1C2C2" points="682.849,568.701 692.702,565.936 692.701,160.563 599.735,101.925 589.882,104.69 
			589.882,506.765 682.849,568.701 		"/>
		<polyline fill="none" stroke="#231F20" stroke-linecap="round" stroke-linejoin="round" stroke-miterlimit="10" points="
			599.735,101.925 692.701,160.563 692.702,565.936 		"/>
		<g>
			<polygon fill="none" stroke="#231F20" stroke-linecap="round" stroke-linejoin="round" stroke-miterlimit="10" points="
				682.849,568.701 589.882,506.765 589.882,104.69 682.848,163.329 			"/>
		</g>
		
			<line fill="none" stroke="#231F20" stroke-linecap="round" stroke-linejoin="round" stroke-miterlimit="10" x1="682.849" y1="568.701" x2="692.702" y2="565.936"/>
		
			<line fill="none" stroke="#231F20" stroke-linecap="round" stroke-linejoin="round" stroke-miterlimit="10" x1="589.882" y1="104.69" x2="599.735" y2="101.925"/>
		
			<line fill="none" stroke="#231F20" stroke-linecap="round" stroke-linejoin="round" stroke-miterlimit="10" x1="682.848" y1="163.329" x2="692.702" y2="160.563"/>
	</g>
	<g>
		<polygon opacity="0.1" fill="#F7972C" points="682.849,568.701 543.251,613.067 450.285,551.131 450.285,388.715 589.882,344.052 
			682.849,404.985 		"/>
		<polyline fill="none" stroke="#000000" stroke-linecap="round" stroke-linejoin="round" stroke-miterlimit="10" points="
			589.882,344.052 589.882,506.765 450.285,551.131 		"/>
		<g>
			<path fill="none" stroke="#000000" stroke-linecap="round" stroke-linejoin="round" stroke-miterlimit="10" d="M682.849,568.701"
				/>
			<polyline fill="none" stroke="#000000" stroke-linecap="round" stroke-linejoin="round" stroke-miterlimit="10" points="
				543.251,613.067 543.251,449.309 682.849,404.985 			"/>
		</g>
		
			<line fill="none" stroke="#000000" stroke-linecap="round" stroke-linejoin="round" stroke-miterlimit="10" x1="450.285" y1="388.715" x2="543.251" y2="449.309"/>
		<polygon fill="none" stroke="#000000" stroke-linecap="round" stroke-linejoin="round" stroke-miterlimit="10" points="
			682.849,568.701 543.251,613.067 450.285,551.131 450.285,388.715 589.882,344.052 682.849,404.985 		"/>
		
			<line fill="none" stroke="#000000" stroke-linecap="round" stroke-linejoin="round" stroke-miterlimit="10" x1="589.882" y1="506.765" x2="682.849" y2="568.701"/>
	</g>
	<g>
		<g>
			<polygon fill="#C1C2C2" points="442.164,392.15 442.164,554.863 535.13,616.8 543.251,613.067 543.251,449.309 450.285,388.715 
							"/>
		</g>
		<g>
			<polygon fill="none" stroke="#000000" stroke-linecap="round" stroke-linejoin="round" stroke-miterlimit="10" points="
				442.164,392.15 442.164,554.863 535.13,616.8 543.251,613.067 543.251,449.309 450.285,388.715 			"/>
		</g>
		
			<line fill="none" stroke="#000000" stroke-linecap="round" stroke-linejoin="round" stroke-miterlimit="10" x1="535.13" y1="453.084" x2="543.251" y2="449.309"/>
		
			<line fill="none" stroke="#000000" stroke-linecap="round" stroke-linejoin="round" stroke-miterlimit="10" x1="442.164" y1="392.15" x2="535.13" y2="453.084"/>
		
			<line fill="none" stroke="#000000" stroke-linecap="round" stroke-linejoin="round" stroke-miterlimit="10" x1="535.13" y1="453.084" x2="535.13" y2="616.8"/>
	</g>
	<g>
		<polygon opacity="0.1" fill="#F7972C" points="535.13,616.8 395.533,661.166 302.566,599.229 302.566,436.813 442.164,392.15 
			535.13,453.084 		"/>
		<polyline fill="none" stroke="#000000" stroke-linecap="round" stroke-linejoin="round" stroke-miterlimit="10" points="
			442.164,392.15 442.164,554.863 302.566,599.229 		"/>
		<g>
			<path fill="none" stroke="#000000" stroke-linecap="round" stroke-linejoin="round" stroke-miterlimit="10" d="M535.13,616.8"/>
			<polyline fill="none" stroke="#000000" stroke-linecap="round" stroke-linejoin="round" stroke-miterlimit="10" points="
				395.533,661.166 395.533,497.407 535.13,453.084 			"/>
		</g>
		
			<line fill="none" stroke="#000000" stroke-linecap="round" stroke-linejoin="round" stroke-miterlimit="10" x1="302.566" y1="436.813" x2="395.533" y2="497.407"/>
		<polygon fill="none" stroke="#000000" stroke-linecap="round" stroke-linejoin="round" stroke-miterlimit="10" points="
			535.13,616.8 395.533,661.166 302.566,599.229 302.566,436.813 442.164,392.15 535.13,453.084 		"/>
		
			<line fill="none" stroke="#000000" stroke-linecap="round" stroke-linejoin="round" stroke-miterlimit="10" x1="442.164" y1="554.863" x2="535.13" y2="616.8"/>
	</g>
	<g>
		<polyline fill="#5D6162" points="512.146,525.062 535.13,513.803 535.13,465.074 442.164,405.714 419.18,414.307 419.18,467.697 
			512.146,525.062 		"/>
		<line fill="none" stroke="#231F20" stroke-miterlimit="10" x1="419.18" y1="414.307" x2="512.146" y2="474.142"/>
		<path fill="none" stroke="#231F20" stroke-miterlimit="10" d="M512.146,476.333"/>
		<polyline fill="none" stroke="#231F20" stroke-miterlimit="10" points="512.146,525.062 535.13,513.803 535.13,465.074 
			442.164,405.714 419.18,414.307 419.18,467.697 512.146,525.062 		"/>
		<line fill="none" stroke="#231F20" stroke-miterlimit="10" x1="512.146" y1="474.142" x2="535.13" y2="465.074"/>
		<line fill="none" stroke="#231F20" stroke-miterlimit="10" x1="512.146" y1="474.142" x2="512.146" y2="525.062"/>
	</g>
	<g>
		<polygon fill="#FF1D25" points="395.533,660.772 395.533,497.437 615.974,426.694 615.974,185.146 832.863,116.229 
			845.331,125.939 845.331,528.773 405.077,667.801 		"/>
		<path fill="none" stroke="#000000" stroke-width="2" stroke-miterlimit="10" d="M839.332,521.847"/>
		<polygon fill="none" stroke="#000000" stroke-width="2" stroke-miterlimit="10" points="395.533,660.772 395.533,497.437 
			615.974,426.694 615.974,185.146 832.302,116.229 845.331,125.939 845.331,528.773 405.077,667.801 		"/>
		<polyline fill="none" stroke="#000000" stroke-width="2" stroke-miterlimit="10" points="405.077,667.801 405.403,503.796 
			630.124,432.21 631.909,194.844 845.331,125.939 		"/>
		
			<line fill="none" stroke="#000000" stroke-width="2" stroke-miterlimit="10" x1="395.533" y1="497.437" x2="405.403" y2="503.796"/>
		
			<line fill="none" stroke="#000000" stroke-width="2" stroke-miterlimit="10" x1="615.974" y1="426.694" x2="630.124" y2="432.21"/>
		
			<line fill="none" stroke="#000000" stroke-width="2" stroke-miterlimit="10" x1="615.974" y1="185.146" x2="631.909" y2="194.844"/>
	</g>
	<g>
		<polygon fill="#C1C2C2" points="778.886,437.465 785.104,435.748 785.104,547.91 729.648,564.891 729.993,560.649 
			778.886,545.074 		"/>
		
			<polyline fill="none" stroke="#000000" stroke-width="2" stroke-linecap="round" stroke-linejoin="round" stroke-miterlimit="10" points="
			778.886,545.338 785.104,547.91 785.104,435.748 729.993,453.304 729.993,564.782 		"/>
		<polyline fill="#006A36" points="729.993,560.649 729.993,453.04 778.886,437.465 778.886,545.074 729.993,560.649 
			778.886,545.074 		"/>
		<polyline fill="none" stroke="#000000" stroke-width="2" stroke-miterlimit="10" points="729.993,560.649 778.886,545.074 
			778.886,437.465 		"/>
	</g>
	<g>
		<polygon opacity="0.1" fill="#CC3F27" points="938.298,590.71 725.118,659.175 631.908,596.917 631.908,194.844 845.331,125.939 
			938.298,185.37 		"/>
		<polyline fill="none" stroke="#000000" stroke-linecap="round" stroke-linejoin="round" stroke-miterlimit="10" points="
			845.331,125.939 845.331,528.773 631.908,596.917 		"/>
		<g>
			<path fill="none" stroke="#000000" stroke-linecap="round" stroke-linejoin="round" stroke-miterlimit="10" d="M864.718,614.809"
				/>
			<polyline fill="none" stroke="#000000" stroke-linecap="round" stroke-linejoin="round" stroke-miterlimit="10" points="
				725.118,659.175 725.118,253.803 938.298,185.37 			"/>
		</g>
		
			<line fill="none" stroke="#000000" stroke-linecap="round" stroke-linejoin="round" stroke-miterlimit="10" x1="631.908" y1="194.844" x2="725.118" y2="253.803"/>
		<polygon fill="none" stroke="#000000" stroke-linecap="round" stroke-linejoin="round" stroke-miterlimit="10" points="
			938.298,590.71 725.118,659.175 631.908,596.917 631.908,194.844 845.331,125.939 938.298,185.37 		"/>
		
			<line fill="none" stroke="#000000" stroke-linecap="round" stroke-linejoin="round" stroke-miterlimit="10" x1="845.331" y1="528.773" x2="938.298" y2="590.71"/>
	</g>
	<g>
		<polygon fill="#C1C2C2" points="621.707,434.321 621.707,599.229 716.432,663.099 725.118,659.175 725.118,495.69 630.124,432.21 
					"/>
		<polyline fill="none" stroke="#000000" stroke-linecap="round" stroke-linejoin="round" stroke-miterlimit="10" points="
			621.707,434.321 716.432,498.186 716.432,663.099 		"/>
		<polygon fill="none" stroke="#000000" stroke-linecap="round" stroke-linejoin="round" stroke-miterlimit="10" points="
			621.707,434.321 621.707,599.229 716.432,663.099 725.118,659.175 725.118,495.69 630.124,432.21 		"/>
		
			<line fill="none" stroke="#000000" stroke-linecap="round" stroke-linejoin="round" stroke-miterlimit="10" x1="716.432" y1="498.186" x2="725.118" y2="495.69"/>
	</g>
	<g>
		<polygon opacity="0.1" fill="#CC3F27" points="716.432,663.099 503.759,732.966 405.077,667.801 405.077,503.44 621.707,434.321 
			716.432,498.186 		"/>
		<polyline fill="none" stroke="#000000" stroke-linecap="round" stroke-linejoin="round" stroke-miterlimit="10" points="
			621.707,434.321 621.707,599.229 405.077,667.801 		"/>
		<g>
			<path fill="none" stroke="#000000" stroke-linecap="round" stroke-linejoin="round" stroke-miterlimit="10" d="M713.231,661.166"
				/>
			<polyline fill="none" stroke="#000000" stroke-linecap="round" stroke-linejoin="round" stroke-miterlimit="10" points="
				503.759,732.966 503.759,567.614 716.432,498.186 			"/>
		</g>
		
			<line fill="none" stroke="#000000" stroke-linecap="round" stroke-linejoin="round" stroke-miterlimit="10" x1="405.077" y1="503.44" x2="503.759" y2="567.614"/>
		<polygon fill="none" stroke="#000000" stroke-linecap="round" stroke-linejoin="round" stroke-miterlimit="10" points="
			716.432,663.099 503.759,732.966 405.077,667.801 405.077,503.44 621.707,434.321 716.432,498.186 		"/>
		
			<line fill="none" stroke="#000000" stroke-linecap="round" stroke-linejoin="round" stroke-miterlimit="10" x1="621.707" y1="599.229" x2="716.432" y2="663.099"/>
	</g>
</g>
<g>
	<g>
		<line fill="none" stroke="#000000" stroke-miterlimit="10" x1="813.44" y1="144.197" x2="813.44" y2="534.826"/>
		<g>
			<path d="M813.44,138.162c-1.054,2.84-2.852,6.363-4.756,8.547l4.756-1.72l4.755,1.72
				C816.291,144.525,814.493,141.002,813.44,138.162z"/>
		</g>
		<g>
			<path d="M813.44,540.861c-1.054-2.84-2.852-6.363-4.756-8.548l4.756,1.721l4.755-1.721
				C816.291,534.498,814.493,538.021,813.44,540.861z"/>
		</g>
	</g>
</g>
<g>
	<rect x="188.145" y="641.726" opacity="0.8" fill="#C1C2C2" width="150.758" height="33.078"/>
	<g>
		<path fill="#231F20" d="M204.586,664.063c-1.04,0.928-2.313,1.393-3.816,1.393h-5.352v-17.137h4.176
			c1.328,0,2.384,0.344,3.168,1.032c0.832,0.736,1.248,1.761,1.248,3.071c0,1.505-0.616,2.609-1.848,3.313
			c1.199,0.24,2.168,0.784,2.903,1.633c0.721,0.848,1.08,1.888,1.08,3.119C206.146,661.959,205.626,663.15,204.586,664.063z
			 M202.065,650.166c-0.656-0.575-1.456-0.863-2.399-0.863h-3.288v6.24h3.432c0.928,0,1.696-0.289,2.304-0.864
			c0.608-0.576,0.912-1.328,0.912-2.257C203.025,651.463,202.705,650.711,202.065,650.166z M203.866,657.582
			c-0.816-0.703-1.841-1.056-3.072-1.056h-4.416v7.944h4.416c1.216,0,2.247-0.368,3.096-1.104c0.864-0.736,1.296-1.696,1.296-2.881
			C205.186,659.287,204.745,658.318,203.866,657.582z"/>
		<path fill="#231F20" d="M213.273,657.006c-0.256-0.191-0.527-0.344-0.815-0.455s-0.593-0.168-0.912-0.168
			c-0.272,0-0.528,0.084-0.769,0.252c-0.239,0.168-0.447,0.376-0.624,0.624c-0.176,0.248-0.315,0.524-0.42,0.827
			c-0.104,0.305-0.155,0.585-0.155,0.841v6.528h-0.984v-9.912h0.984v1.344c0.207-0.368,0.479-0.704,0.815-1.008
			c0.336-0.305,0.704-0.457,1.104-0.457c0.495,0,0.903,0.057,1.224,0.169s0.68,0.312,1.08,0.6L213.273,657.006z"/>
		<path fill="#231F20" d="M223.882,665.455v-1.705c-1.04,1.248-2.36,1.873-3.96,1.873c-1.44,0-2.648-0.488-3.624-1.465
			c-0.992-0.992-1.488-2.207-1.488-3.647s0.488-2.647,1.464-3.624c0.992-0.992,2.208-1.488,3.648-1.488
			c1.584,0,2.904,0.624,3.96,1.872v-1.728h0.984v9.912H223.882z M222.85,657.582c-0.815-0.815-1.792-1.224-2.928-1.224
			c-1.152,0-2.128,0.4-2.928,1.2c-0.816,0.816-1.225,1.8-1.225,2.952c0,1.136,0.408,2.112,1.225,2.928
			c0.815,0.815,1.791,1.224,2.928,1.224c1.151,0,2.128-0.399,2.928-1.199c0.816-0.816,1.224-1.801,1.224-2.952
			C224.073,659.375,223.666,658.398,222.85,657.582z"/>
		<path fill="#231F20" d="M234.466,665.455v-5.929c0-2.096-0.944-3.144-2.832-3.144c-0.928,0-1.632,0.271-2.112,0.816
			c-0.496,0.543-0.743,1.287-0.743,2.231v6.024h-0.984v-9.912h0.984v1.199c0.447-0.879,1.399-1.32,2.855-1.32
			c1.232,0,2.176,0.354,2.832,1.057c0.656,0.704,0.984,1.688,0.984,2.952v6.024H234.466z"/>
		<path fill="#231F20" d="M247.209,665.455v-1.776c-1.056,1.296-2.399,1.944-4.032,1.944c-1.439,0-2.647-0.488-3.624-1.465
			c-0.992-0.992-1.487-2.207-1.487-3.647s0.487-2.647,1.464-3.624c0.992-0.992,2.208-1.488,3.647-1.488
			c1.584,0,2.929,0.648,4.032,1.944v-9.647h0.984v17.76H247.209z M246.105,657.582c-0.816-0.815-1.792-1.224-2.929-1.224
			c-1.151,0-2.128,0.4-2.928,1.2c-0.815,0.816-1.224,1.8-1.224,2.952c0,1.136,0.408,2.112,1.224,2.928
			c0.816,0.815,1.792,1.224,2.928,1.224c1.152,0,2.128-0.399,2.929-1.199c0.815-0.816,1.224-1.801,1.224-2.952
			C247.329,659.375,246.921,658.398,246.105,657.582z"/>
		<path fill="#231F20" d="M255.993,664.83c-0.641,0.545-1.408,0.816-2.304,0.816c-1.536,0-2.688-0.695-3.456-2.088l0.84-0.504
			c0.271,0.496,0.6,0.88,0.983,1.152c0.4,0.304,0.944,0.455,1.633,0.455c1.503,0,2.256-0.639,2.256-1.92
			c0-0.56-0.265-1.047-0.792-1.463c-0.16-0.097-0.389-0.205-0.685-0.324c-0.296-0.121-0.659-0.26-1.092-0.42
			c-0.8-0.289-1.376-0.576-1.728-0.865c-0.513-0.415-0.769-1.016-0.769-1.799c0-0.672,0.256-1.248,0.769-1.729
			c0.495-0.496,1.144-0.744,1.943-0.744c1.104,0,2.04,0.385,2.809,1.152l-0.721,0.624c-0.544-0.544-1.239-0.816-2.088-0.816
			c-1.151,0-1.728,0.505-1.728,1.513c0,0.447,0.176,0.815,0.528,1.104c0.287,0.225,0.743,0.44,1.367,0.648
			c0.544,0.191,0.992,0.371,1.345,0.539c0.352,0.168,0.615,0.316,0.792,0.444c0.688,0.528,1.031,1.24,1.031,2.136
			C256.929,663.606,256.617,664.303,255.993,664.83z"/>
		<path fill="#231F20" d="M259.258,660.295c0,1.344,0.359,2.408,1.08,3.191c0.751,0.801,1.783,1.2,3.096,1.2
			c0.672,0,1.279-0.112,1.824-0.336c0.688-0.288,1.304-0.872,1.848-1.752l0.888,0.407c-0.624,1.186-1.584,1.984-2.88,2.4
			c-0.496,0.16-1.056,0.24-1.68,0.24c-1.488,0-2.712-0.488-3.672-1.464c-0.977-0.976-1.464-2.2-1.464-3.672
			c0-1.488,0.479-2.712,1.439-3.673c0.976-0.975,2.208-1.463,3.696-1.463c1.472,0,2.688,0.455,3.647,1.367
			c0.977,0.912,1.465,2.097,1.465,3.553H259.258z M266.025,657.15c-0.752-0.543-1.616-0.816-2.592-0.816
			c-2.049,0-3.393,1.009-4.032,3.024h8.04C267.281,658.447,266.81,657.711,266.025,657.15z"/>
		<path fill="#231F20" d="M277.569,665.455l-5.185-5.16l-0.552,0.552v4.608h-0.983v-17.76h0.983v11.735l4.296-4.272h1.393
			l-4.488,4.465l5.832,5.832H277.569z"/>
		<path fill="#231F20" d="M281.169,656.526v8.929h-0.984v-8.929h-1.344v-0.983h1.344v-4.344h0.984v4.344h2.304v0.983H281.169z"/>
		<path fill="#231F20" d="M286.353,653.767c-0.176,0-0.359-0.071-0.552-0.216c-0.145-0.145-0.225-0.336-0.24-0.576
			c0-0.432,0.264-0.695,0.792-0.792c0.399,0,0.664,0.265,0.792,0.792C287.145,653.502,286.881,653.767,286.353,653.767z
			 M285.849,665.455v-9.912h0.984v9.912H285.849z"/>
		<path fill="#231F20" d="M298.112,664.135c-0.992,0.992-2.208,1.488-3.647,1.488c-1.44,0-2.648-0.488-3.624-1.465
			c-0.992-0.992-1.488-2.207-1.488-3.647c0-1.424,0.496-2.632,1.488-3.624c0.976-1.008,2.184-1.512,3.624-1.512
			c1.424,0,2.632,0.496,3.624,1.488s1.488,2.207,1.488,3.647S299.089,663.158,298.112,664.135z M297.417,657.559
			c-0.801-0.816-1.784-1.225-2.952-1.225c-1.12,0-2.088,0.417-2.904,1.248c-0.832,0.832-1.248,1.809-1.248,2.929
			c0,1.136,0.408,2.112,1.225,2.928c0.815,0.815,1.791,1.224,2.928,1.224c1.151,0,2.128-0.399,2.928-1.199
			c0.816-0.816,1.224-1.801,1.224-2.952C298.616,659.343,298.217,658.359,297.417,657.559z"/>
		<path fill="#231F20" d="M308.72,665.455v-5.929c0-2.096-0.944-3.144-2.832-3.144c-0.928,0-1.632,0.271-2.112,0.816
			c-0.496,0.543-0.743,1.287-0.743,2.231v6.024h-0.984v-9.912h0.984v1.199c0.447-0.879,1.399-1.32,2.855-1.32
			c1.232,0,2.176,0.354,2.832,1.057c0.656,0.704,0.984,1.688,0.984,2.952v6.024H308.72z"/>
		<path fill="#231F20" d="M330.872,665.455l-1.968-5.137h-7.8l-1.992,5.137h-0.96l6.84-17.688l6.864,17.688H330.872z
			 M324.992,650.263l-3.504,9.071h7.008L324.992,650.263z"/>
	</g>
	<rect x="188.145" y="641.726" fill="none" stroke="#000000" stroke-miterlimit="10" width="150.758" height="33.078"/>
</g>
<g>
	<rect x="314.573" y="695.335" opacity="0.8" fill="#C1C2C2" width="150.758" height="33.078"/>
	<g>
		<path fill="#231F20" d="M331.015,717.672c-1.04,0.928-2.313,1.393-3.816,1.393h-5.352v-17.137h4.176
			c1.328,0,2.384,0.344,3.168,1.032c0.832,0.736,1.248,1.761,1.248,3.071c0,1.505-0.616,2.609-1.848,3.313
			c1.199,0.24,2.168,0.784,2.903,1.633c0.721,0.848,1.08,1.888,1.08,3.119C332.574,715.568,332.055,716.76,331.015,717.672z
			 M328.494,703.775c-0.656-0.575-1.456-0.863-2.399-0.863h-3.288v6.24h3.432c0.928,0,1.696-0.289,2.304-0.864
			c0.608-0.576,0.912-1.328,0.912-2.257C329.454,705.072,329.134,704.32,328.494,703.775z M330.295,711.191
			c-0.816-0.703-1.841-1.056-3.072-1.056h-4.416v7.944h4.416c1.216,0,2.247-0.368,3.096-1.104c0.864-0.736,1.296-1.696,1.296-2.881
			C331.614,712.896,331.174,711.928,330.295,711.191z"/>
		<path fill="#231F20" d="M339.702,710.615c-0.256-0.191-0.527-0.344-0.815-0.455s-0.593-0.168-0.912-0.168
			c-0.272,0-0.528,0.084-0.769,0.252c-0.239,0.168-0.447,0.376-0.624,0.624c-0.176,0.248-0.315,0.524-0.42,0.827
			c-0.104,0.305-0.155,0.585-0.155,0.841v6.528h-0.984v-9.912h0.984v1.344c0.207-0.368,0.479-0.704,0.815-1.008
			c0.336-0.305,0.704-0.457,1.104-0.457c0.495,0,0.903,0.057,1.224,0.169s0.68,0.312,1.08,0.6L339.702,710.615z"/>
		<path fill="#231F20" d="M350.311,719.064v-1.705c-1.04,1.248-2.36,1.873-3.96,1.873c-1.44,0-2.648-0.488-3.624-1.465
			c-0.992-0.992-1.488-2.207-1.488-3.647s0.488-2.647,1.464-3.624c0.992-0.992,2.208-1.488,3.648-1.488
			c1.584,0,2.904,0.624,3.96,1.872v-1.728h0.984v9.912H350.311z M349.278,711.191c-0.815-0.815-1.792-1.224-2.928-1.224
			c-1.152,0-2.128,0.4-2.928,1.2c-0.816,0.816-1.225,1.8-1.225,2.952c0,1.136,0.408,2.112,1.225,2.928
			c0.815,0.815,1.791,1.224,2.928,1.224c1.151,0,2.128-0.399,2.928-1.199c0.816-0.816,1.224-1.801,1.224-2.952
			C350.502,712.984,350.095,712.008,349.278,711.191z"/>
		<path fill="#231F20" d="M360.895,719.064v-5.929c0-2.096-0.944-3.144-2.832-3.144c-0.928,0-1.632,0.271-2.112,0.816
			c-0.496,0.543-0.743,1.287-0.743,2.231v6.024h-0.984v-9.912h0.984v1.199c0.447-0.879,1.399-1.32,2.855-1.32
			c1.232,0,2.176,0.354,2.832,1.057c0.656,0.704,0.984,1.688,0.984,2.952v6.024H360.895z"/>
		<path fill="#231F20" d="M373.638,719.064v-1.776c-1.056,1.296-2.399,1.944-4.032,1.944c-1.439,0-2.647-0.488-3.624-1.465
			c-0.992-0.992-1.487-2.207-1.487-3.647s0.487-2.647,1.464-3.624c0.992-0.992,2.208-1.488,3.647-1.488
			c1.584,0,2.929,0.648,4.032,1.944v-9.647h0.984v17.76H373.638z M372.534,711.191c-0.816-0.815-1.792-1.224-2.929-1.224
			c-1.151,0-2.128,0.4-2.928,1.2c-0.815,0.816-1.224,1.8-1.224,2.952c0,1.136,0.408,2.112,1.224,2.928
			c0.816,0.815,1.792,1.224,2.928,1.224c1.152,0,2.128-0.399,2.929-1.199c0.815-0.816,1.224-1.801,1.224-2.952
			C373.758,712.984,373.35,712.008,372.534,711.191z"/>
		<path fill="#231F20" d="M382.422,718.439c-0.641,0.545-1.408,0.816-2.304,0.816c-1.536,0-2.688-0.695-3.456-2.088l0.84-0.504
			c0.271,0.496,0.6,0.88,0.983,1.152c0.4,0.304,0.944,0.455,1.633,0.455c1.503,0,2.256-0.639,2.256-1.92
			c0-0.56-0.265-1.047-0.792-1.463c-0.16-0.097-0.389-0.205-0.685-0.324c-0.296-0.121-0.659-0.26-1.092-0.42
			c-0.8-0.289-1.376-0.576-1.728-0.865c-0.513-0.415-0.769-1.016-0.769-1.799c0-0.672,0.256-1.248,0.769-1.729
			c0.495-0.496,1.144-0.744,1.943-0.744c1.104,0,2.04,0.385,2.809,1.152l-0.721,0.624c-0.544-0.544-1.239-0.816-2.088-0.816
			c-1.151,0-1.728,0.505-1.728,1.513c0,0.447,0.176,0.815,0.528,1.104c0.287,0.225,0.743,0.44,1.367,0.648
			c0.544,0.191,0.992,0.371,1.345,0.539c0.352,0.168,0.615,0.316,0.792,0.444c0.688,0.528,1.031,1.24,1.031,2.136
			C383.357,717.216,383.046,717.912,382.422,718.439z"/>
		<path fill="#231F20" d="M385.687,713.904c0,1.344,0.359,2.408,1.08,3.191c0.751,0.801,1.783,1.2,3.096,1.2
			c0.672,0,1.279-0.112,1.824-0.336c0.688-0.288,1.304-0.872,1.848-1.752l0.888,0.407c-0.624,1.186-1.584,1.984-2.88,2.4
			c-0.496,0.16-1.056,0.24-1.68,0.24c-1.488,0-2.712-0.488-3.672-1.464c-0.977-0.976-1.464-2.2-1.464-3.672
			c0-1.488,0.479-2.712,1.439-3.673c0.976-0.975,2.208-1.463,3.696-1.463c1.472,0,2.688,0.455,3.647,1.367
			c0.977,0.912,1.465,2.097,1.465,3.553H385.687z M392.454,710.76c-0.752-0.543-1.616-0.816-2.592-0.816
			c-2.049,0-3.393,1.009-4.032,3.024h8.04C393.71,712.057,393.238,711.32,392.454,710.76z"/>
		<path fill="#231F20" d="M403.998,719.064l-5.185-5.16l-0.552,0.552v4.608h-0.983v-17.76h0.983v11.735l4.296-4.272h1.393
			l-4.488,4.465l5.832,5.832H403.998z"/>
		<path fill="#231F20" d="M407.598,710.136v8.929h-0.984v-8.929h-1.344v-0.983h1.344v-4.344h0.984v4.344h2.304v0.983H407.598z"/>
		<path fill="#231F20" d="M412.781,707.376c-0.176,0-0.359-0.071-0.552-0.216c-0.145-0.145-0.225-0.336-0.24-0.576
			c0-0.432,0.264-0.695,0.792-0.792c0.399,0,0.664,0.265,0.792,0.792C413.573,707.111,413.31,707.376,412.781,707.376z
			 M412.277,719.064v-9.912h0.984v9.912H412.277z"/>
		<path fill="#231F20" d="M424.541,717.744c-0.992,0.992-2.208,1.488-3.647,1.488c-1.44,0-2.648-0.488-3.624-1.465
			c-0.992-0.992-1.488-2.207-1.488-3.647c0-1.424,0.496-2.632,1.488-3.624c0.976-1.008,2.184-1.512,3.624-1.512
			c1.424,0,2.632,0.496,3.624,1.488s1.488,2.207,1.488,3.647S425.518,716.768,424.541,717.744z M423.846,711.168
			c-0.801-0.816-1.784-1.225-2.952-1.225c-1.12,0-2.088,0.417-2.904,1.248c-0.832,0.832-1.248,1.809-1.248,2.929
			c0,1.136,0.408,2.112,1.225,2.928c0.815,0.815,1.791,1.224,2.928,1.224c1.151,0,2.128-0.399,2.928-1.199
			c0.816-0.816,1.224-1.801,1.224-2.952C425.045,712.952,424.646,711.969,423.846,711.168z"/>
		<path fill="#231F20" d="M435.148,719.064v-5.929c0-2.096-0.944-3.144-2.832-3.144c-0.928,0-1.632,0.271-2.112,0.816
			c-0.496,0.543-0.743,1.287-0.743,2.231v6.024h-0.984v-9.912h0.984v1.199c0.447-0.879,1.399-1.32,2.855-1.32
			c1.232,0,2.176,0.354,2.832,1.057c0.656,0.704,0.984,1.688,0.984,2.952v6.024H435.148z"/>
		<path fill="#231F20" d="M454.829,717.672c-1.04,0.928-2.313,1.393-3.816,1.393h-5.352v-17.137h4.176
			c1.328,0,2.384,0.344,3.168,1.032c0.832,0.736,1.248,1.761,1.248,3.071c0,1.505-0.616,2.609-1.848,3.313
			c1.199,0.24,2.168,0.784,2.903,1.633c0.721,0.848,1.08,1.888,1.08,3.119C456.389,715.568,455.869,716.76,454.829,717.672z
			 M452.309,703.775c-0.656-0.575-1.456-0.863-2.399-0.863h-3.288v6.24h3.432c0.928,0,1.696-0.289,2.304-0.864
			c0.608-0.576,0.912-1.328,0.912-2.257C453.269,705.072,452.948,704.32,452.309,703.775z M454.109,711.191
			c-0.816-0.703-1.841-1.056-3.072-1.056h-4.416v7.944h4.416c1.216,0,2.247-0.368,3.096-1.104c0.864-0.736,1.296-1.696,1.296-2.881
			C455.429,712.896,454.988,711.928,454.109,711.191z"/>
	</g>
	<rect x="314.573" y="695.335" fill="none" stroke="#000000" stroke-miterlimit="10" width="150.758" height="33.078"/>
</g>
</svg>
