<?xml version="1.0" encoding="utf-8"?>
<!-- Generator: Adobe Illustrator 16.0.0, SVG Export Plug-In . SVG Version: 6.00 Build 0)  -->
<!DOCTYPE svg PUBLIC "-//W3C//DTD SVG 1.1//EN" "http://www.w3.org/Graphics/SVG/1.1/DTD/svg11.dtd">
<svg version="1.1" id="Layer_1" xmlns="http://www.w3.org/2000/svg" xmlns:xlink="http://www.w3.org/1999/xlink" x="0px" y="0px"
	 width="1920px" height="1080px" viewBox="4043.297 0 1920 1080" enable-background="new 4043.297 0 1920 1080"
	 xml:space="preserve">
<g>
	<path fill="#EDEDED" d="M4736.682,544.141l624.678-176.674l-1.111,0.313c3.115-1.304,7.301,0.721,9.629,4.776
		c2.469,4.299,1.912,9.251-1.242,11.062c-0.25,0.144-0.51,0.264-0.777,0.36l-620.797,179.436c3.492-2.004,3.879-7.883,0.865-13.133
		C4745.063,545.292,4740.158,542.669,4736.682,544.141z"/>
	<g>
		<path fill="#EDEDED" d="M4747.061,563.616c3.492-2.004,3.879-7.883,0.865-13.134c-2.861-4.986-7.768-7.609-11.244-6.139
			c-0.184,0.077-0.359,0.166-0.533,0.266c-3.49,2.004-3.877,7.883-0.863,13.133C4738.297,562.991,4743.57,565.621,4747.061,563.616z
			"/>
		<path fill="none" stroke="#000000" stroke-miterlimit="10" d="M4747.061,563.413c-3.49,2.004-8.766-0.625-11.775-5.875
			c-3.014-5.25-2.627-11.129,0.863-13.133c0.174-0.101,0.352-0.188,0.533-0.265"/>
		<path fill="none" stroke="#000000" stroke-miterlimit="10" d="M4736.682,544.141c3.479-1.472,8.383,1.151,11.244,6.139
			c3.014,5.25,2.627,11.129-0.865,13.133"/>
		<path fill="none" stroke="#000000" stroke-miterlimit="10" d="M5360.25,367.779c3.115-1.304,7.301,0.721,9.627,4.776
			c2.469,4.299,1.912,9.251-1.24,11.062c-0.252,0.144-0.512,0.264-0.777,0.36"/>
	</g>
	<line fill="none" stroke="#000000" stroke-miterlimit="10" x1="4736.682" y1="544.141" x2="5361.359" y2="367.467"/>
	<line fill="none" stroke="#000000" stroke-miterlimit="10" x1="4747.061" y1="563.413" x2="5367.859" y2="383.976"/>
</g>
<g>
	<polygon opacity="0.1" fill="#008D36" enable-background="new    " points="5121.436,352.894 5247.932,322.001 5538.824,412.007 
		5511.713,628.543 5390.016,686.89 5124.436,552.008 	"/>
	<polyline fill="none" stroke="#000000" stroke-miterlimit="10" points="4707.078,696.374 4661.713,465.171 5247.932,322.001 
		5538.824,412.007 5511.713,628.543 4934.877,905.085 4707.078,696.374 	"/>
	<line fill="none" stroke="#000000" stroke-miterlimit="10" x1="5243.922" y1="510.678" x2="4707.078" y2="696.374"/>
	<line fill="none" stroke="#000000" stroke-miterlimit="10" x1="5511.713" y1="628.543" x2="5243.922" y2="510.678"/>
	<line fill="none" stroke="#000000" stroke-miterlimit="10" x1="5247.932" y1="322.001" x2="5243.922" y2="510.678"/>
	<line fill="none" stroke="#000000" stroke-miterlimit="10" x1="5407.039" y1="458.569" x2="5121.436" y2="352.894"/>
	<line fill="none" stroke="#000000" stroke-miterlimit="10" x1="4904.51" y1="636.125" x2="5538.824" y2="412.007"/>
	<polyline opacity="0.1" fill="#95C11F" enable-background="new    " points="4661.713,465.171 5121.436,352.894 5407.039,458.569 
		5390.016,686.89 4934.877,905.085 4707.078,696.374 	"/>
	<line fill="none" stroke="#000000" stroke-miterlimit="10" x1="4904.51" y1="636.125" x2="4661.713" y2="465.171"/>
	<line fill="none" stroke="#000000" stroke-miterlimit="10" x1="5124.436" y1="552.008" x2="5121.436" y2="352.894"/>
	<line fill="none" stroke="#000000" stroke-miterlimit="10" x1="4904.51" y1="636.125" x2="4934.877" y2="905.085"/>
	<line fill="none" stroke="#000000" stroke-miterlimit="10" x1="5407.039" y1="458.569" x2="5390.016" y2="686.89"/>
	<line fill="none" stroke="#000000" stroke-miterlimit="10" x1="5124.436" y1="552.008" x2="5390.016" y2="686.89"/>
</g>
<path fill="none" stroke="#000000" stroke-miterlimit="10" d="M5232.295,403.968c3.209-0.583,6.955,1.413,9.08,5.112
	c2.555,4.453,1.797,9.687-1.695,11.691c-0.205,0.118-0.414,0.222-0.629,0.313"/>
<g>
	<path fill="#FFFFFF" stroke="#000000" stroke-width="2" stroke-miterlimit="10" d="M4735.107,1039.855c0,6.627-5.373,12-12,12
		H4592.48c-6.627,0-12-5.373-12-12V864.832c0-6.628,5.373-12,12-12h130.627c6.627,0,12,5.372,12,12V1039.855z"/>
	<text transform="matrix(1 0 0 1 4595.459 893.2793)" font-family="'GeosansLight'" font-size="30">Zone A</text>
	<text transform="matrix(1 0 0 1 4595.459 935.2793)" font-family="'GeosansLight'" font-size="15">heated</text>
	
		<text transform="matrix(1 0 0 1 4595.459 845.6738)" stroke="#000000" stroke-width="0.2" stroke-miterlimit="10" font-family="'GeosansLight'" font-size="15">bot:Zone</text>
	<text transform="matrix(1 0 0 1 4595.459 965.2793)" font-family="'GeosansLight'" font-size="30">true</text>
	<text transform="matrix(1 0 0 1 4595.459 999.0371)" font-family="'GeosansLight'" font-size="15">ambient temperature</text>
	<text transform="matrix(1 0 0 1 4595.459 1029.0371)" font-family="'GeosansLight'" font-size="30">20 </text>
	<text transform="matrix(0.583 0 0 0.583 4636.1387 1013.0469)" font-family="'GeosansLight'" font-size="30">o</text>
	<text transform="matrix(1 0 0 1 4644.8486 1029.0371)" font-family="'GeosansLight'" font-size="30">C</text>
	
		<line fill="none" stroke="#000000" stroke-width="2" stroke-miterlimit="10" x1="4731.434" y1="856.276" x2="4817.104" y2="770.605"/>
</g>
<g>
	<path fill="#FFFFFF" stroke="#000000" stroke-width="2" stroke-miterlimit="10" d="M5666.93,914.859c0,6.627-5.373,12-12,12
		h-130.627c-6.627,0-12-5.373-12-12V739.836c0-6.628,5.373-12,12-12h130.627c6.627,0,12,5.372,12,12V914.859z"/>
	<text transform="matrix(1 0 0 1 5527.2813 768.2832)" font-family="'GeosansLight'" font-size="30">Zone B</text>
	<text transform="matrix(1 0 0 1 5527.2813 810.2832)" font-family="'GeosansLight'" font-size="15">heated</text>
	<text transform="matrix(1 0 0 1 5527.2813 840.2832)" font-family="'GeosansLight'" font-size="30">false</text>
	<text transform="matrix(1 0 0 1 5527.2813 874.041)" font-family="'GeosansLight'" font-size="15">ambient temperature</text>
	<text transform="matrix(1 0 0 1 5527.2813 904.041)" font-family="'GeosansLight'" font-size="30">5 </text>
	<text transform="matrix(0.583 0 0 0.583 5551.2813 888.0508)" font-family="'GeosansLight'" font-size="30">o</text>
	<text transform="matrix(1 0 0 1 5559.9902 904.041)" font-family="'GeosansLight'" font-size="30">C</text>
	
		<line fill="none" stroke="#000000" stroke-width="2" stroke-miterlimit="10" x1="5515.225" y1="732.313" x2="5434.768" y2="651.855"/>
</g>
<g>
	<path fill="#FFFFFF" stroke="#000000" stroke-width="2" stroke-miterlimit="10" d="M4991.65,322.525c0,6.627-5.373,12-12,12
		h-130.627c-6.627,0-12-5.373-12-12V83.744c0-6.628,5.373-12,12-12h130.627c6.627,0,12,5.372,12,12V322.525z"/>
	<text transform="matrix(1 0 0 1 4852.002 112.1914)" font-family="'GeosansLight'" font-size="30">Pipe A</text>
	<text transform="matrix(1 0 0 1 4852.002 154.1914)" font-family="'GeosansLight'" font-size="15">nominal diameter</text>
	<text transform="matrix(1 0 0 1 4852.002 184.1914)" font-family="'GeosansLight'" font-size="30">28x1.2</text>
	<text transform="matrix(1 0 0 1 4852.002 217.9492)" font-family="'GeosansLight'" font-size="15">inner diameter</text>
	<text transform="matrix(1 0 0 1 4852.002 281.707)" font-family="'GeosansLight'" font-size="15">length</text>
	<text transform="matrix(1 0 0 1 4852.002 311.707)" font-family="'GeosansLight'" font-size="30">12.6 m</text>
	<text transform="matrix(1 0 0 1 4852.002 247.9492)" font-family="'GeosansLight'" font-size="30">25.6 mm</text>
	
		<line fill="none" stroke="#000000" stroke-width="2" stroke-miterlimit="10" x1="4987.977" y1="330.67" x2="5106.221" y2="448.914"/>
	<text transform="matrix(1 0 0 1 4852.0029 46.5527)"><tspan x="0" y="0" stroke="#000000" stroke-width="0.2" stroke-miterlimit="10" font-family="'GeosansLight'" font-size="15">bot:Element</tspan><tspan x="0" y="18" stroke="#000000" stroke-width="0.2" stroke-miterlimit="10" font-family="'GeosansLight'" font-size="15">fso:Segment</tspan></text>
</g>
<g>
	<path fill="#FFFFFF" stroke="#000000" stroke-width="2" stroke-miterlimit="10" d="M4705.314,404.973c0,6.627-5.373,12-12,12
		h-157.613c-6.629,0-12-5.373-12-12V229.949c0-6.628,5.371-12,12-12h157.613c6.627,0,12,5.372,12,12V404.973z"/>
	<text transform="matrix(1 0 0 1 4538.6797 258.3965)" font-family="'GeosansLight'" font-size="30">PipeSurface X</text>
	<text transform="matrix(1 0 0 1 4538.6797 300.3965)" font-family="'GeosansLight'" font-size="15">insulation thickness</text>
	<text transform="matrix(1 0 0 1 4538.6797 330.3965)" font-family="'GeosansLight'" font-size="30">20 mm</text>
	<text transform="matrix(1 0 0 1 4538.6797 364.1543)" font-family="'GeosansLight'" font-size="15">length</text>
	<text transform="matrix(1 0 0 1 4538.6797 394.1543)" font-family="'GeosansLight'" font-size="30">5.6 m</text>
	
		<line fill="none" stroke="#000000" stroke-width="2" stroke-miterlimit="10" x1="4701.641" y1="413.117" x2="4819.885" y2="531.361"/>
	<text transform="matrix(1 0 0 1 4538.6816 192.8408)"><tspan x="0" y="0" stroke="#000000" stroke-width="0.2" stroke-miterlimit="10" font-family="'GeosansLight'" font-size="15">bot:Interface</tspan><tspan x="0" y="18" stroke="#000000" stroke-width="0.2" stroke-miterlimit="10" font-family="'GeosansLight'" font-size="15">ex:PipeSurface</tspan></text>
</g>
<g>
	<path fill="#FFFFFF" stroke="#000000" stroke-width="2" stroke-miterlimit="10" d="M5596.436,265.331c0,6.627-5.373,12-12,12
		h-157.613c-6.627,0-12-5.373-12-12V90.308c0-6.628,5.373-12,12-12h157.613c6.627,0,12,5.372,12,12V265.331z"/>
	<text transform="matrix(1 0 0 1 5429.8008 118.7549)" font-family="'GeosansLight'" font-size="30">PipeSurface Y</text>
	<text transform="matrix(1 0 0 1 5429.8008 160.7549)" font-family="'GeosansLight'" font-size="15">insulation thickness</text>
	<text transform="matrix(1 0 0 1 5429.8008 190.7549)" font-family="'GeosansLight'" font-size="30">50 mm</text>
	<text transform="matrix(1 0 0 1 5429.8008 224.5127)" font-family="'GeosansLight'" font-size="15">inner diameter</text>
	<text transform="matrix(1 0 0 1 5429.8008 254.5127)" font-family="'GeosansLight'" font-size="30">4.7 m</text>
	
		<line fill="none" stroke="#000000" stroke-width="2" stroke-miterlimit="10" x1="5417.781" y1="273.475" x2="5299.539" y2="391.72"/>
	<text transform="matrix(1 0 0 1 5429.8027 53.1992)"><tspan x="0" y="0" stroke="#000000" stroke-width="0.2" stroke-miterlimit="10" font-family="'GeosansLight'" font-size="15">bot:Interface</tspan><tspan x="0" y="18" stroke="#000000" stroke-width="0.2" stroke-miterlimit="10" font-family="'GeosansLight'" font-size="15">ex:PipeSurface</tspan></text>
</g>
<g>
	<g>
		<g>
			<g>
				<path fill="none" stroke="#000000" stroke-miterlimit="10" d="M4562.029,848.923
					c-108.225-76.205-363.045-531.462-38.328-531.462"/>
				<g>
					<polygon points="4561.592,841.891 4560.525,847.831 4555.51,851.187 4569.568,853.749 					"/>
				</g>
			</g>
		</g>
	</g>
</g>
<g>
	<g>
		<g>
			<g>
				<path fill="none" stroke="#000000" stroke-miterlimit="10" d="M5596.244,175.949c324.582,0,188.754,469.745,86.115,546.94"/>
				<g>
					<polygon points="5682.646,715.829 5683.826,721.747 5688.906,725.008 5674.896,727.836 					"/>
				</g>
			</g>
		</g>
	</g>
</g>
<text transform="matrix(1 0 0 1 4400.6797 591.543)"><tspan x="0" y="0" font-family="'GeosansLight'" font-size="25">bot:interfaceOf</tspan><tspan x="0" y="30" font-family="'GeosansLight'" font-size="25">   ex:intersectingZone</tspan></text>
<text transform="matrix(1 0 0 1 5608.6035 317.4609)"><tspan x="0" y="0" font-family="'GeosansLight'" font-size="25">    bot:interfaceOf</tspan><tspan x="0" y="30" font-family="'GeosansLight'" font-size="25">ex:intersectingZone</tspan></text>
<g>
	<g>
		<g>
			<g>
				<path fill="none" stroke="#000000" stroke-miterlimit="10" d="M5016.531,234.991c255.014-1.317,187.102-59.042,398.225-59.042"
					/>
				<g>
					<polygon points="5020.82,240.378 5018.381,234.858 5020.66,229.27 5007.574,235.014 					"/>
				</g>
			</g>
		</g>
	</g>
</g>
<g>
	<g>
		<g>
			<g>
				<path fill="none" stroke="#000000" stroke-miterlimit="10" d="M4817.09,135.618c-97.574,2.556-136.399,46.88-136.399,82.332"/>
				<g>
					<polygon points="4812.791,130.158 4815.239,135.674 4812.969,141.266 4826.045,135.502 					"/>
				</g>
			</g>
		</g>
	</g>
</g>
<text transform="matrix(1 0 0 1 5186.998 242.1328)"><tspan x="0" y="0" font-family="'GeosansLight'" font-size="25">bot:interfaceOf</tspan><tspan x="0" y="30" font-family="'GeosansLight'" font-size="25">ex:intersectingPipe</tspan></text>
<text transform="matrix(1 0 0 1 4538.6797 126.5469)"><tspan x="0" y="0" font-family="'GeosansLight'" font-size="25">bot:interfaceOf</tspan><tspan x="0" y="30" font-family="'GeosansLight'" font-size="25">ex:intersectingPipe</tspan></text>
<g>
	<path fill="#FFFFFF" stroke="#000000" stroke-width="2" stroke-miterlimit="10" d="M4417.098,316.709c0,6.627-5.373,12-12,12
		H4241.85c-6.629,0-12-5.373-12-12V77.928c0-6.628,5.371-12,12-12h163.248c6.627,0,12,5.372,12,12V316.709z"/>
	<text transform="matrix(1 0 0 1 4244.8262 106.375)" font-family="'GeosansLight'" font-size="30">System HS1</text>
	<text transform="matrix(1 0 0 1 4244.8262 148.375)" font-family="'GeosansLight'" font-size="15">fluid type</text>
	<text transform="matrix(1 0 0 1 4244.8262 178.375)" font-family="'GeosansLight'" font-size="30">water</text>
	<text transform="matrix(1 0 0 1 4244.8262 212.1328)" font-family="'GeosansLight'" font-size="15">fluid temperature</text>
	<text transform="matrix(1 0 0 1 4244.8262 275.8906)" font-family="'GeosansLight'" font-size="15">fluid density</text>
	<text transform="matrix(1 0 0 1 4244.8262 305.8906)" font-family="'GeosansLight'" font-size="30">985.69 kg/m</text>
	<text transform="matrix(0.583 0 0 0.583 4393.3242 293.9004)" font-family="'GeosansLight'" font-size="30">3</text>
	<text transform="matrix(1 0 0 1 4244.8262 242.1328)" font-family="'GeosansLight'" font-size="30">20 </text>
	<text transform="matrix(0.583 0 0 0.583 4285.5059 226.1426)" font-family="'GeosansLight'" font-size="30">o</text>
	<text transform="matrix(1 0 0 1 4294.2158 242.1328)" font-family="'GeosansLight'" font-size="30">C</text>
	
		<text transform="matrix(1 0 0 1 4244.8281 58.7256)" stroke="#000000" stroke-width="0.2" stroke-miterlimit="10" font-family="'GeosansLight'" font-size="15">fso:System</text>
</g>
<g>
	<g>
		<g>
			<g>
				<path fill="none" stroke="#000000" stroke-miterlimit="10" d="M4818.109,88.274c-107-51.165-335.623,18.101-401.012,18.101"/>
				<g>
					<polygon points="4816.871,81.465 4816.432,87.484 4811.795,91.347 4826.045,92.422 					"/>
				</g>
			</g>
		</g>
	</g>
</g>
<text transform="matrix(1 0 0 1 4456.9414 69.4351)" font-family="'GeosansLight'" font-size="25">fso:hasComponent</text>
<text transform="matrix(1 0 0 1 5527.2813 720.1924)" stroke="#000000" stroke-width="0.2" stroke-miterlimit="10" font-family="'GeosansLight'" font-size="15">bot:Zone</text>
</svg>
