<?xml version="1.0" encoding="utf-8"?>
<!-- Generator: Adobe Illustrator 16.0.0, SVG Export Plug-In . SVG Version: 6.00 Build 0)  -->
<!DOCTYPE svg PUBLIC "-//W3C//DTD SVG 1.1//EN" "http://www.w3.org/Graphics/SVG/1.1/DTD/svg11.dtd">
<svg version="1.1" id="Layer_1" xmlns="http://www.w3.org/2000/svg" xmlns:xlink="http://www.w3.org/1999/xlink" x="0px" y="0px"
	 width="1920px" height="1080px" viewBox="0 0 1920 1080" enable-background="new 0 0 1920 1080" xml:space="preserve">
<g>
	<path fill="#EDEDED" d="M693.385,544.141l624.677-176.674l-1.111,0.313c3.115-1.304,7.301,0.721,9.629,4.776
		c2.469,4.299,1.912,9.251-1.242,11.062c-0.25,0.144-0.51,0.264-0.777,0.36L703.764,563.413c3.492-2.004,3.879-7.883,0.865-13.133
		C701.766,545.292,696.862,542.669,693.385,544.141z"/>
	<g>
		<path fill="#EDEDED" d="M703.764,563.616c3.492-2.004,3.879-7.883,0.865-13.134c-2.861-4.986-7.768-7.609-11.244-6.139
			c-0.184,0.077-0.359,0.166-0.533,0.266c-3.49,2.004-3.877,7.883-0.863,13.133C695,562.991,700.274,565.621,703.764,563.616z"/>
		<path fill="none" stroke="#000000" stroke-miterlimit="10" d="M703.764,563.413c-3.49,2.004-8.766-0.625-11.775-5.875
			c-3.014-5.25-2.627-11.129,0.863-13.133c0.174-0.101,0.352-0.188,0.533-0.265"/>
		<path fill="none" stroke="#000000" stroke-miterlimit="10" d="M693.385,544.141c3.479-1.472,8.383,1.151,11.244,6.139
			c3.014,5.25,2.627,11.129-0.865,13.133"/>
		<path fill="none" stroke="#000000" stroke-miterlimit="10" d="M1316.953,367.779c3.115-1.304,7.301,0.721,9.627,4.776
			c2.469,4.299,1.912,9.251-1.24,11.062c-0.252,0.144-0.512,0.264-0.777,0.36"/>
	</g>
	<line fill="none" stroke="#000000" stroke-miterlimit="10" x1="693.385" y1="544.141" x2="1318.063" y2="367.467"/>
	<line fill="none" stroke="#000000" stroke-miterlimit="10" x1="703.764" y1="563.413" x2="1324.563" y2="383.976"/>
</g>
<g>
	<polygon opacity="0.1" fill="#008D36" enable-background="new    " points="1078.139,352.894 1204.635,322.001 1495.527,412.007 
		1468.416,628.543 1346.719,686.89 1081.139,552.008 	"/>
	<polyline fill="none" stroke="#000000" stroke-miterlimit="10" points="663.782,696.374 618.417,465.171 1204.635,322.001 
		1495.527,412.007 1468.416,628.543 891.581,905.085 663.782,696.374 	"/>
	<line fill="none" stroke="#000000" stroke-miterlimit="10" x1="1200.625" y1="510.678" x2="663.782" y2="696.374"/>
	<line fill="none" stroke="#000000" stroke-miterlimit="10" x1="1468.416" y1="628.543" x2="1200.625" y2="510.678"/>
	<line fill="none" stroke="#000000" stroke-miterlimit="10" x1="1204.635" y1="322.001" x2="1200.625" y2="510.678"/>
	<line fill="none" stroke="#000000" stroke-miterlimit="10" x1="1363.742" y1="458.569" x2="1078.139" y2="352.894"/>
	<line fill="none" stroke="#000000" stroke-miterlimit="10" x1="861.213" y1="636.125" x2="1495.527" y2="412.007"/>
	<polyline opacity="0.1" fill="#95C11F" enable-background="new    " points="618.417,465.171 1078.139,352.894 1363.742,458.569 
		1346.719,686.89 891.581,905.085 663.782,696.374 	"/>
	<line fill="none" stroke="#000000" stroke-miterlimit="10" x1="861.213" y1="636.125" x2="618.417" y2="465.171"/>
	<line fill="none" stroke="#000000" stroke-miterlimit="10" x1="1081.139" y1="552.008" x2="1078.139" y2="352.894"/>
	<line fill="none" stroke="#000000" stroke-miterlimit="10" x1="861.213" y1="636.125" x2="891.581" y2="905.085"/>
	<line fill="none" stroke="#000000" stroke-miterlimit="10" x1="1363.742" y1="458.569" x2="1346.719" y2="686.89"/>
	<line fill="none" stroke="#000000" stroke-miterlimit="10" x1="1081.139" y1="552.008" x2="1346.719" y2="686.89"/>
</g>
<path fill="none" stroke="#000000" stroke-miterlimit="10" d="M1188.998,403.968c3.209-0.583,6.955,1.413,9.08,5.112
	c2.555,4.453,1.797,9.687-1.695,11.691c-0.205,0.118-0.414,0.222-0.629,0.313"/>
<g>
	<path fill="#FFFFFF" stroke="#000000" stroke-miterlimit="10" d="M691.811,901.717c0,6.627-5.373,12-12,12H549.184
		c-6.627,0-12-5.373-12-12v-36.885c0-6.628,5.373-12,12-12h130.627c6.627,0,12,5.372,12,12V901.717z"/>
	<g>
		<path d="M555.522,892.049h12.24v1.23h-14.43l12.27-20.16h-11.55v-1.26h13.77L555.522,892.049z"/>
		<path d="M579.252,891.629c-1.24,1.24-2.76,1.86-4.56,1.86c-1.8,0-3.31-0.61-4.53-1.83c-1.24-1.239-1.86-2.76-1.86-4.56
			c0-1.78,0.62-3.29,1.86-4.53c1.22-1.261,2.73-1.89,4.53-1.89c1.78,0,3.29,0.619,4.53,1.859c1.24,1.24,1.86,2.76,1.86,4.561
			C581.083,888.899,580.472,890.41,579.252,891.629z M578.382,883.409c-1-1.021-2.23-1.53-3.69-1.53c-1.4,0-2.61,0.521-3.63,1.561
			c-1.04,1.04-1.56,2.26-1.56,3.66c0,1.42,0.51,2.64,1.53,3.66c1.02,1.02,2.24,1.529,3.66,1.529c1.44,0,2.66-0.5,3.66-1.5
			c1.02-1.02,1.53-2.25,1.53-3.689C579.882,885.64,579.382,884.41,578.382,883.409z"/>
		<path d="M592.512,893.279v-7.41c0-2.619-1.18-3.93-3.54-3.93c-1.16,0-2.04,0.34-2.64,1.02c-0.62,0.681-0.93,1.61-0.93,2.791v7.529
			h-1.23v-12.391h1.23v1.5c0.56-1.1,1.75-1.649,3.57-1.649c1.54,0,2.72,0.44,3.54,1.319c0.82,0.881,1.23,2.111,1.23,3.691v7.529
			H592.512z"/>
		<path d="M597.942,886.829c0,1.681,0.45,3.011,1.35,3.99c0.94,1.001,2.23,1.5,3.87,1.5c0.84,0,1.6-0.14,2.28-0.42
			c0.859-0.36,1.629-1.09,2.31-2.19l1.11,0.51c-0.78,1.48-1.98,2.48-3.6,3c-0.62,0.2-1.32,0.301-2.1,0.301
			c-1.86,0-3.39-0.609-4.59-1.83c-1.22-1.22-1.83-2.75-1.83-4.59c0-1.86,0.6-3.391,1.8-4.59c1.22-1.221,2.76-1.83,4.62-1.83
			c1.84,0,3.36,0.57,4.56,1.709c1.22,1.141,1.83,2.621,1.83,4.44H597.942z M606.402,882.899c-0.94-0.68-2.021-1.021-3.24-1.021
			c-2.56,0-4.24,1.26-5.04,3.78h10.05C607.972,884.52,607.381,883.6,606.402,882.899z"/>
		<path d="M634.901,893.279l-2.46-6.42h-9.75l-2.49,6.42h-1.2l8.55-22.109l8.58,22.109H634.901z M627.551,874.289l-4.38,11.34h8.76
			L627.551,874.289z"/>
	</g>
	<g>
		<path stroke="#000000" stroke-width="0.2" stroke-miterlimit="10" d="M558.417,844.849c-0.62,0.62-1.38,0.931-2.28,0.931
			c-1.03,0-1.875-0.416-2.535-1.246v1.141h-0.615v-11.1h0.615v6.06c0.65-0.83,1.495-1.245,2.535-1.245
			c0.9,0,1.655,0.305,2.265,0.915c0.62,0.62,0.93,1.38,0.93,2.28S559.027,844.238,558.417,844.849z M557.968,840.754
			c-0.51-0.51-1.12-0.766-1.83-0.766c-0.72,0-1.33,0.25-1.83,0.75c-0.51,0.511-0.765,1.125-0.765,1.846
			c0,0.71,0.255,1.32,0.765,1.83c0.51,0.51,1.12,0.765,1.83,0.765c0.72,0,1.33-0.249,1.83-0.75c0.51-0.51,0.765-1.125,0.765-1.845
			C558.732,841.874,558.478,841.264,557.968,840.754z"/>
		<path stroke="#000000" stroke-width="0.2" stroke-miterlimit="10" d="M565.917,844.849c-0.62,0.62-1.38,0.931-2.28,0.931
			c-0.9,0-1.655-0.305-2.265-0.916c-0.62-0.619-0.93-1.379-0.93-2.279c0-0.891,0.31-1.645,0.93-2.266
			c0.61-0.629,1.365-0.944,2.265-0.944c0.89,0,1.645,0.31,2.265,0.93s0.93,1.38,0.93,2.28S566.527,844.238,565.917,844.849z
			 M565.482,840.738c-0.5-0.51-1.115-0.765-1.845-0.765c-0.7,0-1.305,0.261-1.815,0.78c-0.52,0.52-0.78,1.13-0.78,1.83
			c0,0.71,0.255,1.32,0.765,1.83c0.51,0.51,1.12,0.765,1.83,0.765c0.72,0,1.33-0.249,1.83-0.75c0.51-0.51,0.765-1.125,0.765-1.845
			C566.232,841.854,565.982,841.238,565.482,840.738z"/>
		<path stroke="#000000" stroke-width="0.2" stroke-miterlimit="10" d="M569.307,840.094v5.58h-0.615v-5.58h-0.84v-0.615h0.84
			v-2.715h0.615v2.715h1.44v0.615H569.307z"/>
		<path stroke="#000000" stroke-width="0.2" stroke-miterlimit="10" d="M572.397,841.339c-0.11,0-0.225-0.045-0.345-0.136
			c-0.09-0.09-0.14-0.209-0.15-0.359c0-0.27,0.165-0.436,0.495-0.495c0.25,0,0.415,0.165,0.495,0.495
			C572.892,841.174,572.727,841.339,572.397,841.339z M572.397,845.764c-0.11,0-0.225-0.045-0.345-0.135
			c-0.09-0.09-0.14-0.21-0.15-0.359c0-0.271,0.165-0.436,0.495-0.496c0.25,0,0.415,0.166,0.495,0.496
			C572.892,845.599,572.727,845.764,572.397,845.764z"/>
		<path stroke="#000000" stroke-width="0.2" stroke-miterlimit="10" d="M575.262,845.059h6.12v0.615h-7.215l6.135-10.08h-5.775
			v-0.63h6.885L575.262,845.059z"/>
		<path stroke="#000000" stroke-width="0.2" stroke-miterlimit="10" d="M587.126,844.849c-0.62,0.62-1.38,0.931-2.28,0.931
			c-0.9,0-1.655-0.305-2.265-0.916c-0.62-0.619-0.93-1.379-0.93-2.279c0-0.891,0.31-1.645,0.93-2.266
			c0.61-0.629,1.365-0.944,2.265-0.944c0.89,0,1.645,0.31,2.265,0.93s0.93,1.38,0.93,2.28S587.736,844.238,587.126,844.849z
			 M586.691,840.738c-0.5-0.51-1.115-0.765-1.845-0.765c-0.7,0-1.305,0.261-1.815,0.78c-0.52,0.52-0.78,1.13-0.78,1.83
			c0,0.71,0.255,1.32,0.765,1.83c0.51,0.51,1.12,0.765,1.83,0.765c0.72,0,1.33-0.249,1.83-0.75c0.51-0.51,0.765-1.125,0.765-1.845
			C587.441,841.854,587.191,841.238,586.691,840.738z"/>
		<path stroke="#000000" stroke-width="0.2" stroke-miterlimit="10" d="M593.756,845.674v-3.705c0-1.311-0.59-1.965-1.77-1.965
			c-0.58,0-1.02,0.17-1.32,0.51c-0.31,0.34-0.465,0.805-0.465,1.395v3.766h-0.615v-6.195h0.615v0.75
			c0.28-0.549,0.875-0.824,1.785-0.824c0.77,0,1.36,0.22,1.77,0.66c0.41,0.439,0.615,1.055,0.615,1.844v3.766H593.756z"/>
		<path stroke="#000000" stroke-width="0.2" stroke-miterlimit="10" d="M596.471,842.449c0,0.84,0.225,1.505,0.675,1.994
			c0.47,0.5,1.115,0.75,1.935,0.75c0.42,0,0.8-0.069,1.14-0.209c0.43-0.181,0.815-0.545,1.155-1.096l0.555,0.256
			c-0.39,0.739-0.99,1.239-1.8,1.5c-0.31,0.1-0.66,0.149-1.05,0.149c-0.93,0-1.695-0.306-2.295-0.915
			c-0.61-0.609-0.915-1.375-0.915-2.295c0-0.93,0.3-1.695,0.9-2.295c0.61-0.609,1.38-0.915,2.31-0.915c0.92,0,1.68,0.284,2.28,0.854
			c0.61,0.57,0.915,1.311,0.915,2.221H596.471z M600.701,840.484c-0.47-0.34-1.01-0.511-1.62-0.511c-1.28,0-2.121,0.63-2.52,1.89
			h5.025C601.486,841.294,601.191,840.834,600.701,840.484z"/>
	</g>
	
		<line fill="none" stroke="#000000" stroke-width="2" stroke-miterlimit="10" x1="688.137" y1="856.276" x2="773.807" y2="770.605"/>
</g>
<g>
	<path fill="#FFFFFF" stroke="#000000" stroke-miterlimit="10" d="M1623.633,776.721c0,6.627-5.373,12-12,12h-130.627
		c-6.627,0-12-5.373-12-12v-36.885c0-6.628,5.373-12,12-12h130.627c6.627,0,12,5.372,12,12V776.721z"/>
	<g>
		<path d="M1487.344,767.053h12.24v1.23h-14.43l12.27-20.16h-11.549v-1.26h13.77L1487.344,767.053z"/>
		<path d="M1511.074,766.633c-1.24,1.24-2.76,1.86-4.561,1.86c-1.799,0-3.31-0.61-4.529-1.83c-1.24-1.239-1.86-2.76-1.86-4.56
			c0-1.78,0.62-3.29,1.86-4.53c1.22-1.261,2.73-1.89,4.529-1.89c1.78,0,3.29,0.619,4.531,1.859c1.239,1.24,1.859,2.76,1.859,4.561
			C1512.904,763.903,1512.294,765.414,1511.074,766.633z M1510.204,758.413c-1-1.021-2.229-1.53-3.69-1.53
			c-1.399,0-2.609,0.521-3.629,1.561c-1.041,1.04-1.561,2.26-1.561,3.66c0,1.42,0.51,2.64,1.529,3.66
			c1.021,1.02,2.24,1.529,3.66,1.529c1.44,0,2.66-0.5,3.66-1.5c1.021-1.02,1.53-2.25,1.53-3.689
			C1511.704,760.644,1511.204,759.414,1510.204,758.413z"/>
		<path d="M1524.334,768.283v-7.41c0-2.619-1.181-3.93-3.541-3.93c-1.16,0-2.039,0.34-2.639,1.02
			c-0.621,0.681-0.931,1.61-0.931,2.791v7.529h-1.229v-12.391h1.229v1.5c0.56-1.1,1.75-1.649,3.569-1.649
			c1.541,0,2.721,0.44,3.541,1.319c0.819,0.881,1.229,2.111,1.229,3.691v7.529H1524.334z"/>
		<path d="M1529.764,761.833c0,1.681,0.449,3.011,1.35,3.99c0.939,1.001,2.23,1.5,3.87,1.5c0.84,0,1.601-0.14,2.28-0.42
			c0.859-0.36,1.629-1.09,2.31-2.19l1.11,0.51c-0.78,1.48-1.98,2.48-3.6,3c-0.621,0.2-1.32,0.301-2.101,0.301
			c-1.86,0-3.39-0.609-4.59-1.83c-1.22-1.22-1.83-2.75-1.83-4.59c0-1.86,0.601-3.391,1.8-4.59c1.22-1.221,2.76-1.83,4.62-1.83
			c1.84,0,3.36,0.57,4.56,1.709c1.221,1.141,1.83,2.621,1.83,4.44H1529.764z M1538.224,757.903c-0.94-0.68-2.021-1.021-3.24-1.021
			c-2.56,0-4.24,1.26-5.04,3.78h10.051C1539.793,759.523,1539.203,758.604,1538.224,757.903z"/>
		<path d="M1563.633,766.543c-1.301,1.16-2.891,1.74-4.77,1.74h-6.69v-21.42h5.22c1.66,0,2.98,0.43,3.961,1.29
			c1.039,0.92,1.56,2.2,1.56,3.84c0,1.88-0.771,3.261-2.31,4.14c1.5,0.301,2.709,0.98,3.629,2.041c0.9,1.06,1.351,2.359,1.351,3.899
			C1565.583,763.914,1564.934,765.403,1563.633,766.543z M1560.482,749.174c-0.82-0.721-1.819-1.08-3-1.08h-4.109v7.799h4.29
			c1.159,0,2.12-0.359,2.88-1.08c0.76-0.719,1.141-1.659,1.141-2.819C1561.684,750.793,1561.283,749.854,1560.482,749.174z
			 M1562.732,758.443c-1.02-0.88-2.299-1.32-3.84-1.32h-5.52v9.93h5.52c1.52,0,2.811-0.459,3.871-1.379
			c1.08-0.92,1.619-2.12,1.619-3.601C1564.383,760.573,1563.832,759.363,1562.732,758.443z"/>
	</g>
	
		<line fill="none" stroke="#000000" stroke-width="2" stroke-miterlimit="10" x1="1471.928" y1="732.313" x2="1391.471" y2="651.855"/>
</g>
<g>
	<path fill="#FFFFFF" stroke="#000000" stroke-miterlimit="10" d="M948.354,322.562c0,6.627-5.373,12-12,12H805.727
		c-6.627,0-12-5.373-12-12v-36.885c0-6.628,5.373-12,12-12h130.627c6.627,0,12,5.372,12,12V322.562z"/>
	<g>
		<path d="M820.346,301.914c-1.121,1-2.5,1.5-4.14,1.5h-4.02v10.71h-1.2v-21.42h5.22c1.64,0,3.02,0.48,4.14,1.44
			c1.12,0.96,1.68,2.25,1.68,3.87C822.025,299.654,821.465,300.954,820.346,301.914z M819.416,294.954
			c-0.82-0.68-1.9-1.02-3.24-1.02h-3.99v8.25h3.99c1.32,0,2.419-0.36,3.3-1.08c0.88-0.76,1.32-1.79,1.32-3.09
			C820.795,296.714,820.335,295.694,819.416,294.954z"/>
		<path d="M825.595,299.514c-0.22,0-0.45-0.09-0.69-0.27c-0.18-0.18-0.28-0.42-0.3-0.72c0-0.54,0.33-0.87,0.99-0.99
			c0.5,0,0.83,0.33,0.99,0.99C826.585,299.184,826.255,299.514,825.595,299.514z M824.965,314.124v-12.39h1.23v12.39H824.965z"/>
		<path d="M839.725,312.474c-1.24,1.24-2.76,1.86-4.56,1.86c-2.06,0-3.76-0.84-5.1-2.52v8.13h-1.23v-18.21h1.23v2.34
			c1.28-1.68,2.98-2.52,5.1-2.52c1.8,0,3.31,0.61,4.53,1.83c1.24,1.241,1.86,2.76,1.86,4.56
			C841.555,309.744,840.945,311.254,839.725,312.474z M838.825,304.284c-1.02-1.02-2.24-1.53-3.66-1.53c-1.44,0-2.66,0.5-3.66,1.5
			c-1.02,1.02-1.53,2.25-1.53,3.69c0,1.42,0.51,2.64,1.53,3.66s2.24,1.53,3.66,1.53c1.44,0,2.66-0.5,3.66-1.5
			c1.02-1.02,1.53-2.25,1.53-3.69C840.355,306.524,839.845,305.304,838.825,304.284z"/>
		<path d="M844.525,307.674c0,1.68,0.45,3.011,1.35,3.99c0.94,1,2.23,1.5,3.87,1.5c0.84,0,1.6-0.14,2.28-0.42
			c0.859-0.36,1.629-1.09,2.31-2.19l1.11,0.51c-0.78,1.48-1.98,2.48-3.6,3c-0.62,0.2-1.32,0.3-2.1,0.3c-1.86,0-3.39-0.61-4.59-1.83
			c-1.22-1.22-1.83-2.75-1.83-4.59c0-1.86,0.6-3.39,1.8-4.59c1.22-1.22,2.76-1.83,4.62-1.83c1.84,0,3.36,0.57,4.56,1.71
			c1.22,1.14,1.83,2.621,1.83,4.44H844.525z M852.985,303.744c-0.94-0.68-2.021-1.02-3.24-1.02c-2.56,0-4.24,1.26-5.04,3.78h10.05
			C854.555,305.364,853.964,304.444,852.985,303.744z"/>
		<path d="M881.484,314.124l-2.46-6.42h-9.75l-2.49,6.42h-1.2l8.55-22.11l8.58,22.11H881.484z M874.134,295.134l-4.38,11.34h8.76
			L874.134,295.134z"/>
	</g>
	<line fill="none" stroke="#000000" stroke-width="2" stroke-miterlimit="10" x1="944.68" y1="330.67" x2="1062.924" y2="448.914"/>
	<g>
		<path stroke="#000000" stroke-width="0.2" stroke-miterlimit="10" d="M814.961,247.66c-0.62,0.62-1.38,0.93-2.28,0.93
			c-1.03,0-1.875-0.415-2.535-1.245v1.14h-0.615v-11.1h0.615v6.06c0.65-0.83,1.495-1.245,2.535-1.245c0.9,0,1.655,0.305,2.265,0.915
			c0.62,0.62,0.93,1.38,0.93,2.28C815.876,246.295,815.571,247.05,814.961,247.66z M814.511,243.565
			c-0.51-0.51-1.12-0.765-1.83-0.765c-0.72,0-1.33,0.25-1.83,0.75c-0.51,0.51-0.765,1.125-0.765,1.845c0,0.71,0.255,1.32,0.765,1.83
			c0.51,0.51,1.12,0.765,1.83,0.765c0.72,0,1.33-0.25,1.83-0.75c0.51-0.51,0.765-1.125,0.765-1.845
			C815.276,244.686,815.021,244.075,814.511,243.565z"/>
		<path stroke="#000000" stroke-width="0.2" stroke-miterlimit="10" d="M822.461,247.66c-0.62,0.62-1.38,0.93-2.28,0.93
			c-0.9,0-1.655-0.305-2.265-0.915c-0.62-0.62-0.93-1.38-0.93-2.28c0-0.89,0.31-1.645,0.93-2.265c0.61-0.63,1.365-0.945,2.265-0.945
			c0.89,0,1.645,0.31,2.265,0.93c0.62,0.62,0.93,1.38,0.93,2.28C823.376,246.295,823.071,247.05,822.461,247.66z M822.026,243.55
			c-0.5-0.51-1.115-0.765-1.845-0.765c-0.7,0-1.305,0.26-1.815,0.78c-0.52,0.52-0.78,1.13-0.78,1.83c0,0.71,0.255,1.32,0.765,1.83
			c0.51,0.51,1.12,0.765,1.83,0.765c0.72,0,1.33-0.25,1.83-0.75c0.51-0.51,0.765-1.125,0.765-1.845
			C822.776,244.666,822.526,244.05,822.026,243.55z"/>
		<path stroke="#000000" stroke-width="0.2" stroke-miterlimit="10" d="M825.851,242.905v5.58h-0.615v-5.58h-0.84v-0.615h0.84
			v-2.715h0.615v2.715h1.44v0.615H825.851z"/>
		<path stroke="#000000" stroke-width="0.2" stroke-miterlimit="10" d="M828.94,244.15c-0.11,0-0.225-0.045-0.345-0.135
			c-0.09-0.09-0.14-0.21-0.15-0.36c0-0.27,0.165-0.435,0.495-0.495c0.25,0,0.415,0.165,0.495,0.495
			C829.436,243.985,829.271,244.15,828.94,244.15z M828.94,248.575c-0.11,0-0.225-0.045-0.345-0.135c-0.09-0.09-0.14-0.21-0.15-0.36
			c0-0.27,0.165-0.435,0.495-0.495c0.25,0,0.415,0.165,0.495,0.495C829.436,248.41,829.271,248.575,828.94,248.575z"/>
		<path stroke="#000000" stroke-width="0.2" stroke-miterlimit="10" d="M831.19,248.485v-10.71h5.145v0.615h-4.53v3.9h4.53v0.66
			h-4.53v4.92h4.53v0.615H831.19z"/>
		<path stroke="#000000" stroke-width="0.2" stroke-miterlimit="10" d="M837.61,248.485v-11.1h0.6v11.1H837.61z"/>
		<path stroke="#000000" stroke-width="0.2" stroke-miterlimit="10" d="M840.445,245.26c0,0.84,0.225,1.505,0.675,1.995
			c0.47,0.5,1.115,0.75,1.935,0.75c0.42,0,0.8-0.07,1.14-0.21c0.43-0.18,0.815-0.545,1.155-1.095l0.555,0.255
			c-0.39,0.74-0.99,1.24-1.8,1.5c-0.31,0.1-0.66,0.15-1.05,0.15c-0.93,0-1.695-0.305-2.295-0.915
			c-0.61-0.61-0.915-1.375-0.915-2.295c0-0.93,0.3-1.695,0.9-2.295c0.61-0.61,1.38-0.915,2.31-0.915c0.92,0,1.68,0.285,2.28,0.855
			c0.61,0.57,0.915,1.31,0.915,2.22H840.445z M844.675,243.295c-0.47-0.34-1.01-0.51-1.62-0.51c-1.28,0-2.121,0.63-2.52,1.89h5.025
			C845.46,244.105,845.165,243.646,844.675,243.295z"/>
		<path stroke="#000000" stroke-width="0.2" stroke-miterlimit="10" d="M854.725,248.485v-4.275c0-0.38-0.125-0.71-0.375-0.99
			c-0.25-0.28-0.61-0.42-1.08-0.42c-0.97,0-1.455,0.47-1.455,1.41v4.275H851.2v-4.275c0-0.42-0.14-0.755-0.42-1.005
			c-0.291-0.27-0.635-0.405-1.035-0.405c-0.41,0-0.755,0.13-1.035,0.39c-0.28,0.25-0.42,0.59-0.42,1.02v4.275h-0.615v-6.195h0.615
			v0.615c0.3-0.47,0.785-0.705,1.455-0.705c0.8,0,1.39,0.325,1.77,0.975c0.36-0.65,0.945-0.975,1.755-0.975
			c0.62,0,1.12,0.175,1.5,0.525c0.38,0.36,0.57,0.855,0.57,1.485v4.275H854.725z"/>
		<path stroke="#000000" stroke-width="0.2" stroke-miterlimit="10" d="M857.44,245.26c0,0.84,0.225,1.505,0.675,1.995
			c0.47,0.5,1.115,0.75,1.935,0.75c0.42,0,0.8-0.07,1.14-0.21c0.43-0.18,0.815-0.545,1.155-1.095l0.555,0.255
			c-0.39,0.74-0.99,1.24-1.8,1.5c-0.31,0.1-0.66,0.15-1.05,0.15c-0.93,0-1.695-0.305-2.295-0.915
			c-0.61-0.61-0.915-1.375-0.915-2.295c0-0.93,0.3-1.695,0.9-2.295c0.61-0.61,1.38-0.915,2.31-0.915c0.92,0,1.68,0.285,2.28,0.855
			c0.61,0.57,0.915,1.31,0.915,2.22H857.44z M861.67,243.295c-0.47-0.34-1.01-0.51-1.62-0.51c-1.28,0-2.121,0.63-2.52,1.89h5.025
			C862.455,244.105,862.16,243.646,861.67,243.295z"/>
		<path stroke="#000000" stroke-width="0.2" stroke-miterlimit="10" d="M868.84,248.485v-3.705c0-1.31-0.59-1.965-1.77-1.965
			c-0.58,0-1.02,0.17-1.32,0.51c-0.31,0.34-0.465,0.805-0.465,1.395v3.765h-0.615v-6.195h0.615v0.75
			c0.28-0.55,0.875-0.825,1.785-0.825c0.77,0,1.36,0.22,1.77,0.66c0.41,0.44,0.615,1.055,0.615,1.845v3.765H868.84z"/>
		<path stroke="#000000" stroke-width="0.2" stroke-miterlimit="10" d="M872.365,242.905v5.58h-0.615v-5.58h-0.84v-0.615h0.84
			v-2.715h0.615v2.715h1.44v0.615H872.365z"/>
		<path stroke="#000000" stroke-width="0.2" stroke-miterlimit="10" d="M812.051,256l-0.405-0.045c-0.56,0-0.84,0.33-0.84,0.99
			v3.345h1.47v0.615h-1.47v5.58h-0.615v-5.58h-0.84v-0.615h0.84v-3.525c0-0.95,0.48-1.425,1.44-1.425c0.22,0,0.36,0.01,0.42,0.03
			c0.12,0,0.255,0.035,0.405,0.105v0.615L812.051,256z"/>
		<path stroke="#000000" stroke-width="0.2" stroke-miterlimit="10" d="M816.806,266.095c-0.4,0.34-0.88,0.51-1.44,0.51
			c-0.96,0-1.68-0.435-2.16-1.305l0.525-0.315c0.17,0.31,0.375,0.55,0.615,0.72c0.25,0.19,0.59,0.285,1.02,0.285
			c0.939,0,1.41-0.4,1.41-1.2c0-0.35-0.165-0.655-0.495-0.915c-0.1-0.06-0.242-0.127-0.427-0.203s-0.413-0.163-0.683-0.263
			c-0.5-0.18-0.86-0.36-1.08-0.54c-0.32-0.26-0.48-0.635-0.48-1.125c0-0.42,0.16-0.78,0.48-1.08c0.31-0.31,0.715-0.465,1.215-0.465
			c0.69,0,1.275,0.24,1.755,0.72l-0.45,0.39c-0.34-0.34-0.775-0.51-1.305-0.51c-0.72,0-1.08,0.315-1.08,0.945
			c0,0.28,0.11,0.51,0.33,0.69c0.18,0.14,0.465,0.275,0.855,0.405c0.34,0.12,0.62,0.232,0.84,0.337
			c0.22,0.105,0.385,0.198,0.495,0.278c0.43,0.33,0.645,0.775,0.645,1.335C817.391,265.331,817.196,265.765,816.806,266.095z"/>
		<path stroke="#000000" stroke-width="0.2" stroke-miterlimit="10" d="M823.736,265.66c-0.62,0.62-1.38,0.93-2.28,0.93
			c-0.9,0-1.655-0.305-2.265-0.915c-0.62-0.62-0.93-1.38-0.93-2.28c0-0.89,0.31-1.645,0.93-2.265c0.61-0.63,1.365-0.945,2.265-0.945
			c0.89,0,1.645,0.31,2.265,0.93c0.62,0.62,0.93,1.38,0.93,2.28C824.651,264.295,824.346,265.05,823.736,265.66z M823.301,261.55
			c-0.5-0.51-1.115-0.765-1.845-0.765c-0.7,0-1.305,0.26-1.815,0.78c-0.52,0.52-0.78,1.13-0.78,1.83c0,0.71,0.255,1.32,0.765,1.83
			c0.51,0.51,1.12,0.765,1.83,0.765c0.72,0,1.33-0.25,1.83-0.75c0.51-0.51,0.765-1.125,0.765-1.845
			C824.051,262.666,823.801,262.05,823.301,261.55z"/>
		<path stroke="#000000" stroke-width="0.2" stroke-miterlimit="10" d="M826.465,262.15c-0.11,0-0.225-0.045-0.345-0.135
			c-0.09-0.09-0.14-0.21-0.15-0.36c0-0.27,0.165-0.435,0.495-0.495c0.25,0,0.415,0.165,0.495,0.495
			C826.96,261.985,826.795,262.15,826.465,262.15z M826.465,266.575c-0.11,0-0.225-0.045-0.345-0.135
			c-0.09-0.09-0.14-0.21-0.15-0.36c0-0.27,0.165-0.435,0.495-0.495c0.25,0,0.415,0.165,0.495,0.495
			C826.96,266.41,826.795,266.575,826.465,266.575z"/>
		<path stroke="#000000" stroke-width="0.2" stroke-miterlimit="10" d="M832.795,266.396c-0.39,0.14-0.85,0.21-1.38,0.21
			c-1.64,0-2.695-0.775-3.165-2.325l0.615-0.21c0.35,1.28,1.2,1.92,2.55,1.92c0.77,0,1.375-0.19,1.815-0.57
			c0.45-0.39,0.675-0.96,0.675-1.71c0-0.71-0.265-1.3-0.795-1.77c-0.14-0.13-0.355-0.275-0.645-0.435
			c-0.29-0.16-0.66-0.34-1.11-0.54c-0.85-0.38-1.43-0.71-1.74-0.99c-0.52-0.45-0.78-1.045-0.78-1.785s0.265-1.335,0.795-1.785
			c0.52-0.46,1.16-0.69,1.92-0.69c1.26,0,2.15,0.47,2.67,1.41l-0.585,0.255c-0.2-0.33-0.44-0.575-0.72-0.735
			c-0.35-0.22-0.805-0.33-1.365-0.33c-0.59,0-1.08,0.165-1.47,0.495c-0.42,0.35-0.63,0.81-0.63,1.38c0,0.51,0.22,0.955,0.66,1.335
			c0.25,0.2,0.75,0.47,1.5,0.81c0.47,0.21,0.875,0.417,1.215,0.623s0.615,0.412,0.825,0.623c0.58,0.57,0.87,1.28,0.87,2.13
			C834.521,265.07,833.945,265.965,832.795,266.396z"/>
		<path stroke="#000000" stroke-width="0.2" stroke-miterlimit="10" d="M836.23,263.26c0,0.84,0.225,1.505,0.675,1.995
			c0.47,0.5,1.115,0.75,1.935,0.75c0.42,0,0.8-0.07,1.14-0.21c0.43-0.18,0.815-0.545,1.155-1.095l0.555,0.255
			c-0.39,0.74-0.99,1.24-1.8,1.5c-0.31,0.1-0.66,0.15-1.05,0.15c-0.93,0-1.695-0.305-2.295-0.915
			c-0.61-0.61-0.915-1.375-0.915-2.295c0-0.93,0.3-1.695,0.9-2.295c0.61-0.61,1.38-0.915,2.31-0.915c0.92,0,1.68,0.285,2.28,0.855
			c0.61,0.57,0.915,1.31,0.915,2.22H836.23z M840.46,261.295c-0.47-0.34-1.01-0.51-1.62-0.51c-1.28,0-2.121,0.63-2.52,1.89h5.025
			C841.245,262.105,840.95,261.646,840.46,261.295z"/>
		<path stroke="#000000" stroke-width="0.2" stroke-miterlimit="10" d="M848.44,268.555c-0.561,0.56-1.295,0.84-2.205,0.84
			c-1.69,0-2.7-0.666-3.03-1.995h0.615c0.11,0.49,0.425,0.855,0.945,1.095c0.41,0.19,0.9,0.285,1.47,0.285
			c0.77,0,1.365-0.215,1.785-0.645c0.43-0.43,0.645-1.03,0.645-1.8v-0.915c-0.65,0.78-1.475,1.17-2.475,1.17
			c-0.9,0-1.655-0.305-2.265-0.915c-0.62-0.62-0.93-1.38-0.93-2.28c0-0.9,0.305-1.655,0.915-2.265c0.62-0.62,1.38-0.93,2.28-0.93
			c0.99,0,1.815,0.39,2.475,1.17v-1.08h0.615v6.06C849.28,267.26,849,267.995,848.44,268.555z M848.02,261.565
			c-0.51-0.51-1.12-0.765-1.83-0.765c-0.72,0-1.33,0.25-1.83,0.75c-0.51,0.51-0.765,1.125-0.765,1.845c0,0.71,0.255,1.32,0.765,1.83
			c0.51,0.51,1.12,0.765,1.83,0.765c0.72,0,1.33-0.25,1.83-0.75c0.51-0.51,0.765-1.125,0.765-1.845
			C848.785,262.686,848.53,262.075,848.02,261.565z"/>
		<path stroke="#000000" stroke-width="0.2" stroke-miterlimit="10" d="M858.16,266.485v-4.275c0-0.38-0.125-0.71-0.375-0.99
			c-0.25-0.28-0.61-0.42-1.08-0.42c-0.97,0-1.455,0.47-1.455,1.41v4.275h-0.615v-4.275c0-0.42-0.14-0.755-0.42-1.005
			c-0.291-0.27-0.635-0.405-1.035-0.405c-0.41,0-0.755,0.13-1.035,0.39c-0.28,0.25-0.42,0.59-0.42,1.02v4.275h-0.615v-6.195h0.615
			v0.615c0.3-0.47,0.785-0.705,1.455-0.705c0.8,0,1.39,0.325,1.77,0.975c0.36-0.65,0.945-0.975,1.755-0.975
			c0.62,0,1.12,0.175,1.5,0.525c0.38,0.36,0.57,0.855,0.57,1.485v4.275H858.16z"/>
		<path stroke="#000000" stroke-width="0.2" stroke-miterlimit="10" d="M860.875,263.26c0,0.84,0.225,1.505,0.675,1.995
			c0.47,0.5,1.115,0.75,1.935,0.75c0.42,0,0.8-0.07,1.14-0.21c0.43-0.18,0.815-0.545,1.155-1.095l0.555,0.255
			c-0.39,0.74-0.99,1.24-1.8,1.5c-0.31,0.1-0.66,0.15-1.05,0.15c-0.93,0-1.695-0.305-2.295-0.915
			c-0.61-0.61-0.915-1.375-0.915-2.295c0-0.93,0.3-1.695,0.9-2.295c0.61-0.61,1.38-0.915,2.31-0.915c0.92,0,1.68,0.285,2.28,0.855
			c0.61,0.57,0.915,1.31,0.915,2.22H860.875z M865.104,261.295c-0.47-0.34-1.01-0.51-1.62-0.51c-1.28,0-2.121,0.63-2.52,1.89h5.025
			C865.89,262.105,865.595,261.646,865.104,261.295z"/>
		<path stroke="#000000" stroke-width="0.2" stroke-miterlimit="10" d="M872.274,266.485v-3.705c0-1.31-0.59-1.965-1.77-1.965
			c-0.58,0-1.02,0.17-1.32,0.51c-0.31,0.34-0.465,0.805-0.465,1.395v3.765h-0.615v-6.195h0.615v0.75
			c0.28-0.55,0.875-0.825,1.785-0.825c0.77,0,1.36,0.22,1.77,0.66c0.41,0.44,0.615,1.055,0.615,1.845v3.765H872.274z"/>
		<path stroke="#000000" stroke-width="0.2" stroke-miterlimit="10" d="M875.799,260.905v5.58h-0.615v-5.58h-0.84v-0.615h0.84
			v-2.715h0.615v2.715h1.44v0.615H875.799z"/>
	</g>
</g>
<g>
	<path fill="#FFFFFF" stroke="#000000" stroke-miterlimit="10" d="M662.018,404.221c0,6.627-5.373,12-12,12H492.405
		c-6.629,0-12-5.373-12-12v-36.443c0-6.628,5.371-12,12-12h157.613c6.627,0,12,5.372,12,12V404.221z"/>
	<g>
		<path d="M507.022,384.016c-1.121,1-2.5,1.5-4.14,1.5h-4.02v10.71h-1.2v-21.42h5.22c1.64,0,3.02,0.48,4.14,1.44
			c1.12,0.96,1.68,2.25,1.68,3.87C508.702,381.756,508.142,383.056,507.022,384.016z M506.092,377.056
			c-0.82-0.68-1.9-1.02-3.24-1.02h-3.99v8.25h3.99c1.32,0,2.419-0.36,3.3-1.08c0.88-0.76,1.32-1.79,1.32-3.09
			C507.472,378.816,507.012,377.796,506.092,377.056z"/>
		<path d="M512.272,381.616c-0.22,0-0.45-0.09-0.69-0.27c-0.18-0.18-0.28-0.42-0.3-0.72c0-0.54,0.33-0.87,0.99-0.99
			c0.5,0,0.83,0.33,0.99,0.99C513.262,381.286,512.932,381.616,512.272,381.616z M511.642,396.226v-12.39h1.23v12.39H511.642z"/>
		<path d="M526.402,394.576c-1.24,1.24-2.76,1.86-4.56,1.86c-2.06,0-3.76-0.84-5.1-2.52v8.13h-1.23v-18.21h1.23v2.34
			c1.28-1.68,2.98-2.52,5.1-2.52c1.8,0,3.31,0.61,4.53,1.83c1.24,1.241,1.86,2.76,1.86,4.56
			C528.232,391.846,527.622,393.356,526.402,394.576z M525.502,386.386c-1.02-1.02-2.24-1.53-3.66-1.53c-1.44,0-2.66,0.5-3.66,1.5
			c-1.02,1.02-1.53,2.25-1.53,3.69c0,1.42,0.51,2.64,1.53,3.66s2.24,1.53,3.66,1.53c1.44,0,2.66-0.5,3.66-1.5
			c1.02-1.02,1.53-2.25,1.53-3.69C527.032,388.626,526.522,387.406,525.502,386.386z"/>
		<path d="M531.202,389.775c0,1.68,0.45,3.011,1.35,3.99c0.94,1,2.23,1.5,3.87,1.5c0.84,0,1.6-0.14,2.28-0.42
			c0.859-0.36,1.629-1.09,2.31-2.19l1.11,0.51c-0.78,1.48-1.98,2.48-3.6,3c-0.62,0.2-1.32,0.3-2.1,0.3c-1.86,0-3.39-0.61-4.59-1.83
			c-1.22-1.22-1.83-2.75-1.83-4.59c0-1.86,0.6-3.39,1.8-4.59c1.22-1.22,2.76-1.83,4.62-1.83c1.84,0,3.36,0.57,4.56,1.71
			c1.22,1.14,1.83,2.621,1.83,4.44H531.202z M539.662,385.846c-0.94-0.68-2.021-1.02-3.24-1.02c-2.56,0-4.24,1.26-5.04,3.78h10.05
			C541.231,387.466,540.641,386.546,539.662,385.846z"/>
		<path d="M553.252,396.045c-0.78,0.28-1.7,0.42-2.76,0.42c-3.28,0-5.39-1.55-6.33-4.65l1.23-0.42c0.7,2.561,2.4,3.84,5.1,3.84
			c1.54,0,2.75-0.379,3.63-1.14c0.9-0.78,1.35-1.92,1.35-3.42c0-1.42-0.53-2.6-1.59-3.54c-0.28-0.26-0.71-0.55-1.29-0.87
			c-0.58-0.32-1.32-0.68-2.22-1.08c-1.7-0.76-2.86-1.42-3.48-1.98c-1.041-0.9-1.56-2.09-1.56-3.57s0.53-2.67,1.59-3.57
			c1.04-0.919,2.32-1.38,3.84-1.38c2.52,0,4.3,0.94,5.34,2.82l-1.17,0.51c-0.4-0.66-0.88-1.15-1.44-1.47
			c-0.7-0.439-1.61-0.66-2.73-0.66c-1.18,0-2.16,0.33-2.94,0.99c-0.84,0.7-1.26,1.62-1.26,2.76c0,1.02,0.439,1.91,1.32,2.67
			c0.5,0.4,1.5,0.94,3,1.62c0.94,0.42,1.75,0.835,2.43,1.245c0.68,0.41,1.23,0.825,1.65,1.245c1.16,1.14,1.74,2.561,1.74,4.26
			C556.702,393.396,555.552,395.186,553.252,396.045z"/>
		<path d="M567.771,395.146c-0.82,0.88-1.97,1.32-3.45,1.32c-1.46,0-2.59-0.43-3.39-1.29s-1.2-2.06-1.2-3.6v-7.74h1.23v7.74
			c0,1.18,0.26,2.09,0.78,2.73c0.54,0.64,1.4,0.96,2.58,0.96c2.3,0,3.45-1.23,3.45-3.69v-7.74h1.2v7.74
			C568.971,393.096,568.571,394.286,567.771,395.146z"/>
		<path d="M578.601,385.666c-0.32-0.24-0.66-0.43-1.02-0.57c-0.36-0.14-0.74-0.21-1.14-0.21c-0.34,0-0.66,0.105-0.96,0.315
			s-0.56,0.47-0.78,0.78c-0.221,0.311-0.396,0.655-0.525,1.035s-0.195,0.73-0.195,1.05v8.16h-1.23v-12.39h1.23v1.68
			c0.26-0.46,0.6-0.88,1.02-1.26c0.42-0.379,0.88-0.57,1.38-0.57c0.62,0,1.13,0.07,1.53,0.21c0.4,0.14,0.85,0.39,1.35,0.75
			L578.601,385.666z"/>
		<path d="M586.761,375.255l-0.81-0.09c-1.12,0-1.68,0.66-1.68,1.98v6.69h2.94v1.23h-2.94v11.16h-1.23v-11.16h-1.68v-1.23h1.68
			v-7.05c0-1.9,0.96-2.85,2.88-2.85c0.439,0,0.72,0.02,0.84,0.06c0.24,0,0.51,0.07,0.81,0.21v1.23L586.761,375.255z"/>
		<path d="M598.971,396.226v-2.13c-1.3,1.56-2.951,2.34-4.95,2.34c-1.8,0-3.31-0.61-4.53-1.83c-1.24-1.24-1.86-2.76-1.86-4.56
			c0-1.8,0.61-3.31,1.83-4.53c1.24-1.24,2.76-1.86,4.56-1.86c1.98,0,3.63,0.78,4.95,2.34v-2.16h1.23v12.39H598.971z
			 M597.681,386.386c-1.02-1.02-2.24-1.53-3.66-1.53c-1.44,0-2.66,0.5-3.66,1.5c-1.02,1.02-1.53,2.25-1.53,3.69
			c0,1.42,0.51,2.64,1.53,3.66s2.24,1.53,3.66,1.53c1.44,0,2.66-0.5,3.66-1.5c1.02-1.02,1.53-2.25,1.53-3.69
			C599.211,388.626,598.701,387.406,597.681,386.386z"/>
		<path d="M609.711,396.466c-1.84,0-3.371-0.61-4.59-1.83c-1.22-1.22-1.83-2.75-1.83-4.59c0-1.84,0.61-3.37,1.83-4.59
			c1.219-1.22,2.75-1.83,4.59-1.83c1.58,0,2.84,0.36,3.78,1.08v1.47l-0.78-0.51l-0.84-0.45c-0.761-0.26-1.48-0.39-2.16-0.39
			c-1.541,0-2.79,0.48-3.75,1.44c-0.98,0.98-1.47,2.24-1.47,3.78c0,1.521,0.49,2.771,1.47,3.75c0.979,0.98,2.23,1.47,3.75,1.47
			c1.44,0,2.7-0.48,3.78-1.44v1.53C612.371,396.096,611.11,396.466,609.711,396.466z"/>
		<path d="M615.471,389.775c0,1.68,0.45,3.011,1.35,3.99c0.94,1,2.23,1.5,3.87,1.5c0.84,0,1.6-0.14,2.28-0.42
			c0.859-0.36,1.629-1.09,2.31-2.19l1.11,0.51c-0.78,1.48-1.98,2.48-3.6,3c-0.62,0.2-1.32,0.3-2.1,0.3c-1.86,0-3.39-0.61-4.59-1.83
			c-1.22-1.22-1.83-2.75-1.83-4.59c0-1.86,0.6-3.39,1.8-4.59c1.22-1.22,2.76-1.83,4.62-1.83c1.84,0,3.36,0.57,4.56,1.71
			c1.22,1.14,1.83,2.621,1.83,4.44H615.471z M623.931,385.846c-0.94-0.68-2.021-1.02-3.24-1.02c-2.56,0-4.24,1.26-5.04,3.78h10.05
			C625.5,387.466,624.91,386.546,623.931,385.846z"/>
		<path d="M649.31,396.226l-5.7-9.93l-5.64,9.93h-1.38l6.3-11.07l-5.94-10.35h1.41l5.28,9.27l5.31-9.27h1.41l-5.94,10.44l6.3,10.98
			H649.31z"/>
	</g>
	
		<line fill="none" stroke="#000000" stroke-width="2" stroke-miterlimit="10" x1="658.344" y1="413.117" x2="776.588" y2="531.361"/>
	<g>
		<path stroke="#000000" stroke-width="0.2" stroke-miterlimit="10" d="M501.64,329.845c-0.62,0.62-1.38,0.93-2.28,0.93
			c-1.03,0-1.875-0.415-2.535-1.245v1.14h-0.615v-11.1h0.615v6.06c0.65-0.83,1.495-1.245,2.535-1.245c0.9,0,1.655,0.305,2.265,0.915
			c0.62,0.62,0.93,1.38,0.93,2.28C502.555,328.48,502.25,329.235,501.64,329.845z M501.19,325.75c-0.51-0.51-1.12-0.765-1.83-0.765
			c-0.72,0-1.33,0.25-1.83,0.75c-0.51,0.51-0.765,1.125-0.765,1.845c0,0.71,0.255,1.32,0.765,1.83c0.51,0.51,1.12,0.765,1.83,0.765
			c0.72,0,1.33-0.25,1.83-0.75c0.51-0.51,0.765-1.125,0.765-1.845C501.955,326.87,501.7,326.26,501.19,325.75z"/>
		<path stroke="#000000" stroke-width="0.2" stroke-miterlimit="10" d="M509.14,329.845c-0.62,0.62-1.38,0.93-2.28,0.93
			c-0.9,0-1.655-0.305-2.265-0.915c-0.62-0.62-0.93-1.38-0.93-2.28c0-0.89,0.31-1.645,0.93-2.265c0.61-0.63,1.365-0.945,2.265-0.945
			c0.89,0,1.645,0.31,2.265,0.93c0.62,0.62,0.93,1.38,0.93,2.28C510.055,328.48,509.75,329.235,509.14,329.845z M508.705,325.735
			c-0.5-0.51-1.115-0.765-1.845-0.765c-0.7,0-1.305,0.26-1.815,0.78c-0.52,0.52-0.78,1.13-0.78,1.83c0,0.71,0.255,1.32,0.765,1.83
			c0.51,0.51,1.12,0.765,1.83,0.765c0.72,0,1.33-0.25,1.83-0.75c0.51-0.51,0.765-1.125,0.765-1.845
			C509.455,326.85,509.205,326.235,508.705,325.735z"/>
		<path stroke="#000000" stroke-width="0.2" stroke-miterlimit="10" d="M512.53,325.09v5.58h-0.615v-5.58h-0.84v-0.615h0.84v-2.715
			h0.615v2.715h1.44v0.615H512.53z"/>
		<path stroke="#000000" stroke-width="0.2" stroke-miterlimit="10" d="M515.62,326.335c-0.11,0-0.225-0.045-0.345-0.135
			c-0.09-0.09-0.14-0.21-0.15-0.36c0-0.27,0.165-0.435,0.495-0.495c0.25,0,0.415,0.165,0.495,0.495
			C516.115,326.17,515.95,326.335,515.62,326.335z M515.62,330.76c-0.11,0-0.225-0.045-0.345-0.135c-0.09-0.09-0.14-0.21-0.15-0.36
			c0-0.27,0.165-0.435,0.495-0.495c0.25,0,0.415,0.165,0.495,0.495C516.115,330.595,515.95,330.76,515.62,330.76z"/>
		<path stroke="#000000" stroke-width="0.2" stroke-miterlimit="10" d="M517.959,330.67v-10.71h0.6v10.71H517.959z"/>
		<path stroke="#000000" stroke-width="0.2" stroke-miterlimit="10" d="M524.05,330.67v-3.705c0-1.31-0.59-1.965-1.77-1.965
			c-0.58,0-1.02,0.17-1.32,0.51c-0.31,0.34-0.465,0.805-0.465,1.395v3.765h-0.615v-6.195h0.615v0.75
			c0.28-0.55,0.875-0.825,1.785-0.825c0.77,0,1.36,0.22,1.77,0.66c0.41,0.44,0.615,1.055,0.615,1.845v3.765H524.05z"/>
		<path stroke="#000000" stroke-width="0.2" stroke-miterlimit="10" d="M527.574,325.09v5.58h-0.615v-5.58h-0.84v-0.615h0.84v-2.715
			h0.615v2.715h1.44v0.615H527.574z"/>
		<path stroke="#000000" stroke-width="0.2" stroke-miterlimit="10" d="M530.514,327.445c0,0.84,0.225,1.505,0.675,1.995
			c0.47,0.5,1.115,0.75,1.935,0.75c0.42,0,0.8-0.07,1.14-0.21c0.43-0.18,0.815-0.545,1.155-1.095l0.555,0.255
			c-0.39,0.74-0.99,1.24-1.8,1.5c-0.31,0.1-0.66,0.15-1.05,0.15c-0.93,0-1.695-0.305-2.295-0.915
			c-0.61-0.61-0.915-1.375-0.915-2.295c0-0.93,0.3-1.695,0.9-2.295c0.61-0.61,1.38-0.915,2.31-0.915c0.92,0,1.68,0.285,2.28,0.855
			c0.61,0.57,0.915,1.31,0.915,2.22H530.514z M534.744,325.48c-0.47-0.34-1.01-0.51-1.62-0.51c-1.28,0-2.121,0.63-2.52,1.89h5.025
			C535.529,326.29,535.234,325.83,534.744,325.48z"/>
		<path stroke="#000000" stroke-width="0.2" stroke-miterlimit="10" d="M540.669,325.39c-0.16-0.12-0.33-0.215-0.51-0.285
			c-0.18-0.07-0.37-0.105-0.57-0.105c-0.17,0-0.33,0.052-0.48,0.157s-0.28,0.235-0.39,0.39c-0.11,0.155-0.197,0.328-0.262,0.518
			c-0.065,0.19-0.098,0.365-0.098,0.525v4.08h-0.615v-6.195h0.615v0.84c0.13-0.23,0.3-0.44,0.51-0.63
			c0.21-0.19,0.439-0.285,0.69-0.285c0.31,0,0.564,0.035,0.765,0.105c0.2,0.07,0.425,0.195,0.675,0.375L540.669,325.39z"/>
		<path stroke="#000000" stroke-width="0.2" stroke-miterlimit="10" d="M544.75,320.185l-0.405-0.045c-0.56,0-0.84,0.33-0.84,0.99
			v3.345h1.47v0.615h-1.47v5.58h-0.615v-5.58h-0.84v-0.615h0.84v-3.525c0-0.95,0.48-1.425,1.44-1.425c0.22,0,0.36,0.01,0.42,0.03
			c0.12,0,0.255,0.035,0.405,0.105v0.615L544.75,320.185z"/>
		<path stroke="#000000" stroke-width="0.2" stroke-miterlimit="10" d="M550.854,330.67v-1.065c-0.65,0.78-1.475,1.17-2.475,1.17
			c-0.9,0-1.655-0.305-2.265-0.915c-0.62-0.62-0.93-1.38-0.93-2.28c0-0.9,0.305-1.655,0.915-2.265c0.62-0.62,1.38-0.93,2.28-0.93
			c0.99,0,1.815,0.39,2.475,1.17v-1.08h0.615v6.195H550.854z M550.209,325.75c-0.51-0.51-1.12-0.765-1.83-0.765
			c-0.72,0-1.33,0.25-1.83,0.75c-0.51,0.51-0.765,1.125-0.765,1.845c0,0.71,0.255,1.32,0.765,1.83c0.51,0.51,1.12,0.765,1.83,0.765
			c0.72,0,1.33-0.25,1.83-0.75c0.51-0.51,0.765-1.125,0.765-1.845C550.975,326.87,550.72,326.26,550.209,325.75z"/>
		<path stroke="#000000" stroke-width="0.2" stroke-miterlimit="10" d="M556.225,330.79c-0.92,0-1.685-0.305-2.295-0.915
			c-0.61-0.61-0.915-1.375-0.915-2.295s0.305-1.685,0.915-2.295c0.61-0.61,1.375-0.915,2.295-0.915c0.79,0,1.42,0.18,1.89,0.54
			v0.735l-0.39-0.255l-0.42-0.225c-0.38-0.13-0.74-0.195-1.08-0.195c-0.77,0-1.395,0.24-1.875,0.72
			c-0.49,0.49-0.735,1.12-0.735,1.89c0,0.76,0.245,1.385,0.735,1.875c0.49,0.49,1.115,0.735,1.875,0.735c0.72,0,1.35-0.24,1.89-0.72
			v0.765C557.554,330.605,556.924,330.79,556.225,330.79z"/>
		<path stroke="#000000" stroke-width="0.2" stroke-miterlimit="10" d="M559.104,327.445c0,0.84,0.225,1.505,0.675,1.995
			c0.47,0.5,1.115,0.75,1.935,0.75c0.42,0,0.8-0.07,1.14-0.21c0.43-0.18,0.815-0.545,1.155-1.095l0.555,0.255
			c-0.39,0.74-0.99,1.24-1.8,1.5c-0.31,0.1-0.66,0.15-1.05,0.15c-0.93,0-1.695-0.305-2.295-0.915
			c-0.61-0.61-0.915-1.375-0.915-2.295c0-0.93,0.3-1.695,0.9-2.295c0.61-0.61,1.38-0.915,2.31-0.915c0.92,0,1.68,0.285,2.28,0.855
			c0.61,0.57,0.915,1.31,0.915,2.22H559.104z M563.334,325.48c-0.47-0.34-1.01-0.51-1.62-0.51c-1.28,0-2.121,0.63-2.52,1.89h5.025
			C564.119,326.29,563.824,325.83,563.334,325.48z"/>
		<path stroke="#000000" stroke-width="0.2" stroke-miterlimit="10" d="M496.495,345.445c0,0.84,0.225,1.505,0.675,1.995
			c0.47,0.5,1.115,0.75,1.935,0.75c0.42,0,0.8-0.07,1.14-0.21c0.43-0.18,0.815-0.545,1.155-1.095l0.555,0.255
			c-0.39,0.74-0.99,1.24-1.8,1.5c-0.31,0.1-0.66,0.15-1.05,0.15c-0.93,0-1.695-0.305-2.295-0.915
			c-0.61-0.61-0.915-1.375-0.915-2.295c0-0.93,0.3-1.695,0.9-2.295c0.61-0.61,1.38-0.915,2.31-0.915c0.92,0,1.68,0.285,2.28,0.855
			c0.61,0.57,0.915,1.31,0.915,2.22H496.495z M500.725,343.48c-0.47-0.34-1.01-0.51-1.62-0.51c-1.28,0-2.121,0.63-2.52,1.89h5.025
			C501.51,344.29,501.215,343.83,500.725,343.48z"/>
		<path stroke="#000000" stroke-width="0.2" stroke-miterlimit="10" d="M506.41,348.67l-1.755-2.595l-1.755,2.595h-0.735l2.115-3.12
			l-2.07-3.075h0.72l1.725,2.565l1.71-2.565h0.72l-2.055,3.06l2.1,3.135H506.41z"/>
		<path stroke="#000000" stroke-width="0.2" stroke-miterlimit="10" d="M508.6,344.335c-0.11,0-0.225-0.045-0.345-0.135
			c-0.09-0.09-0.14-0.21-0.15-0.36c0-0.27,0.165-0.435,0.495-0.495c0.25,0,0.415,0.165,0.495,0.495
			C509.095,344.17,508.93,344.335,508.6,344.335z M508.6,348.76c-0.11,0-0.225-0.045-0.345-0.135c-0.09-0.09-0.14-0.21-0.15-0.36
			c0-0.27,0.165-0.435,0.495-0.495c0.25,0,0.415,0.165,0.495,0.495C509.095,348.595,508.93,348.76,508.6,348.76z"/>
		<path stroke="#000000" stroke-width="0.2" stroke-miterlimit="10" d="M515.605,342.565c-0.56,0.5-1.25,0.75-2.07,0.75h-2.01v5.355
			h-0.6v-10.71h2.61c0.82,0,1.51,0.24,2.07,0.72c0.56,0.48,0.84,1.125,0.84,1.935C516.445,341.435,516.165,342.085,515.605,342.565z
			 M515.14,339.085c-0.41-0.34-0.95-0.51-1.62-0.51h-1.995v4.125h1.995c0.66,0,1.21-0.18,1.65-0.54c0.44-0.38,0.66-0.895,0.66-1.545
			C515.83,339.965,515.6,339.455,515.14,339.085z"/>
		<path stroke="#000000" stroke-width="0.2" stroke-miterlimit="10" d="M518.23,341.365c-0.11,0-0.225-0.045-0.345-0.135
			c-0.09-0.09-0.14-0.21-0.15-0.36c0-0.27,0.165-0.435,0.495-0.495c0.25,0,0.415,0.165,0.495,0.495
			C518.725,341.2,518.561,341.365,518.23,341.365z M517.916,348.67v-6.195h0.615v6.195H517.916z"/>
		<path stroke="#000000" stroke-width="0.2" stroke-miterlimit="10" d="M525.295,347.845c-0.62,0.62-1.38,0.93-2.28,0.93
			c-1.03,0-1.88-0.42-2.55-1.26v4.065h-0.615v-9.105h0.615v1.17c0.64-0.84,1.49-1.26,2.55-1.26c0.9,0,1.655,0.305,2.265,0.915
			c0.62,0.62,0.93,1.38,0.93,2.28C526.21,346.48,525.905,347.235,525.295,347.845z M524.845,343.75
			c-0.51-0.51-1.12-0.765-1.83-0.765c-0.72,0-1.33,0.25-1.83,0.75c-0.51,0.51-0.765,1.125-0.765,1.845c0,0.71,0.255,1.32,0.765,1.83
			c0.51,0.51,1.12,0.765,1.83,0.765c0.72,0,1.33-0.25,1.83-0.75c0.51-0.51,0.765-1.125,0.765-1.845
			C525.61,344.87,525.355,344.26,524.845,343.75z"/>
		<path stroke="#000000" stroke-width="0.2" stroke-miterlimit="10" d="M527.695,345.445c0,0.84,0.225,1.505,0.675,1.995
			c0.47,0.5,1.115,0.75,1.935,0.75c0.42,0,0.8-0.07,1.14-0.21c0.43-0.18,0.815-0.545,1.155-1.095l0.555,0.255
			c-0.39,0.74-0.99,1.24-1.8,1.5c-0.31,0.1-0.66,0.15-1.05,0.15c-0.93,0-1.695-0.305-2.295-0.915
			c-0.61-0.61-0.915-1.375-0.915-2.295c0-0.93,0.3-1.695,0.9-2.295c0.61-0.61,1.38-0.915,2.31-0.915c0.92,0,1.68,0.285,2.28,0.855
			c0.61,0.57,0.915,1.31,0.915,2.22H527.695z M531.925,343.48c-0.47-0.34-1.01-0.51-1.62-0.51c-1.28,0-2.121,0.63-2.52,1.89h5.025
			C532.71,344.29,532.415,343.83,531.925,343.48z"/>
		<path stroke="#000000" stroke-width="0.2" stroke-miterlimit="10" d="M538.72,348.58c-0.39,0.14-0.85,0.21-1.38,0.21
			c-1.64,0-2.695-0.775-3.165-2.325l0.615-0.21c0.35,1.28,1.2,1.92,2.55,1.92c0.77,0,1.375-0.19,1.815-0.57
			c0.45-0.39,0.675-0.96,0.675-1.71c0-0.71-0.265-1.3-0.795-1.77c-0.14-0.13-0.355-0.275-0.645-0.435
			c-0.29-0.16-0.66-0.34-1.11-0.54c-0.85-0.38-1.43-0.71-1.74-0.99c-0.52-0.45-0.78-1.045-0.78-1.785s0.265-1.335,0.795-1.785
			c0.52-0.46,1.16-0.69,1.92-0.69c1.26,0,2.15,0.47,2.67,1.41l-0.585,0.255c-0.2-0.33-0.44-0.575-0.72-0.735
			c-0.35-0.22-0.805-0.33-1.365-0.33c-0.59,0-1.08,0.165-1.47,0.495c-0.42,0.35-0.63,0.81-0.63,1.38c0,0.51,0.22,0.955,0.66,1.335
			c0.25,0.2,0.75,0.47,1.5,0.81c0.47,0.21,0.875,0.417,1.215,0.623s0.615,0.412,0.825,0.623c0.58,0.57,0.87,1.28,0.87,2.13
			C540.445,347.255,539.87,348.15,538.72,348.58z"/>
		<path stroke="#000000" stroke-width="0.2" stroke-miterlimit="10" d="M545.98,348.13c-0.41,0.44-0.985,0.66-1.725,0.66
			c-0.73,0-1.295-0.215-1.695-0.645c-0.4-0.43-0.6-1.03-0.6-1.8v-3.87h0.615v3.87c0,0.59,0.13,1.045,0.39,1.365
			c0.27,0.32,0.7,0.48,1.29,0.48c1.15,0,1.725-0.615,1.725-1.845v-3.87h0.6v3.87C546.58,347.105,546.38,347.7,545.98,348.13z"/>
		<path stroke="#000000" stroke-width="0.2" stroke-miterlimit="10" d="M551.395,343.39c-0.16-0.12-0.33-0.215-0.51-0.285
			c-0.18-0.07-0.37-0.105-0.57-0.105c-0.17,0-0.33,0.052-0.48,0.157s-0.28,0.235-0.39,0.39c-0.11,0.155-0.197,0.328-0.262,0.518
			c-0.065,0.19-0.098,0.365-0.098,0.525v4.08h-0.615v-6.195h0.615v0.84c0.13-0.23,0.3-0.44,0.51-0.63
			c0.21-0.19,0.439-0.285,0.69-0.285c0.31,0,0.564,0.035,0.765,0.105c0.2,0.07,0.425,0.195,0.675,0.375L551.395,343.39z"/>
		<path stroke="#000000" stroke-width="0.2" stroke-miterlimit="10" d="M555.475,338.185l-0.405-0.045c-0.56,0-0.84,0.33-0.84,0.99
			v3.345h1.47v0.615h-1.47v5.58h-0.615v-5.58h-0.84v-0.615h0.84v-3.525c0-0.95,0.48-1.425,1.44-1.425c0.22,0,0.36,0.01,0.42,0.03
			c0.12,0,0.255,0.035,0.405,0.105v0.615L555.475,338.185z"/>
		<path stroke="#000000" stroke-width="0.2" stroke-miterlimit="10" d="M561.579,348.67v-1.065c-0.65,0.78-1.475,1.17-2.475,1.17
			c-0.9,0-1.655-0.305-2.265-0.915c-0.62-0.62-0.93-1.38-0.93-2.28c0-0.9,0.305-1.655,0.915-2.265c0.62-0.62,1.38-0.93,2.28-0.93
			c0.99,0,1.815,0.39,2.475,1.17v-1.08h0.615v6.195H561.579z M560.934,343.75c-0.51-0.51-1.12-0.765-1.83-0.765
			c-0.72,0-1.33,0.25-1.83,0.75c-0.51,0.51-0.765,1.125-0.765,1.845c0,0.71,0.255,1.32,0.765,1.83c0.51,0.51,1.12,0.765,1.83,0.765
			c0.72,0,1.33-0.25,1.83-0.75c0.51-0.51,0.765-1.125,0.765-1.845C561.699,344.87,561.444,344.26,560.934,343.75z"/>
		<path stroke="#000000" stroke-width="0.2" stroke-miterlimit="10" d="M566.949,348.79c-0.92,0-1.685-0.305-2.295-0.915
			c-0.61-0.61-0.915-1.375-0.915-2.295s0.305-1.685,0.915-2.295c0.61-0.61,1.375-0.915,2.295-0.915c0.79,0,1.42,0.18,1.89,0.54
			v0.735l-0.39-0.255l-0.42-0.225c-0.38-0.13-0.74-0.195-1.08-0.195c-0.77,0-1.395,0.24-1.875,0.72
			c-0.49,0.49-0.735,1.12-0.735,1.89c0,0.76,0.245,1.385,0.735,1.875c0.49,0.49,1.115,0.735,1.875,0.735c0.72,0,1.35-0.24,1.89-0.72
			v0.765C568.279,348.605,567.649,348.79,566.949,348.79z"/>
		<path stroke="#000000" stroke-width="0.2" stroke-miterlimit="10" d="M569.829,345.445c0,0.84,0.225,1.505,0.675,1.995
			c0.47,0.5,1.115,0.75,1.935,0.75c0.42,0,0.8-0.07,1.14-0.21c0.43-0.18,0.815-0.545,1.155-1.095l0.555,0.255
			c-0.39,0.74-0.99,1.24-1.8,1.5c-0.31,0.1-0.66,0.15-1.05,0.15c-0.93,0-1.695-0.305-2.295-0.915
			c-0.61-0.61-0.915-1.375-0.915-2.295c0-0.93,0.3-1.695,0.9-2.295c0.61-0.61,1.38-0.915,2.31-0.915c0.92,0,1.68,0.285,2.28,0.855
			c0.61,0.57,0.915,1.31,0.915,2.22H569.829z M574.059,343.48c-0.47-0.34-1.01-0.51-1.62-0.51c-1.28,0-2.121,0.63-2.52,1.89h5.025
			C574.844,344.29,574.549,343.83,574.059,343.48z"/>
	</g>
</g>
<g>
	<path fill="#FFFFFF" stroke="#000000" stroke-miterlimit="10" d="M1553.139,266.271c0,6.627-5.373,12-12,12h-157.613
		c-6.627,0-12-5.373-12-12v-36.322c0-6.628,5.373-12,12-12h157.613c6.627,0,12,5.372,12,12V266.271z"/>
	<g>
		<path d="M1398.144,246.187c-1.12,1-2.501,1.5-4.14,1.5h-4.021v10.71h-1.2v-21.42h5.221c1.639,0,3.02,0.48,4.14,1.44
			s1.68,2.25,1.68,3.87C1399.823,243.927,1399.264,245.227,1398.144,246.187z M1397.213,239.227c-0.82-0.68-1.9-1.02-3.239-1.02
			h-3.99v8.25h3.99c1.319,0,2.419-0.36,3.3-1.08c0.88-0.76,1.32-1.79,1.32-3.09C1398.594,240.987,1398.133,239.967,1397.213,239.227
			z"/>
		<path d="M1403.393,243.787c-0.22,0-0.449-0.09-0.689-0.27c-0.18-0.18-0.28-0.42-0.3-0.72c0-0.54,0.33-0.87,0.989-0.99
			c0.5,0,0.83,0.33,0.99,0.99C1404.383,243.457,1404.053,243.787,1403.393,243.787z M1402.764,258.396v-12.39h1.229v12.39H1402.764z
			"/>
		<path d="M1417.523,256.747c-1.24,1.24-2.761,1.86-4.561,1.86c-2.061,0-3.76-0.84-5.1-2.52v8.13h-1.23v-18.21h1.23v2.34
			c1.279-1.68,2.979-2.52,5.1-2.52c1.8,0,3.311,0.61,4.529,1.83c1.24,1.241,1.861,2.76,1.861,4.56
			C1419.354,254.017,1418.742,255.527,1417.523,256.747z M1416.623,248.557c-1.02-1.02-2.24-1.53-3.66-1.53
			c-1.439,0-2.66,0.5-3.66,1.5c-1.02,1.02-1.529,2.25-1.529,3.69c0,1.42,0.51,2.64,1.529,3.66s2.24,1.53,3.66,1.53
			c1.439,0,2.66-0.5,3.66-1.5c1.02-1.02,1.529-2.25,1.529-3.69C1418.152,250.797,1417.643,249.577,1416.623,248.557z"/>
		<path d="M1422.322,251.946c0,1.68,0.45,3.011,1.35,3.99c0.94,1,2.23,1.5,3.871,1.5c0.84,0,1.6-0.14,2.279-0.42
			c0.859-0.36,1.63-1.09,2.311-2.19l1.109,0.51c-0.779,1.48-1.979,2.48-3.6,3c-0.62,0.2-1.32,0.3-2.1,0.3
			c-1.86,0-3.391-0.61-4.59-1.83c-1.221-1.22-1.83-2.75-1.83-4.59c0-1.86,0.6-3.39,1.799-4.59c1.221-1.22,2.761-1.83,4.621-1.83
			c1.84,0,3.359,0.57,4.56,1.71c1.22,1.14,1.83,2.621,1.83,4.44H1422.322z M1430.783,248.017c-0.941-0.68-2.021-1.02-3.24-1.02
			c-2.561,0-4.24,1.26-5.041,3.78h10.051C1432.353,249.637,1431.762,248.717,1430.783,248.017z"/>
		<path d="M1444.373,258.216c-0.78,0.28-1.7,0.42-2.76,0.42c-3.281,0-5.391-1.55-6.33-4.65l1.23-0.42
			c0.699,2.561,2.399,3.84,5.1,3.84c1.539,0,2.75-0.379,3.63-1.14c0.899-0.78,1.35-1.92,1.35-3.42c0-1.42-0.53-2.6-1.59-3.54
			c-0.28-0.26-0.71-0.55-1.29-0.87c-0.58-0.32-1.32-0.68-2.22-1.08c-1.7-0.76-2.86-1.42-3.479-1.98
			c-1.041-0.9-1.561-2.09-1.561-3.57s0.529-2.67,1.59-3.57c1.039-0.919,2.32-1.38,3.84-1.38c2.52,0,4.3,0.94,5.34,2.82l-1.17,0.51
			c-0.4-0.66-0.88-1.15-1.439-1.47c-0.701-0.439-1.61-0.66-2.73-0.66c-1.18,0-2.16,0.33-2.939,0.99c-0.84,0.7-1.26,1.62-1.26,2.76
			c0,1.02,0.439,1.91,1.319,2.67c0.5,0.4,1.5,0.94,3,1.62c0.94,0.42,1.75,0.835,2.431,1.245c0.68,0.41,1.229,0.825,1.649,1.245
			c1.159,1.14,1.74,2.561,1.74,4.26C1447.823,255.566,1446.673,257.357,1444.373,258.216z"/>
		<path d="M1458.893,257.316c-0.82,0.88-1.971,1.32-3.45,1.32c-1.46,0-2.591-0.43-3.39-1.29c-0.801-0.86-1.2-2.06-1.2-3.6v-7.74
			h1.229v7.74c0,1.18,0.26,2.09,0.78,2.73c0.54,0.64,1.399,0.96,2.58,0.96c2.3,0,3.45-1.23,3.45-3.69v-7.74h1.199v7.74
			C1460.092,255.267,1459.692,256.457,1458.893,257.316z"/>
		<path d="M1469.723,247.836c-0.32-0.24-0.66-0.43-1.021-0.57c-0.36-0.14-0.74-0.21-1.14-0.21c-0.341,0-0.66,0.105-0.961,0.315
			c-0.299,0.21-0.56,0.47-0.779,0.78c-0.221,0.311-0.396,0.655-0.525,1.035s-0.195,0.73-0.195,1.05v8.16h-1.229v-12.39h1.229v1.68
			c0.26-0.46,0.601-0.88,1.021-1.26c0.42-0.379,0.88-0.57,1.38-0.57c0.619,0,1.13,0.07,1.53,0.21c0.399,0.14,0.85,0.39,1.351,0.75
			L1469.723,247.836z"/>
		<path d="M1477.882,237.426l-0.81-0.09c-1.121,0-1.68,0.66-1.68,1.98v6.69h2.939v1.23h-2.939v11.16h-1.23v-11.16h-1.68v-1.23h1.68
			v-7.05c0-1.9,0.96-2.85,2.88-2.85c0.439,0,0.72,0.02,0.84,0.06c0.24,0,0.511,0.07,0.81,0.21v1.23L1477.882,237.426z"/>
		<path d="M1490.092,258.396v-2.13c-1.3,1.56-2.95,2.34-4.949,2.34c-1.801,0-3.311-0.61-4.53-1.83c-1.24-1.24-1.86-2.76-1.86-4.56
			c0-1.8,0.609-3.31,1.83-4.53c1.24-1.24,2.76-1.86,4.561-1.86c1.979,0,3.629,0.78,4.949,2.34v-2.16h1.23v12.39H1490.092z
			 M1488.803,248.557c-1.021-1.02-2.24-1.53-3.66-1.53c-1.44,0-2.66,0.5-3.66,1.5c-1.021,1.02-1.53,2.25-1.53,3.69
			c0,1.42,0.51,2.64,1.53,3.66c1.02,1.02,2.239,1.53,3.66,1.53c1.439,0,2.659-0.5,3.66-1.5c1.02-1.02,1.529-2.25,1.529-3.69
			C1490.332,250.797,1489.822,249.577,1488.803,248.557z"/>
		<path d="M1500.832,258.637c-1.84,0-3.371-0.61-4.59-1.83c-1.221-1.22-1.83-2.75-1.83-4.59c0-1.84,0.609-3.37,1.83-4.59
			c1.219-1.22,2.75-1.83,4.59-1.83c1.58,0,2.84,0.36,3.779,1.08v1.47l-0.779-0.51l-0.84-0.45c-0.761-0.26-1.48-0.39-2.16-0.39
			c-1.541,0-2.79,0.48-3.75,1.44c-0.98,0.98-1.471,2.24-1.471,3.78c0,1.521,0.49,2.771,1.471,3.75c0.979,0.98,2.23,1.47,3.75,1.47
			c1.439,0,2.699-0.48,3.779-1.44v1.53C1503.492,258.267,1502.231,258.637,1500.832,258.637z"/>
		<path d="M1506.592,251.946c0,1.68,0.449,3.011,1.35,3.99c0.939,1,2.23,1.5,3.87,1.5c0.84,0,1.601-0.14,2.28-0.42
			c0.859-0.36,1.629-1.09,2.31-2.19l1.11,0.51c-0.78,1.48-1.98,2.48-3.6,3c-0.621,0.2-1.32,0.3-2.101,0.3
			c-1.86,0-3.39-0.61-4.59-1.83c-1.22-1.22-1.83-2.75-1.83-4.59c0-1.86,0.601-3.39,1.8-4.59c1.22-1.22,2.76-1.83,4.62-1.83
			c1.84,0,3.36,0.57,4.56,1.71c1.221,1.14,1.83,2.621,1.83,4.44H1506.592z M1515.052,248.017c-0.94-0.68-2.021-1.02-3.24-1.02
			c-2.56,0-4.24,1.26-5.04,3.78h10.051C1516.621,249.637,1516.031,248.717,1515.052,248.017z"/>
		<path d="M1535.031,247.687v10.71h-1.23v-10.71l-6.09-10.71h1.41l5.28,9.27l5.34-9.27h1.41L1535.031,247.687z"/>
	</g>
	
		<line fill="none" stroke="#000000" stroke-width="2" stroke-miterlimit="10" x1="1374.484" y1="273.475" x2="1256.242" y2="391.72"/>
	<g>
		<path stroke="#000000" stroke-width="0.2" stroke-miterlimit="10" d="M1392.761,192.016c-0.62,0.62-1.38,0.93-2.28,0.93
			c-1.029,0-1.875-0.415-2.535-1.245v1.14h-0.614v-11.1h0.614v6.06c0.65-0.83,1.496-1.245,2.535-1.245
			c0.9,0,1.655,0.305,2.266,0.915c0.619,0.62,0.93,1.38,0.93,2.28C1393.676,190.651,1393.371,191.406,1392.761,192.016z
			 M1392.311,187.921c-0.51-0.51-1.119-0.765-1.83-0.765c-0.72,0-1.33,0.25-1.83,0.75c-0.51,0.51-0.765,1.125-0.765,1.845
			c0,0.71,0.255,1.32,0.765,1.83c0.51,0.51,1.12,0.765,1.83,0.765c0.721,0,1.33-0.25,1.83-0.75c0.51-0.51,0.766-1.125,0.766-1.845
			C1393.076,189.041,1392.82,188.431,1392.311,187.921z"/>
		<path stroke="#000000" stroke-width="0.2" stroke-miterlimit="10" d="M1400.261,192.016c-0.62,0.62-1.38,0.93-2.28,0.93
			s-1.654-0.305-2.265-0.915c-0.62-0.62-0.931-1.38-0.931-2.28c0-0.89,0.311-1.645,0.931-2.265c0.61-0.63,1.364-0.945,2.265-0.945
			c0.891,0,1.645,0.31,2.266,0.93c0.619,0.62,0.93,1.38,0.93,2.28C1401.176,190.651,1400.871,191.406,1400.261,192.016z
			 M1399.826,187.906c-0.5-0.51-1.115-0.765-1.846-0.765c-0.699,0-1.305,0.26-1.814,0.78c-0.521,0.52-0.78,1.13-0.78,1.83
			c0,0.71,0.255,1.32,0.765,1.83c0.51,0.51,1.12,0.765,1.83,0.765c0.721,0,1.33-0.25,1.83-0.75c0.51-0.51,0.766-1.125,0.766-1.845
			C1400.576,189.021,1400.326,188.406,1399.826,187.906z"/>
		<path stroke="#000000" stroke-width="0.2" stroke-miterlimit="10" d="M1403.65,187.261v5.58h-0.615v-5.58h-0.84v-0.615h0.84
			v-2.715h0.615v2.715h1.439v0.615H1403.65z"/>
		<path stroke="#000000" stroke-width="0.2" stroke-miterlimit="10" d="M1406.74,188.506c-0.109,0-0.225-0.045-0.345-0.135
			c-0.09-0.09-0.14-0.21-0.149-0.36c0-0.27,0.164-0.435,0.494-0.495c0.25,0,0.415,0.165,0.495,0.495
			C1407.235,188.341,1407.07,188.506,1406.74,188.506z M1406.74,192.931c-0.109,0-0.225-0.045-0.345-0.135
			c-0.09-0.09-0.14-0.21-0.149-0.36c0-0.27,0.164-0.435,0.494-0.495c0.25,0,0.415,0.165,0.495,0.495
			C1407.235,192.766,1407.07,192.931,1406.74,192.931z"/>
		<path stroke="#000000" stroke-width="0.2" stroke-miterlimit="10" d="M1409.08,192.841v-10.71h0.6v10.71H1409.08z"/>
		<path stroke="#000000" stroke-width="0.2" stroke-miterlimit="10" d="M1415.17,192.841v-3.705c0-1.31-0.59-1.965-1.77-1.965
			c-0.58,0-1.02,0.17-1.32,0.51c-0.311,0.34-0.465,0.805-0.465,1.395v3.765H1411v-6.195h0.615v0.75
			c0.279-0.55,0.875-0.825,1.785-0.825c0.77,0,1.359,0.22,1.77,0.66s0.615,1.055,0.615,1.845v3.765H1415.17z"/>
		<path stroke="#000000" stroke-width="0.2" stroke-miterlimit="10" d="M1418.695,187.261v5.58h-0.615v-5.58h-0.84v-0.615h0.84
			v-2.715h0.615v2.715h1.439v0.615H1418.695z"/>
		<path stroke="#000000" stroke-width="0.2" stroke-miterlimit="10" d="M1421.635,189.616c0,0.84,0.225,1.505,0.676,1.995
			c0.469,0.5,1.114,0.75,1.935,0.75c0.42,0,0.8-0.07,1.14-0.21c0.43-0.18,0.814-0.545,1.155-1.095l0.555,0.255
			c-0.39,0.74-0.989,1.24-1.8,1.5c-0.311,0.1-0.66,0.15-1.05,0.15c-0.931,0-1.695-0.305-2.296-0.915
			c-0.609-0.61-0.914-1.375-0.914-2.295c0-0.93,0.3-1.695,0.9-2.295c0.609-0.61,1.379-0.915,2.31-0.915
			c0.92,0,1.68,0.285,2.28,0.855c0.609,0.57,0.914,1.31,0.914,2.22H1421.635z M1425.865,187.651c-0.471-0.34-1.01-0.51-1.62-0.51
			c-1.28,0-2.12,0.63-2.521,1.89h5.025C1426.65,188.461,1426.355,188.001,1425.865,187.651z"/>
		<path stroke="#000000" stroke-width="0.2" stroke-miterlimit="10" d="M1431.79,187.561c-0.16-0.12-0.33-0.215-0.511-0.285
			c-0.18-0.07-0.369-0.105-0.569-0.105c-0.17,0-0.33,0.052-0.479,0.157c-0.15,0.105-0.281,0.235-0.391,0.39
			c-0.109,0.155-0.197,0.328-0.262,0.518c-0.066,0.19-0.098,0.365-0.098,0.525v4.08h-0.615v-6.195h0.615v0.84
			c0.129-0.23,0.299-0.44,0.51-0.63c0.21-0.19,0.439-0.285,0.689-0.285c0.311,0,0.564,0.035,0.766,0.105
			c0.199,0.07,0.425,0.195,0.675,0.375L1431.79,187.561z"/>
		<path stroke="#000000" stroke-width="0.2" stroke-miterlimit="10" d="M1435.87,182.356l-0.405-0.045c-0.561,0-0.84,0.33-0.84,0.99
			v3.345h1.47v0.615h-1.47v5.58h-0.615v-5.58h-0.84v-0.615h0.84v-3.525c0-0.95,0.48-1.425,1.439-1.425
			c0.221,0,0.361,0.01,0.421,0.03c0.12,0,0.255,0.035,0.405,0.105v0.615L1435.87,182.356z"/>
		<path stroke="#000000" stroke-width="0.2" stroke-miterlimit="10" d="M1441.975,192.841v-1.065c-0.649,0.78-1.475,1.17-2.475,1.17
			c-0.9,0-1.654-0.305-2.265-0.915c-0.62-0.62-0.931-1.38-0.931-2.28c0-0.9,0.306-1.655,0.916-2.265
			c0.619-0.62,1.379-0.93,2.279-0.93c0.99,0,1.815,0.39,2.475,1.17v-1.08h0.615v6.195H1441.975z M1441.33,187.921
			c-0.51-0.51-1.12-0.765-1.83-0.765c-0.72,0-1.33,0.25-1.83,0.75c-0.51,0.51-0.765,1.125-0.765,1.845c0,0.71,0.255,1.32,0.765,1.83
			c0.51,0.51,1.12,0.765,1.83,0.765c0.721,0,1.33-0.25,1.83-0.75c0.51-0.51,0.766-1.125,0.766-1.845
			C1442.096,189.041,1441.84,188.431,1441.33,187.921z"/>
		<path stroke="#000000" stroke-width="0.2" stroke-miterlimit="10" d="M1447.346,192.961c-0.921,0-1.686-0.305-2.295-0.915
			c-0.611-0.61-0.916-1.375-0.916-2.295s0.305-1.685,0.916-2.295c0.609-0.61,1.374-0.915,2.295-0.915c0.789,0,1.42,0.18,1.89,0.54
			v0.735l-0.39-0.255l-0.42-0.225c-0.381-0.13-0.74-0.195-1.08-0.195c-0.771,0-1.396,0.24-1.875,0.72
			c-0.49,0.49-0.735,1.12-0.735,1.89c0,0.76,0.245,1.385,0.735,1.875c0.489,0.49,1.114,0.735,1.875,0.735
			c0.719,0,1.35-0.24,1.89-0.72v0.765C1448.675,192.776,1448.045,192.961,1447.346,192.961z"/>
		<path stroke="#000000" stroke-width="0.2" stroke-miterlimit="10" d="M1450.225,189.616c0,0.84,0.225,1.505,0.676,1.995
			c0.469,0.5,1.114,0.75,1.935,0.75c0.42,0,0.8-0.07,1.14-0.21c0.43-0.18,0.814-0.545,1.155-1.095l0.555,0.255
			c-0.39,0.74-0.989,1.24-1.8,1.5c-0.311,0.1-0.66,0.15-1.05,0.15c-0.931,0-1.695-0.305-2.296-0.915
			c-0.609-0.61-0.914-1.375-0.914-2.295c0-0.93,0.3-1.695,0.9-2.295c0.609-0.61,1.379-0.915,2.31-0.915
			c0.92,0,1.68,0.285,2.28,0.855c0.609,0.57,0.914,1.31,0.914,2.22H1450.225z M1454.455,187.651c-0.471-0.34-1.01-0.51-1.62-0.51
			c-1.28,0-2.12,0.63-2.521,1.89h5.025C1455.24,188.461,1454.945,188.001,1454.455,187.651z"/>
		<path stroke="#000000" stroke-width="0.2" stroke-miterlimit="10" d="M1387.615,207.616c0,0.84,0.226,1.505,0.676,1.995
			c0.47,0.5,1.115,0.75,1.936,0.75c0.42,0,0.799-0.07,1.139-0.21c0.431-0.18,0.815-0.545,1.156-1.095l0.555,0.255
			c-0.391,0.74-0.99,1.24-1.801,1.5c-0.31,0.1-0.66,0.15-1.049,0.15c-0.931,0-1.695-0.305-2.296-0.915
			c-0.61-0.61-0.915-1.375-0.915-2.295c0-0.93,0.301-1.695,0.9-2.295c0.609-0.61,1.38-0.915,2.311-0.915
			c0.92,0,1.68,0.285,2.279,0.855c0.609,0.57,0.915,1.31,0.915,2.22H1387.615z M1391.846,205.651c-0.471-0.34-1.01-0.51-1.619-0.51
			c-1.281,0-2.121,0.63-2.521,1.89h5.024C1392.631,206.461,1392.336,206.001,1391.846,205.651z"/>
		<path stroke="#000000" stroke-width="0.2" stroke-miterlimit="10" d="M1397.531,210.841l-1.756-2.595l-1.754,2.595h-0.735
			l2.114-3.12l-2.069-3.075h0.72l1.725,2.565l1.711-2.565h0.72l-2.056,3.06l2.101,3.135H1397.531z"/>
		<path stroke="#000000" stroke-width="0.2" stroke-miterlimit="10" d="M1399.721,206.506c-0.109,0-0.225-0.045-0.345-0.135
			c-0.09-0.09-0.14-0.21-0.149-0.36c0-0.27,0.164-0.435,0.494-0.495c0.25,0,0.415,0.165,0.495,0.495
			C1400.216,206.341,1400.051,206.506,1399.721,206.506z M1399.721,210.931c-0.109,0-0.225-0.045-0.345-0.135
			c-0.09-0.09-0.14-0.21-0.149-0.36c0-0.27,0.164-0.435,0.494-0.495c0.25,0,0.415,0.165,0.495,0.495
			C1400.216,210.766,1400.051,210.931,1399.721,210.931z"/>
		<path stroke="#000000" stroke-width="0.2" stroke-miterlimit="10" d="M1406.726,204.736c-0.56,0.5-1.25,0.75-2.069,0.75h-2.01
			v5.355h-0.601v-10.71h2.61c0.819,0,1.51,0.24,2.069,0.72c0.56,0.48,0.841,1.125,0.841,1.935
			C1407.566,203.606,1407.285,204.256,1406.726,204.736z M1406.261,201.256c-0.41-0.34-0.95-0.51-1.62-0.51h-1.994v4.125h1.994
			c0.66,0,1.21-0.18,1.65-0.54c0.439-0.38,0.66-0.895,0.66-1.545C1406.951,202.136,1406.721,201.626,1406.261,201.256z"/>
		<path stroke="#000000" stroke-width="0.2" stroke-miterlimit="10" d="M1409.352,203.536c-0.111,0-0.226-0.045-0.346-0.135
			c-0.09-0.09-0.141-0.21-0.15-0.36c0-0.27,0.166-0.435,0.496-0.495c0.249,0,0.414,0.165,0.494,0.495
			C1409.846,203.371,1409.682,203.536,1409.352,203.536z M1409.036,210.841v-6.195h0.614v6.195H1409.036z"/>
		<path stroke="#000000" stroke-width="0.2" stroke-miterlimit="10" d="M1416.416,210.016c-0.621,0.62-1.381,0.93-2.28,0.93
			c-1.03,0-1.88-0.42-2.55-1.26v4.065h-0.615v-9.105h0.615v1.17c0.64-0.84,1.49-1.26,2.55-1.26c0.899,0,1.655,0.305,2.265,0.915
			c0.62,0.62,0.93,1.38,0.93,2.28C1417.33,208.651,1417.025,209.406,1416.416,210.016z M1415.966,205.921
			c-0.511-0.51-1.12-0.765-1.83-0.765c-0.72,0-1.33,0.25-1.83,0.75c-0.51,0.51-0.765,1.125-0.765,1.845
			c0,0.71,0.255,1.32,0.765,1.83c0.511,0.51,1.12,0.765,1.83,0.765c0.72,0,1.33-0.25,1.83-0.75c0.51-0.51,0.765-1.125,0.765-1.845
			C1416.73,207.041,1416.476,206.431,1415.966,205.921z"/>
		<path stroke="#000000" stroke-width="0.2" stroke-miterlimit="10" d="M1418.815,207.616c0,0.84,0.226,1.505,0.675,1.995
			c0.471,0.5,1.115,0.75,1.936,0.75c0.42,0,0.8-0.07,1.14-0.21c0.431-0.18,0.815-0.545,1.155-1.095l0.555,0.255
			c-0.39,0.74-0.99,1.24-1.8,1.5c-0.31,0.1-0.66,0.15-1.05,0.15c-0.93,0-1.695-0.305-2.295-0.915
			c-0.61-0.61-0.916-1.375-0.916-2.295c0-0.93,0.301-1.695,0.9-2.295c0.61-0.61,1.381-0.915,2.311-0.915
			c0.92,0,1.68,0.285,2.279,0.855c0.61,0.57,0.916,1.31,0.916,2.22H1418.815z M1423.045,205.651c-0.47-0.34-1.01-0.51-1.619-0.51
			c-1.28,0-2.121,0.63-2.52,1.89h5.024C1423.83,206.461,1423.535,206.001,1423.045,205.651z"/>
		<path stroke="#000000" stroke-width="0.2" stroke-miterlimit="10" d="M1429.841,210.751c-0.39,0.14-0.851,0.21-1.38,0.21
			c-1.641,0-2.695-0.775-3.165-2.325l0.614-0.21c0.351,1.28,1.201,1.92,2.551,1.92c0.77,0,1.375-0.19,1.814-0.57
			c0.45-0.39,0.676-0.96,0.676-1.71c0-0.71-0.266-1.3-0.795-1.77c-0.141-0.13-0.355-0.275-0.646-0.435
			c-0.29-0.16-0.66-0.34-1.11-0.54c-0.85-0.38-1.43-0.71-1.74-0.99c-0.52-0.45-0.779-1.045-0.779-1.785s0.265-1.335,0.795-1.785
			c0.52-0.46,1.16-0.69,1.92-0.69c1.26,0,2.15,0.47,2.67,1.41l-0.585,0.255c-0.2-0.33-0.44-0.575-0.72-0.735
			c-0.35-0.22-0.805-0.33-1.365-0.33c-0.59,0-1.08,0.165-1.47,0.495c-0.421,0.35-0.63,0.81-0.63,1.38c0,0.51,0.22,0.955,0.66,1.335
			c0.25,0.2,0.75,0.47,1.5,0.81c0.469,0.21,0.875,0.417,1.215,0.623s0.615,0.412,0.824,0.623c0.58,0.57,0.871,1.28,0.871,2.13
			C1431.566,209.426,1430.99,210.321,1429.841,210.751z"/>
		<path stroke="#000000" stroke-width="0.2" stroke-miterlimit="10" d="M1437.101,210.301c-0.41,0.44-0.985,0.66-1.726,0.66
			c-0.729,0-1.295-0.215-1.694-0.645c-0.4-0.43-0.601-1.03-0.601-1.8v-3.87h0.615v3.87c0,0.59,0.13,1.045,0.391,1.365
			c0.27,0.32,0.699,0.48,1.289,0.48c1.15,0,1.726-0.615,1.726-1.845v-3.87h0.601v3.87
			C1437.701,209.276,1437.5,209.871,1437.101,210.301z"/>
		<path stroke="#000000" stroke-width="0.2" stroke-miterlimit="10" d="M1442.516,205.561c-0.16-0.12-0.33-0.215-0.511-0.285
			c-0.18-0.07-0.37-0.105-0.569-0.105c-0.17,0-0.33,0.052-0.48,0.157s-0.28,0.235-0.391,0.39c-0.109,0.155-0.197,0.328-0.262,0.518
			c-0.065,0.19-0.098,0.365-0.098,0.525v4.08h-0.615v-6.195h0.615v0.84c0.13-0.23,0.3-0.44,0.51-0.63
			c0.211-0.19,0.439-0.285,0.69-0.285c0.31,0,0.564,0.035,0.765,0.105c0.2,0.07,0.426,0.195,0.676,0.375L1442.516,205.561z"/>
		<path stroke="#000000" stroke-width="0.2" stroke-miterlimit="10" d="M1446.596,200.356l-0.406-0.045c-0.56,0-0.84,0.33-0.84,0.99
			v3.345h1.471v0.615h-1.471v5.58h-0.615v-5.58h-0.84v-0.615h0.84v-3.525c0-0.95,0.48-1.425,1.44-1.425c0.22,0,0.36,0.01,0.421,0.03
			c0.119,0,0.254,0.035,0.404,0.105v0.615L1446.596,200.356z"/>
		<path stroke="#000000" stroke-width="0.2" stroke-miterlimit="10" d="M1452.699,210.841v-1.065c-0.649,0.78-1.475,1.17-2.475,1.17
			c-0.9,0-1.654-0.305-2.265-0.915c-0.62-0.62-0.931-1.38-0.931-2.28c0-0.9,0.306-1.655,0.916-2.265
			c0.619-0.62,1.379-0.93,2.279-0.93c0.99,0,1.815,0.39,2.475,1.17v-1.08h0.615v6.195H1452.699z M1452.055,205.921
			c-0.51-0.51-1.12-0.765-1.83-0.765c-0.72,0-1.33,0.25-1.83,0.75c-0.51,0.51-0.765,1.125-0.765,1.845c0,0.71,0.255,1.32,0.765,1.83
			c0.51,0.51,1.12,0.765,1.83,0.765c0.721,0,1.33-0.25,1.83-0.75c0.51-0.51,0.766-1.125,0.766-1.845
			C1452.82,207.041,1452.564,206.431,1452.055,205.921z"/>
		<path stroke="#000000" stroke-width="0.2" stroke-miterlimit="10" d="M1458.07,210.961c-0.921,0-1.686-0.305-2.295-0.915
			c-0.611-0.61-0.916-1.375-0.916-2.295s0.305-1.685,0.916-2.295c0.609-0.61,1.374-0.915,2.295-0.915c0.789,0,1.42,0.18,1.89,0.54
			v0.735l-0.39-0.255l-0.42-0.225c-0.381-0.13-0.74-0.195-1.08-0.195c-0.771,0-1.396,0.24-1.875,0.72
			c-0.49,0.49-0.735,1.12-0.735,1.89c0,0.76,0.245,1.385,0.735,1.875c0.489,0.49,1.114,0.735,1.875,0.735
			c0.719,0,1.35-0.24,1.89-0.72v0.765C1459.399,210.776,1458.77,210.961,1458.07,210.961z"/>
		<path stroke="#000000" stroke-width="0.2" stroke-miterlimit="10" d="M1460.949,207.616c0,0.84,0.226,1.505,0.676,1.995
			c0.47,0.5,1.115,0.75,1.936,0.75c0.42,0,0.799-0.07,1.139-0.21c0.431-0.18,0.815-0.545,1.156-1.095l0.555,0.255
			c-0.391,0.74-0.99,1.24-1.801,1.5c-0.31,0.1-0.66,0.15-1.049,0.15c-0.931,0-1.695-0.305-2.296-0.915
			c-0.61-0.61-0.915-1.375-0.915-2.295c0-0.93,0.301-1.695,0.9-2.295c0.609-0.61,1.38-0.915,2.311-0.915
			c0.92,0,1.68,0.285,2.279,0.855c0.609,0.57,0.915,1.31,0.915,2.22H1460.949z M1465.18,205.651c-0.471-0.34-1.01-0.51-1.619-0.51
			c-1.281,0-2.121,0.63-2.521,1.89h5.024C1465.965,206.461,1465.67,206.001,1465.18,205.651z"/>
	</g>
</g>
<g>
	<path fill="#FFFFFF" stroke="#000000" stroke-miterlimit="10" d="M373.801,114.813c0,6.627-5.373,12-12,12H198.553
		c-6.629,0-12-5.373-12-12V77.928c0-6.628,5.371-12,12-12h163.248c6.627,0,12,5.372,12,12V114.813z"/>
	<g>
		<path d="M211.819,106.195c-0.78,0.28-1.7,0.42-2.76,0.42c-3.28,0-5.39-1.55-6.33-4.65l1.23-0.42c0.7,2.561,2.4,3.84,5.1,3.84
			c1.54,0,2.75-0.379,3.63-1.14c0.9-0.78,1.35-1.92,1.35-3.42c0-1.42-0.53-2.6-1.59-3.54c-0.28-0.26-0.71-0.55-1.29-0.87
			c-0.58-0.32-1.32-0.68-2.22-1.08c-1.7-0.76-2.86-1.42-3.48-1.98c-1.041-0.9-1.56-2.09-1.56-3.57s0.53-2.67,1.59-3.57
			c1.04-0.919,2.32-1.38,3.84-1.38c2.52,0,4.3,0.94,5.34,2.82l-1.17,0.51c-0.4-0.66-0.88-1.15-1.44-1.47
			c-0.7-0.439-1.61-0.66-2.73-0.66c-1.18,0-2.16,0.33-2.94,0.99c-0.84,0.7-1.26,1.62-1.26,2.76c0,1.02,0.439,1.91,1.32,2.67
			c0.5,0.4,1.5,0.94,3,1.62c0.94,0.42,1.75,0.835,2.43,1.245c0.68,0.41,1.23,0.825,1.65,1.245c1.16,1.14,1.74,2.561,1.74,4.26
			C215.27,103.545,214.119,105.335,211.819,106.195z"/>
		<path d="M219.979,112.195h-1.38l3.21-6.96l-5.22-11.25h1.32l4.62,9.78l4.56-9.78h1.35L219.979,112.195z"/>
		<path d="M237.168,105.595c-0.8,0.68-1.76,1.02-2.88,1.02c-1.92,0-3.36-0.87-4.32-2.61l1.05-0.63c0.34,0.62,0.75,1.1,1.23,1.44
			c0.5,0.38,1.18,0.57,2.04,0.57c1.88,0,2.82-0.799,2.82-2.4c0-0.7-0.33-1.31-0.99-1.83c-0.2-0.12-0.485-0.255-0.855-0.405
			c-0.37-0.15-0.825-0.325-1.365-0.525c-1-0.36-1.72-0.72-2.16-1.08c-0.641-0.52-0.96-1.27-0.96-2.25c0-0.84,0.319-1.56,0.96-2.16
			c0.62-0.62,1.43-0.93,2.43-0.93c1.38,0,2.55,0.48,3.51,1.44l-0.9,0.78c-0.68-0.68-1.55-1.02-2.61-1.02
			c-1.44,0-2.16,0.63-2.16,1.89c0,0.56,0.22,1.02,0.66,1.38c0.36,0.28,0.93,0.55,1.71,0.81c0.68,0.24,1.24,0.465,1.68,0.675
			c0.44,0.21,0.77,0.396,0.99,0.555c0.859,0.66,1.29,1.55,1.29,2.67C238.339,104.065,237.949,104.935,237.168,105.595z"/>
		<path d="M242.868,95.215v11.16h-1.23v-11.16h-1.68v-1.23h1.68v-5.43h1.23v5.43h2.88v1.23H242.868z"/>
		<path d="M248.749,99.925c0,1.68,0.45,3.011,1.35,3.99c0.94,1,2.23,1.5,3.87,1.5c0.84,0,1.6-0.14,2.28-0.42
			c0.859-0.36,1.629-1.09,2.31-2.19l1.11,0.51c-0.78,1.48-1.98,2.48-3.6,3c-0.62,0.2-1.32,0.3-2.1,0.3c-1.86,0-3.39-0.61-4.59-1.83
			c-1.22-1.22-1.83-2.75-1.83-4.59c0-1.86,0.6-3.39,1.8-4.59c1.22-1.22,2.76-1.83,4.62-1.83c1.84,0,3.36,0.57,4.56,1.71
			c1.22,1.14,1.83,2.621,1.83,4.44H248.749z M257.208,95.995c-0.94-0.68-2.021-1.02-3.24-1.02c-2.56,0-4.24,1.26-5.04,3.78h10.05
			C258.778,97.615,258.188,96.695,257.208,95.995z"/>
		<path d="M277.308,106.375v-8.55c0-0.76-0.25-1.42-0.75-1.98c-0.5-0.56-1.22-0.84-2.16-0.84c-1.94,0-2.91,0.94-2.91,2.82v8.55
			h-1.23v-8.55c0-0.84-0.28-1.51-0.84-2.01c-0.58-0.54-1.27-0.81-2.07-0.81c-0.82,0-1.51,0.26-2.07,0.78
			c-0.56,0.5-0.84,1.18-0.84,2.04v8.55h-1.23v-12.39h1.23v1.23c0.6-0.939,1.57-1.41,2.91-1.41c1.6,0,2.78,0.65,3.54,1.95
			c0.72-1.3,1.89-1.95,3.51-1.95c1.24,0,2.24,0.35,3,1.05c0.76,0.72,1.14,1.71,1.14,2.97v8.55H277.308z"/>
		<path d="M303.438,106.375v-11.16h-11.79v11.16h-1.2v-21.42h1.2v9.03h11.79v-9.03h1.23v21.42H303.438z"/>
		<path d="M316.907,106.195c-0.78,0.28-1.7,0.42-2.76,0.42c-3.28,0-5.39-1.55-6.33-4.65l1.23-0.42c0.7,2.561,2.4,3.84,5.1,3.84
			c1.54,0,2.75-0.379,3.63-1.14c0.9-0.78,1.35-1.92,1.35-3.42c0-1.42-0.53-2.6-1.59-3.54c-0.28-0.26-0.71-0.55-1.29-0.87
			c-0.58-0.32-1.32-0.68-2.22-1.08c-1.7-0.76-2.86-1.42-3.48-1.98c-1.041-0.9-1.56-2.09-1.56-3.57s0.53-2.67,1.59-3.57
			c1.04-0.919,2.32-1.38,3.84-1.38c2.52,0,4.3,0.94,5.34,2.82l-1.17,0.51c-0.4-0.66-0.88-1.15-1.44-1.47
			c-0.7-0.439-1.61-0.66-2.73-0.66c-1.18,0-2.16,0.33-2.94,0.99c-0.84,0.7-1.26,1.62-1.26,2.76c0,1.02,0.439,1.91,1.32,2.67
			c0.5,0.4,1.5,0.94,3,1.62c0.94,0.42,1.75,0.835,2.43,1.245c0.68,0.41,1.23,0.825,1.65,1.245c1.16,1.14,1.74,2.561,1.74,4.26
			C320.357,103.545,319.207,105.335,316.907,106.195z"/>
		<path d="M325.247,106.375v-20.19h-3.63l0.81-1.23h4.05v21.42H325.247z"/>
	</g>
	<g>
		<path stroke="#000000" stroke-width="0.2" stroke-miterlimit="10" d="M204.876,48.241l-0.405-0.045c-0.56,0-0.84,0.33-0.84,0.99
			v3.345h1.47v0.615h-1.47v5.58h-0.615v-5.58h-0.84v-0.615h0.84v-3.525c0-0.95,0.48-1.425,1.44-1.425c0.22,0,0.36,0.01,0.42,0.03
			c0.12,0,0.255,0.035,0.405,0.105v0.615L204.876,48.241z"/>
		<path stroke="#000000" stroke-width="0.2" stroke-miterlimit="10" d="M209.631,58.335c-0.4,0.34-0.88,0.51-1.44,0.51
			c-0.96,0-1.68-0.435-2.16-1.305l0.525-0.315c0.17,0.31,0.375,0.55,0.615,0.72c0.25,0.19,0.59,0.285,1.02,0.285
			c0.939,0,1.41-0.4,1.41-1.2c0-0.35-0.165-0.655-0.495-0.915c-0.1-0.06-0.242-0.127-0.427-0.203s-0.413-0.163-0.683-0.263
			c-0.5-0.18-0.86-0.36-1.08-0.54c-0.32-0.26-0.48-0.635-0.48-1.125c0-0.42,0.16-0.78,0.48-1.08c0.31-0.31,0.715-0.465,1.215-0.465
			c0.69,0,1.275,0.24,1.755,0.72l-0.45,0.39c-0.34-0.34-0.775-0.51-1.305-0.51c-0.72,0-1.08,0.315-1.08,0.945
			c0,0.28,0.11,0.51,0.33,0.69c0.18,0.14,0.465,0.275,0.855,0.405c0.34,0.12,0.62,0.232,0.84,0.337
			c0.22,0.105,0.385,0.198,0.495,0.278c0.43,0.33,0.645,0.775,0.645,1.335C210.216,57.571,210.021,58.005,209.631,58.335z"/>
		<path stroke="#000000" stroke-width="0.2" stroke-miterlimit="10" d="M216.561,57.9c-0.62,0.62-1.38,0.93-2.28,0.93
			c-0.9,0-1.655-0.305-2.265-0.915c-0.62-0.62-0.93-1.38-0.93-2.28c0-0.89,0.31-1.645,0.93-2.265c0.61-0.63,1.365-0.945,2.265-0.945
			c0.89,0,1.645,0.31,2.265,0.93c0.62,0.62,0.93,1.38,0.93,2.28C217.476,56.536,217.171,57.291,216.561,57.9z M216.126,53.791
			c-0.5-0.51-1.115-0.765-1.845-0.765c-0.7,0-1.305,0.26-1.815,0.78c-0.52,0.52-0.78,1.13-0.78,1.83c0,0.71,0.255,1.32,0.765,1.83
			c0.51,0.51,1.12,0.765,1.83,0.765c0.72,0,1.33-0.25,1.83-0.75c0.51-0.51,0.765-1.125,0.765-1.845
			C216.876,54.906,216.626,54.291,216.126,53.791z"/>
		<path stroke="#000000" stroke-width="0.2" stroke-miterlimit="10" d="M219.291,54.391c-0.11,0-0.225-0.045-0.345-0.135
			c-0.09-0.09-0.14-0.21-0.15-0.36c0-0.27,0.165-0.435,0.495-0.495c0.25,0,0.415,0.165,0.495,0.495
			C219.786,54.226,219.621,54.391,219.291,54.391z M219.291,58.815c-0.11,0-0.225-0.045-0.345-0.135c-0.09-0.09-0.14-0.21-0.15-0.36
			c0-0.27,0.165-0.435,0.495-0.495c0.25,0,0.415,0.165,0.495,0.495C219.786,58.65,219.621,58.815,219.291,58.815z"/>
		<path stroke="#000000" stroke-width="0.2" stroke-miterlimit="10" d="M225.621,58.636c-0.39,0.14-0.85,0.21-1.38,0.21
			c-1.64,0-2.695-0.775-3.165-2.325l0.615-0.21c0.35,1.28,1.2,1.92,2.55,1.92c0.77,0,1.375-0.19,1.815-0.57
			c0.45-0.39,0.675-0.96,0.675-1.71c0-0.71-0.265-1.3-0.795-1.77c-0.14-0.13-0.355-0.275-0.645-0.435
			c-0.29-0.16-0.66-0.34-1.11-0.54c-0.85-0.38-1.43-0.71-1.74-0.99c-0.52-0.45-0.78-1.045-0.78-1.785s0.265-1.335,0.795-1.785
			c0.52-0.46,1.16-0.69,1.92-0.69c1.26,0,2.15,0.47,2.67,1.41l-0.585,0.255c-0.2-0.33-0.44-0.575-0.72-0.735
			c-0.35-0.22-0.805-0.33-1.365-0.33c-0.59,0-1.08,0.165-1.47,0.495c-0.42,0.35-0.63,0.81-0.63,1.38c0,0.51,0.22,0.955,0.66,1.335
			c0.25,0.2,0.75,0.47,1.5,0.81c0.47,0.21,0.875,0.417,1.215,0.623s0.615,0.412,0.825,0.623c0.58,0.57,0.87,1.28,0.87,2.13
			C227.346,57.311,226.771,58.206,225.621,58.636z"/>
		<path stroke="#000000" stroke-width="0.2" stroke-miterlimit="10" d="M229.701,61.636h-0.69l1.605-3.48l-2.61-5.625h0.66
			l2.31,4.89l2.28-4.89h0.675L229.701,61.636z"/>
		<path stroke="#000000" stroke-width="0.2" stroke-miterlimit="10" d="M238.295,58.335c-0.4,0.34-0.88,0.51-1.44,0.51
			c-0.96,0-1.68-0.435-2.16-1.305l0.525-0.315c0.17,0.31,0.375,0.55,0.615,0.72c0.25,0.19,0.59,0.285,1.02,0.285
			c0.939,0,1.41-0.4,1.41-1.2c0-0.35-0.165-0.655-0.495-0.915c-0.1-0.06-0.242-0.127-0.427-0.203s-0.413-0.163-0.683-0.263
			c-0.5-0.18-0.86-0.36-1.08-0.54c-0.32-0.26-0.48-0.635-0.48-1.125c0-0.42,0.16-0.78,0.48-1.08c0.31-0.31,0.715-0.465,1.215-0.465
			c0.69,0,1.275,0.24,1.755,0.72l-0.45,0.39c-0.34-0.34-0.775-0.51-1.305-0.51c-0.72,0-1.08,0.315-1.08,0.945
			c0,0.28,0.11,0.51,0.33,0.69c0.18,0.14,0.465,0.275,0.855,0.405c0.34,0.12,0.62,0.232,0.84,0.337
			c0.22,0.105,0.385,0.198,0.495,0.278c0.43,0.33,0.645,0.775,0.645,1.335C238.88,57.571,238.685,58.005,238.295,58.335z"/>
		<path stroke="#000000" stroke-width="0.2" stroke-miterlimit="10" d="M241.145,53.146v5.58h-0.615v-5.58h-0.84v-0.615h0.84v-2.715
			h0.615v2.715h1.44v0.615H241.145z"/>
		<path stroke="#000000" stroke-width="0.2" stroke-miterlimit="10" d="M244.085,55.5c0,0.84,0.225,1.505,0.675,1.995
			c0.47,0.5,1.115,0.75,1.935,0.75c0.42,0,0.8-0.07,1.14-0.21c0.43-0.18,0.815-0.545,1.155-1.095l0.555,0.255
			c-0.39,0.74-0.99,1.24-1.8,1.5c-0.31,0.1-0.66,0.15-1.05,0.15c-0.93,0-1.695-0.305-2.295-0.915
			c-0.61-0.61-0.915-1.375-0.915-2.295c0-0.93,0.3-1.695,0.9-2.295c0.61-0.61,1.38-0.915,2.31-0.915c0.92,0,1.68,0.285,2.28,0.855
			c0.61,0.57,0.915,1.31,0.915,2.22H244.085z M248.315,53.536c-0.47-0.34-1.01-0.51-1.62-0.51c-1.28,0-2.121,0.63-2.52,1.89h5.025
			C249.1,54.346,248.805,53.886,248.315,53.536z"/>
		<path stroke="#000000" stroke-width="0.2" stroke-miterlimit="10" d="M258.365,58.726v-4.275c0-0.38-0.125-0.71-0.375-0.99
			c-0.25-0.28-0.61-0.42-1.08-0.42c-0.97,0-1.455,0.47-1.455,1.41v4.275h-0.615v-4.275c0-0.42-0.14-0.755-0.42-1.005
			c-0.291-0.27-0.635-0.405-1.035-0.405c-0.41,0-0.755,0.13-1.035,0.39c-0.28,0.25-0.42,0.59-0.42,1.02v4.275h-0.615v-6.195h0.615
			v0.615c0.3-0.47,0.785-0.705,1.455-0.705c0.8,0,1.39,0.325,1.77,0.975c0.36-0.65,0.945-0.975,1.755-0.975
			c0.62,0,1.12,0.175,1.5,0.525c0.38,0.36,0.57,0.855,0.57,1.485v4.275H258.365z"/>
	</g>
</g>
<g>
	<path stroke="#000000" stroke-width="0.2" stroke-miterlimit="10" d="M1490.24,719.367c-0.621,0.62-1.381,0.93-2.28,0.93
		c-1.03,0-1.875-0.414-2.535-1.244v1.14h-0.614v-11.101h0.614v6.061c0.649-0.83,1.495-1.245,2.535-1.245
		c0.899,0,1.655,0.306,2.265,0.915c0.62,0.62,0.93,1.38,0.93,2.28C1491.154,718.002,1490.85,718.758,1490.24,719.367z
		 M1489.79,715.272c-0.511-0.511-1.12-0.765-1.83-0.765c-0.72,0-1.33,0.25-1.83,0.75c-0.511,0.51-0.765,1.125-0.765,1.845
		c0,0.71,0.254,1.319,0.765,1.83c0.51,0.51,1.12,0.765,1.83,0.765c0.72,0,1.329-0.25,1.83-0.75c0.51-0.51,0.765-1.125,0.765-1.845
		C1490.555,716.393,1490.3,715.782,1489.79,715.272z"/>
	<path stroke="#000000" stroke-width="0.2" stroke-miterlimit="10" d="M1497.74,719.367c-0.621,0.62-1.381,0.93-2.28,0.93
		c-0.9,0-1.655-0.305-2.265-0.914c-0.621-0.62-0.931-1.381-0.931-2.28c0-0.89,0.31-1.646,0.931-2.265
		c0.609-0.631,1.364-0.945,2.265-0.945c0.89,0,1.645,0.311,2.265,0.93c0.62,0.62,0.93,1.38,0.93,2.28
		C1498.654,718.002,1498.35,718.758,1497.74,719.367z M1497.305,715.258c-0.5-0.51-1.115-0.766-1.845-0.766
		c-0.7,0-1.306,0.26-1.815,0.78c-0.52,0.521-0.779,1.13-0.779,1.83c0,0.71,0.254,1.319,0.765,1.83c0.51,0.51,1.12,0.765,1.83,0.765
		c0.72,0,1.329-0.25,1.829-0.75c0.511-0.51,0.766-1.125,0.766-1.845C1498.055,716.373,1497.805,715.758,1497.305,715.258z"/>
	<path stroke="#000000" stroke-width="0.2" stroke-miterlimit="10" d="M1501.129,714.612v5.58h-0.614v-5.58h-0.841v-0.614h0.841
		v-2.716h0.614v2.716h1.44v0.614H1501.129z"/>
	<path stroke="#000000" stroke-width="0.2" stroke-miterlimit="10" d="M1504.219,715.857c-0.109,0-0.225-0.045-0.344-0.135
		c-0.09-0.09-0.141-0.211-0.15-0.36c0-0.271,0.165-0.435,0.494-0.495c0.25,0,0.416,0.165,0.496,0.495
		C1504.715,715.692,1504.549,715.857,1504.219,715.857z M1504.219,720.282c-0.109,0-0.225-0.045-0.344-0.135
		c-0.09-0.09-0.141-0.21-0.15-0.36c0-0.27,0.165-0.435,0.494-0.494c0.25,0,0.416,0.164,0.496,0.494
		C1504.715,720.117,1504.549,720.282,1504.219,720.282z"/>
	<path stroke="#000000" stroke-width="0.2" stroke-miterlimit="10" d="M1507.084,719.577h6.12v0.615h-7.215l6.136-10.08h-5.775
		v-0.63h6.885L1507.084,719.577z"/>
	<path stroke="#000000" stroke-width="0.2" stroke-miterlimit="10" d="M1518.949,719.367c-0.621,0.62-1.381,0.93-2.28,0.93
		c-0.9,0-1.655-0.305-2.265-0.914c-0.621-0.62-0.931-1.381-0.931-2.28c0-0.89,0.31-1.646,0.931-2.265
		c0.609-0.631,1.364-0.945,2.265-0.945c0.89,0,1.645,0.311,2.265,0.93c0.62,0.62,0.93,1.38,0.93,2.28
		C1519.863,718.002,1519.559,718.758,1518.949,719.367z M1518.514,715.258c-0.5-0.51-1.115-0.766-1.845-0.766
		c-0.7,0-1.306,0.26-1.815,0.78c-0.52,0.521-0.779,1.13-0.779,1.83c0,0.71,0.254,1.319,0.765,1.83c0.51,0.51,1.12,0.765,1.83,0.765
		c0.72,0,1.329-0.25,1.829-0.75c0.511-0.51,0.766-1.125,0.766-1.845C1519.264,716.373,1519.014,715.758,1518.514,715.258z"/>
	<path stroke="#000000" stroke-width="0.2" stroke-miterlimit="10" d="M1525.578,720.192v-3.705c0-1.31-0.59-1.965-1.77-1.965
		c-0.58,0-1.02,0.17-1.32,0.51c-0.311,0.341-0.465,0.806-0.465,1.396v3.765h-0.615v-6.194h0.615v0.75
		c0.279-0.551,0.875-0.826,1.785-0.826c0.77,0,1.359,0.221,1.77,0.66c0.41,0.44,0.615,1.056,0.615,1.846v3.765H1525.578z"/>
	<path stroke="#000000" stroke-width="0.2" stroke-miterlimit="10" d="M1528.293,716.967c0,0.841,0.225,1.506,0.676,1.996
		c0.469,0.5,1.114,0.75,1.935,0.75c0.42,0,0.8-0.07,1.14-0.211c0.43-0.18,0.814-0.545,1.155-1.095l0.555,0.255
		c-0.39,0.74-0.989,1.24-1.8,1.5c-0.311,0.1-0.66,0.15-1.05,0.15c-0.931,0-1.695-0.305-2.296-0.915
		c-0.609-0.61-0.914-1.375-0.914-2.295c0-0.931,0.3-1.695,0.9-2.295c0.609-0.61,1.379-0.915,2.31-0.915
		c0.92,0,1.68,0.285,2.28,0.855c0.609,0.569,0.914,1.31,0.914,2.219H1528.293z M1532.523,715.002c-0.471-0.34-1.01-0.51-1.62-0.51
		c-1.28,0-2.12,0.631-2.521,1.891h5.025C1533.309,715.813,1533.014,715.353,1532.523,715.002z"/>
</g>
</svg>
