<?xml version="1.0" encoding="utf-8"?>
<!-- Generator: Adobe Illustrator 16.0.0, SVG Export Plug-In . SVG Version: 6.00 Build 0)  -->
<!DOCTYPE svg PUBLIC "-//W3C//DTD SVG 1.1//EN" "http://www.w3.org/Graphics/SVG/1.1/DTD/svg11.dtd">
<svg version="1.1" id="Layer_1" xmlns="http://www.w3.org/2000/svg" xmlns:xlink="http://www.w3.org/1999/xlink" x="0px" y="0px"
	 width="1920px" height="1080px" viewBox="0 0 1920 1080" enable-background="new 0 0 1920 1080" xml:space="preserve">
<g opacity="0.2">
	<rect x="328.691" y="424.762" fill="#E3E9BA" width="181.133" height="216.067"/>
	<g>
		<polyline fill="none" stroke="#4B453C" stroke-miterlimit="10" points="509.824,634.829 509.824,640.829 503.824,640.829 		"/>
		
			<line fill="none" stroke="#4B453C" stroke-miterlimit="10" stroke-dasharray="11.2756,11.2756" x1="492.549" y1="640.829" x2="340.329" y2="640.829"/>
		<polyline fill="none" stroke="#4B453C" stroke-miterlimit="10" points="334.691,640.829 328.691,640.829 328.691,634.829 		"/>
		
			<line fill="none" stroke="#4B453C" stroke-miterlimit="10" stroke-dasharray="12.0039,12.0039" x1="328.691" y1="622.825" x2="328.691" y2="436.764"/>
		<polyline fill="none" stroke="#4B453C" stroke-miterlimit="10" points="328.691,430.762 328.691,424.762 334.691,424.762 		"/>
		
			<line fill="none" stroke="#4B453C" stroke-miterlimit="10" stroke-dasharray="11.2756,11.2756" x1="345.966" y1="424.762" x2="498.187" y2="424.762"/>
		<polyline fill="none" stroke="#4B453C" stroke-miterlimit="10" points="503.824,424.762 509.824,424.762 509.824,430.762 		"/>
		
			<line fill="none" stroke="#4B453C" stroke-miterlimit="10" stroke-dasharray="12.0039,12.0039" x1="509.824" y1="442.766" x2="509.824" y2="628.827"/>
	</g>
</g>
<g opacity="0.2">
	<rect x="737.195" y="210.324" fill="#D6ECEB" width="181.133" height="216.067"/>
	<g>
		<polyline fill="none" stroke="#4B453C" stroke-miterlimit="10" points="918.329,420.391 918.329,426.391 912.329,426.391 		"/>
		
			<line fill="none" stroke="#4B453C" stroke-miterlimit="10" stroke-dasharray="11.2756,11.2756" x1="901.053" y1="426.391" x2="748.833" y2="426.391"/>
		<polyline fill="none" stroke="#4B453C" stroke-miterlimit="10" points="743.195,426.391 737.195,426.391 737.195,420.391 		"/>
		
			<line fill="none" stroke="#4B453C" stroke-miterlimit="10" stroke-dasharray="12.0039,12.0039" x1="737.195" y1="408.387" x2="737.195" y2="222.326"/>
		<polyline fill="none" stroke="#4B453C" stroke-miterlimit="10" points="737.195,216.324 737.195,210.324 743.195,210.324 		"/>
		
			<line fill="none" stroke="#4B453C" stroke-miterlimit="10" stroke-dasharray="11.2756,11.2756" x1="754.471" y1="210.324" x2="906.691" y2="210.324"/>
		<polyline fill="none" stroke="#4B453C" stroke-miterlimit="10" points="912.329,210.324 918.329,210.324 918.329,216.324 		"/>
		
			<line fill="none" stroke="#4B453C" stroke-miterlimit="10" stroke-dasharray="12.0039,12.0039" x1="918.329" y1="228.328" x2="918.329" y2="414.389"/>
	</g>
</g>
<g opacity="0.2">
	<rect x="1145.175" y="280.511" fill="#4F766F" width="181.133" height="216.066"/>
	<g>
		<polyline fill="none" stroke="#4B453C" stroke-miterlimit="10" points="1326.308,490.578 1326.308,496.578 1320.308,496.578 		"/>
		
			<line fill="none" stroke="#4B453C" stroke-miterlimit="10" stroke-dasharray="11.2755,11.2755" x1="1309.033" y1="496.578" x2="1156.813" y2="496.578"/>
		<polyline fill="none" stroke="#4B453C" stroke-miterlimit="10" points="1151.175,496.578 1145.175,496.578 1145.175,490.578 		"/>
		
			<line fill="none" stroke="#4B453C" stroke-miterlimit="10" stroke-dasharray="12.0039,12.0039" x1="1145.175" y1="478.574" x2="1145.175" y2="292.513"/>
		<polyline fill="none" stroke="#4B453C" stroke-miterlimit="10" points="1145.175,286.511 1145.175,280.511 1151.175,280.511 		"/>
		
			<line fill="none" stroke="#4B453C" stroke-miterlimit="10" stroke-dasharray="11.2755,11.2755" x1="1162.451" y1="280.511" x2="1314.67" y2="280.511"/>
		<polyline fill="none" stroke="#4B453C" stroke-miterlimit="10" points="1320.308,280.511 1326.308,280.511 1326.308,286.511 		"/>
		
			<line fill="none" stroke="#4B453C" stroke-miterlimit="10" stroke-dasharray="12.0039,12.0039" x1="1326.308" y1="298.515" x2="1326.308" y2="484.576"/>
	</g>
</g>
<g opacity="0.2">
	<rect x="885.851" y="509.528" fill="#00495D" width="661" height="390.688"/>
	<g>
		<polyline fill="none" stroke="#4B453C" stroke-miterlimit="10" points="1546.851,894.216 1546.851,900.216 1540.851,900.216 		"/>
		
			<line fill="none" stroke="#4B453C" stroke-miterlimit="10" stroke-dasharray="11.8,11.8" x1="1529.051" y1="900.216" x2="897.751" y2="900.216"/>
		<polyline fill="none" stroke="#4B453C" stroke-miterlimit="10" points="891.851,900.216 885.851,900.216 885.851,894.216 		"/>
		
			<line fill="none" stroke="#4B453C" stroke-miterlimit="10" stroke-dasharray="12.2158,12.2158" x1="885.851" y1="882" x2="885.851" y2="521.635"/>
		<polyline fill="none" stroke="#4B453C" stroke-miterlimit="10" points="885.851,515.528 885.851,509.528 891.851,509.528 		"/>
		
			<line fill="none" stroke="#4B453C" stroke-miterlimit="10" stroke-dasharray="11.8,11.8" x1="903.651" y1="509.528" x2="1534.951" y2="509.528"/>
		<polyline fill="none" stroke="#4B453C" stroke-miterlimit="10" points="1540.851,509.528 1546.851,509.528 1546.851,515.528 		"/>
		
			<line fill="none" stroke="#4B453C" stroke-miterlimit="10" stroke-dasharray="12.2158,12.2158" x1="1546.851" y1="527.744" x2="1546.851" y2="888.109"/>
	</g>
</g>
<g>
	<g>
		<polygon fill="#FFFFFF" stroke="#4B453C" stroke-miterlimit="10" points="460.994,456.261 460.994,567.555 377.521,567.555 
			377.521,478.518 399.781,456.261 		"/>
		<polyline fill="#FFFFFF" stroke="#4B453C" stroke-miterlimit="10" points="399.781,456.261 399.781,478.518 377.521,478.518 		"/>
	</g>
	<line fill="none" stroke="#4B453C" stroke-miterlimit="10" x1="388.65" y1="550.905" x2="447.754" y2="550.905"/>
	<line fill="none" stroke="#4B453C" stroke-miterlimit="10" x1="388.65" y1="540.56" x2="447.754" y2="540.56"/>
	<line fill="none" stroke="#4B453C" stroke-miterlimit="10" x1="388.65" y1="530.216" x2="447.754" y2="530.216"/>
	<line fill="none" stroke="#4B453C" stroke-miterlimit="10" x1="388.65" y1="519.872" x2="447.754" y2="519.872"/>
	<line fill="none" stroke="#4B453C" stroke-miterlimit="10" x1="388.65" y1="509.528" x2="447.754" y2="509.528"/>
	<line fill="none" stroke="#4B453C" stroke-miterlimit="10" x1="388.65" y1="499.694" x2="447.754" y2="499.694"/>
	<line fill="none" stroke="#4B453C" stroke-miterlimit="10" x1="388.65" y1="489.35" x2="447.754" y2="489.35"/>
	<line fill="none" stroke="#4B453C" stroke-miterlimit="10" x1="397.695" y1="479.005" x2="447.754" y2="479.005"/>
	<line fill="none" stroke="#4B453C" stroke-miterlimit="10" x1="399.781" y1="468.662" x2="447.754" y2="468.662"/>
</g>
<g>
	<g>
		
			<line fill="none" stroke="#4B453C" stroke-width="2" stroke-miterlimit="10" x1="444.726" y1="489.349" x2="1046.076" y2="590.068"/>
		<g>
			<polygon fill="#4B453C" points="1039.312,596.445 1043.639,589.66 1041.759,581.835 1057.851,592.041 			"/>
		</g>
	</g>
</g>
<g>
	<g>
		<polygon fill="#FFFFFF" stroke="#4B453C" stroke-miterlimit="10" points="1152.985,536.393 1152.985,647.687 1069.512,647.687 
			1069.512,558.65 1091.772,536.393 		"/>
		<polyline fill="#FFFFFF" stroke="#4B453C" stroke-miterlimit="10" points="1091.772,536.393 1091.772,558.65 1069.512,558.65 		
			"/>
	</g>
	<line fill="none" stroke="#4B453C" stroke-miterlimit="10" x1="1080.641" y1="631.037" x2="1139.745" y2="631.037"/>
	<line fill="none" stroke="#4B453C" stroke-miterlimit="10" x1="1080.641" y1="620.692" x2="1139.745" y2="620.692"/>
	<line fill="none" stroke="#4B453C" stroke-miterlimit="10" x1="1080.641" y1="610.348" x2="1139.745" y2="610.348"/>
	<line fill="none" stroke="#4B453C" stroke-miterlimit="10" x1="1080.641" y1="600.003" x2="1139.745" y2="600.003"/>
	<line fill="none" stroke="#4B453C" stroke-miterlimit="10" x1="1080.641" y1="589.66" x2="1139.745" y2="589.66"/>
	<line fill="none" stroke="#4B453C" stroke-miterlimit="10" x1="1080.641" y1="579.826" x2="1139.745" y2="579.826"/>
	<line fill="none" stroke="#4B453C" stroke-miterlimit="10" x1="1080.641" y1="569.482" x2="1139.745" y2="569.482"/>
	<line fill="none" stroke="#4B453C" stroke-miterlimit="10" x1="1089.686" y1="559.137" x2="1139.745" y2="559.137"/>
	<line fill="none" stroke="#4B453C" stroke-miterlimit="10" x1="1091.772" y1="548.793" x2="1139.745" y2="548.793"/>
</g>
<g>
	<g>
		<polygon fill="#FFFFFF" stroke="#4B453C" stroke-miterlimit="10" points="869.499,241.823 869.499,353.117 786.026,353.117 
			786.026,264.08 808.286,241.823 		"/>
		<polyline fill="#FFFFFF" stroke="#4B453C" stroke-miterlimit="10" points="808.286,241.823 808.286,264.08 786.026,264.08 		"/>
	</g>
	<line fill="none" stroke="#4B453C" stroke-miterlimit="10" x1="797.155" y1="336.467" x2="856.258" y2="336.467"/>
	<line fill="none" stroke="#4B453C" stroke-miterlimit="10" x1="797.155" y1="326.122" x2="856.258" y2="326.122"/>
	<line fill="none" stroke="#4B453C" stroke-miterlimit="10" x1="797.155" y1="315.778" x2="856.258" y2="315.778"/>
	<line fill="none" stroke="#4B453C" stroke-miterlimit="10" x1="797.155" y1="305.434" x2="856.258" y2="305.434"/>
	<line fill="none" stroke="#4B453C" stroke-miterlimit="10" x1="797.155" y1="295.09" x2="856.258" y2="295.09"/>
	<line fill="none" stroke="#4B453C" stroke-miterlimit="10" x1="797.155" y1="285.256" x2="856.258" y2="285.256"/>
	<line fill="none" stroke="#4B453C" stroke-miterlimit="10" x1="797.155" y1="274.912" x2="856.258" y2="274.912"/>
	<line fill="none" stroke="#4B453C" stroke-miterlimit="10" x1="806.2" y1="264.567" x2="856.258" y2="264.567"/>
	<line fill="none" stroke="#4B453C" stroke-miterlimit="10" x1="808.286" y1="254.224" x2="856.258" y2="254.224"/>
</g>
<g>
	<g>
		<polygon fill="#FFFFFF" stroke="#4B453C" stroke-miterlimit="10" points="1277.478,312.011 1277.478,423.305 1194.005,423.305 
			1194.005,334.268 1216.265,312.011 		"/>
		<polyline fill="#FFFFFF" stroke="#4B453C" stroke-miterlimit="10" points="1216.265,312.011 1216.265,334.268 1194.005,334.268 		
			"/>
	</g>
	<line fill="none" stroke="#4B453C" stroke-miterlimit="10" x1="1205.134" y1="406.654" x2="1264.238" y2="406.654"/>
	<line fill="none" stroke="#4B453C" stroke-miterlimit="10" x1="1205.134" y1="396.31" x2="1264.238" y2="396.31"/>
	<line fill="none" stroke="#4B453C" stroke-miterlimit="10" x1="1205.134" y1="385.966" x2="1264.238" y2="385.966"/>
	<line fill="none" stroke="#4B453C" stroke-miterlimit="10" x1="1205.134" y1="375.621" x2="1264.238" y2="375.621"/>
	<line fill="none" stroke="#4B453C" stroke-miterlimit="10" x1="1205.134" y1="365.277" x2="1264.238" y2="365.277"/>
	<line fill="none" stroke="#4B453C" stroke-miterlimit="10" x1="1205.134" y1="355.443" x2="1264.238" y2="355.443"/>
	<line fill="none" stroke="#4B453C" stroke-miterlimit="10" x1="1205.134" y1="345.1" x2="1264.238" y2="345.1"/>
	<line fill="none" stroke="#4B453C" stroke-miterlimit="10" x1="1214.179" y1="334.755" x2="1264.238" y2="334.755"/>
	<line fill="none" stroke="#4B453C" stroke-miterlimit="10" x1="1216.265" y1="324.411" x2="1264.238" y2="324.411"/>
</g>
<g>
	<g>
		<polygon fill="#FFFFFF" stroke="#4B453C" stroke-miterlimit="10" points="992.49,763.179 992.49,874.473 909.017,874.473 
			909.017,785.436 931.277,763.179 		"/>
		<polyline fill="#FFFFFF" stroke="#4B453C" stroke-miterlimit="10" points="931.277,763.179 931.277,785.436 909.017,785.436 		"/>
	</g>
	<line fill="none" stroke="#4B453C" stroke-miterlimit="10" x1="920.146" y1="857.823" x2="979.25" y2="857.823"/>
	<line fill="none" stroke="#4B453C" stroke-miterlimit="10" x1="920.146" y1="847.478" x2="979.25" y2="847.478"/>
	<line fill="none" stroke="#4B453C" stroke-miterlimit="10" x1="920.146" y1="837.134" x2="979.25" y2="837.134"/>
	<line fill="none" stroke="#4B453C" stroke-miterlimit="10" x1="920.146" y1="826.79" x2="979.25" y2="826.79"/>
	<line fill="none" stroke="#4B453C" stroke-miterlimit="10" x1="920.146" y1="816.446" x2="979.25" y2="816.446"/>
	<line fill="none" stroke="#4B453C" stroke-miterlimit="10" x1="920.146" y1="806.612" x2="979.25" y2="806.612"/>
	<line fill="none" stroke="#4B453C" stroke-miterlimit="10" x1="920.146" y1="796.268" x2="979.25" y2="796.268"/>
	<line fill="none" stroke="#4B453C" stroke-miterlimit="10" x1="929.191" y1="785.923" x2="979.25" y2="785.923"/>
	<line fill="none" stroke="#4B453C" stroke-miterlimit="10" x1="931.277" y1="775.58" x2="979.25" y2="775.58"/>
</g>
<g>
	<g>
		<polygon fill="#FFFFFF" stroke="#4B453C" stroke-miterlimit="10" points="1521.386,616.441 1521.386,727.735 1437.914,727.735 
			1437.914,638.698 1460.173,616.441 		"/>
		<polyline fill="#FFFFFF" stroke="#4B453C" stroke-miterlimit="10" points="1460.173,616.441 1460.173,638.698 1437.914,638.698 		
			"/>
	</g>
	<line fill="none" stroke="#4B453C" stroke-miterlimit="10" x1="1449.042" y1="711.084" x2="1508.146" y2="711.084"/>
	<line fill="none" stroke="#4B453C" stroke-miterlimit="10" x1="1449.042" y1="700.74" x2="1508.146" y2="700.74"/>
	<line fill="none" stroke="#4B453C" stroke-miterlimit="10" x1="1449.042" y1="690.396" x2="1508.146" y2="690.396"/>
	<line fill="none" stroke="#4B453C" stroke-miterlimit="10" x1="1449.042" y1="680.051" x2="1508.146" y2="680.051"/>
	<line fill="none" stroke="#4B453C" stroke-miterlimit="10" x1="1449.042" y1="669.708" x2="1508.146" y2="669.708"/>
	<line fill="none" stroke="#4B453C" stroke-miterlimit="10" x1="1449.042" y1="659.874" x2="1508.146" y2="659.874"/>
	<line fill="none" stroke="#4B453C" stroke-miterlimit="10" x1="1449.042" y1="649.53" x2="1508.146" y2="649.53"/>
	<line fill="none" stroke="#4B453C" stroke-miterlimit="10" x1="1458.087" y1="639.185" x2="1508.146" y2="639.185"/>
	<line fill="none" stroke="#4B453C" stroke-miterlimit="10" x1="1460.173" y1="628.841" x2="1508.146" y2="628.841"/>
</g>
<rect x="422.724" y="487.269" fill="none" stroke="#BE1622" stroke-width="2" stroke-miterlimit="10" width="22.001" height="4.162"/>
<g>
	<g>
		
			<line fill="none" stroke="#4B453C" stroke-width="2" stroke-miterlimit="10" x1="416.184" y1="519.873" x2="769.419" y2="317.937"/>
		<g>
			<polygon fill="#4B453C" points="768.218,327.154 767.274,319.163 760.867,314.294 779.784,312.011 			"/>
		</g>
	</g>
</g>
<rect x="394.182" y="517.791" fill="none" stroke="#BE1622" stroke-width="2" stroke-miterlimit="10" width="22.001" height="4.162"/>
<g>
	<g>
		
			<line fill="none" stroke="#4B453C" stroke-width="2" stroke-miterlimit="10" x1="945.118" y1="796.152" x2="1078.245" y2="668.149"/>
		<g>
			<polygon fill="#4B453C" points="1079.329,677.38 1076.463,669.861 1069.062,666.704 1086.851,659.874 			"/>
		</g>
	</g>
</g>
<rect x="923.116" y="794.072" fill="none" stroke="#BE1622" stroke-width="2" stroke-miterlimit="10" width="22.001" height="4.162"/>
<g>
	<g>
		
			<line fill="none" stroke="#4B453C" stroke-width="2" stroke-miterlimit="10" x1="1137.085" y1="600.006" x2="1419.255" y2="669.243"/>
		<g>
			<polygon fill="#4B453C" points="1412.036,675.096 1416.856,668.654 1415.565,660.71 1430.851,672.087 			"/>
		</g>
	</g>
</g>
<rect x="1115.083" y="597.926" fill="none" stroke="#BE1622" stroke-width="2" stroke-miterlimit="10" width="22.002" height="4.162"/>
<g>
	<g>
		
			<line fill="none" stroke="#4B453C" stroke-width="2" stroke-miterlimit="10" x1="1249.855" y1="377.373" x2="1149.516" y2="516.55"/>
		<g>
			<polygon fill="#4B453C" points="1146.793,507.663 1150.96,514.545 1158.809,516.325 1142.534,526.235 			"/>
		</g>
	</g>
</g>
<rect x="1238.287" y="373.21" fill="none" stroke="#BE1622" stroke-width="2" stroke-miterlimit="10" width="22.002" height="4.162"/>
<g>
	<g>
		
			<line fill="none" stroke="#4B453C" stroke-width="2" stroke-miterlimit="10" x1="1472.377" y1="709.029" x2="886.871" y2="329.632"/>
		<g>
			<polygon fill="#4B453C" points="895.612,326.471 888.944,330.975 887.558,338.902 876.851,323.139 			"/>
		</g>
	</g>
</g>
<rect x="1466.944" y="709.029" fill="none" stroke="#BE1622" stroke-width="2" stroke-miterlimit="10" width="22.002" height="4.162"/>
</svg>
