<?xml version="1.0" encoding="utf-8"?>
<!-- Generator: Adobe Illustrator 16.0.0, SVG Export Plug-In . SVG Version: 6.00 Build 0)  -->
<!DOCTYPE svg PUBLIC "-//W3C//DTD SVG 1.1//EN" "http://www.w3.org/Graphics/SVG/1.1/DTD/svg11.dtd">
<svg version="1.1" id="Layer_1" xmlns="http://www.w3.org/2000/svg" xmlns:xlink="http://www.w3.org/1999/xlink" x="0px" y="0px"
	 width="1920px" height="1080px" viewBox="6246.625 0 1920 1080" enable-background="new 6246.625 0 1920 1080"
	 xml:space="preserve">
<g opacity="0.2">
	<rect x="7132.476" y="509.528" fill="#00495D" width="661" height="390.688"/>
	<g>
		<polyline fill="none" stroke="#4B453C" stroke-miterlimit="10" points="7793.476,894.216 7793.476,900.216 7787.476,900.216 		"/>
		
			<line fill="none" stroke="#4B453C" stroke-miterlimit="10" stroke-dasharray="11.8,11.8" x1="7775.677" y1="900.216" x2="7144.377" y2="900.216"/>
		<polyline fill="none" stroke="#4B453C" stroke-miterlimit="10" points="7138.476,900.216 7132.476,900.216 7132.476,894.216 		"/>
		
			<line fill="none" stroke="#4B453C" stroke-miterlimit="10" stroke-dasharray="12.2158,12.2158" x1="7132.476" y1="882" x2="7132.476" y2="521.635"/>
		<polyline fill="none" stroke="#4B453C" stroke-miterlimit="10" points="7132.476,515.528 7132.476,509.528 7138.476,509.528 		"/>
		
			<line fill="none" stroke="#4B453C" stroke-miterlimit="10" stroke-dasharray="11.8,11.8" x1="7150.276" y1="509.528" x2="7781.576" y2="509.528"/>
		<polyline fill="none" stroke="#4B453C" stroke-miterlimit="10" points="7787.476,509.528 7793.476,509.528 7793.476,515.528 		"/>
		
			<line fill="none" stroke="#4B453C" stroke-miterlimit="10" stroke-dasharray="12.2158,12.2158" x1="7793.476" y1="527.744" x2="7793.476" y2="888.109"/>
	</g>
</g>
<g opacity="0.7">
	<g>
		<polygon fill="#FFFFFF" stroke="#4B453C" stroke-miterlimit="10" points="7399.61,536.393 7399.61,647.688 7316.137,647.688 
			7316.137,558.65 7338.397,536.393 		"/>
		<polyline fill="#FFFFFF" stroke="#4B453C" stroke-miterlimit="10" points="7338.397,536.393 7338.397,558.65 7316.137,558.65 		
			"/>
	</g>
	<line fill="none" stroke="#4B453C" stroke-miterlimit="10" x1="7327.266" y1="631.037" x2="7386.37" y2="631.037"/>
	<line fill="none" stroke="#4B453C" stroke-miterlimit="10" x1="7327.266" y1="620.692" x2="7386.37" y2="620.692"/>
	<line fill="none" stroke="#4B453C" stroke-miterlimit="10" x1="7327.266" y1="610.348" x2="7386.37" y2="610.348"/>
	<line fill="none" stroke="#4B453C" stroke-miterlimit="10" x1="7327.266" y1="600.003" x2="7386.37" y2="600.003"/>
	<line fill="none" stroke="#4B453C" stroke-miterlimit="10" x1="7327.266" y1="589.66" x2="7386.37" y2="589.66"/>
	<line fill="none" stroke="#4B453C" stroke-miterlimit="10" x1="7327.266" y1="579.826" x2="7386.37" y2="579.826"/>
	<line fill="none" stroke="#4B453C" stroke-miterlimit="10" x1="7327.266" y1="569.482" x2="7386.37" y2="569.482"/>
	<line fill="none" stroke="#4B453C" stroke-miterlimit="10" x1="7336.312" y1="559.137" x2="7386.37" y2="559.137"/>
	<line fill="none" stroke="#4B453C" stroke-miterlimit="10" x1="7338.397" y1="548.793" x2="7386.37" y2="548.793"/>
</g>
<g opacity="0.2">
	<rect x="6575.317" y="424.762" fill="#E3E9BA" width="181.13" height="216.067"/>
	<g>
		<polyline fill="none" stroke="#4B453C" stroke-miterlimit="10" points="6756.447,634.829 6756.447,640.829 6750.447,640.829 		"/>
		
			<line fill="none" stroke="#4B453C" stroke-miterlimit="10" stroke-dasharray="11.2756,11.2756" x1="6739.173" y1="640.829" x2="6586.953" y2="640.829"/>
		<polyline fill="none" stroke="#4B453C" stroke-miterlimit="10" points="6581.317,640.829 6575.317,640.829 6575.317,634.829 		"/>
		
			<line fill="none" stroke="#4B453C" stroke-miterlimit="10" stroke-dasharray="12.0039,12.0039" x1="6575.317" y1="622.825" x2="6575.317" y2="436.764"/>
		<polyline fill="none" stroke="#4B453C" stroke-miterlimit="10" points="6575.317,430.762 6575.317,424.762 6581.317,424.762 		"/>
		
			<line fill="none" stroke="#4B453C" stroke-miterlimit="10" stroke-dasharray="11.2756,11.2756" x1="6592.591" y1="424.762" x2="6744.812" y2="424.762"/>
		<polyline fill="none" stroke="#4B453C" stroke-miterlimit="10" points="6750.447,424.762 6756.447,424.762 6756.447,430.762 		"/>
		
			<line fill="none" stroke="#4B453C" stroke-miterlimit="10" stroke-dasharray="12.0039,12.0039" x1="6756.447" y1="442.766" x2="6756.447" y2="628.827"/>
	</g>
</g>
<g opacity="0.2">
	<rect x="6983.82" y="210.324" fill="#D6ECEB" width="181.131" height="216.066"/>
	<g>
		<polyline fill="none" stroke="#4B453C" stroke-miterlimit="10" points="7164.953,420.391 7164.953,426.391 7158.953,426.391 		"/>
		
			<line fill="none" stroke="#4B453C" stroke-miterlimit="10" stroke-dasharray="11.2756,11.2756" x1="7147.677" y1="426.391" x2="6995.459" y2="426.391"/>
		<polyline fill="none" stroke="#4B453C" stroke-miterlimit="10" points="6989.82,426.391 6983.82,426.391 6983.82,420.391 		"/>
		
			<line fill="none" stroke="#4B453C" stroke-miterlimit="10" stroke-dasharray="12.0039,12.0039" x1="6983.82" y1="408.387" x2="6983.82" y2="222.326"/>
		<polyline fill="none" stroke="#4B453C" stroke-miterlimit="10" points="6983.82,216.324 6983.82,210.324 6989.82,210.324 		"/>
		
			<line fill="none" stroke="#4B453C" stroke-miterlimit="10" stroke-dasharray="11.2756,11.2756" x1="7001.097" y1="210.324" x2="7153.314" y2="210.324"/>
		<polyline fill="none" stroke="#4B453C" stroke-miterlimit="10" points="7158.953,210.324 7164.953,210.324 7164.953,216.324 		"/>
		
			<line fill="none" stroke="#4B453C" stroke-miterlimit="10" stroke-dasharray="12.0039,12.0039" x1="7164.953" y1="228.328" x2="7164.953" y2="414.389"/>
	</g>
</g>
<g opacity="0.2">
	<rect x="7391.8" y="280.511" fill="#4F766F" width="181.133" height="216.066"/>
	<g>
		<polyline fill="none" stroke="#4B453C" stroke-miterlimit="10" points="7572.933,490.578 7572.933,496.578 7566.933,496.578 		"/>
		
			<line fill="none" stroke="#4B453C" stroke-miterlimit="10" stroke-dasharray="11.2755,11.2755" x1="7555.659" y1="496.578" x2="7403.438" y2="496.578"/>
		<polyline fill="none" stroke="#4B453C" stroke-miterlimit="10" points="7397.8,496.578 7391.8,496.578 7391.8,490.578 		"/>
		
			<line fill="none" stroke="#4B453C" stroke-miterlimit="10" stroke-dasharray="12.0039,12.0039" x1="7391.8" y1="478.574" x2="7391.8" y2="292.513"/>
		<polyline fill="none" stroke="#4B453C" stroke-miterlimit="10" points="7391.8,286.511 7391.8,280.511 7397.8,280.511 		"/>
		
			<line fill="none" stroke="#4B453C" stroke-miterlimit="10" stroke-dasharray="11.2755,11.2755" x1="7409.076" y1="280.511" x2="7561.296" y2="280.511"/>
		<polyline fill="none" stroke="#4B453C" stroke-miterlimit="10" points="7566.933,280.511 7572.933,280.511 7572.933,286.511 		"/>
		
			<line fill="none" stroke="#4B453C" stroke-miterlimit="10" stroke-dasharray="12.0039,12.0039" x1="7572.933" y1="298.515" x2="7572.933" y2="484.576"/>
	</g>
</g>
<g opacity="0.7">
	<g>
		<polygon fill="#FFFFFF" stroke="#4B453C" stroke-miterlimit="10" points="6707.618,456.261 6707.618,567.555 6624.146,567.555 
			6624.146,478.518 6646.405,456.261 		"/>
		<polyline fill="#FFFFFF" stroke="#4B453C" stroke-miterlimit="10" points="6646.405,456.261 6646.405,478.518 6624.146,478.518 		
			"/>
	</g>
	<line fill="none" stroke="#4B453C" stroke-miterlimit="10" x1="6635.274" y1="550.905" x2="6694.378" y2="550.905"/>
	<line fill="none" stroke="#4B453C" stroke-miterlimit="10" x1="6635.274" y1="540.56" x2="6694.378" y2="540.56"/>
	<line fill="none" stroke="#4B453C" stroke-miterlimit="10" x1="6635.274" y1="530.216" x2="6694.378" y2="530.216"/>
	<line fill="none" stroke="#4B453C" stroke-miterlimit="10" x1="6635.274" y1="519.872" x2="6694.378" y2="519.872"/>
	<line fill="none" stroke="#4B453C" stroke-miterlimit="10" x1="6635.274" y1="509.528" x2="6694.378" y2="509.528"/>
	<line fill="none" stroke="#4B453C" stroke-miterlimit="10" x1="6635.274" y1="499.694" x2="6694.378" y2="499.694"/>
	<line fill="none" stroke="#4B453C" stroke-miterlimit="10" x1="6635.274" y1="489.35" x2="6694.378" y2="489.35"/>
	<line fill="none" stroke="#4B453C" stroke-miterlimit="10" x1="6644.318" y1="479.005" x2="6694.378" y2="479.005"/>
	<line fill="none" stroke="#4B453C" stroke-miterlimit="10" x1="6646.405" y1="468.662" x2="6694.378" y2="468.662"/>
</g>
<rect x="6246.625" y="-0.005" fill="none" stroke="#F6F6F3" stroke-width="3" stroke-miterlimit="10" width="1920.002" height="1080"/>
<g opacity="0.7">
	<g>
		
			<line fill="none" stroke="#4B453C" stroke-width="2" stroke-miterlimit="10" x1="6691.35" y1="489.349" x2="7314.661" y2="577.051"/>
		<g>
			<polygon fill="#4B453C" points="7308.066,583.602 7312.214,576.707 7310.13,568.934 7326.482,578.714 			"/>
		</g>
	</g>
</g>
<g>
	<g>
		<polygon fill="#FFFFFF" stroke="#4B453C" stroke-miterlimit="10" points="7116.125,241.823 7116.125,353.117 7032.65,353.117 
			7032.65,264.08 7054.911,241.823 		"/>
		<polyline fill="#FFFFFF" stroke="#4B453C" stroke-miterlimit="10" points="7054.911,241.823 7054.911,264.08 7032.65,264.08 		"/>
	</g>
	<line fill="none" stroke="#4B453C" stroke-miterlimit="10" x1="7043.78" y1="336.467" x2="7102.881" y2="336.467"/>
	<line fill="none" stroke="#4B453C" stroke-miterlimit="10" x1="7043.78" y1="326.122" x2="7102.881" y2="326.122"/>
	<line fill="none" stroke="#4B453C" stroke-miterlimit="10" x1="7043.78" y1="315.778" x2="7102.881" y2="315.778"/>
	<line fill="none" stroke="#4B453C" stroke-miterlimit="10" x1="7043.78" y1="305.434" x2="7102.881" y2="305.434"/>
	<line fill="none" stroke="#4B453C" stroke-miterlimit="10" x1="7043.78" y1="295.09" x2="7102.881" y2="295.09"/>
	<line fill="none" stroke="#4B453C" stroke-miterlimit="10" x1="7043.78" y1="285.256" x2="7102.881" y2="285.256"/>
	<line fill="none" stroke="#4B453C" stroke-miterlimit="10" x1="7043.78" y1="274.912" x2="7102.881" y2="274.912"/>
	<line fill="none" stroke="#4B453C" stroke-miterlimit="10" x1="7052.825" y1="264.567" x2="7102.881" y2="264.567"/>
	<line fill="none" stroke="#4B453C" stroke-miterlimit="10" x1="7054.911" y1="254.224" x2="7102.881" y2="254.224"/>
</g>
<g opacity="0.7">
	<g>
		<polygon fill="#FFFFFF" stroke="#4B453C" stroke-miterlimit="10" points="7524.102,312.011 7524.102,423.305 7440.629,423.305 
			7440.629,334.268 7462.89,312.011 		"/>
		<polyline fill="#FFFFFF" stroke="#4B453C" stroke-miterlimit="10" points="7462.89,312.011 7462.89,334.268 7440.629,334.268 		
			"/>
	</g>
	<line fill="none" stroke="#4B453C" stroke-miterlimit="10" x1="7451.759" y1="406.654" x2="7510.863" y2="406.654"/>
	<line fill="none" stroke="#4B453C" stroke-miterlimit="10" x1="7451.759" y1="396.31" x2="7510.863" y2="396.31"/>
	<line fill="none" stroke="#4B453C" stroke-miterlimit="10" x1="7451.759" y1="385.966" x2="7510.863" y2="385.966"/>
	<line fill="none" stroke="#4B453C" stroke-miterlimit="10" x1="7451.759" y1="375.621" x2="7510.863" y2="375.621"/>
	<line fill="none" stroke="#4B453C" stroke-miterlimit="10" x1="7451.759" y1="365.277" x2="7510.863" y2="365.277"/>
	<line fill="none" stroke="#4B453C" stroke-miterlimit="10" x1="7451.759" y1="355.443" x2="7510.863" y2="355.443"/>
	<line fill="none" stroke="#4B453C" stroke-miterlimit="10" x1="7451.759" y1="345.1" x2="7510.863" y2="345.1"/>
	<line fill="none" stroke="#4B453C" stroke-miterlimit="10" x1="7460.804" y1="334.755" x2="7510.863" y2="334.755"/>
	<line fill="none" stroke="#4B453C" stroke-miterlimit="10" x1="7462.89" y1="324.411" x2="7510.863" y2="324.411"/>
</g>
<g opacity="0.7">
	<g>
		<polygon fill="#FFFFFF" stroke="#4B453C" stroke-miterlimit="10" points="7239.115,763.179 7239.115,874.473 7155.642,874.473 
			7155.642,785.436 7177.901,763.179 		"/>
		<polyline fill="#FFFFFF" stroke="#4B453C" stroke-miterlimit="10" points="7177.901,763.179 7177.901,785.436 7155.642,785.436 		
			"/>
	</g>
	<line fill="none" stroke="#4B453C" stroke-miterlimit="10" x1="7166.77" y1="857.823" x2="7225.877" y2="857.823"/>
	<line fill="none" stroke="#4B453C" stroke-miterlimit="10" x1="7166.77" y1="847.479" x2="7225.877" y2="847.479"/>
	<line fill="none" stroke="#4B453C" stroke-miterlimit="10" x1="7166.77" y1="837.134" x2="7225.877" y2="837.134"/>
	<line fill="none" stroke="#4B453C" stroke-miterlimit="10" x1="7166.77" y1="826.79" x2="7225.877" y2="826.79"/>
	<line fill="none" stroke="#4B453C" stroke-miterlimit="10" x1="7166.77" y1="816.446" x2="7225.877" y2="816.446"/>
	<line fill="none" stroke="#4B453C" stroke-miterlimit="10" x1="7166.77" y1="806.612" x2="7225.877" y2="806.612"/>
	<line fill="none" stroke="#4B453C" stroke-miterlimit="10" x1="7166.77" y1="796.268" x2="7225.877" y2="796.268"/>
	<line fill="none" stroke="#4B453C" stroke-miterlimit="10" x1="7175.814" y1="785.923" x2="7225.877" y2="785.923"/>
	<line fill="none" stroke="#4B453C" stroke-miterlimit="10" x1="7177.901" y1="775.58" x2="7225.877" y2="775.58"/>
</g>
<g opacity="0.7">
	<g>
		<polygon fill="#FFFFFF" stroke="#4B453C" stroke-miterlimit="10" points="7768.01,616.441 7768.01,727.735 7684.54,727.735 
			7684.54,638.698 7706.797,616.441 		"/>
		<polyline fill="#FFFFFF" stroke="#4B453C" stroke-miterlimit="10" points="7706.797,616.441 7706.797,638.698 7684.54,638.698 		
			"/>
	</g>
	<line fill="none" stroke="#4B453C" stroke-miterlimit="10" x1="7695.668" y1="711.084" x2="7754.77" y2="711.084"/>
	<line fill="none" stroke="#4B453C" stroke-miterlimit="10" x1="7695.668" y1="700.74" x2="7754.77" y2="700.74"/>
	<line fill="none" stroke="#4B453C" stroke-miterlimit="10" x1="7695.668" y1="690.396" x2="7754.77" y2="690.396"/>
	<line fill="none" stroke="#4B453C" stroke-miterlimit="10" x1="7695.668" y1="680.051" x2="7754.77" y2="680.051"/>
	<line fill="none" stroke="#4B453C" stroke-miterlimit="10" x1="7695.668" y1="669.708" x2="7754.77" y2="669.708"/>
	<line fill="none" stroke="#4B453C" stroke-miterlimit="10" x1="7695.668" y1="659.874" x2="7754.77" y2="659.874"/>
	<line fill="none" stroke="#4B453C" stroke-miterlimit="10" x1="7695.668" y1="649.53" x2="7754.77" y2="649.53"/>
	<line fill="none" stroke="#4B453C" stroke-miterlimit="10" x1="7704.712" y1="639.185" x2="7754.77" y2="639.185"/>
	<line fill="none" stroke="#4B453C" stroke-miterlimit="10" x1="7706.797" y1="628.841" x2="7754.77" y2="628.841"/>
</g>
<rect x="6669.349" y="487.269" opacity="0.7" fill="none" stroke="#BE1622" stroke-width="2" stroke-miterlimit="10" width="22" height="4.162"/>
<g opacity="0.7">
	<g>
		
			<line fill="none" stroke="#4B453C" stroke-width="2" stroke-miterlimit="10" x1="6662.808" y1="519.873" x2="7039.537" y2="315.236"/>
		<g>
			<polygon fill="#4B453C" points="7038.135,324.426 7037.366,316.416 7031.065,311.41 7050.028,309.538 			"/>
		</g>
	</g>
</g>
<rect x="6640.806" y="517.791" opacity="0.7" fill="none" stroke="#BE1622" stroke-width="2" stroke-miterlimit="10" width="22.002" height="4.162"/>
<g opacity="0.7">
	<g>
		<g>
			<g>
				
					<line fill="none" stroke="#4B453C" stroke-width="2" stroke-miterlimit="10" x1="7184.528" y1="794.072" x2="7327.699" y2="643.036"/>
				<g>
					<polygon fill="#4B453C" points="7329.21,652.208 7326.002,644.829 7318.46,642.018 7335.913,634.371 					"/>
				</g>
			</g>
		</g>
	</g>
</g>
<rect x="7169.741" y="794.072" fill="none" stroke="#BE1622" stroke-width="2" stroke-miterlimit="10" width="22" height="4.162"/>
<g opacity="0.7">
	<g>
		
			<line fill="none" stroke="#4B453C" stroke-width="2" stroke-miterlimit="10" x1="7383.71" y1="600.006" x2="7684.004" y2="665.889"/>
		<g>
			<polygon fill="#4B453C" points="7676.93,671.919 7681.593,665.36 7680.106,657.452 7695.668,668.448 			"/>
		</g>
	</g>
</g>
<rect x="7361.709" y="597.926" opacity="0.7" fill="none" stroke="#BE1622" stroke-width="2" stroke-miterlimit="10" width="22.001" height="4.162"/>
<g opacity="0.7">
	<g>
		
			<line fill="none" stroke="#4B453C" stroke-width="2" stroke-miterlimit="10" x1="7496.479" y1="377.373" x2="7357.729" y2="564.09"/>
		<g>
			<polygon fill="#4B453C" points="7355.135,555.165 7359.203,562.107 7367.024,563.999 7350.608,573.673 			"/>
		</g>
	</g>
</g>
<rect x="7484.912" y="373.21" fill="none" stroke="#BE1622" stroke-width="2" stroke-miterlimit="10" width="22.004" height="4.162"/>
<g opacity="0.7">
	<g>
		
			<line fill="none" stroke="#4B453C" stroke-width="2" stroke-miterlimit="10" x1="7719.003" y1="709.029" x2="7106.724" y2="336.995"/>
		<g>
			<polygon fill="#4B453C" points="7115.369,333.583 7108.836,338.278 7107.677,346.242 7096.52,330.795 			"/>
		</g>
	</g>
</g>
<rect x="7713.569" y="709.029" opacity="0.7" fill="none" stroke="#BE1622" stroke-width="2" stroke-miterlimit="10" width="22.001" height="4.162"/>
<rect x="7044.743" y="303.353" opacity="0.7" fill="none" stroke="#BE1622" stroke-width="2" stroke-miterlimit="10" width="22.002" height="4.162"/>
<rect x="7078.349" y="324.041" fill="none" stroke="#BE1622" stroke-width="2" stroke-miterlimit="10" width="22" height="4.162"/>
<rect x="7329.597" y="577.745" opacity="0.7" fill="none" stroke="#BE1622" stroke-width="2" stroke-miterlimit="10" width="22.001" height="4.162"/>
<rect x="7339.608" y="618.611" opacity="0.7" fill="none" stroke="#BE1622" stroke-width="2" stroke-miterlimit="10" width="22.002" height="4.162"/>
<rect x="7698.817" y="667.626" opacity="0.7" fill="none" stroke="#BE1622" stroke-width="2" stroke-miterlimit="10" width="22.001" height="4.162"/>
<g>
	<path d="M6752.431,817.386v-17.85h1v17.85H6752.431z"/>
	<path d="M6762.581,817.386v-6.175c0-2.184-0.983-3.275-2.95-3.275c-0.967,0-1.699,0.284-2.199,0.851
		c-0.518,0.566-0.775,1.342-0.775,2.324v6.275h-1.025v-10.325h1.025v1.25c0.467-0.916,1.458-1.375,2.975-1.375
		c1.283,0,2.267,0.367,2.95,1.101c0.683,0.733,1.024,1.758,1.024,3.074v6.275H6762.581z"/>
	<path d="M6775.855,817.386v-1.85c-1.1,1.35-2.5,2.024-4.199,2.024c-1.5,0-2.759-0.508-3.775-1.524
		c-1.033-1.033-1.55-2.301-1.55-3.801s0.508-2.758,1.524-3.774c1.033-1.033,2.301-1.55,3.801-1.55c1.649,0,3.05,0.675,4.199,2.024
		v-10.05h1.025v18.5H6775.855z M6774.706,809.186c-0.851-0.85-1.867-1.274-3.05-1.274c-1.2,0-2.217,0.416-3.051,1.25
		c-0.85,0.85-1.274,1.875-1.274,3.074c0,1.184,0.425,2.2,1.274,3.051c0.851,0.85,1.867,1.274,3.051,1.274
		c1.199,0,2.216-0.416,3.05-1.25c0.85-0.85,1.274-1.875,1.274-3.075C6775.98,811.053,6775.556,810.036,6774.706,809.186z"/>
	<path d="M6788.281,816.011c-1.034,1.033-2.301,1.55-3.801,1.55s-2.758-0.508-3.775-1.524c-1.033-1.033-1.549-2.301-1.549-3.801
		c0-1.482,0.516-2.741,1.549-3.774c1.018-1.05,2.275-1.575,3.775-1.575c1.483,0,2.742,0.517,3.775,1.55
		c1.033,1.034,1.55,2.3,1.55,3.8S6789.297,814.994,6788.281,816.011z M6787.556,809.161c-0.833-0.851-1.858-1.275-3.075-1.275
		c-1.166,0-2.175,0.434-3.025,1.3c-0.866,0.867-1.299,1.884-1.299,3.05c0,1.184,0.424,2.2,1.274,3.051
		c0.851,0.85,1.866,1.274,3.05,1.274c1.2,0,2.217-0.416,3.051-1.25c0.85-0.85,1.274-1.875,1.274-3.075
		C6788.806,811.02,6788.389,809.994,6787.556,809.161z"/>
	<path d="M6801.805,816.011c-1.033,1.033-2.299,1.55-3.799,1.55s-2.76-0.508-3.775-1.524c-1.033-1.033-1.551-2.301-1.551-3.801
		c0-1.482,0.518-2.741,1.551-3.774c1.016-1.05,2.275-1.575,3.775-1.575c1.482,0,2.74,0.517,3.774,1.55
		c1.033,1.034,1.55,2.3,1.55,3.8S6802.822,814.994,6801.805,816.011z M6801.08,809.161c-0.834-0.851-1.858-1.275-3.074-1.275
		c-1.168,0-2.176,0.434-3.025,1.3c-0.867,0.867-1.301,1.884-1.301,3.05c0,1.184,0.426,2.2,1.275,3.051
		c0.85,0.85,1.867,1.274,3.051,1.274c1.199,0,2.216-0.416,3.049-1.25c0.851-0.85,1.275-1.875,1.275-3.075
		C6802.33,811.02,6801.914,809.994,6801.08,809.161z"/>
	<path d="M6810.779,808.586c-0.266-0.2-0.549-0.358-0.85-0.476c-0.3-0.116-0.617-0.175-0.949-0.175
		c-0.284,0-0.551,0.088-0.801,0.263s-0.467,0.392-0.65,0.65c-0.184,0.258-0.328,0.546-0.438,0.862
		c-0.107,0.316-0.162,0.608-0.162,0.875v6.8h-1.025v-10.325h1.025v1.4c0.217-0.384,0.5-0.733,0.85-1.05
		c0.351-0.316,0.734-0.476,1.15-0.476c0.517,0,0.941,0.059,1.275,0.175c0.333,0.117,0.708,0.325,1.125,0.625L6810.779,808.586z"/>
	<path d="M6824.904,817.586c-1.533,0-2.809-0.509-3.824-1.525c-1.018-1.017-1.525-2.291-1.525-3.825
		c0-1.533,0.508-2.808,1.525-3.824c1.016-1.017,2.291-1.525,3.824-1.525c1.316,0,2.367,0.3,3.15,0.9v1.225l-0.65-0.425l-0.699-0.375
		c-0.635-0.217-1.234-0.325-1.801-0.325c-1.283,0-2.324,0.4-3.125,1.2c-0.816,0.816-1.225,1.866-1.225,3.149
		c0,1.268,0.408,2.309,1.225,3.125c0.816,0.817,1.858,1.226,3.125,1.226c1.2,0,2.25-0.4,3.15-1.2v1.275
		C6827.121,817.277,6826.07,817.586,6824.904,817.586z"/>
	<path d="M6830.555,817.386v-18.5h1v18.5H6830.555z"/>
	<path d="M6834.504,805.211c-0.184,0-0.375-0.075-0.574-0.226c-0.15-0.149-0.234-0.35-0.25-0.6c0-0.45,0.274-0.725,0.824-0.825
		c0.417,0,0.691,0.275,0.825,0.825C6835.329,804.936,6835.055,805.211,6834.504,805.211z M6833.979,817.386v-10.325h1.024v10.325
		H6833.979z"/>
	<path d="M6848.954,817.386v-7.125c0-0.633-0.208-1.184-0.625-1.65c-0.417-0.466-1.017-0.699-1.8-0.699
		c-1.617,0-2.426,0.783-2.426,2.35v7.125h-1.024v-7.125c0-0.7-0.233-1.258-0.7-1.675c-0.483-0.45-1.059-0.675-1.725-0.675
		c-0.684,0-1.259,0.217-1.725,0.649c-0.467,0.417-0.701,0.983-0.701,1.7v7.125h-1.024v-10.325h1.024v1.025
		c0.5-0.783,1.309-1.175,2.426-1.175c1.333,0,2.316,0.541,2.949,1.625c0.601-1.084,1.576-1.625,2.926-1.625
		c1.033,0,1.866,0.291,2.5,0.875c0.633,0.6,0.949,1.425,0.949,2.475v7.125H6848.954z"/>
	<path d="M6861.954,817.386v-1.775c-1.084,1.301-2.459,1.95-4.125,1.95c-1.5,0-2.759-0.508-3.775-1.524
		c-1.033-1.033-1.55-2.301-1.55-3.801s0.508-2.758,1.525-3.774c1.033-1.033,2.3-1.55,3.8-1.55c1.649,0,3.024,0.649,4.125,1.949v-1.8
		h1.024v10.325H6861.954z M6860.879,809.186c-0.85-0.85-1.867-1.274-3.05-1.274c-1.2,0-2.217,0.416-3.05,1.25
		c-0.851,0.85-1.275,1.875-1.275,3.074c0,1.184,0.425,2.2,1.275,3.051c0.85,0.85,1.866,1.274,3.05,1.274
		c1.2,0,2.216-0.416,3.05-1.25c0.85-0.85,1.275-1.875,1.275-3.075C6862.154,811.053,6861.729,810.036,6860.879,809.186z"/>
	<path d="M6867.579,808.086v9.3h-1.025v-9.3h-1.399v-1.025h1.399v-4.524h1.025v4.524h2.399v1.025H6867.579z"/>
	<path d="M6872.479,812.011c0,1.4,0.375,2.509,1.125,3.325c0.783,0.833,1.858,1.25,3.226,1.25c0.7,0,1.333-0.116,1.899-0.351
		c0.717-0.3,1.358-0.908,1.926-1.824l0.925,0.425c-0.65,1.233-1.65,2.066-3,2.5c-0.517,0.166-1.101,0.25-1.75,0.25
		c-1.55,0-2.825-0.509-3.825-1.525c-1.017-1.017-1.525-2.291-1.525-3.825c0-1.55,0.5-2.824,1.5-3.824
		c1.017-1.017,2.301-1.525,3.851-1.525c1.533,0,2.8,0.475,3.8,1.425c1.017,0.95,1.525,2.184,1.525,3.7H6872.479z M6879.529,808.735
		c-0.784-0.566-1.684-0.85-2.7-0.85c-2.134,0-3.534,1.05-4.2,3.15h8.375C6880.837,810.086,6880.346,809.319,6879.529,808.735z"/>
	<path d="M6895.979,816.735c-0.667,0.567-1.467,0.851-2.4,0.851c-1.6,0-2.8-0.726-3.6-2.175l0.875-0.525
		c0.283,0.517,0.625,0.917,1.025,1.2c0.416,0.316,0.982,0.475,1.699,0.475c1.566,0,2.35-0.666,2.35-2
		c0-0.583-0.274-1.091-0.824-1.524c-0.167-0.101-0.404-0.213-0.713-0.338s-0.688-0.271-1.137-0.438c-0.834-0.3-1.434-0.6-1.801-0.9
		c-0.533-0.433-0.8-1.058-0.8-1.875c0-0.699,0.267-1.3,0.8-1.8c0.517-0.517,1.191-0.774,2.025-0.774c1.15,0,2.125,0.399,2.925,1.199
		l-0.75,0.65c-0.567-0.566-1.292-0.85-2.175-0.85c-1.2,0-1.801,0.524-1.801,1.574c0,0.467,0.184,0.851,0.551,1.15
		c0.3,0.233,0.775,0.459,1.425,0.675c0.566,0.2,1.033,0.388,1.399,0.563c0.367,0.175,0.643,0.329,0.826,0.463
		c0.716,0.55,1.074,1.292,1.074,2.225C6896.953,815.461,6896.629,816.186,6895.979,816.735z"/>
	<path d="M6899.879,805.211c-0.184,0-0.375-0.075-0.576-0.226c-0.149-0.149-0.232-0.35-0.25-0.6c0-0.45,0.275-0.725,0.826-0.825
		c0.416,0,0.691,0.275,0.824,0.825C6900.703,804.936,6900.428,805.211,6899.879,805.211z M6899.354,817.386v-10.325h1.025v10.325
		H6899.354z"/>
	<path d="M6914.328,817.386v-7.125c0-0.633-0.209-1.184-0.625-1.65c-0.416-0.466-1.017-0.699-1.8-0.699
		c-1.616,0-2.425,0.783-2.425,2.35v7.125h-1.025v-7.125c0-0.7-0.233-1.258-0.699-1.675c-0.484-0.45-1.059-0.675-1.726-0.675
		c-0.684,0-1.259,0.217-1.726,0.649c-0.467,0.417-0.699,0.983-0.699,1.7v7.125h-1.025v-10.325h1.025v1.025
		c0.5-0.783,1.309-1.175,2.425-1.175c1.333,0,2.316,0.541,2.95,1.625c0.6-1.084,1.574-1.625,2.925-1.625
		c1.033,0,1.866,0.291,2.5,0.875c0.634,0.6,0.95,1.425,0.95,2.475v7.125H6914.328z"/>
	<path d="M6925.229,816.485c-0.684,0.734-1.643,1.101-2.875,1.101c-1.217,0-2.159-0.358-2.826-1.075c-0.666-0.717-1-1.717-1-3v-6.45
		h1.025v6.45c0,0.983,0.217,1.742,0.65,2.275c0.449,0.533,1.166,0.8,2.15,0.8c1.916,0,2.875-1.025,2.875-3.075v-6.45h1v6.45
		C6926.229,814.777,6925.895,815.77,6925.229,816.485z"/>
	<path d="M6928.402,817.386v-18.5h1v18.5H6928.402z"/>
	<path d="M6941.603,817.386v-1.775c-1.084,1.301-2.459,1.95-4.125,1.95c-1.5,0-2.759-0.508-3.775-1.524
		c-1.033-1.033-1.55-2.301-1.55-3.801s0.508-2.758,1.525-3.774c1.033-1.033,2.3-1.55,3.8-1.55c1.649,0,3.024,0.649,4.125,1.949v-1.8
		h1.024v10.325H6941.603z M6940.527,809.186c-0.85-0.85-1.867-1.274-3.05-1.274c-1.2,0-2.217,0.416-3.05,1.25
		c-0.851,0.85-1.275,1.875-1.275,3.074c0,1.184,0.425,2.2,1.275,3.051c0.85,0.85,1.866,1.274,3.05,1.274
		c1.2,0,2.216-0.416,3.05-1.25c0.85-0.85,1.275-1.875,1.275-3.075C6941.803,811.053,6941.377,810.036,6940.527,809.186z"/>
	<path d="M6947.228,808.086v9.3h-1.025v-9.3h-1.399v-1.025h1.399v-4.524h1.025v4.524h2.399v1.025H6947.228z"/>
	<path d="M6952.627,805.211c-0.184,0-0.375-0.075-0.574-0.226c-0.15-0.149-0.234-0.35-0.25-0.6c0-0.45,0.274-0.725,0.824-0.825
		c0.417,0,0.691,0.275,0.825,0.825C6953.452,804.936,6953.178,805.211,6952.627,805.211z M6952.103,817.386v-10.325h1.024v10.325
		H6952.103z"/>
	<path d="M6964.877,816.011c-1.033,1.033-2.3,1.55-3.8,1.55s-2.759-0.508-3.775-1.524c-1.033-1.033-1.55-2.301-1.55-3.801
		c0-1.482,0.517-2.741,1.55-3.774c1.017-1.05,2.275-1.575,3.775-1.575c1.483,0,2.741,0.517,3.774,1.55
		c1.033,1.034,1.551,2.3,1.551,3.8S6965.894,814.994,6964.877,816.011z M6964.152,809.161c-0.834-0.851-1.859-1.275-3.075-1.275
		c-1.167,0-2.175,0.434-3.025,1.3c-0.866,0.867-1.3,1.884-1.3,3.05c0,1.184,0.425,2.2,1.275,3.051c0.85,0.85,1.866,1.274,3.05,1.274
		c1.2,0,2.216-0.416,3.05-1.25c0.85-0.85,1.275-1.875,1.275-3.075C6965.402,811.02,6964.985,809.994,6964.152,809.161z"/>
	<path d="M6975.927,817.386v-6.175c0-2.184-0.983-3.275-2.95-3.275c-0.967,0-1.699,0.284-2.199,0.851
		c-0.518,0.566-0.775,1.342-0.775,2.324v6.275h-1.025v-10.325h1.025v1.25c0.467-0.916,1.458-1.375,2.975-1.375
		c1.283,0,2.267,0.367,2.95,1.101c0.683,0.733,1.024,1.758,1.024,3.074v6.275H6975.927z"/>
	<path d="M6995.4,816.011c-1.033,1.033-2.299,1.55-3.799,1.55c-1.717,0-3.125-0.691-4.226-2.075v1.9h-1.024v-18.5h1.024v10.1
		c1.083-1.383,2.491-2.074,4.226-2.074c1.5,0,2.758,0.508,3.774,1.524c1.033,1.034,1.55,2.3,1.55,3.8
		S6996.418,814.994,6995.4,816.011z M6994.65,809.186c-0.85-0.85-1.866-1.274-3.049-1.274c-1.201,0-2.217,0.416-3.051,1.25
		c-0.85,0.85-1.275,1.875-1.275,3.074c0,1.184,0.426,2.2,1.275,3.051c0.85,0.85,1.867,1.274,3.051,1.274
		c1.199,0,2.216-0.416,3.049-1.25c0.851-0.85,1.275-1.875,1.275-3.075C6995.926,811.053,6995.501,810.036,6994.65,809.186z"/>
	<path d="M7007.9,816.011c-1.033,1.033-2.299,1.55-3.799,1.55s-2.76-0.508-3.775-1.524c-1.033-1.033-1.551-2.301-1.551-3.801
		c0-1.482,0.518-2.741,1.551-3.774c1.016-1.05,2.275-1.575,3.775-1.575c1.482,0,2.74,0.517,3.774,1.55
		c1.033,1.034,1.55,2.3,1.55,3.8S7008.918,814.994,7007.9,816.011z M7007.176,809.161c-0.834-0.851-1.858-1.275-3.074-1.275
		c-1.168,0-2.176,0.434-3.025,1.3c-0.867,0.867-1.301,1.884-1.301,3.05c0,1.184,0.426,2.2,1.275,3.051
		c0.85,0.85,1.867,1.274,3.051,1.274c1.199,0,2.216-0.416,3.049-1.25c0.851-0.85,1.275-1.875,1.275-3.075
		C7008.426,811.02,7008.01,809.994,7007.176,809.161z"/>
	<path d="M7013.551,808.086v9.3h-1.025v-9.3h-1.4v-1.025h1.4v-4.524h1.025v4.524h2.4v1.025H7013.551z"/>
</g>
<g>
	<g id="color_3_">
		<path fill="#D22F27" d="M6878.434,685.175v-6.428c0-3.533,2.866-6.398,6.4-6.398l0,0c3.532,0,6.396,2.865,6.396,6.398v6.4"/>
		<path fill="#D0CFCE" d="M6825.96,749.14L6825.96,749.14c-3.533,0-6.398-2.865-6.398-6.399v-20.478
			c0-3.534,2.865-6.399,6.398-6.399l0,0c3.535,0,6.398,2.865,6.398,6.399v20.478C6832.358,746.274,6829.495,749.14,6825.96,749.14z"
			/>
		<path fill="#D0CFCE" d="M6941.147,749.14L6941.147,749.14c3.533,0,6.398-2.865,6.398-6.399v-20.478
			c0-3.534-2.865-6.399-6.398-6.399l0,0c-3.535,0-6.4,2.865-6.4,6.399v20.478C6934.747,746.274,6937.612,749.14,6941.147,749.14z"/>
		<path fill="#D0CFCE" d="M6912.864,787.563h-58.621c-12.037,0-21.885-9.849-21.885-21.886V707.06
			c0-12.036,9.848-21.885,21.885-21.885h58.621c12.034,0,21.883,9.849,21.883,21.885v58.618
			C6934.747,777.715,6924.898,787.563,6912.864,787.563z"/>
		<path fill="#9B9B9A" d="M6882.269,787.562h34.008c10.159,0,18.471-9.849,18.471-21.886v-58.618
			c0-12.037-8.312-21.885-18.471-21.885h-6.021"/>
		<ellipse fill="#FFFFFF" cx="6906.168" cy="718.171" rx="7.253" ry="7.253"/>
		<path fill="#FFFFFF" d="M6861.369,710.916c4.009,0,7.258,3.248,7.258,7.254s-3.249,7.253-7.258,7.253
			c-4.005,0-7.251-3.247-7.251-7.253S6857.364,710.916,6861.369,710.916z"/>
		<path fill="#FFFFFF" d="M6905.312,765.52h-43.516c-5.63,0-10.238-4.608-10.238-10.239l0,0c0-5.631,4.608-10.237,10.238-10.237
			h43.516c5.631,0,10.237,4.606,10.237,10.237l0,0C6915.549,760.911,6910.942,765.52,6905.312,765.52z"/>
	</g>
	<g id="line_3_">
		
			<path fill="none" stroke="#000000" stroke-width="0.6192" stroke-linecap="round" stroke-linejoin="round" stroke-miterlimit="2" d="
			M6884.834,698.849"/>
		
			<path fill="none" stroke="#000000" stroke-width="0.6192" stroke-linecap="round" stroke-linejoin="round" stroke-miterlimit="2" d="
			M6878.434,684.916v-6.428c0-3.534,2.866-6.399,6.4-6.399l0,0c3.532,0,6.396,2.865,6.396,6.399v6.4"/>
		
			<path fill="none" stroke="#000000" stroke-width="0.6192" stroke-linecap="round" stroke-linejoin="round" stroke-miterlimit="2" d="
			M6912.864,787.275h-58.621c-12.037,0-21.885-9.848-21.885-21.884v-58.619c0-12.037,9.848-21.884,21.885-21.884h58.621
			c12.034,0,21.883,9.847,21.883,21.884v58.619C6934.747,777.428,6924.898,787.275,6912.864,787.275z"/>
		
			<ellipse fill="none" stroke="#000000" stroke-width="0.6192" stroke-linecap="round" stroke-linejoin="round" stroke-miterlimit="2" cx="6906.168" cy="718.169" rx="7.253" ry="7.253"/>
		
			<path fill="none" stroke="#000000" stroke-width="0.6192" stroke-linecap="round" stroke-linejoin="round" stroke-miterlimit="2" d="
			M6861.369,710.914c4.009,0,7.258,3.248,7.258,7.254s-3.249,7.254-7.258,7.254c-4.005,0-7.251-3.248-7.251-7.254
			S6857.364,710.914,6861.369,710.914z"/>
		<path fill="none" stroke="#000000" stroke-width="0.6192" stroke-miterlimit="2" d="M6905.312,765.519h-43.516
			c-5.63,0-10.238-4.608-10.238-10.239l0,0c0-5.631,4.608-10.239,10.238-10.239h43.516c5.631,0,10.237,4.608,10.237,10.239l0,0
			C6915.549,760.91,6910.942,765.519,6905.312,765.519z"/>
		
			<path fill="none" stroke="#000000" stroke-width="0.6192" stroke-linecap="round" stroke-linejoin="round" stroke-miterlimit="2" d="
			M6825.96,748.881L6825.96,748.881c-3.533,0-6.398-2.865-6.398-6.4v-20.478c0-3.533,2.865-6.398,6.398-6.398l0,0
			c3.535,0,6.398,2.865,6.398,6.398v20.478C6832.358,746.016,6829.495,748.881,6825.96,748.881z"/>
		
			<path fill="none" stroke="#000000" stroke-width="0.6192" stroke-linecap="round" stroke-linejoin="round" stroke-miterlimit="2" d="
			M6941.147,748.881L6941.147,748.881c3.533,0,6.398-2.865,6.398-6.4v-20.478c0-3.533-2.865-6.398-6.398-6.398l0,0
			c-3.535,0-6.4,2.865-6.4,6.398v20.478C6934.747,746.016,6937.612,748.881,6941.147,748.881z"/>
		<path fill="none" stroke="#000000" stroke-width="0.3096" stroke-miterlimit="10" d="M6884.834,739.921"/>
		<path fill="none" stroke="#000000" stroke-width="0.3096" stroke-miterlimit="10" d="M6884.834,791.114"/>
		
			<line fill="none" stroke="#000000" stroke-width="0.6192" stroke-linecap="round" stroke-linejoin="round" stroke-miterlimit="2" x1="6863.077" y1="746.32" x2="6863.077" y2="764.238"/>
		
			<line fill="none" stroke="#000000" stroke-width="0.6192" stroke-linecap="round" stroke-linejoin="round" stroke-miterlimit="2" x1="6875.875" y1="746.32" x2="6875.875" y2="764.238"/>
		
			<line fill="none" stroke="#000000" stroke-width="0.6192" stroke-linecap="round" stroke-linejoin="round" stroke-miterlimit="2" x1="6888.673" y1="746.32" x2="6888.673" y2="764.238"/>
		
			<line fill="none" stroke="#000000" stroke-width="0.6192" stroke-linecap="round" stroke-linejoin="round" stroke-miterlimit="2" x1="6901.472" y1="746.32" x2="6901.472" y2="764.238"/>
	</g>
</g>
<g opacity="0.7">
	<g>
		<g>
			<g>
				
					<line fill="none" stroke="#4B453C" stroke-width="2" stroke-miterlimit="10" x1="7089.349" y1="330.795" x2="6918.812" y2="667.849"/>
				<g>
					<polygon fill="#4B453C" points="6914.739,659.493 6919.927,665.644 6927.956,666.18 6913.42,678.502 					"/>
				</g>
			</g>
		</g>
	</g>
</g>
<g opacity="0.7">
	<g>
		<g>
			<g>
				
					<line fill="none" stroke="#4B453C" stroke-width="2" stroke-miterlimit="10" x1="7164.951" y1="791.114" x2="6963.014" y2="751.441"/>
				<g>
					<polygon fill="#4B453C" points="6969.953,745.257 6965.438,751.918 6967.098,759.791 6951.298,749.14 					"/>
				</g>
			</g>
		</g>
	</g>
</g>
<g opacity="0.7">
	<g>
		
			<line fill="none" stroke="#4B453C" stroke-width="2" stroke-miterlimit="10" x1="7484.912" y1="377.372" x2="6953.056" y2="694.624"/>
		<g>
			<polygon fill="#4B453C" points="6954.086,685.386 6955.178,693.358 6961.674,698.106 6942.801,700.74 			"/>
		</g>
	</g>
</g>
<rect x="7044.743" y="334.386" fill="none" stroke="#660099" stroke-width="2" stroke-miterlimit="10" width="22.002" height="4.162"/>
<g>
	<g>
		<g>
			<g>
				
					<line fill="none" stroke="#4B453C" stroke-width="2" stroke-miterlimit="10" x1="6919.852" y1="654.274" x2="7048.142" y2="353.532"/>
				<g>
					<polygon fill="#4B453C" points="7052.75,361.605 7047.17,355.805 7039.125,355.793 7052.825,342.55 					"/>
				</g>
			</g>
		</g>
	</g>
</g>
<path fill="#FFFFFF" stroke="#231F20" stroke-miterlimit="10" d="M6814.769,607.029l28.868,100.772l-136.163-100.772h-253.295
	c-6.627,0-12-5.373-12-12V406.008c0-6.627,5.373-12,12-12h429.045c6.626,0,12,5.373,12,12v189.021c0,6.627-5.374,12-12,12H6814.769z
	"/>
<g>
	<path fill="#231F20" d="M6600.432,480.852h-13.477l-4.551,8.496h-1.172l15.195-28.418l1.27-0.02l5.469,28.438h-1.113
		L6600.432,480.852z M6587.502,479.797h12.715l-3.281-17.559L6587.502,479.797z"/>
	<path fill="#231F20" d="M6611.33,483.332l0.293,4.375l9.375-19.492h1.055l2.012,15.02l0.566,4.492l1.973-4.57l6.738-14.922h1.25
		l-9.59,21.113h-1.055l-2.344-15.977l-0.273-3.613l-1.719,3.789l-7.676,15.801h-1.055l-2.344-21.152l1.172,0.02L6611.33,483.332z"/>
	<path fill="#231F20" d="M6643.869,489.738c-1.693,0-3.152-0.475-4.375-1.426c-1.225-0.95-2.107-2.249-2.646-3.896
		c-0.541-1.647-0.682-3.375-0.42-5.186l0.156-0.977c0.313-1.901,0.979-3.678,2.002-5.332c1.021-1.653,2.236-2.917,3.643-3.789
		c1.406-0.872,2.91-1.309,4.512-1.309c2.135,0,3.809,0.788,5.02,2.363c1.211,1.576,1.725,3.594,1.543,6.055l-0.059,0.605
		l-0.176,1.23h-15.352l-0.215,1.15c-0.184,1.092-0.189,2.196-0.02,3.314c0.285,1.858,0.998,3.344,2.139,4.455
		c1.139,1.111,2.549,1.674,4.229,1.687c2.434,0.026,4.629-0.931,6.582-2.871l0.703,0.547
		C6649.207,488.612,6646.785,489.738,6643.869,489.738z M6646.74,468.879c-2.006,0-3.799,0.752-5.381,2.256
		s-2.758,3.467-3.525,5.889h14.258l0.059-0.254c0.168-0.938,0.182-1.875,0.039-2.813c-0.234-1.536-0.844-2.767-1.826-3.691
		C6649.379,469.341,6648.172,468.879,6646.74,468.879z"/>
	<path fill="#231F20" d="M6669.65,484.172c0.469-2.448-1.316-4.186-5.352-5.215l-2.168-0.625c-2.996-0.977-4.311-2.702-3.945-5.176
		c0.234-1.602,1.08-2.891,2.539-3.867c1.457-0.977,3.15-1.465,5.078-1.465c2.121,0,3.781,0.547,4.98,1.641
		c1.197,1.094,1.705,2.559,1.523,4.395h-1.055c0.156-1.484-0.281-2.686-1.309-3.604c-1.029-0.918-2.402-1.377-4.121-1.377
		c-1.668,0-3.119,0.384-4.355,1.152c-1.238,0.769-1.98,1.797-2.227,3.086c-0.391,2.07,0.807,3.542,3.594,4.414l2.91,0.84
		l0.977,0.332c3.033,1.107,4.361,2.937,3.984,5.488c-0.248,1.68-1.121,3.024-2.617,4.033c-1.498,1.009-3.289,1.514-5.371,1.514
		c-2.176,0-3.914-0.53-5.215-1.592c-1.303-1.061-1.863-2.451-1.68-4.17h1.035c-0.066,1.458,0.42,2.607,1.455,3.447
		s2.496,1.26,4.385,1.26c1.797-0.039,3.346-0.472,4.648-1.299C6668.646,486.558,6669.416,485.487,6669.65,484.172z"/>
	<path fill="#231F20" d="M6675.725,478.371c0.324-1.966,0.982-3.756,1.973-5.371c0.988-1.614,2.227-2.881,3.711-3.799
		s3.105-1.377,4.863-1.377c1.432,0,2.701,0.319,3.809,0.957c1.105,0.638,1.984,1.585,2.637,2.842c0.65,1.257,1.021,2.646,1.113,4.17
		c0.039,0.886-0.039,2.019-0.234,3.398c-0.326,1.966-0.986,3.763-1.982,5.391c-0.996,1.628-2.234,2.894-3.711,3.799
		c-1.479,0.905-3.09,1.357-4.834,1.357c-1.445,0-2.719-0.322-3.818-0.967c-1.102-0.645-1.98-1.588-2.637-2.832
		c-0.658-1.243-1.025-2.64-1.104-4.189C6675.457,480.878,6675.529,479.751,6675.725,478.371z M6676.643,482.551
		c0.26,1.888,0.957,3.382,2.09,4.482c1.133,1.101,2.57,1.65,4.316,1.65c2.043,0,3.889-0.716,5.537-2.148
		c1.646-1.432,2.834-3.366,3.564-5.801c0.598-2.018,0.773-3.926,0.527-5.723c-0.287-1.888-0.994-3.382-2.119-4.482
		c-1.127-1.1-2.549-1.65-4.268-1.65c-2.045,0-3.895,0.726-5.547,2.178c-1.654,1.452-2.846,3.376-3.574,5.771
		C6676.57,478.82,6676.395,480.728,6676.643,482.551z"/>
	<path fill="#231F20" d="M6711.623,489.348h-1.035l2.422-14.049c0.143-0.885,0.188-1.724,0.137-2.518
		c-0.105-1.261-0.545-2.23-1.318-2.907c-0.775-0.676-1.846-1.008-3.213-0.995c-1.824,0.026-3.559,0.745-5.205,2.156
		c-1.648,1.412-2.744,3.067-3.291,4.966l-2.324,13.347h-1.055l3.633-21.133h1.074l-0.938,5c1.055-1.731,2.291-3.063,3.711-3.994
		c1.418-0.931,2.896-1.396,4.434-1.396c1.744,0,3.088,0.433,4.033,1.299c0.943,0.866,1.441,2.1,1.494,3.701
		c0.938-1.523,2.148-2.737,3.633-3.643c1.484-0.905,3.066-1.357,4.746-1.357c1.627,0,2.91,0.423,3.848,1.27
		c0.938,0.847,1.477,2.044,1.621,3.594c0.078,0.99,0.025,2.025-0.156,3.105l-2.344,13.555h-1.035l2.344-13.659
		c0.156-0.897,0.215-1.763,0.176-2.595c-0.066-1.379-0.479-2.429-1.24-3.151s-1.846-1.076-3.252-1.063
		c-1.225,0.039-2.439,0.345-3.643,0.917c-1.205,0.573-2.24,1.35-3.105,2.332c-0.867,0.982-1.436,2.039-1.709,3.171L6711.623,489.348
		z"/>
	<path fill="#231F20" d="M6739.631,489.738c-1.693,0-3.152-0.475-4.375-1.426c-1.225-0.95-2.107-2.249-2.646-3.896
		c-0.541-1.647-0.682-3.375-0.42-5.186l0.156-0.977c0.313-1.901,0.979-3.678,2.002-5.332c1.021-1.653,2.236-2.917,3.643-3.789
		c1.406-0.872,2.91-1.309,4.512-1.309c2.135,0,3.809,0.788,5.02,2.363c1.211,1.576,1.725,3.594,1.543,6.055l-0.059,0.605
		l-0.176,1.23h-15.352l-0.215,1.15c-0.184,1.092-0.189,2.196-0.02,3.314c0.285,1.858,0.998,3.344,2.139,4.455
		c1.139,1.111,2.549,1.674,4.229,1.687c2.434,0.026,4.629-0.931,6.582-2.871l0.703,0.547
		C6744.969,488.612,6742.547,489.738,6739.631,489.738z M6742.502,468.879c-2.006,0-3.799,0.752-5.381,2.256
		s-2.758,3.467-3.525,5.889h14.258l0.059-0.254c0.168-0.938,0.182-1.875,0.039-2.813c-0.234-1.536-0.844-2.767-1.826-3.691
		C6745.141,469.341,6743.934,468.879,6742.502,468.879z"/>
	<path fill="#231F20" d="M6751.35,488.352c0.039-0.26,0.178-0.501,0.42-0.723c0.24-0.221,0.498-0.332,0.771-0.332
		c0.299,0,0.539,0.117,0.723,0.352c0.182,0.234,0.254,0.495,0.215,0.781c-0.039,0.261-0.184,0.498-0.43,0.713
		c-0.248,0.215-0.508,0.322-0.781,0.322c-0.301-0.013-0.541-0.13-0.723-0.352C6751.361,488.892,6751.297,488.638,6751.35,488.352z
		 M6753.986,481.516h-1.055l3.535-20.605h1.055L6753.986,481.516z"/>
	<path fill="#231F20" d="M6550.061,537.348h-1.055l2.422-14.102h-17.578l-2.441,14.102h-1.055l4.902-28.438h1.055l-2.285,13.281
		h17.578l2.305-13.281h1.035L6550.061,537.348z"/>
	<path fill="#231F20" d="M6564.982,537.738c-1.693,0-3.152-0.475-4.375-1.426c-1.225-0.95-2.107-2.249-2.646-3.896
		c-0.541-1.647-0.682-3.375-0.42-5.186l0.156-0.977c0.313-1.901,0.979-3.678,2.002-5.332c1.021-1.653,2.236-2.917,3.643-3.789
		c1.406-0.872,2.91-1.309,4.512-1.309c2.135,0,3.809,0.788,5.02,2.363c1.211,1.576,1.725,3.594,1.543,6.055l-0.059,0.605
		l-0.176,1.23h-15.352l-0.215,1.15c-0.184,1.092-0.189,2.196-0.02,3.314c0.285,1.858,0.998,3.344,2.139,4.455
		c1.139,1.111,2.549,1.674,4.229,1.687c2.434,0.026,4.629-0.931,6.582-2.871l0.703,0.547
		C6570.32,536.612,6567.898,537.738,6564.982,537.738z M6567.854,516.879c-2.006,0-3.799,0.752-5.381,2.256
		s-2.758,3.467-3.525,5.889h14.258l0.059-0.254c0.168-0.938,0.182-1.875,0.039-2.813c-0.234-1.536-0.844-2.767-1.826-3.691
		C6570.492,517.341,6569.285,516.879,6567.854,516.879z"/>
	<path fill="#231F20" d="M6589.611,516.977l-1.27-0.098c-1.746,0-3.367,0.644-4.863,1.932c-1.498,1.288-2.5,2.855-3.008,4.703
		l-2.402,13.834h-1.055l3.633-21.133h1.055l-0.82,4.395c0.885-1.51,1.965-2.686,3.242-3.525c1.275-0.84,2.695-1.26,4.258-1.26
		c0.494,0,0.988,0.08,1.484,0.239L6589.611,516.977z"/>
	<path fill="#231F20" d="M6597.521,537.738c-1.693,0-3.152-0.475-4.375-1.426c-1.225-0.95-2.107-2.249-2.646-3.896
		c-0.541-1.647-0.682-3.375-0.42-5.186l0.156-0.977c0.313-1.901,0.979-3.678,2.002-5.332c1.021-1.653,2.236-2.917,3.643-3.789
		c1.406-0.872,2.91-1.309,4.512-1.309c2.135,0,3.809,0.788,5.02,2.363c1.211,1.576,1.725,3.594,1.543,6.055l-0.059,0.605
		l-0.176,1.23h-15.352l-0.215,1.15c-0.184,1.092-0.189,2.196-0.02,3.314c0.285,1.858,0.998,3.344,2.139,4.455
		c1.139,1.111,2.549,1.674,4.229,1.687c2.434,0.026,4.629-0.931,6.582-2.871l0.703,0.547
		C6602.859,536.612,6600.438,537.738,6597.521,537.738z M6600.393,516.879c-2.006,0-3.799,0.752-5.381,2.256
		s-2.758,3.467-3.525,5.889h14.258l0.059-0.254c0.168-0.938,0.182-1.875,0.039-2.813c-0.234-1.536-0.844-2.767-1.826-3.691
		C6603.031,517.341,6601.824,516.879,6600.393,516.879z"/>
	<path fill="#231F20" d="M6620.334,537.348h-1.055l3.633-21.133h1.055L6620.334,537.348z M6623.537,509.574
		c0.039-0.26,0.178-0.501,0.42-0.723c0.24-0.221,0.498-0.332,0.771-0.332c0.299,0,0.543,0.117,0.732,0.352
		c0.188,0.234,0.256,0.495,0.205,0.781c-0.039,0.261-0.184,0.498-0.43,0.713c-0.248,0.215-0.508,0.322-0.781,0.322
		c-0.301-0.013-0.541-0.13-0.723-0.352C6623.549,510.115,6623.484,509.861,6623.537,509.574z"/>
	<path fill="#231F20" d="M6640.959,532.172c0.469-2.448-1.316-4.186-5.352-5.215l-2.168-0.625c-2.996-0.977-4.311-2.702-3.945-5.176
		c0.234-1.602,1.08-2.891,2.539-3.867c1.457-0.977,3.15-1.465,5.078-1.465c2.121,0,3.781,0.547,4.98,1.641
		c1.197,1.094,1.705,2.559,1.523,4.395h-1.055c0.156-1.484-0.281-2.686-1.309-3.604c-1.029-0.918-2.402-1.377-4.121-1.377
		c-1.668,0-3.119,0.384-4.355,1.152c-1.238,0.769-1.98,1.797-2.227,3.086c-0.391,2.07,0.807,3.542,3.594,4.414l2.91,0.84
		l0.977,0.332c3.033,1.107,4.361,2.937,3.984,5.488c-0.248,1.68-1.121,3.024-2.617,4.033c-1.498,1.009-3.289,1.514-5.371,1.514
		c-2.176,0-3.914-0.53-5.215-1.592c-1.303-1.061-1.863-2.451-1.68-4.17h1.035c-0.066,1.458,0.42,2.607,1.455,3.447
		s2.496,1.26,4.385,1.26c1.797-0.039,3.346-0.472,4.648-1.299C6639.955,534.558,6640.725,533.487,6640.959,532.172z"/>
	<path fill="#231F20" d="M6663.127,510.512l-0.977,5.703h4.629l-0.137,1.055h-4.688l-2.676,15.484l-0.078,1.075
		c-0.039,0.886,0.143,1.581,0.547,2.083c0.402,0.501,1.016,0.759,1.836,0.772c0.363,0,1.074-0.059,2.129-0.176l0.039,0.996
		c-0.6,0.156-1.309,0.234-2.129,0.234c-2.215,0-3.367-1.141-3.457-3.421c-0.027-0.665,0.02-1.342,0.137-2.033l2.578-15.014h-3.77
		l0.156-1.055h3.809l0.977-5.703H6663.127z"/>
	<path fill="#231F20" d="M6672.424,521.137c1.055-1.706,2.297-3.018,3.73-3.936c1.432-0.918,2.91-1.377,4.434-1.377
		c1.613,0,2.883,0.417,3.809,1.25c0.924,0.833,1.457,2.038,1.602,3.613c0.078,0.99,0.025,2.025-0.156,3.105l-2.344,13.555h-1.055
		l2.344-13.542c0.156-0.91,0.221-1.808,0.195-2.692c-0.066-1.379-0.473-2.433-1.221-3.161c-0.75-0.729-1.82-1.086-3.213-1.073
		c-1.785,0.026-3.5,0.719-5.146,2.078c-1.648,1.359-2.764,2.982-3.35,4.868l-2.344,13.522h-1.055l5.176-30h1.055L6672.424,521.137z"
		/>
	<path fill="#231F20" d="M6697.795,537.738c-1.693,0-3.152-0.475-4.375-1.426c-1.225-0.95-2.107-2.249-2.646-3.896
		c-0.541-1.647-0.682-3.375-0.42-5.186l0.156-0.977c0.313-1.901,0.979-3.678,2.002-5.332c1.021-1.653,2.236-2.917,3.643-3.789
		c1.406-0.872,2.91-1.309,4.512-1.309c2.135,0,3.809,0.788,5.02,2.363c1.211,1.576,1.725,3.594,1.543,6.055l-0.059,0.605
		l-0.176,1.23h-15.352l-0.215,1.15c-0.184,1.092-0.189,2.196-0.02,3.314c0.285,1.858,0.998,3.344,2.139,4.455
		c1.139,1.111,2.549,1.674,4.229,1.687c2.434,0.026,4.629-0.931,6.582-2.871l0.703,0.547
		C6703.133,536.612,6700.711,537.738,6697.795,537.738z M6700.666,516.879c-2.006,0-3.799,0.752-5.381,2.256
		s-2.758,3.467-3.525,5.889h14.258l0.059-0.254c0.168-0.938,0.182-1.875,0.039-2.813c-0.234-1.536-0.844-2.767-1.826-3.691
		C6703.305,517.341,6702.098,516.879,6700.666,516.879z"/>
	<path fill="#231F20" d="M6731.896,516.977l-1.27-0.098c-1.746,0-3.367,0.644-4.863,1.932c-1.498,1.288-2.5,2.855-3.008,4.703
		l-2.402,13.834h-1.055l3.633-21.133h1.055l-0.82,4.395c0.885-1.51,1.965-2.686,3.242-3.525c1.275-0.84,2.695-1.26,4.258-1.26
		c0.494,0,0.988,0.08,1.484,0.239L6731.896,516.977z"/>
	<path fill="#231F20" d="M6739.807,537.738c-1.693,0-3.152-0.475-4.375-1.426c-1.225-0.95-2.107-2.249-2.646-3.896
		c-0.541-1.647-0.682-3.375-0.42-5.186l0.156-0.977c0.313-1.901,0.979-3.678,2.002-5.332c1.021-1.653,2.236-2.917,3.643-3.789
		c1.406-0.872,2.91-1.309,4.512-1.309c2.135,0,3.809,0.788,5.02,2.363c1.211,1.576,1.725,3.594,1.543,6.055l-0.059,0.605
		l-0.176,1.23h-15.352l-0.215,1.15c-0.184,1.092-0.189,2.196-0.02,3.314c0.285,1.858,0.998,3.344,2.139,4.455
		c1.139,1.111,2.549,1.674,4.229,1.687c2.434,0.026,4.629-0.931,6.582-2.871l0.703,0.547
		C6745.145,536.612,6742.723,537.738,6739.807,537.738z M6742.678,516.879c-2.006,0-3.799,0.752-5.381,2.256
		s-2.758,3.467-3.525,5.889h14.258l0.059-0.254c0.168-0.938,0.182-1.875,0.039-2.813c-0.234-1.536-0.844-2.767-1.826-3.691
		C6745.316,517.341,6744.109,516.879,6742.678,516.879z"/>
	<path fill="#231F20" d="M6765.588,532.172c0.469-2.448-1.316-4.186-5.352-5.215l-2.168-0.625c-2.996-0.977-4.311-2.702-3.945-5.176
		c0.234-1.602,1.08-2.891,2.539-3.867c1.457-0.977,3.15-1.465,5.078-1.465c2.121,0,3.781,0.547,4.98,1.641
		c1.197,1.094,1.705,2.559,1.523,4.395h-1.055c0.156-1.484-0.281-2.686-1.309-3.604c-1.029-0.918-2.402-1.377-4.121-1.377
		c-1.668,0-3.119,0.384-4.355,1.152c-1.238,0.769-1.98,1.797-2.227,3.086c-0.391,2.07,0.807,3.542,3.594,4.414l2.91,0.84
		l0.977,0.332c3.033,1.107,4.361,2.937,3.984,5.488c-0.248,1.68-1.121,3.024-2.617,4.033c-1.498,1.009-3.289,1.514-5.371,1.514
		c-2.176,0-3.914-0.53-5.215-1.592c-1.303-1.061-1.863-2.451-1.68-4.17h1.035c-0.066,1.458,0.42,2.607,1.455,3.447
		s2.496,1.26,4.385,1.26c1.797-0.039,3.346-0.472,4.648-1.299C6764.584,534.558,6765.354,533.487,6765.588,532.172z"/>
	<path fill="#231F20" d="M6785.061,537.348l0.664-3.418c-0.926,1.276-2.045,2.23-3.359,2.861c-1.316,0.631-2.762,0.947-4.336,0.947
		c-1.641,0-2.939-0.436-3.896-1.309c-0.957-0.872-1.514-2.116-1.67-3.73c-0.092-1.028-0.047-2.09,0.137-3.184l2.285-13.301h1.055
		l-2.324,13.457c-0.145,0.886-0.189,1.745-0.137,2.578c0.064,1.406,0.488,2.497,1.27,3.271c0.781,0.775,1.861,1.162,3.242,1.162
		c1.9,0,3.613-0.518,5.137-1.553s2.525-2.386,3.008-4.053l2.559-14.863h1.074l-3.633,21.133H6785.061z"/>
	<path fill="#231F20" d="M6794.064,537.348h-1.055l5.156-30h1.055L6794.064,537.348z"/>
	<path fill="#231F20" d="M6807.893,510.512l-0.977,5.703h4.629l-0.137,1.055h-4.688l-2.676,15.484l-0.078,1.075
		c-0.039,0.886,0.143,1.581,0.547,2.083c0.402,0.501,1.016,0.759,1.836,0.772c0.363,0,1.074-0.059,2.129-0.176l0.039,0.996
		c-0.6,0.156-1.309,0.234-2.129,0.234c-2.215,0-3.367-1.141-3.457-3.421c-0.027-0.665,0.02-1.342,0.137-2.033l2.578-15.014h-3.77
		l0.156-1.055h3.809l0.977-5.703H6807.893z"/>
</g>
</svg>
