<?xml version="1.0" encoding="utf-8"?>
<!-- Generator: Adobe Illustrator 16.0.0, SVG Export Plug-In . SVG Version: 6.00 Build 0)  -->
<!DOCTYPE svg PUBLIC "-//W3C//DTD SVG 1.1//EN" "http://www.w3.org/Graphics/SVG/1.1/DTD/svg11.dtd">
<svg version="1.1" id="Layer_1" xmlns="http://www.w3.org/2000/svg" xmlns:xlink="http://www.w3.org/1999/xlink" x="0px" y="0px"
	 width="1920px" height="1080px" viewBox="4152.416 0 1920 1080" enable-background="new 4152.416 0 1920 1080"
	 xml:space="preserve">
<g opacity="0.2">
	<rect x="5038.266" y="509.528" fill="#00495D" width="661" height="390.688"/>
	<g>
		<polyline fill="none" stroke="#4B453C" stroke-miterlimit="10" points="5699.266,894.216 5699.266,900.216 5693.266,900.216 		"/>
		
			<line fill="none" stroke="#4B453C" stroke-miterlimit="10" stroke-dasharray="11.8,11.8" x1="5681.468" y1="900.216" x2="5050.167" y2="900.216"/>
		<polyline fill="none" stroke="#4B453C" stroke-miterlimit="10" points="5044.266,900.216 5038.266,900.216 5038.266,894.216 		"/>
		
			<line fill="none" stroke="#4B453C" stroke-miterlimit="10" stroke-dasharray="12.2158,12.2158" x1="5038.266" y1="882" x2="5038.266" y2="521.635"/>
		<polyline fill="none" stroke="#4B453C" stroke-miterlimit="10" points="5038.266,515.528 5038.266,509.528 5044.266,509.528 		"/>
		
			<line fill="none" stroke="#4B453C" stroke-miterlimit="10" stroke-dasharray="11.8,11.8" x1="5056.066" y1="509.528" x2="5687.367" y2="509.528"/>
		<polyline fill="none" stroke="#4B453C" stroke-miterlimit="10" points="5693.266,509.528 5699.266,509.528 5699.266,515.528 		"/>
		
			<line fill="none" stroke="#4B453C" stroke-miterlimit="10" stroke-dasharray="12.2158,12.2158" x1="5699.266" y1="527.744" x2="5699.266" y2="888.109"/>
	</g>
</g>
<g opacity="0.7">
	<g>
		<polygon fill="#FFFFFF" stroke="#4B453C" stroke-miterlimit="10" points="5305.401,536.393 5305.401,647.688 5221.929,647.688 
			5221.929,558.65 5244.188,536.393 		"/>
		<polyline fill="#FFFFFF" stroke="#4B453C" stroke-miterlimit="10" points="5244.188,536.393 5244.188,558.65 5221.929,558.65 		
			"/>
	</g>
	<line fill="none" stroke="#4B453C" stroke-miterlimit="10" x1="5233.058" y1="631.037" x2="5292.161" y2="631.037"/>
	<line fill="none" stroke="#4B453C" stroke-miterlimit="10" x1="5233.058" y1="620.692" x2="5292.161" y2="620.692"/>
	<line fill="none" stroke="#4B453C" stroke-miterlimit="10" x1="5233.058" y1="610.348" x2="5292.161" y2="610.348"/>
	<line fill="none" stroke="#4B453C" stroke-miterlimit="10" x1="5233.058" y1="600.003" x2="5292.161" y2="600.003"/>
	<line fill="none" stroke="#4B453C" stroke-miterlimit="10" x1="5233.058" y1="589.66" x2="5292.161" y2="589.66"/>
	<line fill="none" stroke="#4B453C" stroke-miterlimit="10" x1="5233.058" y1="579.826" x2="5292.161" y2="579.826"/>
	<line fill="none" stroke="#4B453C" stroke-miterlimit="10" x1="5233.058" y1="569.482" x2="5292.161" y2="569.482"/>
	<line fill="none" stroke="#4B453C" stroke-miterlimit="10" x1="5242.102" y1="559.137" x2="5292.161" y2="559.137"/>
	<line fill="none" stroke="#4B453C" stroke-miterlimit="10" x1="5244.188" y1="548.793" x2="5292.161" y2="548.793"/>
</g>
<g opacity="0.2">
	<rect x="4481.108" y="424.762" fill="#E3E9BA" width="181.131" height="216.067"/>
	<g>
		<polyline fill="none" stroke="#4B453C" stroke-miterlimit="10" points="4662.239,634.829 4662.239,640.829 4656.239,640.829 		"/>
		
			<line fill="none" stroke="#4B453C" stroke-miterlimit="10" stroke-dasharray="11.2756,11.2756" x1="4644.964" y1="640.829" x2="4492.745" y2="640.829"/>
		<polyline fill="none" stroke="#4B453C" stroke-miterlimit="10" points="4487.108,640.829 4481.108,640.829 4481.108,634.829 		"/>
		
			<line fill="none" stroke="#4B453C" stroke-miterlimit="10" stroke-dasharray="12.0039,12.0039" x1="4481.108" y1="622.825" x2="4481.108" y2="436.764"/>
		<polyline fill="none" stroke="#4B453C" stroke-miterlimit="10" points="4481.108,430.762 4481.108,424.762 4487.108,424.762 		"/>
		
			<line fill="none" stroke="#4B453C" stroke-miterlimit="10" stroke-dasharray="11.2756,11.2756" x1="4498.382" y1="424.762" x2="4650.603" y2="424.762"/>
		<polyline fill="none" stroke="#4B453C" stroke-miterlimit="10" points="4656.239,424.762 4662.239,424.762 4662.239,430.762 		"/>
		
			<line fill="none" stroke="#4B453C" stroke-miterlimit="10" stroke-dasharray="12.0039,12.0039" x1="4662.239" y1="442.766" x2="4662.239" y2="628.827"/>
	</g>
</g>
<g opacity="0.2">
	<rect x="4889.612" y="210.324" fill="#D6ECEB" width="181.131" height="216.066"/>
	<g>
		<polyline fill="none" stroke="#4B453C" stroke-miterlimit="10" points="5070.745,420.391 5070.745,426.391 5064.745,426.391 		"/>
		
			<line fill="none" stroke="#4B453C" stroke-miterlimit="10" stroke-dasharray="11.2756,11.2756" x1="5053.468" y1="426.391" x2="4901.249" y2="426.391"/>
		<polyline fill="none" stroke="#4B453C" stroke-miterlimit="10" points="4895.612,426.391 4889.612,426.391 4889.612,420.391 		"/>
		
			<line fill="none" stroke="#4B453C" stroke-miterlimit="10" stroke-dasharray="12.0039,12.0039" x1="4889.612" y1="408.387" x2="4889.612" y2="222.326"/>
		<polyline fill="none" stroke="#4B453C" stroke-miterlimit="10" points="4889.612,216.324 4889.612,210.324 4895.612,210.324 		"/>
		
			<line fill="none" stroke="#4B453C" stroke-miterlimit="10" stroke-dasharray="11.2756,11.2756" x1="4906.888" y1="210.324" x2="5059.106" y2="210.324"/>
		<polyline fill="none" stroke="#4B453C" stroke-miterlimit="10" points="5064.745,210.324 5070.745,210.324 5070.745,216.324 		"/>
		
			<line fill="none" stroke="#4B453C" stroke-miterlimit="10" stroke-dasharray="12.0039,12.0039" x1="5070.745" y1="228.328" x2="5070.745" y2="414.389"/>
	</g>
</g>
<g opacity="0.2">
	<rect x="5297.591" y="280.511" fill="#4F766F" width="181.133" height="216.066"/>
	<g>
		<polyline fill="none" stroke="#4B453C" stroke-miterlimit="10" points="5478.724,490.578 5478.724,496.578 5472.724,496.578 		"/>
		
			<line fill="none" stroke="#4B453C" stroke-miterlimit="10" stroke-dasharray="11.2755,11.2755" x1="5461.45" y1="496.578" x2="5309.229" y2="496.578"/>
		<polyline fill="none" stroke="#4B453C" stroke-miterlimit="10" points="5303.591,496.578 5297.591,496.578 5297.591,490.578 		"/>
		
			<line fill="none" stroke="#4B453C" stroke-miterlimit="10" stroke-dasharray="12.0039,12.0039" x1="5297.591" y1="478.574" x2="5297.591" y2="292.513"/>
		<polyline fill="none" stroke="#4B453C" stroke-miterlimit="10" points="5297.591,286.511 5297.591,280.511 5303.591,280.511 		"/>
		
			<line fill="none" stroke="#4B453C" stroke-miterlimit="10" stroke-dasharray="11.2755,11.2755" x1="5314.867" y1="280.511" x2="5467.087" y2="280.511"/>
		<polyline fill="none" stroke="#4B453C" stroke-miterlimit="10" points="5472.724,280.511 5478.724,280.511 5478.724,286.511 		"/>
		
			<line fill="none" stroke="#4B453C" stroke-miterlimit="10" stroke-dasharray="12.0039,12.0039" x1="5478.724" y1="298.515" x2="5478.724" y2="484.576"/>
	</g>
</g>
<g opacity="0.7">
	<g>
		<polygon fill="#FFFFFF" stroke="#4B453C" stroke-miterlimit="10" points="4613.409,456.261 4613.409,567.555 4529.937,567.555 
			4529.937,478.518 4552.196,456.261 		"/>
		<polyline fill="#FFFFFF" stroke="#4B453C" stroke-miterlimit="10" points="4552.196,456.261 4552.196,478.518 4529.937,478.518 		
			"/>
	</g>
	<line fill="none" stroke="#4B453C" stroke-miterlimit="10" x1="4541.065" y1="550.905" x2="4600.169" y2="550.905"/>
	<line fill="none" stroke="#4B453C" stroke-miterlimit="10" x1="4541.065" y1="540.56" x2="4600.169" y2="540.56"/>
	<line fill="none" stroke="#4B453C" stroke-miterlimit="10" x1="4541.065" y1="530.216" x2="4600.169" y2="530.216"/>
	<line fill="none" stroke="#4B453C" stroke-miterlimit="10" x1="4541.065" y1="519.872" x2="4600.169" y2="519.872"/>
	<line fill="none" stroke="#4B453C" stroke-miterlimit="10" x1="4541.065" y1="509.528" x2="4600.169" y2="509.528"/>
	<line fill="none" stroke="#4B453C" stroke-miterlimit="10" x1="4541.065" y1="499.694" x2="4600.169" y2="499.694"/>
	<line fill="none" stroke="#4B453C" stroke-miterlimit="10" x1="4541.065" y1="489.35" x2="4600.169" y2="489.35"/>
	<line fill="none" stroke="#4B453C" stroke-miterlimit="10" x1="4550.11" y1="479.005" x2="4600.169" y2="479.005"/>
	<line fill="none" stroke="#4B453C" stroke-miterlimit="10" x1="4552.196" y1="468.662" x2="4600.169" y2="468.662"/>
</g>
<rect x="4152.416" y="-0.005" fill="none" stroke="#F6F6F3" stroke-width="3" stroke-miterlimit="10" width="1920.002" height="1080"/>
<g opacity="0.7">
	<g>
		
			<line fill="none" stroke="#4B453C" stroke-width="2" stroke-miterlimit="10" x1="4597.142" y1="489.349" x2="5220.451" y2="577.051"/>
		<g>
			<polygon fill="#4B453C" points="5213.858,583.602 5218.005,576.707 5215.921,568.934 5232.274,578.714 			"/>
		</g>
	</g>
</g>
<g>
	<g>
		<polygon fill="#FFFFFF" stroke="#4B453C" stroke-miterlimit="10" points="5021.915,241.823 5021.915,353.117 4938.442,353.117 
			4938.442,264.08 4960.701,241.823 		"/>
		<polyline fill="#FFFFFF" stroke="#4B453C" stroke-miterlimit="10" points="4960.701,241.823 4960.701,264.08 4938.442,264.08 		
			"/>
	</g>
	<line fill="none" stroke="#4B453C" stroke-miterlimit="10" x1="4949.571" y1="336.467" x2="5008.673" y2="336.467"/>
	<line fill="none" stroke="#4B453C" stroke-miterlimit="10" x1="4949.571" y1="326.122" x2="5008.673" y2="326.122"/>
	<line fill="none" stroke="#4B453C" stroke-miterlimit="10" x1="4949.571" y1="315.778" x2="5008.673" y2="315.778"/>
	<line fill="none" stroke="#4B453C" stroke-miterlimit="10" x1="4949.571" y1="305.434" x2="5008.673" y2="305.434"/>
	<line fill="none" stroke="#4B453C" stroke-miterlimit="10" x1="4949.571" y1="295.09" x2="5008.673" y2="295.09"/>
	<line fill="none" stroke="#4B453C" stroke-miterlimit="10" x1="4949.571" y1="285.256" x2="5008.673" y2="285.256"/>
	<line fill="none" stroke="#4B453C" stroke-miterlimit="10" x1="4949.571" y1="274.912" x2="5008.673" y2="274.912"/>
	<line fill="none" stroke="#4B453C" stroke-miterlimit="10" x1="4958.615" y1="264.567" x2="5008.673" y2="264.567"/>
	<line fill="none" stroke="#4B453C" stroke-miterlimit="10" x1="4960.701" y1="254.224" x2="5008.673" y2="254.224"/>
</g>
<g opacity="0.7">
	<g>
		<polygon fill="#FFFFFF" stroke="#4B453C" stroke-miterlimit="10" points="5429.894,312.011 5429.894,423.305 5346.421,423.305 
			5346.421,334.268 5368.681,312.011 		"/>
		<polyline fill="#FFFFFF" stroke="#4B453C" stroke-miterlimit="10" points="5368.681,312.011 5368.681,334.268 5346.421,334.268 		
			"/>
	</g>
	<line fill="none" stroke="#4B453C" stroke-miterlimit="10" x1="5357.549" y1="406.654" x2="5416.655" y2="406.654"/>
	<line fill="none" stroke="#4B453C" stroke-miterlimit="10" x1="5357.549" y1="396.31" x2="5416.655" y2="396.31"/>
	<line fill="none" stroke="#4B453C" stroke-miterlimit="10" x1="5357.549" y1="385.966" x2="5416.655" y2="385.966"/>
	<line fill="none" stroke="#4B453C" stroke-miterlimit="10" x1="5357.549" y1="375.621" x2="5416.655" y2="375.621"/>
	<line fill="none" stroke="#4B453C" stroke-miterlimit="10" x1="5357.549" y1="365.277" x2="5416.655" y2="365.277"/>
	<line fill="none" stroke="#4B453C" stroke-miterlimit="10" x1="5357.549" y1="355.443" x2="5416.655" y2="355.443"/>
	<line fill="none" stroke="#4B453C" stroke-miterlimit="10" x1="5357.549" y1="345.1" x2="5416.655" y2="345.1"/>
	<line fill="none" stroke="#4B453C" stroke-miterlimit="10" x1="5366.595" y1="334.755" x2="5416.655" y2="334.755"/>
	<line fill="none" stroke="#4B453C" stroke-miterlimit="10" x1="5368.681" y1="324.411" x2="5416.655" y2="324.411"/>
</g>
<g opacity="0.7">
	<g>
		<polygon fill="#FFFFFF" stroke="#4B453C" stroke-miterlimit="10" points="5144.907,763.179 5144.907,874.473 5061.433,874.473 
			5061.433,785.436 5083.692,763.179 		"/>
		<polyline fill="#FFFFFF" stroke="#4B453C" stroke-miterlimit="10" points="5083.692,763.179 5083.692,785.436 5061.433,785.436 		
			"/>
	</g>
	<line fill="none" stroke="#4B453C" stroke-miterlimit="10" x1="5072.562" y1="857.823" x2="5131.667" y2="857.823"/>
	<line fill="none" stroke="#4B453C" stroke-miterlimit="10" x1="5072.562" y1="847.479" x2="5131.667" y2="847.479"/>
	<line fill="none" stroke="#4B453C" stroke-miterlimit="10" x1="5072.562" y1="837.134" x2="5131.667" y2="837.134"/>
	<line fill="none" stroke="#4B453C" stroke-miterlimit="10" x1="5072.562" y1="826.79" x2="5131.667" y2="826.79"/>
	<line fill="none" stroke="#4B453C" stroke-miterlimit="10" x1="5072.562" y1="816.446" x2="5131.667" y2="816.446"/>
	<line fill="none" stroke="#4B453C" stroke-miterlimit="10" x1="5072.562" y1="806.612" x2="5131.667" y2="806.612"/>
	<line fill="none" stroke="#4B453C" stroke-miterlimit="10" x1="5072.562" y1="796.268" x2="5131.667" y2="796.268"/>
	<line fill="none" stroke="#4B453C" stroke-miterlimit="10" x1="5081.606" y1="785.923" x2="5131.667" y2="785.923"/>
	<line fill="none" stroke="#4B453C" stroke-miterlimit="10" x1="5083.692" y1="775.58" x2="5131.667" y2="775.58"/>
</g>
<g opacity="0.7">
	<g>
		<polygon fill="#FFFFFF" stroke="#4B453C" stroke-miterlimit="10" points="5673.801,616.441 5673.801,727.735 5590.331,727.735 
			5590.331,638.698 5612.589,616.441 		"/>
		<polyline fill="#FFFFFF" stroke="#4B453C" stroke-miterlimit="10" points="5612.589,616.441 5612.589,638.698 5590.331,638.698 		
			"/>
	</g>
	<line fill="none" stroke="#4B453C" stroke-miterlimit="10" x1="5601.458" y1="711.084" x2="5660.562" y2="711.084"/>
	<line fill="none" stroke="#4B453C" stroke-miterlimit="10" x1="5601.458" y1="700.74" x2="5660.562" y2="700.74"/>
	<line fill="none" stroke="#4B453C" stroke-miterlimit="10" x1="5601.458" y1="690.396" x2="5660.562" y2="690.396"/>
	<line fill="none" stroke="#4B453C" stroke-miterlimit="10" x1="5601.458" y1="680.051" x2="5660.562" y2="680.051"/>
	<line fill="none" stroke="#4B453C" stroke-miterlimit="10" x1="5601.458" y1="669.708" x2="5660.562" y2="669.708"/>
	<line fill="none" stroke="#4B453C" stroke-miterlimit="10" x1="5601.458" y1="659.874" x2="5660.562" y2="659.874"/>
	<line fill="none" stroke="#4B453C" stroke-miterlimit="10" x1="5601.458" y1="649.53" x2="5660.562" y2="649.53"/>
	<line fill="none" stroke="#4B453C" stroke-miterlimit="10" x1="5610.502" y1="639.185" x2="5660.562" y2="639.185"/>
	<line fill="none" stroke="#4B453C" stroke-miterlimit="10" x1="5612.589" y1="628.841" x2="5660.562" y2="628.841"/>
</g>
<rect x="4575.14" y="487.269" opacity="0.7" fill="none" stroke="#BE1622" stroke-width="2" stroke-miterlimit="10" width="22" height="4.162"/>
<g opacity="0.7">
	<g>
		
			<line fill="none" stroke="#4B453C" stroke-width="2" stroke-miterlimit="10" x1="4568.599" y1="519.873" x2="4945.329" y2="315.236"/>
		<g>
			<polygon fill="#4B453C" points="4943.927,324.426 4943.157,316.416 4936.856,311.41 4955.818,309.538 			"/>
		</g>
	</g>
</g>
<rect x="4546.597" y="517.791" opacity="0.7" fill="none" stroke="#BE1622" stroke-width="2" stroke-miterlimit="10" width="22.002" height="4.162"/>
<g opacity="0.7">
	<g>
		<g>
			<g>
				
					<line fill="none" stroke="#4B453C" stroke-width="2" stroke-miterlimit="10" x1="5090.318" y1="794.072" x2="5233.491" y2="643.036"/>
				<g>
					<polygon fill="#4B453C" points="5235.001,652.208 5231.792,644.829 5224.251,642.018 5241.704,634.371 					"/>
				</g>
			</g>
		</g>
	</g>
</g>
<rect x="5075.531" y="794.072" fill="none" stroke="#BE1622" stroke-width="2" stroke-miterlimit="10" width="22" height="4.162"/>
<g opacity="0.7">
	<g>
		
			<line fill="none" stroke="#4B453C" stroke-width="2" stroke-miterlimit="10" x1="5289.501" y1="600.006" x2="5589.796" y2="665.889"/>
		<g>
			<polygon fill="#4B453C" points="5582.722,671.919 5587.384,665.36 5585.897,657.452 5601.458,668.448 			"/>
		</g>
	</g>
</g>
<rect x="5267.499" y="597.926" opacity="0.7" fill="none" stroke="#BE1622" stroke-width="2" stroke-miterlimit="10" width="22.002" height="4.162"/>
<g opacity="0.7">
	<g>
		
			<line fill="none" stroke="#4B453C" stroke-width="2" stroke-miterlimit="10" x1="5402.271" y1="377.373" x2="5263.521" y2="564.09"/>
		<g>
			<polygon fill="#4B453C" points="5260.927,555.165 5264.995,562.107 5272.814,563.999 5256.398,573.673 			"/>
		</g>
	</g>
</g>
<rect x="5390.704" y="373.21" fill="none" stroke="#BE1622" stroke-width="2" stroke-miterlimit="10" width="22.002" height="4.162"/>
<g opacity="0.7">
	<g>
		
			<line fill="none" stroke="#4B453C" stroke-width="2" stroke-miterlimit="10" x1="5624.794" y1="709.029" x2="5012.514" y2="336.995"/>
		<g>
			<polygon fill="#4B453C" points="5021.161,333.583 5014.626,338.278 5013.468,346.242 5002.312,330.795 			"/>
		</g>
	</g>
</g>
<rect x="5619.36" y="709.029" opacity="0.7" fill="none" stroke="#BE1622" stroke-width="2" stroke-miterlimit="10" width="22.002" height="4.162"/>
<rect x="4950.534" y="303.353" opacity="0.7" fill="none" stroke="#BE1622" stroke-width="2" stroke-miterlimit="10" width="22.002" height="4.162"/>
<rect x="4984.14" y="324.041" fill="none" stroke="#BE1622" stroke-width="2" stroke-miterlimit="10" width="22" height="4.162"/>
<rect x="5235.388" y="577.745" opacity="0.7" fill="none" stroke="#BE1622" stroke-width="2" stroke-miterlimit="10" width="22.002" height="4.162"/>
<rect x="5245.398" y="618.611" opacity="0.7" fill="none" stroke="#BE1622" stroke-width="2" stroke-miterlimit="10" width="22.003" height="4.162"/>
<rect x="5604.608" y="667.626" opacity="0.7" fill="none" stroke="#BE1622" stroke-width="2" stroke-miterlimit="10" width="22.002" height="4.162"/>
<g>
	<path d="M4658.222,817.386v-17.85h1v17.85H4658.222z"/>
	<path d="M4668.372,817.386v-6.175c0-2.184-0.983-3.275-2.95-3.275c-0.967,0-1.699,0.284-2.199,0.851
		c-0.518,0.566-0.775,1.342-0.775,2.324v6.275h-1.025v-10.325h1.025v1.25c0.467-0.916,1.458-1.375,2.975-1.375
		c1.283,0,2.267,0.367,2.95,1.101c0.683,0.733,1.024,1.758,1.024,3.074v6.275H4668.372z"/>
	<path d="M4681.646,817.386v-1.85c-1.1,1.35-2.5,2.024-4.199,2.024c-1.5,0-2.759-0.508-3.775-1.524
		c-1.033-1.033-1.55-2.301-1.55-3.801s0.508-2.758,1.524-3.774c1.033-1.033,2.301-1.55,3.801-1.55c1.649,0,3.05,0.675,4.199,2.024
		v-10.05h1.025v18.5H4681.646z M4680.497,809.186c-0.851-0.85-1.867-1.274-3.05-1.274c-1.2,0-2.217,0.416-3.051,1.25
		c-0.85,0.85-1.274,1.875-1.274,3.074c0,1.184,0.425,2.2,1.274,3.051c0.851,0.85,1.867,1.274,3.051,1.274
		c1.199,0,2.216-0.416,3.05-1.25c0.85-0.85,1.274-1.875,1.274-3.075C4681.771,811.053,4681.347,810.036,4680.497,809.186z"/>
	<path d="M4694.072,816.011c-1.034,1.033-2.301,1.55-3.801,1.55s-2.758-0.508-3.775-1.524c-1.033-1.033-1.549-2.301-1.549-3.801
		c0-1.482,0.516-2.741,1.549-3.774c1.018-1.05,2.275-1.575,3.775-1.575c1.483,0,2.742,0.517,3.775,1.55
		c1.033,1.034,1.55,2.3,1.55,3.8S4695.088,814.994,4694.072,816.011z M4693.347,809.161c-0.833-0.851-1.858-1.275-3.075-1.275
		c-1.166,0-2.175,0.434-3.025,1.3c-0.866,0.867-1.299,1.884-1.299,3.05c0,1.184,0.424,2.2,1.274,3.051
		c0.851,0.85,1.866,1.274,3.05,1.274c1.2,0,2.217-0.416,3.051-1.25c0.85-0.85,1.274-1.875,1.274-3.075
		C4694.597,811.02,4694.18,809.994,4693.347,809.161z"/>
	<path d="M4707.596,816.011c-1.033,1.033-2.299,1.55-3.799,1.55s-2.76-0.508-3.775-1.524c-1.033-1.033-1.551-2.301-1.551-3.801
		c0-1.482,0.518-2.741,1.551-3.774c1.016-1.05,2.275-1.575,3.775-1.575c1.482,0,2.74,0.517,3.774,1.55
		c1.033,1.034,1.55,2.3,1.55,3.8S4708.613,814.994,4707.596,816.011z M4706.871,809.161c-0.834-0.851-1.858-1.275-3.074-1.275
		c-1.168,0-2.176,0.434-3.025,1.3c-0.867,0.867-1.301,1.884-1.301,3.05c0,1.184,0.426,2.2,1.275,3.051
		c0.85,0.85,1.867,1.274,3.051,1.274c1.199,0,2.216-0.416,3.049-1.25c0.851-0.85,1.275-1.875,1.275-3.075
		C4708.121,811.02,4707.705,809.994,4706.871,809.161z"/>
	<path d="M4716.57,808.586c-0.266-0.2-0.549-0.358-0.85-0.476c-0.3-0.116-0.617-0.175-0.949-0.175c-0.284,0-0.551,0.088-0.801,0.263
		s-0.467,0.392-0.65,0.65c-0.184,0.258-0.328,0.546-0.438,0.862c-0.107,0.316-0.162,0.608-0.162,0.875v6.8h-1.025v-10.325h1.025v1.4
		c0.217-0.384,0.5-0.733,0.85-1.05c0.351-0.316,0.734-0.476,1.15-0.476c0.517,0,0.941,0.059,1.275,0.175
		c0.333,0.117,0.708,0.325,1.125,0.625L4716.57,808.586z"/>
	<path d="M4730.695,817.586c-1.533,0-2.809-0.509-3.824-1.525c-1.018-1.017-1.525-2.291-1.525-3.825
		c0-1.533,0.508-2.808,1.525-3.824c1.016-1.017,2.291-1.525,3.824-1.525c1.316,0,2.367,0.3,3.15,0.9v1.225l-0.65-0.425l-0.699-0.375
		c-0.635-0.217-1.234-0.325-1.801-0.325c-1.283,0-2.324,0.4-3.125,1.2c-0.816,0.816-1.225,1.866-1.225,3.149
		c0,1.268,0.408,2.309,1.225,3.125c0.816,0.817,1.858,1.226,3.125,1.226c1.2,0,2.25-0.4,3.15-1.2v1.275
		C4732.912,817.277,4731.861,817.586,4730.695,817.586z"/>
	<path d="M4736.346,817.386v-18.5h1v18.5H4736.346z"/>
	<path d="M4740.295,805.211c-0.184,0-0.375-0.075-0.574-0.226c-0.15-0.149-0.234-0.35-0.25-0.6c0-0.45,0.274-0.725,0.824-0.825
		c0.417,0,0.691,0.275,0.825,0.825C4741.12,804.936,4740.846,805.211,4740.295,805.211z M4739.771,817.386v-10.325h1.024v10.325
		H4739.771z"/>
	<path d="M4754.745,817.386v-7.125c0-0.633-0.208-1.184-0.625-1.65c-0.417-0.466-1.017-0.699-1.8-0.699
		c-1.617,0-2.426,0.783-2.426,2.35v7.125h-1.024v-7.125c0-0.7-0.233-1.258-0.7-1.675c-0.483-0.45-1.059-0.675-1.725-0.675
		c-0.684,0-1.259,0.217-1.725,0.649c-0.467,0.417-0.701,0.983-0.701,1.7v7.125h-1.024v-10.325h1.024v1.025
		c0.5-0.783,1.309-1.175,2.426-1.175c1.333,0,2.316,0.541,2.949,1.625c0.601-1.084,1.576-1.625,2.926-1.625
		c1.033,0,1.866,0.291,2.5,0.875c0.633,0.6,0.949,1.425,0.949,2.475v7.125H4754.745z"/>
	<path d="M4767.745,817.386v-1.775c-1.084,1.301-2.459,1.95-4.125,1.95c-1.5,0-2.759-0.508-3.775-1.524
		c-1.033-1.033-1.55-2.301-1.55-3.801s0.508-2.758,1.525-3.774c1.033-1.033,2.3-1.55,3.8-1.55c1.649,0,3.024,0.649,4.125,1.949v-1.8
		h1.024v10.325H4767.745z M4766.67,809.186c-0.85-0.85-1.867-1.274-3.05-1.274c-1.2,0-2.217,0.416-3.05,1.25
		c-0.851,0.85-1.275,1.875-1.275,3.074c0,1.184,0.425,2.2,1.275,3.051c0.85,0.85,1.866,1.274,3.05,1.274
		c1.2,0,2.216-0.416,3.05-1.25c0.85-0.85,1.275-1.875,1.275-3.075C4767.945,811.053,4767.52,810.036,4766.67,809.186z"/>
	<path d="M4773.37,808.086v9.3h-1.025v-9.3h-1.399v-1.025h1.399v-4.524h1.025v4.524h2.399v1.025H4773.37z"/>
	<path d="M4778.27,812.011c0,1.4,0.375,2.509,1.125,3.325c0.783,0.833,1.858,1.25,3.226,1.25c0.7,0,1.333-0.116,1.899-0.351
		c0.717-0.3,1.358-0.908,1.926-1.824l0.925,0.425c-0.65,1.233-1.65,2.066-3,2.5c-0.517,0.166-1.101,0.25-1.75,0.25
		c-1.55,0-2.825-0.509-3.825-1.525c-1.017-1.017-1.525-2.291-1.525-3.825c0-1.55,0.5-2.824,1.5-3.824
		c1.017-1.017,2.301-1.525,3.851-1.525c1.533,0,2.8,0.475,3.8,1.425c1.017,0.95,1.525,2.184,1.525,3.7H4778.27z M4785.32,808.735
		c-0.784-0.566-1.684-0.85-2.7-0.85c-2.134,0-3.534,1.05-4.2,3.15h8.375C4786.628,810.086,4786.137,809.319,4785.32,808.735z"/>
	<path d="M4801.77,816.735c-0.667,0.567-1.467,0.851-2.4,0.851c-1.6,0-2.8-0.726-3.6-2.175l0.875-0.525
		c0.283,0.517,0.625,0.917,1.025,1.2c0.416,0.316,0.982,0.475,1.699,0.475c1.566,0,2.35-0.666,2.35-2
		c0-0.583-0.274-1.091-0.824-1.524c-0.167-0.101-0.404-0.213-0.713-0.338s-0.688-0.271-1.137-0.438c-0.834-0.3-1.434-0.6-1.801-0.9
		c-0.533-0.433-0.8-1.058-0.8-1.875c0-0.699,0.267-1.3,0.8-1.8c0.517-0.517,1.191-0.774,2.025-0.774c1.15,0,2.125,0.399,2.925,1.199
		l-0.75,0.65c-0.567-0.566-1.292-0.85-2.175-0.85c-1.2,0-1.801,0.524-1.801,1.574c0,0.467,0.184,0.851,0.551,1.15
		c0.3,0.233,0.775,0.459,1.425,0.675c0.566,0.2,1.033,0.388,1.399,0.563c0.367,0.175,0.643,0.329,0.826,0.463
		c0.716,0.55,1.074,1.292,1.074,2.225C4802.744,815.461,4802.42,816.186,4801.77,816.735z"/>
	<path d="M4805.67,805.211c-0.184,0-0.375-0.075-0.576-0.226c-0.149-0.149-0.232-0.35-0.25-0.6c0-0.45,0.275-0.725,0.826-0.825
		c0.416,0,0.691,0.275,0.824,0.825C4806.494,804.936,4806.219,805.211,4805.67,805.211z M4805.145,817.386v-10.325h1.025v10.325
		H4805.145z"/>
	<path d="M4820.119,817.386v-7.125c0-0.633-0.209-1.184-0.625-1.65c-0.416-0.466-1.017-0.699-1.8-0.699
		c-1.616,0-2.425,0.783-2.425,2.35v7.125h-1.025v-7.125c0-0.7-0.233-1.258-0.699-1.675c-0.484-0.45-1.059-0.675-1.726-0.675
		c-0.684,0-1.259,0.217-1.726,0.649c-0.467,0.417-0.699,0.983-0.699,1.7v7.125h-1.025v-10.325h1.025v1.025
		c0.5-0.783,1.309-1.175,2.425-1.175c1.333,0,2.316,0.541,2.95,1.625c0.6-1.084,1.574-1.625,2.925-1.625
		c1.033,0,1.866,0.291,2.5,0.875c0.634,0.6,0.95,1.425,0.95,2.475v7.125H4820.119z"/>
	<path d="M4831.02,816.485c-0.684,0.734-1.643,1.101-2.875,1.101c-1.217,0-2.159-0.358-2.826-1.075c-0.666-0.717-1-1.717-1-3v-6.45
		h1.025v6.45c0,0.983,0.217,1.742,0.65,2.275c0.449,0.533,1.166,0.8,2.15,0.8c1.916,0,2.875-1.025,2.875-3.075v-6.45h1v6.45
		C4832.02,814.777,4831.686,815.77,4831.02,816.485z"/>
	<path d="M4834.193,817.386v-18.5h1v18.5H4834.193z"/>
	<path d="M4847.394,817.386v-1.775c-1.084,1.301-2.459,1.95-4.125,1.95c-1.5,0-2.759-0.508-3.775-1.524
		c-1.033-1.033-1.55-2.301-1.55-3.801s0.508-2.758,1.525-3.774c1.033-1.033,2.3-1.55,3.8-1.55c1.649,0,3.024,0.649,4.125,1.949v-1.8
		h1.024v10.325H4847.394z M4846.318,809.186c-0.85-0.85-1.867-1.274-3.05-1.274c-1.2,0-2.217,0.416-3.05,1.25
		c-0.851,0.85-1.275,1.875-1.275,3.074c0,1.184,0.425,2.2,1.275,3.051c0.85,0.85,1.866,1.274,3.05,1.274
		c1.2,0,2.216-0.416,3.05-1.25c0.85-0.85,1.275-1.875,1.275-3.075C4847.594,811.053,4847.168,810.036,4846.318,809.186z"/>
	<path d="M4853.019,808.086v9.3h-1.025v-9.3h-1.399v-1.025h1.399v-4.524h1.025v4.524h2.399v1.025H4853.019z"/>
	<path d="M4858.418,805.211c-0.184,0-0.375-0.075-0.574-0.226c-0.15-0.149-0.234-0.35-0.25-0.6c0-0.45,0.274-0.725,0.824-0.825
		c0.417,0,0.691,0.275,0.825,0.825C4859.243,804.936,4858.969,805.211,4858.418,805.211z M4857.894,817.386v-10.325h1.024v10.325
		H4857.894z"/>
	<path d="M4870.668,816.011c-1.033,1.033-2.3,1.55-3.8,1.55s-2.759-0.508-3.775-1.524c-1.033-1.033-1.55-2.301-1.55-3.801
		c0-1.482,0.517-2.741,1.55-3.774c1.017-1.05,2.275-1.575,3.775-1.575c1.483,0,2.741,0.517,3.774,1.55
		c1.033,1.034,1.551,2.3,1.551,3.8S4871.685,814.994,4870.668,816.011z M4869.943,809.161c-0.834-0.851-1.859-1.275-3.075-1.275
		c-1.167,0-2.175,0.434-3.025,1.3c-0.866,0.867-1.3,1.884-1.3,3.05c0,1.184,0.425,2.2,1.275,3.051c0.85,0.85,1.866,1.274,3.05,1.274
		c1.2,0,2.216-0.416,3.05-1.25c0.85-0.85,1.275-1.875,1.275-3.075C4871.193,811.02,4870.776,809.994,4869.943,809.161z"/>
	<path d="M4881.718,817.386v-6.175c0-2.184-0.983-3.275-2.95-3.275c-0.967,0-1.699,0.284-2.199,0.851
		c-0.518,0.566-0.775,1.342-0.775,2.324v6.275h-1.025v-10.325h1.025v1.25c0.467-0.916,1.458-1.375,2.975-1.375
		c1.283,0,2.267,0.367,2.95,1.101c0.683,0.733,1.024,1.758,1.024,3.074v6.275H4881.718z"/>
	<path d="M4901.191,816.011c-1.033,1.033-2.299,1.55-3.799,1.55c-1.717,0-3.125-0.691-4.226-2.075v1.9h-1.024v-18.5h1.024v10.1
		c1.083-1.383,2.491-2.074,4.226-2.074c1.5,0,2.758,0.508,3.774,1.524c1.033,1.034,1.55,2.3,1.55,3.8
		S4902.209,814.994,4901.191,816.011z M4900.441,809.186c-0.85-0.85-1.866-1.274-3.049-1.274c-1.201,0-2.217,0.416-3.051,1.25
		c-0.85,0.85-1.275,1.875-1.275,3.074c0,1.184,0.426,2.2,1.275,3.051c0.85,0.85,1.867,1.274,3.051,1.274
		c1.199,0,2.216-0.416,3.049-1.25c0.851-0.85,1.275-1.875,1.275-3.075C4901.717,811.053,4901.292,810.036,4900.441,809.186z"/>
	<path d="M4913.691,816.011c-1.033,1.033-2.299,1.55-3.799,1.55s-2.76-0.508-3.775-1.524c-1.033-1.033-1.551-2.301-1.551-3.801
		c0-1.482,0.518-2.741,1.551-3.774c1.016-1.05,2.275-1.575,3.775-1.575c1.482,0,2.74,0.517,3.774,1.55
		c1.033,1.034,1.55,2.3,1.55,3.8S4914.709,814.994,4913.691,816.011z M4912.967,809.161c-0.834-0.851-1.858-1.275-3.074-1.275
		c-1.168,0-2.176,0.434-3.025,1.3c-0.867,0.867-1.301,1.884-1.301,3.05c0,1.184,0.426,2.2,1.275,3.051
		c0.85,0.85,1.867,1.274,3.051,1.274c1.199,0,2.216-0.416,3.049-1.25c0.851-0.85,1.275-1.875,1.275-3.075
		C4914.217,811.02,4913.801,809.994,4912.967,809.161z"/>
	<path d="M4919.342,808.086v9.3h-1.025v-9.3h-1.4v-1.025h1.4v-4.524h1.025v4.524h2.4v1.025H4919.342z"/>
</g>
<g>
	<g id="color_2_">
		<path fill="#D22F27" d="M4784.226,685.175v-6.428c0-3.533,2.865-6.398,6.398-6.398l0,0c3.533,0,6.398,2.865,6.398,6.398v6.4"/>
		<path fill="#D0CFCE" d="M4731.751,749.14L4731.751,749.14c-3.533,0-6.398-2.865-6.398-6.399v-20.478
			c0-3.534,2.865-6.399,6.398-6.399l0,0c3.535,0,6.398,2.865,6.398,6.399v20.478C4738.149,746.274,4735.286,749.14,4731.751,749.14z
			"/>
		<path fill="#D0CFCE" d="M4846.938,749.14L4846.938,749.14c3.533,0,6.398-2.865,6.398-6.399v-20.478
			c0-3.534-2.865-6.399-6.398-6.399l0,0c-3.535,0-6.4,2.865-6.4,6.399v20.478C4840.538,746.274,4843.403,749.14,4846.938,749.14z"/>
		<path fill="#D0CFCE" d="M4818.655,787.563h-58.621c-12.037,0-21.885-9.849-21.885-21.886V707.06
			c0-12.036,9.848-21.885,21.885-21.885h58.621c12.035,0,21.883,9.849,21.883,21.885v58.618
			C4840.538,777.715,4830.69,787.563,4818.655,787.563z"/>
		<path fill="#9B9B9A" d="M4788.06,787.562h34.007c10.161,0,18.472-9.849,18.472-21.886v-58.618
			c0-12.037-8.311-21.885-18.472-21.885h-6.021"/>
		<ellipse fill="#FFFFFF" cx="4811.958" cy="718.171" rx="7.253" ry="7.253"/>
		<ellipse fill="#FFFFFF" cx="4767.161" cy="718.169" rx="7.253" ry="7.253"/>
		<path fill="#FFFFFF" d="M4811.103,765.52h-43.516c-5.631,0-10.238-4.608-10.238-10.239l0,0c0-5.631,4.607-10.237,10.238-10.237
			h43.516c5.631,0,10.238,4.606,10.238,10.237l0,0C4821.341,760.911,4816.733,765.52,4811.103,765.52z"/>
	</g>
	<g id="line_2_">
		
			<path fill="none" stroke="#000000" stroke-width="0.6192" stroke-linecap="round" stroke-linejoin="round" stroke-miterlimit="2" d="
			M4790.624,698.849"/>
		
			<path fill="none" stroke="#000000" stroke-width="0.6192" stroke-linecap="round" stroke-linejoin="round" stroke-miterlimit="2" d="
			M4784.226,684.916v-6.428c0-3.534,2.865-6.399,6.398-6.399l0,0c3.533,0,6.398,2.865,6.398,6.399v6.4"/>
		
			<path fill="none" stroke="#000000" stroke-width="0.6192" stroke-linecap="round" stroke-linejoin="round" stroke-miterlimit="2" d="
			M4818.655,787.275h-58.621c-12.037,0-21.885-9.848-21.885-21.884v-58.619c0-12.037,9.848-21.884,21.885-21.884h58.621
			c12.035,0,21.883,9.847,21.883,21.884v58.619C4840.538,777.428,4830.69,787.275,4818.655,787.275z"/>
		
			<ellipse fill="none" stroke="#000000" stroke-width="0.6192" stroke-linecap="round" stroke-linejoin="round" stroke-miterlimit="2" cx="4811.958" cy="718.169" rx="7.253" ry="7.253"/>
		
			<ellipse fill="none" stroke="#000000" stroke-width="0.6192" stroke-linecap="round" stroke-linejoin="round" stroke-miterlimit="2" cx="4767.161" cy="718.168" rx="7.254" ry="7.254"/>
		<path fill="none" stroke="#000000" stroke-width="0.6192" stroke-miterlimit="2" d="M4811.103,765.519h-43.516
			c-5.631,0-10.238-4.608-10.238-10.239l0,0c0-5.631,4.607-10.239,10.238-10.239h43.516c5.631,0,10.238,4.608,10.238,10.239l0,0
			C4821.341,760.91,4816.733,765.519,4811.103,765.519z"/>
		
			<path fill="none" stroke="#000000" stroke-width="0.6192" stroke-linecap="round" stroke-linejoin="round" stroke-miterlimit="2" d="
			M4731.751,748.881L4731.751,748.881c-3.533,0-6.398-2.865-6.398-6.4v-20.478c0-3.533,2.865-6.398,6.398-6.398l0,0
			c3.535,0,6.398,2.865,6.398,6.398v20.478C4738.149,746.016,4735.286,748.881,4731.751,748.881z"/>
		
			<path fill="none" stroke="#000000" stroke-width="0.6192" stroke-linecap="round" stroke-linejoin="round" stroke-miterlimit="2" d="
			M4846.938,748.881L4846.938,748.881c3.533,0,6.398-2.865,6.398-6.4v-20.478c0-3.533-2.865-6.398-6.398-6.398l0,0
			c-3.535,0-6.4,2.865-6.4,6.398v20.478C4840.538,746.016,4843.403,748.881,4846.938,748.881z"/>
		<path fill="none" stroke="#000000" stroke-width="0.3096" stroke-miterlimit="10" d="M4790.624,739.921"/>
		<path fill="none" stroke="#000000" stroke-width="0.3096" stroke-miterlimit="10" d="M4790.624,791.114"/>
		
			<line fill="none" stroke="#000000" stroke-width="0.6192" stroke-linecap="round" stroke-linejoin="round" stroke-miterlimit="2" x1="4768.867" y1="746.32" x2="4768.867" y2="764.238"/>
		
			<line fill="none" stroke="#000000" stroke-width="0.6192" stroke-linecap="round" stroke-linejoin="round" stroke-miterlimit="2" x1="4781.665" y1="746.32" x2="4781.665" y2="764.238"/>
		
			<line fill="none" stroke="#000000" stroke-width="0.6192" stroke-linecap="round" stroke-linejoin="round" stroke-miterlimit="2" x1="4794.464" y1="746.32" x2="4794.464" y2="764.238"/>
		
			<line fill="none" stroke="#000000" stroke-width="0.6192" stroke-linecap="round" stroke-linejoin="round" stroke-miterlimit="2" x1="4807.263" y1="746.32" x2="4807.263" y2="764.238"/>
	</g>
</g>
<g>
	<g>
		<g>
			<g>
				
					<line fill="none" stroke="#4B453C" stroke-width="2" stroke-miterlimit="10" x1="4995.14" y1="330.795" x2="4824.602" y2="667.849"/>
				<g>
					<polygon fill="#4B453C" points="4820.53,659.493 4825.717,665.644 4833.747,666.18 4819.212,678.502 					"/>
				</g>
			</g>
		</g>
	</g>
</g>
<g>
	<g>
		<g>
			<g>
				
					<line fill="none" stroke="#4B453C" stroke-width="2" stroke-miterlimit="10" x1="5070.743" y1="791.114" x2="4868.806" y2="751.441"/>
				<g>
					<polygon fill="#4B453C" points="4875.745,745.257 4871.229,751.918 4872.89,759.791 4857.089,749.14 					"/>
				</g>
			</g>
		</g>
	</g>
</g>
<g>
	<g>
		
			<line fill="none" stroke="#4B453C" stroke-width="2" stroke-miterlimit="10" x1="5390.704" y1="377.372" x2="4858.847" y2="694.624"/>
		<g>
			<polygon fill="#4B453C" points="4859.878,685.386 4860.97,693.358 4867.465,698.106 4848.593,700.74 			"/>
		</g>
	</g>
</g>
<path fill="#FFFFFF" stroke="#231F20" stroke-miterlimit="10" d="M4720.56,607.029l28.869,100.772l-136.164-100.772H4359.97
	c-6.627,0-12-5.373-12-12V406.008c0-6.627,5.373-12,12-12h429.044c6.628,0,12,5.373,12,12v189.021c0,6.627-5.372,12-12,12H4720.56z"
	/>
<g>
	<path fill="#231F20" d="M4460.039,450.616c0.455-3.359,1.533-6.028,3.232-8.008c1.699-1.979,3.824-2.936,6.377-2.871
		c1.236,0.026,2.369,0.303,3.398,0.83c1.027,0.527,1.855,1.338,2.48,2.432l0.684-2.871h2.188l-5.078,29.258h-2.324l1.992-10.742
		c-1.811,2.083-4.043,3.086-6.699,3.008c-1.98-0.052-3.525-0.804-4.639-2.256c-1.113-1.452-1.697-3.447-1.748-5.986
		c-0.027-0.807,0.006-1.595,0.098-2.363L4460.039,450.616z M4462.363,451.026l-0.137,1.836c-0.039,2.136,0.328,3.796,1.104,4.98
		c0.773,1.185,1.936,1.804,3.486,1.855c1.289,0.052,2.49-0.241,3.604-0.879c1.113-0.638,2.08-1.563,2.9-2.773l1.777-10.391
		c-0.404-1.198-1.039-2.142-1.904-2.832c-0.867-0.69-1.951-1.055-3.252-1.094c-2.031-0.065-3.705,0.723-5.02,2.363
		c-1.316,1.641-2.156,3.815-2.52,6.523L4462.363,451.026z"/>
	<path fill="#231F20" d="M4494.941,458.604c-1.68,2.109-3.998,3.125-6.953,3.047c-1.992-0.039-3.477-0.758-4.453-2.158
		c-0.977-1.399-1.328-3.343-1.055-5.83l2.266-13.535h2.305l-2.246,13.594c-0.078,0.703-0.086,1.4-0.02,2.09
		c0.09,1.198,0.449,2.123,1.074,2.773c0.625,0.651,1.484,0.996,2.578,1.035c1.563,0.065,3.008-0.296,4.336-1.084
		c1.328-0.788,2.188-1.819,2.578-3.096l2.617-15.313h2.344l-3.672,21.133h-2.266L4494.941,458.604z"/>
	<path fill="#231F20" d="M4515.566,461.261c-0.066-0.495-0.086-0.989-0.059-1.484l0.176-1.465c-0.977,1.055-2.094,1.882-3.35,2.48
		c-1.258,0.599-2.615,0.885-4.072,0.859c-1.785-0.026-3.232-0.589-4.346-1.689c-1.113-1.1-1.611-2.483-1.494-4.15
		c0.104-1.393,0.582-2.601,1.436-3.623c0.852-1.022,2.066-1.816,3.643-2.383c1.574-0.566,3.34-0.85,5.293-0.85l4.316,0.02
		l0.352-2.422c0.156-1.445-0.156-2.604-0.938-3.477c-0.781-0.872-1.934-1.334-3.457-1.387c-1.537-0.026-2.875,0.355-4.014,1.143
		c-1.141,0.788-1.854,1.826-2.139,3.115h-2.285c0.26-1.849,1.211-3.356,2.852-4.521c1.641-1.165,3.58-1.735,5.82-1.709
		c2.174,0.052,3.85,0.71,5.029,1.973c1.178,1.263,1.656,2.904,1.436,4.922l-1.758,10.625l-0.156,1.699
		c-0.039,0.703,0.012,1.4,0.156,2.09l-0.039,0.234H4515.566z M4508.652,459.62c1.432,0.052,2.803-0.29,4.111-1.027
		s2.393-1.785,3.252-3.142l0.801-4.678l-3.73-0.02c-2.371,0-4.305,0.421-5.801,1.263c-1.498,0.841-2.324,2.045-2.48,3.611
		c-0.117,1.148,0.186,2.095,0.908,2.838C4506.436,459.209,4507.414,459.594,4508.652,459.62z"/>
	<path fill="#231F20" d="M4525.996,461.261h-2.344l5.215-30h2.344L4525.996,461.261z"/>
	<path fill="#231F20" d="M4534.883,461.261h-2.344l3.691-21.133h2.324L4534.883,461.261z M4536.875,434.015
		c0.064-0.846,0.625-1.38,1.68-1.602c0.508,0.091,0.869,0.251,1.084,0.479c0.215,0.228,0.354,0.603,0.42,1.123
		c-0.131,0.495-0.32,0.856-0.566,1.084c-0.248,0.228-0.619,0.394-1.113,0.498C4537.324,435.44,4536.822,434.913,4536.875,434.015z"
		/>
	<path fill="#231F20" d="M4549.355,434.718l-0.938,5.41h4.238l-0.332,1.914h-4.238l-2.344,14.102l-0.039,1.211
		c0,1.419,0.65,2.148,1.953,2.188c0.402,0.013,1.035-0.032,1.895-0.137l-0.098,1.914c-0.77,0.221-1.551,0.319-2.344,0.293
		c-1.367-0.026-2.363-0.504-2.988-1.436c-0.625-0.931-0.854-2.282-0.684-4.053l2.324-14.082h-3.789l0.352-1.914h3.75l0.957-5.41
		H4549.355z"/>
	<path fill="#231F20" d="M4560.898,457.823l9.043-17.695h2.598l-12.891,24.531c-0.951,1.901-1.957,3.249-3.018,4.043
		c-1.063,0.794-2.244,1.178-3.545,1.152c-0.495-0.026-1.12-0.13-1.875-0.313l0.234-1.914l1.172,0.137
		c2.188,0.091,3.912-1.198,5.176-3.867l1.484-2.949l-4.082-20.82h2.441L4560.898,457.823z"/>
	<path fill="#231F20" d="M4590.273,459.698c1.535,0.052,2.893-0.374,4.072-1.279c1.178-0.905,1.963-2.125,2.354-3.662h2.207
		c-0.391,2.097-1.416,3.786-3.076,5.068c-1.66,1.283-3.553,1.897-5.674,1.846c-1.707-0.039-3.139-0.508-4.297-1.406
		c-1.16-0.898-1.996-2.142-2.51-3.73c-0.516-1.588-0.682-3.379-0.498-5.371l0.078-0.84c0.156-1.367,0.49-2.695,1.006-3.984
		c0.514-1.289,1.201-2.432,2.061-3.428s1.885-1.784,3.076-2.363c1.191-0.579,2.535-0.85,4.033-0.811
		c2.16,0.052,3.879,0.781,5.156,2.188c1.275,1.406,1.875,3.19,1.797,5.352l-2.207-0.02c0.025-1.627-0.398-2.942-1.27-3.945
		c-0.873-1.002-2.064-1.53-3.574-1.582c-1.615-0.052-3.041,0.417-4.277,1.406c-1.238,0.99-2.168,2.39-2.793,4.199
		c-0.625,1.81-0.918,3.73-0.879,5.762c0.039,2.097,0.508,3.708,1.406,4.834C4587.363,459.057,4588.633,459.646,4590.273,459.698z"/>
	<path fill="#231F20" d="M4607.48,443.702c2.031-2.695,4.426-4.017,7.188-3.965c2.031,0.052,3.508,0.762,4.434,2.129
		c0.924,1.367,1.25,3.249,0.977,5.645l-2.305,13.75h-2.305l2.305-13.775c0.078-0.741,0.09-1.457,0.039-2.146
		c-0.223-2.315-1.484-3.505-3.789-3.57c-1.367-0.026-2.645,0.38-3.828,1.22c-1.186,0.839-2.227,2.104-3.125,3.795l-2.5,14.478
		h-2.305l5.215-30h2.305L4607.48,443.702z"/>
	<path fill="#231F20" d="M4632.129,461.651c-1.693-0.026-3.158-0.498-4.395-1.416c-1.238-0.918-2.146-2.168-2.725-3.75
		c-0.58-1.582-0.785-3.291-0.615-5.127l0.059-0.664c0.182-1.953,0.762-3.812,1.738-5.576c0.977-1.764,2.213-3.112,3.711-4.043
		c1.496-0.931,3.098-1.377,4.805-1.338c1.574,0.026,2.906,0.456,3.994,1.289c1.086,0.833,1.877,1.992,2.373,3.477
		c0.494,1.484,0.65,3.125,0.469,4.922l-0.156,1.426h-14.629l-0.059,0.469c-0.195,1.419-0.092,2.777,0.313,4.072
		c0.402,1.296,1.064,2.324,1.982,3.086s2.021,1.156,3.311,1.182c1.25,0.039,2.375-0.202,3.379-0.723
		c1.002-0.521,1.926-1.217,2.773-2.09l1.367,1.113c-0.951,1.224-2.08,2.152-3.389,2.783S4633.691,461.677,4632.129,461.651z
		 M4634.59,441.729c-1.693-0.065-3.211,0.534-4.551,1.797c-1.342,1.263-2.352,3.041-3.027,5.332l12.266,0.02l0.059-0.293
		c0.234-1.849-0.092-3.44-0.977-4.775C4637.473,442.475,4636.217,441.782,4634.59,441.729z"/>
	<path fill="#231F20" d="M4652.168,459.698c1.535,0.052,2.893-0.374,4.072-1.279c1.178-0.905,1.963-2.125,2.354-3.662h2.207
		c-0.391,2.097-1.416,3.786-3.076,5.068c-1.66,1.283-3.553,1.897-5.674,1.846c-1.707-0.039-3.139-0.508-4.297-1.406
		c-1.16-0.898-1.996-2.142-2.51-3.73c-0.516-1.588-0.682-3.379-0.498-5.371l0.078-0.84c0.156-1.367,0.49-2.695,1.006-3.984
		c0.514-1.289,1.201-2.432,2.061-3.428s1.885-1.784,3.076-2.363c1.191-0.579,2.535-0.85,4.033-0.811
		c2.16,0.052,3.879,0.781,5.156,2.188c1.275,1.406,1.875,3.19,1.797,5.352l-2.207-0.02c0.025-1.627-0.398-2.942-1.27-3.945
		c-0.873-1.002-2.064-1.53-3.574-1.582c-1.615-0.052-3.041,0.417-4.277,1.406c-1.238,0.99-2.168,2.39-2.793,4.199
		c-0.625,1.81-0.918,3.73-0.879,5.762c0.039,2.097,0.508,3.708,1.406,4.834C4649.258,459.057,4650.527,459.646,4652.168,459.698z"/>
	<path fill="#231F20" d="M4670.996,450.655l-3.125,2.637l-1.387,7.969h-2.324l5.215-30h2.324l-3.32,19.023l2.422-2.227l9.199-7.93
		h3.105l-10.391,9.004l7.285,12.129h-2.578L4670.996,450.655z"/>
	<path fill="#231F20" d="M4683.066,459.854c0.039-0.456,0.225-0.843,0.557-1.162c0.332-0.319,0.725-0.485,1.182-0.498
		c0.469-0.013,0.852,0.144,1.152,0.469c0.299,0.326,0.43,0.723,0.391,1.191c-0.027,0.456-0.205,0.83-0.537,1.123
		s-0.727,0.446-1.182,0.459c-0.457,0.013-0.838-0.13-1.143-0.43C4683.18,460.708,4683.039,460.323,4683.066,459.854z
		 M4686.191,441.827c0.039-0.456,0.225-0.843,0.557-1.162c0.332-0.319,0.725-0.485,1.182-0.498c0.469-0.013,0.852,0.144,1.152,0.469
		c0.299,0.326,0.43,0.723,0.391,1.191c-0.027,0.456-0.205,0.83-0.537,1.123s-0.727,0.446-1.182,0.459
		c-0.457,0.013-0.838-0.13-1.143-0.43C4686.305,442.68,4686.164,442.296,4686.191,441.827z"/>
	<path fill="#231F20" d="M4435.771,509.261h-1.055l4.902-28.438h1.055L4435.771,509.261z"/>
	<path fill="#231F20" d="M4457.49,504.085c0.469-2.448-1.316-4.186-5.352-5.215l-2.168-0.625c-2.996-0.977-4.311-2.702-3.945-5.176
		c0.234-1.602,1.08-2.891,2.539-3.867c1.457-0.977,3.15-1.465,5.078-1.465c2.121,0,3.781,0.547,4.98,1.641
		c1.197,1.094,1.705,2.559,1.523,4.395h-1.055c0.156-1.484-0.281-2.686-1.309-3.604c-1.029-0.918-2.402-1.377-4.121-1.377
		c-1.668,0-3.119,0.384-4.355,1.152c-1.238,0.769-1.98,1.797-2.227,3.086c-0.391,2.07,0.807,3.542,3.594,4.414l2.91,0.84
		l0.977,0.332c3.033,1.107,4.361,2.937,3.984,5.488c-0.248,1.68-1.121,3.024-2.617,4.033c-1.498,1.009-3.289,1.514-5.371,1.514
		c-2.176,0-3.914-0.53-5.215-1.592c-1.303-1.061-1.863-2.451-1.68-4.17h1.035c-0.066,1.458,0.42,2.607,1.455,3.447
		s2.496,1.26,4.385,1.26c1.797-0.039,3.346-0.472,4.648-1.299C4456.486,506.471,4457.256,505.4,4457.49,504.085z"/>
	<path fill="#231F20" d="M4479.658,482.425l-0.977,5.703h4.629l-0.137,1.055h-4.688l-2.676,15.484l-0.078,1.075
		c-0.039,0.886,0.143,1.581,0.547,2.083c0.402,0.501,1.016,0.759,1.836,0.772c0.363,0,1.074-0.059,2.129-0.176l0.039,0.996
		c-0.6,0.156-1.309,0.234-2.129,0.234c-2.215,0-3.367-1.141-3.457-3.421c-0.027-0.665,0.02-1.342,0.137-2.033l2.578-15.014h-3.77
		l0.156-1.055h3.809l0.977-5.703H4479.658z"/>
	<path fill="#231F20" d="M4488.955,493.05c1.055-1.706,2.297-3.018,3.73-3.936c1.432-0.918,2.91-1.377,4.434-1.377
		c1.613,0,2.883,0.417,3.809,1.25c0.924,0.833,1.457,2.038,1.602,3.613c0.078,0.99,0.025,2.025-0.156,3.105l-2.344,13.555h-1.055
		l2.344-13.542c0.156-0.91,0.221-1.808,0.195-2.692c-0.066-1.379-0.473-2.433-1.221-3.161c-0.75-0.729-1.82-1.086-3.213-1.073
		c-1.785,0.026-3.5,0.719-5.146,2.078c-1.648,1.359-2.764,2.982-3.35,4.868l-2.344,13.522h-1.055l5.176-30h1.055L4488.955,493.05z"
		/>
	<path fill="#231F20" d="M4514.326,509.651c-1.693,0-3.152-0.475-4.375-1.426c-1.225-0.95-2.107-2.249-2.646-3.896
		c-0.541-1.647-0.682-3.375-0.42-5.186l0.156-0.977c0.313-1.901,0.979-3.678,2.002-5.332c1.021-1.653,2.236-2.917,3.643-3.789
		c1.406-0.872,2.91-1.309,4.512-1.309c2.135,0,3.809,0.788,5.02,2.363c1.211,1.576,1.725,3.594,1.543,6.055l-0.059,0.605
		l-0.176,1.23h-15.352l-0.215,1.15c-0.184,1.092-0.189,2.196-0.02,3.314c0.285,1.858,0.998,3.344,2.139,4.455
		c1.139,1.111,2.549,1.674,4.229,1.687c2.434,0.026,4.629-0.931,6.582-2.871l0.703,0.547
		C4519.664,508.525,4517.242,509.651,4514.326,509.651z M4517.197,488.792c-2.006,0-3.799,0.752-5.381,2.256
		s-2.758,3.467-3.525,5.889h14.258l0.059-0.254c0.168-0.938,0.182-1.875,0.039-2.813c-0.234-1.536-0.844-2.767-1.826-3.691
		C4519.836,489.254,4518.629,488.792,4517.197,488.792z"/>
	<path fill="#231F20" d="M4539.6,493.05c1.055-1.706,2.297-3.018,3.73-3.936c1.432-0.918,2.91-1.377,4.434-1.377
		c1.613,0,2.883,0.417,3.809,1.25c0.924,0.833,1.457,2.038,1.602,3.613c0.078,0.99,0.025,2.025-0.156,3.105l-2.344,13.555h-1.055
		l2.344-13.542c0.156-0.91,0.221-1.808,0.195-2.692c-0.066-1.379-0.473-2.433-1.221-3.161c-0.75-0.729-1.82-1.086-3.213-1.073
		c-1.785,0.026-3.5,0.719-5.146,2.078c-1.648,1.359-2.764,2.982-3.35,4.868l-2.344,13.522h-1.055l3.633-21.133h1.055L4539.6,493.05z
		"/>
	<path fill="#231F20" d="M4564.971,509.651c-1.693,0-3.152-0.475-4.375-1.426c-1.225-0.95-2.107-2.249-2.646-3.896
		c-0.541-1.647-0.682-3.375-0.42-5.186l0.156-0.977c0.313-1.901,0.979-3.678,2.002-5.332c1.021-1.653,2.236-2.917,3.643-3.789
		c1.406-0.872,2.91-1.309,4.512-1.309c2.135,0,3.809,0.788,5.02,2.363c1.211,1.576,1.725,3.594,1.543,6.055l-0.059,0.605
		l-0.176,1.23h-15.352l-0.215,1.15c-0.184,1.092-0.189,2.196-0.02,3.314c0.285,1.858,0.998,3.344,2.139,4.455
		c1.139,1.111,2.549,1.674,4.229,1.687c2.434,0.026,4.629-0.931,6.582-2.871l0.703,0.547
		C4570.309,508.525,4567.887,509.651,4564.971,509.651z M4567.842,488.792c-2.006,0-3.799,0.752-5.381,2.256
		s-2.758,3.467-3.525,5.889h14.258l0.059-0.254c0.168-0.938,0.182-1.875,0.039-2.813c-0.234-1.536-0.844-2.767-1.826-3.691
		C4570.48,489.254,4569.273,488.792,4567.842,488.792z"/>
	<path fill="#231F20" d="M4584.17,508.597c1.848,0,3.453-0.527,4.814-1.582c1.359-1.055,2.268-2.435,2.725-4.141h1.055
		c-0.469,2.019-1.492,3.652-3.066,4.902c-1.576,1.25-3.412,1.875-5.508,1.875c-1.941,0-3.514-0.602-4.717-1.807
		c-1.205-1.204-1.932-2.874-2.178-5.01c-0.145-1.237-0.125-2.48,0.059-3.73l0.117-0.82c0.338-2.07,0.986-3.926,1.943-5.566
		s2.115-2.881,3.477-3.721c1.359-0.84,2.861-1.26,4.502-1.26c2.121,0,3.791,0.69,5.01,2.07c1.217,1.38,1.748,3.145,1.592,5.293
		h-1.055c0.168-1.875-0.264-3.395-1.299-4.561c-1.035-1.165-2.445-1.748-4.229-1.748c-2.461,0-4.506,1.006-6.133,3.018
		c-1.629,2.012-2.617,4.704-2.969,8.076l-0.078,1.426c0,2.292,0.514,4.079,1.543,5.361
		C4580.803,507.956,4582.268,508.597,4584.17,508.597z"/>
	<path fill="#231F20" d="M4604.6,509.651c-1.693,0-3.152-0.475-4.375-1.426c-1.225-0.95-2.107-2.249-2.646-3.896
		c-0.541-1.647-0.682-3.375-0.42-5.186l0.156-0.977c0.313-1.901,0.979-3.678,2.002-5.332c1.021-1.653,2.236-2.917,3.643-3.789
		c1.406-0.872,2.91-1.309,4.512-1.309c2.135,0,3.809,0.788,5.02,2.363c1.211,1.576,1.725,3.594,1.543,6.055l-0.059,0.605
		l-0.176,1.23h-15.352l-0.215,1.15c-0.184,1.092-0.189,2.196-0.02,3.314c0.285,1.858,0.998,3.344,2.139,4.455
		c1.139,1.111,2.549,1.674,4.229,1.687c2.434,0.026,4.629-0.931,6.582-2.871l0.703,0.547
		C4609.938,508.525,4607.516,509.651,4604.6,509.651z M4607.471,488.792c-2.006,0-3.799,0.752-5.381,2.256s-2.758,3.467-3.525,5.889
		h14.258l0.059-0.254c0.168-0.938,0.182-1.875,0.039-2.813c-0.234-1.536-0.844-2.767-1.826-3.691
		C4610.109,489.254,4608.902,488.792,4607.471,488.792z"/>
	<path fill="#231F20" d="M4630.381,504.085c0.469-2.448-1.316-4.186-5.352-5.215l-2.168-0.625c-2.996-0.977-4.311-2.702-3.945-5.176
		c0.234-1.602,1.08-2.891,2.539-3.867c1.457-0.977,3.15-1.465,5.078-1.465c2.121,0,3.781,0.547,4.98,1.641
		c1.197,1.094,1.705,2.559,1.523,4.395h-1.055c0.156-1.484-0.281-2.686-1.309-3.604c-1.029-0.918-2.402-1.377-4.121-1.377
		c-1.668,0-3.119,0.384-4.355,1.152c-1.238,0.769-1.98,1.797-2.227,3.086c-0.391,2.07,0.807,3.542,3.594,4.414l2.91,0.84
		l0.977,0.332c3.033,1.107,4.361,2.937,3.984,5.488c-0.248,1.68-1.121,3.024-2.617,4.033c-1.498,1.009-3.289,1.514-5.371,1.514
		c-2.176,0-3.914-0.53-5.215-1.592c-1.303-1.061-1.863-2.451-1.68-4.17h1.035c-0.066,1.458,0.42,2.607,1.455,3.447
		s2.496,1.26,4.385,1.26c1.797-0.039,3.346-0.472,4.648-1.299C4629.377,506.471,4630.146,505.4,4630.381,504.085z"/>
	<path fill="#231F20" d="M4649.873,504.085c0.469-2.448-1.316-4.186-5.352-5.215l-2.168-0.625c-2.996-0.977-4.311-2.702-3.945-5.176
		c0.234-1.602,1.08-2.891,2.539-3.867c1.457-0.977,3.15-1.465,5.078-1.465c2.121,0,3.781,0.547,4.98,1.641
		c1.197,1.094,1.705,2.559,1.523,4.395h-1.055c0.156-1.484-0.281-2.686-1.309-3.604c-1.029-0.918-2.402-1.377-4.121-1.377
		c-1.668,0-3.119,0.384-4.355,1.152c-1.238,0.769-1.98,1.797-2.227,3.086c-0.391,2.07,0.807,3.542,3.594,4.414l2.91,0.84
		l0.977,0.332c3.033,1.107,4.361,2.937,3.984,5.488c-0.248,1.68-1.121,3.024-2.617,4.033c-1.498,1.009-3.289,1.514-5.371,1.514
		c-2.176,0-3.914-0.53-5.215-1.592c-1.303-1.061-1.863-2.451-1.68-4.17h1.035c-0.066,1.458,0.42,2.607,1.455,3.447
		s2.496,1.26,4.385,1.26c1.797-0.039,3.346-0.472,4.648-1.299C4648.869,506.471,4649.639,505.4,4649.873,504.085z"/>
	<path fill="#231F20" d="M4669.033,509.261c-0.039-1.146,0.084-2.435,0.371-3.867c-1.094,1.341-2.393,2.39-3.896,3.145
		s-3.135,1.126-4.893,1.113c-1.771,0-3.184-0.547-4.238-1.641s-1.453-2.461-1.191-4.102c0.324-1.992,1.428-3.548,3.311-4.668
		c1.881-1.12,4.268-1.712,7.158-1.777h5.02l0.566-3.086c0.273-1.731-0.072-3.096-1.035-4.092c-0.965-0.996-2.352-1.494-4.16-1.494
		c-1.771,0-3.373,0.472-4.805,1.416c-1.434,0.944-2.332,2.185-2.695,3.721l-1.055-0.039c0.363-1.81,1.367-3.288,3.008-4.434
		c1.641-1.146,3.488-1.719,5.547-1.719c2.148,0,3.795,0.609,4.941,1.826c1.145,1.218,1.568,2.835,1.27,4.854l-1.934,11.289
		l-0.137,1.328c-0.066,0.69-0.039,1.374,0.078,2.051l-0.02,0.176H4669.033z M4660.596,508.597c1.744,0.026,3.404-0.394,4.98-1.26
		c1.574-0.866,2.916-2.132,4.023-3.799l0.898-5.02h-4.727c-2.631,0.052-4.803,0.557-6.514,1.514
		c-1.713,0.957-2.725,2.269-3.037,3.936c-0.234,1.289,0.074,2.376,0.928,3.262C4658,508.115,4659.15,508.571,4660.596,508.597z"/>
	<path fill="#231F20" d="M4688.896,488.89l-1.27-0.098c-1.746,0-3.367,0.644-4.863,1.932c-1.498,1.288-2.5,2.855-3.008,4.703
		l-2.402,13.834h-1.055l3.633-21.133h1.055l-0.82,4.395c0.885-1.51,1.965-2.686,3.242-3.525c1.275-0.84,2.695-1.26,4.258-1.26
		c0.494,0,0.988,0.08,1.484,0.239L4688.896,488.89z"/>
	<path fill="#231F20" d="M4696.318,507.62l0.195-0.41l10.41-19.063h1.191l-13.359,24.668c-0.965,1.823-1.941,3.102-2.93,3.838
		c-0.99,0.735-2.09,1.116-3.301,1.143c-0.495,0-1.016-0.073-1.563-0.219l0.117-1.012c0.664,0.117,1.106,0.176,1.328,0.176
		c1.73,0,3.229-0.963,4.492-2.889l0.781-1.288l1.895-3.533l-4.57-20.923h1.113L4696.318,507.62z"/>
	<path fill="#231F20" d="M4392.764,557.261h-1.055l3.633-21.133h1.055L4392.764,557.261z M4395.967,529.487
		c0.039-0.26,0.178-0.501,0.42-0.723c0.24-0.221,0.498-0.332,0.771-0.332c0.299,0,0.543,0.117,0.732,0.352
		c0.188,0.234,0.256,0.495,0.205,0.781c-0.039,0.261-0.184,0.498-0.43,0.713c-0.248,0.215-0.508,0.322-0.781,0.322
		c-0.301-0.013-0.541-0.13-0.723-0.352C4395.979,530.028,4395.914,529.774,4395.967,529.487z"/>
	<path fill="#231F20" d="M4403.408,541.05c1.055-1.706,2.297-3.018,3.73-3.936c1.432-0.918,2.91-1.377,4.434-1.377
		c1.613,0,2.883,0.417,3.809,1.25c0.924,0.833,1.457,2.038,1.602,3.613c0.078,0.989,0.025,2.024-0.156,3.105l-2.344,13.555h-1.055
		l2.344-13.542c0.156-0.91,0.221-1.808,0.195-2.692c-0.066-1.379-0.473-2.433-1.221-3.161c-0.75-0.729-1.82-1.086-3.213-1.073
		c-1.785,0.026-3.5,0.719-5.146,2.078c-1.648,1.359-2.764,2.982-3.35,4.868l-2.344,13.522h-1.055l3.633-21.133h1.055
		L4403.408,541.05z"/>
	<path fill="#231F20" d="M4422.627,557.261l3.438-20.078h-3.516l0.137-1.055h3.594l0.488-3.008c0.352-1.914,1.086-3.431,2.207-4.551
		c1.119-1.12,2.52-1.692,4.199-1.719c0.82,0,1.641,0.117,2.461,0.352l-0.293,0.977c-0.82-0.208-1.543-0.299-2.168-0.273
		c-1.367,0.026-2.527,0.518-3.477,1.475c-0.951,0.957-1.576,2.269-1.875,3.936l-0.508,2.813h5.41l-0.156,1.055h-5.43l-3.457,20.078
		H4422.627z"/>
	<path fill="#231F20" d="M4433.818,546.284c0.324-1.966,0.982-3.757,1.973-5.371c0.988-1.614,2.227-2.881,3.711-3.799
		s3.105-1.377,4.863-1.377c1.432,0,2.701,0.319,3.809,0.957c1.105,0.638,1.984,1.585,2.637,2.842c0.65,1.257,1.021,2.646,1.113,4.17
		c0.039,0.886-0.039,2.019-0.234,3.398c-0.326,1.966-0.986,3.763-1.982,5.391s-2.234,2.894-3.711,3.799
		c-1.479,0.905-3.09,1.357-4.834,1.357c-1.445,0-2.719-0.322-3.818-0.967c-1.102-0.645-1.98-1.589-2.637-2.832
		c-0.658-1.243-1.025-2.64-1.104-4.189C4433.551,548.791,4433.623,547.664,4433.818,546.284z M4434.736,550.464
		c0.26,1.888,0.957,3.382,2.09,4.482s2.57,1.65,4.316,1.65c2.043,0,3.889-0.716,5.537-2.148c1.646-1.433,2.834-3.366,3.564-5.801
		c0.598-2.019,0.773-3.926,0.527-5.723c-0.287-1.888-0.994-3.382-2.119-4.482c-1.127-1.1-2.549-1.65-4.268-1.65
		c-2.045,0-3.895,0.726-5.547,2.178c-1.654,1.452-2.846,3.376-3.574,5.771C4434.664,546.733,4434.488,548.641,4434.736,550.464z"/>
	<path fill="#231F20" d="M4467.627,536.89l-1.27-0.098c-1.746,0-3.367,0.644-4.863,1.932c-1.498,1.288-2.5,2.855-3.008,4.702
		l-2.402,13.835h-1.055l3.633-21.133h1.055l-0.82,4.395c0.885-1.51,1.965-2.686,3.242-3.525c1.275-0.84,2.695-1.26,4.258-1.26
		c0.494,0,0.988,0.08,1.484,0.239L4467.627,536.89z"/>
	<path fill="#231F20" d="M4482.881,557.261h-1.035l2.422-14.049c0.143-0.885,0.188-1.724,0.137-2.518
		c-0.105-1.261-0.545-2.23-1.318-2.907c-0.775-0.676-1.846-1.008-3.213-0.995c-1.824,0.026-3.559,0.745-5.205,2.156
		c-1.648,1.412-2.744,3.067-3.291,4.966l-2.324,13.347h-1.055l3.633-21.133h1.074l-0.938,5c1.055-1.731,2.291-3.063,3.711-3.994
		c1.418-0.931,2.896-1.396,4.434-1.396c1.744,0,3.088,0.433,4.033,1.299c0.943,0.866,1.441,2.1,1.494,3.701
		c0.938-1.523,2.148-2.737,3.633-3.643c1.484-0.905,3.066-1.357,4.746-1.357c1.627,0,2.91,0.423,3.848,1.27
		c0.938,0.847,1.477,2.044,1.621,3.594c0.078,0.989,0.025,2.024-0.156,3.105l-2.344,13.555h-1.035l2.344-13.659
		c0.156-0.896,0.215-1.762,0.176-2.595c-0.066-1.379-0.479-2.429-1.24-3.151s-1.846-1.076-3.252-1.063
		c-1.225,0.039-2.439,0.345-3.643,0.917c-1.205,0.573-2.24,1.35-3.105,2.332c-0.867,0.982-1.436,2.039-1.709,3.171L4482.881,557.261
		z"/>
	<path fill="#231F20" d="M4516.592,557.261c-0.039-1.146,0.084-2.435,0.371-3.867c-1.094,1.341-2.393,2.39-3.896,3.145
		s-3.135,1.126-4.893,1.113c-1.771,0-3.184-0.547-4.238-1.641s-1.453-2.461-1.191-4.102c0.324-1.992,1.428-3.548,3.311-4.668
		c1.881-1.12,4.268-1.712,7.158-1.777h5.02l0.566-3.086c0.273-1.731-0.072-3.096-1.035-4.092c-0.965-0.996-2.352-1.494-4.16-1.494
		c-1.771,0-3.373,0.472-4.805,1.416c-1.434,0.944-2.332,2.185-2.695,3.721l-1.055-0.039c0.363-1.81,1.367-3.288,3.008-4.434
		c1.641-1.146,3.488-1.719,5.547-1.719c2.148,0,3.795,0.609,4.941,1.826c1.145,1.218,1.568,2.835,1.27,4.854l-1.934,11.289
		l-0.137,1.328c-0.066,0.69-0.039,1.374,0.078,2.051l-0.02,0.176H4516.592z M4508.154,556.597c1.744,0.026,3.404-0.394,4.98-1.26
		c1.574-0.866,2.916-2.132,4.023-3.799l0.898-5.02h-4.727c-2.631,0.052-4.803,0.557-6.514,1.514
		c-1.713,0.957-2.725,2.269-3.037,3.936c-0.234,1.289,0.074,2.376,0.928,3.262C4505.559,556.115,4506.709,556.57,4508.154,556.597z"
		/>
	<path fill="#231F20" d="M4530.811,530.425l-0.977,5.703h4.629l-0.137,1.055h-4.688l-2.676,15.484l-0.078,1.075
		c-0.039,0.887,0.143,1.58,0.547,2.082c0.402,0.502,1.016,0.76,1.836,0.772c0.363,0,1.074-0.059,2.129-0.176l0.039,0.996
		c-0.6,0.156-1.309,0.234-2.129,0.234c-2.215,0-3.367-1.141-3.457-3.421c-0.027-0.665,0.02-1.343,0.137-2.033l2.578-15.015h-3.77
		l0.156-1.055h3.809l0.977-5.703H4530.811z"/>
	<path fill="#231F20" d="M4537.646,557.261h-1.055l3.633-21.133h1.055L4537.646,557.261z M4540.85,529.487
		c0.039-0.26,0.178-0.501,0.42-0.723c0.24-0.221,0.498-0.332,0.771-0.332c0.299,0,0.543,0.117,0.732,0.352
		c0.188,0.234,0.256,0.495,0.205,0.781c-0.039,0.261-0.184,0.498-0.43,0.713c-0.248,0.215-0.508,0.322-0.781,0.322
		c-0.301-0.013-0.541-0.13-0.723-0.352C4540.861,530.028,4540.797,529.774,4540.85,529.487z"/>
	<path fill="#231F20" d="M4544.854,546.284c0.324-1.966,0.982-3.757,1.973-5.371c0.988-1.614,2.227-2.881,3.711-3.799
		s3.105-1.377,4.863-1.377c1.432,0,2.701,0.319,3.809,0.957c1.105,0.638,1.984,1.585,2.637,2.842c0.65,1.257,1.021,2.646,1.113,4.17
		c0.039,0.886-0.039,2.019-0.234,3.398c-0.326,1.966-0.986,3.763-1.982,5.391s-2.234,2.894-3.711,3.799
		c-1.479,0.905-3.09,1.357-4.834,1.357c-1.445,0-2.719-0.322-3.818-0.967c-1.102-0.645-1.98-1.589-2.637-2.832
		c-0.658-1.243-1.025-2.64-1.104-4.189C4544.586,548.791,4544.658,547.664,4544.854,546.284z M4545.771,550.464
		c0.26,1.888,0.957,3.382,2.09,4.482s2.57,1.65,4.316,1.65c2.043,0,3.889-0.716,5.537-2.148c1.646-1.433,2.834-3.366,3.564-5.801
		c0.598-2.019,0.773-3.926,0.527-5.723c-0.287-1.888-0.994-3.382-2.119-4.482c-1.127-1.1-2.549-1.65-4.268-1.65
		c-2.045,0-3.895,0.726-5.547,2.178c-1.654,1.452-2.846,3.376-3.574,5.771C4545.699,546.733,4545.523,548.641,4545.771,550.464z"/>
	<path fill="#231F20" d="M4569.834,541.05c1.055-1.706,2.297-3.018,3.73-3.936c1.432-0.918,2.91-1.377,4.434-1.377
		c1.613,0,2.883,0.417,3.809,1.25c0.924,0.833,1.457,2.038,1.602,3.613c0.078,0.989,0.025,2.024-0.156,3.105l-2.344,13.555h-1.055
		l2.344-13.542c0.156-0.91,0.221-1.808,0.195-2.692c-0.066-1.379-0.473-2.433-1.221-3.161c-0.75-0.729-1.82-1.086-3.213-1.073
		c-1.785,0.026-3.5,0.719-5.146,2.078c-1.648,1.359-2.764,2.982-3.35,4.868l-2.344,13.522h-1.055l3.633-21.133h1.055
		L4569.834,541.05z"/>
	<path fill="#231F20" d="M4610.381,557.261c-0.039-1.146,0.084-2.435,0.371-3.867c-1.094,1.341-2.393,2.39-3.896,3.145
		s-3.135,1.126-4.893,1.113c-1.771,0-3.184-0.547-4.238-1.641s-1.453-2.461-1.191-4.102c0.324-1.992,1.428-3.548,3.311-4.668
		c1.881-1.12,4.268-1.712,7.158-1.777h5.02l0.566-3.086c0.273-1.731-0.072-3.096-1.035-4.092c-0.965-0.996-2.352-1.494-4.16-1.494
		c-1.771,0-3.373,0.472-4.805,1.416c-1.434,0.944-2.332,2.185-2.695,3.721l-1.055-0.039c0.363-1.81,1.367-3.288,3.008-4.434
		c1.641-1.146,3.488-1.719,5.547-1.719c2.148,0,3.795,0.609,4.941,1.826c1.145,1.218,1.568,2.835,1.27,4.854l-1.934,11.289
		l-0.137,1.328c-0.066,0.69-0.039,1.374,0.078,2.051l-0.02,0.176H4610.381z M4601.943,556.597c1.744,0.026,3.404-0.394,4.98-1.26
		c1.574-0.866,2.916-2.132,4.023-3.799l0.898-5.02h-4.727c-2.631,0.052-4.803,0.557-6.514,1.514
		c-1.713,0.957-2.725,2.269-3.037,3.936c-0.234,1.289,0.074,2.376,0.928,3.262C4599.348,556.115,4600.498,556.57,4601.943,556.597z"
		/>
	<path fill="#231F20" d="M4623.799,555.542l10.41-19.395h1.152l-11.23,21.113h-1.035l-4.707-21.152h1.094L4623.799,555.542z"/>
	<path fill="#231F20" d="M4649.209,557.261c-0.039-1.146,0.084-2.435,0.371-3.867c-1.094,1.341-2.393,2.39-3.896,3.145
		s-3.135,1.126-4.893,1.113c-1.771,0-3.184-0.547-4.238-1.641s-1.453-2.461-1.191-4.102c0.324-1.992,1.428-3.548,3.311-4.668
		c1.881-1.12,4.268-1.712,7.158-1.777h5.02l0.566-3.086c0.273-1.731-0.072-3.096-1.035-4.092c-0.965-0.996-2.352-1.494-4.16-1.494
		c-1.771,0-3.373,0.472-4.805,1.416c-1.434,0.944-2.332,2.185-2.695,3.721l-1.055-0.039c0.363-1.81,1.367-3.288,3.008-4.434
		c1.641-1.146,3.488-1.719,5.547-1.719c2.148,0,3.795,0.609,4.941,1.826c1.145,1.218,1.568,2.835,1.27,4.854l-1.934,11.289
		l-0.137,1.328c-0.066,0.69-0.039,1.374,0.078,2.051l-0.02,0.176H4649.209z M4640.771,556.597c1.744,0.026,3.404-0.394,4.98-1.26
		c1.574-0.866,2.916-2.132,4.023-3.799l0.898-5.02h-4.727c-2.631,0.052-4.803,0.557-6.514,1.514
		c-1.713,0.957-2.725,2.269-3.037,3.936c-0.234,1.289,0.074,2.376,0.928,3.262C4638.176,556.115,4639.326,556.57,4640.771,556.597z"
		/>
	<path fill="#231F20" d="M4657.783,557.261h-1.055l3.633-21.133h1.055L4657.783,557.261z M4660.986,529.487
		c0.039-0.26,0.178-0.501,0.42-0.723c0.24-0.221,0.498-0.332,0.771-0.332c0.299,0,0.543,0.117,0.732,0.352
		c0.188,0.234,0.256,0.495,0.205,0.781c-0.039,0.261-0.184,0.498-0.43,0.713c-0.248,0.215-0.508,0.322-0.781,0.322
		c-0.301-0.013-0.541-0.13-0.723-0.352C4660.998,530.028,4660.934,529.774,4660.986,529.487z"/>
	<path fill="#231F20" d="M4665.967,557.261h-1.055l5.156-30h1.055L4665.967,557.261z"/>
	<path fill="#231F20" d="M4686.26,557.261c-0.039-1.146,0.084-2.435,0.371-3.867c-1.094,1.341-2.393,2.39-3.896,3.145
		s-3.135,1.126-4.893,1.113c-1.771,0-3.184-0.547-4.238-1.641s-1.453-2.461-1.191-4.102c0.324-1.992,1.428-3.548,3.311-4.668
		c1.881-1.12,4.268-1.712,7.158-1.777h5.02l0.566-3.086c0.273-1.731-0.072-3.096-1.035-4.092c-0.965-0.996-2.352-1.494-4.16-1.494
		c-1.771,0-3.373,0.472-4.805,1.416c-1.434,0.944-2.332,2.185-2.695,3.721l-1.055-0.039c0.363-1.81,1.367-3.288,3.008-4.434
		c1.641-1.146,3.488-1.719,5.547-1.719c2.148,0,3.795,0.609,4.941,1.826c1.145,1.218,1.568,2.835,1.27,4.854l-1.934,11.289
		l-0.137,1.328c-0.066,0.69-0.039,1.374,0.078,2.051l-0.02,0.176H4686.26z M4677.822,556.597c1.744,0.026,3.404-0.394,4.98-1.26
		c1.574-0.866,2.916-2.132,4.023-3.799l0.898-5.02h-4.727c-2.631,0.052-4.803,0.557-6.514,1.514
		c-1.713,0.957-2.725,2.269-3.037,3.936c-0.234,1.289,0.074,2.376,0.928,3.262C4675.227,556.115,4676.377,556.57,4677.822,556.597z"
		/>
	<path fill="#231F20" d="M4701.533,557.651c-1.459,0-2.752-0.319-3.877-0.957c-1.127-0.638-1.963-1.563-2.51-2.773l-0.605,3.34
		h-1.055l5.176-30h1.055l-2.266,12.715c0.977-1.367,2.119-2.415,3.428-3.145c1.309-0.729,2.717-1.094,4.229-1.094
		c1.367,0,2.531,0.339,3.496,1.016c0.963,0.677,1.67,1.67,2.119,2.979s0.646,2.757,0.596,4.346
		c-0.039,0.833-0.117,1.634-0.234,2.402l-0.254,1.289c-0.678,3.06-1.836,5.472-3.477,7.236S4703.771,557.651,4701.533,557.651z
		 M4709.99,546.479l0.234-2.09c0.104-1.419-0.018-2.734-0.361-3.945c-0.346-1.211-0.926-2.122-1.738-2.734
		c-0.814-0.612-1.814-0.918-2.998-0.918c-1.732,0-3.363,0.521-4.893,1.563c-1.531,1.042-2.557,2.331-3.076,3.867l-1.738,9.688
		c0.313,1.511,1.012,2.669,2.1,3.477c1.086,0.808,2.424,1.211,4.014,1.211c2.096,0,3.873-0.862,5.332-2.588
		c1.457-1.726,2.473-4.099,3.047-7.119L4709.99,546.479z"/>
	<path fill="#231F20" d="M4716.26,557.261h-1.055l5.156-30h1.055L4716.26,557.261z"/>
	<path fill="#231F20" d="M4730.85,557.651c-1.693,0-3.152-0.476-4.375-1.426c-1.225-0.95-2.107-2.249-2.646-3.896
		c-0.541-1.647-0.682-3.376-0.42-5.186l0.156-0.977c0.313-1.901,0.979-3.679,2.002-5.332c1.021-1.653,2.236-2.917,3.643-3.789
		c1.406-0.872,2.91-1.309,4.512-1.309c2.135,0,3.809,0.788,5.02,2.363c1.211,1.576,1.725,3.594,1.543,6.055l-0.059,0.605
		l-0.176,1.23h-15.352l-0.215,1.15c-0.184,1.092-0.189,2.196-0.02,3.313c0.285,1.859,0.998,3.344,2.139,4.455
		c1.139,1.111,2.549,1.674,4.229,1.687c2.434,0.026,4.629-0.931,6.582-2.871l0.703,0.547
		C4736.188,556.525,4733.766,557.651,4730.85,557.651z M4733.721,536.792c-2.006,0-3.799,0.752-5.381,2.256
		s-2.758,3.467-3.525,5.889h14.258l0.059-0.254c0.168-0.938,0.182-1.875,0.039-2.813c-0.234-1.536-0.844-2.767-1.826-3.691
		C4736.359,537.254,4735.152,536.792,4733.721,536.792z"/>
	<path fill="#231F20" d="M4748.467,549.429c0.402-2.214,1.465-4.153,3.184-5.82l2.461-2.207c1.367-1.287,2.334-2.632,2.9-4.036
		s0.764-2.775,0.596-4.114c-0.17-1.183-0.645-2.106-1.426-2.769c-0.781-0.663-1.771-0.995-2.969-0.995
		c-1.68,0-3.152,0.532-4.414,1.596c-1.264,1.064-2.123,2.518-2.578,4.361h-1.074c0.441-2.07,1.402-3.756,2.881-5.059
		c1.477-1.302,3.199-1.953,5.166-1.953c1.914,0,3.375,0.681,4.385,2.041c1.008,1.361,1.344,3.063,1.006,5.107
		c-0.234,1.445-0.789,2.819-1.66,4.121c-0.873,1.302-2.146,2.601-3.818,3.896c-1.674,1.296-2.797,2.946-3.369,4.951l-0.215,0.898
		L4748.467,549.429z M4746.807,556.265c0.039-0.261,0.178-0.501,0.42-0.723c0.24-0.222,0.498-0.332,0.771-0.332
		c0.299,0,0.543,0.117,0.732,0.352c0.188,0.234,0.256,0.495,0.205,0.781c-0.039,0.261-0.184,0.498-0.43,0.713
		c-0.248,0.215-0.508,0.322-0.781,0.322c-0.301-0.013-0.541-0.13-0.723-0.352C4746.818,556.805,4746.754,556.551,4746.807,556.265z"
		/>
</g>
</svg>
