<?xml version="1.0" encoding="utf-8"?>
<!-- Generator: Adobe Illustrator 16.0.0, SVG Export Plug-In . SVG Version: 6.00 Build 0)  -->
<!DOCTYPE svg PUBLIC "-//W3C//DTD SVG 1.1//EN" "http://www.w3.org/Graphics/SVG/1.1/DTD/svg11.dtd">
<svg version="1.1" id="Layer_1" xmlns="http://www.w3.org/2000/svg" xmlns:xlink="http://www.w3.org/1999/xlink" x="0px" y="0px"
	 width="1920px" height="1080px" viewBox="2067.207 0 1920 1080" enable-background="new 2067.207 0 1920 1080"
	 xml:space="preserve">
<g opacity="0.2">
	<rect x="2953.058" y="509.528" fill="#00495D" width="661" height="390.688"/>
	<g>
		<polyline fill="none" stroke="#4B453C" stroke-miterlimit="10" points="3614.058,894.216 3614.058,900.216 3608.058,900.216 		"/>
		
			<line fill="none" stroke="#4B453C" stroke-miterlimit="10" stroke-dasharray="11.8,11.8" x1="3596.259" y1="900.216" x2="2964.958" y2="900.216"/>
		<polyline fill="none" stroke="#4B453C" stroke-miterlimit="10" points="2959.058,900.216 2953.058,900.216 2953.058,894.216 		"/>
		
			<line fill="none" stroke="#4B453C" stroke-miterlimit="10" stroke-dasharray="12.2158,12.2158" x1="2953.058" y1="882" x2="2953.058" y2="521.635"/>
		<polyline fill="none" stroke="#4B453C" stroke-miterlimit="10" points="2953.058,515.528 2953.058,509.528 2959.058,509.528 		"/>
		
			<line fill="none" stroke="#4B453C" stroke-miterlimit="10" stroke-dasharray="11.8,11.8" x1="2970.858" y1="509.528" x2="3602.159" y2="509.528"/>
		<polyline fill="none" stroke="#4B453C" stroke-miterlimit="10" points="3608.058,509.528 3614.058,509.528 3614.058,515.528 		"/>
		
			<line fill="none" stroke="#4B453C" stroke-miterlimit="10" stroke-dasharray="12.2158,12.2158" x1="3614.058" y1="527.744" x2="3614.058" y2="888.109"/>
	</g>
</g>
<g opacity="0.7">
	<g>
		<polygon fill="#FFFFFF" stroke="#4B453C" stroke-miterlimit="10" points="3220.192,536.393 3220.192,647.688 3136.72,647.688 
			3136.72,558.65 3158.979,536.393 		"/>
		<polyline fill="#FFFFFF" stroke="#4B453C" stroke-miterlimit="10" points="3158.979,536.393 3158.979,558.65 3136.72,558.65 		"/>
	</g>
	<line fill="none" stroke="#4B453C" stroke-miterlimit="10" x1="3147.849" y1="631.037" x2="3206.952" y2="631.037"/>
	<line fill="none" stroke="#4B453C" stroke-miterlimit="10" x1="3147.849" y1="620.692" x2="3206.952" y2="620.692"/>
	<line fill="none" stroke="#4B453C" stroke-miterlimit="10" x1="3147.849" y1="610.348" x2="3206.952" y2="610.348"/>
	<line fill="none" stroke="#4B453C" stroke-miterlimit="10" x1="3147.849" y1="600.003" x2="3206.952" y2="600.003"/>
	<line fill="none" stroke="#4B453C" stroke-miterlimit="10" x1="3147.849" y1="589.66" x2="3206.952" y2="589.66"/>
	<line fill="none" stroke="#4B453C" stroke-miterlimit="10" x1="3147.849" y1="579.826" x2="3206.952" y2="579.826"/>
	<line fill="none" stroke="#4B453C" stroke-miterlimit="10" x1="3147.849" y1="569.482" x2="3206.952" y2="569.482"/>
	<line fill="none" stroke="#4B453C" stroke-miterlimit="10" x1="3156.894" y1="559.137" x2="3206.952" y2="559.137"/>
	<line fill="none" stroke="#4B453C" stroke-miterlimit="10" x1="3158.979" y1="548.793" x2="3206.952" y2="548.793"/>
</g>
<g opacity="0.2">
	<rect x="2395.899" y="424.762" fill="#E3E9BA" width="181.131" height="216.067"/>
	<g>
		<polyline fill="none" stroke="#4B453C" stroke-miterlimit="10" points="2577.03,634.829 2577.03,640.829 2571.03,640.829 		"/>
		
			<line fill="none" stroke="#4B453C" stroke-miterlimit="10" stroke-dasharray="11.2756,11.2756" x1="2559.755" y1="640.829" x2="2407.536" y2="640.829"/>
		<polyline fill="none" stroke="#4B453C" stroke-miterlimit="10" points="2401.899,640.829 2395.899,640.829 2395.899,634.829 		"/>
		
			<line fill="none" stroke="#4B453C" stroke-miterlimit="10" stroke-dasharray="12.0039,12.0039" x1="2395.899" y1="622.825" x2="2395.899" y2="436.764"/>
		<polyline fill="none" stroke="#4B453C" stroke-miterlimit="10" points="2395.899,430.762 2395.899,424.762 2401.899,424.762 		"/>
		
			<line fill="none" stroke="#4B453C" stroke-miterlimit="10" stroke-dasharray="11.2756,11.2756" x1="2413.173" y1="424.762" x2="2565.394" y2="424.762"/>
		<polyline fill="none" stroke="#4B453C" stroke-miterlimit="10" points="2571.03,424.762 2577.03,424.762 2577.03,430.762 		"/>
		
			<line fill="none" stroke="#4B453C" stroke-miterlimit="10" stroke-dasharray="12.0039,12.0039" x1="2577.03" y1="442.766" x2="2577.03" y2="628.827"/>
	</g>
</g>
<g opacity="0.2">
	<rect x="2804.403" y="210.324" fill="#D6ECEB" width="181.131" height="216.066"/>
	<g>
		<polyline fill="none" stroke="#4B453C" stroke-miterlimit="10" points="2985.536,420.391 2985.536,426.391 2979.536,426.391 		"/>
		
			<line fill="none" stroke="#4B453C" stroke-miterlimit="10" stroke-dasharray="11.2756,11.2756" x1="2968.259" y1="426.391" x2="2816.04" y2="426.391"/>
		<polyline fill="none" stroke="#4B453C" stroke-miterlimit="10" points="2810.403,426.391 2804.403,426.391 2804.403,420.391 		"/>
		
			<line fill="none" stroke="#4B453C" stroke-miterlimit="10" stroke-dasharray="12.0039,12.0039" x1="2804.403" y1="408.387" x2="2804.403" y2="222.326"/>
		<polyline fill="none" stroke="#4B453C" stroke-miterlimit="10" points="2804.403,216.324 2804.403,210.324 2810.403,210.324 		"/>
		
			<line fill="none" stroke="#4B453C" stroke-miterlimit="10" stroke-dasharray="11.2756,11.2756" x1="2821.679" y1="210.324" x2="2973.897" y2="210.324"/>
		<polyline fill="none" stroke="#4B453C" stroke-miterlimit="10" points="2979.536,210.324 2985.536,210.324 2985.536,216.324 		"/>
		
			<line fill="none" stroke="#4B453C" stroke-miterlimit="10" stroke-dasharray="12.0039,12.0039" x1="2985.536" y1="228.328" x2="2985.536" y2="414.389"/>
	</g>
</g>
<g opacity="0.2">
	<rect x="3212.382" y="280.511" fill="#4F766F" width="181.133" height="216.066"/>
	<g>
		<polyline fill="none" stroke="#4B453C" stroke-miterlimit="10" points="3393.515,490.578 3393.515,496.578 3387.515,496.578 		"/>
		
			<line fill="none" stroke="#4B453C" stroke-miterlimit="10" stroke-dasharray="11.2755,11.2755" x1="3376.241" y1="496.578" x2="3224.021" y2="496.578"/>
		<polyline fill="none" stroke="#4B453C" stroke-miterlimit="10" points="3218.382,496.578 3212.382,496.578 3212.382,490.578 		"/>
		
			<line fill="none" stroke="#4B453C" stroke-miterlimit="10" stroke-dasharray="12.0039,12.0039" x1="3212.382" y1="478.574" x2="3212.382" y2="292.513"/>
		<polyline fill="none" stroke="#4B453C" stroke-miterlimit="10" points="3212.382,286.511 3212.382,280.511 3218.382,280.511 		"/>
		
			<line fill="none" stroke="#4B453C" stroke-miterlimit="10" stroke-dasharray="11.2755,11.2755" x1="3229.659" y1="280.511" x2="3381.878" y2="280.511"/>
		<polyline fill="none" stroke="#4B453C" stroke-miterlimit="10" points="3387.515,280.511 3393.515,280.511 3393.515,286.511 		"/>
		
			<line fill="none" stroke="#4B453C" stroke-miterlimit="10" stroke-dasharray="12.0039,12.0039" x1="3393.515" y1="298.515" x2="3393.515" y2="484.576"/>
	</g>
</g>
<g opacity="0.7">
	<g>
		<polygon fill="#FFFFFF" stroke="#4B453C" stroke-miterlimit="10" points="2528.2,456.261 2528.2,567.555 2444.728,567.555 
			2444.728,478.518 2466.987,456.261 		"/>
		<polyline fill="#FFFFFF" stroke="#4B453C" stroke-miterlimit="10" points="2466.987,456.261 2466.987,478.518 2444.728,478.518 		
			"/>
	</g>
	<line fill="none" stroke="#4B453C" stroke-miterlimit="10" x1="2455.856" y1="550.905" x2="2514.96" y2="550.905"/>
	<line fill="none" stroke="#4B453C" stroke-miterlimit="10" x1="2455.856" y1="540.56" x2="2514.96" y2="540.56"/>
	<line fill="none" stroke="#4B453C" stroke-miterlimit="10" x1="2455.856" y1="530.216" x2="2514.96" y2="530.216"/>
	<line fill="none" stroke="#4B453C" stroke-miterlimit="10" x1="2455.856" y1="519.872" x2="2514.96" y2="519.872"/>
	<line fill="none" stroke="#4B453C" stroke-miterlimit="10" x1="2455.856" y1="509.528" x2="2514.96" y2="509.528"/>
	<line fill="none" stroke="#4B453C" stroke-miterlimit="10" x1="2455.856" y1="499.694" x2="2514.96" y2="499.694"/>
	<line fill="none" stroke="#4B453C" stroke-miterlimit="10" x1="2455.856" y1="489.35" x2="2514.96" y2="489.35"/>
	<line fill="none" stroke="#4B453C" stroke-miterlimit="10" x1="2464.901" y1="479.005" x2="2514.96" y2="479.005"/>
	<line fill="none" stroke="#4B453C" stroke-miterlimit="10" x1="2466.987" y1="468.662" x2="2514.96" y2="468.662"/>
</g>
<rect x="2067.207" y="-0.005" fill="none" stroke="#F6F6F3" stroke-width="3" stroke-miterlimit="10" width="1920.001" height="1080"/>
<g opacity="0.7">
	<g>
		
			<line fill="none" stroke="#4B453C" stroke-width="2" stroke-miterlimit="10" x1="2511.933" y1="489.349" x2="3135.243" y2="577.051"/>
		<g>
			<polygon fill="#4B453C" points="3128.649,583.602 3132.796,576.707 3130.712,568.934 3147.065,578.714 			"/>
		</g>
	</g>
</g>
<g>
	<g>
		<polygon fill="#FFFFFF" stroke="#4B453C" stroke-miterlimit="10" points="2936.706,241.823 2936.706,353.117 2853.233,353.117 
			2853.233,264.08 2875.493,241.823 		"/>
		<polyline fill="#FFFFFF" stroke="#4B453C" stroke-miterlimit="10" points="2875.493,241.823 2875.493,264.08 2853.233,264.08 		
			"/>
	</g>
	<line fill="none" stroke="#4B453C" stroke-miterlimit="10" x1="2864.362" y1="336.467" x2="2923.464" y2="336.467"/>
	<line fill="none" stroke="#4B453C" stroke-miterlimit="10" x1="2864.362" y1="326.122" x2="2923.464" y2="326.122"/>
	<line fill="none" stroke="#4B453C" stroke-miterlimit="10" x1="2864.362" y1="315.778" x2="2923.464" y2="315.778"/>
	<line fill="none" stroke="#4B453C" stroke-miterlimit="10" x1="2864.362" y1="305.434" x2="2923.464" y2="305.434"/>
	<line fill="none" stroke="#4B453C" stroke-miterlimit="10" x1="2864.362" y1="295.09" x2="2923.464" y2="295.09"/>
	<line fill="none" stroke="#4B453C" stroke-miterlimit="10" x1="2864.362" y1="285.256" x2="2923.464" y2="285.256"/>
	<line fill="none" stroke="#4B453C" stroke-miterlimit="10" x1="2864.362" y1="274.912" x2="2923.464" y2="274.912"/>
	<line fill="none" stroke="#4B453C" stroke-miterlimit="10" x1="2873.407" y1="264.567" x2="2923.464" y2="264.567"/>
	<line fill="none" stroke="#4B453C" stroke-miterlimit="10" x1="2875.493" y1="254.224" x2="2923.464" y2="254.224"/>
</g>
<g opacity="0.7">
	<g>
		<polygon fill="#FFFFFF" stroke="#4B453C" stroke-miterlimit="10" points="3344.685,312.011 3344.685,423.305 3261.212,423.305 
			3261.212,334.268 3283.472,312.011 		"/>
		<polyline fill="#FFFFFF" stroke="#4B453C" stroke-miterlimit="10" points="3283.472,312.011 3283.472,334.268 3261.212,334.268 		
			"/>
	</g>
	<line fill="none" stroke="#4B453C" stroke-miterlimit="10" x1="3272.341" y1="406.654" x2="3331.446" y2="406.654"/>
	<line fill="none" stroke="#4B453C" stroke-miterlimit="10" x1="3272.341" y1="396.31" x2="3331.446" y2="396.31"/>
	<line fill="none" stroke="#4B453C" stroke-miterlimit="10" x1="3272.341" y1="385.966" x2="3331.446" y2="385.966"/>
	<line fill="none" stroke="#4B453C" stroke-miterlimit="10" x1="3272.341" y1="375.621" x2="3331.446" y2="375.621"/>
	<line fill="none" stroke="#4B453C" stroke-miterlimit="10" x1="3272.341" y1="365.277" x2="3331.446" y2="365.277"/>
	<line fill="none" stroke="#4B453C" stroke-miterlimit="10" x1="3272.341" y1="355.443" x2="3331.446" y2="355.443"/>
	<line fill="none" stroke="#4B453C" stroke-miterlimit="10" x1="3272.341" y1="345.1" x2="3331.446" y2="345.1"/>
	<line fill="none" stroke="#4B453C" stroke-miterlimit="10" x1="3281.386" y1="334.755" x2="3331.446" y2="334.755"/>
	<line fill="none" stroke="#4B453C" stroke-miterlimit="10" x1="3283.472" y1="324.411" x2="3331.446" y2="324.411"/>
</g>
<g opacity="0.7">
	<g>
		<polygon fill="#FFFFFF" stroke="#4B453C" stroke-miterlimit="10" points="3059.698,763.179 3059.698,874.473 2976.224,874.473 
			2976.224,785.436 2998.483,763.179 		"/>
		<polyline fill="#FFFFFF" stroke="#4B453C" stroke-miterlimit="10" points="2998.483,763.179 2998.483,785.436 2976.224,785.436 		
			"/>
	</g>
	<line fill="none" stroke="#4B453C" stroke-miterlimit="10" x1="2987.353" y1="857.823" x2="3046.458" y2="857.823"/>
	<line fill="none" stroke="#4B453C" stroke-miterlimit="10" x1="2987.353" y1="847.479" x2="3046.458" y2="847.479"/>
	<line fill="none" stroke="#4B453C" stroke-miterlimit="10" x1="2987.353" y1="837.134" x2="3046.458" y2="837.134"/>
	<line fill="none" stroke="#4B453C" stroke-miterlimit="10" x1="2987.353" y1="826.79" x2="3046.458" y2="826.79"/>
	<line fill="none" stroke="#4B453C" stroke-miterlimit="10" x1="2987.353" y1="816.446" x2="3046.458" y2="816.446"/>
	<line fill="none" stroke="#4B453C" stroke-miterlimit="10" x1="2987.353" y1="806.612" x2="3046.458" y2="806.612"/>
	<line fill="none" stroke="#4B453C" stroke-miterlimit="10" x1="2987.353" y1="796.268" x2="3046.458" y2="796.268"/>
	<line fill="none" stroke="#4B453C" stroke-miterlimit="10" x1="2996.397" y1="785.923" x2="3046.458" y2="785.923"/>
	<line fill="none" stroke="#4B453C" stroke-miterlimit="10" x1="2998.483" y1="775.58" x2="3046.458" y2="775.58"/>
</g>
<g opacity="0.7">
	<g>
		<polygon fill="#FFFFFF" stroke="#4B453C" stroke-miterlimit="10" points="3588.593,616.441 3588.593,727.735 3505.122,727.735 
			3505.122,638.698 3527.38,616.441 		"/>
		<polyline fill="#FFFFFF" stroke="#4B453C" stroke-miterlimit="10" points="3527.38,616.441 3527.38,638.698 3505.122,638.698 		
			"/>
	</g>
	<line fill="none" stroke="#4B453C" stroke-miterlimit="10" x1="3516.249" y1="711.084" x2="3575.353" y2="711.084"/>
	<line fill="none" stroke="#4B453C" stroke-miterlimit="10" x1="3516.249" y1="700.74" x2="3575.353" y2="700.74"/>
	<line fill="none" stroke="#4B453C" stroke-miterlimit="10" x1="3516.249" y1="690.396" x2="3575.353" y2="690.396"/>
	<line fill="none" stroke="#4B453C" stroke-miterlimit="10" x1="3516.249" y1="680.051" x2="3575.353" y2="680.051"/>
	<line fill="none" stroke="#4B453C" stroke-miterlimit="10" x1="3516.249" y1="669.708" x2="3575.353" y2="669.708"/>
	<line fill="none" stroke="#4B453C" stroke-miterlimit="10" x1="3516.249" y1="659.874" x2="3575.353" y2="659.874"/>
	<line fill="none" stroke="#4B453C" stroke-miterlimit="10" x1="3516.249" y1="649.53" x2="3575.353" y2="649.53"/>
	<line fill="none" stroke="#4B453C" stroke-miterlimit="10" x1="3525.294" y1="639.185" x2="3575.353" y2="639.185"/>
	<line fill="none" stroke="#4B453C" stroke-miterlimit="10" x1="3527.38" y1="628.841" x2="3575.353" y2="628.841"/>
</g>
<rect x="2489.931" y="487.269" opacity="0.7" fill="none" stroke="#BE1622" stroke-width="2" stroke-miterlimit="10" width="22" height="4.162"/>
<g opacity="0.7">
	<g>
		
			<line fill="none" stroke="#4B453C" stroke-width="2" stroke-miterlimit="10" x1="2483.39" y1="519.873" x2="2860.12" y2="315.236"/>
		<g>
			<polygon fill="#4B453C" points="2858.718,324.426 2857.948,316.416 2851.647,311.41 2870.61,309.538 			"/>
		</g>
	</g>
</g>
<rect x="2461.388" y="517.791" opacity="0.7" fill="none" stroke="#BE1622" stroke-width="2" stroke-miterlimit="10" width="22.002" height="4.162"/>
<g opacity="0.7">
	<g>
		<g>
			<g>
				
					<line fill="none" stroke="#4B453C" stroke-width="2" stroke-miterlimit="10" x1="3005.11" y1="794.072" x2="3148.282" y2="643.036"/>
				<g>
					<polygon fill="#4B453C" points="3149.792,652.208 3146.583,644.829 3139.042,642.018 3156.495,634.371 					"/>
				</g>
			</g>
		</g>
	</g>
</g>
<rect x="2990.323" y="794.072" fill="none" stroke="#BE1622" stroke-width="2" stroke-miterlimit="10" width="22" height="4.162"/>
<g opacity="0.7">
	<g>
		
			<line fill="none" stroke="#4B453C" stroke-width="2" stroke-miterlimit="10" x1="3204.292" y1="600.006" x2="3504.587" y2="665.889"/>
		<g>
			<polygon fill="#4B453C" points="3497.513,671.919 3502.175,665.36 3500.688,657.452 3516.249,668.448 			"/>
		</g>
	</g>
</g>
<rect x="3182.29" y="597.926" opacity="0.7" fill="none" stroke="#BE1622" stroke-width="2" stroke-miterlimit="10" width="22.002" height="4.162"/>
<g opacity="0.7">
	<g>
		
			<line fill="none" stroke="#4B453C" stroke-width="2" stroke-miterlimit="10" x1="3317.062" y1="377.373" x2="3178.312" y2="564.09"/>
		<g>
			<polygon fill="#4B453C" points="3175.718,555.165 3179.786,562.107 3187.606,563.999 3171.19,573.673 			"/>
		</g>
	</g>
</g>
<rect x="3305.495" y="373.21" fill="none" stroke="#BE1622" stroke-width="2" stroke-miterlimit="10" width="22.002" height="4.162"/>
<g opacity="0.7">
	<g>
		
			<line fill="none" stroke="#4B453C" stroke-width="2" stroke-miterlimit="10" x1="3539.585" y1="709.029" x2="2927.306" y2="336.995"/>
		<g>
			<polygon fill="#4B453C" points="2935.952,333.583 2929.417,338.278 2928.259,346.242 2917.103,330.795 			"/>
		</g>
	</g>
</g>
<rect x="3534.151" y="709.029" opacity="0.7" fill="none" stroke="#BE1622" stroke-width="2" stroke-miterlimit="10" width="22.002" height="4.162"/>
<rect x="2865.325" y="303.353" opacity="0.7" fill="none" stroke="#BE1622" stroke-width="2" stroke-miterlimit="10" width="22.002" height="4.162"/>
<rect x="2898.931" y="324.041" fill="none" stroke="#BE1622" stroke-width="2" stroke-miterlimit="10" width="22" height="4.162"/>
<rect x="3150.179" y="577.745" opacity="0.7" fill="none" stroke="#BE1622" stroke-width="2" stroke-miterlimit="10" width="22.002" height="4.162"/>
<rect x="3160.19" y="618.611" opacity="0.7" fill="none" stroke="#BE1622" stroke-width="2" stroke-miterlimit="10" width="22.002" height="4.162"/>
<rect x="3519.399" y="667.626" opacity="0.7" fill="none" stroke="#BE1622" stroke-width="2" stroke-miterlimit="10" width="22.002" height="4.162"/>
<g>
	<path d="M2573.013,817.386v-17.85h1v17.85H2573.013z"/>
	<path d="M2583.163,817.386v-6.175c0-2.184-0.983-3.275-2.95-3.275c-0.967,0-1.699,0.284-2.199,0.851
		c-0.518,0.566-0.775,1.342-0.775,2.324v6.275h-1.025v-10.325h1.025v1.25c0.467-0.916,1.458-1.375,2.975-1.375
		c1.283,0,2.267,0.367,2.95,1.101c0.683,0.733,1.024,1.758,1.024,3.074v6.275H2583.163z"/>
	<path d="M2596.438,817.386v-1.85c-1.1,1.35-2.5,2.024-4.199,2.024c-1.5,0-2.759-0.508-3.775-1.524
		c-1.033-1.033-1.55-2.301-1.55-3.801s0.508-2.758,1.524-3.774c1.033-1.033,2.301-1.55,3.801-1.55c1.649,0,3.05,0.675,4.199,2.024
		v-10.05h1.025v18.5H2596.438z M2595.288,809.186c-0.851-0.85-1.867-1.274-3.05-1.274c-1.2,0-2.217,0.416-3.051,1.25
		c-0.85,0.85-1.274,1.875-1.274,3.074c0,1.184,0.425,2.2,1.274,3.051c0.851,0.85,1.867,1.274,3.051,1.274
		c1.199,0,2.216-0.416,3.05-1.25c0.85-0.85,1.274-1.875,1.274-3.075C2596.563,811.053,2596.138,810.036,2595.288,809.186z"/>
	<path d="M2608.863,816.011c-1.034,1.033-2.301,1.55-3.801,1.55s-2.758-0.508-3.775-1.524c-1.033-1.033-1.549-2.301-1.549-3.801
		c0-1.482,0.516-2.741,1.549-3.774c1.018-1.05,2.275-1.575,3.775-1.575c1.483,0,2.742,0.517,3.775,1.55
		c1.033,1.034,1.55,2.3,1.55,3.8S2609.879,814.994,2608.863,816.011z M2608.138,809.161c-0.833-0.851-1.858-1.275-3.075-1.275
		c-1.166,0-2.175,0.434-3.025,1.3c-0.866,0.867-1.299,1.884-1.299,3.05c0,1.184,0.424,2.2,1.274,3.051
		c0.851,0.85,1.866,1.274,3.05,1.274c1.2,0,2.217-0.416,3.051-1.25c0.85-0.85,1.274-1.875,1.274-3.075
		C2609.388,811.02,2608.971,809.994,2608.138,809.161z"/>
	<path d="M2622.387,816.011c-1.033,1.033-2.299,1.55-3.799,1.55s-2.76-0.508-3.775-1.524c-1.033-1.033-1.551-2.301-1.551-3.801
		c0-1.482,0.518-2.741,1.551-3.774c1.016-1.05,2.275-1.575,3.775-1.575c1.482,0,2.74,0.517,3.774,1.55
		c1.033,1.034,1.55,2.3,1.55,3.8S2623.404,814.994,2622.387,816.011z M2621.662,809.161c-0.834-0.851-1.858-1.275-3.074-1.275
		c-1.168,0-2.176,0.434-3.025,1.3c-0.867,0.867-1.301,1.884-1.301,3.05c0,1.184,0.426,2.2,1.275,3.051
		c0.85,0.85,1.867,1.274,3.051,1.274c1.199,0,2.216-0.416,3.049-1.25c0.851-0.85,1.275-1.875,1.275-3.075
		C2622.912,811.02,2622.496,809.994,2621.662,809.161z"/>
	<path d="M2631.361,808.586c-0.266-0.2-0.549-0.358-0.85-0.476c-0.3-0.116-0.617-0.175-0.949-0.175
		c-0.284,0-0.551,0.088-0.801,0.263s-0.467,0.392-0.65,0.65c-0.184,0.258-0.328,0.546-0.438,0.862
		c-0.107,0.316-0.162,0.608-0.162,0.875v6.8h-1.025v-10.325h1.025v1.4c0.217-0.384,0.5-0.733,0.85-1.05
		c0.351-0.316,0.734-0.476,1.15-0.476c0.517,0,0.941,0.059,1.275,0.175c0.333,0.117,0.708,0.325,1.125,0.625L2631.361,808.586z"/>
	<path d="M2645.486,817.586c-1.533,0-2.809-0.509-3.824-1.525c-1.018-1.017-1.525-2.291-1.525-3.825
		c0-1.533,0.508-2.808,1.525-3.824c1.016-1.017,2.291-1.525,3.824-1.525c1.316,0,2.367,0.3,3.15,0.9v1.225l-0.65-0.425l-0.699-0.375
		c-0.635-0.217-1.234-0.325-1.801-0.325c-1.283,0-2.324,0.4-3.125,1.2c-0.816,0.816-1.225,1.866-1.225,3.149
		c0,1.268,0.408,2.309,1.225,3.125c0.816,0.817,1.858,1.226,3.125,1.226c1.2,0,2.25-0.4,3.15-1.2v1.275
		C2647.703,817.277,2646.652,817.586,2645.486,817.586z"/>
	<path d="M2651.137,817.386v-18.5h1v18.5H2651.137z"/>
	<path d="M2655.086,805.211c-0.184,0-0.375-0.075-0.574-0.226c-0.15-0.149-0.234-0.35-0.25-0.6c0-0.45,0.274-0.725,0.824-0.825
		c0.417,0,0.691,0.275,0.825,0.825C2655.911,804.936,2655.637,805.211,2655.086,805.211z M2654.562,817.386v-10.325h1.024v10.325
		H2654.562z"/>
	<path d="M2669.536,817.386v-7.125c0-0.633-0.208-1.184-0.625-1.65c-0.417-0.466-1.017-0.699-1.8-0.699
		c-1.617,0-2.426,0.783-2.426,2.35v7.125h-1.024v-7.125c0-0.7-0.233-1.258-0.7-1.675c-0.483-0.45-1.059-0.675-1.725-0.675
		c-0.684,0-1.259,0.217-1.725,0.649c-0.467,0.417-0.701,0.983-0.701,1.7v7.125h-1.024v-10.325h1.024v1.025
		c0.5-0.783,1.309-1.175,2.426-1.175c1.333,0,2.316,0.541,2.949,1.625c0.601-1.084,1.576-1.625,2.926-1.625
		c1.033,0,1.866,0.291,2.5,0.875c0.633,0.6,0.949,1.425,0.949,2.475v7.125H2669.536z"/>
	<path d="M2682.536,817.386v-1.775c-1.084,1.301-2.459,1.95-4.125,1.95c-1.5,0-2.759-0.508-3.775-1.524
		c-1.033-1.033-1.55-2.301-1.55-3.801s0.508-2.758,1.525-3.774c1.033-1.033,2.3-1.55,3.8-1.55c1.649,0,3.024,0.649,4.125,1.949v-1.8
		h1.024v10.325H2682.536z M2681.461,809.186c-0.85-0.85-1.867-1.274-3.05-1.274c-1.2,0-2.217,0.416-3.05,1.25
		c-0.851,0.85-1.275,1.875-1.275,3.074c0,1.184,0.425,2.2,1.275,3.051c0.85,0.85,1.866,1.274,3.05,1.274
		c1.2,0,2.216-0.416,3.05-1.25c0.85-0.85,1.275-1.875,1.275-3.075C2682.736,811.053,2682.311,810.036,2681.461,809.186z"/>
	<path d="M2688.161,808.086v9.3h-1.025v-9.3h-1.399v-1.025h1.399v-4.524h1.025v4.524h2.399v1.025H2688.161z"/>
	<path d="M2693.061,812.011c0,1.4,0.375,2.509,1.125,3.325c0.783,0.833,1.858,1.25,3.226,1.25c0.7,0,1.333-0.116,1.899-0.351
		c0.717-0.3,1.358-0.908,1.926-1.824l0.925,0.425c-0.65,1.233-1.65,2.066-3,2.5c-0.517,0.166-1.101,0.25-1.75,0.25
		c-1.55,0-2.825-0.509-3.825-1.525c-1.017-1.017-1.525-2.291-1.525-3.825c0-1.55,0.5-2.824,1.5-3.824
		c1.017-1.017,2.301-1.525,3.851-1.525c1.533,0,2.8,0.475,3.8,1.425c1.017,0.95,1.525,2.184,1.525,3.7H2693.061z M2700.111,808.735
		c-0.784-0.566-1.684-0.85-2.7-0.85c-2.134,0-3.534,1.05-4.2,3.15h8.375C2701.419,810.086,2700.928,809.319,2700.111,808.735z"/>
	<path d="M2716.561,816.735c-0.667,0.567-1.467,0.851-2.4,0.851c-1.6,0-2.8-0.726-3.6-2.175l0.875-0.525
		c0.283,0.517,0.625,0.917,1.025,1.2c0.416,0.316,0.982,0.475,1.699,0.475c1.566,0,2.35-0.666,2.35-2
		c0-0.583-0.274-1.091-0.824-1.524c-0.167-0.101-0.404-0.213-0.713-0.338s-0.688-0.271-1.137-0.438c-0.834-0.3-1.434-0.6-1.801-0.9
		c-0.533-0.433-0.8-1.058-0.8-1.875c0-0.699,0.267-1.3,0.8-1.8c0.517-0.517,1.191-0.774,2.025-0.774c1.15,0,2.125,0.399,2.925,1.199
		l-0.75,0.65c-0.567-0.566-1.292-0.85-2.175-0.85c-1.2,0-1.801,0.524-1.801,1.574c0,0.467,0.184,0.851,0.551,1.15
		c0.3,0.233,0.775,0.459,1.425,0.675c0.566,0.2,1.033,0.388,1.399,0.563c0.367,0.175,0.643,0.329,0.826,0.463
		c0.716,0.55,1.074,1.292,1.074,2.225C2717.535,815.461,2717.211,816.186,2716.561,816.735z"/>
	<path d="M2720.461,805.211c-0.184,0-0.375-0.075-0.576-0.226c-0.149-0.149-0.232-0.35-0.25-0.6c0-0.45,0.275-0.725,0.826-0.825
		c0.416,0,0.691,0.275,0.824,0.825C2721.285,804.936,2721.01,805.211,2720.461,805.211z M2719.936,817.386v-10.325h1.025v10.325
		H2719.936z"/>
	<path d="M2734.91,817.386v-7.125c0-0.633-0.209-1.184-0.625-1.65c-0.416-0.466-1.017-0.699-1.8-0.699
		c-1.616,0-2.425,0.783-2.425,2.35v7.125h-1.025v-7.125c0-0.7-0.233-1.258-0.699-1.675c-0.484-0.45-1.059-0.675-1.726-0.675
		c-0.684,0-1.259,0.217-1.726,0.649c-0.467,0.417-0.699,0.983-0.699,1.7v7.125h-1.025v-10.325h1.025v1.025
		c0.5-0.783,1.309-1.175,2.425-1.175c1.333,0,2.316,0.541,2.95,1.625c0.6-1.084,1.574-1.625,2.925-1.625
		c1.033,0,1.866,0.291,2.5,0.875c0.634,0.6,0.95,1.425,0.95,2.475v7.125H2734.91z"/>
	<path d="M2745.811,816.485c-0.684,0.734-1.643,1.101-2.875,1.101c-1.217,0-2.159-0.358-2.826-1.075c-0.666-0.717-1-1.717-1-3v-6.45
		h1.025v6.45c0,0.983,0.217,1.742,0.65,2.275c0.449,0.533,1.166,0.8,2.15,0.8c1.916,0,2.875-1.025,2.875-3.075v-6.45h1v6.45
		C2746.811,814.777,2746.477,815.77,2745.811,816.485z"/>
	<path d="M2748.984,817.386v-18.5h1v18.5H2748.984z"/>
	<path d="M2762.185,817.386v-1.775c-1.084,1.301-2.459,1.95-4.125,1.95c-1.5,0-2.759-0.508-3.775-1.524
		c-1.033-1.033-1.55-2.301-1.55-3.801s0.508-2.758,1.525-3.774c1.033-1.033,2.3-1.55,3.8-1.55c1.649,0,3.024,0.649,4.125,1.949v-1.8
		h1.024v10.325H2762.185z M2761.109,809.186c-0.85-0.85-1.867-1.274-3.05-1.274c-1.2,0-2.217,0.416-3.05,1.25
		c-0.851,0.85-1.275,1.875-1.275,3.074c0,1.184,0.425,2.2,1.275,3.051c0.85,0.85,1.866,1.274,3.05,1.274
		c1.2,0,2.216-0.416,3.05-1.25c0.85-0.85,1.275-1.875,1.275-3.075C2762.385,811.053,2761.959,810.036,2761.109,809.186z"/>
	<path d="M2767.81,808.086v9.3h-1.025v-9.3h-1.399v-1.025h1.399v-4.524h1.025v4.524h2.399v1.025H2767.81z"/>
	<path d="M2773.209,805.211c-0.184,0-0.375-0.075-0.574-0.226c-0.15-0.149-0.234-0.35-0.25-0.6c0-0.45,0.274-0.725,0.824-0.825
		c0.417,0,0.691,0.275,0.825,0.825C2774.034,804.936,2773.76,805.211,2773.209,805.211z M2772.685,817.386v-10.325h1.024v10.325
		H2772.685z"/>
	<path d="M2785.459,816.011c-1.033,1.033-2.3,1.55-3.8,1.55s-2.759-0.508-3.775-1.524c-1.033-1.033-1.55-2.301-1.55-3.801
		c0-1.482,0.517-2.741,1.55-3.774c1.017-1.05,2.275-1.575,3.775-1.575c1.483,0,2.741,0.517,3.774,1.55
		c1.033,1.034,1.551,2.3,1.551,3.8S2786.476,814.994,2785.459,816.011z M2784.734,809.161c-0.834-0.851-1.859-1.275-3.075-1.275
		c-1.167,0-2.175,0.434-3.025,1.3c-0.866,0.867-1.3,1.884-1.3,3.05c0,1.184,0.425,2.2,1.275,3.051c0.85,0.85,1.866,1.274,3.05,1.274
		c1.2,0,2.216-0.416,3.05-1.25c0.85-0.85,1.275-1.875,1.275-3.075C2785.984,811.02,2785.567,809.994,2784.734,809.161z"/>
	<path d="M2796.509,817.386v-6.175c0-2.184-0.983-3.275-2.95-3.275c-0.967,0-1.699,0.284-2.199,0.851
		c-0.518,0.566-0.775,1.342-0.775,2.324v6.275h-1.025v-10.325h1.025v1.25c0.467-0.916,1.458-1.375,2.975-1.375
		c1.283,0,2.267,0.367,2.95,1.101c0.683,0.733,1.024,1.758,1.024,3.074v6.275H2796.509z"/>
	<path d="M2815.982,816.011c-1.033,1.033-2.299,1.55-3.799,1.55c-1.717,0-3.125-0.691-4.226-2.075v1.9h-1.024v-18.5h1.024v10.1
		c1.083-1.383,2.491-2.074,4.226-2.074c1.5,0,2.758,0.508,3.774,1.524c1.033,1.034,1.55,2.3,1.55,3.8S2817,814.994,2815.982,816.011
		z M2815.232,809.186c-0.85-0.85-1.866-1.274-3.049-1.274c-1.201,0-2.217,0.416-3.051,1.25c-0.85,0.85-1.275,1.875-1.275,3.074
		c0,1.184,0.426,2.2,1.275,3.051c0.85,0.85,1.867,1.274,3.051,1.274c1.199,0,2.216-0.416,3.049-1.25
		c0.851-0.85,1.275-1.875,1.275-3.075C2816.508,811.053,2816.083,810.036,2815.232,809.186z"/>
	<path d="M2828.482,816.011c-1.033,1.033-2.299,1.55-3.799,1.55s-2.76-0.508-3.775-1.524c-1.033-1.033-1.551-2.301-1.551-3.801
		c0-1.482,0.518-2.741,1.551-3.774c1.016-1.05,2.275-1.575,3.775-1.575c1.482,0,2.74,0.517,3.774,1.55
		c1.033,1.034,1.55,2.3,1.55,3.8S2829.5,814.994,2828.482,816.011z M2827.758,809.161c-0.834-0.851-1.858-1.275-3.074-1.275
		c-1.168,0-2.176,0.434-3.025,1.3c-0.867,0.867-1.301,1.884-1.301,3.05c0,1.184,0.426,2.2,1.275,3.051
		c0.85,0.85,1.867,1.274,3.051,1.274c1.199,0,2.216-0.416,3.049-1.25c0.851-0.85,1.275-1.875,1.275-3.075
		C2829.008,811.02,2828.592,809.994,2827.758,809.161z"/>
	<path d="M2834.133,808.086v9.3h-1.025v-9.3h-1.4v-1.025h1.4v-4.524h1.025v4.524h2.4v1.025H2834.133z"/>
</g>
<g>
	<g id="color_1_">
		<path fill="#D22F27" d="M2699.017,685.175v-6.428c0-3.533,2.865-6.398,6.398-6.398l0,0c3.533,0,6.398,2.865,6.398,6.398v6.4"/>
		<path fill="#D0CFCE" d="M2646.542,749.14L2646.542,749.14c-3.533,0-6.398-2.865-6.398-6.399v-20.478
			c0-3.534,2.865-6.399,6.398-6.399l0,0c3.535,0,6.398,2.865,6.398,6.399v20.478C2652.94,746.274,2650.077,749.14,2646.542,749.14z"
			/>
		<path fill="#D0CFCE" d="M2761.729,749.14L2761.729,749.14c3.533,0,6.398-2.865,6.398-6.399v-20.478
			c0-3.534-2.865-6.399-6.398-6.399l0,0c-3.535,0-6.4,2.865-6.4,6.399v20.478C2755.329,746.274,2758.194,749.14,2761.729,749.14z"/>
		<path fill="#D0CFCE" d="M2733.446,787.563h-58.621c-12.037,0-21.885-9.849-21.885-21.886V707.06
			c0-12.036,9.848-21.885,21.885-21.885h58.621c12.035,0,21.883,9.849,21.883,21.885v58.618
			C2755.329,777.715,2745.481,787.563,2733.446,787.563z"/>
		<path fill="#9B9B9A" d="M2702.851,787.562h34.008c10.16,0,18.471-9.849,18.471-21.886v-58.618
			c0-12.037-8.311-21.885-18.471-21.885h-6.021"/>
		<ellipse fill="#FFFFFF" cx="2726.749" cy="718.171" rx="7.253" ry="7.253"/>
		<ellipse fill="#FFFFFF" cx="2681.952" cy="718.169" rx="7.253" ry="7.253"/>
		<path fill="#FFFFFF" d="M2725.894,765.52h-43.516c-5.631,0-10.238-4.608-10.238-10.239l0,0c0-5.631,4.607-10.237,10.238-10.237
			h43.516c5.631,0,10.238,4.606,10.238,10.237l0,0C2736.132,760.911,2731.524,765.52,2725.894,765.52z"/>
	</g>
	<g id="line_1_">
		
			<path fill="none" stroke="#000000" stroke-width="0.6192" stroke-linecap="round" stroke-linejoin="round" stroke-miterlimit="2" d="
			M2705.415,698.849"/>
		
			<path fill="none" stroke="#000000" stroke-width="0.6192" stroke-linecap="round" stroke-linejoin="round" stroke-miterlimit="2" d="
			M2699.017,684.916v-6.428c0-3.534,2.865-6.399,6.398-6.399l0,0c3.533,0,6.398,2.865,6.398,6.399v6.4"/>
		
			<path fill="none" stroke="#000000" stroke-width="0.6192" stroke-linecap="round" stroke-linejoin="round" stroke-miterlimit="2" d="
			M2733.446,787.275h-58.621c-12.037,0-21.885-9.848-21.885-21.884v-58.619c0-12.037,9.848-21.884,21.885-21.884h58.621
			c12.035,0,21.883,9.847,21.883,21.884v58.619C2755.329,777.428,2745.481,787.275,2733.446,787.275z"/>
		
			<ellipse fill="none" stroke="#000000" stroke-width="0.6192" stroke-linecap="round" stroke-linejoin="round" stroke-miterlimit="2" cx="2726.749" cy="718.169" rx="7.253" ry="7.253"/>
		
			<ellipse fill="none" stroke="#000000" stroke-width="0.6192" stroke-linecap="round" stroke-linejoin="round" stroke-miterlimit="2" cx="2681.952" cy="718.168" rx="7.254" ry="7.254"/>
		<path fill="none" stroke="#000000" stroke-width="0.6192" stroke-miterlimit="2" d="M2725.894,765.519h-43.516
			c-5.631,0-10.238-4.608-10.238-10.239l0,0c0-5.631,4.607-10.239,10.238-10.239h43.516c5.631,0,10.238,4.608,10.238,10.239l0,0
			C2736.132,760.91,2731.524,765.519,2725.894,765.519z"/>
		
			<path fill="none" stroke="#000000" stroke-width="0.6192" stroke-linecap="round" stroke-linejoin="round" stroke-miterlimit="2" d="
			M2646.542,748.881L2646.542,748.881c-3.533,0-6.398-2.865-6.398-6.4v-20.478c0-3.533,2.865-6.398,6.398-6.398l0,0
			c3.535,0,6.398,2.865,6.398,6.398v20.478C2652.94,746.016,2650.077,748.881,2646.542,748.881z"/>
		
			<path fill="none" stroke="#000000" stroke-width="0.6192" stroke-linecap="round" stroke-linejoin="round" stroke-miterlimit="2" d="
			M2761.729,748.881L2761.729,748.881c3.533,0,6.398-2.865,6.398-6.4v-20.478c0-3.533-2.865-6.398-6.398-6.398l0,0
			c-3.535,0-6.4,2.865-6.4,6.398v20.478C2755.329,746.016,2758.194,748.881,2761.729,748.881z"/>
		<path fill="none" stroke="#000000" stroke-width="0.3096" stroke-miterlimit="10" d="M2705.415,739.921"/>
		<path fill="none" stroke="#000000" stroke-width="0.3096" stroke-miterlimit="10" d="M2705.415,791.114"/>
		
			<line fill="none" stroke="#000000" stroke-width="0.6192" stroke-linecap="round" stroke-linejoin="round" stroke-miterlimit="2" x1="2683.659" y1="746.32" x2="2683.659" y2="764.238"/>
		
			<line fill="none" stroke="#000000" stroke-width="0.6192" stroke-linecap="round" stroke-linejoin="round" stroke-miterlimit="2" x1="2696.456" y1="746.32" x2="2696.456" y2="764.238"/>
		
			<line fill="none" stroke="#000000" stroke-width="0.6192" stroke-linecap="round" stroke-linejoin="round" stroke-miterlimit="2" x1="2709.255" y1="746.32" x2="2709.255" y2="764.238"/>
		
			<line fill="none" stroke="#000000" stroke-width="0.6192" stroke-linecap="round" stroke-linejoin="round" stroke-miterlimit="2" x1="2722.054" y1="746.32" x2="2722.054" y2="764.238"/>
	</g>
</g>
<g>
	<g>
		<g>
			<g>
				
					<line fill="none" stroke="#4B453C" stroke-width="2" stroke-miterlimit="10" x1="2909.931" y1="330.795" x2="2739.394" y2="667.849"/>
				<g>
					<polygon fill="#4B453C" points="2735.321,659.493 2740.509,665.644 2748.538,666.18 2734.003,678.502 					"/>
				</g>
			</g>
		</g>
	</g>
</g>
<g>
	<g>
		<g>
			<g>
				
					<line fill="none" stroke="#4B453C" stroke-width="2" stroke-miterlimit="10" x1="2985.534" y1="791.114" x2="2783.597" y2="751.441"/>
				<g>
					<polygon fill="#4B453C" points="2790.536,745.257 2786.021,751.918 2787.681,759.791 2771.88,749.14 					"/>
				</g>
			</g>
		</g>
	</g>
</g>
<g>
	<g>
		
			<line fill="none" stroke="#4B453C" stroke-width="2" stroke-miterlimit="10" x1="3305.495" y1="377.372" x2="2773.638" y2="694.624"/>
		<g>
			<polygon fill="#4B453C" points="2774.669,685.386 2775.761,693.358 2782.257,698.106 2763.384,700.74 			"/>
		</g>
	</g>
</g>
</svg>
