<?xml version="1.0" encoding="utf-8"?>
<!-- Generator: Adobe Illustrator 16.0.0, SVG Export Plug-In . SVG Version: 6.00 Build 0)  -->
<!DOCTYPE svg PUBLIC "-//W3C//DTD SVG 1.1//EN" "http://www.w3.org/Graphics/SVG/1.1/DTD/svg11.dtd">
<svg version="1.1" id="Layer_1" xmlns="http://www.w3.org/2000/svg" xmlns:xlink="http://www.w3.org/1999/xlink" x="0px" y="0px"
	 width="1920px" height="1080px" viewBox="0 0 1920 1080" enable-background="new 0 0 1920 1080" xml:space="preserve">
<g opacity="0.2">
	<rect x="885.851" y="509.528" fill="#00495D" width="661" height="390.688"/>
	<g>
		<polyline fill="none" stroke="#4B453C" stroke-miterlimit="10" points="1546.851,894.216 1546.851,900.216 1540.851,900.216 		"/>
		
			<line fill="none" stroke="#4B453C" stroke-miterlimit="10" stroke-dasharray="11.8,11.8" x1="1529.051" y1="900.216" x2="897.751" y2="900.216"/>
		<polyline fill="none" stroke="#4B453C" stroke-miterlimit="10" points="891.851,900.216 885.851,900.216 885.851,894.216 		"/>
		
			<line fill="none" stroke="#4B453C" stroke-miterlimit="10" stroke-dasharray="12.2158,12.2158" x1="885.851" y1="882" x2="885.851" y2="521.635"/>
		<polyline fill="none" stroke="#4B453C" stroke-miterlimit="10" points="885.851,515.528 885.851,509.528 891.851,509.528 		"/>
		
			<line fill="none" stroke="#4B453C" stroke-miterlimit="10" stroke-dasharray="11.8,11.8" x1="903.651" y1="509.528" x2="1534.951" y2="509.528"/>
		<polyline fill="none" stroke="#4B453C" stroke-miterlimit="10" points="1540.851,509.528 1546.851,509.528 1546.851,515.528 		"/>
		
			<line fill="none" stroke="#4B453C" stroke-miterlimit="10" stroke-dasharray="12.2158,12.2158" x1="1546.851" y1="527.744" x2="1546.851" y2="888.109"/>
	</g>
</g>
<g opacity="0.7">
	<g>
		<polygon fill="#FFFFFF" stroke="#4B453C" stroke-miterlimit="10" points="1152.985,536.393 1152.985,647.688 1069.512,647.688 
			1069.512,558.65 1091.772,536.393 		"/>
		<polyline fill="#FFFFFF" stroke="#4B453C" stroke-miterlimit="10" points="1091.772,536.393 1091.772,558.65 1069.512,558.65 		
			"/>
	</g>
	<line fill="none" stroke="#4B453C" stroke-miterlimit="10" x1="1080.641" y1="631.037" x2="1139.745" y2="631.037"/>
	<line fill="none" stroke="#4B453C" stroke-miterlimit="10" x1="1080.641" y1="620.692" x2="1139.745" y2="620.692"/>
	<line fill="none" stroke="#4B453C" stroke-miterlimit="10" x1="1080.641" y1="610.348" x2="1139.745" y2="610.348"/>
	<line fill="none" stroke="#4B453C" stroke-miterlimit="10" x1="1080.641" y1="600.003" x2="1139.745" y2="600.003"/>
	<line fill="none" stroke="#4B453C" stroke-miterlimit="10" x1="1080.641" y1="589.66" x2="1139.745" y2="589.66"/>
	<line fill="none" stroke="#4B453C" stroke-miterlimit="10" x1="1080.641" y1="579.826" x2="1139.745" y2="579.826"/>
	<line fill="none" stroke="#4B453C" stroke-miterlimit="10" x1="1080.641" y1="569.482" x2="1139.745" y2="569.482"/>
	<line fill="none" stroke="#4B453C" stroke-miterlimit="10" x1="1089.687" y1="559.137" x2="1139.745" y2="559.137"/>
	<line fill="none" stroke="#4B453C" stroke-miterlimit="10" x1="1091.772" y1="548.793" x2="1139.745" y2="548.793"/>
</g>
<g opacity="0.2">
	<rect x="328.691" y="424.762" fill="#E3E9BA" width="181.133" height="216.067"/>
	<g>
		<polyline fill="none" stroke="#4B453C" stroke-miterlimit="10" points="509.824,634.829 509.824,640.829 503.824,640.829 		"/>
		
			<line fill="none" stroke="#4B453C" stroke-miterlimit="10" stroke-dasharray="11.2756,11.2756" x1="492.549" y1="640.829" x2="340.329" y2="640.829"/>
		<polyline fill="none" stroke="#4B453C" stroke-miterlimit="10" points="334.691,640.829 328.691,640.829 328.691,634.829 		"/>
		
			<line fill="none" stroke="#4B453C" stroke-miterlimit="10" stroke-dasharray="12.0039,12.0039" x1="328.691" y1="622.825" x2="328.691" y2="436.764"/>
		<polyline fill="none" stroke="#4B453C" stroke-miterlimit="10" points="328.691,430.762 328.691,424.762 334.691,424.762 		"/>
		
			<line fill="none" stroke="#4B453C" stroke-miterlimit="10" stroke-dasharray="11.2756,11.2756" x1="345.966" y1="424.762" x2="498.187" y2="424.762"/>
		<polyline fill="none" stroke="#4B453C" stroke-miterlimit="10" points="503.824,424.762 509.824,424.762 509.824,430.762 		"/>
		
			<line fill="none" stroke="#4B453C" stroke-miterlimit="10" stroke-dasharray="12.0039,12.0039" x1="509.824" y1="442.766" x2="509.824" y2="628.827"/>
	</g>
</g>
<g opacity="0.2">
	<rect x="737.195" y="210.324" fill="#D6ECEB" width="181.133" height="216.066"/>
	<g>
		<polyline fill="none" stroke="#4B453C" stroke-miterlimit="10" points="918.329,420.391 918.329,426.391 912.329,426.391 		"/>
		
			<line fill="none" stroke="#4B453C" stroke-miterlimit="10" stroke-dasharray="11.2756,11.2756" x1="901.053" y1="426.391" x2="748.833" y2="426.391"/>
		<polyline fill="none" stroke="#4B453C" stroke-miterlimit="10" points="743.195,426.391 737.195,426.391 737.195,420.391 		"/>
		
			<line fill="none" stroke="#4B453C" stroke-miterlimit="10" stroke-dasharray="12.0039,12.0039" x1="737.195" y1="408.387" x2="737.195" y2="222.326"/>
		<polyline fill="none" stroke="#4B453C" stroke-miterlimit="10" points="737.195,216.324 737.195,210.324 743.195,210.324 		"/>
		
			<line fill="none" stroke="#4B453C" stroke-miterlimit="10" stroke-dasharray="11.2756,11.2756" x1="754.471" y1="210.324" x2="906.691" y2="210.324"/>
		<polyline fill="none" stroke="#4B453C" stroke-miterlimit="10" points="912.329,210.324 918.329,210.324 918.329,216.324 		"/>
		
			<line fill="none" stroke="#4B453C" stroke-miterlimit="10" stroke-dasharray="12.0039,12.0039" x1="918.329" y1="228.328" x2="918.329" y2="414.389"/>
	</g>
</g>
<g opacity="0.2">
	<rect x="1145.175" y="280.511" fill="#4F766F" width="181.133" height="216.066"/>
	<g>
		<polyline fill="none" stroke="#4B453C" stroke-miterlimit="10" points="1326.308,490.578 1326.308,496.578 1320.308,496.578 		"/>
		
			<line fill="none" stroke="#4B453C" stroke-miterlimit="10" stroke-dasharray="11.2755,11.2755" x1="1309.033" y1="496.578" x2="1156.813" y2="496.578"/>
		<polyline fill="none" stroke="#4B453C" stroke-miterlimit="10" points="1151.175,496.578 1145.175,496.578 1145.175,490.578 		"/>
		
			<line fill="none" stroke="#4B453C" stroke-miterlimit="10" stroke-dasharray="12.0039,12.0039" x1="1145.175" y1="478.574" x2="1145.175" y2="292.513"/>
		<polyline fill="none" stroke="#4B453C" stroke-miterlimit="10" points="1145.175,286.511 1145.175,280.511 1151.175,280.511 		"/>
		
			<line fill="none" stroke="#4B453C" stroke-miterlimit="10" stroke-dasharray="11.2755,11.2755" x1="1162.451" y1="280.511" x2="1314.67" y2="280.511"/>
		<polyline fill="none" stroke="#4B453C" stroke-miterlimit="10" points="1320.308,280.511 1326.308,280.511 1326.308,286.511 		"/>
		
			<line fill="none" stroke="#4B453C" stroke-miterlimit="10" stroke-dasharray="12.0039,12.0039" x1="1326.308" y1="298.515" x2="1326.308" y2="484.576"/>
	</g>
</g>
<g opacity="0.7">
	<g>
		<polygon fill="#FFFFFF" stroke="#4B453C" stroke-miterlimit="10" points="460.994,456.261 460.994,567.555 377.521,567.555 
			377.521,478.518 399.781,456.261 		"/>
		<polyline fill="#FFFFFF" stroke="#4B453C" stroke-miterlimit="10" points="399.781,456.261 399.781,478.518 377.521,478.518 		"/>
	</g>
	<line fill="none" stroke="#4B453C" stroke-miterlimit="10" x1="388.65" y1="550.905" x2="447.754" y2="550.905"/>
	<line fill="none" stroke="#4B453C" stroke-miterlimit="10" x1="388.65" y1="540.56" x2="447.754" y2="540.56"/>
	<line fill="none" stroke="#4B453C" stroke-miterlimit="10" x1="388.65" y1="530.216" x2="447.754" y2="530.216"/>
	<line fill="none" stroke="#4B453C" stroke-miterlimit="10" x1="388.65" y1="519.872" x2="447.754" y2="519.872"/>
	<line fill="none" stroke="#4B453C" stroke-miterlimit="10" x1="388.65" y1="509.528" x2="447.754" y2="509.528"/>
	<line fill="none" stroke="#4B453C" stroke-miterlimit="10" x1="388.65" y1="499.694" x2="447.754" y2="499.694"/>
	<line fill="none" stroke="#4B453C" stroke-miterlimit="10" x1="388.65" y1="489.35" x2="447.754" y2="489.35"/>
	<line fill="none" stroke="#4B453C" stroke-miterlimit="10" x1="397.695" y1="479.005" x2="447.754" y2="479.005"/>
	<line fill="none" stroke="#4B453C" stroke-miterlimit="10" x1="399.781" y1="468.662" x2="447.754" y2="468.662"/>
</g>
<rect y="-0.005" fill="none" stroke="#F6F6F3" stroke-width="3" stroke-miterlimit="10" width="1920" height="1080"/>
<g opacity="0.7">
	<g>
		
			<line fill="none" stroke="#4B453C" stroke-width="2" stroke-miterlimit="10" x1="444.726" y1="489.349" x2="1068.035" y2="577.051"/>
		<g>
			<polygon fill="#4B453C" points="1061.441,583.602 1065.588,576.707 1063.504,568.934 1079.858,578.714 			"/>
		</g>
	</g>
</g>
<g>
	<g>
		<polygon fill="#FFFFFF" stroke="#4B453C" stroke-miterlimit="10" points="869.499,241.823 869.499,353.117 786.026,353.117 
			786.026,264.08 808.286,241.823 		"/>
		<polyline fill="#FFFFFF" stroke="#4B453C" stroke-miterlimit="10" points="808.286,241.823 808.286,264.08 786.026,264.08 		"/>
	</g>
	<line fill="none" stroke="#4B453C" stroke-miterlimit="10" x1="797.155" y1="336.467" x2="856.258" y2="336.467"/>
	<line fill="none" stroke="#4B453C" stroke-miterlimit="10" x1="797.155" y1="326.122" x2="856.258" y2="326.122"/>
	<line fill="none" stroke="#4B453C" stroke-miterlimit="10" x1="797.155" y1="315.778" x2="856.258" y2="315.778"/>
	<line fill="none" stroke="#4B453C" stroke-miterlimit="10" x1="797.155" y1="305.434" x2="856.258" y2="305.434"/>
	<line fill="none" stroke="#4B453C" stroke-miterlimit="10" x1="797.155" y1="295.09" x2="856.258" y2="295.09"/>
	<line fill="none" stroke="#4B453C" stroke-miterlimit="10" x1="797.155" y1="285.256" x2="856.258" y2="285.256"/>
	<line fill="none" stroke="#4B453C" stroke-miterlimit="10" x1="797.155" y1="274.912" x2="856.258" y2="274.912"/>
	<line fill="none" stroke="#4B453C" stroke-miterlimit="10" x1="806.2" y1="264.567" x2="856.258" y2="264.567"/>
	<line fill="none" stroke="#4B453C" stroke-miterlimit="10" x1="808.286" y1="254.224" x2="856.258" y2="254.224"/>
</g>
<g opacity="0.7">
	<g>
		<polygon fill="#FFFFFF" stroke="#4B453C" stroke-miterlimit="10" points="1277.478,312.011 1277.478,423.305 1194.005,423.305 
			1194.005,334.268 1216.265,312.011 		"/>
		<polyline fill="#FFFFFF" stroke="#4B453C" stroke-miterlimit="10" points="1216.265,312.011 1216.265,334.268 1194.005,334.268 		
			"/>
	</g>
	<line fill="none" stroke="#4B453C" stroke-miterlimit="10" x1="1205.134" y1="406.654" x2="1264.238" y2="406.654"/>
	<line fill="none" stroke="#4B453C" stroke-miterlimit="10" x1="1205.134" y1="396.31" x2="1264.238" y2="396.31"/>
	<line fill="none" stroke="#4B453C" stroke-miterlimit="10" x1="1205.134" y1="385.966" x2="1264.238" y2="385.966"/>
	<line fill="none" stroke="#4B453C" stroke-miterlimit="10" x1="1205.134" y1="375.621" x2="1264.238" y2="375.621"/>
	<line fill="none" stroke="#4B453C" stroke-miterlimit="10" x1="1205.134" y1="365.277" x2="1264.238" y2="365.277"/>
	<line fill="none" stroke="#4B453C" stroke-miterlimit="10" x1="1205.134" y1="355.443" x2="1264.238" y2="355.443"/>
	<line fill="none" stroke="#4B453C" stroke-miterlimit="10" x1="1205.134" y1="345.1" x2="1264.238" y2="345.1"/>
	<line fill="none" stroke="#4B453C" stroke-miterlimit="10" x1="1214.179" y1="334.755" x2="1264.238" y2="334.755"/>
	<line fill="none" stroke="#4B453C" stroke-miterlimit="10" x1="1216.265" y1="324.411" x2="1264.238" y2="324.411"/>
</g>
<g opacity="0.7">
	<g>
		<polygon fill="#FFFFFF" stroke="#4B453C" stroke-miterlimit="10" points="992.49,763.179 992.49,874.473 909.017,874.473 
			909.017,785.436 931.277,763.179 		"/>
		<polyline fill="#FFFFFF" stroke="#4B453C" stroke-miterlimit="10" points="931.277,763.179 931.277,785.436 909.017,785.436 		"/>
	</g>
	<line fill="none" stroke="#4B453C" stroke-miterlimit="10" x1="920.146" y1="857.823" x2="979.25" y2="857.823"/>
	<line fill="none" stroke="#4B453C" stroke-miterlimit="10" x1="920.146" y1="847.479" x2="979.25" y2="847.479"/>
	<line fill="none" stroke="#4B453C" stroke-miterlimit="10" x1="920.146" y1="837.134" x2="979.25" y2="837.134"/>
	<line fill="none" stroke="#4B453C" stroke-miterlimit="10" x1="920.146" y1="826.79" x2="979.25" y2="826.79"/>
	<line fill="none" stroke="#4B453C" stroke-miterlimit="10" x1="920.146" y1="816.446" x2="979.25" y2="816.446"/>
	<line fill="none" stroke="#4B453C" stroke-miterlimit="10" x1="920.146" y1="806.612" x2="979.25" y2="806.612"/>
	<line fill="none" stroke="#4B453C" stroke-miterlimit="10" x1="920.146" y1="796.268" x2="979.25" y2="796.268"/>
	<line fill="none" stroke="#4B453C" stroke-miterlimit="10" x1="929.191" y1="785.923" x2="979.25" y2="785.923"/>
	<line fill="none" stroke="#4B453C" stroke-miterlimit="10" x1="931.277" y1="775.58" x2="979.25" y2="775.58"/>
</g>
<g opacity="0.7">
	<g>
		<polygon fill="#FFFFFF" stroke="#4B453C" stroke-miterlimit="10" points="1521.386,616.441 1521.386,727.735 1437.914,727.735 
			1437.914,638.698 1460.173,616.441 		"/>
		<polyline fill="#FFFFFF" stroke="#4B453C" stroke-miterlimit="10" points="1460.173,616.441 1460.173,638.698 1437.914,638.698 		
			"/>
	</g>
	<line fill="none" stroke="#4B453C" stroke-miterlimit="10" x1="1449.042" y1="711.084" x2="1508.146" y2="711.084"/>
	<line fill="none" stroke="#4B453C" stroke-miterlimit="10" x1="1449.042" y1="700.74" x2="1508.146" y2="700.74"/>
	<line fill="none" stroke="#4B453C" stroke-miterlimit="10" x1="1449.042" y1="690.396" x2="1508.146" y2="690.396"/>
	<line fill="none" stroke="#4B453C" stroke-miterlimit="10" x1="1449.042" y1="680.051" x2="1508.146" y2="680.051"/>
	<line fill="none" stroke="#4B453C" stroke-miterlimit="10" x1="1449.042" y1="669.708" x2="1508.146" y2="669.708"/>
	<line fill="none" stroke="#4B453C" stroke-miterlimit="10" x1="1449.042" y1="659.874" x2="1508.146" y2="659.874"/>
	<line fill="none" stroke="#4B453C" stroke-miterlimit="10" x1="1449.042" y1="649.53" x2="1508.146" y2="649.53"/>
	<line fill="none" stroke="#4B453C" stroke-miterlimit="10" x1="1458.087" y1="639.185" x2="1508.146" y2="639.185"/>
	<line fill="none" stroke="#4B453C" stroke-miterlimit="10" x1="1460.173" y1="628.841" x2="1508.146" y2="628.841"/>
</g>
<rect x="422.724" y="487.269" opacity="0.7" fill="none" stroke="#BE1622" stroke-width="2" stroke-miterlimit="10" width="22.001" height="4.162"/>
<g opacity="0.7">
	<g>
		
			<line fill="none" stroke="#4B453C" stroke-width="2" stroke-miterlimit="10" x1="416.184" y1="519.873" x2="792.912" y2="315.236"/>
		<g>
			<polygon fill="#4B453C" points="791.511,324.426 790.741,316.416 784.44,311.41 803.403,309.538 			"/>
		</g>
	</g>
</g>
<rect x="394.182" y="517.791" opacity="0.7" fill="none" stroke="#BE1622" stroke-width="2" stroke-miterlimit="10" width="22.001" height="4.162"/>
<g opacity="0.7">
	<g>
		<g>
			<g>
				
					<line fill="none" stroke="#4B453C" stroke-width="2" stroke-miterlimit="10" x1="937.903" y1="794.072" x2="1081.074" y2="643.036"/>
				<g>
					<polygon fill="#4B453C" points="1082.585,652.208 1079.375,644.829 1071.835,642.018 1089.288,634.371 					"/>
				</g>
			</g>
		</g>
	</g>
</g>
<rect x="923.116" y="794.072" fill="none" stroke="#BE1622" stroke-width="2" stroke-miterlimit="10" width="22.001" height="4.162"/>
<g opacity="0.7">
	<g>
		
			<line fill="none" stroke="#4B453C" stroke-width="2" stroke-miterlimit="10" x1="1137.085" y1="600.006" x2="1437.38" y2="665.889"/>
		<g>
			<polygon fill="#4B453C" points="1430.306,671.919 1434.967,665.36 1433.481,657.452 1449.042,668.448 			"/>
		</g>
	</g>
</g>
<rect x="1115.083" y="597.926" opacity="0.7" fill="none" stroke="#BE1622" stroke-width="2" stroke-miterlimit="10" width="22.002" height="4.162"/>
<g opacity="0.7">
	<g>
		
			<line fill="none" stroke="#4B453C" stroke-width="2" stroke-miterlimit="10" x1="1249.854" y1="377.373" x2="1111.104" y2="564.09"/>
		<g>
			<polygon fill="#4B453C" points="1108.51,555.165 1112.578,562.107 1120.399,563.999 1103.983,573.673 			"/>
		</g>
	</g>
</g>
<rect x="1238.287" y="373.21" fill="none" stroke="#BE1622" stroke-width="2" stroke-miterlimit="10" width="22.002" height="4.162"/>
<g opacity="0.7">
	<g>
		
			<line fill="none" stroke="#4B453C" stroke-width="2" stroke-miterlimit="10" x1="1472.377" y1="709.029" x2="860.099" y2="336.995"/>
		<g>
			<polygon fill="#4B453C" points="868.745,333.583 862.21,338.278 861.053,346.242 849.896,330.795 			"/>
		</g>
	</g>
</g>
<rect x="1466.944" y="709.029" opacity="0.7" fill="none" stroke="#BE1622" stroke-width="2" stroke-miterlimit="10" width="22.002" height="4.162"/>
<rect x="798.118" y="303.353" opacity="0.7" fill="none" stroke="#BE1622" stroke-width="2" stroke-miterlimit="10" width="22.001" height="4.162"/>
<rect x="831.724" y="324.041" fill="none" stroke="#BE1622" stroke-width="2" stroke-miterlimit="10" width="22.001" height="4.162"/>
<rect x="1082.971" y="577.745" opacity="0.7" fill="none" stroke="#BE1622" stroke-width="2" stroke-miterlimit="10" width="22.002" height="4.162"/>
<rect x="1092.982" y="618.611" opacity="0.7" fill="none" stroke="#BE1622" stroke-width="2" stroke-miterlimit="10" width="22.002" height="4.162"/>
<rect x="1452.191" y="667.626" opacity="0.7" fill="none" stroke="#BE1622" stroke-width="2" stroke-miterlimit="10" width="22.002" height="4.162"/>
<g>
	<path d="M505.806,817.386v-17.85h1v17.85H505.806z"/>
	<path d="M515.956,817.386v-6.175c0-2.184-0.984-3.275-2.95-3.275c-0.967,0-1.7,0.284-2.2,0.851
		c-0.517,0.566-0.775,1.342-0.775,2.324v6.275h-1.025v-10.325h1.025v1.25c0.467-0.916,1.458-1.375,2.975-1.375
		c1.283,0,2.267,0.367,2.95,1.101c0.683,0.733,1.025,1.758,1.025,3.074v6.275H515.956z"/>
	<path d="M529.23,817.386v-1.85c-1.1,1.35-2.5,2.024-4.2,2.024c-1.5,0-2.758-0.508-3.775-1.524c-1.034-1.033-1.55-2.301-1.55-3.801
		s0.508-2.758,1.525-3.774c1.033-1.033,2.3-1.55,3.8-1.55c1.65,0,3.05,0.675,4.2,2.024v-10.05h1.025v18.5H529.23z M528.081,809.186
		c-0.85-0.85-1.867-1.274-3.05-1.274c-1.2,0-2.217,0.416-3.05,1.25c-0.85,0.85-1.275,1.875-1.275,3.074
		c0,1.184,0.425,2.2,1.275,3.051c0.85,0.85,1.866,1.274,3.05,1.274c1.2,0,2.216-0.416,3.05-1.25c0.85-0.85,1.275-1.875,1.275-3.075
		C529.355,811.053,528.93,810.036,528.081,809.186z"/>
	<path d="M541.655,816.011c-1.034,1.033-2.3,1.55-3.8,1.55s-2.759-0.508-3.775-1.524c-1.033-1.033-1.55-2.301-1.55-3.801
		c0-1.482,0.517-2.741,1.55-3.774c1.017-1.05,2.275-1.575,3.775-1.575c1.483,0,2.741,0.517,3.775,1.55
		c1.033,1.034,1.55,2.3,1.55,3.8S542.672,814.994,541.655,816.011z M540.93,809.161c-0.833-0.851-1.858-1.275-3.075-1.275
		c-1.167,0-2.175,0.434-3.025,1.3c-0.867,0.867-1.3,1.884-1.3,3.05c0,1.184,0.425,2.2,1.275,3.051c0.85,0.85,1.867,1.274,3.05,1.274
		c1.2,0,2.216-0.416,3.05-1.25c0.85-0.85,1.275-1.875,1.275-3.075C542.18,811.02,541.764,809.994,540.93,809.161z"/>
	<path d="M555.18,816.011c-1.034,1.033-2.3,1.55-3.8,1.55s-2.759-0.508-3.775-1.524c-1.033-1.033-1.55-2.301-1.55-3.801
		c0-1.482,0.517-2.741,1.55-3.774c1.017-1.05,2.275-1.575,3.775-1.575c1.483,0,2.741,0.517,3.775,1.55
		c1.033,1.034,1.55,2.3,1.55,3.8S556.196,814.994,555.18,816.011z M554.455,809.161c-0.833-0.851-1.858-1.275-3.075-1.275
		c-1.167,0-2.175,0.434-3.025,1.3c-0.867,0.867-1.3,1.884-1.3,3.05c0,1.184,0.425,2.2,1.275,3.051c0.85,0.85,1.867,1.274,3.05,1.274
		c1.2,0,2.216-0.416,3.05-1.25c0.85-0.85,1.275-1.875,1.275-3.075C555.705,811.02,555.288,809.994,554.455,809.161z"/>
	<path d="M564.154,808.586c-0.267-0.2-0.55-0.358-0.85-0.476c-0.3-0.116-0.617-0.175-0.95-0.175c-0.284,0-0.55,0.088-0.8,0.263
		s-0.467,0.392-0.65,0.65c-0.184,0.258-0.329,0.546-0.438,0.862s-0.163,0.608-0.163,0.875v6.8h-1.025v-10.325h1.025v1.4
		c0.217-0.384,0.5-0.733,0.85-1.05s0.733-0.476,1.15-0.476c0.517,0,0.941,0.059,1.275,0.175c0.333,0.117,0.708,0.325,1.125,0.625
		L564.154,808.586z"/>
	<path d="M578.279,817.586c-1.534,0-2.809-0.509-3.825-1.525c-1.017-1.017-1.525-2.291-1.525-3.825c0-1.533,0.508-2.808,1.525-3.824
		c1.016-1.017,2.291-1.525,3.825-1.525c1.316,0,2.367,0.3,3.15,0.9v1.225l-0.65-0.425l-0.7-0.375
		c-0.634-0.217-1.234-0.325-1.8-0.325c-1.284,0-2.325,0.4-3.125,1.2c-0.817,0.816-1.225,1.866-1.225,3.149
		c0,1.268,0.408,2.309,1.225,3.125c0.816,0.817,1.858,1.226,3.125,1.226c1.2,0,2.25-0.4,3.15-1.2v1.275
		C580.496,817.277,579.446,817.586,578.279,817.586z"/>
	<path d="M583.929,817.386v-18.5h1v18.5H583.929z"/>
	<path d="M587.879,805.211c-0.184,0-0.375-0.075-0.575-0.226c-0.15-0.149-0.233-0.35-0.25-0.6c0-0.45,0.275-0.725,0.825-0.825
		c0.417,0,0.691,0.275,0.825,0.825C588.704,804.936,588.429,805.211,587.879,805.211z M587.354,817.386v-10.325h1.025v10.325
		H587.354z"/>
	<path d="M602.329,817.386v-7.125c0-0.633-0.208-1.184-0.625-1.65c-0.417-0.466-1.017-0.699-1.8-0.699
		c-1.617,0-2.425,0.783-2.425,2.35v7.125h-1.025v-7.125c0-0.7-0.233-1.258-0.7-1.675c-0.484-0.45-1.059-0.675-1.725-0.675
		c-0.684,0-1.259,0.217-1.725,0.649c-0.467,0.417-0.7,0.983-0.7,1.7v7.125h-1.025v-10.325h1.025v1.025
		c0.5-0.783,1.309-1.175,2.425-1.175c1.333,0,2.316,0.541,2.95,1.625c0.6-1.084,1.575-1.625,2.925-1.625
		c1.033,0,1.866,0.291,2.5,0.875c0.633,0.6,0.95,1.425,0.95,2.475v7.125H602.329z"/>
	<path d="M615.329,817.386v-1.775c-1.084,1.301-2.459,1.95-4.125,1.95c-1.5,0-2.759-0.508-3.775-1.524
		c-1.033-1.033-1.55-2.301-1.55-3.801s0.508-2.758,1.525-3.774c1.033-1.033,2.3-1.55,3.8-1.55c1.65,0,3.025,0.649,4.125,1.949v-1.8
		h1.025v10.325H615.329z M614.253,809.186c-0.85-0.85-1.867-1.274-3.05-1.274c-1.2,0-2.217,0.416-3.05,1.25
		c-0.85,0.85-1.275,1.875-1.275,3.074c0,1.184,0.425,2.2,1.275,3.051c0.85,0.85,1.867,1.274,3.05,1.274c1.2,0,2.216-0.416,3.05-1.25
		c0.85-0.85,1.275-1.875,1.275-3.075C615.528,811.053,615.104,810.036,614.253,809.186z"/>
	<path d="M620.954,808.086v9.3h-1.025v-9.3h-1.4v-1.025h1.4v-4.524h1.025v4.524h2.4v1.025H620.954z"/>
	<path d="M625.854,812.011c0,1.4,0.375,2.509,1.125,3.325c0.783,0.833,1.858,1.25,3.225,1.25c0.7,0,1.333-0.116,1.9-0.351
		c0.716-0.3,1.358-0.908,1.925-1.824l0.925,0.425c-0.65,1.233-1.65,2.066-3,2.5c-0.517,0.166-1.1,0.25-1.75,0.25
		c-1.55,0-2.825-0.509-3.825-1.525c-1.017-1.017-1.525-2.291-1.525-3.825c0-1.55,0.5-2.824,1.5-3.824
		c1.016-1.017,2.3-1.525,3.85-1.525c1.533,0,2.8,0.475,3.8,1.425c1.017,0.95,1.525,2.184,1.525,3.7H625.854z M632.903,808.735
		c-0.784-0.566-1.684-0.85-2.7-0.85c-2.134,0-3.534,1.05-4.2,3.15h8.375C634.211,810.086,633.72,809.319,632.903,808.735z"/>
	<path d="M649.353,816.735c-0.667,0.567-1.467,0.851-2.4,0.851c-1.6,0-2.8-0.726-3.6-2.175l0.875-0.525
		c0.283,0.517,0.625,0.917,1.025,1.2c0.417,0.316,0.983,0.475,1.7,0.475c1.566,0,2.35-0.666,2.35-2c0-0.583-0.275-1.091-0.825-1.524
		c-0.167-0.101-0.404-0.213-0.712-0.338c-0.309-0.125-0.688-0.271-1.138-0.438c-0.833-0.3-1.434-0.6-1.8-0.9
		c-0.534-0.433-0.8-1.058-0.8-1.875c0-0.699,0.267-1.3,0.8-1.8c0.516-0.517,1.191-0.774,2.025-0.774c1.15,0,2.125,0.399,2.925,1.199
		l-0.75,0.65c-0.567-0.566-1.292-0.85-2.175-0.85c-1.2,0-1.8,0.524-1.8,1.574c0,0.467,0.184,0.851,0.55,1.15
		c0.3,0.233,0.775,0.459,1.425,0.675c0.566,0.2,1.033,0.388,1.4,0.563s0.642,0.329,0.825,0.463c0.716,0.55,1.075,1.292,1.075,2.225
		C650.328,815.461,650.003,816.186,649.353,816.735z"/>
	<path d="M653.253,805.211c-0.184,0-0.375-0.075-0.575-0.226c-0.15-0.149-0.233-0.35-0.25-0.6c0-0.45,0.275-0.725,0.825-0.825
		c0.417,0,0.691,0.275,0.825,0.825C654.078,804.936,653.803,805.211,653.253,805.211z M652.728,817.386v-10.325h1.025v10.325
		H652.728z"/>
	<path d="M667.703,817.386v-7.125c0-0.633-0.208-1.184-0.625-1.65c-0.417-0.466-1.017-0.699-1.8-0.699
		c-1.617,0-2.425,0.783-2.425,2.35v7.125h-1.025v-7.125c0-0.7-0.233-1.258-0.7-1.675c-0.484-0.45-1.059-0.675-1.725-0.675
		c-0.684,0-1.259,0.217-1.725,0.649c-0.467,0.417-0.7,0.983-0.7,1.7v7.125h-1.025v-10.325h1.025v1.025
		c0.5-0.783,1.309-1.175,2.425-1.175c1.333,0,2.316,0.541,2.95,1.625c0.6-1.084,1.575-1.625,2.925-1.625
		c1.033,0,1.866,0.291,2.5,0.875c0.633,0.6,0.95,1.425,0.95,2.475v7.125H667.703z"/>
	<path d="M678.603,816.485c-0.684,0.734-1.642,1.101-2.875,1.101c-1.217,0-2.159-0.358-2.825-1.075s-1-1.717-1-3v-6.45h1.025v6.45
		c0,0.983,0.217,1.742,0.65,2.275c0.45,0.533,1.166,0.8,2.15,0.8c1.917,0,2.875-1.025,2.875-3.075v-6.45h1v6.45
		C679.603,814.777,679.269,815.77,678.603,816.485z"/>
	<path d="M681.777,817.386v-18.5h1v18.5H681.777z"/>
	<path d="M694.978,817.386v-1.775c-1.084,1.301-2.459,1.95-4.125,1.95c-1.5,0-2.759-0.508-3.775-1.524
		c-1.033-1.033-1.55-2.301-1.55-3.801s0.508-2.758,1.525-3.774c1.033-1.033,2.3-1.55,3.8-1.55c1.65,0,3.025,0.649,4.125,1.949v-1.8
		h1.025v10.325H694.978z M693.902,809.186c-0.85-0.85-1.867-1.274-3.05-1.274c-1.2,0-2.217,0.416-3.05,1.25
		c-0.85,0.85-1.275,1.875-1.275,3.074c0,1.184,0.425,2.2,1.275,3.051c0.85,0.85,1.867,1.274,3.05,1.274c1.2,0,2.216-0.416,3.05-1.25
		c0.85-0.85,1.275-1.875,1.275-3.075C695.177,811.053,694.752,810.036,693.902,809.186z"/>
	<path d="M700.602,808.086v9.3h-1.025v-9.3h-1.4v-1.025h1.4v-4.524h1.025v4.524h2.4v1.025H700.602z"/>
	<path d="M706.002,805.211c-0.184,0-0.375-0.075-0.575-0.226c-0.15-0.149-0.233-0.35-0.25-0.6c0-0.45,0.275-0.725,0.825-0.825
		c0.417,0,0.691,0.275,0.825,0.825C706.827,804.936,706.552,805.211,706.002,805.211z M705.477,817.386v-10.325h1.025v10.325
		H705.477z"/>
	<path d="M718.252,816.011c-1.034,1.033-2.3,1.55-3.8,1.55s-2.759-0.508-3.775-1.524c-1.033-1.033-1.55-2.301-1.55-3.801
		c0-1.482,0.517-2.741,1.55-3.774c1.017-1.05,2.275-1.575,3.775-1.575c1.483,0,2.741,0.517,3.775,1.55
		c1.033,1.034,1.55,2.3,1.55,3.8S719.269,814.994,718.252,816.011z M717.527,809.161c-0.833-0.851-1.858-1.275-3.075-1.275
		c-1.167,0-2.175,0.434-3.025,1.3c-0.867,0.867-1.3,1.884-1.3,3.05c0,1.184,0.425,2.2,1.275,3.051c0.85,0.85,1.867,1.274,3.05,1.274
		c1.2,0,2.216-0.416,3.05-1.25c0.85-0.85,1.275-1.875,1.275-3.075C718.777,811.02,718.36,809.994,717.527,809.161z"/>
	<path d="M729.301,817.386v-6.175c0-2.184-0.984-3.275-2.95-3.275c-0.967,0-1.7,0.284-2.2,0.851
		c-0.517,0.566-0.775,1.342-0.775,2.324v6.275h-1.025v-10.325h1.025v1.25c0.467-0.916,1.458-1.375,2.975-1.375
		c1.283,0,2.267,0.367,2.95,1.101c0.683,0.733,1.025,1.758,1.025,3.074v6.275H729.301z"/>
	<path d="M748.776,816.011c-1.033,1.033-2.3,1.55-3.8,1.55c-1.717,0-3.125-0.691-4.225-2.075v1.9h-1.025v-18.5h1.025v10.1
		c1.083-1.383,2.492-2.074,4.225-2.074c1.5,0,2.758,0.508,3.775,1.524c1.033,1.034,1.55,2.3,1.55,3.8
		S749.792,814.994,748.776,816.011z M748.026,809.186c-0.85-0.85-1.867-1.274-3.05-1.274c-1.2,0-2.217,0.416-3.05,1.25
		c-0.85,0.85-1.275,1.875-1.275,3.074c0,1.184,0.425,2.2,1.275,3.051c0.85,0.85,1.866,1.274,3.05,1.274c1.2,0,2.216-0.416,3.05-1.25
		c0.85-0.85,1.275-1.875,1.275-3.075C749.301,811.053,748.876,810.036,748.026,809.186z"/>
	<path d="M761.276,816.011c-1.034,1.033-2.3,1.55-3.8,1.55s-2.759-0.508-3.775-1.524c-1.033-1.033-1.55-2.301-1.55-3.801
		c0-1.482,0.517-2.741,1.55-3.774c1.017-1.05,2.275-1.575,3.775-1.575c1.483,0,2.741,0.517,3.775,1.55
		c1.033,1.034,1.55,2.3,1.55,3.8S762.292,814.994,761.276,816.011z M760.551,809.161c-0.833-0.851-1.858-1.275-3.075-1.275
		c-1.167,0-2.175,0.434-3.025,1.3c-0.867,0.867-1.3,1.884-1.3,3.05c0,1.184,0.425,2.2,1.275,3.051c0.85,0.85,1.867,1.274,3.05,1.274
		c1.2,0,2.216-0.416,3.05-1.25c0.85-0.85,1.275-1.875,1.275-3.075C761.801,811.02,761.384,809.994,760.551,809.161z"/>
	<path d="M766.926,808.086v9.3H765.9v-9.3h-1.4v-1.025h1.4v-4.524h1.025v4.524h2.4v1.025H766.926z"/>
</g>
<g>
	<g id="color">
		<path fill="#D22F27" d="M631.809,685.175v-6.428c0-3.533,2.865-6.398,6.4-6.398l0,0c3.533,0,6.398,2.865,6.398,6.398v6.4"/>
		<path fill="#D0CFCE" d="M579.335,749.14L579.335,749.14c-3.534,0-6.399-2.865-6.399-6.399v-20.478
			c0-3.534,2.865-6.399,6.399-6.399l0,0c3.535,0,6.399,2.865,6.399,6.399v20.478C585.734,746.274,582.87,749.14,579.335,749.14z"/>
		<path fill="#D0CFCE" d="M694.521,749.14L694.521,749.14c3.533,0,6.399-2.865,6.399-6.399v-20.478c0-3.534-2.866-6.399-6.399-6.399
			l0,0c-3.535,0-6.399,2.865-6.399,6.399v20.478C688.122,746.274,690.987,749.14,694.521,749.14z"/>
		<path fill="#D0CFCE" d="M666.238,787.563h-58.62c-12.036,0-21.884-9.849-21.884-21.886V707.06
			c0-12.036,9.848-21.885,21.884-21.885h58.62c12.037,0,21.884,9.849,21.884,21.885v58.618
			C688.122,777.715,678.274,787.563,666.238,787.563z"/>
		<path fill="#9B9B9A" d="M635.643,787.562h34.009c10.159,0,18.471-9.849,18.471-21.886v-58.618
			c0-12.037-8.312-21.885-18.471-21.885h-6.022"/>
		<ellipse fill="#FFFFFF" cx="659.542" cy="718.171" rx="7.253" ry="7.253"/>
		<ellipse fill="#FFFFFF" cx="614.746" cy="718.169" rx="7.253" ry="7.253"/>
		<path fill="#FFFFFF" d="M658.685,765.52H615.17c-5.631,0-10.238-4.608-10.238-10.239l0,0c0-5.631,4.607-10.237,10.238-10.237
			h43.515c5.632,0,10.239,4.606,10.239,10.237l0,0C668.924,760.911,664.317,765.52,658.685,765.52z"/>
	</g>
	<g id="line">
		
			<path fill="none" stroke="#000000" stroke-width="0.6192" stroke-linecap="round" stroke-linejoin="round" stroke-miterlimit="2" d="
			M638.208,698.849"/>
		
			<path fill="none" stroke="#000000" stroke-width="0.6192" stroke-linecap="round" stroke-linejoin="round" stroke-miterlimit="2" d="
			M631.809,684.916v-6.428c0-3.534,2.865-6.399,6.4-6.399l0,0c3.533,0,6.398,2.865,6.398,6.399v6.4"/>
		
			<path fill="none" stroke="#000000" stroke-width="0.6192" stroke-linecap="round" stroke-linejoin="round" stroke-miterlimit="2" d="
			M666.238,787.275h-58.62c-12.036,0-21.884-9.848-21.884-21.884v-58.619c0-12.037,9.848-21.884,21.884-21.884h58.62
			c12.037,0,21.884,9.847,21.884,21.884v58.619C688.122,777.428,678.274,787.275,666.238,787.275z"/>
		
			<ellipse fill="none" stroke="#000000" stroke-width="0.6192" stroke-linecap="round" stroke-linejoin="round" stroke-miterlimit="2" cx="659.542" cy="718.169" rx="7.253" ry="7.253"/>
		
			<ellipse fill="none" stroke="#000000" stroke-width="0.6192" stroke-linecap="round" stroke-linejoin="round" stroke-miterlimit="2" cx="614.746" cy="718.168" rx="7.254" ry="7.254"/>
		<path fill="none" stroke="#000000" stroke-width="0.6192" stroke-miterlimit="2" d="M658.685,765.519H615.17
			c-5.631,0-10.238-4.608-10.238-10.239l0,0c0-5.631,4.607-10.239,10.238-10.239h43.515c5.632,0,10.239,4.608,10.239,10.239l0,0
			C668.924,760.91,664.317,765.519,658.685,765.519z"/>
		
			<path fill="none" stroke="#000000" stroke-width="0.6192" stroke-linecap="round" stroke-linejoin="round" stroke-miterlimit="2" d="
			M579.335,748.881L579.335,748.881c-3.534,0-6.399-2.865-6.399-6.4v-20.478c0-3.533,2.865-6.398,6.399-6.398l0,0
			c3.535,0,6.399,2.865,6.399,6.398v20.478C585.734,746.016,582.87,748.881,579.335,748.881z"/>
		
			<path fill="none" stroke="#000000" stroke-width="0.6192" stroke-linecap="round" stroke-linejoin="round" stroke-miterlimit="2" d="
			M694.521,748.881L694.521,748.881c3.533,0,6.399-2.865,6.399-6.4v-20.478c0-3.533-2.866-6.398-6.399-6.398l0,0
			c-3.535,0-6.399,2.865-6.399,6.398v20.478C688.122,746.016,690.987,748.881,694.521,748.881z"/>
		<path fill="none" stroke="#000000" stroke-width="0.3096" stroke-miterlimit="10" d="M638.208,739.921"/>
		<path fill="none" stroke="#000000" stroke-width="0.3096" stroke-miterlimit="10" d="M638.208,791.114"/>
		
			<line fill="none" stroke="#000000" stroke-width="0.6192" stroke-linecap="round" stroke-linejoin="round" stroke-miterlimit="2" x1="616.451" y1="746.32" x2="616.451" y2="764.238"/>
		
			<line fill="none" stroke="#000000" stroke-width="0.6192" stroke-linecap="round" stroke-linejoin="round" stroke-miterlimit="2" x1="629.249" y1="746.32" x2="629.249" y2="764.238"/>
		
			<line fill="none" stroke="#000000" stroke-width="0.6192" stroke-linecap="round" stroke-linejoin="round" stroke-miterlimit="2" x1="642.047" y1="746.32" x2="642.047" y2="764.238"/>
		
			<line fill="none" stroke="#000000" stroke-width="0.6192" stroke-linecap="round" stroke-linejoin="round" stroke-miterlimit="2" x1="654.846" y1="746.32" x2="654.846" y2="764.238"/>
	</g>
</g>
<g>
	<g>
		<g>
			<g>
				
					<line fill="none" stroke="#4B453C" stroke-width="2" stroke-miterlimit="10" x1="842.724" y1="330.795" x2="672.186" y2="667.849"/>
				<g>
					<polygon fill="#4B453C" points="668.114,659.493 673.302,665.644 681.331,666.18 666.796,678.502 					"/>
				</g>
			</g>
		</g>
	</g>
</g>
<g>
	<g>
		<g>
			<g>
				
					<line fill="none" stroke="#4B453C" stroke-width="2" stroke-miterlimit="10" x1="918.328" y1="791.114" x2="716.388" y2="751.441"/>
				<g>
					<polygon fill="#4B453C" points="723.328,745.257 718.813,751.918 720.473,759.791 704.673,749.14 					"/>
				</g>
			</g>
		</g>
	</g>
</g>
<g>
	<g>
		
			<line fill="none" stroke="#4B453C" stroke-width="2" stroke-miterlimit="10" x1="1238.287" y1="377.372" x2="706.431" y2="694.624"/>
		<g>
			<polygon fill="#4B453C" points="707.46,685.386 708.552,693.358 715.049,698.106 696.177,700.74 			"/>
		</g>
	</g>
</g>
<rect x="798.118" y="334.386" fill="none" stroke="#660099" stroke-width="2" stroke-miterlimit="10" width="22.001" height="4.162"/>
<g>
	<g>
		<g>
			<g>
				
					<line fill="none" stroke="#4B453C" stroke-width="2" stroke-miterlimit="10" x1="673.228" y1="654.274" x2="801.516" y2="353.532"/>
				<g>
					<polygon fill="#4B453C" points="806.124,361.605 800.546,355.805 792.499,355.793 806.2,342.55 					"/>
				</g>
			</g>
		</g>
	</g>
</g>
<g>
</g>
</svg>
