<?xml version="1.0" encoding="utf-8"?>
<!-- Generator: Adobe Illustrator 16.0.0, SVG Export Plug-In . SVG Version: 6.00 Build 0)  -->
<!DOCTYPE svg PUBLIC "-//W3C//DTD SVG 1.1//EN" "http://www.w3.org/Graphics/SVG/1.1/DTD/svg11.dtd">
<svg version="1.1" id="Layer_1" xmlns="http://www.w3.org/2000/svg" xmlns:xlink="http://www.w3.org/1999/xlink" x="0px" y="0px"
	 width="1920.001px" height="1080px" viewBox="0 0 1920.001 1080" enable-background="new 0 0 1920.001 1080" xml:space="preserve">
<polyline fill="none" stroke="#045454" stroke-width="2.9633" stroke-miterlimit="10" points="864.844,903.43 864.844,903.43 
	904.568,877.082 "/>
<polyline fill="none" stroke="#045454" stroke-width="2.9633" stroke-miterlimit="10" points="1167.541,689.719 1167.541,689.719 
	1203.088,750.663 "/>
<polyline fill="none" stroke="#045454" stroke-width="2.9633" stroke-miterlimit="10" points="1167.541,689.719 1167.541,689.719 
	1218.48,666.274 "/>
<polyline fill="none" stroke="#045454" stroke-width="2.9633" stroke-miterlimit="10" points="829.129,767.492 829.129,767.492 
	929.531,801.211 "/>
<polyline fill="none" stroke="#045454" stroke-width="2.9633" stroke-miterlimit="10" points="829.129,767.492 829.129,767.492 
	888.961,715.128 "/>
<polyline fill="none" stroke="#045454" stroke-width="2.9633" stroke-miterlimit="10" points="975.52,791.183 975.52,791.183 
	1022.398,860.623 "/>
<polyline fill="none" stroke="#045454" stroke-width="2.9633" stroke-miterlimit="10" points="975.52,791.183 975.52,791.183 
	1002.521,771.724 "/>
<polyline fill="none" stroke="#045454" stroke-width="2.9633" stroke-miterlimit="10" points="648.258,590.226 648.258,590.226 
	728.531,523.062 "/>
<polyline fill="none" stroke="#045454" stroke-width="2.9633" stroke-miterlimit="10" points="648.258,590.226 648.258,590.226 
	677.355,697.385 "/>
<polyline fill="none" stroke="#045454" stroke-width="2.9633" stroke-miterlimit="10" points="648.258,590.226 648.258,590.226 
	740.621,604.811 "/>
<polyline fill="none" stroke="#045454" stroke-width="2.9633" stroke-miterlimit="10" points="648.258,590.226 648.258,590.226 
	723.123,636.765 "/>
<polyline fill="none" stroke="#045454" stroke-width="2.9633" stroke-miterlimit="10" points="966.045,648.041 966.045,648.041 
	1068.773,670.219 "/>
<polyline fill="none" stroke="#045454" stroke-width="2.9633" stroke-miterlimit="10" points="966.045,648.041 966.045,648.041 
	1064.342,613.299 "/>
<polyline fill="none" stroke="#045454" stroke-width="2.9633" stroke-miterlimit="10" points="966.045,648.041 966.045,648.041 
	1002.521,771.724 "/>
<polyline fill="none" stroke="#045454" stroke-width="2.9633" stroke-miterlimit="10" points="1265.971,843.331 1265.971,843.331 
	1272.797,740.096 "/>
<polyline fill="none" stroke="#045454" stroke-width="2.9633" stroke-miterlimit="10" points="929.531,801.211 929.531,801.211 
	975.52,791.183 "/>
<polyline fill="none" stroke="#045454" stroke-width="2.9633" stroke-miterlimit="10" points="1088.834,770.227 1088.834,770.227 
	1154.146,738.861 "/>
<polyline fill="none" stroke="#045454" stroke-width="2.9633" stroke-miterlimit="10" points="1088.834,770.227 1088.834,770.227 
	1132.434,798.649 "/>
<polyline fill="none" stroke="#045454" stroke-width="2.9633" stroke-miterlimit="10" points="809.238,893.539 809.238,893.539 
	864.844,903.43 "/>
<polyline fill="none" stroke="#045454" stroke-width="2.9633" stroke-miterlimit="10" points="809.238,893.539 809.238,893.539 
	829.129,767.492 "/>
<polyline fill="none" stroke="#045454" stroke-width="2.9633" stroke-miterlimit="10" points="807.725,194.213 807.725,194.213 
	867.963,205.291 "/>
<polyline fill="none" stroke="#045454" stroke-width="2.9633" stroke-miterlimit="10" points="807.725,194.213 807.725,194.213 
	811.84,228.655 "/>
<polyline fill="none" stroke="#045454" stroke-width="2.9633" stroke-miterlimit="10" points="1281.33,359.386 1281.33,359.386 
	1284.658,294.432 "/>
<polyline fill="none" stroke="#045454" stroke-width="2.9633" stroke-miterlimit="10" points="558.756,214.396 558.756,214.396 
	582.365,358.12 "/>
<polyline fill="none" stroke="#045454" stroke-width="2.9633" stroke-miterlimit="10" points="558.756,214.396 558.756,214.396 
	685.188,214.519 "/>
<polyline fill="none" stroke="#045454" stroke-width="2.9633" stroke-miterlimit="10" points="1201.297,339.898 1201.297,339.898 
	1281.33,359.386 "/>
<polyline fill="none" stroke="#045454" stroke-width="2.9633" stroke-miterlimit="10" points="1201.297,339.898 1201.297,339.898 
	1284.658,294.432 "/>
<polyline fill="none" stroke="#045454" stroke-width="2.9633" stroke-miterlimit="10" points="1201.297,339.898 1201.297,339.898 
	1233.021,236.602 "/>
<polyline fill="none" stroke="#045454" stroke-width="2.9633" stroke-miterlimit="10" points="1201.297,339.898 1201.297,339.898 
	1221.939,396.956 "/>
<polyline fill="none" stroke="#045454" stroke-width="2.9633" stroke-miterlimit="10" points="688.711,837.25 688.711,837.25 
	705.766,810.932 "/>
<polyline fill="none" stroke="#045454" stroke-width="2.9633" stroke-miterlimit="10" points="688.711,837.25 688.711,837.25 
	752.617,889.219 "/>
<polyline fill="none" stroke="#045454" stroke-width="2.9633" stroke-miterlimit="10" points="863.297,254.921 863.297,254.921 
	867.963,205.291 "/>
<polyline fill="none" stroke="#045454" stroke-width="2.9633" stroke-miterlimit="10" points="863.297,254.921 863.297,254.921 
	1006.258,319.429 "/>
<polyline fill="none" stroke="#045454" stroke-width="2.9633" stroke-miterlimit="10" points="984.467,365.273 984.467,365.273 
	1006.258,319.429 "/>
<polyline fill="none" stroke="#045454" stroke-width="2.9633" stroke-miterlimit="10" points="984.467,365.273 984.467,365.273 
	1069.881,413.861 "/>
<polyline fill="none" stroke="#045454" stroke-width="2.9633" stroke-miterlimit="10" points="728.531,523.062 728.531,523.062 
	740.621,604.811 "/>
<polyline fill="none" stroke="#045454" stroke-width="2.9633" stroke-miterlimit="10" points="728.531,523.062 728.531,523.062 
	772.748,512.2 "/>
<polyline fill="none" stroke="#045454" stroke-width="2.9633" stroke-miterlimit="10" points="1081.738,299.892 1081.738,299.892 
	1140.594,338.735 "/>
<polyline fill="none" stroke="#045454" stroke-width="2.9633" stroke-miterlimit="10" points="1081.738,299.892 1081.738,299.892 
	1197.029,233.867 "/>
<polyline fill="none" stroke="#045454" stroke-width="2.9633" stroke-miterlimit="10" points="1154.146,738.861 1154.146,738.861 
	1167.541,689.719 "/>
<polyline fill="none" stroke="#045454" stroke-width="2.9633" stroke-miterlimit="10" points="1154.146,738.861 1154.146,738.861 
	1203.088,750.663 "/>
<polyline fill="none" stroke="#045454" stroke-width="2.9633" stroke-miterlimit="10" points="1203.088,750.663 1203.088,750.663 
	1265.971,843.331 "/>
<polyline fill="none" stroke="#045454" stroke-width="2.9633" stroke-miterlimit="10" points="1203.088,750.663 1203.088,750.663 
	1272.797,740.096 "/>
<polyline fill="none" stroke="#045454" stroke-width="2.9633" stroke-miterlimit="10" points="1203.088,750.663 1203.088,750.663 
	1218.48,666.274 "/>
<polyline fill="none" stroke="#045454" stroke-width="2.9633" stroke-miterlimit="10" points="1150.277,499.735 1150.277,499.735 
	1223.016,500.766 "/>
<polyline fill="none" stroke="#045454" stroke-width="2.9633" stroke-miterlimit="10" points="693.865,474.899 693.865,474.899 
	728.531,523.062 "/>
<polyline fill="none" stroke="#045454" stroke-width="2.9633" stroke-miterlimit="10" points="693.865,474.899 693.865,474.899 
	705.564,447.49 "/>
<polyline fill="none" stroke="#045454" stroke-width="2.9633" stroke-miterlimit="10" points="940.129,200.747 940.129,200.747 
	1006.258,319.429 "/>
<polyline fill="none" stroke="#045454" stroke-width="2.9633" stroke-miterlimit="10" points="940.129,200.747 940.129,200.747 
	1047.043,267.892 "/>
<polyline fill="none" stroke="#045454" stroke-width="2.9633" stroke-miterlimit="10" points="586.969,789.365 586.969,789.365 
	629.996,800.936 "/>
<polyline fill="none" stroke="#045454" stroke-width="2.9633" stroke-miterlimit="10" points="586.969,789.365 586.969,789.365 
	598.217,829.604 "/>
<polyline fill="none" stroke="#045454" stroke-width="2.9633" stroke-miterlimit="10" points="586.969,789.365 586.969,789.365 
	599.824,747.942 "/>
<polyline fill="none" stroke="#045454" stroke-width="2.9633" stroke-miterlimit="10" points="1284.658,294.432 1284.658,294.432 
	1293.039,228.967 "/>
<polyline fill="none" stroke="#045454" stroke-width="2.9633" stroke-miterlimit="10" points="667.523,741.228 667.523,741.228 
	677.355,697.385 "/>
<polyline fill="none" stroke="#045454" stroke-width="2.9633" stroke-miterlimit="10" points="667.523,741.228 667.523,741.228 
	705.766,810.932 "/>
<polyline fill="none" stroke="#045454" stroke-width="2.9633" stroke-miterlimit="10" points="667.523,741.228 667.523,741.228 
	785.004,750.58 "/>
<polyline fill="none" stroke="#045454" stroke-width="2.9633" stroke-miterlimit="10" points="1083.434,852.763 1083.434,852.763 
	1088.834,770.227 "/>
<polyline fill="none" stroke="#045454" stroke-width="2.9633" stroke-miterlimit="10" points="1083.434,852.763 1083.434,852.763 
	1137.133,880.996 "/>
<polyline fill="none" stroke="#045454" stroke-width="2.9633" stroke-miterlimit="10" points="1083.434,852.763 1083.434,852.763 
	1132.434,798.649 "/>
<polyline fill="none" stroke="#045454" stroke-width="2.9633" stroke-miterlimit="10" points="1140.594,338.735 1140.594,338.735 
	1201.297,339.898 "/>
<polyline fill="none" stroke="#045454" stroke-width="2.9633" stroke-miterlimit="10" points="1140.594,338.735 1140.594,338.735 
	1197.029,233.867 "/>
<polyline fill="none" stroke="#045454" stroke-width="2.9633" stroke-miterlimit="10" points="1140.594,338.735 1140.594,338.735 
	1147.373,444.892 "/>
<polyline fill="none" stroke="#045454" stroke-width="2.9633" stroke-miterlimit="10" points="828.643,408.152 828.643,408.152 
	857.08,325.363 "/>
<polyline fill="none" stroke="#045454" stroke-width="2.9633" stroke-miterlimit="10" points="828.643,408.152 828.643,408.152 
	938.98,485.688 "/>
<polyline fill="none" stroke="#045454" stroke-width="2.9633" stroke-miterlimit="10" points="828.643,408.152 828.643,408.152 
	938.854,377.186 "/>
<polyline fill="none" stroke="#045454" stroke-width="2.9633" stroke-miterlimit="10" points="1120.166,554.785 1120.166,554.785 
	1150.277,499.735 "/>
<polyline fill="none" stroke="#045454" stroke-width="2.9633" stroke-miterlimit="10" points="1120.166,554.785 1120.166,554.785 
	1142.432,658.316 "/>
<polyline fill="none" stroke="#045454" stroke-width="2.9633" stroke-miterlimit="10" points="601.777,447.12 601.777,447.12 
	649.143,492.114 "/>
<polyline fill="none" stroke="#045454" stroke-width="2.9633" stroke-miterlimit="10" points="601.777,447.12 601.777,447.12 
	674.279,368.411 "/>
<polyline fill="none" stroke="#045454" stroke-width="2.9633" stroke-miterlimit="10" points="797.533,458.985 797.533,458.985 
	828.643,408.152 "/>
<polyline fill="none" stroke="#045454" stroke-width="2.9633" stroke-miterlimit="10" points="797.533,458.985 797.533,458.985 
	860.041,522.772 "/>
<polyline fill="none" stroke="#045454" stroke-width="2.9633" stroke-miterlimit="10" points="867.963,205.291 867.963,205.291 
	940.129,200.747 "/>
<polyline fill="none" stroke="#045454" stroke-width="2.9633" stroke-miterlimit="10" points="705.545,341.363 705.545,341.363 
	736.42,260.156 "/>
<polyline fill="none" stroke="#045454" stroke-width="2.9633" stroke-miterlimit="10" points="705.545,341.363 705.545,341.363 
	766.676,276.598 "/>
<polyline fill="none" stroke="#045454" stroke-width="2.9633" stroke-miterlimit="10" points="705.545,341.363 705.545,341.363 
	788.242,317.817 "/>
<polyline fill="none" stroke="#045454" stroke-width="2.9633" stroke-miterlimit="10" points="1073.719,498.64 1073.719,498.64 
	1150.277,499.735 "/>
<polyline fill="none" stroke="#045454" stroke-width="2.9633" stroke-miterlimit="10" points="1073.719,498.64 1073.719,498.64 
	1120.166,554.785 "/>
<polyline fill="none" stroke="#045454" stroke-width="2.9633" stroke-miterlimit="10" points="1073.719,498.64 1073.719,498.64 
	1147.373,444.892 "/>
<polyline fill="none" stroke="#045454" stroke-width="2.9633" stroke-miterlimit="10" points="677.355,697.385 677.355,697.385 
	785.004,750.58 "/>
<polyline fill="none" stroke="#045454" stroke-width="2.9633" stroke-miterlimit="10" points="677.355,697.385 677.355,697.385 
	723.123,636.765 "/>
<polyline fill="none" stroke="#045454" stroke-width="2.9633" stroke-miterlimit="10" points="954.115,526.013 954.115,526.013 
	966.045,648.041 "/>
<polyline fill="none" stroke="#045454" stroke-width="2.9633" stroke-miterlimit="10" points="954.115,526.013 954.115,526.013 
	1059.922,527.011 "/>
<polyline fill="none" stroke="#045454" stroke-width="2.9633" stroke-miterlimit="10" points="954.115,526.013 954.115,526.013 
	1057.115,447.492 "/>
<polyline fill="none" stroke="#045454" stroke-width="2.9633" stroke-miterlimit="10" points="558.664,908.607 558.664,908.607 
	598.217,829.604 "/>
<polyline fill="none" stroke="#045454" stroke-width="2.9633" stroke-miterlimit="10" points="558.664,908.607 558.664,908.607 
	636.539,888.643 "/>
<polyline fill="none" stroke="#045454" stroke-width="2.9633" stroke-miterlimit="10" points="1006.258,319.429 1006.258,319.429 
	1081.738,299.892 "/>
<polyline fill="none" stroke="#045454" stroke-width="2.9633" stroke-miterlimit="10" points="1006.258,319.429 1006.258,319.429 
	1047.043,267.892 "/>
<polyline fill="none" stroke="#045454" stroke-width="2.9633" stroke-miterlimit="10" points="627.225,536.715 627.225,536.715 
	648.258,590.226 "/>
<polyline fill="none" stroke="#045454" stroke-width="2.9633" stroke-miterlimit="10" points="627.225,536.715 627.225,536.715 
	649.143,492.114 "/>
<polyline fill="none" stroke="#045454" stroke-width="2.9633" stroke-miterlimit="10" points="857.08,325.363 857.08,325.363 
	863.297,254.921 "/>
<polyline fill="none" stroke="#045454" stroke-width="2.9633" stroke-miterlimit="10" points="857.08,325.363 857.08,325.363 
	938.854,377.186 "/>
<polyline fill="none" stroke="#045454" stroke-width="2.9633" stroke-miterlimit="10" points="736.42,260.156 736.42,260.156 
	766.676,276.598 "/>
<polyline fill="none" stroke="#045454" stroke-width="2.9633" stroke-miterlimit="10" points="576.402,666.142 576.402,666.142 
	612.117,688.086 "/>
<polyline fill="none" stroke="#045454" stroke-width="2.9633" stroke-miterlimit="10" points="576.402,666.142 576.402,666.142 
	577.029,616.332 "/>
<polyline fill="none" stroke="#045454" stroke-width="2.9633" stroke-miterlimit="10" points="1059.922,527.011 1059.922,527.011 
	1120.166,554.785 "/>
<polyline fill="none" stroke="#045454" stroke-width="2.9633" stroke-miterlimit="10" points="1059.922,527.011 1059.922,527.011 
	1073.719,498.64 "/>
<polyline fill="none" stroke="#045454" stroke-width="2.9633" stroke-miterlimit="10" points="1059.922,527.011 1059.922,527.011 
	1064.342,613.299 "/>
<polyline fill="none" stroke="#045454" stroke-width="2.9633" stroke-miterlimit="10" points="740.621,604.811 740.621,604.811 
	828.813,614.851 "/>
<polyline fill="none" stroke="#045454" stroke-width="2.9633" stroke-miterlimit="10" points="1068.773,670.219 1068.773,670.219 
	1088.834,770.227 "/>
<polyline fill="none" stroke="#045454" stroke-width="2.9633" stroke-miterlimit="10" points="1068.773,670.219 1068.773,670.219 
	1154.146,738.861 "/>
<polyline fill="none" stroke="#045454" stroke-width="2.9633" stroke-miterlimit="10" points="1068.773,670.219 1068.773,670.219 
	1142.432,658.316 "/>
<polyline fill="none" stroke="#045454" stroke-width="2.9633" stroke-miterlimit="10" points="606.357,569.802 606.357,569.802 
	648.258,590.226 "/>
<polyline fill="none" stroke="#045454" stroke-width="2.9633" stroke-miterlimit="10" points="606.357,569.802 606.357,569.802 
	627.225,536.715 "/>
<polyline fill="none" stroke="#045454" stroke-width="2.9633" stroke-miterlimit="10" points="705.766,810.932 705.766,810.932 
	785.004,750.58 "/>
<polyline fill="none" stroke="#045454" stroke-width="2.9633" stroke-miterlimit="10" points="1218.48,666.274 1218.48,666.274 
	1281.213,605.653 "/>
<polyline fill="none" stroke="#045454" stroke-width="2.9633" stroke-miterlimit="10" points="1218.48,666.274 1218.48,666.274 
	1272.797,740.096 "/>
<polyline fill="none" stroke="#045454" stroke-width="2.9633" stroke-miterlimit="10" points="772.748,512.2 772.748,512.2 
	797.533,458.985 "/>
<polyline fill="none" stroke="#045454" stroke-width="2.9633" stroke-miterlimit="10" points="772.748,512.2 772.748,512.2 
	860.041,522.772 "/>
<polyline fill="none" stroke="#045454" stroke-width="2.9633" stroke-miterlimit="10" points="772.748,512.2 772.748,512.2 
	828.813,614.851 "/>
<polyline fill="none" stroke="#045454" stroke-width="2.9633" stroke-miterlimit="10" points="1069.881,413.861 1069.881,413.861 
	1081.738,299.892 "/>
<polyline fill="none" stroke="#045454" stroke-width="2.9633" stroke-miterlimit="10" points="1069.881,413.861 1069.881,413.861 
	1140.594,338.735 "/>
<polyline fill="none" stroke="#045454" stroke-width="2.9633" stroke-miterlimit="10" points="1069.881,413.861 1069.881,413.861 
	1147.373,444.892 "/>
<polyline fill="none" stroke="#045454" stroke-width="2.9633" stroke-miterlimit="10" points="872.443,641.329 872.443,641.329 
	966.045,648.041 "/>
<polyline fill="none" stroke="#045454" stroke-width="2.9633" stroke-miterlimit="10" points="872.443,641.329 872.443,641.329 
	954.115,526.013 "/>
<polyline fill="none" stroke="#045454" stroke-width="2.9633" stroke-miterlimit="10" points="872.443,641.329 872.443,641.329 
	888.961,715.128 "/>
<polyline fill="none" stroke="#045454" stroke-width="2.9633" stroke-miterlimit="10" points="938.98,485.688 938.98,485.688 
	954.115,526.013 "/>
<polyline fill="none" stroke="#045454" stroke-width="2.9633" stroke-miterlimit="10" points="938.98,485.688 938.98,485.688 
	963.268,424.012 "/>
<polyline fill="none" stroke="#045454" stroke-width="2.9633" stroke-miterlimit="10" points="1022.398,860.623 1022.398,860.623 
	1083.434,852.763 "/>
<polyline fill="none" stroke="#045454" stroke-width="2.9633" stroke-miterlimit="10" points="1022.398,860.623 1022.398,860.623 
	1043.689,898.342 "/>
<polyline fill="none" stroke="#045454" stroke-width="2.9633" stroke-miterlimit="10" points="582.365,358.12 582.365,358.12 
	601.777,447.12 "/>
<polyline fill="none" stroke="#045454" stroke-width="2.9633" stroke-miterlimit="10" points="582.365,358.12 582.365,358.12 
	685.188,214.519 "/>
<polyline fill="none" stroke="#045454" stroke-width="2.9633" stroke-miterlimit="10" points="582.365,358.12 582.365,358.12 
	674.279,368.411 "/>
<polyline fill="none" stroke="#045454" stroke-width="2.9633" stroke-miterlimit="10" points="1064.342,613.299 1064.342,613.299 
	1120.166,554.785 "/>
<polyline fill="none" stroke="#045454" stroke-width="2.9633" stroke-miterlimit="10" points="1064.342,613.299 1064.342,613.299 
	1068.773,670.219 "/>
<polyline fill="none" stroke="#045454" stroke-width="2.9633" stroke-miterlimit="10" points="1064.342,613.299 1064.342,613.299 
	1142.432,658.316 "/>
<polyline fill="none" stroke="#045454" stroke-width="2.9633" stroke-miterlimit="10" points="888.961,715.128 888.961,715.128 
	966.045,648.041 "/>
<polyline fill="none" stroke="#045454" stroke-width="2.9633" stroke-miterlimit="10" points="888.961,715.128 888.961,715.128 
	929.531,801.211 "/>
<polyline fill="none" stroke="#045454" stroke-width="2.9633" stroke-miterlimit="10" points="752.617,889.219 752.617,889.219 
	809.238,893.539 "/>
<polyline fill="none" stroke="#045454" stroke-width="2.9633" stroke-miterlimit="10" points="811.84,228.655 811.84,228.655 
	863.297,254.921 "/>
<polyline fill="none" stroke="#045454" stroke-width="2.9633" stroke-miterlimit="10" points="811.84,228.655 811.84,228.655 
	867.963,205.291 "/>
<polyline fill="none" stroke="#045454" stroke-width="2.9633" stroke-miterlimit="10" points="811.84,228.655 811.84,228.655 
	818.105,306.24 "/>
<polyline fill="none" stroke="#045454" stroke-width="2.9633" stroke-miterlimit="10" points="1057.115,447.492 1057.115,447.492 
	1073.719,498.64 "/>
<polyline fill="none" stroke="#045454" stroke-width="2.9633" stroke-miterlimit="10" points="1057.115,447.492 1057.115,447.492 
	1069.881,413.861 "/>
<polyline fill="none" stroke="#045454" stroke-width="2.9633" stroke-miterlimit="10" points="1057.115,447.492 1057.115,447.492 
	1147.373,444.892 "/>
<polyline fill="none" stroke="#045454" stroke-width="2.9633" stroke-miterlimit="10" points="1248.053,888.29 1248.053,888.29 
	1265.971,843.331 "/>
<polyline fill="none" stroke="#045454" stroke-width="2.9633" stroke-miterlimit="10" points="1002.521,771.724 1002.521,771.724 
	1088.834,770.227 "/>
<polyline fill="none" stroke="#045454" stroke-width="2.9633" stroke-miterlimit="10" points="1002.521,771.724 1002.521,771.724 
	1068.773,670.219 "/>
<polyline fill="none" stroke="#045454" stroke-width="2.9633" stroke-miterlimit="10" points="612.117,688.086 612.117,688.086 
	648.258,590.226 "/>
<polyline fill="none" stroke="#045454" stroke-width="2.9633" stroke-miterlimit="10" points="612.117,688.086 612.117,688.086 
	646.809,714.456 "/>
<polyline fill="none" stroke="#045454" stroke-width="2.9633" stroke-miterlimit="10" points="1137.133,880.996 1137.133,880.996 
	1185.381,900.26 "/>
<polyline fill="none" stroke="#045454" stroke-width="2.9633" stroke-miterlimit="10" points="1142.432,658.316 1142.432,658.316 
	1167.541,689.719 "/>
<polyline fill="none" stroke="#045454" stroke-width="2.9633" stroke-miterlimit="10" points="629.996,800.936 629.996,800.936 
	688.711,837.25 "/>
<polyline fill="none" stroke="#045454" stroke-width="2.9633" stroke-miterlimit="10" points="629.996,800.936 629.996,800.936 
	667.523,741.228 "/>
<polyline fill="none" stroke="#045454" stroke-width="2.9633" stroke-miterlimit="10" points="766.676,276.598 766.676,276.598 
	811.84,228.655 "/>
<polyline fill="none" stroke="#045454" stroke-width="2.9633" stroke-miterlimit="10" points="766.676,276.598 766.676,276.598 
	788.242,317.817 "/>
<polyline fill="none" stroke="#045454" stroke-width="2.9633" stroke-miterlimit="10" points="963.268,424.012 963.268,424.012 
	984.467,365.273 "/>
<polyline fill="none" stroke="#045454" stroke-width="2.9633" stroke-miterlimit="10" points="963.268,424.012 963.268,424.012 
	1057.115,447.492 "/>
<polyline fill="none" stroke="#045454" stroke-width="2.9633" stroke-miterlimit="10" points="860.041,522.772 860.041,522.772 
	954.115,526.013 "/>
<polyline fill="none" stroke="#045454" stroke-width="2.9633" stroke-miterlimit="10" points="860.041,522.772 860.041,522.772 
	938.98,485.688 "/>
<polyline fill="none" stroke="#045454" stroke-width="2.9633" stroke-miterlimit="10" points="1132.434,798.649 1132.434,798.649 
	1265.971,843.331 "/>
<polyline fill="none" stroke="#045454" stroke-width="2.9633" stroke-miterlimit="10" points="1132.434,798.649 1132.434,798.649 
	1154.146,738.861 "/>
<polyline fill="none" stroke="#045454" stroke-width="2.9633" stroke-miterlimit="10" points="1132.434,798.649 1132.434,798.649 
	1137.133,880.996 "/>
<polyline fill="none" stroke="#045454" stroke-width="2.9633" stroke-miterlimit="10" points="1047.043,267.892 1047.043,267.892 
	1081.738,299.892 "/>
<polyline fill="none" stroke="#045454" stroke-width="2.9633" stroke-miterlimit="10" points="818.105,306.24 818.105,306.24 
	863.297,254.921 "/>
<polyline fill="none" stroke="#045454" stroke-width="2.9633" stroke-miterlimit="10" points="818.105,306.24 818.105,306.24 
	857.08,325.363 "/>
<polyline fill="none" stroke="#045454" stroke-width="2.9633" stroke-miterlimit="10" points="1043.689,898.342 1043.689,898.342 
	1083.434,852.763 "/>
<polyline fill="none" stroke="#045454" stroke-width="2.9633" stroke-miterlimit="10" points="904.568,877.082 904.568,877.082 
	929.531,801.211 "/>
<polyline fill="none" stroke="#045454" stroke-width="2.9633" stroke-miterlimit="10" points="904.568,877.082 904.568,877.082 
	1022.398,860.623 "/>
<polyline fill="none" stroke="#045454" stroke-width="2.9633" stroke-miterlimit="10" points="788.242,317.817 788.242,317.817 
	828.643,408.152 "/>
<polyline fill="none" stroke="#045454" stroke-width="2.9633" stroke-miterlimit="10" points="788.242,317.817 788.242,317.817 
	818.105,306.24 "/>
<polyline fill="none" stroke="#045454" stroke-width="2.9633" stroke-miterlimit="10" points="649.143,492.114 649.143,492.114 
	693.865,474.899 "/>
<polyline fill="none" stroke="#045454" stroke-width="2.9633" stroke-miterlimit="10" points="598.217,829.604 598.217,829.604 
	629.996,800.936 "/>
<polyline fill="none" stroke="#045454" stroke-width="2.9633" stroke-miterlimit="10" points="598.217,829.604 598.217,829.604 
	636.539,888.643 "/>
<polyline fill="none" stroke="#045454" stroke-width="2.9633" stroke-miterlimit="10" points="685.188,214.519 685.188,214.519 
	736.42,260.156 "/>
<polyline fill="none" stroke="#045454" stroke-width="2.9633" stroke-miterlimit="10" points="685.188,214.519 685.188,214.519 
	735.25,174.7 "/>
<polyline fill="none" stroke="#045454" stroke-width="2.9633" stroke-miterlimit="10" points="785.004,750.58 785.004,750.58 
	829.129,767.492 "/>
<polyline fill="none" stroke="#045454" stroke-width="2.9633" stroke-miterlimit="10" points="785.004,750.58 785.004,750.58 
	828.813,614.851 "/>
<polyline fill="none" stroke="#045454" stroke-width="2.9633" stroke-miterlimit="10" points="599.824,747.942 599.824,747.942 
	612.117,688.086 "/>
<polyline fill="none" stroke="#045454" stroke-width="2.9633" stroke-miterlimit="10" points="599.824,747.942 599.824,747.942 
	629.996,800.936 "/>
<polyline fill="none" stroke="#045454" stroke-width="2.9633" stroke-miterlimit="10" points="599.824,747.942 599.824,747.942 
	646.809,714.456 "/>
<polyline fill="none" stroke="#045454" stroke-width="2.9633" stroke-miterlimit="10" points="735.25,174.7 735.25,174.7 
	807.725,194.213 "/>
<polyline fill="none" stroke="#045454" stroke-width="2.9633" stroke-miterlimit="10" points="735.25,174.7 735.25,174.7 
	736.42,260.156 "/>
<polyline fill="none" stroke="#045454" stroke-width="2.9633" stroke-miterlimit="10" points="1223.016,500.766 1223.016,500.766 
	1281.213,605.653 "/>
<polyline fill="none" stroke="#045454" stroke-width="2.9633" stroke-miterlimit="10" points="1223.016,500.766 1223.016,500.766 
	1245.814,436.928 "/>
<polyline fill="none" stroke="#045454" stroke-width="2.9633" stroke-miterlimit="10" points="674.279,368.411 674.279,368.411 
	705.545,341.363 "/>
<polyline fill="none" stroke="#045454" stroke-width="2.9633" stroke-miterlimit="10" points="674.279,368.411 674.279,368.411 
	705.564,447.49 "/>
<polyline fill="none" stroke="#045454" stroke-width="2.9633" stroke-miterlimit="10" points="1185.381,900.26 1185.381,900.26 
	1248.053,888.29 "/>
<polyline fill="none" stroke="#045454" stroke-width="2.9633" stroke-miterlimit="10" points="646.809,714.456 646.809,714.456 
	667.523,741.228 "/>
<polyline fill="none" stroke="#045454" stroke-width="2.9633" stroke-miterlimit="10" points="646.809,714.456 646.809,714.456 
	677.355,697.385 "/>
<polyline fill="none" stroke="#045454" stroke-width="2.9633" stroke-miterlimit="10" points="723.123,636.765 723.123,636.765 
	740.621,604.811 "/>
<polyline fill="none" stroke="#045454" stroke-width="2.9633" stroke-miterlimit="10" points="723.123,636.765 723.123,636.765 
	785.004,750.58 "/>
<polyline fill="none" stroke="#045454" stroke-width="2.9633" stroke-miterlimit="10" points="1197.029,233.867 1197.029,233.867 
	1201.297,339.898 "/>
<polyline fill="none" stroke="#045454" stroke-width="2.9633" stroke-miterlimit="10" points="1197.029,233.867 1197.029,233.867 
	1233.021,236.602 "/>
<polyline fill="none" stroke="#045454" stroke-width="2.9633" stroke-miterlimit="10" points="636.539,888.643 636.539,888.643 
	688.711,837.25 "/>
<polyline fill="none" stroke="#045454" stroke-width="2.9633" stroke-miterlimit="10" points="1233.021,236.602 1233.021,236.602 
	1284.658,294.432 "/>
<polyline fill="none" stroke="#045454" stroke-width="2.9633" stroke-miterlimit="10" points="1233.021,236.602 1233.021,236.602 
	1293.039,228.967 "/>
<polyline fill="none" stroke="#045454" stroke-width="2.9633" stroke-miterlimit="10" points="828.813,614.851 828.813,614.851 
	872.443,641.329 "/>
<polyline fill="none" stroke="#045454" stroke-width="2.9633" stroke-miterlimit="10" points="828.813,614.851 828.813,614.851 
	860.041,522.772 "/>
<polyline fill="none" stroke="#045454" stroke-width="2.9633" stroke-miterlimit="10" points="1147.373,444.892 1147.373,444.892 
	1150.277,499.735 "/>
<polyline fill="none" stroke="#045454" stroke-width="2.9633" stroke-miterlimit="10" points="1147.373,444.892 1147.373,444.892 
	1245.814,436.928 "/>
<polyline fill="none" stroke="#045454" stroke-width="2.9633" stroke-miterlimit="10" points="1147.373,444.892 1147.373,444.892 
	1221.939,396.956 "/>
<polyline fill="none" stroke="#045454" stroke-width="2.9633" stroke-miterlimit="10" points="938.854,377.186 938.854,377.186 
	984.467,365.273 "/>
<polyline fill="none" stroke="#045454" stroke-width="2.9633" stroke-miterlimit="10" points="938.854,377.186 938.854,377.186 
	963.268,424.012 "/>
<polyline fill="none" stroke="#045454" stroke-width="2.9633" stroke-miterlimit="10" points="1221.939,396.956 1221.939,396.956 
	1281.33,359.386 "/>
<polyline fill="none" stroke="#045454" stroke-width="2.9633" stroke-miterlimit="10" points="1221.939,396.956 1221.939,396.956 
	1245.814,436.928 "/>
<polyline fill="none" stroke="#045454" stroke-width="2.9633" stroke-miterlimit="10" points="705.564,447.49 705.564,447.49 
	797.533,458.985 "/>
<polyline fill="none" stroke="#045454" stroke-width="2.9633" stroke-miterlimit="10" points="577.029,616.332 577.029,616.332 
	606.357,569.802 "/>
<path fill="#E52620" stroke="#010202" stroke-width="1.3068" d="M872.252,903.43L872.252,903.43v-0.01
	c-0.002-1.965-0.785-3.846-2.178-5.232c-1.389-1.388-3.273-2.17-5.236-2.165c-1.965,0-3.844,0.784-5.234,2.169
	c-1.389,1.39-2.168,3.272-2.168,5.237c0,1.965,0.781,3.849,2.168,5.24c1.389,1.388,3.27,2.167,5.234,2.167
	c1.963,0.006,3.846-0.775,5.236-2.156c1.393-1.39,2.176-3.272,2.178-5.232V903.43z"/>
<path fill="#E52620" stroke="#010202" stroke-width="1.3068" d="M1174.953,689.719L1174.953,689.719v-0.011
	c-0.006-1.965-0.787-3.846-2.182-5.232c-1.387-1.387-3.271-2.163-5.236-2.163s-3.842,0.782-5.232,2.168
	c-1.389,1.394-2.17,3.278-2.17,5.238c0,1.966,0.783,3.848,2.17,5.239c1.389,1.389,3.268,2.168,5.232,2.175
	c1.965,0,3.848-0.779,5.236-2.165c1.395-1.39,2.176-3.272,2.182-5.232V689.719z"/>
<path fill="#E52620" stroke="#010202" stroke-width="1.3068" d="M836.539,767.492L836.539,767.492v-0.01
	c-0.006-1.965-0.787-3.849-2.178-5.232c-1.389-1.39-3.273-2.165-5.24-2.165c-1.961,0-3.844,0.781-5.23,2.169
	c-1.389,1.391-2.17,3.272-2.17,5.237s0.781,3.846,2.17,5.237c1.387,1.387,3.27,2.169,5.23,2.175c1.967,0,3.85-0.781,5.24-2.165
	c1.391-1.387,2.172-3.272,2.178-5.232V767.492z"/>
<path fill="#E52620" stroke="#010202" stroke-width="1.3068" d="M982.926,791.183L982.926,791.183v-0.015
	c0-1.966-0.787-3.844-2.174-5.232c-1.393-1.39-3.277-2.164-5.238-2.164c-1.965,0.005-3.848,0.786-5.236,2.174
	c-1.391,1.387-2.166,3.272-2.166,5.237c0,1.96,0.777,3.841,2.166,5.232c1.387,1.394,3.271,2.174,5.236,2.174
	c1.961,0,3.842-0.775,5.238-2.164c1.389-1.383,2.174-3.267,2.174-5.232V791.183z"/>
<path fill="#E52620" stroke="#010202" stroke-width="1.3068" d="M655.666,590.226L655.666,590.226v-0.01
	c-0.004-1.965-0.787-3.849-2.178-5.232c-1.389-1.388-3.273-2.165-5.238-2.165c-1.963,0-3.844,0.782-5.234,2.169
	c-1.387,1.391-2.166,3.277-2.166,5.237c0,1.965,0.779,3.849,2.166,5.238c1.389,1.39,3.271,2.168,5.234,2.174
	c1.965,0,3.85-0.776,5.238-2.163c1.391-1.389,2.174-3.267,2.178-5.232V590.226z"/>
<path fill="#E52620" stroke="#010202" stroke-width="1.3068" d="M973.451,648.041L973.451,648.041v-0.016
	c0-1.96-0.785-3.843-2.174-5.232c-1.387-1.386-3.271-2.165-5.238-2.165c-1.965,0.005-3.848,0.786-5.236,2.175
	c-1.387,1.387-2.164,3.272-2.164,5.237c0,1.96,0.781,3.843,2.164,5.237c1.387,1.39,3.271,2.169,5.236,2.169
	c1.967,0,3.85-0.776,5.238-2.165c1.389-1.383,2.174-3.267,2.174-5.232V648.041z"/>
<path fill="#E52620" stroke="#010202" stroke-width="1.3068" d="M1273.377,843.331L1273.377,843.331v-0.013
	c-0.004-1.966-0.787-3.847-2.174-5.232c-1.393-1.387-3.277-2.167-5.244-2.162c-1.961,0-3.842,0.781-5.232,2.167
	c-1.389,1.39-2.168,3.274-2.168,5.24c0,1.965,0.781,3.846,2.168,5.237c1.389,1.388,3.271,2.169,5.232,2.169
	c1.967,0.005,3.85-0.778,5.244-2.159c1.389-1.39,2.17-3.272,2.174-5.232V843.331z"/>
<path fill="#E52620" stroke="#010202" stroke-width="1.3068" d="M1288.619,605.653L1288.619,605.653v-0.017
	c-0.006-1.965-0.787-3.841-2.174-5.232c-1.393-1.387-3.279-2.164-5.238-2.164c-1.967,0.005-3.848,0.788-5.238,2.174
	c-1.389,1.39-2.17,3.273-2.17,5.238c0,1.96,0.783,3.843,2.17,5.233c1.389,1.388,3.271,2.173,5.238,2.173
	c1.959,0,3.844-0.777,5.238-2.163c1.389-1.39,2.168-3.267,2.174-5.232V605.653z"/>
<path fill="#E52620" stroke="#010202" stroke-width="1.3068" d="M936.943,801.211L936.943,801.211v-0.015
	c-0.006-1.96-0.787-3.844-2.18-5.232c-1.393-1.386-3.275-2.165-5.238-2.16c-1.967,0-3.844,0.781-5.236,2.169
	c-1.389,1.387-2.166,3.272-2.166,5.237c0,1.965,0.779,3.849,2.166,5.237c1.391,1.39,3.27,2.169,5.236,2.169
	c1.963,0.005,3.842-0.776,5.238-2.159c1.393-1.387,2.174-3.272,2.18-5.232V801.211z"/>
<path fill="#E52620" stroke="#010202" stroke-width="1.3068" d="M1096.246,770.227L1096.246,770.227v-0.015
	c-0.006-1.966-0.785-3.844-2.18-5.232c-1.389-1.39-3.271-2.164-5.236-2.164c-1.961,0.005-3.844,0.786-5.232,2.174
	c-1.391,1.387-2.17,3.272-2.17,5.237c0,1.96,0.783,3.844,2.17,5.237c1.389,1.39,3.271,2.169,5.232,2.169
	c1.965,0,3.848-0.776,5.236-2.164c1.395-1.384,2.174-3.268,2.18-5.232V770.227z"/>
<path fill="#E52620" stroke="#010202" stroke-width="1.3068" d="M816.648,893.539L816.648,893.539v-0.01
	c-0.006-1.968-0.787-3.849-2.178-5.234c-1.389-1.387-3.275-2.162-5.24-2.162c-1.963,0-3.846,0.781-5.232,2.169
	c-1.387,1.391-2.168,3.277-2.168,5.237c0,1.965,0.781,3.847,2.168,5.237c1.387,1.387,3.27,2.169,5.232,2.175
	c1.965,0,3.85-0.776,5.24-2.165c1.393-1.387,2.172-3.267,2.178-5.232V893.539z"/>
<path fill="#E52620" stroke="#010202" stroke-width="1.3068" d="M815.133,194.213L815.133,194.213v-0.014
	c-0.004-1.962-0.785-3.845-2.178-5.232c-1.389-1.386-3.273-2.164-5.236-2.164c-1.965,0.002-3.85,0.784-5.234,2.172
	c-1.389,1.389-2.17,3.275-2.17,5.238c0,1.962,0.781,3.845,2.17,5.237c1.385,1.388,3.27,2.169,5.234,2.172
	c1.963,0,3.846-0.776,5.236-2.165c1.393-1.385,2.174-3.267,2.178-5.232V194.213z"/>
<path fill="#E52620" stroke="#010202" stroke-width="1.3068" d="M1288.736,359.386L1288.736,359.386v-0.013
	c-0.004-1.965-0.787-3.846-2.174-5.232c-1.393-1.388-3.277-2.164-5.238-2.164c-1.967,0.003-3.848,0.784-5.238,2.172
	c-1.389,1.39-2.168,3.275-2.168,5.237c0,1.963,0.783,3.846,2.168,5.237c1.389,1.388,3.273,2.169,5.238,2.172
	c1.961,0,3.844-0.778,5.238-2.164c1.389-1.386,2.17-3.27,2.174-5.232V359.386z"/>
<path fill="#E52620" stroke="#010202" stroke-width="1.3068" d="M566.162,214.396L566.162,214.396v-0.013
	c-0.002-1.962-0.787-3.846-2.174-5.233c-1.391-1.386-3.275-2.164-5.24-2.164c-1.963,0.002-3.846,0.784-5.236,2.175
	c-1.385,1.388-2.164,3.272-2.164,5.235c0,1.962,0.779,3.845,2.164,5.237c1.389,1.388,3.273,2.169,5.236,2.172
	c1.965,0,3.848-0.776,5.24-2.164c1.387-1.386,2.172-3.267,2.174-5.232V214.396z"/>
<path fill="#E52620" stroke="#010202" stroke-width="1.3068" d="M1208.703,339.898L1208.703,339.898v-0.013
	c-0.006-1.966-0.787-3.846-2.174-5.235c-1.393-1.386-3.277-2.164-5.244-2.162c-1.959,0.003-3.842,0.785-5.23,2.172
	s-2.17,3.272-2.17,5.237c0,1.962,0.783,3.846,2.17,5.235c1.389,1.389,3.271,2.171,5.23,2.171c1.967,0.002,3.848-0.776,5.244-2.161
	c1.387-1.387,2.168-3.27,2.174-5.232V339.898z"/>
<path fill="#E52620" stroke="#010202" stroke-width="1.3068" d="M696.121,837.25L696.121,837.25v-0.01
	c-0.004-1.966-0.787-3.849-2.176-5.232c-1.391-1.39-3.275-2.164-5.238-2.164c-1.967,0-3.846,0.781-5.234,2.169
	c-1.389,1.391-2.168,3.277-2.168,5.237c0,1.966,0.779,3.85,2.168,5.237c1.387,1.39,3.268,2.169,5.234,2.175
	c1.963,0,3.846-0.781,5.238-2.164c1.389-1.387,2.172-3.272,2.176-5.232V837.25z"/>
<path fill="#E52620" stroke="#010202" stroke-width="1.3068" d="M870.707,254.921L870.707,254.921v-0.014
	c-0.002-1.963-0.787-3.843-2.178-5.232c-1.391-1.387-3.273-2.164-5.236-2.161c-1.965,0-3.846,0.781-5.234,2.172
	c-1.389,1.387-2.168,3.272-2.168,5.235c0,1.965,0.779,3.848,2.168,5.237c1.387,1.389,3.27,2.169,5.234,2.171
	c1.963,0.003,3.844-0.776,5.236-2.161c1.391-1.388,2.176-3.27,2.178-5.235V254.921z"/>
<path fill="#E52620" stroke="#010202" stroke-width="1.3068" d="M991.873,365.273L991.873,365.273v-0.013
	c0-1.963-0.787-3.846-2.176-5.232c-1.391-1.388-3.277-2.165-5.238-2.165c-1.965,0.003-3.848,0.785-5.236,2.172
	c-1.389,1.39-2.164,3.274-2.164,5.237c0,1.963,0.777,3.846,2.164,5.238c1.389,1.388,3.271,2.169,5.236,2.172
	c1.961,0,3.844-0.779,5.238-2.164c1.389-1.386,2.176-3.27,2.176-5.232V365.273z"/>
<path fill="#E52620" stroke="#010202" stroke-width="1.3068" d="M735.939,523.062L735.939,523.062v-0.015
	c-0.002-1.963-0.787-3.844-2.178-5.233c-1.391-1.387-3.273-2.164-5.236-2.161c-1.965,0.002-3.846,0.784-5.234,2.172
	c-1.391,1.388-2.168,3.272-2.168,5.237c0,1.962,0.779,3.846,2.168,5.235c1.387,1.389,3.27,2.172,5.234,2.172
	c1.963,0.002,3.846-0.776,5.236-2.161c1.391-1.388,2.176-3.27,2.178-5.232V523.062z"/>
<path fill="#E52620" stroke="#010202" stroke-width="1.3068" d="M1089.146,299.892L1089.146,299.892v-0.013
	c0-1.963-0.787-3.846-2.176-5.232c-1.387-1.386-3.277-2.164-5.236-2.161c-1.965,0-3.85,0.781-5.238,2.171
	c-1.389,1.388-2.164,3.272-2.164,5.235c0,1.965,0.775,3.849,2.164,5.237c1.387,1.389,3.273,2.17,5.238,2.172
	c1.959,0.003,3.848-0.776,5.236-2.162c1.389-1.387,2.176-3.269,2.176-5.235V299.892z"/>
<path fill="#E52620" stroke="#010202" stroke-width="1.3068" d="M1161.553,738.861L1161.553,738.861v-0.01
	c0-1.965-0.787-3.849-2.174-5.232c-1.389-1.389-3.273-2.164-5.238-2.164s-3.848,0.781-5.238,2.169
	c-1.387,1.391-2.164,3.277-2.164,5.237c0,1.965,0.777,3.849,2.164,5.237c1.389,1.39,3.273,2.169,5.238,2.174
	c1.965,0,3.848-0.781,5.238-2.164c1.387-1.387,2.174-3.272,2.174-5.232V738.861z"/>
<path fill="#E52620" stroke="#010202" stroke-width="1.3068" d="M1210.5,750.663L1210.5,750.663v-0.018
	c-0.006-1.96-0.787-3.841-2.18-5.232c-1.389-1.383-3.271-2.162-5.238-2.157c-1.965,0-3.842,0.781-5.23,2.169
	c-1.389,1.387-2.17,3.272-2.17,5.237s0.781,3.846,2.17,5.237c1.389,1.388,3.266,2.169,5.23,2.169
	c1.967,0.005,3.848-0.778,5.238-2.165c1.393-1.383,2.174-3.267,2.18-5.232V750.663z"/>
<path fill="#E52620" stroke="#010202" stroke-width="1.3068" d="M1157.684,499.735L1157.684,499.735v-0.013
	c-0.006-1.965-0.787-3.846-2.174-5.234c-1.393-1.389-3.277-2.165-5.244-2.162c-1.959,0.002-3.842,0.784-5.23,2.172
	s-2.17,3.272-2.17,5.237c0,1.963,0.781,3.846,2.17,5.235c1.389,1.391,3.271,2.171,5.23,2.171c1.967,0.002,3.848-0.776,5.244-2.161
	c1.387-1.387,2.168-3.27,2.174-5.232V499.735z"/>
<path fill="#E52620" stroke="#010202" stroke-width="1.3068" d="M701.275,474.899L701.275,474.899v-0.013
	c-0.006-1.965-0.787-3.846-2.178-5.232c-1.389-1.388-3.273-2.164-5.24-2.164c-1.963,0.003-3.846,0.785-5.23,2.172
	c-1.389,1.391-2.17,3.274-2.17,5.237c0,1.962,0.781,3.846,2.17,5.237c1.385,1.388,3.268,2.17,5.23,2.172
	c1.967,0,3.85-0.778,5.24-2.164c1.393-1.385,2.172-3.27,2.178-5.233V474.899z"/>
<path fill="#E52620" stroke="#010202" stroke-width="1.3068" d="M947.535,200.747L947.535,200.747v-0.014
	c0-1.962-0.785-3.846-2.174-5.232c-1.387-1.386-3.271-2.164-5.238-2.161c-1.965,0-3.842,0.781-5.23,2.172
	c-1.389,1.387-2.176,3.272-2.176,5.235c0,1.965,0.787,3.848,2.176,5.237s3.266,2.169,5.23,2.172c1.967,0.002,3.85-0.776,5.238-2.165
	c1.391-1.386,2.174-3.267,2.174-5.232V200.747z"/>
<path fill="#E52620" stroke="#010202" stroke-width="1.3068" d="M594.379,789.365L594.379,789.365v-0.017
	c-0.002-1.96-0.787-3.841-2.178-5.232c-1.389-1.383-3.273-2.164-5.236-2.159c-1.963,0-3.848,0.783-5.236,2.169
	c-1.389,1.39-2.166,3.271-2.166,5.238c0,1.966,0.779,3.848,2.166,5.239c1.389,1.388,3.273,2.169,5.236,2.169
	c1.963,0.005,3.848-0.779,5.236-2.16c1.391-1.389,2.176-3.272,2.178-5.232V789.365z"/>
<path fill="#E52620" stroke="#010202" stroke-width="1.3068" d="M1292.064,294.432L1292.064,294.432v-0.013
	c0-1.966-0.787-3.846-2.174-5.232c-1.389-1.387-3.277-2.167-5.238-2.164c-1.965,0.003-3.846,0.785-5.236,2.172
	c-1.389,1.388-2.164,3.272-2.164,5.237c0,1.963,0.777,3.846,2.164,5.235c1.389,1.39,3.271,2.172,5.236,2.172
	c1.961,0.003,3.848-0.776,5.238-2.161c1.389-1.385,2.174-3.27,2.174-5.232V294.432z"/>
<path fill="#E52620" stroke="#010202" stroke-width="1.3068" d="M674.932,741.228L674.932,741.228v-0.015
	c-0.002-1.96-0.785-3.841-2.178-5.232c-1.389-1.383-3.273-2.164-5.236-2.159c-1.965,0-3.846,0.784-5.234,2.169
	c-1.389,1.39-2.168,3.272-2.168,5.237c0,1.968,0.781,3.849,2.168,5.24c1.389,1.389,3.27,2.167,5.234,2.167
	c1.963,0.007,3.846-0.776,5.236-2.157c1.393-1.39,2.176-3.272,2.178-5.237V741.228z"/>
<path fill="#E52620" stroke="#010202" stroke-width="1.3068" d="M1090.846,852.763L1090.846,852.763v-0.015
	c-0.006-1.961-0.787-3.844-2.18-5.235c-1.389-1.383-3.271-2.161-5.236-2.156c-1.961,0-3.844,0.781-5.232,2.169
	c-1.391,1.387-2.17,3.272-2.17,5.237c0,1.966,0.781,3.85,2.17,5.237c1.387,1.389,3.271,2.17,5.232,2.17
	c1.965,0.005,3.848-0.776,5.236-2.164c1.393-1.384,2.174-3.268,2.18-5.233V852.763z"/>
<path fill="#E52620" stroke="#010202" stroke-width="1.3068" d="M1300.447,228.967L1300.447,228.967v-0.013
	c-0.006-1.963-0.787-3.846-2.176-5.232c-1.393-1.387-3.277-2.165-5.242-2.162c-1.961,0-3.842,0.782-5.232,2.172
	c-1.389,1.388-2.168,3.272-2.168,5.235c0,1.966,0.781,3.849,2.168,5.238s3.271,2.169,5.232,2.172
	c1.965,0.002,3.848-0.776,5.242-2.164c1.389-1.386,2.17-3.267,2.176-5.232V228.967z"/>
<path fill="#E52620" stroke="#010202" stroke-width="1.3068" d="M1148.002,338.735L1148.002,338.735v-0.016
	c-0.008-1.962-0.789-3.843-2.176-5.232c-1.393-1.386-3.277-2.165-5.238-2.162c-1.965,0.002-3.848,0.784-5.236,2.172
	c-1.389,1.388-2.17,3.272-2.17,5.237c0,1.963,0.781,3.846,2.17,5.235c1.389,1.389,3.271,2.171,5.236,2.171
	c1.961,0.003,3.844-0.776,5.238-2.161c1.389-1.388,2.168-3.27,2.176-5.232V338.735z"/>
<path fill="#E52620" stroke="#010202" stroke-width="1.3068" d="M836.049,408.152L836.049,408.152v-0.016
	c-0.002-1.962-0.787-3.843-2.178-5.232c-1.387-1.387-3.273-2.165-5.236-2.162s-3.846,0.784-5.234,2.172s-2.168,3.272-2.168,5.237
	c0,1.963,0.779,3.846,2.168,5.235s3.271,2.171,5.234,2.171c1.963,0.002,3.848-0.776,5.236-2.161c1.391-1.388,2.176-3.27,2.178-5.232
	V408.152z"/>
<path fill="#E52620" stroke="#010202" stroke-width="1.3068" d="M1127.576,554.785L1127.576,554.785v-0.01
	c-0.004-1.965-0.787-3.848-2.18-5.238c-1.389-1.386-3.271-2.164-5.236-2.159c-1.965,0-3.842,0.783-5.232,2.169
	c-1.389,1.387-2.17,3.271-2.17,5.237s0.783,3.849,2.17,5.239c1.389,1.39,3.268,2.168,5.232,2.168
	c1.965,0.006,3.848-0.775,5.236-2.157c1.393-1.389,2.176-3.273,2.18-5.233V554.785z"/>
<path fill="#E52620" stroke="#010202" stroke-width="1.3068" d="M609.184,447.12L609.184,447.12v-0.013
	c-0.002-1.962-0.787-3.846-2.174-5.232c-1.391-1.387-3.273-2.164-5.238-2.161c-1.963,0-3.848,0.781-5.236,2.171
	c-1.387,1.388-2.166,3.273-2.166,5.235c0,1.966,0.781,3.848,2.166,5.237c1.389,1.388,3.273,2.169,5.236,2.172
	c1.965,0.002,3.846-0.777,5.238-2.165c1.387-1.386,2.172-3.267,2.174-5.232V447.12z"/>
<path fill="#E52620" stroke="#010202" stroke-width="1.3068" d="M804.943,458.985L804.943,458.985v-0.014
	c-0.006-1.965-0.789-3.845-2.178-5.232c-1.389-1.388-3.273-2.167-5.24-2.165c-1.961,0.003-3.846,0.785-5.234,2.172
	c-1.387,1.391-2.166,3.272-2.166,5.238c0,1.963,0.781,3.846,2.166,5.235c1.387,1.39,3.273,2.172,5.234,2.175
	c1.967,0,3.85-0.779,5.24-2.165c1.389-1.387,2.172-3.27,2.178-5.232V458.985z"/>
<path fill="#E52620" stroke="#010202" stroke-width="1.3068" d="M875.373,205.291L875.373,205.291v-0.013
	c-0.006-1.963-0.791-3.846-2.178-5.232c-1.391-1.387-3.275-2.164-5.24-2.164c-1.963,0.002-3.846,0.783-5.232,2.171
	c-1.389,1.392-2.168,3.275-2.168,5.238s0.779,3.846,2.168,5.237c1.387,1.388,3.27,2.169,5.232,2.172c1.965,0,3.848-0.776,5.24-2.164
	c1.387-1.387,2.172-3.268,2.178-5.232V205.291z"/>
<path fill="#E52620" stroke="#010202" stroke-width="1.3068" d="M712.953,341.363L712.953,341.363v-0.013
	c-0.002-1.965-0.787-3.846-2.176-5.232c-1.391-1.388-3.275-2.167-5.238-2.164c-1.965,0.003-3.846,0.784-5.234,2.172
	c-1.389,1.388-2.166,3.272-2.166,5.237c0,1.963,0.777,3.846,2.166,5.235c1.389,1.39,3.27,2.172,5.234,2.172
	c1.963,0.003,3.846-0.776,5.238-2.161c1.391-1.385,2.174-3.27,2.176-5.232V341.363z"/>
<path fill="#E52620" stroke="#010202" stroke-width="1.3068" d="M1081.127,498.64L1081.127,498.64v-0.012
	c0-1.966-0.789-3.847-2.174-5.233c-1.391-1.388-3.279-2.167-5.24-2.164c-1.965,0.002-3.848,0.784-5.238,2.172
	c-1.389,1.388-2.162,3.272-2.162,5.237c0,1.963,0.777,3.846,2.162,5.235c1.391,1.391,3.273,2.172,5.238,2.172
	c1.961,0.002,3.848-0.776,5.24-2.161c1.387-1.386,2.174-3.27,2.174-5.233V498.64z"/>
<path fill="#E52620" stroke="#010202" stroke-width="1.3068" d="M1280.209,740.096L1280.209,740.096v-0.018
	c-0.006-1.96-0.787-3.841-2.18-5.232c-1.389-1.384-3.273-2.162-5.238-2.157c-1.967,0-3.844,0.781-5.232,2.167
	c-1.389,1.39-2.17,3.274-2.17,5.24s0.781,3.846,2.17,5.237c1.389,1.388,3.266,2.169,5.232,2.169
	c1.965,0.005,3.848-0.778,5.238-2.159c1.393-1.389,2.174-3.272,2.18-5.237V740.096z"/>
<path fill="#E52620" stroke="#010202" stroke-width="1.3068" d="M684.764,697.385L684.764,697.385v-0.015
	c-0.002-1.965-0.787-3.843-2.176-5.232c-1.391-1.39-3.275-2.165-5.238-2.165c-1.965,0.005-3.846,0.789-5.234,2.174
	c-1.389,1.386-2.166,3.272-2.166,5.237c0,1.96,0.777,3.844,2.166,5.232c1.387,1.39,3.27,2.174,5.234,2.174
	c1.963,0,3.846-0.775,5.238-2.164c1.391-1.387,2.174-3.265,2.176-5.231V697.385z"/>
<path fill="#E52620" stroke="#010202" stroke-width="1.3068" d="M961.527,526.013L961.527,526.013V526
	c-0.006-1.962-0.785-3.845-2.18-5.232c-1.389-1.388-3.271-2.165-5.236-2.165c-1.967,0.003-3.846,0.784-5.232,2.172
	c-1.391,1.391-2.17,3.274-2.17,5.238c0,1.963,0.781,3.845,2.17,5.237c1.387,1.388,3.266,2.169,5.232,2.172
	c1.965,0,3.846-0.776,5.236-2.164c1.395-1.387,2.174-3.27,2.18-5.232V526.013z"/>
<path fill="#E52620" stroke="#010202" stroke-width="1.3068" d="M566.074,908.607L566.074,908.607v-0.017
	c-0.006-1.96-0.787-3.841-2.178-5.232c-1.389-1.39-3.275-2.165-5.236-2.165c-1.967,0.005-3.848,0.789-5.236,2.175
	c-1.389,1.39-2.168,3.272-2.168,5.237c0,1.96,0.781,3.844,2.168,5.24c1.389,1.387,3.27,2.167,5.236,2.167
	c1.961,0,3.846-0.776,5.236-2.162c1.391-1.386,2.172-3.267,2.178-5.232V908.607z"/>
<path fill="#E52620" stroke="#010202" stroke-width="1.3068" d="M1013.666,319.429L1013.666,319.429v-0.013
	c0-1.963-0.789-3.846-2.176-5.232c-1.393-1.388-3.277-2.164-5.238-2.164c-1.965,0.003-3.848,0.784-5.238,2.172
	c-1.387,1.39-2.164,3.274-2.164,5.237s0.777,3.846,2.164,5.238c1.389,1.388,3.273,2.168,5.238,2.171
	c1.961,0,3.842-0.779,5.238-2.164c1.389-1.387,2.176-3.27,2.176-5.232V319.429z"/>
<path fill="#E52620" stroke="#010202" stroke-width="1.3068" d="M634.633,536.715L634.633,536.715v-0.013
	c-0.006-1.963-0.789-3.846-2.178-5.232c-1.389-1.386-3.273-2.164-5.238-2.161c-1.963,0-3.846,0.781-5.232,2.171
	c-1.389,1.388-2.17,3.272-2.17,5.235c0,1.965,0.781,3.849,2.17,5.238c1.387,1.389,3.27,2.169,5.232,2.169
	c1.965,0.005,3.848-0.775,5.238-2.159c1.389-1.388,2.172-3.272,2.178-5.235V536.715z"/>
<path fill="#E52620" stroke="#010202" stroke-width="1.3068" d="M864.486,325.363L864.486,325.363v-0.013
	c-0.002-1.965-0.787-3.846-2.174-5.232c-1.391-1.388-3.273-2.164-5.24-2.164c-1.963,0.002-3.846,0.784-5.234,2.172
	c-1.387,1.39-2.166,3.274-2.166,5.237s0.781,3.846,2.166,5.238c1.387,1.388,3.271,2.168,5.234,2.171c1.967,0,3.848-0.778,5.24-2.164
	c1.387-1.387,2.172-3.27,2.174-5.232V325.363z"/>
<path fill="#E52620" stroke="#010202" stroke-width="1.3068" d="M743.826,260.156L743.826,260.156v-0.015
	c-0.002-1.963-0.787-3.844-2.174-5.233c-1.391-1.386-3.275-2.164-5.242-2.161c-1.963,0.003-3.844,0.784-5.234,2.172
	c-1.385,1.388-2.166,3.272-2.166,5.237c0,1.963,0.781,3.846,2.166,5.235c1.389,1.388,3.271,2.172,5.234,2.172
	c1.967,0.002,3.85-0.776,5.242-2.161c1.387-1.388,2.172-3.27,2.174-5.232V260.156z"/>
<path fill="#E52620" stroke="#010202" stroke-width="1.3068" d="M583.813,666.142L583.813,666.142v-0.011
	c-0.004-1.965-0.787-3.848-2.178-5.232c-1.391-1.388-3.275-2.164-5.238-2.164c-1.965,0-3.846,0.782-5.234,2.168
	c-1.389,1.393-2.166,3.278-2.166,5.238c0,1.965,0.777,3.848,2.166,5.239c1.387,1.388,3.27,2.168,5.234,2.173
	c1.963,0,3.846-0.782,5.238-2.163c1.391-1.39,2.174-3.272,2.178-5.232V666.142z"/>
<path fill="#E52620" stroke="#010202" stroke-width="1.3068" d="M1067.33,527.011L1067.33,527.011v-0.013
	c-0.006-1.962-0.787-3.846-2.182-5.232c-1.387-1.388-3.271-2.165-5.236-2.165c-1.959,0.003-3.842,0.785-5.232,2.172
	c-1.389,1.39-2.17,3.274-2.17,5.237c0,1.962,0.783,3.846,2.17,5.237c1.389,1.39,3.273,2.169,5.232,2.172
	c1.965,0,3.85-0.776,5.236-2.164c1.395-1.386,2.176-3.269,2.182-5.232V527.011z"/>
<path fill="#E52620" stroke="#010202" stroke-width="1.3068" d="M748.029,604.811L748.029,604.811v-0.01
	c-0.002-1.965-0.787-3.849-2.176-5.232c-1.393-1.39-3.275-2.165-5.238-2.165c-1.965,0-3.846,0.781-5.234,2.174
	c-1.389,1.389-2.166,3.272-2.166,5.232c0,1.965,0.777,3.849,2.166,5.237c1.387,1.39,3.27,2.169,5.234,2.175
	c1.963,0,3.846-0.776,5.238-2.165c1.391-1.387,2.174-3.267,2.176-5.232V604.811z"/>
<path fill="#E52620" stroke="#010202" stroke-width="1.3068" d="M1076.18,670.219L1076.18,670.219v-0.016
	c-0.004-1.965-0.787-3.842-2.174-5.232c-1.395-1.388-3.277-2.165-5.244-2.165c-1.959,0.006-3.842,0.789-5.232,2.175
	c-1.389,1.388-2.168,3.271-2.168,5.237c0,1.96,0.781,3.844,2.168,5.239c1.389,1.388,3.273,2.169,5.232,2.169
	c1.967,0,3.848-0.777,5.244-2.163c1.387-1.386,2.17-3.267,2.174-5.233V670.219z"/>
<path fill="#E52620" stroke="#010202" stroke-width="1.3068" d="M613.766,569.802L613.766,569.802v-0.01
	c-0.004-1.965-0.789-3.849-2.178-5.232c-1.391-1.39-3.273-2.164-5.238-2.164c-1.963,0-3.848,0.782-5.234,2.174
	c-1.389,1.387-2.168,3.272-2.168,5.232c0,1.965,0.781,3.848,2.168,5.237c1.387,1.389,3.271,2.17,5.234,2.175
	c1.965,0,3.848-0.776,5.238-2.164c1.389-1.388,2.174-3.267,2.178-5.233V569.802z"/>
<path fill="#E52620" stroke="#010202" stroke-width="1.3068" d="M713.174,810.932L713.174,810.932v-0.013
	c-0.006-1.966-0.787-3.846-2.178-5.232c-1.391-1.387-3.273-2.162-5.24-2.162c-1.963,0-3.846,0.781-5.232,2.167
	c-1.387,1.393-2.168,3.274-2.168,5.24c0,1.965,0.781,3.846,2.168,5.237c1.387,1.387,3.27,2.169,5.232,2.174
	c1.967,0,3.848-0.784,5.24-2.165c1.391-1.39,2.172-3.272,2.178-5.232V810.932z"/>
<path fill="#E52620" stroke="#010202" stroke-width="1.3068" d="M1225.887,666.274L1225.887,666.274v-0.015
	c0-1.96-0.787-3.844-2.174-5.234c-1.389-1.384-3.277-2.163-5.238-2.158c-1.965,0-3.848,0.781-5.236,2.169
	c-1.391,1.387-2.166,3.272-2.166,5.237s0.777,3.849,2.166,5.237c1.387,1.388,3.271,2.169,5.236,2.169
	c1.961,0.005,3.85-0.776,5.238-2.159c1.387-1.389,2.174-3.272,2.174-5.232V666.274z"/>
<path fill="#E52620" stroke="#010202" stroke-width="1.3068" d="M780.156,512.2L780.156,512.2v-0.013
	c-0.004-1.965-0.787-3.846-2.176-5.232c-1.391-1.39-3.275-2.167-5.24-2.165c-1.963,0.002-3.846,0.784-5.234,2.172
	c-1.387,1.388-2.166,3.272-2.166,5.237c0,1.963,0.781,3.846,2.166,5.234c1.387,1.392,3.271,2.172,5.234,2.172
	c1.965,0.002,3.848-0.776,5.24-2.161c1.389-1.386,2.172-3.27,2.176-5.232V512.2z"/>
<path fill="#E52620" stroke="#010202" stroke-width="1.3068" d="M1077.293,413.861L1077.293,413.861v-0.013
	c-0.004-1.963-0.789-3.846-2.18-5.233c-1.389-1.387-3.271-2.164-5.236-2.161c-1.967,0-3.85,0.781-5.232,2.172
	c-1.389,1.388-2.17,3.272-2.17,5.235c0,1.965,0.781,3.848,2.17,5.237c1.383,1.388,3.266,2.169,5.232,2.172
	c1.965,0.002,3.848-0.776,5.236-2.164c1.391-1.386,2.176-3.267,2.18-5.233V413.861z"/>
<path fill="#E52620" stroke="#010202" stroke-width="1.3068" d="M879.852,641.329L879.852,641.329v-0.012
	c-0.002-1.965-0.787-3.847-2.178-5.237c-1.391-1.385-3.273-2.164-5.236-2.159c-1.965,0-3.846,0.781-5.234,2.168
	c-1.391,1.388-2.168,3.273-2.168,5.239c0,1.965,0.779,3.848,2.168,5.237c1.387,1.388,3.27,2.169,5.234,2.169
	c1.963,0.005,3.846-0.777,5.236-2.159c1.391-1.388,2.176-3.271,2.178-5.232V641.329z"/>
<path fill="#E52620" stroke="#010202" stroke-width="1.3068" d="M946.387,485.688L946.387,485.688v-0.013
	c-0.004-1.965-0.787-3.846-2.174-5.232c-1.389-1.388-3.277-2.165-5.236-2.165c-1.967,0.003-3.85,0.785-5.238,2.172
	c-1.391,1.39-2.166,3.274-2.166,5.237c0,1.962,0.777,3.846,2.166,5.237c1.387,1.388,3.271,2.169,5.238,2.172
	c1.959,0,3.848-0.778,5.236-2.164c1.389-1.385,2.17-3.269,2.174-5.232V485.688z"/>
<path fill="#E52620" stroke="#010202" stroke-width="1.3068" d="M1029.807,860.623L1029.807,860.623v-0.015
	c0-1.965-0.787-3.844-2.176-5.232c-1.387-1.39-3.277-2.165-5.236-2.165c-1.967,0.005-3.85,0.789-5.238,2.175
	c-1.389,1.387-2.164,3.272-2.164,5.237c0,1.96,0.775,3.844,2.164,5.232c1.387,1.394,3.271,2.175,5.238,2.175
	c1.959,0,3.848-0.776,5.236-2.163c1.391-1.385,2.176-3.267,2.176-5.233V860.623z"/>
<path fill="#E52620" stroke="#010202" stroke-width="1.3068" d="M589.775,358.12L589.775,358.12v-0.013
	c-0.002-1.962-0.787-3.846-2.178-5.232c-1.389-1.387-3.273-2.164-5.236-2.164c-1.965,0.002-3.846,0.784-5.234,2.174
	c-1.387,1.388-2.168,3.271-2.168,5.234c0,1.966,0.781,3.847,2.168,5.238c1.389,1.388,3.27,2.169,5.234,2.172
	c1.963,0,3.846-0.777,5.236-2.165c1.391-1.387,2.176-3.267,2.178-5.232V358.12z"/>
<path fill="#E52620" stroke="#010202" stroke-width="1.3068" d="M1071.748,613.299L1071.748,613.299v-0.01
	c-0.006-1.965-0.787-3.844-2.18-5.232c-1.389-1.389-3.273-2.164-5.238-2.164c-1.959,0-3.842,0.786-5.232,2.175
	c-1.389,1.388-2.17,3.271-2.17,5.232c0,1.965,0.783,3.849,2.17,5.237c1.389,1.39,3.273,2.169,5.232,2.174
	c1.965,0,3.85-0.775,5.238-2.164c1.393-1.387,2.174-3.267,2.18-5.232V613.299z"/>
<path fill="#E52620" stroke="#010202" stroke-width="1.3068" d="M896.369,715.128L896.369,715.128v-0.01
	c-0.006-1.966-0.789-3.849-2.178-5.232c-1.389-1.39-3.273-2.164-5.24-2.164c-1.961,0-3.846,0.781-5.23,2.169
	c-1.389,1.391-2.17,3.277-2.17,5.237c0,1.965,0.781,3.849,2.17,5.237c1.385,1.39,3.27,2.169,5.23,2.174
	c1.967,0,3.85-0.781,5.24-2.164c1.389-1.387,2.172-3.272,2.178-5.232V715.128z"/>
<path fill="#E52620" stroke="#010202" stroke-width="1.3068" d="M760.023,889.219L760.023,889.219v-0.015
	c-0.004-1.96-0.787-3.841-2.178-5.232c-1.387-1.384-3.273-2.165-5.236-2.16c-1.963,0-3.848,0.784-5.234,2.17
	c-1.391,1.39-2.168,3.272-2.168,5.237c0,1.965,0.779,3.849,2.168,5.24c1.387,1.389,3.271,2.167,5.234,2.167
	c1.963,0.006,3.848-0.775,5.236-2.157c1.391-1.389,2.174-3.272,2.178-5.237V889.219z"/>
<path fill="#E52620" stroke="#010202" stroke-width="1.3068" d="M819.248,228.655L819.248,228.655v-0.014
	c-0.004-1.965-0.787-3.845-2.176-5.232c-1.391-1.388-3.275-2.167-5.238-2.164c-1.965,0.002-3.846,0.784-5.234,2.172
	s-2.17,3.272-2.17,5.237c0,1.962,0.781,3.846,2.17,5.234c1.387,1.391,3.27,2.172,5.234,2.172c1.963,0.002,3.846-0.776,5.238-2.161
	c1.391-1.385,2.172-3.27,2.176-5.232V228.655z"/>
<path fill="#E52620" stroke="#010202" stroke-width="1.3068" d="M1064.521,447.492L1064.521,447.492v-0.013
	c-0.006-1.965-0.789-3.845-2.18-5.232c-1.389-1.388-3.273-2.167-5.238-2.165c-1.961,0.003-3.842,0.784-5.232,2.172
	c-1.389,1.388-2.17,3.272-2.17,5.237c0,1.963,0.783,3.846,2.17,5.235c1.389,1.391,3.271,2.171,5.232,2.171
	c1.965,0.003,3.848-0.776,5.238-2.161c1.391-1.386,2.174-3.27,2.18-5.232V447.492z"/>
<path fill="#E52620" stroke="#010202" stroke-width="1.3068" d="M1255.461,888.29L1255.461,888.29v-0.01
	c-0.006-1.965-0.787-3.847-2.176-5.232c-1.393-1.387-3.277-2.164-5.242-2.164c-1.961,0-3.844,0.783-5.232,2.169
	c-1.389,1.394-2.17,3.272-2.17,5.237c0,1.966,0.781,3.849,2.17,5.239c1.387,1.39,3.271,2.168,5.232,2.173
	c1.965,0,3.848-0.781,5.242-2.162c1.389-1.39,2.17-3.271,2.176-5.232V888.29z"/>
<path fill="#E52620" stroke="#010202" stroke-width="1.3068" d="M1009.928,771.724L1009.928,771.724v-0.017
	c-0.004-1.96-0.787-3.841-2.174-5.232c-1.393-1.383-3.277-2.165-5.236-2.159c-1.965,0-3.85,0.784-5.238,2.169
	c-1.391,1.39-2.17,3.272-2.17,5.239c0,1.966,0.781,3.848,2.17,5.238c1.387,1.389,3.273,2.169,5.238,2.169
	c1.959,0.005,3.842-0.778,5.236-2.159c1.389-1.39,2.17-3.272,2.174-5.232V771.724z"/>
<path fill="#E52620" stroke="#010202" stroke-width="1.3068" d="M619.525,688.086L619.525,688.086v-0.011
	c-0.002-1.966-0.787-3.841-2.176-5.232c-1.389-1.387-3.275-2.163-5.238-2.163s-3.846,0.782-5.234,2.174
	c-1.389,1.388-2.166,3.272-2.166,5.232c0,1.965,0.777,3.848,2.166,5.239c1.387,1.388,3.271,2.168,5.234,2.174
	c1.963,0,3.848-0.777,5.238-2.165c1.389-1.389,2.174-3.267,2.176-5.232V688.086z"/>
<path fill="#E52620" stroke="#010202" stroke-width="1.3068" d="M1144.545,880.996L1144.545,880.996v-0.01
	c-0.008-1.965-0.787-3.846-2.182-5.232c-1.389-1.388-3.271-2.169-5.236-2.165c-1.967,0-3.848,0.784-5.232,2.169
	c-1.389,1.39-2.17,3.272-2.17,5.237c0,1.965,0.781,3.849,2.17,5.238c1.385,1.389,3.266,2.168,5.232,2.168
	c1.965,0.006,3.846-0.775,5.236-2.156c1.395-1.39,2.174-3.272,2.182-5.232V880.996z"/>
<path fill="#E52620" stroke="#010202" stroke-width="1.3068" d="M1149.838,658.316L1149.838,658.316v-0.011
	c0-1.966-0.787-3.843-2.174-5.232c-1.393-1.389-3.277-2.163-5.238-2.163c-1.965,0-3.85,0.786-5.238,2.175
	c-1.391,1.387-2.164,3.271-2.164,5.232c0,1.965,0.777,3.848,2.164,5.237c1.389,1.388,3.273,2.169,5.238,2.174
	c1.961,0,3.842-0.775,5.238-2.164c1.387-1.389,2.174-3.267,2.174-5.232V658.316z"/>
<path fill="#E52620" stroke="#010202" stroke-width="1.3068" d="M637.404,800.936L637.404,800.936v-0.011
	c-0.002-1.965-0.787-3.843-2.178-5.232c-1.389-1.39-3.273-2.164-5.236-2.164c-1.965,0-3.846,0.786-5.234,2.175
	c-1.391,1.387-2.166,3.271-2.166,5.232c0,1.965,0.777,3.849,2.166,5.237c1.387,1.39,3.27,2.169,5.234,2.174
	c1.963,0,3.846-0.776,5.236-2.165c1.393-1.387,2.176-3.267,2.178-5.232V800.936z"/>
<path fill="#E52620" stroke="#010202" stroke-width="1.3068" d="M774.084,276.598L774.084,276.598v-0.013
	c-0.004-1.966-0.785-3.846-2.176-5.233c-1.391-1.388-3.275-2.167-5.24-2.164c-1.963,0.003-3.846,0.784-5.232,2.172
	s-2.17,3.272-2.17,5.237c0,1.963,0.783,3.846,2.17,5.235c1.387,1.39,3.27,2.172,5.232,2.172c1.965,0.002,3.85-0.776,5.24-2.161
	c1.393-1.385,2.172-3.27,2.176-5.233V276.598z"/>
<path fill="#E52620" stroke="#010202" stroke-width="1.3068" d="M970.68,424.012L970.68,424.012v-0.013
	c-0.006-1.963-0.785-3.846-2.18-5.232c-1.387-1.387-3.271-2.164-5.236-2.161c-1.967,0-3.844,0.781-5.232,2.171
	c-1.389,1.389-2.17,3.272-2.17,5.235c0,1.965,0.781,3.848,2.17,5.237c1.385,1.389,3.266,2.169,5.232,2.172
	c1.965,0.002,3.848-0.776,5.236-2.164c1.395-1.388,2.174-3.267,2.18-5.233V424.012z"/>
<path fill="#E52620" stroke="#010202" stroke-width="1.3068" d="M867.451,522.772L867.451,522.772v-0.013
	c-0.004-1.965-0.787-3.846-2.178-5.232c-1.391-1.388-3.275-2.165-5.238-2.165c-1.965,0.003-3.846,0.785-5.234,2.172
	c-1.389,1.39-2.166,3.271-2.166,5.237c0,1.963,0.777,3.846,2.166,5.235c1.389,1.39,3.27,2.171,5.234,2.174
	c1.963,0,3.848-0.779,5.238-2.165c1.393-1.385,2.174-3.27,2.178-5.232V522.772z"/>
<path fill="#E52620" stroke="#010202" stroke-width="1.3068" d="M1139.84,798.649L1139.84,798.649v-0.01
	c0-1.965-0.789-3.844-2.176-5.232c-1.393-1.39-3.277-2.165-5.238-2.165c-1.965,0-3.848,0.781-5.236,2.175
	c-1.389,1.387-2.164,3.272-2.164,5.232c0,1.965,0.777,3.849,2.164,5.237c1.389,1.39,3.271,2.17,5.236,2.175
	c1.961,0,3.844-0.776,5.238-2.165c1.389-1.387,2.176-3.267,2.176-5.232V798.649z"/>
<path fill="#E52620" stroke="#010202" stroke-width="1.3068" d="M1054.455,267.892L1054.455,267.892v-0.013
	c-0.004-1.962-0.789-3.846-2.18-5.232c-1.389-1.386-3.271-2.165-5.238-2.165c-1.965,0.003-3.842,0.785-5.232,2.172
	c-1.389,1.391-2.168,3.274-2.168,5.237c0,1.963,0.781,3.847,2.168,5.238c1.389,1.388,3.268,2.168,5.232,2.171
	c1.967,0,3.848-0.776,5.238-2.164c1.391-1.386,2.176-3.267,2.18-5.232V267.892z"/>
<path fill="#E52620" stroke="#010202" stroke-width="1.3068" d="M825.512,306.24L825.512,306.24v-0.013
	c-0.002-1.963-0.787-3.843-2.178-5.232c-1.387-1.387-3.273-2.164-5.236-2.161c-1.963,0-3.846,0.781-5.234,2.171
	c-1.389,1.389-2.168,3.272-2.168,5.235c0,1.966,0.779,3.848,2.168,5.237c1.387,1.389,3.271,2.169,5.234,2.172
	c1.963,0.003,3.848-0.776,5.236-2.161c1.391-1.388,2.176-3.269,2.178-5.235V306.24z"/>
<path fill="#E52620" stroke="#010202" stroke-width="1.3068" d="M1051.102,898.342L1051.102,898.342v-0.011
	c-0.004-1.965-0.785-3.849-2.18-5.232c-1.387-1.389-3.271-2.169-5.236-2.164c-1.965,0-3.85,0.781-5.232,2.17
	c-1.389,1.387-2.17,3.271-2.17,5.237c0,1.965,0.783,3.849,2.17,5.237c1.383,1.389,3.268,2.169,5.232,2.169
	c1.965,0.005,3.848-0.775,5.236-2.159c1.395-1.387,2.176-3.272,2.18-5.232V898.342z"/>
<path fill="#E52620" stroke="#010202" stroke-width="1.3068" d="M911.977,877.082L911.977,877.082v-0.017
	c-0.002-1.965-0.787-3.841-2.176-5.232c-1.389-1.387-3.275-2.164-5.238-2.164c-1.963,0.005-3.846,0.789-5.234,2.174
	c-1.391,1.39-2.166,3.272-2.166,5.238c0,1.96,0.777,3.844,2.166,5.239c1.387,1.388,3.271,2.167,5.234,2.167s3.848-0.776,5.238-2.162
	c1.389-1.385,2.174-3.267,2.176-5.232V877.082z"/>
<path fill="#E52620" stroke="#010202" stroke-width="1.3068" d="M795.652,317.817L795.652,317.817v-0.013
	c-0.004-1.963-0.787-3.846-2.176-5.233c-1.393-1.388-3.277-2.164-5.24-2.161c-1.965,0-3.844,0.781-5.234,2.172
	c-1.387,1.388-2.166,3.272-2.166,5.235c0,1.965,0.779,3.849,2.166,5.237c1.389,1.39,3.27,2.169,5.234,2.172
	c1.963,0.002,3.848-0.776,5.24-2.161c1.389-1.388,2.172-3.27,2.176-5.235V317.817z"/>
<path fill="#E52620" stroke="#010202" stroke-width="1.3068" d="M656.551,492.114L656.551,492.114v-0.013
	c-0.004-1.963-0.787-3.843-2.176-5.232c-1.391-1.387-3.275-2.165-5.24-2.162c-1.963,0-3.846,0.784-5.234,2.171
	c-1.387,1.388-2.168,3.272-2.168,5.235c0,1.966,0.781,3.849,2.168,5.238c1.389,1.388,3.271,2.168,5.234,2.171
	c1.965,0.003,3.848-0.776,5.24-2.161c1.389-1.388,2.172-3.269,2.176-5.232V492.114z"/>
<path fill="#E52620" stroke="#010202" stroke-width="1.3068" d="M605.623,829.604L605.623,829.604v-0.018
	c-0.002-1.965-0.787-3.841-2.178-5.232c-1.387-1.387-3.271-2.164-5.236-2.164c-1.963,0.005-3.846,0.788-5.236,2.174
	c-1.387,1.39-2.166,3.272-2.166,5.238c0,1.96,0.779,3.843,2.166,5.234c1.389,1.391,3.273,2.174,5.236,2.174
	c1.965,0,3.848-0.778,5.236-2.165c1.391-1.385,2.176-3.267,2.178-5.232V829.604z"/>
<path fill="#E52620" stroke="#010202" stroke-width="1.3068" d="M692.594,214.519L692.594,214.519v-0.016
	c-0.002-1.962-0.787-3.843-2.174-5.232c-1.391-1.387-3.273-2.164-5.238-2.161c-1.963,0.002-3.848,0.783-5.236,2.171
	c-1.389,1.388-2.166,3.273-2.166,5.238c0,1.963,0.777,3.846,2.166,5.235s3.273,2.172,5.236,2.172
	c1.965,0.002,3.846-0.777,5.238-2.162c1.387-1.388,2.172-3.27,2.174-5.232V214.519z"/>
<path fill="#E52620" stroke="#010202" stroke-width="1.3068" d="M792.414,750.58L792.414,750.58v-0.016
	c-0.002-1.96-0.785-3.843-2.178-5.232c-1.389-1.386-3.273-2.164-5.236-2.159c-1.963,0-3.848,0.781-5.234,2.169
	c-1.391,1.387-2.168,3.272-2.168,5.237s0.779,3.849,2.168,5.237c1.387,1.39,3.271,2.169,5.234,2.169
	c1.963,0.005,3.844-0.776,5.236-2.165c1.393-1.383,2.176-3.267,2.178-5.232V750.58z"/>
<path fill="#E52620" stroke="#010202" stroke-width="1.3068" d="M607.234,747.942L607.234,747.942v-0.018
	c-0.002-1.96-0.785-3.841-2.178-5.232c-1.389-1.383-3.273-2.162-5.236-2.162c-1.965,0.005-3.846,0.786-5.234,2.174
	c-1.391,1.387-2.168,3.272-2.168,5.237s0.779,3.841,2.168,5.237c1.387,1.388,3.27,2.17,5.234,2.17c1.963,0,3.846-0.776,5.236-2.164
	c1.393-1.384,2.176-3.267,2.178-5.232V747.942z"/>
<path fill="#E52620" stroke="#010202" stroke-width="1.3068" d="M742.658,174.7L742.658,174.7v-0.013
	c-0.002-1.966-0.785-3.846-2.176-5.233s-3.275-2.167-5.238-2.164c-1.965,0.002-3.846,0.784-5.234,2.172
	c-1.389,1.388-2.168,3.271-2.168,5.237c0,1.963,0.779,3.846,2.168,5.234c1.387,1.391,3.27,2.172,5.234,2.172
	c1.963,0.003,3.848-0.776,5.238-2.161s2.174-3.27,2.176-5.232V174.7z"/>
<path fill="#E52620" stroke="#010202" stroke-width="1.3068" d="M1230.422,500.766L1230.422,500.766v-0.016
	c-0.004-1.962-0.787-3.843-2.174-5.232c-1.393-1.388-3.277-2.164-5.244-2.161c-1.959,0-3.842,0.784-5.23,2.172
	c-1.391,1.388-2.17,3.272-2.17,5.237c0,1.963,0.781,3.846,2.17,5.234c1.387,1.39,3.271,2.172,5.23,2.172
	c1.967,0.002,3.85-0.776,5.244-2.161c1.389-1.388,2.17-3.27,2.174-5.232V500.766z"/>
<path fill="#E52620" stroke="#010202" stroke-width="1.3068" d="M1253.223,436.928L1253.223,436.928v-0.013
	c-0.008-1.963-0.789-3.846-2.176-5.232c-1.391-1.386-3.277-2.164-5.244-2.162c-1.959,0-3.842,0.782-5.23,2.172
	c-1.389,1.388-2.17,3.272-2.17,5.235c0,1.966,0.783,3.849,2.17,5.238c1.389,1.389,3.271,2.168,5.23,2.171
	c1.967,0.003,3.848-0.776,5.244-2.164c1.389-1.386,2.168-3.267,2.176-5.232V436.928z"/>
<path fill="#E52620" stroke="#010202" stroke-width="1.3068" d="M681.688,368.411L681.688,368.411v-0.013
	c-0.006-1.966-0.785-3.846-2.178-5.232c-1.389-1.388-3.273-2.164-5.238-2.164c-1.963,0.002-3.846,0.784-5.232,2.171
	c-1.387,1.391-2.17,3.272-2.17,5.238c0,1.963,0.783,3.846,2.17,5.235c1.387,1.39,3.27,2.171,5.232,2.174
	c1.965,0,3.848-0.779,5.238-2.164c1.393-1.386,2.172-3.27,2.178-5.232V368.411z"/>
<path fill="#E52620" stroke="#010202" stroke-width="1.3068" d="M1192.793,900.26L1192.793,900.26v-0.016
	c-0.006-1.965-0.789-3.844-2.18-5.232c-1.389-1.39-3.273-2.165-5.238-2.165c-1.967,0.005-3.848,0.786-5.232,2.175
	c-1.389,1.387-2.17,3.272-2.17,5.237c0,1.96,0.781,3.844,2.17,5.232c1.385,1.394,3.266,2.174,5.232,2.174
	c1.965,0,3.848-0.775,5.238-2.164c1.391-1.384,2.174-3.267,2.18-5.232V900.26z"/>
<path fill="#E52620" stroke="#010202" stroke-width="1.3068" d="M654.217,714.456L654.217,714.456v-0.018
	c-0.002-1.96-0.787-3.841-2.178-5.232c-1.389-1.383-3.271-2.162-5.236-2.162c-1.963,0.005-3.848,0.786-5.236,2.174
	c-1.389,1.387-2.166,3.272-2.166,5.237c0,1.96,0.779,3.841,2.166,5.237c1.389,1.387,3.273,2.169,5.236,2.169
	c1.965,0,3.848-0.776,5.236-2.165c1.391-1.383,2.176-3.267,2.178-5.232V714.456z"/>
<path fill="#E52620" stroke="#010202" stroke-width="1.3068" d="M730.535,636.765L730.535,636.765v-0.015
	c-0.006-1.96-0.789-3.844-2.178-5.234c-1.389-1.388-3.275-2.163-5.238-2.163c-1.963,0.005-3.846,0.786-5.234,2.174
	c-1.389,1.387-2.168,3.272-2.168,5.237c0,1.96,0.779,3.843,2.168,5.237c1.387,1.39,3.271,2.17,5.234,2.17s3.848-0.776,5.238-2.165
	c1.389-1.383,2.172-3.267,2.178-5.232V636.765z"/>
<path fill="#E52620" stroke="#010202" stroke-width="1.3068" d="M1204.438,233.867L1204.438,233.867v-0.012
	c-0.006-1.963-0.789-3.846-2.176-5.232c-1.393-1.387-3.277-2.165-5.242-2.162c-1.961,0-3.844,0.782-5.232,2.172
	c-1.389,1.388-2.17,3.272-2.17,5.234c0,1.966,0.781,3.849,2.17,5.238s3.271,2.169,5.232,2.172c1.965,0.002,3.848-0.777,5.242-2.165
	c1.389-1.387,2.17-3.267,2.176-5.232V233.867z"/>
<path fill="#E52620" stroke="#010202" stroke-width="1.3068" d="M643.945,888.643L643.945,888.643v-0.01
	c-0.004-1.965-0.787-3.849-2.178-5.232c-1.387-1.39-3.271-2.164-5.238-2.164c-1.961,0-3.846,0.781-5.234,2.175
	c-1.387,1.387-2.166,3.271-2.166,5.231c0,1.965,0.779,3.85,2.166,5.237c1.387,1.389,3.273,2.17,5.234,2.175
	c1.967,0,3.85-0.776,5.238-2.165c1.391-1.387,2.174-3.267,2.178-5.232V888.643z"/>
<path fill="#E52620" stroke="#010202" stroke-width="1.3068" d="M1240.426,236.602L1240.426,236.602v-0.013
	c0-1.963-0.785-3.843-2.174-5.232c-1.391-1.387-3.277-2.164-5.238-2.161c-1.965,0-3.846,0.781-5.236,2.171
	c-1.389,1.388-2.164,3.272-2.164,5.235c0,1.966,0.777,3.848,2.164,5.237c1.389,1.389,3.271,2.169,5.236,2.172
	c1.961,0.003,3.844-0.776,5.238-2.161c1.389-1.388,2.174-3.269,2.174-5.235V236.602z"/>
<path fill="#E52620" stroke="#010202" stroke-width="1.3068" d="M836.219,614.851L836.219,614.851v-0.011
	c-0.004-1.965-0.787-3.848-2.178-5.232c-1.389-1.388-3.275-2.164-5.238-2.164s-3.846,0.783-5.234,2.175
	c-1.387,1.388-2.168,3.272-2.168,5.232c0,1.965,0.781,3.848,2.168,5.239c1.389,1.388,3.271,2.168,5.234,2.173
	c1.963,0,3.85-0.777,5.238-2.163c1.391-1.39,2.174-3.267,2.178-5.232V614.851z"/>
<path fill="#E52620" stroke="#010202" stroke-width="1.3068" d="M1154.779,444.892L1154.779,444.892v-0.013
	c0-1.965-0.787-3.846-2.174-5.235c-1.389-1.386-3.273-2.164-5.238-2.161c-1.965,0.003-3.848,0.784-5.236,2.171
	c-1.385,1.388-2.166,3.272-2.166,5.238c0,1.963,0.783,3.846,2.166,5.235c1.387,1.39,3.271,2.172,5.236,2.172
	c1.965,0.003,3.85-0.776,5.238-2.162c1.391-1.384,2.174-3.27,2.174-5.232V444.892z"/>
<path fill="#E52620" stroke="#010202" stroke-width="1.3068" d="M946.266,377.186L946.266,377.186v-0.013
	c-0.006-1.963-0.789-3.843-2.18-5.232c-1.391-1.387-3.273-2.164-5.232-2.161c-1.973,0-3.85,0.784-5.238,2.171
	c-1.389,1.39-2.17,3.273-2.17,5.235c0,1.966,0.781,3.849,2.17,5.238c1.387,1.389,3.266,2.169,5.238,2.171
	c1.959,0.003,3.84-0.776,5.232-2.161c1.391-1.388,2.174-3.269,2.18-5.235V377.186z"/>
<path fill="#E52620" stroke="#010202" stroke-width="1.3068" d="M1229.348,396.956L1229.348,396.956v-0.013
	c0-1.963-0.787-3.846-2.176-5.232c-1.387-1.386-3.277-2.164-5.238-2.164c-1.965,0.002-3.848,0.784-5.236,2.175
	c-1.389,1.388-2.164,3.271-2.164,5.234c0,1.965,0.777,3.846,2.164,5.238c1.389,1.388,3.271,2.169,5.236,2.171
	c1.961,0,3.85-0.775,5.238-2.164c1.389-1.387,2.176-3.267,2.176-5.232V396.956z"/>
<path fill="#E52620" stroke="#010202" stroke-width="1.3068" d="M712.973,447.49L712.973,447.49v-0.013
	c-0.004-1.962-0.787-3.846-2.178-5.232c-1.387-1.387-3.275-2.165-5.238-2.162c-1.961,0-3.846,0.782-5.234,2.172
	c-1.389,1.388-2.166,3.272-2.166,5.235c0,1.965,0.777,3.848,2.166,5.237s3.273,2.169,5.234,2.171
	c1.963,0.003,3.85-0.776,5.238-2.164c1.391-1.386,2.174-3.267,2.178-5.232V447.49z"/>
<path fill="#E52620" stroke="#010202" stroke-width="1.3068" d="M584.439,616.332L584.439,616.332v-0.011
	c-0.004-1.966-0.787-3.848-2.178-5.232c-1.387-1.389-3.275-2.163-5.238-2.163s-3.844,0.781-5.234,2.173
	c-1.387,1.388-2.166,3.273-2.166,5.233c0,1.965,0.779,3.846,2.166,5.237c1.389,1.388,3.271,2.169,5.234,2.174
	c1.963,0,3.85-0.777,5.238-2.164c1.391-1.39,2.174-3.267,2.178-5.232V616.332z"/>
<g>
	<path d="M77.556,326.909h-3.003l-20.435-30.42v30.42h-3.027v-35.547h3.027l20.459,30.444v-30.444h2.979V326.909z"/>
	<path d="M84.294,313.311c0-2.539,0.492-4.826,1.477-6.86c0.985-2.035,2.377-3.617,4.176-4.749c1.798-1.131,3.836-1.697,6.115-1.697
		c3.516,0,6.363,1.233,8.545,3.699c2.181,2.466,3.271,5.733,3.271,9.802v0.61c0,2.555-0.492,4.854-1.477,6.897
		c-0.985,2.043-2.373,3.617-4.163,4.724c-1.791,1.107-3.833,1.66-6.128,1.66c-3.5,0-6.344-1.233-8.533-3.699
		c-2.188-2.466-3.283-5.733-3.283-9.802V313.311z M87.224,314.116c0,3.158,0.818,5.75,2.453,7.776c1.637,2.026,3.78,3.04,6.434,3.04
		c2.637,0,4.773-1.013,6.408-3.04c1.637-2.026,2.454-4.7,2.454-8.02v-0.562c0-2.018-0.375-3.866-1.123-5.542
		c-0.749-1.676-1.799-2.974-3.149-3.894c-1.352-0.919-2.897-1.379-4.639-1.379c-2.604,0-4.729,1.021-6.372,3.064
		c-1.645,2.043-2.466,4.716-2.466,8.02V314.116z"/>
	<path d="M112.736,313.457c0-4.102,0.916-7.369,2.746-9.802c1.832-2.433,4.317-3.65,7.459-3.65c3.564,0,6.282,1.408,8.154,4.224
		v-14.819h2.905v37.5h-2.734l-0.122-3.516c-1.872,2.669-4.623,4.004-8.252,4.004c-3.044,0-5.497-1.225-7.361-3.674
		c-1.863-2.449-2.795-5.758-2.795-9.924V313.457z M115.69,313.97c0,3.369,0.675,6.026,2.026,7.971
		c1.351,1.945,3.255,2.917,5.713,2.917c3.597,0,6.152-1.587,7.666-4.761v-12.402c-1.514-3.434-4.053-5.151-7.617-5.151
		c-2.458,0-4.37,0.964-5.737,2.893S115.69,310.21,115.69,313.97z"/>
	<path d="M151.921,327.397c-2.246,0-4.276-0.553-6.091-1.66c-1.815-1.107-3.228-2.649-4.236-4.626
		c-1.01-1.978-1.514-4.195-1.514-6.653v-1.05c0-2.539,0.492-4.826,1.477-6.86c0.985-2.035,2.356-3.633,4.114-4.797
		c1.758-1.164,3.662-1.746,5.713-1.746c3.206,0,5.749,1.095,7.63,3.284c1.879,2.189,2.819,5.18,2.819,8.972v1.636h-18.848v0.562
		c0,2.995,0.858,5.489,2.575,7.483c1.718,1.994,3.878,2.991,6.482,2.991c1.563,0,2.941-0.285,4.139-0.854
		c1.195-0.57,2.282-1.481,3.259-2.734l1.831,1.392C159.123,325.843,156.006,327.397,151.921,327.397z M151.384,302.495
		c-2.197,0-4.049,0.806-5.554,2.417c-1.506,1.611-2.422,3.776-2.747,6.494h15.845v-0.317c-0.082-2.539-0.806-4.606-2.173-6.201
		S153.597,302.495,151.384,302.495z"/>
	<path d="M183.342,320.195c0-1.449-0.582-2.612-1.746-3.491c-1.163-0.879-2.917-1.566-5.261-2.063
		c-2.344-0.496-4.163-1.066-5.456-1.709c-1.295-0.643-2.255-1.428-2.881-2.356c-0.627-0.928-0.94-2.051-0.94-3.369
		c0-2.083,0.87-3.804,2.612-5.164c1.741-1.359,3.971-2.039,6.689-2.039c2.945,0,5.311,0.729,7.092,2.185
		c1.783,1.457,2.674,3.357,2.674,5.701h-2.93c0-1.546-0.646-2.832-1.941-3.857c-1.293-1.025-2.926-1.538-4.895-1.538
		c-1.921,0-3.463,0.427-4.627,1.282c-1.163,0.854-1.745,1.965-1.745,3.333c0,1.318,0.484,2.34,1.452,3.064
		c0.969,0.725,2.734,1.388,5.299,1.99c2.563,0.602,4.483,1.245,5.762,1.929c1.277,0.684,2.225,1.505,2.844,2.466
		c0.618,0.96,0.928,2.124,0.928,3.491c0,2.23-0.899,4.012-2.697,5.347c-1.799,1.334-4.147,2.002-7.044,2.002
		c-3.076,0-5.57-0.745-7.483-2.234c-1.912-1.489-2.868-3.373-2.868-5.652h2.93c0.113,1.709,0.834,3.04,2.161,3.992
		c1.326,0.952,3.079,1.428,5.261,1.428c2.034,0,3.678-0.448,4.932-1.343C182.715,322.694,183.342,321.563,183.342,320.195z"/>
	<path d="M204.582,329.961h-2.661l14.844-38.599h2.637L204.582,329.961z"/>
	<path d="M245.231,322.881l8.032-22.388h3.003l-9.863,26.416h-2.368l-9.912-26.416h3.003L245.231,322.881z"/>
	<path d="M270.964,327.397c-2.246,0-4.276-0.553-6.091-1.66c-1.815-1.107-3.228-2.649-4.236-4.626
		c-1.01-1.978-1.514-4.195-1.514-6.653v-1.05c0-2.539,0.492-4.826,1.477-6.86c0.985-2.035,2.356-3.633,4.114-4.797
		c1.758-1.164,3.662-1.746,5.713-1.746c3.206,0,5.749,1.095,7.63,3.284c1.879,2.189,2.819,5.18,2.819,8.972v1.636h-18.848v0.562
		c0,2.995,0.858,5.489,2.575,7.483c1.718,1.994,3.878,2.991,6.482,2.991c1.563,0,2.941-0.285,4.139-0.854
		c1.195-0.57,2.282-1.481,3.259-2.734l1.831,1.392C278.166,325.843,275.049,327.397,270.964,327.397z M270.427,302.495
		c-2.197,0-4.049,0.806-5.554,2.417c-1.506,1.611-2.422,3.776-2.747,6.494h15.845v-0.317c-0.082-2.539-0.806-4.606-2.173-6.201
		S272.64,302.495,270.427,302.495z"/>
	<path d="M298.771,302.983c-0.619-0.114-1.278-0.171-1.978-0.171c-1.823,0-3.365,0.509-4.626,1.526
		c-1.262,1.018-2.161,2.494-2.698,4.431v18.14h-2.905v-26.416h2.856l0.049,4.199c1.546-3.125,4.028-4.688,7.446-4.688
		c0.813,0,1.456,0.106,1.929,0.317L298.771,302.983z"/>
	<path d="M309.147,293.73v6.763h5.469v2.393h-5.469v17.622c0,1.467,0.265,2.558,0.793,3.275c0.529,0.718,1.412,1.076,2.649,1.076
		c0.488,0,1.277-0.082,2.368-0.244l0.122,2.372c-0.766,0.274-1.807,0.411-3.125,0.411c-2.002,0-3.459-0.582-4.37-1.746
		c-0.912-1.164-1.367-2.877-1.367-5.139v-17.627h-4.858v-2.393h4.858v-6.763H309.147z"/>
	<path d="M320.5,292.864c0-0.55,0.179-1.015,0.537-1.395c0.357-0.38,0.846-0.57,1.465-0.57c0.618,0,1.11,0.19,1.478,0.57
		c0.365,0.38,0.549,0.845,0.549,1.395s-0.184,1.011-0.549,1.383c-0.367,0.372-0.859,0.558-1.478,0.558
		c-0.619,0-1.107-0.186-1.465-0.558C320.679,293.875,320.5,293.414,320.5,292.864z M323.942,326.909h-2.93v-26.416h2.93V326.909z"/>
	<path d="M341.643,324.932c2.034,0,3.739-0.574,5.115-1.721c1.375-1.147,2.119-2.633,2.233-4.456h2.808
		c-0.082,1.611-0.586,3.081-1.514,4.407c-0.928,1.327-2.16,2.364-3.699,3.113c-1.537,0.749-3.186,1.123-4.943,1.123
		c-3.467,0-6.213-1.205-8.24-3.613c-2.025-2.409-3.039-5.648-3.039-9.717v-0.879c0-2.604,0.455-4.907,1.367-6.909
		c0.911-2.002,2.218-3.548,3.918-4.639c1.701-1.09,3.69-1.636,5.97-1.636c2.896,0,5.286,0.863,7.165,2.588
		c1.881,1.725,2.885,3.996,3.016,6.812h-2.808c-0.131-2.067-0.875-3.735-2.233-5.005c-1.359-1.27-3.073-1.904-5.14-1.904
		c-2.637,0-4.684,0.952-6.14,2.856c-1.457,1.904-2.186,4.574-2.186,8.008v0.854c0,3.369,0.729,5.998,2.186,7.886
		C336.935,323.988,338.989,324.932,341.643,324.932z"/>
	<path d="M367.863,327.397c-2.246,0-4.276-0.553-6.091-1.66c-1.815-1.107-3.228-2.649-4.236-4.626
		c-1.01-1.978-1.514-4.195-1.514-6.653v-1.05c0-2.539,0.492-4.826,1.477-6.86c0.985-2.035,2.356-3.633,4.114-4.797
		c1.758-1.164,3.662-1.746,5.713-1.746c3.206,0,5.749,1.095,7.63,3.284c1.879,2.189,2.819,5.18,2.819,8.972v1.636h-18.848v0.562
		c0,2.995,0.858,5.489,2.575,7.483c1.718,1.994,3.878,2.991,6.482,2.991c1.563,0,2.941-0.285,4.139-0.854
		c1.195-0.57,2.282-1.481,3.259-2.734l1.831,1.392C375.065,325.843,371.948,327.397,367.863,327.397z M367.326,302.495
		c-2.197,0-4.049,0.806-5.554,2.417c-1.506,1.611-2.422,3.776-2.747,6.494h15.845v-0.317c-0.082-2.539-0.806-4.606-2.173-6.201
		S369.539,302.495,367.326,302.495z"/>
	<path d="M399.284,320.195c0-1.449-0.582-2.612-1.746-3.491c-1.163-0.879-2.917-1.566-5.261-2.063
		c-2.344-0.496-4.163-1.066-5.456-1.709c-1.295-0.643-2.255-1.428-2.881-2.356c-0.627-0.928-0.94-2.051-0.94-3.369
		c0-2.083,0.87-3.804,2.612-5.164c1.741-1.359,3.971-2.039,6.689-2.039c2.945,0,5.311,0.729,7.092,2.185
		c1.783,1.457,2.674,3.357,2.674,5.701h-2.93c0-1.546-0.646-2.832-1.941-3.857c-1.293-1.025-2.926-1.538-4.895-1.538
		c-1.921,0-3.463,0.427-4.627,1.282c-1.163,0.854-1.745,1.965-1.745,3.333c0,1.318,0.484,2.34,1.452,3.064
		c0.969,0.725,2.734,1.388,5.299,1.99c2.563,0.602,4.483,1.245,5.762,1.929c1.277,0.684,2.225,1.505,2.844,2.466
		c0.618,0.96,0.928,2.124,0.928,3.491c0,2.23-0.899,4.012-2.697,5.347c-1.799,1.334-4.147,2.002-7.044,2.002
		c-3.076,0-5.57-0.745-7.483-2.234c-1.912-1.489-2.868-3.373-2.868-5.652h2.93c0.113,1.709,0.834,3.04,2.161,3.992
		c1.326,0.952,3.079,1.428,5.261,1.428c2.034,0,3.678-0.448,4.932-1.343C398.657,322.694,399.284,321.563,399.284,320.195z"/>
</g>
<g>
	<g>
		<path fill="none" stroke="#F39200" stroke-width="3" stroke-miterlimit="10" d="M418.224,313.649
			c83.295,0,76.655-80.283,122.845-96.44"/>
		<g>
			<polygon fill="#F39200" points="534.94,230.201 537.517,218.408 530.816,208.368 558.756,214.396 			"/>
		</g>
	</g>
</g>
<g>
	<g>
		<path fill="none" stroke="#F39200" stroke-width="3" stroke-miterlimit="10" d="M418.224,313.649
			c187.606,0,219.233,88.473,392.508,94.211"/>
		<g>
			<polygon fill="#F39200" points="802.08,418.706 807.032,407.698 802.547,396.492 828.643,408.152 			"/>
		</g>
	</g>
</g>
<g>
	<path d="M70.72,566.804H54.094v14.502H73.21v2.539H51.091v-35.547h21.997v2.539H54.094v13.428H70.72V566.804z"/>
	<path d="M77.214,570.393c0-4.102,0.916-7.369,2.746-9.802c1.832-2.433,4.317-3.65,7.459-3.65c3.564,0,6.282,1.408,8.154,4.224
		v-14.819h2.905v37.5h-2.734l-0.122-3.516c-1.872,2.669-4.623,4.004-8.252,4.004c-3.044,0-5.497-1.225-7.361-3.674
		c-1.863-2.449-2.795-5.758-2.795-9.924V570.393z M80.168,570.905c0,3.369,0.675,6.026,2.026,7.971
		c1.351,1.945,3.255,2.917,5.713,2.917c3.597,0,6.152-1.587,7.666-4.761v-12.402c-1.514-3.434-4.053-5.151-7.617-5.151
		c-2.458,0-4.37,0.964-5.737,2.893S80.168,567.146,80.168,570.905z"/>
	<path d="M104.997,570.393c0-4.134,0.916-7.41,2.746-9.827c1.832-2.417,4.317-3.625,7.459-3.625c3.597,0,6.331,1.432,8.203,4.297
		l0.146-3.809h2.734v25.879c0,3.402-0.952,6.095-2.856,8.081s-4.484,2.979-7.739,2.979c-1.84,0-3.593-0.411-5.262-1.233
		c-1.668-0.822-2.982-1.917-3.942-3.284l1.636-1.758c2.066,2.539,4.524,3.809,7.373,3.809c2.441,0,4.346-0.72,5.713-2.161
		s2.075-3.438,2.124-5.994v-3.32c-1.872,2.604-4.599,3.906-8.179,3.906c-3.061,0-5.518-1.221-7.373-3.662s-2.783-5.737-2.783-9.888
		V570.393z M107.951,570.905c0,3.369,0.675,6.026,2.026,7.971c1.351,1.945,3.255,2.917,5.713,2.917c3.597,0,6.144-1.611,7.642-4.834
		v-12.28c-0.684-1.693-1.669-2.982-2.954-3.87c-1.286-0.887-2.832-1.331-4.639-1.331c-2.458,0-4.37,0.964-5.737,2.893
		S107.951,567.146,107.951,570.905z"/>
	<path d="M144.133,584.333c-2.246,0-4.276-0.553-6.091-1.66c-1.815-1.107-3.228-2.649-4.236-4.626
		c-1.01-1.978-1.514-4.195-1.514-6.653v-1.05c0-2.539,0.492-4.826,1.477-6.86c0.985-2.035,2.356-3.633,4.114-4.797
		c1.758-1.164,3.662-1.746,5.713-1.746c3.206,0,5.749,1.095,7.63,3.284c1.879,2.189,2.819,5.18,2.819,8.972v1.636h-18.848v0.562
		c0,2.995,0.858,5.489,2.575,7.483c1.718,1.994,3.878,2.991,6.482,2.991c1.563,0,2.941-0.285,4.139-0.854
		c1.195-0.57,2.282-1.481,3.259-2.734l1.831,1.392C151.335,582.779,148.218,584.333,144.133,584.333z M143.596,559.431
		c-2.197,0-4.049,0.806-5.554,2.417c-1.506,1.611-2.422,3.776-2.747,6.494h15.845v-0.317c-0.082-2.539-0.806-4.606-2.173-6.201
		S145.809,559.431,143.596,559.431z"/>
	<path d="M175.554,577.131c0-1.449-0.582-2.612-1.746-3.491c-1.163-0.879-2.917-1.566-5.261-2.063
		c-2.344-0.496-4.163-1.066-5.456-1.709c-1.295-0.643-2.255-1.428-2.881-2.356c-0.627-0.928-0.94-2.051-0.94-3.369
		c0-2.083,0.87-3.804,2.612-5.164c1.741-1.359,3.971-2.039,6.689-2.039c2.945,0,5.311,0.729,7.092,2.185
		c1.783,1.457,2.674,3.357,2.674,5.701h-2.93c0-1.546-0.646-2.832-1.941-3.857c-1.293-1.025-2.926-1.538-4.895-1.538
		c-1.921,0-3.463,0.427-4.627,1.282c-1.163,0.854-1.745,1.965-1.745,3.333c0,1.318,0.484,2.34,1.452,3.064
		c0.969,0.725,2.734,1.388,5.299,1.99c2.563,0.602,4.483,1.245,5.762,1.929c1.277,0.684,2.225,1.505,2.844,2.466
		c0.618,0.96,0.928,2.124,0.928,3.491c0,2.23-0.899,4.012-2.697,5.347c-1.799,1.334-4.147,2.002-7.044,2.002
		c-3.076,0-5.57-0.745-7.483-2.234c-1.912-1.489-2.868-3.373-2.868-5.652h2.93c0.113,1.709,0.834,3.04,2.161,3.992
		c1.326,0.952,3.079,1.428,5.261,1.428c2.034,0,3.678-0.448,4.932-1.343C174.927,579.629,175.554,578.498,175.554,577.131z"/>
</g>
<g>
	<g>
		<path fill="none" stroke="#F39200" stroke-width="3" stroke-miterlimit="10" d="M188.797,570.585
			c89.73,0,251.633-102.684,431.238-62.122"/>
		<g>
			<polygon fill="#F39200" points="609.186,517.362 616.408,507.691 614.463,495.779 637.405,512.826 			"/>
		</g>
	</g>
</g>
<g>
	<g>
		<path fill="none" stroke="#F39200" stroke-width="3" stroke-miterlimit="10" d="M188.797,570.585
			c187.838,0,419.769,63.23,602.407,102.78"/>
		<g>
			<polygon fill="#F39200" points="780.608,682.3 787.606,672.465 785.386,660.601 808.716,677.114 			"/>
		</g>
	</g>
</g>
</svg>
