<?xml version="1.0" encoding="utf-8"?>
<!-- Generator: Adobe Illustrator 16.0.0, SVG Export Plug-In . SVG Version: 6.00 Build 0)  -->
<!DOCTYPE svg PUBLIC "-//W3C//DTD SVG 1.1//EN" "http://www.w3.org/Graphics/SVG/1.1/DTD/svg11.dtd">
<svg version="1.1" id="Layer_1" xmlns="http://www.w3.org/2000/svg" xmlns:xlink="http://www.w3.org/1999/xlink" x="0px" y="0px"
	 width="707.252px" height="516.456px" viewBox="0 0 707.252 516.456" enable-background="new 0 0 707.252 516.456"
	 xml:space="preserve">
<g>
	<g>
		
			<line fill="none" stroke="#EE2F47" stroke-width="3.75" stroke-miterlimit="10" x1="0.561" y1="514.667" x2="4.855" y2="513.322"/>
		
			<line fill="none" stroke="#EE2F47" stroke-width="3.75" stroke-miterlimit="10" stroke-dasharray="9.0243,9.0243" x1="13.466" y1="510.624" x2="698.091" y2="296.162"/>
		
			<line fill="none" stroke="#EE2F47" stroke-width="3.75" stroke-miterlimit="10" x1="702.397" y1="294.814" x2="706.691" y2="293.469"/>
	</g>
</g>
<g>
	<g>
		<polygon opacity="0.1" fill="#356A9A" points="514.319,348.953 409.62,382.228 339.895,335.775 339.895,34.22 444.595,0.375 
			514.319,44.948 		"/>
		
			<polyline fill="none" stroke="#000000" stroke-width="0.75" stroke-linecap="round" stroke-linejoin="round" stroke-miterlimit="10" points="
			444.595,0.375 444.595,302.501 339.895,335.775 		"/>
		<g>
			
				<path fill="none" stroke="#000000" stroke-width="0.75" stroke-linecap="round" stroke-linejoin="round" stroke-miterlimit="10" d="
				M514.319,348.953"/>
			
				<polyline fill="none" stroke="#000000" stroke-width="0.75" stroke-linecap="round" stroke-linejoin="round" stroke-miterlimit="10" points="
				409.62,382.228 409.62,78.198 514.319,44.948 			"/>
		</g>
		
			<line fill="none" stroke="#000000" stroke-width="0.75" stroke-linecap="round" stroke-linejoin="round" stroke-miterlimit="10" x1="339.895" y1="34.22" x2="409.62" y2="78.198"/>
		
			<polygon fill="none" stroke="#000000" stroke-width="0.75" stroke-linecap="round" stroke-linejoin="round" stroke-miterlimit="10" points="
			514.319,348.953 409.62,382.228 339.895,335.775 339.895,34.22 444.595,0.375 514.319,44.948 		"/>
		
			<line fill="none" stroke="#000000" stroke-width="0.75" stroke-linecap="round" stroke-linejoin="round" stroke-miterlimit="10" x1="444.595" y1="302.501" x2="514.319" y2="348.953"/>
	</g>
	<g>
		<polyline fill="#C1C3C3" points="402.229,384.302 409.62,382.228 409.619,78.199 339.895,34.22 332.505,36.294 332.505,337.85 
			402.229,384.302 		"/>
		
			<polyline fill="none" stroke="#000000" stroke-width="0.75" stroke-linecap="round" stroke-linejoin="round" stroke-miterlimit="10" points="
			339.895,34.22 409.619,78.199 409.62,382.228 		"/>
		<g>
			
				<polygon fill="none" stroke="#000000" stroke-width="0.75" stroke-linecap="round" stroke-linejoin="round" stroke-miterlimit="10" points="
				402.229,384.302 332.505,337.85 332.505,36.294 402.229,80.273 			"/>
		</g>
		
			<line fill="none" stroke="#000000" stroke-width="0.75" stroke-linecap="round" stroke-linejoin="round" stroke-miterlimit="10" x1="402.229" y1="384.302" x2="409.62" y2="382.228"/>
		
			<line fill="none" stroke="#000000" stroke-width="0.75" stroke-linecap="round" stroke-linejoin="round" stroke-miterlimit="10" x1="332.505" y1="36.294" x2="339.895" y2="34.22"/>
		
			<line fill="none" stroke="#000000" stroke-width="0.75" stroke-linecap="round" stroke-linejoin="round" stroke-miterlimit="10" x1="402.229" y1="80.273" x2="409.62" y2="78.199"/>
	</g>
	<g>
		<polygon opacity="0.1" fill="#649B43" points="402.229,384.302 297.531,417.576 227.807,371.124 227.807,249.313 332.505,215.814 
			402.229,261.516 		"/>
		
			<polyline fill="none" stroke="#000000" stroke-width="0.75" stroke-linecap="round" stroke-linejoin="round" stroke-miterlimit="10" points="
			332.505,215.814 332.505,337.85 227.807,371.124 		"/>
		<g>
			
				<path fill="none" stroke="#000000" stroke-width="0.75" stroke-linecap="round" stroke-linejoin="round" stroke-miterlimit="10" d="
				M402.229,384.302"/>
			
				<polyline fill="none" stroke="#000000" stroke-width="0.75" stroke-linecap="round" stroke-linejoin="round" stroke-miterlimit="10" points="
				297.531,417.576 297.531,294.758 402.229,261.516 			"/>
		</g>
		
			<line fill="none" stroke="#000000" stroke-width="0.75" stroke-linecap="round" stroke-linejoin="round" stroke-miterlimit="10" x1="227.807" y1="249.313" x2="297.531" y2="294.758"/>
		
			<polygon fill="none" stroke="#000000" stroke-width="0.75" stroke-linecap="round" stroke-linejoin="round" stroke-miterlimit="10" points="
			402.229,384.302 297.531,417.576 227.807,371.124 227.807,249.313 332.505,215.814 402.229,261.516 		"/>
		
			<line fill="none" stroke="#000000" stroke-width="0.75" stroke-linecap="round" stroke-linejoin="round" stroke-miterlimit="10" x1="332.505" y1="337.85" x2="402.229" y2="384.302"/>
	</g>
	<g>
		<g>
			<polygon fill="#C1C3C3" points="221.716,251.889 221.716,373.924 291.44,420.376 297.531,417.576 297.531,294.758 
				227.807,249.313 			"/>
		</g>
		<g>
			
				<polygon fill="none" stroke="#000000" stroke-width="0.75" stroke-linecap="round" stroke-linejoin="round" stroke-miterlimit="10" points="
				221.716,251.889 221.716,373.924 291.44,420.376 297.531,417.576 297.531,294.758 227.807,249.313 			"/>
		</g>
		
			<line fill="none" stroke="#000000" stroke-width="0.75" stroke-linecap="round" stroke-linejoin="round" stroke-miterlimit="10" x1="291.44" y1="297.589" x2="297.531" y2="294.758"/>
		
			<line fill="none" stroke="#000000" stroke-width="0.75" stroke-linecap="round" stroke-linejoin="round" stroke-miterlimit="10" x1="221.716" y1="251.889" x2="291.44" y2="297.589"/>
		
			<line fill="none" stroke="#000000" stroke-width="0.75" stroke-linecap="round" stroke-linejoin="round" stroke-miterlimit="10" x1="291.44" y1="297.589" x2="291.44" y2="420.376"/>
	</g>
	<g>
		<polygon opacity="0.1" fill="#F8982C" points="291.44,420.376 186.743,453.65 117.018,407.198 117.018,285.387 221.716,251.889 
			291.44,297.589 		"/>
		
			<polyline fill="none" stroke="#000000" stroke-width="0.75" stroke-linecap="round" stroke-linejoin="round" stroke-miterlimit="10" points="
			221.716,251.889 221.716,373.924 117.018,407.198 		"/>
		<g>
			
				<path fill="none" stroke="#000000" stroke-width="0.75" stroke-linecap="round" stroke-linejoin="round" stroke-miterlimit="10" d="
				M291.44,420.376"/>
			
				<polyline fill="none" stroke="#000000" stroke-width="0.75" stroke-linecap="round" stroke-linejoin="round" stroke-miterlimit="10" points="
				186.743,453.65 186.743,330.832 291.44,297.589 			"/>
		</g>
		
			<line fill="none" stroke="#000000" stroke-width="0.75" stroke-linecap="round" stroke-linejoin="round" stroke-miterlimit="10" x1="117.018" y1="285.387" x2="186.743" y2="330.832"/>
		
			<polygon fill="none" stroke="#000000" stroke-width="0.75" stroke-linecap="round" stroke-linejoin="round" stroke-miterlimit="10" points="
			291.44,420.376 186.743,453.65 117.018,407.198 117.018,285.387 221.716,251.889 291.44,297.589 		"/>
		
			<line fill="none" stroke="#000000" stroke-width="0.75" stroke-linecap="round" stroke-linejoin="round" stroke-miterlimit="10" x1="221.716" y1="373.924" x2="291.44" y2="420.376"/>
	</g>
	<g>
		<polyline fill="#5D6162" points="274.202,351.572 291.44,343.128 291.44,306.582 221.716,262.062 204.478,268.506 
			204.478,308.549 274.202,351.572 		"/>
		
			<line fill="none" stroke="#000000" stroke-width="0.75" stroke-miterlimit="10" x1="204.478" y1="268.506" x2="274.202" y2="313.383"/>
		<path fill="none" stroke="#000000" stroke-width="0.75" stroke-miterlimit="10" d="M274.202,315.025"/>
		<polyline fill="none" stroke="#000000" stroke-width="0.75" stroke-miterlimit="10" points="274.202,351.572 291.44,343.128 
			291.44,306.582 221.716,262.062 204.478,268.506 204.478,308.549 274.202,351.572 		"/>
		
			<line fill="none" stroke="#000000" stroke-width="0.75" stroke-miterlimit="10" x1="274.202" y1="313.383" x2="291.44" y2="306.582"/>
		
			<line fill="none" stroke="#000000" stroke-width="0.75" stroke-miterlimit="10" x1="274.202" y1="313.383" x2="274.202" y2="351.572"/>
	</g>
	<g>
		<polygon fill="#C1C3C3" points="186.743,453.355 186.743,330.854 352.073,277.797 352.073,96.635 514.74,44.948 524.091,52.23 
			524.091,354.356 193.901,458.627 		"/>
		<path fill="none" stroke="#000000" stroke-width="1.5" stroke-miterlimit="10" d="M519.592,349.161"/>
		<polygon fill="none" stroke="#000000" stroke-width="1.5" stroke-miterlimit="10" points="186.743,453.355 186.743,330.854 
			352.073,277.797 352.073,96.635 514.319,44.948 524.091,52.23 524.091,354.356 193.901,458.627 		"/>
		<polyline fill="none" stroke="#000000" stroke-width="1.5" stroke-miterlimit="10" points="193.901,458.627 194.146,335.623 
			362.687,281.934 364.024,103.909 524.091,52.23 		"/>
		
			<line fill="none" stroke="#000000" stroke-width="1.5" stroke-miterlimit="10" x1="186.743" y1="330.854" x2="194.146" y2="335.623"/>
		
			<line fill="none" stroke="#000000" stroke-width="1.5" stroke-miterlimit="10" x1="352.073" y1="277.797" x2="362.687" y2="281.934"/>
		
			<line fill="none" stroke="#000000" stroke-width="1.5" stroke-miterlimit="10" x1="352.073" y1="96.635" x2="364.024" y2="103.909"/>
	</g>
	<g>
		<polygon fill="#C1C3C3" points="474.257,285.875 478.921,284.587 478.921,368.709 437.329,381.444 437.588,378.264 
			474.257,366.582 		"/>
		
			<polyline fill="none" stroke="#000000" stroke-width="1.5" stroke-linecap="round" stroke-linejoin="round" stroke-miterlimit="10" points="
			474.257,366.779 478.921,368.709 478.921,284.587 437.588,297.754 437.588,381.363 		"/>
		<polyline fill="#036936" points="437.588,378.264 437.588,297.557 474.257,285.875 474.257,366.582 437.588,378.264 
			474.257,366.582 		"/>
		<polyline fill="none" stroke="#000000" stroke-width="1.5" stroke-miterlimit="10" points="437.588,378.264 474.257,366.582 
			474.257,285.875 		"/>
	</g>
	<g>
		<polygon opacity="0.1" fill="#CD3F27" points="593.816,400.809 433.932,452.157 364.024,405.464 364.024,103.909 524.091,52.23 
			593.816,96.804 		"/>
		
			<polyline fill="none" stroke="#000000" stroke-width="0.75" stroke-linecap="round" stroke-linejoin="round" stroke-miterlimit="10" points="
			524.091,52.23 524.091,354.356 364.024,405.464 		"/>
		<g>
			
				<path fill="none" stroke="#000000" stroke-width="0.75" stroke-linecap="round" stroke-linejoin="round" stroke-miterlimit="10" d="
				M538.632,418.883"/>
			
				<polyline fill="none" stroke="#000000" stroke-width="0.75" stroke-linecap="round" stroke-linejoin="round" stroke-miterlimit="10" points="
				433.932,452.157 433.932,148.128 593.816,96.804 			"/>
		</g>
		
			<line fill="none" stroke="#000000" stroke-width="0.75" stroke-linecap="round" stroke-linejoin="round" stroke-miterlimit="10" x1="364.024" y1="103.909" x2="433.932" y2="148.128"/>
		
			<polygon fill="none" stroke="#000000" stroke-width="0.75" stroke-linecap="round" stroke-linejoin="round" stroke-miterlimit="10" points="
			593.816,400.809 433.932,452.157 364.024,405.464 364.024,103.909 524.091,52.23 593.816,96.804 		"/>
		
			<line fill="none" stroke="#000000" stroke-width="0.75" stroke-linecap="round" stroke-linejoin="round" stroke-miterlimit="10" x1="524.091" y1="354.356" x2="593.816" y2="400.809"/>
	</g>
	<g>
		<polygon fill="#C1C3C3" points="356.373,283.518 356.373,407.198 427.417,455.1 433.932,452.157 433.932,329.544 362.687,281.934 
					"/>
		
			<polyline fill="none" stroke="#000000" stroke-width="0.75" stroke-linecap="round" stroke-linejoin="round" stroke-miterlimit="10" points="
			356.373,283.518 427.417,331.415 427.417,455.1 		"/>
		
			<polygon fill="none" stroke="#000000" stroke-width="0.75" stroke-linecap="round" stroke-linejoin="round" stroke-miterlimit="10" points="
			356.373,283.518 356.373,407.198 427.417,455.1 433.932,452.157 433.932,329.544 362.687,281.934 		"/>
		
			<line fill="none" stroke="#000000" stroke-width="0.75" stroke-linecap="round" stroke-linejoin="round" stroke-miterlimit="10" x1="427.417" y1="331.415" x2="433.932" y2="329.544"/>
	</g>
	<g>
		<polygon opacity="0.1" fill="#924C9D" points="427.417,455.1 267.912,507.5 193.901,458.627 193.901,335.356 356.373,283.518 
			427.417,331.415 		"/>
		
			<polyline fill="none" stroke="#000000" stroke-width="0.75" stroke-linecap="round" stroke-linejoin="round" stroke-miterlimit="10" points="
			356.373,283.518 356.373,407.198 193.901,458.627 		"/>
		<g>
			
				<path fill="none" stroke="#000000" stroke-width="0.75" stroke-linecap="round" stroke-linejoin="round" stroke-miterlimit="10" d="
				M425.017,453.65"/>
			
				<polyline fill="none" stroke="#000000" stroke-width="0.75" stroke-linecap="round" stroke-linejoin="round" stroke-miterlimit="10" points="
				267.912,507.5 267.912,383.486 427.417,331.415 			"/>
		</g>
		
			<line fill="none" stroke="#000000" stroke-width="0.75" stroke-linecap="round" stroke-linejoin="round" stroke-miterlimit="10" x1="193.901" y1="335.356" x2="267.912" y2="383.486"/>
		
			<polygon fill="none" stroke="#000000" stroke-width="0.75" stroke-linecap="round" stroke-linejoin="round" stroke-miterlimit="10" points="
			427.417,455.1 267.912,507.5 193.901,458.627 193.901,335.356 356.373,283.518 427.417,331.415 		"/>
		
			<line fill="none" stroke="#000000" stroke-width="0.75" stroke-linecap="round" stroke-linejoin="round" stroke-miterlimit="10" x1="356.373" y1="407.198" x2="427.417" y2="455.1"/>
	</g>
</g>
<g>
	<rect x="276.304" y="439.07" opacity="0.8" fill="#C1C3C3" width="133.316" height="24.809"/>
	<text transform="matrix(1 0 0 1 280.3896 456.8672)" font-family="'GeosansLight'" font-size="18">Psychiatric Practice</text>
	
		<rect x="276.304" y="439.07" fill="none" stroke="#000000" stroke-width="0.75" stroke-miterlimit="10" width="133.316" height="24.809"/>
</g>
<g>
	<rect x="454.603" y="384.746" opacity="0.8" fill="#C1C3C3" width="91.142" height="24.809"/>
	<text transform="matrix(1 0 0 1 458.6885 402.543)" font-family="'GeosansLight'" font-size="18">Music room</text>
	
		<rect x="454.603" y="384.746" fill="none" stroke="#000000" stroke-width="0.75" stroke-miterlimit="10" width="91.142" height="24.809"/>
</g>
<g>
	<g>
		
			<line fill="none" stroke="#000000" stroke-width="0.75" stroke-miterlimit="10" x1="500.173" y1="65.924" x2="500.173" y2="358.896"/>
		<g>
			<path d="M500.173,61.397c-0.79,2.13-2.139,4.772-3.566,6.411l3.566-1.29l3.566,1.29C502.311,66.17,500.962,63.527,500.173,61.397
				z"/>
		</g>
		<g>
			<path d="M500.173,363.422c-0.79-2.13-2.139-4.772-3.566-6.41l3.566,1.289l3.566-1.289
				C502.311,358.649,500.962,361.292,500.173,363.422z"/>
		</g>
	</g>
</g>
<g>
	<rect x="460.929" y="211.916" opacity="0.8" fill="#C1C3C3" width="36.456" height="19.846"/>
	<text transform="matrix(1 0 0 1 464.1963 226.1528)" font-family="'GeosansLight'" font-size="14.4">6,2 m</text>
	
		<rect x="460.929" y="211.916" fill="none" stroke="#000000" stroke-width="0.6" stroke-miterlimit="10" width="36.456" height="19.846"/>
</g>
<g>
	<rect x="292.167" y="255.429" opacity="0.8" fill="#C1C3C3" width="35.798" height="24.809"/>
	<text transform="matrix(1 0 0 1 296.2529 273.2246)" font-family="'GeosansLight'" font-size="18">WC</text>
	
		<rect x="292.167" y="255.429" fill="none" stroke="#000000" stroke-width="0.75" stroke-miterlimit="10" width="35.798" height="24.809"/>
</g>
<g>
	<rect x="119.812" y="305.873" opacity="0.8" fill="#C1C3C3" width="58.118" height="24.809"/>
	<text transform="matrix(1 0 0 1 123.8975 323.6699)" font-family="'GeosansLight'" font-size="18">Kitchen</text>
	
		<rect x="119.812" y="305.873" fill="none" stroke="#000000" stroke-width="0.75" stroke-miterlimit="10" width="58.118" height="24.809"/>
</g>
<g>
	<rect x="31.201" y="439.07" opacity="0.8" fill="#C1C3C3" width="98.908" height="24.809"/>
	<text transform="matrix(1 0 0 1 35.2871 456.8672)" font-family="'GeosansLight'" font-size="18">Fire section A</text>
	
		<rect x="31.201" y="439.07" fill="none" stroke="#000000" stroke-width="0.75" stroke-miterlimit="10" width="98.908" height="24.809"/>
</g>
<g>
	<rect x="126.022" y="479.277" opacity="0.8" fill="#C1C3C3" width="97.214" height="24.809"/>
	<text transform="matrix(1 0 0 1 130.1094 497.0742)" font-family="'GeosansLight'" font-size="18">Fire section B</text>
	
		<rect x="126.022" y="479.277" fill="none" stroke="#000000" stroke-width="0.75" stroke-miterlimit="10" width="97.214" height="24.809"/>
</g>
<g>
	<rect x="376.828" y="27.208" opacity="0.8" fill="#C1C3C3" width="42.759" height="24.809"/>
	<text transform="matrix(1 0 0 1 380.9141 45.0044)" font-family="'GeosansLight'" font-size="18">Gym</text>
	
		<rect x="376.828" y="27.208" fill="none" stroke="#000000" stroke-width="0.75" stroke-miterlimit="10" width="42.759" height="24.809"/>
</g>
<g>
	<rect x="401.472" y="267.873" opacity="0.8" fill="#C1C3C3" width="58.404" height="19.848"/>
	<text transform="matrix(1 0 0 1 404.7393 282.1113)" font-family="'GeosansLight'" font-size="14.4">Fire door</text>
	
		<rect x="401.472" y="267.873" fill="none" stroke="#000000" stroke-width="0.6" stroke-miterlimit="10" width="58.404" height="19.848"/>
</g>
<g>
	<rect x="130.616" y="245.505" opacity="0.8" fill="#C1C3C3" width="63.529" height="19.848"/>
	<text transform="matrix(1 0 0 1 133.8838 259.7422)" font-family="'GeosansLight'" font-size="14.4">Cupboard</text>
	
		<rect x="130.616" y="245.505" fill="none" stroke="#000000" stroke-width="0.6" stroke-miterlimit="10" width="63.529" height="19.848"/>
</g>
</svg>
