<?xml version="1.0" encoding="utf-8"?>
<!-- Generator: Adobe Illustrator 16.0.0, SVG Export Plug-In . SVG Version: 6.00 Build 0)  -->
<!DOCTYPE svg PUBLIC "-//W3C//DTD SVG 1.1//EN" "http://www.w3.org/Graphics/SVG/1.1/DTD/svg11.dtd">
<svg version="1.1" id="Layer_1" xmlns="http://www.w3.org/2000/svg" xmlns:xlink="http://www.w3.org/1999/xlink" x="0px" y="0px"
	 width="707.252px" height="516.457px" viewBox="0 0 707.252 516.457" enable-background="new 0 0 707.252 516.457"
	 xml:space="preserve">
<g>
	<g>
		
			<line fill="none" stroke="#EE2F47" stroke-width="3.75" stroke-miterlimit="10" x1="0.561" y1="514.667" x2="4.855" y2="513.322"/>
		
			<line fill="none" stroke="#EE2F47" stroke-width="3.75" stroke-miterlimit="10" stroke-dasharray="9.0243,9.0243" x1="13.466" y1="510.625" x2="698.091" y2="296.162"/>
		
			<line fill="none" stroke="#EE2F47" stroke-width="3.75" stroke-miterlimit="10" x1="702.397" y1="294.814" x2="706.691" y2="293.468"/>
	</g>
</g>
<g>
	<g>
		<polygon opacity="0.1" fill="#356A9A" enable-background="new    " points="514.319,348.953 409.62,382.228 339.895,335.775 
			339.895,34.22 444.595,0.375 514.319,44.948 		"/>
		
			<polyline fill="none" stroke="#000000" stroke-width="0.75" stroke-linecap="round" stroke-linejoin="round" stroke-miterlimit="10" points="
			444.595,0.375 444.595,302.501 339.895,335.775 		"/>
		<g>
			
				<path fill="none" stroke="#000000" stroke-width="0.75" stroke-linecap="round" stroke-linejoin="round" stroke-miterlimit="10" d="
				M514.319,348.953"/>
			
				<polyline fill="none" stroke="#000000" stroke-width="0.75" stroke-linecap="round" stroke-linejoin="round" stroke-miterlimit="10" points="
				409.62,382.228 409.62,78.198 514.319,44.948 			"/>
		</g>
		
			<line fill="none" stroke="#000000" stroke-width="0.75" stroke-linecap="round" stroke-linejoin="round" stroke-miterlimit="10" x1="339.895" y1="34.22" x2="409.62" y2="78.198"/>
		
			<polygon fill="none" stroke="#000000" stroke-width="0.75" stroke-linecap="round" stroke-linejoin="round" stroke-miterlimit="10" points="
			514.319,348.953 409.62,382.228 339.895,335.775 339.895,34.22 444.595,0.375 514.319,44.948 		"/>
		
			<line fill="none" stroke="#000000" stroke-width="0.75" stroke-linecap="round" stroke-linejoin="round" stroke-miterlimit="10" x1="444.595" y1="302.501" x2="514.319" y2="348.953"/>
	</g>
	<g>
		<polyline fill="#C1C3C3" points="402.229,384.302 409.62,382.228 409.619,78.199 339.895,34.22 332.505,36.294 332.505,337.85 
			402.229,384.302 		"/>
		
			<polyline fill="none" stroke="#000000" stroke-width="0.75" stroke-linecap="round" stroke-linejoin="round" stroke-miterlimit="10" points="
			339.895,34.22 409.619,78.199 409.62,382.228 		"/>
		<g>
			
				<polygon fill="none" stroke="#000000" stroke-width="0.75" stroke-linecap="round" stroke-linejoin="round" stroke-miterlimit="10" points="
				402.229,384.302 332.505,337.85 332.505,36.294 402.229,80.273 			"/>
		</g>
		
			<line fill="none" stroke="#000000" stroke-width="0.75" stroke-linecap="round" stroke-linejoin="round" stroke-miterlimit="10" x1="402.229" y1="384.302" x2="409.62" y2="382.228"/>
		
			<line fill="none" stroke="#000000" stroke-width="0.75" stroke-linecap="round" stroke-linejoin="round" stroke-miterlimit="10" x1="332.505" y1="36.294" x2="339.895" y2="34.22"/>
		
			<line fill="none" stroke="#000000" stroke-width="0.75" stroke-linecap="round" stroke-linejoin="round" stroke-miterlimit="10" x1="402.229" y1="80.273" x2="409.62" y2="78.199"/>
	</g>
	<g>
		<polygon opacity="0.1" fill="#649B43" enable-background="new    " points="402.229,384.302 297.531,417.576 227.807,371.125 
			227.807,249.313 332.505,215.814 402.229,261.516 		"/>
		
			<polyline fill="none" stroke="#000000" stroke-width="0.75" stroke-linecap="round" stroke-linejoin="round" stroke-miterlimit="10" points="
			332.505,215.814 332.505,337.85 227.807,371.125 		"/>
		<g>
			
				<path fill="none" stroke="#000000" stroke-width="0.75" stroke-linecap="round" stroke-linejoin="round" stroke-miterlimit="10" d="
				M402.229,384.302"/>
			
				<polyline fill="none" stroke="#000000" stroke-width="0.75" stroke-linecap="round" stroke-linejoin="round" stroke-miterlimit="10" points="
				297.531,417.576 297.531,294.757 402.229,261.516 			"/>
		</g>
		
			<line fill="none" stroke="#000000" stroke-width="0.75" stroke-linecap="round" stroke-linejoin="round" stroke-miterlimit="10" x1="227.807" y1="249.313" x2="297.531" y2="294.757"/>
		
			<polygon fill="none" stroke="#000000" stroke-width="0.75" stroke-linecap="round" stroke-linejoin="round" stroke-miterlimit="10" points="
			402.229,384.302 297.531,417.576 227.807,371.125 227.807,249.313 332.505,215.814 402.229,261.516 		"/>
		
			<line fill="none" stroke="#000000" stroke-width="0.75" stroke-linecap="round" stroke-linejoin="round" stroke-miterlimit="10" x1="332.505" y1="337.85" x2="402.229" y2="384.302"/>
	</g>
	<g>
		<g>
			<polygon fill="#C1C3C3" points="221.716,251.889 221.716,373.923 291.44,420.376 297.531,417.576 297.531,294.757 
				227.807,249.313 			"/>
		</g>
		<g>
			
				<polygon fill="none" stroke="#000000" stroke-width="0.75" stroke-linecap="round" stroke-linejoin="round" stroke-miterlimit="10" points="
				221.716,251.889 221.716,373.923 291.44,420.376 297.531,417.576 297.531,294.757 227.807,249.313 			"/>
		</g>
		
			<line fill="none" stroke="#000000" stroke-width="0.75" stroke-linecap="round" stroke-linejoin="round" stroke-miterlimit="10" x1="291.44" y1="297.589" x2="297.531" y2="294.757"/>
		
			<line fill="none" stroke="#000000" stroke-width="0.75" stroke-linecap="round" stroke-linejoin="round" stroke-miterlimit="10" x1="221.716" y1="251.889" x2="291.44" y2="297.589"/>
		
			<line fill="none" stroke="#000000" stroke-width="0.75" stroke-linecap="round" stroke-linejoin="round" stroke-miterlimit="10" x1="291.44" y1="297.589" x2="291.44" y2="420.376"/>
	</g>
	<g>
		<polygon opacity="0.1" fill="#F8982C" enable-background="new    " points="291.44,420.376 186.743,453.65 117.018,407.199 
			117.018,285.386 221.716,251.889 291.44,297.589 		"/>
		
			<polyline fill="none" stroke="#000000" stroke-width="0.75" stroke-linecap="round" stroke-linejoin="round" stroke-miterlimit="10" points="
			221.716,251.889 221.716,373.923 117.018,407.199 		"/>
		<g>
			
				<path fill="none" stroke="#000000" stroke-width="0.75" stroke-linecap="round" stroke-linejoin="round" stroke-miterlimit="10" d="
				M291.44,420.376"/>
			
				<polyline fill="none" stroke="#000000" stroke-width="0.75" stroke-linecap="round" stroke-linejoin="round" stroke-miterlimit="10" points="
				186.743,453.65 186.743,330.832 291.44,297.589 			"/>
		</g>
		
			<line fill="none" stroke="#000000" stroke-width="0.75" stroke-linecap="round" stroke-linejoin="round" stroke-miterlimit="10" x1="117.018" y1="285.386" x2="186.743" y2="330.832"/>
		
			<polygon fill="none" stroke="#000000" stroke-width="0.75" stroke-linecap="round" stroke-linejoin="round" stroke-miterlimit="10" points="
			291.44,420.376 186.743,453.65 117.018,407.199 117.018,285.386 221.716,251.889 291.44,297.589 		"/>
		
			<line fill="none" stroke="#000000" stroke-width="0.75" stroke-linecap="round" stroke-linejoin="round" stroke-miterlimit="10" x1="221.716" y1="373.923" x2="291.44" y2="420.376"/>
	</g>
	<g>
		<polyline fill="#5D6162" points="274.202,351.572 291.44,343.128 291.44,306.582 221.716,262.062 204.478,268.505 
			204.478,308.548 274.202,351.572 		"/>
		
			<line fill="none" stroke="#000000" stroke-width="0.75" stroke-miterlimit="10" x1="204.478" y1="268.505" x2="274.202" y2="313.382"/>
		<path fill="none" stroke="#000000" stroke-width="0.75" stroke-miterlimit="10" d="M274.202,315.025"/>
		<polyline fill="none" stroke="#000000" stroke-width="0.75" stroke-miterlimit="10" points="274.202,351.572 291.44,343.128 
			291.44,306.582 221.716,262.062 204.478,268.505 204.478,308.548 274.202,351.572 		"/>
		
			<line fill="none" stroke="#000000" stroke-width="0.75" stroke-miterlimit="10" x1="274.202" y1="313.382" x2="291.44" y2="306.582"/>
		
			<line fill="none" stroke="#000000" stroke-width="0.75" stroke-miterlimit="10" x1="274.202" y1="313.382" x2="274.202" y2="351.572"/>
	</g>
	<g>
		<polygon fill="#C1C3C3" points="186.743,453.355 186.743,330.854 352.073,277.796 352.073,96.635 514.74,44.948 524.091,52.23 
			524.091,354.356 193.901,458.626 		"/>
		<path fill="none" stroke="#000000" stroke-width="1.5" stroke-miterlimit="10" d="M519.592,349.162"/>
		<polygon fill="none" stroke="#000000" stroke-width="1.5" stroke-miterlimit="10" points="186.743,453.355 186.743,330.854 
			352.073,277.796 352.073,96.635 514.319,44.948 524.091,52.23 524.091,354.356 193.901,458.626 		"/>
		<polyline fill="none" stroke="#000000" stroke-width="1.5" stroke-miterlimit="10" points="193.901,458.626 194.146,335.623 
			362.687,281.934 364.024,103.909 524.091,52.23 		"/>
		
			<line fill="none" stroke="#000000" stroke-width="1.5" stroke-miterlimit="10" x1="186.743" y1="330.854" x2="194.146" y2="335.623"/>
		
			<line fill="none" stroke="#000000" stroke-width="1.5" stroke-miterlimit="10" x1="352.073" y1="277.796" x2="362.687" y2="281.934"/>
		
			<line fill="none" stroke="#000000" stroke-width="1.5" stroke-miterlimit="10" x1="352.073" y1="96.635" x2="364.024" y2="103.909"/>
	</g>
	<g>
		<polygon fill="#C1C3C3" points="474.257,285.875 478.921,284.587 478.921,368.708 437.329,381.444 437.588,378.264 
			474.257,366.582 		"/>
		
			<polyline fill="none" stroke="#000000" stroke-width="1.5" stroke-linecap="round" stroke-linejoin="round" stroke-miterlimit="10" points="
			474.257,366.779 478.921,368.708 478.921,284.587 437.588,297.753 437.588,381.363 		"/>
		<polyline fill="#036936" points="437.588,378.264 437.588,297.557 474.257,285.875 474.257,366.582 437.588,378.264 
			474.257,366.582 		"/>
		<polyline fill="none" stroke="#000000" stroke-width="1.5" stroke-miterlimit="10" points="437.588,378.264 474.257,366.582 
			474.257,285.875 		"/>
	</g>
	<g>
		<polygon opacity="0.1" fill="#CD3F27" enable-background="new    " points="593.816,400.809 433.932,452.158 364.024,405.464 
			364.024,103.909 524.091,52.23 593.816,96.804 		"/>
		
			<polyline fill="none" stroke="#000000" stroke-width="0.75" stroke-linecap="round" stroke-linejoin="round" stroke-miterlimit="10" points="
			524.091,52.23 524.091,354.356 364.024,405.464 		"/>
		<g>
			
				<path fill="none" stroke="#000000" stroke-width="0.75" stroke-linecap="round" stroke-linejoin="round" stroke-miterlimit="10" d="
				M538.632,418.882"/>
			
				<polyline fill="none" stroke="#000000" stroke-width="0.75" stroke-linecap="round" stroke-linejoin="round" stroke-miterlimit="10" points="
				433.932,452.158 433.932,148.128 593.816,96.804 			"/>
		</g>
		
			<line fill="none" stroke="#000000" stroke-width="0.75" stroke-linecap="round" stroke-linejoin="round" stroke-miterlimit="10" x1="364.024" y1="103.909" x2="433.932" y2="148.128"/>
		
			<polygon fill="none" stroke="#000000" stroke-width="0.75" stroke-linecap="round" stroke-linejoin="round" stroke-miterlimit="10" points="
			593.816,400.809 433.932,452.158 364.024,405.464 364.024,103.909 524.091,52.23 593.816,96.804 		"/>
		
			<line fill="none" stroke="#000000" stroke-width="0.75" stroke-linecap="round" stroke-linejoin="round" stroke-miterlimit="10" x1="524.091" y1="354.356" x2="593.816" y2="400.809"/>
	</g>
	<g>
		<polygon fill="#C1C3C3" points="356.373,283.518 356.373,407.199 427.417,455.099 433.932,452.158 433.932,329.544 
			362.687,281.934 		"/>
		
			<polyline fill="none" stroke="#000000" stroke-width="0.75" stroke-linecap="round" stroke-linejoin="round" stroke-miterlimit="10" points="
			356.373,283.518 427.417,331.416 427.417,455.099 		"/>
		
			<polygon fill="none" stroke="#000000" stroke-width="0.75" stroke-linecap="round" stroke-linejoin="round" stroke-miterlimit="10" points="
			356.373,283.518 356.373,407.199 427.417,455.099 433.932,452.158 433.932,329.544 362.687,281.934 		"/>
		
			<line fill="none" stroke="#000000" stroke-width="0.75" stroke-linecap="round" stroke-linejoin="round" stroke-miterlimit="10" x1="427.417" y1="331.416" x2="433.932" y2="329.544"/>
	</g>
	<g>
		<polygon opacity="0.1" fill="#924C9D" enable-background="new    " points="427.417,455.099 267.912,507.5 193.901,458.626 
			193.901,335.356 356.373,283.518 427.417,331.416 		"/>
		
			<polyline fill="none" stroke="#000000" stroke-width="0.75" stroke-linecap="round" stroke-linejoin="round" stroke-miterlimit="10" points="
			356.373,283.518 356.373,407.199 193.901,458.626 		"/>
		<g>
			
				<path fill="none" stroke="#000000" stroke-width="0.75" stroke-linecap="round" stroke-linejoin="round" stroke-miterlimit="10" d="
				M425.017,453.65"/>
			
				<polyline fill="none" stroke="#000000" stroke-width="0.75" stroke-linecap="round" stroke-linejoin="round" stroke-miterlimit="10" points="
				267.912,507.5 267.912,383.486 427.417,331.416 			"/>
		</g>
		
			<line fill="none" stroke="#000000" stroke-width="0.75" stroke-linecap="round" stroke-linejoin="round" stroke-miterlimit="10" x1="193.901" y1="335.356" x2="267.912" y2="383.486"/>
		
			<polygon fill="none" stroke="#000000" stroke-width="0.75" stroke-linecap="round" stroke-linejoin="round" stroke-miterlimit="10" points="
			427.417,455.099 267.912,507.5 193.901,458.626 193.901,335.356 356.373,283.518 427.417,331.416 		"/>
		
			<line fill="none" stroke="#000000" stroke-width="0.75" stroke-linecap="round" stroke-linejoin="round" stroke-miterlimit="10" x1="356.373" y1="407.199" x2="427.417" y2="455.099"/>
	</g>
</g>
<g>
	<rect x="276.304" y="439.07" opacity="0.8" fill="#C1C3C3" enable-background="new    " width="133.316" height="24.809"/>
	<g enable-background="new    ">
		<path d="M287.374,449.541c-0.672,0.601-1.5,0.9-2.484,0.9h-2.412v6.426h-0.72v-12.852h3.132c0.984,0,1.812,0.287,2.484,0.863
			s1.008,1.351,1.008,2.322C288.382,448.185,288.045,448.964,287.374,449.541z M286.815,445.365
			c-0.492-0.408-1.14-0.612-1.944-0.612h-2.394v4.95h2.394c0.792,0,1.452-0.216,1.98-0.647c0.528-0.456,0.792-1.074,0.792-1.854
			S287.368,445.809,286.815,445.365z"/>
		<path d="M292.107,456.399c-0.48,0.408-1.056,0.611-1.728,0.611c-1.152,0-2.016-0.521-2.592-1.565l0.63-0.378
			c0.204,0.372,0.45,0.66,0.738,0.864c0.3,0.228,0.708,0.342,1.224,0.342c1.128,0,1.692-0.48,1.692-1.44
			c0-0.42-0.198-0.785-0.594-1.098c-0.12-0.072-0.291-0.153-0.513-0.243c-0.222-0.09-0.495-0.195-0.819-0.315
			c-0.6-0.216-1.032-0.432-1.296-0.647c-0.384-0.313-0.576-0.762-0.576-1.351c0-0.504,0.192-0.936,0.576-1.296
			c0.372-0.371,0.858-0.558,1.458-0.558c0.828,0,1.53,0.288,2.106,0.864l-0.54,0.468c-0.408-0.408-0.93-0.612-1.566-0.612
			c-0.864,0-1.296,0.378-1.296,1.134c0,0.337,0.132,0.612,0.396,0.828c0.216,0.169,0.558,0.33,1.026,0.486
			c0.408,0.144,0.744,0.279,1.008,0.405c0.264,0.126,0.462,0.237,0.594,0.333c0.516,0.396,0.774,0.93,0.774,1.602
			C292.81,455.481,292.576,456.002,292.107,456.399z"/>
		<path d="M295.762,460.359h-0.828l1.926-4.176l-3.132-6.75h0.792l2.772,5.867l2.736-5.867h0.81L295.762,460.359z"/>
		<path d="M304.87,457.01c-1.104,0-2.022-0.365-2.754-1.098c-0.732-0.731-1.098-1.649-1.098-2.754c0-1.104,0.366-2.021,1.098-2.754
			c0.732-0.731,1.65-1.098,2.754-1.098c0.948,0,1.704,0.216,2.268,0.647v0.882l-0.468-0.306l-0.504-0.271
			c-0.457-0.155-0.888-0.233-1.296-0.233c-0.924,0-1.674,0.288-2.25,0.864c-0.588,0.588-0.882,1.344-0.882,2.268
			c0,0.912,0.294,1.662,0.882,2.25c0.587,0.588,1.338,0.882,2.25,0.882c0.864,0,1.62-0.288,2.268-0.864v0.918
			C306.466,456.789,305.709,457.01,304.87,457.01z"/>
		<path d="M314.068,456.884v-4.481c0-1.572-0.732-2.358-2.196-2.358c-0.601,0-1.116,0.181-1.548,0.54
			c-0.444,0.36-0.666,0.84-0.666,1.44v4.842h-0.738v-13.32h0.738v6.876c0.444-0.731,1.182-1.098,2.214-1.098
			c1.956,0,2.934,1.002,2.934,3.006v4.554H314.068z"/>
		<path d="M316.479,448.101c-0.132,0-0.27-0.055-0.414-0.162c-0.108-0.108-0.168-0.252-0.18-0.433c0-0.323,0.198-0.521,0.594-0.594
			c0.3,0,0.498,0.198,0.594,0.594C317.074,447.903,316.875,448.101,316.479,448.101z M316.102,456.867v-7.434h0.738v7.434H316.102z"
			/>
		<path d="M325.534,456.867v-1.278c-0.78,0.937-1.771,1.404-2.97,1.404c-1.08,0-1.986-0.366-2.718-1.098
			c-0.744-0.744-1.116-1.656-1.116-2.736s0.366-1.986,1.098-2.718c0.744-0.744,1.656-1.116,2.736-1.116
			c1.188,0,2.178,0.468,2.97,1.404v-1.296h0.738v7.434H325.534z M324.76,450.962c-0.612-0.611-1.344-0.918-2.196-0.918
			c-0.864,0-1.596,0.301-2.196,0.9c-0.612,0.612-0.918,1.35-0.918,2.214c0,0.853,0.306,1.584,0.918,2.196
			c0.612,0.611,1.344,0.918,2.196,0.918c0.864,0,1.596-0.3,2.196-0.9c0.612-0.612,0.918-1.35,0.918-2.214
			C325.678,452.307,325.372,451.575,324.76,450.962z"/>
		<path d="M329.583,450.17v6.696h-0.738v-6.696h-1.008v-0.737h1.008v-3.259h0.738v3.259h1.728v0.737H329.583z"/>
		<path d="M336.478,450.531c-0.192-0.145-0.396-0.258-0.612-0.342s-0.444-0.126-0.684-0.126c-0.204,0-0.396,0.063-0.576,0.188
			c-0.18,0.126-0.336,0.282-0.468,0.468c-0.132,0.187-0.237,0.394-0.315,0.621c-0.078,0.229-0.117,0.438-0.117,0.63v4.896h-0.738
			v-7.434h0.738v1.008c0.156-0.276,0.36-0.528,0.612-0.756c0.252-0.229,0.528-0.343,0.828-0.343c0.372,0,0.678,0.043,0.918,0.126
			c0.24,0.085,0.51,0.234,0.81,0.45L336.478,450.531z"/>
		<path d="M339.051,448.101c-0.132,0-0.27-0.055-0.414-0.162c-0.108-0.108-0.168-0.252-0.18-0.433c0-0.323,0.198-0.521,0.594-0.594
			c0.3,0,0.498,0.198,0.594,0.594C339.646,447.903,339.447,448.101,339.051,448.101z M338.673,456.867v-7.434h0.738v7.434H338.673z"
			/>
		<path d="M345.369,457.01c-1.104,0-2.022-0.365-2.754-1.098c-0.732-0.731-1.098-1.649-1.098-2.754c0-1.104,0.366-2.021,1.098-2.754
			c0.732-0.731,1.65-1.098,2.754-1.098c0.948,0,1.704,0.216,2.268,0.647v0.882l-0.468-0.306l-0.504-0.271
			c-0.457-0.155-0.888-0.233-1.296-0.233c-0.924,0-1.674,0.288-2.25,0.864c-0.588,0.588-0.882,1.344-0.882,2.268
			c0,0.912,0.294,1.662,0.882,2.25c0.587,0.588,1.338,0.882,2.25,0.882c0.864,0,1.62-0.288,2.268-0.864v0.918
			C346.965,456.789,346.208,457.01,345.369,457.01z"/>
		<path d="M360.128,449.541c-0.672,0.601-1.5,0.9-2.483,0.9h-2.412v6.426h-0.72v-12.852h3.132c0.983,0,1.812,0.287,2.483,0.863
			s1.009,1.351,1.009,2.322C361.137,448.185,360.8,448.964,360.128,449.541z M359.57,445.365c-0.492-0.408-1.14-0.612-1.944-0.612
			h-2.394v4.95h2.394c0.793,0,1.452-0.216,1.98-0.647c0.527-0.456,0.792-1.074,0.792-1.854S360.122,445.809,359.57,445.365z"/>
		<path d="M365.421,450.531c-0.192-0.145-0.396-0.258-0.612-0.342s-0.444-0.126-0.685-0.126c-0.203,0-0.396,0.063-0.575,0.188
			c-0.181,0.126-0.337,0.282-0.468,0.468c-0.133,0.187-0.237,0.394-0.315,0.621c-0.078,0.229-0.117,0.438-0.117,0.63v4.896h-0.737
			v-7.434h0.737v1.008c0.156-0.276,0.36-0.528,0.612-0.756c0.252-0.229,0.527-0.343,0.828-0.343c0.371,0,0.678,0.043,0.918,0.126
			c0.24,0.085,0.51,0.234,0.811,0.45L365.421,450.531z"/>
		<path d="M373.377,456.867v-1.278c-0.78,0.937-1.771,1.404-2.97,1.404c-1.08,0-1.986-0.366-2.719-1.098
			c-0.744-0.744-1.115-1.656-1.115-2.736s0.365-1.986,1.098-2.718c0.744-0.744,1.656-1.116,2.736-1.116
			c1.188,0,2.178,0.468,2.97,1.404v-1.296h0.737v7.434H373.377z M372.603,450.962c-0.611-0.611-1.344-0.918-2.195-0.918
			c-0.864,0-1.597,0.301-2.196,0.9c-0.612,0.612-0.918,1.35-0.918,2.214c0,0.853,0.306,1.584,0.918,2.196
			c0.612,0.611,1.344,0.918,2.196,0.918c0.863,0,1.596-0.3,2.195-0.9c0.612-0.612,0.918-1.35,0.918-2.214
			C373.521,452.307,373.215,451.575,372.603,450.962z"/>
		<path d="M379.821,457.01c-1.104,0-2.022-0.365-2.754-1.098c-0.732-0.731-1.098-1.649-1.098-2.754c0-1.104,0.365-2.021,1.098-2.754
			c0.731-0.731,1.649-1.098,2.754-1.098c0.947,0,1.703,0.216,2.268,0.647v0.882l-0.468-0.306l-0.504-0.271
			c-0.456-0.155-0.888-0.233-1.296-0.233c-0.924,0-1.674,0.288-2.25,0.864c-0.588,0.588-0.883,1.344-0.883,2.268
			c0,0.912,0.295,1.662,0.883,2.25s1.338,0.882,2.25,0.882c0.863,0,1.619-0.288,2.268-0.864v0.918
			C381.417,456.789,380.661,457.01,379.821,457.01z"/>
		<path d="M385.312,450.17v6.696h-0.738v-6.696h-1.008v-0.737h1.008v-3.259h0.738v3.259h1.728v0.737H385.312z"/>
		<path d="M389.198,448.101c-0.132,0-0.27-0.055-0.414-0.162c-0.107-0.108-0.168-0.252-0.18-0.433c0-0.323,0.198-0.521,0.594-0.594
			c0.301,0,0.498,0.198,0.595,0.594C389.793,447.903,389.595,448.101,389.198,448.101z M388.821,456.867v-7.434h0.737v7.434H388.821
			z"/>
		<path d="M395.517,457.01c-1.104,0-2.022-0.365-2.754-1.098c-0.732-0.731-1.098-1.649-1.098-2.754c0-1.104,0.365-2.021,1.098-2.754
			c0.731-0.731,1.649-1.098,2.754-1.098c0.947,0,1.703,0.216,2.268,0.647v0.882l-0.468-0.306l-0.504-0.271
			c-0.456-0.155-0.888-0.233-1.296-0.233c-0.924,0-1.674,0.288-2.25,0.864c-0.588,0.588-0.883,1.344-0.883,2.268
			c0,0.912,0.295,1.662,0.883,2.25s1.338,0.882,2.25,0.882c0.863,0,1.619-0.288,2.268-0.864v0.918
			C397.112,456.789,396.356,457.01,395.517,457.01z"/>
		<path d="M398.973,452.997c0,1.008,0.271,1.807,0.81,2.395c0.564,0.6,1.338,0.899,2.322,0.899c0.504,0,0.96-0.084,1.368-0.252
			c0.516-0.216,0.978-0.653,1.386-1.313l0.666,0.306c-0.468,0.888-1.188,1.488-2.16,1.8c-0.371,0.12-0.791,0.18-1.26,0.18
			c-1.115,0-2.033-0.365-2.754-1.098c-0.732-0.731-1.098-1.649-1.098-2.754c0-1.116,0.359-2.034,1.08-2.754
			c0.731-0.731,1.656-1.098,2.771-1.098c1.104,0,2.016,0.342,2.736,1.025c0.731,0.685,1.098,1.572,1.098,2.664H398.973z
			 M404.049,450.639c-0.564-0.408-1.212-0.612-1.944-0.612c-1.536,0-2.544,0.756-3.023,2.268h6.029
			C404.991,451.611,404.636,451.059,404.049,450.639z"/>
	</g>
	
		<rect x="276.304" y="439.07" fill="none" stroke="#000000" stroke-width="0.75" stroke-miterlimit="10" width="133.316" height="24.809"/>
</g>
<g>
	<rect x="454.603" y="384.746" opacity="0.8" fill="#C1C3C3" enable-background="new    " width="91.143" height="24.81"/>
	<g enable-background="new    ">
		<path d="M473.79,402.542l-2.735-10.8l-4.229,11.124l-4.23-11.143l-2.754,10.818h-0.738l3.348-13.23l4.375,11.467l4.373-11.484
			l3.348,13.248H473.79z"/>
		<path d="M480.847,401.894c-0.492,0.528-1.183,0.792-2.07,0.792c-0.876,0-1.555-0.258-2.034-0.773s-0.72-1.236-0.72-2.16v-4.644
			h0.738v4.644c0,0.708,0.155,1.254,0.468,1.638c0.323,0.385,0.84,0.576,1.548,0.576c1.38,0,2.07-0.738,2.07-2.214v-4.644h0.72
			v4.644C481.566,400.665,481.326,401.378,480.847,401.894z"/>
		<path d="M487.487,402.075c-0.479,0.408-1.055,0.611-1.728,0.611c-1.151,0-2.016-0.521-2.592-1.565l0.63-0.378
			c0.204,0.372,0.45,0.66,0.738,0.864c0.3,0.228,0.708,0.342,1.224,0.342c1.128,0,1.692-0.48,1.692-1.44
			c0-0.42-0.198-0.785-0.594-1.098c-0.121-0.072-0.291-0.153-0.514-0.243c-0.222-0.09-0.494-0.195-0.818-0.315
			c-0.601-0.216-1.033-0.432-1.297-0.647c-0.384-0.313-0.576-0.762-0.576-1.351c0-0.504,0.192-0.936,0.576-1.296
			c0.373-0.371,0.858-0.558,1.459-0.558c0.828,0,1.529,0.288,2.105,0.864l-0.54,0.468c-0.408-0.408-0.931-0.612-1.565-0.612
			c-0.864,0-1.297,0.378-1.297,1.134c0,0.337,0.133,0.612,0.396,0.828c0.216,0.169,0.559,0.33,1.025,0.486
			c0.408,0.144,0.744,0.279,1.008,0.405c0.265,0.126,0.463,0.237,0.595,0.333c0.516,0.396,0.774,0.93,0.774,1.602
			C488.19,401.157,487.956,401.678,487.487,402.075z"/>
		<path d="M490.296,393.777c-0.133,0-0.27-0.055-0.414-0.162c-0.107-0.108-0.168-0.252-0.18-0.433c0-0.323,0.197-0.521,0.594-0.594
			c0.3,0,0.498,0.198,0.594,0.594C490.89,393.579,490.692,393.777,490.296,393.777z M489.918,402.542v-7.434h0.737v7.434H489.918z"
			/>
		<path d="M496.614,402.686c-1.104,0-2.022-0.365-2.754-1.098c-0.732-0.731-1.098-1.649-1.098-2.754
			c0-1.104,0.365-2.021,1.098-2.754c0.731-0.731,1.649-1.098,2.754-1.098c0.947,0,1.703,0.216,2.268,0.647v0.882l-0.468-0.306
			l-0.504-0.271c-0.456-0.155-0.888-0.233-1.296-0.233c-0.924,0-1.674,0.288-2.25,0.864c-0.588,0.588-0.883,1.344-0.883,2.268
			c0,0.912,0.295,1.662,0.883,2.25s1.338,0.882,2.25,0.882c0.863,0,1.619-0.288,2.268-0.864v0.918
			C498.21,402.464,497.454,402.686,496.614,402.686z"/>
		<path d="M509.088,396.207c-0.192-0.145-0.396-0.258-0.612-0.342s-0.443-0.126-0.684-0.126c-0.205,0-0.396,0.063-0.576,0.188
			s-0.336,0.282-0.469,0.468c-0.132,0.187-0.236,0.394-0.314,0.621c-0.078,0.229-0.117,0.438-0.117,0.63v4.896h-0.738v-7.434h0.738
			v1.008c0.156-0.276,0.36-0.528,0.612-0.756c0.252-0.229,0.528-0.343,0.828-0.343c0.372,0,0.678,0.043,0.918,0.126
			c0.239,0.085,0.51,0.234,0.81,0.45L509.088,396.207z"/>
		<path d="M516.036,401.552c-0.744,0.744-1.656,1.116-2.736,1.116s-1.986-0.366-2.719-1.098c-0.744-0.744-1.115-1.656-1.115-2.736
			c0-1.068,0.371-1.974,1.115-2.718c0.732-0.756,1.639-1.134,2.719-1.134c1.067,0,1.974,0.372,2.718,1.115
			c0.743,0.744,1.116,1.656,1.116,2.736S516.767,400.821,516.036,401.552z M515.514,396.621c-0.601-0.612-1.339-0.918-2.214-0.918
			c-0.84,0-1.566,0.313-2.178,0.936c-0.625,0.624-0.937,1.356-0.937,2.196c0,0.853,0.306,1.584,0.918,2.196
			c0.612,0.611,1.344,0.918,2.196,0.918c0.863,0,1.596-0.3,2.195-0.9c0.612-0.612,0.918-1.35,0.918-2.214
			C516.413,397.958,516.113,397.22,515.514,396.621z"/>
		<path d="M525.773,401.552c-0.744,0.744-1.656,1.116-2.736,1.116s-1.985-0.366-2.718-1.098c-0.744-0.744-1.116-1.656-1.116-2.736
			c0-1.068,0.372-1.974,1.116-2.718c0.732-0.756,1.638-1.134,2.718-1.134c1.067,0,1.974,0.372,2.718,1.115
			c0.744,0.744,1.116,1.656,1.116,2.736S526.505,400.821,525.773,401.552z M525.251,396.621c-0.6-0.612-1.338-0.918-2.214-0.918
			c-0.84,0-1.565,0.313-2.178,0.936c-0.624,0.624-0.937,1.356-0.937,2.196c0,0.853,0.307,1.584,0.918,2.196
			c0.612,0.611,1.344,0.918,2.196,0.918c0.864,0,1.596-0.3,2.196-0.9c0.611-0.612,0.918-1.35,0.918-2.214
			C526.151,397.958,525.851,397.22,525.251,396.621z"/>
		<path d="M537.185,402.542v-5.13c0-0.456-0.149-0.852-0.449-1.188c-0.301-0.336-0.732-0.504-1.297-0.504
			c-1.164,0-1.746,0.564-1.746,1.692v5.13h-0.737v-5.13c0-0.504-0.168-0.906-0.504-1.206c-0.349-0.324-0.763-0.486-1.242-0.486
			c-0.492,0-0.906,0.156-1.241,0.469c-0.337,0.3-0.505,0.708-0.505,1.224v5.13h-0.737v-7.434h0.737v0.737
			c0.36-0.563,0.942-0.846,1.746-0.846c0.96,0,1.668,0.39,2.124,1.17c0.432-0.78,1.135-1.17,2.105-1.17
			c0.744,0,1.344,0.21,1.801,0.63c0.455,0.432,0.684,1.026,0.684,1.782v5.13H537.185z"/>
	</g>
	
		<rect x="454.603" y="384.746" fill="none" stroke="#000000" stroke-width="0.75" stroke-miterlimit="10" width="91.143" height="24.81"/>
</g>
<g>
	<g>
		
			<line fill="none" stroke="#000000" stroke-width="0.75" stroke-miterlimit="10" x1="500.173" y1="65.924" x2="500.173" y2="358.896"/>
		<g>
			<path d="M500.173,61.397c-0.79,2.13-2.139,4.772-3.565,6.411l3.565-1.29l3.566,1.29C502.311,66.17,500.962,63.527,500.173,61.397
				z"/>
		</g>
		<g>
			<path d="M500.173,363.421c-0.79-2.129-2.139-4.771-3.565-6.409l3.565,1.288l3.566-1.288
				C502.311,358.649,500.962,361.292,500.173,363.421z"/>
		</g>
	</g>
</g>
<g>
	<rect x="460.929" y="211.916" opacity="0.8" fill="#C1C3C3" enable-background="new    " width="36.456" height="19.846"/>
	<g enable-background="new    ">
		<path d="M470.677,225.388c-0.672,0.673-1.518,1.009-2.535,1.009c-1.047,0-1.896-0.326-2.549-0.979
			c-0.652-0.672-0.979-1.526-0.979-2.563v-0.316c0-0.048,0-0.096,0-0.145c0-0.058,0.004-0.115,0.014-0.173s0.024-0.139,0.043-0.244
			c0.02-0.105,0.053-0.24,0.102-0.403c0.048-0.202,0.109-0.392,0.188-0.569c0.076-0.177,0.158-0.348,0.244-0.511l2.578-4.622h0.676
			l-2.188,3.988l0.604-0.302l0.619-0.173l0.648-0.058c1.008,0,1.848,0.336,2.521,1.008c0.681,0.682,1.022,1.521,1.022,2.52
			C471.685,223.872,471.349,224.717,470.677,225.388z M470.244,220.781c-0.575-0.586-1.276-0.879-2.103-0.879
			c-0.816,0-1.512,0.288-2.088,0.864s-0.863,1.272-0.863,2.088c0,0.854,0.277,1.561,0.834,2.117c0.566,0.566,1.272,0.85,2.117,0.85
			s1.551-0.283,2.117-0.85s0.85-1.272,0.85-2.117C471.108,222.067,470.82,221.376,470.244,220.781z"/>
		<path d="M472.894,227.635l-0.187-0.13l1.065-2.347l0.504,0.216L472.894,227.635z"/>
		<path d="M480.8,220.982c-0.087,0.106-0.217,0.262-0.39,0.469c-0.173,0.206-0.394,0.463-0.662,0.77l-2.952,3.341h4.925v0.591H475.5
			l5.04-5.832c0.403-0.576,0.605-1.176,0.605-1.8c0-0.604-0.24-1.118-0.721-1.541c-0.48-0.413-1.037-0.619-1.67-0.619
			c-0.778,0-1.388,0.25-1.829,0.749c-0.269,0.298-0.456,0.667-0.562,1.108h-0.648c0.067-0.499,0.316-0.993,0.749-1.483
			c0.576-0.633,1.339-0.95,2.29-0.95c0.815,0,1.516,0.255,2.102,0.764c0.586,0.499,0.879,1.156,0.879,1.973
			C481.735,219.355,481.423,220.176,480.8,220.982z"/>
		<path d="M493.86,226.152v-4.104c0-0.365-0.121-0.682-0.36-0.951c-0.24-0.269-0.585-0.403-1.036-0.403
			c-0.932,0-1.397,0.452-1.397,1.354v4.104h-0.591v-4.104c0-0.403-0.135-0.726-0.402-0.965c-0.279-0.26-0.61-0.39-0.994-0.39
			c-0.394,0-0.725,0.125-0.994,0.375c-0.268,0.24-0.402,0.566-0.402,0.979v4.104h-0.591v-5.947h0.591v0.591
			c0.287-0.451,0.754-0.677,1.396-0.677c0.768,0,1.334,0.312,1.699,0.936c0.346-0.624,0.907-0.936,1.686-0.936
			c0.594,0,1.074,0.168,1.439,0.504c0.365,0.346,0.547,0.82,0.547,1.426v4.104H493.86z"/>
	</g>
	
		<rect x="460.929" y="211.916" fill="none" stroke="#000000" stroke-width="0.6" stroke-miterlimit="10" width="36.456" height="19.846"/>
</g>
<g>
	<rect x="292.167" y="255.429" opacity="0.8" fill="#C1C3C3" enable-background="new    " width="35.798" height="24.809"/>
	<g enable-background="new    ">
		<path d="M307.413,273.404l-3.204-10.781l-3.222,10.781l-4.122-13.031h0.72l3.366,10.512l3.258-10.746l3.24,10.746l3.366-10.512
			h0.756L307.413,273.404z"/>
		<path d="M322.281,272.468c-0.672,0.492-1.584,0.792-2.736,0.899c-0.132,0.013-0.276,0.021-0.432,0.027
			c-0.156,0.006-0.318,0.009-0.486,0.009c-1.944,0-3.528-0.611-4.752-1.836c-1.236-1.235-1.854-2.826-1.854-4.77
			c0-1.944,0.612-3.528,1.836-4.752c1.236-1.236,2.826-1.854,4.77-1.854c1.104,0,2.1,0.162,2.988,0.486
			c0.528,0.204,1.038,0.498,1.53,0.882v0.918c-0.504-0.42-1.056-0.756-1.656-1.008c-0.912-0.372-1.866-0.558-2.862-0.558
			c-1.704,0-3.108,0.552-4.212,1.655c-1.104,1.104-1.656,2.515-1.656,4.23s0.546,3.12,1.638,4.212
			c1.104,1.104,2.514,1.656,4.23,1.656c1.068,0,1.998-0.192,2.79-0.576c0.456-0.228,1.032-0.594,1.728-1.099v0.847L322.281,272.468z
			"/>
	</g>
	
		<rect x="292.167" y="255.429" fill="none" stroke="#000000" stroke-width="0.75" stroke-miterlimit="10" width="35.798" height="24.809"/>
</g>
<g>
	<rect x="119.812" y="305.873" opacity="0.8" fill="#C1C3C3" enable-background="new    " width="58.118" height="24.81"/>
	<g enable-background="new    ">
		<path d="M132.124,323.669l-6.192-6.21l-0.108,0.108v6.102h-0.738v-12.852h0.738v5.705l5.742-5.705h1.044l-6.156,6.138l6.696,6.714
			H132.124z"/>
		<path d="M135.021,314.904c-0.132,0-0.27-0.055-0.414-0.162c-0.108-0.108-0.168-0.252-0.18-0.433c0-0.323,0.198-0.521,0.594-0.594
			c0.3,0,0.498,0.198,0.594,0.594C135.615,314.706,135.417,314.904,135.021,314.904z M134.643,323.669v-7.434h0.738v7.434H134.643z"
			/>
		<path d="M138.945,316.973v6.696h-0.738v-6.696h-1.008v-0.737h1.008v-3.259h0.738v3.259h1.728v0.737H138.945z"/>
		<path d="M144.813,323.813c-1.104,0-2.022-0.365-2.754-1.098c-0.732-0.731-1.098-1.649-1.098-2.754
			c0-1.104,0.366-2.021,1.098-2.754c0.732-0.731,1.65-1.098,2.754-1.098c0.948,0,1.704,0.216,2.268,0.647v0.882l-0.468-0.306
			l-0.504-0.271c-0.457-0.155-0.888-0.233-1.296-0.233c-0.924,0-1.674,0.288-2.25,0.864c-0.588,0.588-0.882,1.344-0.882,2.268
			c0,0.912,0.294,1.662,0.882,2.25c0.587,0.588,1.338,0.882,2.25,0.882c0.864,0,1.62-0.288,2.268-0.864v0.918
			C146.409,323.591,145.653,323.813,144.813,323.813z"/>
		<path d="M154.011,323.687v-4.481c0-1.572-0.732-2.358-2.196-2.358c-0.601,0-1.116,0.181-1.548,0.54
			c-0.444,0.36-0.666,0.84-0.666,1.44v4.842h-0.738v-13.32h0.738v6.876c0.444-0.731,1.182-1.098,2.214-1.098
			c1.956,0,2.934,1.002,2.934,3.006v4.554H154.011z"/>
		<path d="M157.071,319.799c0,1.008,0.27,1.807,0.81,2.395c0.564,0.6,1.338,0.899,2.322,0.899c0.504,0,0.96-0.084,1.368-0.252
			c0.516-0.216,0.978-0.653,1.386-1.313l0.666,0.306c-0.468,0.888-1.188,1.488-2.16,1.8c-0.372,0.12-0.792,0.18-1.26,0.18
			c-1.116,0-2.034-0.365-2.754-1.098c-0.732-0.731-1.098-1.649-1.098-2.754c0-1.116,0.36-2.034,1.08-2.754
			c0.732-0.731,1.656-1.098,2.772-1.098c1.104,0,2.016,0.342,2.736,1.025c0.731,0.685,1.098,1.572,1.098,2.664H157.071z
			 M162.147,317.442c-0.564-0.408-1.212-0.612-1.944-0.612c-1.536,0-2.544,0.756-3.024,2.268h6.03
			C163.089,318.414,162.735,317.862,162.147,317.442z"/>
		<path d="M170.751,323.669v-4.446c0-1.571-0.708-2.357-2.124-2.357c-0.696,0-1.224,0.204-1.584,0.611
			c-0.372,0.408-0.558,0.967-0.558,1.675v4.518h-0.738v-7.434h0.738v0.899c0.336-0.659,1.05-0.99,2.142-0.99
			c0.924,0,1.632,0.265,2.124,0.792c0.492,0.528,0.738,1.267,0.738,2.215v4.518H170.751z"/>
	</g>
	
		<rect x="119.812" y="305.873" fill="none" stroke="#000000" stroke-width="0.75" stroke-miterlimit="10" width="58.118" height="24.81"/>
</g>
<g>
	<rect x="31.201" y="439.07" opacity="0.8" fill="#C1C3C3" enable-background="new    " width="98.908" height="24.809"/>
	<g enable-background="new    ">
		<path d="M37.375,450.17v6.696h-0.72v-12.852h5.58v0.737h-4.86v4.681h4.86v0.737H37.375z"/>
		<path d="M44.107,448.101c-0.132,0-0.27-0.055-0.414-0.162c-0.108-0.108-0.168-0.252-0.18-0.433c0-0.323,0.198-0.521,0.594-0.594
			c0.3,0,0.498,0.198,0.594,0.594C44.702,447.903,44.503,448.101,44.107,448.101z M43.729,456.867v-7.434h0.738v7.434H43.729z"/>
		<path d="M49.562,450.531c-0.192-0.145-0.396-0.258-0.612-0.342s-0.444-0.126-0.684-0.126c-0.204,0-0.396,0.063-0.576,0.188
			c-0.18,0.126-0.336,0.282-0.468,0.468c-0.132,0.187-0.237,0.394-0.315,0.621c-0.078,0.229-0.117,0.438-0.117,0.63v4.896h-0.738
			v-7.434h0.738v1.008c0.156-0.276,0.36-0.528,0.612-0.756c0.252-0.229,0.528-0.343,0.828-0.343c0.372,0,0.678,0.043,0.918,0.126
			c0.24,0.085,0.51,0.234,0.81,0.45L49.562,450.531z"/>
		<path d="M50.713,452.997c0,1.008,0.27,1.807,0.81,2.395c0.564,0.6,1.338,0.899,2.322,0.899c0.504,0,0.96-0.084,1.368-0.252
			c0.516-0.216,0.978-0.653,1.386-1.313l0.666,0.306c-0.468,0.888-1.188,1.488-2.16,1.8c-0.372,0.12-0.792,0.18-1.26,0.18
			c-1.116,0-2.034-0.365-2.754-1.098c-0.732-0.731-1.098-1.649-1.098-2.754c0-1.116,0.36-2.034,1.08-2.754
			c0.732-0.731,1.656-1.098,2.772-1.098c1.104,0,2.016,0.342,2.736,1.025c0.731,0.685,1.098,1.572,1.098,2.664H50.713z
			 M55.79,450.639c-0.564-0.408-1.212-0.612-1.944-0.612c-1.536,0-2.544,0.756-3.024,2.268h6.03
			C56.731,451.611,56.377,451.059,55.79,450.639z"/>
		<path d="M67.633,456.399c-0.48,0.408-1.056,0.611-1.728,0.611c-1.152,0-2.016-0.521-2.592-1.565l0.63-0.378
			c0.204,0.372,0.45,0.66,0.738,0.864c0.3,0.228,0.708,0.342,1.224,0.342c1.128,0,1.692-0.48,1.692-1.44
			c0-0.42-0.198-0.785-0.594-1.098c-0.12-0.072-0.291-0.153-0.513-0.243c-0.222-0.09-0.495-0.195-0.819-0.315
			c-0.6-0.216-1.032-0.432-1.296-0.647c-0.384-0.313-0.576-0.762-0.576-1.351c0-0.504,0.192-0.936,0.576-1.296
			c0.372-0.371,0.858-0.558,1.458-0.558c0.828,0,1.53,0.288,2.106,0.864l-0.54,0.468c-0.408-0.408-0.93-0.612-1.566-0.612
			c-0.864,0-1.296,0.378-1.296,1.134c0,0.337,0.132,0.612,0.396,0.828c0.216,0.169,0.558,0.33,1.026,0.486
			c0.408,0.144,0.744,0.279,1.008,0.405c0.264,0.126,0.462,0.237,0.594,0.333c0.516,0.396,0.774,0.93,0.774,1.602
			C68.335,455.481,68.101,456.002,67.633,456.399z"/>
		<path d="M70.081,452.997c0,1.008,0.27,1.807,0.81,2.395c0.564,0.6,1.338,0.899,2.322,0.899c0.504,0,0.96-0.084,1.368-0.252
			c0.516-0.216,0.978-0.653,1.386-1.313l0.666,0.306c-0.468,0.888-1.188,1.488-2.16,1.8c-0.372,0.12-0.792,0.18-1.26,0.18
			c-1.116,0-2.034-0.365-2.754-1.098c-0.732-0.731-1.098-1.649-1.098-2.754c0-1.116,0.36-2.034,1.08-2.754
			c0.732-0.731,1.656-1.098,2.772-1.098c1.104,0,2.016,0.342,2.736,1.025c0.731,0.685,1.098,1.572,1.098,2.664H70.081z
			 M75.157,450.639c-0.564-0.408-1.212-0.612-1.944-0.612c-1.536,0-2.544,0.756-3.024,2.268h6.03
			C76.099,451.611,75.745,451.059,75.157,450.639z"/>
		<path d="M82.267,457.01c-1.104,0-2.022-0.365-2.754-1.098c-0.732-0.731-1.098-1.649-1.098-2.754c0-1.104,0.366-2.021,1.098-2.754
			c0.732-0.731,1.65-1.098,2.754-1.098c0.948,0,1.704,0.216,2.268,0.647v0.882l-0.468-0.306l-0.504-0.271
			c-0.457-0.155-0.888-0.233-1.296-0.233c-0.924,0-1.674,0.288-2.25,0.864c-0.588,0.588-0.882,1.344-0.882,2.268
			c0,0.912,0.294,1.662,0.882,2.25c0.587,0.588,1.338,0.882,2.25,0.882c0.864,0,1.62-0.288,2.268-0.864v0.918
			C83.863,456.789,83.106,457.01,82.267,457.01z"/>
		<path d="M87.757,450.17v6.696h-0.738v-6.696h-1.008v-0.737h1.008v-3.259h0.738v3.259h1.728v0.737H87.757z"/>
		<path d="M91.645,448.101c-0.132,0-0.27-0.055-0.414-0.162c-0.108-0.108-0.168-0.252-0.18-0.433c0-0.323,0.198-0.521,0.594-0.594
			c0.3,0,0.498,0.198,0.594,0.594C92.239,447.903,92.041,448.101,91.645,448.101z M91.267,456.867v-7.434h0.738v7.434H91.267z"/>
		<path d="M100.465,455.876c-0.744,0.744-1.656,1.116-2.736,1.116s-1.986-0.366-2.718-1.098c-0.744-0.744-1.116-1.656-1.116-2.736
			c0-1.068,0.372-1.974,1.116-2.718c0.732-0.756,1.638-1.134,2.718-1.134c1.068,0,1.974,0.372,2.718,1.115
			c0.744,0.744,1.116,1.656,1.116,2.736S101.196,455.145,100.465,455.876z M99.943,450.945c-0.601-0.612-1.338-0.918-2.214-0.918
			c-0.84,0-1.566,0.313-2.178,0.936c-0.624,0.624-0.936,1.356-0.936,2.196c0,0.853,0.306,1.584,0.918,2.196
			c0.612,0.611,1.344,0.918,2.196,0.918c0.864,0,1.596-0.3,2.196-0.9c0.612-0.612,0.918-1.35,0.918-2.214
			C100.843,452.283,100.542,451.544,99.943,450.945z"/>
		<path d="M108.42,456.867v-4.446c0-1.571-0.708-2.357-2.124-2.357c-0.696,0-1.224,0.204-1.584,0.611
			c-0.372,0.408-0.558,0.967-0.558,1.675v4.518h-0.738v-7.434h0.738v0.899c0.336-0.659,1.05-0.99,2.142-0.99
			c0.924,0,1.632,0.265,2.124,0.792c0.492,0.528,0.738,1.267,0.738,2.215v4.518H108.42z"/>
		<path d="M125.034,456.867l-1.476-3.852h-5.85l-1.494,3.852h-0.72l5.13-13.266l5.148,13.266H125.034z M120.624,445.473
			l-2.628,6.804h5.256L120.624,445.473z"/>
	</g>
	
		<rect x="31.201" y="439.07" fill="none" stroke="#000000" stroke-width="0.75" stroke-miterlimit="10" width="98.908" height="24.809"/>
</g>
<g>
	<rect x="126.022" y="479.277" opacity="0.8" fill="#C1C3C3" enable-background="new    " width="97.214" height="24.809"/>
	<g enable-background="new    ">
		<path d="M132.197,490.377v6.696h-0.72v-12.852h5.58v0.737h-4.86v4.681h4.86v0.737H132.197z"/>
		<path d="M138.93,488.308c-0.132,0-0.27-0.055-0.414-0.162c-0.108-0.108-0.168-0.252-0.18-0.433c0-0.323,0.198-0.521,0.594-0.594
			c0.3,0,0.498,0.198,0.594,0.594C139.524,488.11,139.326,488.308,138.93,488.308z M138.552,497.074v-7.434h0.738v7.434H138.552z"/>
		<path d="M144.384,490.738c-0.192-0.145-0.396-0.258-0.612-0.342s-0.444-0.126-0.684-0.126c-0.204,0-0.396,0.063-0.576,0.188
			c-0.18,0.126-0.336,0.282-0.468,0.468c-0.132,0.187-0.237,0.394-0.315,0.621c-0.078,0.229-0.117,0.438-0.117,0.63v4.896h-0.738
			v-7.434h0.738v1.008c0.156-0.276,0.36-0.528,0.612-0.756c0.252-0.229,0.528-0.343,0.828-0.343c0.372,0,0.678,0.043,0.918,0.126
			c0.24,0.085,0.51,0.234,0.81,0.45L144.384,490.738z"/>
		<path d="M145.536,493.204c0,1.008,0.27,1.807,0.81,2.395c0.564,0.6,1.338,0.899,2.322,0.899c0.504,0,0.96-0.084,1.368-0.252
			c0.516-0.216,0.978-0.653,1.386-1.313l0.666,0.306c-0.468,0.888-1.188,1.488-2.16,1.8c-0.372,0.12-0.792,0.18-1.26,0.18
			c-1.116,0-2.034-0.365-2.754-1.098c-0.732-0.731-1.098-1.649-1.098-2.754c0-1.116,0.36-2.034,1.08-2.754
			c0.732-0.731,1.656-1.098,2.772-1.098c1.104,0,2.016,0.342,2.736,1.025c0.731,0.685,1.098,1.572,1.098,2.664H145.536z
			 M150.612,490.846c-0.564-0.408-1.212-0.612-1.944-0.612c-1.536,0-2.544,0.756-3.024,2.268h6.03
			C151.554,491.818,151.199,491.266,150.612,490.846z"/>
		<path d="M162.455,496.606c-0.48,0.408-1.056,0.611-1.728,0.611c-1.152,0-2.016-0.521-2.592-1.565l0.63-0.378
			c0.204,0.372,0.45,0.66,0.738,0.864c0.3,0.228,0.708,0.342,1.224,0.342c1.128,0,1.692-0.48,1.692-1.44
			c0-0.42-0.198-0.785-0.594-1.098c-0.12-0.072-0.291-0.153-0.513-0.243c-0.222-0.09-0.495-0.195-0.819-0.315
			c-0.6-0.216-1.032-0.432-1.296-0.647c-0.384-0.313-0.576-0.762-0.576-1.351c0-0.504,0.192-0.936,0.576-1.296
			c0.372-0.371,0.858-0.558,1.458-0.558c0.828,0,1.53,0.288,2.106,0.864l-0.54,0.468c-0.408-0.408-0.93-0.612-1.566-0.612
			c-0.864,0-1.296,0.378-1.296,1.134c0,0.337,0.132,0.612,0.396,0.828c0.216,0.169,0.558,0.33,1.026,0.486
			c0.408,0.144,0.744,0.279,1.008,0.405c0.264,0.126,0.462,0.237,0.594,0.333c0.516,0.396,0.774,0.93,0.774,1.602
			C163.157,495.688,162.923,496.209,162.455,496.606z"/>
		<path d="M164.903,493.204c0,1.008,0.27,1.807,0.81,2.395c0.564,0.6,1.338,0.899,2.322,0.899c0.504,0,0.96-0.084,1.368-0.252
			c0.516-0.216,0.978-0.653,1.386-1.313l0.666,0.306c-0.468,0.888-1.188,1.488-2.16,1.8c-0.372,0.12-0.792,0.18-1.26,0.18
			c-1.116,0-2.034-0.365-2.754-1.098c-0.732-0.731-1.098-1.649-1.098-2.754c0-1.116,0.36-2.034,1.08-2.754
			c0.732-0.731,1.656-1.098,2.772-1.098c1.104,0,2.016,0.342,2.736,1.025c0.731,0.685,1.098,1.572,1.098,2.664H164.903z
			 M169.979,490.846c-0.564-0.408-1.212-0.612-1.944-0.612c-1.536,0-2.544,0.756-3.024,2.268h6.03
			C170.921,491.818,170.567,491.266,169.979,490.846z"/>
		<path d="M177.089,497.217c-1.104,0-2.022-0.365-2.754-1.098c-0.732-0.731-1.098-1.649-1.098-2.754
			c0-1.104,0.366-2.021,1.098-2.754c0.732-0.731,1.65-1.098,2.754-1.098c0.948,0,1.704,0.216,2.268,0.647v0.882l-0.468-0.306
			l-0.504-0.271c-0.457-0.155-0.888-0.233-1.296-0.233c-0.924,0-1.674,0.288-2.25,0.864c-0.588,0.588-0.882,1.344-0.882,2.268
			c0,0.912,0.294,1.662,0.882,2.25c0.587,0.588,1.338,0.882,2.25,0.882c0.864,0,1.62-0.288,2.268-0.864v0.918
			C178.685,496.996,177.929,497.217,177.089,497.217z"/>
		<path d="M182.579,490.377v6.696h-0.738v-6.696h-1.008v-0.737h1.008v-3.259h0.738v3.259h1.728v0.737H182.579z"/>
		<path d="M186.467,488.308c-0.132,0-0.27-0.055-0.414-0.162c-0.108-0.108-0.168-0.252-0.18-0.433c0-0.323,0.198-0.521,0.594-0.594
			c0.3,0,0.498,0.198,0.594,0.594C187.061,488.11,186.863,488.308,186.467,488.308z M186.089,497.074v-7.434h0.738v7.434H186.089z"
			/>
		<path d="M195.287,496.083c-0.744,0.744-1.656,1.116-2.736,1.116s-1.986-0.366-2.718-1.098c-0.744-0.744-1.116-1.656-1.116-2.736
			c0-1.068,0.372-1.974,1.116-2.718c0.732-0.756,1.638-1.134,2.718-1.134c1.068,0,1.974,0.372,2.718,1.115
			c0.744,0.744,1.116,1.656,1.116,2.736S196.019,495.352,195.287,496.083z M194.765,491.152c-0.601-0.612-1.338-0.918-2.214-0.918
			c-0.84,0-1.566,0.313-2.178,0.936c-0.624,0.624-0.936,1.356-0.936,2.196c0,0.853,0.306,1.584,0.918,2.196
			c0.612,0.611,1.344,0.918,2.196,0.918c0.864,0,1.596-0.3,2.196-0.9c0.612-0.612,0.918-1.35,0.918-2.214
			C195.665,492.49,195.365,491.751,194.765,491.152z"/>
		<path d="M203.242,497.074v-4.446c0-1.571-0.708-2.357-2.124-2.357c-0.696,0-1.224,0.204-1.584,0.611
			c-0.372,0.408-0.558,0.967-0.558,1.675v4.518h-0.738v-7.434h0.738v0.899c0.336-0.659,1.05-0.99,2.142-0.99
			c0.924,0,1.632,0.265,2.124,0.792c0.492,0.528,0.738,1.267,0.738,2.215v4.518H203.242z"/>
		<path d="M218.002,496.03c-0.78,0.696-1.734,1.044-2.862,1.044h-4.014v-12.852h3.132c0.996,0,1.788,0.258,2.376,0.773
			c0.624,0.552,0.936,1.32,0.936,2.304c0,1.129-0.462,1.956-1.386,2.484c0.9,0.18,1.626,0.588,2.178,1.224
			c0.54,0.637,0.81,1.416,0.81,2.341C219.172,494.452,218.782,495.346,218.002,496.03z M216.112,485.608
			c-0.492-0.433-1.092-0.648-1.8-0.648h-2.466v4.681h2.574c0.696,0,1.271-0.217,1.728-0.648c0.456-0.432,0.684-0.996,0.684-1.692
			C216.832,486.58,216.592,486.016,216.112,485.608z M217.462,491.169c-0.612-0.527-1.38-0.792-2.304-0.792h-3.312v5.958h3.312
			c0.912,0,1.686-0.275,2.322-0.828c0.648-0.552,0.972-1.271,0.972-2.159C218.452,492.448,218.122,491.722,217.462,491.169z"/>
	</g>
	
		<rect x="126.022" y="479.277" fill="none" stroke="#000000" stroke-width="0.75" stroke-miterlimit="10" width="97.214" height="24.809"/>
</g>
<g>
	<rect x="376.828" y="27.208" opacity="0.8" fill="#C1C3C3" enable-background="new    " width="42.759" height="24.809"/>
	<g enable-background="new    ">
		<path d="M393.334,43.221c-1.235,1.309-2.874,1.962-4.914,1.962c-1.944,0-3.528-0.611-4.752-1.836
			c-1.235-1.235-1.854-2.826-1.854-4.77c0-1.92,0.619-3.498,1.854-4.734c1.248-1.248,2.832-1.872,4.752-1.872
			c2.304,0,4.116,0.882,5.437,2.646l-0.594,0.45c-1.152-1.584-2.767-2.376-4.843-2.376c-1.692,0-3.096,0.558-4.212,1.674
			c-1.115,1.115-1.674,2.52-1.674,4.212c0,1.704,0.552,3.107,1.656,4.212c1.127,1.104,2.537,1.656,4.229,1.656
			c1.812,0,3.271-0.606,4.374-1.818c0.84-0.912,1.32-1.944,1.439-3.096h-4.248v-0.738h5.059
			C395.044,40.545,394.474,42.022,393.334,43.221z"/>
		<path d="M397.42,48.496h-0.828l1.927-4.176l-3.133-6.75h0.792l2.772,5.867l2.736-5.867h0.809L397.42,48.496z"/>
		<path d="M412.54,45.003v-5.13c0-0.456-0.15-0.852-0.449-1.188c-0.301-0.336-0.732-0.504-1.297-0.504
			c-1.164,0-1.746,0.564-1.746,1.692v5.13h-0.738v-5.13c0-0.504-0.168-0.906-0.504-1.206c-0.348-0.324-0.762-0.486-1.242-0.486
			c-0.492,0-0.906,0.156-1.241,0.469c-0.337,0.3-0.505,0.708-0.505,1.224v5.13h-0.737V37.57h0.737v0.737
			c0.361-0.563,0.942-0.846,1.746-0.846c0.961,0,1.668,0.39,2.125,1.17c0.432-0.78,1.134-1.17,2.105-1.17
			c0.744,0,1.344,0.21,1.801,0.63c0.455,0.432,0.684,1.026,0.684,1.782v5.13H412.54z"/>
	</g>
	
		<rect x="376.828" y="27.208" fill="none" stroke="#000000" stroke-width="0.75" stroke-miterlimit="10" width="42.759" height="24.809"/>
</g>
<g>
	<rect x="401.472" y="267.873" opacity="0.8" fill="#C1C3C3" enable-background="new    " width="58.404" height="19.848"/>
	<g enable-background="new    ">
		<path d="M406.409,276.754v5.356h-0.576V271.83h4.465v0.59h-3.889v3.744h3.889v0.591H406.409z"/>
		<path d="M411.796,275.098c-0.105,0-0.217-0.043-0.332-0.13c-0.086-0.086-0.135-0.201-0.144-0.346c0-0.259,0.158-0.417,0.476-0.475
			c0.239,0,0.398,0.158,0.475,0.475C412.271,274.94,412.112,275.098,411.796,275.098z M411.493,282.111v-5.947h0.59v5.947H411.493z"
			/>
		<path d="M416.159,277.042c-0.154-0.115-0.317-0.207-0.49-0.274c-0.172-0.066-0.355-0.101-0.547-0.101
			c-0.164,0-0.316,0.051-0.461,0.151s-0.27,0.226-0.375,0.374c-0.105,0.149-0.189,0.314-0.252,0.497s-0.093,0.351-0.093,0.504v3.917
			h-0.591v-5.947h0.591v0.807c0.124-0.221,0.288-0.423,0.489-0.604c0.201-0.183,0.422-0.274,0.662-0.274
			c0.298,0,0.543,0.034,0.734,0.102c0.192,0.066,0.408,0.187,0.648,0.359L416.159,277.042z"/>
		<path d="M417.08,279.015c0,0.806,0.216,1.444,0.647,1.915c0.451,0.48,1.07,0.72,1.858,0.72c0.403,0,0.769-0.067,1.095-0.201
			c0.412-0.173,0.781-0.523,1.108-1.052l0.532,0.245c-0.374,0.711-0.949,1.19-1.728,1.44c-0.298,0.096-0.634,0.144-1.008,0.144
			c-0.894,0-1.628-0.293-2.203-0.879c-0.586-0.585-0.878-1.319-0.878-2.203c0-0.893,0.287-1.627,0.863-2.203
			c0.586-0.585,1.324-0.878,2.218-0.878c0.883,0,1.612,0.273,2.188,0.82c0.586,0.548,0.879,1.258,0.879,2.132H417.08z
			 M421.142,277.128c-0.451-0.326-0.971-0.489-1.556-0.489c-1.229,0-2.036,0.604-2.419,1.814h4.824
			C421.895,277.906,421.611,277.464,421.142,277.128z"/>
		<path d="M432.849,282.111v-1.065c-0.634,0.777-1.44,1.166-2.42,1.166c-0.863,0-1.588-0.293-2.174-0.878
			c-0.596-0.596-0.893-1.325-0.893-2.189c0-0.863,0.293-1.588,0.878-2.174c0.595-0.596,1.325-0.893,2.188-0.893
			c0.951,0,1.758,0.389,2.42,1.166v-5.789h0.59v10.656H432.849z M432.187,277.387c-0.49-0.489-1.076-0.734-1.758-0.734
			c-0.691,0-1.276,0.24-1.756,0.721c-0.49,0.489-0.734,1.08-0.734,1.771c0,0.683,0.244,1.268,0.734,1.757
			c0.489,0.49,1.074,0.734,1.756,0.734c0.691,0,1.277-0.239,1.758-0.72c0.488-0.489,0.734-1.08,0.734-1.771
			C432.921,278.463,432.675,277.877,432.187,277.387z"/>
		<path d="M440.005,281.319c-0.596,0.596-1.325,0.893-2.189,0.893c-0.863,0-1.588-0.293-2.174-0.878
			c-0.596-0.596-0.893-1.325-0.893-2.189c0-0.854,0.297-1.579,0.893-2.174c0.586-0.604,1.311-0.907,2.174-0.907
			c0.854,0,1.58,0.298,2.175,0.893c0.595,0.596,0.893,1.325,0.893,2.188C440.883,280.008,440.59,280.733,440.005,281.319z
			 M439.587,277.374c-0.48-0.49-1.07-0.734-1.771-0.734c-0.672,0-1.252,0.249-1.742,0.748c-0.499,0.5-0.748,1.085-0.748,1.757
			c0,0.683,0.244,1.268,0.734,1.757c0.489,0.49,1.074,0.734,1.756,0.734c0.691,0,1.277-0.239,1.758-0.72
			c0.488-0.489,0.734-1.08,0.734-1.771C440.308,278.444,440.067,277.853,439.587,277.374z"/>
		<path d="M447.795,281.319c-0.595,0.596-1.325,0.893-2.188,0.893c-0.864,0-1.589-0.293-2.174-0.878
			c-0.596-0.596-0.894-1.325-0.894-2.189c0-0.854,0.298-1.579,0.894-2.174c0.585-0.604,1.31-0.907,2.174-0.907
			c0.854,0,1.579,0.298,2.174,0.893c0.596,0.596,0.893,1.325,0.893,2.188C448.673,280.008,448.38,280.733,447.795,281.319z
			 M447.378,277.374c-0.48-0.49-1.07-0.734-1.771-0.734c-0.672,0-1.253,0.249-1.742,0.748c-0.5,0.5-0.749,1.085-0.749,1.757
			c0,0.683,0.245,1.268,0.734,1.757c0.489,0.49,1.075,0.734,1.757,0.734c0.691,0,1.276-0.239,1.757-0.72
			c0.489-0.489,0.734-1.08,0.734-1.771C448.098,278.444,447.857,277.853,447.378,277.374z"/>
		<path d="M452.964,277.042c-0.153-0.115-0.316-0.207-0.488-0.274c-0.174-0.066-0.355-0.101-0.548-0.101
			c-0.163,0-0.317,0.051-0.461,0.151s-0.269,0.226-0.374,0.374c-0.105,0.149-0.189,0.314-0.252,0.497s-0.094,0.351-0.094,0.504
			v3.917h-0.591v-5.947h0.591v0.807c0.125-0.221,0.287-0.423,0.489-0.604c0.202-0.183,0.423-0.274,0.663-0.274
			c0.297,0,0.541,0.034,0.734,0.102c0.191,0.066,0.407,0.187,0.647,0.359L452.964,277.042z"/>
	</g>
	
		<rect x="401.472" y="267.873" fill="none" stroke="#000000" stroke-width="0.6" stroke-miterlimit="10" width="58.404" height="19.848"/>
</g>
<g>
	<rect x="130.616" y="245.505" opacity="0.8" fill="#C1C3C3" enable-background="new    " width="63.529" height="19.848"/>
	<g enable-background="new    ">
		<path d="M142.812,259.137c-0.538,0.394-1.268,0.633-2.189,0.72c-0.106,0.01-0.221,0.017-0.346,0.021
			c-0.125,0.005-0.254,0.007-0.389,0.007c-1.555,0-2.822-0.489-3.802-1.469c-0.989-0.988-1.483-2.261-1.483-3.815
			c0-1.556,0.489-2.822,1.469-3.802c0.988-0.988,2.261-1.483,3.816-1.483c0.883,0,1.68,0.13,2.39,0.389
			c0.422,0.164,0.831,0.398,1.224,0.706v0.734c-0.403-0.336-0.845-0.604-1.325-0.807c-0.729-0.297-1.493-0.446-2.29-0.446
			c-1.363,0-2.486,0.441-3.37,1.325c-0.883,0.883-1.325,2.011-1.325,3.384s0.437,2.496,1.31,3.369
			c0.883,0.884,2.011,1.325,3.384,1.325c0.854,0,1.598-0.153,2.232-0.461c0.365-0.183,0.826-0.476,1.382-0.878v0.677
			L142.812,259.137z"/>
		<path d="M148.097,259.223c-0.394,0.423-0.946,0.634-1.656,0.634c-0.701,0-1.243-0.206-1.627-0.619
			c-0.384-0.413-0.576-0.988-0.576-1.729v-3.715h0.59v3.715c0,0.567,0.125,1.004,0.375,1.311c0.259,0.308,0.672,0.461,1.238,0.461
			c1.104,0,1.656-0.59,1.656-1.771v-3.715h0.576v3.715C148.672,258.24,148.48,258.811,148.097,259.223z"/>
		<path d="M155.686,258.95c-0.596,0.596-1.325,0.893-2.189,0.893c-0.989,0-1.805-0.403-2.448-1.209v3.902h-0.591v-8.741h0.591v1.123
			c0.614-0.807,1.43-1.209,2.448-1.209c0.864,0,1.589,0.293,2.174,0.878c0.595,0.596,0.893,1.325,0.893,2.188
			C156.564,257.639,156.271,258.364,155.686,258.95z M155.253,255.018c-0.49-0.489-1.075-0.734-1.757-0.734
			c-0.691,0-1.277,0.24-1.757,0.721c-0.49,0.489-0.734,1.08-0.734,1.771c0,0.683,0.245,1.268,0.734,1.757
			c0.49,0.49,1.075,0.734,1.757,0.734c0.691,0,1.277-0.239,1.757-0.72c0.49-0.489,0.734-1.08,0.734-1.771
			C155.988,256.094,155.743,255.508,155.253,255.018z"/>
		<path d="M162.928,258.95c-0.595,0.596-1.325,0.893-2.189,0.893c-0.989,0-1.8-0.398-2.434-1.195v1.095h-0.59v-10.656h0.59v5.817
			c0.624-0.796,1.435-1.194,2.434-1.194c0.864,0,1.589,0.293,2.174,0.878c0.595,0.596,0.893,1.325,0.893,2.188
			C163.807,257.639,163.514,258.364,162.928,258.95z M162.496,255.018c-0.49-0.489-1.075-0.734-1.757-0.734
			c-0.691,0-1.277,0.24-1.757,0.721c-0.489,0.489-0.734,1.08-0.734,1.771c0,0.683,0.245,1.268,0.734,1.757
			c0.49,0.49,1.075,0.734,1.757,0.734c0.691,0,1.277-0.239,1.757-0.72c0.49-0.489,0.734-1.08,0.734-1.771
			C163.23,256.094,162.986,255.508,162.496,255.018z"/>
		<path d="M170.128,258.95c-0.595,0.596-1.325,0.893-2.188,0.893c-0.864,0-1.589-0.293-2.174-0.878
			c-0.596-0.596-0.893-1.325-0.893-2.189c0-0.854,0.297-1.579,0.893-2.174c0.585-0.604,1.31-0.907,2.174-0.907
			c0.854,0,1.579,0.298,2.174,0.893c0.595,0.596,0.893,1.325,0.893,2.188C171.006,257.639,170.713,258.364,170.128,258.95z
			 M169.71,255.004c-0.48-0.49-1.07-0.734-1.771-0.734c-0.672,0-1.253,0.249-1.743,0.748c-0.499,0.5-0.749,1.085-0.749,1.757
			c0,0.683,0.245,1.268,0.734,1.757c0.49,0.49,1.075,0.734,1.757,0.734c0.691,0,1.276-0.239,1.757-0.72
			c0.489-0.489,0.734-1.08,0.734-1.771C170.431,256.075,170.19,255.484,169.71,255.004z"/>
		<path d="M177.486,259.742v-1.022c-0.624,0.749-1.416,1.123-2.376,1.123c-0.864,0-1.589-0.293-2.174-0.878
			c-0.596-0.596-0.893-1.325-0.893-2.189c0-0.863,0.293-1.588,0.878-2.174c0.595-0.596,1.325-0.893,2.189-0.893
			c0.95,0,1.742,0.374,2.376,1.123v-1.037h0.59v5.947H177.486z M176.867,255.018c-0.49-0.489-1.075-0.734-1.757-0.734
			c-0.691,0-1.277,0.24-1.757,0.721c-0.49,0.489-0.734,1.08-0.734,1.771c0,0.683,0.245,1.268,0.734,1.757
			c0.49,0.49,1.075,0.734,1.757,0.734c0.691,0,1.276-0.239,1.757-0.72c0.489-0.489,0.734-1.08,0.734-1.771
			C177.602,256.094,177.356,255.508,176.867,255.018z"/>
		<path d="M182.642,254.673c-0.154-0.115-0.317-0.207-0.489-0.274c-0.173-0.066-0.355-0.101-0.547-0.101
			c-0.164,0-0.317,0.051-0.461,0.151s-0.269,0.226-0.375,0.374c-0.105,0.149-0.189,0.314-0.252,0.497s-0.093,0.351-0.093,0.504
			v3.917h-0.591v-5.947h0.591v0.807c0.125-0.221,0.288-0.423,0.489-0.604c0.202-0.183,0.422-0.274,0.663-0.274
			c0.297,0,0.542,0.034,0.734,0.102c0.192,0.066,0.408,0.187,0.648,0.359L182.642,254.673z"/>
		<path d="M189.049,259.742v-1.065c-0.633,0.777-1.44,1.166-2.419,1.166c-0.864,0-1.589-0.293-2.174-0.878
			c-0.596-0.596-0.893-1.325-0.893-2.189c0-0.863,0.293-1.588,0.878-2.174c0.595-0.596,1.325-0.893,2.189-0.893
			c0.95,0,1.757,0.389,2.419,1.166v-5.789h0.59v10.656H189.049z M188.387,255.018c-0.49-0.489-1.075-0.734-1.757-0.734
			c-0.691,0-1.277,0.24-1.757,0.721c-0.49,0.489-0.734,1.08-0.734,1.771c0,0.683,0.245,1.268,0.734,1.757
			c0.49,0.49,1.075,0.734,1.757,0.734c0.691,0,1.276-0.239,1.757-0.72c0.489-0.489,0.734-1.08,0.734-1.771
			C189.122,256.094,188.876,255.508,188.387,255.018z"/>
	</g>
	
		<rect x="130.616" y="245.505" fill="none" stroke="#000000" stroke-width="0.6" stroke-miterlimit="10" width="63.529" height="19.848"/>
</g>
</svg>
