<?xml version="1.0" encoding="utf-8"?>
<!-- Generator: Adobe Illustrator 16.0.0, SVG Export Plug-In . SVG Version: 6.00 Build 0)  -->
<!DOCTYPE svg PUBLIC "-//W3C//DTD SVG 1.1//EN" "http://www.w3.org/Graphics/SVG/1.1/DTD/svg11.dtd">
<svg version="1.1" id="Layer_1" xmlns="http://www.w3.org/2000/svg" xmlns:xlink="http://www.w3.org/1999/xlink" x="0px" y="0px"
	 width="345.141px" height="274.785px" viewBox="0 0 345.141 274.785" enable-background="new 0 0 345.141 274.785"
	 xml:space="preserve">
<g>
	<g>
		<g opacity="0.8">
			<polygon fill="#C1C3C3" points="232.822,69.649 232.822,191.682 302.547,238.135 308.637,235.336 308.637,112.518 
				238.915,67.073 			"/>
		</g>
		<g>
			
				<polygon fill="none" stroke="#000000" stroke-width="0.75" stroke-linecap="round" stroke-linejoin="round" stroke-miterlimit="10" points="
				232.822,69.649 232.822,191.682 302.547,238.135 308.637,235.336 308.637,112.518 238.915,67.073 			"/>
		</g>
		
			<line fill="none" stroke="#000000" stroke-width="0.75" stroke-linecap="round" stroke-linejoin="round" stroke-miterlimit="10" x1="302.547" y1="115.348" x2="308.637" y2="112.518"/>
		
			<line fill="none" stroke="#000000" stroke-width="0.75" stroke-linecap="round" stroke-linejoin="round" stroke-miterlimit="10" x1="232.822" y1="69.649" x2="302.547" y2="115.348"/>
		
			<line fill="none" stroke="#000000" stroke-width="0.75" stroke-linecap="round" stroke-linejoin="round" stroke-miterlimit="10" x1="302.547" y1="115.348" x2="302.547" y2="238.135"/>
	</g>
	<g>
		<polygon opacity="0.1" fill="#F8982C" enable-background="new    " points="291.51,241.135 186.814,274.41 117.087,227.957 
			117.087,106.146 221.788,72.649 291.51,118.348 		"/>
		
			<polyline fill="none" stroke="#000000" stroke-width="0.75" stroke-linecap="round" stroke-linejoin="round" stroke-miterlimit="10" points="
			221.788,72.649 221.788,194.682 117.087,227.957 		"/>
		<g>
			
				<path fill="none" stroke="#000000" stroke-width="0.75" stroke-linecap="round" stroke-linejoin="round" stroke-miterlimit="10" d="
				M291.51,241.135"/>
			
				<polyline fill="none" stroke="#000000" stroke-width="0.75" stroke-linecap="round" stroke-linejoin="round" stroke-miterlimit="10" points="
				186.814,274.41 186.814,151.592 291.51,118.348 			"/>
		</g>
		
			<line fill="none" stroke="#000000" stroke-width="0.75" stroke-linecap="round" stroke-linejoin="round" stroke-miterlimit="10" x1="117.087" y1="106.146" x2="186.814" y2="151.592"/>
		
			<polygon fill="none" stroke="#000000" stroke-width="0.75" stroke-linecap="round" stroke-linejoin="round" stroke-miterlimit="10" points="
			291.51,241.135 186.814,274.41 117.087,227.957 117.087,106.146 221.788,72.649 291.51,118.348 		"/>
		
			<line fill="none" stroke="#000000" stroke-width="0.75" stroke-linecap="round" stroke-linejoin="round" stroke-miterlimit="10" x1="221.788" y1="194.682" x2="291.51" y2="241.135"/>
	</g>
	<g>
		
			<line fill="none" stroke="#000000" stroke-width="0.75" stroke-linecap="round" stroke-linejoin="round" stroke-miterlimit="10" stroke-dasharray="1.5" x1="221.812" y1="122.283" x2="232.822" y2="118.891"/>
		<polygon opacity="0.4" fill="#5D6162" enable-background="new    " points="293.726,164.816 224,121.791 224,81.75 
			293.726,126.625 		"/>
		<g>
			<g>
				<polyline fill="none" stroke="#CE2026" stroke-width="0.75" stroke-miterlimit="10" points="293.726,164.066 293.726,164.816 
					293.088,164.422 				"/>
				
					<line fill="none" stroke="#CE2026" stroke-width="0.75" stroke-miterlimit="10" stroke-dasharray="1.5176,1.5176" x1="291.795" y1="163.625" x2="225.288" y2="122.584"/>
				<polyline fill="none" stroke="#CE2026" stroke-width="0.75" stroke-miterlimit="10" points="224.64,122.186 224,121.791 
					224,121.041 				"/>
				
					<line fill="none" stroke="#CE2026" stroke-width="0.75" stroke-miterlimit="10" stroke-dasharray="1.5416,1.5416" x1="224" y1="119.5" x2="224" y2="83.271"/>
				<polyline fill="none" stroke="#CE2026" stroke-width="0.75" stroke-miterlimit="10" points="224,82.5 224,81.75 224.631,82.157 
									"/>
				
					<line fill="none" stroke="#CE2026" stroke-width="0.75" stroke-miterlimit="10" stroke-dasharray="1.4803,1.4803" x1="225.877" y1="82.958" x2="292.474" y2="125.818"/>
				<polyline fill="none" stroke="#CE2026" stroke-width="0.75" stroke-miterlimit="10" points="293.095,126.219 293.726,126.625 
					293.726,127.375 				"/>
				
					<line fill="none" stroke="#CE2026" stroke-width="0.75" stroke-miterlimit="10" stroke-dasharray="1.4676,1.4676" x1="293.726" y1="128.844" x2="293.726" y2="163.332"/>
			</g>
		</g>
		
			<line fill="none" stroke="#000000" stroke-width="0.75" stroke-linecap="round" stroke-linejoin="round" stroke-miterlimit="10" stroke-dasharray="1.5" x1="221.812" y1="82.02" x2="232.822" y2="78.628"/>
		
			<line fill="none" stroke="#000000" stroke-width="0.75" stroke-linecap="round" stroke-linejoin="round" stroke-miterlimit="10" stroke-dasharray="1.5" x1="291.5" y1="127.381" x2="302.51" y2="123.988"/>
		
			<line fill="none" stroke="#000000" stroke-width="0.75" stroke-linecap="round" stroke-linejoin="round" stroke-miterlimit="10" stroke-dasharray="1.5" x1="291.5" y1="165.904" x2="302.51" y2="162.512"/>
	</g>
</g>
<g enable-background="new    ">
	<path d="M129.525,5.755c0,0.127-0.002,0.232-0.005,0.318c-0.004,0.085-0.009,0.166-0.016,0.24h-3.614
		c0,0.527,0.146,0.931,0.44,1.213s0.718,0.423,1.271,0.423c0.15,0,0.301-0.006,0.451-0.018s0.296-0.028,0.436-0.049
		s0.274-0.044,0.402-0.069c0.128-0.025,0.247-0.054,0.356-0.084v0.732c-0.243,0.068-0.517,0.124-0.823,0.167
		c-0.306,0.043-0.623,0.063-0.951,0.063c-0.441,0-0.82-0.06-1.138-0.179c-0.318-0.12-0.579-0.293-0.782-0.521
		c-0.204-0.228-0.354-0.506-0.451-0.836c-0.098-0.33-0.146-0.703-0.146-1.12c0-0.362,0.052-0.705,0.157-1.028
		c0.104-0.322,0.256-0.606,0.456-0.851c0.2-0.244,0.445-0.438,0.736-0.582s0.62-0.216,0.989-0.216c0.359,0,0.677,0.057,0.954,0.17
		c0.276,0.112,0.51,0.272,0.7,0.479c0.189,0.206,0.333,0.458,0.431,0.753C129.476,5.059,129.525,5.39,129.525,5.755z M128.597,5.627
		c0.01-0.229-0.012-0.438-0.067-0.628s-0.139-0.353-0.254-0.49c-0.114-0.136-0.257-0.243-0.428-0.32
		c-0.171-0.076-0.369-0.115-0.595-0.115c-0.194,0-0.373,0.038-0.533,0.113s-0.299,0.181-0.415,0.317s-0.21,0.301-0.282,0.492
		c-0.071,0.191-0.116,0.402-0.133,0.631H128.597z"/>
	<path d="M135.59,8.601h-1.184l-1.389-1.964l-1.374,1.964h-1.154l1.995-2.584l-1.902-2.563h1.144l1.354,1.979l1.328-1.979h1.102
		l-1.933,2.584L135.59,8.601z"/>
	<path d="M138.79,3.36c0.105,0,0.207,0.021,0.302,0.064s0.179,0.1,0.251,0.172c0.071,0.072,0.129,0.155,0.171,0.251
		c0.043,0.096,0.064,0.197,0.064,0.303c0,0.109-0.021,0.211-0.064,0.305c-0.042,0.095-0.1,0.177-0.171,0.249
		c-0.072,0.072-0.156,0.128-0.251,0.169s-0.197,0.062-0.302,0.062c-0.11,0-0.211-0.021-0.305-0.062
		c-0.094-0.041-0.177-0.097-0.249-0.169c-0.072-0.072-0.128-0.154-0.169-0.249c-0.041-0.094-0.062-0.195-0.062-0.305
		c0-0.105,0.021-0.207,0.062-0.303s0.097-0.179,0.169-0.251c0.071-0.072,0.154-0.129,0.249-0.172
		C138.578,3.382,138.68,3.36,138.79,3.36z M138.79,7.119c0.105,0,0.207,0.021,0.302,0.063c0.096,0.043,0.179,0.101,0.251,0.172
		c0.071,0.072,0.129,0.156,0.171,0.252c0.043,0.096,0.064,0.196,0.064,0.302c0,0.109-0.021,0.211-0.064,0.306
		c-0.042,0.094-0.1,0.177-0.171,0.248c-0.072,0.072-0.156,0.129-0.251,0.17s-0.197,0.061-0.302,0.061
		c-0.11,0-0.211-0.02-0.305-0.061c-0.094-0.041-0.177-0.098-0.249-0.17c-0.072-0.071-0.128-0.154-0.169-0.248
		c-0.041-0.095-0.062-0.196-0.062-0.306c0-0.105,0.021-0.206,0.062-0.302s0.097-0.18,0.169-0.252
		c0.071-0.071,0.154-0.129,0.249-0.172C138.578,7.141,138.68,7.119,138.79,7.119z"/>
	<path d="M146.495,8.411c-0.232,0.089-0.471,0.154-0.715,0.197c-0.244,0.043-0.497,0.064-0.756,0.064
		c-0.813,0-1.439-0.221-1.879-0.662c-0.439-0.44-0.659-1.085-0.659-1.933c0-0.406,0.063-0.775,0.19-1.107
		c0.126-0.331,0.304-0.615,0.533-0.851c0.229-0.236,0.502-0.418,0.82-0.547c0.317-0.128,0.668-0.191,1.051-0.191
		c0.267,0,0.516,0.019,0.749,0.056c0.232,0.038,0.455,0.1,0.667,0.185v0.852c-0.222-0.116-0.449-0.201-0.679-0.254
		c-0.231-0.053-0.469-0.08-0.715-0.08c-0.229,0-0.445,0.044-0.648,0.131c-0.204,0.088-0.382,0.213-0.536,0.377
		c-0.153,0.164-0.275,0.364-0.364,0.6c-0.089,0.236-0.133,0.503-0.133,0.801c0,0.622,0.151,1.087,0.454,1.396
		c0.303,0.31,0.722,0.464,1.259,0.464c0.243,0,0.478-0.027,0.705-0.082c0.227-0.055,0.447-0.137,0.659-0.246V8.411z"/>
	<path d="M151.576,8.601l-0.021-0.692c-0.28,0.277-0.564,0.478-0.854,0.601c-0.289,0.123-0.592,0.184-0.91,0.184
		c-0.294,0-0.545-0.037-0.753-0.112s-0.38-0.179-0.515-0.311c-0.135-0.131-0.234-0.286-0.297-0.464
		c-0.063-0.178-0.095-0.37-0.095-0.579c0-0.516,0.192-0.92,0.577-1.213c0.384-0.292,0.953-0.438,1.705-0.438h1.066V5.124
		c0-0.304-0.097-0.547-0.292-0.73c-0.194-0.183-0.492-0.273-0.892-0.273c-0.291,0-0.577,0.032-0.859,0.097
		c-0.282,0.065-0.574,0.157-0.875,0.277V3.688c0.113-0.041,0.239-0.081,0.377-0.12c0.139-0.039,0.285-0.074,0.438-0.104
		c0.154-0.031,0.314-0.056,0.482-0.075c0.167-0.019,0.336-0.028,0.507-0.028c0.311,0,0.591,0.035,0.841,0.104
		s0.461,0.172,0.633,0.313c0.173,0.14,0.305,0.316,0.397,0.527c0.092,0.213,0.138,0.462,0.138,0.749v3.548H151.576z M151.479,6.258
		h-1.133c-0.222,0-0.414,0.022-0.574,0.066c-0.161,0.045-0.292,0.107-0.395,0.189s-0.179,0.181-0.228,0.295
		c-0.05,0.114-0.075,0.243-0.075,0.388c0,0.099,0.016,0.193,0.046,0.284s0.08,0.171,0.149,0.241
		c0.068,0.069,0.157,0.125,0.267,0.166c0.109,0.041,0.242,0.062,0.399,0.062c0.205,0,0.44-0.063,0.705-0.187
		c0.265-0.125,0.544-0.322,0.838-0.593V6.258z"/>
	<path d="M154.252,3.453h0.815l0.025,0.948c0.304-0.365,0.604-0.631,0.9-0.795c0.296-0.164,0.594-0.246,0.895-0.246
		c0.533,0,0.937,0.173,1.212,0.519c0.275,0.345,0.402,0.857,0.382,1.538h-0.902c0.01-0.451-0.056-0.778-0.197-0.982
		c-0.142-0.203-0.35-0.305-0.623-0.305c-0.12,0-0.24,0.021-0.361,0.064c-0.122,0.042-0.246,0.11-0.375,0.205
		c-0.128,0.094-0.264,0.214-0.407,0.361c-0.144,0.146-0.298,0.324-0.462,0.533v3.307h-0.902V3.453z"/>
	<path d="M160.025,3.453h0.815l0.025,0.948c0.304-0.365,0.604-0.631,0.9-0.795c0.296-0.164,0.594-0.246,0.895-0.246
		c0.533,0,0.937,0.173,1.212,0.519c0.275,0.345,0.402,0.857,0.382,1.538h-0.902c0.01-0.451-0.056-0.778-0.197-0.982
		c-0.142-0.203-0.35-0.305-0.623-0.305c-0.12,0-0.24,0.021-0.361,0.064c-0.122,0.042-0.246,0.11-0.375,0.205
		c-0.128,0.094-0.264,0.214-0.407,0.361c-0.144,0.146-0.298,0.324-0.462,0.533v3.307h-0.902V3.453z"/>
	<path d="M167.341,4.191h-1.523V3.453h2.425v4.404h1.533v0.743h-4.127V7.857h1.692V4.191z M167.654,1.295
		c0.099,0,0.191,0.018,0.276,0.054s0.16,0.086,0.223,0.151c0.063,0.064,0.113,0.139,0.149,0.223
		c0.036,0.084,0.054,0.176,0.054,0.274c0,0.096-0.018,0.187-0.054,0.271c-0.036,0.086-0.085,0.161-0.149,0.226
		c-0.063,0.065-0.138,0.115-0.223,0.151s-0.178,0.054-0.276,0.054c-0.1,0-0.192-0.018-0.277-0.054s-0.16-0.086-0.223-0.151
		c-0.063-0.064-0.113-0.14-0.149-0.226c-0.036-0.085-0.054-0.176-0.054-0.271c0-0.099,0.018-0.19,0.054-0.274
		c0.036-0.084,0.085-0.158,0.149-0.223c0.063-0.065,0.137-0.115,0.223-0.151S167.555,1.295,167.654,1.295z"/>
	<path d="M175.708,5.755c0,0.127-0.002,0.232-0.005,0.318c-0.004,0.085-0.009,0.166-0.016,0.24h-3.614
		c0,0.527,0.146,0.931,0.44,1.213s0.718,0.423,1.271,0.423c0.15,0,0.301-0.006,0.451-0.018s0.296-0.028,0.436-0.049
		c0.141-0.021,0.275-0.044,0.402-0.069c0.129-0.025,0.248-0.054,0.357-0.084v0.732c-0.243,0.068-0.518,0.124-0.823,0.167
		s-0.623,0.063-0.951,0.063c-0.44,0-0.82-0.06-1.138-0.179c-0.318-0.12-0.579-0.293-0.782-0.521
		c-0.204-0.228-0.354-0.506-0.451-0.836c-0.098-0.33-0.146-0.703-0.146-1.12c0-0.362,0.052-0.705,0.157-1.028
		c0.104-0.322,0.256-0.606,0.456-0.851c0.2-0.244,0.445-0.438,0.736-0.582s0.62-0.216,0.989-0.216c0.359,0,0.677,0.057,0.954,0.17
		c0.276,0.112,0.51,0.272,0.699,0.479c0.189,0.206,0.334,0.458,0.432,0.753C175.66,5.059,175.708,5.39,175.708,5.755z
		 M174.781,5.627c0.01-0.229-0.013-0.438-0.067-0.628s-0.139-0.353-0.254-0.49c-0.113-0.136-0.257-0.243-0.428-0.32
		c-0.171-0.076-0.369-0.115-0.595-0.115c-0.194,0-0.373,0.038-0.533,0.113s-0.299,0.181-0.415,0.317s-0.21,0.301-0.282,0.492
		c-0.071,0.191-0.116,0.402-0.133,0.631H174.781z"/>
	<path d="M176.872,6.135c0-0.438,0.061-0.826,0.18-1.167c0.12-0.34,0.29-0.627,0.511-0.861c0.22-0.233,0.485-0.411,0.794-0.533
		c0.311-0.121,0.654-0.182,1.033-0.182c0.164,0,0.326,0.01,0.484,0.031c0.16,0.02,0.316,0.053,0.47,0.097V1.356h0.897v7.244h-0.801
		l-0.029-0.975c-0.25,0.363-0.521,0.631-0.811,0.806c-0.291,0.174-0.605,0.261-0.943,0.261c-0.295,0-0.553-0.061-0.777-0.184
		c-0.224-0.123-0.41-0.297-0.559-0.521c-0.148-0.225-0.261-0.493-0.336-0.808S176.872,6.518,176.872,6.135z M177.786,6.078
		c0,0.622,0.091,1.086,0.273,1.392c0.184,0.307,0.441,0.459,0.777,0.459c0.225,0,0.463-0.101,0.715-0.303
		c0.251-0.201,0.516-0.5,0.792-0.896V4.34c-0.147-0.068-0.31-0.12-0.487-0.156s-0.354-0.054-0.527-0.054
		c-0.486,0-0.864,0.157-1.137,0.472C177.92,4.916,177.786,5.408,177.786,6.078z"/>
	<path d="M186.926,8.601h-3.81V1.899h3.81v0.77h-2.896v2.076h2.783v0.77h-2.783v2.307h2.896V8.601z"/>
	<path d="M190.433,2.089h-1.522V1.356h2.425v6.501h1.532v0.743h-4.127V7.857h1.692V2.089z"/>
	<path d="M198.8,5.755c0,0.127-0.002,0.232-0.005,0.318c-0.004,0.085-0.009,0.166-0.016,0.24h-3.614c0,0.527,0.146,0.931,0.44,1.213
		s0.718,0.423,1.271,0.423c0.15,0,0.301-0.006,0.451-0.018s0.296-0.028,0.436-0.049c0.141-0.021,0.275-0.044,0.402-0.069
		c0.129-0.025,0.248-0.054,0.357-0.084v0.732c-0.243,0.068-0.518,0.124-0.823,0.167s-0.623,0.063-0.951,0.063
		c-0.44,0-0.82-0.06-1.138-0.179c-0.318-0.12-0.579-0.293-0.782-0.521c-0.204-0.228-0.354-0.506-0.451-0.836
		c-0.098-0.33-0.146-0.703-0.146-1.12c0-0.362,0.052-0.705,0.157-1.028c0.104-0.322,0.256-0.606,0.455-0.851
		c0.201-0.244,0.445-0.438,0.736-0.582s0.62-0.216,0.989-0.216c0.359,0,0.677,0.057,0.954,0.17c0.276,0.112,0.51,0.272,0.699,0.479
		c0.189,0.206,0.334,0.458,0.432,0.753C198.751,5.059,198.8,5.39,198.8,5.755z M197.873,5.627c0.01-0.229-0.013-0.438-0.067-0.628
		s-0.139-0.353-0.254-0.49c-0.113-0.136-0.257-0.243-0.428-0.32c-0.171-0.076-0.369-0.115-0.595-0.115
		c-0.194,0-0.372,0.038-0.533,0.113s-0.299,0.181-0.415,0.317s-0.21,0.301-0.282,0.492c-0.071,0.191-0.116,0.402-0.133,0.631
		H197.873z"/>
	<path d="M203.897,8.601V4.904c0-0.161-0.006-0.292-0.019-0.396c-0.012-0.102-0.03-0.184-0.056-0.243
		c-0.026-0.06-0.059-0.102-0.098-0.126c-0.039-0.023-0.088-0.035-0.146-0.035c-0.068,0-0.132,0.021-0.189,0.062
		c-0.059,0.041-0.121,0.107-0.188,0.2c-0.066,0.092-0.141,0.214-0.221,0.366s-0.175,0.339-0.284,0.562v3.307h-0.815v-3.6
		c0-0.188-0.006-0.34-0.018-0.456s-0.031-0.206-0.057-0.271c-0.025-0.064-0.059-0.109-0.1-0.134
		c-0.041-0.023-0.091-0.035-0.148-0.035c-0.063,0-0.12,0.017-0.175,0.051s-0.115,0.096-0.183,0.185
		c-0.066,0.089-0.141,0.21-0.223,0.364s-0.18,0.351-0.292,0.59v3.307h-0.82V3.453h0.683l0.041,0.979
		c0.088-0.195,0.174-0.36,0.258-0.498c0.084-0.136,0.17-0.246,0.26-0.33c0.088-0.084,0.184-0.146,0.284-0.185s0.212-0.06,0.335-0.06
		c0.277,0,0.488,0.091,0.631,0.272c0.145,0.181,0.216,0.461,0.216,0.841c0.082-0.178,0.162-0.336,0.241-0.475
		c0.078-0.139,0.163-0.255,0.254-0.349c0.09-0.094,0.189-0.166,0.299-0.215c0.109-0.05,0.236-0.075,0.381-0.075
		c0.645,0,0.969,0.498,0.969,1.492v3.748H203.897z"/>
	<path d="M210.346,5.755c0,0.127-0.002,0.232-0.005,0.318c-0.004,0.085-0.009,0.166-0.016,0.24h-3.614
		c0,0.527,0.146,0.931,0.44,1.213s0.718,0.423,1.271,0.423c0.15,0,0.301-0.006,0.451-0.018s0.296-0.028,0.437-0.049
		c0.14-0.021,0.273-0.044,0.402-0.069c0.128-0.025,0.246-0.054,0.355-0.084v0.732c-0.242,0.068-0.517,0.124-0.822,0.167
		c-0.307,0.043-0.623,0.063-0.951,0.063c-0.441,0-0.82-0.06-1.139-0.179c-0.317-0.12-0.578-0.293-0.781-0.521
		s-0.354-0.506-0.451-0.836s-0.146-0.703-0.146-1.12c0-0.362,0.053-0.705,0.156-1.028c0.104-0.322,0.257-0.606,0.457-0.851
		c0.199-0.244,0.445-0.438,0.735-0.582s0.62-0.216,0.989-0.216c0.359,0,0.677,0.057,0.954,0.17c0.276,0.112,0.51,0.272,0.7,0.479
		c0.189,0.206,0.332,0.458,0.43,0.753C210.297,5.059,210.346,5.39,210.346,5.755z M209.418,5.627
		c0.01-0.229-0.012-0.438-0.066-0.628s-0.14-0.353-0.254-0.49c-0.115-0.136-0.258-0.243-0.429-0.32
		c-0.171-0.076-0.369-0.115-0.595-0.115c-0.194,0-0.373,0.038-0.533,0.113s-0.299,0.181-0.415,0.317s-0.21,0.301-0.282,0.492
		c-0.071,0.191-0.116,0.402-0.133,0.631H209.418z"/>
	<path d="M211.772,3.453h0.795l0.035,0.831c0.15-0.178,0.295-0.326,0.436-0.444c0.141-0.117,0.277-0.212,0.413-0.284
		c0.135-0.072,0.272-0.122,0.413-0.151c0.14-0.029,0.285-0.044,0.436-0.044c0.529,0,0.93,0.157,1.202,0.47
		c0.271,0.313,0.407,0.783,0.407,1.412v3.358h-0.893V5.314c0-0.403-0.074-0.702-0.225-0.895c-0.15-0.193-0.375-0.29-0.672-0.29
		c-0.109,0-0.217,0.017-0.32,0.049c-0.104,0.032-0.213,0.089-0.326,0.169c-0.112,0.08-0.234,0.189-0.366,0.325
		c-0.132,0.138-0.279,0.309-0.443,0.514v3.414h-0.892V3.453z"/>
	<path d="M221.692,8.528c-0.201,0.052-0.41,0.089-0.625,0.11c-0.216,0.022-0.435,0.034-0.656,0.034
		c-0.646,0-1.128-0.146-1.446-0.438c-0.317-0.293-0.477-0.741-0.477-1.347V4.202h-1.44V3.453h1.44V2.038l0.892-0.23v1.646h2.313
		v0.749h-2.313v2.614c0,0.369,0.099,0.646,0.295,0.828c0.197,0.183,0.486,0.274,0.869,0.274c0.164,0,0.344-0.013,0.539-0.039
		c0.194-0.025,0.397-0.065,0.609-0.12V8.528z"/>
</g>
<g>
	<g>
		<path fill="none" stroke="#000000" stroke-width="0.75" stroke-miterlimit="10" d="M238.415,93.497
			c0-49.922,24.883-47.961,26.721-10.43"/>
		<g>
			<polygon points="262.2,81.081 265.023,82.146 267.75,80.854 265.243,87.545 			"/>
		</g>
	</g>
</g>
<g>
	<polyline fill="#5D6162" points="144.853,94.668 162.091,86.224 162.091,49.678 92.369,5.158 75.129,11.602 75.129,51.645 
		144.853,94.668 	"/>
	
		<line fill="none" stroke="#000000" stroke-width="0.75" stroke-miterlimit="10" x1="75.129" y1="11.602" x2="144.853" y2="56.479"/>
	<path fill="none" stroke="#000000" stroke-width="0.75" stroke-miterlimit="10" d="M144.853,58.122"/>
	<polyline fill="none" stroke="#000000" stroke-width="0.75" stroke-miterlimit="10" points="144.853,94.668 162.091,86.224 
		162.091,49.678 92.369,5.158 75.129,11.602 75.129,51.645 144.853,94.668 	"/>
	
		<line fill="none" stroke="#000000" stroke-width="0.75" stroke-miterlimit="10" x1="144.853" y1="56.479" x2="162.091" y2="49.678"/>
	
		<line fill="none" stroke="#000000" stroke-width="0.75" stroke-miterlimit="10" x1="144.853" y1="56.479" x2="144.853" y2="94.668"/>
</g>
<g>
	<g>
		<path fill="none" stroke="#000000" stroke-width="0.75" stroke-miterlimit="10" d="M238.345,90.817
			C235.32,30.882,131.806-10.717,124.738,28.412"/>
		<g>
			<circle cx="238.334" cy="90.678" r="2.82"/>
		</g>
		<g>
			<polygon points="122.279,26.034 124.919,27.495 127.804,26.61 124.357,32.87 			"/>
		</g>
	</g>
</g>
<g enable-background="new    ">
	<path d="M246.398,47.066c0,0.127-0.002,0.232-0.005,0.318c-0.004,0.085-0.009,0.166-0.016,0.24h-3.614
		c0,0.527,0.146,0.931,0.44,1.213s0.718,0.423,1.271,0.423c0.15,0,0.301-0.006,0.451-0.018s0.296-0.028,0.436-0.049
		c0.141-0.021,0.275-0.044,0.402-0.069c0.129-0.025,0.248-0.054,0.357-0.084v0.732c-0.243,0.068-0.518,0.124-0.823,0.167
		s-0.623,0.063-0.951,0.063c-0.44,0-0.82-0.06-1.138-0.179c-0.318-0.12-0.579-0.293-0.782-0.521
		c-0.204-0.228-0.354-0.506-0.451-0.836c-0.098-0.33-0.146-0.703-0.146-1.12c0-0.362,0.052-0.705,0.157-1.028
		c0.104-0.322,0.256-0.606,0.455-0.851c0.201-0.244,0.445-0.438,0.736-0.582s0.62-0.216,0.989-0.216c0.359,0,0.677,0.057,0.954,0.17
		c0.276,0.112,0.51,0.272,0.699,0.479c0.189,0.206,0.334,0.458,0.432,0.753C246.349,46.37,246.398,46.701,246.398,47.066z
		 M245.47,46.938c0.01-0.229-0.013-0.438-0.067-0.628s-0.139-0.353-0.254-0.49c-0.113-0.136-0.257-0.243-0.428-0.32
		c-0.171-0.076-0.369-0.115-0.595-0.115c-0.194,0-0.372,0.038-0.533,0.113s-0.299,0.181-0.415,0.317s-0.21,0.301-0.282,0.492
		c-0.071,0.191-0.116,0.402-0.133,0.631H245.47z"/>
	<path d="M252.463,49.912h-1.185l-1.39-1.964l-1.373,1.964h-1.154l1.994-2.584l-1.902-2.563h1.145l1.354,1.979l1.327-1.979h1.103
		l-1.934,2.584L252.463,49.912z"/>
	<path d="M255.663,44.672c0.105,0,0.207,0.021,0.303,0.064s0.179,0.1,0.251,0.172c0.071,0.072,0.129,0.155,0.171,0.251
		c0.043,0.096,0.064,0.197,0.064,0.303c0,0.109-0.021,0.211-0.064,0.305c-0.042,0.095-0.1,0.177-0.171,0.249
		c-0.072,0.072-0.155,0.128-0.251,0.169s-0.197,0.062-0.303,0.062c-0.109,0-0.211-0.021-0.305-0.062
		c-0.095-0.041-0.178-0.097-0.249-0.169c-0.072-0.072-0.128-0.154-0.169-0.249c-0.041-0.094-0.063-0.195-0.063-0.305
		c0-0.105,0.021-0.207,0.063-0.303s0.097-0.179,0.169-0.251c0.071-0.072,0.154-0.129,0.249-0.172
		C255.452,44.693,255.553,44.672,255.663,44.672z M255.663,48.431c0.105,0,0.207,0.021,0.303,0.063
		c0.096,0.043,0.179,0.101,0.251,0.172c0.071,0.072,0.129,0.156,0.171,0.252c0.043,0.096,0.064,0.196,0.064,0.302
		c0,0.109-0.021,0.211-0.064,0.306c-0.042,0.094-0.1,0.177-0.171,0.248c-0.072,0.072-0.155,0.129-0.251,0.17
		s-0.197,0.061-0.303,0.061c-0.109,0-0.211-0.02-0.305-0.061c-0.095-0.041-0.178-0.098-0.249-0.17
		c-0.072-0.071-0.128-0.154-0.169-0.248c-0.041-0.095-0.063-0.196-0.063-0.306c0-0.105,0.021-0.206,0.063-0.302
		s0.097-0.18,0.169-0.252c0.071-0.071,0.154-0.129,0.249-0.172C255.452,48.452,255.553,48.431,255.663,48.431z"/>
	<path d="M263.368,49.723c-0.232,0.089-0.471,0.154-0.715,0.197s-0.496,0.064-0.756,0.064c-0.814,0-1.439-0.221-1.879-0.662
		c-0.439-0.44-0.659-1.085-0.659-1.933c0-0.406,0.063-0.775,0.19-1.107c0.125-0.331,0.303-0.615,0.533-0.851
		c0.229-0.236,0.502-0.418,0.82-0.547c0.316-0.128,0.668-0.191,1.051-0.191c0.266,0,0.516,0.019,0.748,0.056
		c0.232,0.038,0.455,0.1,0.666,0.185v0.852c-0.222-0.116-0.448-0.201-0.679-0.254c-0.231-0.053-0.47-0.08-0.716-0.08
		c-0.229,0-0.445,0.044-0.648,0.131c-0.203,0.088-0.381,0.213-0.535,0.377s-0.275,0.364-0.364,0.6
		c-0.089,0.236-0.134,0.503-0.134,0.801c0,0.622,0.152,1.087,0.454,1.396c0.303,0.31,0.722,0.464,1.259,0.464
		c0.242,0,0.478-0.027,0.705-0.082c0.227-0.055,0.447-0.137,0.658-0.246V49.723z"/>
	<path d="M268.449,49.912l-0.021-0.692c-0.28,0.277-0.564,0.478-0.854,0.601s-0.592,0.184-0.91,0.184
		c-0.294,0-0.545-0.037-0.754-0.112c-0.208-0.075-0.38-0.179-0.515-0.311c-0.136-0.131-0.234-0.286-0.298-0.464
		c-0.063-0.178-0.095-0.37-0.095-0.579c0-0.516,0.192-0.92,0.577-1.213c0.385-0.292,0.953-0.438,1.705-0.438h1.066v-0.451
		c0-0.304-0.098-0.547-0.293-0.73c-0.194-0.183-0.492-0.273-0.892-0.273c-0.291,0-0.577,0.032-0.858,0.097
		c-0.283,0.065-0.574,0.157-0.875,0.277V45c0.113-0.041,0.238-0.081,0.377-0.12s0.285-0.074,0.438-0.104
		c0.153-0.031,0.314-0.056,0.481-0.075c0.168-0.019,0.337-0.028,0.508-0.028c0.311,0,0.592,0.035,0.841,0.104
		s0.461,0.172,0.634,0.313c0.172,0.14,0.305,0.316,0.396,0.527c0.093,0.213,0.139,0.462,0.139,0.749v3.548H268.449z M268.352,47.569
		h-1.134c-0.222,0-0.413,0.022-0.574,0.066c-0.161,0.045-0.292,0.107-0.395,0.189s-0.179,0.181-0.228,0.295
		c-0.051,0.114-0.075,0.243-0.075,0.388c0,0.099,0.016,0.193,0.046,0.284c0.031,0.091,0.08,0.171,0.149,0.241
		c0.067,0.069,0.157,0.125,0.267,0.166s0.242,0.062,0.399,0.062c0.205,0,0.44-0.063,0.705-0.187
		c0.265-0.125,0.544-0.322,0.839-0.593V47.569z"/>
	<path d="M271.125,44.765h0.814l0.025,0.948c0.305-0.365,0.605-0.631,0.9-0.795c0.296-0.164,0.594-0.246,0.895-0.246
		c0.533,0,0.938,0.173,1.213,0.519c0.275,0.345,0.402,0.857,0.382,1.538h-0.902c0.011-0.451-0.056-0.778-0.197-0.982
		c-0.142-0.203-0.35-0.305-0.623-0.305c-0.12,0-0.24,0.021-0.361,0.064c-0.122,0.042-0.246,0.11-0.374,0.205
		c-0.129,0.094-0.264,0.214-0.408,0.361c-0.143,0.146-0.297,0.324-0.461,0.533v3.307h-0.902V44.765z"/>
	<path d="M276.898,44.765h0.815l0.025,0.948c0.305-0.365,0.604-0.631,0.9-0.795c0.295-0.164,0.594-0.246,0.895-0.246
		c0.533,0,0.938,0.173,1.213,0.519c0.274,0.345,0.402,0.857,0.381,1.538h-0.902c0.011-0.451-0.055-0.778-0.197-0.982
		c-0.142-0.203-0.35-0.305-0.623-0.305c-0.119,0-0.24,0.021-0.361,0.064c-0.121,0.042-0.246,0.11-0.374,0.205
		c-0.128,0.094-0.264,0.214-0.407,0.361c-0.144,0.146-0.298,0.324-0.462,0.533v3.307h-0.902V44.765z"/>
	<path d="M287.04,44.765l-1.754,4.604c-0.182,0.468-0.368,0.871-0.561,1.209c-0.193,0.339-0.404,0.616-0.634,0.834
		c-0.229,0.217-0.48,0.377-0.753,0.479c-0.274,0.104-0.58,0.154-0.918,0.154c-0.09,0-0.17-0.002-0.242-0.005
		c-0.07-0.004-0.15-0.009-0.234-0.016v-0.81c0.074,0.01,0.156,0.02,0.246,0.027c0.088,0.009,0.182,0.014,0.281,0.014
		c0.164,0,0.316-0.024,0.459-0.072c0.142-0.048,0.275-0.126,0.402-0.233s0.248-0.247,0.363-0.418c0.117-0.171,0.229-0.378,0.34-0.62
		l-2.057-5.147h1.016l1.302,3.404l0.261,0.8l0.299-0.82l1.204-3.384H287.04z"/>
	<path d="M289.987,45.503h-1.522v-0.738h2.425v4.404h1.533v0.743h-4.127v-0.743h1.691V45.503z M290.3,42.606
		c0.099,0,0.19,0.018,0.276,0.054s0.16,0.086,0.223,0.151c0.064,0.064,0.113,0.139,0.149,0.223s0.054,0.176,0.054,0.274
		c0,0.096-0.018,0.187-0.054,0.271c-0.036,0.086-0.085,0.161-0.149,0.226c-0.063,0.065-0.137,0.115-0.223,0.151
		s-0.178,0.054-0.276,0.054c-0.1,0-0.192-0.018-0.277-0.054s-0.159-0.086-0.223-0.151c-0.063-0.064-0.112-0.14-0.149-0.226
		c-0.035-0.085-0.053-0.176-0.053-0.271c0-0.099,0.018-0.19,0.053-0.274c0.037-0.084,0.086-0.158,0.149-0.223
		c0.063-0.065,0.138-0.115,0.223-0.151S290.201,42.606,290.3,42.606z"/>
	<path d="M294.006,44.765h0.795l0.036,0.831c0.15-0.178,0.296-0.326,0.437-0.444c0.139-0.117,0.277-0.212,0.412-0.284
		s0.272-0.122,0.412-0.151c0.141-0.029,0.285-0.044,0.436-0.044c0.53,0,0.932,0.157,1.203,0.47s0.408,0.783,0.408,1.412v3.358
		h-0.893v-3.286c0-0.403-0.076-0.702-0.227-0.895c-0.15-0.193-0.373-0.29-0.671-0.29c-0.109,0-0.216,0.017-0.32,0.049
		s-0.213,0.089-0.325,0.169c-0.113,0.08-0.235,0.189-0.367,0.325c-0.131,0.138-0.279,0.309-0.443,0.514v3.414h-0.893V44.765z"/>
	<path d="M303.487,45.492c0.096,0.12,0.17,0.26,0.223,0.418c0.053,0.159,0.08,0.331,0.08,0.516c0,0.267-0.049,0.51-0.146,0.73
		s-0.235,0.409-0.413,0.566s-0.39,0.279-0.638,0.367c-0.248,0.087-0.521,0.131-0.818,0.131c-0.215,0-0.417-0.023-0.604-0.069
		c-0.188-0.047-0.337-0.104-0.446-0.172c-0.064,0.096-0.119,0.187-0.164,0.271c-0.045,0.086-0.066,0.182-0.066,0.287
		c0,0.13,0.063,0.237,0.188,0.323c0.124,0.085,0.289,0.132,0.494,0.139l1.354,0.051c0.256,0.007,0.493,0.039,0.71,0.098
		c0.218,0.058,0.403,0.142,0.56,0.251c0.154,0.109,0.276,0.244,0.363,0.405c0.088,0.16,0.131,0.347,0.131,0.559
		c0,0.229-0.05,0.446-0.148,0.651c-0.1,0.205-0.252,0.385-0.459,0.541c-0.207,0.155-0.469,0.279-0.787,0.371
		c-0.318,0.093-0.695,0.139-1.133,0.139c-0.418,0-0.771-0.033-1.064-0.1c-0.292-0.067-0.532-0.159-0.72-0.277
		c-0.188-0.118-0.325-0.258-0.41-0.42c-0.086-0.163-0.128-0.341-0.128-0.536c0-0.25,0.058-0.469,0.174-0.656
		s0.295-0.369,0.538-0.543c-0.089-0.041-0.165-0.093-0.23-0.154s-0.118-0.129-0.159-0.202c-0.041-0.074-0.071-0.151-0.092-0.233
		s-0.031-0.162-0.031-0.241c0-0.222,0.053-0.426,0.156-0.61c0.104-0.185,0.229-0.358,0.372-0.522
		c-0.065-0.079-0.122-0.155-0.172-0.231c-0.05-0.074-0.093-0.156-0.128-0.243c-0.036-0.087-0.063-0.181-0.082-0.282
		c-0.02-0.101-0.028-0.216-0.028-0.346c0-0.267,0.049-0.51,0.146-0.73c0.098-0.221,0.234-0.409,0.41-0.566
		c0.177-0.157,0.389-0.279,0.637-0.367c0.248-0.087,0.521-0.131,0.822-0.131c0.127,0,0.248,0.009,0.364,0.026
		c0.116,0.017,0.219,0.039,0.308,0.066h1.866v0.728H303.487z M300.39,50.655c0,0.243,0.126,0.42,0.379,0.531
		c0.253,0.11,0.605,0.166,1.057,0.166c0.283,0,0.522-0.025,0.715-0.077c0.193-0.051,0.349-0.118,0.467-0.202s0.202-0.18,0.254-0.287
		c0.051-0.107,0.077-0.218,0.077-0.331c0-0.208-0.086-0.362-0.257-0.461s-0.433-0.157-0.784-0.174l-1.344-0.047
		c-0.112,0.075-0.205,0.148-0.279,0.221c-0.073,0.072-0.131,0.145-0.172,0.218s-0.07,0.147-0.087,0.221S300.39,50.58,300.39,50.655z
		 M300.662,46.446c0,0.164,0.027,0.314,0.082,0.451s0.132,0.253,0.23,0.349s0.216,0.17,0.352,0.223
		c0.135,0.054,0.284,0.08,0.448,0.08c0.178,0,0.336-0.03,0.475-0.09s0.254-0.141,0.349-0.244c0.094-0.102,0.165-0.22,0.216-0.354
		c0.049-0.133,0.074-0.271,0.074-0.415c0-0.164-0.027-0.314-0.082-0.451s-0.133-0.253-0.231-0.349s-0.216-0.17-0.351-0.223
		c-0.135-0.054-0.285-0.08-0.449-0.08c-0.178,0-0.336,0.031-0.475,0.093c-0.138,0.062-0.254,0.143-0.348,0.243
		s-0.166,0.218-0.216,0.352C300.686,46.164,300.662,46.303,300.662,46.446z"/>
	<path d="M309.573,49.912h-3.811v-6.701h3.811v0.77h-2.896v2.076h2.783v0.77h-2.783v2.307h2.896V49.912z"/>
	<path d="M313.079,43.4h-1.522v-0.732h2.425v6.501h1.533v0.743h-4.127v-0.743h1.691V43.4z"/>
	<path d="M321.446,47.066c0,0.127-0.002,0.232-0.004,0.318c-0.004,0.085-0.01,0.166-0.016,0.24h-3.615
		c0,0.527,0.146,0.931,0.441,1.213c0.293,0.282,0.717,0.423,1.271,0.423c0.15,0,0.301-0.006,0.451-0.018s0.295-0.028,0.436-0.049
		s0.274-0.044,0.402-0.069c0.129-0.025,0.247-0.054,0.356-0.084v0.732c-0.243,0.068-0.517,0.124-0.823,0.167
		c-0.306,0.043-0.623,0.063-0.951,0.063c-0.44,0-0.82-0.06-1.138-0.179c-0.317-0.12-0.579-0.293-0.782-0.521
		s-0.354-0.506-0.451-0.836s-0.146-0.703-0.146-1.12c0-0.362,0.053-0.705,0.157-1.028c0.104-0.322,0.257-0.606,0.456-0.851
		c0.2-0.244,0.445-0.438,0.736-0.582c0.29-0.144,0.619-0.216,0.988-0.216c0.359,0,0.678,0.057,0.955,0.17
		c0.275,0.112,0.51,0.272,0.699,0.479c0.189,0.206,0.333,0.458,0.431,0.753C321.397,46.37,321.446,46.701,321.446,47.066z
		 M320.518,46.938c0.01-0.229-0.012-0.438-0.066-0.628s-0.139-0.353-0.254-0.49c-0.114-0.136-0.258-0.243-0.428-0.32
		c-0.172-0.076-0.369-0.115-0.596-0.115c-0.193,0-0.372,0.038-0.533,0.113c-0.16,0.075-0.299,0.181-0.414,0.317
		c-0.117,0.137-0.211,0.301-0.283,0.492c-0.07,0.191-0.115,0.402-0.133,0.631H320.518z"/>
	<path d="M326.542,49.912v-3.696c0-0.161-0.006-0.292-0.019-0.396c-0.012-0.102-0.03-0.184-0.056-0.243
		c-0.026-0.06-0.058-0.102-0.098-0.126c-0.039-0.023-0.088-0.035-0.146-0.035c-0.068,0-0.133,0.021-0.19,0.062
		s-0.12,0.107-0.187,0.2c-0.066,0.092-0.141,0.214-0.221,0.366s-0.176,0.339-0.285,0.562v3.307h-0.814v-3.6
		c0-0.188-0.006-0.34-0.018-0.456c-0.013-0.116-0.031-0.206-0.057-0.271c-0.025-0.064-0.06-0.109-0.101-0.134
		c-0.041-0.023-0.091-0.035-0.148-0.035c-0.062,0-0.12,0.017-0.175,0.051s-0.115,0.096-0.182,0.185s-0.141,0.21-0.223,0.364
		s-0.18,0.351-0.293,0.59v3.307h-0.82v-5.147h0.683l0.041,0.979c0.089-0.195,0.175-0.36,0.259-0.498
		c0.084-0.136,0.17-0.246,0.259-0.33s0.184-0.146,0.284-0.185c0.102-0.039,0.213-0.06,0.336-0.06c0.277,0,0.487,0.091,0.631,0.272
		c0.144,0.181,0.215,0.461,0.215,0.841c0.082-0.178,0.162-0.336,0.241-0.475s0.163-0.255,0.254-0.349s0.19-0.166,0.3-0.215
		c0.109-0.05,0.236-0.075,0.38-0.075c0.646,0,0.969,0.498,0.969,1.492v3.748H326.542z"/>
	<path d="M332.993,47.066c0,0.127-0.002,0.232-0.006,0.318c-0.004,0.085-0.008,0.166-0.016,0.24h-3.613
		c0,0.527,0.146,0.931,0.439,1.213c0.295,0.282,0.719,0.423,1.271,0.423c0.15,0,0.301-0.006,0.451-0.018s0.297-0.028,0.437-0.049
		s0.274-0.044,0.402-0.069s0.247-0.054,0.356-0.084v0.732c-0.242,0.068-0.518,0.124-0.822,0.167
		c-0.307,0.043-0.623,0.063-0.951,0.063c-0.441,0-0.82-0.06-1.139-0.179c-0.318-0.12-0.578-0.293-0.781-0.521
		c-0.204-0.228-0.354-0.506-0.451-0.836c-0.098-0.33-0.146-0.703-0.146-1.12c0-0.362,0.052-0.705,0.156-1.028
		c0.104-0.322,0.256-0.606,0.456-0.851s0.445-0.438,0.735-0.582c0.291-0.144,0.621-0.216,0.99-0.216c0.359,0,0.676,0.057,0.953,0.17
		c0.277,0.112,0.51,0.272,0.7,0.479c0.189,0.206,0.333,0.458,0.431,0.753C332.944,46.37,332.993,46.701,332.993,47.066z
		 M332.065,46.938c0.01-0.229-0.013-0.438-0.067-0.628s-0.14-0.353-0.254-0.49c-0.114-0.136-0.257-0.243-0.429-0.32
		c-0.17-0.076-0.369-0.115-0.594-0.115c-0.195,0-0.373,0.038-0.533,0.113c-0.161,0.075-0.299,0.181-0.416,0.317
		c-0.115,0.137-0.209,0.301-0.281,0.492s-0.117,0.402-0.133,0.631H332.065z"/>
	<path d="M334.417,44.765h0.795l0.036,0.831c0.15-0.178,0.295-0.326,0.436-0.444c0.14-0.117,0.277-0.212,0.412-0.284
		s0.273-0.122,0.413-0.151s0.285-0.044,0.436-0.044c0.53,0,0.931,0.157,1.202,0.47s0.408,0.783,0.408,1.412v3.358h-0.893v-3.286
		c0-0.403-0.075-0.702-0.226-0.895c-0.15-0.193-0.374-0.29-0.671-0.29c-0.109,0-0.217,0.017-0.32,0.049
		c-0.105,0.032-0.213,0.089-0.326,0.169s-0.234,0.189-0.367,0.325c-0.131,0.138-0.279,0.309-0.443,0.514v3.414h-0.892V44.765z"/>
	<path d="M344.338,49.84c-0.202,0.052-0.41,0.089-0.625,0.11c-0.217,0.022-0.436,0.034-0.656,0.034
		c-0.646,0-1.129-0.146-1.447-0.438c-0.316-0.293-0.477-0.741-0.477-1.347v-2.686h-1.439v-0.749h1.439V43.35l0.893-0.23v1.646h2.313
		v0.749h-2.313v2.614c0,0.369,0.098,0.646,0.295,0.828c0.196,0.183,0.486,0.274,0.869,0.274c0.164,0,0.344-0.013,0.538-0.039
		c0.194-0.025,0.397-0.065,0.61-0.12V49.84z"/>
</g>
<g>
	<g>
		<path fill="none" stroke="#000000" stroke-width="0.75" stroke-miterlimit="10" d="M207.396,110.917
			c-1.563-60.003-55.049-104.371-58.723-65.475"/>
		<g>
			<circle cx="207.351" cy="110.782" r="2.82"/>
		</g>
		<g>
			<polygon points="146.093,43.176 148.795,44.519 151.638,43.506 148.474,49.913 			"/>
		</g>
	</g>
</g>
<g enable-background="new    ">
	<path d="M98.039,120.617c0,0.428-0.059,0.81-0.177,1.146c-0.118,0.337-0.286,0.622-0.502,0.856
		c-0.217,0.234-0.481,0.414-0.792,0.538c-0.312,0.125-0.662,0.188-1.051,0.188c-0.304,0-0.615-0.029-0.933-0.087
		c-0.318-0.059-0.632-0.15-0.943-0.277v-6.941h0.892v1.994l-0.041,0.953c0.256-0.345,0.531-0.588,0.823-0.73
		c0.292-0.142,0.606-0.213,0.941-0.213c0.294,0,0.552,0.063,0.774,0.186s0.409,0.296,0.559,0.52c0.15,0.225,0.263,0.494,0.338,0.811
		S98.039,120.228,98.039,120.617z M97.126,120.658c0-0.27-0.02-0.518-0.059-0.743c-0.039-0.226-0.102-0.419-0.187-0.579
		c-0.085-0.161-0.195-0.287-0.328-0.377c-0.133-0.091-0.292-0.137-0.477-0.137c-0.113,0-0.228,0.019-0.344,0.055
		c-0.116,0.035-0.237,0.096-0.361,0.179c-0.125,0.084-0.256,0.195-0.395,0.334c-0.138,0.138-0.286,0.31-0.443,0.515v2.497
		c0.174,0.068,0.352,0.122,0.533,0.161c0.181,0.04,0.354,0.06,0.518,0.06c0.205,0,0.4-0.032,0.587-0.098
		c0.186-0.064,0.35-0.174,0.492-0.325c0.142-0.152,0.254-0.354,0.338-0.605C97.084,121.343,97.126,121.031,97.126,120.658z"/>
	<path d="M103.894,120.668c0,0.4-0.056,0.767-0.169,1.101c-0.112,0.333-0.275,0.618-0.487,0.855
		c-0.212,0.238-0.47,0.423-0.774,0.554c-0.305,0.132-0.65,0.197-1.036,0.197c-0.369,0-0.7-0.057-0.992-0.171
		c-0.292-0.115-0.54-0.283-0.744-0.505c-0.203-0.223-0.359-0.498-0.466-0.826c-0.108-0.328-0.162-0.705-0.162-1.133
		c0-0.4,0.057-0.765,0.169-1.095c0.113-0.33,0.275-0.613,0.487-0.851c0.212-0.238,0.47-0.423,0.774-0.554
		c0.304-0.132,0.649-0.198,1.035-0.198c0.369,0,0.7,0.058,0.992,0.172c0.292,0.115,0.54,0.282,0.744,0.503
		c0.203,0.221,0.359,0.495,0.466,0.823C103.84,119.869,103.894,120.245,103.894,120.668z M102.981,120.709
		c0-0.317-0.035-0.595-0.105-0.833c-0.07-0.237-0.17-0.436-0.3-0.595c-0.13-0.158-0.288-0.278-0.474-0.358
		c-0.186-0.08-0.394-0.12-0.623-0.12c-0.267,0-0.495,0.052-0.685,0.156c-0.19,0.104-0.345,0.243-0.467,0.418
		c-0.121,0.174-0.21,0.376-0.267,0.607c-0.056,0.23-0.084,0.473-0.084,0.725c0,0.318,0.035,0.597,0.105,0.836
		c0.07,0.239,0.17,0.438,0.3,0.598s0.287,0.278,0.472,0.358c0.185,0.081,0.393,0.121,0.626,0.121c0.267,0,0.495-0.053,0.684-0.156
		c0.19-0.104,0.345-0.244,0.467-0.418c0.121-0.175,0.21-0.377,0.267-0.607C102.953,121.209,102.981,120.966,102.981,120.709z"/>
	<path d="M109.333,123.211c-0.202,0.052-0.41,0.089-0.625,0.11c-0.216,0.022-0.435,0.034-0.656,0.034
		c-0.646,0-1.128-0.146-1.446-0.438c-0.317-0.293-0.477-0.741-0.477-1.347v-2.686h-1.44v-0.749h1.44v-1.415l0.892-0.23v1.646h2.312
		v0.749h-2.312v2.614c0,0.369,0.098,0.646,0.295,0.828c0.196,0.183,0.486,0.274,0.869,0.274c0.164,0,0.344-0.013,0.539-0.039
		c0.195-0.025,0.398-0.065,0.61-0.12V123.211z"/>
	<path d="M113.025,118.043c0.105,0,0.207,0.021,0.302,0.064s0.179,0.1,0.251,0.172c0.071,0.072,0.129,0.155,0.171,0.251
		c0.043,0.096,0.064,0.197,0.064,0.303c0,0.109-0.021,0.211-0.064,0.305c-0.042,0.095-0.1,0.177-0.171,0.249
		c-0.072,0.072-0.156,0.128-0.251,0.169s-0.197,0.062-0.302,0.062c-0.11,0-0.211-0.021-0.305-0.062
		c-0.094-0.041-0.177-0.097-0.249-0.169c-0.072-0.072-0.128-0.154-0.169-0.249c-0.041-0.094-0.062-0.195-0.062-0.305
		c0-0.105,0.021-0.207,0.062-0.303s0.097-0.179,0.169-0.251c0.071-0.072,0.154-0.129,0.249-0.172
		C112.814,118.064,112.916,118.043,113.025,118.043z M113.025,121.802c0.105,0,0.207,0.021,0.302,0.063
		c0.096,0.043,0.179,0.101,0.251,0.172c0.071,0.072,0.129,0.156,0.171,0.252c0.043,0.096,0.064,0.196,0.064,0.302
		c0,0.109-0.021,0.211-0.064,0.306c-0.042,0.094-0.1,0.177-0.171,0.248c-0.072,0.072-0.156,0.129-0.251,0.17
		s-0.197,0.061-0.302,0.061c-0.11,0-0.211-0.02-0.305-0.061c-0.094-0.041-0.177-0.098-0.249-0.17
		c-0.072-0.071-0.128-0.154-0.169-0.248c-0.041-0.095-0.062-0.196-0.062-0.306c0-0.105,0.021-0.206,0.062-0.302
		s0.097-0.18,0.169-0.252c0.071-0.071,0.154-0.129,0.249-0.172C112.814,121.823,112.916,121.802,113.025,121.802z"/>
	<path d="M120.731,123.094c-0.232,0.089-0.471,0.154-0.715,0.197c-0.244,0.043-0.497,0.064-0.756,0.064
		c-0.813,0-1.439-0.221-1.879-0.662c-0.439-0.44-0.659-1.085-0.659-1.933c0-0.406,0.063-0.775,0.19-1.107
		c0.126-0.331,0.304-0.615,0.533-0.851c0.229-0.236,0.502-0.418,0.82-0.547c0.317-0.128,0.668-0.191,1.051-0.191
		c0.267,0,0.516,0.019,0.749,0.056c0.232,0.038,0.455,0.1,0.667,0.185v0.852c-0.222-0.116-0.449-0.201-0.679-0.254
		c-0.231-0.053-0.469-0.08-0.715-0.08c-0.229,0-0.445,0.044-0.648,0.131c-0.204,0.088-0.382,0.213-0.536,0.377
		c-0.153,0.164-0.275,0.364-0.364,0.6c-0.089,0.236-0.133,0.503-0.133,0.801c0,0.622,0.151,1.087,0.454,1.396
		c0.303,0.31,0.722,0.464,1.259,0.464c0.243,0,0.478-0.027,0.705-0.082c0.227-0.055,0.447-0.137,0.659-0.246V123.094z"/>
	<path d="M126.986,120.668c0,0.4-0.056,0.767-0.169,1.101c-0.112,0.333-0.275,0.618-0.487,0.855
		c-0.212,0.238-0.47,0.423-0.774,0.554c-0.305,0.132-0.65,0.197-1.036,0.197c-0.369,0-0.7-0.057-0.992-0.171
		c-0.292-0.115-0.54-0.283-0.744-0.505c-0.203-0.223-0.359-0.498-0.466-0.826c-0.108-0.328-0.162-0.705-0.162-1.133
		c0-0.4,0.057-0.765,0.169-1.095c0.113-0.33,0.275-0.613,0.487-0.851c0.212-0.238,0.47-0.423,0.774-0.554
		c0.304-0.132,0.649-0.198,1.035-0.198c0.369,0,0.7,0.058,0.992,0.172c0.292,0.115,0.54,0.282,0.744,0.503
		c0.203,0.221,0.359,0.495,0.466,0.823C126.932,119.869,126.986,120.245,126.986,120.668z M126.073,120.709
		c0-0.317-0.035-0.595-0.105-0.833c-0.07-0.237-0.17-0.436-0.3-0.595c-0.13-0.158-0.288-0.278-0.474-0.358
		c-0.186-0.08-0.394-0.12-0.623-0.12c-0.267,0-0.495,0.052-0.685,0.156c-0.19,0.104-0.345,0.243-0.467,0.418
		c-0.121,0.174-0.21,0.376-0.267,0.607c-0.056,0.23-0.084,0.473-0.084,0.725c0,0.318,0.035,0.597,0.105,0.836
		c0.07,0.239,0.17,0.438,0.3,0.598s0.287,0.278,0.472,0.358c0.185,0.081,0.393,0.121,0.626,0.121c0.267,0,0.495-0.053,0.684-0.156
		c0.19-0.104,0.345-0.244,0.467-0.418c0.121-0.175,0.21-0.377,0.267-0.607C126.045,121.209,126.073,120.966,126.073,120.709z"/>
	<path d="M128.278,118.136h0.795l0.036,0.831c0.15-0.178,0.295-0.326,0.436-0.444c0.14-0.117,0.277-0.212,0.413-0.284
		c0.135-0.072,0.272-0.122,0.413-0.151s0.285-0.044,0.436-0.044c0.53,0,0.931,0.157,1.203,0.47c0.271,0.313,0.408,0.783,0.408,1.412
		v3.358h-0.893v-3.286c0-0.403-0.075-0.702-0.226-0.895c-0.15-0.193-0.374-0.29-0.671-0.29c-0.109,0-0.216,0.017-0.32,0.049
		c-0.104,0.032-0.213,0.089-0.326,0.169s-0.235,0.189-0.367,0.325c-0.131,0.138-0.279,0.309-0.443,0.514v3.414h-0.892V118.136z"/>
	<path d="M138.198,123.211c-0.202,0.052-0.41,0.089-0.625,0.11c-0.216,0.022-0.435,0.034-0.656,0.034
		c-0.646,0-1.128-0.146-1.446-0.438c-0.317-0.293-0.477-0.741-0.477-1.347v-2.686h-1.44v-0.749h1.44v-1.415l0.892-0.23v1.646h2.312
		v0.749h-2.312v2.614c0,0.369,0.098,0.646,0.295,0.828c0.196,0.183,0.486,0.274,0.869,0.274c0.164,0,0.344-0.013,0.539-0.039
		c0.195-0.025,0.398-0.065,0.61-0.12V123.211z"/>
	<path d="M143.13,123.283l-0.021-0.692c-0.28,0.277-0.564,0.478-0.854,0.601c-0.289,0.123-0.592,0.184-0.91,0.184
		c-0.294,0-0.545-0.037-0.753-0.112s-0.38-0.179-0.515-0.311c-0.135-0.131-0.234-0.286-0.297-0.464
		c-0.063-0.178-0.095-0.37-0.095-0.579c0-0.516,0.192-0.92,0.577-1.213c0.384-0.292,0.953-0.438,1.705-0.438h1.066v-0.451
		c0-0.304-0.097-0.547-0.292-0.73c-0.194-0.183-0.492-0.273-0.892-0.273c-0.291,0-0.577,0.032-0.859,0.097
		c-0.282,0.065-0.574,0.157-0.875,0.277v-0.806c0.113-0.041,0.239-0.081,0.377-0.12c0.139-0.039,0.285-0.074,0.438-0.104
		c0.154-0.031,0.314-0.056,0.482-0.075c0.167-0.019,0.336-0.028,0.507-0.028c0.311,0,0.591,0.035,0.841,0.104
		s0.461,0.172,0.633,0.313c0.173,0.14,0.305,0.316,0.397,0.527c0.092,0.213,0.138,0.462,0.138,0.749v3.548H143.13z M143.033,120.94
		H141.9c-0.222,0-0.414,0.022-0.574,0.066c-0.161,0.045-0.292,0.107-0.395,0.189s-0.179,0.181-0.228,0.295
		c-0.05,0.114-0.075,0.243-0.075,0.388c0,0.099,0.016,0.193,0.046,0.284s0.08,0.171,0.149,0.241
		c0.068,0.069,0.157,0.125,0.267,0.166c0.109,0.041,0.242,0.062,0.399,0.062c0.205,0,0.44-0.063,0.705-0.187
		c0.265-0.125,0.544-0.322,0.838-0.593V120.94z"/>
	<path d="M147.35,118.874h-1.523v-0.738h2.425v4.404h1.533v0.743h-4.127v-0.743h1.692V118.874z M147.663,115.978
		c0.099,0,0.191,0.018,0.276,0.054s0.16,0.086,0.223,0.151c0.063,0.064,0.113,0.139,0.149,0.223
		c0.036,0.084,0.054,0.176,0.054,0.274c0,0.096-0.018,0.187-0.054,0.271c-0.036,0.086-0.085,0.161-0.149,0.226
		c-0.063,0.065-0.138,0.115-0.223,0.151s-0.178,0.054-0.276,0.054c-0.1,0-0.192-0.018-0.277-0.054s-0.16-0.086-0.223-0.151
		c-0.063-0.064-0.113-0.14-0.149-0.226c-0.036-0.085-0.054-0.176-0.054-0.271c0-0.099,0.018-0.19,0.054-0.274
		c0.036-0.084,0.085-0.158,0.149-0.223c0.063-0.065,0.137-0.115,0.223-0.151S147.563,115.978,147.663,115.978z"/>
	<path d="M151.37,118.136h0.795l0.036,0.831c0.15-0.178,0.295-0.326,0.436-0.444c0.14-0.117,0.277-0.212,0.413-0.284
		c0.135-0.072,0.272-0.122,0.413-0.151s0.285-0.044,0.436-0.044c0.53,0,0.931,0.157,1.203,0.47c0.271,0.313,0.408,0.783,0.408,1.412
		v3.358h-0.893v-3.286c0-0.403-0.075-0.702-0.226-0.895c-0.15-0.193-0.374-0.29-0.671-0.29c-0.109,0-0.216,0.017-0.32,0.049
		c-0.104,0.032-0.213,0.089-0.326,0.169s-0.235,0.189-0.367,0.325c-0.131,0.138-0.279,0.309-0.443,0.514v3.414h-0.892V118.136z"/>
	<path d="M161.219,121.879c0,0.181-0.031,0.343-0.093,0.486s-0.145,0.271-0.251,0.382c-0.106,0.111-0.229,0.206-0.369,0.285
		c-0.14,0.078-0.29,0.144-0.449,0.194c-0.159,0.052-0.322,0.089-0.49,0.113c-0.167,0.023-0.332,0.035-0.492,0.035
		c-0.349,0-0.669-0.015-0.961-0.046c-0.292-0.03-0.579-0.08-0.859-0.148v-0.82c0.301,0.086,0.6,0.15,0.897,0.194
		c0.298,0.045,0.593,0.067,0.887,0.067c0.427,0,0.744-0.059,0.949-0.175s0.308-0.281,0.308-0.497c0-0.093-0.017-0.175-0.049-0.249
		c-0.033-0.073-0.092-0.144-0.177-0.21c-0.086-0.066-0.218-0.136-0.397-0.208c-0.18-0.071-0.425-0.153-0.736-0.246
		c-0.232-0.067-0.447-0.146-0.644-0.232c-0.196-0.088-0.367-0.19-0.51-0.311c-0.144-0.119-0.256-0.26-0.338-0.42
		c-0.082-0.161-0.123-0.351-0.123-0.569c0-0.144,0.033-0.301,0.1-0.472c0.067-0.171,0.18-0.33,0.341-0.477
		c0.161-0.147,0.378-0.27,0.651-0.367s0.615-0.146,1.025-0.146c0.202,0,0.426,0.012,0.672,0.034
		c0.246,0.021,0.502,0.061,0.769,0.115v0.794c-0.28-0.067-0.546-0.118-0.797-0.15c-0.251-0.033-0.469-0.049-0.654-0.049
		c-0.222,0-0.409,0.017-0.562,0.051c-0.152,0.034-0.275,0.081-0.369,0.142c-0.094,0.06-0.162,0.13-0.203,0.21
		s-0.062,0.166-0.062,0.259s0.018,0.176,0.054,0.251c0.036,0.075,0.103,0.148,0.2,0.218c0.098,0.07,0.233,0.141,0.408,0.211
		c0.174,0.069,0.401,0.146,0.682,0.228c0.304,0.089,0.56,0.183,0.769,0.279c0.208,0.098,0.378,0.206,0.508,0.326
		c0.13,0.119,0.223,0.255,0.279,0.404C161.19,121.517,161.219,121.688,161.219,121.879z"/>
	<path d="M166.935,123.283h-3.81v-6.701h3.81v0.77h-2.896v2.076h2.784v0.77h-2.784v2.307h2.896V123.283z"/>
	<path d="M170.442,116.771h-1.523v-0.732h2.425v6.501h1.533v0.743h-4.127v-0.743h1.692V116.771z"/>
	<path d="M178.809,120.438c0,0.127-0.002,0.232-0.005,0.318c-0.004,0.085-0.009,0.166-0.016,0.24h-3.614
		c0,0.527,0.146,0.931,0.44,1.213s0.718,0.423,1.271,0.423c0.15,0,0.301-0.006,0.451-0.018s0.296-0.028,0.437-0.049
		c0.14-0.021,0.273-0.044,0.402-0.069c0.128-0.025,0.246-0.054,0.355-0.084v0.732c-0.242,0.068-0.517,0.124-0.822,0.167
		c-0.307,0.043-0.623,0.063-0.951,0.063c-0.441,0-0.82-0.06-1.139-0.179c-0.317-0.12-0.578-0.293-0.781-0.521
		s-0.354-0.506-0.451-0.836s-0.146-0.703-0.146-1.12c0-0.362,0.053-0.705,0.156-1.028c0.104-0.322,0.257-0.606,0.457-0.851
		c0.199-0.244,0.445-0.438,0.735-0.582s0.62-0.216,0.989-0.216c0.359,0,0.677,0.057,0.954,0.17c0.276,0.112,0.51,0.272,0.7,0.479
		c0.189,0.206,0.332,0.458,0.43,0.753C178.76,119.741,178.809,120.072,178.809,120.438z M177.881,120.31
		c0.01-0.229-0.012-0.438-0.066-0.628s-0.14-0.353-0.254-0.49c-0.115-0.136-0.258-0.243-0.429-0.32
		c-0.171-0.076-0.369-0.115-0.595-0.115c-0.194,0-0.373,0.038-0.533,0.113s-0.299,0.181-0.415,0.317s-0.21,0.301-0.282,0.492
		c-0.071,0.191-0.116,0.402-0.133,0.631H177.881z"/>
	<path d="M183.905,123.283v-3.696c0-0.161-0.006-0.292-0.018-0.396c-0.012-0.102-0.031-0.184-0.057-0.243s-0.058-0.102-0.098-0.126
		c-0.039-0.023-0.088-0.035-0.146-0.035c-0.068,0-0.132,0.021-0.19,0.062c-0.058,0.041-0.119,0.107-0.187,0.2
		c-0.066,0.092-0.14,0.214-0.22,0.366c-0.081,0.152-0.176,0.339-0.285,0.562v3.307h-0.814v-3.6c0-0.188-0.007-0.34-0.019-0.456
		c-0.013-0.116-0.03-0.206-0.057-0.271c-0.025-0.064-0.06-0.109-0.101-0.134c-0.041-0.023-0.09-0.035-0.148-0.035
		c-0.061,0-0.119,0.017-0.174,0.051s-0.115,0.096-0.182,0.185s-0.141,0.21-0.223,0.364s-0.18,0.351-0.293,0.59v3.307h-0.82v-5.147
		h0.682l0.041,0.979c0.089-0.195,0.176-0.36,0.26-0.498c0.083-0.136,0.17-0.246,0.258-0.33c0.09-0.084,0.184-0.146,0.285-0.185
		c0.101-0.039,0.213-0.06,0.336-0.06c0.277,0,0.486,0.091,0.631,0.272c0.143,0.181,0.215,0.461,0.215,0.841
		c0.082-0.178,0.162-0.336,0.24-0.475c0.079-0.139,0.164-0.255,0.254-0.349c0.092-0.094,0.191-0.166,0.301-0.215
		c0.109-0.05,0.236-0.075,0.379-0.075c0.646,0,0.969,0.498,0.969,1.492v3.748H183.905z"/>
	<path d="M190.355,120.438c0,0.127-0.002,0.232-0.005,0.318c-0.004,0.085-0.009,0.166-0.016,0.24h-3.614
		c0,0.527,0.146,0.931,0.44,1.213s0.718,0.423,1.271,0.423c0.15,0,0.301-0.006,0.451-0.018s0.296-0.028,0.436-0.049
		c0.141-0.021,0.275-0.044,0.402-0.069c0.129-0.025,0.248-0.054,0.357-0.084v0.732c-0.243,0.068-0.518,0.124-0.823,0.167
		s-0.623,0.063-0.951,0.063c-0.44,0-0.82-0.06-1.138-0.179c-0.318-0.12-0.579-0.293-0.782-0.521
		c-0.204-0.228-0.354-0.506-0.451-0.836c-0.098-0.33-0.146-0.703-0.146-1.12c0-0.362,0.052-0.705,0.157-1.028
		c0.104-0.322,0.256-0.606,0.455-0.851c0.201-0.244,0.445-0.438,0.736-0.582s0.62-0.216,0.989-0.216c0.359,0,0.677,0.057,0.954,0.17
		c0.276,0.112,0.51,0.272,0.699,0.479c0.189,0.206,0.334,0.458,0.432,0.753C190.306,119.741,190.355,120.072,190.355,120.438z
		 M189.427,120.31c0.01-0.229-0.013-0.438-0.067-0.628s-0.139-0.353-0.254-0.49c-0.113-0.136-0.257-0.243-0.428-0.32
		c-0.171-0.076-0.369-0.115-0.595-0.115c-0.194,0-0.372,0.038-0.533,0.113s-0.299,0.181-0.415,0.317s-0.21,0.301-0.282,0.492
		c-0.071,0.191-0.116,0.402-0.133,0.631H189.427z"/>
	<path d="M191.78,118.136h0.795l0.036,0.831c0.15-0.178,0.296-0.326,0.437-0.444c0.139-0.117,0.277-0.212,0.412-0.284
		s0.272-0.122,0.412-0.151c0.141-0.029,0.285-0.044,0.436-0.044c0.53,0,0.932,0.157,1.203,0.47s0.408,0.783,0.408,1.412v3.358
		h-0.893v-3.286c0-0.403-0.076-0.702-0.227-0.895c-0.15-0.193-0.373-0.29-0.671-0.29c-0.109,0-0.216,0.017-0.32,0.049
		s-0.213,0.089-0.325,0.169c-0.113,0.08-0.235,0.189-0.367,0.325c-0.131,0.138-0.279,0.309-0.443,0.514v3.414h-0.893V118.136z"/>
	<path d="M201.701,123.211c-0.202,0.052-0.41,0.089-0.625,0.11c-0.216,0.022-0.435,0.034-0.656,0.034
		c-0.646,0-1.128-0.146-1.446-0.438c-0.317-0.293-0.477-0.741-0.477-1.347v-2.686h-1.44v-0.749h1.44v-1.415l0.893-0.23v1.646h2.312
		v0.749h-2.312v2.614c0,0.369,0.098,0.646,0.295,0.828c0.195,0.183,0.485,0.274,0.868,0.274c0.164,0,0.344-0.013,0.538-0.039
		c0.195-0.025,0.398-0.065,0.61-0.12V123.211z"/>
</g>
<g enable-background="new    ">
	<path d="M5.168,33.786c0,0.127-0.002,0.232-0.005,0.318c-0.004,0.085-0.009,0.166-0.016,0.24H1.533c0,0.527,0.146,0.931,0.44,1.213
		s0.718,0.423,1.271,0.423c0.15,0,0.301-0.006,0.451-0.018s0.296-0.028,0.436-0.049s0.274-0.044,0.402-0.069
		c0.128-0.025,0.247-0.054,0.356-0.084v0.732c-0.243,0.068-0.517,0.124-0.823,0.167c-0.306,0.043-0.623,0.063-0.951,0.063
		c-0.441,0-0.82-0.06-1.138-0.179c-0.318-0.12-0.579-0.293-0.782-0.521c-0.204-0.228-0.354-0.506-0.451-0.836
		c-0.098-0.33-0.146-0.703-0.146-1.12c0-0.362,0.052-0.705,0.157-1.028c0.104-0.322,0.256-0.606,0.456-0.851
		c0.2-0.244,0.445-0.438,0.736-0.582s0.62-0.216,0.989-0.216c0.359,0,0.677,0.057,0.954,0.17c0.276,0.112,0.51,0.272,0.7,0.479
		c0.189,0.206,0.333,0.458,0.431,0.753C5.119,33.09,5.168,33.421,5.168,33.786z M4.24,33.658c0.01-0.229-0.012-0.438-0.067-0.628
		s-0.139-0.353-0.254-0.49c-0.114-0.136-0.257-0.243-0.428-0.32c-0.171-0.076-0.369-0.115-0.595-0.115
		c-0.194,0-0.373,0.038-0.533,0.113s-0.299,0.181-0.415,0.317s-0.21,0.301-0.282,0.492c-0.071,0.191-0.116,0.402-0.133,0.631H4.24z"
		/>
	<path d="M11.233,36.632h-1.184L8.66,34.668l-1.374,1.964H6.132l1.995-2.584l-1.902-2.563h1.144l1.354,1.979l1.328-1.979h1.102
		l-1.933,2.584L11.233,36.632z"/>
	<path d="M14.433,31.392c0.105,0,0.207,0.021,0.302,0.064s0.179,0.1,0.251,0.172c0.071,0.072,0.129,0.155,0.171,0.251
		c0.043,0.096,0.064,0.197,0.064,0.303c0,0.109-0.021,0.211-0.064,0.305c-0.042,0.095-0.1,0.177-0.171,0.249
		c-0.072,0.072-0.156,0.128-0.251,0.169s-0.197,0.062-0.302,0.062c-0.11,0-0.211-0.021-0.305-0.062
		c-0.094-0.041-0.177-0.097-0.249-0.169c-0.072-0.072-0.128-0.154-0.169-0.249c-0.041-0.094-0.062-0.195-0.062-0.305
		c0-0.105,0.021-0.207,0.062-0.303s0.097-0.179,0.169-0.251c0.071-0.072,0.154-0.129,0.249-0.172
		C14.221,31.413,14.323,31.392,14.433,31.392z M14.433,35.15c0.105,0,0.207,0.021,0.302,0.063c0.096,0.043,0.179,0.101,0.251,0.172
		c0.071,0.072,0.129,0.156,0.171,0.252c0.043,0.096,0.064,0.196,0.064,0.302c0,0.109-0.021,0.211-0.064,0.306
		c-0.042,0.094-0.1,0.177-0.171,0.248c-0.072,0.072-0.156,0.129-0.251,0.17s-0.197,0.061-0.302,0.061
		c-0.11,0-0.211-0.02-0.305-0.061c-0.094-0.041-0.177-0.098-0.249-0.17c-0.072-0.071-0.128-0.154-0.169-0.248
		c-0.041-0.095-0.062-0.196-0.062-0.306c0-0.105,0.021-0.206,0.062-0.302s0.097-0.18,0.169-0.252
		c0.071-0.071,0.154-0.129,0.249-0.172C14.221,35.172,14.323,35.15,14.433,35.15z"/>
	<path d="M22.907,31.484l-0.749,5.147h-1.082l-0.743-2.153l-0.148-0.522l-0.169,0.553l-0.712,2.123h-1.051l-0.744-5.147h0.872
		l0.431,3.497l0.092,0.779l0.221-0.683l0.749-2.312h0.641l0.805,2.281l0.23,0.682l0.077-0.723l0.4-3.522H22.907z"/>
	<path d="M28.26,33.786c0,0.127-0.002,0.232-0.005,0.318c-0.004,0.085-0.009,0.166-0.016,0.24h-3.614
		c0,0.527,0.146,0.931,0.44,1.213s0.718,0.423,1.271,0.423c0.15,0,0.301-0.006,0.451-0.018s0.296-0.028,0.436-0.049
		s0.274-0.044,0.402-0.069c0.128-0.025,0.247-0.054,0.356-0.084v0.732c-0.243,0.068-0.517,0.124-0.823,0.167
		c-0.306,0.043-0.623,0.063-0.951,0.063c-0.441,0-0.82-0.06-1.138-0.179c-0.318-0.12-0.579-0.293-0.782-0.521
		c-0.204-0.228-0.354-0.506-0.451-0.836c-0.098-0.33-0.146-0.703-0.146-1.12c0-0.362,0.052-0.705,0.157-1.028
		c0.104-0.322,0.256-0.606,0.456-0.851c0.2-0.244,0.445-0.438,0.736-0.582s0.62-0.216,0.989-0.216c0.359,0,0.677,0.057,0.954,0.17
		c0.276,0.112,0.51,0.272,0.7,0.479c0.189,0.206,0.333,0.458,0.431,0.753C28.211,33.09,28.26,33.421,28.26,33.786z M27.332,33.658
		c0.01-0.229-0.012-0.438-0.067-0.628s-0.139-0.353-0.254-0.49c-0.114-0.136-0.257-0.243-0.428-0.32
		c-0.171-0.076-0.369-0.115-0.595-0.115c-0.194,0-0.373,0.038-0.533,0.113s-0.299,0.181-0.415,0.317s-0.21,0.301-0.282,0.492
		c-0.071,0.191-0.116,0.402-0.133,0.631H27.332z"/>
	<path d="M31.438,32.223h-1.523v-0.738h2.425v4.404h1.533v0.743h-4.127v-0.743h1.692V32.223z M31.751,29.326
		c0.099,0,0.191,0.018,0.276,0.054s0.16,0.086,0.223,0.151c0.063,0.064,0.113,0.139,0.149,0.223
		c0.036,0.084,0.054,0.176,0.054,0.274c0,0.096-0.018,0.187-0.054,0.271c-0.036,0.086-0.085,0.161-0.149,0.226
		c-0.063,0.065-0.138,0.115-0.223,0.151s-0.178,0.054-0.276,0.054c-0.1,0-0.192-0.018-0.277-0.054s-0.16-0.086-0.223-0.151
		c-0.063-0.064-0.113-0.14-0.149-0.226c-0.036-0.085-0.054-0.176-0.054-0.271c0-0.099,0.018-0.19,0.054-0.274
		c0.036-0.084,0.085-0.158,0.149-0.223c0.063-0.065,0.137-0.115,0.223-0.151S31.652,29.326,31.751,29.326z"/>
	<path d="M39.165,32.212c0.095,0.12,0.17,0.26,0.223,0.418c0.053,0.159,0.08,0.331,0.08,0.516c0,0.267-0.049,0.51-0.146,0.73
		c-0.098,0.221-0.235,0.409-0.413,0.566s-0.39,0.279-0.638,0.367c-0.248,0.087-0.52,0.131-0.818,0.131
		c-0.215,0-0.417-0.023-0.604-0.069c-0.188-0.047-0.337-0.104-0.446-0.172c-0.065,0.096-0.12,0.187-0.164,0.271
		c-0.044,0.086-0.066,0.182-0.066,0.287c0,0.13,0.062,0.237,0.187,0.323c0.125,0.085,0.29,0.132,0.495,0.139l1.354,0.051
		c0.256,0.007,0.493,0.039,0.71,0.098c0.217,0.058,0.403,0.142,0.559,0.251c0.155,0.109,0.277,0.244,0.364,0.405
		c0.087,0.16,0.131,0.347,0.131,0.559c0,0.229-0.05,0.446-0.148,0.651c-0.1,0.205-0.252,0.385-0.459,0.541
		c-0.207,0.155-0.469,0.279-0.787,0.371c-0.318,0.093-0.696,0.139-1.133,0.139c-0.417,0-0.772-0.033-1.064-0.1
		c-0.292-0.067-0.533-0.159-0.72-0.277c-0.188-0.118-0.325-0.258-0.41-0.42c-0.086-0.163-0.128-0.341-0.128-0.536
		c0-0.25,0.058-0.469,0.174-0.656s0.295-0.369,0.538-0.543c-0.089-0.041-0.166-0.093-0.23-0.154s-0.118-0.129-0.159-0.202
		c-0.041-0.074-0.071-0.151-0.092-0.233s-0.031-0.162-0.031-0.241c0-0.222,0.052-0.426,0.157-0.61
		c0.104-0.185,0.228-0.358,0.372-0.522c-0.065-0.079-0.122-0.155-0.172-0.231c-0.049-0.074-0.092-0.156-0.128-0.243
		c-0.036-0.087-0.063-0.181-0.082-0.282c-0.019-0.101-0.028-0.216-0.028-0.346c0-0.267,0.049-0.51,0.146-0.73
		c0.098-0.221,0.234-0.409,0.41-0.566c0.176-0.157,0.388-0.279,0.636-0.367c0.248-0.087,0.522-0.131,0.823-0.131
		c0.126,0,0.248,0.009,0.364,0.026c0.116,0.017,0.219,0.039,0.308,0.066h1.866v0.728H39.165z M36.068,37.375
		c0,0.243,0.126,0.42,0.379,0.531c0.253,0.11,0.605,0.166,1.057,0.166c0.283,0,0.522-0.025,0.715-0.077
		c0.193-0.051,0.349-0.118,0.467-0.202c0.118-0.084,0.202-0.18,0.254-0.287c0.051-0.107,0.077-0.218,0.077-0.331
		c0-0.208-0.085-0.362-0.256-0.461s-0.433-0.157-0.784-0.174l-1.344-0.047c-0.112,0.075-0.206,0.148-0.279,0.221
		c-0.073,0.072-0.131,0.145-0.172,0.218s-0.07,0.147-0.087,0.221S36.068,37.3,36.068,37.375z M36.34,33.166
		c0,0.164,0.027,0.314,0.082,0.451s0.131,0.253,0.23,0.349s0.216,0.17,0.352,0.223c0.135,0.054,0.284,0.08,0.448,0.08
		c0.178,0,0.336-0.03,0.475-0.09c0.138-0.06,0.254-0.141,0.349-0.244c0.094-0.102,0.166-0.22,0.215-0.354
		c0.049-0.133,0.074-0.271,0.074-0.415c0-0.164-0.027-0.314-0.082-0.451s-0.132-0.253-0.231-0.349s-0.216-0.17-0.351-0.223
		c-0.135-0.054-0.285-0.08-0.449-0.08c-0.178,0-0.335,0.031-0.474,0.093c-0.138,0.062-0.254,0.143-0.349,0.243
		c-0.094,0.101-0.166,0.218-0.215,0.352C36.365,32.884,36.34,33.022,36.34,33.166z"/>
	<path d="M45.369,36.632h-0.893v-3.286c0-0.396-0.074-0.693-0.223-0.89c-0.149-0.196-0.361-0.295-0.639-0.295
		c-0.12,0-0.231,0.017-0.335,0.049c-0.104,0.032-0.213,0.089-0.326,0.169s-0.236,0.189-0.369,0.325
		c-0.133,0.138-0.287,0.309-0.461,0.514v3.414h-0.892v-7.244h0.892v2.097l-0.031,0.81c0.14-0.167,0.278-0.308,0.413-0.423
		c0.135-0.114,0.27-0.207,0.405-0.279c0.135-0.071,0.272-0.123,0.413-0.153c0.14-0.031,0.285-0.047,0.436-0.047
		c0.513,0,0.909,0.157,1.189,0.47s0.421,0.783,0.421,1.412V36.632z"/>
	<path d="M51.151,36.56c-0.202,0.052-0.41,0.089-0.625,0.11c-0.216,0.022-0.435,0.034-0.656,0.034c-0.646,0-1.128-0.146-1.446-0.438
		c-0.317-0.293-0.477-0.741-0.477-1.347v-2.686h-1.44v-0.749h1.44v-1.415l0.892-0.23v1.646h2.312v0.749h-2.312v2.614
		c0,0.369,0.098,0.646,0.295,0.828c0.196,0.183,0.486,0.274,0.869,0.274c0.164,0,0.344-0.013,0.539-0.039
		c0.195-0.025,0.398-0.065,0.61-0.12V36.56z"/>
	<path d="M55.263,38.733h-0.841v-10.5h0.841V38.733z"/>
	<path d="M62.897,36.632h-4.414v-0.8l1.732-1.723c0.284-0.28,0.515-0.522,0.692-0.728s0.316-0.393,0.415-0.562
		c0.099-0.17,0.166-0.329,0.2-0.479s0.051-0.313,0.051-0.487c0-0.164-0.022-0.32-0.067-0.469c-0.044-0.149-0.112-0.28-0.205-0.393
		c-0.092-0.112-0.212-0.201-0.358-0.267c-0.147-0.064-0.323-0.098-0.528-0.098c-0.284,0-0.542,0.063-0.774,0.189
		c-0.232,0.127-0.446,0.291-0.641,0.492l-0.492-0.589c0.253-0.267,0.544-0.48,0.874-0.642c0.33-0.16,0.713-0.24,1.151-0.24
		c0.297,0,0.568,0.044,0.813,0.133c0.244,0.089,0.455,0.218,0.633,0.385c0.178,0.168,0.315,0.373,0.413,0.615
		c0.097,0.243,0.146,0.517,0.146,0.82c0,0.256-0.034,0.494-0.103,0.713s-0.172,0.437-0.31,0.653
		c-0.139,0.217-0.313,0.442-0.523,0.675c-0.21,0.232-0.459,0.486-0.746,0.764l-1.215,1.184h3.256V36.632z"/>
	<path d="M68.824,33.284c0,0.513-0.051,0.979-0.154,1.402c-0.103,0.422-0.258,0.784-0.467,1.087
		c-0.208,0.302-0.467,0.536-0.776,0.702c-0.31,0.166-0.673,0.248-1.09,0.248c-0.358,0-0.685-0.067-0.979-0.202
		s-0.545-0.343-0.753-0.623c-0.209-0.28-0.369-0.637-0.482-1.071c-0.112-0.434-0.169-0.948-0.169-1.543
		c0-0.513,0.052-0.981,0.156-1.405c0.104-0.424,0.26-0.787,0.467-1.089c0.207-0.303,0.465-0.537,0.776-0.703
		c0.311-0.165,0.673-0.248,1.087-0.248c0.359,0,0.686,0.067,0.979,0.202s0.545,0.344,0.754,0.626
		c0.208,0.281,0.369,0.64,0.481,1.074C68.768,32.175,68.824,32.689,68.824,33.284z M64.856,33.253c0,0.106,0.001,0.212,0.002,0.318
		c0.002,0.105,0.008,0.208,0.018,0.308l2.835-2.097c-0.051-0.175-0.116-0.334-0.194-0.478c-0.079-0.144-0.173-0.268-0.282-0.371
		c-0.109-0.104-0.234-0.186-0.374-0.244c-0.141-0.058-0.298-0.087-0.472-0.087c-0.233,0-0.444,0.057-0.633,0.169
		c-0.19,0.113-0.351,0.281-0.485,0.505c-0.133,0.225-0.235,0.501-0.308,0.831C64.892,32.438,64.856,32.819,64.856,33.253z
		 M67.922,33.314c0-0.116-0.004-0.231-0.013-0.346c-0.009-0.114-0.018-0.227-0.028-0.336l-2.835,2.107
		c0.052,0.178,0.116,0.342,0.195,0.492c0.078,0.15,0.173,0.279,0.284,0.387c0.111,0.107,0.238,0.191,0.379,0.251
		c0.142,0.061,0.303,0.09,0.485,0.09c0.232,0,0.443-0.057,0.633-0.169c0.19-0.112,0.352-0.28,0.484-0.503
		c0.134-0.222,0.236-0.498,0.308-0.827C67.886,34.131,67.922,33.749,67.922,33.314z"/>
</g>
</svg>
