<?xml version="1.0" encoding="utf-8"?>
<!-- Generator: Adobe Illustrator 16.0.0, SVG Export Plug-In . SVG Version: 6.00 Build 0)  -->
<!DOCTYPE svg PUBLIC "-//W3C//DTD SVG 1.1//EN" "http://www.w3.org/Graphics/SVG/1.1/DTD/svg11.dtd">
<svg version="1.1" id="Layer_1" xmlns="http://www.w3.org/2000/svg" xmlns:xlink="http://www.w3.org/1999/xlink" x="0px" y="0px"
	 width="503.658px" height="269.393px" viewBox="-5.501 0 503.658 269.393" enable-background="new -5.501 0 503.658 269.393"
	 xml:space="preserve">
<rect x="-5.501" y="31.088" fill="#F8E1D3" width="503.658" height="76.501"/>
<rect x="-5.501" y="0" fill="#465756" width="503.658" height="31.088"/>
<rect x="-5.501" y="107.588" fill="#A8B9B8" width="503.658" height="50.588"/>
<rect x="-5.501" y="158.176" fill="#E9EFE5" width="503.658" height="58.258"/>
<rect x="-5.501" y="216.433" fill="#D2D2D2" width="503.658" height="52.959"/>
<text transform="matrix(1 0 0 1 69.9917 16.8796)" enable-background="new    "><tspan x="0" y="0" fill="#FFFFFF" font-family="'GeosansLight'" font-size="12">Geom</tspan><tspan x="29.436" y="0" fill="#FFFFFF" font-family="'GeosansLight'" font-size="12">e</tspan><tspan x="34.751" y="0" fill="#FFFFFF" font-family="'GeosansLight'" font-size="12">try</tspan></text>
<text transform="matrix(1 0 0 1 9.765625e-004 50.2263)" enable-background="new    "><tspan x="0" y="0" font-family="'GeosansLight-Oblique'" font-size="12">R</tspan><tspan x="5.556" y="0" font-family="'GeosansLight-Oblique'" font-size="12">u</tspan><tspan x="10.104" y="0" font-family="'GeosansLight-Oblique'" font-size="12">le 1</tspan></text>
<text transform="matrix(1 0 0 1 9.765625e-004 50.2263)" enable-background="new    "><tspan x="0" y="0" fill="none" stroke="#000000" stroke-width="0.1" stroke-miterlimit="10" font-family="'GeosansLight-Oblique'" font-size="12">R</tspan><tspan x="5.556" y="0" fill="none" stroke="#000000" stroke-width="0.1" stroke-miterlimit="10" font-family="'GeosansLight-Oblique'" font-size="12">u</tspan><tspan x="10.104" y="0" fill="none" stroke="#000000" stroke-width="0.1" stroke-miterlimit="10" font-family="'GeosansLight-Oblique'" font-size="12">le 1</tspan></text>
<text transform="matrix(1 0 0 1 9.765625e-004 73.5535)" enable-background="new    "><tspan x="0" y="0" font-family="'GeosansLight'" font-size="12">F</tspan><tspan x="4.92" y="0" font-family="'GeosansLight'" font-size="12">unction</tspan></text>
<text transform="matrix(1 0 0 1 9.765625e-004 96.8806)" enable-background="new    "><tspan x="0" y="0" font-family="'GeosansLight'" font-size="12">R</tspan><tspan x="5.388" y="0" font-family="'GeosansLight'" font-size="12">eq</tspan><tspan x="17.292" y="0" font-family="'GeosansLight'" font-size="12">u</tspan><tspan x="21.888" y="0" font-family="'GeosansLight'" font-size="12">i</tspan><tspan x="23.52" y="0" font-family="'GeosansLight'" font-size="12">r</tspan><tspan x="26.532" y="0" font-family="'GeosansLight'" font-size="12">ement</tspan></text>
<text transform="matrix(1 0 0 1 69.9917 49.0056)" enable-background="new    "><tspan x="0" y="0" font-family="'GeosansLight'" font-size="8">A </tspan><tspan x="7.104" y="0" font-family="'GeosansLight'" font-size="8">w</tspan><tspan x="12.208" y="0" font-family="'GeosansLight'" font-size="8">a</tspan><tspan x="16.288" y="0" font-family="'GeosansLight'" font-size="8">l</tspan><tspan x="17.312" y="0" font-family="'GeosansLight'" font-size="8">l </tspan><tspan x="20.888" y="0" font-family="'GeosansLight'" font-size="8">c</tspan><tspan x="23.896" y="0" font-family="'GeosansLight'" font-size="8">a</tspan><tspan x="27.976" y="0" font-family="'GeosansLight'" font-size="8">n</tspan><tspan x="31.224" y="0" font-family="'GeosansLight'" font-size="8">not be </tspan><tspan x="52.951" y="0" font-family="'GeosansLight'" font-size="8">t</tspan><tspan x="54.567" y="0" font-family="'GeosansLight'" font-size="8">o</tspan><tspan x="58.895" y="0" font-family="'GeosansLight'" font-size="8">o </tspan><tspan x="64.919" y="0" font-family="'GeosansLight'" font-size="8">h</tspan><tspan x="68.119" y="0" font-family="'GeosansLight'" font-size="8">igh</tspan></text>
<text transform="matrix(1 0 0 1 182.4966 116.5056)" enable-background="new    "><tspan x="0" y="0" font-family="'GeosansLight'" font-size="8">If the</tspan><tspan x="15.312" y="0" font-family="'GeosansLight'" font-size="8">r</tspan><tspan x="17.32" y="0" font-family="'GeosansLight'" font-size="8">e a</tspan><tspan x="27.359" y="0" font-family="'GeosansLight'" font-size="8">r</tspan><tspan x="29.368" y="0" font-family="'GeosansLight'" font-size="8">e </tspan><tspan x="35.327" y="0" font-family="'GeosansLight'" font-size="8">w</tspan><tspan x="40.432" y="0" font-family="'GeosansLight'" font-size="8">a</tspan><tspan x="44.511" y="0" font-family="'GeosansLight'" font-size="8">l</tspan><tspan x="45.535" y="0" font-family="'GeosansLight'" font-size="8">l mounted </tspan></text>
<text transform="matrix(1 0 0 1 182.4966 126.1052)" enable-background="new    "><tspan x="0" y="0" font-family="'GeosansLight'" font-size="8">elements then the </tspan><tspan x="55.559" y="0" font-family="'GeosansLight'" font-size="8">w</tspan><tspan x="60.663" y="0" font-family="'GeosansLight'" font-size="8">a</tspan><tspan x="64.743" y="0" font-family="'GeosansLight'" font-size="8">l</tspan><tspan x="65.766" y="0" font-family="'GeosansLight'" font-size="8">l n</tspan><tspan x="72.95" y="0" font-family="'GeosansLight'" font-size="8">e</tspan><tspan x="77.182" y="0" font-family="'GeosansLight'" font-size="8">eds </tspan></text>
<text transform="matrix(1 0 0 1 182.4966 135.7058)" enable-background="new    "><tspan x="0" y="0" font-family="'GeosansLight'" font-size="8">sur</tspan><tspan x="8.56" y="0" font-family="'GeosansLight'" font-size="8">f</tspan><tspan x="10.296" y="0" font-family="'GeosansLight'" font-size="8">a</tspan><tspan x="14.376" y="0" font-family="'GeosansLight'" font-size="8">c</tspan><tspan x="17.408" y="0" font-family="'GeosansLight'" font-size="8">e </tspan><tspan x="23.368" y="0" font-family="'GeosansLight'" font-size="8">r</tspan><tspan x="25.376" y="0" font-family="'GeosansLight'" font-size="8">e</tspan><tspan x="29.296" y="0" font-family="'GeosansLight'" font-size="8">i</tspan><tspan x="30.384" y="0" font-family="'GeosansLight'" font-size="8">nf</tspan><tspan x="35.28" y="0" font-family="'GeosansLight'" font-size="8">o</tspan><tspan x="39.264" y="0" font-family="'GeosansLight'" font-size="8">r</tspan><tspan x="41.512" y="0" font-family="'GeosansLight'" font-size="8">c</tspan><tspan x="44.543" y="0" font-family="'GeosansLight'" font-size="8">ement</tspan></text>
<text transform="matrix(1 0 0 1 298.624 168.0056)" enable-background="new    "><tspan x="0" y="0" font-family="'GeosansLight'" font-size="8">If </tspan><tspan x="5.744" y="0" font-family="'GeosansLight'" font-size="8">r</tspan><tspan x="7.721" y="0" font-family="'GeosansLight'" font-size="8">o</tspan><tspan x="12.049" y="0" font-family="'GeosansLight'" font-size="8">om X is adja</tspan><tspan x="49.463" y="0" font-family="'GeosansLight'" font-size="8">c</tspan><tspan x="52.496" y="0" font-family="'GeosansLight'" font-size="8">ent </tspan><tspan x="64.063" y="0" font-family="'GeosansLight'" font-size="8">t</tspan><tspan x="65.68" y="0" font-family="'GeosansLight'" font-size="8">o </tspan><tspan x="71.703" y="0" font-family="'GeosansLight'" font-size="8">r</tspan><tspan x="73.68" y="0" font-family="'GeosansLight'" font-size="8">o</tspan><tspan x="78.008" y="0" font-family="'GeosansLight'" font-size="8">om</tspan></text>
<text transform="matrix(1 0 0 1 298.624 177.6062)" enable-background="new    "><tspan x="0" y="0" font-family="'GeosansLight'" font-size="8">Z and the</tspan><tspan x="29.936" y="0" font-family="'GeosansLight'" font-size="8">r</tspan><tspan x="31.943" y="0" font-family="'GeosansLight'" font-size="8">e is a di</tspan><tspan x="55.823" y="0" font-family="'GeosansLight'" font-size="8">f</tspan><tspan x="57.728" y="0" font-family="'GeosansLight'" font-size="8">f</tspan><tspan x="59.487" y="0" font-family="'GeosansLight'" font-size="8">e</tspan><tspan x="63.407" y="0" font-family="'GeosansLight'" font-size="8">r</tspan><tspan x="65.416" y="0" font-family="'GeosansLight'" font-size="8">en</tspan><tspan x="72.943" y="0" font-family="'GeosansLight'" font-size="8">c</tspan><tspan x="75.975" y="0" font-family="'GeosansLight'" font-size="8">e </tspan><tspan x="81.936" y="0" font-family="'GeosansLight'" font-size="8">i</tspan><tspan x="83.023" y="0" font-family="'GeosansLight'" font-size="8">n</tspan></text>
<text transform="matrix(1 0 0 1 298.624 187.2048)" enable-background="new    "><tspan x="0" y="0" font-family="'GeosansLight'" font-size="8">the a</tspan><tspan x="15.688" y="0" font-family="'GeosansLight'" font-size="8">c</tspan><tspan x="18.696" y="0" font-family="'GeosansLight'" font-size="8">oustic </tspan><tspan x="37.775" y="0" font-family="'GeosansLight'" font-size="8">r</tspan><tspan x="39.783" y="0" font-family="'GeosansLight'" font-size="8">eq</tspan><tspan x="47.72" y="0" font-family="'GeosansLight'" font-size="8">u</tspan><tspan x="50.783" y="0" font-family="'GeosansLight'" font-size="8">i</tspan><tspan x="51.871" y="0" font-family="'GeosansLight'" font-size="8">r</tspan><tspan x="53.879" y="0" font-family="'GeosansLight'" font-size="8">ements the</tspan></text>
<text transform="matrix(1 0 0 1 298.624 196.8054)" enable-background="new    "><tspan x="0" y="0" font-family="'GeosansLight'" font-size="8">w</tspan><tspan x="5.104" y="0" font-family="'GeosansLight'" font-size="8">a</tspan><tspan x="9.185" y="0" font-family="'GeosansLight'" font-size="8">l</tspan><tspan x="10.209" y="0" font-family="'GeosansLight'" font-size="8">l n</tspan><tspan x="17.393" y="0" font-family="'GeosansLight'" font-size="8">e</tspan><tspan x="21.624" y="0" font-family="'GeosansLight'" font-size="8">eds a</tspan><tspan x="38.479" y="0" font-family="'GeosansLight'" font-size="8">c</tspan><tspan x="41.488" y="0" font-family="'GeosansLight'" font-size="8">oustic </tspan><tspan x="60.566" y="0" font-family="'GeosansLight'" font-size="8">i</tspan><tspan x="61.654" y="0" font-family="'GeosansLight'" font-size="8">ns</tspan><tspan x="67.91" y="0" font-family="'GeosansLight'" font-size="8">u</tspan><tspan x="70.943" y="0" font-family="'GeosansLight'" font-size="8">lation</tspan></text>
<text transform="matrix(1 0 0 1 416.0322 227.5056)" enable-background="new    "><tspan x="0" y="0" font-family="'GeosansLight'" font-size="8">A </tspan><tspan x="7.104" y="0" font-family="'GeosansLight'" font-size="8">w</tspan><tspan x="12.209" y="0" font-family="'GeosansLight'" font-size="8">a</tspan><tspan x="16.289" y="0" font-family="'GeosansLight'" font-size="8">l</tspan><tspan x="17.313" y="0" font-family="'GeosansLight'" font-size="8">l must be st</tspan><tspan x="50.896" y="0" font-family="'GeosansLight'" font-size="8">r</tspan><tspan x="52.871" y="0" font-family="'GeosansLight'" font-size="8">onger if</tspan></text>
<text transform="matrix(1 0 0 1 416.0322 237.1062)" enable-background="new    "><tspan x="0" y="0" font-family="'GeosansLight'" font-size="8">it </tspan><tspan x="5.512" y="0" font-family="'GeosansLight'" font-size="8">c</tspan><tspan x="8.52" y="0" font-family="'GeosansLight'" font-size="8">arries a heavy d</tspan><tspan x="58.655" y="0" font-family="'GeosansLight'" font-size="8">o</tspan><tspan x="62.983" y="0" font-family="'GeosansLight'" font-size="8">or</tspan></text>
<text transform="matrix(1 0 0 1 416.0322 253.8435)" enable-background="new    "><tspan x="0" y="0" font-family="'GeosansLight'" font-size="8">D</tspan><tspan x="5.504" y="0" font-family="'GeosansLight'" font-size="8">o</tspan><tspan x="9.832" y="0" font-family="'GeosansLight'" font-size="8">o</tspan><tspan x="13.816" y="0" font-family="'GeosansLight'" font-size="8">r</tspan><tspan x="15.92" y="0" font-family="'GeosansLight'" font-size="8">s and w</tspan><tspan x="39.976" y="0" font-family="'GeosansLight'" font-size="8">i</tspan><tspan x="41.064" y="0" font-family="'GeosansLight'" font-size="8">nd</tspan><tspan x="48.84" y="0" font-family="'GeosansLight'" font-size="8">o</tspan><tspan x="52.399" y="0" font-family="'GeosansLight'" font-size="8">ws must</tspan></text>
<text transform="matrix(1 0 0 1 416.0322 263.4451)" enable-background="new    "><tspan x="0" y="0" font-family="'GeosansLight'" font-size="8">be mode</tspan><tspan x="27.313" y="0" font-family="'GeosansLight'" font-size="8">l</tspan><tspan x="28.336" y="0" font-family="'GeosansLight'" font-size="8">led</tspan></text>
<text transform="matrix(1 0 0 1 182.4966 154.5056)" enable-background="new    "><tspan x="0" y="0" font-family="'GeosansLight'" font-size="8">C</tspan><tspan x="5.264" y="0" font-family="'GeosansLight'" font-size="8">upboa</tspan><tspan x="25" y="0" font-family="'GeosansLight'" font-size="8">r</tspan><tspan x="27.256" y="0" font-family="'GeosansLight'" font-size="8">ds n</tspan><tspan x="39.719" y="0" font-family="'GeosansLight'" font-size="8">e</tspan><tspan x="43.951" y="0" font-family="'GeosansLight'" font-size="8">ed </tspan><tspan x="54.079" y="0" font-family="'GeosansLight'" font-size="8">t</tspan><tspan x="55.695" y="0" font-family="'GeosansLight'" font-size="8">o be mode</tspan><tspan x="89.03" y="0" font-family="'GeosansLight'" font-size="8">l</tspan><tspan x="90.054" y="0" font-family="'GeosansLight'" font-size="8">led</tspan></text>
<text transform="matrix(1 0 0 1 298.624 212.7644)" enable-background="new    "><tspan x="0" y="0" font-family="'GeosansLight'" font-size="8">R</tspan><tspan x="3.568" y="0" font-family="'GeosansLight'" font-size="8">o</tspan><tspan x="7.896" y="0" font-family="'GeosansLight'" font-size="8">om functions must be kn</tspan><tspan x="79.83" y="0" font-family="'GeosansLight'" font-size="8">o</tspan><tspan x="83.391" y="0" font-family="'GeosansLight'" font-size="8">wn</tspan></text>
<text transform="matrix(1 0 0 1 69.9917 72.3337)" enable-background="new    "><tspan x="0" y="0" font-family="'GeosansLight'" font-size="8">Heig</tspan><tspan x="14.392" y="0" font-family="'GeosansLight'" font-size="8">h</tspan><tspan x="17.656" y="0" font-family="'GeosansLight'" font-size="8">t </tspan><tspan x="21.696" y="0" font-family="'GeosansLight'" font-size="8">i</tspan><tspan x="22.784" y="0" font-family="'GeosansLight'" font-size="8">n </tspan><tspan x="28.432" y="0" font-family="'GeosansLight'" font-size="8">r</tspan><tspan x="30.439" y="0" font-family="'GeosansLight'" font-size="8">elation </tspan><tspan x="53.079" y="0" font-family="'GeosansLight'" font-size="8">t</tspan><tspan x="54.695" y="0" font-family="'GeosansLight'" font-size="8">o t</tspan><tspan x="62.719" y="0" font-family="'GeosansLight'" font-size="8">h</tspan><tspan x="65.919" y="0" font-family="'GeosansLight'" font-size="8">i</tspan><tspan x="67.391" y="0" font-family="'GeosansLight'" font-size="8">c</tspan><tspan x="70.398" y="0" font-family="'GeosansLight'" font-size="8">kness</tspan></text>
<text transform="matrix(1 0 0 1 69.9917 90.6062)" enable-background="new    "><tspan x="0" y="0" font-family="'GeosansLight'" font-size="8">T</tspan><tspan x="3.096" y="0" font-family="'GeosansLight'" font-size="8">he</tspan><tspan x="10.664" y="0" font-family="'GeosansLight'" font-size="8">r</tspan><tspan x="12.672" y="0" font-family="'GeosansLight'" font-size="8">e n</tspan><tspan x="22.24" y="0" font-family="'GeosansLight'" font-size="8">e</tspan><tspan x="26.472" y="0" font-family="'GeosansLight'" font-size="8">eds </tspan><tspan x="39.247" y="0" font-family="'GeosansLight'" font-size="8">t</tspan><tspan x="40.863" y="0" font-family="'GeosansLight'" font-size="8">o be a geom</tspan><tspan x="80.23" y="0" font-family="'GeosansLight'" font-size="8">e</tspan><tspan x="83.774" y="0" font-family="'GeosansLight'" font-size="8">try/</tspan></text>
<text transform="matrix(1 0 0 1 69.9917 100.2058)" enable-background="new    "><tspan x="0" y="0" font-family="'GeosansLight'" font-size="8">pla</tspan><tspan x="9.72" y="0" font-family="'GeosansLight'" font-size="8">c</tspan><tspan x="12.752" y="0" font-family="'GeosansLight'" font-size="8">eho</tspan><tspan x="24.304" y="0" font-family="'GeosansLight'" font-size="8">l</tspan><tspan x="25.655" y="0" font-family="'GeosansLight'" font-size="8">der that </tspan><tspan x="52.031" y="0" font-family="'GeosansLight'" font-size="8">r</tspan><tspan x="54.039" y="0" font-family="'GeosansLight'" font-size="8">ep</tspan><tspan x="62.063" y="0" font-family="'GeosansLight'" font-size="8">r</tspan><tspan x="64.071" y="0" font-family="'GeosansLight'" font-size="8">esents a </tspan><tspan x="90.975" y="0" font-family="'GeosansLight'" font-size="8">w</tspan><tspan x="96.078" y="0" font-family="'GeosansLight'" font-size="8">a</tspan><tspan x="100.158" y="0" font-family="'GeosansLight'" font-size="8">l</tspan><tspan x="101.182" y="0" font-family="'GeosansLight'" font-size="8">l</tspan></text>
<text transform="matrix(1 0 0 1 182.4966 16.8796)" enable-background="new    "><tspan x="0" y="0" fill="#FFFFFF" font-family="'GeosansLight'" font-size="12">Sur</tspan><tspan x="14.844" y="0" fill="#FFFFFF" font-family="'GeosansLight'" font-size="12">f</tspan><tspan x="17.448" y="0" fill="#FFFFFF" font-family="'GeosansLight'" font-size="12">a</tspan><tspan x="23.568" y="0" fill="#FFFFFF" font-family="'GeosansLight'" font-size="12">c</tspan><tspan x="28.116" y="0" fill="#FFFFFF" font-family="'GeosansLight'" font-size="12">es</tspan></text>
<text transform="matrix(1 0 0 1 298.624 16.8796)" enable-background="new    "><tspan x="0" y="0" fill="#FFFFFF" font-family="'GeosansLight'" font-size="12">I</tspan><tspan x="1.668" y="0" fill="#FFFFFF" font-family="'GeosansLight'" font-size="12">ns</tspan><tspan x="11.053" y="0" fill="#FFFFFF" font-family="'GeosansLight'" font-size="12">u</tspan><tspan x="15.6" y="0" fill="#FFFFFF" font-family="'GeosansLight'" font-size="12">lation</tspan></text>
<text transform="matrix(1 0 0 1 416.0322 16.8796)" enable-background="new    "><tspan x="0" y="0" fill="#FFFFFF" font-family="'GeosansLight'" font-size="12">C</tspan><tspan x="8.017" y="0" fill="#FFFFFF" font-family="'GeosansLight'" font-size="12">o</tspan><tspan x="13.992" y="0" fill="#FFFFFF" font-family="'GeosansLight'" font-size="12">r</tspan><tspan x="17.004" y="0" fill="#FFFFFF" font-family="'GeosansLight'" font-size="12">e structu</tspan><tspan x="55.188" y="0" fill="#FFFFFF" font-family="'GeosansLight'" font-size="12">r</tspan><tspan x="58.199" y="0" fill="#FFFFFF" font-family="'GeosansLight'" font-size="12">e</tspan></text>
<line fill="none" stroke="#000000" stroke-width="0.3" stroke-miterlimit="10" x1="62.667" y1="0" x2="62.667" y2="269.392"/>
<line fill="none" stroke="#000000" stroke-width="0.3" stroke-miterlimit="10" x1="178.314" y1="0" x2="178.314" y2="269.392"/>
<line fill="none" stroke="#000000" stroke-width="0.3" stroke-miterlimit="10" x1="178.314" y1="0" x2="178.314" y2="269.392"/>
<line fill="none" stroke="#000000" stroke-width="0.3" stroke-miterlimit="10" x1="293.96" y1="0" x2="293.96" y2="269.392"/>
<line fill="none" stroke="#000000" stroke-width="0.3" stroke-miterlimit="10" x1="409.607" y1="0" x2="409.607" y2="269.392"/>
<line fill="none" stroke="#000000" stroke-width="0.3" stroke-miterlimit="10" x1="498.157" y1="31.088" x2="-5.501" y2="31.088"/>
<line fill="none" stroke="#000000" stroke-width="0.2" stroke-miterlimit="10" x1="498.157" y1="57.588" x2="-5.501" y2="57.588"/>
<line fill="none" stroke="#000000" stroke-width="0.2" stroke-miterlimit="10" x1="498.157" y1="79.588" x2="-5.501" y2="79.588"/>
<line fill="none" stroke="#000000" stroke-width="0.2" stroke-miterlimit="10" x1="498.157" y1="142.838" x2="-5.501" y2="142.838"/>
<line fill="none" stroke="#000000" stroke-width="0.3" stroke-miterlimit="10" x1="498.157" y1="107.589" x2="-5.501" y2="107.588"/>
<line fill="none" stroke="#000000" stroke-width="0.3" stroke-miterlimit="10" x1="498.157" y1="158.176" x2="-5.501" y2="158.176"/>
<text transform="matrix(1 0 0 1 9.765625e-004 126.7263)" enable-background="new    "><tspan x="0" y="0" font-family="'GeosansLight-Oblique'" font-size="12">R</tspan><tspan x="5.556" y="0" font-family="'GeosansLight-Oblique'" font-size="12">u</tspan><tspan x="10.104" y="0" font-family="'GeosansLight-Oblique'" font-size="12">le 2</tspan></text>
<text transform="matrix(1 0 0 1 9.765625e-004 126.7263)" enable-background="new    "><tspan x="0" y="0" fill="none" stroke="#000000" stroke-width="0.1" stroke-miterlimit="10" font-family="'GeosansLight-Oblique'" font-size="12">R</tspan><tspan x="5.556" y="0" fill="none" stroke="#000000" stroke-width="0.1" stroke-miterlimit="10" font-family="'GeosansLight-Oblique'" font-size="12">u</tspan><tspan x="10.104" y="0" fill="none" stroke="#000000" stroke-width="0.1" stroke-miterlimit="10" font-family="'GeosansLight-Oblique'" font-size="12">le 2</tspan></text>
<text transform="matrix(1 0 0 1 9.765625e-004 154.5056)" enable-background="new    "><tspan x="0" y="0" font-family="'GeosansLight'" font-size="12">R</tspan><tspan x="5.388" y="0" font-family="'GeosansLight'" font-size="12">eq</tspan><tspan x="17.292" y="0" font-family="'GeosansLight'" font-size="12">u</tspan><tspan x="21.888" y="0" font-family="'GeosansLight'" font-size="12">i</tspan><tspan x="23.52" y="0" font-family="'GeosansLight'" font-size="12">r</tspan><tspan x="26.532" y="0" font-family="'GeosansLight'" font-size="12">ement</tspan></text>
<line fill="none" stroke="#000000" stroke-width="0.2" stroke-miterlimit="10" x1="498.157" y1="201.094" x2="-5.501" y2="201.094"/>
<line fill="none" stroke="#000000" stroke-width="0.3" stroke-miterlimit="10" x1="498.157" y1="216.433" x2="-5.501" y2="216.433"/>
<text transform="matrix(1 0 0 1 9.765625e-004 177.3142)" enable-background="new    "><tspan x="0" y="0" font-family="'GeosansLight-Oblique'" font-size="12">R</tspan><tspan x="5.556" y="0" font-family="'GeosansLight-Oblique'" font-size="12">u</tspan><tspan x="10.104" y="0" font-family="'GeosansLight-Oblique'" font-size="12">le 3</tspan></text>
<text transform="matrix(1 0 0 1 9.765625e-004 177.3142)" enable-background="new    "><tspan x="0" y="0" fill="none" stroke="#000000" stroke-width="0.1" stroke-miterlimit="10" font-family="'GeosansLight-Oblique'" font-size="12">R</tspan><tspan x="5.556" y="0" fill="none" stroke="#000000" stroke-width="0.1" stroke-miterlimit="10" font-family="'GeosansLight-Oblique'" font-size="12">u</tspan><tspan x="10.104" y="0" fill="none" stroke="#000000" stroke-width="0.1" stroke-miterlimit="10" font-family="'GeosansLight-Oblique'" font-size="12">le 3</tspan></text>
<text transform="matrix(1 0 0 1 9.765625e-004 212.7644)" enable-background="new    "><tspan x="0" y="0" font-family="'GeosansLight'" font-size="12">R</tspan><tspan x="5.388" y="0" font-family="'GeosansLight'" font-size="12">eq</tspan><tspan x="17.292" y="0" font-family="'GeosansLight'" font-size="12">u</tspan><tspan x="21.888" y="0" font-family="'GeosansLight'" font-size="12">i</tspan><tspan x="23.52" y="0" font-family="'GeosansLight'" font-size="12">r</tspan><tspan x="26.532" y="0" font-family="'GeosansLight'" font-size="12">ement</tspan></text>
<line fill="none" stroke="#000000" stroke-width="0.2" stroke-miterlimit="10" x1="498.157" y1="244.014" x2="-5.501" y2="244.014"/>
<text transform="matrix(1 0 0 1 9.765625e-004 235.5701)" enable-background="new    "><tspan x="0" y="0" font-family="'GeosansLight-Oblique'" font-size="12">R</tspan><tspan x="5.556" y="0" font-family="'GeosansLight-Oblique'" font-size="12">u</tspan><tspan x="10.104" y="0" font-family="'GeosansLight-Oblique'" font-size="12">le 4</tspan></text>
<text transform="matrix(1 0 0 1 9.765625e-004 235.5701)" enable-background="new    "><tspan x="0" y="0" fill="none" stroke="#000000" stroke-width="0.1" stroke-miterlimit="10" font-family="'GeosansLight-Oblique'" font-size="12">R</tspan><tspan x="5.556" y="0" fill="none" stroke="#000000" stroke-width="0.1" stroke-miterlimit="10" font-family="'GeosansLight-Oblique'" font-size="12">u</tspan><tspan x="10.104" y="0" fill="none" stroke="#000000" stroke-width="0.1" stroke-miterlimit="10" font-family="'GeosansLight-Oblique'" font-size="12">le 4</tspan></text>
<text transform="matrix(1 0 0 1 9.765625e-004 257.74)" enable-background="new    "><tspan x="0" y="0" font-family="'GeosansLight'" font-size="12">R</tspan><tspan x="5.388" y="0" font-family="'GeosansLight'" font-size="12">eq</tspan><tspan x="17.292" y="0" font-family="'GeosansLight'" font-size="12">u</tspan><tspan x="21.888" y="0" font-family="'GeosansLight'" font-size="12">i</tspan><tspan x="23.52" y="0" font-family="'GeosansLight'" font-size="12">r</tspan><tspan x="26.532" y="0" font-family="'GeosansLight'" font-size="12">ement</tspan></text>
</svg>
