<?xml version="1.0" encoding="utf-8"?>
<!-- Generator: Adobe Illustrator 16.0.0, SVG Export Plug-In . SVG Version: 6.00 Build 0)  -->
<!DOCTYPE svg PUBLIC "-//W3C//DTD SVG 1.1//EN" "http://www.w3.org/Graphics/SVG/1.1/DTD/svg11.dtd">
<svg version="1.1" id="Layer_1" xmlns="http://www.w3.org/2000/svg" xmlns:xlink="http://www.w3.org/1999/xlink" x="0px" y="0px"
	 width="465.639px" height="492.625px" viewBox="0 0 465.639 492.625" enable-background="new 0 0 465.639 492.625"
	 xml:space="preserve">
<g>
	<g>
		<polygon fill="#C1C3C3" points="288.264,241.757 292.928,240.47 292.928,324.591 251.336,337.325 251.595,334.146 
			288.264,322.464 		"/>
		
			<polyline fill="none" stroke="#000000" stroke-width="1.5" stroke-linecap="round" stroke-linejoin="round" stroke-miterlimit="10" points="
			288.264,322.661 292.928,324.591 292.928,240.47 251.595,253.636 251.595,337.245 		"/>
		<polyline fill="#036936" points="251.595,334.146 251.595,253.438 288.264,241.757 288.264,322.464 251.595,334.146 
			288.264,322.464 		"/>
		<polyline fill="none" stroke="#000000" stroke-width="1.5" stroke-miterlimit="10" points="251.595,334.146 288.264,322.464 
			288.264,241.757 		"/>
	</g>
	<g>
		<polygon opacity="0.8" fill="#C1C3C3" points="0.75,409.237 0.75,286.735 166.08,233.681 166.08,52.519 328.748,0.832 
			338.099,8.114 338.099,310.237 7.908,414.509 		"/>
		<path fill="none" stroke="#000000" stroke-width="1.5" stroke-miterlimit="10" d="M333.6,305.044"/>
		<polygon fill="none" stroke="#000000" stroke-width="1.5" stroke-miterlimit="10" points="0.75,409.237 0.75,286.735 
			166.08,233.681 166.08,52.519 328.326,0.832 338.099,8.114 338.099,310.237 7.908,414.509 		"/>
		<polyline fill="none" stroke="#000000" stroke-width="1.5" stroke-miterlimit="10" points="7.908,414.509 8.152,291.505 
			176.692,237.817 178.032,59.792 338.099,8.114 		"/>
		<line fill="none" stroke="#000000" stroke-width="1.5" stroke-miterlimit="10" x1="0.75" y1="286.735" x2="8.152" y2="291.505"/>
		
			<line fill="none" stroke="#000000" stroke-width="1.5" stroke-miterlimit="10" x1="166.08" y1="233.681" x2="176.692" y2="237.817"/>
		
			<line fill="none" stroke="#000000" stroke-width="1.5" stroke-miterlimit="10" x1="166.08" y1="52.519" x2="178.032" y2="59.792"/>
	</g>
	<g>
		
			<line fill="none" stroke="#ED1C24" stroke-width="3.75" stroke-linecap="round" stroke-miterlimit="10" x1="180.851" y1="242.556" x2="180.851" y2="366.181"/>
		
			<line fill="none" stroke="#000000" stroke-width="0.75" stroke-miterlimit="10" stroke-dasharray="1.5" x1="187.762" y1="246.839" x2="175.272" y2="238.271"/>
		
			<line fill="none" stroke="#000000" stroke-width="0.75" stroke-miterlimit="10" stroke-dasharray="1.5" x1="187.762" y1="345.815" x2="175.272" y2="337.245"/>
		
			<line fill="none" stroke="#000000" stroke-width="0.75" stroke-miterlimit="10" stroke-dasharray="1.5" x1="187.762" y1="371.472" x2="175.272" y2="362.901"/>
	</g>
	<g>
		<polygon opacity="0.1" fill="#CD3F27" points="443.223,359.634 283.339,410.983 213.431,364.29 213.431,62.734 373.498,11.057 
			443.223,55.63 		"/>
		
			<polyline fill="none" stroke="#000000" stroke-width="0.75" stroke-linecap="round" stroke-linejoin="round" stroke-miterlimit="10" points="
			373.498,11.057 373.498,313.181 213.431,364.29 		"/>
		<g>
			
				<path fill="none" stroke="#000000" stroke-width="0.75" stroke-linecap="round" stroke-linejoin="round" stroke-miterlimit="10" d="
				M388.037,377.708"/>
			
				<polyline fill="none" stroke="#000000" stroke-width="0.75" stroke-linecap="round" stroke-linejoin="round" stroke-miterlimit="10" points="
				283.339,410.983 283.339,106.954 443.223,55.63 			"/>
		</g>
		
			<line fill="none" stroke="#000000" stroke-width="0.75" stroke-linecap="round" stroke-linejoin="round" stroke-miterlimit="10" x1="213.431" y1="62.734" x2="283.339" y2="106.954"/>
		
			<polygon fill="none" stroke="#000000" stroke-width="0.75" stroke-linecap="round" stroke-linejoin="round" stroke-miterlimit="10" points="
			443.223,359.634 283.339,410.983 213.431,364.29 213.431,62.734 373.498,11.057 443.223,55.63 		"/>
		
			<line fill="none" stroke="#000000" stroke-width="0.75" stroke-linecap="round" stroke-linejoin="round" stroke-miterlimit="10" x1="373.498" y1="313.181" x2="443.223" y2="359.634"/>
	</g>
	<g>
		<g>
			<g>
				
					<line fill="none" stroke="#000000" stroke-width="0.75" stroke-miterlimit="10" x1="192.131" y1="369.716" x2="192.854" y2="369.517"/>
				
					<line fill="none" stroke="#000000" stroke-width="0.75" stroke-miterlimit="10" stroke-dasharray="1.5966,1.5966" x1="194.394" y1="369.093" x2="209.017" y2="365.063"/>
				
					<line fill="none" stroke="#000000" stroke-width="0.75" stroke-miterlimit="10" x1="209.786" y1="364.853" x2="210.509" y2="364.653"/>
			</g>
		</g>
		<polygon opacity="0.9" fill="#CD3F27" points="272.943,414.794 201.9,366.892 201.9,243.212 272.943,291.11 		"/>
		<g>
			<g>
				
					<line fill="none" stroke="#000000" stroke-width="0.75" stroke-miterlimit="10" x1="190.865" y1="246.063" x2="191.593" y2="245.882"/>
				
					<line fill="none" stroke="#000000" stroke-width="0.75" stroke-miterlimit="10" stroke-dasharray="1.4499,1.4499" x1="193.001" y1="245.534" x2="211.999" y2="240.823"/>
				
					<line fill="none" stroke="#000000" stroke-width="0.75" stroke-miterlimit="10" x1="212.702" y1="240.649" x2="213.431" y2="240.47"/>
			</g>
		</g>
		<g>
			<g>
				
					<line fill="none" stroke="#000000" stroke-width="0.75" stroke-miterlimit="10" x1="263.174" y1="293.784" x2="263.895" y2="293.577"/>
				
					<line fill="none" stroke="#000000" stroke-width="0.75" stroke-miterlimit="10" stroke-dasharray="1.4994,1.4994" x1="265.335" y1="293.159" x2="281.898" y2="288.368"/>
				
					<line fill="none" stroke="#000000" stroke-width="0.75" stroke-miterlimit="10" x1="282.618" y1="288.159" x2="283.339" y2="287.952"/>
			</g>
		</g>
		<g>
			<g>
				
					<line fill="none" stroke="#000000" stroke-width="0.75" stroke-miterlimit="10" x1="262.11" y1="416.286" x2="262.838" y2="416.104"/>
				
					<line fill="none" stroke="#000000" stroke-width="0.75" stroke-miterlimit="10" stroke-dasharray="1.5677,1.5677" x1="264.358" y1="415.724" x2="281.851" y2="411.354"/>
				
					<line fill="none" stroke="#000000" stroke-width="0.75" stroke-miterlimit="10" x1="282.611" y1="411.165" x2="283.339" y2="410.983"/>
			</g>
		</g>
	</g>
	<g>
		<polygon opacity="0.8" fill="#C1C3C3" points="184.551,247.646 184.551,371.327 255.596,419.228 262.11,416.286 262.11,293.673 
			190.865,246.063 		"/>
		
			<polyline fill="none" stroke="#000000" stroke-width="0.75" stroke-linecap="round" stroke-linejoin="round" stroke-miterlimit="10" points="
			184.551,247.646 255.596,295.544 255.596,419.228 		"/>
		
			<polygon fill="none" stroke="#000000" stroke-width="0.75" stroke-linecap="round" stroke-linejoin="round" stroke-miterlimit="10" points="
			184.551,247.646 184.551,371.327 255.596,419.228 262.11,416.286 262.11,293.673 190.865,246.063 		"/>
		
			<line fill="none" stroke="#000000" stroke-width="0.75" stroke-linecap="round" stroke-linejoin="round" stroke-miterlimit="10" x1="255.596" y1="295.544" x2="262.11" y2="293.673"/>
	</g>
	<g>
		<g>
			<g>
				
					<line fill="none" stroke="#000000" stroke-width="0.75" stroke-linecap="round" stroke-linejoin="round" x1="166.174" y1="376.54" x2="166.897" y2="376.341"/>
				
					<line fill="none" stroke="#000000" stroke-width="0.75" stroke-linecap="round" stroke-linejoin="round" stroke-dasharray="1.5965,1.5965" x1="168.437" y1="375.917" x2="183.058" y2="371.888"/>
				
					<line fill="none" stroke="#000000" stroke-width="0.75" stroke-linecap="round" stroke-linejoin="round" x1="183.827" y1="371.675" x2="184.551" y2="371.476"/>
			</g>
		</g>
		<polygon opacity="0.9" fill="#924C9D" points="246.986,421.618 175.942,373.716 175.942,250.034 246.986,297.933 		"/>
		<g>
			<g>
				
					<line fill="none" stroke="#000000" stroke-width="0.75" stroke-linecap="round" stroke-linejoin="round" x1="166.174" y1="252.71" x2="166.897" y2="252.511"/>
				
					<line fill="none" stroke="#000000" stroke-width="0.75" stroke-linecap="round" stroke-linejoin="round" stroke-dasharray="1.5965,1.5965" x1="168.437" y1="252.087" x2="183.058" y2="248.056"/>
				
					<line fill="none" stroke="#000000" stroke-width="0.75" stroke-linecap="round" stroke-linejoin="round" x1="183.827" y1="247.845" x2="184.551" y2="247.646"/>
			</g>
		</g>
		<g>
			<g>
				
					<line fill="none" stroke="#000000" stroke-width="0.75" stroke-linecap="round" stroke-linejoin="round" x1="237.217" y1="300.608" x2="237.94" y2="300.409"/>
				
					<line fill="none" stroke="#000000" stroke-width="0.75" stroke-linecap="round" stroke-linejoin="round" stroke-dasharray="1.5967,1.5967" x1="239.479" y1="299.985" x2="254.103" y2="295.956"/>
				
					<line fill="none" stroke="#000000" stroke-width="0.75" stroke-linecap="round" stroke-linejoin="round" x1="254.872" y1="295.743" x2="255.596" y2="295.544"/>
			</g>
		</g>
		<g>
			<g>
				
					<line fill="none" stroke="#000000" stroke-width="0.75" stroke-linecap="round" stroke-linejoin="round" x1="237.967" y1="423.874" x2="238.69" y2="423.675"/>
				
					<line fill="none" stroke="#000000" stroke-width="0.75" stroke-linecap="round" stroke-linejoin="round" stroke-dasharray="1.5967,1.5967" x1="240.229" y1="423.251" x2="254.853" y2="419.222"/>
				
					<line fill="none" stroke="#000000" stroke-width="0.75" stroke-linecap="round" stroke-linejoin="round" x1="255.622" y1="419.011" x2="256.346" y2="418.812"/>
			</g>
		</g>
	</g>
	<g>
		
			<polyline fill="none" stroke="#000000" stroke-width="0.75" stroke-linecap="round" stroke-linejoin="round" stroke-miterlimit="10" points="
			166.174,252.71 166.174,376.39 3.701,427.819 		"/>
		<g>
			
				<path fill="none" stroke="#000000" stroke-width="0.75" stroke-linecap="round" stroke-linejoin="round" stroke-miterlimit="10" d="
				M234.816,422.843"/>
			
				<polyline fill="none" stroke="#000000" stroke-width="0.75" stroke-linecap="round" stroke-linejoin="round" stroke-miterlimit="10" points="
				77.713,476.692 77.713,352.679 237.217,300.608 			"/>
		</g>
		
			<line fill="none" stroke="#000000" stroke-width="0.75" stroke-linecap="round" stroke-linejoin="round" stroke-miterlimit="10" x1="3.701" y1="304.548" x2="77.713" y2="352.679"/>
		
			<polygon fill="none" stroke="#000000" stroke-width="0.75" stroke-linecap="round" stroke-linejoin="round" stroke-miterlimit="10" points="
			237.217,424.292 77.713,476.692 3.701,427.819 3.701,304.548 166.174,252.71 237.217,300.608 		"/>
		
			<line fill="none" stroke="#000000" stroke-width="0.75" stroke-linecap="round" stroke-linejoin="round" stroke-miterlimit="10" x1="166.174" y1="376.39" x2="237.217" y2="424.292"/>
	</g>
</g>
<g>
	<g>
		<path fill="none" stroke="#000000" stroke-width="0.75" stroke-miterlimit="10" d="M181.239,243.233
			c0-49.961,24.921-27.318,26.726,11.793"/>
		<g>
			<polygon points="205.033,253.034 207.855,254.104 210.584,252.815 208.068,259.503 			"/>
		</g>
	</g>
</g>
<g>
	<g>
		<path fill="none" stroke="#000000" stroke-width="0.75" stroke-miterlimit="10" d="M181.209,240.554
			c-1.365-58.215-47.418-39.314-50.424,4.07"/>
		<g>
			<circle cx="181.167" cy="240.414" r="2.82"/>
		</g>
		<g>
			<polygon points="128.146,242.398 130.869,243.7 133.695,242.644 130.631,249.099 			"/>
		</g>
	</g>
</g>
<text transform="matrix(1 0 0 1 54.8804 199.7393)" font-family="'Consolas'" font-size="10.5">ex:intersectingWall</text>
<text transform="matrix(1 0 0 1 181.5176 211.0205)" font-family="'Consolas'" font-size="10.5">ex:intersectingWall</text>
<g>
	<g>
		<path fill="none" stroke="#000000" stroke-width="0.75" stroke-miterlimit="10" d="M237.116,287.396
			c2.474-19.557,20.892-24.622,23.63-7.969"/>
		<g>
			<polygon points="240.1,285.509 237.242,286.479 234.56,285.097 236.842,291.868 			"/>
		</g>
		<g>
			<polygon points="257.709,277.593 260.584,278.509 263.239,277.076 261.086,283.89 			"/>
		</g>
	</g>
</g>
<text transform="matrix(1 0 0 1 256.8535 268.3975)" font-family="'Consolas'" font-size="10.5">ex:oppositeSurface</text>
<g>
	<text transform="matrix(1 0 0 1 10.0649 489.4512)" font-family="'Consolas'" font-size="10.5">ex:acceptedBackgroundNoiseLevel|30</text>
</g>
<g>
	<text transform="matrix(1 0 0 1 303.9961 167.0967)" font-family="'Consolas'" font-size="10.5">ex:expectedMaxNoiseLevel|100</text>
</g>
<text transform="matrix(1 0 0 1 256.7227 447.7324)"><tspan x="0" y="0" font-family="'Consolas'" font-size="10.5">bot:Element</tspan><tspan x="0" y="12.6" font-family="'Consolas'" font-size="10.5">ifc2x3:IfcWall</tspan></text>
<text transform="matrix(1 0 0 1 147.3169 416.2549)" font-family="'Consolas'" font-size="10.5">ex:WallSurface</text>
<text transform="matrix(1 0 0 1 284.6855 400.3418)" font-family="'Consolas'" font-size="10.5">ex:WallSurface</text>
<text transform="matrix(1 0 0 1 303.9961 135.9131)"><tspan x="0" y="0" font-family="'Consolas'" font-size="10.5">bot:Space</tspan><tspan x="0" y="12.6" font-family="'Consolas'" font-size="10.5">ifc2x3:IfcSpace</tspan></text>
<text transform="matrix(1 0 0 1 10.0649 457.3662)"><tspan x="0" y="0" font-family="'Consolas'" font-size="10.5">bot:Space</tspan><tspan x="0" y="12.6" font-family="'Consolas'" font-size="10.5">ifc2x3:IfcSpace</tspan></text>
<g>
	<g>
		<path fill="none" stroke="#000000" stroke-width="0.75" stroke-miterlimit="10" d="M246.715,318.427
			c11.639,11.353,20.544,7.125,14.931-1.742"/>
		<g>
			<circle cx="246.834" cy="318.503" r="2.82"/>
		</g>
		<g>
			<polygon points="265.068,316.708 262.146,317.465 260.664,320.093 258.854,313.181 			"/>
		</g>
	</g>
</g>
<g>
	<g>
		<path fill="none" stroke="#000000" stroke-width="0.75" stroke-miterlimit="10" d="M199.559,265.306
			c-2.891-40.442-72.187-14.225-76.238,34.588"/>
		<g>
			<circle cx="199.499" cy="265.167" r="2.82"/>
		</g>
		<g>
			<polygon points="120.69,297.653 123.405,298.971 126.238,297.931 123.135,304.368 			"/>
		</g>
	</g>
</g>
<g>
	<g>
		<path fill="none" stroke="#000000" stroke-width="0.75" stroke-miterlimit="10" d="M236.844,265.719
			c0.539-264.462,80.809-231.018,90.523-207.354"/>
		<g>
			<circle cx="236.87" cy="265.578" r="2.819"/>
		</g>
		<g>
			<polygon points="324.016,57.036 326.997,57.497 329.398,55.67 328.326,62.734 			"/>
		</g>
	</g>
</g>
<text transform="matrix(1 0 0 1 37.4771 287.9521)" font-family="'Consolas'" font-size="10.5">ex:relatedSpace</text>
<text transform="matrix(1 0 0 1 169.4243 101.0928)" font-family="'Consolas'" font-size="10.5">ex:relatedSpace</text>
<text transform="matrix(1 0 0 1 333.5996 313.1807)" font-family="'Consolas'" font-size="10.5">ex:relatedSpace</text>
<text transform="matrix(1 0 0 1 166.0806 330.3916)" font-family="'Consolas'" font-size="10.5">ex:relatedWall</text>
<text transform="matrix(1 0 0 1 77.7134 101.0928)" stroke="#000000" stroke-width="0.2" stroke-miterlimit="10" font-family="'Consolas'" font-size="10.5">:IW3</text>
<g>
	<text transform="matrix(1 0 0 1 77.7134 119.4521)"><tspan x="0" y="0" font-family="'Consolas'" font-size="10.5">bot:Element</tspan><tspan x="0" y="12.6" font-family="'Consolas'" font-size="10.5">ifc2x3:IfcWall</tspan></text>
</g>
<g>
	<g>
		<path fill="none" stroke="#000000" stroke-width="0.75" stroke-miterlimit="10" d="M272.342,364.954
			c11.572,8.709,0.035,14.493-10.069,7.662"/>
		<g>
			<circle cx="272.438" cy="365.06" r="2.82"/>
		</g>
		<g>
			<polygon points="265.715,371.71 263.048,373.122 262.213,376.022 258.854,369.716 			"/>
		</g>
	</g>
</g>
<text transform="matrix(1 0 0 1 277.1797 363.4375)" font-family="'Consolas'" font-size="10.5">ex:relatedWall</text>
<text transform="matrix(1 0 0 1 255.9688 428.5264)" stroke="#000000" stroke-width="0.2" stroke-miterlimit="10" font-family="'Consolas'" font-size="10.5">:IW4</text>
<text transform="matrix(1 0 0 1 10.0649 436.1924)" stroke="#000000" stroke-width="0.2" stroke-miterlimit="10" font-family="'Consolas'" font-size="10.5">:SP4</text>
<text transform="matrix(1 0 0 1 303.9961 114.2148)" stroke="#000000" stroke-width="0.2" stroke-miterlimit="10" font-family="'Consolas'" font-size="10.5">:SP5</text>
<text transform="matrix(1 0 0 1 145.8579 401.1787)" stroke="#000000" stroke-width="0.2" stroke-miterlimit="10" font-family="'Consolas'" font-size="10.5">:IW4SP4</text>
<text transform="matrix(1 0 0 1 283.3379 384.8584)" stroke="#000000" stroke-width="0.2" stroke-miterlimit="10" font-family="'Consolas'" font-size="10.5">:IW4SP5</text>
</svg>
