<?xml version="1.0" encoding="utf-8"?>
<!-- Generator: Adobe Illustrator 16.0.0, SVG Export Plug-In . SVG Version: 6.00 Build 0)  -->
<!DOCTYPE svg PUBLIC "-//W3C//DTD SVG 1.1//EN" "http://www.w3.org/Graphics/SVG/1.1/DTD/svg11.dtd">
<svg version="1.1" id="Layer_1" xmlns="http://www.w3.org/2000/svg" xmlns:xlink="http://www.w3.org/1999/xlink" x="0px" y="0px"
	 width="338.85px" height="415.34px" viewBox="0 0 338.85 415.34" enable-background="new 0 0 338.85 415.34" xml:space="preserve">
<g>
	<g>
		<polygon fill="#C1C3C3" points="0.75,409.239 0.75,286.737 166.08,233.681 166.08,52.519 328.748,0.832 338.1,8.114 
			338.1,310.241 7.909,414.51 		"/>
		<path fill="none" stroke="#000000" stroke-width="1.5" stroke-miterlimit="10" d="M333.6,305.043"/>
		<polygon fill="none" stroke="#000000" stroke-width="1.5" stroke-miterlimit="10" points="0.75,409.239 0.75,286.737 
			166.08,233.681 166.08,52.519 328.326,0.832 338.1,8.114 338.1,310.241 7.909,414.51 		"/>
		<polyline fill="none" stroke="#000000" stroke-width="1.5" stroke-miterlimit="10" points="7.909,414.51 8.152,291.506 
			176.692,237.817 178.033,59.792 338.1,8.114 		"/>
		<line fill="none" stroke="#000000" stroke-width="1.5" stroke-miterlimit="10" x1="0.75" y1="286.737" x2="8.152" y2="291.506"/>
		
			<line fill="none" stroke="#000000" stroke-width="1.5" stroke-miterlimit="10" x1="166.08" y1="233.681" x2="176.692" y2="237.817"/>
		
			<line fill="none" stroke="#000000" stroke-width="1.5" stroke-miterlimit="10" x1="166.08" y1="52.519" x2="178.033" y2="59.792"/>
	</g>
	<g>
		<polygon fill="#C1C3C3" points="288.265,241.758 292.929,240.472 292.929,324.592 251.338,337.329 251.597,334.147 
			288.265,322.465 		"/>
		
			<polyline fill="none" stroke="#000000" stroke-width="1.5" stroke-linecap="round" stroke-linejoin="round" stroke-miterlimit="10" points="
			288.265,322.663 292.929,324.592 292.929,240.472 251.597,253.638 251.597,337.247 		"/>
		<polyline fill="#036936" points="251.597,334.147 251.597,253.44 288.265,241.758 288.265,322.465 251.597,334.147 
			288.265,322.465 		"/>
		<polyline fill="none" stroke="#000000" stroke-width="1.5" stroke-miterlimit="10" points="251.597,334.147 288.265,322.465 
			288.265,241.758 		"/>
	</g>
</g>
<g enable-background="new    ">
	<path d="M248.546,217.684c0,0.428-0.059,0.81-0.176,1.146c-0.119,0.337-0.286,0.622-0.503,0.856
		c-0.218,0.234-0.481,0.414-0.792,0.538c-0.312,0.125-0.662,0.188-1.051,0.188c-0.305,0-0.615-0.029-0.934-0.087
		c-0.318-0.059-0.633-0.15-0.943-0.277v-6.941h0.893v1.994l-0.041,0.953c0.256-0.345,0.53-0.588,0.822-0.73
		c0.293-0.142,0.605-0.213,0.941-0.213c0.293,0,0.551,0.063,0.773,0.186s0.408,0.296,0.559,0.52c0.15,0.225,0.264,0.494,0.339,0.811
		S248.546,217.294,248.546,217.684z M247.634,217.725c0-0.27-0.02-0.518-0.059-0.743s-0.102-0.419-0.188-0.579
		c-0.086-0.161-0.195-0.287-0.328-0.377c-0.133-0.091-0.292-0.137-0.477-0.137c-0.113,0-0.228,0.019-0.344,0.055
		c-0.116,0.035-0.236,0.096-0.361,0.179c-0.125,0.084-0.256,0.195-0.395,0.334c-0.139,0.138-0.287,0.31-0.443,0.515v2.497
		c0.174,0.068,0.352,0.122,0.533,0.161c0.181,0.04,0.354,0.06,0.518,0.06c0.205,0,0.4-0.032,0.587-0.098
		c0.187-0.064,0.351-0.174,0.492-0.325c0.142-0.152,0.255-0.354,0.339-0.605C247.592,218.41,247.634,218.098,247.634,217.725z"/>
	<path d="M254.401,217.735c0,0.4-0.057,0.767-0.17,1.101c-0.111,0.333-0.274,0.618-0.486,0.855
		c-0.212,0.238-0.471,0.423-0.773,0.554c-0.305,0.132-0.65,0.197-1.037,0.197c-0.369,0-0.699-0.057-0.991-0.171
		c-0.292-0.115-0.54-0.283-0.743-0.505c-0.203-0.223-0.359-0.498-0.467-0.826s-0.162-0.705-0.162-1.133
		c0-0.4,0.057-0.765,0.17-1.095s0.275-0.613,0.486-0.851c0.213-0.238,0.471-0.423,0.775-0.554c0.303-0.132,0.648-0.198,1.035-0.198
		c0.369,0,0.699,0.058,0.992,0.172c0.292,0.115,0.539,0.282,0.743,0.503c0.203,0.221,0.358,0.495,0.466,0.823
		C254.348,216.936,254.401,217.312,254.401,217.735z M253.489,217.776c0-0.317-0.035-0.595-0.105-0.833
		c-0.07-0.237-0.17-0.436-0.301-0.595c-0.129-0.158-0.287-0.278-0.474-0.358s-0.394-0.12-0.622-0.12
		c-0.268,0-0.496,0.052-0.686,0.156c-0.189,0.104-0.345,0.243-0.467,0.418c-0.121,0.174-0.209,0.376-0.266,0.607
		c-0.057,0.23-0.085,0.473-0.085,0.725c0,0.318,0.035,0.597,0.104,0.836c0.07,0.239,0.17,0.438,0.301,0.598
		c0.129,0.159,0.287,0.278,0.471,0.358c0.186,0.081,0.394,0.121,0.627,0.121c0.266,0,0.494-0.053,0.684-0.156
		c0.189-0.104,0.346-0.244,0.467-0.418c0.121-0.175,0.21-0.377,0.267-0.607C253.46,218.276,253.489,218.033,253.489,217.776z"/>
	<path d="M259.841,220.278c-0.201,0.052-0.41,0.089-0.625,0.11c-0.216,0.022-0.435,0.034-0.656,0.034
		c-0.646,0-1.128-0.146-1.446-0.438c-0.317-0.293-0.477-0.741-0.477-1.347v-2.686h-1.44v-0.749h1.44v-1.415l0.892-0.23v1.646h2.313
		v0.749h-2.313v2.614c0,0.369,0.099,0.646,0.295,0.828c0.197,0.183,0.486,0.274,0.869,0.274c0.164,0,0.344-0.013,0.539-0.039
		c0.194-0.025,0.397-0.065,0.609-0.12V220.278z"/>
	<path d="M263.532,215.11c0.105,0,0.207,0.021,0.303,0.064s0.18,0.1,0.252,0.172c0.07,0.072,0.129,0.155,0.171,0.251
		c0.043,0.096,0.063,0.197,0.063,0.303c0,0.109-0.021,0.211-0.063,0.305c-0.042,0.095-0.101,0.177-0.171,0.249
		c-0.072,0.072-0.156,0.128-0.252,0.169s-0.197,0.062-0.303,0.062c-0.109,0-0.211-0.021-0.305-0.062s-0.178-0.097-0.248-0.169
		c-0.072-0.072-0.129-0.154-0.17-0.249c-0.041-0.094-0.062-0.195-0.062-0.305c0-0.105,0.021-0.207,0.062-0.303
		s0.098-0.179,0.17-0.251c0.07-0.072,0.154-0.129,0.248-0.172S263.423,215.11,263.532,215.11z M263.532,218.869
		c0.105,0,0.207,0.021,0.303,0.063c0.096,0.043,0.18,0.101,0.252,0.172c0.07,0.072,0.129,0.156,0.171,0.252
		c0.043,0.096,0.063,0.196,0.063,0.302c0,0.109-0.021,0.211-0.063,0.306c-0.042,0.094-0.101,0.177-0.171,0.248
		c-0.072,0.072-0.156,0.129-0.252,0.17s-0.197,0.061-0.303,0.061c-0.109,0-0.211-0.02-0.305-0.061s-0.178-0.098-0.248-0.17
		c-0.072-0.071-0.129-0.154-0.17-0.248c-0.041-0.095-0.062-0.196-0.062-0.306c0-0.105,0.021-0.206,0.062-0.302
		s0.098-0.18,0.17-0.252c0.07-0.071,0.154-0.129,0.248-0.172C263.321,218.89,263.423,218.869,263.532,218.869z"/>
	<path d="M271.259,220.35h-3.81v-6.701h3.81v0.77h-2.896v2.076h2.783v0.77h-2.783v2.307h2.896V220.35z"/>
	<path d="M274.766,213.838h-1.522v-0.732h2.425v6.501h1.532v0.743h-4.127v-0.743h1.692V213.838z"/>
	<path d="M283.133,217.504c0,0.127-0.002,0.232-0.005,0.318c-0.004,0.085-0.009,0.166-0.016,0.24h-3.614
		c0,0.527,0.146,0.931,0.44,1.213s0.718,0.423,1.271,0.423c0.15,0,0.301-0.006,0.451-0.018s0.296-0.028,0.436-0.049
		c0.141-0.021,0.275-0.044,0.402-0.069c0.129-0.025,0.248-0.054,0.357-0.084v0.732c-0.243,0.068-0.518,0.124-0.823,0.167
		s-0.623,0.063-0.951,0.063c-0.44,0-0.82-0.06-1.138-0.179c-0.318-0.12-0.579-0.293-0.782-0.521
		c-0.204-0.228-0.354-0.506-0.451-0.836c-0.098-0.33-0.146-0.703-0.146-1.12c0-0.362,0.052-0.705,0.157-1.028
		c0.104-0.322,0.256-0.606,0.455-0.851c0.201-0.244,0.445-0.438,0.736-0.582s0.62-0.216,0.989-0.216c0.359,0,0.677,0.057,0.954,0.17
		c0.276,0.112,0.51,0.272,0.699,0.479c0.189,0.206,0.334,0.458,0.432,0.753C283.084,216.808,283.133,217.139,283.133,217.504z
		 M282.205,217.376c0.01-0.229-0.013-0.438-0.067-0.628s-0.139-0.353-0.254-0.49c-0.113-0.136-0.257-0.243-0.428-0.32
		c-0.171-0.076-0.369-0.115-0.595-0.115c-0.194,0-0.372,0.038-0.533,0.113s-0.299,0.181-0.415,0.317s-0.21,0.301-0.282,0.492
		c-0.071,0.191-0.116,0.402-0.133,0.631H282.205z"/>
	<path d="M288.229,220.35v-3.696c0-0.161-0.006-0.292-0.019-0.396c-0.012-0.102-0.03-0.184-0.056-0.243
		c-0.026-0.06-0.059-0.102-0.098-0.126c-0.039-0.023-0.088-0.035-0.146-0.035c-0.068,0-0.132,0.021-0.189,0.062
		c-0.059,0.041-0.121,0.107-0.188,0.2c-0.066,0.092-0.141,0.214-0.221,0.366s-0.175,0.339-0.284,0.562v3.307h-0.815v-3.6
		c0-0.188-0.006-0.34-0.018-0.456s-0.031-0.206-0.057-0.271c-0.025-0.064-0.059-0.109-0.1-0.134
		c-0.041-0.023-0.091-0.035-0.148-0.035c-0.063,0-0.12,0.017-0.175,0.051s-0.115,0.096-0.183,0.185
		c-0.066,0.089-0.141,0.21-0.223,0.364s-0.18,0.351-0.292,0.59v3.307h-0.82v-5.147h0.683l0.041,0.979
		c0.088-0.195,0.174-0.36,0.258-0.498c0.084-0.136,0.17-0.246,0.26-0.33c0.088-0.084,0.184-0.146,0.284-0.185s0.212-0.06,0.335-0.06
		c0.277,0,0.488,0.091,0.631,0.272c0.145,0.181,0.216,0.461,0.216,0.841c0.082-0.178,0.162-0.336,0.241-0.475
		c0.078-0.139,0.163-0.255,0.254-0.349c0.09-0.094,0.189-0.166,0.299-0.215c0.109-0.05,0.236-0.075,0.381-0.075
		c0.645,0,0.969,0.498,0.969,1.492v3.748H288.229z"/>
	<path d="M294.679,217.504c0,0.127-0.002,0.232-0.005,0.318c-0.004,0.085-0.009,0.166-0.016,0.24h-3.614
		c0,0.527,0.146,0.931,0.44,1.213s0.718,0.423,1.271,0.423c0.15,0,0.301-0.006,0.451-0.018s0.296-0.028,0.437-0.049
		c0.14-0.021,0.273-0.044,0.402-0.069c0.128-0.025,0.246-0.054,0.355-0.084v0.732c-0.242,0.068-0.517,0.124-0.822,0.167
		c-0.307,0.043-0.623,0.063-0.951,0.063c-0.441,0-0.82-0.06-1.139-0.179c-0.317-0.12-0.578-0.293-0.781-0.521
		s-0.354-0.506-0.451-0.836s-0.146-0.703-0.146-1.12c0-0.362,0.053-0.705,0.156-1.028c0.104-0.322,0.257-0.606,0.457-0.851
		c0.199-0.244,0.445-0.438,0.735-0.582s0.62-0.216,0.989-0.216c0.359,0,0.677,0.057,0.954,0.17c0.276,0.112,0.51,0.272,0.7,0.479
		c0.189,0.206,0.332,0.458,0.43,0.753C294.63,216.808,294.679,217.139,294.679,217.504z M293.751,217.376
		c0.01-0.229-0.012-0.438-0.066-0.628s-0.14-0.353-0.254-0.49c-0.115-0.136-0.258-0.243-0.429-0.32
		c-0.171-0.076-0.369-0.115-0.595-0.115c-0.194,0-0.373,0.038-0.533,0.113s-0.299,0.181-0.415,0.317s-0.21,0.301-0.282,0.492
		c-0.071,0.191-0.116,0.402-0.133,0.631H293.751z"/>
	<path d="M296.104,215.203h0.795l0.035,0.831c0.15-0.178,0.295-0.326,0.436-0.444c0.141-0.117,0.277-0.212,0.413-0.284
		c0.135-0.072,0.272-0.122,0.413-0.151c0.14-0.029,0.285-0.044,0.436-0.044c0.529,0,0.93,0.157,1.202,0.47
		c0.271,0.313,0.407,0.783,0.407,1.412v3.358h-0.893v-3.286c0-0.403-0.074-0.702-0.225-0.895c-0.15-0.193-0.375-0.29-0.672-0.29
		c-0.109,0-0.217,0.017-0.32,0.049c-0.104,0.032-0.213,0.089-0.326,0.169c-0.112,0.08-0.234,0.189-0.366,0.325
		c-0.132,0.138-0.279,0.309-0.443,0.514v3.414h-0.892V215.203z"/>
	<path d="M306.024,220.278c-0.201,0.052-0.41,0.089-0.625,0.11c-0.216,0.022-0.435,0.034-0.656,0.034
		c-0.646,0-1.128-0.146-1.446-0.438c-0.317-0.293-0.477-0.741-0.477-1.347v-2.686h-1.44v-0.749h1.44v-1.415l0.892-0.23v1.646h2.313
		v0.749h-2.313v2.614c0,0.369,0.099,0.646,0.295,0.828c0.197,0.183,0.486,0.274,0.869,0.274c0.164,0,0.344-0.013,0.539-0.039
		c0.194-0.025,0.397-0.065,0.609-0.12V220.278z"/>
</g>
<g enable-background="new    ">
	<path d="M245.901,228.541h-1.523v-0.738h2.426v4.404h1.532v0.743h-4.127v-0.743h1.692V228.541z M246.214,225.644
		c0.099,0,0.191,0.018,0.276,0.054s0.16,0.086,0.224,0.151c0.063,0.064,0.112,0.139,0.148,0.223
		c0.035,0.084,0.054,0.176,0.054,0.274c0,0.096-0.019,0.187-0.054,0.271c-0.036,0.086-0.086,0.161-0.148,0.226
		c-0.063,0.065-0.139,0.115-0.224,0.151s-0.178,0.054-0.276,0.054c-0.1,0-0.191-0.018-0.277-0.054s-0.16-0.086-0.223-0.151
		c-0.063-0.064-0.113-0.14-0.148-0.226c-0.036-0.085-0.055-0.176-0.055-0.271c0-0.099,0.019-0.19,0.055-0.274
		c0.035-0.084,0.085-0.158,0.148-0.223c0.063-0.065,0.137-0.115,0.223-0.151S246.114,225.644,246.214,225.644z"/>
	<path d="M254.489,226.536c-0.469-0.099-0.873-0.148-1.211-0.148c-0.803,0-1.205,0.42-1.205,1.262v0.902h2.256v0.743h-2.256v3.655
		h-0.906v-3.655h-1.656v-0.743h1.656V227.7c0-1.37,0.713-2.056,2.143-2.056c0.355,0,0.748,0.041,1.18,0.123V226.536z"/>
	<path d="M259.692,232.76c-0.232,0.089-0.471,0.154-0.715,0.197s-0.497,0.064-0.757,0.064c-0.813,0-1.439-0.221-1.879-0.662
		c-0.438-0.44-0.659-1.085-0.659-1.933c0-0.406,0.063-0.775,0.19-1.107c0.126-0.331,0.304-0.615,0.533-0.851
		c0.229-0.236,0.502-0.418,0.82-0.547c0.317-0.128,0.668-0.191,1.051-0.191c0.267,0,0.517,0.019,0.749,0.056
		c0.232,0.038,0.454,0.1,0.666,0.185v0.852c-0.223-0.116-0.449-0.201-0.68-0.254s-0.469-0.08-0.715-0.08
		c-0.229,0-0.445,0.044-0.648,0.131c-0.203,0.088-0.382,0.213-0.536,0.377c-0.153,0.164-0.274,0.364-0.364,0.6
		c-0.088,0.236-0.133,0.503-0.133,0.801c0,0.622,0.151,1.087,0.453,1.396c0.303,0.31,0.723,0.464,1.26,0.464
		c0.242,0,0.477-0.027,0.705-0.082c0.227-0.055,0.446-0.137,0.658-0.246V232.76z"/>
	<path d="M265.813,232.95h-4.414v-0.8l1.732-1.723c0.284-0.28,0.516-0.522,0.693-0.728s0.315-0.393,0.414-0.562
		c0.1-0.17,0.166-0.329,0.201-0.479c0.033-0.15,0.051-0.313,0.051-0.487c0-0.164-0.022-0.32-0.066-0.469
		c-0.045-0.149-0.113-0.28-0.205-0.393s-0.213-0.201-0.359-0.267c-0.146-0.064-0.322-0.098-0.527-0.098
		c-0.284,0-0.543,0.063-0.775,0.189c-0.232,0.127-0.445,0.291-0.641,0.492l-0.492-0.589c0.254-0.267,0.545-0.48,0.875-0.642
		c0.33-0.16,0.713-0.24,1.15-0.24c0.297,0,0.568,0.044,0.813,0.133s0.455,0.218,0.633,0.385c0.178,0.168,0.316,0.373,0.414,0.615
		c0.097,0.243,0.146,0.517,0.146,0.82c0,0.256-0.034,0.494-0.103,0.713s-0.172,0.437-0.311,0.653s-0.313,0.442-0.522,0.675
		s-0.459,0.486-0.746,0.764l-1.216,1.184h3.256V232.95z"/>
	<path d="M271.879,232.95h-1.185l-1.389-1.964l-1.374,1.964h-1.153l1.994-2.584l-1.902-2.563h1.144l1.354,1.979l1.327-1.979h1.103
		l-1.933,2.584L271.879,232.95z"/>
	<path d="M277.231,230.915c0,0.294-0.06,0.569-0.18,0.828c-0.119,0.258-0.299,0.483-0.537,0.677
		c-0.24,0.192-0.541,0.345-0.902,0.456c-0.363,0.111-0.785,0.166-1.268,0.166c-0.266,0-0.506-0.008-0.717-0.025
		c-0.213-0.017-0.41-0.039-0.596-0.066v-0.8c0.213,0.038,0.436,0.066,0.672,0.087s0.477,0.031,0.723,0.031
		c0.336,0,0.621-0.03,0.859-0.09c0.237-0.06,0.432-0.146,0.582-0.259c0.15-0.113,0.26-0.25,0.328-0.41
		c0.068-0.161,0.102-0.342,0.102-0.544c0-0.185-0.041-0.345-0.123-0.481s-0.197-0.251-0.346-0.344s-0.326-0.161-0.533-0.208
		c-0.207-0.046-0.434-0.068-0.68-0.068h-0.764v-0.733h0.775c0.201,0,0.385-0.026,0.551-0.08c0.166-0.053,0.307-0.129,0.426-0.228
		c0.117-0.1,0.208-0.222,0.271-0.367c0.063-0.145,0.094-0.31,0.094-0.494c0-0.359-0.109-0.621-0.328-0.785s-0.539-0.246-0.963-0.246
		c-0.227,0-0.459,0.022-0.697,0.067c-0.24,0.044-0.496,0.111-0.77,0.2v-0.779c0.116-0.041,0.24-0.078,0.372-0.11
		c0.132-0.033,0.263-0.061,0.395-0.082c0.132-0.022,0.263-0.04,0.392-0.052c0.131-0.012,0.256-0.018,0.375-0.018
		c0.355,0,0.668,0.038,0.938,0.115c0.271,0.077,0.496,0.188,0.678,0.33c0.181,0.145,0.318,0.318,0.41,0.523s0.139,0.436,0.139,0.692
		c0,0.383-0.099,0.704-0.295,0.964c-0.197,0.26-0.467,0.467-0.809,0.62c0.176,0.027,0.347,0.082,0.516,0.164
		c0.17,0.082,0.322,0.188,0.457,0.315s0.244,0.279,0.328,0.453C277.19,230.509,277.231,230.703,277.231,230.915z"/>
	<path d="M280.852,227.709c0.105,0,0.206,0.021,0.302,0.064s0.18,0.1,0.252,0.172c0.071,0.072,0.129,0.155,0.172,0.251
		s0.063,0.197,0.063,0.303c0,0.109-0.021,0.211-0.063,0.305c-0.043,0.095-0.101,0.177-0.172,0.249
		c-0.072,0.072-0.156,0.128-0.252,0.169s-0.196,0.062-0.302,0.062c-0.11,0-0.212-0.021-0.306-0.062s-0.177-0.097-0.248-0.169
		c-0.072-0.072-0.129-0.154-0.17-0.249c-0.041-0.094-0.061-0.195-0.061-0.305c0-0.105,0.02-0.207,0.061-0.303
		s0.098-0.179,0.17-0.251c0.071-0.072,0.154-0.129,0.248-0.172S280.741,227.709,280.852,227.709z M280.852,231.468
		c0.105,0,0.206,0.021,0.302,0.063c0.096,0.043,0.18,0.101,0.252,0.172c0.071,0.072,0.129,0.156,0.172,0.252
		s0.063,0.196,0.063,0.302c0,0.109-0.021,0.211-0.063,0.306c-0.043,0.094-0.101,0.177-0.172,0.248
		c-0.072,0.072-0.156,0.129-0.252,0.17s-0.196,0.061-0.302,0.061c-0.11,0-0.212-0.02-0.306-0.061s-0.177-0.098-0.248-0.17
		c-0.072-0.071-0.129-0.154-0.17-0.248c-0.041-0.095-0.061-0.196-0.061-0.306c0-0.105,0.02-0.206,0.061-0.302s0.098-0.18,0.17-0.252
		c0.071-0.071,0.154-0.129,0.248-0.172C280.64,231.49,280.741,231.468,280.852,231.468z"/>
	<path d="M286.163,227.018h-1.543v-0.77h4.009v0.77h-1.544v5.152h1.544v0.779h-4.009v-0.779h1.543V227.018z"/>
	<path d="M294.899,226.536c-0.469-0.099-0.872-0.148-1.21-0.148c-0.804,0-1.205,0.42-1.205,1.262v0.902h2.256v0.743h-2.256v3.655
		h-0.907v-3.655h-1.656v-0.743h1.656V227.7c0-1.37,0.714-2.056,2.143-2.056c0.355,0,0.749,0.041,1.18,0.123V226.536z"/>
	<path d="M300.103,232.76c-0.232,0.089-0.471,0.154-0.715,0.197s-0.496,0.064-0.756,0.064c-0.814,0-1.439-0.221-1.879-0.662
		c-0.439-0.44-0.659-1.085-0.659-1.933c0-0.406,0.063-0.775,0.19-1.107c0.125-0.331,0.303-0.615,0.533-0.851
		c0.229-0.236,0.502-0.418,0.82-0.547c0.316-0.128,0.668-0.191,1.051-0.191c0.266,0,0.516,0.019,0.748,0.056
		c0.232,0.038,0.455,0.1,0.666,0.185v0.852c-0.222-0.116-0.448-0.201-0.679-0.254c-0.231-0.053-0.47-0.08-0.716-0.08
		c-0.229,0-0.445,0.044-0.648,0.131c-0.203,0.088-0.381,0.213-0.535,0.377s-0.275,0.364-0.364,0.6
		c-0.089,0.236-0.134,0.503-0.134,0.801c0,0.622,0.152,1.087,0.454,1.396c0.303,0.31,0.722,0.464,1.259,0.464
		c0.242,0,0.478-0.027,0.705-0.082c0.227-0.055,0.447-0.137,0.658-0.246V232.76z"/>
	<path d="M306.455,229.525c0,0.321-0.024,0.629-0.074,0.923s-0.129,0.567-0.238,0.82s-0.251,0.482-0.426,0.689
		c-0.174,0.207-0.388,0.384-0.641,0.531c-0.253,0.146-0.547,0.26-0.882,0.341c-0.335,0.08-0.717,0.12-1.144,0.12h-1.436v-6.701
		h1.728c1.047,0,1.826,0.27,2.341,0.808S306.455,228.417,306.455,229.525z M305.497,229.591c0-0.475-0.045-0.876-0.134-1.204
		s-0.224-0.594-0.405-0.795c-0.182-0.202-0.408-0.348-0.682-0.438s-0.595-0.136-0.964-0.136h-0.784v5.143h0.682
		C304.734,232.161,305.497,231.304,305.497,229.591z"/>
	<path d="M312.131,230.334c0,0.4-0.056,0.767-0.169,1.101c-0.113,0.333-0.275,0.618-0.487,0.855
		c-0.212,0.238-0.47,0.423-0.774,0.554c-0.305,0.132-0.649,0.197-1.035,0.197c-0.369,0-0.7-0.057-0.992-0.171
		c-0.293-0.115-0.54-0.283-0.744-0.505c-0.203-0.223-0.358-0.498-0.466-0.826c-0.108-0.328-0.161-0.705-0.161-1.133
		c0-0.4,0.057-0.765,0.168-1.095c0.113-0.33,0.275-0.613,0.488-0.851c0.211-0.238,0.469-0.423,0.773-0.554
		c0.305-0.132,0.649-0.198,1.035-0.198c0.369,0,0.701,0.058,0.992,0.172c0.293,0.115,0.541,0.282,0.744,0.503
		s0.359,0.495,0.467,0.823S312.131,229.912,312.131,230.334z M311.218,230.375c0-0.317-0.035-0.595-0.104-0.833
		c-0.07-0.237-0.171-0.436-0.3-0.595c-0.131-0.158-0.288-0.278-0.475-0.358c-0.186-0.08-0.395-0.12-0.623-0.12
		c-0.266,0-0.494,0.052-0.684,0.156c-0.19,0.104-0.346,0.243-0.467,0.418c-0.121,0.174-0.211,0.376-0.268,0.607
		c-0.056,0.23-0.084,0.473-0.084,0.725c0,0.318,0.035,0.597,0.105,0.836s0.17,0.438,0.299,0.598
		c0.131,0.159,0.287,0.278,0.473,0.358c0.184,0.081,0.393,0.121,0.625,0.121c0.268,0,0.495-0.053,0.685-0.156
		c0.19-0.104,0.345-0.244,0.467-0.418c0.121-0.175,0.21-0.377,0.267-0.607C311.19,230.875,311.218,230.632,311.218,230.375z"/>
	<path d="M317.903,230.334c0,0.4-0.056,0.767-0.169,1.101c-0.112,0.333-0.274,0.618-0.487,0.855
		c-0.211,0.238-0.47,0.423-0.773,0.554c-0.305,0.132-0.65,0.197-1.036,0.197c-0.369,0-0.7-0.057-0.991-0.171
		c-0.293-0.115-0.541-0.283-0.744-0.505c-0.203-0.223-0.359-0.498-0.467-0.826s-0.161-0.705-0.161-1.133
		c0-0.4,0.057-0.765,0.169-1.095c0.113-0.33,0.275-0.613,0.487-0.851c0.212-0.238,0.47-0.423,0.774-0.554
		c0.304-0.132,0.648-0.198,1.035-0.198c0.369,0,0.7,0.058,0.992,0.172c0.293,0.115,0.54,0.282,0.744,0.503
		c0.203,0.221,0.358,0.495,0.466,0.823C317.851,229.536,317.903,229.912,317.903,230.334z M316.991,230.375
		c0-0.317-0.035-0.595-0.105-0.833c-0.07-0.237-0.17-0.436-0.3-0.595c-0.13-0.158-0.288-0.278-0.474-0.358
		c-0.187-0.08-0.395-0.12-0.623-0.12c-0.267,0-0.495,0.052-0.685,0.156c-0.19,0.104-0.345,0.243-0.467,0.418
		c-0.121,0.174-0.21,0.376-0.267,0.607c-0.057,0.23-0.084,0.473-0.084,0.725c0,0.318,0.035,0.597,0.104,0.836
		c0.07,0.239,0.17,0.438,0.3,0.598s0.287,0.278,0.472,0.358c0.185,0.081,0.394,0.121,0.626,0.121c0.267,0,0.494-0.053,0.684-0.156
		c0.19-0.104,0.346-0.244,0.467-0.418c0.121-0.175,0.211-0.377,0.268-0.607C316.963,230.875,316.991,230.632,316.991,230.375z"/>
	<path d="M319.405,227.802h0.816l0.025,0.948c0.304-0.365,0.604-0.631,0.899-0.795s0.594-0.246,0.896-0.246
		c0.533,0,0.937,0.173,1.212,0.519c0.274,0.345,0.402,0.857,0.382,1.538h-0.902c0.01-0.451-0.056-0.778-0.197-0.982
		c-0.143-0.203-0.35-0.305-0.623-0.305c-0.119,0-0.24,0.021-0.361,0.064c-0.121,0.042-0.246,0.11-0.375,0.205
		c-0.127,0.094-0.264,0.214-0.406,0.361c-0.145,0.146-0.299,0.324-0.463,0.533v3.307h-0.902V227.802z"/>
</g>
<g>
	<rect x="234.826" y="337.702" opacity="0.8" fill="#C1C3C3" enable-background="new    " width="33.022" height="12.83"/>
	<g enable-background="new    ">
		<path d="M241.39,347.626h-3.81v-6.701h3.81v0.77h-2.896v2.076h2.783v0.77h-2.783v2.307h2.896V347.626z"/>
		<path d="M244.747,341.695h-1.543v-0.77h4.01v0.77h-1.543v5.152h1.543v0.779h-4.01v-0.779h1.543V341.695z"/>
		<path d="M259.118,345.503c0,0.309-0.055,0.597-0.166,0.867c-0.111,0.27-0.27,0.505-0.475,0.705
			c-0.205,0.199-0.451,0.356-0.74,0.472c-0.289,0.114-0.609,0.171-0.961,0.171c-0.369,0-0.696-0.059-0.98-0.177
			c-0.283-0.117-0.521-0.299-0.713-0.543s-0.336-0.553-0.436-0.926c-0.099-0.372-0.148-0.813-0.148-1.322
			c0-0.342,0.022-0.674,0.066-0.995c0.045-0.321,0.119-0.623,0.221-0.907c0.104-0.283,0.239-0.544,0.41-0.779
			s0.384-0.438,0.639-0.607c0.254-0.169,0.555-0.301,0.9-0.395c0.344-0.095,0.744-0.142,1.199-0.142h0.661v0.779h-0.718
			c-0.4,0-0.747,0.048-1.041,0.144s-0.54,0.231-0.738,0.405s-0.35,0.385-0.456,0.631s-0.173,0.521-0.2,0.825l-0.02,0.21
			c0.215-0.126,0.463-0.228,0.745-0.305s0.587-0.115,0.915-0.115c0.338,0,0.635,0.05,0.89,0.148c0.255,0.1,0.467,0.236,0.636,0.413
			c0.17,0.176,0.297,0.387,0.383,0.633C259.075,344.94,259.118,345.21,259.118,345.503z M258.186,345.56
			c0-0.205-0.024-0.391-0.074-0.556c-0.05-0.166-0.128-0.307-0.233-0.421s-0.24-0.203-0.402-0.267s-0.356-0.095-0.582-0.095
			c-0.13,0-0.262,0.012-0.395,0.036c-0.133,0.023-0.264,0.057-0.393,0.1c-0.128,0.043-0.25,0.092-0.367,0.146
			c-0.115,0.055-0.222,0.112-0.316,0.174c0,0.441,0.029,0.81,0.092,1.105c0.061,0.295,0.152,0.532,0.273,0.71
			c0.122,0.178,0.271,0.304,0.449,0.379s0.383,0.113,0.615,0.113c0.195,0,0.373-0.032,0.535-0.095
			c0.163-0.063,0.303-0.157,0.421-0.28s0.21-0.272,0.276-0.448C258.152,345.987,258.186,345.786,258.186,345.56z"/>
		<path d="M264.964,344.279c0,0.513-0.052,0.979-0.154,1.402c-0.103,0.422-0.258,0.784-0.467,1.087
			c-0.209,0.302-0.467,0.536-0.776,0.702s-0.673,0.248-1.09,0.248c-0.358,0-0.685-0.067-0.979-0.202
			c-0.293-0.135-0.545-0.343-0.753-0.623c-0.209-0.28-0.369-0.637-0.482-1.071c-0.112-0.434-0.169-0.948-0.169-1.543
			c0-0.513,0.053-0.981,0.156-1.405c0.104-0.424,0.26-0.787,0.467-1.089c0.207-0.303,0.465-0.537,0.776-0.703
			c0.312-0.165,0.673-0.248,1.087-0.248c0.359,0,0.686,0.067,0.979,0.202s0.545,0.344,0.754,0.626
			c0.208,0.281,0.369,0.64,0.481,1.074C264.907,343.169,264.964,343.684,264.964,344.279z M260.995,344.248
			c0,0.106,0.001,0.212,0.002,0.318c0.002,0.105,0.008,0.208,0.019,0.308l2.835-2.097c-0.051-0.175-0.116-0.334-0.194-0.478
			c-0.079-0.144-0.173-0.268-0.282-0.371c-0.109-0.104-0.234-0.186-0.374-0.244c-0.141-0.058-0.298-0.087-0.472-0.087
			c-0.232,0-0.443,0.057-0.633,0.169c-0.19,0.113-0.352,0.281-0.485,0.505c-0.133,0.225-0.235,0.501-0.308,0.831
			C261.031,343.432,260.995,343.814,260.995,344.248z M264.062,344.309c0-0.116-0.005-0.231-0.014-0.346
			c-0.008-0.114-0.018-0.227-0.027-0.336l-2.836,2.107c0.052,0.178,0.116,0.342,0.195,0.492c0.078,0.15,0.174,0.279,0.284,0.387
			c0.111,0.107,0.237,0.191,0.38,0.251c0.142,0.061,0.303,0.09,0.484,0.09c0.232,0,0.443-0.057,0.633-0.169s0.352-0.28,0.484-0.503
			c0.134-0.222,0.236-0.498,0.308-0.827C264.025,345.125,264.062,344.744,264.062,344.309z"/>
	</g>
	
		<rect x="234.826" y="337.702" fill="none" stroke="#000000" stroke-width="0.6" stroke-miterlimit="10" width="33.022" height="12.83"/>
	
		<line fill="none" stroke="#000000" stroke-width="0.6" stroke-miterlimit="10" x1="267.851" y1="337.702" x2="267.851" y2="331.26"/>
</g>
<g enable-background="new    ">
	<path d="M246.214,197.035c0.105,0,0.207,0.021,0.303,0.064s0.179,0.1,0.251,0.172c0.071,0.072,0.129,0.155,0.171,0.251
		c0.043,0.096,0.064,0.197,0.064,0.303c0,0.109-0.021,0.211-0.064,0.305c-0.042,0.095-0.1,0.177-0.171,0.249
		c-0.072,0.072-0.155,0.128-0.251,0.169s-0.197,0.062-0.303,0.062c-0.109,0-0.211-0.021-0.305-0.062
		c-0.095-0.041-0.178-0.097-0.249-0.169c-0.072-0.072-0.128-0.154-0.169-0.249c-0.041-0.094-0.063-0.195-0.063-0.305
		c0-0.105,0.021-0.207,0.063-0.303s0.097-0.179,0.169-0.251c0.071-0.072,0.154-0.129,0.249-0.172
		C246.003,197.056,246.104,197.035,246.214,197.035z M246.214,200.793c0.105,0,0.207,0.021,0.303,0.063
		c0.096,0.043,0.179,0.101,0.251,0.172c0.071,0.072,0.129,0.156,0.171,0.252c0.043,0.096,0.064,0.196,0.064,0.302
		c0,0.109-0.021,0.211-0.064,0.306c-0.042,0.094-0.1,0.177-0.171,0.248c-0.072,0.072-0.155,0.129-0.251,0.17
		s-0.197,0.061-0.303,0.061c-0.109,0-0.211-0.02-0.305-0.061c-0.095-0.041-0.178-0.098-0.249-0.17
		c-0.072-0.071-0.128-0.154-0.169-0.248c-0.041-0.095-0.063-0.196-0.063-0.306c0-0.105,0.021-0.206,0.063-0.302
		s0.097-0.18,0.169-0.252c0.071-0.071,0.154-0.129,0.249-0.172C246.003,200.815,246.104,200.793,246.214,200.793z"/>
	<path d="M254.499,198.85c0,0.321-0.025,0.629-0.074,0.923c-0.05,0.294-0.129,0.567-0.238,0.82s-0.252,0.482-0.426,0.689
		s-0.389,0.384-0.641,0.531c-0.254,0.146-0.547,0.26-0.883,0.341c-0.334,0.08-0.716,0.12-1.143,0.12h-1.436v-6.701h1.728
		c1.046,0,1.826,0.27,2.341,0.808C254.241,196.919,254.499,197.743,254.499,198.85z M253.54,198.917
		c0-0.475-0.045-0.876-0.133-1.204c-0.09-0.328-0.225-0.594-0.406-0.795c-0.181-0.202-0.408-0.348-0.682-0.438
		s-0.594-0.136-0.963-0.136h-0.785v5.143h0.682C252.778,201.486,253.54,200.629,253.54,198.917z"/>
	<path d="M260.364,198.88c0,0.603-0.071,1.122-0.213,1.559c-0.143,0.438-0.334,0.8-0.574,1.085
		c-0.241,0.285-0.523,0.497-0.846,0.636c-0.323,0.139-0.664,0.207-1.023,0.207c-0.431,0-0.806-0.077-1.125-0.232
		c-0.32-0.156-0.584-0.381-0.795-0.675c-0.21-0.294-0.366-0.651-0.469-1.074c-0.103-0.422-0.154-0.897-0.154-1.428
		c0-0.595,0.07-1.11,0.211-1.548c0.14-0.438,0.33-0.799,0.571-1.085c0.241-0.285,0.522-0.497,0.843-0.636
		c0.322-0.138,0.662-0.207,1.021-0.207c0.431,0,0.806,0.078,1.126,0.235c0.319,0.157,0.585,0.382,0.797,0.675
		c0.212,0.292,0.37,0.648,0.475,1.068C260.312,197.881,260.364,198.355,260.364,198.88z M259.415,198.948
		c0-0.394-0.029-0.753-0.09-1.079c-0.059-0.327-0.156-0.607-0.289-0.844s-0.305-0.419-0.516-0.549
		c-0.21-0.13-0.464-0.194-0.761-0.194c-0.287,0-0.534,0.069-0.741,0.207c-0.207,0.139-0.377,0.327-0.51,0.564
		c-0.134,0.237-0.232,0.516-0.298,0.836c-0.065,0.319-0.097,0.658-0.097,1.018c0,0.396,0.03,0.758,0.092,1.084
		s0.158,0.606,0.289,0.841c0.133,0.234,0.303,0.416,0.511,0.546s0.46,0.195,0.754,0.195c0.287,0,0.534-0.069,0.743-0.208
		s0.381-0.326,0.516-0.563c0.135-0.238,0.234-0.516,0.3-0.833C259.383,199.65,259.415,199.31,259.415,198.948z"/>
	<path d="M265.757,202.275h-4.209v-0.83h1.723v-4.892l-1.604,0.872l-0.328-0.76l2.133-1.122h0.789v5.901h1.496V202.275z"/>
</g>
<g enable-background="new    ">
	<path fill="none" stroke="#000000" stroke-width="0.2" stroke-miterlimit="10" d="M246.214,197.035
		c0.105,0,0.207,0.021,0.303,0.064s0.179,0.1,0.251,0.172c0.071,0.072,0.129,0.155,0.171,0.251c0.043,0.096,0.064,0.197,0.064,0.303
		c0,0.109-0.021,0.211-0.064,0.305c-0.042,0.095-0.1,0.177-0.171,0.249c-0.072,0.072-0.155,0.128-0.251,0.169
		s-0.197,0.062-0.303,0.062c-0.109,0-0.211-0.021-0.305-0.062c-0.095-0.041-0.178-0.097-0.249-0.169
		c-0.072-0.072-0.128-0.154-0.169-0.249c-0.041-0.094-0.063-0.195-0.063-0.305c0-0.105,0.021-0.207,0.063-0.303
		s0.097-0.179,0.169-0.251c0.071-0.072,0.154-0.129,0.249-0.172C246.003,197.056,246.104,197.035,246.214,197.035z M246.214,200.793
		c0.105,0,0.207,0.021,0.303,0.063c0.096,0.043,0.179,0.101,0.251,0.172c0.071,0.072,0.129,0.156,0.171,0.252
		c0.043,0.096,0.064,0.196,0.064,0.302c0,0.109-0.021,0.211-0.064,0.306c-0.042,0.094-0.1,0.177-0.171,0.248
		c-0.072,0.072-0.155,0.129-0.251,0.17s-0.197,0.061-0.303,0.061c-0.109,0-0.211-0.02-0.305-0.061
		c-0.095-0.041-0.178-0.098-0.249-0.17c-0.072-0.071-0.128-0.154-0.169-0.248c-0.041-0.095-0.063-0.196-0.063-0.306
		c0-0.105,0.021-0.206,0.063-0.302s0.097-0.18,0.169-0.252c0.071-0.071,0.154-0.129,0.249-0.172
		C246.003,200.815,246.104,200.793,246.214,200.793z"/>
	<path fill="none" stroke="#000000" stroke-width="0.2" stroke-miterlimit="10" d="M254.499,198.85c0,0.321-0.025,0.629-0.074,0.923
		c-0.05,0.294-0.129,0.567-0.238,0.82s-0.252,0.482-0.426,0.689s-0.389,0.384-0.641,0.531c-0.254,0.146-0.547,0.26-0.883,0.341
		c-0.334,0.08-0.716,0.12-1.143,0.12h-1.436v-6.701h1.728c1.046,0,1.826,0.27,2.341,0.808
		C254.241,196.919,254.499,197.743,254.499,198.85z M253.54,198.917c0-0.475-0.045-0.876-0.133-1.204
		c-0.09-0.328-0.225-0.594-0.406-0.795c-0.181-0.202-0.408-0.348-0.682-0.438s-0.594-0.136-0.963-0.136h-0.785v5.143h0.682
		C252.778,201.486,253.54,200.629,253.54,198.917z"/>
	<path fill="none" stroke="#000000" stroke-width="0.2" stroke-miterlimit="10" d="M260.364,198.88c0,0.603-0.071,1.122-0.213,1.559
		c-0.143,0.438-0.334,0.8-0.574,1.085c-0.241,0.285-0.523,0.497-0.846,0.636c-0.323,0.139-0.664,0.207-1.023,0.207
		c-0.431,0-0.806-0.077-1.125-0.232c-0.32-0.156-0.584-0.381-0.795-0.675c-0.21-0.294-0.366-0.651-0.469-1.074
		c-0.103-0.422-0.154-0.897-0.154-1.428c0-0.595,0.07-1.11,0.211-1.548c0.14-0.438,0.33-0.799,0.571-1.085
		c0.241-0.285,0.522-0.497,0.843-0.636c0.322-0.138,0.662-0.207,1.021-0.207c0.431,0,0.806,0.078,1.126,0.235
		c0.319,0.157,0.585,0.382,0.797,0.675c0.212,0.292,0.37,0.648,0.475,1.068C260.312,197.881,260.364,198.355,260.364,198.88z
		 M259.415,198.948c0-0.394-0.029-0.753-0.09-1.079c-0.059-0.327-0.156-0.607-0.289-0.844s-0.305-0.419-0.516-0.549
		c-0.21-0.13-0.464-0.194-0.761-0.194c-0.287,0-0.534,0.069-0.741,0.207c-0.207,0.139-0.377,0.327-0.51,0.564
		c-0.134,0.237-0.232,0.516-0.298,0.836c-0.065,0.319-0.097,0.658-0.097,1.018c0,0.396,0.03,0.758,0.092,1.084
		s0.158,0.606,0.289,0.841c0.133,0.234,0.303,0.416,0.511,0.546s0.46,0.195,0.754,0.195c0.287,0,0.534-0.069,0.743-0.208
		s0.381-0.326,0.516-0.563c0.135-0.238,0.234-0.516,0.3-0.833C259.383,199.65,259.415,199.31,259.415,198.948z"/>
	<path fill="none" stroke="#000000" stroke-width="0.2" stroke-miterlimit="10" d="M265.757,202.275h-4.209v-0.83h1.723v-4.892
		l-1.604,0.872l-0.328-0.76l2.133-1.122h0.789v5.901h1.496V202.275z"/>
</g>
<g enable-background="new    ">
	<path d="M79.574,95.219c0.105,0,0.207,0.021,0.302,0.064s0.179,0.1,0.251,0.172c0.071,0.072,0.129,0.155,0.171,0.251
		c0.043,0.096,0.064,0.197,0.064,0.303c0,0.109-0.021,0.211-0.064,0.305c-0.042,0.095-0.1,0.177-0.171,0.249
		c-0.072,0.072-0.156,0.128-0.251,0.169s-0.197,0.062-0.302,0.062c-0.11,0-0.211-0.021-0.305-0.062
		c-0.094-0.041-0.177-0.097-0.249-0.169c-0.072-0.072-0.128-0.154-0.169-0.249c-0.041-0.094-0.062-0.195-0.062-0.305
		c0-0.105,0.021-0.207,0.062-0.303s0.097-0.179,0.169-0.251c0.071-0.072,0.154-0.129,0.249-0.172
		C79.363,95.241,79.464,95.219,79.574,95.219z M79.574,98.978c0.105,0,0.207,0.021,0.302,0.063c0.096,0.043,0.179,0.101,0.251,0.172
		c0.071,0.072,0.129,0.156,0.171,0.252c0.043,0.096,0.064,0.196,0.064,0.302c0,0.109-0.021,0.211-0.064,0.306
		c-0.042,0.094-0.1,0.177-0.171,0.248c-0.072,0.072-0.156,0.129-0.251,0.17s-0.197,0.061-0.302,0.061
		c-0.11,0-0.211-0.02-0.305-0.061c-0.094-0.041-0.177-0.098-0.249-0.17c-0.072-0.071-0.128-0.154-0.169-0.248
		c-0.041-0.095-0.062-0.196-0.062-0.306c0-0.105,0.021-0.206,0.062-0.302s0.097-0.18,0.169-0.252
		c0.071-0.071,0.154-0.129,0.249-0.172C79.363,99,79.464,98.978,79.574,98.978z"/>
	<path d="M84.885,94.528h-1.543v-0.77h4.009v0.77h-1.543v5.152h1.543v0.779h-4.009V99.68h1.543V94.528z"/>
	<path d="M93.775,93.758l-0.451,6.701H92.14l-0.831-2.384l-0.23-0.765l-0.241,0.826l-0.769,2.322h-1.143l-0.462-6.701h0.861
		l0.262,4.559l0.077,1.25l0.323-1.061l0.81-2.486h0.631l0.933,2.666l0.313,0.881l0.021-0.922l0.267-4.887H93.775z"/>
	<path d="M99.046,98.424c0,0.294-0.06,0.569-0.18,0.828c-0.12,0.258-0.299,0.483-0.538,0.677c-0.24,0.192-0.541,0.345-0.902,0.456
		c-0.363,0.111-0.785,0.166-1.267,0.166c-0.267,0-0.506-0.008-0.718-0.025c-0.212-0.017-0.41-0.039-0.595-0.066v-0.8
		c0.212,0.038,0.436,0.066,0.672,0.087c0.235,0.021,0.477,0.031,0.723,0.031c0.335,0,0.621-0.03,0.859-0.09
		c0.237-0.06,0.431-0.146,0.582-0.259c0.15-0.113,0.26-0.25,0.328-0.41c0.068-0.161,0.103-0.342,0.103-0.544
		c0-0.185-0.041-0.345-0.123-0.481s-0.197-0.251-0.346-0.344c-0.149-0.093-0.327-0.161-0.533-0.208
		c-0.207-0.046-0.434-0.068-0.68-0.068h-0.764V96.64h0.774c0.201,0,0.385-0.026,0.551-0.08c0.166-0.053,0.308-0.129,0.426-0.228
		c0.118-0.1,0.208-0.222,0.271-0.367c0.063-0.145,0.095-0.31,0.095-0.494c0-0.359-0.109-0.621-0.328-0.785s-0.54-0.246-0.964-0.246
		c-0.226,0-0.458,0.022-0.697,0.067c-0.239,0.044-0.496,0.111-0.769,0.2v-0.779c0.116-0.041,0.24-0.078,0.372-0.11
		c0.131-0.033,0.263-0.061,0.395-0.082c0.132-0.022,0.262-0.04,0.392-0.052s0.255-0.018,0.375-0.018
		c0.355,0,0.668,0.038,0.938,0.115s0.496,0.188,0.677,0.33c0.181,0.145,0.318,0.318,0.41,0.523c0.093,0.205,0.139,0.436,0.139,0.692
		c0,0.383-0.098,0.704-0.295,0.964c-0.196,0.26-0.466,0.467-0.808,0.62c0.175,0.027,0.346,0.082,0.516,0.164
		c0.169,0.082,0.321,0.188,0.456,0.315c0.135,0.128,0.245,0.279,0.328,0.453C99.004,98.019,99.046,98.212,99.046,98.424z"/>
</g>
<g enable-background="new    ">
	<path fill="none" stroke="#000000" stroke-width="0.2" stroke-miterlimit="10" d="M79.574,95.219c0.105,0,0.207,0.021,0.302,0.064
		s0.179,0.1,0.251,0.172c0.071,0.072,0.129,0.155,0.171,0.251c0.043,0.096,0.064,0.197,0.064,0.303c0,0.109-0.021,0.211-0.064,0.305
		c-0.042,0.095-0.1,0.177-0.171,0.249c-0.072,0.072-0.156,0.128-0.251,0.169s-0.197,0.062-0.302,0.062
		c-0.11,0-0.211-0.021-0.305-0.062c-0.094-0.041-0.177-0.097-0.249-0.169c-0.072-0.072-0.128-0.154-0.169-0.249
		c-0.041-0.094-0.062-0.195-0.062-0.305c0-0.105,0.021-0.207,0.062-0.303s0.097-0.179,0.169-0.251
		c0.071-0.072,0.154-0.129,0.249-0.172C79.363,95.241,79.464,95.219,79.574,95.219z M79.574,98.978c0.105,0,0.207,0.021,0.302,0.063
		c0.096,0.043,0.179,0.101,0.251,0.172c0.071,0.072,0.129,0.156,0.171,0.252c0.043,0.096,0.064,0.196,0.064,0.302
		c0,0.109-0.021,0.211-0.064,0.306c-0.042,0.094-0.1,0.177-0.171,0.248c-0.072,0.072-0.156,0.129-0.251,0.17
		s-0.197,0.061-0.302,0.061c-0.11,0-0.211-0.02-0.305-0.061c-0.094-0.041-0.177-0.098-0.249-0.17
		c-0.072-0.071-0.128-0.154-0.169-0.248c-0.041-0.095-0.062-0.196-0.062-0.306c0-0.105,0.021-0.206,0.062-0.302
		s0.097-0.18,0.169-0.252c0.071-0.071,0.154-0.129,0.249-0.172C79.363,99,79.464,98.978,79.574,98.978z"/>
	<path fill="none" stroke="#000000" stroke-width="0.2" stroke-miterlimit="10" d="M84.885,94.528h-1.543v-0.77h4.009v0.77h-1.543
		v5.152h1.543v0.779h-4.009V99.68h1.543V94.528z"/>
	<path fill="none" stroke="#000000" stroke-width="0.2" stroke-miterlimit="10" d="M93.775,93.758l-0.451,6.701H92.14l-0.831-2.384
		l-0.23-0.765l-0.241,0.826l-0.769,2.322h-1.143l-0.462-6.701h0.861l0.262,4.559l0.077,1.25l0.323-1.061l0.81-2.486h0.631
		l0.933,2.666l0.313,0.881l0.021-0.922l0.267-4.887H93.775z"/>
	<path fill="none" stroke="#000000" stroke-width="0.2" stroke-miterlimit="10" d="M99.046,98.424c0,0.294-0.06,0.569-0.18,0.828
		c-0.12,0.258-0.299,0.483-0.538,0.677c-0.24,0.192-0.541,0.345-0.902,0.456c-0.363,0.111-0.785,0.166-1.267,0.166
		c-0.267,0-0.506-0.008-0.718-0.025c-0.212-0.017-0.41-0.039-0.595-0.066v-0.8c0.212,0.038,0.436,0.066,0.672,0.087
		c0.235,0.021,0.477,0.031,0.723,0.031c0.335,0,0.621-0.03,0.859-0.09c0.237-0.06,0.431-0.146,0.582-0.259
		c0.15-0.113,0.26-0.25,0.328-0.41c0.068-0.161,0.103-0.342,0.103-0.544c0-0.185-0.041-0.345-0.123-0.481s-0.197-0.251-0.346-0.344
		c-0.149-0.093-0.327-0.161-0.533-0.208c-0.207-0.046-0.434-0.068-0.68-0.068h-0.764V96.64h0.774c0.201,0,0.385-0.026,0.551-0.08
		c0.166-0.053,0.308-0.129,0.426-0.228c0.118-0.1,0.208-0.222,0.271-0.367c0.063-0.145,0.095-0.31,0.095-0.494
		c0-0.359-0.109-0.621-0.328-0.785s-0.54-0.246-0.964-0.246c-0.226,0-0.458,0.022-0.697,0.067c-0.239,0.044-0.496,0.111-0.769,0.2
		v-0.779c0.116-0.041,0.24-0.078,0.372-0.11c0.131-0.033,0.263-0.061,0.395-0.082c0.132-0.022,0.262-0.04,0.392-0.052
		s0.255-0.018,0.375-0.018c0.355,0,0.668,0.038,0.938,0.115s0.496,0.188,0.677,0.33c0.181,0.145,0.318,0.318,0.41,0.523
		c0.093,0.205,0.139,0.436,0.139,0.692c0,0.383-0.098,0.704-0.295,0.964c-0.196,0.26-0.466,0.467-0.808,0.62
		c0.175,0.027,0.346,0.082,0.516,0.164c0.169,0.082,0.321,0.188,0.456,0.315c0.135,0.128,0.245,0.279,0.328,0.453
		C99.004,98.019,99.046,98.212,99.046,98.424z"/>
</g>
<g>
	<g enable-background="new    ">
		<path d="M81.907,116.153c0,0.428-0.059,0.81-0.177,1.146c-0.118,0.337-0.286,0.622-0.502,0.856
			c-0.217,0.234-0.481,0.414-0.792,0.538c-0.312,0.125-0.662,0.188-1.051,0.188c-0.304,0-0.615-0.029-0.933-0.087
			c-0.318-0.059-0.632-0.15-0.943-0.277v-6.941H78.4v1.994l-0.041,0.953c0.256-0.345,0.531-0.588,0.823-0.73
			c0.292-0.142,0.606-0.213,0.941-0.213c0.294,0,0.552,0.063,0.774,0.186s0.409,0.296,0.559,0.52
			c0.15,0.225,0.263,0.494,0.338,0.811S81.907,115.763,81.907,116.153z M80.994,116.194c0-0.27-0.02-0.518-0.059-0.743
			c-0.039-0.226-0.102-0.419-0.187-0.579c-0.085-0.161-0.195-0.287-0.328-0.377c-0.133-0.091-0.292-0.137-0.477-0.137
			c-0.113,0-0.228,0.019-0.344,0.055c-0.116,0.035-0.237,0.096-0.361,0.179c-0.125,0.084-0.256,0.195-0.395,0.334
			c-0.138,0.138-0.286,0.31-0.443,0.515v2.497c0.174,0.068,0.352,0.122,0.533,0.161c0.181,0.04,0.354,0.06,0.518,0.06
			c0.205,0,0.4-0.032,0.587-0.098c0.186-0.064,0.35-0.174,0.492-0.325c0.142-0.152,0.254-0.354,0.338-0.605
			C80.952,116.878,80.994,116.567,80.994,116.194z"/>
		<path d="M87.762,116.204c0,0.4-0.056,0.767-0.169,1.101c-0.112,0.333-0.275,0.618-0.487,0.855
			c-0.212,0.238-0.47,0.423-0.774,0.554c-0.305,0.132-0.65,0.197-1.036,0.197c-0.369,0-0.7-0.057-0.992-0.171
			c-0.292-0.115-0.54-0.283-0.744-0.505c-0.203-0.223-0.359-0.498-0.466-0.826c-0.108-0.328-0.162-0.705-0.162-1.133
			c0-0.4,0.057-0.765,0.169-1.095c0.113-0.33,0.275-0.613,0.487-0.851c0.212-0.238,0.47-0.423,0.774-0.554
			c0.304-0.132,0.649-0.198,1.035-0.198c0.369,0,0.7,0.058,0.992,0.172c0.292,0.115,0.54,0.282,0.744,0.503
			c0.203,0.221,0.359,0.495,0.466,0.823C87.708,115.405,87.762,115.781,87.762,116.204z M86.849,116.245
			c0-0.317-0.035-0.595-0.105-0.833c-0.07-0.237-0.17-0.436-0.3-0.595c-0.13-0.158-0.288-0.278-0.474-0.358
			c-0.186-0.08-0.394-0.12-0.623-0.12c-0.267,0-0.495,0.052-0.685,0.156c-0.19,0.104-0.345,0.243-0.467,0.418
			c-0.121,0.174-0.21,0.376-0.267,0.607c-0.056,0.23-0.084,0.473-0.084,0.725c0,0.318,0.035,0.597,0.105,0.836
			c0.07,0.239,0.17,0.438,0.3,0.598s0.287,0.278,0.472,0.358c0.185,0.081,0.393,0.121,0.626,0.121c0.267,0,0.495-0.053,0.684-0.156
			c0.19-0.104,0.345-0.244,0.467-0.418c0.121-0.175,0.21-0.377,0.267-0.607C86.821,116.745,86.849,116.501,86.849,116.245z"/>
		<path d="M93.201,118.747c-0.202,0.052-0.41,0.089-0.625,0.11c-0.216,0.022-0.435,0.034-0.656,0.034
			c-0.646,0-1.128-0.146-1.446-0.438c-0.317-0.293-0.477-0.741-0.477-1.347v-2.686h-1.44v-0.749h1.44v-1.415l0.892-0.23v1.646h2.312
			v0.749h-2.312v2.614c0,0.369,0.098,0.646,0.295,0.828c0.196,0.183,0.486,0.274,0.869,0.274c0.164,0,0.344-0.013,0.539-0.039
			c0.195-0.025,0.398-0.065,0.61-0.12V118.747z"/>
		<path d="M96.893,113.579c0.105,0,0.207,0.021,0.302,0.064s0.179,0.1,0.251,0.172c0.071,0.072,0.129,0.155,0.171,0.251
			c0.043,0.096,0.064,0.197,0.064,0.303c0,0.109-0.021,0.211-0.064,0.305c-0.042,0.095-0.1,0.177-0.171,0.249
			c-0.072,0.072-0.156,0.128-0.251,0.169s-0.197,0.062-0.302,0.062c-0.11,0-0.211-0.021-0.305-0.062
			c-0.094-0.041-0.177-0.097-0.249-0.169c-0.072-0.072-0.128-0.154-0.169-0.249c-0.041-0.094-0.062-0.195-0.062-0.305
			c0-0.105,0.021-0.207,0.062-0.303s0.097-0.179,0.169-0.251c0.071-0.072,0.154-0.129,0.249-0.172
			C96.682,113.6,96.783,113.579,96.893,113.579z M96.893,117.337c0.105,0,0.207,0.021,0.302,0.063
			c0.096,0.043,0.179,0.101,0.251,0.172c0.071,0.072,0.129,0.156,0.171,0.252c0.043,0.096,0.064,0.196,0.064,0.302
			c0,0.109-0.021,0.211-0.064,0.306c-0.042,0.094-0.1,0.177-0.171,0.248c-0.072,0.072-0.156,0.129-0.251,0.17
			s-0.197,0.061-0.302,0.061c-0.11,0-0.211-0.02-0.305-0.061c-0.094-0.041-0.177-0.098-0.249-0.17
			c-0.072-0.071-0.128-0.154-0.169-0.248c-0.041-0.095-0.062-0.196-0.062-0.306c0-0.105,0.021-0.206,0.062-0.302
			s0.097-0.18,0.169-0.252c0.071-0.071,0.154-0.129,0.249-0.172C96.682,117.359,96.783,117.337,96.893,117.337z"/>
		<path d="M104.619,118.819h-3.81v-6.701h3.81v0.77h-2.896v2.076h2.784v0.77h-2.784v2.307h2.896V118.819z"/>
		<path d="M108.126,112.307h-1.523v-0.732h2.425v6.501h1.533v0.743h-4.127v-0.743h1.692V112.307z"/>
		<path d="M116.493,115.973c0,0.127-0.002,0.232-0.005,0.318c-0.004,0.085-0.009,0.166-0.016,0.24h-3.614
			c0,0.527,0.146,0.931,0.44,1.213s0.718,0.423,1.271,0.423c0.15,0,0.301-0.006,0.451-0.018s0.296-0.028,0.436-0.049
			s0.274-0.044,0.402-0.069c0.128-0.025,0.247-0.054,0.356-0.084v0.732c-0.243,0.068-0.517,0.124-0.823,0.167
			c-0.306,0.043-0.623,0.063-0.951,0.063c-0.441,0-0.82-0.06-1.138-0.179c-0.318-0.12-0.579-0.293-0.782-0.521
			c-0.204-0.228-0.354-0.506-0.451-0.836c-0.098-0.33-0.146-0.703-0.146-1.12c0-0.362,0.052-0.705,0.157-1.028
			c0.104-0.322,0.256-0.606,0.456-0.851c0.2-0.244,0.445-0.438,0.736-0.582s0.62-0.216,0.989-0.216c0.359,0,0.677,0.057,0.954,0.17
			c0.276,0.112,0.51,0.272,0.7,0.479c0.189,0.206,0.333,0.458,0.431,0.753C116.444,115.277,116.493,115.608,116.493,115.973z
			 M115.565,115.845c0.01-0.229-0.012-0.438-0.067-0.628s-0.139-0.353-0.254-0.49c-0.114-0.136-0.257-0.243-0.428-0.32
			c-0.171-0.076-0.369-0.115-0.595-0.115c-0.194,0-0.373,0.038-0.533,0.113s-0.299,0.181-0.415,0.317s-0.21,0.301-0.282,0.492
			c-0.071,0.191-0.116,0.402-0.133,0.631H115.565z"/>
		<path d="M121.589,118.819v-3.696c0-0.161-0.006-0.292-0.018-0.396c-0.012-0.102-0.031-0.184-0.056-0.243
			c-0.026-0.06-0.058-0.102-0.098-0.126c-0.039-0.023-0.088-0.035-0.146-0.035c-0.068,0-0.132,0.021-0.19,0.062
			s-0.12,0.107-0.187,0.2c-0.066,0.092-0.14,0.214-0.22,0.366c-0.081,0.152-0.175,0.339-0.285,0.562v3.307h-0.815v-3.6
			c0-0.188-0.006-0.34-0.018-0.456c-0.012-0.116-0.031-0.206-0.057-0.271c-0.025-0.064-0.059-0.109-0.1-0.134
			c-0.041-0.023-0.09-0.035-0.148-0.035c-0.062,0-0.12,0.017-0.174,0.051s-0.115,0.096-0.182,0.185
			c-0.066,0.089-0.141,0.21-0.223,0.364s-0.18,0.351-0.292,0.59v3.307h-0.82v-5.147h0.682l0.041,0.979
			c0.088-0.195,0.175-0.36,0.259-0.498c0.083-0.136,0.17-0.246,0.259-0.33s0.184-0.146,0.285-0.185
			c0.101-0.039,0.212-0.06,0.335-0.06c0.277,0,0.487,0.091,0.631,0.272c0.144,0.181,0.215,0.461,0.215,0.841
			c0.082-0.178,0.162-0.336,0.241-0.475s0.164-0.255,0.254-0.349c0.091-0.094,0.19-0.166,0.3-0.215
			c0.109-0.05,0.236-0.075,0.38-0.075c0.646,0,0.969,0.498,0.969,1.492v3.748H121.589z"/>
		<path d="M128.039,115.973c0,0.127-0.002,0.232-0.005,0.318c-0.004,0.085-0.009,0.166-0.016,0.24h-3.614
			c0,0.527,0.146,0.931,0.44,1.213s0.718,0.423,1.271,0.423c0.15,0,0.301-0.006,0.451-0.018s0.296-0.028,0.436-0.049
			s0.274-0.044,0.402-0.069c0.128-0.025,0.247-0.054,0.356-0.084v0.732c-0.243,0.068-0.517,0.124-0.823,0.167
			c-0.306,0.043-0.623,0.063-0.951,0.063c-0.441,0-0.82-0.06-1.138-0.179c-0.318-0.12-0.579-0.293-0.782-0.521
			c-0.204-0.228-0.354-0.506-0.451-0.836c-0.098-0.33-0.146-0.703-0.146-1.12c0-0.362,0.052-0.705,0.157-1.028
			c0.104-0.322,0.256-0.606,0.456-0.851c0.2-0.244,0.445-0.438,0.736-0.582s0.62-0.216,0.989-0.216c0.359,0,0.677,0.057,0.954,0.17
			c0.276,0.112,0.51,0.272,0.7,0.479c0.189,0.206,0.333,0.458,0.431,0.753C127.99,115.277,128.039,115.608,128.039,115.973z
			 M127.111,115.845c0.01-0.229-0.012-0.438-0.067-0.628s-0.139-0.353-0.254-0.49c-0.114-0.136-0.257-0.243-0.428-0.32
			c-0.171-0.076-0.369-0.115-0.595-0.115c-0.194,0-0.373,0.038-0.533,0.113s-0.299,0.181-0.415,0.317s-0.21,0.301-0.282,0.492
			c-0.071,0.191-0.116,0.402-0.133,0.631H127.111z"/>
		<path d="M129.464,113.671h0.795l0.036,0.831c0.15-0.178,0.295-0.326,0.436-0.444c0.14-0.117,0.277-0.212,0.413-0.284
			c0.135-0.072,0.272-0.122,0.413-0.151s0.285-0.044,0.436-0.044c0.53,0,0.931,0.157,1.203,0.47
			c0.271,0.313,0.408,0.783,0.408,1.412v3.358h-0.893v-3.286c0-0.403-0.075-0.702-0.226-0.895c-0.15-0.193-0.374-0.29-0.671-0.29
			c-0.109,0-0.216,0.017-0.32,0.049c-0.104,0.032-0.213,0.089-0.326,0.169s-0.235,0.189-0.367,0.325
			c-0.131,0.138-0.279,0.309-0.443,0.514v3.414h-0.892V113.671z"/>
		<path d="M139.385,118.747c-0.202,0.052-0.41,0.089-0.625,0.11c-0.216,0.022-0.435,0.034-0.656,0.034
			c-0.646,0-1.128-0.146-1.446-0.438c-0.317-0.293-0.477-0.741-0.477-1.347v-2.686h-1.44v-0.749h1.44v-1.415l0.892-0.23v1.646h2.312
			v0.749h-2.312v2.614c0,0.369,0.098,0.646,0.295,0.828c0.196,0.183,0.486,0.274,0.869,0.274c0.164,0,0.344-0.013,0.539-0.039
			c0.195-0.025,0.398-0.065,0.61-0.12V118.747z"/>
	</g>
	<g enable-background="new    ">
		<path d="M79.261,127.009h-1.523v-0.738h2.425v4.404h1.533v0.743h-4.127v-0.743h1.692V127.009z M79.574,124.113
			c0.099,0,0.191,0.018,0.276,0.054s0.16,0.086,0.223,0.151c0.063,0.064,0.113,0.139,0.149,0.223
			c0.036,0.084,0.054,0.176,0.054,0.274c0,0.096-0.018,0.187-0.054,0.271c-0.036,0.086-0.085,0.161-0.149,0.226
			c-0.063,0.065-0.138,0.115-0.223,0.151s-0.178,0.054-0.276,0.054c-0.1,0-0.192-0.018-0.277-0.054s-0.16-0.086-0.223-0.151
			c-0.063-0.064-0.113-0.14-0.149-0.226c-0.036-0.085-0.054-0.176-0.054-0.271c0-0.099,0.018-0.19,0.054-0.274
			c0.036-0.084,0.085-0.158,0.149-0.223c0.063-0.065,0.137-0.115,0.223-0.151S79.475,124.113,79.574,124.113z"/>
		<path d="M87.849,125.004c-0.469-0.099-0.872-0.148-1.21-0.148c-0.804,0-1.205,0.42-1.205,1.262v0.902h2.256v0.743h-2.256v3.655
			h-0.907v-3.655h-1.656v-0.743h1.656v-0.852c0-1.37,0.714-2.056,2.143-2.056c0.355,0,0.749,0.041,1.18,0.123V125.004z"/>
		<path d="M93.053,131.229c-0.232,0.089-0.471,0.154-0.715,0.197c-0.244,0.043-0.497,0.064-0.756,0.064
			c-0.813,0-1.439-0.221-1.879-0.662c-0.439-0.44-0.659-1.085-0.659-1.933c0-0.406,0.063-0.775,0.19-1.107
			c0.126-0.331,0.304-0.615,0.533-0.851c0.229-0.236,0.502-0.418,0.82-0.547c0.317-0.128,0.668-0.191,1.051-0.191
			c0.267,0,0.516,0.019,0.749,0.056c0.232,0.038,0.455,0.1,0.667,0.185v0.852c-0.222-0.116-0.449-0.201-0.679-0.254
			c-0.231-0.053-0.469-0.08-0.715-0.08c-0.229,0-0.445,0.044-0.648,0.131c-0.204,0.088-0.382,0.213-0.536,0.377
			c-0.153,0.164-0.275,0.364-0.364,0.6c-0.089,0.236-0.133,0.503-0.133,0.801c0,0.622,0.151,1.087,0.454,1.396
			c0.303,0.31,0.722,0.464,1.259,0.464c0.243,0,0.478-0.027,0.705-0.082c0.227-0.055,0.447-0.137,0.659-0.246V131.229z"/>
		<path d="M99.174,131.418H94.76v-0.8l1.732-1.723c0.284-0.28,0.515-0.522,0.692-0.728s0.316-0.393,0.415-0.562
			c0.099-0.17,0.166-0.329,0.2-0.479s0.051-0.313,0.051-0.487c0-0.164-0.022-0.32-0.067-0.469c-0.044-0.149-0.112-0.28-0.205-0.393
			c-0.092-0.112-0.212-0.201-0.358-0.267c-0.147-0.064-0.323-0.098-0.528-0.098c-0.284,0-0.542,0.063-0.774,0.189
			c-0.232,0.127-0.446,0.291-0.641,0.492l-0.492-0.589c0.253-0.267,0.544-0.48,0.874-0.642c0.33-0.16,0.713-0.24,1.151-0.24
			c0.297,0,0.568,0.044,0.813,0.133c0.244,0.089,0.455,0.218,0.633,0.385c0.178,0.168,0.315,0.373,0.413,0.615
			c0.097,0.243,0.146,0.517,0.146,0.82c0,0.256-0.034,0.494-0.103,0.713s-0.172,0.437-0.31,0.653
			c-0.139,0.217-0.313,0.442-0.523,0.675c-0.21,0.232-0.459,0.486-0.746,0.764l-1.215,1.184h3.256V131.418z"/>
		<path d="M105.239,131.418h-1.184l-1.389-1.964l-1.374,1.964h-1.154l1.995-2.584l-1.902-2.563h1.144l1.354,1.979l1.328-1.979h1.102
			l-1.933,2.584L105.239,131.418z"/>
		<path d="M110.592,129.383c0,0.294-0.06,0.569-0.18,0.828c-0.12,0.258-0.299,0.483-0.538,0.677
			c-0.24,0.192-0.541,0.345-0.902,0.456c-0.363,0.111-0.785,0.166-1.267,0.166c-0.267,0-0.506-0.008-0.718-0.025
			c-0.212-0.017-0.41-0.039-0.595-0.066v-0.8c0.212,0.038,0.436,0.066,0.672,0.087c0.235,0.021,0.477,0.031,0.723,0.031
			c0.335,0,0.621-0.03,0.859-0.09c0.237-0.06,0.431-0.146,0.582-0.259c0.15-0.113,0.26-0.25,0.328-0.41
			c0.068-0.161,0.103-0.342,0.103-0.544c0-0.185-0.041-0.345-0.123-0.481s-0.197-0.251-0.346-0.344
			c-0.149-0.093-0.327-0.161-0.533-0.208c-0.207-0.046-0.434-0.068-0.68-0.068h-0.764v-0.733h0.774c0.201,0,0.385-0.026,0.551-0.08
			c0.166-0.053,0.308-0.129,0.426-0.228c0.118-0.1,0.208-0.222,0.271-0.367c0.063-0.145,0.095-0.31,0.095-0.494
			c0-0.359-0.109-0.621-0.328-0.785s-0.54-0.246-0.964-0.246c-0.226,0-0.458,0.022-0.697,0.067c-0.239,0.044-0.496,0.111-0.769,0.2
			v-0.779c0.116-0.041,0.24-0.078,0.372-0.11c0.131-0.033,0.263-0.061,0.395-0.082c0.132-0.022,0.262-0.04,0.392-0.052
			s0.255-0.018,0.375-0.018c0.355,0,0.668,0.038,0.938,0.115s0.496,0.188,0.677,0.33c0.181,0.145,0.318,0.318,0.41,0.523
			c0.093,0.205,0.139,0.436,0.139,0.692c0,0.383-0.098,0.704-0.295,0.964c-0.196,0.26-0.466,0.467-0.808,0.62
			c0.175,0.027,0.346,0.082,0.516,0.164c0.169,0.082,0.321,0.188,0.456,0.315c0.135,0.128,0.245,0.279,0.328,0.453
			C110.55,128.978,110.592,129.171,110.592,129.383z"/>
		<path d="M114.212,126.178c0.105,0,0.207,0.021,0.302,0.064s0.179,0.1,0.251,0.172c0.071,0.072,0.129,0.155,0.171,0.251
			c0.043,0.096,0.064,0.197,0.064,0.303c0,0.109-0.021,0.211-0.064,0.305c-0.042,0.095-0.1,0.177-0.171,0.249
			c-0.072,0.072-0.156,0.128-0.251,0.169s-0.197,0.062-0.302,0.062c-0.11,0-0.211-0.021-0.305-0.062
			c-0.094-0.041-0.177-0.097-0.249-0.169c-0.072-0.072-0.128-0.154-0.169-0.249c-0.041-0.094-0.062-0.195-0.062-0.305
			c0-0.105,0.021-0.207,0.062-0.303s0.097-0.179,0.169-0.251c0.071-0.072,0.154-0.129,0.249-0.172
			C114,126.2,114.102,126.178,114.212,126.178z M114.212,129.937c0.105,0,0.207,0.021,0.302,0.063
			c0.096,0.043,0.179,0.101,0.251,0.172c0.071,0.072,0.129,0.156,0.171,0.252c0.043,0.096,0.064,0.196,0.064,0.302
			c0,0.109-0.021,0.211-0.064,0.306c-0.042,0.094-0.1,0.177-0.171,0.248c-0.072,0.072-0.156,0.129-0.251,0.17
			s-0.197,0.061-0.302,0.061c-0.11,0-0.211-0.02-0.305-0.061c-0.094-0.041-0.177-0.098-0.249-0.17
			c-0.072-0.071-0.128-0.154-0.169-0.248c-0.041-0.095-0.062-0.196-0.062-0.306c0-0.105,0.021-0.206,0.062-0.302
			s0.097-0.18,0.169-0.252c0.071-0.071,0.154-0.129,0.249-0.172C114,129.958,114.102,129.937,114.212,129.937z"/>
		<path d="M119.523,125.487h-1.543v-0.77h4.009v0.77h-1.543v5.152h1.543v0.779h-4.009v-0.779h1.543V125.487z"/>
		<path d="M128.26,125.004c-0.469-0.099-0.872-0.148-1.21-0.148c-0.804,0-1.205,0.42-1.205,1.262v0.902h2.256v0.743h-2.256v3.655
			h-0.907v-3.655h-1.656v-0.743h1.656v-0.852c0-1.37,0.714-2.056,2.143-2.056c0.355,0,0.749,0.041,1.18,0.123V125.004z"/>
		<path d="M133.463,131.229c-0.232,0.089-0.471,0.154-0.715,0.197c-0.244,0.043-0.497,0.064-0.756,0.064
			c-0.813,0-1.439-0.221-1.879-0.662c-0.439-0.44-0.659-1.085-0.659-1.933c0-0.406,0.063-0.775,0.19-1.107
			c0.126-0.331,0.304-0.615,0.533-0.851c0.229-0.236,0.502-0.418,0.82-0.547c0.317-0.128,0.668-0.191,1.051-0.191
			c0.267,0,0.516,0.019,0.749,0.056c0.232,0.038,0.455,0.1,0.667,0.185v0.852c-0.222-0.116-0.449-0.201-0.679-0.254
			c-0.231-0.053-0.469-0.08-0.715-0.08c-0.229,0-0.445,0.044-0.648,0.131c-0.204,0.088-0.382,0.213-0.536,0.377
			c-0.153,0.164-0.275,0.364-0.364,0.6c-0.089,0.236-0.133,0.503-0.133,0.801c0,0.622,0.151,1.087,0.454,1.396
			c0.303,0.31,0.722,0.464,1.259,0.464c0.243,0,0.478-0.027,0.705-0.082c0.227-0.055,0.447-0.137,0.659-0.246V131.229z"/>
		<path d="M139.959,124.717l-0.451,6.701h-1.184l-0.831-2.384l-0.23-0.765l-0.241,0.826l-0.769,2.322h-1.143l-0.462-6.701h0.861
			l0.262,4.559l0.077,1.25l0.323-1.061l0.81-2.486h0.631l0.933,2.666l0.313,0.881l0.021-0.922l0.267-4.887H139.959z"/>
		<path d="M144.317,131.418l-0.021-0.692c-0.28,0.277-0.564,0.478-0.854,0.601c-0.289,0.123-0.592,0.184-0.91,0.184
			c-0.294,0-0.545-0.037-0.753-0.112s-0.38-0.179-0.515-0.311c-0.135-0.131-0.234-0.286-0.297-0.464
			c-0.063-0.178-0.095-0.37-0.095-0.579c0-0.516,0.192-0.92,0.577-1.213c0.384-0.292,0.953-0.438,1.705-0.438h1.066v-0.451
			c0-0.304-0.097-0.547-0.292-0.73c-0.194-0.183-0.492-0.273-0.892-0.273c-0.291,0-0.577,0.032-0.859,0.097
			c-0.282,0.065-0.574,0.157-0.875,0.277v-0.806c0.113-0.041,0.239-0.081,0.377-0.12c0.139-0.039,0.285-0.074,0.438-0.104
			c0.154-0.031,0.314-0.056,0.482-0.075c0.167-0.019,0.336-0.028,0.507-0.028c0.311,0,0.591,0.035,0.841,0.104
			s0.461,0.172,0.633,0.313c0.173,0.14,0.305,0.316,0.397,0.527c0.092,0.213,0.138,0.462,0.138,0.749v3.548H144.317z
			 M144.22,129.076h-1.133c-0.222,0-0.414,0.022-0.574,0.066c-0.161,0.045-0.292,0.107-0.395,0.189s-0.179,0.181-0.228,0.295
			c-0.05,0.114-0.075,0.243-0.075,0.388c0,0.099,0.016,0.193,0.046,0.284s0.08,0.171,0.149,0.241
			c0.068,0.069,0.157,0.125,0.267,0.166c0.109,0.041,0.242,0.062,0.399,0.062c0.205,0,0.44-0.063,0.705-0.187
			c0.265-0.125,0.544-0.322,0.838-0.593V129.076z"/>
		<path d="M148.537,124.907h-1.523v-0.732h2.425v6.501h1.533v0.743h-4.127v-0.743h1.692V124.907z"/>
		<path d="M154.31,124.907h-1.523v-0.732h2.425v6.501h1.533v0.743h-4.127v-0.743h1.692V124.907z"/>
	</g>
</g>
<g>
	<g>
		<path fill="none" stroke="#000000" stroke-width="0.75" stroke-miterlimit="10" d="M144.147,242.875
			c1.826-58.292,63.944-31.696,101.715,4.985"/>
		<g>
			<circle cx="144.202" cy="242.737" r="2.82"/>
		</g>
		<g>
			<polygon points="242.362,248.45 245.14,247.269 246.217,244.45 249.028,251.019 			"/>
		</g>
	</g>
</g>
<g>
	<g enable-background="new    ">
		<path d="M52.541,222.261c0,0.428-0.059,0.81-0.177,1.146c-0.118,0.337-0.286,0.622-0.502,0.856
			c-0.217,0.234-0.481,0.414-0.792,0.538c-0.312,0.125-0.662,0.188-1.051,0.188c-0.304,0-0.615-0.029-0.933-0.087
			c-0.318-0.059-0.632-0.15-0.943-0.277v-6.941h0.892v1.994l-0.041,0.953c0.256-0.345,0.531-0.588,0.823-0.73
			c0.292-0.142,0.606-0.213,0.941-0.213c0.294,0,0.552,0.063,0.774,0.186s0.409,0.296,0.559,0.52
			c0.15,0.225,0.263,0.494,0.338,0.811S52.541,221.872,52.541,222.261z M51.628,222.302c0-0.27-0.02-0.518-0.059-0.743
			c-0.039-0.226-0.102-0.419-0.187-0.579c-0.085-0.161-0.195-0.287-0.328-0.377c-0.133-0.091-0.292-0.137-0.477-0.137
			c-0.113,0-0.228,0.019-0.344,0.055c-0.116,0.035-0.237,0.096-0.361,0.179c-0.125,0.084-0.256,0.195-0.395,0.334
			c-0.138,0.138-0.286,0.31-0.443,0.515v2.497c0.174,0.068,0.352,0.122,0.533,0.161c0.181,0.04,0.354,0.06,0.518,0.06
			c0.205,0,0.4-0.032,0.587-0.098c0.186-0.064,0.35-0.174,0.492-0.325c0.142-0.152,0.254-0.354,0.338-0.605
			C51.586,222.987,51.628,222.675,51.628,222.302z"/>
		<path d="M58.396,222.312c0,0.4-0.056,0.767-0.169,1.101c-0.112,0.333-0.275,0.618-0.487,0.855
			c-0.212,0.238-0.47,0.423-0.774,0.554c-0.305,0.132-0.65,0.197-1.036,0.197c-0.369,0-0.7-0.057-0.992-0.171
			c-0.292-0.115-0.54-0.283-0.744-0.505c-0.203-0.223-0.359-0.498-0.466-0.826c-0.108-0.328-0.162-0.705-0.162-1.133
			c0-0.4,0.057-0.765,0.169-1.095c0.113-0.33,0.275-0.613,0.487-0.851c0.212-0.238,0.47-0.423,0.774-0.554
			c0.304-0.132,0.649-0.198,1.035-0.198c0.369,0,0.7,0.058,0.992,0.172c0.292,0.115,0.54,0.282,0.744,0.503
			c0.203,0.221,0.359,0.495,0.466,0.823C58.342,221.513,58.396,221.889,58.396,222.312z M57.483,222.353
			c0-0.317-0.035-0.595-0.105-0.833c-0.07-0.237-0.17-0.436-0.3-0.595c-0.13-0.158-0.288-0.278-0.474-0.358
			c-0.186-0.08-0.394-0.12-0.623-0.12c-0.267,0-0.495,0.052-0.685,0.156c-0.19,0.104-0.345,0.243-0.467,0.418
			c-0.121,0.174-0.21,0.376-0.267,0.607c-0.056,0.23-0.084,0.473-0.084,0.725c0,0.318,0.035,0.597,0.105,0.836
			c0.07,0.239,0.17,0.438,0.3,0.598s0.287,0.278,0.472,0.358c0.185,0.081,0.393,0.121,0.626,0.121c0.267,0,0.495-0.053,0.684-0.156
			c0.19-0.104,0.345-0.244,0.467-0.418c0.121-0.175,0.21-0.377,0.267-0.607C57.455,222.853,57.483,222.61,57.483,222.353z"/>
		<path d="M63.835,224.855c-0.202,0.052-0.41,0.089-0.625,0.11c-0.216,0.022-0.435,0.034-0.656,0.034
			c-0.646,0-1.128-0.146-1.446-0.438c-0.317-0.293-0.477-0.741-0.477-1.347v-2.686h-1.44v-0.749h1.44v-1.415l0.892-0.23v1.646h2.312
			v0.749h-2.312v2.614c0,0.369,0.098,0.646,0.295,0.828c0.196,0.183,0.486,0.274,0.869,0.274c0.164,0,0.344-0.013,0.539-0.039
			c0.195-0.025,0.398-0.065,0.61-0.12V224.855z"/>
		<path d="M67.527,219.687c0.105,0,0.207,0.021,0.302,0.064s0.179,0.1,0.251,0.172c0.071,0.072,0.129,0.155,0.171,0.251
			c0.043,0.096,0.064,0.197,0.064,0.303c0,0.109-0.021,0.211-0.064,0.305c-0.042,0.095-0.1,0.177-0.171,0.249
			c-0.072,0.072-0.156,0.128-0.251,0.169s-0.197,0.062-0.302,0.062c-0.11,0-0.211-0.021-0.305-0.062
			c-0.094-0.041-0.177-0.097-0.249-0.169c-0.072-0.072-0.128-0.154-0.169-0.249c-0.041-0.094-0.062-0.195-0.062-0.305
			c0-0.105,0.021-0.207,0.062-0.303s0.097-0.179,0.169-0.251c0.071-0.072,0.154-0.129,0.249-0.172
			C67.315,219.708,67.417,219.687,67.527,219.687z M67.527,223.446c0.105,0,0.207,0.021,0.302,0.063
			c0.096,0.043,0.179,0.101,0.251,0.172c0.071,0.072,0.129,0.156,0.171,0.252c0.043,0.096,0.064,0.196,0.064,0.302
			c0,0.109-0.021,0.211-0.064,0.306c-0.042,0.094-0.1,0.177-0.171,0.248c-0.072,0.072-0.156,0.129-0.251,0.17
			s-0.197,0.061-0.302,0.061c-0.11,0-0.211-0.02-0.305-0.061c-0.094-0.041-0.177-0.098-0.249-0.17
			c-0.072-0.071-0.128-0.154-0.169-0.248c-0.041-0.095-0.062-0.196-0.062-0.306c0-0.105,0.021-0.206,0.062-0.302
			s0.097-0.18,0.169-0.252c0.071-0.071,0.154-0.129,0.249-0.172C67.315,223.467,67.417,223.446,67.527,223.446z"/>
		<path d="M75.371,224.927h-0.893v-3.286c0-0.396-0.074-0.693-0.223-0.89c-0.149-0.196-0.361-0.295-0.639-0.295
			c-0.12,0-0.231,0.017-0.335,0.049c-0.104,0.032-0.213,0.089-0.326,0.169s-0.236,0.189-0.369,0.325
			c-0.133,0.138-0.287,0.309-0.461,0.514v3.414h-0.892v-7.244h0.892v2.097l-0.031,0.81c0.14-0.167,0.278-0.308,0.413-0.423
			c0.135-0.114,0.27-0.207,0.405-0.279c0.135-0.071,0.272-0.123,0.413-0.153c0.14-0.031,0.285-0.047,0.436-0.047
			c0.513,0,0.909,0.157,1.189,0.47s0.421,0.783,0.421,1.412V224.927z"/>
		<path d="M80.313,224.927l-0.021-0.692c-0.28,0.277-0.564,0.478-0.854,0.601c-0.289,0.123-0.592,0.184-0.91,0.184
			c-0.294,0-0.545-0.037-0.753-0.112s-0.38-0.179-0.515-0.311c-0.135-0.131-0.234-0.286-0.297-0.464
			c-0.063-0.178-0.095-0.37-0.095-0.579c0-0.516,0.192-0.92,0.577-1.213c0.384-0.292,0.953-0.438,1.705-0.438h1.066v-0.451
			c0-0.304-0.097-0.547-0.292-0.73c-0.194-0.183-0.492-0.273-0.892-0.273c-0.291,0-0.577,0.032-0.859,0.097
			c-0.282,0.065-0.574,0.157-0.875,0.277v-0.806c0.113-0.041,0.239-0.081,0.377-0.12c0.139-0.039,0.285-0.074,0.438-0.104
			c0.154-0.031,0.314-0.056,0.482-0.075c0.167-0.019,0.336-0.028,0.507-0.028c0.311,0,0.591,0.035,0.841,0.104
			s0.461,0.172,0.633,0.313c0.173,0.14,0.305,0.316,0.397,0.527c0.092,0.213,0.138,0.462,0.138,0.749v3.548H80.313z M80.216,222.584
			h-1.133c-0.222,0-0.414,0.022-0.574,0.066c-0.161,0.045-0.292,0.107-0.395,0.189s-0.179,0.181-0.228,0.295
			c-0.05,0.114-0.075,0.243-0.075,0.388c0,0.099,0.016,0.193,0.046,0.284s0.08,0.171,0.149,0.241
			c0.068,0.069,0.157,0.125,0.267,0.166c0.109,0.041,0.242,0.062,0.399,0.062c0.205,0,0.44-0.063,0.705-0.187
			c0.265-0.125,0.544-0.322,0.838-0.593V222.584z"/>
		<path d="M86.855,223.523c0,0.181-0.031,0.343-0.093,0.486s-0.145,0.271-0.251,0.382c-0.106,0.111-0.229,0.206-0.369,0.285
			c-0.14,0.078-0.29,0.144-0.449,0.194c-0.159,0.052-0.322,0.089-0.49,0.113c-0.167,0.023-0.332,0.035-0.492,0.035
			c-0.349,0-0.669-0.015-0.961-0.046c-0.292-0.03-0.579-0.08-0.859-0.148v-0.82c0.301,0.086,0.6,0.15,0.897,0.194
			c0.298,0.045,0.593,0.067,0.887,0.067c0.427,0,0.744-0.059,0.949-0.175s0.308-0.281,0.308-0.497c0-0.093-0.017-0.175-0.049-0.249
			c-0.033-0.073-0.092-0.144-0.177-0.21c-0.086-0.066-0.218-0.136-0.397-0.208c-0.18-0.071-0.425-0.153-0.736-0.246
			c-0.232-0.067-0.447-0.146-0.644-0.232c-0.196-0.088-0.367-0.19-0.51-0.311c-0.144-0.119-0.256-0.26-0.338-0.42
			c-0.082-0.161-0.123-0.351-0.123-0.569c0-0.144,0.033-0.301,0.1-0.472c0.067-0.171,0.18-0.33,0.341-0.477
			c0.161-0.147,0.378-0.27,0.651-0.367s0.615-0.146,1.025-0.146c0.202,0,0.426,0.012,0.672,0.034
			c0.246,0.021,0.502,0.061,0.769,0.115v0.794c-0.28-0.067-0.546-0.118-0.797-0.15c-0.251-0.033-0.469-0.049-0.654-0.049
			c-0.222,0-0.409,0.017-0.562,0.051c-0.152,0.034-0.275,0.081-0.369,0.142c-0.094,0.06-0.162,0.13-0.203,0.21
			s-0.062,0.166-0.062,0.259s0.018,0.176,0.054,0.251c0.036,0.075,0.103,0.148,0.2,0.218c0.098,0.07,0.233,0.141,0.408,0.211
			c0.174,0.069,0.401,0.146,0.682,0.228c0.304,0.089,0.56,0.183,0.769,0.279c0.208,0.098,0.378,0.206,0.508,0.326
			c0.13,0.119,0.223,0.255,0.279,0.404C86.827,223.161,86.855,223.332,86.855,223.523z"/>
		<path d="M92.843,223.113c0,0.317-0.065,0.596-0.194,0.835c-0.13,0.239-0.312,0.438-0.544,0.598s-0.512,0.277-0.838,0.356
			c-0.327,0.078-0.687,0.117-1.079,0.117c-0.178,0-0.355-0.007-0.531-0.02c-0.176-0.015-0.345-0.031-0.508-0.052
			c-0.162-0.021-0.315-0.044-0.458-0.071s-0.274-0.057-0.39-0.088v-0.882c0.256,0.096,0.544,0.171,0.864,0.226
			c0.319,0.055,0.683,0.082,1.089,0.082c0.294,0,0.544-0.022,0.751-0.069c0.207-0.046,0.376-0.114,0.508-0.205
			c0.131-0.09,0.227-0.2,0.287-0.33c0.06-0.13,0.09-0.278,0.09-0.446c0-0.181-0.051-0.336-0.151-0.464
			c-0.101-0.128-0.233-0.243-0.397-0.344s-0.351-0.193-0.562-0.276c-0.21-0.084-0.425-0.17-0.644-0.26
			c-0.219-0.088-0.433-0.185-0.643-0.289c-0.21-0.104-0.397-0.228-0.562-0.369s-0.296-0.309-0.397-0.5
			c-0.101-0.191-0.151-0.419-0.151-0.682c0-0.229,0.047-0.455,0.144-0.677c0.095-0.223,0.244-0.42,0.446-0.593
			c0.202-0.172,0.46-0.312,0.777-0.418c0.316-0.105,0.693-0.158,1.13-0.158c0.113,0,0.235,0.005,0.367,0.016
			c0.131,0.01,0.265,0.024,0.4,0.043c0.135,0.019,0.268,0.04,0.4,0.064c0.131,0.023,0.254,0.05,0.366,0.076v0.82
			c-0.263-0.074-0.526-0.132-0.789-0.171c-0.264-0.04-0.518-0.06-0.764-0.06c-0.523,0-0.908,0.088-1.154,0.262
			s-0.369,0.408-0.369,0.702c0,0.182,0.051,0.337,0.151,0.467c0.101,0.13,0.233,0.246,0.397,0.349s0.351,0.195,0.562,0.279
			c0.21,0.084,0.424,0.17,0.644,0.259c0.218,0.089,0.433,0.187,0.643,0.292c0.21,0.106,0.397,0.232,0.562,0.377
			c0.164,0.146,0.296,0.315,0.397,0.511C92.793,222.615,92.843,222.845,92.843,223.113z"/>
		<path d="M98.463,224.927h-0.8l-0.031-0.83c-0.153,0.178-0.3,0.325-0.438,0.443c-0.139,0.117-0.276,0.213-0.413,0.284
			c-0.137,0.071-0.274,0.122-0.413,0.151c-0.138,0.029-0.284,0.043-0.438,0.043c-0.53,0-0.93-0.155-1.199-0.466
			c-0.271-0.312-0.405-0.781-0.405-1.41v-3.363h0.892v3.292c0,0.789,0.297,1.184,0.892,1.184c0.109,0,0.216-0.016,0.32-0.049
			c0.104-0.032,0.214-0.089,0.328-0.169c0.115-0.08,0.238-0.188,0.369-0.325c0.132-0.137,0.279-0.31,0.443-0.518v-3.415h0.893
			V224.927z"/>
		<path d="M104.497,222.261c0,0.428-0.059,0.81-0.177,1.146c-0.118,0.337-0.286,0.622-0.502,0.856
			c-0.217,0.234-0.481,0.414-0.792,0.538c-0.312,0.125-0.662,0.188-1.051,0.188c-0.304,0-0.615-0.029-0.933-0.087
			c-0.318-0.059-0.632-0.15-0.943-0.277v-6.941h0.892v1.994l-0.041,0.953c0.256-0.345,0.531-0.588,0.823-0.73
			c0.292-0.142,0.606-0.213,0.941-0.213c0.294,0,0.552,0.063,0.774,0.186s0.409,0.296,0.559,0.52
			c0.15,0.225,0.263,0.494,0.338,0.811S104.497,221.872,104.497,222.261z M103.584,222.302c0-0.27-0.02-0.518-0.059-0.743
			c-0.039-0.226-0.102-0.419-0.187-0.579c-0.085-0.161-0.195-0.287-0.328-0.377c-0.133-0.091-0.292-0.137-0.477-0.137
			c-0.113,0-0.228,0.019-0.344,0.055c-0.116,0.035-0.237,0.096-0.361,0.179c-0.125,0.084-0.256,0.195-0.395,0.334
			c-0.138,0.138-0.286,0.31-0.443,0.515v2.497c0.174,0.068,0.352,0.122,0.533,0.161c0.181,0.04,0.354,0.06,0.518,0.06
			c0.205,0,0.4-0.032,0.587-0.098c0.186-0.064,0.35-0.174,0.492-0.325c0.142-0.152,0.254-0.354,0.338-0.605
			C103.542,222.987,103.584,222.675,103.584,222.302z"/>
		<path d="M109.891,224.927h-3.81v-6.701h3.81v0.77h-2.896v2.076h2.784v0.77h-2.784v2.307h2.896V224.927z"/>
		<path d="M113.397,218.416h-1.523v-0.732h2.425v6.501h1.533v0.743h-4.127v-0.743h1.692V218.416z"/>
		<path d="M121.765,222.082c0,0.127-0.002,0.232-0.005,0.318c-0.004,0.085-0.009,0.166-0.016,0.24h-3.614
			c0,0.527,0.146,0.931,0.44,1.213s0.718,0.423,1.271,0.423c0.15,0,0.301-0.006,0.451-0.018s0.296-0.028,0.436-0.049
			s0.274-0.044,0.402-0.069c0.128-0.025,0.247-0.054,0.356-0.084v0.732c-0.243,0.068-0.517,0.124-0.823,0.167
			c-0.306,0.043-0.623,0.063-0.951,0.063c-0.441,0-0.82-0.06-1.138-0.179c-0.318-0.12-0.579-0.293-0.782-0.521
			c-0.204-0.228-0.354-0.506-0.451-0.836c-0.098-0.33-0.146-0.703-0.146-1.12c0-0.362,0.052-0.705,0.157-1.028
			c0.104-0.322,0.256-0.606,0.456-0.851c0.2-0.244,0.445-0.438,0.736-0.582s0.62-0.216,0.989-0.216c0.359,0,0.677,0.057,0.954,0.17
			c0.276,0.112,0.51,0.272,0.7,0.479c0.189,0.206,0.333,0.458,0.431,0.753C121.716,221.385,121.765,221.716,121.765,222.082z
			 M120.837,221.954c0.01-0.229-0.012-0.438-0.067-0.628s-0.139-0.353-0.254-0.49c-0.114-0.136-0.257-0.243-0.428-0.32
			c-0.171-0.076-0.369-0.115-0.595-0.115c-0.194,0-0.373,0.038-0.533,0.113s-0.299,0.181-0.415,0.317s-0.21,0.301-0.282,0.492
			c-0.071,0.191-0.116,0.402-0.133,0.631H120.837z"/>
		<path d="M126.861,224.927v-3.696c0-0.161-0.006-0.292-0.018-0.396c-0.012-0.102-0.031-0.184-0.056-0.243
			c-0.026-0.06-0.058-0.102-0.098-0.126c-0.039-0.023-0.088-0.035-0.146-0.035c-0.068,0-0.132,0.021-0.19,0.062
			s-0.12,0.107-0.187,0.2c-0.066,0.092-0.14,0.214-0.22,0.366c-0.081,0.152-0.175,0.339-0.285,0.562v3.307h-0.815v-3.6
			c0-0.188-0.006-0.34-0.018-0.456c-0.012-0.116-0.031-0.206-0.057-0.271c-0.025-0.064-0.059-0.109-0.1-0.134
			c-0.041-0.023-0.09-0.035-0.148-0.035c-0.062,0-0.12,0.017-0.174,0.051s-0.115,0.096-0.182,0.185
			c-0.066,0.089-0.141,0.21-0.223,0.364s-0.18,0.351-0.292,0.59v3.307h-0.82v-5.147h0.682l0.041,0.979
			c0.088-0.195,0.175-0.36,0.259-0.498c0.083-0.136,0.17-0.246,0.259-0.33s0.184-0.146,0.285-0.185
			c0.101-0.039,0.212-0.06,0.335-0.06c0.277,0,0.487,0.091,0.631,0.272c0.144,0.181,0.215,0.461,0.215,0.841
			c0.082-0.178,0.162-0.336,0.241-0.475s0.164-0.255,0.254-0.349c0.091-0.094,0.19-0.166,0.3-0.215
			c0.109-0.05,0.236-0.075,0.38-0.075c0.646,0,0.969,0.498,0.969,1.492v3.748H126.861z"/>
		<path d="M133.311,222.082c0,0.127-0.002,0.232-0.005,0.318c-0.004,0.085-0.009,0.166-0.016,0.24h-3.614
			c0,0.527,0.146,0.931,0.44,1.213s0.718,0.423,1.271,0.423c0.15,0,0.301-0.006,0.451-0.018s0.296-0.028,0.436-0.049
			s0.274-0.044,0.402-0.069c0.128-0.025,0.247-0.054,0.356-0.084v0.732c-0.243,0.068-0.517,0.124-0.823,0.167
			c-0.306,0.043-0.623,0.063-0.951,0.063c-0.441,0-0.82-0.06-1.138-0.179c-0.318-0.12-0.579-0.293-0.782-0.521
			c-0.204-0.228-0.354-0.506-0.451-0.836c-0.098-0.33-0.146-0.703-0.146-1.12c0-0.362,0.052-0.705,0.157-1.028
			c0.104-0.322,0.256-0.606,0.456-0.851c0.2-0.244,0.445-0.438,0.736-0.582s0.62-0.216,0.989-0.216c0.359,0,0.677,0.057,0.954,0.17
			c0.276,0.112,0.51,0.272,0.7,0.479c0.189,0.206,0.333,0.458,0.431,0.753C133.262,221.385,133.311,221.716,133.311,222.082z
			 M132.383,221.954c0.01-0.229-0.012-0.438-0.067-0.628s-0.139-0.353-0.254-0.49c-0.114-0.136-0.257-0.243-0.428-0.32
			c-0.171-0.076-0.369-0.115-0.595-0.115c-0.194,0-0.373,0.038-0.533,0.113s-0.299,0.181-0.415,0.317s-0.21,0.301-0.282,0.492
			c-0.071,0.191-0.116,0.402-0.133,0.631H132.383z"/>
		<path d="M134.736,219.78h0.795l0.036,0.831c0.15-0.178,0.295-0.326,0.436-0.444c0.14-0.117,0.277-0.212,0.413-0.284
			c0.135-0.072,0.272-0.122,0.413-0.151s0.285-0.044,0.436-0.044c0.53,0,0.931,0.157,1.203,0.47
			c0.271,0.313,0.408,0.783,0.408,1.412v3.358h-0.893v-3.286c0-0.403-0.075-0.702-0.226-0.895c-0.15-0.193-0.374-0.29-0.671-0.29
			c-0.109,0-0.216,0.017-0.32,0.049c-0.104,0.032-0.213,0.089-0.326,0.169s-0.235,0.189-0.367,0.325
			c-0.131,0.138-0.279,0.309-0.443,0.514v3.414h-0.892V219.78z"/>
		<path d="M144.656,224.855c-0.202,0.052-0.41,0.089-0.625,0.11c-0.216,0.022-0.435,0.034-0.656,0.034
			c-0.646,0-1.128-0.146-1.446-0.438c-0.317-0.293-0.477-0.741-0.477-1.347v-2.686h-1.44v-0.749h1.44v-1.415l0.892-0.23v1.646h2.312
			v0.749h-2.312v2.614c0,0.369,0.098,0.646,0.295,0.828c0.196,0.183,0.486,0.274,0.869,0.274c0.164,0,0.344-0.013,0.539-0.039
			c0.195-0.025,0.398-0.065,0.61-0.12V224.855z"/>
	</g>
</g>
</svg>
