<?xml version="1.0" encoding="utf-8"?>
<!-- Generator: Adobe Illustrator 16.0.0, SVG Export Plug-In . SVG Version: 6.00 Build 0)  -->
<!DOCTYPE svg PUBLIC "-//W3C//DTD SVG 1.1//EN" "http://www.w3.org/Graphics/SVG/1.1/DTD/svg11.dtd">
<svg version="1.1" id="Layer_1" xmlns="http://www.w3.org/2000/svg" xmlns:xlink="http://www.w3.org/1999/xlink" x="0px" y="0px"
	 width="345.142px" height="274.785px" viewBox="0 0 345.142 274.785" enable-background="new 0 0 345.142 274.785"
	 xml:space="preserve">
<g>
	<g>
		<g opacity="0.8">
			<polygon fill="#C1C3C3" points="232.822,69.649 232.822,191.682 302.548,238.135 308.638,235.336 308.638,112.518 
				238.914,67.073 			"/>
		</g>
		<g>
			
				<polygon fill="none" stroke="#000000" stroke-width="0.75" stroke-linecap="round" stroke-linejoin="round" stroke-miterlimit="10" points="
				232.822,69.649 232.822,191.682 302.548,238.135 308.638,235.336 308.638,112.518 238.914,67.073 			"/>
		</g>
		
			<line fill="none" stroke="#000000" stroke-width="0.75" stroke-linecap="round" stroke-linejoin="round" stroke-miterlimit="10" x1="302.548" y1="115.348" x2="308.638" y2="112.518"/>
		
			<line fill="none" stroke="#000000" stroke-width="0.75" stroke-linecap="round" stroke-linejoin="round" stroke-miterlimit="10" x1="232.822" y1="69.649" x2="302.548" y2="115.348"/>
		
			<line fill="none" stroke="#000000" stroke-width="0.75" stroke-linecap="round" stroke-linejoin="round" stroke-miterlimit="10" x1="302.548" y1="115.348" x2="302.548" y2="238.135"/>
	</g>
	<g>
		<polygon opacity="0.1" fill="#F8982C" points="291.511,241.135 186.814,274.41 117.087,227.957 117.087,106.146 221.787,72.649 
			291.511,118.348 		"/>
		
			<polyline fill="none" stroke="#000000" stroke-width="0.75" stroke-linecap="round" stroke-linejoin="round" stroke-miterlimit="10" points="
			221.787,72.649 221.787,194.682 117.087,227.957 		"/>
		<g>
			
				<path fill="none" stroke="#000000" stroke-width="0.75" stroke-linecap="round" stroke-linejoin="round" stroke-miterlimit="10" d="
				M291.511,241.135"/>
			
				<polyline fill="none" stroke="#000000" stroke-width="0.75" stroke-linecap="round" stroke-linejoin="round" stroke-miterlimit="10" points="
				186.814,274.41 186.814,151.592 291.511,118.348 			"/>
		</g>
		
			<line fill="none" stroke="#000000" stroke-width="0.75" stroke-linecap="round" stroke-linejoin="round" stroke-miterlimit="10" x1="117.087" y1="106.146" x2="186.814" y2="151.592"/>
		
			<polygon fill="none" stroke="#000000" stroke-width="0.75" stroke-linecap="round" stroke-linejoin="round" stroke-miterlimit="10" points="
			291.511,241.135 186.814,274.41 117.087,227.957 117.087,106.146 221.787,72.649 291.511,118.348 		"/>
		
			<line fill="none" stroke="#000000" stroke-width="0.75" stroke-linecap="round" stroke-linejoin="round" stroke-miterlimit="10" x1="221.787" y1="194.682" x2="291.511" y2="241.135"/>
	</g>
	<g>
		
			<line fill="none" stroke="#000000" stroke-width="0.75" stroke-linecap="round" stroke-linejoin="round" stroke-miterlimit="10" stroke-dasharray="1.5" x1="221.812" y1="122.283" x2="232.822" y2="118.891"/>
		<polygon opacity="0.4" fill="#5D6162" points="293.726,164.816 224.001,121.791 224.001,81.75 293.726,126.625 		"/>
		<g>
			<g>
				<polyline fill="none" stroke="#CE2026" stroke-width="0.75" stroke-miterlimit="10" points="293.726,164.066 293.726,164.816 
					293.089,164.422 				"/>
				
					<line fill="none" stroke="#CE2026" stroke-width="0.75" stroke-miterlimit="10" stroke-dasharray="1.5176,1.5176" x1="291.796" y1="163.625" x2="225.287" y2="122.584"/>
				<polyline fill="none" stroke="#CE2026" stroke-width="0.75" stroke-miterlimit="10" points="224.64,122.186 224.001,121.791 
					224.001,121.041 				"/>
				
					<line fill="none" stroke="#CE2026" stroke-width="0.75" stroke-miterlimit="10" stroke-dasharray="1.5416,1.5416" x1="224.001" y1="119.5" x2="224.001" y2="83.271"/>
				<polyline fill="none" stroke="#CE2026" stroke-width="0.75" stroke-miterlimit="10" points="224.001,82.5 224.001,81.75 
					224.632,82.157 				"/>
				
					<line fill="none" stroke="#CE2026" stroke-width="0.75" stroke-miterlimit="10" stroke-dasharray="1.4803,1.4803" x1="225.878" y1="82.958" x2="292.474" y2="125.818"/>
				<polyline fill="none" stroke="#CE2026" stroke-width="0.75" stroke-miterlimit="10" points="293.095,126.219 293.726,126.625 
					293.726,127.375 				"/>
				
					<line fill="none" stroke="#CE2026" stroke-width="0.75" stroke-miterlimit="10" stroke-dasharray="1.4676,1.4676" x1="293.726" y1="128.844" x2="293.726" y2="163.332"/>
			</g>
		</g>
		
			<line fill="none" stroke="#000000" stroke-width="0.75" stroke-linecap="round" stroke-linejoin="round" stroke-miterlimit="10" stroke-dasharray="1.5" x1="221.812" y1="82.02" x2="232.822" y2="78.628"/>
		
			<line fill="none" stroke="#000000" stroke-width="0.75" stroke-linecap="round" stroke-linejoin="round" stroke-miterlimit="10" stroke-dasharray="1.5" x1="291.501" y1="127.381" x2="302.511" y2="123.988"/>
		
			<line fill="none" stroke="#000000" stroke-width="0.75" stroke-linecap="round" stroke-linejoin="round" stroke-miterlimit="10" stroke-dasharray="1.5" x1="291.501" y1="165.904" x2="302.511" y2="162.512"/>
	</g>
</g>
<text transform="matrix(1 0 0 1 124.3569 8.6006)" font-family="'Consolas'" font-size="10.5">ex:carriedElement</text>
<g>
	<g>
		<path fill="none" stroke="#000000" stroke-width="0.75" stroke-miterlimit="10" d="M238.414,93.497
			c0-49.922,24.883-47.961,26.721-10.43"/>
		<g>
			<polygon points="262.199,81.081 265.023,82.146 267.75,80.854 265.242,87.545 			"/>
		</g>
	</g>
</g>
<g>
	<polyline fill="#5D6162" points="144.853,94.668 162.091,86.224 162.091,49.678 92.369,5.158 75.129,11.602 75.129,51.645 
		144.853,94.668 	"/>
	
		<line fill="none" stroke="#000000" stroke-width="0.75" stroke-miterlimit="10" x1="75.129" y1="11.602" x2="144.853" y2="56.479"/>
	<path fill="none" stroke="#000000" stroke-width="0.75" stroke-miterlimit="10" d="M144.853,58.122"/>
	<polyline fill="none" stroke="#000000" stroke-width="0.75" stroke-miterlimit="10" points="144.853,94.668 162.091,86.224 
		162.091,49.678 92.369,5.158 75.129,11.602 75.129,51.645 144.853,94.668 	"/>
	
		<line fill="none" stroke="#000000" stroke-width="0.75" stroke-miterlimit="10" x1="144.853" y1="56.479" x2="162.091" y2="49.678"/>
	
		<line fill="none" stroke="#000000" stroke-width="0.75" stroke-miterlimit="10" x1="144.853" y1="56.479" x2="144.853" y2="94.668"/>
</g>
<g>
	<g>
		<path fill="none" stroke="#000000" stroke-width="0.75" stroke-miterlimit="10" d="M238.345,90.817
			C235.32,30.882,131.806-10.717,124.738,28.412"/>
		<g>
			<circle cx="238.334" cy="90.678" r="2.82"/>
		</g>
		<g>
			<polygon points="122.279,26.034 124.919,27.495 127.804,26.61 124.357,32.87 			"/>
		</g>
	</g>
</g>
<text transform="matrix(1 0 0 1 241.23 49.9121)" font-family="'Consolas'" font-size="10.5">ex:carryingElement</text>
<g>
	<g>
		<path fill="none" stroke="#000000" stroke-width="0.75" stroke-miterlimit="10" d="M207.396,110.917
			c-1.564-60.003-55.049-104.371-58.723-65.475"/>
		<g>
			<circle cx="207.351" cy="110.782" r="2.82"/>
		</g>
		<g>
			<polygon points="146.093,43.176 148.795,44.519 151.638,43.506 148.474,49.913 			"/>
		</g>
	</g>
</g>
<text transform="matrix(1 0 0 1 92.8198 123.2832)" font-family="'Consolas'" font-size="10.5">bot:containsElement</text>
<text transform="matrix(1 0 0 1 0 36.6318)" font-family="'Consolas'" font-size="10.5">ex:weight|20</text>
</svg>
