<?xml version="1.0" encoding="utf-8"?>
<!-- Generator: Adobe Illustrator 16.0.0, SVG Export Plug-In . SVG Version: 6.00 Build 0)  -->
<!DOCTYPE svg PUBLIC "-//W3C//DTD SVG 1.1//EN" "http://www.w3.org/Graphics/SVG/1.1/DTD/svg11.dtd">
<svg version="1.1" id="Layer_1" xmlns="http://www.w3.org/2000/svg" xmlns:xlink="http://www.w3.org/1999/xlink" x="0px" y="0px"
	 width="707.252px" height="535.061px" viewBox="0 0 707.252 535.061" enable-background="new 0 0 707.252 535.061"
	 xml:space="preserve">
<g>
	<g>
		<polygon opacity="0.1" fill="#356A9A" points="514.32,348.953 409.62,382.227 339.896,335.775 339.896,34.22 444.595,0.375 
			514.32,44.948 		"/>
		
			<polyline fill="none" stroke="#000000" stroke-width="0.75" stroke-linecap="round" stroke-linejoin="round" stroke-miterlimit="10" points="
			444.595,0.375 444.595,302.5 339.896,335.775 		"/>
		<g>
			
				<path fill="none" stroke="#000000" stroke-width="0.75" stroke-linecap="round" stroke-linejoin="round" stroke-miterlimit="10" d="
				M514.32,348.953"/>
			
				<polyline fill="none" stroke="#000000" stroke-width="0.75" stroke-linecap="round" stroke-linejoin="round" stroke-miterlimit="10" points="
				409.62,382.227 409.62,78.199 514.32,44.948 			"/>
		</g>
		
			<line fill="none" stroke="#000000" stroke-width="0.75" stroke-linecap="round" stroke-linejoin="round" stroke-miterlimit="10" x1="339.896" y1="34.22" x2="409.62" y2="78.199"/>
		
			<polygon fill="none" stroke="#000000" stroke-width="0.75" stroke-linecap="round" stroke-linejoin="round" stroke-miterlimit="10" points="
			514.32,348.953 409.62,382.227 339.896,335.775 339.896,34.22 444.595,0.375 514.32,44.948 		"/>
		
			<line fill="none" stroke="#000000" stroke-width="0.75" stroke-linecap="round" stroke-linejoin="round" stroke-miterlimit="10" x1="444.595" y1="302.5" x2="514.32" y2="348.953"/>
	</g>
	<g>
		
			<line fill="none" stroke="#000000" stroke-width="0.75" stroke-linecap="round" stroke-linejoin="round" stroke-miterlimit="10" stroke-dasharray="1.5" x1="332.938" y1="339.353" x2="340.021" y2="335.775"/>
		<polygon opacity="0.9" fill="#356A9A" points="406.696,383.381 336.972,336.928 336.972,35.374 406.696,79.352 		"/>
		
			<line fill="none" stroke="#000000" stroke-width="0.75" stroke-linecap="round" stroke-linejoin="round" stroke-miterlimit="10" stroke-dasharray="1.5" x1="332.813" y1="37.797" x2="339.896" y2="34.22"/>
		
			<line fill="none" stroke="#000000" stroke-width="0.75" stroke-linecap="round" stroke-linejoin="round" stroke-miterlimit="10" stroke-dasharray="1.5" x1="402.537" y1="81.776" x2="409.62" y2="78.199"/>
		
			<line fill="none" stroke="#000000" stroke-width="0.75" stroke-linecap="round" stroke-linejoin="round" stroke-miterlimit="10" stroke-dasharray="1.5" x1="402.537" y1="385.688" x2="409.62" y2="382.109"/>
	</g>
	<g>
		<polyline opacity="0.8" fill="#C1C3C3" points="394.841,387.879 402.23,385.805 402.229,81.776 332.505,37.797 325.115,39.871 
			325.115,341.427 394.841,387.879 		"/>
		
			<polyline fill="none" stroke="#000000" stroke-width="0.75" stroke-linecap="round" stroke-linejoin="round" stroke-miterlimit="10" points="
			332.505,37.797 402.229,81.776 402.23,385.805 		"/>
		<g>
			
				<polygon fill="none" stroke="#000000" stroke-width="0.75" stroke-linecap="round" stroke-linejoin="round" stroke-miterlimit="10" points="
				394.841,387.879 325.115,341.427 325.115,39.871 394.84,83.85 			"/>
		</g>
		
			<line fill="none" stroke="#000000" stroke-width="0.75" stroke-linecap="round" stroke-linejoin="round" stroke-miterlimit="10" x1="394.841" y1="387.879" x2="402.23" y2="385.805"/>
		
			<line fill="none" stroke="#000000" stroke-width="0.75" stroke-linecap="round" stroke-linejoin="round" stroke-miterlimit="10" x1="325.115" y1="39.871" x2="332.505" y2="37.797"/>
		
			<line fill="none" stroke="#000000" stroke-width="0.75" stroke-linecap="round" stroke-linejoin="round" stroke-miterlimit="10" x1="394.84" y1="83.85" x2="402.23" y2="81.776"/>
	</g>
	<g>
		
			<line fill="none" stroke="#000000" stroke-width="0.75" stroke-linecap="round" stroke-linejoin="round" stroke-miterlimit="10" stroke-dasharray="1.5" x1="409.733" y1="382.107" x2="400.332" y2="396.357"/>
		<polygon opacity="0.9" fill="#356A9A" points="509.732,355.439 405.032,388.715 405.032,84.685 509.732,51.436 		"/>
		
			<line fill="none" stroke="#000000" stroke-width="0.75" stroke-linecap="round" stroke-linejoin="round" stroke-miterlimit="10" stroke-dasharray="1.5" x1="514.433" y1="44.851" x2="505.032" y2="59.101"/>
		
			<line fill="none" stroke="#000000" stroke-width="0.75" stroke-linecap="round" stroke-linejoin="round" stroke-miterlimit="10" stroke-dasharray="1.5" x1="409.733" y1="78.101" x2="400.332" y2="92.351"/>
		
			<line fill="none" stroke="#000000" stroke-width="0.75" stroke-linecap="round" stroke-linejoin="round" stroke-miterlimit="10" stroke-dasharray="1.5" x1="514.433" y1="348.856" x2="505.032" y2="363.106"/>
	</g>
	<g>
		
			<line fill="none" stroke="#000000" stroke-width="0.75" stroke-linecap="round" stroke-linejoin="round" stroke-miterlimit="10" stroke-dasharray="1.5" x1="316.257" y1="343.85" x2="325.367" y2="341.427"/>
		<polygon opacity="0.9" fill="#649B43" points="390.537,389.092 320.813,342.639 320.813,220.604 390.537,266.304 		"/>
		
			<line fill="none" stroke="#000000" stroke-width="0.75" stroke-linecap="round" stroke-linejoin="round" stroke-miterlimit="10" stroke-dasharray="1.5" x1="386.037" y1="390.303" x2="395.147" y2="387.88"/>
		
			<line fill="none" stroke="#000000" stroke-width="0.75" stroke-linecap="round" stroke-linejoin="round" stroke-miterlimit="10" stroke-dasharray="1.5" x1="316.313" y1="221.814" x2="325.422" y2="219.393"/>
		
			<line fill="none" stroke="#000000" stroke-width="0.75" stroke-linecap="round" stroke-linejoin="round" stroke-miterlimit="10" stroke-dasharray="1.5" x1="386.037" y1="267.492" x2="395.147" y2="265.068"/>
	</g>
	<g>
		<polygon opacity="0.1" fill="#649B43" points="385.73,390.301 281.032,423.576 211.308,377.123 211.308,255.313 316.005,221.814 
			385.73,267.516 		"/>
		
			<polyline fill="none" stroke="#000000" stroke-width="0.75" stroke-linecap="round" stroke-linejoin="round" stroke-miterlimit="10" points="
			316.005,221.814 316.005,343.85 211.308,377.123 		"/>
		<g>
			
				<path fill="none" stroke="#000000" stroke-width="0.75" stroke-linecap="round" stroke-linejoin="round" stroke-miterlimit="10" d="
				M385.73,390.301"/>
			
				<polyline fill="none" stroke="#000000" stroke-width="0.75" stroke-linecap="round" stroke-linejoin="round" stroke-miterlimit="10" points="
				281.032,423.576 281.032,300.757 385.73,267.516 			"/>
		</g>
		
			<line fill="none" stroke="#000000" stroke-width="0.75" stroke-linecap="round" stroke-linejoin="round" stroke-miterlimit="10" x1="211.308" y1="255.313" x2="281.032" y2="300.757"/>
		
			<polygon fill="none" stroke="#000000" stroke-width="0.75" stroke-linecap="round" stroke-linejoin="round" stroke-miterlimit="10" points="
			385.73,390.301 281.032,423.576 211.308,377.123 211.308,255.313 316.005,221.814 385.73,267.516 		"/>
		
			<line fill="none" stroke="#000000" stroke-width="0.75" stroke-linecap="round" stroke-linejoin="round" stroke-miterlimit="10" x1="316.005" y1="343.85" x2="385.73" y2="390.301"/>
	</g>
	<g>
		<polygon opacity="0.9" fill="#649B43" points="276.091,424.861 206.367,378.41 206.367,256.375 276.091,302.075 		"/>
		
			<line fill="none" stroke="#000000" stroke-width="0.75" stroke-linecap="round" stroke-linejoin="round" stroke-miterlimit="10" stroke-dasharray="1.5" x1="211.161" y1="254.875" x2="200.126" y2="257.875"/>
		
			<line fill="none" stroke="#000000" stroke-width="0.75" stroke-linecap="round" stroke-linejoin="round" stroke-miterlimit="10" stroke-dasharray="1.5" x1="200.126" y1="379.91" x2="211.161" y2="376.91"/>
		
			<line fill="none" stroke="#000000" stroke-width="0.75" stroke-linecap="round" stroke-linejoin="round" stroke-miterlimit="10" stroke-dasharray="1.5" x1="269.851" y1="426.361" x2="280.885" y2="423.361"/>
		
			<line fill="none" stroke="#000000" stroke-width="0.75" stroke-linecap="round" stroke-linejoin="round" stroke-miterlimit="10" stroke-dasharray="1.5" x1="280.885" y1="300.575" x2="269.782" y2="303.007"/>
	</g>
	<g>
		<g opacity="0.8">
			<polygon fill="#C1C3C3" points="193.967,260.139 193.967,382.173 263.692,428.626 269.782,425.826 269.782,303.007 
				200.058,257.563 			"/>
		</g>
		<g>
			
				<polygon fill="none" stroke="#000000" stroke-width="0.75" stroke-linecap="round" stroke-linejoin="round" stroke-miterlimit="10" points="
				193.967,260.139 193.967,382.173 263.692,428.626 269.782,425.826 269.782,303.007 200.058,257.563 			"/>
		</g>
		
			<line fill="none" stroke="#000000" stroke-width="0.75" stroke-linecap="round" stroke-linejoin="round" stroke-miterlimit="10" x1="263.692" y1="305.838" x2="269.782" y2="303.007"/>
		
			<line fill="none" stroke="#000000" stroke-width="0.75" stroke-linecap="round" stroke-linejoin="round" stroke-miterlimit="10" x1="193.967" y1="260.139" x2="263.692" y2="305.838"/>
		
			<line fill="none" stroke="#000000" stroke-width="0.75" stroke-linecap="round" stroke-linejoin="round" stroke-miterlimit="10" x1="263.692" y1="305.838" x2="263.692" y2="428.626"/>
	</g>
	<g>
		<polygon opacity="0.9" fill="#F8982C" points="258.921,429.91 189.196,383.459 189.196,261.424 258.921,307.125 		"/>
		
			<line fill="none" stroke="#000000" stroke-width="0.75" stroke-linecap="round" stroke-linejoin="round" stroke-miterlimit="10" stroke-dasharray="1.5" x1="193.991" y1="259.924" x2="182.956" y2="262.924"/>
		
			<line fill="none" stroke="#000000" stroke-width="0.75" stroke-linecap="round" stroke-linejoin="round" stroke-miterlimit="10" stroke-dasharray="1.5" x1="182.956" y1="384.959" x2="193.991" y2="381.959"/>
		
			<line fill="none" stroke="#000000" stroke-width="0.75" stroke-linecap="round" stroke-linejoin="round" stroke-miterlimit="10" stroke-dasharray="1.5" x1="252.681" y1="431.41" x2="263.716" y2="428.41"/>
		
			<line fill="none" stroke="#000000" stroke-width="0.75" stroke-linecap="round" stroke-linejoin="round" stroke-miterlimit="10" stroke-dasharray="1.5" x1="263.716" y1="305.625" x2="252.586" y2="309.307"/>
	</g>
	<g>
		<polygon fill="#C1C3C3" points="465.259,300.124 469.921,298.836 469.921,382.958 428.33,395.693 428.589,392.514 
			465.259,380.831 		"/>
		
			<polyline fill="none" stroke="#000000" stroke-width="1.5" stroke-linecap="round" stroke-linejoin="round" stroke-miterlimit="10" points="
			465.259,381.029 469.921,382.958 469.921,298.836 428.589,312.004 428.589,395.613 		"/>
		<polyline fill="#036936" points="428.589,392.514 428.589,311.807 465.259,300.124 465.259,380.831 428.589,392.514 
			465.259,380.831 		"/>
		<polyline fill="none" stroke="#000000" stroke-width="1.5" stroke-miterlimit="10" points="428.589,392.514 465.259,380.831 
			465.259,300.124 		"/>
	</g>
	<g>
		
			<line fill="none" stroke="#000000" stroke-width="0.75" stroke-linecap="round" stroke-linejoin="round" stroke-miterlimit="10" stroke-dasharray="1.5" x1="385.636" y1="390.371" x2="396.712" y2="398.017"/>
		<polygon opacity="0.9" fill="#649B43" points="389.959,270.455 285.261,303.697 285.261,426.517 389.959,393.241 		"/>
		
			<line fill="none" stroke="#000000" stroke-width="0.75" stroke-linecap="round" stroke-linejoin="round" stroke-miterlimit="10" stroke-dasharray="1.5" x1="281.032" y1="300.757" x2="292.108" y2="308.402"/>
		
			<line fill="none" stroke="#000000" stroke-width="0.75" stroke-linecap="round" stroke-linejoin="round" stroke-miterlimit="10" stroke-dasharray="1.5" x1="280.282" y1="423.443" x2="291.358" y2="431.088"/>
		
			<line fill="none" stroke="#000000" stroke-width="0.75" stroke-linecap="round" stroke-linejoin="round" stroke-miterlimit="10" stroke-dasharray="1.5" x1="385.636" y1="267.516" x2="396.712" y2="275.16"/>
		
			<line fill="none" stroke="#000000" stroke-width="0.75" stroke-linecap="round" stroke-linejoin="round" stroke-miterlimit="10" stroke-dasharray="6" x1="343.427" y1="285.229" x2="342.677" y2="408.27"/>
	</g>
	<g>
		<polygon opacity="0.1" fill="#F8982C" points="252.656,431.626 147.958,464.9 78.233,418.448 78.233,296.637 182.932,263.139 
			252.656,308.838 		"/>
		
			<polyline fill="none" stroke="#000000" stroke-width="0.75" stroke-linecap="round" stroke-linejoin="round" stroke-miterlimit="10" points="
			182.932,263.139 182.932,385.173 78.233,418.448 		"/>
		<g>
			
				<path fill="none" stroke="#000000" stroke-width="0.75" stroke-linecap="round" stroke-linejoin="round" stroke-miterlimit="10" d="
				M252.656,431.626"/>
			
				<polyline fill="none" stroke="#000000" stroke-width="0.75" stroke-linecap="round" stroke-linejoin="round" stroke-miterlimit="10" points="
				147.958,464.9 147.958,342.082 252.656,308.838 			"/>
		</g>
		
			<line fill="none" stroke="#000000" stroke-width="0.75" stroke-linecap="round" stroke-linejoin="round" stroke-miterlimit="10" x1="78.233" y1="296.637" x2="147.958" y2="342.082"/>
		
			<polygon fill="none" stroke="#000000" stroke-width="0.75" stroke-linecap="round" stroke-linejoin="round" stroke-miterlimit="10" points="
			252.656,431.626 147.958,464.9 78.233,418.448 78.233,296.637 182.932,263.139 252.656,308.838 		"/>
		
			<line fill="none" stroke="#000000" stroke-width="0.75" stroke-linecap="round" stroke-linejoin="round" stroke-miterlimit="10" x1="182.932" y1="385.173" x2="252.656" y2="431.626"/>
	</g>
	<g>
		
			<line fill="none" stroke="#000000" stroke-width="0.75" stroke-linecap="round" stroke-linejoin="round" stroke-miterlimit="10" stroke-dasharray="1.5" x1="182.956" y1="312.773" x2="193.967" y2="309.382"/>
		<polygon opacity="0.4" fill="#5D6162" points="254.871,355.307 185.146,312.282 185.146,272.24 254.871,317.116 		"/>
		<g>
			<g>
				<polyline fill="none" stroke="#CE2026" stroke-width="0.75" stroke-miterlimit="10" points="254.871,354.557 254.871,355.307 
					254.232,354.912 				"/>
				
					<line fill="none" stroke="#CE2026" stroke-width="0.75" stroke-miterlimit="10" stroke-dasharray="1.5176,1.5176" x1="252.941" y1="354.115" x2="186.43" y2="313.074"/>
				<polyline fill="none" stroke="#CE2026" stroke-width="0.75" stroke-miterlimit="10" points="185.785,312.676 185.146,312.282 
					185.146,311.532 				"/>
				
					<line fill="none" stroke="#CE2026" stroke-width="0.75" stroke-miterlimit="10" stroke-dasharray="1.5417,1.5417" x1="185.146" y1="309.99" x2="185.146" y2="273.762"/>
				<polyline fill="none" stroke="#CE2026" stroke-width="0.75" stroke-miterlimit="10" points="185.146,272.99 185.146,272.24 
					185.777,272.646 				"/>
				
					<line fill="none" stroke="#CE2026" stroke-width="0.75" stroke-miterlimit="10" stroke-dasharray="1.4803,1.4803" x1="187.022" y1="273.447" x2="253.617" y2="316.31"/>
				<polyline fill="none" stroke="#CE2026" stroke-width="0.75" stroke-miterlimit="10" points="254.24,316.711 254.871,317.116 
					254.871,317.866 				"/>
				
					<line fill="none" stroke="#CE2026" stroke-width="0.75" stroke-miterlimit="10" stroke-dasharray="1.4676,1.4676" x1="254.871" y1="319.334" x2="254.871" y2="353.822"/>
			</g>
		</g>
		
			<line fill="none" stroke="#000000" stroke-width="0.75" stroke-linecap="round" stroke-linejoin="round" stroke-miterlimit="10" stroke-dasharray="1.5" x1="182.956" y1="272.51" x2="193.967" y2="269.118"/>
		
			<line fill="none" stroke="#000000" stroke-width="0.75" stroke-linecap="round" stroke-linejoin="round" stroke-miterlimit="10" stroke-dasharray="1.5" x1="252.646" y1="317.871" x2="263.656" y2="314.479"/>
		
			<line fill="none" stroke="#000000" stroke-width="0.75" stroke-linecap="round" stroke-linejoin="round" stroke-miterlimit="10" stroke-dasharray="1.5" x1="252.646" y1="356.395" x2="263.656" y2="353.002"/>
	</g>
	<g>
		
			<line fill="none" stroke="#000000" stroke-width="0.75" stroke-linecap="round" stroke-linejoin="round" stroke-miterlimit="10" stroke-dasharray="1.5" x1="252.594" y1="431.023" x2="282.379" y2="433.729"/>
		<polygon opacity="0.9" fill="#F8982C" points="266.737,309.848 162.039,343.091 162.039,465.909 266.737,432.635 		"/>
		
			<line fill="none" stroke="#000000" stroke-width="0.75" stroke-linecap="round" stroke-linejoin="round" stroke-miterlimit="10" stroke-dasharray="1.5" x1="147.958" y1="464.9" x2="177.744" y2="467.605"/>
		
			<line fill="none" stroke="#000000" stroke-width="0.75" stroke-linecap="round" stroke-linejoin="round" stroke-miterlimit="10" stroke-dasharray="1.5" x1="147.958" y1="342.492" x2="177.744" y2="345.195"/>
		
			<line fill="none" stroke="#000000" stroke-width="0.75" stroke-linecap="round" stroke-linejoin="round" stroke-miterlimit="10" stroke-dasharray="1.5" x1="252.594" y1="308.496" x2="282.379" y2="311.199"/>
	</g>
	<g>
		<polygon opacity="0.8" fill="#C1C3C3" points="177.744,467.605 177.744,345.104 343.074,292.047 343.074,110.885 505.741,59.198 
			515.093,66.48 515.093,368.605 184.901,472.876 		"/>
		<path fill="none" stroke="#000000" stroke-width="1.5" stroke-miterlimit="10" d="M510.593,363.411"/>
		<polygon fill="none" stroke="#000000" stroke-width="1.5" stroke-miterlimit="10" points="177.744,467.605 177.744,345.104 
			343.074,292.047 343.074,110.885 505.32,59.198 515.093,66.48 515.093,368.605 184.901,472.876 		"/>
		<polyline fill="none" stroke="#000000" stroke-width="1.5" stroke-miterlimit="10" points="184.901,472.876 185.146,349.873 
			353.687,296.184 355.026,118.159 515.093,66.48 		"/>
		
			<line fill="none" stroke="#000000" stroke-width="1.5" stroke-miterlimit="10" x1="177.744" y1="345.104" x2="185.146" y2="349.873"/>
		
			<line fill="none" stroke="#000000" stroke-width="1.5" stroke-miterlimit="10" x1="343.074" y1="292.047" x2="353.687" y2="296.184"/>
		
			<line fill="none" stroke="#000000" stroke-width="1.5" stroke-miterlimit="10" x1="343.074" y1="110.885" x2="355.026" y2="118.159"/>
	</g>
	<g opacity="0.9">
		
			<line fill="none" stroke="#000000" stroke-width="0.75" stroke-linecap="round" stroke-linejoin="round" stroke-miterlimit="10" stroke-dasharray="1.5" x1="185.146" y1="349.873" x2="180.694" y2="362.916"/>
		
			<line fill="none" stroke="#000000" stroke-width="0.75" stroke-linecap="round" stroke-linejoin="round" stroke-miterlimit="10" stroke-dasharray="1.5" x1="185.146" y1="473.188" x2="180.694" y2="486.232"/>
		
			<line fill="none" stroke="#000000" stroke-width="0.75" stroke-linecap="round" stroke-linejoin="round" stroke-miterlimit="10" stroke-dasharray="1.5" x1="347.878" y1="422.104" x2="343.427" y2="435.147"/>
		<polygon opacity="0.9" fill="#924C9D" points="345.724,428.83 183.251,480.109 183.251,356.838 345.724,304.999 		"/>
		
			<line fill="none" stroke="#000000" stroke-width="0.75" stroke-linecap="round" stroke-linejoin="round" stroke-miterlimit="10" stroke-dasharray="1.5" x1="347.128" y1="298.686" x2="342.677" y2="311.729"/>
		<g>
			<g>
				
					<line fill="none" stroke="#000000" stroke-width="0.75" stroke-linecap="round" stroke-linejoin="round" x1="289.601" y1="322.906" x2="289.601" y2="325.906"/>
				
					<line fill="none" stroke="#000000" stroke-width="0.75" stroke-linecap="round" stroke-linejoin="round" stroke-dasharray="6.2164,6.2164" x1="289.601" y1="332.123" x2="289.601" y2="440.91"/>
				
					<line fill="none" stroke="#000000" stroke-width="0.75" stroke-linecap="round" stroke-linejoin="round" x1="289.601" y1="444.019" x2="289.601" y2="447.019"/>
			</g>
		</g>
	</g>
	<g>
		
			<line fill="none" stroke="#ED1C24" stroke-width="3.75" stroke-linecap="round" stroke-miterlimit="10" x1="357.845" y1="300.922" x2="357.845" y2="424.548"/>
		
			<line fill="none" stroke="#000000" stroke-width="0.75" stroke-miterlimit="10" stroke-dasharray="1.5" x1="364.756" y1="305.207" x2="352.267" y2="296.637"/>
		
			<line fill="none" stroke="#000000" stroke-width="0.75" stroke-miterlimit="10" stroke-dasharray="1.5" x1="364.756" y1="404.184" x2="352.267" y2="395.613"/>
		
			<line fill="none" stroke="#000000" stroke-width="0.75" stroke-miterlimit="10" stroke-dasharray="1.5" x1="364.756" y1="429.839" x2="352.267" y2="421.268"/>
	</g>
	<g>
		<polygon opacity="0.9" fill="#CD3F27" points="531.782,370.219 371.716,421.326 371.716,119.771 531.782,68.094 		"/>
		
			<line fill="none" stroke="#000000" stroke-width="0.75" stroke-linecap="round" stroke-linejoin="round" stroke-miterlimit="10" stroke-dasharray="1.5" x1="515.093" y1="368.686" x2="550.491" y2="371.549"/>
		
			<line fill="none" stroke="#000000" stroke-width="0.75" stroke-linecap="round" stroke-linejoin="round" stroke-miterlimit="10" stroke-dasharray="1.5" x1="515.093" y1="66.662" x2="550.491" y2="69.525"/>
		
			<line fill="none" stroke="#000000" stroke-width="0.75" stroke-linecap="round" stroke-linejoin="round" stroke-miterlimit="10" stroke-dasharray="1.5" x1="354.017" y1="118.159" x2="389.416" y2="121.022"/>
		
			<line fill="none" stroke="#000000" stroke-width="0.75" stroke-linecap="round" stroke-linejoin="round" stroke-miterlimit="10" stroke-dasharray="1.5" x1="353.687" y1="419.576" x2="372.259" y2="420.863"/>
		
			<line fill="none" stroke="#000000" stroke-width="0.75" stroke-linecap="round" stroke-linejoin="round" stroke-miterlimit="10" stroke-dasharray="6" x1="428.33" y1="101.493" x2="428.33" y2="403.25"/>
		
			<line fill="none" stroke="#000000" stroke-width="0.75" stroke-linecap="round" stroke-linejoin="round" stroke-miterlimit="10" stroke-dasharray="6" x1="372.259" y1="296.33" x2="428.589" y2="278.656"/>
	</g>
	<g>
		<polygon opacity="0.1" fill="#CD3F27" points="620.216,418.002 460.332,469.35 390.425,422.656 390.425,121.101 550.491,69.424 
			620.216,113.997 		"/>
		
			<polyline fill="none" stroke="#000000" stroke-width="0.75" stroke-linecap="round" stroke-linejoin="round" stroke-miterlimit="10" points="
			550.491,69.424 550.491,371.549 390.425,422.656 		"/>
		<g>
			
				<path fill="none" stroke="#000000" stroke-width="0.75" stroke-linecap="round" stroke-linejoin="round" stroke-miterlimit="10" d="
				M565.032,436.074"/>
			
				<polyline fill="none" stroke="#000000" stroke-width="0.75" stroke-linecap="round" stroke-linejoin="round" stroke-miterlimit="10" points="
				460.332,469.35 460.332,165.32 620.216,113.997 			"/>
		</g>
		
			<line fill="none" stroke="#000000" stroke-width="0.75" stroke-linecap="round" stroke-linejoin="round" stroke-miterlimit="10" x1="390.425" y1="121.101" x2="460.332" y2="165.32"/>
		
			<polygon fill="none" stroke="#000000" stroke-width="0.75" stroke-linecap="round" stroke-linejoin="round" stroke-miterlimit="10" points="
			620.216,418.002 460.332,469.35 390.425,422.656 390.425,121.101 550.491,69.424 620.216,113.997 		"/>
		
			<line fill="none" stroke="#000000" stroke-width="0.75" stroke-linecap="round" stroke-linejoin="round" stroke-miterlimit="10" x1="550.491" y1="371.549" x2="620.216" y2="418.002"/>
	</g>
	<g>
		<g>
			<g>
				
					<line fill="none" stroke="#000000" stroke-width="0.75" stroke-miterlimit="10" x1="369.124" y1="428.084" x2="369.848" y2="427.885"/>
				
					<line fill="none" stroke="#000000" stroke-width="0.75" stroke-miterlimit="10" stroke-dasharray="1.5967,1.5967" x1="371.387" y1="427.461" x2="386.01" y2="423.431"/>
				
					<line fill="none" stroke="#000000" stroke-width="0.75" stroke-miterlimit="10" x1="386.779" y1="423.219" x2="387.503" y2="423.02"/>
			</g>
		</g>
		<polygon opacity="0.9" fill="#CD3F27" points="449.937,473.162 378.894,425.26 378.894,301.578 449.937,349.478 		"/>
		<g>
			<g>
				
					<line fill="none" stroke="#000000" stroke-width="0.75" stroke-miterlimit="10" x1="367.858" y1="304.43" x2="368.586" y2="304.25"/>
				
					<line fill="none" stroke="#000000" stroke-width="0.75" stroke-miterlimit="10" stroke-dasharray="1.45,1.45" x1="369.994" y1="303.9" x2="388.993" y2="299.191"/>
				
					<line fill="none" stroke="#000000" stroke-width="0.75" stroke-miterlimit="10" x1="389.697" y1="299.016" x2="390.425" y2="298.836"/>
			</g>
		</g>
		<g>
			<g>
				
					<line fill="none" stroke="#000000" stroke-width="0.75" stroke-miterlimit="10" x1="440.168" y1="352.152" x2="440.889" y2="351.943"/>
				
					<line fill="none" stroke="#000000" stroke-width="0.75" stroke-miterlimit="10" stroke-dasharray="1.4993,1.4993" x1="442.328" y1="351.527" x2="458.891" y2="346.736"/>
				
					<line fill="none" stroke="#000000" stroke-width="0.75" stroke-miterlimit="10" x1="459.611" y1="346.527" x2="460.332" y2="346.319"/>
			</g>
		</g>
		<g>
			<g>
				
					<line fill="none" stroke="#000000" stroke-width="0.75" stroke-miterlimit="10" x1="439.104" y1="474.652" x2="439.832" y2="474.471"/>
				
					<line fill="none" stroke="#000000" stroke-width="0.75" stroke-miterlimit="10" stroke-dasharray="1.5677,1.5677" x1="441.354" y1="474.091" x2="458.844" y2="469.721"/>
				
					<line fill="none" stroke="#000000" stroke-width="0.75" stroke-miterlimit="10" x1="459.604" y1="469.531" x2="460.332" y2="469.35"/>
			</g>
		</g>
	</g>
	<g>
		<polygon opacity="0.8" fill="#C1C3C3" points="361.546,306.013 361.546,429.693 432.589,477.596 439.104,474.652 439.104,352.039 
			367.858,304.43 		"/>
		
			<polyline fill="none" stroke="#000000" stroke-width="0.75" stroke-linecap="round" stroke-linejoin="round" stroke-miterlimit="10" points="
			361.546,306.013 432.589,353.912 432.589,477.596 		"/>
		
			<polygon fill="none" stroke="#000000" stroke-width="0.75" stroke-linecap="round" stroke-linejoin="round" stroke-miterlimit="10" points="
			361.546,306.013 361.546,429.693 432.589,477.596 439.104,474.652 439.104,352.039 367.858,304.43 		"/>
		
			<line fill="none" stroke="#000000" stroke-width="0.75" stroke-linecap="round" stroke-linejoin="round" stroke-miterlimit="10" x1="432.589" y1="353.912" x2="439.104" y2="352.039"/>
	</g>
	<g>
		<g>
			<g>
				
					<line fill="none" stroke="#000000" stroke-width="0.75" stroke-linecap="round" stroke-linejoin="round" x1="343.167" y1="434.907" x2="343.891" y2="434.708"/>
				
					<line fill="none" stroke="#000000" stroke-width="0.75" stroke-linecap="round" stroke-linejoin="round" stroke-dasharray="1.5967,1.5967" x1="345.43" y1="434.283" x2="360.053" y2="430.255"/>
				
					<line fill="none" stroke="#000000" stroke-width="0.75" stroke-linecap="round" stroke-linejoin="round" x1="360.822" y1="430.043" x2="361.546" y2="429.844"/>
			</g>
		</g>
		<polygon opacity="0.9" fill="#924C9D" points="423.98,479.984 352.937,432.083 352.937,308.402 423.98,356.301 		"/>
		<g>
			<g>
				
					<line fill="none" stroke="#000000" stroke-width="0.75" stroke-linecap="round" stroke-linejoin="round" x1="343.167" y1="311.076" x2="343.891" y2="310.877"/>
				
					<line fill="none" stroke="#000000" stroke-width="0.75" stroke-linecap="round" stroke-linejoin="round" stroke-dasharray="1.5967,1.5967" x1="345.43" y1="310.453" x2="360.053" y2="306.424"/>
				
					<line fill="none" stroke="#000000" stroke-width="0.75" stroke-linecap="round" stroke-linejoin="round" x1="360.822" y1="306.212" x2="361.546" y2="306.013"/>
			</g>
		</g>
		<g>
			<g>
				
					<line fill="none" stroke="#000000" stroke-width="0.75" stroke-linecap="round" stroke-linejoin="round" x1="414.211" y1="358.976" x2="414.934" y2="358.776"/>
				
					<line fill="none" stroke="#000000" stroke-width="0.75" stroke-linecap="round" stroke-linejoin="round" stroke-dasharray="1.5966,1.5966" x1="416.473" y1="358.352" x2="431.096" y2="354.323"/>
				
					<line fill="none" stroke="#000000" stroke-width="0.75" stroke-linecap="round" stroke-linejoin="round" x1="431.865" y1="354.111" x2="432.589" y2="353.912"/>
			</g>
		</g>
		<g>
			<g>
				
					<line fill="none" stroke="#000000" stroke-width="0.75" stroke-linecap="round" stroke-linejoin="round" x1="414.961" y1="482.242" x2="415.684" y2="482.043"/>
				
					<line fill="none" stroke="#000000" stroke-width="0.75" stroke-linecap="round" stroke-linejoin="round" stroke-dasharray="1.5966,1.5966" x1="417.223" y1="481.619" x2="431.846" y2="477.589"/>
				
					<line fill="none" stroke="#000000" stroke-width="0.75" stroke-linecap="round" stroke-linejoin="round" x1="432.615" y1="477.377" x2="433.339" y2="477.178"/>
			</g>
		</g>
	</g>
	<g>
		<polygon opacity="0.1" fill="#924C9D" points="414.211,482.66 254.706,535.061 180.694,486.188 180.694,362.916 343.167,311.076 
			414.211,358.976 		"/>
		
			<polyline fill="none" stroke="#000000" stroke-width="0.75" stroke-linecap="round" stroke-linejoin="round" stroke-miterlimit="10" points="
			343.167,311.076 343.167,434.758 180.694,486.188 		"/>
		<g>
			
				<path fill="none" stroke="#000000" stroke-width="0.75" stroke-linecap="round" stroke-linejoin="round" stroke-miterlimit="10" d="
				M411.81,481.211"/>
			
				<polyline fill="none" stroke="#000000" stroke-width="0.75" stroke-linecap="round" stroke-linejoin="round" stroke-miterlimit="10" points="
				254.706,535.061 254.706,411.047 414.211,358.976 			"/>
		</g>
		
			<line fill="none" stroke="#000000" stroke-width="0.75" stroke-linecap="round" stroke-linejoin="round" stroke-miterlimit="10" x1="180.694" y1="362.916" x2="254.706" y2="411.047"/>
		
			<polygon fill="none" stroke="#000000" stroke-width="0.75" stroke-linecap="round" stroke-linejoin="round" stroke-miterlimit="10" points="
			414.211,482.66 254.706,535.061 180.694,486.188 180.694,362.916 343.167,311.076 414.211,358.976 		"/>
		
			<line fill="none" stroke="#000000" stroke-width="0.75" stroke-linecap="round" stroke-linejoin="round" stroke-miterlimit="10" x1="343.167" y1="434.758" x2="414.211" y2="482.66"/>
	</g>
</g>
<g>
	<g>
		
			<line fill="none" stroke="#EE2F47" stroke-width="3.75" stroke-miterlimit="10" x1="-8.727" y1="528.819" x2="-4.433" y2="527.474"/>
		
			<line fill="none" stroke="#EE2F47" stroke-width="3.75" stroke-miterlimit="10" stroke-dasharray="9.0243,9.0243" x1="4.179" y1="524.776" x2="688.802" y2="310.315"/>
		
			<line fill="none" stroke="#EE2F47" stroke-width="3.75" stroke-miterlimit="10" x1="693.108" y1="308.966" x2="697.401" y2="307.621"/>
	</g>
</g>
<g>
	<rect x="51.063" y="504.186" opacity="0.8" fill="#C1C3C3" width="113.068" height="24.809"/>
	<text transform="matrix(1 0 0 1 55.1494 521.9824)" font-family="'GeosansLight'" font-size="18">Brandsektion B</text>
	
		<rect x="51.063" y="504.186" fill="none" stroke="#000000" stroke-width="0.75" stroke-miterlimit="10" width="113.068" height="24.809"/>
</g>
<text transform="matrix(1 0 0 1 448.9365 19.2954)" font-family="'Consolas'" font-size="10.5">ex:relatedSpace</text>
<text transform="matrix(1 0 0 1 530.4678 62.062)" font-family="'Consolas'" font-size="10.5">ex:oppositeSurface</text>
<text transform="matrix(1 0 0 1 492.4365 41.644)" font-family="'Consolas'" font-size="10.5">ex:relatedWall</text>
<g>
	<g>
		<path fill="none" stroke="#000000" stroke-width="0.75" stroke-miterlimit="10" d="M457.702,68.288
			c-0.975-59.166-34.136-73.695-36.36-32.627"/>
		<g>
			<circle cx="457.674" cy="68.147" r="2.82"/>
		</g>
		<g>
			<polygon points="418.675,33.465 421.409,34.739 424.226,33.655 421.225,40.14 			"/>
		</g>
	</g>
</g>
<g>
	<g>
		<path fill="none" stroke="#000000" stroke-width="0.75" stroke-miterlimit="10" d="M457.725,70.967
			c0-61.467-15.882-34.524-16.899,10.05"/>
		<g>
			<polygon points="438.144,78.851 440.894,80.092 443.696,78.974 440.774,85.495 			"/>
		</g>
	</g>
</g>
<text transform="matrix(1 0 0 1 84.1865 199.3589)" font-family="'Consolas'" font-size="10.5">ex:carriedElement</text>
<g>
	<g>
		<path fill="none" stroke="#000000" stroke-width="0.75" stroke-miterlimit="10" d="M198.243,284.255
			c0-49.922,24.883-47.961,26.722-10.43"/>
		<g>
			<polygon points="222.028,271.839 224.853,272.904 227.579,271.612 225.072,278.304 			"/>
		</g>
	</g>
</g>
<g>
	<polyline fill="#5D6162" points="104.684,285.427 121.922,276.982 121.922,240.437 52.198,195.916 34.959,202.36 34.959,242.403 
		104.684,285.427 	"/>
	
		<line fill="none" stroke="#000000" stroke-width="0.75" stroke-miterlimit="10" x1="34.959" y1="202.36" x2="104.684" y2="247.237"/>
	<path fill="none" stroke="#000000" stroke-width="0.75" stroke-miterlimit="10" d="M104.684,248.88"/>
	<polyline fill="none" stroke="#000000" stroke-width="0.75" stroke-miterlimit="10" points="104.684,285.427 121.922,276.982 
		121.922,240.437 52.198,195.916 34.959,202.36 34.959,242.403 104.684,285.427 	"/>
	
		<line fill="none" stroke="#000000" stroke-width="0.75" stroke-miterlimit="10" x1="104.684" y1="247.237" x2="121.922" y2="240.437"/>
	
		<line fill="none" stroke="#000000" stroke-width="0.75" stroke-miterlimit="10" x1="104.684" y1="247.237" x2="104.684" y2="285.427"/>
</g>
<g>
	<g>
		<path fill="none" stroke="#000000" stroke-width="0.75" stroke-miterlimit="10" d="M198.175,281.575
			C195.15,221.641,91.636,180.041,84.567,219.17"/>
		<g>
			<circle cx="198.165" cy="281.436" r="2.82"/>
		</g>
		<g>
			<polygon points="82.108,216.792 84.749,218.253 87.634,217.368 84.188,223.628 			"/>
		</g>
	</g>
</g>
<text transform="matrix(1 0 0 1 201.0596 240.6704)" font-family="'Consolas'" font-size="10.5">ex:carryingElement</text>
<g>
	<g>
		<path fill="none" stroke="#000000" stroke-width="0.75" stroke-miterlimit="10" d="M298.818,362.687
			c-1.099-59.463-38.542-84.513-41.076-44.202"/>
		<g>
			<circle cx="298.785" cy="362.546" r="2.82"/>
		</g>
		<g>
			<polygon points="255.093,316.275 257.821,317.564 260.644,316.495 257.607,322.964 			"/>
		</g>
	</g>
</g>
<g>
	<g>
		<path fill="none" stroke="#000000" stroke-width="0.75" stroke-miterlimit="10" d="M298.843,365.365
			c0-61.801,105.755-84.196,111.418-32.011"/>
		<g>
			<polygon points="407.321,331.431 410.165,332.438 412.865,331.091 410.497,337.832 			"/>
		</g>
	</g>
</g>
<text transform="matrix(1 0 0 1 253.3926 374.625)" font-family="'Consolas'" font-size="10.5">bot:adjacentElement</text>
<g>
	<g>
		<path fill="none" stroke="#000000" stroke-width="0.75" stroke-miterlimit="10" d="M356.919,301.868
			c0-49.96,24.921-27.317,26.727,11.794"/>
		<g>
			<polygon points="380.714,311.67 383.535,312.739 386.264,311.45 383.748,318.139 			"/>
		</g>
	</g>
</g>
<g>
	<g>
		<path fill="none" stroke="#000000" stroke-width="0.75" stroke-miterlimit="10" d="M356.888,299.188
			c-1.363-58.215-47.418-39.314-50.424,4.07"/>
		<g>
			<circle cx="356.847" cy="299.049" r="2.82"/>
		</g>
		<g>
			<polygon points="303.825,301.034 306.548,302.335 309.375,301.278 306.311,307.733 			"/>
		</g>
	</g>
</g>
<text transform="matrix(1 0 0 1 230.5605 258.3745)" font-family="'Consolas'" font-size="10.5">ex:intersectingWall</text>
<text transform="matrix(1 0 0 1 371.4238 275.4277)" font-family="'Consolas'" font-size="10.5">ex:intersectingWall</text>
<g>
	<g>
		<path fill="none" stroke="#000000" stroke-width="0.75" stroke-miterlimit="10" d="M108.313,504.07
			c1.213-171.724,118.963-181.078,125.235-128.358"/>
		<g>
			<circle cx="108.367" cy="503.93" r="2.82"/>
		</g>
		<g>
			<polygon points="230.59,373.798 233.44,374.786 236.132,373.42 233.809,380.178 			"/>
		</g>
	</g>
</g>
<text transform="matrix(1 0 0 1 17.9717 458.8867)" font-family="'Consolas'" font-size="10.5">bot:containsZone</text>
<g>
	<g>
		<path fill="none" stroke="#000000" stroke-width="0.75" stroke-miterlimit="10" d="M108.31,504.07
			c1.445-450.357,367.65-444.057,386.65-390.052"/>
		<g>
			<circle cx="108.342" cy="503.93" r="2.82"/>
		</g>
		<g>
			<polygon points="491.698,112.525 494.654,113.131 497.143,111.424 495.726,118.428 			"/>
		</g>
	</g>
</g>
<g>
	<g>
		<path fill="none" stroke="#000000" stroke-width="0.75" stroke-miterlimit="10" d="M457.759,67.792
			c0-61.464,53.545-38.228,56.979,6.103"/>
		<g>
			<polygon points="511.813,71.931 514.646,72.972 517.361,71.657 514.911,78.37 			"/>
		</g>
	</g>
</g>
<g>
	<g>
		<path fill="none" stroke="#000000" stroke-width="0.75" stroke-miterlimit="10" d="M167.226,301.676
			c-1.564-60.004-55.049-104.372-58.723-65.476"/>
		<g>
			<circle cx="167.18" cy="301.54" r="2.82"/>
		</g>
		<g>
			<polygon points="105.923,233.934 108.625,235.277 111.468,234.264 108.305,240.672 			"/>
		</g>
	</g>
</g>
<text transform="matrix(1 0 0 1 110.124 314.041)" font-family="'Consolas'" font-size="10.5">bot:containsElement</text>
</svg>
